<?xml version="1.0" encoding="utf-8"?>
<svg version="1.2" baseProfile="tiny" id="Layer_1" xmlns="http://www.w3.org/2000/svg" xmlns:xlink="http://www.w3.org/1999/xlink"
	 x="0px" y="0px" viewBox="0 0 900 600" xml:space="preserve">
<g>
	<path d="M248.49,133.34c-0.06,0-0.06,0-0.09,0c0.01,0.03,0.02,0.05,0.03,0.08c0.3,0.13,0.14,0.09,0.07-0.1L248.49,133.34z"/>
	<path d="M224.38,427.87c-0.19-0.06-0.13-0.06-0.12,0.12C224.42,428.07,224.35,428.11,224.38,427.87z"/>
	<path d="M362,38.48c-3.1-12.68-3.32-14.66-4.67-16.82c-4.74-7.59-10.54-10.97-11.68-11.03c-3.16-0.18-15.43-10.34-35.77-10.61
		c-8.12-0.11-10.12-0.88-27.46,10.84c-12.65-3.08-19.41-6.43-25.3,0.91c-2.57,3.2-4.43,7.28-8.53,11.57
		c-10.54,11.01-2.37,28.56-2.43,33.75c-0.27,22.6,5.45,28.31,0.51,46.01c-7.71,1.13-6.4,0.51-7.86,2.82
		c-5.49,1.59-10.16,4.74-15.21,7.1c-1.4,0.66-0.93,1.91-1.42,2.89c-3.88,2.1-11.94,6.1-18.93,9.86
		c-22.26,11.95-28.5,35.04-54.75,48.16c-8.72,4.35-10.82,1.66-27.4,5.01c-11.34,2.29-20.56,4.17-23.19,6.23
		c-13.45,10.5-25.68,17.55-28.69,36.02c-1.93,11.79-3.21,30.17,1.28,41.17c3.7,9.05-0.43,5.88,8.78,34.94
		c8.3,26.25,7.31,22.51,7.13,24.43c-0.58,6.09,15.31,32.6,16.51,37.69c8.21,34.69,5.15,25.79,3.56,32.89
		c-2.7,12.03-9.01,16.47-11.35,44.72c-1.12,13.48-0.07,13.64,0.56,28.21c0.23,5.42,21.96,69.51,17.5,81.69
		c-0.66-1.63-1.11-2.75-1.69-4.18c-0.59,0.42-4.21,2.01-4.68,9.06c-0.74,11.02-3.94,15.59-4.04,19.13
		c-0.34,12.02-10.76,14.51,6.68,21.62c1.93,0.79,2.75,0.24,12.53-2.43c1.21,1.73,1.5,3.83,5.59,5.13
		c16.06,5.12,35.18,3.58,38.4,4.66c0.83,0.28,10.89-0.59,18.59-6.36c0.4-3.72,0.08-7.46-0.49-11.16c-0.65-4.19-2.84-1.2-15.13-11.5
		c-3.07-2.55,0.24-0.89-4.32-5.34c-10.76-10.51-7.31-6.99-12.12-12.11c-7.35-7.82,3.96-13.71-13.8-19.26
		c-2.17-8-3.55-39.61-1.42-54.61c4.49-31.75,7.36-40.06,6.48-52.44c-0.58-8.24,1.87-4.63,1.95-10.3c0.11-7.82,0.64-4.09,2.16-9.36
		c0.32-1.12,0.44-2.32,0.94-3.35c0.49-1,0.77-2.01,0.89-3.06c1.76-14.76,3.24-13.52,3.45-17.77c0.47-9.73-0.26-28.43-0.25-28.48
		c1.39-8.93,1.16,7.62,1.27-26.18c0.03-8.27,26.32,41.62,32.26,57.53c1.53,4.1,1.41,8.31,0.89,12.66
		c-1.22,10.15-1.73,17.96-1.72,17.8c-0.94,13.22-1.5,9.57-2.19,16.85c-1.09,11.61,3.77,30.63,8.01,38.5
		c5.06,9.4,8.09,39.98,8.64,45.53c2.44,24.67,3.3,21.71,1.34,23.13c-3.17,2.3-4.66,4.47-4.8,11.23c-0.07,3.77-1.47,7.37-0.36,11.16
		c0.82,2.82-2.48,11.76-4.5,16.39c0.16,1.84,2.07,2.1,2.36,3.23c0.47,1.78,2.95,2.27,5.15,2.61c25.58,3.9,21.39-2.18,29.07,1.53
		c3.18,1.53,3.78,2.49,7.97,2.88c7.06,0.66,9.62,3.6,14.99,3.9c9.52,0.53,38.08,0.1,38.51-9.48c0.08-1.72-0.86-1.85-0.83-4.9
		c0.05-4.86-1.71-8.75-6.42-9.68c-4.26-0.85-16.13-4.19-20.33-9.6c-8.17-10.55-9.95-8.04-15.3-17.9
		c-13.27-24.43-17.3,13.58-16.39-48.77c0.78-53.71,0.86-48.03,4.69-50.27c1.04-0.61-5.2-1.05-6.5-2.41
		c-0.78-4.07-1.88-11.05-4.35-12.51c-0.56,4.82,5.43,15.8-1.69,12.69c-3.72-1.63-2.77-2.9-3.95-9.39c-0.69-3.78-3.68-3.37-3.29,1.59
		c0.52,6.48,3.42,6.59-4.98,2.24c0-6.31,0.5-7.63-0.98-12.03c-0.27-0.81-3.87-11.68-3.48-13.71c0.97-4.92,1.82,1.31,1.96-21.7
		c0.02-2.39,1.46-11.55,0.99-14.59c-10.41-67.23-3.44-87.97-5.81-91.4c-0.07-0.1-1.39-20.86-0.21-21.55
		c1.83,3.73-7.19-80.05-8.78-83.81c-1.44-3.42-0.19-17.62-2.68-3.17c-1.39-1.41-2.47-2.51-3.55-3.6c-0.08-1.96-1.58-3.37-1.94-5.28
		c-4.99-26.38,15.01-33.59,38.23-47.34c6.31-3.74,6.2-6.22,23.39-9.68c4.49,5.89,5.78,28.24,5.27,27.99
		c-4.46-1.92-4.28-1.94-4.28-1.84c1.19,2.85,4.67,3.49,4.7,5.55c0.26,27.16-3.17,30.86-8.15,42.82c-2.34,5.63-3.83-3.67-5.29,21.56
		c-1.16,19.99-1.38-22.37-0.07,32.12c0.16,6.52-6.35,24.42-7.05,29.77c-0.2,1.52-0.53,3.22-2.15,4.78c0-2.03,0.01-3.58,0-5.13
		c-0.01-3.43-1.92-1.91-1.83-0.02c1.22,24.54-0.41-4.49,3.88,38.26c0.53,5.28-0.97,1.02-1.65,15.73
		c-1.08,23.7-2.56,22.51-3.27,30.74c-0.63,7.31,0.64,12.46,0.35,20.66c-0.22,6.26-0.67,0.88,0.53,13.14
		c13.51,16.09,19.24,13.56,19.49,18.89c-5.22,2.24-6.76,8.28-5.39,12.92c3.84-10.47,3.11-10.19,6.08-10.56
		c0.1-0.01,13.39,1.19,14.13,2.03c1.02,1.19-1.47,0.61,6.84,1.41c2.35,0.22-6.54,2.18-8.92,20.23c-0.5,3.81,0.39,5.78,1.62,8.15
		c0.1,0.2,0.81,0.07,1.28,0.1c0.14,0.01-1.13-3.88-1.27-6.25c-0.52-8.94,6.88-23.3,12.25-20.97c8.04,3.51,10.91,8.97,11.56,9.81
		c-2.37,5.26-4.29,7.86-1.04,12.13c0.55,0.72,0.41,1.01,0.51,0.91c-10.62,10.47-18.76,6.88-20.49,7.85
		c-3.64-1.91-3.5,1.31-16.37-2.01c-2.68-0.69-1.38-2.01-2.31-2.82c0.55,0.11,0.12,0.11,0.4,0.35c-0.02,0.1,0.62-0.41,0.62-1.11
		c-0.01-1.39-3.58-5.45-0.13-18.42c1.49-5.59,3.82-7.28,4.9-9.06c-2.15-1.7-6.13,8.12-7.04,11.64c-2.01,7.76-1.03-0.96-2.44-2.38
		c-2.91,1.82,1.11,9.66,0.45,15.21c-0.37,3.12,1.29,9.05,4.67,9.11c-0.79,1.27-1.91,2-3.43,1.9c-11.78-0.78-5.17-0.85-9.22-12.2
		c-0.78-2.17-1.97-3.58-3.07-1.53c5.9,12.1-2.62,17.94,17.23,15.99c0.51-1.37,0.95-2.53,1.38-3.69c10.06,0,26.29,4.86,34.4-5.58
		c3.47-4.47,6.55-0.46,11.03-2.77c2.02,0.2,4.19-0.16,5.68,1.79c2.36,3.07,7.68-0.85,9.13-0.22c2.25,0.98,4.65,0.28,6.92,0.91
		c1.2,0.33,3.74-0.47,4.58-0.35c2.76,0.41,12.3-0.43,17.13-7.26c1.54-2.18,1.57-2.33,6.9-2.02c4.66,0.27,9.45-6.34,6.79-10.47
		c-2.06-3.19-5.32-3.32-11.54-4.55c-4.29-9.07-11.58-9.8-21.48-12.61c-1.28-1.48-1.78-5.65-5.61-7.62
		c-2.02-4.79-12.43-6.59-11.63-25.36c0.51-11.69-0.78,16.85,6.17-50.11c1.06-10.19,10.09-11.4,5.58-48.28
		c-1.69-13.78,0.95-13.07,2.48-28.04c3.62-35.41,16.92-46.56,17.76-69.03c0.67-17.94-8.52-22.48-20.28-39.47
		c1.15-2.39,8.6-19.11,13.23-20.2c2.16,0.92,4.84,0.89,7.14,2.24c1.44,0.85,9.84,0.24,11.2,0.05c5.69-0.77,6.36-5.54,5.44-11.17
		c2.74-3.29,2.75-3.29,1.73-7.42c-0.07-0.27,2.33-1.78,2.47-3.11c0.09-0.83-0.19-4.24-0.16-4.9c0.19-3.6,6.02-1.35,6.59-7.69
		c0.29-3.22-4.47-6.96-4.33-15.16c0-0.1-0.18,0.09,3.48-1.98c0.65-0.37-2.38-0.45-2.86-1.47c-0.05-0.1,1.48-1.59,1.58-1.68
		C366.06,52.69,363.3,43.82,362,38.48z M190.99,176.3c3.78,3.54,2.92,4.41,4.26,31.61c0.29,5.78-14.9-9.84-20.54-20.11
		c-2.96-5.39-5.76-16.79-4.72-25.51C198.38,134.03,169.96,156.58,190.99,176.3z M197.85,232.15c1.56,12.23,2.85,5.23-7.72,9.73
		c-2.32,0.99-4.59,0.03-6.88,0.23c-10.81,0.95-23.09-5.13-23.55-5.3c-10.31-3.89-20.76-20.12-20.62-20.93
		c0.61-3.51-17.32-22.07-9.69-34.77c20.14-3.74,13.63,2.29,38.35-16.53c0.42,4.05-6.54,23.43,28.01,49.18
		C196.65,216.99,195.31,212.14,197.85,232.15z M202.2,257.18c0,1.11,0.05,0.96-0.14,0.96C202.06,257.03,202.01,257.18,202.2,257.18z
		 M182.22,592.79c-3.31,2.97-3.08,1.01-7.61,2.9c-3.85,1.59-1.43,0.35-10.97,0.79c-23.29,1.11-30.56-1.89-36.11-3.71
		c-3.7-1.21-2.29-5.33-6.13-5.66c-2.76,1.71-6.13,2.11-9.39,2.84c-2.93,0.66-7.84-2.66-10.19-4.52c-0.28-1.07,8.41-34.54,7.63-35.22
		c3.84,3.33,2.07,2.06,6.43,4.7c2.44-0.78,6.12-3.53,6.76-4.45c1.73-2.51-2.19-1.64,5.08-6.79c7.4-5.23,13.19-10.78,19.17-2.75
		c1.2,3.84,0.77,10.45,1.28,10.95c-0.88-0.32-4.06-0.07-4.98,0.01c-5.77,0.51-8.28,1.95-13.07,4.23c-0.68,0.33-0.8,0.78-1.3,2.18
		c1.54,1.69,2.72-2.16,12.65-3.76c9.25-1.48,8.7-0.38,10.39,2.39c0.35,0.58-10.55-1.62-16.86,3.98c-0.51,0.45-0.55,1.12,0.33,1.8
		c6.17-2.79,12.8-3.89,19.36-2.46c-19.29,2.29-15.32,5.63-14.45,5.6c1.83-0.08,1.56-0.11,16.81-3.91c0.57,0.48,2.66,2.25,2.67,2.27
		c-5.58-0.15-17.2,2.36-13.22,5.35c13.42-3.56,14.93-5.36,16.8-1.63c-3.6,0.26-8.24,0.16-11.26,2.18
		c-1.22,3.96,7.05,0.15,12.52-0.45C182.93,588.27,182.22,572.47,182.22,592.79z M150.18,379.28c-0.99,1.29,1.68-2.27-2.21,14.59
		c-7.89,34.23-6.61,14.73-5.89,35.19c0.65,18.17-10.41,47.37-8.09,85.67c1.43,23.63,3.59,19.61-2.84,24.14
		c-7.16,5.06-10.17,6.55-9.91,10.12c-5.57,3.81-4.8,3.37-4.9,3.35c-1.62-0.24-2.74-1-3.46-2.32c1.89-2.08,5.87-0.47,1.23-25.2
		c-3.96-21.06-19.78-69.48-16.05-75.11c0.78-1.19,0.86-7.4,0.71-8.85c-3.3-31.7,20.16-37.27,7.11-82.35
		c-3.99-13.79-6.72-11.42-11.74-24.87c-11.51-30.89-30.94-87.05-19.23-117.53c2.59-6.75,3.29-6.9,4.42-7.2
		c-0.22-0.7-0.49-1.36,0.01-2.13c1.85-2.8,3.4-5.74,6.31-7.77c3.41-2.39,9.25-10.48,15.16-11.85c26.6-6.17,23.39-5.38,24.58-5.3
		c0.51,0.56-0.22,4.13-0.32,4.51c-2.14,7.61,7.5,25.77,12.23,32.01c6.38,8.42,7.64,8.94,15.69,16.7c4.88,4.7,28.02,12.38,38.22,9.07
		c-2.53,2.88-8.35,4.04-10.06,7.24c-1.83,3.45-27.63,11.79-27.73,11.82c-8.73,3.01,5.23,1.55,19.69-5.56
		c1.63-0.8-2.96,1.59,26-13.86c1.22,1.22,2.81,10.04,2.45,10.38c-2.07,1.93,0,4.57-1.71,6.71c-3.2-0.19-35.43,4.62-53.66,11.44
		c-2.46-0.88,0.68-2.25-0.1-4.9c-0.03-0.1-1.74-6.89-4.22-10.87c-0.06-0.1,0.04,0.31,1.21,8.01c0,2.22-3.5-4.83-34.95-3.95
		c-6.27,0.18-30.74,0.19-33.56,6.01c0.3,1.35,26.9-11.42,65.79,0.44c5.96,1.82,9.64,60.26,9.9,63.96
		c1.27,17.8-0.26,36.45-0.15,38.03C150.65,376.25,151.78,377.2,150.18,379.28z M228.54,583.52c-0.35-0.43-1.07-0.95-2-1.08
		c-9.26-1.3-9.03,4.13-18.59,1.91c-6.34-1.48-6.22,0.83-13.82-4.73c-0.1-0.08,1.31-2.17,1.88-3.89c3.76-11.3,1-12.93,3.3-29.26
		c0.08-0.57,0.99-1.47,0.94-1.58c0.19,0.4,0.29,7.03,10.43,8.24c1.9,0.23,2.62-0.47,10.81-5.76c2.28-1.47,0.44-3.05,4.11-5.42
		c3.68-2.38,5.09-3.11,6.3-5.01c1.91-3.02,4.81-3.48,5.97-2.39c2.18,2.05,6.7,7.5,8.42,11.57c-5.57-0.21-12.81,2.15-15.48,7.65
		c3.35,0.48,3.7-3.97,13.5-5.63c3.8-0.64,4.78,1.14,7.06,3.7c-0.85,1.3-4.57-1.98-14.54,2.3c-1.47,0.63-0.45,2.18-0.35,2.18
		c2.5-0.31,4.84-1.74,8.06-1.36c-2.15,1.29-4.52,1.95-3.76,3.54c0.32,0.66,0.91,0.9,1.62,0.75c11.55-2.36,4.03-0.56,6.97-1.38
		c0.26-0.38,0.64-0.54,1.1-0.55c2.83-0.09,1.65-1.53,5.95-1.4c-1.12,1.22-0.36,0.97-2.83,1.16c-4.7,0.36-9.2,3.41-7.16,5.26
		c2.26,2.04,12.24-5.77,13.65-0.96c-0.6,0.66-9.63,0.63-6.98,3.64c0.78,0.89,1.12,0.67,6.45,0.67c0.01,0.03,0.73,1.75,0.78,1.86
		c2.57,1.28,4.61-0.48,7.17-0.96c7.27,3.78,17.77,6.12,17.68,6.02c3.31,4.13,0.01,8.27,2.74,10.62c-0.19,0.19-0.35,3.25-6.31,5.53
		c-4.1-0.79-22.63,6.27-40.21-0.38C234.53,585.79,230.97,586.55,228.54,583.52z M245.83,554.45c0.39-0.06,0.28-0.08,0.38,0.09
		C245.82,554.62,245.94,554.64,245.83,554.45z M194.97,421.48c-1.45-9.38,4.92-20.57,9.87-22.59c0.56,0.47-1.51,10.48-2.13,12.05
		c-3.05,7.76-1.95,10.8,0.46,18.03c0.41,1.23,1.44,1.67,1.54,1.77c-0.96-7.75-5.1-8.25-0.91-18.51c1.2,3.96,2.41,7.91,3.6,11.86
		C211.16,436.58,196.94,434.27,194.97,421.48z M202.39,331.38c1.95,17.09,1.24,5,1.85,19.82c0.07,1.59,3.56,18.69,1.55,22.07
		c-0.7,1.18-0.03,21.01-0.03,20.91c0.08,5.09-1.85-0.68-6.69,6.71c-7.33,11.2-5.89,10.82-5.98,19.89
		c-0.07,7.7,4.99,12.53,8.32,12.85c9.11,0.9,5.39,0.21,8.43,3.61c3.31,3.7,2.44-0.91,3.4,10.37c1.16,0.3,0.87-0.35,0.87-6.85
		c9.43,1.09,7.44,2.83,12.11,2.53c3.52-0.23,2.66-0.25,2.76,3.02c1.1,37.56-5.57,45.63,1.46,85.68c0.88,4.95-1.19,4.24-6.62,8.28
		c-6.25,4.67,2.42,2.79-11.29,10c-5.12-7.36-3.98-4.09-3.98-11.96c0-0.1-1.34,2.6-1.24,5.18c0.07,1.81,0.54,2.68,2.14,6.8
		c-4.98,0.55-6.36-4.71-7.62-6.76c-0.06-0.1-0.23,0.24,1.08-1.15c1.49,0.87,0.25,3.95,1.87,3.69c1.35-0.19,0.81-3.33,0.6-4.96
		c-5.01-37.97-4.04-49.17-13.7-75.13c-6.33-16.96-6.74-30.67-4.87-37.62c2.46-9.13,1.9-26.36,4.47-32.65
		c5.89-14.35-32.42-64.59-37.13-76.16c-1.05-2.58-0.59-2-2.16-16.11c-3.54-31.59-10.66-28.69,2.02-31.6
		c24.88-5.73,24.47-6.5,26.46-5.55c0.46,0.22-0.27,0.49,15.15-3.15c4.63-1.1,4.89,0.11,4.91-0.25c-0.67,22.73,0.76,13.03,0.83,20.68
		C201.4,286.88,198.52,297.52,202.39,331.38z M286.25,75.37c-3.71-0.88-5.87-2.33-7.33-5.16C286.79,73.77,285.71,72.8,286.25,75.37z
		 M257.37,97.34c0.82,1.74,0.81,1.74-0.22,2.99C257.21,99.48,257.26,98.86,257.37,97.34z M258.06,94.49
		c-0.01-0.08,0.13-0.18,0.29-0.39C258.29,94.88,258.29,95.89,258.06,94.49z M262.23,92.55c1.61-12.65-1.1-28.59,0-30.72
		c0.28-0.54,4.07,25.75,3.35,26.64c-1.73,2.15,0.23,11.44-3.1,11.24C260.92,99.62,261.21,100.53,262.23,92.55z M270.15,31.92
		c-3.7,34.26,0.8,17.24,0.8,40.47C264.03,61.27,267.24,37.87,270.15,31.92z M269.22,77.8c0.01,0.37-0.34,0.5-0.2-0.11
		C269.21,77.8,269.21,77.7,269.22,77.8z M269.16,90.48c-0.08,0.39-0.04,0.39-0.12,0L269.16,90.48z M268.41,74.89
		C268.41,74.66,268.42,74.42,268.41,74.89L268.41,74.89z M273.04,96.12c-1.86-2.79,0.94-6.64,3.94-8.77
		C279.61,92,277.45,93.1,273.04,96.12z M275.71,80.85c0.35,1.36-1.07,1.98-1.21,3.23c0.23,0.81,0.47,1.67,0.56,1.99
		c-1.97,1.88-1.79,1.95-2.31,1.27c-0.15-0.2-0.18-0.95-0.14-1.28C274.29,71.87,272.68,69.21,275.71,80.85z M275.43,66.14
		c0.19-0.01,0.12-0.01,0.2,0.07c0.28,0.08,0.23,0.03,0.23,0.26c-0.01,0.48,2.96,1.92,1.42,2.41
		C275.23,69.51,276.23,66.11,275.43,66.14z M284.23,71.08c0-0.04,0-0.08,0-0.12c-3.56-1.36-8.1-7.09-7.95-7.09
		c9.3,2.56-3.04-3.04-4.11-12.53c-0.69-6.09,1.06,0.32,5.8,0.01c-2.29-3.48-1.95-0.1-4.77-5.67c-0.46-0.91-1.69-1.34-1.26-2.55
		c0.79-2.19,2.28,3.2,9.89,5.92c0.27,0.1,3.05,1.1,3.3,0.97c-1.87-3.03-12.05-5.9-11.67-12.61c5.41,4.43,8.85,3.1,25.51,10.49
		c-0.86,0-0.57,1.39-4.02-0.15c-1.78-0.79-3.12-1.2-5.03-0.2c-5.05,2.64-4.92,2.38-4.73,2.57c-0.38-0.12-2.15,8.21-3.13,8.92
		C278.29,61.78,286.47,72.64,284.23,71.08z M298.71,45.7c-2.97-0.98-17.93-8.57-18.03-8.62c-0.6,1.41-0.18,3.47-6.26-3.26
		c0.47-2.5,1.05-5.08,2.57-7.68c12.95,12.95,25.32,17.31,25.16,17.56c1.28-1.99-22.16-12.44,1.55-2.98
		c0.32,0.13,0.16-0.23,0.74,2.11c5.56,1.02,12.39,0.29,14.22,0.29c-1.33,0.72-1.92,1.28-2.54,1.35c-10.52,1.13-9.76,0.77-9.66,0.79
		C302.86,44.85,302.67,47,298.71,45.7z M260.1,14.9c0.33-0.1,0.51-1.48,2.05-1.59c1.43-0.11,1.9,0.54-1.9,1.55
		C260.02,15.36,258.27,16.91,260.1,14.9z M276.89,14.9c-4.35-3.95-9.03-2.76-11.14-3.05c-4.06-0.54-0.24-2.33,14.25,1.45
		C278.83,17.45,277.81,15.74,276.89,14.9z M306.38,5.77c0.1,0.02-5.48-0.45-5.69-0.17c-0.1,0.1,1.96,0.94,1.85,0.89
		c1.31,0.7,0.33,0.78,3.11,0.78c-1.11,1-2.08-0.07-1.98,0c-0.18-0.12,0.31-0.11-3.63,0.12c-4.22,0,18.58,4.31,22.67,5.34
		c0.1,0.03-0.18-0.47,0.9,2.44c-4.55,1.26-7.61-4.27-5.71-0.08c-3.05,0.44-20.62-8.06-21.02-7.42c0.87-1.36,2.26-2.11,3.82-2.11
		C301.46,4.3,304.53,4.67,306.38,5.77z M307.83,3.57c2.52,0,2.18-0.11,2.17,0.33C307.5,3.77,307.83,3.86,307.83,3.57z M320.27,18.1
		c-3.98,0-0.98-0.81-0.58-0.53c1.34,0.94,3.46,0.84,3.46,2.04c0.02,0,0.1-0.01,0.12-0.01l0.05,0.09c1.71,0.05,0.45,0.69,0.17,0.29
		C322.9,19.12,321.35,20.32,320.27,18.1z M317.71,9.19c0.02-0.18-0.05-0.16,0.31-0.04L317.71,9.19z M322.11,6.34
		c0.45,0.06,0.3,0.02,0.44,0.15C325.52,6.76,323.85,7.35,322.11,6.34z M317.35,4.64c1.11,0.2,12.76,3.59-5.31-0.18
		C313.7,4.26,315.61,4.32,317.35,4.64z M311.9,37.88c-13.28,2.27-19.16-4.68-23.05-4.3c-1.05,0.1-7.86-5.38-10.39-8.57
		c-0.7-0.89-0.31-1.15,0.56-2.71c2.17,0,2.3,4.28,18.51,11.15c0.14,0.06,1.01-0.11,1.02-0.21c0.09-1.7-4.89-2.37-12.81-8.43
		c-8.87-6.79-3.87-7.46,3.09-0.5c0.26-0.06,0.27,0.26,0,0c-4.32,1.01,2.94,1.48,13.03,9.78C305.54,34.47,308.85,36.22,311.9,37.88z
		 M326.57,35.18c1.98,1.98-5.04,2.85-9.58,2.02C321.08,35.86,325.48,34.06,326.57,35.18z M315.05,35.71c-1.51,0-1.28,0.1-1.28-0.31
		C315.29,35.4,315.05,35.3,315.05,35.71z M305.28,52.65c0.34,0.09,0.34,0.04,0,0.13L305.28,52.65z M302.81,51.96
		c0.28-0.02,0.26-0.02,0.26-0.02C303.05,52.08,302.71,51.97,302.81,51.96z M327.74,32.99c-2.42-0.22-1.48,0.29-4.11-0.66
		c-2.55-0.93-12.03,1.79-17.61-0.01c-6.63-2.14-20.42-11.97-24.08-15.09c0.91-1.42-0.94-0.08,8.89-6.36
		c2.01-1.28,1.86-0.68,20.68,4.07c1.76,0.44,3.86,2.46,3.96,2.39c-0.15-0.15-0.17-0.05,0.24-0.15c0.12-0.09-0.01,0.01,0,0
		c-2.03,0.29,8.47,4.28,8.93,5.57c0.86,0.03-0.43,0.98-10.83-3.74c2.21,2.94,4.51,4.29-3.21,0.95c-15.4-6.66-19.04-8.61-21.69-6.19
		c-1.17,1.07-0.29,2.38,0.71,2.7c0.51,0.16,1.01-0.08,1.53-0.01c5.67,0.82,22.19,7.59,25.48,9.87c-2.58,0.82-2.09,0.26-2.4,2.31
		c-1.12,0.35-3.25,0.82-2.1,1.02C329.63,32.77,329.48,26.6,327.74,32.99z M345.33,22.95c-0.78-0.21-2.33-2.47-2.66-2.46
		c0-0.03-0.66-0.18-0.66-0.79c-0.66-0.04-0.65-0.67-1.05-1.05c-2.08-0.4-2.98-2.26-2.75-2.03C339.99,16.88,344.81,22.8,345.33,22.95
		z M340.56,25.38c-1.18-0.2-2.68-3.27-11.95-7.75c-1.4-0.67-2.86-1.17-3.63-2.65C326.73,13.65,345.48,26.22,340.56,25.38z
		 M325.92,18.43c-0.18-0.11-0.2-0.05-0.22-0.23C325.72,18.22,325.9,18.41,325.92,18.43z M325.71,22.95
		c-0.13,0.07-0.31,0.25-0.39,0.21C325.12,23.08,324.34,22.69,325.71,22.95z M325.28,17.91c0.43,0.06,0.41-0.03,0.41,0.29
		C325.6,18.1,325.03,17.66,325.28,17.91z M326.67,7.6c-0.75,0.22-0.72-0.21-0.32-0.16C326.46,7.44,326.55,7.53,326.67,7.6z
		 M328.24,5.97c0.11-0.04,0.23-0.11,0.33-0.1C329.01,5.95,328.77,6.37,328.24,5.97z M329.19,8.4c0.73,0.76,1.59,0.08,2.48,1.01
		c0.1,0.11-1.6,0.1-2.28-0.76C327.81,8.57,328.8,8,329.19,8.4z M339.75,12.44c-5.19-3.61-4.69-3.14-3.56-2.81
		C342.72,11.51,344.44,15.71,339.75,12.44z M319.72,25.36c1.39-0.17,2.38,0.08,3.45,0.98C321.69,27.05,320.71,26.78,319.72,25.36z
		 M346.08,24.7c1.1,0,1.47,0.73,1.67,1.64C345.99,26.56,345.99,26.56,346.08,24.7z M249.44,65.07c1.33-2.68-1.5-9.24-2.41-22.49
		c-0.97-14,6.66-23.39,9.71-23.34c1.89,0.03,3.21-3.68,10.83-3.64c6.91,0.04-11.55,3.81-11.46,22.98
		c0.05,10.63,1.09,17.31,0.76,6.63c-0.45-14.91,6.12-23.22,13.9-28.22c1.16-0.75,4.02,0.16,6.45,0.61c0.1,0.02-1.34,2.89-3.57,3.92
		c-2.63,1.21-8.43,8.39-9.93,16.2c-7.4,38.58-0.25,30.89-4.41,50.97c-2.06,9.87,1.78-38.59-3.21,4.13
		c-2.87-0.63,0.55-5.95-0.07-25.79c-0.27-8.57-0.49-12.89-1.71-13.23c-1.18,4.29,2,8.23-1.96,4.28c0.49,4.59,2.03,17.29,0.25,27.71
		C249.05,64.02,249.2,65.54,249.44,65.07z M254.23,99.89c0-0.82-0.04-0.68,0.17-0.7C254.38,100.01,254.42,99.87,254.23,99.89z
		 M255.22,95.56c-0.09,0.86-0.14,1.79-0.28,0.69C254.93,96.15,255.02,96.04,255.22,95.56z M249.36,102.49
		c-0.1-0.02,3.7-0.38,3.8-0.35c0.6-0.6,0.38-1.14,2.75-0.26c-1.81,0.61-1.96,0.28-3.02,0.35
		C251.82,103.31,250.77,102.75,249.36,102.49z M253.87,165.87c5.75-46.78-1.92-51.42-3.31-59.2
		c31.38-12.34-17.05,108.94,35.63,91.87c14.17-4.58,20.41-37.32,21.81-42.12c4.19-14.39-0.37-18.88,5.45-24.56
		c1.77,3.14-0.27,4.64-0.16,8.8c0.52,19.89-13.95,55.23-15.62,64.69c-0.91,5.17-5.53,13.02-8.6,17.29
		c-6.72,9.36-17.35,9.15-27.55,8.83c-2.9-0.09-1.2-2.21-6.81-2.21c-16.26-0.01-10.45,0.15-12.94-0.14
		c-1.5-0.18-0.19-24.24-0.18-24.35c0.31-7.45,1.44-5.47,1.31-8.79C242.34,182.04,251.26,187.17,253.87,165.87z M248.58,398.27
		c-2.94-3.41-19.09-8.92-18.89-25.13c0.48-37.55,4.95-47.94,4.11-73.23c-0.69-20.57-3.17-21.04-0.96-26.95
		c14.42-38.6,4.73-40.51,11.76-41.29c10.55-1.16,11.7-0.83,12.82,0.46c0.34,0.39,9.28,2.19,14.57,1.94
		c4.52-0.21,7.51-1.35,11.57-2.62c0.33,2.38-0.72,10.9-1.03,13.12c-1.28,9.1,0.98,13.71-2.67,22.12
		c-8.51,19.57-4.11,42.47-1.25,57.84c0.58,3.11-1.08,0.04,0.18,7.23c0.98,5.57,4.75,33.15,2.57,37.02c-0.17,0.3-0.1,0.77-0.05,1.15
		c1.07,8.32-3.72,18.24-2.42,22.55c0.08,0.27-0.39,0.92-0.29,0.91c-7.73,0.91-4.21-2.16-10.69-1.34c-3.62,0.46-3.42-1.77-8.71-0.69
		c-4.65,0.95-4.64,1.05-7.1,5.1C249.96,399.96,249.93,399.83,248.58,398.27z M258.56,403.42c-0.59-0.59,3.99-7.51,3.85-8.21
		c-1.41,0-4.75,7.05-5.37,8.3c-2.35-0.06-4.29-0.56-5.32-1.08c1.49-4.65,5.65-10.54,9.54-9.05c9.46,3.61,10.21-5.09,3.3,10.8
		C262.39,405.17,260.51,404.6,258.56,403.42z M279.67,408.77c-2.57,0-7.61-2.21-6.31-4.02c-2.52,3.49,0.68,0.79-7.45,0.79
		c0.47-3.92,2.77-8.14,4.97-11.43c5.81,3.25,9.22,0.36,15.11,2.88C282.58,399.82,281.13,405.39,279.67,408.77z M286.01,414.62
		c-0.13-0.17-4.2-4.19-4.29-4.29c0.94-4.97,3.05-9.37,5.98-12.53c0.94,0.83,1.49,1.98,2.22,2.95c4.57,6.05,0.4-0.91-1.01,17.31
		C288.78,419.78,286.5,415.25,286.01,414.62z M294.41,409.21c0.21,7.28,7.17,13.51-3.42,9.66
		C289.69,411.5,294.17,400.69,294.41,409.21z M291.45,430.62c-2.89,0.09-4.88,0.49-5.41-2.36c-0.42-2.25,0.36-4.3,1.63-6.16
		c1.28-1.87,3.37-0.94,6.5-0.3C289.91,425.31,291.35,430.63,291.45,430.62z M294.81,431.31c-4.45-1.09-1.66-8.84,1.52-8.79
		c0.61,1.49,1.13,2.75,1.78,4.34C297.71,428.6,296.74,430.29,294.81,431.31z M322.47,432.65c-0.99-0.55-1.94,0.56-2.91,0.31
		c-5.6-1.45-3.7,1.82-20.9-2.36c1.61-3.35,0.78-2.83,2.46-2.25c1.65,0.58-0.01-1.76,0.21-2.73c8.53-16.4-2.62-8.33,7.29-26.65
		c2.71-0.24,5.28,0.21,8.04,0.61c-18.04,23.99-0.76,36.09-4.86,27.54c-4.24-8.84,0.05-21.93,5.73-26.53
		c12.98,0.59,0.55-2.07-2.64,20.25c-0.46,3.2,0.03,6.45,2.3,9.15c2.66-1.9-2.6-3.1-0.16-13.29c1.26-5.27,3.31-10.35,7.42-13.82
		c4.14-3.48,13.18,4.31,15.71,9.1c-2.87,3.32-3.93,8.98,0.01,12.42C334.4,430.79,325.18,434.15,322.47,432.65z M352.24,418.01
		c-0.26,5.58-7.37,7.79-5.04-0.62c0.69-2.47,1.55-3.01,0.33-2.76c-1.71,0.35-3.19,4.99-1.55,8.31c0.06,0.1-2.74,0-2.84,0
		c-3.83-0.04-3.67-5.51-1.69-8.41c1.42-2.08,5.98-1.64,6.59,0.04C348.99,414.58,352.47,413.14,352.24,418.01z M320.91,204.72
		c0.99,2.59,1.14,0.79-1.75,9.66c-3.23,9.91-2.66,23.08-7.46,46.57c8.6,18.64-5.31,55.45-5.46,61.14
		c-0.22,8.24-1.52,16.08-5.49,38.87c-0.71,4.07-0.27,4.93,1.55,14.51c1.09,5.77,4.29,9.43,12.15,17.18c4.48,4.43,0.86,5.53,0.12,4.9
		c-0.38-0.33-0.81-1.03-1.21-1.37c-0.94-0.8-5.64-0.57-7.37,2.91c-0.21,0.43-0.62,0.77-1.13,1.38c-0.3-1.08,0.09-2.09,0.35-3.05
		c0.68-2.52-0.53-2.47-0.33-2.7c-4.03,4.76-0.48,4.35-1.5,8.38c-2.7,10.73,1.11,14.91-3.18,19.57c-1.85,2.01-2.83-9.48-4.61-17.65
		c-1.13-5.16-4.93-3.31-6.74-11.37c-1.2-5.37,0.03-9.8-0.19-12.38c-0.08-0.92-2.36-2.46-2.69,3.01c-0.5,8.29,0.45,4.99,0.45,9.69
		c-1.25,0.84-3.99,0.16-4.06,0.06c-2.78-4.34-0.67-7.86,0.08-12.53c1.68-10.48,0.41-10.58,2.01-12.03c0.73-0.67-0.2-3.22-1.56-27.47
		c-1.38-24.59-7.17-22.28-5.19-50.07c1.82-25.54,5.5-16.57,7.38-39.06c1.35-16.17,1.34-19.97,1.92-23.3
		c15.47-14.07,11.26-30.21,18.39-40.7c3.39-4.99,4.28-11.18,7-21.74c5.94-23-0.96-19.22,7.48-20.71c0.12-1.42-0.52-1.24-4.48-1.96
		c0-1.75-0.34-4.11,1.05-6.92c1.52,0.64,13.16,10.09,15.34,25.09C334.4,180.56,330.51,188.16,320.91,204.72z M358.26,55.44
		c-6.12,1.32-2.12,14.86,0.56,20.61c2.03,4.36,0.31,4.03-2.39,4.9c-2.52-2.13-4.64-1.84-6.5,0.65c0.64,1.69,2.26,0.38,3.06,1.31
		c0.41,0.47-0.97,1.26,0.93,6.33c-2.34,3.71-6.67,1.3-10,0.75c-0.54-0.09-1.34,0.57-1.86,0.74c3.24,4.62,8.15,0.76,9.76,4.92
		c0.94,2.43-2.57,2.14-3.2,4.84c2.82,10.23-2.63,8.89-9.85,8.98c-3.34,0.05-6.37-3.36-13.58-2.24c-2.48,5.37-1.23,3.06-4.42,8.11
		c-5.11,8.1-5.38,8.42-5.49,9.36c-0.52,4.29-5.16,6.47-7.48,10.59c-0.96,1.71-4.34,2.83-3.96,4.34c4.71,2.27,5.19-5.93,4.37,5.67
		c-6.49,0,4.2,9.11-16.04,45.08c-0.18,0.32-2.22,3.78-2.59,3.84c-2.09,0.39-8.47,5.64-15.36,2.23c-1.71-0.85,3.97-12.02,5.67-11.39
		c-1.7-0.63-2.54,1.33-3.92,0.96c-0.79-1.59,0.51-3.22-0.66-5.18c-3.7,14.81-3.88,16.63-7.2,13.07
		c-14.65-15.74,4.39-63.25-7.21-88.23c0.48-1.45,1.51-0.72,8.78-2.8c3.8-1.08,5.83-2.74,7.39-4.46c-0.67-1.36-1.45-0.19-2.12-0.42
		c0.03-0.27,0.01-0.54,0.11-0.61c9.19-5.25,6.33-1.73,9.38-11.9c3.39-1.98,2.66-1.13,3.5-3.71c-0.21-0.23-0.38-0.57-0.56-0.6
		c-3.61-0.57-3.61-0.56-6.75-2.71c-1.22,0.78,0,1.54,0.06,2.43c-0.35-0.05-0.85,0.01-0.96-0.17c-2.64-4.18-1.02-6.07-2.01-6.95
		c0.31,0.05,0.3,0,0.3,0.27c0.17,0.14,0.13,0.01,0.35,0.09l0.03,0c10.45,7.33,7.44,0.61,11.21,8.6c0.57,1.21,0.01,1.86,5.35,1.37
		c2.02-0.18,3.6-2.41,2.68-4.2c-0.52-1-0.12-0.96-3.27,1.39c-3.29-1.07-3.22-2.32-10.39-16.94c-0.52-1.06-0.49-1.07,0.49-2.23
		c1.63,0.92,2.66,1.5,2.71,1.53c0,10.56,6.75,9.46,5.76,6.45c-0.73-2.2-2.74-3.92-1.89-8.24c4.65-4.04,3.52-4.02,5.09-0.96
		c0.05,0.1-0.99,1.15-1.1,1.23c-2.27,1.56-1.35,2.34-0.33,8.58c0.5,3.07,5.4-0.54,4.71-2.65c-0.49-1.49-3.63-3.08-3.27-3.44
		c3.03-4.21,3.2-5.86-2.92-11.69c-3.05-2.9-4.92,1.55-7.96,6.02c-0.29-5.28,6.77-11.89,9.93-8.5c1.95,2.1,2.05,3.59,3.63,5.56
		c5.09,6.35,10.13,2.44,10,0.65c-3.27,0-2.63,0.58-6.4-0.96c6.85-0.33,3.47-0.04,19.31-7.95c1.42-1.1-0.03-2.05,0.82-2.89
		c0.59-0.58,0.87-1.5,1.39-2.46c2.76-1.15,2.74-0.9,3.06-2.18c1.4-5.55,1.84-2.77,3.32-9.82c0.02-0.1,0.54-2.44,0.64-2.45
		c-2.27,0.07-4.52,0.79-6.63-0.18c0-1.91,3.17-0.66,4.53-2.07c8.16,0.38,7.24,0.83,7.39,2.55c3.98,0.56,3.95-3.83,8.57-0.69
		c3.01,2.05-0.03,2.2,6.47,0.97c2.34,1.67,1.68,1.88,2.94-0.58c4.82,3.75,3.14,0.61,5.3,15.89c1.24,8.8,1.16,4.97,1.7,9.01
		C360.44,54.15,359.66,55.14,358.26,55.44z M290.98,56.07c0.64-0.75,1.08-0.61,2.06,0.65C291.76,59.01,285.05,63.04,290.98,56.07z"
		/>
	<path d="M263.23,407.56c0.14,0.15,0.08,0.1,0.06,0.01L263.23,407.56z"/>
	<path d="M607.62,252.64L607.62,252.64C607.47,252.8,607.52,252.74,607.62,252.64z"/>
	<path d="M827.19,24.6c-1.14-4.57-9.27-13.78-14-14.18c-1.74-0.15-6.36-4.75-20.44-8.37c-7.64-1.96-24.22-4.13-29.69,1.54
		c-0.54,0.56-7.05,3.21-11.9,7.34c-12.68-3.12-19.46-6.49-25.37,0.81c-2.02,2.49-5.31,8.17-7.76,10.68
		c-8.02,8.24-7.1,19.78-3.78,30.81c1.33,4.39-0.05,10.91,1.74,22.84c2.24,14.96,1.57,18.67-0.64,27.01
		c-2.25,0.35-4.41,0.69-6.69,1.04c-2.74,5.87-21.14,3.76-37.42,9.84c-12.47,4.67-48.25-0.49-79.13,12.47
		c-4.63,1.94-4.12,3.53-12.9,7.08c-3.99,1.61-2.19,5.04-2.79,6.93c-2.09,6.54,2.53,13.99,5.49,20.13c3.54,7.34,2.69,8.07,7.26,16.32
		c3.01,5.43-15.23,1.74-25.87,10.61c-10.59,8.83-23.34,15.87-25.9,36.47c-4.44,35.7,3.32,35.99,3.98,47.89
		c0.61,11.15,14.33,47.96,13.78,49.23c-1.98,4.58,15.49,33.45,16.84,40.2c1.87,9.36,4.25,18.42,4.82,23.21
		c0.98,8.32-17.71,34.19-12.67,76.13c0.58,4.76-0.98,1.89,0.83,7.99c24.49,82.19,16.31,77.01,16.53,77.51
		c-0.92-2.16-0.52-1.96-0.9-2.51c-0.76-1.09-2.2,0.24-2.4,0.49c-4.38,5.49-1.43,12.06-6.64,24.97c-1.09,2.7,0.44,3.04-0.28,5.28
		c-2.57,8.1-7.41,12.51,3.32,16.62c3.19,1.22,3.83,2.49,6.16,1.83c12.48-3.59,8.93-3.33,11.23-0.29c5.32,7.01,40.37,6.73,41.89,7.3
		c1.26,0.47,10-0.4,17.33-4.87c3.04-1.85,2.44-2.56,1.47-12.58c-0.34-3.41-5.88-4.21-8.18-5.9c-11.4-8.38-7.47-6.54-9.33-9.02
		c-0.41-0.55-10.4-9.72-14.64-14.72c-6.47-7.62,4.13-13.65-13.41-18.58c-8.42-37.91,5.75-79.33,6.26-120.76
		c0.06-4.37,1.12-7.79,4.45-16.42c2.6-6.75-0.01-13.82,2.38-20.16c0.97-2.58,3.87-10.75,2.23-12.98c-0.89-1.2-0.96,0.08-0.6-4.83
		c2.2-30.14-0.3-31.92,1.61-31.92c24.1,32.61,22.21,58.16,34.84,75.18c0.51,0.68,2.27,1.44-0.62-4.07
		c-9.99-19.03-9.92-43.48-28.36-67.36c-9.69-12.55-5.21-9.27-14.72-62.97c3.52-3.8,7.79-5.37,12.67-5.87
		c2.81,1.23,5.59,2.92,9.56,2.25c2.53-0.43,4.04,1.53,7.66,0.4c4.09-1.28,3.29,0.45,7.94-0.98c1-0.31,0.92-1.43,0.63-1.57
		c-1.89-0.76-4.06,0.6-6.04-0.49c-2.76-6.2-3.64-9.54-7.18-11.71c1.43,4.73,3.97,8.15,4.54,12.26c-2.38,1.44-5.45,0.43-6.49-1.02
		c-1.52-2.11-2.24-8.54-4.81-8.89c-2.54,1.67-0.73,4.46,0.94,8.89c-2.4,0.4-5.97-1.51-5.8-1.11c-0.37-0.89-1.04-1.94-1.11-4.2
		c-0.13-4.1-1.71-5.65-7.76-16.79c-2.43-4.48,1.1-6.17-2.5-19.9c-5.77-22.11-6.08-4.32-37.33-68.89c-2.04-4.2-0.39-8.96,0.3-12.16
		c0.74-3.47,2.99-3.47,7.06-6.14c21.19-13.92,72.33-10.95,89.98-16.8c15.22-5.06,23.79-3.06,30.12-5.25
		c1.92-0.67,7.31-2.32,9.34-2.31c2.38,0.01,5.94,22.24,4.95,27.62c-1.91-0.37-2.69-1.82-5.6-2.54c2.19,2.07,3.98,4.05,6.33,5.36
		c0,24.51-5.34,42.28-7.35,43.64c-1.9,1.29-5.25,6.2-6.38,6.73c-5.43,2.55-3.92,2.24-18.66,0.91c-8.69-0.79-7.89-1.66-13.32-2.62
		c-9.48-1.68-18.78-14.06-18.74-15.78c0.08-4.32-5.66-6.84,1.83-5.11c6.52,1.51,13.07,1.88,19.63,0.53
		c5.12,2.73,5.12,2.73,7.08,2.53c-0.54-1.35-1.88-1.8-2.88-2.52c-6.9-4.97-3.89,0.1-36.09-5.38c-3-0.51-21.43-4.78-23.92-6.53
		c-2.81-1.97-3.06,1.31-6.67-0.67c-6.51-3.57-5.4-5.24-9.53-6.19c-0.1-0.02,1.45,3.15,6.34,6.73c3.66,8.85,4.64,8.42,7.66,19.22
		c3.2,11.46,12.66,34.18,23.59,38.99c26.98,11.87,5.44,2.14,9.92,19.74c0.07,0.29,0.43,0.51,0.91,1.05
		c2.64-12.3-2.7-10.89,18.02-12.19c0.88,2.34-0.84,0.05,7.03,0.52c0.12,0.01-1.72,2.85-2.57,5c-2.38,6.01-3.83,17.37-0.09,22.64
		c1.75,2.47,2.44,1.06,2.34,0.7c-0.27-0.99-8.05-12.69,1.88-27c1.63-2.34,4.02-1.69,9.31,0.4c13.61,5.39,2.35,9.21,7.82,16.3
		c1.14,1.47,1.87,1.28,1.71,2.47c-11.89,14.4-17.61,9.57-22.72,11.71c-3.98,1.68-16.85,2.56-13.86-1.93
		c-9.27-16.26-1-26.38-1.46-28.82c-1.04,0.91-1.16,0.99-1.27,1.26c-4.92,12.7-1.64,19.67-4.98,11.35c-1-2.53-2.81,0.6,0.74,7.46
		c3.12,6.04,1.32,13.02,8.58,14.73c-2.86,3.54-6.74,1.93-9.62,2.97c-1.67-0.86-0.74-1.54-4.57-10.05c-1.78-3.95-4.25-3.01-3.4-1.19
		c6.75,14.37,5.16,16.41,19.85,11.69c0.48-4.04-0.99-5.03,10.83-5.03c9.23,38.83,12.29,57.53,14.45,102.85
		c0.17,3.6,1.26,0.93,2.38,5.51c4.6,18.73,5.18,15.47,4.6,19.52c-6.21,43.59-0.87,22.33-2.78,61.65c-0.39,8.12,1.23,12.89-0.28,18.2
		c-0.03,0.1-2.59,45.16-0.11,58.28c2.14,11.32,3.11,13.16-0.01,14.93c-4.58,2.6-7.89,4.84-7.95,8.26c-5.12,3.35-2.96,2.07-8.12,4.83
		c-0.38-0.54,0.5,0.71-4.01-5.71c-0.21-1.85,0.43-3.96-0.46-6.09c-1.66,8.7,1.01,8.38,1.01,11.72c1.28-0.16-5.49,0.4-5.49-3.96
		c-2.05-3.33-2.07-2.48-0.53-3.77c0.9-0.75,0.39,3.54,0.62,3.92c0,0.1,1.79-0.26,2.04-0.95c0.16-0.42-3.67-53.46-14.96-81.71
		c-8.88-22.2-3.04-36.43-1.28-57.53c0-1.17,3.28,4.28,4.78,4.93c-0.97-3.12-4.33-7.18-3.83-7.12c-2.62-0.33-1.97-1.72-3.31,7.46
		c-1.58,10.8-9.38,34.56,5.06,62.05c3.26,6.21,4.04,13.4,4.04,16.39c0,3.26,0.97,2.41,2.91,18.81c7.02,59.41,0.86,9.22-3.29,51.37
		c-0.17,1.78,0.72,1.68,0.34,4.97c-1.47,12.63-7.03,14.58-2.38,17.18c0.93,3.06,4.35,3.16,16.5,4.61
		c9.48,1.12,10.21-2.99,18.45,0.17c1.77,0.68,1.88,1.41,4.69,2.19c4.02,1.11,2.38-0.48,12.45,3.09
		c11.15,3.96,49.07,0.35,43.46-10.22c-0.75-1.42,0-2.47-0.71-6.09c-1.52-7.7-5.43-4.82-19.44-10.88
		c-7.92-3.43-7.03-7.26-14.12-12.96c-5.9-4.74-7-8.68-10.49-13.87c-1.48-2.2-3.3-2.99-4.97-4.83c-1.2-1.32-2.41-1.88-4.12-1.33
		c-0.34,0.11-2.38,0.28-2.39,0.17c-1.71-7.92-3.28-13.97-2.97-22.82c4.36-123.59-0.74-78.22,1.19-101.86
		c0.82-10.14,3.94-20.45,0.72-30.01c-5.4-16.06-6.65-36.54-6.27-39.79c1.92-16.28-4.88-36.16-2.67-38.38
		c3.25,2.77-8.52-36.88-10.01-43.11c5.7-2.51,4.94-1.17,6.99-2.16c6.33-3.04,2.79,3.96,6.44,9c2.72,3.75,5.04,5.79,9.57,5.18
		c3.6-0.48,37-2.82,40.56-2.17c3.57,3.38,7.25,0.08,8.07-0.19c3.38-1.12,4.48,0.96,17.4-2.82c10.69-3.13,7.91-11.21,14.62-10.65
		c4.11,0.35,7.14-4.78,6.9-7.95c-0.43-5.8-7.99-5.16-12.41-5.3c-7.25-10.87-19.45-5.62-23.1-10.35
		c5.01-5.01,11.06-16.22,12.46-26.36c1.84-13.34,4.36-7.16,10.84-30.65c2.25-0.97,4.49-1.77,6.78-1.85
		c5.21-0.18,12.54-5.82,13.77-15.73c0.2-1.59-0.67-5.84-0.62-8.09c0.15-6.37-2.67-12.92-5.84-16.09c-2.99-3.64-3.31-5.67-5.36-7.08
		c-1.79-1.23,0.15-2.99,4.41-10.46c0.73-1.29,1.74-2.24,3.44-2.68c2.26,0.76,4.89,0.92,7.2,2.22c0.58,0.33,18.11,3.26,17.21-7.75
		c-0.1-1.15-0.37-2.28-0.59-3.54c2.17-3.42,2.73,0.26,1.82-7.48c5.08-4.26,0.81-6.33,2.84-9.52c13.55-5.58-0.14-12.04,1.74-21.3
		c4.38-2.11,3.93-1.79,0.4-3.05C835.1,50.31,833.61,50.23,827.19,24.6z M549.3,210.18c28.95,14.78,22.64,9.62,22.26,9.43
		c-3.56-1.72-6.07-2.79-22.88-10.76c-2.11-1,2.35-7.1,3.91-8.5c16.41-14.67,9.43-11.53,35.61-17.57c9.83-2.27,1.98,4.77,7.5,15.8
		c1.5,3.02,3.76,12.53,13.96,24.56c1.68,1.98,2.04,1.18-1.4,9.13c-0.38,0.88-1.45,1.51-1.37,1.61c-2.01-2.43-0.31,0.31,0,0
		c0.72,3.93-1.67,9.06-0.65,9.49c-0.51-0.02-10.3-10.55-13.54-12.51c-1.39,2.31,20.14,16.95,14.91,21.78
		c1.33,3.04,2.54,6.11,2.96,9.75c-14.85-1.37-66.17-3.53-66.69,3.9c3.03,0.46,14.7-7.07,66.6-2.46
		c5.45,11.6,10.82,92.86,9.68,105.82c-0.41,4.61-1.21,4.01-2.86,4.01c-0.65,3.12,0.36,6.19,0.07,9.27
		c-1.2,12.79,1.91,5.45-2.3,13.81c-2.59,5.13-0.24,2.62-1.88,6.57c-1.96,4.74-2.99,5.56-1.98,7.57c1.8,3.56-1.35,3.92-1.06,9.27
		c2.29,41.5-13.63,54.01-5.68,114.87c-3.62,4.63-14.89,8.35-14.74,14.07c-1.66,1.13-3.26,2.22-4.84,3.29
		c-1.44-0.34-2.74-0.98-3.35-2.32c0.36-3.92,10.15,7.6-5.48-52.83c-7.31-28.26-5.96-16.64-10.43-45.72c3.7-5.72-0.09-9.6,2.54-25.59
		c3.36-20.44,12.4-29.73,10.3-44.71c-5.56-39.87-8.54-28.71-15.52-47.07c-2.46-6.47-20.33-61.73-19.78-63.04
		c1.36-3.21-8.78-31.16,0.12-54.35C546.69,207.95,546.83,208.92,549.3,210.18z M614.08,264.89c0-0.1-1.65-6.81-1.8-6.77
		c0.13-0.13,1.02-0.15,1.67,0.36C620,263.26,636.65,254.45,614.08,264.89z M615.2,221.61c0.35,1.55-1.66,2.53-2.26,1.75
		c-8.7-11.31-2.71-4.78-6.78-11.45c-4.98-8.16-9.1-13.09-9.51-22.71C615.08,212.77,612.01,207.28,615.2,221.61z M615.3,225.46
		c0,15.39-1.58,23.28,2.38,25.46c-0.02-0.1-0.37-1.46-0.4-1.56c-1.81-7.03-0.76-10.7-0.69-10.6c2.7,4.27,8.28,13.24,7.77,18.23
		c-1.7,1.5-6.5,2.25-10.12-0.97C604.44,247.26,609.51,228.62,615.3,225.46z M607.44,552.59c-10.55,2.59-10.53,6.36-9.68,6.16
		c1.26-0.3,19.51-9.46,22.64-2.05c-1,1.72-3.83-1.95-14.13,2.37c-2.98,1.25-3.07,2.61-3.39,3.23c3.06,0.38,2.25-0.5,7.06-1.78
		c3.29-0.87,12.38-1.87,13.8-0.45c-3.98,0.82-6.91,0.32-12.96,2.51c-3.8,1.38-4.26,4.06,0.58,2.89c14.11-3.42,14.59-4.58,16.34-1.6
		c0.1,0.1-4.67,0.59-8.49,1.48c-5.95,1.39-5.64,4.73-3.24,4.04c12.68-3.63,13.85-4.91,16-1.51c0.22,0.34-5.74-0.21-9.67,1.35
		c-3.18,1.26-1.61,2.68-0.6,2.6c5.24-0.43,11.19-2.38,11.09-2.48c20.61,20.59,16.83,1.56,18.49,23.12c-1.56,1.32-2.87,2.33-4.92,2.3
		c-2.24-0.03-4.75,2.55-8.09,1.66c-2.74-0.73-24.37,2.02-40.44-3.04c-6.5-2.06-3.41-5.52-7.63-6.29c-0.39-0.07-9.38,4.6-13.44,2.25
		c-4.22-2.46-7.97-3.51-6.13-6.87c3.64-6.68,1.99-10.03,3.57-14.19c1.67-4.41,2.06-8.03,3.89-18.17c5.88,5.46,6.56,6.21,12.68,0.89
		c3.55-3.08-5.66-0.37,15.04-13.51c1.61-1.02,3.33-1.07,5.13,0.01c4.59,2.75,5.54,2.84,5.29,10.67
		C616.01,555.1,620.87,549.3,607.44,552.59z M697.3,583.67c-1.75-2.05-7.13-1.83-9.54-0.61c-6.24,3.17-10.21,1.07-16.76,0.57
		c-4.64-0.36-8.05-4.36-8.22-4.04c3.32-6.11,4.19-12.53,4.03-19.4c-0.12-5.4,1.01-19.04,2.49-13.4c0.88,3.28,5.52,5.78,9.61,6.28
		c2.65,0.32,4.73-1.34,10.6-5.2c2.9-1.91,1.26-2.8,4.11-5.41c2.08-1.9,5.42-2.94,7.14-5.82c4.18-6.97,9.7,1.18,14.34,9.42
		c-5.67,0.27-10.1,1.06-14.89,5.9c-0.53,0.54-0.49,0.74-0.13,2.29c3.75-2.44,6.2-4.89,12.4-6.05c4.3-0.81,5.27,1.07,7.97,4.09
		c0.9,1.01-3.34-2.28-13.18,1.06c-3.85,1.32-2.75,3.03-2.05,2.9c17.85-3.4,2.23-0.6,4.05,2.1c1.39,2.05,5.47-0.48,8.4-0.48
		c0.12-0.06,1.6-0.78,1.72-0.84c-0.59,0.95-1.09,0.82-2.1,0.97c-0.58,1.34-2.86,1.2-2.66,3.58c0.18,2.17,3.47,0.49,12.66-2.15
		c3.66,4.72,1.35,0.52-5.34,3.61c-0.62,0.28-1.42,2.61,2.27,2.71c4.69,0.12,3.63-0.56,4.69,1.84c2.4,1.12,4.48-0.31,6.83-0.96
		c19.28,7.67,19.75,4.29,19.79,11.64c0.01,2.3-0.6,3.68,1,5.01c-1.21,3.31-3.75,4.53-6.47,5.52c-4.3-1.05-20.64,6.24-39.46-0.23
		C702.56,585.81,699.68,586.46,697.3,583.67z M725.11,556.91c-4.39,0.3-3.77,0.39-3.91-0.13
		C724.59,555.52,723.51,555.58,725.11,556.91z M819.85,28.57c2.7,1.48,1.75,1.54,2.99-0.6c6.45,5.15,2.4,2.89,6.74,22.76
		c1.54,7.06-6.59,1.7-5.93,11.56c0.98,14.81,9.04,16.22,1.3,18.67c-2.16-1.61-3.11-2.56-6.28,0.6c0.34,1.7,2.04,0.55,2.89,1.12
		c0.86,2.08-0.96,1.11,0.93,6.67c-3.08,4.57-9.47-0.62-11.01,0.96c-1.34,1.37,1.14,2.51,3.03,2.86c5.57,1.03,3.48-0.96,6.5,3.29
		c-2.65,2.28-2.06,1.79-3.84,3.57c0.9,3.38,1.49,4.58,0.55,6.8c-0.68,1.61-1.81,2.53-3.56,2.53c-6.62-0.01-7.43,0.59-10.35-0.8
		c-4.21-2.02-10.05-1.45-9.92-1.82c-2.43,7.43-9.44,14.36-10.5,19.66c-0.36,1.8-2.83,4.09-4.9,6.16c-3.62,3.6,0.98,0.57-5.62,5.93
		c-1.37,1.11-2.55,2.34-3,4.07c1-0.87,2-1.74,2.98-2.59c5.56,0.98,5.07-4.78,3.87,5.36c-1.54,0-2.3-0.3-2.23,1.38
		c0.74,17.63-13.13,44.52-16.16,47.45c-0.94,0.91-0.6-0.13-3.37,1.52c-3.71,2.21-7.95,2.42-12.2,0.62c0.66-6.35,1.51-5.4,4.23-10.66
		c-3.83,0.85-2.25,1.1-2.48-4.75c-0.44,0.47-0.94,0.8-0.96,1.08c-0.22,3.22-1.01,4.67-3.85,13.67c-19.91-7.96,2.1-62.77-10.23-90.04
		c0.53-1.86,9.09-1.08,14.94-5.78c0.46-0.37,0.82-0.93,1.39-1.59c-2.03-0.81-1.74-0.76-1.84-0.69c-1.56,1.17,0.98-0.87,1.08-0.93
		c3.22-1.95,7.61-3.1,7.61-10.82c4.1-2.46,3.3-1.43,3.83-4.42c-2.79-0.28-5.34-0.96-7.1-3.06c-1.14,1.05-0.18,1.71-0.21,2.42
		c-1.67,1.39-2.13-4.68-3.29-7.12c2.28,0.59,1.56,1.44,6.87,3.75c4.37,1.91,2.58-0.61,6.02,6.54c4.4,0.61,4.68,0.59,7.7-1.14
		c-0.26-8.91-3.08,3.79-7.08-4.64c-7.86-16.56-7.08-12.85-6.77-15.89c3.02,1.21,3.42,1.11,3.21,2.22c-1.4,7.58,7.2,9.9,5.88,5.92
		c-0.88-2.62-2.84-4.07-2.01-8.39c0.03-0.1-0.58,0.54,3.52-3.27c1.28,0.38,1.28,1.43,1.34,2.46c-0.86,0.92-1.73,1.84-2.5,2.67
		c1.35,6.18,1.2,10.84,5.32,6.44c2.06-2.2-0.99-3.53-2.46-5.52c1.28-2.21,3.06-4.88,0.53-7.94c-2.75-3.31-4.89-6.01-7.08-4.15
		c-0.85,0.72-4.37,6.12-4.17,6.18c-2.92-0.9,5.58-12.7,9.6-8.38c2.72,2.91,1.92,4.99,6.42,8.11c2.94,2.03,6.74,0.74,7.19-1.89
		c-4.57,0.43-8.99-1.4-4.84-1.06c4.88,0.4,5.33-2.18,9.91-3.85c1.8-0.66,3.64-1.27,5.16-2.61c1.21-1.06,5.19-1.69,3.08-3.41
		c2.42-4.02,1.39-3.13,4.57-4.48c1.13-4.57,3.84-8.52,4.13-13.4c-12.86,1.3-3.62-4.25,5.47-0.9c0.12,2.09,0.44,1.51,3.96,0.09
		c2.89-1.16,1.44-1.59,6.81,2.31C816.93,29.15,818.41,28.85,819.85,28.57z M731.07,73.51c-2.62-31.2,4.49,14.44,2.55,16.01
		c-0.34,0.28-0.31,1.17-0.25,1.76c0.26,2.49-0.12,4.91-0.76,7.28c-0.36,1.33-1.06,1.24-2.96,1.05
		C730.71,94.96,732.36,88.97,731.07,73.51z M734.91,98.39c0.2-0.44,0.14-0.42,0.2,0.05L734.91,98.39z M738.01,38.94
		c-1.42,13.13-0.68,15.15,0.64,21c1.24,5.51,0.52,11.67,0.64,11.85c0,0.71-2.21-3.83-2.86-6.61
		C732.82,49.69,740.07,19.93,738.01,38.94z M737.51,77.35c-0.1,0.01-0.24,0.02-0.24,0.02c-0.17-2.52-0.26-2.35-0.16-2.33
		C737.64,75.09,737.51,74.73,737.51,77.35z M740.21,48.12c2.18,1.42,3.73,3.3,6.62,3.3c-0.55-0.62-0.79-1.09-1.17-1.27
		c-2.63-1.25-3.5-3.99-5.13-6.07c-0.2-0.25,0.2-1.04,0.32-1.6c0.91,0.23,5.02,5.12,9.51,6.61c9.28,3.06-8.77-5.77-8.55-10.66
		c0.05-1.22-3.67-1.74,25.54,9.31c-1.07,0.66-1.65,1.38-2.76,0.62c-5.42-3.74-11.23,1.72-12.18,5.34
		c-2.46,9.35-4.62,5.03-1.15,12.91c0.04,0.1,1.94,4.3,2.04,4.33c-3.41-0.94-5.74-3.71-7.49-6.77
		C754.44,66.99,742.61,63.74,740.21,48.12z M782.63,35.5c1.44-0.23,1.19-0.34,1.27,0.24C782.4,35.91,782.72,35.98,782.63,35.5z
		 M786.23,36.98c2.57-0.94,5.73-1.78,7.26-2.13c0.98-0.22,1.65,0.11,1.95,1.12C790.72,39.14,786.82,36.76,786.23,36.98z
		 M788.62,25.57c1.22-0.58,2.1,0.05,3.9,0.71C790.79,26.82,789.56,27.02,788.62,25.57z M770.25,42.95
		c-3.99-3.81-5.23-2.95-6.71-5.35c-0.17-0.17-0.91,0.26-1.56-0.71c-0.18,0.02-0.12,0.01-0.15,0.01c-0.04-0.1-0.2-0.4-0.1-0.3
		c0.56,0.6,1.35-0.19,1.67,0.92c0.03-0.01,0.06,0,0.08-0.01c0.02,0.03,0.04,0.06,0.05,0.09c2.91,0.34,2.88,0.91,7.16,2.42
		c4.21,1.49-1.65,4.48,16.26,3.1c-2.02,1.4-0.98,1.15-2.85,1.39c-10.69,1.39-7.85,0.57-10.29,0.65c-1.77,0.06-3.04,2.91-10.38-1.37
		c0.42-0.25,0.31-0.16-0.12-0.07c0.42,0.46-14.08-6.98-14.12-6.88c-0.47,1.31-0.68,1.37-0.29,1.86c-0.18-0.12-0.21-0.01-0.21-0.28
		c-0.29-0.39-0.69-0.04-1.05-0.32c-5.32-4.02-5.48-4.07-2.4-11.44C745.51,26.04,762.93,41.9,770.25,42.95z M742.89,75.01
		c2.63,10.08,1.2,4.81,0.4,8.77c-0.14,0.68,0.24,1.47,0.39,2.22c-1.5,2.16-1.69,0.93-2.16,1.71
		C741.78,86.72,742.12,72.22,742.89,75.01z M745.02,87.6c3.3,0.79,1.63,4.99-0.13,6.25c-0.1,0.07-3.71,2.71-3.73,2.61
		C740.77,92.44,742.05,89.62,745.02,87.6z M744.24,66.21c1.63,1.23,1.29,1.35,2.31,2.68C745.09,68.04,744.59,69.87,744.24,66.21z
		 M748.59,70.47c5.73,3.37,5.97,1.74,6.59,5.13c-3.74-1.19-5.74-2.1-7.7-5.15C747.92,70.45,748.34,70.32,748.59,70.47z M760.4,55.42
		c1.64,1.26,1.83,0.92,0.47,2.31C755.35,63.38,756.83,58.04,760.4,55.42z M786.24,17.45c2.59-0.04,1.23-0.63,6.26,2.26
		c0.4,0.22-0.13,0.41-0.31,0.51C785.55,17.15,785.77,17.46,786.24,17.45z M790,9.86c-0.02,0.12,0.04,0.11-0.26,0.02L790,9.86z
		 M793.68,18.19c-0.09-0.15-0.09-0.15-0.14-0.23c-0.1,0-0.44-0.24-0.54-0.3c0.28-0.04,0.26-0.1,0.33-0.01
		c0.7,0.87,0.61,0.36,1.32,0.65c0.25,0.1,0.7,0.75,1.01,0.75C795.57,19.01,793.86,18.19,793.68,18.19z M793.55,14.96
		c2.03-1.21,14.19,7.67,16.59,9.98c-0.75,0.41-0.73,0.94-2.18-0.38C801.54,18.77,797.13,18.54,793.55,14.96z M805.38,15.61
		c0.27,0.15,0.18,0.08,0.37,0.31C805.51,15.74,805.59,15.81,805.38,15.61z M814.14,23.65c4.17,2.39,0.82,4.86,0.17,1.02
		c-0.43-2.51-2.22-2.58-6.44-7.35c-0.17-0.12,0.15-0.09-0.49-0.2c0.43-0.51,0.23,0.02,0.58,0.1
		C807.71,18.56,813.45,19.9,814.14,23.65z M803.01,8.56c1.67,1.08,5.74,1.57,7.65,4.48c0.48,0.73-2,0.19-5.57-3.3
		C804.73,9.4,802.75,8.43,803.01,8.56z M797.25,5.94c-0.52,0.27-0.38,0.23-0.57,0.03C797.03,5.82,796.89,5.83,797.25,5.94z
		 M796.34,7.82c0.22,0.57,3.56,1.04,3,1.36c-0.71,0.4,0.02-0.35-1.92-0.55c-1.1-0.11-0.36-0.51-1.59-0.83
		C796.25,7.8,796.25,7.82,796.34,7.82z M793.81,7.14c0.27,0.34,4.42,1.29-0.1,0.11C793.13,6.95,793.08,6.99,793.81,7.14z
		 M780.11,4.02c1.3,0,3.93,0.17,4.48,0.72c0.33,0.49,2.09-1.06,8.69,2.29c-9.54-1.94-8.04-1.47-8.84-2.27
		c-5.07,0.46-1.38-0.83-7.74-0.83C778.32,3.16,780,3.92,780.11,4.02z M775.94,5.92c0,0.18,0.06,0.15-0.26,0.07
		C775.58,5.96,775.84,5.95,775.94,5.92z M773.59,5.53c-5.34,0.49-5.28-0.15,0.76,1.92c-0.18,0.89-5.15-0.96-5.48,0.24
		c1.18,1.18,12.16,2.45,22.43,5.02c1.04,2.55,1.02,2.2,0.92,2.25c-2.71,0.99-6.22-1.43-6.22-1.53c0,2.03,3.37,3.89-20.89-5.81
		C767.76,5.51,770.31,4.12,773.59,5.53z M758.73,11.2c2.68-1.67,2.74-1.15,21.37,3.75c0.74,0.2,1.61,0.44,2.09,0.96
		c2.88,3.17,24.89,12.67,1.04,3.65c-0.2-0.08,1.67,2.65,0.33,2.1c-16.01-6.63-27.08-12.93-26.19-5.46c2.91,0.8,2.56-0.49,6.59,1.24
		c6.77,2.9,18.08,5.9,21.15,8.97c-2.53,0.69-1.95,0.09-2.53,2.4c-2.66,0.62-3.09,0.72-3.13,0.73c8.22,1.11,13.47,2.36,17.62,0.02
		c0.45,6.31-3.95,1.57-8.78,2.68c-11.69,2.67-21.94-1.47-37.85-15.13C751.91,15.46,753.07,14.73,758.73,11.2z M757.04,23.59
		c-0.63,0.67-1.03,1.11-1.36,1.47c0.1,0.01,12.96,7,14.07,8.53c10.4,3.62,7.42,2.46,10.49,4.28c-6.09,1.13-11.68,0.1-17.2-2.43
		c-6.46-2.96-5.37-1.25-6.81-2.42c-11.88-9.59-10.18-8.24-8.21-11.01c7.72,8.02,18.08,11.62,18.89,11.62
		c0.02-0.05,0.41-1.42,0.43-1.46c-0.25,0-7.34-3.24-9.58-5.04c-0.13-0.11-2.12-2.03-2.08-2.08
		C751.62,24.63,743.74,13.52,757.04,23.59z M736,11.22c4.29-0.42,8.4,0.89,12.56,2.14c-0.36,1.79-1.43,2.59-1.56,2.71
		c-1.36-0.32-2.63-3.94-9.43-4.13C733.94,11.83,730.09,11.8,736,11.22z M731.76,13.69c-1.14,0.65-2.22,1.26-3.62,2.05
		C729.91,13.34,729.91,13.34,731.76,13.69z M725.32,19.64c-3.25,2.78,3.11-4.12,10.67-4.03c8.6,0.1-14.42,2.68-10.91,30.72
		c0.31-15.82,5.6-23.4,13.29-28.75c2.2-1.53,2.4-0.74,7.29-0.26c-0.4,1.63-1.28,3.09-2.93,3.93c-17.19,8.78-12.49,56.05-14.41,65.7
		c-0.21,1.05-0.81-0.22-0.8,3.44c-0.44-0.78-0.5-1.64,0.08-2.4c0-26.63-0.77-6.24-3.52,6.63c-0.97-4.84,2.27-38.36-1.08-40.75
		c0,8.82,0.7,8.29-1.65,3.92c-1.43,2.38,1.09-0.41,0.71,19.79c-0.26,13.93-1.23,7.02-3.35-6.57c-1.48-9.42,0.56-5-0.53-10.72
		c-1.55-8.02-3.27-17.75-2.18-26.24C716.63,29.06,722.92,17.27,725.32,19.64z M726.39,100.65c-0.99-1.11-0.04-1.66,0.44-2.26
		C726.7,99.03,726.57,99.68,726.39,100.65z M724.44,101.73c-0.68,0.76-1.66,0.44-2.64,0.15C723,101.03,723.72,101.63,724.44,101.73z
		 M723.28,97.65C723.26,98.14,723.27,97.89,723.28,97.65L723.28,97.65z M718.29,102.69c-0.01-0.23-0.37-0.15,2.38-0.37
		C720.71,102.81,721.09,102.69,718.29,102.69z M636.3,165.01c0,7.08-1.67,16.78,7.91,28.35c11.12,13.42,11.31,16.19,23.95,25.55
		c-2.62,0.9-4.57,0.75-7.19,0.58c-7.06-11.93-20.9,3.23-37.06-44.84C624.87,173.23,635.7,165.01,636.3,165.01z M622.02,156.9
		c3.05,1.62,5.49,1.84,11.38,3.58c2.69,0.79,2.74,0.08-0.87,3.41c-2.41,2.22-4.37,3.98-9.36,6.82c-0.61-0.61-6.19-14.33-6.19-15.19
		C618.87,156.01,620.61,156.16,622.02,156.9z M698.21,224.88c-4.2-4.11-2.52,0.26-15.05-12.69c-1.57,0.41-0.27,2.12,1.88,6.47
		c-0.97,0.77-1.96,1.21-3.37,0.66c-3.17-1.24-7.23,4.94-31.08-21.2c-8.25-9.04-12.01-19.82-12.15-31.97
		c-0.07-5.75-1.82-4.22,6.62-2.7c1.76,0.32,6.66,1.26,6.72,1.27c3.11,8.5,1.71,4.65,3.73,6.68c1.52,1.52,5.49,13.8,22.03,18.42
		c12.72,3.56,19.07,7.45,27.38,3.1c1.82-0.95,4.09-1.01,5.56-2.63c6.12-6.74,10.17-12.42,11.62-21.95
		c7.13-47.37-2.64-56.76-2.95-61.85c2.17-0.54,4.09-1.14,6.34-0.95c0.71,0,3.32,7.35,3.56,8.18c4.31,15.14-2.38,48.28,0.09,69.78
		c1.08,9.34,10.41,20.34,19.06,17.07c8.97-3.39,6.28-1.13,8.68-3.03c18.01-14.25,22.78-53.34,21.92-60.85
		c3.11-5.05,2.8-5.11,3.66-4.05c1.18,1.46-0.08,1.06-0.47,10.45c-0.84,19.71-13.25,53.06-15.1,58.5c-0.79,2.32,0.61,3.68-2.8,10.02
		c-8.67,16.09-11.14,20.45-34.05,19.82c-1.78-0.05-1.71-1.52-1.81-2.09c1.64-1.75,4.35-2.47,5.08-5.07
		c-0.88-1.3-1.75,0.76-3.55,2.11c-1.79,1.34-1.49,1.23-13.56,2.56c-6.29,0.69-4.8-1.33-11-1.29
		C702.47,227.69,700.23,226.85,698.21,224.88z M753.87,230.94c-0.36,0.18,0.12-0.05,0.32-0.24
		C754.12,230.95,754.19,230.9,753.87,230.94z M744.02,235.39c0,0.09-0.12,1.73-0.18,1.94c-1.64,5.28-0.1,8.15,0.65,13.8
		c0.4,3.04-1.94,6.43-2.04,6.33c-1.43-2.18-0.69-4.33-3.2-8.41c-1.42-2.29-1.23-8.57-6.1-11.73c-2.35-1.53-4.97-4.8-2.24-4.14
		c6.13,1.48,8.7,0.7,9.52,0.81c1.29,0.17,2.5,1.49,3.52,1.49v-0.05c0.29-0.1-0.09-2.06,0.44-1.28
		C744.8,234.77,744.65,235.14,744.02,235.39z M725.87,232.33c-3.92,0-3.54,0.16-3-0.47C723.68,230.9,723.99,231.07,725.87,232.33z
		 M713.88,231.97c5.58-1.5,5.49,0.69,4.38,0.89C714.08,233.59,714.69,233,713.88,231.97z M710.33,238.03
		c-2.79,2.87-5.59-4.47-1.98-7.88C710.9,227.75,714,234.24,710.33,238.03z M700.77,238.03c-1.29-2.75-0.84-8.07,2.06-8.3
		c9.66-0.76-1.15,0.39,3.56,9.17C703.75,239.39,701.8,240.22,700.77,238.03z M786.91,242.01c1.5-2,4.4,1.07,3.47,4.13
		C788,253.95,782.98,247.22,786.91,242.01z M782.29,241.2c6.92-0.72-0.15,0.83,2.51,7.88c0.34,0.9,0.44,0.75-0.43,0.97
		C777.13,251.91,778.62,241.57,782.29,241.2z M761.48,233.25c-8.87,12.2-3.99,29.88-0.82,26.72c-0.69-2.36-2.97-3.67-2.81-10.65
		c0.12-5.26,2.22-17.6,9.91-15.49c4.12,1.13,7.68,3.08,10.37,6.52c-1.57,8.31-1.96,7.06,2.01,11.94
		c-8.22,13.71-27.43,11.92-50.67,12.19c-22.33,0.23-26.29,5.3-31.58-1.36c-2.53-3.19-3.78-7.13-3.78-10.64
		c2.05-1.74,3.91-3.32,6.11-5.2c-0.19,2.55-1.15,10.97,1.64,11.48c-0.27-3.85-2.3-7.43,0.8-16.49c7.18-1.05,5.43-2.58,4.36,10.36
		c-0.38,4.52,4.74,15.82,5.07,10.81c0.1-1.41-6.38-5.06-2.77-20.8c0.73-3.16,1.61-1.03,4.52-7.24c18.56-1.28,10.52-4.15,8.54,11.86
		c-0.5,4.05,2.6,14.83,5.18,16.13c0.38,0.19,0.9,0.03,1.47,0.03c-0.42-3.43-7.84-8.39-3.91-21.18c2.8-9.08,2.18-7.69,7.79-2.3
		c-0.9,5.11-1.39,10.78-0.12,15.81c0.42,1.67-0.23,5.87,2.97,7.54c0.25-0.52-4.75-19.07-1.21-21.34c1.8,2.93,1.4,4.97,3.83,8.7
		c0.52,0.8,0.39,0.78,2.33,8.41c5.68,2.33,6.14,5.19,3.87-0.38c-0.07-0.16,2.45-3.09,1.82-8.7c-0.72-6.37-2.92-3.26,1.04-16.6
		C750.47,232.35,755.66,233.07,761.48,233.25z M790.13,127.62c9.23,15.24,5.51,10.38,4.43,33.86c-3.81,3.68-8.99,5.26-13.71,8.12
		c-0.03-0.1,3.94-34.47,4.18-35.51c0.4-1.76-0.49-2.91-1.9-3.98c5.52-8.77,2.91-4.7,3.65-5.81
		C788.26,125.23,789.32,126.29,790.13,127.62z"/>
	<path d="M673.88,222.23c-0.1-0.05,0.07-0.13-0.09-0.08C673.9,222.24,673.73,222.33,673.88,222.23z"/>
	<path d="M606.94,147.39c-0.26-0.11-0.21-0.12-0.07,0.06C607.04,147.48,607.01,147.52,606.94,147.39z"/>
	<path d="M263.15,407.74c-6.62,2.82-12.43,23.11-6.04,29.06c1.08-0.71,0.94-1.44,0.49-2.51
		C251.26,419.26,264.85,406.89,263.15,407.74z"/>
	<path d="M263.15,407.74c0.06-0.02,0.11-0.05,0.17-0.07C263.21,407.56,263.24,407.52,263.15,407.74z"/>
	<path d="M209.76,289.93c0.26-7.68-1.34-6.05-2.72-12.32c-1.54-6.98-1.81-7-2.44-8.23c-0.67-1.3-0.45-1.43-0.5,0.56
		c-0.12,4.82,2.39,8.29,3.07,11.95c0.17,0.94,0.76,17.58,0.88,17.92C208.7,301.11,209.71,291.4,209.76,289.93z"/>
	<path d="M673.69,222.33c-5.25,2.86-4.89,15.37-4.37,21.32c0.68,7.61,8.25,11.38,3.81,4.49
		C666.47,237.84,673.39,222.5,673.69,222.33z"/>
	<path d="M690.56,378.98c0.91-0.9,2.52-6.06,1.74-10.06c0-0.1-1.1-0.03-1.35,6.87c-2.96,2.82-2.52,3.61-7.82,7.09
		C673.93,388.9,678.2,391.18,690.56,378.98z"/>
	<path d="M688.58,386.83c-2.22-1.25-5.61,2.24,1.35,11.52C690.27,395.22,688.85,397.73,688.58,386.83z"/>
	<path d="M649.2,350.62c1.21,4.67,2.41-9,1.72-15.75C650.62,336.64,648.44,347.65,649.2,350.62z"/>
	<path d="M206.33,184.47c-1.43-4.19-2-1.89-7.98-16.98C198.35,165.22,198.12,177.13,206.33,184.47z"/>
	<path d="M684.49,159.82c-2.23-2.31-4.49-2.09-6.36-2.75c-1.95-0.69-3.74-1.91-6.4-2.29C671.41,154.73,677.49,159.97,684.49,159.82z
		"/>
	<path d="M711.6,151.91c-2.17-5.4-1.27-5.79-2.28-5.83c-0.37-0.02-0.36-0.49,0.55,3.88c1.06,5.11,1.2,10.54,2.38,6.46
		C712.71,154.82,712.17,153.33,711.6,151.91z"/>
	<path d="M206.79,310.97c2.08-3.63,2.34-6.63,0.76-8.93C206.72,304.99,205.95,307.84,206.79,310.97z"/>
	<path d="M242.98,151.89c-2.87-7.47-2.84-8.14-0.93,1.57c0.93,4.77-0.45,3.18,0.92,4.24C243.2,157.01,244.68,156.32,242.98,151.89z"
		/>
	<path d="M679.6,419.29c0-0.01-0.02-0.02-0.03-0.03c-2.02-1.64,2.02,14.06,2.02,12.38C682.09,425.98,679.6,420.05,679.6,419.29z"/>
	<path d="M681.59,431.65c0,0.05,0,0.1-0.01,0.15C681.69,431.69,681.69,431.73,681.59,431.65z"/>
	<path d="M682.12,449.13c1.02-3.58,1.22-6.38-0.5-9.79C681.6,439.88,681.46,451.45,682.12,449.13z"/>
	<path d="M661.1,125.45c0.52,0,6.15-4.38,6.25-4.43C664.35,121.33,659.12,123.51,661.1,125.45z"/>
	<path d="M192.84,150.87c-0.1-0.94-1.55,6.79-1.28,9.73c0.02,0.17,0.3,0.32,0.67,0.69c0.92-2.63-0.09-3.04,0.44-4.34
		C193.44,155.05,193.1,153.24,192.84,150.87z"/>
	<path d="M645.99,247.14c-0.09-2.92-0.41-4.23-1.89-6.62C643.83,242.86,643.92,245.14,645.99,247.14z"/>
	<path d="M200.38,214.77c-0.02,2.93,1.07,5.43,3.13,7.56C202.68,219.73,202.11,217,200.38,214.77z"/>
	<path d="M229.98,425.2c0.07,0.32,0.58,0.55,1.04,0.96C231.37,415.88,228.74,419.33,229.98,425.2z"/>
	<path d="M590.23,140.06c-1.65,1.39-1.8,2.93-0.44,7.1C590.73,144.24,590.87,142.23,590.23,140.06z"/>
	<path d="M636.78,245.6c-2.07-0.46-0.6,2.13,0.87,3.72c0.7,0.76,1.5,0.48,2.22-0.28C637.75,246.4,637.35,245.72,636.78,245.6z"/>
	<path d="M651.52,229.77c0.27-0.24,0.75-0.48,0.74-0.7c-0.06-1.59,0.04-3.26-1.28-4.52C649.36,226.17,650.05,227.65,651.52,229.77z"
		/>
	<path d="M221.14,422.96c-0.59,1.29,0.31,2.32,0.75,3.44c0.27,0.67,0.62,1,2.35,1.43C224.1,426.1,222.92,422.96,221.14,422.96z"/>
	<path d="M241.88,169.75c1.76-1.82,1.38-4.1,0.76-6.74C242.11,165.23,240.85,167.33,241.88,169.75z"/>
	<path d="M240.25,410.5c0.94-1.75,0.58-3.55,0.06-5.55c-0.62,0.66-1.04,0.93-1.07,1.19C238.42,411.9,240.57,409.9,240.25,410.5z"/>
	<path d="M706,138.19c-1.46-2-2.35-1.32-2.25-1.22c1.76,1.71,2.35,4.13,4.32,5.58C708.17,142.65,708.25,141.26,706,138.19z"/>
	<path d="M210.56,188.75c-2.94-3.34-1,2.87,2.79,2.89C212.94,191.2,210.83,189.05,210.56,188.75z"/>
	<path d="M676.76,532.74c0.69-2.51,0.67-2.9-0.26-6.21C676.05,528.69,675.91,530.71,676.76,532.74z"/>
	<path d="M706.63,128.1c-0.1,0.03,0.01,0.01,3.08,2.18C710.79,129.31,709.48,127.18,706.63,128.1z"/>
	<path d="M211.95,427.35c-0.15,1.27,1.15,7.7,1.27,3.53C213.27,429.55,212.32,424.21,211.95,427.35z"/>
	<path d="M219.42,422.31c1.34-1.47,0.4-3.09,0.7-4.49C219.17,419.08,218.24,420.4,219.42,422.31z"/>
	<path d="M236.66,137.26c-0.4-0.58-0.81-0.66-1.32-0.01c1.63,1.33,1.71,3.4,3.74,4.59C239.12,139.89,237.62,138.66,236.66,137.26z"
		/>
	<path d="M239.08,141.96c0.12,0.03,0.07,0.08,0.08-0.07C239.03,141.83,239.09,141.8,239.08,141.96z"/>
	<path d="M711.99,164.9c0.04-0.83-0.13-1.64-0.04-2.62C708.74,166.04,711.77,168.87,711.99,164.9z"/>
	<path d="M238.17,127.67c1.35,1.88,1.37,1.85,3.32,2.3C240.99,128.08,240.99,128.08,238.17,127.67z"/>
	<path d="M634.4,245.24c0.44-1.64-0.77-2.95-0.48-4.46C632.72,243.91,632.73,244.04,634.4,245.24z"/>
	<path d="M676.45,523.42c0.71-3.09,0.71-3.22-0.1-5.95C675.89,519.53,675.63,521.35,676.45,523.42z"/>
	<path d="M665.36,149.88c2.69,2.69,1.6,2.04,3.72,2.04C665.52,148.48,665.36,150.41,665.36,149.88z"/>
	<path d="M591.48,151.16c-0.4-3.03-0.22-3.17-1.12-2.38C589.81,149.27,590.39,149.83,591.48,151.16z"/>
	<path d="M665.55,376.4c0.34,1.34,0.57,1.43,1.91,1.99C668.12,379.04,665,374.22,665.55,376.4z"/>
	<path d="M665.36,375.62C665.22,375.76,665.45,375.97,665.36,375.62L665.36,375.62z"/>
	<path d="M642.34,239.11c0.15-1.71,0.15-1.71-1.12-2.56C641.2,237.76,641.19,238.64,642.34,239.11z"/>
	<path d="M228.57,417.94c0.77-1.24,0.75-1.26-0.08-2.85C227.92,416.04,228.05,416.95,228.57,417.94z"/>
	<path d="M714.44,173.78c-0.94,0.72-1.3,1.53-1.37,3.07C714.54,175.31,714.54,175.31,714.44,173.78z"/>
	<path d="M591.63,154.71c1.56,1.86,1.61-0.68-0.08-1.73C591.19,153.62,591.17,154.17,591.63,154.71z"/>
	<path d="M649.01,220.71c-0.79,0.43-0.74,0.08-0.34,1.3C649.58,221.5,649.6,221.86,649.01,220.71z"/>
	<path d="M676.8,509.28c0.49-2.74-0.43-1.78-0.44-1.42C676.25,509.99,676.84,509.06,676.8,509.28z"/>
	<path d="M214.01,422.92c-0.4,1.21-0.38,0.76,0.51,2.31C214.84,423.19,215.05,423.76,214.01,422.92z"/>
	<path d="M238.54,400.86c-0.07,0.64-0.12,1.17-0.24,2.29C239.6,402.01,239.75,401.44,238.54,400.86z"/>
	<path d="M677.01,471.78c-0.91,0.96-0.74,0.47-0.43,1.86C677.57,472.25,677.32,472.68,677.01,471.78z"/>
	<path d="M668,426.08c0.27-0.8,0.21-0.63-0.35-0.98C667.29,425.82,667.55,425.74,668,426.08z"/>
	<path d="M228.68,412.02c-0.35,0-0.26-0.22-0.26,1.21C228.77,413.23,228.68,413.45,228.68,412.02z"/>
	<path d="M661.06,145.69c0.62,0.55,0.5,0.5,0.65,0.37c0.02-0.01,0.11-0.09,0.1-0.11C661.43,145.24,661.5,145.36,661.06,145.69z"/>
	<path d="M660.76,370.65c-0.12-0.27-0.25-0.54-0.45-0.98c-0.08,0.1-0.81,0.74-0.15,1.14C660.27,370.88,660.59,370.7,660.76,370.65z"
		/>
	<path d="M699.5,127.31c1.36,1.17,1.07,1.12,1.3,0.37C700.51,127.6,700.22,127.52,699.5,127.31z"/>
	<path d="M658.89,140.55c-0.18-0.9-0.17-0.68-0.82-0.47C658.48,140.94,658.38,140.72,658.89,140.55z"/>
	<path d="M654.8,301.12c0.48-0.81,0.46-0.46,0.06-1.33C654.24,300.92,654.9,300.94,654.8,301.12z"/>
	<path d="M629.51,248.53c0.46-0.63,0.58-0.26-0.34-1.39C628.71,247.93,628.56,247.55,629.51,248.53z"/>
	<path d="M684.95,173.46c-0.37-0.74-0.3-0.63-0.71-0.24C684.4,173.37,684.85,173.89,684.95,173.46z"/>
	<path d="M239.82,143.29c-0.04-0.17-0.05-0.37-0.09-0.56C239.44,141.23,238.63,142.6,239.82,143.29z"/>
	<path d="M239.96,143.38c-0.13-0.06-0.21-0.21-0.09,0.09L239.96,143.38z"/>
	<path d="M708.28,143.03c0.03,0.1,0.05,0.06-0.01-0.04C708.27,142.99,708.27,142.98,708.28,143.03z"/>
	<path d="M708.27,142.99c0.08,0.11-0.07-0.25-0.09-0.35C708.08,142.73,707.92,142.53,708.27,142.99z"/>
	<path d="M708.27,142.99L708.27,142.99C708.33,143.08,708.34,143.08,708.27,142.99z"/>
	<path d="M239.96,143.38c-0.13,0.14,0.16,0.57,0.13,0.47C240.15,143.95,239.99,143.48,239.96,143.38z"/>
	<path d="M220.65,199.87c-0.1-0.03-0.67,0.09-0.57,0.15C221.05,200.7,221.48,200.16,220.65,199.87z"/>
	<path d="M221.2,200.33c0.11-0.11,0.13-0.1-0.06-0.06C221.16,200.29,221.18,200.31,221.2,200.33z"/>
	<path d="M207.88,232.84c0.07-0.68-1.01-0.76-0.02,0.18C207.86,233.02,207.86,232.99,207.88,232.84z"/>
	<path d="M207.83,233.19C207.95,233.07,207.86,232.9,207.83,233.19L207.83,233.19z"/>
	<path d="M640.55,233.7c0.13,0.81,0.62,0.85,0.24-0.24C640.71,233.54,640.54,233.64,640.55,233.7z"/>
	<path d="M631.38,237.65c0.34-0.7,0.35-0.5,0.08-0.89C631.04,237.55,631.11,237.31,631.38,237.65z"/>
	<path d="M652.3,319.47c-0.02,0.24,0,0.76,0.17-0.11C652.29,319.47,652.3,319.37,652.3,319.47z"/>
	<path d="M218.49,414.34c0.35-0.33,0.33-0.11,0.03-0.97C218.2,413.68,218.16,413.41,218.49,414.34z"/>
	<path d="M664.71,417.56c0.17,0.92,0.62,0.75,0.25-0.24C664.91,417.37,664.7,417.5,664.71,417.56z"/>
	<path d="M679.61,461.29c-0.12,0.38-0.19,0.3,0.28,0.33C679.8,461.2,679.85,461.31,679.61,461.29z"/>
	<path d="M676.61,515.34c0.12-0.31,0.18-0.3-0.06-0.3L676.61,515.34z"/>
	<path d="M667.51,120.88L667.51,120.88C666.86,121.44,671.59,119.15,667.51,120.88z"/>
	<path d="M231.73,127.44c-0.11-0.08-1.09,0.57,0.3,0.42C232.13,127.86,231.83,127.51,231.73,127.44z"/>
	<path d="M232.17,127.84c-0.1,0.1-0.33-0.05,0.21,0.27C232.38,128.11,232.4,128.14,232.17,127.84z"/>
	<path d="M247.51,132.85c0.4,0.68,0.94,0.59,0.9,0.49C248.11,132.49,248.11,132.85,247.51,132.85z"/>
	<path d="M207.83,233.19c0.12,0.02,0.47,0.11,0.37,0.06C207.88,233.07,207.95,233.07,207.83,233.19z"/>
	<path d="M222.12,201.32c-0.05-0.1-0.75-1.19-0.84-1.09C221.18,200.35,221.78,201.22,222.12,201.32z"/>
	<path d="M213.44,191.73C213.66,192.16,213.34,191.63,213.44,191.73L213.44,191.73z"/>
	<path d="M689.68,157.74c-0.58-0.63-0.39-0.02-0.29-0.12L689.68,157.74z"/>
	<path d="M665.18,149.62c0.03,0.3-0.02,0.27,0.18,0.25C665.26,149.78,665.3,149.82,665.18,149.62z"/>
	<path d="M603.62,144.18C603.92,144.62,604.08,144.4,603.62,144.18L603.62,144.18z"/>
	<path d="M669.29,120.03L669.29,120.03C669.16,120.18,669.11,120.42,669.29,120.03z"/>
	<path d="M691.83,299.46L691.83,299.46C691.86,299.68,692.16,299.74,691.83,299.46z"/>
	<path d="M665.21,375.53c0.08,0.24,0.05,0.2,0.16,0.09C665.25,375.55,665.21,375.53,665.21,375.53z"/>
	<path d="M664.9,375.35c0.23,0.14,0.42,0.27,0.24,0.03C665.05,375.27,665,375.41,664.9,375.35z"/>
	<path d="M681.84,431.93c-0.06-0.07-0.11-0.14-0.17-0.21C681.57,431.82,681.49,431.78,681.84,431.93z"/>
	<path d="M303.78,139.6c-0.23,0.21-0.01-0.01,0.08,0.09C303.85,139.64,303.88,139.65,303.78,139.6z"/>
	<path d="M79.36,208.99c0.12-0.14,0.1-0.09-0.02-0.06C79.34,208.94,79.33,208.92,79.36,208.99z"/>
	<path d="M279.54,64.87c0.11-0.11,0.01-0.17,0-0.06C279.55,64.83,279.55,64.85,279.54,64.87z"/>
	<path d="M317.13,13.36c-0.1,0.1-0.14,0.09,0.07,0.15C317.2,13.51,317.2,13.51,317.13,13.36z"/>
	<path d="M821.81,29.77c0.04-0.04,0.1-0.08,0.06-0.1C821.87,29.67,821.86,29.69,821.81,29.77z"/>
	<path d="M750.23,93.58c0.11,0.11,0.09,0.11,0.09-0.09C750.2,93.6,750.25,93.56,750.23,93.58z"/>
	<path d="M766.47,82.8c0.17-0.03,0.12,0.01,0.13-0.13C766.5,82.78,766.47,82.69,766.47,82.8z"/>
	<path d="M769.69,142.71c0.14,0.14,0.07,0.16,0.17-0.15C769.8,142.61,769.76,142.65,769.69,142.71z"/>
	<path d="M747.1,185.62c0.03-0.11,0.05-0.09-0.06-0.08C746.96,185.69,746.98,185.63,747.1,185.62z"/>
	<path d="M701.94,258.78L701.94,258.78C701.75,258.75,701.92,258.9,701.94,258.78z"/>
	<path d="M617.72,251.06C617.82,250.97,617.66,250.84,617.72,251.06L617.72,251.06z"/>
	<path d="M770.38,43.07c0.11-0.13,0.14-0.09-0.13-0.13C770.26,42.96,770.36,43.05,770.38,43.07z"/>
	<path d="M130.77,368.13c1.28,2.97-4.07,6.62,0.18,15.07c3.03,6.02-1.44-5.04,2.15-16.79C133.1,366.08,130.49,367.46,130.77,368.13z
		"/>
	<path d="M104.76,446.62c-2.18,2.18-1.24,20.85,0.19,27.22C105,464.73,103.99,455.71,104.76,446.62z"/>
	<path d="M138.83,358.69c-1.35,0.63-6.25,7.58-5.59,7.58c3.32-1.09,4.97-3.7,6.09-6.77C139.4,359.3,138.91,358.86,138.83,358.69z"/>
	<path d="M133.13,366.31c-0.04,0.14-0.05,0.09,0.09,0.09c0.01-0.04,0.02-0.09,0.02-0.13C133.2,366.28,133.17,366.3,133.13,366.31z"
		/>
	<path d="M136.75,415.68c-0.09,3.29,0.31,7.92,2.11,10.69C139.23,422.85,138.6,418.19,136.75,415.68z"/>
	<path d="M113.38,373.98c-1.87,9.58,1.15,10,1.13,2.44C114.49,368.98,114.03,370.68,113.38,373.98z"/>
	<path d="M105.51,433.41c-1.52,2.5-1.56,6.95-1,9.67C104.95,439.89,106.16,436.81,105.51,433.41z"/>
	<path d="M117.63,537.89c0,1.56,0.14,3.12,0.4,4.68C119.07,536.62,117.63,527.65,117.63,537.89z"/>
	<path d="M116.69,519.75c0.06,2.15,1.02,5.86,0.91,0C117.46,511.9,116.65,518.15,116.69,519.75z"/>
	<path d="M130.95,403.11c-0.09,0.83,0.39,1.44,1.59,2.27C131.23,402.2,131.12,401.52,130.95,403.11z"/>
	<path d="M117.06,504.66c0.87-1.07,0.64-1.93,0-3.59C117.06,502.74,117.06,503.61,117.06,504.66z"/>
	<path d="M108.45,414.65c0.29,0.73,0.16,0.95,0.47-2.2C108.93,412.35,107.84,413.09,108.45,414.65z"/>
	<path d="M109,412.38L109,412.38C109.24,411.94,108.76,412.55,109,412.38z"/>
	<path d="M134.41,408.42c-0.02-0.1-0.44-1.53-0.25,0.99C134.17,409.5,134.5,408.85,134.41,408.42z"/>
	<path d="M134.03,407.57c-0.29-0.17-0.26-0.17-0.11,0.1C134.08,407.83,134.05,407.88,134.03,407.57z"/>
	<path d="M117.35,510.97c-0.47,0.06-0.38-0.18-0.19,1.25C117.6,512.16,117.51,512.41,117.35,510.97z"/>
	<path d="M111.67,354.54c-0.02,0.32-0.05,0.64-0.08,1.05C112.12,354.92,111.65,354.93,111.67,354.54z"/>
	<path d="M106.19,428.77c0.39-0.54,0.36-0.31,0.11-1.06C106.08,428.08,106.09,427.79,106.19,428.77z"/>
	<path d="M145.38,397.77c-0.14,0.14-0.37,0.27-0.36,0.4C145.05,398.92,145.92,398.39,145.38,397.77z"/>
	<path d="M133.48,406.89c0,0.38-0.34,0.12,0.31,0.56C133.73,407.35,133.67,407.23,133.48,406.89z"/>
	<path d="M107.01,421.69c0.15,0,0.12,0.06,0.05-0.28L107.01,421.69z"/>
	<path d="M207.72,523.39c1.91-5.19-1.54-9.15-0.22,0.59C207.58,523.78,207.65,523.58,207.72,523.39z"/>
	<path d="M207.68,531.6c1.17,3.08,0.88,1.01,0.88-4.17C207.56,528.73,207.1,530.08,207.68,531.6z"/>
	<path d="M208.14,509.55c0.47-0.05,0.36,0.29,0.36-2.12C207.65,507.51,207.85,506.93,208.14,509.55z"/>
	<path d="M208.34,513.68c-0.31,0.95-0.26,0.47-0.02,2.13C208.57,514.02,208.6,514.53,208.34,513.68z"/>
	<path d="M208.43,471.95c-0.6,0.36-0.52-0.04-0.42,1.45C208.97,472.71,208.43,473.27,208.43,471.95z"/>
	<path d="M211,461.58c-0.06,0.45-0.14,0.29,0.31,0.16L211,461.58z"/>
	<path d="M209.97,466.71c-0.03,0.1-0.11,0.38-0.14,0.46C210.1,467.04,210.07,467.14,209.97,466.71z"/>
	<path d="M316.23,100.09c-14.84-9.71-15.24-8.5-15.59-13.2c-0.7-9.82-4.96-1.78-1.15,5.21c1.09,2,15.67,9.45,17.23,8.93
		C316.59,100.89,316.54,100.29,316.23,100.09z"/>
	<path d="M341.95,58.22c-3.25,1.16-4.33,1.16-4.79,2.13c-0.24,0.5,0.46,1.23,0.89,1.32c3.91,0.87,3.69-0.62,3.11,2.15
		c4.48,2.38,2.72,1.56,5.48,1.56c-0.96-2.02,0.32-3.34,0.82-4.74c0.04-0.1-0.58,0.38,3.24-2.15
		C347.38,56.8,344.67,57.26,341.95,58.22z"/>
	<path d="M353.18,55.18c-11.01-10.57-21.33-0.63-16.74-1.37c4.92-0.82,6.29-1.84,8.96-0.19C353.63,58.71,354.17,56.13,353.18,55.18z
		"/>
	<path d="M282.86,152.71c-7.38-4.43-12.68-4.68-16.87-10.46c-0.37,4.73,7.58,7.68,16.85,11.99c1.17,1.52,0.74,3.17,2.01,4.3
		C284.96,158.65,286.54,154.93,282.86,152.71z"/>
	<path d="M291.41,159.81c0.95-1,1.97-2.08,2.83-2.99c2.92-0.74,5.9,0.82,8.87-1.35C290.29,152.4,289.18,159.05,291.41,159.81z"/>
	<path d="M291.4,140.54l0.03,0.03c0.02-0.32,0.05-0.28-0.1-0.1c0.1,0.1-0.39,0.79,0.1,0.1L291.4,140.54z"/>
	<path d="M289.03,149.95c0.77,7.32,1.02-4.56,2.2-9.05C289.76,142.85,288.64,146.34,289.03,149.95z"/>
	<path d="M294.1,127.04c-1.23,3.22-1.23,3.22-0.92,5.87C294.75,130.98,294.59,130.03,294.1,127.04z"/>
	<path d="M283.5,98.95c0.1,0.09,0.62-2.62-1.39-5.34C281.75,95.78,281.87,97.42,283.5,98.95z"/>
	<path d="M283.48,99.11L283.48,99.11C283.68,99.19,283.54,98.8,283.48,99.11z"/>
	<path d="M282.06,93.54c0.01,0.01,0.05,0.08,0.05,0.08c0.01-0.05,0.02-0.11,0.03-0.16C282.06,93.5,282.07,93.5,282.06,93.54z"/>
	<path d="M296.25,109.28c0.25,0.93,1.1,0.38,1.12-1.19C297.42,105.73,295.48,106.41,296.25,109.28z"/>
	<path d="M283.6,99.47c0.02,0.67,0.21,1.24,1.23,1.79C284.89,101.29,283.57,98.37,283.6,99.47z"/>
	<path d="M301.42,141.96c0.23-0.22,0,0-0.1-0.1C301.42,141.95,301.24,142.12,301.42,141.96z"/>
	<path d="M300.36,143.04c0.35-0.03,0.79-0.13,0.94-0.45C301.85,141.37,300.53,142.86,300.36,143.04z"/>
	<path d="M284.71,107.26c0.26-0.43,0.12-0.75-0.05-0.49C284.5,107.02,284.74,107.21,284.71,107.26z"/>
	<path d="M291.49,140.26c0.36-0.48-0.04-1.65-0.04,0.06L291.49,140.26z"/>
	<path d="M302.12,141.29l-0.61,0.57C301.85,141.88,302.11,141.75,302.12,141.29z"/>
	<path d="M302.22,141.2c-0.1-0.1-0.1-0.16-0.1,0.09C302.14,141.28,302.12,141.29,302.22,141.2z"/>
	<path d="M302.32,141.1L302.32,141.1C302.78,141.09,303.45,140.03,302.32,141.1z"/>
	<path d="M302.92,140.54L302.92,140.54C303.06,140.39,302.95,140.26,302.92,140.54z"/>
	<path d="M302.13,141.11c0.11,0.11,0.06,0.11,0.19-0.01C302.24,141.1,302.22,141.12,302.13,141.11z"/>
	<path d="M303.05,140.25c-0.02,0.1,0.09-0.08,0.63-0.56C303.14,139.69,303.08,140.12,303.05,140.25z"/>
	<path d="M302.94,140.35c0.11,0.11,0.07,0.13,0.11-0.1C303.05,140.25,303.07,140.24,302.94,140.35z"/>
	<path d="M309.84,192.31c-11.71,7.2,9.59,1.55,9.58-10.82C317.01,185.38,314.91,189.2,309.84,192.31z"/>
	<path d="M308.35,259.31c-3.54,6.8-9.52,11.26-7.24,12.35C309.97,264.31,311.62,253.04,308.35,259.31z"/>
	<path d="M289.38,360.87c0.06-1.45-0.28-3.02-0.93-4.88C285.63,360.9,289.1,367.29,289.38,360.87z"/>
	<path d="M288.82,266.98c0.29-0.48,0.61,0.57-2.92-7.07C285.9,265.38,287.77,267.74,288.82,266.98z"/>
	<path d="M287.64,369.05c0.65,2.19,2.37-0.05,0.47-3.82C287.52,366.5,287.26,367.78,287.64,369.05z"/>
	<path d="M295.96,277.19c-1.04,1.74-1.04,1.74-0.85,3C296.3,279.35,296.81,278.76,295.96,277.19z"/>
	<path d="M288.31,353.89c0.55,0.48,0.43,0.63,0.43-2.12C287.8,352.52,287.49,353.18,288.31,353.89z"/>
	<path d="M306.94,391.12c-1.29-0.38-0.87-0.68-1.77,0.7C306.54,392.02,306.06,392.11,306.94,391.12z"/>
	<path d="M297.4,275.18c-0.89,1.13-0.31,1.07-0.04,1.34c0.29-0.36,0.58-0.72,0.95-1.19C297.82,275.25,297.47,275.1,297.4,275.18z"/>
	<path d="M288.78,347.28c-0.37,0-0.28-0.22-0.28,1.23C288.87,348.51,288.78,348.74,288.78,347.28z"/>
	<path d="M285.64,258.56c-0.14,0.35-0.59,0.45,0.16,0.94C285.79,258.7,285.78,258.91,285.64,258.56z"/>
	<path d="M285.9,259.59c-0.14-0.12-0.11-0.1-0.1,0.09C285.93,259.97,285.91,260,285.9,259.59z"/>
	<path d="M288.48,341.67c0.13-0.02,0.25-0.05,0.38-0.08C288.96,341.59,288.6,340.9,288.48,341.67z"/>
	<path d="M80.38,209.97c26.39,14.06,26.64,11.45,21.54,9.09c-24.59-11.4-22.49-10.05-22.39-10.03
		C79.44,209,80.13,209.83,80.38,209.97z"/>
	<path d="M79.36,208.99c0.06,0.01,0.12,0.02,0.18,0.04C79.41,208.89,79.48,208.85,79.36,208.99z"/>
	<path d="M123.54,201.47c0.19-0.07-11.33-1.08-21.23,4.93c0.06,0.03,0.96,0.52,1.01,0.49C110.58,201.82,118.21,203.45,123.54,201.47
		z"/>
	<path d="M134.84,243.6c5.42,8.25,6.11,5.22,3.14,2.36C137.29,245.3,136.33,244.61,134.84,243.6z"/>
	<path d="M92.32,237.26c-0.34,0-0.24-0.76-0.24,7.22C92.42,244.59,92.32,245.37,92.32,237.26z"/>
	<path d="M91.55,227.2c-0.1,0.05-0.07-0.22-0.07,2.22C91.58,229.41,91.55,229.66,91.55,227.2z"/>
	<path d="M126.88,238.49c0-0.99-0.05-1.64-1.73-2.13C124.28,236.11,125.18,238.05,126.88,238.49z"/>
	<path d="M124.74,236.25c-0.03-0.18-0.04-0.13-0.12-0.03C124.66,236.23,124.7,236.24,124.74,236.25z"/>
	<path d="M113.76,228.52c-1.03-0.91-1.69-0.7-1.59-0.7c0.95,1,1.28,1.24,2.21,1.24C114.19,228.9,113.96,228.69,113.76,228.52z"/>
	<path d="M111.94,220.43c0.12,0.1,0.05-0.7-1.2-1.96C110.85,219.21,111.21,219.84,111.94,220.43z"/>
	<path d="M112.01,220.68c-0.1,0.09-0.15-0.13,0.89,0.81l0.1-0.1C111.72,220.23,112.01,220.43,112.01,220.68z"/>
	<path d="M97.79,212.96c-0.04,1.31,0.54-1.17,0.91-1.54C98.05,211.76,97.81,212.25,97.79,212.96z"/>
	<path d="M116.16,230.93c0.53,0.65,1.18,1.1,2,1.26C117.67,231.5,117.03,231.03,116.16,230.93z"/>
	<path d="M116.04,230.8c-0.12,0.12-0.14,0.09,0.12,0.13C116.16,230.93,116.06,230.83,116.04,230.8z"/>
	<path d="M100.02,210.17c-0.08-0.73,0.04-0.69-1.08,1.04C99.71,211.2,100.12,211,100.02,210.17z"/>
	<path d="M98.79,211.22c-0.03,0.07-0.06,0.13-0.09,0.2C98.8,211.42,99.09,211.22,98.79,211.22z"/>
	<path d="M93.48,223.42c0.02-0.12,0.06-0.1-0.26-0.08C93.22,223.34,93.22,223.34,93.48,223.42z"/>
	<path d="M120.01,233.37c-0.54-0.17-1.06-0.27,0.49,0.35C120.28,233.42,119.9,233.34,120.01,233.37z"/>
	<path d="M119.12,233.18c-0.11,0.11-0.2,0.12,0.29,0.12C119.36,233.27,119.22,233.22,119.12,233.18z"/>
	<path d="M139.28,234.83c0.11,0.01,0.22,0.01,0.33,0.01C139.33,234.71,139.4,234.71,139.28,234.83z"/>
	<path d="M140.75,235.33c-0.2-0.41-0.53-0.5-1.14-0.5C141.13,235.5,140.7,235.23,140.75,235.33z"/>
	<path d="M123.11,235.54c-0.12,0.02,0.41,0.73,1.44,0.59C124.2,235.61,123.7,235.46,123.11,235.54z"/>
	<path d="M124.55,236.13c0.02,0.03,0.05,0.05,0.07,0.08C124.74,236.08,124.7,236.1,124.55,236.13z"/>
	<path d="M123.05,235.46c-0.14-0.15-0.12-0.18-0.1,0.1C123.04,235.46,123.15,235.65,123.05,235.46z"/>
	<path d="M140.83,235.53c0.03,0.1,1.61,0.71,1.73,0.59c-0.12,0.12-0.13,0.07,0.08,0.27C142.36,235.75,140.56,235.25,140.83,235.53z"
		/>
	<path d="M134.81,236.83c-2.2-0.73-7.03-5.85-1.74-0.45C134.97,237.01,134.69,236.96,134.81,236.83z"/>
	<path d="M148.41,266.38c0.92-0.25,0.47-0.56,0.37-0.53C147.92,266.08,148.31,266.41,148.41,266.38z"/>
	<path d="M120.71,233.81L120.71,233.81C120.16,233.59,121.34,234.46,120.71,233.81z"/>
	<path d="M107.59,222.11c-1.01-0.9-0.72-0.81-0.82-0.73c-0.14,0.13-0.24-0.02,0.71,0.84L107.59,222.11z"/>
	<path d="M122.93,235.31c-0.01-0.12-0.47-0.45,0,0.03L122.93,235.31z"/>
	<path d="M108.18,223.76c-0.92-2.6-0.81-1.85-0.1,0.1C108.01,223.93,110.06,225.58,108.18,223.76z"/>
	<path d="M105.03,210.39c-0.1-0.03,0.91,1.56,0.77,1.7c1.2,1.03,2.36,4.27,1.02,0.69C106.47,213.09,105.3,210.48,105.03,210.39z"/>
	<path d="M142.78,236.53c-0.12-0.11-0.1-0.09-0.14-0.14C142.68,236.5,142.68,236.44,142.78,236.53z"/>
	<path d="M135.48,237.73C138.03,240.58,132.82,234.9,135.48,237.73L135.48,237.73z"/>
	<path d="M127.42,238.8c-0.1-0.04-0.43-0.16-0.45-0.16C127.04,239.29,127.52,238.8,127.42,238.8z"/>
	<path d="M126.97,238.64c-0.01-0.1,0.01-0.15-0.09-0.15C126.86,238.63,126.87,238.6,126.97,238.64z"/>
	<path d="M137.13,239.49c-2.16-1.89,0.1-0.41-0.25-0.05C136.97,239.45,137.05,239.47,137.13,239.49z"/>
	<path d="M139.18,240.7c1.08,1.2,0.9,1.15,1.05,0.99C139.32,240.65,139.48,240.8,139.18,240.7z"/>
	<path d="M141.7,242.41c-3.38-1.63-0.16,0.15-0.04,0.03C141.93,242.65,141.92,242.66,141.7,242.41z"/>
	<path d="M110.57,226.04c-2.07-1.9-2.28-2.07-0.1,0.1L110.57,226.04z"/>
	<path d="M111.45,227.01L111.45,227.01C112.56,228.12,111.71,227.08,111.45,227.01z"/>
	<path d="M110.57,226.04c-0.18,0.18-0.13,0,0.64,0.92c0.1-0.1,0.43,0.26,0.1-0.1C111.24,226.94,110.67,225.94,110.57,226.04z"/>
	<path d="M111.98,227.59c0.04,0.26-0.02,0.23,0.2,0.22C112.08,227.71,112.11,227.74,111.98,227.59z"/>
	<path d="M117.57,226.8c-2.81-2.9-3.65-3.07-0.86-0.7C118.16,227.58,119.04,228.24,117.57,226.8z"/>
	<path d="M105.13,219.13c0.22-0.21-0.85-0.83-0.81-0.88c-1.83-3.67,0.02-0.01-0.1,0.1C104.11,218.46,104.11,218.21,105.13,219.13z"
		/>
	<path d="M119.1,228.41c0.15,0.16,0.23,0.29,0.03-0.06c-0.94-0.94-0.68-0.88-0.78-0.79C118.15,227.77,119.16,228.31,119.1,228.41z"
		/>
	<path d="M126.1,229.19L126.1,229.19C125.25,228.49,128.19,231.38,126.1,229.19z"/>
	<path d="M131.43,229.05l0.07,0.17C131.62,229.1,131.64,229.15,131.43,229.05z"/>
	<path d="M131.5,229.22c-0.43,0.4,2.3,1.63,2.5,1.42C131.2,229.55,131.82,228.92,131.5,229.22z"/>
	<path d="M116.04,230.8c0.2-0.2-2.15-2.08-1.55-1.67C114.39,229.23,115.91,230.93,116.04,230.8z"/>
	<path d="M126.76,230.07c4.31,4.02,3.77,4.03,4.02,3.79C130.54,233.61,127,229.84,126.76,230.07z"/>
	<path d="M106.77,221.38c-1.78-1.52-1.3-2.58-1.54-2.35C104.96,219.29,106.21,221.86,106.77,221.38z"/>
	<path d="M134,230.64l-0.1,0.1c0.89,1.06,0.68,1.02,0.77,0.92c3.72,1.47,0.19-0.19,0.09-0.09
		C134.85,231.48,134.92,231.76,134,230.64z"/>
	<path d="M113.78,222.33l-0.04-0.27C112.13,220.46,113.71,222.22,113.78,222.33z"/>
	<path d="M107.32,214.48c2.21,1.9,0.22,1.26,2.42,3.15c1.27,1.09,0.97,0.92,0.95,0.6c-2.24-1.85-1.58-1.13-2.37-3.08
		c-0.12,0.12-0.15,0.15,0,0C107.29,214.27,107.46,214.34,107.32,214.48z"/>
	<path d="M118.38,232.25c-0.29-0.04-0.25-0.13-0.1,0.1C118.47,232.16,120.08,234.36,118.38,232.25z"/>
	<path d="M136.38,232.19c-0.23,0.23,0.7,0.94,0.6,1.04c3.07,1.23,1.98,1.91,2.4,1.5C137.87,232.64,137.95,234.29,136.38,232.19z"/>
	<path d="M188.26,236.16c3.53,0.28,3.52-0.53,4.34-1.27C193.82,233.67,164.17,234.23,188.26,236.16z"/>
	<path d="M171.25,233.33c-1.21,0.04-0.7,0.41,1.58,0.17C172.01,233.4,171.47,233.32,171.25,233.33z"/>
	<path d="M194.23,234.78c0.15,0.64,0.26,0.43,0.99,0.05C194.65,234.08,194.19,234.62,194.23,234.78z"/>
	<path d="M255.31,21.52C255.3,21.6,255.23,21.67,255.31,21.52L255.31,21.52z"/>
	<path d="M255.47,21.25L255.47,21.25C255.82,20.8,255.02,22.06,255.47,21.25z"/>
	<path d="M290.29,20.15c-3.36-0.42,4.18,2.96,6.25,3.3C294.74,21.61,292.85,20.47,290.29,20.15z"/>
	<path d="M296.55,23.46c0.05,0.05,0.11,0.1,0.14,0.14C296.6,23.7,297.3,23.61,296.55,23.46z"/>
	<path d="M296.93,23.69c0.43,0.43,0.21,0.37,0.61,0.23C297.34,23.85,297.13,23.77,296.93,23.69z"/>
	<path d="M274.44,403.97c0.1-0.07,6.97-9.51,2.08-5.89C274.62,399.5,272.19,405.6,274.44,403.97z"/>
	<path d="M273.36,404.51L273.36,404.51C273.36,404.99,273.65,404.35,273.36,404.51z"/>
	<path d="M279.54,64.87c0.33,0.09,0.31,0.12,0.08-0.09L279.54,64.87z"/>
	<path d="M262.94,394.95c-0.03-0.63-0.23-0.12-0.42,0.15C262.62,395.1,262.95,395.23,262.94,394.95z"/>
	<path d="M262.52,395.1c-0.04-0.01-0.09-0.02-0.13-0.03C262.43,395.2,262.36,395.3,262.52,395.1z"/>
	<path d="M317.04,13.45c0.11-0.11,0.15-0.07-0.15-0.16C316.79,13.25,316.93,13.32,317.04,13.45z"/>
	<path d="M600.56,384.75c0.65-10.97-1.98-2.33,1.01-17.81c7.95-4.92,7.59-11.65,3.72-5.87c-1.67,2.49-3.73,4.94-5.97,6.91
		c0.58,1.32,0.62,2.45-0.26,3.56C597.17,373.92,598,382.19,600.56,384.75z"/>
	<path d="M573.29,455.16c0.09-24.68-2.29,7.03,0.12,19.31C574.73,474.42,573.23,475.06,573.29,455.16z"/>
	<path d="M573.87,205.57c1.09-0.26,5.89-2.74,12.91-2.96c6.92-0.22,9.46-3.08-7.75,0.25C575.55,203.53,570.61,206.35,573.87,205.57z
		"/>
	<path d="M581.98,382.1c2.68-6.48,0.25-11.04,0.21-10.81C581.17,382.97,581.13,380.8,581.98,382.1z"/>
	<path d="M606.71,425.66c0.04,0.16,0.42,0.22,0.82,0.41c0.38-3.48-0.29-6.72-2.02-9.88C605.32,419.43,605.86,422.57,606.71,425.66z"
		/>
	<path d="M587.12,544.05c0-4.19,0-7.56,0-11.8C585.89,536.45,585.7,539.83,587.12,544.05z"/>
	<path d="M573.78,442.89c1.32-16.32-1.12-7.44-1.12-0.85C572.65,443.2,573.74,443.34,573.78,442.89z"/>
	<path d="M560.53,231.9c-0.13,0-0.09-0.7-0.09,9.51C561.03,241.4,560.88,242.45,560.53,231.9z"/>
	<path d="M585.63,522.2c0.23,0.56,0.53,1.09,0.88,1.58C585.7,511.72,584.75,520.01,585.63,522.2z"/>
	<path d="M576.73,415.22c0.22,0.83,0.04,1.01,1.14-2.77C576.91,413.22,576.42,414.05,576.73,415.22z"/>
	<path d="M586.28,500.7c-0.23,0.66-0.48,1.38-0.53,2.06C585.74,503.05,586.28,507.63,586.28,500.7z"/>
	<path d="M600.53,403.42c-0.14-0.53-1.1-1.79-1.11-0.3C599.42,404.69,601.05,405.4,600.53,403.42z"/>
	<path d="M568.49,209.96c-0.98,0.65-1.36,1.26-1.26,2.05C568.44,211.1,568.49,210.91,568.49,209.96z"/>
	<path d="M585.98,231.69c0.46,0.73,1.14,1.13,1.97,1.28C587.45,232.3,586.82,231.84,585.98,231.69z"/>
	<path d="M585.13,230.62c-0.1,0.1-3.8-1.21-0.1,0.1c0.1-0.1-0.05,0.11,0.75,0.92C586.02,231.67,586.24,231.99,585.13,230.62z"/>
	<path d="M587.95,232.98L587.95,232.98C588.11,233.2,588.28,233.04,587.95,232.98z"/>
	<path d="M572.48,205.91c0.05-0.1-0.83,0.14-0.93,0.17c-0.1,0.04-0.26,0.59-0.16,0.59C571.99,206.72,571.89,207.01,572.48,205.91z"
		/>
	<path d="M572.62,205.89c0.15-0.15,0.13-0.13-0.08-0.09C572.47,205.93,572.45,205.92,572.62,205.89z"/>
	<path d="M557.82,222.63C558.27,222.66,558.05,222.64,557.82,222.63L557.82,222.63z"/>
	<path d="M557.82,222.63C558.05,222.64,558.27,222.66,557.82,222.63L557.82,222.63z"/>
	<path d="M586.29,511.25c0-0.05-0.15-0.1-0.23-0.15C585.87,512.71,586.25,512.39,586.29,511.25z"/>
	<path d="M602.29,407.07c-0.05,0.68,0.05,1.36,0.53,1.84C602.44,407.6,602.29,406.97,602.29,407.07z"/>
	<path d="M602.32,406.75c-0.12,0.12-0.11,0.05-0.03,0.32C602.3,406.96,602.31,406.86,602.32,406.75z"/>
	<path d="M574.85,212.84c-0.84-2.11-0.93-2.08-0.1,0.1C576.83,214.73,574.65,213.04,574.85,212.84z"/>
	<path d="M574.66,220.58c-0.06-0.21-0.18-0.39-0.37-0.52C574.78,221.3,574.93,221.46,574.66,220.58z"/>
	<path d="M574.21,219.84c-1.04-0.87-1.02-0.68-0.92-0.77c-0.68-1.71-0.52-1.67-0.62-1.58C572.2,217.93,574.61,220.87,574.21,219.84z
		"/>
	<path d="M561.88,223.35l-0.27-0.04C561.61,223.44,561.57,223.42,561.88,223.35z"/>
	<path d="M589.76,234.17c-0.58-0.22-1.06-0.3,0.48,0.4C590.14,234.47,590.11,234.3,589.76,234.17z"/>
	<path d="M588.91,233.96c0.1-0.1,0.17,0.22-0.74-0.94C587.82,233.42,589.46,234.21,588.91,233.96z"/>
	<path d="M590.69,234.92c0.36,0.35,0.32,0.19,0.67,0.02C591.15,234.87,590.46,234.69,590.69,234.92z"/>
	<path d="M590.44,234.66c-0.17,0.18-0.29-0.37-0.1,0.1C590.61,234.79,590.62,234.83,590.44,234.66z"/>
	<path d="M607.62,252.64c0.1-0.1,0.14,0.39-0.63-1.7C606.84,251.09,607.46,252.81,607.62,252.64z"/>
	<path d="M603.11,409.48L603.11,409.48C603.15,409.52,603.14,409.52,603.11,409.48z"/>
	<path d="M603.11,409.48C603.13,409.53,603.13,409.53,603.11,409.48L603.11,409.48z"/>
	<path d="M602.99,409.09c-0.2-0.17-0.18-0.27-0.18-0.17C602.88,409.14,603.26,409.95,602.99,409.09z"/>
	<path d="M575.18,428.07c0.21-0.4,0.23-0.3-0.05-0.37L575.18,428.07z"/>
	<path d="M581.89,222.17l-0.11,0.1C586.37,226.54,586.18,226.25,581.89,222.17z"/>
	<path d="M576.63,214.3c-1.02-0.75-0.84-0.7-0.97-0.57c-0.09,0.09,0.95,0.6,0.87,0.67c0.87,2.37,0.32,1.24,1.49,2.41
		c0.18-0.18,0.42,1.81,0.71,1.52c-0.72-1.92-0.12-1.21-1.5-2.4C577.2,215.82,576.73,214.37,576.63,214.3z"/>
	<path d="M599.02,233.86c0.14-0.14,0.15-0.09-0.1-0.15C599.05,233.91,599.01,233.85,599.02,233.86z"/>
	<path d="M578.63,218.43c-0.13,0.12,3.27,2.4,0.98,0.7C579.56,219.17,578.83,218.22,578.63,218.43z"/>
	<path d="M567.24,212.18c-0.02-0.1-0.02-0.07-0.02-0.17C565.58,213.34,565.92,213.22,567.24,212.18z"/>
	<path d="M600.46,235.3L600.46,235.3C599.48,234.45,600.15,235.25,600.46,235.3z"/>
	<path d="M600.59,235.43C601.04,235.89,600.17,234.99,600.59,235.43L600.59,235.43z"/>
	<path d="M599.93,234.75c0.1,0.1,0.12-0.1-0.81-0.99C598.94,233.94,598.92,233.7,599.93,234.75z"/>
	<path d="M601.23,236.09L601.23,236.09C600.31,235.17,600.83,235.99,601.23,236.09z"/>
	<path d="M601.46,236.12L601.46,236.12C601.03,236.12,601.36,236.22,601.46,236.12z"/>
	<path d="M574.03,211.18c0.13,0.21,0.09,0.2,0.19,0.1C574.22,211.28,574.23,211.28,574.03,211.18z"/>
	<path d="M601.36,236.22c2.01,2,3.53,3.57,1.61,1.5C602.86,237.83,601.64,235.94,601.36,236.22z"/>
	<path d="M604.05,238.85L604.05,238.85C603.95,238.85,603.63,238.71,604.05,238.85z"/>
	<path d="M602.24,244.79c0.62,1.83,0.51,1.69,0.61,1.6c-0.16,0.15,2.57,2.24,2.47,2.33c0.22,0.53,1.12,2.74,1.67,2.23
		c0.2-0.19-0.48,0.26-1.56-2.34c-0.1,0.1,0.32,0.31-1.7-1.54c-1.37-1.23-1.25-2.92-2.48-3.26
		C601.84,244.56,602.38,244.68,602.24,244.79z"/>
	<path d="M602.03,406.73c-0.1,0,0.07,0.04,0.19,0.12C602.35,406.72,602.4,406.75,602.03,406.73z"/>
	<path d="M576.5,222.89C576.39,223,576.35,223.04,576.5,222.89C571.49,219.03,587.52,232.76,576.5,222.89z"/>
	<path d="M593.5,227.67c0.22-0.22,0.24,0.05-0.71-0.85C592.22,226.46,593.15,227.34,593.5,227.67z"/>
	<path d="M574.23,433.23c-0.18,0.17-0.14,0.1-0.14,0.3C574.17,433.38,574.18,433.33,574.23,433.23z"/>
	<path d="M586.54,227.62c-0.19-0.17-0.16-0.19-0.1,0.08C588.27,229.54,586.64,227.55,586.54,227.62z"/>
	<path d="M593.5,227.67c3.64,3.47,0.19-0.19,0.09-0.09C593.48,227.7,593.51,227.66,593.5,227.67z"/>
	<path d="M587.22,228.48c0.21,0.22,1.28,1.36,0.85,0.8C587.95,229.26,587.43,228.34,587.22,228.48z"/>
	<path d="M583.38,230.14c0.02-0.03-6.08-6.92-0.77-0.89C583.51,230.29,583.28,230.24,583.38,230.14z"/>
	<path d="M595.98,229.87L595.98,229.87C593.94,227.98,596.16,230.56,595.98,229.87z"/>
	<path d="M572.67,217.5l-0.24-0.12C572.63,217.65,572.55,217.61,572.67,217.5z"/>
	<path d="M574.98,221.58c0.42,0.4,0.46,0.44,0.56,0.53C575.46,221.84,575.28,221.64,574.98,221.58z"/>
	<path d="M574.84,221.44c-0.13-0.34-0.1-0.39-0.1,0.1C574.98,221.54,575.09,221.68,574.84,221.44z"/>
	<path d="M581.3,220.54c-2.21-2.21,0.47,0.55,0.47,1.73C582.06,221.98,581.27,220.57,581.3,220.54z"/>
	<path d="M784.21,101.12c4.95,2.15-3.5-4.7-9.05-7.17c-10.01-4.46-2.8-11.16-8.56-11.16C766.12,93.25,768.44,94.25,784.21,101.12z"
		/>
	<path d="M805.42,60.05c0.99,2.51,2.95,1.67,4.49,2.01c0,0.48,0,0.97,0,1.73c5.47,2.93,4.3,2.87,5.97-3.12
		c0.26-0.51,2.59-0.6,2.89-2.6C813.27,56.78,814.92,56.84,805.42,60.05z"/>
	<path d="M803.64,53.59c1.79,0.62,3.37-0.04,4.95-0.49c5.91-1.69,8.53,3.8,12.06,3.88C827.51,57.16,810.01,44.29,803.64,53.59z"/>
	<path d="M752.07,153.13c-7.94-5.03-13.42-5.08-16.83-11.1c-3.33,3.76,9.85,9.51,14.53,11.37c2.56,1.02,2.54,2.44,3.16,4.76
		C754.45,158.31,754.63,154.75,752.07,153.13z"/>
	<path d="M765.15,154.68c-4.75,0.3-4.72,0.63-6.15,3.85c-0.11,0.25,0.01,1.13,0.83,1.12c0.54,0,0.44-0.03,2.94-2.81
		c3.03-0.82,6.15,0.89,8.87-1.25C769.62,154.78,767.36,154.54,765.15,154.68z"/>
	<path d="M760.49,139.37c0.06-0.2-0.92,1.33-1.01,2.15C759.62,141.31,760.33,139.87,760.49,139.37z"/>
	<path d="M759.49,141.52c-1.63,2.54-3.13,8.71-1.39,10.34C758.66,151.29,759.48,141.62,759.49,141.52z"/>
	<path d="M762.22,133.16c1.83-7.1,0.09-10.38-0.79-0.75C761.43,132.55,761.76,132.72,762.22,133.16z"/>
	<path d="M750.32,94.24c0.33,2.06,0.49,4.04,2.2,5.38c0.1,0.07-0.02-0.11-0.18-0.95c-0.59-3.14-0.33-3.53-1.48-4.54
		C750.31,93.65,750.19,93.42,750.32,94.24z"/>
	<path d="M752.56,99.83c0.12-0.1,0.16-0.06-0.04-0.21C752.53,99.69,752.55,99.76,752.56,99.83z"/>
	<path d="M765.49,110c0.1,0.07,0.39-1.52,0.39-1.62c0.01-0.62-0.16-1.25-0.26-1.96c-1.28,1.3-1.31,1.3-1.09,2.97
		C764.55,109.59,765.06,109.73,765.49,110z"/>
	<path d="M748.52,185.37c-0.66-0.51-1.17-0.64-1.39,0.16C748.29,185.39,748.41,185.38,748.52,185.37z"/>
	<path d="M752.64,99.93L752.64,99.93C752.48,101.03,753.68,100.98,752.64,99.93z"/>
	<path d="M752.67,99.75L752.67,99.75C752.53,99.86,752.64,100.07,752.67,99.75z"/>
	<path d="M753.74,106.79c-0.03-0.1-0.04,0.12-0.15,0.45C753.87,107.11,753.85,107.21,753.74,106.79z"/>
	<path d="M760.79,139.04c0.01-0.06-0.08-0.21-0.1-0.26C760.3,139.98,760.81,138.9,760.79,139.04z"/>
	<path d="M769.69,142.71c-0.05,0.04-0.1,0.08-0.14,0.13C769.81,142.78,769.85,142.87,769.69,142.71z"/>
	<path d="M769.35,143.01c0.02-0.02-0.01,0.01,0.2-0.18C769.4,142.86,769.46,142.87,769.35,143.01z"/>
	<path d="M821.99,29.9l-0.09-0.2C821.78,29.81,821.77,29.75,821.99,29.9z"/>
	<path d="M735.7,218.91c-1.12,1.36-0.98,0.88-0.37,1.8C736.45,219.33,736.26,219.8,735.7,218.91z"/>
	<path d="M681.99,210.42c-0.03,0.32,0.22,0.29,0.23,0.19C682.26,210.29,682.01,210.32,681.99,210.42z"/>
	<path d="M754.29,234.23c-6.41,6.99-4.17,26.96-0.14,26.9c3.76-0.06-1.42-1.81-2.36-10.24C750.4,238.47,758.37,229.77,754.29,234.23
		z"/>
	<path d="M715.87,243.48c-2.13,2.83,0.48,19.24,4.04,20.11C719.27,256.73,715.37,252.92,715.87,243.48z"/>
	<path d="M715.98,243.32L715.98,243.32C715.96,242.86,715.71,243.75,715.98,243.32z"/>
	<path d="M719.86,235.6c-2.1,1.23-3.88,2.64-3.88,7.57C717.96,242.08,717.04,242.64,719.86,235.6z"/>
	<path d="M702.71,260.5c0.19,2.26,1.5,3.87,3.19,5.43C705.45,263.65,704.57,261.9,702.71,260.5z"/>
	<path d="M702.71,260.5c0-0.05-0.01-0.09-0.01-0.13C702.59,260.45,702.6,260.42,702.71,260.5z"/>
	<path d="M702.63,260.34c0.1,0.03,0.25-1.2-0.7-1.48C701.84,259.67,701.95,260.13,702.63,260.34z"/>
	<path d="M702.62,260.43c0.1-0.08,0.11-0.05,0.01-0.09C702.63,260.34,702.62,260.42,702.62,260.43z"/>
	<path d="M725.53,50.89c0.36-0.95-0.01-0.98-0.11-0.33C725.41,50.67,725.5,50.79,725.53,50.89z"/>
	<path d="M724.31,20.75L724.31,20.75C724.3,20.82,724.24,20.89,724.31,20.75z"/>
	<path d="M724.31,20.75c-0.02,0.1,0.11-0.19,0.16-0.29C724.34,20.33,724.38,20.28,724.31,20.75z"/>
	<path d="M763.84,23.29c2.63,1.33,1.96,0.18,2.31,0.45C760.71,19.54,754.04,18.32,763.84,23.29z"/>
	<path d="M619.34,255.12c0.31,0.43,1.76,2.12,1.82,1.99c0.16-0.47,0.38-0.78,0.3-0.92C616.14,247.16,617.84,253.05,619.34,255.12z"
		/>
	<path d="M617.81,251.13c-0.02-0.18,0.01-0.16-0.09-0.08C617.75,251.08,617.78,251.11,617.81,251.13z"/>
	<path d="M763.7,43.64L763.7,43.64C763.8,43.61,763.8,43.58,763.7,43.64z"/>
	<path d="M763.7,43.64L763.7,43.64C763.78,43.59,763.81,43.58,763.7,43.64z"/>
	<path d="M770.64,43.29c0.3,0.5,1-0.09,0.43-0.18C770.43,43.01,770.44,42.96,770.64,43.29z"/>
	<path d="M770.52,43.07c-0.02-0.03-0.04-0.07-0.06-0.1C770.36,43.1,770.34,43.07,770.52,43.07z"/>
<path fill="#e6e6e6" d="m206.8 163.6c0-5.1 4.1-9.2 9.3-9.2s9.2 4.2 9.2 9.2-4.1 9.2-9.3 9.2-9.2-4.1-9.2-9.2zm17.3-.1c0-4.5-3.5-8.2-8.2-8.2s-8.2 3.7-8.2 8.3c0 4.5 3.5 8.2 8.2 8.2s8.2-3.7 8.2-8.3zm-13 0c0-2.8 2.1-5.1 5.1-5.1 1.9 0 2.9.6 3.9 1.5l-1.4 1.7c-.8-.7-1.5-1.1-2.5-1.1-1.7 0-2.8 1.4-2.8 3.1s1.1 3 2.8 3c1.1 0 1.7-.5 2.5-1.1l1.4 1.4c-1.1 1.1-2.1 1.7-4 1.7-2.9 0-5-2.3-5-5.1z"/><path fill="#e6e6e6" d="m226.6 154.7h3.4l4.2 13.2 4.4-13.3h2.6l4.4 13.3 4.2-13.2h3.3l-6.2 18h-2.7l-4.4-12.8-4.4 12.8h-2.7z"/><path fill="#e6e6e6" d="m252.8 165.8c0-3.9 3.1-7 7.2-7 4.2 0 7.2 3.2 7.2 7s-3.1 7-7.3 7c-4 0-7.1-3.1-7.1-7zm11.3 0c0-2.3-1.7-4.3-4.2-4.3s-4.1 2-4.1 4.3 1.7 4.3 4.1 4.3c2.7.1 4.2-1.9 4.2-4.3z"/><path fill="#e6e6e6" d="m269.5 159.1h3.1v3c.8-2 2.4-3.4 4.8-3.3v3.2h-.2c-2.7 0-4.6 1.7-4.6 5.4v5.1h-3.1z"/><path fill="#e6e6e6" d="m279.1 153.9h3.1v11.1l5.6-6h3.8l-5.4 5.5 5.5 8h-3.5l-4.1-5.8-1.9 2v3.9h-3.1z"/><path fill="#e6e6e6" d="m291.7 165.8c0-3.9 3.1-7 7.2-7 4.2 0 7.2 3.2 7.2 7s-3.1 7-7.3 7c-4 0-7.1-3.1-7.1-7zm11.3 0c0-2.3-1.7-4.3-4.2-4.3s-4.1 2-4.1 4.3 1.7 4.3 4.1 4.3c2.6.1 4.2-1.9 4.2-4.3z"/><path fill="#e6e6e6" d="m308.2 167.6v-8.6h3.1v7.6c0 2.1 1.1 3.3 2.9 3.3s3-1.3 3-3.3v-7.6h3.1v13.4h-3.1v-2.1c-.8 1.3-2.1 2.3-4.2 2.3-3.1.2-4.8-1.8-4.8-5z"/><path fill="#e6e6e6" d="m323.9 168.8v-7.1h-1.7v-2.6h1.7v-3.7h3.1v3.7h3.6v2.6h-3.6v6.6c0 1.2.6 1.7 1.7 1.7.7 0 1.3-.2 1.9-.5v2.5c-.8.5-1.7.7-2.8.7-2.3 0-3.9-.9-3.9-3.9z"/><path fill="#e6e6e6" d="m333.2 154.7h3.2v15h9.4v2.9h-12.5v-17.9z"/><path fill="#e6e6e6" d="m356 172.5v-1.7c-.9 1.1-2.3 2-4.4 2-2.6 0-4.8-1.4-4.8-4.2 0-3 2.3-4.4 5.4-4.4 1.7 0 2.6.2 3.7.5v-.2c0-1.9-1.2-2.9-3.3-2.9-1.5 0-2.6.3-3.9.8l-.8-2.5c1.5-.7 2.9-1.1 5.1-1.1 4 0 5.9 2.1 5.9 5.7v8zm.1-5.6c-.8-.3-1.9-.5-3.1-.5-2 0-3.1.8-3.1 2.1s1.1 2 2.6 2c2 0 3.5-1.1 3.5-2.9z"/><path fill="#e6e6e6" d="m364.9 170.5v2.1h-3.1v-18.7h3.1v7.4c1-1.4 2.4-2.5 4.5-2.5 3.2 0 6.3 2.5 6.3 7s-3.1 7-6.3 7c-2.1 0-3.5-1.1-4.5-2.3zm7.7-4.7c0-2.6-1.7-4.3-3.9-4.3s-3.9 1.7-3.9 4.4c0 2.6 1.8 4.3 3.9 4.3s3.9-1.7 3.9-4.4z"/><path fill="#e6e6e6" d="m376.9 170.8 1.4-2.1c1.4 1.1 3 1.7 4.4 1.7s2.1-.5 2.1-1.5-1.3-1.4-2.8-1.8c-.1 0-.2-.1-.2-.1-2-.6-4.2-1.4-4.2-4s2.1-4.1 4.8-4.1c1.7 0 3.5.6 5 1.5l-1.2 2.2c-1.3-.8-2.6-1.3-3.8-1.3s-1.9.5-1.9 1.4 1.3 1.4 2.8 1.8c.1 0 .2.1.2.1 2 .6 4.2 1.5 4.2 4 0 2.9-2.2 4.2-5 4.2-1.9 0-4-.7-5.8-2z"/><path fill="#e6e6e6" d="m505.6 163.6c0-5.1 4.1-9.2 9.3-9.2s9.2 4.2 9.2 9.2-4.1 9.2-9.3 9.2-9.2-4.1-9.2-9.2zm17.4-.1c0-4.5-3.5-8.2-8.2-8.2s-8.2 3.7-8.2 8.3c0 4.5 3.5 8.2 8.2 8.2s8.2-3.7 8.2-8.3zm-13.1 0c0-2.8 2.1-5.1 5.1-5.1 1.9 0 2.9.6 3.9 1.5l-1.4 1.7c-.8-.7-1.5-1.1-2.5-1.1-1.7 0-2.8 1.4-2.8 3.1s1.1 3 2.8 3c1.1 0 1.7-.5 2.5-1.1l1.4 1.4c-1.1 1.1-2.1 1.7-4 1.7-2.9 0-5-2.3-5-5.1z"/><path fill="#e6e6e6" d="m525.4 154.7h3.4l4.2 13.2 4.4-13.3h2.6l4.4 13.3 4.2-13.2h3.3l-6.2 18h-2.7l-4.4-12.8-4.4 12.8h-2.7z"/><path fill="#e6e6e6" d="m551.7 165.8c0-3.9 3.1-7 7.2-7 4.2 0 7.2 3.2 7.2 7s-3.1 7-7.3 7c-4.1 0-7.1-3.1-7.1-7zm11.2 0c0-2.3-1.7-4.3-4.2-4.3s-4.1 2-4.1 4.3 1.7 4.3 4.1 4.3c2.7.1 4.2-1.9 4.2-4.3z"/><path fill="#e6e6e6" d="m568.3 159.1h3.1v3c.8-2 2.4-3.4 4.8-3.3v3.2h-.2c-2.7 0-4.6 1.7-4.6 5.4v5.1h-3.1z"/><path fill="#e6e6e6" d="m577.9 153.9h3.1v11.1l5.6-6h3.8l-5.4 5.5 5.5 8h-3.5l-4.1-5.8-1.9 2v3.9h-3.1z"/><path fill="#e6e6e6" d="m590.6 165.8c0-3.9 3.1-7 7.2-7 4.2 0 7.2 3.2 7.2 7s-3.1 7-7.3 7c-4.1 0-7.1-3.1-7.1-7zm11.2 0c0-2.3-1.7-4.3-4.2-4.3s-4.1 2-4.1 4.3 1.7 4.3 4.1 4.3c2.6.1 4.2-1.9 4.2-4.3z"/><path fill="#e6e6e6" d="m607 167.6v-8.6h3.1v7.6c0 2.1 1.1 3.3 2.9 3.3s3-1.3 3-3.3v-7.6h3.1v13.4h-3.1v-2.1c-.8 1.3-2.1 2.3-4.2 2.3-3 .2-4.8-1.8-4.8-5z"/><path fill="#e6e6e6" d="m622.7 168.8v-7.1h-1.7v-2.6h1.7v-3.7h3.1v3.7h3.6v2.6h-3.6v6.6c0 1.2.6 1.7 1.7 1.7.7 0 1.3-.2 1.9-.5v2.5c-.8.5-1.7.7-2.8.7-2.3 0-3.9-.9-3.9-3.9z"/><path fill="#e6e6e6" d="m632 154.7h3.2v15h9.4v2.9h-12.6z"/><path fill="#e6e6e6" d="m654.8 172.5v-1.7c-.9 1.1-2.3 2-4.4 2-2.6 0-4.8-1.4-4.8-4.2 0-3 2.3-4.4 5.4-4.4 1.7 0 2.6.2 3.7.5v-.2c0-1.9-1.2-2.9-3.3-2.9-1.5 0-2.6.3-3.9.8l-.8-2.5c1.5-.7 2.9-1.1 5.1-1.1 4 0 5.9 2.1 5.9 5.7v8zm.1-5.6c-.8-.3-1.9-.5-3.1-.5-2 0-3.1.8-3.1 2.1s1.1 2 2.6 2c2 0 3.5-1.1 3.5-2.9z"/><path fill="#e6e6e6" d="m663.7 170.5v2.1h-3.1v-18.7h3.1v7.4c1-1.4 2.4-2.5 4.5-2.5 3.2 0 6.3 2.5 6.3 7s-3.1 7-6.3 7c-2.1 0-3.5-1.1-4.5-2.3zm7.8-4.7c0-2.6-1.7-4.3-3.9-4.3-2.1 0-3.9 1.7-3.9 4.4 0 2.6 1.8 4.3 3.9 4.3s3.9-1.7 3.9-4.4z"/><path fill="#e6e6e6" d="m675.8 170.8 1.4-2.1c1.4 1.1 3 1.7 4.4 1.7s2.1-.5 2.1-1.5-1.3-1.4-2.8-1.8c-.1 0-.2-.1-.2-.1-2-.6-4.2-1.4-4.2-4s2.1-4.1 4.8-4.1c1.7 0 3.5.6 5 1.5l-1.2 2.2c-1.3-.8-2.6-1.3-3.8-1.3s-1.9.5-1.9 1.4 1.3 1.4 2.8 1.8c.1 0 .2.1.2.1 2 .6 4.2 1.5 4.2 4 0 2.9-2.2 4.2-5 4.2-2 0-4.1-.7-5.8-2z"/><path fill="#e6e6e6" d="m61 298.6c0-5.1 4.1-9.2 9.3-9.2s9.2 4.2 9.2 9.2-4.1 9.2-9.3 9.2c-5.1 0-9.2-4.2-9.2-9.2zm17.4-.1c0-4.5-3.5-8.2-8.2-8.2s-8.2 3.7-8.2 8.3c0 4.5 3.5 8.2 8.2 8.2s8.2-3.7 8.2-8.3zm-13.1-.1c0-2.8 2.1-5.1 5.1-5.1 1.9 0 2.9.6 3.9 1.5l-1.4 1.7c-.8-.7-1.5-1.1-2.5-1.1-1.7 0-2.8 1.4-2.8 3.1s1.1 3 2.8 3c1.1 0 1.7-.5 2.5-1.1l1.4 1.4c-1.1 1.1-2.1 1.7-4 1.7-2.8.1-5-2.2-5-5.1z"/><path fill="#e6e6e6" d="m80.9 289.7h3.4l4.2 13.2 4.4-13.3h2.6l4.4 13.3 4.2-13.2h3.3l-6.2 18h-2.7l-4.4-12.8-4.4 12.8h-2.7z"/><path fill="#e6e6e6" d="m107.1 300.8c0-3.9 3.1-7 7.2-7s7.2 3.2 7.2 7-3.1 7-7.3 7c-4 0-7.1-3.1-7.1-7zm11.3 0c0-2.3-1.7-4.3-4.2-4.3s-4.1 2-4.1 4.3 1.7 4.3 4.1 4.3c2.6.1 4.2-1.9 4.2-4.3z"/><path fill="#e6e6e6" d="m123.7 294h3.1v3c.8-2 2.4-3.4 4.8-3.3v3.2h-.2c-2.7 0-4.6 1.7-4.6 5.4v5.1h-3.1z"/><path fill="#e6e6e6" d="m133.4 288.9h3.1v11.1l5.6-6h3.8l-5.4 5.5 5.5 8h-3.5l-4.1-5.8-1.9 1.9v3.9h-3.1z"/><path fill="#e6e6e6" d="m146 300.8c0-3.9 3.1-7 7.2-7s7.2 3.2 7.2 7-3.1 7-7.3 7c-4.1 0-7.1-3.1-7.1-7zm11.2 0c0-2.3-1.7-4.3-4.2-4.3s-4.1 2-4.1 4.3 1.7 4.3 4.1 4.3c2.6.1 4.2-1.9 4.2-4.3z"/><path fill="#e6e6e6" d="m162.4 302.6v-8.6h3.1v7.6c0 2.1 1.1 3.3 2.9 3.3s3-1.3 3-3.3v-7.6h3.1v13.4h-3.1v-2.1c-.8 1.3-2.1 2.3-4.2 2.3-3 .2-4.8-1.8-4.8-5z"/><path fill="#e6e6e6" d="m178.1 303.8v-7.1h-1.7v-2.7h1.7v-3.7h3.1v3.7h3.6v2.6h-3.6v6.6c0 1.2.6 1.7 1.7 1.7.7 0 1.3-.2 1.9-.5v2.5c-.8.5-1.7.7-2.8.7-2.3.1-3.9-.9-3.9-3.8z"/><path fill="#e6e6e6" d="m187.4 289.7h3.2v15h9.4v2.9h-12.5v-17.9z"/><path fill="#e6e6e6" d="m210.2 307.5v-1.7c-.9 1.1-2.3 2-4.4 2-2.6 0-4.8-1.4-4.8-4.2 0-3 2.3-4.4 5.4-4.4 1.7 0 2.6.2 3.7.5v-.2c0-1.9-1.2-2.9-3.3-2.9-1.5 0-2.6.3-3.9.8l-.8-2.5c1.5-.7 2.9-1.1 5.1-1.1 4 0 5.9 2.1 5.9 5.7v8zm.1-5.6c-.8-.3-1.9-.5-3.1-.5-2 0-3.1.8-3.1 2.1s1.1 2 2.6 2c2 0 3.5-1.1 3.5-2.9z"/><path fill="#e6e6e6" d="m219.2 305.5v2.1h-3.1v-18.7h3.1v7.4c1-1.4 2.4-2.5 4.5-2.5 3.2 0 6.3 2.5 6.3 7s-3.1 7-6.3 7c-2.2 0-3.6-1.1-4.5-2.3zm7.7-4.7c0-2.6-1.7-4.3-3.9-4.3s-3.9 1.7-3.9 4.4c0 2.6 1.8 4.3 3.9 4.3s3.9-1.7 3.9-4.4z"/><path fill="#e6e6e6" d="m231.2 305.8 1.4-2.1c1.4 1.1 3 1.7 4.4 1.7s2.1-.5 2.1-1.5-1.3-1.4-2.8-1.8c-.1 0-.2-.1-.2-.1-2-.6-4.2-1.4-4.2-4s2.1-4.1 4.8-4.1c1.7 0 3.5.6 5 1.5l-1.2 2.2c-1.3-.8-2.6-1.3-3.8-1.3s-1.9.5-1.9 1.4 1.3 1.4 2.8 1.8c.1 0 .2.1.2.1 2 .6 4.2 1.5 4.2 4 0 2.9-2.2 4.2-5 4.2-2 0-4.1-.7-5.8-2z"/><path fill="#e6e6e6" d="m360.6 298.6c0-5.1 4.1-9.2 9.3-9.2s9.2 4.2 9.2 9.2-4.1 9.2-9.3 9.2-9.2-4.2-9.2-9.2zm17.4-.1c0-4.5-3.5-8.2-8.2-8.2s-8.2 3.7-8.2 8.3c0 4.5 3.5 8.2 8.2 8.2s8.2-3.7 8.2-8.3zm-13.1-.1c0-2.8 2.1-5.1 5.1-5.1 1.9 0 2.9.6 3.9 1.5l-1.4 1.7c-.8-.7-1.5-1.1-2.5-1.1-1.7 0-2.8 1.4-2.8 3.1s1.1 3 2.8 3c1.1 0 1.7-.5 2.5-1.1l1.4 1.4c-1.1 1.1-2.1 1.7-4 1.7-2.8.1-5-2.2-5-5.1z"/><path fill="#e6e6e6" d="m380.5 289.7h3.4l4.2 13.2 4.4-13.3h2.6l4.4 13.3 4.2-13.2h3.3l-6.2 18h-2.7l-4.4-12.8-4.4 12.8h-2.7z"/><path fill="#e6e6e6" d="m406.7 300.8c0-3.9 3.1-7 7.2-7 4.2 0 7.2 3.2 7.2 7s-3.1 7-7.3 7c-4.1 0-7.1-3.1-7.1-7zm11.3 0c0-2.3-1.7-4.3-4.2-4.3s-4.1 2-4.1 4.3 1.7 4.3 4.1 4.3c2.7.1 4.2-1.9 4.2-4.3z"/><path fill="#e6e6e6" d="m423.3 294h3.1v3c.8-2 2.4-3.4 4.8-3.3v3.2h-.2c-2.7 0-4.6 1.7-4.6 5.4v5.1h-3.1z"/><path fill="#e6e6e6" d="m433 288.9h3.1v11.1l5.6-6h3.8l-5.4 5.5 5.5 8h-3.5l-4.1-5.8-1.9 2v3.9h-3.1z"/><path fill="#e6e6e6" d="m445.6 300.8c0-3.9 3.1-7 7.2-7 4.2 0 7.2 3.2 7.2 7s-3.1 7-7.3 7c-4.1 0-7.1-3.1-7.1-7zm11.3 0c0-2.3-1.7-4.3-4.2-4.3s-4.1 2-4.1 4.3 1.7 4.3 4.1 4.3c2.6.1 4.2-1.9 4.2-4.3z"/><path fill="#e6e6e6" d="m462.1 302.6v-8.6h3.1v7.6c0 2.1 1.1 3.3 2.9 3.3s3-1.3 3-3.3v-7.6h3.1v13.4h-3.1v-2.1c-.8 1.3-2.1 2.3-4.2 2.3-3.1.2-4.8-1.8-4.8-5z"/><path fill="#e6e6e6" d="m477.8 303.8v-7.1h-1.8v-2.7h1.7v-3.7h3.1v3.7h3.6v2.6h-3.6v6.6c0 1.2.6 1.7 1.7 1.7.7 0 1.3-.2 1.9-.5v2.5c-.8.5-1.7.7-2.8.7-2.2.1-3.8-.9-3.8-3.8z"/><path fill="#e6e6e6" d="m487.1 289.7h3.2v15h9.4v2.9h-12.5v-17.9z"/><path fill="#e6e6e6" d="m509.9 307.5v-1.7c-.9 1.1-2.3 2-4.4 2-2.6 0-4.8-1.4-4.8-4.2 0-3 2.3-4.4 5.4-4.4 1.7 0 2.6.2 3.7.5v-.2c0-1.9-1.2-2.9-3.3-2.9-1.5 0-2.6.3-3.9.8l-.8-2.5c1.5-.7 2.9-1.1 5.1-1.1 4 0 5.9 2.1 5.9 5.7v8zm.1-5.6c-.8-.3-1.9-.5-3.1-.5-2 0-3.1.8-3.1 2.1s1.1 2 2.6 2c2 0 3.5-1.1 3.5-2.9z"/><path fill="#e6e6e6" d="m518.8 305.5v2.1h-3.1v-18.7h3.1v7.4c1-1.4 2.4-2.5 4.5-2.5 3.2 0 6.3 2.5 6.3 7s-3.1 7-6.3 7c-2.2 0-3.5-1.1-4.5-2.3zm7.7-4.7c0-2.6-1.7-4.3-3.9-4.3s-3.9 1.7-3.9 4.4c0 2.6 1.8 4.3 3.9 4.3s3.9-1.7 3.9-4.4z"/><path fill="#e6e6e6" d="m530.8 305.8 1.4-2.1c1.4 1.1 3 1.7 4.4 1.7s2.1-.5 2.1-1.5-1.3-1.4-2.8-1.8c-.1 0-.2-.1-.2-.1-2-.6-4.2-1.4-4.2-4s2.1-4.1 4.8-4.1c1.7 0 3.5.6 5 1.5l-1.2 2.2c-1.3-.8-2.6-1.3-3.8-1.3s-1.9.5-1.9 1.4 1.3 1.4 2.8 1.8c.1 0 .2.1.2.1 2 .6 4.2 1.5 4.2 4 0 2.9-2.2 4.2-5 4.2-1.9 0-4.1-.7-5.8-2z"/><path fill="#e6e6e6" d="m659.5 298.6c0-5.1 4.1-9.2 9.3-9.2s9.2 4.2 9.2 9.2-4.1 9.2-9.3 9.2-9.2-4.2-9.2-9.2zm17.3-.1c0-4.5-3.5-8.2-8.2-8.2s-8.2 3.7-8.2 8.3c0 4.5 3.5 8.2 8.2 8.2 4.8 0 8.2-3.7 8.2-8.3zm-13-.1c0-2.8 2.1-5.1 5.1-5.1 1.9 0 2.9.6 3.9 1.5l-1.4 1.7c-.8-.7-1.5-1.1-2.5-1.1-1.7 0-2.8 1.4-2.8 3.1s1.1 3 2.8 3c1.1 0 1.7-.5 2.5-1.1l1.4 1.4c-1.1 1.1-2.1 1.7-4 1.7-2.9.1-5-2.2-5-5.1z"/><path fill="#e6e6e6" d="m679.3 289.7h3.4l4.2 13.2 4.4-13.3h2.6l4.4 13.3 4.2-13.2h3.3l-6.2 18h-2.6l-4.4-12.8-4.4 12.8h-2.7z"/><path fill="#e6e6e6" d="m705.5 300.8c0-3.9 3.1-7 7.2-7 4.2 0 7.2 3.2 7.2 7s-3.1 7-7.3 7c-4 0-7.1-3.1-7.1-7zm11.3 0c0-2.3-1.7-4.3-4.2-4.3s-4.1 2-4.1 4.3 1.7 4.3 4.1 4.3c2.7.1 4.2-1.9 4.2-4.3z"/><path fill="#e6e6e6" d="m722.1 294h3.1v3c.8-2 2.4-3.4 4.8-3.3v3.2h-.2c-2.7 0-4.6 1.7-4.6 5.4v5.1h-3.1z"/><path fill="#e6e6e6" d="m731.8 288.9h3.1v11.1l5.6-6h3.8l-5.4 5.5 5.5 8h-3.5l-4.1-5.8-1.9 2v3.9h-3.1z"/><path fill="#e6e6e6" d="m744.4 300.8c0-3.9 3.1-7 7.2-7 4.2 0 7.2 3.2 7.2 7s-3.1 7-7.3 7c-4.1 0-7.1-3.1-7.1-7zm11.3 0c0-2.3-1.7-4.3-4.2-4.3s-4.1 2-4.1 4.3 1.7 4.3 4.1 4.3c2.6.1 4.2-1.9 4.2-4.3z"/><path fill="#e6e6e6" d="m760.9 302.6v-8.6h3.1v7.6c0 2.1 1.1 3.3 2.9 3.3s3-1.3 3-3.3v-7.6h3.1v13.4h-3.1v-2.1c-.8 1.3-2.1 2.3-4.2 2.3-3.1.2-4.8-1.8-4.8-5z"/><path fill="#e6e6e6" d="m776.6 303.8v-7.1h-1.7v-2.7h1.7v-3.7h3.1v3.7h3.6v2.6h-3.6v6.6c0 1.2.6 1.7 1.7 1.7.7 0 1.3-.2 1.9-.5v2.5c-.8.5-1.7.7-2.8.7-2.3.1-3.9-.9-3.9-3.8z"/><path fill="#e6e6e6" d="m785.9 289.7h3.2v15h9.4v2.9h-12.5v-17.9z"/><path fill="#e6e6e6" d="m808.7 307.5v-1.7c-.9 1.1-2.3 2-4.4 2-2.6 0-4.8-1.4-4.8-4.2 0-3 2.3-4.4 5.4-4.4 1.7 0 2.6.2 3.7.5v-.2c0-1.9-1.2-2.9-3.3-2.9-1.5 0-2.6.3-3.9.8l-.8-2.5c1.5-.7 2.9-1.1 5.1-1.1 4 0 5.9 2.1 5.9 5.7v8zm.1-5.6c-.8-.3-1.9-.5-3.1-.5-2 0-3.1.8-3.1 2.1s1.1 2 2.6 2c2 0 3.5-1.1 3.5-2.9z"/><path fill="#e6e6e6" d="m817.6 305.5v2.1h-3.1v-18.7h3.1v7.4c1-1.4 2.4-2.5 4.5-2.5 3.2 0 6.3 2.5 6.3 7s-3.1 7-6.3 7c-2.1 0-3.5-1.1-4.5-2.3zm7.7-4.7c0-2.6-1.7-4.3-3.9-4.3-2.1 0-3.9 1.7-3.9 4.4 0 2.6 1.8 4.3 3.9 4.3 2.2 0 3.9-1.7 3.9-4.4z"/><path fill="#e6e6e6" d="m829.6 305.8 1.4-2.1c1.4 1.1 3 1.7 4.4 1.7s2.1-.5 2.1-1.5-1.3-1.4-2.8-1.8c-.1 0-.2-.1-.2-.1-2-.6-4.2-1.4-4.2-4s2.1-4.1 4.8-4.1c1.7 0 3.5.6 5 1.5l-1.2 2.2c-1.3-.8-2.6-1.3-3.8-1.3s-1.9.5-1.9 1.4 1.3 1.4 2.8 1.8c.1 0 .2.1.2.1 2 .6 4.2 1.5 4.2 4 0 2.9-2.2 4.2-5 4.2-1.9 0-4-.7-5.8-2z"/><path fill="#e6e6e6" d="m206.3 434.2c0-5.1 4.1-9.2 9.3-9.2s9.2 4.2 9.2 9.2-4.1 9.2-9.3 9.2-9.2-4.1-9.2-9.2zm17.4-.1c0-4.5-3.5-8.2-8.2-8.2s-8.2 3.7-8.2 8.3c0 4.5 3.5 8.2 8.2 8.2s8.2-3.7 8.2-8.3zm-13.1-.1c0-2.8 2.1-5.1 5.1-5.1 1.9 0 2.9.6 3.9 1.5l-1.4 1.7c-.8-.7-1.5-1.1-2.5-1.1-1.7 0-2.8 1.4-2.8 3.1s1.1 3 2.8 3c1.1 0 1.7-.5 2.5-1.1l1.4 1.4c-1.1 1.1-2.1 1.7-4 1.7-2.9.1-5-2.2-5-5.1z"/><path fill="#e6e6e6" d="m226.1 425.3h3.4l4.2 13.2 4.4-13.3h2.6l4.4 13.3 4.2-13.2h3.3l-6.2 18h-2.7l-4.4-12.8-4.4 12.8h-2.7z"/><path fill="#e6e6e6" d="m252.4 436.4c0-3.9 3.1-7 7.2-7 4.2 0 7.2 3.2 7.2 7s-3.1 7-7.3 7c-4.1 0-7.1-3.1-7.1-7zm11.2 0c0-2.3-1.7-4.3-4.2-4.3s-4.1 2-4.1 4.3 1.7 4.3 4.1 4.3c2.7.1 4.2-1.9 4.2-4.3z"/><path fill="#e6e6e6" d="m269 429.7h3.1v3c.8-2 2.4-3.4 4.8-3.3v3.2h-.2c-2.7 0-4.6 1.7-4.6 5.4v5.1h-3.1z"/><path fill="#e6e6e6" d="m278.6 424.5h3.1v11.1l5.6-6h3.8l-5.4 5.5 5.5 8h-3.5l-4.1-5.8-1.9 2v3.9h-3.1z"/><path fill="#e6e6e6" d="m291.3 436.4c0-3.9 3.1-7 7.2-7 4.2 0 7.2 3.2 7.2 7s-3.1 7-7.3 7c-4.1 0-7.1-3.1-7.1-7zm11.2 0c0-2.3-1.7-4.3-4.2-4.3s-4.1 2-4.1 4.3 1.7 4.3 4.1 4.3c2.6.1 4.2-1.9 4.2-4.3z"/><path fill="#e6e6e6" d="m307.7 438.2v-8.6h3.1v7.6c0 2.1 1.1 3.3 2.9 3.3s3-1.3 3-3.3v-7.6h3.1v13.4h-3.1v-2.1c-.8 1.3-2.1 2.3-4.2 2.3-3 .2-4.8-1.8-4.8-5z"/><path fill="#e6e6e6" d="m323.4 439.4v-7.1h-1.7v-2.6h1.7v-3.7h3.1v3.7h3.6v2.6h-3.6v6.6c0 1.2.6 1.7 1.7 1.7.7 0 1.3-.2 1.9-.5v2.5c-.8.5-1.7.7-2.8.7-2.3 0-3.9-.9-3.9-3.9z"/><path fill="#e6e6e6" d="m332.7 425.3h3.2v15h9.4v2.9h-12.5v-17.9z"/><path fill="#e6e6e6" d="m355.5 443.1v-1.7c-.9 1.1-2.3 2-4.4 2-2.6 0-4.8-1.4-4.8-4.2 0-3 2.3-4.4 5.4-4.4 1.7 0 2.6.2 3.7.5v-.2c0-1.9-1.2-2.9-3.3-2.9-1.5 0-2.6.3-3.9.8l-.8-2.5c1.5-.7 2.9-1.1 5.1-1.1 4 0 5.9 2.1 5.9 5.7v8zm.1-5.6c-.8-.3-1.9-.5-3.1-.5-2 0-3.1.8-3.1 2.1s1.1 2 2.6 2c2 0 3.5-1.1 3.5-2.9z"/><path fill="#e6e6e6" d="m364.4 441.1v2.1h-3.1v-18.7h3.1v7.4c1-1.4 2.4-2.5 4.5-2.5 3.2 0 6.3 2.5 6.3 7s-3.1 7-6.3 7c-2.1 0-3.5-1.1-4.5-2.3zm7.7-4.7c0-2.6-1.7-4.3-3.9-4.3-2.1 0-3.9 1.7-3.9 4.4 0 2.6 1.8 4.3 3.9 4.3 2.2 0 3.9-1.7 3.9-4.4z"/><path fill="#e6e6e6" d="m376.5 441.4 1.4-2.1c1.4 1.1 3 1.7 4.4 1.7s2.1-.5 2.1-1.5-1.3-1.4-2.8-1.8c-.1 0-.2-.1-.2-.1-2-.6-4.2-1.4-4.2-4s2.1-4.1 4.8-4.1c1.7 0 3.5.6 5 1.5l-1.2 2.2c-1.3-.8-2.6-1.3-3.8-1.3s-1.9.5-1.9 1.4 1.3 1.4 2.8 1.8c.1 0 .2.1.2.1 2 .6 4.2 1.5 4.2 4 0 2.9-2.2 4.2-5 4.2-2 0-4.1-.7-5.8-2z"/><path fill="#e6e6e6" d="m505.1 434.2c0-5.1 4.1-9.2 9.3-9.2s9.2 4.2 9.2 9.2-4.1 9.2-9.3 9.2-9.2-4.1-9.2-9.2zm17.4-.1c0-4.5-3.5-8.2-8.2-8.2s-8.2 3.7-8.2 8.3c0 4.5 3.5 8.2 8.2 8.2s8.2-3.7 8.2-8.3zm-13.1-.1c0-2.8 2.1-5.1 5.1-5.1 1.9 0 2.9.6 3.9 1.5l-1.4 1.7c-.8-.7-1.5-1.1-2.5-1.1-1.7 0-2.8 1.4-2.8 3.1s1.1 3 2.8 3c1.1 0 1.7-.5 2.5-1.1l1.4 1.4c-1.1 1.1-2.1 1.7-4 1.7-2.9.1-5-2.2-5-5.1z"/><path fill="#e6e6e6" d="m525 425.3h3.4l4.2 13.2 4.4-13.3h2.6l4.4 13.3 4.2-13.2h3.3l-6.2 18h-2.7l-4.4-12.8-4.4 12.8h-2.7z"/><path fill="#e6e6e6" d="m551.2 436.4c0-3.9 3.1-7 7.2-7 4.2 0 7.2 3.2 7.2 7s-3.1 7-7.3 7c-4.1 0-7.1-3.1-7.1-7zm11.2 0c0-2.3-1.7-4.3-4.2-4.3s-4.1 2-4.1 4.3 1.7 4.3 4.1 4.3c2.7.1 4.2-1.9 4.2-4.3z"/><path fill="#e6e6e6" d="m567.8 429.7h3.1v3c.8-2 2.4-3.4 4.8-3.3v3.2h-.2c-2.7 0-4.6 1.7-4.6 5.4v5.1h-3.1z"/><path fill="#e6e6e6" d="m577.5 424.5h3.1v11.1l5.6-6h3.8l-5.4 5.5 5.5 8h-3.5l-4.1-5.8-1.9 2v3.9h-3.1z"/><path fill="#e6e6e6" d="m590.1 436.4c0-3.9 3.1-7 7.2-7 4.2 0 7.2 3.2 7.2 7s-3.1 7-7.3 7c-4.1 0-7.1-3.1-7.1-7zm11.2 0c0-2.3-1.7-4.3-4.2-4.3s-4.1 2-4.1 4.3 1.7 4.3 4.1 4.3c2.6.1 4.2-1.9 4.2-4.3z"/><path fill="#e6e6e6" d="m606.5 438.2v-8.6h3.1v7.6c0 2.1 1.1 3.3 2.9 3.3s3-1.3 3-3.3v-7.6h3.1v13.4h-3.1v-2.1c-.8 1.3-2.1 2.3-4.2 2.3-3 .2-4.8-1.8-4.8-5z"/><path fill="#e6e6e6" d="m622.2 439.4v-7.1h-1.7v-2.6h1.7v-3.7h3.1v3.7h3.6v2.6h-3.6v6.6c0 1.2.6 1.7 1.7 1.7.7 0 1.3-.2 1.9-.5v2.5c-.8.5-1.7.7-2.8.7-2.3 0-3.9-.9-3.9-3.9z"/><path fill="#e6e6e6" d="m631.5 425.3h3.2v15h9.4v2.9h-12.5v-17.9z"/><path fill="#e6e6e6" d="m654.3 443.1v-1.7c-.9 1.1-2.3 2-4.4 2-2.6 0-4.8-1.4-4.8-4.2 0-3 2.3-4.4 5.4-4.4 1.7 0 2.6.2 3.7.5v-.2c0-1.9-1.2-2.9-3.3-2.9-1.5 0-2.6.3-3.9.8l-.8-2.5c1.5-.7 2.9-1.1 5.1-1.1 4 0 5.9 2.1 5.9 5.7v8zm.1-5.6c-.8-.3-1.9-.5-3.1-.5-2 0-3.1.8-3.1 2.1s1.1 2 2.6 2c2 0 3.5-1.1 3.5-2.9z"/><path fill="#e6e6e6" d="m663.3 441.1v2.1h-3.1v-18.7h3.1v7.4c1-1.4 2.4-2.5 4.5-2.5 3.2 0 6.3 2.5 6.3 7s-3.1 7-6.3 7c-2.2 0-3.6-1.1-4.5-2.3zm7.7-4.7c0-2.6-1.7-4.3-3.9-4.3s-3.9 1.7-3.9 4.4c0 2.6 1.8 4.3 3.9 4.3s3.9-1.7 3.9-4.4z"/><path fill="#e6e6e6" d="m675.3 441.4 1.4-2.1c1.4 1.1 3 1.7 4.4 1.7s2.1-.5 2.1-1.5-1.3-1.4-2.8-1.8c-.1 0-.2-.1-.2-.1-2-.6-4.2-1.4-4.2-4s2.1-4.1 4.8-4.1c1.7 0 3.5.6 5 1.5l-1.2 2.2c-1.3-.8-2.6-1.3-3.8-1.3s-1.9.5-1.9 1.4 1.3 1.4 2.8 1.8c.1 0 .2.1.2.1 2 .6 4.2 1.5 4.2 4 0 2.9-2.2 4.2-5 4.2-2 0-4.1-.7-5.8-2z"/></g>
</svg>
