<?xml version="1.0" encoding="utf-8"?>
<!-- Generator: Adobe Illustrator 23.0.1, SVG Export Plug-In . SVG Version: 6.00 Build 0)  -->
<svg version="1.2" baseProfile="tiny" id="Layer_1" xmlns="http://www.w3.org/2000/svg" xmlns:xlink="http://www.w3.org/1999/xlink"
	 x="0px" y="0px" viewBox="0 0 900 600" xml:space="preserve">
<g>
	<path d="M227.34,373.9l0.1-0.1C227.32,373.63,227.38,373.65,227.34,373.9z"/>
	<path d="M185.74,233.85l0.1-0.1C185.3,233.75,185.37,233.69,185.74,233.85z"/>
	<path d="M280.99,272.06c3.77-15.06,5.85-13.44,7.72-27.8c2.74-21.03-1.71-10.61,2.06-23.89c2.01-7.08-2.65-7.9-2.99-13.08
		c-0.52-8.08-1.49-6.42-0.1-11.43c5.31-19.22-2.98-19-2.57-31.82c0.17-5.47-0.26-10.19,0.21-11.95c2.34-8.86-4.11-23.59-20.18-31.92
		c-1.44-0.48-2.26,0.95-7.11-2.06c-6.73-4.18-9.25-2.29-15.65-9.37c-3.57-4.76-5.91-2.04-4.12-7.41c1.07-4.3,4.82-0.61,6.18-6.18
		c1.78-7.25,2.56-4.59,4.02-11.64c0.95-4.57-0.04-6.93,1.96-11.02c1.2-2.47,0.92-7.56-1.34-11.33c0,14.62-1.51,6.17-1.85,16.89
		c-0.26,7.95-2.56,10.11-3.5,14.11c-2.44,10.35-15.18,3.06-15.55,6.38c2.06,2.27,5.25,0.51,7.83,1.85c0,5.5-1.71,3.55-0.21,16.37
		c0,0.21,0.41,0.41,0.82,0.82c0.21-1.54,1.64-2.37,1.54-3.81c-0.11-1.54-0.21-2.99-0.31-4.74c5.88,2.67,8.12,34.29,1.03,40.57
		c-2.88,2.55-7.36,4.85-11.02,4.12c0-15.57-1.7-0.69-2.27,0c-8.37-3.35-15.09-4.32-18.64-14.62c-1.16-4.06-1.37-0.48-2.99-6.28
		c-7.28-26.2-9.37-24.74-9.37-30.28c8.45-5.63,10.71,4.14,10.71-29.56c0.41-0.51,0.82-0.93,1.34-1.54c-1.65-0.72-3.6-0.82-3.4-2.99
		c2.93-0.73,2.21,0.85,3.36-6.31c1.29,1.53,1.69,3.36,1.79,5.8c1.42-1.63,1.41-0.12,4.43-9.17c1.81-5.42,1.38-2.65,4.94-9.06
		c1.36-2.46,0.49-3.91,4.74-3.91c-0.21-1.85,2.37-1.24,2.47-2.99c-2.55-5.73-2.73-1.95-4.89-4.18c0.05-0.02,1.25-1.54,1.29-1.59
		c7.88,3.5,5.27,6.49,6.8,2.68c9.02-1.96,13.48,1.7,17.71-0.41c2.56-1.28,1.81,2.47,2.37,6.18c0.96,6.39,2.66,3.61,1.34,8.24
		c-4.46,1.91-8.63,3.13-8.14,8.03c0,3.29,1.1,0.17,1.75-1.13c2.37,0.82,4.22-0.21,6.38-0.82c0.72-2.78,1.34-5.56,2.06-8.14
		c-2.16-4.43-1.85-9.17-2.47-13.59c1.75-3.09,5.35-3.71,7.52-6.08c0-1.24,0-2.47,0-3.91c-6.41-0.46-5.6,0.44-1.85-2.37
		c0.97-0.97-0.45-1.84-0.72-1.75c-1.44,0.31-2.88,0.72-4.33,1.13c-0.51-1.85,0.93-4.22-0.82-6.28c-2.33,2.07-2.94,3.39-4.12,2.88
		c-0.61-0.49-1.14-1.81-3.6-1.13c-12.32,3.38,0.94,0.73-20.29,1.34c-2.93,3.25-2.29,2.57-3.71,2.57c0.1-1.03,0.62-2.16-1.13-2.37
		c-2.16,2.99-5.25,4.53-9.17,4.74c-2.85-2.85-3.43-2.54-5.35-2.37c-0.1,0-0.21,0.41-0.41,0.72c1.51,2.02,1.54,1.51,2.06,1.85
		c-0.1,0.51,0,1.13-0.31,1.34c-0.93,0.62-1.34,1.24-1.34,2.37c0,0.51-0.72,1.03-0.82,1.54c-0.66,1.63,1.28,1.54-1.65,1.54
		c1.13,1.75-0.72,2.88-0.51,4.43c-1.54,1.13-1.64,2.88-1.96,4.63c-0.65,3.66-4.9,9-0.51,17.2c2.38,3.87-0.78,4.01,0.93,7.41
		c3.97,7.95,1.84,10.46,4.02,13.9c2.12,3.36-0.12,9.54-1.13,12.36c-1.16,3.25-3.07,2.89-7.52,5.56c-5.01,3.01-5.59,1.95-8.65,3.5
		c-13.66,6.91-14.79,8.5-18.95,9.89c-6.69,2.23-17.03,9.19-18.43,17.2c-1.15,6.58-3,10.33-2.57,15.86c0,1.21-0.49,4.8-0.1,5.87
		c2.64,7.31-6.81,10.96-1.44,35.22c1.97,8.9,4.61,8.45,5.05,11.53c2.5,17.53-1.18,9.29,2.47,29.76c0.28,1.59-0.57,14.64,5.87,27.29
		c5.82,11.43,13.46,21.78,8.55,29.97c-1.42-1.42-2.32-4.07-6.08-4.33c-2.58-0.17-6.78,0.69-8.14,3.4
		c-4.44,7.1-4.08,58.32,7.41,62.92c0.28,15.12-3.33,15.57,0,37.69c0.61,4.07-0.56,2.82-1.34,5.15c-0.61,3.79-2.09,12.51,1.03,10.81
		c1.74-0.94,3.4-0.41,5.25-0.21c0.23,3.47,0.01,10.14,2.57,18.54c2.67,8.75-6.96,15.07-8.86,37.48c-2.38,28.06,4.1,31.32,7.93,84.96
		c0,2.98,0.57,5,1.13,7.62c-1.03,1.85-2.24,4.42-1.85,6.49c0.83,4.41-3.2,8.76-0.82,13.18c0.65,1.2,0.14,2.35-0.62,4.63
		c5.58-2.89,1.28-4.61,2.27-9.68c0.32-1.65,0.62-3.4,0-5.15c-0.31-0.72,0.31-1.85,0.41-2.78c1.75,0,1.97,2.06,4.12,1.44
		c3.22-0.93,4.02-2.7,4.02-4.94c0.42-7.5-2.51-5.57,11.84-8.44c2.17,4.33,4.14-4.49,1.85,7.52c-1.53,8.03,0.05,6.18-9.17,7.31
		c-0.55,0.07-3.4,0.17-3.4,1.24c-0.73,5.09,0.04,5.09,1.03,7.31c5.91,1.97,13.18,1.25,14.52,1.44c0.31,0,0.51,0.62,0.93,1.24
		c-3.24,0.34-20.02-2.98-10.81,2.78c-0.59,1.98-1.34,3.5-0.41,3.81c3.17,1.81,8.82,2.33,12.46,1.75c3.64-0.58,1.44,0.1,6.38,9.68
		c0.21-0.21,0.41-0.51,0.72-0.72c5.7,11.4-0.52,7.23-6.28,8.75c-4.74,1.26-12.86,1.5-17.51,0.1c-10.44-3.13-5.94-2.23-7.62-5.46
		c-5.35-10.3-7.49-3.3-5.77-17.09c-7.29,7.01,0.83,13.93,3.09,16.48c1.26,1.68-0.5,4.18,3.81,6.28c12.67,6.17,33.31,2.49,35.12-0.52
		c-4.96-17.01,1.01,3.41-14.83-34.6c2.16-0.27,0.87-1.68,0.1-2.06c-3.3-2.12,0.82-7.01,0.51-8.24c-1.21-3.22,2.36-5.36-2.57-10.3
		c-1.24-0.1-2.37-0.1-3.4-0.21c-0.51-2.99-0.95-5.67-0.51-8.44c3.09-19.61,2.63-21.28,4.63-25.75c3.92-8.72,2.8-12.89,5.25-19.15
		c4.83-12.31,1.77-30.51,1.34-48.09c-0.02-0.8-1.54-0.38-1.54,1.03c0,5.9,3.63,40.51-5.35,58.49c-4.37,14.2-2.86,11.85-4.22,12.87
		c-1.46-8.78,1.41-23.35-0.93-24.41c-3.05,20.31,0.87,11.11-0.62,29.86c-1.84,23.13,1.88,24.2-0.62,24.2
		c-13.4,1.49-6.52,3.06-9.06-5.66c-1.29,4.18,1.33,8.92-5.77,8.03c-0.15-1.32-1.03-20.7-1.65-23.48
		c-14.31-64.32-3.61-63.87-5.46-70.75c6.07-21.26,7.52-15.86,7.52-33.37c0-13.14-4.67-11.93,0.31-15.24
		c19.86-0.84,26.09-0.58,33.16-2.16c5.66-1.26,3.55,0.72,2.78,4.84c-1.37,7.33-4.15,8.97-3.3,12.98c0.24,1.11-1.58,2.86-2.97,14.89
		c1.66-0.53,3.53-7.41,3.58-11.7c0.1-8.06,2.12-4.24,6.8-20.08c4.46-3.29,7.02-1.07,7.93-3.91c0.43-1.33,1.85-1.44,2.57-2.57
		c0.57-4.17,1.16-11.76,3.71-14.31c0.79,15.87-0.71,18.54,3.09,19.05c1.04,0.08,4.35-0.2,4.33,1.44c-0.11,6,2.65,18.63,3.19,19.57
		c4.85,8.4,0.37,29.58-0.51,37.79c-0.7,6.44,0.85,10.47,5.15,32.44c10.97,56.06,4.62,42.98,7.72,46.86
		c6.25-9.93-8.29-54.3-9.78-67.76c-2.06-18.5,2.77-33.95,2.06-40.06c-2.62-22.59-9.76-25.19-3.5-29.66
		c1.85,2.32,1.85,0.68,13.39,2.88c6.53,1.25,7.29,1.07,20.18,0.21c0.93,0.41,1.24,1.65,2.47,1.54c-0.34-0.69,0.67,0.41,1.13-0.51
		c0,0.1,0.21,0.41,0.1,0.51c-2.1,4.21,1.12-3.93-2.16,4.33c-1.83,4.59,0.16,10-1.44,14.42c-2.52,6.94-2.53,5.75-0.93,8.96
		c-2.47,1.85-2.06,4.33-1.44,6.9c2.26-7.34,1.93-6.83,5.35,18.12c0.9,6.52,0.18,9.36-0.82,18.23c-6.65,58.42-1.82,62.1-6.08,58.7
		c-3.4,1.03-6.9,1.44-10.61,1.96c-0.41-3.3,0.1-6.49-0.62-9.47c-1.93,0.64-0.76,6.78-1.44,9.78c-4.53,2.26-4.23,1.5-3.81,4.84
		c-2.56,2.56-4.64,4.12-3.6,8.44c0.79,3.29-1.18,5.29-3.19,11.02c-1.55,4.41,0.92,5.22-1.96,8.86c-1.48,1.87,0.18,4.21,1.96,5.77
		c3.77,3.31,2.32,3.72,4.43,4.33c11.65,4.66,12.36,1.21,16.58,4.12c0.61,1.54,0.76,5.81,5.87,6.9c9.22,3.07,19.68,0.34,20.49,0.21
		c5.15-0.83,5.35-1.03,8.65-5.25c1.78-0.59,1.91-0.25,2.47-0.51c3.48-1.64-0.08-8.94-2.78-11.33c-3.26-2.88-11.05-12.56-11.12-12.67
		c-4.3-6-8.91-5.02-11.84-21.63c-1.44-0.21-2.88-0.41-4.33-0.72c-1.07-10.67-0.93-8.33-0.93-10.61c0-0.1,3.18-43.76,3.19-43.87
		c1.45-10.44,2.77-15.34,2.27-21.63c-2.42-29.94-4.13-26.65-4.74-33.37c4.85-3.03-1.74-7.23,5.35-26.16c9.09,0,9.37,1.11,9.47-3.5
		c0.5-21.44,1.15-13.32-1.44-47.89c0-2.43-1.58-5.58-1.85-7.93c-1.05-8.97-1.99-9.88-2.47-15.14
		c30.12,22.59,45.08-26.75,25.54-48.19C293.18,269.6,281.97,273.17,280.99,272.06z M235.68,112.75c-0.23,0,0,0.18,0-0.93
		C235.92,111.82,235.68,111.64,235.68,112.75z M247.73,57.76c-0.88,0.88-2-0.72-1.03-0.72C247.17,57.15,248.08,57.4,247.73,57.76z
		 M251.34,32.32c-0.31-0.82-0.41-1.54-0.62-2.06C252.82,28.16,254.57,30.43,251.34,32.32z M245.77,23.77c0-0.48,1.09-0.12,0.82,0.41
		c-0.78,1.96-0.91,1.5-1.44,1.24C245.36,24.9,245.57,24.29,245.77,23.77z M243.1,36.85c0.1,0,0.1,0.1,0.1,0.21
		c-0.1,0.1-0.21,0.1-0.31,0.21C242.89,36.81,242.54,36.85,243.1,36.85z M230.53,34.89c-1.55,0-0.59-1.52-0.21-1.13
		c0.31,0.21,0.51,0.51,0.82,0.72C230.95,34.69,230.74,34.89,230.53,34.89z M238.46,35.31c0.31,0,0.31,0.31,0.21,0.31
		C238.15,35.61,238.46,35.7,238.46,35.31z M236.4,27.07c0.14,0,0.19,0.31-0.21,0.31C235.85,27.03,236.28,27.07,236.4,27.07z
		 M236.09,30.26c0.21,0.31-0.51,0.93-0.82,0.72c-0.1-0.1-0.1-0.21-0.21-0.31C235.39,30.56,236.09,29.71,236.09,30.26z M234.55,35.92
		c0.89-0.2,1.59-0.09,2.18,0.55c-2.74,0.4-1.27-0.85-3.52-0.85C234.03,35,234.45,35.1,234.55,35.92z M232.28,32.63
		c0.29-0.29,0.41-0.12,0.41,0.41C231.96,33.41,232.1,32.99,232.28,32.63z M231.46,26.45c-0.31,1.44-1.65,1.65-2.88,2.99
		C228.6,29.29,228.73,24.63,231.46,26.45z M225.18,28.82c0.13,0.39,0.17,0.31-0.1,0.31L225.18,28.82z M223.53,24.7
		c0.11,0.11,0.37,0.41,0,0.41C222.8,25.11,222.8,24.7,223.53,24.7z M219.62,39.01c0.37-0.18,0.41-0.58,0.41,0.1
		c0,0.1-0.31,0.1-0.41,0.21C219.62,39.22,219.62,39.12,219.62,39.01z M217.25,44.99c-0.76,1.51-0.65,1.22-1.44,0.82
		c0.1-0.72,0.21-1.44,0.1-1.96C217.35,43.85,217.76,44.16,217.25,44.99z M214.16,28.92c-0.31,0.1-0.82,0-1.34,0
		C214.4,26.81,215.46,28.05,214.16,28.92z M216.53,33.56c-1.24,2.88-2.16,3.81-4.12,4.22C213.44,35.82,213.44,35.82,216.53,33.56z
		 M210.97,49.52c0.82,1.03-0.1,1.44-0.72,2.06C209.22,50.44,209.22,50.44,210.97,49.52z M209.7,59.93
		c-0.11,0.21-0.24,0.48-0.28,0.61C209.02,59.94,209.4,60.01,209.7,59.93z M208.8,63.32c-0.1,0-0.21,0.1-0.21,0.21
		C208.14,63.07,208.8,63.08,208.8,63.32z M196.55,48.08c0.13-0.39,0.07-0.41,0.21,0H196.55z M203.55,47.77
		c0.1,1.54,0.1,1.54-0.62,3.6C202.21,48.9,202.21,48.9,203.55,47.77z M203.45,65.89c-0.39-0.39-0.14-0.38,0-0.51
		C203.84,65.77,203.45,65.64,203.45,65.89z M203.76,58.89c-0.48-1.44,2.78-2.54,2.78,2.93C205.24,61.22,204.16,60.39,203.76,58.89z
		 M205.71,48.59l-0.1,0.21C205.61,48.55,205.58,48.59,205.71,48.59z M206.64,50.03c0.21-0.21,0.21-0.72,0.41-0.82
		C208.01,48.26,209.6,50.03,206.64,50.03z M206.54,28.1c-0.17,0.69-0.03,0.9-1.34-0.41C205.92,27.89,206.23,27.99,206.54,28.1z
		 M201.9,34.79c-1.32-1-1.66-0.71,1.75-1.85c2.42,2.91,0.29,2.2,4.12,1.65c1.09,1.23-0.51,2.32-1.03,2.06
		c-1.76-0.91-3.29-0.92-4.94,0.21C199.75,38.24,200.59,36.54,201.9,34.79z M200.15,69.29c0-0.21,0.41-0.21,0.41,0
		C200.46,69.29,200.26,69.29,200.15,69.29z M201.29,63.73c-0.62,1.55,0.34,3.55-2.27-0.62c-0.84-1.35,0.73-3.6,2.47-1.85
		C202.81,62.57,201.8,62.43,201.29,63.73z M181.41,561.53c1.54-0.31,3.09-0.62,4.74,0.21C184.5,562.36,182.96,561.53,181.41,561.53z
		 M192.74,576.57c-0.53,0.53-3.76-0.41-0.41-0.41C192.43,576.16,192.64,576.47,192.74,576.57z M191.61,573.48
		c-0.48,1.2-3.02-0.62-0.21-0.62C191.5,572.86,191.71,573.38,191.61,573.48z M166.27,549.38c-0.54-2.41,1.52-3.3,4.02-3.3
		c2.74,6.1-3.09,13.57-5.05,5.77C165.24,550.62,166.58,550.41,166.27,549.38z M247.22,538.16c6.99-1.75,16.37-2.94,16.37-2.16
		c1.34,5.36-15.76-1.99-10.3,7.11c1.58,1.98,1.41,1.02,0,5.25c-4.55,0-6.9,0.75-6.9-4.02C243.66,543.43,245.81,543.32,247.22,538.16
		z M295.2,582.54c-0.27-0.13-0.26-0.08,0-0.21V582.54z M282.54,563.8c-1.85,0.51-3.09-0.72-4.63-0.93
		C280.63,561.31,280.03,561.29,282.54,563.8z M277.29,559.06c0.39,0.13,0.41,0.07,0,0.21V559.06z M271,549.9
		c0.71,0,0.88,0.96-0.62,0.21C270.59,550.1,270.9,549.9,271,549.9z M267.5,540.32c1.75,2.16,1.13,4.74,2.37,7.31
		c-3.4-0.41-6.28-1.75-9.17,1.03c0,2.72,1.47,2.16-4.12,2.16c-1.45,2.69,0.05,2.13,4.12,3.3c-0.89,0.51-2.61,1.1-2.27,2.47
		c0.3,1.21,2.19,1.03,4.02,1.03c4.19,0,1.7-0.2,2.16,1.85c0.3,1.32,1.5,1.54,3.4,1.54c4.95-0.45,4.58-1.59,1.03,1.96
		c-0.52,1.04,0.35,1.65,1.03,1.65c1.03-0.1,1.96-0.41,3.09-0.72c0.7,1.05,1.17,2.76,6.8,2.27c4.5-0.39,1.65-2.57,9.06,5.77
		c2.62,2.95,5.37,4.12,6.08,8.86c-1.55,1.55-3.46,4.19-6.49,4.74c-37.9,6.8-20.53-5.89-31.92-7.21c-3.53,0-3.9,0.21-9.68-1.24
		c-5.14-1.28-8.62-6.42-8.96-7.52c1.17-2.34,2.22-3.83,1.75-6.38c-0.94-5.12,2.96-4.29,3.91-12.15c0.8-6.63,0.13,1.04,6.18,0.41
		c4.02-0.42,4.74-1.03,5.77-5.05C256.82,540.59,245.2,540.91,267.5,540.32z M263.28,550.31c0-0.27-0.33-0.21,2.16-0.21
		C265.44,550.38,265.77,550.31,263.28,550.31z M249.28,116.87c10.15,6.48,15.84,2.46,25.64,13.8c13.29,15.36,2.99,27.71,8.34,43.15
		c3.16,9.12,3.58,10.12,3.09,12.67c-2.07,10.68-3.32,13.96-1.65,18.02c0.27,0.54-0.31,3.69,1.96,7.52
		c3.94,6.67-0.62,10.29-0.62,12.77c0,2.85,2.29,12.5-2.68,28.73c-1.89,6.16-2.83,3.55-4.84,18.02c-5.96,42.83,2.97,26.61-1.24,39.24
		c-12.36,3.9,0.07,1.55-10.09-21.63c-1.75-3.99-2.93-4.05-2.27-7.31c3.99-19.75-3.82-25.41,0.62-51.8c0.42-2.51,1.83-1.37,1.65-7.31
		c-4.4,5.1-3.56,7.39-4.84,11.33c-3.09,9.54,0.2,17.39,0.62,23.69c0.95,14.24,1.7,20.01-1.54,10.92c-2.4-4.39,1.87-8.38-3.3-10.4
		c-2.56-31.95,0.62-23.54,0.62-37.69c1.28-14.46,0.48-11.52,2.99-6.69c2.98,5.73,1.33,6.65,2.68,8.44
		c3.96,0.57-4.77-18.5-3.71-31.82c0.87-10.98,6.39-14.63,9.37-23.17c0.11-0.31,0.41-0.51,0.62-0.72c1.03,0.31,0.51,1.85,1.75,1.75
		c2.18-5.67-1.84-0.81-0.62-8.75c0.99-6.43-0.25-3.42,0.41-12.36c0-0.51-0.21-1.13-0.41-2.16c-2.26,3.17-2.29,20.72-6.69,25.13
		c-2.94-1.18-7.08-9.41-7.72-14.62c-0.98-7.93-3.48-11.73-3.71-12.98c-3-16.35-3.04-17.46-4.94-23.07
		C248.03,117.39,247.18,115.82,249.28,116.87z M259.68,269.89c0.33,0.33,2.92,8.23,2.99,8.44c0.32,1.03,0.31,1.03-0.51,2.57
		c-2.53-1.93-12.25-8.44-12.25-13.59c1.85-1.03,3.3,0.31,5.05,0.1c0.88-6.17,1.66-3.26,2.47-1.65
		C259.51,264.72,257.08,266.52,259.68,269.89z M250.82,265.88c-0.1-0.62-0.1-1.24-0.31-2.57c-1.75,2.57-1.75,2.57-3.19,1.96
		c1.08-2.88-0.01-3.59,6.49-2.37C250.82,263.49,252.58,265.68,250.82,265.88z M248.55,271.03c2.32,3.48,5.87,3.17-0.41,2.57
		c-2.52-0.24-4.64,0.84-3.6-6.08C249.54,266.9,245.66,266.69,248.55,271.03z M250.38,275.85c-0.29-0.02-0.63-0.1-0.9-0.19
		C250.05,275.19,250.26,275.41,250.38,275.85z M250.1,277.62c14.25,8.16,20.11,38.31,7,54.79c-8.98,11.29-22.46,4.67-28.42-8.24
		C217,298.86,231.45,266.93,250.1,277.62z M252.98,337.55c17.06-10.17,17.26-48.36-1.96-61.17c-5.21-2.6,25.89,3.37,17.61,44.8
		C263.84,338.43,251.18,339.36,252.98,337.55z M190.99,102.86c0.72-0.41,1.73,0.3,1.44,1.03c-2.41,6.06,18.64,56.65,18.64,46.03
		c0.13,0,0.07-0.04,0.31,0.21c9.39,6.78,26.31,8.52,31.82-4.12c2.12-4.86,3.81-9.8,2.88-15.24c-1.19-6.97,1.14-5.5-3.71-18.43
		c2.94,0.53,9.24,34.49,14.52,48.71c6.39,17.21,11.8,4.83,4.74,17.2c-1.54,0-3.09,0.41-4.43,1.75c0.87,0.58,3.09-0.12,3.09,0.93
		c-5.07,20.26-2.35,57.49-7.52,58.18c-3.71,0.5-3.59,0.15,1.54,0.51c0.95,15.27,1.01,13.49,1.34,18.64
		c-1.91,0.27-19.01-1.24-29.56-1.24c-4.45,0-35.36,0.88-42.22-0.1c-2.96-13-1.56-9.39-3.5-22.96c1.81-0.42,7.93-0.02,3.6-0.72
		c-8.95-1.45,0.28,2.76-8.65-22.76c1.77-4.13,3.04-6.09,3.91-9.58c0.1-0.72,0.72-1.44,1.34-2.37c-0.72-4.02,0.31-8.24,0.93-12.56
		c0-0.7,1.54-0.73,1.03-1.75c-1.3-3.17-0.69-4.29-0.31-17.61c7.7-5.13,7.63-9.56,10.81-11.95c2.75-23.41,2.99-21.32-4.22-50.15
		C189.65,103.89,190.27,103.27,190.99,102.86z M159.37,283.39c6.46,1.34,10.83,44.34,6.38,58.08c-1.16,3.59-2.16,4.33-6.28,4.22
		c-0.51-0.62,0.1-1.13,0.21-1.65c0.9-4.18,2.54-7.93,2.27-21.11C161.1,282.14,149.46,281.33,159.37,283.39z M170.19,307.48
		c-0.31,0.21-0.82,0.31-1.44,0.62c-0.82-2.88-2.06-5.25-1.85-8.14c0-4.48-3.16,0.99,1.75-18.64c2.94,3.63,3.06,9.64,3.5,15.04
		C172.45,300.07,171.57,300.11,170.19,307.48z M171.32,319.33c-2.79,0-1.96,1.21-2.37-4.74c-0.38-5.44-0.87-4.74,1.96-4.74
		C172.56,312.94,172.35,316.03,171.32,319.33z M158.86,306.04c0-1.9-0.04-1.65,0.1-1.65C158.96,306.29,159,306.04,158.86,306.04z
		 M158.04,300.79c0-1.9-0.07-1.65,0.21-1.65C158.24,301.04,158.31,300.79,158.04,300.79z M157.62,296.57c0,0.73-0.41,0.73-0.41,0
		C157.21,295.84,157.62,295.83,157.62,296.57z M155.77,290.39c0,0.1-0.05,0.39-0.06,0.43C155.74,290.67,155.77,290.52,155.77,290.39
		z M155.05,344.25c-9.04-20.04-7.73-70.04-0.31-57.67c-0.17,0-0.85,0.04-1.34-0.21c-0.33,0.33,0.85,3.06,2.27,4.74
		c1.42,10.4,2.76,14.88,2.99,24.51c0.51,21.79,1.83,10.16,1.03,19.77c-0.31-2.45-0.47-6.68-1.75,6.08
		C159.66,342.98,156.41,347.27,155.05,344.25z M159.06,338.58c-0.02,0.12-0.21,2.19-0.21,0.72
		C158.76,339.2,158.86,339.1,159.06,338.58z M278.42,397.49c-23.18,0-29.11,2.08-37.79-0.21c-21.09-5.56-15.66-1.34-17.71-12.67
		c-1.55-8.54,0.59-9.05-1.13-10.2c0,0.54,0,1.03,0,1.53c-1.86-0.68-1.47,0.09-1.13-3.29c2.52,2.1,1.16,1.46,0.51-3.09
		c0-0.41,0.1-0.93,0.1-1.44c3.79-1.62,1.05-1.75,6.1,5.55c0.18-1.42-0.75-2.43-1.26-3.59c-2.68-6.22-2.93-4.01-1.75-11.33
		c3.32-20.63,3.32-20.73,2.57-19.98c-12.45,20.75-9.51,55.92-15.55,55.92c-0.1,0-45.04,3.48-52.11,2.47
		c3.76-21.64-3.95-12.23,1.44-49.95c3.14-0.78,5.54-1.04,6.59-4.53c1.15-5.2,2.61-10.68,1.65-15.96c-0.22-1.18,0.29-5.35,1.03-5.35
		c1.19,0,1.76,0.13,2.06,1.03c0.68,2.71,7.31,4.7,11.64,4.02c1.34-1.54,2.57-3.09,3.81-4.63c-1.93-2.31-2.86,5.34-9.68,2.78
		c-0.1-1.65,1.54-2.27,1.85-3.6c-0.63-1.05-1.39,0.36-3.4,2.37c-1.65-0.1-2.78-0.72-3.3-2.57c3.06-7.04-1.16-14.58,0.21-18.43
		c3.26-11.4-1.76-16.94,0.21-19.15c0.41-0.41-0.51-0.82-1.24-0.93c-2.44-7.96-4.94-9.77-14.52-31.82
		c-3.81-8.78-2.56-5.95-6.49-32.44c2.87,0.48,0.72,1.34,0.72-12.15c0-13.46-6.08-16.72-6.08-26.98c0.93-0.21,1.44,0.84,2.16,1.03
		c4.76,1.28,2.28,3.16,4.94,4.22c0.72-1.13,0.41-2.16-0.31-3.09c-6.9-8.9-4.52-6.18-7.52-8.75c-0.98-5.48,1.22-8.49,2.78-14.11
		c1.77-6.36,0.04-7.04,3.5-3.09c0.21-0.31,0.51-0.51,0.51-0.62c-2.66-7.28-2.23-12.34-3.91-13.18c-0.62,2.88,0,5.66,0.21,8.65
		c-3.11-4.15-1.32-21.35,4.84-25.74c3.19-2.28,3.96-4.1,7.62-5.35c11.69-4.01,25.04-15.41,26.26-11.74
		c5.86,28.45,10.77,43.93-5.35,56.02c-4.7-6.26-0.49,28.45-2.99,32.34c-2.22,3.45-1.68,7.37-3.6,11.22
		c-1.24-1.13-0.62-3.3-2.78-3.81c0,5.31-1.12-5.35,4.33,25.13c2.19,12.25,8.59,64.72,18.43,70.95c1.35,0.85,4.43,1.96,5.15,5.97
		c3.68,20.56,1.77,9.12-2.27,21.21c-1.54,0.82-3.09,1.03-4.63-0.41c5.16-6.54,5.37-6.37,4.22-7.52c-6.35,7.62-5.94,7.93-11.74,7.93
		c0.66,1.41,2.59,2.42,5.56,0.72c4.94,2.78,8.34,1.54,10.4-4.43c0,2.51,3.01,14.05,4.74,18.12c1.4,3.29,4.33,3.04,9.27,2.78
		c3.41,0,4.96-3.11,5.56-6.49c0.56-3.14,2.43-3.49,3.12-4.5c0.35,0.09,1.11-0.91-0.24-0.24c0.14,0.29,0.21,0.06-1.85,0.51
		c0-3.98,3.19-49.66-10.61-52.73c-1.34-4.43-1.34-9.06-2.06-13.7c-1.34,0.41-1.45,1.24-1.34,1.96c2.18,13.69,4.44,10.58-3.6,13.8
		c0.07-1.37,0.96-14.85-0.1-17.51c-3.3,4.13,0.59,14.96-2.16,22.45c-2.08,5.67-1.93,10.47-2.27,12.15
		c-9.06-2.83-9.09-9.93-13.08-26.26c-1.94-7.95,2.06-5.66-1.24-7.31c-0.82-0.41,0.15-1.44,0.31-1.44c0.93-0.1,1.96,0,2.88,0
		c0.9-1.62-1.36-1.29-3.19-1.03c-4.18-5.23-0.35-3.29,23.89-2.88c43.4,0.72,37.46,1.8,37.07,5.25c-1.13,0.93-2.16,0.51-3.91-1.44
		c-0.62,0.62-1.03,1.96-2.27,1.13c-2.06-1.18-1.85-4.76-1.85,0.62c4.33,2.16,3.5,0.18,3.5,8.03c-0.73,0.36-22.2,4.51-18.43,36.87
		c1.43,12.26,5.09,13.56,3.81,17.4c-0.53,1.59-0.13,2.26,0.72,7.93c0.51-0.62,1.03-1.13,0.62-2.06c-0.73-1.65-0.21-3.4-0.21-5.35
		c3.01,0.75-0.7,1.25,11.12,10.3c1.6,1.22,8.96,6.7,8.34,5.46l-0.02,0.02c-0.15-0.96-1.12-1.19-1.42-2.6
		c-0.93-0.93-1.96-1.75-3.19-2.78c3.01-1,11.09,3.02,18.85-4.33c10.51-9.96,7.62-30.56,12.67,4.22
		C278.45,362.43,281.55,372.46,278.42,397.49z M213.44,298.52c-1.26-8.35-2.92-10.51-4.53-15.34c8.11-9.01,14.72,31.31,9.89,54.58
		c-0.66,3.18-2.37,5.05-6.8,4.63C216.7,331.27,215.23,310.4,213.44,298.52z M209.83,342.08c-4.14-1.96-5.84-14.79-6.38-16.89
		c-1.01-3.87-2.99-3.9,3.19-4.63c4.81-0.57,2.81-11.05,1.24-15.65c-2.06-0.1-4.02-0.1-6.18-0.21c-0.81-5.77-0.17-16.43,4.63-21.01
		C213.15,285.27,216.37,332.94,209.83,342.08z M202.11,307.59c5.81-2.09,6.18,0.04,6.18,2.47c0,8.64,1.72,7.2-5.15,8.34
		C203.04,314.79,201.9,311.19,202.11,307.59z M270.7,315.72c1.75-0.72,3.5-0.82,4.53-2.37c1.57-1.57,3.56,1.28,4.74-5.77
		c0.62-0.31,1.35-0.5,1.96-0.93c2.92-2.01,3.55-7.05,1.03-9.68c-5.38-5.6-6.68,8-3.19-23.38c7.29-3.12,21.63,5.93,23.27,26.47
		C305.67,333.03,279.08,340.89,270.7,315.72z M279.24,297.8c2.96,0.37,3.61,4.56,1.65,6.38
		C280.24,303.46,280.09,302.88,279.24,297.8z M306.74,316.13c-4.17,14.45-15.11,15.42-13.7,14.01c12.48-8.74,13.71-28.24,8.24-42.32
		c-3.83-9.86-9.61-12.7-10.92-14.01C305.95,277.02,311.29,300.39,306.74,316.13z"/>
	<path d="M196.24,431.57c0.04-0.2,0.02-0.13-0.1-0.1L196.24,431.57z"/>
	<path d="M227.55,338.69l-0.1-0.1C227.4,338.71,227.43,338.69,227.55,338.69z"/>
	<path d="M585.92,337.76l-0.1-0.1C585.81,337.92,585.79,337.97,585.92,337.76z"/>
	<path d="M554.3,432.09l0.1,0.1C554.5,432.01,554.43,432.09,554.3,432.09z"/>
	<path d="M548.84,560.3c-0.12,0.04-0.1,0.01-0.1,0.1L548.84,560.3z"/>
	<path d="M613.72,266.29l0.1-0.1C613.7,266.27,613.76,266.22,613.72,266.29z"/>
	<path d="M582.83,367l0.1-0.1C582.78,366.87,582.74,366.83,582.83,367z"/>
	<path d="M759.13,33.14c-2.21-19.39-21.77-24.88-29.25-18.02c-12.73,11.69-6.57,6.48-12.98-3.09c-7.39-11.03-22.16-14.04-33.78-1.13
		c-2.31,2.31-1.52,1.87-3.19,0.62c-10.77-10.14-27.09-8.28-32.64,9.58c-1.57-3.93-2.89-8.61-6.59-12.87
		c-11.34-13.04-29.74-10.6-38.1,7.52c-2.33,5.06-0.31,3.58-9.58,6.18c-2.52-1.01,1.4-0.8-13.59-0.41c-1.66,2.49-1.47,1.71-2.99,2.47
		c-0.36-1.78-0.47-1.36-1.03-2.47c-13.17,10.8-8.86,0.15-15.65,2.99c0.72,1.03,1.44,1.96,2.16,2.88c-0.62,0.72-1.44,1.24-1.44,1.75
		c0.17,2.78-4.76,4.42,1.85,3.4c1.69,2.12,1.63,1.89,4.43,1.54c0.51,1.03-0.31,1.44-0.51,2.06c-3.3-1.13-3.3-1.13-7.41,0.72
		c0.82-1.13,1.34-2.06,1.96-2.88c-3.85-2.2-1.5,0.08-2.27,2.16c-1.43,3.89-1.35-0.02-3.09,8.65c-0.77,2.31-4.5,7.77,0.1,15.76
		c1.96,3.41-1.29,3.66,1.03,7.83c0.71,1.27,2.8,7.53,2.37,9.27c-2.99,1.5-4.76,1.54-6.38,3.81c-1.47,2.04-5.05,0.6-13.18,8.34
		c-10.37,9.87,3.17,0.64-15.55,8.24c-5.33,2.17-5.2,0.97-13.7,15.96c-5.18,9.13-3.62,30.69,3.6,38.82
		c-5.25,25.39,9.34,35.5,10.5,47.47c1.42,14.6-0.36,19.09,2.99,32.03c3.66,14.18,4.98,23.83,5.25,24.1
		c1.11,0.72,0.93,0.59-0.31,0.82c-2.06-3.43-4.8-1.83-3.19,8.24c2.36-0.34,2.36-2.54,2.68-6.69c0.41,0.62,0.82,0.93,0.72,1.03
		c-1.26,3.28,0.76,5.25,0.82,5.35c2.46-5.84-0.93-5.87,2.47-5.87c0.1,1.75,0.21,3.4,0.31,4.94c1.25-0.18,1.01-0.99,0.72-5.35
		c4.02-1.24,8.14-2.06,12.25-0.1c1.03,1.24-0.31,2.99,1.13,4.12c0.21-0.21,0.51-0.31,0.51-0.41c0.83-4.16-0.76-3.43,3.4-3.81
		c0.69,2.77,1.02,5.64,1.54,0.41c7.76-1.29,48.81,1.85,48.92,1.85c2.03,0.41,2.02-0.13,1.24,3.4c-2.06,1.24-2.78-0.62-3.71-1.75
		c-0.51,0.62-0.82,1.13-1.13,1.54c-1.65,0.31-2.27-0.72-2.78-2.47c-1.33,3.47,0.72,3.65,3.09,4.63c0.11,0.84,0.29,4.89,0.51,6.18
		c0.24,1.38,1.96,2.02,1.96-0.1c-0.17-1.89-0.34-3.78-0.1-5.87c0.86-0.11,2.86-0.44,2.88,0.51c0.07,2.85,1.19,3.5,7.31,8.55
		c-0.45-3.58-5.36-6.11-4.84-8.96c0.82-0.93,1.85-0.42,2.78-0.31c2.29,0.28,1.83,0.88,3.3-3.91c0.2,0.2,12.3,29.65,15.34,70.44
		c0.1,1.34,0.93,1.96,2.06,2.47c4.5,25.18,7.37,29.7,4.74,61.27c-0.57,0.64,0.85,0.85-18.95,1.03c-17.79,0.16-5.86,2.12-35.12-4.63
		c-0.93-2.57-2.37-13.18-2.47-17.71c-0.51,0-0.93,0.1-1.65,0.1c-0.35-4.85,1.27-1.09,0.72-7.62c1.08-0.69,2.07-1.09,3.14-0.85
		c-2.02-4.85,3.04-24.14,3.04-28.97c-2.7,3.84-5.51,12.39-6.49,17.16c-0.83,4.02-1.26,1.25-1.75,4.22
		c-4.43,18.77-1.82,22.58-4.43,28.83c-2,4.81-1.64,5.87-3.3,5.87c-0.1,0-24.46,2.78-52.52,2.78c4.51-18.03-3.37-9.61,1.24-43.87
		c0.26-1.96,0.16-3.94,1.24-5.77c0.49-0.84,0.31-2.16,0.31-3.3c0-45.25,1.95-25.17,2.37-55.09c0.16-11.19-0.07-11.31,1.24-13.28
		c2.29-3.48,5.81-8.09,5.05-10.2c-3.16-0.7-4.84,6.6-8.03,11.43c-0.25,0.38-0.16,0.85-0.21,4.84c-0.44,35.78-3.09,18.35-3.09,61.48
		c0,0.72,0.1,1.75-0.31,2.16c-1.44,1.44-1.05,3.19-1.24,4.94c-4.1,37.63,2.88,35.41-0.93,38.21c-0.76,0.38-1.88,8.62-0.82,11.95
		c8.39-1.91,6.14-1.56,7.52,9.78c0.57,4.68,3.05,8.81,1.65,15.76c-0.39,1.92-1.95,4.54-2.16,5.05c-16.13,38.71-0.98,57.03,0.31,96.9
		c0.11,3.28,1.11,15.58,1.13,15.65c2.01,5.53,0.23,5.72-0.21,7.52c-1.66,6.9,0.69,2.82-1.24,9.47c-2.45,8.5,1.99,7.26-1.54,12.56
		c-7.49,9.99,4.4,14.14,4.33,17.51c-0.26,11.43,36.18,9.06,38.41,4.22c-2.02-6.35-2.18-8.78-5.77-11.95
		c-0.96-5.27-7.37-17.9-8.96-22.04c0.46-0.19,0.83-0.29,1.13-0.38c0.22-2.69-3.8-1.73-2.16-6.11c2.01-3.02,1.18-7,1.54-9.78
		c0.23-1.75-1.13-2.99-2.27-4.12c-3.61-4.01-6.85,10.84-1.65-27.7c1.15-8.52,2.65-4.72,5.56-19.77c3.47-17.97,5.67-1.21,2.99-54.79
		c-5.3-2.12,5.22,21.69-5.77,56.85c-2.97,7.92-3.64,13.44-5.25,16.27c-1.29-4.5,0.16-21.87,0-23.48c-0.1-0.41-0.41-0.72-0.93-1.65
		c-2.5,15.63-0.01,18.04-0.1,22.55c-0.1,5.21-0.93,12.16-1.34,19.46c-0.62,11.11,4.91,12.44-3.6,12.98
		c-1.54,0.21-3.09,0.93-4.74,0.51c-0.62-13.73-0.34-1.85-1.96,0.93c-6.93,1.07-3.49,4.33-5.87-20.7c0-2-1.53-8.35-2.37-14.73
		c-2.66-20.16-2.35-25.62-4.02-30.07c-0.53-1.05-1.32-5.87-0.21-20.08c1.38-17.58,8.76-24.71,8.14-35.73
		c-0.15-2.59,0.53-8.36-0.1-10.09c-0.55-1.52-2.07-8.11-1.54-9.17c3.11-2.33,2.31-1.81,5.35-1.85c41.4-0.59,28.06-2.92,34.09-2.06
		c-1.98,7.13-1.67,7.91-3.3,11.64c-2.39,5.49-0.82,3.66-1.54,8.03c-6.39,25.56,0.56,10.25,1.03,1.75c0.4-7.18,2.41-7.43,4.63-13.59
		c3.47-9.6,1.2-7.34,8.86-9.17c1.34-1.24,1.75-3.09,3.71-3.6c1.09-6.57,0.12-5.42,2.68-13.7c1.68-5.44,1.2,9.17,1.54,15.04
		c0.26,4.44,4.61,2.46,6.49,3.5c1.22,2.45-1.26-3.44,2.78,17.71c0.78,4.1,2.44,3.94,2.68,9.68c0.2,4.76,0.68,9.88,0.31,12.36
		c-4.87,32.35-2.53,22.23,1.13,42.12c11.34,61.55,7.47,54.59,9.17,55.3c1.73-2.3,2.11-5.14,1.75-7.72
		c-7.08-51.43-9.19-44-10.61-53.65c-2.58-17.61-3-9.6,0.72-40.68c1.61-13.4-5.35-23.83-5.35-33.47c4.14-2.59,0.91,0.21,6.59,0.21
		c4.85,0,10.54,2.12,15.96,2.06c19.55-0.23,10.86-1.31,14.11,0.31c1.21,0.61,1.85-1.45-0.31,4.22c-2.23,5.87,0.79,8.5-2.27,16.58
		c-1.84,4.87-1.72,3.67-0.1,6.9c-2.68,1.96-2.37,4.43-1.54,7c2.26-6.79,2.01-10.78,5.56,20.29c0.43,3.79,0.24,4.39-1.13,16.48
		c-6.34,56.02-1.87,62.39-6.08,58.18c-1.99,0.99-7.84,2.08-10.5,2.16c-0.51-3.09,0.1-6.18-0.72-9.58c-1.13,1.44-0.92,2.68-1.03,3.91
		c-0.65,7.29,1.59,5.39-3.19,7.52c-1.51,0.86-1.01,1.97-0.72,3.71c-6.71,4.48-1.9,8.24-4.22,13.18c-0.94,2-3.68,7.76-3.09,9.89
		c1.2,4.33-4.5,5.35-0.41,9.89c0.92,0.92,3.07,2.46,3.19,3.09c0.89,3.12,10.95,4.88,14.01,4.84c9.21-0.12,1.35,7.13,12.67,8.65
		c7.16,0.96,11.73,1.51,16.37,0c0.63-0.16,7.88,0.24,10.3-5.35c0.89-0.13,2.23-0.42,3.09-0.82c3.11-1.47-0.41-8.69-2.99-11.02
		c-2.94-2.65-11.04-12.56-11.12-12.67c-2.51-3.19-10.14-9.31-11.02-16.89c-0.98-8.5-2.15-3.73-5.35-5.87
		c-1.61-18.8-0.39-6.68,1.03-33.78c2.91-55.53,5.87-18.3,0.72-68.07c-0.43-4.18-2.05-2.9-1.75-7.31c2.51-1.72,1.75-3.57,1.75-14.21
		c0-4.03,1.27-2.41,2.68-10.09c0.5-2.71,3.62-1.99,7.21-1.65c9.6,0.91-1.5-75.75-4.02-78.26c-3.13-3.76-3.13-31.15-10.81-50.05
		c-0.86-2.59-3.91-3.95-4.02-10.61c-0.01-0.7-4.27-18.62-0.72-35.73c1.29-4.32,0.05-30.64,3.3-41.3c5.8-19.01-1.34-12.01-3.3,3.19
		c-0.53,4.11,0.97,0.9-3.5,46.14c-0.3,3-0.43,2.48-2.88,3.09c2.23,0.56,2.37,0.5,2.37,1.75c1.06,18.7,1.24,17.4,0.62,17.82
		c-40.18-2.41-28.56-1.24-61.58-1.03c-5.28,0.03-3.91-2.04-13.28-0.41c-6.14,1.07-4.97,1.19-4.63,0.62
		c1.55-2.61-0.87-11.41-1.75-14.31c-7.71-25.33-1.99-1.79-5.56-36.15c-0.97-9.31,0.69-10.39-9.3-28.38
		c5.21,3.11,17.53,3.89,1.99-0.14c-0.4-0.1-0.81,0-2.01,0.1c-5.06-9.53-1.05-20.73-2.83-25.02c-3.98-9.61-4.85-10.16-5.25-14.31
		c-1.12-11.51-2.15-13.28,0.51-19.15c1.71-3.77,8.35-16.62,13.39-18.54c8.3-3.15,8.51-4.12,9.27-2.99c-0.87,1.74-1.41,5.6-4.33,8.03
		c-0.73,0.61-1.34,1.44-1.24,2.88c4.88-3.9,10.99-16.71,22.86-23.07c10.87-5.81,6.72-5.68,10.4-4.94
		c3.82-3.82,14.88-18.55,25.23-25.75c1.18-0.82,12.18-6.81,13.49-6.28c2.7,8.78,6.14,16.22,14.83,19.57
		c-0.1,0.1-22.92,30.44-30.38,32.85c-3.89,1.26,0.27,2.91,7-1.75c5.63,0.56,3.39-1.97,2.88,8.86c-0.17,3.61,0.41,7,1.34,8.86
		c0.51-0.93,1.22-1.65,1.34-2.47c0.47-3.31-0.13-6.92,0.93-5.87c3.77,2.52,5.66,19.69,4.02,31.61c-0.49,3.54-5.72,10.08-7.83,12.56
		c-0.47,0.94,0.56,1.4,1.54,0.41c6.91-6.91,4.39-5.79,5.77-6.38c2.77-0.99,5.32-10.64,4.33-16.37c-0.22-0.86-0.33-8.59-3.4-17.3
		c-0.11-0.31,0-0.82,0-1.96c12.26,19.41,11.15,35.97,22.96,47.78c-0.67,9.66-1.11,9.74,0,10.3c10.07-39.03,6.05-40.36,12.77-43.46
		c19.75-9.12,25.88-7.98,32.85-14.31c8.73-7.93,9.1-10.63,13.7-14.83c12.09-11.03,10.36-2.03,24.1-21.93
		c4.46-6.46,5.79-15.77,7.83-17.3c4.41,9.93,3.08,9.73,13.28,14.83C747.12,79.57,761.58,54.71,759.13,33.14z M565.32,28.1
		c-0.85-0.42-0.57-0.19-0.41-0.51c0.21,0.1,0.41,0.21,0.62,0.31C565.42,27.99,565.32,28.2,565.32,28.1z M551.52,576.26
		c-0.7,0.7-0.77-0.19-0.82-0.31C551.49,575.56,551.28,575.77,551.52,576.26z M549.57,572.35c1.69,0,0.87,1.31,0.51,1.13
		C549.3,573.61,547.99,572.35,549.57,572.35z M524.85,550.1c1-0.5-1.59-4.53,4.74-4.53c0.49,7.4,0.13,7.73-3.71,9.17
		C524.71,554.45,523.38,551.2,524.85,550.1z M524.13,555.77c3.02,3.52,7.6-0.47,7.21-3.81c-0.92-7.82,1.83-5.96,6.08-7.11
		c6.97-1.88,6.17-1.1,6.49,0.82c3.53-1.76,2.41-1.92-0.21,12.05c-3.6,0.51-7.41,0.31-10.92,1.34c-0.93,1.34,0.31,2.88-0.72,4.02
		c0.51,1.34,0.93,2.57,1.34,3.81c2.37,1.54,5.05,0.62,7.41,1.34c2.37,0.72,4.63,0.31,7.21-0.1c2.88,3.83-3.23-0.18-12.36,1.34
		c-0.41,0.93-0.1,1.34,0.41,1.75c2.3,1.54,2.49,0.55,1.34,4.02c0,3.66,13.81,2.72,15.14,2.68c0.44,0.37,4.28,9.37,4.33,9.47
		c1.38-0.46,0.76-1.57,3.09,5.97c0.1,0.31,0,0.72,0,1.34c-14.5,1.61-17.35,4.46-33.37-1.44c0.85-1.7-1.92-5.95-2.68-6.8
		c-2.61-2.92-5.27-1.73-3.3-12.25c2.31-2.31,3.68-3.73,2.27-6.69c-1.07-2.24,1.28-6.1-0.1-8.86
		C522.36,558.01,523.4,555.04,524.13,555.77z M545.55,561.64c-1.54,0-2.57,0-4.02,0C543.59,560.92,543.59,560.92,545.55,561.64z
		 M604.35,541.87c2.02-2.24,0.73-3.46,2.06-4.12c2.94-0.77,13.91-3.59,16.06-1.44c-1.27,1.27,0.65,0.9-9.06,1.65
		c-5.18,0.4-1.04,4.83-0.21,6.59c-1.35,4.5-0.31,3.24-4.33,3.6c-2.11,0.19-3.5-0.34-3.5-3.4
		C604.82,544.11,603.18,543.04,604.35,541.87z M654.09,582.34c-0.38,0-0.1-0.28-0.1-0.41C654.39,581.92,654.09,582.18,654.09,582.34
		z M641.42,563.8c-1.54-0.41-2.78-0.62-4.74-1.13C639.57,561.12,639.57,561.12,641.42,563.8z M635.14,559.17
		c-0.22,0.22-0.2,0-0.41,0C634.95,558.95,634.93,559.17,635.14,559.17z M630.3,549.9c0,0.1,0,0.21,0,0.31
		C628.14,550.21,628.88,550.25,630.3,549.9z M626.49,540.01c1.75,2.16,1.03,4.84,2.16,6.9c-1.15,1.01-6.27-1.97-8.75,1.24
		c-0.32,0.41,0,1.13,0,1.85c-1.24,0.62-2.57,0-3.91,0.1c-1.22,0-1.24,1.89-0.41,2.16c5.44,1.81,4.67,0.06,2.37,2.37
		c-0.95,0.95-0.15,2.27,0.62,2.27c1.38,0.13,2.68,0.1,5.77,0.1c-2.25,4.5,2.55,3.61,7.52,2.78c0,1.16-0.57-0.99-3.81,2.88
		c-0.42,0.51,0.1,1.54,0.72,1.44c1.03-0.1,2.16-0.41,3.4-0.62c0.51,0.51,0.93,1.24,1.65,1.65c0.6,0.4,5.65,1.09,8.44-0.31
		c9.19,10.92,11,10.14,11.95,15.34c-1.75,2.16-3.7,4.38-6.69,4.94c-11.85,2.21-7.81,2.67-18.64,1.54
		c-14.14-1.47-2.2-4.55-13.39-8.86c-1.16-0.29-3.21,0.87-10.61-1.54c-2.94-0.96-4.02-2.05-7.93-6.8c1.33-2.33,2.18-4.14,1.85-6.38
		c-0.79-5.37,3.24-6.13,3.5-9.99c0.76-11.22,0.3-0.77,7.21-2.06c3.91-0.73,4.42-1.34,5.35-5.15
		C616.25,540.21,603.85,540.53,626.49,540.01z M623.09,550.1c0.41-0.1,0.82-0.1,1.24-0.1C624.33,550.42,624.42,550.1,623.09,550.1z
		 M627.27,402.09c0.2-0.55,0.04-0.38,0.35-0.07C627.55,402.02,627.42,402.06,627.27,402.09z M612.69,262.48
		c0.27,0.27,0.21,0.62-0.21,0.21C612.49,262.58,612.59,262.58,612.69,262.48z M607.13,261.97c1.54,0.1,2.68,0.31,3.91,0.41
		c-0.31,1.96-0.31,1.96-1.24,3.4c-0.72-5.73-0.52,0.88-3.4-0.72C606.31,264.13,607.23,263.3,607.13,261.97z M594.67,29.95
		c0.11,0.21,0.39,0.41-0.31,0.41C594.07,30.08,594.07,30.25,594.67,29.95z M592.71,35.1c1.03,0.31,2.06,0.51,3.09,0.72
		c-1.54,0.64-2.34,0.13-3.5-1.03C592.71,34.38,592.71,34.79,592.71,35.1z M590.96,32.73c0.52-0.52,0.37-0.5,0.62,0
		c-0.21,0.1-0.31,0.21-0.51,0.31C590.96,32.94,590.86,32.83,590.96,32.73z M587.98,26.45c1.27-1.28,3.82-0.31-0.21,1.96
		C587.36,27.69,587.46,26.96,587.98,26.45z M589.93,34.48c-0.54-0.54-0.41,0.31-1.34-0.62C589.61,33.35,588.95,33.49,589.93,34.48z
		 M582.11,24.18c0.54,0.27,0.51,0.31,0.31,0.51C581.54,24.26,582.11,24.05,582.11,24.18z M576.75,43.85
		c-0.51,0.62-1.03,1.13-1.54,1.75C574.45,44.09,574.85,42.71,576.75,43.85z M573.97,26.66c-0.51,2.37-1.54,2.47-3.09,2.06
		C571.81,28.1,572.63,27.58,573.97,26.66z M574.69,33.56c-0.41,2.27-0.41,2.27-3.09,4.22C570.43,37.19,571.83,36.42,574.69,33.56z
		 M570.47,46.12c0.19,0.19,0.08,0.43-0.1,0.62C570.37,46.25,570.06,46.52,570.47,46.12z M568.72,49.83
		c0.31-0.41,0.72-0.62,1.24-1.03C570.96,51.62,567.48,51.47,568.72,49.83z M569.03,58.99c-0.07,0-0.11,0.1-0.26,0.1
		C568.86,59.03,568.97,58.99,569.03,58.99z M568.51,59.29c0,0.33,0,0.64,0,1.25C567.97,59.8,568.23,59.56,568.51,59.29z
		 M567.59,62.49c0.1,0.1,0.1,0.21,0.21,0.31c-0.32,0.32,0.23,0.64-0.41,0C567.38,62.7,567.48,62.6,567.59,62.49z M565.53,49.21
		c0.58-1.35,3.75-0.22,0,0.72C565.53,49.62,565.42,49.41,565.53,49.21z M563.78,57.24c0.93,0.72,0.93,0.82,0.82,3.4
		c-1.85-0.41-2.47-1.65-2.78-3.3C562.75,56.62,563.36,56.83,563.78,57.24z M562.64,65.48c-0.26,0.26-0.62-0.11-0.21-0.51
		C562.54,65.07,562.54,65.27,562.64,65.48z M559.35,69.39c-0.33-0.66-0.2-0.62,0-0.82C559.35,69.16,559.75,68.99,559.35,69.39z
		 M559.66,64.35c0.1,0.21,0.21,0.31,0.21,0.41c0,0-0.21,0-0.21-0.1c0-0.86-1.09,0.31-1.96-2.57c-0.1-0.93,0.31-1.65,1.54-2.06
		C561.78,62.13,561.35,61.39,559.66,64.35z M562.95,47.15c-0.41,1.75-0.62,2.88-1.03,4.33C561.1,48.49,561.1,48.49,562.95,47.15z
		 M567.9,66.71c-0.31,1.65-1.65,2.37-2.47,3.4c-0.93,0-1.85,0-2.78,0c-1.52-3.03-1.89-2.13,1.13-2.88
		c0.12-0.25,1.63-11.58,2.99-0.72C567.11,66.58,568.21,66.71,567.9,66.71z M596.22,46.43c-24.17,10.45-17.09,9.98-20.08,12.98
		c-12.67,12.67-7.17,6.69-5.15-0.72c1.12-5.39,2.81-4.75,5.46-10.81c1.22-2.79,1.13-2.78,4.33-3.09c-0.1-0.41-0.1-0.72-0.1-1.03
		c3.75-1.67,2.97-0.8,2.06-3.09c-1.01-2.52-0.07-1.44-4.22-2.57c-0.1,0.1-0.21,0.31-0.41,0.41c-0.1-0.62,0.31-0.31,0.41-0.41
		c-0.32-2.55,4.41-1.82,7,2.68c0.72-0.31,0.41-1.03,0.62-1.75c7.61-1.69,5.84,0.36,9.27-0.62c0.62-0.1,1.44,0.41,2.27,0.62
		C598.41,46.88,598.93,45.07,596.22,46.43z M722.88,38.4c1.94-4.14-2.04-11.02-1.24-15.04c2.82-1.41,5.72,5.46,5.97,6.38
		c0.67,2.47,1.12,3.26,1.34,3.47c-0.36,0.2-1.36,1.74-2.98,9.81c-0.76,3.78-2.86,3.63-6.59,4.91
		C719.35,46.43,718.34,48.07,722.88,38.4z M721.65,35.72c0.18,0,0.21,0.13,0.21,0.31C721.29,36.03,721.65,36.04,721.65,35.72z
		 M729.78,36.23c3.15,1.99,2.48,3.88,0.62,6.49c-0.21,0.41-0.51,0.41-2.88,0.51C728.34,40.66,729.06,38.5,729.78,36.23z
		 M714.54,22.64c2.84,28.61-19.4,53.1-33.88,38.62c3.81-5.56,6.08-11.64,7.21-18.12c6.45,0-0.17,0.18,5.05-2.06
		c-1.25,0,4.56-2.18,3.6-9.99c-0.65-5.31-3.41-5.74-7.42-4.4c-0.27-0.36-0.55-0.37-0.81,0.18c0.2,0,0.38,0,0.58,0
		c-0.76,1.83-3.01-6.3-4.7-9.68c-1.03-2.41,0.62-2.11-1.96-2.99C690.62-2.64,712.41,1.13,714.54,22.64z M691.16,37.06
		c1.76-1.05,3.98-4.32,1.96-7.21c-1.03-0.21-2.27-0.62-3.4-0.93c0.31,0.93-0.21,1.54-1.03,2.06c-0.23-1.16,1.56-3.8,4.33-3.6
		c2.57,0.77,3.85,6.86-0.1,11.33c-3.72,3.72-6.7-0.84-2.57-7.72C694.57,31.83,689.95,35.11,691.16,37.06z M676.03,9.87
		c15.64,9.95,14.15,41.65,0.21,54.06c-4.98,4.43-13.84,5.12-10.4,3.4c17.73-7.25,24.15-42.16,8.24-57.87
		C673.94,9.33,674.96,9.19,676.03,9.87z M679.32,19.45c6.9,16.9-0.84,44.64-16.17,47.16c-15.16,2.5-23.99-23.63-12.25-20.7
		c0.5,0.83,0.65,2.03,1.13,1.54c8.82-7.56,10.3-8.61,10.3-10.92c0-3.4,0.28-4.82-2.37-6.59c-3.91-2.61-0.92,2.06-3.81-5.46
		c-1.1-2.87-2.38-2.06-5.46-1.03c-0.62-0.72-1.13-1.24-1.65-1.96C650.93,5.73,670.99-0.95,679.32,19.45z M658.42,35.51
		c-0.62-1.13-1.24-2.37-1.85-3.71C660.57,30.09,660.49,38.62,658.42,35.51z M648.22,40.45c-1.03-2.37,0.74-4.64,0.21-7
		c-0.51-2.23-0.51-5.39-0.51-7.83c3.9,0,1.89,0.27,5.35-1.03c2.92,1.8-0.68,4.48,4.12,12.67c1.23,1.85-1.16,1.39-1.44,3.19
		c-0.11,0.72-1.34,1.34-2.06,1.96c-0.72,0.51-1.13,1.65-2.37,1.54c-0.32-0.63-0.54-0.15,0.93-1.96c1.7-2.1,0.93-2.77-1.85-13.9
		c-1.46-0.16-0.64,3.2-0.31,4.63c2.06,8.8,3.19,5.73-2.78,12.36C646.1,42.46,648.41,40.84,648.22,40.45z M643.9,47.25
		c-1.2,2.96-2.91,14.72-14.01,19.77c-2.26,1.03-4.63,1.65-7.83,0.93c20.1-7.23,28.85-45.3,9.37-64.77
		C636.34,0.72,654.02,22.31,643.9,47.25z M609.4,63.93c-16.84-12.75-11.54-55.98,8.64-61.88c18.54-5.42,31.08,27.41,16.89,52.83
		C629.1,65.32,618.59,70.9,609.4,63.93z M594.67,112.64c-0.33-0.66-0.25-0.35,0.1-1.24C594.77,112.03,594.67,112.33,594.67,112.64z
		 M592.51,96.68c3.5-2.99,6.59-5.46,9.99-8.34C600.81,97.62,598.66,96.68,592.51,96.68z M596.11,103.99
		c-0.51-0.51-0.51-0.93,0.1-1.44C596.83,103.07,596.73,103.58,596.11,103.99z M596.63,99.46c0.31-0.93,0.93-1.54,1.85-1.65
		c4.13-0.49,3.35-3.45,7.11-12.67c0.69-2.07,5.77-6.23,8.24-12.87c3.21-8.62,15.99,6.92,29.14-17.51c1.53-2.3,0.43-3.05,2.16-0.31
		c1.16,1.83,3.82,14.58,21.83,15.14c0.64,2.58-2.2,2.08-3.71,2.27c-5.36,0.3-11.08,3.52-11.95,4.84c-2.31,3.51-7.5,5.68-9.06,9.58
		c-7.13-1.53-7.88-1.67-7.82-1.65c0,0,0,0-0.01,0C621,81.47,593.91,104.9,596.63,99.46z M626.9,142.82
		c-0.13-0.39-0.17-0.31,0.1-0.31L626.9,142.82z M711.45,61.26c-8.57,22.32-9.6,14.08-14.42,22.04c-1.33,2.2-2.98,2.39-11.33,7.83
		c-0.1,0.09,1.18-1.27-13.9,14.21c-13.72,12.35-15.7,8.31-35.01,17.09c-6.66,3.03-6.45,6.92-8.96,18.23
		c-1.34-1.13-1.32-2.57-1.13-4.12c1.7-13.88,1.14-13.24,1.44-15.76c0.92-7.69,1.73-5.42-1.44-5.87c-1.83,5.48-1.87,15.54-1.54,21.11
		c0.66,11.28,3.15,7.89-0.1,18.64c-17.67-23.56-6.41-25.59-21.42-45.31c-1.65-2.16-2.88-4.74-5.56-6.38
		c0.62-0.51,1.03-0.93,1.54-1.13c8.68-4.46,26.13-19.52,40.68-12.77c-1.34,2.06-2.2,4.49-4.12,6.18c-1.26,1.11-1.75,2.68-1.75,4.63
		c2.33-0.42-0.68-0.89,8.96-10.71c0.2-0.21,0.62-0.62,0.62-0.82c-0.41-2.27,1.53-3.11,2.68-4.22c6.26-6.06,7.47-6.88,10.92-7.72
		c6.96-1.7,9.2,0.18,11.43-1.65c2.18-1.31-0.2-4.01,5.25-7.83c7.06-4.94,4.42-5.06,7.11-3.3c12.65,8.32,21.03,6.09,30.48-4.22
		C712.69,60.33,711.65,60.74,711.45,61.26z M692.6,66.92c3.53-1.76,14.1-4.26,20.29-21.32c6.76-18.63,1.48-34.22-4.33-38.93
		c1.87-0.42,11.74,5.89,11.74,23.99C720.31,46.18,709.96,69.52,692.6,66.92z M723.71,67.95c-8.11-6.44-8.32-17.15-5.05-19.88
		c0.79-0.42,2.49,4.24,8.86-3.4c1.24,0.71,2.18,1.86,4.53,0c2.2-1.74,2.27-3,2.27-7.11c0-2.21-1.77-1.39-3.19-4.74
		c-4.09-9.6-4.64-9.1-6.18-11.02c15.02-23.68,38.06,4.83,24.2,33.37C743.48,66.83,732.14,74.65,723.71,67.95z M751.2,61.57
		c-3.68,5.82-9.84,11.2-16.99,10.4c-1.97-0.66-1.49,0.09,3.19-2.16c14.72-7.07,22.35-34.51,12.36-50.36
		C742.83,8.46,770.46,31.12,751.2,61.57z"/>
	<path d="M591.58,149c-1.45-6.47-5.8-18.46-7.93-18.23c0.65,1.95-2.29-5.75,4.63,16.27c2.21,7.02-14.3-0.78-20.9-20.6
		c11.24-15.84,10.11-14.05,11.44-12.05c0-3.63-3.08,1.73,2.06-6.49c2.57-4.12,1.85-1.97,1.85-4.74c-2.94,0.84-8.08,8.72-14.01,17.2
		c-5.36,7.66-8.59,9.34-16.68,14.83c-11.74,7.96-4.01,3.66-1.75,4.22c0.93,4.12,0.62,8.34-0.1,13.28c-5.39-11.56-3.11-6.91-7-12.36
		c-1.8,0.48-3.48,1.61-3.81,3.6c4.68-1.4-0.48-3,9.89,15.14c-2.59,15.05-13.95,18.3-15.86,19.46c-1.03,0.62-2.37-0.21-3.09,0.21
		c-0.98,0.58-1.78,1.54-2.92,1.81c1.02,1.25,2.23,0.66,3.34,0.35c15.52-4.41,15.65-7.58,20.7-19.36c0.93-0.41,1.54,0.72,2.37-0.31
		c-3.09-7.2-0.26-1.43-1.44-18.74c-0.32-4.68-0.63-4.36,0.72-5.25c25.1-16.57,2.56-10.42,26.16,10.5c5.59,4.95,8.41,3.85,9.99,4.63
		c1.24,2.06-0.72,3.91-0.41,6.18c2.16-1.85,2.16-1.85,2.57-6.59C594,149.8,593.98,150.44,591.58,149z"/>
	<path d="M527.22,180.61c0.22-0.04,0.16-0.05,0.1-0.1L527.22,180.61z"/>
	<path d="M235.89,57.24c-0.27-4.65-7.15-3.05-8.14-3.3c-2.88-0.72-4.94,0.82-7.31,2.57c1.96,0.51,2.99-1.24,4.12-1.24
		c14.78,3.11,0.6,1.06-1.85,4.33C235.54,61.27,229.49,59.21,235.89,57.24z"/>
	<path d="M611.46,472.97l0.21-0.1C611.51,472.52,611.55,472.66,611.46,472.97z"/>
	<path d="M610.32,449.39c-1.57,1.31-0.31,2.79,0.31,10.92c0.53,6.96-0.15,10.69,0.91,12.35
		C614.59,459.33,612.34,450.73,610.32,449.39z"/>
	<path d="M251.85,449.9c-1.85,0.77-0.96-0.98,0.41,22.76C255.66,467.9,255.05,455.5,251.85,449.9z"/>
	<path d="M551.32,406.03c-5.6,6.3-7.72,7.21-13.8,9.89c-7.37-2.05-5.9-1.54-7.83-1.54C538.96,422.65,551.32,411.76,551.32,406.03z"
		/>
	<path d="M192.43,406.86c-1.24,0.1-1.75,1.13-2.37,2.06c-4.35,5.35-9.07,6.23-11.02,7.41c-2.88-0.21-5.35-1.54-8.34-1.65
		C176.03,422.01,191.03,415.28,192.43,406.86z"/>
	<path d="M219.1,92.77c0.13,0.13,5.61,1.3-9.47-8.24c-1.13-3.71-2.57-7.31-2.27-11.43c-3.14,2.52-1.53,4.43-0.51,8.34
		C207.75,84.94,203.98,82.38,219.1,92.77z"/>
	<path d="M170.6,436.21c-1.58,1.58-0.34,0.4-1.03,2.78c-2.16,5.76-4.12,7.75-3.6,12.05c2.17,11.93-1.11,11.61,0.41,13.9
		c1.97-3.55,1.83-8.73,0.93-12.67c-1.31-5.74,2.25-9.23,3.19-11.95C172.33,435.02,172.18,435.68,170.6,436.21z"/>
	<path d="M169.77,436.83l-0.1,0.1C169.71,436.9,169.77,436.86,169.77,436.83z"/>
	<path d="M539.68,155.17c-1.18,0.59-0.61-2.01-2.57,9.27C534.32,180.4,542.5,160.82,539.68,155.17z"/>
	<path d="M179.15,422.92c-2.5,3.75-0.63,4.82-2.47,7.62c-0.38,0.58-0.18,5.02,3.4,8.44c-0.23-4.07-3.14-8.24-0.72-13.18
		C180.93,422.6,179.51,422.56,179.15,422.92z"/>
	<path d="M215.19,123.04l-0.21,0.1C215.35,123.15,215.36,123.22,215.19,123.04z"/>
	<path d="M223.02,125.72c-3.93-2.81-9.6-3-7-2.06c2.57,1.13,5.26,2.06,7.31,4.22c2.8,2.96,8.79,0.24,6.8-1.75
		C228.7,126.37,226.05,127.89,223.02,125.72z"/>
	<path d="M616.61,416.95c2.43-0.92,3.82-4.63,1.96-4.63c-2.56,5.11-1.43,2.19-13.39,6.18C607.75,419.9,606.51,420.77,616.61,416.95z
		"/>
	<path d="M248.04,418.19c-2.09,0.51-0.46,2.4,1.65,1.75c7.11-2.21,11.92-2.92,9.99-7.21C257.27,416.73,259.82,415.3,248.04,418.19z"
		/>
	<path d="M592.1,233.34c-0.19-10.06-0.03-8.37-1.03-9.37c-1.34,3.6-1.54,6.18-0.82,12.15C590.78,235.8,592.14,235.65,592.1,233.34z"
		/>
	<path d="M257.41,457.32c1.18-1.77,0.14-4.49,3.71-8.75c1.36-1.63,1.85-3.71,1.24-6.59C262.31,442.08,253.05,459.5,257.41,457.32z"
		/>
	<path d="M616.4,456.7c1.24-2.9,0.21-4.65,2.88-7.52c1.62-1.74,2.46-4.08,1.85-7.41c-2.2,4.39-2.13,5.27-3.19,6.59
		C614.84,452.19,615.05,459.4,616.4,456.7z"/>
	<path d="M524.95,464.12c2.53-2.92,2.05-7.95,1.34-11.74c-1.08-5.76,0.93-6.65,0.93-9.47C522.61,448.12,526.88,450.66,524.95,464.12
		z"/>
	<path d="M234.14,87.83c6.12,2.4,11.08-1.33,4.33-2.68C236.2,84.84,235.58,85.15,234.14,87.83z"/>
	<path d="M231.77,81.85c-0.41,0.1-0.72,0.51-1.13,0.82c0.31,0.31,0.62,0.93,0.93,0.93C240.79,84.37,253.22,80.2,231.77,81.85z"/>
	<path d="M568.1,87.41c1.48-1.07,3.42-3.3,1.96-3.3c-7.92,2.88-6.99,2.44-7.41,3.3C563.4,87.92,564.96,89.7,568.1,87.41z"/>
	<path d="M538.86,438.27c0.01-0.15-1.73-9.47-1.75-9.58C534.05,428.69,536.04,437.24,538.86,438.27z"/>
	<path d="M546.79,126.86c-3.76,3.45-4.61,3.71-8.14,6.18C542.64,133.95,546.61,130.13,546.79,126.86z"/>
	<path d="M196.14,431.57c-0.1,0.21-0.51,0.21-0.51,0.31c-2.14,3.75-8.17,7.79-6.38,9.06C191.33,439.51,196.14,434.66,196.14,431.57z
		"/>
	<path d="M528.76,434.77c-3.19,3.19-2.81,2.6-3.08,4.36c-0.81,0.23-0.73,0.82-0.63,1.51c0.81-0.21,0.82-0.81,0.72-1.53
		c3.15-2.98,4.09-3.82,1.54,3.8c0.84,0,1.03-0.15,3.4-6.9C530,435.49,529.38,435.18,528.76,434.77z"/>
	<path d="M553.89,434.46c0.41-0.51,0.31-1.34,0.51-2.06C543.36,442.06,548.11,443.33,553.89,434.46z"/>
	<path d="M595.8,162.28c-0.1,1.96,0.81,3.1,1.65,4.33c2.29,3.37,3.03,3.37,5.36,3.6C596.94,165.25,597.64,163.62,595.8,162.28z"/>
	<path d="M248.45,436.62c-1.67-1.67-1.18,3.04,1.65,7.83C249.89,441.77,249.69,438.99,248.45,436.62z"/>
	<path d="M579.64,99.26c-0.82-0.1-1.34-0.21-1.85-0.21C572.39,100.59,572.83,106.39,579.64,99.26z"/>
	<path d="M590.14,245.9c-0.1,3.09-1.85,6.08-0.93,9.37C590.45,253.42,590.45,253.42,590.14,245.9z"/>
	<path d="M257.41,428.69c1.34-0.61,1.44-0.93,1.24-2.78c-1.85,0.51-3.4,1.44-5.15,2.37C254.85,429.63,255.75,429.44,257.41,428.69z"
		/>
	<path d="M617.33,425.6c-1.54,0.62-3.19,1.34-5.25,2.47C615.87,430.06,618.87,427.32,617.33,425.6z"/>
	<path d="M210.25,89.99c0.6,1.53,4.01,8.24,5.66,8.24C215.33,97.02,211.88,89.99,210.25,89.99z"/>
	<path d="M607.44,436.41c-0.09-0.28-3.54-3.69,1.54,8.44C608.99,441.77,608.37,438.16,607.44,436.41z"/>
	<path d="M575.93,86.59c9.69-7.45,0.44-4.2-1.54,0.1C575.1,86.69,575.72,86.9,575.93,86.59z"/>
	<path d="M543.28,482.24c0.68-1.59-0.43-0.53,0.41-8.96C542.05,476.99,541.95,479.77,543.28,482.24z"/>
	<path d="M184.4,482.34c0-4.57-0.08-3.22,0.31-7.83C183.16,477.09,183.37,479.67,184.4,482.34z"/>
	<path d="M242.68,74.64c0.82-2.87-7.89-1.32-5.25,1.03C241.91,74.39,241.43,75.62,242.68,74.64z"/>
	<path d="M217.35,105.74c1.45,7.63,1.56,6.58,2.27,7.52C219.8,108.78,218.6,104.5,217.35,105.74z"/>
	<path d="M170.19,434.77c-2.57,2.37-4.74,4.63-4.84,8.14C169.5,434.59,170.75,438.12,170.19,434.77z"/>
	<path d="M611.04,480.18c0.31-0.21,0.62-0.31,0.62-0.51c0.77-7.32,0.9-5.56-0.03-6.61C610.83,475.3,610.54,477.74,611.04,480.18z"/>
	<path d="M611.66,472.97h-0.1C611.63,473.08,611.64,473.05,611.66,472.97z"/>
	<path d="M537.21,428.69c0.62-1.96,1.44-3.81,2.16-5.66C537.05,421.4,535.95,426.63,537.21,428.69z"/>
	<path d="M252.36,480.49c0.93-2.27,1.03-2.68,0.82-6.38C251.64,475.96,251.54,477.09,252.36,480.49z"/>
	<path d="M588.6,130.46c1.44-1.85,2.78-3.5,4.12-5.15C589.97,124.83,587.12,128.44,588.6,130.46z"/>
	<path d="M599.51,218.3c-1.96-0.82-3.91-1.54-6.59-0.93C595.19,219.23,597.35,218.71,599.51,218.3z"/>
	<path d="M591.48,207.8c-1.5,6.42,1.11,15.22,0.41,4.74C591.89,211.09,592.3,209.45,591.48,207.8z"/>
	<path d="M586.64,252.18c1.03-2.57,2.57-4.94,2.37-7.93C587.67,246.62,586.95,248.89,586.64,252.18z"/>
	<path d="M240.01,409.33c2.57,0.41,5.25,1.54,8.44,0.72C245.26,410.15,242.79,408.71,240.01,409.33z"/>
	<path d="M220.24,118.51c-0.21,1.65-0.51,3.19,0.93,4.53C222.29,120.57,222.09,119.44,220.24,118.51z"/>
	<path d="M587.36,216.14c-2.27-1.03-3.19-1.03-5.46,0.1C586.56,217.06,587.36,217.6,587.36,216.14z"/>
	<path d="M238.87,124.69c-4.77,0-6.85-0.41-6.49,1.03c2.27-0.21,4.43-0.51,6.59-0.72C238.98,124.9,238.87,124.8,238.87,124.69z"/>
	<path d="M553.38,410.36c-0.3,0.5-1.83,1.69,1.03,3.91C554.51,413.04,554.61,411.7,553.38,410.36z"/>
	<path d="M592.51,188.33c-1.13,3.19-1.13,3.19-0.51,5.25C593.02,191.73,593.13,190.19,592.51,188.33z"/>
	<path d="M547.3,233.13c-1.85,0-3.81,0-5.77,0C543.59,233.54,545.45,233.85,547.3,233.13z"/>
	<path d="M575.31,122.94c-0.31-0.21-0.93-0.21-1.96-0.41C579.47,128.64,578.23,125.28,575.31,122.94z"/>
	<path d="M555.54,162.59c0.62,1.34,1.54,2.06,3.81,2.37C557.08,162.49,557.08,162.59,555.54,162.59z"/>
	<path d="M534.94,175.15c0.62-2.27,0.62-2.27,0.31-3.81C534.32,172.48,533.81,173.4,534.94,175.15z"/>
	<path d="M194.28,410.87c-0.82,1.75-0.82,1.85,1.24,3.4C195.04,410.46,195.4,412.36,194.28,410.87z"/>
	<path d="M226.1,141.38c0.21-2.06,0.31-3.3-1.03-4.43C224.87,138.39,225.18,139.52,226.1,141.38z"/>
	<path d="M248.45,518.18c0,1.44,0,2.88,0,4.33C248.86,521.06,248.97,519.62,248.45,518.18z"/>
	<path d="M607.34,517.36c0,3.89-0.13,4.76,0.31,4.33C607.65,516.71,607.75,517.36,607.34,517.36z"/>
	<path d="M581.9,228.08c1.34,0.41,2.37,0.72,3.6,1.13c0-0.51,0.1-0.93-0.1-1.03C584.37,227.67,583.24,227.78,581.9,228.08z"/>
	<path d="M569.44,215.83c0,0.21,0,0.31-0.1,0.62c0.62,0.21,1.13,0.52,1.65,0.62c1.55,0.28,1.06-1.24,0.21-1.24
		C570.68,215.73,570.06,215.83,569.44,215.83z"/>
	<path d="M579.33,118.1c0,1.1-0.79,3,0.82,2.68C580.8,120.78,581.15,118.76,579.33,118.1z"/>
	<path d="M606.82,508.6c-0.72,1.24-0.82,2.37,0,4.22C606.82,510.97,606.82,509.84,606.82,508.6z"/>
	<path d="M582.42,128.71c-0.72-0.72-1.24-1.24-1.96-1.96C580.15,128.5,580.67,129.02,582.42,128.71z"/>
	<path d="M609.81,169.28c-0.82-0.93-1.85-1.13-3.4-0.72C608.47,169.59,608.47,169.59,609.81,169.28z"/>
	<path d="M583.14,167.12c-1.85,1.34-1.85,1.34-1.75,2.37C582.57,168.7,582.12,169.35,583.14,167.12z"/>
	<path d="M170.6,530.85c0.52-1.82,1.04-2.27,0.31-2.27C170.29,530.74,169.85,530.85,170.6,530.85z"/>
	<path d="M604.35,409.12c-1.65,0-2.78-0.1-4.02-0.1C602.19,409.95,602.19,409.95,604.35,409.12z"/>
	<path d="M247.83,512.72c0.21-1.44,0.51-2.57-0.21-4.12C247.22,510.15,247.01,511.28,247.83,512.72z"/>
	<path d="M561.41,165.78c1.14,0.29,2.06,0.75,2.06-0.51C560.81,164.82,561.75,165.1,561.41,165.78z"/>
	<path d="M587.87,163.62c-0.41-0.41-1.72,0.83-0.72,2.16C587.7,164.69,588.56,163.96,587.87,163.62z"/>
	<path d="M585.51,77.01c0.1,0,0.65-0.73-1.44-0.21C584.44,77.94,584.2,77.66,585.51,77.01z"/>
	<path d="M597.97,408.92c0.82,0,1.65,0,2.47,0C599.61,408.09,598.79,408.3,597.97,408.92z"/>
	<path d="M535.15,147.86c1.38-0.55,1,0.2,1.44-1.13C535.17,146.73,535.73,146.89,535.15,147.86z"/>
	<path d="M532.06,152.19c-0.82-0.41-1.13,0.1-1.44,0.72C531.44,153.42,531.75,152.81,532.06,152.19z"/>
	<path d="M587.87,107.6c0.21-0.21,0.51-0.41,0.72-0.62C588.6,105.77,587.1,106.67,587.87,107.6z"/>
	<path d="M623.2,170.93c-0.1,1.24-0.1,1.96-0.21,2.68C623.4,172.89,623.51,172.17,623.2,170.93z"/>
	<path d="M218.59,102.24c-0.78-0.78-0.63-1.23-1.54-0.31C217.79,102.68,217.16,102.96,218.59,102.24z"/>
	<path d="M606.51,410.15c0,0.14-0.2,0.1,1.34,0.1C607.85,409.83,607.98,410.15,606.51,410.15z"/>
	<path d="M544.21,467.1c0-0.51,0.22-0.93,0-0.93C544.21,466.69,543.99,467.1,544.21,467.1z"/>
	<path d="M580.25,66.82c-0.76,0.38-0.44-0.66-0.82,1.24C579.86,67.62,580.25,67.61,580.25,66.82z"/>
	<path d="M605.07,217.75c1.17,0,1.16-0.43,0-0.43C603.9,217.31,603.91,217.75,605.07,217.75z"/>
	<path d="M571.91,79.48c-0.43,0.85-0.43,0.38,0,1.24C572.27,80.19,572.67,79.86,571.91,79.48z"/>
	<path d="M229.19,106.88c-0.77,0.77-0.21,0.93-0.1,1.03C229.66,107.06,230.02,107.08,229.19,106.88z"/>
	<path d="M589.11,242.3c0,0.82,0,1.44,0,2.06C589.73,243.84,589.93,243.22,589.11,242.3z"/>
	<path d="M220.13,114.19c-0.98-1.47-0.5-0.89-0.31,1.24C220.03,114.6,220.24,114.39,220.13,114.19z"/>
	<path d="M524.54,113.67c0.51,0.26,0.76,0.6,1.13-0.51c0-0.1-0.31-0.21-0.51-0.41C524.95,113.06,524.75,113.36,524.54,113.67z"/>
	<path d="M515.69,149.92c0.51-0.62,0.31-1.13-0.1-1.65C514.96,148.79,515.07,149.3,515.69,149.92z"/>
	<path d="M524.85,442.08c0.1-0.62,0.21-1.03,0.21-1.44C524.34,440.84,524.23,441.25,524.85,442.08z"/>
	<path d="M165.15,443.18c-0.01-0.01-0.01-0.03-0.01-0.07C165.14,443.26,165.14,443.26,165.15,443.18z"/>
	<path d="M165.24,442.8c-0.05,0.15-0.07,0.3-0.09,0.38C165.18,443.21,165.24,443.04,165.24,442.8z"/>
	<path d="M192.53,406.86c0.36-0.73,0.43-0.37,0.1-1.03C192.64,406.01,192.53,405.71,192.53,406.86z"/>
	<path d="M551.63,405.11c-0.1,0.41-0.1,0.72-0.21,1.03C551.83,405.93,552.04,405.62,551.63,405.11z"/>
	<path d="M185.22,467.31c0.38-0.38,0.1-0.42,0.1-0.62C184.93,467.08,185.22,467.08,185.22,467.31z"/>
	<path d="M609.81,484.09c-0.16,0.16-0.1,0.35-0.1,0.51C609.71,484.56,609.81,484.56,609.81,484.09z"/>
	<path d="M250.82,485.02c0-0.39,0.04-0.43-0.1,0H250.82z"/>
	<path d="M529.79,528.37c0,0.31-0.1,0.72-0.21,1.03C529.9,529.1,530.31,528.89,529.79,528.37z"/>
	<path d="M529.48,529.3c0,0.31-0.1,0.62,0,0.41C529.48,529.63,529.48,529.47,529.48,529.3z"/>
	<path d="M214.98,123.15l0.1-0.1C214.85,123.04,214.89,122.93,214.98,123.15z"/>
	<path d="M214.16,122.84c0.13,0-0.22-0.02,0.75,0.18C214.62,122.47,214.52,122.66,214.16,122.84z"/>
	<path d="M592.82,125.41c0.31-0.1,0.72-0.1,1.44-0.21C593.44,124.59,592.92,124.49,592.82,125.41z"/>
	<path d="M579.33,215.42c0-0.27,0.08-0.23-0.31-0.1L579.33,215.42z"/>
	<path d="M590.86,219.64c0.26-0.39,0.27-0.31,0-0.31V219.64z"/>
	<path d="M593.44,69.19c-0.57-0.19-0.62-0.1-0.82,0.1C593.14,69.82,593.23,69.6,593.44,69.19z"/>
	<path d="M591.07,105.54c0.54-0.13,0.5-0.08,0.1-0.21L591.07,105.54z"/>
	<path d="M549.15,561.12v-0.1C549.02,561.02,549.02,560.99,549.15,561.12z"/>
	<path d="M216.22,98.64c-0.1-0.21-0.31-0.31-0.41-0.41C215.81,98.43,215.6,98.84,216.22,98.64z"/>
	<path d="M575.41,75.37c-0.16-0.16-0.14-0.37-0.51,0C575,75.58,575.09,75.69,575.41,75.37z"/>
	<path d="M195.42,414.38c0.1,0.1,0.21,0.1,0.31,0.21C195.62,414.38,195.62,414.38,195.42,414.38z"/>
	<path d="M583.76,130.67C583.45,130.36,583.76,130.77,583.76,130.67L583.76,130.67z"/>
	<path d="M577.68,126.13l0.1,0.1C577.78,125.98,577.82,126,577.68,126.13z"/>
	<path d="M153.3,212.33c-1.24,2.57-0.56,4.44,0.1,6.28c2.09,5.78,3.11,3.12,7.93,8.14c1.38,1.44,7.7,5.54-2.06-4.22
		C154.35,217.61,156.2,215.23,153.3,212.33z"/>
	<path d="M192.43,384.2c2.43-7.29,2.56-9.96,6.08-17.71c4.96-10.93,7.9-11.81,7.54-13.87C202.78,353.55,191.3,374.79,192.43,384.2z"
		/>
	<path d="M206.02,352.59l0.01,0.01v0.01c0.1,0,0.1,0.24,0.1-0.08C206.02,352.59,206.02,352.37,206.02,352.59z"/>
	<path d="M173.38,165.37c2.47-3.03,9.66-3.06,11.02-12.56c-17.56,18.09-5.48,5.72-14.93,13.28
		C171.32,166.4,172.54,166.39,173.38,165.37z"/>
	<path d="M160.71,239.62c-3.47-8.16-1.8-11.24-3.5-13.8C155.81,235.27,160.71,242.57,160.71,239.62z"/>
	<path d="M233.21,361.55c-0.3-3.35-4.55-10.71-4.84-15.34C225.69,347.91,232.87,361.55,233.21,361.55z"/>
	<path d="M164.63,122.32c2.27-2.06,5.25-3.09,7.31-5.35C170.98,114.1,165.56,118.18,164.63,122.32z"/>
	<path d="M174.31,293.37c2.06,3.4,2.47,3.71,4.53,2.99c-1.34-1.44-1.75-3.4-3.3-5.05C175.03,292.24,174.61,292.86,174.31,293.37z"/>
	<path d="M214.57,362.89c-2.83,15.09-1.23,10.61,1.03,1.24C215.7,363.5,215.4,362.89,214.57,362.89z"/>
	<path d="M195.83,264.95c2.06,0.72,3.71-0.62,5.46-0.82C198.2,263.82,198.2,263.82,195.83,264.95z"/>
	<path d="M228.27,268.56c-0.29,0-0.21-0.6-0.21,5.46C228.36,274.01,228.27,275.24,228.27,268.56z"/>
	<path d="M214.98,265.05c-1.54-0.21-2.68-0.21-3.71-0.31C213.03,265.78,213.03,265.78,214.98,265.05z"/>
	<path d="M161.23,127.27c-1.34,0.62-1.24,1.65-0.93,3.4C161.02,129.33,161.95,128.5,161.23,127.27z"/>
	<path d="M191.3,319.02c-1.54-0.31-2.47-0.21-3.3,1.03C189.34,320.56,190.16,320.15,191.3,319.02z"/>
	<path d="M160.3,242.19c0.41,1.13,0.41,2.06,1.65,2.99C161.54,242.91,161.54,242.91,160.3,242.19z"/>
	<path d="M182.44,319.43c1.03-0.72,1.13-1.54,0.62-2.57C181.93,318.19,181.93,318.19,182.44,319.43z"/>
	<path d="M182.13,312.73c1.24-1.54,1.24-1.54,0-2.37C182.13,311.09,182.13,311.6,182.13,312.73z"/>
	<path d="M227.75,376.07c0.1,1.29,0.59,2.47,1.53,3.47C229.26,378.19,228.92,376.94,227.75,376.07z"/>
	<path d="M224.15,382.04l-0.1,0.1C224.18,382.4,224.15,382.31,224.15,382.04z"/>
	<path d="M224.66,383.28c0-0.12-0.88-2.47-0.41,1.24c0.1,0.31,0.51,0.72,0.72,1.03C224.77,384.82,224.77,384,224.66,383.28z"/>
	<path d="M181.72,306.45c-0.29,1.29-0.72,1.33,0.1,2.16C182.22,307.82,182.55,308.12,181.72,306.45z"/>
	<path d="M225.69,388.53c-0.23-0.15-0.15-0.19-0.1,0.1L225.69,388.53z"/>
	<path d="M225.54,388.41c-0.21-0.88-0.47-1.81-0.67-2.77C224.96,386.62,224.53,387.68,225.54,388.41z"/>
	<path d="M248.19,344.36c0.41,1.05,1.12,1.52,2.32,1.33C249.82,345.1,249.22,344.42,248.19,344.36z"/>
	<path d="M197.68,313.25c-0.93,0.82-0.93,1.54-0.1,2.47C197.58,314.79,197.58,314.18,197.68,313.25z"/>
	<path d="M182.34,313.87c-0.16,0.49-0.84,0.71,0,1.54C182.87,314.61,183.49,314.63,182.34,313.87z"/>
	<path d="M169.98,356.5c0,1.66,0.13,1.44,0.41,1.44C170.39,356.25,170.25,356.5,169.98,356.5z"/>
	<path d="M156.39,161.46c0-0.72,0-1.44-1.13-1.85C155.25,160.63,155.15,161.35,156.39,161.46z"/>
	<path d="M223.22,379.05c0.2,0.9-0.16,2.07,0.73,2.8C223.99,380.88,224.28,379.83,223.22,379.05z"/>
	<path d="M223.94,382.04l0.1-0.1C223.96,381.87,223.94,381.77,223.94,382.04z"/>
	<path d="M206.14,352.53c0.94-0.34,1.33-1.23,1.33-2.2C206.59,350.81,206.1,351.5,206.14,352.53z"/>
	<path d="M189.75,312.84c0.38-1.15,0.49-0.64-0.21-1.34C189.55,312.72,189.38,312.47,189.75,312.84z"/>
	<path d="M225.8,390.07c0.59,0,0.36-0.2-0.21-1.34C225.69,389.04,225.69,389.56,225.8,390.07z"/>
	<path d="M192.22,385.54c0-1.3,0.37-2.41-0.21-0.1C192.02,385.54,192.12,385.54,192.22,385.54z"/>
	<path d="M170.91,360.93c0.18,0,0.21-0.36,0.21-0.93C170.93,360,170.91,360.36,170.91,360.93z"/>
	<path d="M171.22,201.41c0.11,0.11,0.62,0.24,0.62-0.21c-0.21-0.1-0.41-0.31-0.51-0.31C171.32,201.1,171.11,201.41,171.22,201.41z"
		/>
	<path d="M167.1,166.09c0.21,0.21,0.31,1.02,0.93-0.21C167.7,165.56,167.2,165.99,167.1,166.09z"/>
	<path d="M222.6,376.85c-0.02,0.78-0.14,1.62,0.72,2.1C223.22,378.26,223.5,377.38,222.6,376.85z"/>
	<path d="M222.5,376.68c0,0.1-0.02,0.1,0.1,0.16C222.6,376.65,222.63,376.68,222.5,376.68z"/>
	<path d="M234.03,262.99c-0.43,0.85-0.43,0.38,0,1.24C234.63,263.63,234.51,263.23,234.03,262.99z"/>
	<path d="M230.64,263.82c0-1.34-0.62-0.72-0.62-0.62C230.02,264.79,230.72,263.98,230.64,263.82z"/>
	<path d="M233.11,361.65c0,0.66,0.11,1.39,0.67,1.99C233.7,362.95,233.92,362.1,233.11,361.65z"/>
	<path d="M233.81,363.83c-0.1,0.1-0.13,0.04,0.12,0.29C233.75,363.59,233.75,363.51,233.81,363.83z"/>
	<path d="M227.86,375.96c-0.03-0.01-0.05-0.03-0.08-0.04C227.73,376.13,227.74,376.08,227.86,375.96z"/>
	<path d="M227.03,374.52c0,0.49,0.01,1.08,0.74,1.4C227.87,375.26,227.9,374.72,227.03,374.52z"/>
	<path d="M233.93,364.12C233.97,364.26,233.99,364.32,233.93,364.12L233.93,364.12z"/>
	<path d="M230.02,381.32c0.1,0.1,0.1,0.31,0.31,0.51c0,0.1,0.21,0.1,0.31,0.21C230.57,381.98,230.67,381.64,230.02,381.32z"/>
	<path d="M208.39,349.7c0.21-0.51,0.41-1.03,0.62-1.54C211.01,346.82,208.84,347,208.39,349.7z"/>
	<path d="M230.12,381.22c-0.05-0.02-0.08-0.04-0.12-0.07C230.03,381.35,229.97,381.36,230.12,381.22z"/>
	<path d="M229.3,379.77l0.01-0.01c0.35,2.32,1.23,1.03-0.02-0.23C229.29,379.62,229.3,379.69,229.3,379.77z"/>
	<path d="M190.68,316.96c-0.25,0-0.31,0.23-0.31,0.41C191.05,317.37,190.68,317.15,190.68,316.96z"/>
	<path d="M173.89,116.76l-0.31-0.1C173.45,116.8,173.39,116.76,173.89,116.76z"/>
	<path d="M153.3,157.03c0-0.59-1.11,0.06,0,0.62C153.3,157.54,153.3,157.34,153.3,157.03z"/>
	<path d="M227.13,263.41c-0.39,0.13-0.41,0.07,0,0.21V263.41z"/>
	<path d="M174,287.2c-0.28,0.28,0.06,0.44,0.41,0.62C174.2,287.71,174.1,287.4,174,287.2z"/>
	<path d="M165.24,231.69c-0.1-0.21-0.21-0.41-0.21-0.62C164.63,231.07,164.91,232.02,165.24,231.69z"/>
	<path d="M169.16,239.82c-0.07-0.07-0.13-0.13-0.21-0.21C168.95,239.88,168.9,239.82,169.16,239.82z"/>
	<path d="M250.5,345.9c0,0.35,0.2,0.53,0.63,0.61C250.86,346.34,250.68,346.14,250.5,345.9z"/>
	<path d="M250.41,345.79c0.03,0.04,0.06,0.07,0.09,0.11C250.5,345.64,250.55,345.64,250.41,345.79z"/>
	<path d="M209.83,347.34l0.1,0.1C209.94,347.18,209.97,347.2,209.83,347.34z"/>
	<path d="M251.34,346.72c0,0-0.1-0.1-0.31-0.1C251.13,346.61,251.23,346.72,251.34,346.72z"/>
	<path d="M207.47,350.43c0.18-0.26,0.42-0.45,0.68-0.7C207.73,349.79,207.55,349.99,207.47,350.43z"/>
	<path d="M208.29,349.6c-0.05,0.05-0.09,0.08-0.14,0.12C208.45,349.69,208.43,349.74,208.29,349.6z"/>
	<path d="M156.28,161.46l0.21,0.21C156.37,161.42,156.41,161.46,156.28,161.46z"/>
	<path d="M174.31,287.92C174.72,288.23,174.41,287.81,174.31,287.92L174.31,287.92z"/>
	<path d="M153.61,157.85c-0.1-0.1-0.21-0.1-0.31-0.1C153.4,157.75,153.5,157.85,153.61,157.85z"/>
	<path d="M164.63,122.22l-0.1,0.21C164.65,122.3,164.63,122.35,164.63,122.22z"/>
	<path d="M231.56,236.53c4.28-1.98-0.51-26.46-0.51-0.51C231.05,236.12,231.36,236.32,231.56,236.53z"/>
	<path d="M227.24,168.46c-1.34,1.85-2.78,3.71-4.53,6.08C228.26,171.94,229.35,168.99,227.24,168.46z"/>
	<path d="M230.43,256.51c1.54-3.71,0.93-6.9,0.82-9.89C230.95,249.71,229.4,252.59,230.43,256.51z"/>
	<path d="M228.37,216.86c0.2-0.3,0.05-1.13-1.85-1.13c-5.92,0-5.15-0.17-5.15,0.51C227.44,217.46,227.69,217.88,228.37,216.86z"/>
	<path d="M241.76,218.3c-6.79-1.07-7.21-1.32-7.21,0C237.02,219.54,239.49,219.64,241.76,218.3z"/>
	<path d="M232.59,207.69c-0.82,3.71-0.51,6.59,0.1,9.37C232.9,214.29,233.42,211.4,232.59,207.69z"/>
	<path d="M192.74,175.15c-1.13-1.03-2.16-1.85-4.22-2.37C190.16,175.26,190.16,175.26,192.74,175.15z"/>
	<path d="M233.52,189.16c-0.51,1.44-1.54,2.78-0.72,4.63C234.34,192.35,233.93,190.7,233.52,189.16z"/>
	<path d="M185.53,233.85c2.27,0.93,4.43,0.31,6.59,0c-2.44,0-5.43,0-6.38,0C185.65,233.85,185.58,233.85,185.53,233.85z"/>
	<path d="M230.53,241.99c-0.82,2.16-1.44,3.6-1.24,5.25C230.64,246,230.74,244.36,230.53,241.99z"/>
	<path d="M227.86,251.68c1.35-1.23,1.64-2.73,1.44-4.44C228.21,248.53,227.79,250.01,227.86,251.68z"/>
	<path d="M227.75,251.77l0.1,0.1C227.86,251.6,227.89,251.67,227.75,251.77z"/>
	<path d="M224.05,228.7c0.93,0.51,1.75,0.93,2.78,0.21C225.9,228.08,224.97,228.29,224.05,228.7z"/>
	<path d="M210.66,217.07c1.03,0,1.85,0,3.3,0C211.89,216.34,211.89,216.34,210.66,217.07z"/>
	<path d="M196.86,177.01c0.11,0.04,3.5,0.45,0.31-0.62c-0.21-0.1-0.41,0.1-0.62,0.1C196.65,176.7,196.76,177.01,196.86,177.01z"/>
	<path d="M254.32,178.45c-0.62-0.41-1.24-0.51-1.85,0.1C253.09,178.76,253.7,179.27,254.32,178.45z"/>
	<path d="M189.86,188.23c-0.41-0.51-0.72-1.34-1.65-0.72C188.62,188.13,188.93,188.85,189.86,188.23z"/>
	<path d="M232.18,219.95c0-0.63-0.31-0.21-0.31-0.1c0,0.1,0.1,0.21,0.1,0.31C232.08,220.16,232.08,220.05,232.18,219.95z"/>
	<path d="M246.7,217.48c-1.46,0-1.24-0.1-1.24,0.31C246.92,217.79,246.7,217.89,246.7,217.48z"/>
	<path d="M248.66,179.17c-0.57-0.57,0.01-0.46-1.75-0.21C248.31,179.67,247.84,179.58,248.66,179.17z"/>
	<path d="M205.51,177.89c1.17,0,1.16-0.43,0-0.43C204.34,177.46,204.35,177.89,205.51,177.89z"/>
	<path d="M227.24,252.28c0,0.17,0.51,0.81,0.51,0.21C227.75,251.67,227.89,251.63,227.24,252.28z"/>
	<path d="M183.78,185.97c0.27-0.13,0.26-0.08,0-0.21V185.97z"/>
	<path d="M274.92,280.91c-0.41,0.1-0.72,0.1-0.82,0.21C271.23,288.29,275.81,284.47,274.92,280.91z"/>
	<path d="M274.61,288.95c-1.34,2.47-1.34,2.47-1.24,4.02C274.81,291.83,274.81,291.83,274.61,288.95z"/>
	<path d="M275.02,214.7c1.13-0.21,2.16-0.62,2.78-1.85C275.77,212.38,274.02,213.69,275.02,214.7z"/>
	<path d="M273.68,309.64c0.31-0.31,0.51-0.51,0.93-0.93c-0.41-0.41-0.62-0.82-0.93-0.82C273.2,307.89,272.56,308.53,273.68,309.64z"
		/>
	<path d="M283.67,232.51c0.5-0.76,0.76-0.93,0-1.44C282.87,231.87,282.8,231.64,283.67,232.51z"/>
	<path d="M274.71,168.56c-0.55,0.42-0.96,0.3-0.21,1.44C275.19,169.77,275.06,170.29,274.71,168.56z"/>
	<path d="M280.17,211.5c0-0.35-0.64-0.09-0.82,0C279.48,211.64,279.51,211.83,280.17,211.5z"/>
	<path d="M273.17,304.6c0,0.33,0.41,0.39,0.41-0.31C273.58,303.96,273.17,303.9,273.17,304.6z"/>
	<path d="M230.02,287.09l0.1,0.1C230.08,286.94,230.23,286.99,230.02,287.09z"/>
	<path d="M235.27,279.57c-5.9,6.23-5.97,8.51-4.22,6.69c1.34-1.65,2.59-3.38,4.12-4.84c10.81-10.3,22.82,5.81,25.33,21.32
		c2.55,15.76-4.83,28.01-4.86,28.11c0.67,0,10.47-10.7,5.38-32.03C255.78,276.92,241.21,273.3,235.27,279.57z"/>
	<path d="M244.33,314.25c0,0.3,0,0.33,0,0.63c2.36-0.49,0.52-1.12,0.82-1.42c1.69-3.8,2.63-7.65-0.1-12.05
		c-3.04-4.9-8.78-0.5-9.37,0.72c-2.12,4.37-1.11,12.03,3.4,13.9c1.57,0.65,4.56,0.7,5.22-1.06
		C243.37,314.75,243.22,314.95,244.33,314.25z M238.45,303.76c-0.16,0.11-0.2,0.19-0.2,0.08
		C238.39,303.65,238.31,303.62,238.45,303.76z M236.4,310.78c0-0.37-0.03-0.31,0.1-0.31L236.4,310.78z M237.64,312.73
		c-1.3-1.3,0.5,0.62,4.12,2.88C239.49,315.31,237.95,314.79,237.64,312.73z M238.26,303.86c-0.06,7.66,0.84,1.71,0.93,1.36
		c0.48-0.96,1.75-0.59,2.06-0.1c0.64,1.01,0.43,2.35,0.21,5.25c3.53-3.2,2.77-9.84-2.99-6.6c1.42-8.53,10.15,0.98,5.77,7.84
		C240.18,317,235.68,307.86,238.26,303.86z"/>
	<path d="M251.85,333.74c-1.2,0.68-4.53,1.85-6.8,1.85C247.68,336.47,250.93,335.92,251.85,333.74z"/>
	<path d="M227.13,298.42c0-0.17,0.05-0.18-0.1-0.1L227.13,298.42z"/>
	<path d="M228.58,290.9c-1.22,2.32-1.34,4.84-1.43,7.36C227.71,297.98,228.56,291.01,228.58,290.9z"/>
	<path d="M251.95,333.85c1.29-0.2,2.29-0.89,2.82-2.22C253.51,331.94,252.45,332.47,251.95,333.85z"/>
	<path d="M254.84,331.48c-0.02,0.05-0.04,0.09-0.06,0.14C254.99,331.58,254.95,331.59,254.84,331.48z"/>
	<path d="M228.65,290.82c0.98-1.01,1.57-2.22,1.37-3.73C228.83,288.08,228.41,289.36,228.65,290.82z"/>
	<path d="M228.58,290.9l0.1,0.1C228.65,290.82,228.66,290.77,228.58,290.9z"/>
	<path d="M241.04,335.18c2.15,0.62,2.27,0.79,2.27,0.21C241.01,334.73,241.04,334.62,241.04,335.18z"/>
	<path d="M227.55,312.63c-0.51,0.89-0.56,1.93,0.21,3.09C227.75,314.15,228.09,314.8,227.55,312.63z"/>
	<path d="M226.52,303.67c0.41,0,0.31,0.32,0.31-1.75C226.11,301.92,226.52,301.73,226.52,303.67z"/>
	<path d="M226.21,307.07c-0.1-0.1-0.1-0.21-0.1-0.31C225.81,307.36,225.78,307.92,226.21,307.07z"/>
	<path d="M244.3,314.97l0.04,0.03c0-0.03,0.08-0.01,0.1,0l-0.1-0.1C244.31,314.86,244.2,314.86,244.3,314.97z"/>
	<path d="M227.65,315.82h0.21C227.73,315.69,227.78,315.69,227.65,315.82z"/>
	<path d="M240.11,298.01c0.13,0.27,0.08,0.26,0.21,0H240.11z"/>
	<path d="M254.94,331.58c0.38,0,0.66-0.28,0.7-0.72C255.14,330.82,254.94,331.11,254.94,331.58z"/>
	<path d="M155.87,324.06c1.53-2.04,1.43-11.55-0.82-16.06c-1.63-2.44-5.31,1.45-1.96,14.52
		C153.44,324.59,155.18,325.1,155.87,324.06z M153.81,317.16c-0.62-2.27-0.31-4.53,0.31-6.9c0.21,0.31,0.62,0.62,0.51,0.72
		C153.81,313.04,154.22,315.1,153.81,317.16z M154.33,321.59c0-0.72-0.1-1.24-0.21-1.96C155.56,320.46,155.56,320.66,154.33,321.59z
		"/>
	<path d="M155.67,342.08l-0.1,0.1C155.69,342.23,155.67,342.24,155.67,342.08z"/>
	<path d="M156.7,342.6c-1.15-0.38-1.03-0.51-1.03-0.21c0.41,1.85,0.51,1.96,2.27,1.24C157.93,341.14,158.25,340.65,156.7,342.6z"/>
	<path d="M153.3,286.47c0.16-0.16,0.12-1.19-0.82-0.72c-0.21,0.1-0.41,0.41-0.31,0.62C152.47,287.2,152.89,286.58,153.3,286.47z"/>
	<path d="M155.36,341.88c0,0.1,0.1,0.21,0.31,0.1C155.56,341.98,155.46,341.88,155.36,341.88z"/>
	<path d="M551.93,382.45c2.4-10.16,6.26-19.54,12.25-28.11c6.38-9.13-6.88,3.41-12.15,22.45
		C550.82,381.19,551.27,385.27,551.93,382.45z"/>
	<path d="M565.73,351.15c0-0.18,0.1-0.2-0.1-0.1C565.63,351.15,565.61,351.23,565.73,351.15z"/>
	<path d="M530.62,271.03c-7.31,27.29-6.03,34.47-4.43,24.92C529.9,273.86,532.4,275.18,530.62,271.03z"/>
	<path d="M545.65,266.29c-2.87,4.2-5.43,8.46-5.77,16.06c2.47-5.25,5.05-10.5,7.52-15.86C545.96,265.98,545.86,265.98,545.65,266.29
		z"/>
	<path d="M562.85,263.92c-2.16,4.33-0.78,20.07-0.62,20.39C563.47,279.78,563.98,268.86,562.85,263.92z"/>
	<path d="M608.57,345.07c-0.2-1.59-8.32-6.19-14.62-13.18c-0.46-0.51-2.3-2.27-3.5-2.27C592.71,334.15,607.02,345.07,608.57,345.07z
		"/>
	<path d="M567.38,272.37c1.3,6.07,1.08,5.78,2.06,8.24C569.05,263.22,565.29,262.59,567.38,272.37z"/>
	<path d="M523.92,349.6c1.25-5.93-1.02,1.14-0.31-19.46C522.43,333.68,522.59,346.1,523.92,349.6z"/>
	<path d="M589.93,355.06c-1.2-2.96-2.68-5.87-3.09-9.27C584.36,349.93,594.77,367.04,589.93,355.06z"/>
	<path d="M523.72,330.24c0.8-6.67,0.97-3.21,1.96-14.11C525.67,314.79,523.72,312.87,523.72,330.24z"/>
	<path d="M587.26,335.29c0.21-0.41,0.72-0.72,0.72-0.82c-1.39-6.48,1.52-9.68-0.93-9.68C586.1,330,585.68,327,587.26,335.29z"/>
	<path d="M587.26,274.12c0-7.09,0.09-5.99-0.21-6.28C587.05,274.81,586.96,274.12,587.26,274.12z"/>
	<path d="M560.07,262.99c-2.06,0.41-3.6,0.72-5.15,1.03C557.6,264.75,557.6,264.75,560.07,262.99z"/>
	<path d="M587.44,377.24c-0.15-1.95-0.87-3.6-2.24-4.98C585.39,374.14,586.19,375.74,587.44,377.24z"/>
	<path d="M587.57,377.42c0,0,0,0-0.01-0.01c0-0.1,0.07-0.15-0.03-0.05c-0.14-0.14-0.06-0.19-0.06,0.16l0.04-0.05
		c0.02,0.02,0.02,0.03,0.03,0.04C587.53,377.49,587.52,377.46,587.57,377.42z"/>
	<path d="M587.53,377.51C587.54,377.53,587.55,377.53,587.53,377.51L587.53,377.51z"/>
	<path d="M570.68,264.75c1.34,0.72,2.57,0.72,3.91,0C573.35,264.75,572.02,264.75,570.68,264.75z"/>
	<path d="M538.86,260.21c-0.62,1.75-0.62,3.3,0.1,5.15C539.58,263.51,539.68,262.07,538.86,260.21z"/>
	<path d="M592.78,362.85c-0.2-1.26-0.44-2.5-1.5-3.47C591.17,360.76,591.74,361.86,592.78,362.85z"/>
	<path d="M581.57,375.79c-0.31-1.41-0.72-2.73-1.63-3.74C581.16,376.31,579.99,376.21,581.57,375.79z"/>
	<path d="M587.55,377.52c-0.1,1.36,0.59,2.4,1.33,3.42C588.83,379.65,588.44,378.47,587.55,377.52z"/>
	<path d="M582.83,382.14c0.3,1.09-0.06,2.36,0.82,3.37C583.65,382.5,583.52,383.18,582.83,382.14z"/>
	<path d="M583.76,385.64c-0.14-0.14-0.1-0.25-0.1,0.1L583.76,385.64z"/>
	<path d="M529.69,358.46c-0.21-0.82-0.31-1.75-0.41-2.99C528.97,356.71,528.76,357.63,529.69,358.46z"/>
	<path d="M558.52,260.73c0-0.57-0.82-0.1-0.82,0C557.7,262.64,558.69,261.57,558.52,260.73z"/>
	<path d="M545.96,288.12c-0.51,0.72-0.51,1.34-0.51,2.06C546.06,289.67,546.27,289.15,545.96,288.12z"/>
	<path d="M567.07,348.78c-0.68,0.68-1.25,1.28-1.32,2.2C566.68,350.55,566.97,349.76,567.07,348.78z"/>
	<path d="M610.84,346.41c-0.14,0-0.24-0.09,0,0.1V346.41z"/>
	<path d="M610.69,346.39c-0.65-0.53-1.16-1.32-2.22-1.22C609.06,345.96,609.75,346.36,610.69,346.39z"/>
	<path d="M583.96,330.65c-2.16,2.16-2.05,1.7-1.65,1.65C583.03,332.3,583.76,332.09,583.96,330.65z"/>
	<path d="M582.31,378.85c-0.1-0.9-0.01-1.98-0.66-2.88c0,0,0-0.06,0.04-0.21c-0.12,0.03-0.15,0.02-0.1,0.1
		c0.06,0.06,0.06,0.11,0.06,0.1C581.47,377.03,581.35,378.08,582.31,378.85z"/>
	<path d="M583.03,381.94c-0.08-0.06-0.1-0.22-0.1,0.1L583.03,381.94z"/>
	<path d="M582.21,378.95c0.1,0.99-0.07,2.07,0.73,2.88C582.99,380.85,583.36,379.72,582.21,378.95z"/>
	<path d="M592.92,262.58c-0.07,0.27-0.24,1.1,0.1,1.44C593.74,262.96,593.37,263.03,592.92,262.58z"/>
	<path d="M584.68,387.7c-0.41-0.93-0.72-1.44-0.93-1.96C583.96,386.16,583.55,386.88,584.68,387.7z"/>
	<path d="M551.32,384.92c0-1.76,0.08-2.35-0.31,0C551.11,384.92,551.21,384.92,551.32,384.92z"/>
	<path d="M529.59,358.56c0.1,0.51,0.21,1.03,0.31,1.65C530.41,359.49,529.79,359.08,529.59,358.56z"/>
	<path d="M589.62,264.02c0-1.46-0.15-1.29-0.62-1.13C589.01,264.57,589.19,263.81,589.62,264.02z"/>
	<path d="M572.32,372.57c0-0.8,0.1-1.4,0.1-1.91c0.31-0.48,0.99-2.79,1.96-7.26c0.1-0.31-0.41-0.72-0.72-1.34
		c-1.17,5.28-1.58,8.37-1.37,8.66C571.82,371.13,571.85,371.72,572.32,372.57z"/>
	<path d="M585.3,372.15c-0.04-0.01-0.06-0.02-0.1-0.03C585.2,372.3,585.17,372.28,585.3,372.15z"/>
	<path d="M584.48,370.71c0,0.59-0.08,1.18,0.72,1.41C585.21,371.54,585.24,370.91,584.48,370.71z"/>
	<path d="M593.33,363.92c-0.1-0.1-0.1-0.21-0.1-0.31c-0.2-0.4-0.33-0.55-0.38-0.55c0.02-0.02,0.04-0.04,0.07-0.07
		c-0.05-0.04-0.09-0.09-0.14-0.13c0.03,0.23,0.03,0.25,0.07,0.21C592.78,363.08,592.92,363.51,593.33,363.92z"/>
	<path d="M583.65,369.27c0.1,0.49,0.02,1.17,0.74,1.41C584.48,370.02,584.42,369.47,583.65,369.27z"/>
	<path d="M584.39,370.68c-0.01,0.04-0.01,0.09-0.02,0.13C584.49,370.7,584.5,370.72,584.39,370.68z"/>
	<path d="M583.03,367.62c-0.1,0.69-0.09,1.29,0.73,1.42c0,0,0.01,0.03-0.01,0.12l0.1-0.1c-0.08,0-0.09-0.02-0.09-0.02
		C583.84,368.47,583.7,367.91,583.03,367.62z"/>
	<path d="M586.14,338.05c-0.03,0.07-0.07,0.19-0.12,0.33C586.11,338.09,586.3,337.89,586.14,338.05z"/>
	<path d="M586.12,338.07c0.01-0.01,0.01-0.01,0.02-0.02C586.18,337.97,586.18,337.95,586.12,338.07z"/>
	<path d="M584.89,389.45c-0.15,0.15,0.1,0.47,0.1,0.1c-0.1-0.1-0.1-0.21,0-0.31C584.99,389.25,584.89,389.35,584.89,389.45z"/>
	<path d="M589.06,381.26c-0.02-0.05-0.13-0.26-0.18-0.32C588.88,381.24,588.9,381.23,589.06,381.26z"/>
	<path d="M589.06,381.26c0.09,0.28,0.19,0.63,0.36,1.5C589.51,381.75,589.44,381.4,589.06,381.26z"/>
	<path d="M560.28,261.86c0.11-0.11,0.04-0.56-0.41-0.1C559.86,262.09,560.28,262.07,560.28,261.86z"/>
	<path d="M586.33,263.51c-0.1-0.1-0.1-0.21-0.1-0.31C585.94,263.2,585.66,263.51,586.33,263.51z"/>
	<path d="M614.44,267.01c-0.21,0-0.41-0.1-0.72-0.1C613.93,266.91,614.24,267.01,614.44,267.01z"/>
	<path d="M545.14,291.11c0-0.13,0.21-0.31,0.21-1.03C545.04,290.69,544.71,290.25,545.14,291.11z"/>
	<path d="M568.72,346.51l0.1-0.1C568.56,346.54,568.57,346.51,568.72,346.51z"/>
	<path d="M567.18,348.88c0.07-0.07,0.13-0.13,0.21-0.21C567.28,348.78,567.18,348.78,567.18,348.88z"/>
	<path d="M581.59,333.12c0.08-0.26,0.31-0.5,0.49-0.76C581.72,332.49,581.51,332.69,581.59,333.12z"/>
	<path d="M581.49,333.02c-0.21,0.31-0.51,0.51-0.62,0.82C581.71,333.01,581.63,333.16,581.49,333.02z"/>
	<path d="M580.77,333.85l-0.1,0.1C580.92,333.82,580.92,333.85,580.77,333.85z"/>
	<path d="M655.33,108.94c-21.52,5.74-18.48,4.79-20.29,5.56c0.51,0.51,0.72,1.03,1.03,1.13
		C640.22,117.71,659.24,108.94,655.33,108.94z"/>
	<path d="M676.54,78.04c-1.03-0.12-2.06,0.1-2.47,1.65C682.18,83.17,697.57,80.45,676.54,78.04z"/>
	<path d="M658.21,107.6c2.68,0.41,4.53-0.41,6.38-2.16C661.81,105.33,659.86,105.95,658.21,107.6z"/>
	<path d="M631.33,107.7c0.93-1.44,1.44-2.16,1.96-2.99C630.88,104.03,631.33,105.2,631.33,107.7z"/>
	<path d="M675.3,96.37c-0.68,0.34-0.55,0.44-0.31,0.93C675.71,96.59,675.98,97.05,675.3,96.37z"/>
	<path d="M672.52,75.78c0.9,0.9-0.08,0.82,1.13,0.82c-0.1-0.21-0.1-0.51-0.21-0.62C673.14,75.88,672.83,75.88,672.52,75.78z"/>
	<path d="M671.8,99.05c-0.1,0.1,0,0.31,0.1,0.41c0.1-0.1,0.31-0.31,0.41-0.41C672.15,98.88,672.34,98.51,671.8,99.05z"/>
	<path d="M694.77,79.9c0,0.35,0.64,0.09,0.82,0C695.4,79.9,695.58,79.49,694.77,79.9z"/>
	<path d="M691.27,80.93c-0.1,0.1-0.31,0.1-0.62,0.21C690.39,81.13,690.09,82.11,691.27,80.93z"/>
	<path d="M678.08,92.15l0.1,0.31C678.19,92.09,678.22,92.15,678.08,92.15z"/>
	<path d="M629.68,113.36l-0.1-0.1C629.63,113.5,629.56,113.41,629.68,113.36z"/>
	<path d="M628.96,114.91c0.76-0.29,0.73-0.83,0.64-1.49C628.97,113.74,628.86,114.32,628.96,114.91z"/>
	<path d="M691.37,81.03c0-0.1,0.1-0.1,0.1-0.21C691.37,80.82,691.37,80.93,691.37,81.03z"/>
	<path d="M672.32,75.57c0.1,0.1,0.1,0.1,0.21,0.1C672.42,75.67,672.32,75.57,672.32,75.57z"/>
	<path d="M631.54,114.91c0,0.1,0,0.21,0,0.31C631.76,114.77,631.94,114.91,631.54,114.91z"/>
	<path d="M631.95,114.91c0.27-0.55,0.89-0.14,0.41-0.62C632.26,114.5,632.05,114.7,631.95,114.91z"/>
	<path d="M668.4,102.65c0.1-0.21,0.21-0.41,0.31-0.62C668.51,102.14,667.99,102.04,668.4,102.65z"/>
	<path d="M668.82,102.14c0.1-0.21,0.62-0.1,0.21-0.51C668.92,101.83,668.92,101.93,668.82,102.14z"/>
	<path d="M615.16,6.57c14.59-9.55,33.34,18.42,13.8,52.62c14.77-14.77,11.56-43.3-0.31-53.86c-7.99-7.11-20.51,3.22-22.2,10.07
		C608.42,15.25,607.37,11.67,615.16,6.57z"/>
	<path d="M606.41,15.53c0.05-0.2,0.09-0.1-0.1-0.1L606.41,15.53z"/>
	<path d="M613.85,41.9c0.12,0,0.07,0,0.07-0.06C613.66,41.75,613.71,41.8,613.85,41.9z"/>
	<path d="M612.38,40.45c0.93-0.05,1.33,0.53,1.53,1.38c2.98,0.79,5.98-0.55,5.98-0.76c-0.85,0,4.56-4.36,1.85-11.95
		c-1.91-5.36-7.21-2.99-7.11-2.99c-2.53,2.53-1.76,3.06-2.32,1.5C606.44,34.66,612.38,45.71,612.38,40.45z M615.58,27.79
		c5.09-3.85,7.49,8.77,2.57,12.05C613.31,43.47,610.66,31.51,615.58,27.79z M612.28,39.01c0,0.6,0,0.92,0,1.24
		C611.99,39.97,611.73,39.65,612.28,39.01z M611.25,37.67c-0.24,0,0-0.34,0-1.03C611.47,36.64,611.25,36.48,611.25,37.67z"/>
	<path d="M612.38,27.58l-0.1-0.1C612.36,27.68,612.33,27.64,612.38,27.58z"/>
	<path d="M613.21,27.58l-0.1,0.1C613.12,27.67,613.21,27.6,613.21,27.58z"/>
	<path d="M626.59,61.36c-4.6,1.84-5.97,3.13-10.29,3.18C618.47,66.75,626.59,62.66,626.59,61.36z"/>
	<path d="M616.19,64.45l-0.1,0.1C616.37,64.55,616.33,64.55,616.19,64.45z"/>
	<path d="M619.08,42.62c-5.27,0-4.76-0.29-5.23-0.72c-0.48,0-0.98,0-1.46,0C613.42,43.97,617.07,44.62,619.08,42.62z"/>
	<path d="M601.16,40.25c0.51-1.13,0.72-2.37,0-3.5C601.16,37.88,601.16,39.12,601.16,40.25z"/>
	<path d="M610.74,63.11c1.13,0.21,1.75,0.41,2.37,0.51C612.28,62.7,612.28,62.7,610.74,63.11z"/>
	<path d="M605.59,17.8c0.92-0.56,0.61-1.43,0.61-2.13C605.66,16.26,605.39,16.93,605.59,17.8z"/>
	<path d="M606.31,15.53l-0.1-0.1C606.15,15.81,606.21,15.63,606.31,15.53z"/>
	<path d="M604.85,19.9c0.73-0.53,0.64-1.41,0.64-2.2C604.53,18.27,604.72,19.12,604.85,19.9z"/>
	<path d="M603.42,23.77c0.58-0.58,0.7-1.34,0.63-2.11C603.06,22.08,603.53,22.98,603.42,23.77z"/>
	<path d="M604.05,21.66c0.09-0.03,0.1-0.06,0.07-0.19C604.07,21.49,604.02,21.5,604.05,21.66z"/>
	<path d="M602.39,27.99c0-0.72,0.1-1.34,0.1-1.96C601.78,26.55,601.78,27.17,602.39,27.99z"/>
	<path d="M601.16,32.11c0.62-0.51,0.72-1.13,0-1.96C601.16,30.98,601.16,31.5,601.16,32.11z"/>
	<path d="M626.72,61.35c1.11-0.1,1.23-0.24,1.42-1.43C627.25,60.02,626.76,60.51,626.72,61.35z"/>
	<path d="M626.7,61.46c0-0.04,0.01-0.07,0.02-0.11C626.54,61.35,626.59,61.35,626.7,61.46z"/>
	<path d="M614.75,64.24c0.62,0,1.03,0.1,1.44,0.1C615.88,63.63,615.47,63.63,614.75,64.24z"/>
	<path d="M604.12,21.48c1.08-0.41,0.33-1.82,0.74-1.41C604.8,19.76,603.93,20.09,604.12,21.48z"/>
	<path d="M619.9,41.74c0.18-0.08,0.34-0.18,0.51-0.26C619.81,41.2,619.9,40.8,619.9,41.74z"/>
	<path d="M619.8,41.79l0.1,0.1C619.9,41.75,619.93,41.71,619.8,41.79z"/>
	<path d="M619.08,42.62l0.1,0.1C619.15,42.56,619.25,42.62,619.08,42.62z"/>
	<path d="M619.18,42.61c0.44-0.03,0.71-0.24,0.62-0.81C619.42,41.89,619.13,42.01,619.18,42.61z"/>
	<path d="M614.03,25.93c0.2,0,0.39,0,0.6,0C614.43,25.38,614.83,25.13,614.03,25.93z"/>
	<path d="M614.65,26.04l0.1-0.1C614.63,25.93,614.61,25.91,614.65,26.04z"/>
	<path d="M613.83,25.93l0.1,0.1C614.06,25.91,614.08,25.93,613.83,25.93z"/>
	<path d="M612.99,26.76c0,0.24,0.21,0,0.29-0.1C612.79,26.66,612.85,26.62,612.99,26.76z"/>
	<path d="M613.72,26.66c0-0.14,0-0.31,0-0.5C613.2,26.79,613.13,26.66,613.72,26.66z"/>
	<path d="M613.83,26.04l-0.1-0.1C613.72,26.15,613.7,26.21,613.83,26.04z"/>
	<path d="M613.83,26.66c-0.12,0-0.1-0.03-0.1,0.1L613.83,26.66z"/>
	<path d="M612.38,27.58c0.69-0.37,0.62,0.38,0.62-0.72C612.57,26.82,612.38,27.11,612.38,27.58z"/>
	<path d="M613.1,27.48c-0.12,0-0.1-0.03-0.1,0.1L613.1,27.48z"/>
	<path d="M601.06,32.01c-0.16,0.08-0.39,0.09-0.63,0.09C600.62,32.33,600.88,32.37,601.06,32.01z"/>
	<path d="M614.96,25.01c-0.14,0.14-0.28,0.38-0.1,0.21C614.86,25.11,614.96,25.11,614.96,25.01z"/>
	<path d="M614.64,25.31c-0.12-0.12-0.09-0.12-0.09,0.01c0,0.12-0.01,0.1,0.04,0.05l0.06,0.05C614.89,25.18,614.7,25.31,614.64,25.31
		z"/>
	<path d="M603.32,23.77l-0.1,0.1C603.48,23.75,603.47,23.77,603.32,23.77z"/>
	<path d="M613.21,63.93c0.21,0,0.34,0.03-0.06-0.13C613.19,63.84,613.21,63.88,613.21,63.93z"/>
	<path d="M628.14,59.82c0.51,0.1,0.72-0.21,0.72-0.72C628.35,59.09,628.14,59.4,628.14,59.82z"/>
	<path d="M685.6,13.06c11.47-13.88,27.95-4.98,25.44,20.29c-1.62,16.3-11.96,26.65-12.07,26.55c6.47-1.79,17.67-22.54,11.97-41.79
		c-7.26-24.49-26.24-8.1-27.16-3.42C684.8,14.52,685.11,13.66,685.6,13.06z"/>
	<path d="M683.75,14.81c0.05-0.19,0.06-0.1-0.1-0.1C683.65,14.75,683.65,14.78,683.75,14.81z"/>
	<path d="M696.42,61.26c0,0.03,0,0.07,0,0.11C696.56,61.37,696.53,61.37,696.42,61.26z"/>
	<path d="M687.97,62.91c1.84,1.56,6.38-0.09,8.44-1.35C696.42,60.5,692.82,63.03,687.97,62.91z"/>
	<path d="M687.61,62.8c-0.18,0-0.13-0.05-0.05,0.1C688.34,62.96,687.69,62.65,687.61,62.8z"/>
	<path d="M682.51,60.95c0.72,0.31,1.34,0.62,1.96,0.93C683.65,60.64,683.65,60.64,682.51,60.95z"/>
	<path d="M692.81,41.18c0.03,0.01,0.08,0.02,0.11,0.03C692.92,41.03,692.94,41.05,692.81,41.18z"/>
	<path d="M692.71,42.62c2.03-1.52,1.66-0.96,0.22-1.41C692.89,41.63,691.97,41.88,692.71,42.62z"/>
	<path d="M696.62,61.36c1.49,0,1.65-0.1,2.21-1.43C697.81,59.99,697.21,60.67,696.62,61.36z"/>
	<path d="M686.22,62.7c0.54,0,0.91,0.07,1.27,0.09C687.2,62.34,686.89,62.03,686.22,62.7z"/>
	<path d="M693.02,24.8c-0.15,0-0.54-0.03-0.21,0.31c0.1,0,0.21-0.1,0.31-0.1C693.02,25.01,693.02,24.9,693.02,24.8z"/>
	<path d="M725.15,35c-0.03,0.03-0.06,0.08-0.09,0.12C725.11,35.09,725.15,35.06,725.15,35z"/>
	<path d="M725.05,35.12c-0.03,0.02-0.07,0.04-0.11,0.08C724.84,35.2,724.68,35.65,725.05,35.12z"/>
	<path d="M617.22,37.16c1.73-1.93,3.08-5.47,1.24-7.31c-2.77-2.46-5.18,1.22-4.43,4.02c0.51-1.03,1.03-2.06,1.65-3.09
		C619.77,31.89,615.11,36.63,617.22,37.16z"/>
<path fill="#e6e6e6" d="m206.8 163.6c0-5.1 4.1-9.2 9.3-9.2s9.2 4.2 9.2 9.2-4.1 9.2-9.3 9.2-9.2-4.1-9.2-9.2zm17.3-.1c0-4.5-3.5-8.2-8.2-8.2s-8.2 3.7-8.2 8.3c0 4.5 3.5 8.2 8.2 8.2s8.2-3.7 8.2-8.3zm-13 0c0-2.8 2.1-5.1 5.1-5.1 1.9 0 2.9.6 3.9 1.5l-1.4 1.7c-.8-.7-1.5-1.1-2.5-1.1-1.7 0-2.8 1.4-2.8 3.1s1.1 3 2.8 3c1.1 0 1.7-.5 2.5-1.1l1.4 1.4c-1.1 1.1-2.1 1.7-4 1.7-2.9 0-5-2.3-5-5.1z"/><path fill="#e6e6e6" d="m226.6 154.7h3.4l4.2 13.2 4.4-13.3h2.6l4.4 13.3 4.2-13.2h3.3l-6.2 18h-2.7l-4.4-12.8-4.4 12.8h-2.7z"/><path fill="#e6e6e6" d="m252.8 165.8c0-3.9 3.1-7 7.2-7 4.2 0 7.2 3.2 7.2 7s-3.1 7-7.3 7c-4 0-7.1-3.1-7.1-7zm11.3 0c0-2.3-1.7-4.3-4.2-4.3s-4.1 2-4.1 4.3 1.7 4.3 4.1 4.3c2.7.1 4.2-1.9 4.2-4.3z"/><path fill="#e6e6e6" d="m269.5 159.1h3.1v3c.8-2 2.4-3.4 4.8-3.3v3.2h-.2c-2.7 0-4.6 1.7-4.6 5.4v5.1h-3.1z"/><path fill="#e6e6e6" d="m279.1 153.9h3.1v11.1l5.6-6h3.8l-5.4 5.5 5.5 8h-3.5l-4.1-5.8-1.9 2v3.9h-3.1z"/><path fill="#e6e6e6" d="m291.7 165.8c0-3.9 3.1-7 7.2-7 4.2 0 7.2 3.2 7.2 7s-3.1 7-7.3 7c-4 0-7.1-3.1-7.1-7zm11.3 0c0-2.3-1.7-4.3-4.2-4.3s-4.1 2-4.1 4.3 1.7 4.3 4.1 4.3c2.6.1 4.2-1.9 4.2-4.3z"/><path fill="#e6e6e6" d="m308.2 167.6v-8.6h3.1v7.6c0 2.1 1.1 3.3 2.9 3.3s3-1.3 3-3.3v-7.6h3.1v13.4h-3.1v-2.1c-.8 1.3-2.1 2.3-4.2 2.3-3.1.2-4.8-1.8-4.8-5z"/><path fill="#e6e6e6" d="m323.9 168.8v-7.1h-1.7v-2.6h1.7v-3.7h3.1v3.7h3.6v2.6h-3.6v6.6c0 1.2.6 1.7 1.7 1.7.7 0 1.3-.2 1.9-.5v2.5c-.8.5-1.7.7-2.8.7-2.3 0-3.9-.9-3.9-3.9z"/><path fill="#e6e6e6" d="m333.2 154.7h3.2v15h9.4v2.9h-12.5v-17.9z"/><path fill="#e6e6e6" d="m356 172.5v-1.7c-.9 1.1-2.3 2-4.4 2-2.6 0-4.8-1.4-4.8-4.2 0-3 2.3-4.4 5.4-4.4 1.7 0 2.6.2 3.7.5v-.2c0-1.9-1.2-2.9-3.3-2.9-1.5 0-2.6.3-3.9.8l-.8-2.5c1.5-.7 2.9-1.1 5.1-1.1 4 0 5.9 2.1 5.9 5.7v8zm.1-5.6c-.8-.3-1.9-.5-3.1-.5-2 0-3.1.8-3.1 2.1s1.1 2 2.6 2c2 0 3.5-1.1 3.5-2.9z"/><path fill="#e6e6e6" d="m364.9 170.5v2.1h-3.1v-18.7h3.1v7.4c1-1.4 2.4-2.5 4.5-2.5 3.2 0 6.3 2.5 6.3 7s-3.1 7-6.3 7c-2.1 0-3.5-1.1-4.5-2.3zm7.7-4.7c0-2.6-1.7-4.3-3.9-4.3s-3.9 1.7-3.9 4.4c0 2.6 1.8 4.3 3.9 4.3s3.9-1.7 3.9-4.4z"/><path fill="#e6e6e6" d="m376.9 170.8 1.4-2.1c1.4 1.1 3 1.7 4.4 1.7s2.1-.5 2.1-1.5-1.3-1.4-2.8-1.8c-.1 0-.2-.1-.2-.1-2-.6-4.2-1.4-4.2-4s2.1-4.1 4.8-4.1c1.7 0 3.5.6 5 1.5l-1.2 2.2c-1.3-.8-2.6-1.3-3.8-1.3s-1.9.5-1.9 1.4 1.3 1.4 2.8 1.8c.1 0 .2.1.2.1 2 .6 4.2 1.5 4.2 4 0 2.9-2.2 4.2-5 4.2-1.9 0-4-.7-5.8-2z"/><path fill="#e6e6e6" d="m505.6 163.6c0-5.1 4.1-9.2 9.3-9.2s9.2 4.2 9.2 9.2-4.1 9.2-9.3 9.2-9.2-4.1-9.2-9.2zm17.4-.1c0-4.5-3.5-8.2-8.2-8.2s-8.2 3.7-8.2 8.3c0 4.5 3.5 8.2 8.2 8.2s8.2-3.7 8.2-8.3zm-13.1 0c0-2.8 2.1-5.1 5.1-5.1 1.9 0 2.9.6 3.9 1.5l-1.4 1.7c-.8-.7-1.5-1.1-2.5-1.1-1.7 0-2.8 1.4-2.8 3.1s1.1 3 2.8 3c1.1 0 1.7-.5 2.5-1.1l1.4 1.4c-1.1 1.1-2.1 1.7-4 1.7-2.9 0-5-2.3-5-5.1z"/><path fill="#e6e6e6" d="m525.4 154.7h3.4l4.2 13.2 4.4-13.3h2.6l4.4 13.3 4.2-13.2h3.3l-6.2 18h-2.7l-4.4-12.8-4.4 12.8h-2.7z"/><path fill="#e6e6e6" d="m551.7 165.8c0-3.9 3.1-7 7.2-7 4.2 0 7.2 3.2 7.2 7s-3.1 7-7.3 7c-4.1 0-7.1-3.1-7.1-7zm11.2 0c0-2.3-1.7-4.3-4.2-4.3s-4.1 2-4.1 4.3 1.7 4.3 4.1 4.3c2.7.1 4.2-1.9 4.2-4.3z"/><path fill="#e6e6e6" d="m568.3 159.1h3.1v3c.8-2 2.4-3.4 4.8-3.3v3.2h-.2c-2.7 0-4.6 1.7-4.6 5.4v5.1h-3.1z"/><path fill="#e6e6e6" d="m577.9 153.9h3.1v11.1l5.6-6h3.8l-5.4 5.5 5.5 8h-3.5l-4.1-5.8-1.9 2v3.9h-3.1z"/><path fill="#e6e6e6" d="m590.6 165.8c0-3.9 3.1-7 7.2-7 4.2 0 7.2 3.2 7.2 7s-3.1 7-7.3 7c-4.1 0-7.1-3.1-7.1-7zm11.2 0c0-2.3-1.7-4.3-4.2-4.3s-4.1 2-4.1 4.3 1.7 4.3 4.1 4.3c2.6.1 4.2-1.9 4.2-4.3z"/><path fill="#e6e6e6" d="m607 167.6v-8.6h3.1v7.6c0 2.1 1.1 3.3 2.9 3.3s3-1.3 3-3.3v-7.6h3.1v13.4h-3.1v-2.1c-.8 1.3-2.1 2.3-4.2 2.3-3 .2-4.8-1.8-4.8-5z"/><path fill="#e6e6e6" d="m622.7 168.8v-7.1h-1.7v-2.6h1.7v-3.7h3.1v3.7h3.6v2.6h-3.6v6.6c0 1.2.6 1.7 1.7 1.7.7 0 1.3-.2 1.9-.5v2.5c-.8.5-1.7.7-2.8.7-2.3 0-3.9-.9-3.9-3.9z"/><path fill="#e6e6e6" d="m632 154.7h3.2v15h9.4v2.9h-12.6z"/><path fill="#e6e6e6" d="m654.8 172.5v-1.7c-.9 1.1-2.3 2-4.4 2-2.6 0-4.8-1.4-4.8-4.2 0-3 2.3-4.4 5.4-4.4 1.7 0 2.6.2 3.7.5v-.2c0-1.9-1.2-2.9-3.3-2.9-1.5 0-2.6.3-3.9.8l-.8-2.5c1.5-.7 2.9-1.1 5.1-1.1 4 0 5.9 2.1 5.9 5.7v8zm.1-5.6c-.8-.3-1.9-.5-3.1-.5-2 0-3.1.8-3.1 2.1s1.1 2 2.6 2c2 0 3.5-1.1 3.5-2.9z"/><path fill="#e6e6e6" d="m663.7 170.5v2.1h-3.1v-18.7h3.1v7.4c1-1.4 2.4-2.5 4.5-2.5 3.2 0 6.3 2.5 6.3 7s-3.1 7-6.3 7c-2.1 0-3.5-1.1-4.5-2.3zm7.8-4.7c0-2.6-1.7-4.3-3.9-4.3-2.1 0-3.9 1.7-3.9 4.4 0 2.6 1.8 4.3 3.9 4.3s3.9-1.7 3.9-4.4z"/><path fill="#e6e6e6" d="m675.8 170.8 1.4-2.1c1.4 1.1 3 1.7 4.4 1.7s2.1-.5 2.1-1.5-1.3-1.4-2.8-1.8c-.1 0-.2-.1-.2-.1-2-.6-4.2-1.4-4.2-4s2.1-4.1 4.8-4.1c1.7 0 3.5.6 5 1.5l-1.2 2.2c-1.3-.8-2.6-1.3-3.8-1.3s-1.9.5-1.9 1.4 1.3 1.4 2.8 1.8c.1 0 .2.1.2.1 2 .6 4.2 1.5 4.2 4 0 2.9-2.2 4.2-5 4.2-2 0-4.1-.7-5.8-2z"/><path fill="#e6e6e6" d="m61 298.6c0-5.1 4.1-9.2 9.3-9.2s9.2 4.2 9.2 9.2-4.1 9.2-9.3 9.2c-5.1 0-9.2-4.2-9.2-9.2zm17.4-.1c0-4.5-3.5-8.2-8.2-8.2s-8.2 3.7-8.2 8.3c0 4.5 3.5 8.2 8.2 8.2s8.2-3.7 8.2-8.3zm-13.1-.1c0-2.8 2.1-5.1 5.1-5.1 1.9 0 2.9.6 3.9 1.5l-1.4 1.7c-.8-.7-1.5-1.1-2.5-1.1-1.7 0-2.8 1.4-2.8 3.1s1.1 3 2.8 3c1.1 0 1.7-.5 2.5-1.1l1.4 1.4c-1.1 1.1-2.1 1.7-4 1.7-2.8.1-5-2.2-5-5.1z"/><path fill="#e6e6e6" d="m80.9 289.7h3.4l4.2 13.2 4.4-13.3h2.6l4.4 13.3 4.2-13.2h3.3l-6.2 18h-2.7l-4.4-12.8-4.4 12.8h-2.7z"/><path fill="#e6e6e6" d="m107.1 300.8c0-3.9 3.1-7 7.2-7s7.2 3.2 7.2 7-3.1 7-7.3 7c-4 0-7.1-3.1-7.1-7zm11.3 0c0-2.3-1.7-4.3-4.2-4.3s-4.1 2-4.1 4.3 1.7 4.3 4.1 4.3c2.6.1 4.2-1.9 4.2-4.3z"/><path fill="#e6e6e6" d="m123.7 294h3.1v3c.8-2 2.4-3.4 4.8-3.3v3.2h-.2c-2.7 0-4.6 1.7-4.6 5.4v5.1h-3.1z"/><path fill="#e6e6e6" d="m133.4 288.9h3.1v11.1l5.6-6h3.8l-5.4 5.5 5.5 8h-3.5l-4.1-5.8-1.9 1.9v3.9h-3.1z"/><path fill="#e6e6e6" d="m146 300.8c0-3.9 3.1-7 7.2-7s7.2 3.2 7.2 7-3.1 7-7.3 7c-4.1 0-7.1-3.1-7.1-7zm11.2 0c0-2.3-1.7-4.3-4.2-4.3s-4.1 2-4.1 4.3 1.7 4.3 4.1 4.3c2.6.1 4.2-1.9 4.2-4.3z"/><path fill="#e6e6e6" d="m162.4 302.6v-8.6h3.1v7.6c0 2.1 1.1 3.3 2.9 3.3s3-1.3 3-3.3v-7.6h3.1v13.4h-3.1v-2.1c-.8 1.3-2.1 2.3-4.2 2.3-3 .2-4.8-1.8-4.8-5z"/><path fill="#e6e6e6" d="m178.1 303.8v-7.1h-1.7v-2.7h1.7v-3.7h3.1v3.7h3.6v2.6h-3.6v6.6c0 1.2.6 1.7 1.7 1.7.7 0 1.3-.2 1.9-.5v2.5c-.8.5-1.7.7-2.8.7-2.3.1-3.9-.9-3.9-3.8z"/><path fill="#e6e6e6" d="m187.4 289.7h3.2v15h9.4v2.9h-12.5v-17.9z"/><path fill="#e6e6e6" d="m210.2 307.5v-1.7c-.9 1.1-2.3 2-4.4 2-2.6 0-4.8-1.4-4.8-4.2 0-3 2.3-4.4 5.4-4.4 1.7 0 2.6.2 3.7.5v-.2c0-1.9-1.2-2.9-3.3-2.9-1.5 0-2.6.3-3.9.8l-.8-2.5c1.5-.7 2.9-1.1 5.1-1.1 4 0 5.9 2.1 5.9 5.7v8zm.1-5.6c-.8-.3-1.9-.5-3.1-.5-2 0-3.1.8-3.1 2.1s1.1 2 2.6 2c2 0 3.5-1.1 3.5-2.9z"/><path fill="#e6e6e6" d="m219.2 305.5v2.1h-3.1v-18.7h3.1v7.4c1-1.4 2.4-2.5 4.5-2.5 3.2 0 6.3 2.5 6.3 7s-3.1 7-6.3 7c-2.2 0-3.6-1.1-4.5-2.3zm7.7-4.7c0-2.6-1.7-4.3-3.9-4.3s-3.9 1.7-3.9 4.4c0 2.6 1.8 4.3 3.9 4.3s3.9-1.7 3.9-4.4z"/><path fill="#e6e6e6" d="m231.2 305.8 1.4-2.1c1.4 1.1 3 1.7 4.4 1.7s2.1-.5 2.1-1.5-1.3-1.4-2.8-1.8c-.1 0-.2-.1-.2-.1-2-.6-4.2-1.4-4.2-4s2.1-4.1 4.8-4.1c1.7 0 3.5.6 5 1.5l-1.2 2.2c-1.3-.8-2.6-1.3-3.8-1.3s-1.9.5-1.9 1.4 1.3 1.4 2.8 1.8c.1 0 .2.1.2.1 2 .6 4.2 1.5 4.2 4 0 2.9-2.2 4.2-5 4.2-2 0-4.1-.7-5.8-2z"/><path fill="#e6e6e6" d="m360.6 298.6c0-5.1 4.1-9.2 9.3-9.2s9.2 4.2 9.2 9.2-4.1 9.2-9.3 9.2-9.2-4.2-9.2-9.2zm17.4-.1c0-4.5-3.5-8.2-8.2-8.2s-8.2 3.7-8.2 8.3c0 4.5 3.5 8.2 8.2 8.2s8.2-3.7 8.2-8.3zm-13.1-.1c0-2.8 2.1-5.1 5.1-5.1 1.9 0 2.9.6 3.9 1.5l-1.4 1.7c-.8-.7-1.5-1.1-2.5-1.1-1.7 0-2.8 1.4-2.8 3.1s1.1 3 2.8 3c1.1 0 1.7-.5 2.5-1.1l1.4 1.4c-1.1 1.1-2.1 1.7-4 1.7-2.8.1-5-2.2-5-5.1z"/><path fill="#e6e6e6" d="m380.5 289.7h3.4l4.2 13.2 4.4-13.3h2.6l4.4 13.3 4.2-13.2h3.3l-6.2 18h-2.7l-4.4-12.8-4.4 12.8h-2.7z"/><path fill="#e6e6e6" d="m406.7 300.8c0-3.9 3.1-7 7.2-7 4.2 0 7.2 3.2 7.2 7s-3.1 7-7.3 7c-4.1 0-7.1-3.1-7.1-7zm11.3 0c0-2.3-1.7-4.3-4.2-4.3s-4.1 2-4.1 4.3 1.7 4.3 4.1 4.3c2.7.1 4.2-1.9 4.2-4.3z"/><path fill="#e6e6e6" d="m423.3 294h3.1v3c.8-2 2.4-3.4 4.8-3.3v3.2h-.2c-2.7 0-4.6 1.7-4.6 5.4v5.1h-3.1z"/><path fill="#e6e6e6" d="m433 288.9h3.1v11.1l5.6-6h3.8l-5.4 5.5 5.5 8h-3.5l-4.1-5.8-1.9 2v3.9h-3.1z"/><path fill="#e6e6e6" d="m445.6 300.8c0-3.9 3.1-7 7.2-7 4.2 0 7.2 3.2 7.2 7s-3.1 7-7.3 7c-4.1 0-7.1-3.1-7.1-7zm11.3 0c0-2.3-1.7-4.3-4.2-4.3s-4.1 2-4.1 4.3 1.7 4.3 4.1 4.3c2.6.1 4.2-1.9 4.2-4.3z"/><path fill="#e6e6e6" d="m462.1 302.6v-8.6h3.1v7.6c0 2.1 1.1 3.3 2.9 3.3s3-1.3 3-3.3v-7.6h3.1v13.4h-3.1v-2.1c-.8 1.3-2.1 2.3-4.2 2.3-3.1.2-4.8-1.8-4.8-5z"/><path fill="#e6e6e6" d="m477.8 303.8v-7.1h-1.8v-2.7h1.7v-3.7h3.1v3.7h3.6v2.6h-3.6v6.6c0 1.2.6 1.7 1.7 1.7.7 0 1.3-.2 1.9-.5v2.5c-.8.5-1.7.7-2.8.7-2.2.1-3.8-.9-3.8-3.8z"/><path fill="#e6e6e6" d="m487.1 289.7h3.2v15h9.4v2.9h-12.5v-17.9z"/><path fill="#e6e6e6" d="m509.9 307.5v-1.7c-.9 1.1-2.3 2-4.4 2-2.6 0-4.8-1.4-4.8-4.2 0-3 2.3-4.4 5.4-4.4 1.7 0 2.6.2 3.7.5v-.2c0-1.9-1.2-2.9-3.3-2.9-1.5 0-2.6.3-3.9.8l-.8-2.5c1.5-.7 2.9-1.1 5.1-1.1 4 0 5.9 2.1 5.9 5.7v8zm.1-5.6c-.8-.3-1.9-.5-3.1-.5-2 0-3.1.8-3.1 2.1s1.1 2 2.6 2c2 0 3.5-1.1 3.5-2.9z"/><path fill="#e6e6e6" d="m518.8 305.5v2.1h-3.1v-18.7h3.1v7.4c1-1.4 2.4-2.5 4.5-2.5 3.2 0 6.3 2.5 6.3 7s-3.1 7-6.3 7c-2.2 0-3.5-1.1-4.5-2.3zm7.7-4.7c0-2.6-1.7-4.3-3.9-4.3s-3.9 1.7-3.9 4.4c0 2.6 1.8 4.3 3.9 4.3s3.9-1.7 3.9-4.4z"/><path fill="#e6e6e6" d="m530.8 305.8 1.4-2.1c1.4 1.1 3 1.7 4.4 1.7s2.1-.5 2.1-1.5-1.3-1.4-2.8-1.8c-.1 0-.2-.1-.2-.1-2-.6-4.2-1.4-4.2-4s2.1-4.1 4.8-4.1c1.7 0 3.5.6 5 1.5l-1.2 2.2c-1.3-.8-2.6-1.3-3.8-1.3s-1.9.5-1.9 1.4 1.3 1.4 2.8 1.8c.1 0 .2.1.2.1 2 .6 4.2 1.5 4.2 4 0 2.9-2.2 4.2-5 4.2-1.9 0-4.1-.7-5.8-2z"/><path fill="#e6e6e6" d="m659.5 298.6c0-5.1 4.1-9.2 9.3-9.2s9.2 4.2 9.2 9.2-4.1 9.2-9.3 9.2-9.2-4.2-9.2-9.2zm17.3-.1c0-4.5-3.5-8.2-8.2-8.2s-8.2 3.7-8.2 8.3c0 4.5 3.5 8.2 8.2 8.2 4.8 0 8.2-3.7 8.2-8.3zm-13-.1c0-2.8 2.1-5.1 5.1-5.1 1.9 0 2.9.6 3.9 1.5l-1.4 1.7c-.8-.7-1.5-1.1-2.5-1.1-1.7 0-2.8 1.4-2.8 3.1s1.1 3 2.8 3c1.1 0 1.7-.5 2.5-1.1l1.4 1.4c-1.1 1.1-2.1 1.7-4 1.7-2.9.1-5-2.2-5-5.1z"/><path fill="#e6e6e6" d="m679.3 289.7h3.4l4.2 13.2 4.4-13.3h2.6l4.4 13.3 4.2-13.2h3.3l-6.2 18h-2.6l-4.4-12.8-4.4 12.8h-2.7z"/><path fill="#e6e6e6" d="m705.5 300.8c0-3.9 3.1-7 7.2-7 4.2 0 7.2 3.2 7.2 7s-3.1 7-7.3 7c-4 0-7.1-3.1-7.1-7zm11.3 0c0-2.3-1.7-4.3-4.2-4.3s-4.1 2-4.1 4.3 1.7 4.3 4.1 4.3c2.7.1 4.2-1.9 4.2-4.3z"/><path fill="#e6e6e6" d="m722.1 294h3.1v3c.8-2 2.4-3.4 4.8-3.3v3.2h-.2c-2.7 0-4.6 1.7-4.6 5.4v5.1h-3.1z"/><path fill="#e6e6e6" d="m731.8 288.9h3.1v11.1l5.6-6h3.8l-5.4 5.5 5.5 8h-3.5l-4.1-5.8-1.9 2v3.9h-3.1z"/><path fill="#e6e6e6" d="m744.4 300.8c0-3.9 3.1-7 7.2-7 4.2 0 7.2 3.2 7.2 7s-3.1 7-7.3 7c-4.1 0-7.1-3.1-7.1-7zm11.3 0c0-2.3-1.7-4.3-4.2-4.3s-4.1 2-4.1 4.3 1.7 4.3 4.1 4.3c2.6.1 4.2-1.9 4.2-4.3z"/><path fill="#e6e6e6" d="m760.9 302.6v-8.6h3.1v7.6c0 2.1 1.1 3.3 2.9 3.3s3-1.3 3-3.3v-7.6h3.1v13.4h-3.1v-2.1c-.8 1.3-2.1 2.3-4.2 2.3-3.1.2-4.8-1.8-4.8-5z"/><path fill="#e6e6e6" d="m776.6 303.8v-7.1h-1.7v-2.7h1.7v-3.7h3.1v3.7h3.6v2.6h-3.6v6.6c0 1.2.6 1.7 1.7 1.7.7 0 1.3-.2 1.9-.5v2.5c-.8.5-1.7.7-2.8.7-2.3.1-3.9-.9-3.9-3.8z"/><path fill="#e6e6e6" d="m785.9 289.7h3.2v15h9.4v2.9h-12.5v-17.9z"/><path fill="#e6e6e6" d="m808.7 307.5v-1.7c-.9 1.1-2.3 2-4.4 2-2.6 0-4.8-1.4-4.8-4.2 0-3 2.3-4.4 5.4-4.4 1.7 0 2.6.2 3.7.5v-.2c0-1.9-1.2-2.9-3.3-2.9-1.5 0-2.6.3-3.9.8l-.8-2.5c1.5-.7 2.9-1.1 5.1-1.1 4 0 5.9 2.1 5.9 5.7v8zm.1-5.6c-.8-.3-1.9-.5-3.1-.5-2 0-3.1.8-3.1 2.1s1.1 2 2.6 2c2 0 3.5-1.1 3.5-2.9z"/><path fill="#e6e6e6" d="m817.6 305.5v2.1h-3.1v-18.7h3.1v7.4c1-1.4 2.4-2.5 4.5-2.5 3.2 0 6.3 2.5 6.3 7s-3.1 7-6.3 7c-2.1 0-3.5-1.1-4.5-2.3zm7.7-4.7c0-2.6-1.7-4.3-3.9-4.3-2.1 0-3.9 1.7-3.9 4.4 0 2.6 1.8 4.3 3.9 4.3 2.2 0 3.9-1.7 3.9-4.4z"/><path fill="#e6e6e6" d="m829.6 305.8 1.4-2.1c1.4 1.1 3 1.7 4.4 1.7s2.1-.5 2.1-1.5-1.3-1.4-2.8-1.8c-.1 0-.2-.1-.2-.1-2-.6-4.2-1.4-4.2-4s2.1-4.1 4.8-4.1c1.7 0 3.5.6 5 1.5l-1.2 2.2c-1.3-.8-2.6-1.3-3.8-1.3s-1.9.5-1.9 1.4 1.3 1.4 2.8 1.8c.1 0 .2.1.2.1 2 .6 4.2 1.5 4.2 4 0 2.9-2.2 4.2-5 4.2-1.9 0-4-.7-5.8-2z"/><path fill="#e6e6e6" d="m206.3 434.2c0-5.1 4.1-9.2 9.3-9.2s9.2 4.2 9.2 9.2-4.1 9.2-9.3 9.2-9.2-4.1-9.2-9.2zm17.4-.1c0-4.5-3.5-8.2-8.2-8.2s-8.2 3.7-8.2 8.3c0 4.5 3.5 8.2 8.2 8.2s8.2-3.7 8.2-8.3zm-13.1-.1c0-2.8 2.1-5.1 5.1-5.1 1.9 0 2.9.6 3.9 1.5l-1.4 1.7c-.8-.7-1.5-1.1-2.5-1.1-1.7 0-2.8 1.4-2.8 3.1s1.1 3 2.8 3c1.1 0 1.7-.5 2.5-1.1l1.4 1.4c-1.1 1.1-2.1 1.7-4 1.7-2.9.1-5-2.2-5-5.1z"/><path fill="#e6e6e6" d="m226.1 425.3h3.4l4.2 13.2 4.4-13.3h2.6l4.4 13.3 4.2-13.2h3.3l-6.2 18h-2.7l-4.4-12.8-4.4 12.8h-2.7z"/><path fill="#e6e6e6" d="m252.4 436.4c0-3.9 3.1-7 7.2-7 4.2 0 7.2 3.2 7.2 7s-3.1 7-7.3 7c-4.1 0-7.1-3.1-7.1-7zm11.2 0c0-2.3-1.7-4.3-4.2-4.3s-4.1 2-4.1 4.3 1.7 4.3 4.1 4.3c2.7.1 4.2-1.9 4.2-4.3z"/><path fill="#e6e6e6" d="m269 429.7h3.1v3c.8-2 2.4-3.4 4.8-3.3v3.2h-.2c-2.7 0-4.6 1.7-4.6 5.4v5.1h-3.1z"/><path fill="#e6e6e6" d="m278.6 424.5h3.1v11.1l5.6-6h3.8l-5.4 5.5 5.5 8h-3.5l-4.1-5.8-1.9 2v3.9h-3.1z"/><path fill="#e6e6e6" d="m291.3 436.4c0-3.9 3.1-7 7.2-7 4.2 0 7.2 3.2 7.2 7s-3.1 7-7.3 7c-4.1 0-7.1-3.1-7.1-7zm11.2 0c0-2.3-1.7-4.3-4.2-4.3s-4.1 2-4.1 4.3 1.7 4.3 4.1 4.3c2.6.1 4.2-1.9 4.2-4.3z"/><path fill="#e6e6e6" d="m307.7 438.2v-8.6h3.1v7.6c0 2.1 1.1 3.3 2.9 3.3s3-1.3 3-3.3v-7.6h3.1v13.4h-3.1v-2.1c-.8 1.3-2.1 2.3-4.2 2.3-3 .2-4.8-1.8-4.8-5z"/><path fill="#e6e6e6" d="m323.4 439.4v-7.1h-1.7v-2.6h1.7v-3.7h3.1v3.7h3.6v2.6h-3.6v6.6c0 1.2.6 1.7 1.7 1.7.7 0 1.3-.2 1.9-.5v2.5c-.8.5-1.7.7-2.8.7-2.3 0-3.9-.9-3.9-3.9z"/><path fill="#e6e6e6" d="m332.7 425.3h3.2v15h9.4v2.9h-12.5v-17.9z"/><path fill="#e6e6e6" d="m355.5 443.1v-1.7c-.9 1.1-2.3 2-4.4 2-2.6 0-4.8-1.4-4.8-4.2 0-3 2.3-4.4 5.4-4.4 1.7 0 2.6.2 3.7.5v-.2c0-1.9-1.2-2.9-3.3-2.9-1.5 0-2.6.3-3.9.8l-.8-2.5c1.5-.7 2.9-1.1 5.1-1.1 4 0 5.9 2.1 5.9 5.7v8zm.1-5.6c-.8-.3-1.9-.5-3.1-.5-2 0-3.1.8-3.1 2.1s1.1 2 2.6 2c2 0 3.5-1.1 3.5-2.9z"/><path fill="#e6e6e6" d="m364.4 441.1v2.1h-3.1v-18.7h3.1v7.4c1-1.4 2.4-2.5 4.5-2.5 3.2 0 6.3 2.5 6.3 7s-3.1 7-6.3 7c-2.1 0-3.5-1.1-4.5-2.3zm7.7-4.7c0-2.6-1.7-4.3-3.9-4.3-2.1 0-3.9 1.7-3.9 4.4 0 2.6 1.8 4.3 3.9 4.3 2.2 0 3.9-1.7 3.9-4.4z"/><path fill="#e6e6e6" d="m376.5 441.4 1.4-2.1c1.4 1.1 3 1.7 4.4 1.7s2.1-.5 2.1-1.5-1.3-1.4-2.8-1.8c-.1 0-.2-.1-.2-.1-2-.6-4.2-1.4-4.2-4s2.1-4.1 4.8-4.1c1.7 0 3.5.6 5 1.5l-1.2 2.2c-1.3-.8-2.6-1.3-3.8-1.3s-1.9.5-1.9 1.4 1.3 1.4 2.8 1.8c.1 0 .2.1.2.1 2 .6 4.2 1.5 4.2 4 0 2.9-2.2 4.2-5 4.2-2 0-4.1-.7-5.8-2z"/><path fill="#e6e6e6" d="m505.1 434.2c0-5.1 4.1-9.2 9.3-9.2s9.2 4.2 9.2 9.2-4.1 9.2-9.3 9.2-9.2-4.1-9.2-9.2zm17.4-.1c0-4.5-3.5-8.2-8.2-8.2s-8.2 3.7-8.2 8.3c0 4.5 3.5 8.2 8.2 8.2s8.2-3.7 8.2-8.3zm-13.1-.1c0-2.8 2.1-5.1 5.1-5.1 1.9 0 2.9.6 3.9 1.5l-1.4 1.7c-.8-.7-1.5-1.1-2.5-1.1-1.7 0-2.8 1.4-2.8 3.1s1.1 3 2.8 3c1.1 0 1.7-.5 2.5-1.1l1.4 1.4c-1.1 1.1-2.1 1.7-4 1.7-2.9.1-5-2.2-5-5.1z"/><path fill="#e6e6e6" d="m525 425.3h3.4l4.2 13.2 4.4-13.3h2.6l4.4 13.3 4.2-13.2h3.3l-6.2 18h-2.7l-4.4-12.8-4.4 12.8h-2.7z"/><path fill="#e6e6e6" d="m551.2 436.4c0-3.9 3.1-7 7.2-7 4.2 0 7.2 3.2 7.2 7s-3.1 7-7.3 7c-4.1 0-7.1-3.1-7.1-7zm11.2 0c0-2.3-1.7-4.3-4.2-4.3s-4.1 2-4.1 4.3 1.7 4.3 4.1 4.3c2.7.1 4.2-1.9 4.2-4.3z"/><path fill="#e6e6e6" d="m567.8 429.7h3.1v3c.8-2 2.4-3.4 4.8-3.3v3.2h-.2c-2.7 0-4.6 1.7-4.6 5.4v5.1h-3.1z"/><path fill="#e6e6e6" d="m577.5 424.5h3.1v11.1l5.6-6h3.8l-5.4 5.5 5.5 8h-3.5l-4.1-5.8-1.9 2v3.9h-3.1z"/><path fill="#e6e6e6" d="m590.1 436.4c0-3.9 3.1-7 7.2-7 4.2 0 7.2 3.2 7.2 7s-3.1 7-7.3 7c-4.1 0-7.1-3.1-7.1-7zm11.2 0c0-2.3-1.7-4.3-4.2-4.3s-4.1 2-4.1 4.3 1.7 4.3 4.1 4.3c2.6.1 4.2-1.9 4.2-4.3z"/><path fill="#e6e6e6" d="m606.5 438.2v-8.6h3.1v7.6c0 2.1 1.1 3.3 2.9 3.3s3-1.3 3-3.3v-7.6h3.1v13.4h-3.1v-2.1c-.8 1.3-2.1 2.3-4.2 2.3-3 .2-4.8-1.8-4.8-5z"/><path fill="#e6e6e6" d="m622.2 439.4v-7.1h-1.7v-2.6h1.7v-3.7h3.1v3.7h3.6v2.6h-3.6v6.6c0 1.2.6 1.7 1.7 1.7.7 0 1.3-.2 1.9-.5v2.5c-.8.5-1.7.7-2.8.7-2.3 0-3.9-.9-3.9-3.9z"/><path fill="#e6e6e6" d="m631.5 425.3h3.2v15h9.4v2.9h-12.5v-17.9z"/><path fill="#e6e6e6" d="m654.3 443.1v-1.7c-.9 1.1-2.3 2-4.4 2-2.6 0-4.8-1.4-4.8-4.2 0-3 2.3-4.4 5.4-4.4 1.7 0 2.6.2 3.7.5v-.2c0-1.9-1.2-2.9-3.3-2.9-1.5 0-2.6.3-3.9.8l-.8-2.5c1.5-.7 2.9-1.1 5.1-1.1 4 0 5.9 2.1 5.9 5.7v8zm.1-5.6c-.8-.3-1.9-.5-3.1-.5-2 0-3.1.8-3.1 2.1s1.1 2 2.6 2c2 0 3.5-1.1 3.5-2.9z"/><path fill="#e6e6e6" d="m663.3 441.1v2.1h-3.1v-18.7h3.1v7.4c1-1.4 2.4-2.5 4.5-2.5 3.2 0 6.3 2.5 6.3 7s-3.1 7-6.3 7c-2.2 0-3.6-1.1-4.5-2.3zm7.7-4.7c0-2.6-1.7-4.3-3.9-4.3s-3.9 1.7-3.9 4.4c0 2.6 1.8 4.3 3.9 4.3s3.9-1.7 3.9-4.4z"/><path fill="#e6e6e6" d="m675.3 441.4 1.4-2.1c1.4 1.1 3 1.7 4.4 1.7s2.1-.5 2.1-1.5-1.3-1.4-2.8-1.8c-.1 0-.2-.1-.2-.1-2-.6-4.2-1.4-4.2-4s2.1-4.1 4.8-4.1c1.7 0 3.5.6 5 1.5l-1.2 2.2c-1.3-.8-2.6-1.3-3.8-1.3s-1.9.5-1.9 1.4 1.3 1.4 2.8 1.8c.1 0 .2.1.2.1 2 .6 4.2 1.5 4.2 4 0 2.9-2.2 4.2-5 4.2-2 0-4.1-.7-5.8-2z"/></g>
</svg>
