<?xml version="1.0" encoding="utf-8"?>
<svg version="1.2" baseProfile="tiny" id="Layer_1" xmlns="http://www.w3.org/2000/svg" xmlns:xlink="http://www.w3.org/1999/xlink"
	 x="0px" y="0px" viewBox="0 0 900 600" xml:space="preserve">
<g>
	<path d="M746.46,113.66c0.52-2.73-2.14-3.92-3.25-5.98c-1.35-2.52-4.16-2.64-6.65-3.58c-1.37-3.77-5.39-2.98-5.93-3.81
		c-1.23-1.87-3.24-1.75-5-2.31c-0.94,0.6-1.79,1.14-2.75,1.74c-6.89-4.51-9.45-6.94-19.99-2.98c-5.24-4.97-10.29-0.8-8.96,4.5
		c1.98,0.69,2.44,3.1,4.19,4.34c1.83-1.94,1.35-1.75,1.56-1.73c0.81-5.27,1.47-3.71,1.07-4.9c-1.76-0.14-2.08,1.52-3.03,2.36
		c-3.22-1.38-2.06-2.71-0.05-5.14c3.53,1.92,2.22,1.27,5.16,2.4c-0.11,1.26-3.16,5.27-3.17,5.37c-0.28,0.31,0.08,3.17-1.2,2.48
		c-0.27-0.15-0.17-1.04-0.31-0.89c-1.11,1.17-1.02,2.72-0.47,4.23c3.12,8.6,5.44,9.09,15.4,16.07c-1.89,12.58,8.83,12.66,4.38,25.27
		c-11.23,31.84-8.17,26.32-14.16,31.83c-3.14,2.88-3.34-7.38-6.21-12.07c-0.41-0.81,7.68-7.31,7.05-14.92
		c-0.95-11.51,2.64-13.26-19.92-32.11c-1.01-4.09,0.14-0.5-4.2-9.03c-4.07-8.01-11.05-8.31-18.79-14.14c-1.18-0.89-2-1.24-7.84-4.18
		c-0.98-4.61-2.7-12.53-1.09-16.61c8.65,1.18,7.97,2.08,15.23-0.43c3.92-1.35,3.52-5.23,2.29-8.9c1.49-1.62,1.34-3.41,0.13-5.26
		c-0.07-0.1,0.26-0.09,0.96-1.13c0.94-1.41,0.52-2.05-0.27-5.99c-0.09-0.45,3.7-1.45,3.86-4.51c0.19-3.64-3.57-4.1-4.98-11.1
		c-0.02-0.1-0.33,0.36,1.78-2.02c0.09-0.1,0.15,0.09-1.36-0.92c1.35-3.2,3.54-5.92,0.59-12.39c-7.66-16.77-5.51-16.83-20.54-21.86
		c-9.67-3.24-26.7-4.32-33.16,1.36c-11.64,10.25-5.3,7.31-19.37,7.21c-7.47-0.06-7.96,7.54-12.12,14.07
		c-4.16,6.51-1.89,13.8,1.54,21.41c2.02,4.47,0.75,5.18,4.87,18.35c5.3,16.97,3.33,31.66,2.04,31.98c-3.26,1.08-6.87,1.92-8.31,3.74
		c-2.89,3.65-5.38,7.46-6.19,12.06c-2.71,15.22-2.29,17.02-1.33,23.01c0.7,4.38-1.25,2.06,1.38,10.03c0.03,0.1,7.8,23.47,8.28,24.51
		c3.46,7.49,0.9,5,2.7,10.98c7.56,25.04,4.92,21.02,16.14,34.42c-1.57,8.06-8.86,21.1-11.06,24.65
		c-8.6,13.84-14.85,43.37-14.75,47.22c0.55,21.26,4.8,30.86,5.73,41.66c0.09,1.03-2.25,30.7,10.29,60.66
		c7.25,17.34-3.12,39.01-11.59,61.32c-10.35,27.24,6.29,67.47,3.61,84.25c-1.07,6.71,2.18,5.2-0.85,11.47
		c-0.39,0.8-1.11,1.13-1.89,0.57c0.42-1.58,1.11-0.67,1.51-1.65c0.37-0.92-0.66-2.1-1.97-1.63c-5.03,1.82-5.27,9.79-6.26,12.7
		c-1.43,4.24-1.42,3.48-5.24,15.08c-2.41,7.29-1.02,7.68-3.01,12.49c-0.93,2.26,2.32,2.11,4.03,2.84
		c13.82,5.94,20.58,1.02,24.21,4.61c2.08,2.06,4.76,2.91,7.58,3.19c5.67,0.57,11.27,1.73,17.01,1.86
		c9.76,0.22,27.56-4.05,27.67-4.12c3.43-2.41,8.17-5.09,6.54-8.66c-0.33-0.74,2.31-6.85-1.91-7.86
		c-5.05-1.22-13.02-0.88-22.83-14.09c-2.49-3.35,0.62-1.06-5.77-7.45c-0.1-0.1-0.28,0.33,1.82-2c5.21-5.75,1.47-5.14,5.27-9.34
		c1.48,1.64-0.33,3.48,5.09,7.88c3.59,2.91,5.86,0.66,13.48-4.03c8.02-4.93,4-3.76,5.69-5.84c1.87-2.29,4.83-6.46,5.82-3.73
		c1.62,4.49,3.55,4.74,3.79,6.71c-1.42,0.28-2.64,0.45-3.83,0.8c-3.94,1.19-2.9,4.89-0.95,4.22c1.45-0.5,1.77-0.67,7.22-2.83
		c2.23,1.66,1.52,2.65,1.66,2.64c-1.77,0.17-4.08,0.06-5.09,1.38c-0.91,1.19,0.13,2.63,2.39,2.44c1.06-0.09,2.81-0.51,5.67-1.11
		c2.06,2.14,1.6,1.81,1.7,1.78c-2.03,0.71-4.85,1.33-4.43,3.08c0.47,1.91,4.71,0.57,6.54,0.09c4.92,5.54-1.97-1.55,14.39,5.52
		c1.08,0.47,2.14,0.84,3.3,0.72c3.72-0.39,7.3,0.78,10.97,1c3.78,0.22,3.55,1.7,5.42,9.18c0.11,0.42-0.29,1.19-0.19,1.12
		c-5.78,4.12-11.02,8.01-19.14,6.69c-7.8-1.27-13.39,1.87-22.31-0.57c-2.08-0.57-11.19-2.08-11.66,0.22
		c1.96,3.19,2.63,1.23,6.57,2.15c17.63,4.1,37.22,6.18,49.01-7.45c-2.56-3.67,2.63-11.72-5.74-13.66
		c-16.67-3.86-2.88,1.83-22.17-4.59c-6.83-2.28-5.62-3.59-6.83-4.89c-10.31-10.75-11.42-11.29-12.55-15.05
		c-0.85-2.84-2.79-3.65-4.58-4.63c0.31-4.84,6.81-34.8,6.83-34.9c4.24-25.99,7.17-9.34,8.99-44.85c1.43-29.32-0.07-21.58,3.37-29.37
		c1.41-3.16-0.62-2.02,0.3-6.26c0.85-3.9,2.96-15.06,0.75-18.37c0.87-2.59,6.57-32.11,7.89-54.82
		c1.71-29.39-15.62-75.33-10.83-102.78c3.33-19.12-2.66-43.7,9.51-21.33c2.18,4.02,9.17,5.71,14.12,7.28
		c5.29,11.4,27.83-37.68,29.84-63.55c0.6-7.71,2.37-9.13,5.91-23.28c7.61,0.97,13.25,1.22,17.94-5.96
		C766.39,125.25,752.47,117.97,746.46,113.66z M699.14,108.72c0.03-0.1,0.06-0.19,0.08-0.29c0.06,0.01,0.16,0,0.17,0.03
		C699.54,108.84,699.4,108.75,699.14,108.72z M740.33,108c-3.12,1.79-3.12,1.79-5.44-0.61C736.52,106.44,736.99,105.31,740.33,108z
		 M734.61,104.31c-1.22,2.65-2.08,2.88-4.89,1.13C731.73,102.83,731.73,102.83,734.61,104.31z M725.83,100.41
		c1.56-0.43,3.68,0.61,3.13,1.84C728.14,104.06,723.76,100.98,725.83,100.41z M742.11,111.76c-0.39-0.68,0.81-1.55,1.94-0.16
		C744.58,112.26,742.79,112.98,742.11,111.76z M703.8,115.95c-0.44-0.67-0.43-0.21-0.43-0.6c-2.89-2.89-1.46-3.69-3.1-4.74
		c-0.1-0.06,0.49-0.27,0.49-1.41c0-1.48-1.06-3.11,0.3-4.4c1.26-3.68,4.36-5.76,7.15-8.07c0.73-0.6,1.91-0.58,2.84,0.1
		c0.36,2.29-7.21,3.13-7.74,13.62C702.95,117.73,704.31,114.93,703.8,115.95z M705.87,118.02c-6.07-16.92,8.57-18.18,6.58-21.43
		c2.52-0.21,4.46,0.75,6.17,2.62c-7.43,0.84-13.38,7.33-12.19,14.86c0.77,4.88,1.46,5.66-0.39,4.17
		C705.96,118.17,705.9,118.1,705.87,118.02z M714.09,123.29c-1.75-0.4-2.98-1.74-4.63-2.71c-0.18-1.23,0.02-2.6-0.7-3.86
		c-4.26-7.46,5.31-18.9,13.5-15.66c0.89,0.36,1.43,1.56,0.1,1.91c-12.04,3.16-12.21,15.31-8.21,18.02
		C715.04,121.59,714.95,121.72,714.09,123.29z M700.13,162.13c-1.91,4.67-0.42-1.09-10.69,17.38c-13.83-4.27-12.91-3.32-24.92-2.34
		c-19.5,1.59-24.81,2.45-28.56,2.45c-2.4-7.03-0.1-46.75,1.51-49.08c3.55-5.11,0.95-6.79,0.68-10.19c0.32,0,2,0.45,3.43,1.96
		c4.61,4.87,7.71,0.93,12.73,4.97c16.35,13.17,26.51-1.03,23.74-3.8c1.28,0.63,9.06,7.56,14.94,12.26
		C700.41,141.65,704.12,152.37,700.13,162.13z M622.2,80.57c-0.37-0.29,0.01-0.51-3.06,0.61c-11.8,4.29-8.88,16.05-8.87,16.61
		c0.01,0.64-0.95,2.26-1.36,0.23c-1.32-6.47-1.88-12.67,5.53-17.47c3.37-2.18,3.44-3.45,6.14-1.51
		C620.93,79.3,622.04,80.31,622.2,80.57z M613.68,87.87c-0.33,0.43-0.17,0.07-0.21,0.73c-0.06,0.93-0.71,0.73-0.66,0.96
		c-0.1,0.01-0.31,1.37-0.24,1.47c-1-1.39,0.1-1.22,0.17-1.53c0-0.69-0.04-1.14,0.74-1.4C613.46,87.9,614.1,87.63,613.68,87.87z
		 M607.57,87.54c-1.38,4.43-0.25,9.47,0.02,9.82c-0.03-0.1-0.22-0.1-0.22-0.37c-2.33-0.57-3.64-7.32-3.45-9.03
		c0.11-0.94,0.84-1.8,1.17-2.74c1.19-3.32,4.17-4.94,6.66-7.01c1.01-0.84,3.7-0.01,3.97-0.13
		C616.49,78.07,609.55,81.16,607.57,87.54z M604.78,98.4c-0.26-0.04-0.23,0.02-0.07-0.21L604.78,98.4z M603.02,86.05
		c1.77-8.24,2.4-7.43-1.84-3.51c-3.4-1.38-1.97-2.54,0.2-5.12c0.08-0.1,2.18,1.16,2.69,1.83c0.66,0.87,0.36,0.1,1.35,0.45
		c2.14,0.75-2.03,4.73-2.51,6.83c-0.16,0.01-0.11-0.3-0.11,2.77C599.75,84.46,601.81,88.03,603.02,86.05z M596.37,71.75
		c0.05-0.1,0.02,0.16,0.03,0.29C596.24,72.03,596.27,72.05,596.37,71.75z M598.55,83.82c1.33,3.29,1.72,11.03-0.9,13.9
		C597.52,93.06,597.84,88.6,598.55,83.82z M600.23,54.48c-0.12-0.01-0.1,0.04-0.05-0.25C600.19,54.23,600.18,54.23,600.23,54.48z
		 M604.99,39.48c1.07-0.91,1.41,0.23,1.99,0.45c0.82,0.32,1.55,0.85,2.36,1.22c2.51,1.16,6.13,1.38,3.19-0.14
		c-4.49-2.31-6.15-2.48-7.5-5.66c0.53-0.03,0.92-0.17,1.16-0.05c3.98,1.94,18.94,2.87,17.31,4.37c-0.98,0.9-2.4-1.98-5.72,0.84
		c-0.56,0.48-1.61,1.35-2.25,1.9c-0.51,0.43-1.18,6.44-1.38,6.75c-2.08,3.2,2.34,5.84,3.01,8.67c0.03,0.12-2.9-0.75-5.81-3.72
		c4.02-1.34-6.06-4.56-5.59-10.73c8.4,2.52,2.22-0.08,1.25-1.23C605.5,40.36,605.09,39.39,604.99,39.48z M596.16,16.98
		c-0.2,0.2-0.27-0.72,5.56-0.67c5.9,0.05,4.93-0.08,4.63,2.09C603.53,18.54,607.47,17.12,596.16,16.98z M594.63,19.02
		c-0.59,0.43-0.74,0.14-0.86,0.39c-2.53,2.35,0.19-0.52,0.29-0.57C594.38,18.84,594.55,19.02,594.63,19.02z M622.24,28.83
		c1.23-2.51-0.7-0.15-2.13-1.91c-5.11-1.46-2.79-1.5-3.47-1.5c-0.1-0.09-4.44-0.27-8.52-4.25c2.19-0.97,7.68,2.57,2.22-1.01
		c-1.37-0.9-3.39-1.05,4.48-6.95c0.55-0.41,1.45-0.53,2.13-0.48c15.2,1.16,12.71,0.78,22.88,4.85c-2.38,0.6-4.53-0.75-6.46-0.45
		c-1.58,2.26-23.65-6.75-19.53,0.57c4.8-0.6,16.05,2.02,20.65,3.4c-3.87,4.6,3.88,3.73,9.31,1.48c0.22,3.98-2.67,1.57-5.52,2.4
		c-0.38,0.11-7.97,3.3-13.25,1.31c-17.59-6.62-11.26-5.27-10.93-1.61c0.14,0.04,0.12,0.02,0.24,0.14c1.72-0.1,2.01,0.57,2.38,0.53
		c0,0.29,2.32-0.01,3.39,1.59c1.44,0.42,11.66,3.15,12.29,3.36c-3.51,1.31-6.74,1.78-11.5,0.72c-2.57-0.57-5.74-0.91-6.26-1.22
		c-7.68-4.58-7.73-4.6-7.66-5.16C607.44,21.01,610.66,27.44,622.24,28.83z M626.62,5.9c10.75,0,9.68-0.11,9.68,0.26
		C625.56,6.16,626.62,6.27,626.62,5.9z M650.59,7.98c1.51,0,0.31,1.65-0.55-0.06c-1.04,0.26-1.75-0.56-2.22-0.67
		c-0.52-0.46-0.09,0.04,0.9-0.01C650.17,7.16,649.51,7.98,650.59,7.98z M640.93,6.73l0.31,0.06C640.85,6.87,640.93,6.89,640.93,6.73
		z M637.5,15.12c-0.08,0.37,0.16,0.33-1.22,0.01C636.9,14.76,636.83,15.12,637.5,15.12z M639.45,16.02
		c-0.33-0.15-0.35-0.11,0.04-0.14L639.45,16.02z M633.47,10.43c4.25-0.26,4.47,1.25,4.86,1.7c-1.63,1.08-2.76,0.25-4.17,0.13
		c-0.82,1.45,1.42,1.62-14.62-1.78c-0.2-0.04-0.38-0.41-0.52-0.55c0.9-2.24,2.43-1.47,5-1.03c-0.76,0.91-2.08,0.03-3.08,1.28
		C625.27,10.09,629.5,10.67,633.47,10.43z M623.38,7.47c0.86,0.06,0.94,0.36-0.61,0.26C622.6,7.44,623.28,7.47,623.38,7.47z
		 M639.13,20.65c-1.61,0.26-1.33,0.36-1.37-0.35C639.34,20.3,639.07,20.19,639.13,20.65z M637.57,28.9
		c3.84-2.41,3.84-2.41,5.85-2.11C641.15,29.76,637.97,28.65,637.57,28.9z M623.02,37.3c-12.29-3.49-12.02-3.57-12.37-3.41
		c-3,1.43-5.16-2.38-5.09-1.63c-0.18-1.92,0.24-3.72,0.65-5.8c3.78,2.18,12.05,7.31,17.86,8.14c-0.29-1.1-2.8-1.13-2.78-2.28
		c-0.1-0.01-1.12-0.14-1.02-0.19c0.79-0.47,0.33,0.09,1.02,0.09c0,0.04,0,0.06,0,0.1c9.29,1.33,5.63,2.68,9.52,2.34
		c1.41-0.12,6.19-0.72,6.25-0.9c1.02-0.68-0.33,1.15-5.64,2.32C625.31,37.44,626.48,38.29,623.02,37.3z M634.69,28.24
		c0.03-0.24-0.06-0.21,0.36-0.07L634.69,28.24z M613.27,58.43c-0.1-0.07,4.1,0.13,5.54,1.21c0.13,0.1,0.09,0.43,0.19,0.97
		C616.76,60.56,615.18,59.7,613.27,58.43z M612.06,76.21c-0.49-3.04-0.2-3.75,2.08-5.42C615.96,72.12,616.12,76.9,612.06,76.21z
		 M610.29,62.52c-0.06-0.13,0.17,0.31,0.17,0.44c3.73,0,0.05,17.66,0,0C610.34,62.96,610.34,62.64,610.29,62.52z M611.87,57.19
		c-0.42-0.28-0.59-0.4-1.12-0.77c0.43-0.5,0.21-0.66,1.31,0.52C612.08,56.95,611.87,57.19,611.87,57.19z M601.52,33.88
		c0.29-4.83,1.27,10.83,2.15,12.71c1.14,2.42,3.35,8.33,3.69,13.12C602.39,54.34,601.07,40.79,601.52,33.88z M600.82,57.16
		c0.28-1.87,0.49,1.1,0.29,0.88C600.84,57.73,600.78,57.45,600.82,57.16z M601.23,58.16c0.69,0.66,4.71,12.7,5.62,17.72
		c0.6,3.32-0.72,1.93-2.95-0.07C601.02,54.9,601.84,65.27,601.23,58.16z M679.58,119.53c-0.38,0.38-0.44,0.18-0.45-0.21
		c-0.01-0.29-0.78,0.26-4.3-3.54c-0.48-0.52-4.81-5.68-3.98-5.67C673.94,110.17,678.94,119.23,679.58,119.53z M664.12,105.19
		c0.17-0.26,0.11-0.26,0.2,0.03C664.27,105.21,664.22,105.2,664.12,105.19z M664.25,112.97c0.42-2.97,0.36-3.04,0.1-3.17
		c0.16,0.05,0.23,0,0.23,0.21c0.09,0.09,0.08,0.05,0.04,0.15c2.49,1.25,1.87,1.9,3.58,3.07c3.32,2.26,4.73,5.72,6.5,9.6
		c0.92,2,0.72,2.94-1.11,4.15c-5.84,3.86-3.98-1.09-7.77-2.34c-0.12,0.3-0.35,0.62-0.28,0.74c1.47,2.53,1.98,3.05,1.95,3.15
		c-0.55,1.59-4.64,0.39-6.36-0.35C647.9,122.5,662.37,126.19,664.25,112.97z M642.72,120.4c0-1.82-3.84-10.44,3.7-15.81
		c3.18-2.26,5.25-1.92,6.85-4.51c-1.14,0.1-2.41-0.03-3.33,0.28c-5.57,1.89-10.08,8.15-10.13,14.02c-0.04,5.04,1.88,5.26,1.03,4.89
		c0-0.59-1.38-0.68-4.26-2.79c0-0.1-0.29,0.38,1.18-1.56c-0.86-3.52-0.86-2.03-0.68-7.03c0.22-5.69,6.35-9.36,10.05-9.88
		c2.01-0.28,0.83-2.42,11.22,4.85C668.11,109.68,657.63,129.06,642.72,120.4z M632.96,108.93c-1.37-2.83,0.31-6.67,2.04-9.48
		c1.33-2.15,1.09-1.48,9.46-5.1c1.57,0.52,1.77,1.37,1.81,1.85c-1.08,1.53-2-0.35-6.62,3.4C633.29,104.75,636,115.19,632.96,108.93z
		 M636.23,95.76c4.06-5.8,0.03-5.52,6.19-2.99C641.62,94.24,638.22,94.65,636.23,95.76z M668.53,74.44
		c0.23,5.87-10.57,3.32-15.7,3.79c-3.95,0.35-3.97,3.71-3.64,8.03c0.68,8.79,3.95,10.9-2.04,7.3c-20.73-12.5-9.88-9.5-17.1-11.05
		c-0.23-0.84-0.49-1.76-0.72-2.59c-1.69-1.03-3.37-0.09-4.94-0.38c-7.51-4.14-6.11-1.61-6.79-10.52c0-0.1-0.48,0.31,3.33-2.13
		c0.43-4.99,1.08-0.38-5.39-3.2c-0.55,1.3-0.92,1.54-0.16,1.65c-0.08,0.01-0.44-0.06-0.51-0.07c0-0.44-0.48-0.74-1.01-1.89
		c-0.83-1.78,0.08-1.91-0.85-2.38c0.44-0.42,0.52-0.14,0.53,0.27c11.38,2.7,4.57,0.61,9.92,5.17c3.68-0.22,5.03-1.95,5.24-2.05
		c-1.22-2.79-0.52-2.54-2.97-0.65c-2.38,0.03-2.54-1.03-9.79-11.3c-0.64-0.89,2.18-1.19,2.51,0.37c1.45,6.8,6.78,5.73,4.18,2.09
		c-2.85-4-1.25-4.93,0.34-7.04c2.87,0.08-0.14,3.27,0,3.67c1.68,3.97,2.63,7.85,4.81,3.19c0.51-1.09-1.64-2.52-2.64-3.03
		c0.29-0.83,0.72-1.69,0.69-2.96c-0.07-2.92-4.87-6.11-6.95-5.69c-0.41,1.63-1.79,4.02-2.57,5.54c0.39-3.84,0.42-3.89,2.5-5.61
		c0.19-1.02,0.92-1.46,1.83-1.66c3.66-0.79,3.65,5.6,10.07,5.47c1.16-0.02,1.22-0.66,2.57-2.27c-1.35,0-1.24,0-2.61,0
		c0.66-1.06,8.82-6.43,10.82-8.65c0.19-1.02,0.44-2.36,0.68-3.64c2.76-2.01,1.3-0.35,2.38-4.75c2.65-10.82-0.52-4.51-3.86-6.18
		c0.29-1.48,1.83-1.15,2.68-1.63c2.22-1.25,6.84,0.21,7.32,0.32c2.82-2.42,2.54-2.06,2.4-2.23c-0.97,0-6.09-2.77-6.09-2.87
		c-0.01-0.04-0.02-0.07-0.03-0.11c-1.48,0-1.06-0.43-1.63-0.79c-2.44,0-7.13-1.59-4.7-1.74c2.13-0.13,5.05,1.83,4.95,1.83
		c1.64,0,0.92,0.37,1.76,0.86c3.87,0.5,5.94,2.82,5.83,2.91c0.1,0.1-0.29-0.12,4.23,1.88c3.73-1.95,3.39-0.06,5.11-1.58
		c2.8,0.52,3.34,2.88,4.19,5.63c3.91,12.56,3.66,11.39,3.56,11.49c-2.02,2.61-3.9,2.67-3.29,6.34c1.18,7.11,6.2,12.03,5.82,12.42
		c-2.83,3.87-4.34-1.23-6.6,2.65c0.24,1.19,1.28,0.66,1.83,1.01c1.81,5.37,1.62,4.54,1.57,4.64c-1.28,2.7-5.26,1.61-6.8,1.65
		c-0.19,0.01-1.64,0.89-1.53,0.93c3.14,1.33,1.16,0.92,5.41,0.94c2.22,0.01,2.35,2.26,2.57,1.94
		C665.41,73.34,668.3,68.38,668.53,74.44z M621.65,46.53c-0.57,1.12-1.29,1.93-2.48,2.45C620.51,44.18,621.74,46.27,621.65,46.53z
		 M656.24,17.12c0-0.13,0.29-0.25,0.53-0.43c0.16,0.29,0.31,0.56,0.46,0.84c0.04,0.1-0.59,0.17-0.69,0.14
		C656.25,17.57,656.25,17.02,656.24,17.12z M599.07,19.79c-0.52,1.79-9.89,9.13-5.61,19.91c0.96,2.41-3.06-10.02,7.5-19.61
		c4.38,0,5.11-0.8,3.85,1.55c-1.9,3.56-6.67,2.43-6.55,21.48c0.12,17.67,4.25,22.72,2.98,28.76c-0.66,3.15-0.04-3.03-1.97-6.96
		c-0.47,3.91,1.13,20.13-0.95,6.71c-5.75-37.05-4.96-14.95-4.73-18.73c-2.21,0.55,2.28,3.74,2.28,17.9
		c-2.53-5.48-9.64-28.68-9.91-34.52C585.29,21.47,599.04,19.89,599.07,19.79z M600.62,206.61c-11.9-32.96-0.32-8.34-14.54-47.58
		c-1.37-3.76-8.53-18.77-5.25-36.72c3.69-20.06,9.57-18.32,18-21.77c3.97-1.62,6.59,0.64,9.08,4.22c2.49,3.57,5.68,8.17,7,11.04
		c4.23,9.16,1.85,19.95-0.11,22.8c-1.16-1.19-0.46-4.91-1.03-5.54c-1.45-1.63-1.94,2.01-1.56,4.37c0.94,5.75,2.11,6.89,0.85,9.65
		c-3.01,6.6-0.48,8.15-3.06,14.8c-3.6,9.26-11.19,26.75-7.69,28.77c6.39-11.33,21.62-61.77,14.99-75.77
		c-1.12-2.36-7.44-11.38-5.6-16.3c4.08-10.92,2.33-12.72,15.55-17.37c3.67,2.14-6.02,3.08-9.06,10.26
		c-4.81,11.33-1.92,9.09-1.71,8.64c6.87-14.55,3.17-9.5,11.67-15.34c1.93-1.32,3.74-0.15,3.6-0.4c0.56,0.96,0.16,1-5.08,5.64
		c-3.18,2.81-2.19,2.51-6.84,11.27c1.65,4.03,4.35-12.48,15.7-12.71c-4.13,4.8-6.6,3.89-10.2,11.18c-0.82,1.66,0.18,3.39-0.1,3.27
		c2.03,0.83,1.45-2.16,2.87-4.55c1.43-2.42,5.36-7.02,7.75-7.02c-1.2,5.64-8.04,10.16-4.07,19.96c7.67,18.97,5.59,10.84,2.25,20.61
		c-4.32,12.66,1.84,47.26-4.26,64.04c-2.64,7.26,1.52,7.4-15.9,25.34C611.75,220.05,602.09,210.68,600.62,206.61z M608.71,220.77
		c1.92,1.03,3.12,2.97,5.31,3.03c11.21-7.04,18.77-19.19,17.97-26.51c0-0.24-0.03-0.17,0.12-0.74c3.6-14.45,2.42-13.45,7.16-13.95
		c47.92-5.04,33.54-3.4,43.26-0.94c3.57,0.9,1.39-0.01,6.77,1.87c-0.33,1.95-1.04,8.61-2.02,13.93c-1.5,8.1-8.61,11.37-8.89,23.95
		c-0.13,5.59,0.44,38.7-4.37,38.63c-25.25-0.42-21.64-0.42-23.76-0.7c-0.85-2.59-1.61-2.16-21.21-7.74
		c-3.01-0.85-1.97-6.15-4.06-6.48c0,7.77,5.26,5.6-21.77,0.37C593.54,243.65,600.3,246,608.71,220.77z M636.13,403.67
		c0,2.17-1.78,8.23-2.03,13.48c-0.14,2.75-2.71,6.73-3.51,8.34c-3.49,7.03-0.57,9.88-4.65,13.7c-0.35,0.33-10.41,34.41-10.44,34.51
		c-0.52,1.78-6.88,58.93-6.18,67.45c-2.3,1.68-5.22,3.02-7.3,5.46c-6,7.03-6.38,7.18-6.28,7.23c-3.08-1.67-2.5-1.47-2.6-1.41
		c-1.34,0.85,0.04,1.68-0.48,2.93c-3.29,3-2.45,3.27-3.23-1.03c2.33-3.24,1.85-5.75,2.28-6.55c0.05-0.1,0.7-1.15,0.41-0.67
		c0,4.62,1.83,4.32,2.14,1.97c1-7.61,1.63-10.04,0.3-12.63c-0.27-0.52-0.39-2.2-0.36-2.3c-0.96,3.91-0.84,10.9-2.08,12.96
		c0-37.33-9.29-60.21-6.27-77.95c2.96-17.31,11.82-37.18,15.24-54.85c2.09-10.74-1.39-19.14-2.1-22.1
		c-15.12-63.88-6.59-39.41-8.8-56.41c-1.65-12.75-2.3-15.03-2.71-20.98c15.19-4.85,36.65-8.22,50.44-1.67
		c3.48,1.65,2.11-2.12,2.44,29.3c0.38,35.96,1.71,32.14-5.23,57.99C634.45,402.89,634.76,402.62,636.13,403.67z M586.16,305.5
		c-1.96-13.69-3.77-15.08,5.7-43.42c2.49-7.43-1.13,0.6,4.12-10.8c1.46-3.17,0.16-3.13,3.45-2.99c1.65,0.07,21.59,3.95,39.26,10.26
		c14.07,5.03,9.16,4.25,36.6,4.25c1,0.75,0.75,1.84,0.84,2.82c0.41,4.41,3.7,2.42,2.85,6.97c-0.35,1.87-2.67,2.31-4.12,2.76
		c4.14,0.47,4.57-0.37,4.75,4.97c0.08,2.17-2.42,0.81-0.89,5.92c0.89,2.99,7.32,21.47,7.32,27.5c-7.89,0-19.09,3.46-41.91,8.32
		c-0.85-1.91-0.23-1.13-1.98-10.76c1.98-2.3,1.73-7.54,0.06-5.96c-0.82,0.77-1.06,3.65-2.09,4.69c-0.79,0.8-0.04,0.13-8.7-2.24
		c-4.58-1.25-32.49-4.12-34.6-0.4c-0.9,1.6-1.52,1.09-9.55,3.74C586.55,309.19,586.42,307.32,586.16,305.5z M642.23,594.93
		c-51,7.53-39.61-10.62-50.03-6.45c0.03,0.05,0.95,1.47,0.99,1.53c-1.33,1.33-10.5,0.73-18.4-2.74c2.13-21.35,8.7-21.91,8.13-29.51
		c-0.15-2,0.21-3.75,1.35-5.74c0.73,2.46,0.85,4.87,2.19,6.89c0.2,0.3-0.2,0.98-0.19,1.46c0.05,2.32,2.06,3.37,3.97,2.18
		c2.78-1.73,4.61-4.81,7.35-5.98c1.65-0.71,6.35-10.79,15.14-12.75c2.67,5.07,2.39,7.65,5.84,10.35c0.9,0.7-12.47,4.25-10.67,6.87
		c1.37,2.01,11.15-6.2,15.24-1.98c0.45,0.46-9.73,1.73-11.12,4.64c-0.33,0.69,0.21,1.79,0.94,1.68c1.86-0.28,7.07-1.19,8.23-1.58
		c-0.38,1.44-5.41,2.28-5.3,4.27c0.13,2.29,2.29,1.31,14.34-1.78c0.97,1.3,2.33,2.39,2.66,4.19c-4.84,0.85-10.66,1.61-9.93,3.43
		c1.17,2.93,9-0.15,11.94-1.24c13.95,9.02,7.36,5.87,19.63,8.54c0.43,0.09,0.71,0.38,1.76,1.14c-5.73,2.16-7.67,2.59-10.15,4.94
		c-9.39,8.89-3.8,5.85-2.58,4.78c4.94-4.33,12.59-7.57,12.81-6.81c0.13,0.44,0.33,1.37,0.35,1.47
		C653.09,591.68,648.11,594.07,642.23,594.93z M628.13,562.53c0,0.03,0,0.16-0.03,0.17C627.8,562.81,627.05,562.63,628.13,562.53z
		 M634.34,541.97c-1.25,0.56-4.82,5.42-5.19,8.16c-0.16,1.16-1.41,2.4-4.6,6.1c-2.72-0.44-5.77-5.9-6.38-8.39
		c-1.65-6.8-3.78-6.87-6.84-7.49c0-0.1,3.01-60.04,17.2-99.27c0.74-2.05,1.6-5.2,1.6-6.83c0.24-4.36,3.67-9.46,4.4-11.22
		c2.47-5.97,1.33-4.39,4.23-18.45c2.47-11.95-1.33-6.45,3.36-17.73c3.26,13.66,1.06,14.97,3.31,24.56c1.41,6.04-2.1,6.49,2,14.37
		c2.09,4.02,2.45,1.08-0.56,9.18c-19.71,53.06-2.84,51.26-8.4,96.6C636.72,546,637.09,540.73,634.34,541.97z M661.29,524.84
		c-3.18,14.92-0.95,13.44-3.01,15.9c-2.22,2.64-1.64,1.97-2.54,4.48c-12.89,7.28-12.79,7.13-12.69,7.17
		c-2.5-0.95-3.99-2.72-5.27-5.03c4.25-4.48,5.44-37.56,5.6-43.74c0.45-18.03-10.96-17.42,6.64-70.03c0.35-1.03,0.76-1.9,2.19-1.68
		c0.62,1.93,0.27,4.72,1.91,6.36c0.67-0.67,0.53,0.67,0.53-6.77c-5.34-3.12-4.53-22-10.4-44.17c-1.55-5.87,0.17,7.61-0.22-60.36
		c-0.03-3.72-0.09-1.84,6.31-3.03c0.1-0.02,32.17-6.31,36.03-8.63c2.67,13.16,3.75,31.7,1.34,48.24
		c-4.57,31.4-4.02,17.74-6.07,39.06c-0.14,1.46,0.78-1.24,0.49,6.22c-0.1,2.56-0.78,7.05-0.68,9.49c0.5,11.83,1.65-3.03-2.67,16.93
		c-2,9.21-1.53,24.44-2.02,27.58c-4.61,28.93-3.69,12.03-6.77,27.5C667.79,501.31,667.05,497.85,661.29,524.84z M716.19,214.7
		c-5.72,8.76,0.76,3.73-9.22,14.18c-1.41-2.38-3.54-2.31-9.62-4.43c-0.1-0.04-3.56-1.36-3.64-1.46c-8.8-13.36-8.3-11.66-7.38-14.06
		c2.74-7.17,3.73-9.17,3.93-11.11c1.52-15.32,0.62-16.96,4.69-22.86c0.44-0.64,3.7,8.47,4.82,10.32
		c-3.98,11.21-3.09,7.98-3.09,11.72c0,0.1,1.2-1.09,1.27-1.29c3.03-9.12,0.75-3.97,5.66-8.87c2.32-2.32,7.53-7.27,7.75-10.54
		c0.04-0.55,8.76-23.59,9.31-31.2c0.33-4.62-1.25-6.08-3.34-8.95c-1.79-2.46-3.05-6.61-2.39-8.92c2.79-9.64,2.27-7.12,8.81-9.3
		c1.92,2.33-1.31,3.59-3.77,4.99c-0.83,2.11-1.03,6.68,0.87,8.33c1.55,1.35,0.95,1.71,2.52,3.26c0.87,0.86,1.91,1.57,2.88,2.47
		c0.89-2.83-2.38-1.92-1.39-3.73c1.14-0.32,10.61,5.47,13.68,8.45c0.1,0.1-0.18,0.3-2.85,9.66c-4.23,14.82-2.43,0.83-6.98,26.23
		C728,181.46,727.96,196.64,716.19,214.7z M744.8,141.26c-7.53-1.23-5.53-3.02-6.02-4.75c-2.31-8.27,1.85-12.47,8.69-15.67
		c1.87-0.87,2.71-2.34,2.6-2.4c-0.38-0.25-3.82,0.71-5.75,1.72c-8.45,4.43-9.2,15.29-7.07,17.54c-4.81-2.14-3.55-2.23-5.56-3.38
		c-9-5.16-11.4-5.66-10.48-9.24c3.67-2.4,7.36-4.06,3.14-8.83c-3.44,0.8-5.97,0.89-9.16,2.94c-2.4-3.67-1.59-1.89-1.4-4.88
		c0.51-8.1,9.02-10.09,8.23-9.79c5.66-2.16,5.36,2.26,7.34,3.18c2.25,1.04,4.62,1.77,6.77,3.09c0.89,0.54,2.23-0.42,3.27,0.62
		c-1.8,2.53-14.03,1.46-11.33,18.61c0.06,0.4,1.29,1.39,1.29,1.48c0-4.61-2.33-7.32,2.79-14.37c0.07-0.1,0.62-0.86,1.13-0.96
		c4.17-0.79,4.42-3.59,9.19-1.06c-3.47,1.25-4.05,0.38-8.75,5.74c-1.87,2.13-3.54,11.03-1.23,13.73c0.05-0.02,1.11-0.37,1.54-0.51
		c0-1.27-2.7-10.1,2.46-13.81c8.33-5.99,6.35-1.49,8.59-5c1.58,0.63,5.07,3.1,5.02,3.2C767.11,129.09,754.15,142.78,744.8,141.26z"
		/>
	<path d="M296.74,316.06c-1.14-2.29-4.05-2.82-8.44-4.29c-0.55-0.19,0.26-6.56-15.36-11.34c-0.12-0.04-0.61-2.37-1.65-4.09
		c-0.06-0.1-8.3-10.34-8.39-10.45c-1.99-7.99-0.15-12.4-2.77-18.47c-1.26-2.91-0.07-6.39-0.92-12.75
		c-1.14-8.46,1.68,0.99,2.09-32.14c0.1-8.13,2.4-9.3,4.35-13.97c9.42-22.68-0.35-25.83,12.97-40.88c7.07-8,5.64-21.71,0.84-28.41
		c-0.91-1.27-7.65-8.95-19.56-18.06c-8.78-6.71-9.9-11.92-9.92-11.07c4.47,1.99,5.16,5.42,10.13,9.83c0.79-2.49-2.44-5.12-3-8.48
		c-0.27-1.65-10.51-6.57-11.72-3.61c0,1.39,3.45,3.28,3.49,4.61c0.09,2.94,3.1,4.55,5.53,12.1c-7.4,2.93-18.31-1-23.51-2.44
		c-8-2.21-9.79-7.77-12.22-10.64c-9.17-10.86-14.46-11.64-9.27-11.38c16.88,0.84,18.66,0.15,20.86,3.84
		c3.68,6.14,6.2-8.91-24.47-4.81c-6.17-4.31-8.11-5.85-10.67-6.43c-1-0.23-1.22-1.73-0.45-2.57c4.99-5.49,4.25-17.16,4.25-24.04
		c1.74-1.07,3.52-1.64,3.73-3.95c-0.5-0.42-1.01,0.48-5.81-0.88c-0.46,1.11-0.52,2.48-1.95-0.66c-0.77-1.67-0.47-2.21-0.72-2.28
		c0.09-0.1,7.23,1.74,7.61,2.02c1.15,0.88-0.49,0.65,2.66,3.29c6.61-0.03,4.83-3.66,4.98-2.78c-0.33-1.96-1.53-0.57-2.75,0.36
		c-3.58-0.71-6.31-7.45-6.41-7.51c-0.11-0.06-2.18-1.96-3.4-4.24c0.92-1.17,1.67-0.26,2.51-0.12c0.93,4.63,0.82,4.2,0.95,4.3
		c0,0.13,3.37,2.82,4.36,0.31c-0.83-2.06-3.07-3.7-2.46-6.49c2.56-3.1,2.3-2.6,2.24-2.7c1.26,1.87,1.27,0.98-0.35,4.05
		c2.12,5.85,1.43,4.23,2.53,5.73c0.57-0.57,2.31-1.25,2.34-3.48c0-0.1,0.46,0.36-2.7-2.14c-0.1-0.08,0.45-1.26,0.5-1.36
		c1.73-3.64-5.23-8.03-7.26-6.81c0,1.97-1.42,3.19-1.86,5.16c-0.98-4.06,1.65-4.61,2.05-5.68c0.66-1.79,2.91-2.72,5.12-0.32
		c0.54,0.59,1.87,3.23,5.18,4.28c1.54,0.49,3.54-0.19,3.97-2.44c0.02-0.1,0.2-0.03-3.61,0.42c-0.74,0.09,2.39-0.35,5.13-3.51
		c0.49-0.57,0.2-0.32,7.2-5.22c0.09-2.29,0.16-4.31,2.33-5.16c1.88-14.99,2.98-8.47-3.93-9.79c-0.1-0.02,5.89-3.91,9.99-0.96
		c4.28-2.61,2.59-2.58,7.34-0.57c9.54-4.46,7.93,2.12,12.28,13.07c1.15,2.9,0.99,2.65-2.08,5.37c-2.06,5.34,3.28,12.29,5.2,16.1
		c-0.94,1.19-1.85,1.82-3.1,1.13c-1.47-0.82-4.01,0.76-3.35,2.18c2.45,0,1.85-0.41,3.21,4.92c-0.99,2.32-3.52,1.48-6.59,1.64
		c-0.53,0.03-1.06,0.8-1.16,0.69c1.83,2.08,3.94,1.04,5.95,0.97c2.22,2.44,2.21,1.35-0.45,4.83c0.48,1.1,3.42,6.06-1.16,7.21
		c-11.78,2.96-18-4.27-16.89,8.66c1.62,18.69,8.73,16.42,12.48,21.37c4.25,5.59,1.08-6.22-7.13-6.78c-0.1,0-1.54-3.45-2.96-17.8
		c-0.38-3.86,0.78-3.47,6.75-2.36c5.09,0.94,13.82-1.22,12.2-7.64c-0.22-0.86-0.5-1.7-0.79-2.66c1.59-1.39,1.57-3.02,0.57-4.77
		c-0.23-0.41,0.24-1.06,1.23-2.87c-0.18-2.09-1.53-4.31,0.15-5.53c7.16-5.24-0.99-6.5-2.15-14.91c2.36-2.32,2.31-1.58,0.11-2.62
		c3.92-6.92,2.33-9.17-0.71-16.01c-2.42-5.45-5.59-16.56-16.38-17.66c-0.1-0.01-25.79-8.55-35.98,0.8
		c-10.16,9.32-7.12,7.63-15.75,6.95c-11.74-0.93-10.45,6.3-14.97,13.14c-4.49,6.79-2.79,14.57,1.22,22.78
		c1.47,3,0.97,7.04,5.08,19.07c4.03,11.82,1.38,18.02,0.65,25.54c-0.06,0.58,0.56,1.49,0.46,1.59c1.36-1.35,0.91-1.63,2.54-5.26
		c0,2.64,0.44,5.6-0.56,8.49c-8.2,4.04-13.04,4.4-16.93,19.48c-3.33,12.89-0.63,12.67-2.22,22.24c-5.33,32.21-4.23,0.25-6.48,49.73
		c-0.47,9.96-4.49,6.42-2.97,23.83c0.71,8.12-0.7,15.19-0.88,21.65c-0.44,16.26,5.87,38.13,2.87,58.47
		c-1.4,0.43-2.97,0.28-3.86,1.52c-2.14,2.98-4.66,5.72-6.01,9.21c-0.55,1.43-1.42,9.14,0.72,13.2c3.13,5.94,7.58,2.44,9.66,5.59
		c3.47,5.27,12.61,6.06,15.14,6.88c0,55.31,13.39,61.1,12.9,77.58c-0.92,31.35-28.52,52.14-13.18,103.9
		c1.94,6.54,1.42,10.96,2.57,18.43c1.43,9.32-0.79,10.91,0.28,14.72c0.62,2.21,0.06,6.61-2.03,7.48c-0.22,0.09-0.61-0.2-1.12-0.39
		c1.83-1.43,2.3-1.42,1.37-2.74c-1.04-1.46-3.85,0.8-4.78,2.51c-2.89,5.32,1.44-2.99-8.31,25.16c-2.45,7.07-0.51,3.52-2.24,10.35
		c-0.13,0.52-1.71,3.73,0.34,3.9c4.06,0.33,9.11,4.96,22.63,3.95c5.48-0.41,3.43,3.55,12.43,4.74c9.66,1.29,18.13,2.6,26.47,1.28
		c0.1-0.02,17.01-3.1,17.17-3.17c2.74-1.31,8.38-5.3,7.58-8.24c-0.68-2.54,1.94-7.71-2.04-8.67c-6.44-1.55-13.85-0.54-24.76-17.33
		c-3.6-5.55-5.3-2.82-2.74-5.59c6.7-7.25,1.5-6.32,6.43-9.88c0,4.97,5.81,11.22,11.06,7.95c20.89-13.04,5.43-2.43,17.15-15.02
		c1.75,0.88,1.78,2.63,2.51,3.89c0.71,1.23,1.96,2.04,2.58,3.43c0.51,1.15,0.24,0.33-3.33,1.26c-1.91,0.5-4.05,2.32-3.07,3.69
		c1.23,1.69,4.55-0.3,8.97-2.33c2.79,4.04,2.44,2.28-1.76,3.18c-1.32,0.28-2.62,1.4-1.94,2.57c0.91,1.57,2.78,0.85,8-0.13
		c5.12,2.29-4.25,2.4-2.45,5c1.16,1.68,3.79,0.52,6.32-0.11c2.93,3.5,3.32,1.28,6.96,2.56c7.89,2.77,8.56,3.97,12.27,3.67
		c2.27-0.18,9.29,0.69,12.98,2.21c0.96,4.16,1.62,6.15,2.08,8.9c-4.28,3.03-10.57,8.39-19.24,6.86c-7.48-1.31-13.93,1.83-20.81-0.26
		c-1.41-0.43-9.09-2.11-13.53-0.54c2.11,3.85,2.21,1.52,8.15,2.9c17.24,4,35.62,5.32,47.62-7.58c-2.23-4.05,2.48-12.37-5.92-13.87
		c-13.83-2.47-12.14-1-14.3-1.76c-13.75-4.82-12.16-4.45-13.21-5.95c-4.87-6.99-8.27-6.34-14.51-18.09
		c-4.07-7.65-5.85,5.85-0.51-21.68c9.77-50.35,10.74-32,12.04-51.37c1.62-24.24,0-30.94,2.82-37.13c2.87-6.27,0.25-3.74,1.23-8.35
		c0.6-2.8,3.24-16.12,0.75-18.42c1.58-4.65,5.4-29.54,7.42-48.68c2.06-19.57-1.47-22.7,0.24-24.21c6.42-0.75,7.75,1.77,16.17-5.71
		c3.96,0.35,5.35,0.8,7.37-0.67C297.31,320.52,297.69,317.96,296.74,316.06z M202.29,43.37c0.59,0.14-0.27,2.48-1.99,2.6
		c0.01,0.1-0.26,0.75-0.08,0.01C200.33,45.98,200.34,42.93,202.29,43.37z M264.49,291.01c1.68,1.19,5.9,6.17,5.76,8.22
		c-0.03,0.48-0.81,0.86-1.15,0.69c-1.26-0.61-1.34-1.43-2.77-1.46c-1.53-0.03-0.99,0.51-1.41-1.78
		C264.56,294.72,264.18,292.98,264.49,291.01z M260.9,295.68c1.75,4.59,2.72,9.51,3.97,14.36c1.24,4.82-0.4,3.48-2.87,3.73
		c-6.62,0.7-27.41,5.88-27.52,5.91c-16.35,3.9-9.95,2.89-13.24-8.3c0-0.15,1.37-1.19,1.4-3.88c0.04-3.13-0.9-3.33-2.01-0.73
		c-1.49,3.47-1.2,4.41-2.82,3.58c-7.35-3.79-8.72-0.64-11.81-3.47c-4.52-4.16-11.5-5.3-22.71-7.99
		c-3.43-8.28-14.27-7.08-14.98-22.91c-0.54-12.11-0.41-17.29,6.76-27.79c3.15-0.3,6.15,0.35,9.09,1.01
		c56.28,12.75,25.98,13.6,70.27,13.6c1.73,1.31-0.35,4,2.63,6.12c1.45,1.03,1.88,3.99-0.23,5.41c-0.72,0.48-3.03,1.02-2.83,1.02
		c4.49,0.51,3.95,0.39,4.04,0.63C261.65,286.05,253.07,275.19,260.9,295.68z M213.27,317.15c2.27-3.14,4.49,0.03,2.7,3.11
		C213.94,323.72,210.73,320.69,213.27,317.15z M211.02,320.37c-0.19,0.88-2.27,1.5-2.95,0.08c-1.25-2.61,0.95-8.24,4.98-5.13
		C211.9,316.97,211.4,318.64,211.02,320.37z M266.4,197.8c-3.41,13.77-9.98,4.12-9.12,44.15c0.14,6.71-2.83,17.73-2.73,17.71
		c-4.09,0.87-20.6,0.09-24.79-0.17c-2.35-2.93,0.3-1.65-21.57-7.87c-3.09-0.88-1.94-6.16-4.06-6.48c0.61,7.88,3.17,5.2-21.78,0.37
		c-5.23-1.01-5.67,0.07-4.13-3.02c15.48-31.23,10.2-28.02,11.6-39.91c0.75-6.47-1.83-7.29-1.71-12.84
		c0.04-1.8,44.78-10.59,66.99-10.39c3.41,0.03,1.56,1.53,6.53,2.29c2.27,0.34,4.45,0.91,6.78,1.94
		C267.67,188.32,267.55,193.14,266.4,197.8z M270.92,175.31c-3.02,5.42-1.11,4.42-8.13,2.43c-8.05-2.29-43.78-0.15-69.11,7.05
		c-6.81,1.94-5.8,2.92-7-0.35c-3.03-8.24-2.76-8.92-4.98-9.96c0-2.04,1.74-6.8,2.18-8.16c18.42-5.11,19.14-17.74,22.38-21.7
		c6.63-8.11,8.18-17.04,4.63-26.72c-3.26-8.9-10.14-14.62-15.53-20.29c1.23-2.47,2.88-0.87,15.84,11.36
		c13.06,12.32,7.28,13.94,30.86,19.11c4.91,1.08,14.17,0.15,14.68-5.48c12.16,11.85,18.13,13.1,22.08,21.83
		C285.46,159.1,275.29,167.47,270.92,175.31z M182.1,94.62c-3.39,1.31-3.07,2.72,0.43-12.23C182.85,86.82,182.76,90.7,182.1,94.62z
		 M188.56,57.29c-8-8.33-6.01-36.1-5.09-24.57C185.13,53.11,186.48,42.75,188.56,57.29z M181.73,52.81
		c0.01,0.41-0.24,0.36-0.23,0.18C181.54,52.46,181.73,52.88,181.73,52.81z M191.23,59.73c-0.01-0.1,2.9,2.86,1.73,5.59
		c-0.24,0.55,1.5,2.54-0.97,3C191.74,65.44,191.54,62.58,191.23,59.73z M193.1,54.05c-0.63,0.48-0.92,0.35-1.16-0.09
		C190.82,51.95,191.71,52.9,193.1,54.05z M194.56,86.28c-0.23-0.89-0.39-1.25-0.4-1.61c-0.13-9.98-3.14-11.35-0.42-15.52
		C195.85,65.92,198,70.45,194.56,86.28z M200.66,58.26c-1.58-0.32-6.51-1.42-5.76-2.86C200.58,56.76,198.89,55.99,200.66,58.26z
		 M205.09,36.45c-0.29,0.45-0.25,1.04-1.54,0.57c-3.16-1.14-7.72,1.36-7.88,6.37c-0.2,6.71-2.8,2.31,0.36,8.15
		c0.08,0.16,2.55,3.18,1.89,3.18c-5.71-1.74-4.42-3.57-5.32-3.23c-0.25-0.37-0.38-0.37,0.09-0.09c0.06,0.06-0.07,0.08,0.98-0.32
		c0.94-1.56-5.12-2.67-7.11-10.42c-0.12-0.35,2.61,1.49,4.67,0.71c-2.16-1.02-4.42-2.55-5.31-4.78c2.17-0.28,2.68,2.41,9.95,3.14
		c-3.84-2.58-8.56-3.04-9.59-7.16C186.27,32.48,204.92,36.72,205.09,36.45z M174.12,17.24c0.49-0.25,0.63-1.09,0.72-0.38
		c0.02,0.18-0.5,0.18-0.81,0.56C174.06,17.36,174.07,17.27,174.12,17.24z M182.85,14.21c-0.62-0.12-3.52-0.33-3.82-0.11
		c-0.41,0.02-0.51,0.84-1.61,0.23c-0.34-0.19-0.52-0.13,1.45-0.22c1.03-1.4,7.57-0.27,9.1,0.01
		C186.51,17.72,188.04,15.2,182.85,14.21z M217.24,32.1c-3.17,1.33-6.65,1.43-9.91,2.5c-4,1.31-15.42-5.21-16.55-2.57
		c-3.88-1.94-5.31-1.94-3.56-7.69c1.33-0.53,11.92,7.23,18.94,7.94c-3.86-2.57-6.35-3.29-2.46-2.55c3.18,0.62,4.62,0.85,5.66,2.13
		C210.34,33.07,222.86,29.75,217.24,32.1z M219.17,25.86c1.69-0.68,2.91-2.46,5.18-1.87C223.6,26.18,221.37,26.07,219.17,25.86z
		 M220.34,17.96c0.43,0.35,0.5,0.25-0.11,0.3c-1.26,0.11-0.93,0.04-1.25-0.56C219.6,17.39,219.52,17.3,220.34,17.96z M225.06,20.19
		c-0.22,3.71-4.16,1.52-3.76,1.25C225.68,19.44,225.09,19.51,225.06,20.19z M219.85,14.78c-6.93-0.63-5.78-0.66-5.63,0.62
		c-1.59,0.11-14.69-3.34-16.73-3.34c-3.81,0-3.2,0.74-3.2,2.66c3.53-0.16,17.68,1.91,21.51,4.08c-1.21,0.56-1.45,1.6-1.73,2.9
		c1.87,0,3.69,0,5.81,0c-1.18,1.16-2.48,1.5-5.53,2.15c-7.09,1.52-9.8-0.78-19.79-4.9c-5.89-2.43-3.27-1.02,0.5,1.4
		c-0.35,2.49,1.05,1.39,1.71,2.15c4.57,1.32,2.8,0.8,3.56,1.56c1.81-0.28,5.81,1.91,6.6,2.09c1,0.22-1.38-0.36,5.92,0.99
		c-0.26,0.45-0.34,0.79-0.51,0.84c-8.31,2.47-10.1-0.7-15.75-0.6c-0.46,0.01-5.57-2.27-8.21-4.89c-0.33-0.32-0.18-1.28-0.3-2.16
		c10.56,5.74,10.73,4.86,15.8,6.03c-1.17-1.76-0.97-1.67-1.26-1.64c-0.07-0.1-4.59-0.65-5.84-2.21c-4.49-1.28-5.49-2.16-7.13-3.6
		c0.46-2.61,3.02,0.89,0.24-2.67c1.21-1.95,2.55-3.01,4.21-3.83c0.9-1.8,2.33-2.42,4.35-2.26c19.65,1.62,15.8,2.8,16.36,2.41
		c1.63,1.28,1.96-0.28,5.43,2.35C223.21,15.16,220.58,15.51,219.85,14.78z M232.39,5.46c0.36,0.38,0.28,0.33-0.18,0.41
		c-1.23,0.22-1.67-0.99-2.22-0.93c-0.06-0.23-0.01-0.11-1.01-0.24c0.6-0.57,0.69-0.3,1.2,0.22C230.66,4.93,231.63,4.67,232.39,5.46z
		 M223.75,4.44c0.37-0.01,0.31-0.04,0.25,0.12L223.75,4.44z M205.81,7.78c14.32,0.09,12.79-0.2,13.52,2.08
		c-1.98,1.15-3.64-1.42-4.32,0.94C208.1,9.37,198.74,7.74,205.81,7.78z M217.95,3.74c0.01-0.17-0.19-0.14,1.38-0.02
		C219.32,3.93,218.68,3.74,217.95,3.74z M217.62,12.46c-0.91,0.01-1.82,0.02-2.73,0.02C215.8,11.86,216.71,11.6,217.62,12.46z
		 M217.87,12.58c0-0.1-0.23-0.01,1.62,0.08c0.01,0.11,0.02,0.21,0.03,0.32C217.59,13.21,217.87,13.46,217.87,12.58z M213.95,3.11
		c0-0.2-0.07-0.18,0.28-0.08L213.95,3.11z M204.83,5.62c-4.22-0.19-3.46-0.4-1.83,1.31c0.34,0.36-6.3,2.22-1.29-1.36
		C201.64,5.47,203.13,4.53,204.83,5.62z M233.49,14.47c-0.6,0.36-1.03,0.36-1.22-0.47c-1.42,0.35-1.02-0.78-1.83-0.77
		c-1,0.01-1.14-0.66-1.14-0.66c-2.1,0.08-2.94-1.38-5.07-1.55c-1.94-0.15-3.22-1.38-3.37-1.36c1.78-0.26,3.3-0.08,4.46,1.31
		c0.1-0.02,2-0.23,3.72,1.49c0.78,0,1.48,0.16,1.68,0.76c1.75,0,1.35,0.82,1.62,0.77C232.4,14.4,234.46,13.89,233.49,14.47z
		 M233.81,11.08c-0.07-0.15-0.22-0.52,0.19,0.07L233.81,11.08z M237.55,14.77c-0.36-0.41-1-1.55,0.61-0.35
		C237.89,14.58,237.58,14.8,237.55,14.77z M171.68,51.31c-3.59-11.34-6.06-17.05-4.2-22.43c0.3-0.87,2.25-5.88,2.38-5.98
		c3.21-3.21,6.64-5.66,9.91-5.68c2.17-0.02-5.19,4.03-6,11.53c-0.82,7.63,1.14,9.04,1.2,9.75c-0.81-8.66,0.49-15.91,7.47-21.28
		c3.16,0.48,3.3,0.38,3.2,0.48c0.03-0.03,0.45-0.47,0.48-0.45c0.44,0.31,0.3,0.53-0.17,0.75c-0.1,0.05,0.16,0.79-0.71,1.81
		c-13.1,15.43-1.57,38.68-2.8,51.98c-0.99-3.51-0.92-7.05-2.63-11.13c2,16.36-0.26,23.3-0.17,23.76c0.21,1,1.84,2.97-0.53,6.13
		c-0.2-7.7,0.73-5.36,0.46-6.5c1.35-1.12-1.44-34.32-4.94-37.33c0.47,4.39,0.81,3.35-0.99,3.58c2.42,5.7,2.9,11.92,3.43,18.6
		C169.78,49.25,173.93,58.39,171.68,51.31z M149.46,317.98c-10.63,3.28-12.37-16.48-0.81-23.79c0.77,0,0,1.51-0.02,1.62
		c-2.75,10.36-3.27,10.03-1.44,8.5C147.62,305.18,151.22,314.54,149.46,317.98z M164.9,326.27c-0.97-3.15-0.56-6.59-2.51-9.74
		c-1.17,2.28-0.32-1.14,0.35,8.9c-1.89,1.43-4.36-0.48-4.55-2.05c-0.69-5.6-0.44-6.42-1.66-6.67c-1.97-0.39-1.29,6.07-1.19,6.05
		c0,0.05,0,0.11,0,0.16c0.45,0.45,0.01,0.19,0,0c-0.1-0.1-3.52-0.48-3.9-2.86c-0.32-2,0.81-3.27,0.46-5.65
		c-1.68-11.54-4.34-3.3-0.29-24.56c0.27-1.4,1.24-2.8,1.21-4.29c-0.87-39.12-2.91-29.05-2.84-40.19c0.13-20.69-0.4-20.33,0.58-22.33
		c2.52,4.91,2.68,6.25,2.2,1.21c-0.6-6.31-1.54,0.41-2.14-15.4c-0.44-11.59,2.79-12.49,3.15-26.33c0.49-18.56,0.6-18.51,0.91-19.37
		c1.66-4.45,3.7-17.59,6.24-22.25c1.3-2.36-3.28-11.21,4.2-32.82c1.47-4.24,3.57-4.63,10.6-7.81c6.68-3.02,0.53-1.72,8.3-4.71
		c0.72-8.51,1.27-16.93,0.72-25.32c-0.72-11.04-3.54-18.63-1.68-13.32c2.57,7.32,11.77,33.76,4.52,36.29
		c0.23-8.58,3.23-23.14-2.28,1.27c1.96,0.66,3.87-0.07,5.94-0.37c1.56,7.53,26.68,23.41,16.91,42.21c-1.33,0-1.85-0.2-2.14,0.97
		c-3.22,13.04-17.91,28.48-21.31,25.75c2.62-14.13,3.3-16.33,1.64-16.67c-2.71-0.56-1.54,16.1-12.94,43.1
		c-0.69,1.63-1.53,3.16-1.45,5.06c0.06,1.55-2.91,3.89-2.86,5.46c3.07-1.06,5.13-4.89,6.28-7.93c6.76-17.84,5.38-18.44,9.25-4.33
		c7.01,25.6-1.32,43.1-15.63,65.09c0-0.41,4.28-52.03,1.33-51.86c-3.3,0.18-1.95,34.64-4,49.49c-1.04,7.59-1.17,13.33-1.01,25.86
		c0.16,12.26,13.57,17.5,15.13,20.93c0.98,2.14-2.5,1.34-3.5,4.78c-0.46,1.6-1.41,3-0.74,5.14c4.48-9.11,1.57-7.99,20.19-3.17
		c-4.95,4.91-9.72,13.77-6.65,20.53c3.21-0.28-4.19-3.99,5.35-17.36c3.89-5.45,10.65,0.71,12.81,5.73c0.04,0.1-1.19,2.49-1.5,2.95
		c-1.64,2.46-0.57,4.12,0.72,6.43c-6.75,6.24-11.72,4.97-16.01,4.66c-15.79-1.13-12.03-3.17-12.64-6.33
		c-0.81-4.14-0.45-8.65,2.23-14.4c0.37-0.8,0.33-1.61,0.43-1.65c-1,0.42-1,0.72-4.19,7.8c-0.02-0.15-0.41-2.72-0.59-3.88
		c-2.35,2.35,0.1,6.38-0.52,12.54c-0.25,2.44,0.6,4.44,2.54,6c0.1,0.08-0.93,1.42-3.45,0.73c-3.55-0.95-3.79,0.3-4.13-2.64
		c0-1.28-0.41-10.49-2.95-7.95c2.11,10.62,0.12,13.85,11.87,12.91c1.77-3.51,0.78-3.33,8.84-1.65c6.36,1.33,13.74,1.09,18.14-3.7
		c1.64-1.78,0.52-1.76,5.05-1.18c3.88,0.49,6.91-3.5,6.44-6.02c-0.96-5.12-9.15-3.74-8.57-6.17c3.13-0.38,9.41,1.7,9.77,3.79
		c0.35,2.08-0.26-7.77,0.1,28.77c0.35,35.17,1.67,30.79-5.23,56.47c-0.68,2.54-0.38,2.23,1.01,3.27c0,2.14-1.79,8.3-2.04,13.46
		c-0.13,2.74-2.7,6.71-3.51,8.34c-3.48,7.02-0.58,9.88-4.65,13.7c-0.36,0.34-10.41,34.41-10.44,34.51
		c-0.37,1.26-6.98,58.79-6.17,67.44c-2.32,1.69-5.24,3.03-7.31,5.47c-7.43,8.72-5.71,7.55-8.97,5.77c-1.64,4.1,2.28,0.54-3.01,5.35
		c-0.01-0.04,0.05,0.28-0.61-3.41c7.64-10.67-2.6-54.25-3.31-64.99c-1.06-16.04-2.05-22.21,8.07-49.31
		c3.34-8.94,0.4-4.25,3.41-12.38c5.7-15.43,5.91-22.93-5.78-65.63c-1.35-4.94-1.72-8.75-2.57-29.49
		C168.13,326.24,170.07,327.87,164.9,326.27z M207.16,562.47c0.29,0.07,0.01,0.31-0.09,0.27
		C206.97,562.7,206.69,562.35,207.16,562.47z M211.52,569.03c1.86,3.09-9.99,1.99-9.4,4.57c0.68,2.94,6.72,0.78,9.61-0.07
		c3.85-1.12-0.23-2.33,11.32,5.19c2.79,1.82,9.24,1.23,12.28,3.67c-9.62,3.69-7.37,2.19-16.01,10.82c0.78,0,1.47,0.47,3.69-1.44
		c2.41-2.06,12.79-8.84,12.74-5.67c-0.04,2.62-6.32,7.66-14.45,8.85c-17.41,2.54-11.59,2.92-34.71,0.16
		c-7.97-0.96-10.25-9.93-15.23-6.61c0.06,0.1,1,1.64,1.07,1.74c-10.72,1.74-18.5-3.54-18.6-2.94c4.28-26.29,7.35-18.21,8.2-31.07
		c0.09-1.43,0.56-2.76,1.4-4.17c0.72,2.29,0.76,4.63,2.04,6.57c0.54,0.81-1.07,2.54,1.12,4.05c2.96,2.05,6.25-4.3,9.87-5.96
		c1.56-0.71,6.92-11.15,15.41-12.87c2.5,4.49,2.2,6.91,5.75,10.46c-4.49,2.68-11.46,3.88-10.63,6.57c0.87,2.83,11.3-6.51,15.13-1.73
		c-7.54,2.17-11.84,2.99-10.84,5.95c3.08,0.56,3.61-0.44,9.18-0.89c0.23-0.02-5.14,1.82-5.32,3.68c-0.25,2.49,3.04,1.31,14.28-1.61
		C209.47,566.38,211.59,569.13,211.52,569.03z M213.47,541.98c-1.21,0.54-4.81,5.4-5.18,8.17c-0.16,1.18-1.54,2.55-4.61,6.09
		c-3.13-0.64-4.73-4.94-6.34-8.42c-1.91-4.14-0.71-6.2-6.87-7.47c0-4.17-0.58,7.2,2.12-21.84c6.16-66.22,15.89-74.04,16.68-84.27
		c0.35-4.52,3.5-9.18,4.23-10.88c2.66-6.21,5.46-22.66,5.29-29.39c-0.06-2.41,1.4-4.48,2.42-7.41c1.71,7.27,3.87,28.28,3.55,29.71
		c-1.07,4.86,1.47,8.98,3.7,12.6c-25.56,63.52-1.97,54.42-12.41,113.04C215.1,541.91,214.16,541.67,213.47,541.98z M260.74,402.8
		c-0.08,0.77,1.02-0.79,0.53,6.03c-2.4,33.85,3.31-3.94-3.41,26.71c-3.07,14,0.48,24.33-5.17,44.38c-0.98,3.45-1.74,0.35-3.6,10.7
		c-0.77,4.26-9.93,32.58-10.68,48.55c-0.79,2.01-3.21,3.19-3.3,5.63c-3.09,2.17-11.18,6.68-13.29,7.43c-3.16-1.86-4.91-4.72-4.8-4.9
		c2.57-2.87,8.12-39.06,3.65-57.56c-4.3-17.77,6.39-58.33,10.63-57.89c0.15,0.43,0.24,0.88,0.32,1.34c1.33,7.79,2.71,5.58,2.08-1.3
		c-0.09-0.96-1.32-0.42-2.75-4.99c-2.69-8.61-2.25-14.16-4.96-29.18c-1.16-6.41-3.5-11.7-3.52-16.05
		c-0.01-2.53,1.79-5.86,0.81-46.26c-0.42-17.47-6.09-5.92,42.3-19.66C272.95,350.7,263.3,377.94,260.74,402.8z M268.27,312.12
		c-2.45-4.29-1.66-5.61,0.36-7.89c0.05-0.05,1.86-2.01,1.81-2.06c-4.41,2.49-3.99,2.13-3.95,2.23c-2.16-5.48,2.78-3.4,3.95-2.23
		l0.13-0.07c-0.09,0.1-0.08,0.09-0.09,0.1c6.32,1.53,4.76-0.32-0.19,6.83C269.61,310.02,269.29,311.27,268.27,312.12z M270.46,325.2
		c-2.92-9.11-1.79-15.99,6.81-21.34c4.3,1.82,7.63,4.35,9.45,8.58c-1.76,3.26-4.13,5.63-0.86,9.73
		C281.66,325.68,272.05,330.13,270.46,325.2z M289.99,321.39c-2.49,0.12-4.26-1.04-3.48-4.08c0.89-3.49,2.75-3.64,5.77-2.63
		C290.28,317.74,290.28,317.74,289.99,321.39z M292.4,322.14c-0.8-1.43-1.82-1.88-0.51-4.59
		C294.66,311.87,298.59,318.97,292.4,322.14z"/>
	<path d="M209.35,62.16c0.1-0.12,0.14-0.16,0-0.04C209.35,62.13,209.35,62.13,209.35,62.16z"/>
	<path d="M225.01,72.48c-5.43-3.86-8.96-3.03-12.33-6.2c-1.69-5.3-1.22-4.19-1.97-4.71c-1.42,0.61-1.22,0.64-1.25,0.54
		c1.85,6.25,1.23,6.08,6.48,8.16C217.26,70.79,217.76,71.56,225.01,72.48z"/>
	<path d="M209.44,62.05C209.26,62.26,209.45,62.1,209.44,62.05L209.44,62.05z"/>
	<path d="M238.99,38.21c-6.87,4.71-3.45,1.63,0.64,4.81c0.52,0.41,1.39,0.36,2.11,0.52c0.76-3.78,0.76-3.78,2.74-6.07
		C242.22,37.12,240.53,37.15,238.99,38.21z"/>
	<path d="M246.16,36.13c-0.9-3.26-8.78-5.62-13.36-0.48c0.6,0.47,1.55,0.3,1.84,0.11C239.48,32.73,242.3,36.44,246.16,36.13z"/>
	<path d="M215.33,71.39c-0.1-0.1-0.76,0.72-0.09,1.48c2.76,3.08,3.9,4.17,3.92,4.27C218.76,74.63,217.22,72.91,215.33,71.39z"/>
	<path d="M219.16,77.14c0.01,0.08,0.04,0.16,0.05,0.24C219.31,77.28,219.34,77.32,219.16,77.14z"/>
	<path d="M222.32,84.01c-1.38-0.57,1.31,2.21,1.4,2.31C223.81,86.42,223.3,84.41,222.32,84.01z"/>
	<path d="M223.72,86.32C223.8,86.58,223.92,86.55,223.72,86.32L223.72,86.32z"/>
	<path d="M220.51,78.66C220.1,77.88,219.94,77.95,220.51,78.66L220.51,78.66z"/>
	<path d="M225.09,89.87C225.67,88.55,224.54,89.13,225.09,89.87L225.09,89.87z"/>
	<path d="M220.1,78.16c0.13-0.12,0.23,0.03-0.8-0.87C219.17,77.41,219.07,77.26,220.1,78.16z"/>
	<path d="M223.78,86.51C224.32,86.69,223.88,86.48,223.78,86.51L223.78,86.51z"/>
	<path d="M624.9,245.12c0.1,0.01,0.09,0.06,0.08-0.07C624.88,245.14,624.77,244.49,624.9,245.12z"/>
	<path d="M628.71,64.41C628.81,64.31,628.81,64.31,628.71,64.41c0.15-0.01,0.09,0.02,0.12-0.12c-0.03,0.03-0.09,0.08-0.12,0.11
		L628.71,64.41z"/>
	<path d="M593,52.89C592.84,53.04,593,52.99,593,52.89L593,52.89z"/>
	<path d="M633.44,17.03c-0.38-0.13-0.35-0.16-0.09,0.09l0.02,0C633.39,17.1,633.43,17.05,633.44,17.03z"/>
	<path d="M612.67,53.72C612.82,53.56,612.66,53.66,612.67,53.72L612.67,53.72z"/>
	<path d="M624.1,34.72c0.19,0,0.15,0.02,0.07-0.09l-0.02,0.02l0.02-0.02C624.01,34.59,624.08,34.6,624.1,34.72z"/>
	<path d="M181.14,304.6c0.04-0.02,0.07-0.04,0.11-0.05C181.13,304.44,181.17,304.45,181.14,304.6z"/>
	<path d="M173.12,550.16c0.06-0.1,2.22-10.51,0.57-13.71c-0.86-1.68,0.46-6.04-1.34,4.8c-0.32,1.96-0.02,4.03-1.11,5.87
		C171.49,546.72,171.41,552.94,173.12,550.16z"/>
	<path d="M169.02,200.04c-0.08,0.14-0.07,0.08,0.07,0.08C169.09,200.01,169.14,200,169.02,200.04z"/>
	<path d="M204.12,245.05c-0.05-0.07-0.1-0.13-0.13-0.18c0,0,0.03,0.16,0.05,0.25l0.01-0.01l-0.01,0.01
		C204.14,245.13,204.13,245.18,204.12,245.05z"/>
	<path d="M146.2,305.14L146.2,305.14C146.04,305.27,146.2,305.36,146.2,305.14z"/>
	<path d="M623.87,414.15c-3.63,1.92-2.28,5.56-1.09,9.32c-3.35,5.96-3.59,5.69-2.22,6.03c1.38,0.34,5.26-3.93,4.13-7.01
		C623.43,419.04,624.5,417.64,623.87,414.15z"/>
	<path d="M605.34,442.4c-2,1.51-2.29,3.28-2.44,6.07c-0.38,6.92-2.14,10.42-1.39,12.82c2.33-2.48,1.61-4.01,1.58-5.14
		C603.01,453.98,606.3,444.66,605.34,442.4z"/>
	<path d="M618.56,400.18c-1.07-2.13-0.11,0.53-1.79,6.07c-0.35,1.16-0.04,2.31,0.99,3.04c0.18,0.13,0.82-0.29,0.86-0.19
		C617.42,405.94,619.52,402.09,618.56,400.18z"/>
	<path d="M604.55,428.83c-0.56,2.37-0.18,4.59,1.07,8.08C605.97,431.7,605.83,423.42,604.55,428.83z"/>
	<path d="M596.76,341.59c-1.17,0.99,0.56,6.55,1.21,8.07c0,0.1,0.04-0.65,0.04-1.11C598.06,344.83,596.86,341.51,596.76,341.59z"/>
	<path d="M600.47,356.75c-0.51,2.29-0.52,2.31,0.56,2.76C601.21,358.01,601.32,358.78,600.47,356.75z"/>
	<path d="M594.02,531.05c0.35,0.4,1.45-1.31,0.45-2.66C593.85,529.35,593.63,530.59,594.02,531.05z"/>
	<path d="M618.31,414.77c0.33,0,0.25,0.24,0.25-1.31C618.23,413.46,618.31,413.22,618.31,414.77z"/>
	<path d="M594.89,512.3c-0.25,0.21-0.33-0.09-0.11,1.47C594.88,514.4,595.37,512.85,594.89,512.3z"/>
	<path d="M594.16,523.61c0.24,0.24,0.46-2.04-0.15-0.97C593.66,523.27,594.26,523.71,594.16,523.61z"/>
	<path d="M600.88,465c-0.35,0.81-0.33,0.57,0.16,0.96C601.26,465.26,601.5,465.47,600.88,465z"/>
	<path d="M643.38,545.18c-0.25-5.89,2.41-6.23,1.89-10.91c-2.22,0.09-0.79,2.81-3.47,7.18c-0.31,0.51-0.66,1.36-0.45,1.77
		c0.73,1.43-0.3,2.61-0.41,4.17c0.89,0.56,2.96,2.52,3.86,2.52C647.31,548.6,645.21,547.16,643.38,545.18z"/>
	<path d="M659.23,450.97c-0.06-0.28-2.8-4.13-0.84,10.15C660.29,457.74,660.07,454.94,659.23,450.97z"/>
	<path d="M673.5,411.14c5.95-2.85,8.67-14.86-0.89-0.27C673.05,411.01,673.35,411.21,673.5,411.14z"/>
	<path d="M658.72,465.58c-0.3-1-2.15-0.47-1.83,2.23c0.51,4.46-1.69,9.21,0.14,8.26c0.59-0.31,0.64-0.81,0.63-1.41
		C657.61,467.45,659.29,467.37,658.72,465.58z"/>
	<path d="M673.23,420.13c4.03-7.5,3.38-5.9,3.07-7.19C673.2,414.55,673.11,416.34,673.23,420.13z"/>
	<path d="M673.49,422.5c0.78,1.39,0.47,2.8,0.48,4.23c0,0.24,0.45,0.47,1.15,1.15c0.52-6.67,0.47-4.76,0-6.88
		C673.83,421.32,673.15,421.9,673.49,422.5z"/>
	<path d="M654.69,440.08c0.18,2.4,0.18,2.4,1.55,4.04C656.68,441.44,656.45,440.84,654.69,440.08z"/>
	<path d="M669.81,411.28c-1.69-0.98-2.76-0.51-4.4,0.21C666.92,412.76,668.17,412.43,669.81,411.28z"/>
	<path d="M646.56,529.18c-1.18,0.61-1.14,1.54-0.75,2.82C646.57,531.07,647.04,530.29,646.56,529.18z"/>
	<path d="M672.85,431.52c0.45-0.64,0.49-0.71,0.57-0.81c-0.52-0.29-0.89-0.73-1.03,0.46C672.38,431.28,672.68,431.4,672.85,431.52z"
		/>
	<path d="M647.36,524.72c-0.24,0.36-0.26-0.09,0.06,1.7C647.87,524.67,647.87,525.11,647.36,524.72z"/>
	<path d="M655.73,481.63c-0.05,0.04-0.18,0.13-0.17,0.18c0.13,0.95,0.3,0.54,0.58,0.23C655.74,481.48,655.85,481.54,655.73,481.63z"
		/>
	<path d="M648.98,514.41c-0.08,0.06-0.23,0.11-0.24,0.17c-0.08,0.85,0.07,0.63,0.47,0.47C649.19,515.01,648.99,514.44,648.98,514.41
		z"/>
	<path d="M648.1,520.65c0.12-0.15,0.3-0.3,0.32-0.47C648.49,519.61,647.5,519.92,648.1,520.65z"/>
	<path d="M647.12,301.16c1.33-2.62,4.5-8.15,2.24-6.74c-1.07,0.67-1.8,2.4-4.01,7.17C645.1,302.14,646.08,303.22,647.12,301.16z"/>
	<path d="M641.69,301.96c1.56-1.12-0.37-2.75-0.85-3.64c-1.28-2.35-1.65-2.62-3.66-3.86C638.85,297.15,639.15,300.22,641.69,301.96z
		"/>
	<path d="M603.19,263.9c2.7,0.04,5.38,1.09,8.57,0.72C603.7,261.66,600.02,263.86,603.19,263.9z"/>
	<path d="M640.62,285.94c1.03,1.57,2.05,3.14,3.02,4.63C645.99,290.99,643.96,287.32,640.62,285.94z"/>
	<path d="M629.62,261.52c-2.89-1.01-5.1-1.67-7.5-1.46C624.26,261,626.37,262.12,629.62,261.52z"/>
	<path d="M644.86,309.79c1.96-0.34,3.92-0.68,5.88-1.03C648.65,308.44,646.51,307.72,644.86,309.79z"/>
	<path d="M598.18,257.55c-2.32,0-2.02-0.07-2.02,0.2C598.49,257.74,598.18,257.81,598.18,257.55z"/>
	<path d="M677.74,278.3c-1.94-0.42-1.46-0.44-1.89,0.06C676.24,278.6,675.76,278.62,677.74,278.3z"/>
	<path d="M653.99,307.96c-1.11-0.06-0.95-0.1-0.96,0.11C654.12,308.14,653.98,308.18,653.99,307.96z"/>
	<path d="M631.9,262.14l-0.29,0.03C631.96,262.28,631.89,262.29,631.9,262.14z"/>
	<path d="M620.28,279.38L620.28,279.38C620.7,279.56,619.96,278.85,620.28,279.38z"/>
	<path d="M587.93,148.51c-0.43,3.09,0.7,2.97,0.06,6.75c-0.16,0.95,0.19,2.01,0.4,2.96c0.06,0.24,0.54,0.39,1.19,0.84
		c0.86-3.84-0.41-6.97-0.94-10.16C588.64,148.76,588.27,148.68,587.93,148.51z"/>
	<path d="M623.6,108.74c0.3,1.15,0.6,1.91,1.92,2.02C625.72,105.13,622.96,106.21,623.6,108.74z"/>
	<path d="M632.99,133.56c2.63-4.56-3-5.86-0.91,1.24C632.46,134.37,632.76,133.96,632.99,133.56z"/>
	<path d="M629.82,140.38c-0.45,1.1-0.41,2.06,0.47,3.04C631.14,141.63,631.14,141.63,629.82,140.38z"/>
	<path d="M600.81,196.94c0.23,1.05-0.71,2.46,1.01,3.06C602.1,198.7,601.93,197.67,600.81,196.94z"/>
	<path d="M621.47,111.74c-0.09-1.73-1.04-1.4-1.47-1.43C619.59,110.3,621.61,114.33,621.47,111.74z"/>
	<path d="M631.46,136.9c0.51-0.64-0.58-2.71-0.98,0.1C630.46,137.1,630.86,137.65,631.46,136.9z"/>
	<path d="M600.4,191.26c-0.12,0.33,0.76,5.06,0.76-1.07C600.93,190.45,600.51,190.94,600.4,191.26z"/>
	<path d="M601.16,190.19c0.03-0.03,0.11-0.11,0.11-0.16C601.13,189.95,601.16,189.92,601.16,190.19z"/>
	<path d="M618.23,104.93c-0.14,2.55,1.38,3.58,1.34,1.62C619.55,105.92,619.2,105.38,618.23,104.93z"/>
	<path d="M627.12,113.95c-0.24-0.17-0.47-0.36-0.74-0.47c-0.04-0.02-0.38,0.41-0.34,0.47C626.82,115.09,626.79,114.44,627.12,113.95
		z"/>
	<path d="M627.78,119.22c0.18-1.74,0.22-1.56-0.05-1.84C627.22,117.83,627.21,117.36,627.78,119.22z"/>
	<path d="M586.4,145.3l0.18,0.05C586.53,144.96,586.58,144.98,586.4,145.3z"/>
	<path d="M666.2,241.65c2.04,1.16,1.53-2.24,1.49-3.34c-0.22-5.35,1.89-5.98-0.29-5.25C664.25,234.1,664.91,240.92,666.2,241.65z"/>
	<path d="M672.72,210.16c0.78,1.37,0.82-9.3,0.92-10.48c-2.41,0.29-1,4.48-0.69,6.04C673.22,207.1,671.75,208.44,672.72,210.16z"/>
	<path d="M670.29,223.01c-0.27,1.36-1.36,2.61-0.3,4.02C670.54,225.67,670.86,224.36,670.29,223.01z"/>
	<path d="M622.41,241.18c0,0.1,0.44-0.38,0.41-0.48c-0.11-0.32-0.45-0.83-0.64-1.16C621.43,240.35,621.33,239.97,622.41,241.18z"/>
	<path d="M637.27,197.56c1,0-0.87-1.09-0.87-0.95C636.33,197.16,636.02,197.18,637.27,197.56z"/>
	<path d="M624.85,244.87C624.81,244.71,624.82,244.73,624.85,244.87L624.85,244.87z"/>
	<path d="M624.85,244.87L624.85,244.87C624.74,244.76,624.74,244.77,624.85,244.87z"/>
	<path d="M621.5,236.96c0.31-0.34,0.3-0.15-0.01-0.9C620.99,236.56,621.5,236.61,621.5,236.96z"/>
	<path d="M669.4,167.3c-1.5,0.3-8.38,3.36-17.55,2.48c-6.94-0.66-13.41-2.75-15.05-2.8c-1.92-0.05-0.96,1.1,0.78,1.92
		C659.3,179.09,677.84,165.59,669.4,167.3z"/>
	<path d="M676.13,165.01c-1.85,0.31-1.82,0.06-2.08,1.19c-0.02,0.1,0.46,0.25,0.61,0.25C676.89,165.69,676.13,165.58,676.13,165.01z
		"/>
	<path d="M630.22,70.07c1.67,3.2,13.53,5.42,14.11,5.42c-1.59-2.36-11.65-4.24-12.98-7.18c-2.12-4.69,0-3.91-2.53-3.91
		C628.82,65.88,628.52,66.81,630.22,70.07z"/>
	<path d="M662.31,41.54c1.06-1.37,0.98-1.35-1.09-1.38c-2.84-0.05-4.6,1.25-7.13,3.25c0.82,0.65,2.66,1.73,3.17,0.82
		c-0.26,1.02,1.6,1.73,2.18,1.81C662.59,46.48,659.88,44.71,662.31,41.54z"/>
	<path d="M662.98,38.74c2.62,0.83,2.19-0.93,2-1.08c-7.74-5.76-15.24,1.06-12.41,0.92c1.7-0.08,3.16-1.33,5.15-1.57
		C659.4,37.57,661.19,38.17,662.98,38.74z"/>
	<path d="M635.03,74.6c-0.34-0.42-0.85-0.42-1.29,0.24C637.28,80.55,640.09,80.74,635.03,74.6z"/>
	<path d="M641.16,87.2c0.18,0.65,0.78,1,1.16,1.5C642.54,86.74,640.68,85.5,641.16,87.2z"/>
	<path d="M642.32,88.71c0,0.04-0.01,0.08-0.01,0.12C642.81,88.92,642.51,88.93,642.32,88.71z"/>
	<path d="M637.86,79.6c-0.13-0.12-0.14-0.2-0.11,0.09C639.2,80.91,639.21,80.76,637.86,79.6z"/>
	<path d="M635.16,576.19c-17.51-0.11-1.44,5.1,1.16-0.02C636.22,576.17,635.95,576.19,635.16,576.19z"/>
	<path d="M728.49,149.84c-2.09-2.49-3.09,2.14-2.96,5.47C726.92,153.92,727.98,152.09,728.49,149.84z"/>
	<path d="M694.52,211.14c-1.74,0.72-0.38,2.5,0.85,3.81C694.73,210.43,695.09,210.9,694.52,211.14z"/>
	<path d="M723.78,157.49c-0.97,0.21-1.27,0.84-1.03,1.55C723.05,160,724.99,158.83,723.78,157.49z"/>
	<path d="M728.31,141.21c1.28-1.52-1.74-3.03-0.61-0.14C727.74,141.18,728.1,141.17,728.31,141.21z"/>
	<path d="M721.48,162.19c-0.93,0.35-1.46,0.84-0.79,1.87C721.78,163.71,722.11,163.14,721.48,162.19z"/>
	<path d="M696.33,200.01c-0.79,0-0.03,2.92,0.2,0.24C696.54,200.17,696.34,200.01,696.33,200.01z"/>
	<path d="M718.3,168.71c0.51-0.62,0.46-0.39,0.14-1.11C717.78,168.04,717.76,167.74,718.3,168.71z"/>
	<path d="M706.99,222.34c-0.27,0-0.12,0.5,0.02,0.48C708.26,222.69,709.19,222.28,706.99,222.34z"/>
	<path d="M594.16,43.11c-0.02-0.13-0.02-0.45-0.05-0.35C593.97,43.18,593.95,43.09,594.16,43.11z"/>
	<path d="M592.91,52.98c0.12-0.12,0.16-0.06-0.2-0.19C592.79,52.86,592.81,52.88,592.91,52.98z"/>
	<path d="M655.15,105.8c-4.79-1.7-7.76,3.23-9.27,8.09c-0.66,2.11-0.31,3.82,1.61,5.7c-0.49-2.44-1.11-4.21-0.11-5.75
		c0.47-0.73,0.36-1.64,0.7-2.64C649.58,106.89,659.28,107.28,655.15,105.8z"/>
	<path d="M657.35,108.11c0.06,0.24,0.04,0.56,0.19,0.69C659.87,110.78,659.43,106.99,657.35,108.11z"/>
	<path d="M659.26,111.07c-0.11-0.06-0.4,0.03-0.76,0.4c-0.03,0.34,0.2,0.86,0.37,1.47C659.24,112.52,660.41,111.72,659.26,111.07z"
		/>
	<path d="M658.29,114.9c-0.16-0.12-1.03,0.09-0.08,1.17C658.34,115.65,658.92,115.35,658.29,114.9z"/>
	<path d="M752.22,125.25c-2.15-2.97-9.61,0.49-9.07,6.91c1.35-0.06,0.91,0.56,1.71-3.43C751.64,124.67,751.1,126.7,752.22,125.25z"
		/>
	<path d="M743.15,132.22c-0.01-0.08,0.02-0.06-0.07-0.06L743.15,132.22z"/>
	<path d="M743.06,136.78c1.37,1.38,0.12,0.05,0.05-3.32c-0.03-1.06,0.08-1.24-0.02-1.14C741.87,133.87,741.68,135.39,743.06,136.78z
		"/>
	<path d="M743.08,132.32c0.03-0.03,0.04-0.07,0.07-0.1C743.04,132.13,743.08,132.13,743.08,132.32z"/>
	<path d="M755.01,130.93c0.71,0.42,1.01,0.29,1.05-0.74C756.12,128.7,753.81,130.24,755.01,130.93z"/>
	<path d="M754.6,133.33c-0.8,0.09-0.67,1.33-0.05,1.31c0.25-0.01,0.49-0.36,0.83-0.65C755.06,133.7,754.81,133.31,754.6,133.33z"/>
	<path d="M755.03,128.21c0.71-0.99,0.39-1.57-0.77-1.9C753.53,127.28,753.88,127.83,755.03,128.21z"/>
	<path d="M632.06,24.21c-0.1,0.02-0.02-0.08,0.11,0.32C633.34,23.92,633.5,23.98,632.06,24.21z"/>
	<path d="M633.35,23.91c-0.45,0.24-0.3,0.14,0.08,0.08C633.42,23.91,633.46,23.95,633.35,23.91z"/>
	<path d="M616.68,20.34c-0.41-0.17-0.9,0.1-1.26,0.37C615.97,20.75,618.25,21,616.68,20.34z"/>
	<path d="M617.24,20.97c0.14,0,0.16,0.04,0.09-0.1c-0.05,0-0.15-0.01-0.15-0.01C617.2,20.9,617.22,20.93,617.24,20.97z"/>
	<path d="M618.56,21.59c1.63,0.14,0.37-0.68-0.5-0.65C616.82,20.98,617.94,21.52,618.56,21.59z"/>
	<path d="M619.86,21.82C619.96,21.82,619.97,21.84,619.86,21.82L619.86,21.82z"/>
	<path d="M619.48,21.75C620.27,21.89,619.4,21.55,619.48,21.75L619.48,21.75z"/>
	<path d="M619.86,21.82C619.95,21.86,619.95,21.87,619.86,21.82L619.86,21.82z"/>
	<path d="M612.88,53.8l-0.13-0.17C612.65,53.74,612.62,53.7,612.88,53.8z"/>
	<path d="M625.41,35.19c1.46-0.59,0.15-0.47-1.16-0.47C624.55,35.15,624.91,35.39,625.41,35.19z"/>
	<path d="M203.81,422.42c-0.77-2.11-0.73-4.13-0.51-6.35c0-3-1.85-1.87-2.5,1.06c-0.47,2.08,0.36,3.99,1.11,6.15
		c-2.62,5.23-2.96,4.59-2.93,5.94C199.03,430.98,205.34,426.63,203.81,422.42z"/>
	<path d="M180.41,459.66c-0.54,3.14,2.08,0.35,1.96-2.12c-0.21-4.22,2.42-10.15,2.42-15.29
		C181.52,444.61,183.04,444.35,180.41,459.66z"/>
	<path d="M186.3,324.17c0-3.33-0.83-4.01-0.74-5.81c0.5-10.75,5.3-13.43,6.25-15.27C185.46,304.5,181.46,324.47,186.3,324.17z"/>
	<path d="M197.61,410c0-0.46-0.28-2.42-0.28-3.51c0.01-2.43,1.65-5.19-0.39-7.14C195.5,409.12,195.3,407.39,197.61,410z"/>
	<path d="M184.08,427.54c-1.01,3.18-0.69,6.3,0.7,9.47C184.95,433.75,185.14,430.63,184.08,427.54z"/>
	<path d="M188.63,145.53c1.66-1.44,2.9-2.51,5.2-4.51c-2.35,0.34-5.07,0.55-6.17,2.69C187.25,144.52,187.45,145.16,188.63,145.53z"
		/>
	<path d="M166.58,201.44c-4.1,7.92-3.42,6.62-3.03,7.91c0.03,0.1,0.09-0.15,5.41-9.22C167.32,200.01,166.7,201.2,166.58,201.44z"/>
	<path d="M176.25,341.81c-0.01-0.08-0.38-0.11-0.83-0.23c0.01,2.83,0.65,5.44,1.69,8.18C177.67,346.88,176.6,344.38,176.25,341.81z"
		/>
	<path d="M166.97,314.86c0.16-1.37,0.76-2.77-0.12-4.3C165.78,312.86,165.78,312.9,166.97,314.86z"/>
	<path d="M173.8,303.3c0.03,1.14,1.13,0.44,1.13,0.54c0-2.91,0.3-4.17-0.8-2.72C173.58,301.87,173.79,302.64,173.8,303.3z"/>
	<path d="M160.06,312.58c-0.86,1.4,0.8,4.4,1.89,2.53C161.3,314.4,161.55,313,160.06,312.58z"/>
	<path d="M179.91,359.65c1.14-1.69-0.75-3.81-0.6-0.38C179.31,359.4,179.7,359.52,179.91,359.65z"/>
	<path d="M173.13,528.04c0,3.78-0.13,3.45,0.3,2.68C174.08,529.58,173.9,529.38,173.13,528.04z"/>
	<path d="M181.24,304.55c0.01-0.05,0.03-0.1,0.04-0.15C181.14,304.49,181.14,304.45,181.24,304.55z"/>
	<path d="M182.7,303.28c0.29-0.37,0.33-0.84,0.42-1.38C180.92,303.23,180.65,305.95,182.7,303.28z"/>
	<path d="M163.97,219.34c-0.29,0.22-0.59,0.34-0.59,0.46C163.48,221.19,164.69,221.37,163.97,219.34z"/>
	<path d="M162.05,146.89c-0.62,1-0.1,1.33,1.01,1.79C162.59,147.84,162.34,147.41,162.05,146.89z"/>
	<path d="M158.34,310.37c-0.27,2.15,1.16,1.33,0.89-0.44C158.94,308,158.29,310.72,158.34,310.37z"/>
	<path d="M197.45,414.77c0.33,0,0.25,0.22,0.25-1.31C197.37,413.46,197.45,413.22,197.45,414.77z"/>
	<path d="M152.49,231.07c0.32,0.8,0.2,0.63,0.8,0.4C152.89,230.66,153.07,230.85,152.49,231.07z"/>
	<path d="M165.84,307.41c-0.38-0.34-0.98,0.74-0.03,1.3C166.29,308.21,166.26,307.79,165.84,307.41z"/>
	<path d="M173.99,512.31c-0.5,0.55,0.17,1.93,0.2,1.5C174.32,512.24,174.26,512.56,173.99,512.31z"/>
	<path d="M173.56,522.69c0.01-0.08-0.14-0.17-0.22-0.25c-0.1,0.38-0.2,0.75-0.3,1.12C173.41,523.63,173.49,523.85,173.56,522.69z"/>
	<path d="M174.27,297.85c-0.09-0.21-0.17-0.42-0.25-0.63c-0.09,0.08-0.24,0.16-0.24,0.25C173.72,298.34,173.95,298.05,174.27,297.85
		z"/>
	<path d="M163.43,212.55c-0.16-0.8-0.46-0.45-0.44-0.35C163.14,212.99,163.45,212.65,163.43,212.55z"/>
	<path d="M180.17,465.97c0.26-0.61,0.28-0.61,0.21-0.7C180.06,464.86,179.41,465.31,180.17,465.97z"/>
	<path d="M165.7,305.38C165.95,304.56,165.13,305.1,165.7,305.38L165.7,305.38z"/>
	<path d="M158.61,305.68c-0.29-0.18-0.15-0.2-0.53-0.06C158.37,305.82,158.28,305.81,158.61,305.68z"/>
	<path d="M154.67,312.94c-0.02,0.1,0.09,0.17,0.19,0.27C155.27,312.28,154.81,312.17,154.67,312.94z"/>
	<path d="M159.37,309.02c0.02-0.01,0.04-0.04,0.05-0.07C159.61,308.54,159.04,309.18,159.37,309.02z"/>
	<path d="M159.02,309.01C159.15,309.16,159.31,309.02,159.02,309.01L159.02,309.01z"/>
	<path d="M223.15,545.8c-2.71-2.86,2.41-7.92,0.88-11.99c-0.38,0.58-0.66,0.86-0.77,1.19c-2.98,9.44-2.78,6.79-2.83,7.9
		c-0.01,0.27,0.4,0.52,0.4,1.3c0.02,4.02-2.86,1.78,2.87,5.74C226.2,549,224.94,547.69,223.15,545.8z"/>
	<path d="M238.8,452.15c-0.2-2.39-2.48-2.4-2.26,0.26c0.23,2.82,0.57,5.64,0.89,8.8C239.29,458.26,239.07,455.42,238.8,452.15z"/>
	<path d="M256.55,404.33c-1.66,1.34-3.67,4.71-4.51,6.68c-0.1,0.1,1.76,0.65,6.32-6.28C257.5,404.28,256.99,403.98,256.55,404.33z"
		/>
	<path d="M237.64,465.43c-1.75-1.66-1.46,3.42-1.48,5.5c-0.01,1.28-0.78,2.58-0.8,3.89c-0.04,2.47,1.52,1.24,1.47-0.42
		C236.63,467.84,238.83,466.56,237.64,465.43z"/>
	<path d="M252.54,419.91c0.6-1.05-1.64,3.17,3.53-6.84C252.89,412.78,251.64,416.95,252.54,419.91z"/>
	<path d="M252.73,422.98c1.27,2.33-0.81,4.42,1.28,4.36c0.86-3.87,0.83-3.88-0.12-6.71C252.94,421.24,252.2,422,252.73,422.98z"/>
	<path d="M233.93,439.42c-0.14,2.65-0.16,2.65,1.46,4.89C236.17,442.35,235.41,440.98,233.93,439.42z"/>
	<path d="M244.9,411.78c1.31,0.96,2.45,0.66,3.77-0.32C247.02,410.36,246.89,410.38,244.9,411.78z"/>
	<path d="M225.07,532.51c0.46-1.44,0.71-2.22,1.19-3.73C224.51,529.92,224.59,530.8,225.07,532.51z"/>
	<path d="M251.75,430.32c-0.26,1.23-0.31,0.88,0.34,1.19c0.1,0.05-0.07,0.16,0.39-0.86C252.31,430.57,251.86,430.37,251.75,430.32z"
		/>
	<path d="M226.68,525.88c0.05,0.1,0.01-0.03,0.28-0.61c-0.1-0.21-0.2-0.41-0.3-0.62C226.13,525.17,226.26,525.09,226.68,525.88z"/>
	<path d="M235.04,481.69c-0.11-0.1-0.52,0.29-0.12,0.81C235.28,482.02,235.42,482.05,235.04,481.69z"/>
	<path d="M228.01,514.42c-0.52,1.48,0.29,0.78,0.32,0.45C228.34,514.74,228.13,514.58,228.01,514.42z"/>
	<path d="M227.14,520.53c0.55-0.22,0.47-0.05,0.22-0.77C227.08,519.96,227.11,519.72,227.14,520.53z"/>
	<path d="M244.63,235.14c-0.4,1.74-0.86,7.42,1.88,6.71c1.26-2.31-0.85-4.59,1.13-8.77C247.68,232.98,245.09,233.13,244.63,235.14z"
		/>
	<path d="M251.77,200.3c-0.78,4.28,1.01,4.88-0.26,8.36c-0.11,0.3,0.03,0.75,0.06,1.1c1.68-3.17,0.97-6.66,1.21-10.31
		C252.78,199.35,251.8,200.17,251.77,200.3z"/>
	<path d="M204.7,190.87c0.04,0.13,0.02,0.09,0.24,0.14C204.82,190.89,204.85,190.9,204.7,190.87z"/>
	<path d="M200.54,187.19c-3.21,0.11,4.16,4.48,4.16,3.69C204.03,188.86,200.93,187.17,200.54,187.19z"/>
	<path d="M249.26,223c-0.59,2.61-1.23,4.13-0.03,4c0.41-0.04,0.31,0.1,0.44-1.62C249.87,222.74,250.05,223,249.26,223z"/>
	<path d="M201.3,239.72c-0.04-0.04-0.56,0.28-0.55,0.31c0.67,1.47,0.55,1.22,1.37,0.72C201.85,240.39,201.6,240.03,201.3,239.72z"/>
	<path d="M215.93,196.68c-0.33-0.17-1.53,0.66,0.99,0.84C216.51,197.17,216.2,196.83,215.93,196.68z"/>
	<path d="M207.35,207.85c-1.18-0.04-0.47,0.15,0.32,0.45C207.48,208.02,207.42,207.85,207.35,207.85z"/>
	<path d="M203.99,244.87L203.99,244.87C203.99,244.77,203.85,244.68,203.99,244.87z"/>
	<path d="M203.99,244.87L203.99,244.87C203.97,244.8,203.97,244.8,203.99,244.87z"/>
	<path d="M200.65,236.05c-0.28,0.28-0.4-0.03,0,0.9C200.96,236.61,200.95,236.84,200.65,236.05z"/>
	<path d="M200.12,202.15c-0.03-0.1-0.01-0.03-0.15-0.14C200.04,202.11,200.19,202.4,200.12,202.15z"/>
	<path d="M200.23,202.35c-0.14-0.18-0.11-0.21-0.09,0.1C200.58,202.49,200.56,202.53,200.23,202.35z"/>
	<path d="M229.38,294.7c0.1-0.1-0.13-0.22-0.41-0.66c-2.56,2-3.33,5.33-4.79,8.2C226,302.56,225.94,302.07,229.38,294.7z"/>
	<path d="M216.45,294.22c0.39,1.21,2.78,6.99,4.02,7.47C223.04,302.69,219.63,297.01,216.45,294.22z"/>
	<path d="M180.92,263.74c11.55,1.36,10.15,1.34,7.81,0.49C185.23,262.95,183.09,262.86,180.92,263.74z"/>
	<path d="M223.56,289.21c-0.75-1.2-2.26-2.91-3.57-3.48c-0.75-0.33-0.97-0.91,3.12,5.28C223.26,290.82,224.14,290.14,223.56,289.21z
		"/>
	<path d="M201.3,260.09c2.09,1.04,4.23,1.89,6.66,1.42C205.84,260.51,203.68,259.79,201.3,260.09z"/>
	<path d="M223.3,309.68c2.55,0.06,11.2-1.73,3.37-1.36C225.58,308.37,224.46,308.7,223.3,309.68z"/>
	<path d="M173.4,274.2c-3.31,0.47-2.82,0.21-2.73,0.96C170.77,275.14,173.47,274.55,173.4,274.2z"/>
	<path d="M177.22,257.59c0.19-0.05,0.6,0.02-2.6-0.37C175.33,258.19,176.28,257.84,177.22,257.59z"/>
	<path d="M174.61,257.23c-0.03-0.04-0.06-0.07-0.09-0.12C174.39,257.24,174.42,257.19,174.61,257.23z"/>
	<path d="M173.16,256.84c-1.32,0.35,0.4,0.27,1.09,0.27C173.89,256.93,173.57,256.73,173.16,256.84z"/>
	<path d="M174.24,257.11c0.22,0.12,0.18,0.11,0.28,0C174.43,257.11,174.34,257.11,174.24,257.11z"/>
	<path d="M255.86,277.98c-1.4,0.04-1.96,0.57,0.09,0.57C256.41,278.58,256.04,277.97,255.86,277.98z"/>
	<path d="M232.32,307.94c-0.15,0.2,0.58,0.26,0.66,0.16C233.14,307.88,232.41,307.82,232.32,307.94z"/>
	<path d="M211.03,262.26l0.01-0.11C210.68,262.18,210.66,262.14,211.03,262.26z"/>
	<path d="M231.02,169.75c-15.54-2.07-18.4-4.16-21.23-4.61c5.77,6.42,35.82,11.95,40.82,2.35
		C245.96,166.99,241.01,171.07,231.02,169.75z"/>
	<path d="M253.15,166.2c1.34,0.08,1.34,0.08,2.16-0.94C253.76,165.18,253.77,165.2,253.15,166.2z"/>
	<path d="M204.8,162.75c-0.34-0.02-0.69,0.08-1.44,0.18C206.07,164.02,205.08,162.78,204.8,162.75z"/>
	<path d="M216.02,576.37c-7.87-0.95-9.8,0.92-9.7,0.92C209.03,578.74,211.79,579.34,216.02,576.37z"/>
	<path d="M175.56,41.98c-0.03-0.18,0.01,0.07,0.01,0.06C175.57,42.01,175.57,42,175.56,41.98z"/>
	<path d="M175.54,41.87c0.02,0.1,0.06,0.33,0.04,0.23C175.57,42,175.52,41.77,175.54,41.87z"/>
	<path d="M198.52,18.56c0.24,0.01,0.55,0,0.84,0.03c-0.39-0.89-1.22-0.66-1.96-0.72C197.3,17.87,197.66,18.52,198.52,18.56z"/>
	<path d="M199.5,18.61L199.5,18.61C199.07,18.52,199.79,18.91,199.5,18.61z"/>
	<path d="M197.26,17.86c0.21,0.03,0.12,0.01,0.08-0.1L197.26,17.86z"/>
	<path d="M199.58,18.72c0.46,0.6,1.09,0.5,1.74,0.12C199.57,18.72,199.53,18.62,199.58,18.72z"/>
	<path d="M197.04,17.72L197.04,17.72C196.94,17.71,196.94,17.71,197.04,17.72z"/>
	<path d="M197.04,17.72L197.04,17.72C196.9,17.64,196.84,17.61,197.04,17.72z"/>
	<path d="M197.26,17.86c0.11-0.13,0.16-0.09-0.22-0.13C197.04,17.72,197.13,17.78,197.26,17.86z"/>
	<path d="M146.1,305.44c-1.85,2.69-1.74,5.34,0.04,8C146.1,304.36,146.03,305.54,146.1,305.44z"/>
	<path d="M146.1,305.44c0.03-0.05,0.06-0.1,0.09-0.14C146.07,305.2,146.1,305.17,146.1,305.44z"/>
	<path d="M147.4,316.51c-0.54-1.61-1.18-3.79-1.15-1.99C146.31,318.5,147.61,317.13,147.4,316.51z"/>
	<path d="M146.23,313.58c-0.13-0.18-0.09-0.24-0.09,0.07C146.25,313.77,146.24,313.86,146.23,313.58z"/>
	<path d="M206.65,32.66c0.38,0.47,0.55-0.13,0.71-0.06C206.94,32.42,206.28,32.21,206.65,32.66z"/>
	<path d="M206.31,32.39c0.1,0.01,0.1,0.01,0.15,0.02c-0.02-0.02,0-0.01-0.08-0.11C206.09,32.25,206.15,32.27,206.31,32.39z"/>
<path fill="#e6e6e6" d="m206.8 163.6c0-5.1 4.1-9.2 9.3-9.2s9.2 4.2 9.2 9.2-4.1 9.2-9.3 9.2-9.2-4.1-9.2-9.2zm17.3-.1c0-4.5-3.5-8.2-8.2-8.2s-8.2 3.7-8.2 8.3c0 4.5 3.5 8.2 8.2 8.2s8.2-3.7 8.2-8.3zm-13 0c0-2.8 2.1-5.1 5.1-5.1 1.9 0 2.9.6 3.9 1.5l-1.4 1.7c-.8-.7-1.5-1.1-2.5-1.1-1.7 0-2.8 1.4-2.8 3.1s1.1 3 2.8 3c1.1 0 1.7-.5 2.5-1.1l1.4 1.4c-1.1 1.1-2.1 1.7-4 1.7-2.9 0-5-2.3-5-5.1z"/><path fill="#e6e6e6" d="m226.6 154.7h3.4l4.2 13.2 4.4-13.3h2.6l4.4 13.3 4.2-13.2h3.3l-6.2 18h-2.7l-4.4-12.8-4.4 12.8h-2.7z"/><path fill="#e6e6e6" d="m252.8 165.8c0-3.9 3.1-7 7.2-7 4.2 0 7.2 3.2 7.2 7s-3.1 7-7.3 7c-4 0-7.1-3.1-7.1-7zm11.3 0c0-2.3-1.7-4.3-4.2-4.3s-4.1 2-4.1 4.3 1.7 4.3 4.1 4.3c2.7.1 4.2-1.9 4.2-4.3z"/><path fill="#e6e6e6" d="m269.5 159.1h3.1v3c.8-2 2.4-3.4 4.8-3.3v3.2h-.2c-2.7 0-4.6 1.7-4.6 5.4v5.1h-3.1z"/><path fill="#e6e6e6" d="m279.1 153.9h3.1v11.1l5.6-6h3.8l-5.4 5.5 5.5 8h-3.5l-4.1-5.8-1.9 2v3.9h-3.1z"/><path fill="#e6e6e6" d="m291.7 165.8c0-3.9 3.1-7 7.2-7 4.2 0 7.2 3.2 7.2 7s-3.1 7-7.3 7c-4 0-7.1-3.1-7.1-7zm11.3 0c0-2.3-1.7-4.3-4.2-4.3s-4.1 2-4.1 4.3 1.7 4.3 4.1 4.3c2.6.1 4.2-1.9 4.2-4.3z"/><path fill="#e6e6e6" d="m308.2 167.6v-8.6h3.1v7.6c0 2.1 1.1 3.3 2.9 3.3s3-1.3 3-3.3v-7.6h3.1v13.4h-3.1v-2.1c-.8 1.3-2.1 2.3-4.2 2.3-3.1.2-4.8-1.8-4.8-5z"/><path fill="#e6e6e6" d="m323.9 168.8v-7.1h-1.7v-2.6h1.7v-3.7h3.1v3.7h3.6v2.6h-3.6v6.6c0 1.2.6 1.7 1.7 1.7.7 0 1.3-.2 1.9-.5v2.5c-.8.5-1.7.7-2.8.7-2.3 0-3.9-.9-3.9-3.9z"/><path fill="#e6e6e6" d="m333.2 154.7h3.2v15h9.4v2.9h-12.5v-17.9z"/><path fill="#e6e6e6" d="m356 172.5v-1.7c-.9 1.1-2.3 2-4.4 2-2.6 0-4.8-1.4-4.8-4.2 0-3 2.3-4.4 5.4-4.4 1.7 0 2.6.2 3.7.5v-.2c0-1.9-1.2-2.9-3.3-2.9-1.5 0-2.6.3-3.9.8l-.8-2.5c1.5-.7 2.9-1.1 5.1-1.1 4 0 5.9 2.1 5.9 5.7v8zm.1-5.6c-.8-.3-1.9-.5-3.1-.5-2 0-3.1.8-3.1 2.1s1.1 2 2.6 2c2 0 3.5-1.1 3.5-2.9z"/><path fill="#e6e6e6" d="m364.9 170.5v2.1h-3.1v-18.7h3.1v7.4c1-1.4 2.4-2.5 4.5-2.5 3.2 0 6.3 2.5 6.3 7s-3.1 7-6.3 7c-2.1 0-3.5-1.1-4.5-2.3zm7.7-4.7c0-2.6-1.7-4.3-3.9-4.3s-3.9 1.7-3.9 4.4c0 2.6 1.8 4.3 3.9 4.3s3.9-1.7 3.9-4.4z"/><path fill="#e6e6e6" d="m376.9 170.8 1.4-2.1c1.4 1.1 3 1.7 4.4 1.7s2.1-.5 2.1-1.5-1.3-1.4-2.8-1.8c-.1 0-.2-.1-.2-.1-2-.6-4.2-1.4-4.2-4s2.1-4.1 4.8-4.1c1.7 0 3.5.6 5 1.5l-1.2 2.2c-1.3-.8-2.6-1.3-3.8-1.3s-1.9.5-1.9 1.4 1.3 1.4 2.8 1.8c.1 0 .2.1.2.1 2 .6 4.2 1.5 4.2 4 0 2.9-2.2 4.2-5 4.2-1.9 0-4-.7-5.8-2z"/><path fill="#e6e6e6" d="m505.6 163.6c0-5.1 4.1-9.2 9.3-9.2s9.2 4.2 9.2 9.2-4.1 9.2-9.3 9.2-9.2-4.1-9.2-9.2zm17.4-.1c0-4.5-3.5-8.2-8.2-8.2s-8.2 3.7-8.2 8.3c0 4.5 3.5 8.2 8.2 8.2s8.2-3.7 8.2-8.3zm-13.1 0c0-2.8 2.1-5.1 5.1-5.1 1.9 0 2.9.6 3.9 1.5l-1.4 1.7c-.8-.7-1.5-1.1-2.5-1.1-1.7 0-2.8 1.4-2.8 3.1s1.1 3 2.8 3c1.1 0 1.7-.5 2.5-1.1l1.4 1.4c-1.1 1.1-2.1 1.7-4 1.7-2.9 0-5-2.3-5-5.1z"/><path fill="#e6e6e6" d="m525.4 154.7h3.4l4.2 13.2 4.4-13.3h2.6l4.4 13.3 4.2-13.2h3.3l-6.2 18h-2.7l-4.4-12.8-4.4 12.8h-2.7z"/><path fill="#e6e6e6" d="m551.7 165.8c0-3.9 3.1-7 7.2-7 4.2 0 7.2 3.2 7.2 7s-3.1 7-7.3 7c-4.1 0-7.1-3.1-7.1-7zm11.2 0c0-2.3-1.7-4.3-4.2-4.3s-4.1 2-4.1 4.3 1.7 4.3 4.1 4.3c2.7.1 4.2-1.9 4.2-4.3z"/><path fill="#e6e6e6" d="m568.3 159.1h3.1v3c.8-2 2.4-3.4 4.8-3.3v3.2h-.2c-2.7 0-4.6 1.7-4.6 5.4v5.1h-3.1z"/><path fill="#e6e6e6" d="m577.9 153.9h3.1v11.1l5.6-6h3.8l-5.4 5.5 5.5 8h-3.5l-4.1-5.8-1.9 2v3.9h-3.1z"/><path fill="#e6e6e6" d="m590.6 165.8c0-3.9 3.1-7 7.2-7 4.2 0 7.2 3.2 7.2 7s-3.1 7-7.3 7c-4.1 0-7.1-3.1-7.1-7zm11.2 0c0-2.3-1.7-4.3-4.2-4.3s-4.1 2-4.1 4.3 1.7 4.3 4.1 4.3c2.6.1 4.2-1.9 4.2-4.3z"/><path fill="#e6e6e6" d="m607 167.6v-8.6h3.1v7.6c0 2.1 1.1 3.3 2.9 3.3s3-1.3 3-3.3v-7.6h3.1v13.4h-3.1v-2.1c-.8 1.3-2.1 2.3-4.2 2.3-3 .2-4.8-1.8-4.8-5z"/><path fill="#e6e6e6" d="m622.7 168.8v-7.1h-1.7v-2.6h1.7v-3.7h3.1v3.7h3.6v2.6h-3.6v6.6c0 1.2.6 1.7 1.7 1.7.7 0 1.3-.2 1.9-.5v2.5c-.8.5-1.7.7-2.8.7-2.3 0-3.9-.9-3.9-3.9z"/><path fill="#e6e6e6" d="m632 154.7h3.2v15h9.4v2.9h-12.6z"/><path fill="#e6e6e6" d="m654.8 172.5v-1.7c-.9 1.1-2.3 2-4.4 2-2.6 0-4.8-1.4-4.8-4.2 0-3 2.3-4.4 5.4-4.4 1.7 0 2.6.2 3.7.5v-.2c0-1.9-1.2-2.9-3.3-2.9-1.5 0-2.6.3-3.9.8l-.8-2.5c1.5-.7 2.9-1.1 5.1-1.1 4 0 5.9 2.1 5.9 5.7v8zm.1-5.6c-.8-.3-1.9-.5-3.1-.5-2 0-3.1.8-3.1 2.1s1.1 2 2.6 2c2 0 3.5-1.1 3.5-2.9z"/><path fill="#e6e6e6" d="m663.7 170.5v2.1h-3.1v-18.7h3.1v7.4c1-1.4 2.4-2.5 4.5-2.5 3.2 0 6.3 2.5 6.3 7s-3.1 7-6.3 7c-2.1 0-3.5-1.1-4.5-2.3zm7.8-4.7c0-2.6-1.7-4.3-3.9-4.3-2.1 0-3.9 1.7-3.9 4.4 0 2.6 1.8 4.3 3.9 4.3s3.9-1.7 3.9-4.4z"/><path fill="#e6e6e6" d="m675.8 170.8 1.4-2.1c1.4 1.1 3 1.7 4.4 1.7s2.1-.5 2.1-1.5-1.3-1.4-2.8-1.8c-.1 0-.2-.1-.2-.1-2-.6-4.2-1.4-4.2-4s2.1-4.1 4.8-4.1c1.7 0 3.5.6 5 1.5l-1.2 2.2c-1.3-.8-2.6-1.3-3.8-1.3s-1.9.5-1.9 1.4 1.3 1.4 2.8 1.8c.1 0 .2.1.2.1 2 .6 4.2 1.5 4.2 4 0 2.9-2.2 4.2-5 4.2-2 0-4.1-.7-5.8-2z"/><path fill="#e6e6e6" d="m61 298.6c0-5.1 4.1-9.2 9.3-9.2s9.2 4.2 9.2 9.2-4.1 9.2-9.3 9.2c-5.1 0-9.2-4.2-9.2-9.2zm17.4-.1c0-4.5-3.5-8.2-8.2-8.2s-8.2 3.7-8.2 8.3c0 4.5 3.5 8.2 8.2 8.2s8.2-3.7 8.2-8.3zm-13.1-.1c0-2.8 2.1-5.1 5.1-5.1 1.9 0 2.9.6 3.9 1.5l-1.4 1.7c-.8-.7-1.5-1.1-2.5-1.1-1.7 0-2.8 1.4-2.8 3.1s1.1 3 2.8 3c1.1 0 1.7-.5 2.5-1.1l1.4 1.4c-1.1 1.1-2.1 1.7-4 1.7-2.8.1-5-2.2-5-5.1z"/><path fill="#e6e6e6" d="m80.9 289.7h3.4l4.2 13.2 4.4-13.3h2.6l4.4 13.3 4.2-13.2h3.3l-6.2 18h-2.7l-4.4-12.8-4.4 12.8h-2.7z"/><path fill="#e6e6e6" d="m107.1 300.8c0-3.9 3.1-7 7.2-7s7.2 3.2 7.2 7-3.1 7-7.3 7c-4 0-7.1-3.1-7.1-7zm11.3 0c0-2.3-1.7-4.3-4.2-4.3s-4.1 2-4.1 4.3 1.7 4.3 4.1 4.3c2.6.1 4.2-1.9 4.2-4.3z"/><path fill="#e6e6e6" d="m123.7 294h3.1v3c.8-2 2.4-3.4 4.8-3.3v3.2h-.2c-2.7 0-4.6 1.7-4.6 5.4v5.1h-3.1z"/><path fill="#e6e6e6" d="m133.4 288.9h3.1v11.1l5.6-6h3.8l-5.4 5.5 5.5 8h-3.5l-4.1-5.8-1.9 1.9v3.9h-3.1z"/><path fill="#e6e6e6" d="m146 300.8c0-3.9 3.1-7 7.2-7s7.2 3.2 7.2 7-3.1 7-7.3 7c-4.1 0-7.1-3.1-7.1-7zm11.2 0c0-2.3-1.7-4.3-4.2-4.3s-4.1 2-4.1 4.3 1.7 4.3 4.1 4.3c2.6.1 4.2-1.9 4.2-4.3z"/><path fill="#e6e6e6" d="m162.4 302.6v-8.6h3.1v7.6c0 2.1 1.1 3.3 2.9 3.3s3-1.3 3-3.3v-7.6h3.1v13.4h-3.1v-2.1c-.8 1.3-2.1 2.3-4.2 2.3-3 .2-4.8-1.8-4.8-5z"/><path fill="#e6e6e6" d="m178.1 303.8v-7.1h-1.7v-2.7h1.7v-3.7h3.1v3.7h3.6v2.6h-3.6v6.6c0 1.2.6 1.7 1.7 1.7.7 0 1.3-.2 1.9-.5v2.5c-.8.5-1.7.7-2.8.7-2.3.1-3.9-.9-3.9-3.8z"/><path fill="#e6e6e6" d="m187.4 289.7h3.2v15h9.4v2.9h-12.5v-17.9z"/><path fill="#e6e6e6" d="m210.2 307.5v-1.7c-.9 1.1-2.3 2-4.4 2-2.6 0-4.8-1.4-4.8-4.2 0-3 2.3-4.4 5.4-4.4 1.7 0 2.6.2 3.7.5v-.2c0-1.9-1.2-2.9-3.3-2.9-1.5 0-2.6.3-3.9.8l-.8-2.5c1.5-.7 2.9-1.1 5.1-1.1 4 0 5.9 2.1 5.9 5.7v8zm.1-5.6c-.8-.3-1.9-.5-3.1-.5-2 0-3.1.8-3.1 2.1s1.1 2 2.6 2c2 0 3.5-1.1 3.5-2.9z"/><path fill="#e6e6e6" d="m219.2 305.5v2.1h-3.1v-18.7h3.1v7.4c1-1.4 2.4-2.5 4.5-2.5 3.2 0 6.3 2.5 6.3 7s-3.1 7-6.3 7c-2.2 0-3.6-1.1-4.5-2.3zm7.7-4.7c0-2.6-1.7-4.3-3.9-4.3s-3.9 1.7-3.9 4.4c0 2.6 1.8 4.3 3.9 4.3s3.9-1.7 3.9-4.4z"/><path fill="#e6e6e6" d="m231.2 305.8 1.4-2.1c1.4 1.1 3 1.7 4.4 1.7s2.1-.5 2.1-1.5-1.3-1.4-2.8-1.8c-.1 0-.2-.1-.2-.1-2-.6-4.2-1.4-4.2-4s2.1-4.1 4.8-4.1c1.7 0 3.5.6 5 1.5l-1.2 2.2c-1.3-.8-2.6-1.3-3.8-1.3s-1.9.5-1.9 1.4 1.3 1.4 2.8 1.8c.1 0 .2.1.2.1 2 .6 4.2 1.5 4.2 4 0 2.9-2.2 4.2-5 4.2-2 0-4.1-.7-5.8-2z"/><path fill="#e6e6e6" d="m360.6 298.6c0-5.1 4.1-9.2 9.3-9.2s9.2 4.2 9.2 9.2-4.1 9.2-9.3 9.2-9.2-4.2-9.2-9.2zm17.4-.1c0-4.5-3.5-8.2-8.2-8.2s-8.2 3.7-8.2 8.3c0 4.5 3.5 8.2 8.2 8.2s8.2-3.7 8.2-8.3zm-13.1-.1c0-2.8 2.1-5.1 5.1-5.1 1.9 0 2.9.6 3.9 1.5l-1.4 1.7c-.8-.7-1.5-1.1-2.5-1.1-1.7 0-2.8 1.4-2.8 3.1s1.1 3 2.8 3c1.1 0 1.7-.5 2.5-1.1l1.4 1.4c-1.1 1.1-2.1 1.7-4 1.7-2.8.1-5-2.2-5-5.1z"/><path fill="#e6e6e6" d="m380.5 289.7h3.4l4.2 13.2 4.4-13.3h2.6l4.4 13.3 4.2-13.2h3.3l-6.2 18h-2.7l-4.4-12.8-4.4 12.8h-2.7z"/><path fill="#e6e6e6" d="m406.7 300.8c0-3.9 3.1-7 7.2-7 4.2 0 7.2 3.2 7.2 7s-3.1 7-7.3 7c-4.1 0-7.1-3.1-7.1-7zm11.3 0c0-2.3-1.7-4.3-4.2-4.3s-4.1 2-4.1 4.3 1.7 4.3 4.1 4.3c2.7.1 4.2-1.9 4.2-4.3z"/><path fill="#e6e6e6" d="m423.3 294h3.1v3c.8-2 2.4-3.4 4.8-3.3v3.2h-.2c-2.7 0-4.6 1.7-4.6 5.4v5.1h-3.1z"/><path fill="#e6e6e6" d="m433 288.9h3.1v11.1l5.6-6h3.8l-5.4 5.5 5.5 8h-3.5l-4.1-5.8-1.9 2v3.9h-3.1z"/><path fill="#e6e6e6" d="m445.6 300.8c0-3.9 3.1-7 7.2-7 4.2 0 7.2 3.2 7.2 7s-3.1 7-7.3 7c-4.1 0-7.1-3.1-7.1-7zm11.3 0c0-2.3-1.7-4.3-4.2-4.3s-4.1 2-4.1 4.3 1.7 4.3 4.1 4.3c2.6.1 4.2-1.9 4.2-4.3z"/><path fill="#e6e6e6" d="m462.1 302.6v-8.6h3.1v7.6c0 2.1 1.1 3.3 2.9 3.3s3-1.3 3-3.3v-7.6h3.1v13.4h-3.1v-2.1c-.8 1.3-2.1 2.3-4.2 2.3-3.1.2-4.8-1.8-4.8-5z"/><path fill="#e6e6e6" d="m477.8 303.8v-7.1h-1.8v-2.7h1.7v-3.7h3.1v3.7h3.6v2.6h-3.6v6.6c0 1.2.6 1.7 1.7 1.7.7 0 1.3-.2 1.9-.5v2.5c-.8.5-1.7.7-2.8.7-2.2.1-3.8-.9-3.8-3.8z"/><path fill="#e6e6e6" d="m487.1 289.7h3.2v15h9.4v2.9h-12.5v-17.9z"/><path fill="#e6e6e6" d="m509.9 307.5v-1.7c-.9 1.1-2.3 2-4.4 2-2.6 0-4.8-1.4-4.8-4.2 0-3 2.3-4.4 5.4-4.4 1.7 0 2.6.2 3.7.5v-.2c0-1.9-1.2-2.9-3.3-2.9-1.5 0-2.6.3-3.9.8l-.8-2.5c1.5-.7 2.9-1.1 5.1-1.1 4 0 5.9 2.1 5.9 5.7v8zm.1-5.6c-.8-.3-1.9-.5-3.1-.5-2 0-3.1.8-3.1 2.1s1.1 2 2.6 2c2 0 3.5-1.1 3.5-2.9z"/><path fill="#e6e6e6" d="m518.8 305.5v2.1h-3.1v-18.7h3.1v7.4c1-1.4 2.4-2.5 4.5-2.5 3.2 0 6.3 2.5 6.3 7s-3.1 7-6.3 7c-2.2 0-3.5-1.1-4.5-2.3zm7.7-4.7c0-2.6-1.7-4.3-3.9-4.3s-3.9 1.7-3.9 4.4c0 2.6 1.8 4.3 3.9 4.3s3.9-1.7 3.9-4.4z"/><path fill="#e6e6e6" d="m530.8 305.8 1.4-2.1c1.4 1.1 3 1.7 4.4 1.7s2.1-.5 2.1-1.5-1.3-1.4-2.8-1.8c-.1 0-.2-.1-.2-.1-2-.6-4.2-1.4-4.2-4s2.1-4.1 4.8-4.1c1.7 0 3.5.6 5 1.5l-1.2 2.2c-1.3-.8-2.6-1.3-3.8-1.3s-1.9.5-1.9 1.4 1.3 1.4 2.8 1.8c.1 0 .2.1.2.1 2 .6 4.2 1.5 4.2 4 0 2.9-2.2 4.2-5 4.2-1.9 0-4.1-.7-5.8-2z"/><path fill="#e6e6e6" d="m659.5 298.6c0-5.1 4.1-9.2 9.3-9.2s9.2 4.2 9.2 9.2-4.1 9.2-9.3 9.2-9.2-4.2-9.2-9.2zm17.3-.1c0-4.5-3.5-8.2-8.2-8.2s-8.2 3.7-8.2 8.3c0 4.5 3.5 8.2 8.2 8.2 4.8 0 8.2-3.7 8.2-8.3zm-13-.1c0-2.8 2.1-5.1 5.1-5.1 1.9 0 2.9.6 3.9 1.5l-1.4 1.7c-.8-.7-1.5-1.1-2.5-1.1-1.7 0-2.8 1.4-2.8 3.1s1.1 3 2.8 3c1.1 0 1.7-.5 2.5-1.1l1.4 1.4c-1.1 1.1-2.1 1.7-4 1.7-2.9.1-5-2.2-5-5.1z"/><path fill="#e6e6e6" d="m679.3 289.7h3.4l4.2 13.2 4.4-13.3h2.6l4.4 13.3 4.2-13.2h3.3l-6.2 18h-2.6l-4.4-12.8-4.4 12.8h-2.7z"/><path fill="#e6e6e6" d="m705.5 300.8c0-3.9 3.1-7 7.2-7 4.2 0 7.2 3.2 7.2 7s-3.1 7-7.3 7c-4 0-7.1-3.1-7.1-7zm11.3 0c0-2.3-1.7-4.3-4.2-4.3s-4.1 2-4.1 4.3 1.7 4.3 4.1 4.3c2.7.1 4.2-1.9 4.2-4.3z"/><path fill="#e6e6e6" d="m722.1 294h3.1v3c.8-2 2.4-3.4 4.8-3.3v3.2h-.2c-2.7 0-4.6 1.7-4.6 5.4v5.1h-3.1z"/><path fill="#e6e6e6" d="m731.8 288.9h3.1v11.1l5.6-6h3.8l-5.4 5.5 5.5 8h-3.5l-4.1-5.8-1.9 2v3.9h-3.1z"/><path fill="#e6e6e6" d="m744.4 300.8c0-3.9 3.1-7 7.2-7 4.2 0 7.2 3.2 7.2 7s-3.1 7-7.3 7c-4.1 0-7.1-3.1-7.1-7zm11.3 0c0-2.3-1.7-4.3-4.2-4.3s-4.1 2-4.1 4.3 1.7 4.3 4.1 4.3c2.6.1 4.2-1.9 4.2-4.3z"/><path fill="#e6e6e6" d="m760.9 302.6v-8.6h3.1v7.6c0 2.1 1.1 3.3 2.9 3.3s3-1.3 3-3.3v-7.6h3.1v13.4h-3.1v-2.1c-.8 1.3-2.1 2.3-4.2 2.3-3.1.2-4.8-1.8-4.8-5z"/><path fill="#e6e6e6" d="m776.6 303.8v-7.1h-1.7v-2.7h1.7v-3.7h3.1v3.7h3.6v2.6h-3.6v6.6c0 1.2.6 1.7 1.7 1.7.7 0 1.3-.2 1.9-.5v2.5c-.8.5-1.7.7-2.8.7-2.3.1-3.9-.9-3.9-3.8z"/><path fill="#e6e6e6" d="m785.9 289.7h3.2v15h9.4v2.9h-12.5v-17.9z"/><path fill="#e6e6e6" d="m808.7 307.5v-1.7c-.9 1.1-2.3 2-4.4 2-2.6 0-4.8-1.4-4.8-4.2 0-3 2.3-4.4 5.4-4.4 1.7 0 2.6.2 3.7.5v-.2c0-1.9-1.2-2.9-3.3-2.9-1.5 0-2.6.3-3.9.8l-.8-2.5c1.5-.7 2.9-1.1 5.1-1.1 4 0 5.9 2.1 5.9 5.7v8zm.1-5.6c-.8-.3-1.9-.5-3.1-.5-2 0-3.1.8-3.1 2.1s1.1 2 2.6 2c2 0 3.5-1.1 3.5-2.9z"/><path fill="#e6e6e6" d="m817.6 305.5v2.1h-3.1v-18.7h3.1v7.4c1-1.4 2.4-2.5 4.5-2.5 3.2 0 6.3 2.5 6.3 7s-3.1 7-6.3 7c-2.1 0-3.5-1.1-4.5-2.3zm7.7-4.7c0-2.6-1.7-4.3-3.9-4.3-2.1 0-3.9 1.7-3.9 4.4 0 2.6 1.8 4.3 3.9 4.3 2.2 0 3.9-1.7 3.9-4.4z"/><path fill="#e6e6e6" d="m829.6 305.8 1.4-2.1c1.4 1.1 3 1.7 4.4 1.7s2.1-.5 2.1-1.5-1.3-1.4-2.8-1.8c-.1 0-.2-.1-.2-.1-2-.6-4.2-1.4-4.2-4s2.1-4.1 4.8-4.1c1.7 0 3.5.6 5 1.5l-1.2 2.2c-1.3-.8-2.6-1.3-3.8-1.3s-1.9.5-1.9 1.4 1.3 1.4 2.8 1.8c.1 0 .2.1.2.1 2 .6 4.2 1.5 4.2 4 0 2.9-2.2 4.2-5 4.2-1.9 0-4-.7-5.8-2z"/><path fill="#e6e6e6" d="m206.3 434.2c0-5.1 4.1-9.2 9.3-9.2s9.2 4.2 9.2 9.2-4.1 9.2-9.3 9.2-9.2-4.1-9.2-9.2zm17.4-.1c0-4.5-3.5-8.2-8.2-8.2s-8.2 3.7-8.2 8.3c0 4.5 3.5 8.2 8.2 8.2s8.2-3.7 8.2-8.3zm-13.1-.1c0-2.8 2.1-5.1 5.1-5.1 1.9 0 2.9.6 3.9 1.5l-1.4 1.7c-.8-.7-1.5-1.1-2.5-1.1-1.7 0-2.8 1.4-2.8 3.1s1.1 3 2.8 3c1.1 0 1.7-.5 2.5-1.1l1.4 1.4c-1.1 1.1-2.1 1.7-4 1.7-2.9.1-5-2.2-5-5.1z"/><path fill="#e6e6e6" d="m226.1 425.3h3.4l4.2 13.2 4.4-13.3h2.6l4.4 13.3 4.2-13.2h3.3l-6.2 18h-2.7l-4.4-12.8-4.4 12.8h-2.7z"/><path fill="#e6e6e6" d="m252.4 436.4c0-3.9 3.1-7 7.2-7 4.2 0 7.2 3.2 7.2 7s-3.1 7-7.3 7c-4.1 0-7.1-3.1-7.1-7zm11.2 0c0-2.3-1.7-4.3-4.2-4.3s-4.1 2-4.1 4.3 1.7 4.3 4.1 4.3c2.7.1 4.2-1.9 4.2-4.3z"/><path fill="#e6e6e6" d="m269 429.7h3.1v3c.8-2 2.4-3.4 4.8-3.3v3.2h-.2c-2.7 0-4.6 1.7-4.6 5.4v5.1h-3.1z"/><path fill="#e6e6e6" d="m278.6 424.5h3.1v11.1l5.6-6h3.8l-5.4 5.5 5.5 8h-3.5l-4.1-5.8-1.9 2v3.9h-3.1z"/><path fill="#e6e6e6" d="m291.3 436.4c0-3.9 3.1-7 7.2-7 4.2 0 7.2 3.2 7.2 7s-3.1 7-7.3 7c-4.1 0-7.1-3.1-7.1-7zm11.2 0c0-2.3-1.7-4.3-4.2-4.3s-4.1 2-4.1 4.3 1.7 4.3 4.1 4.3c2.6.1 4.2-1.9 4.2-4.3z"/><path fill="#e6e6e6" d="m307.7 438.2v-8.6h3.1v7.6c0 2.1 1.1 3.3 2.9 3.3s3-1.3 3-3.3v-7.6h3.1v13.4h-3.1v-2.1c-.8 1.3-2.1 2.3-4.2 2.3-3 .2-4.8-1.8-4.8-5z"/><path fill="#e6e6e6" d="m323.4 439.4v-7.1h-1.7v-2.6h1.7v-3.7h3.1v3.7h3.6v2.6h-3.6v6.6c0 1.2.6 1.7 1.7 1.7.7 0 1.3-.2 1.9-.5v2.5c-.8.5-1.7.7-2.8.7-2.3 0-3.9-.9-3.9-3.9z"/><path fill="#e6e6e6" d="m332.7 425.3h3.2v15h9.4v2.9h-12.5v-17.9z"/><path fill="#e6e6e6" d="m355.5 443.1v-1.7c-.9 1.1-2.3 2-4.4 2-2.6 0-4.8-1.4-4.8-4.2 0-3 2.3-4.4 5.4-4.4 1.7 0 2.6.2 3.7.5v-.2c0-1.9-1.2-2.9-3.3-2.9-1.5 0-2.6.3-3.9.8l-.8-2.5c1.5-.7 2.9-1.1 5.1-1.1 4 0 5.9 2.1 5.9 5.7v8zm.1-5.6c-.8-.3-1.9-.5-3.1-.5-2 0-3.1.8-3.1 2.1s1.1 2 2.6 2c2 0 3.5-1.1 3.5-2.9z"/><path fill="#e6e6e6" d="m364.4 441.1v2.1h-3.1v-18.7h3.1v7.4c1-1.4 2.4-2.5 4.5-2.5 3.2 0 6.3 2.5 6.3 7s-3.1 7-6.3 7c-2.1 0-3.5-1.1-4.5-2.3zm7.7-4.7c0-2.6-1.7-4.3-3.9-4.3-2.1 0-3.9 1.7-3.9 4.4 0 2.6 1.8 4.3 3.9 4.3 2.2 0 3.9-1.7 3.9-4.4z"/><path fill="#e6e6e6" d="m376.5 441.4 1.4-2.1c1.4 1.1 3 1.7 4.4 1.7s2.1-.5 2.1-1.5-1.3-1.4-2.8-1.8c-.1 0-.2-.1-.2-.1-2-.6-4.2-1.4-4.2-4s2.1-4.1 4.8-4.1c1.7 0 3.5.6 5 1.5l-1.2 2.2c-1.3-.8-2.6-1.3-3.8-1.3s-1.9.5-1.9 1.4 1.3 1.4 2.8 1.8c.1 0 .2.1.2.1 2 .6 4.2 1.5 4.2 4 0 2.9-2.2 4.2-5 4.2-2 0-4.1-.7-5.8-2z"/><path fill="#e6e6e6" d="m505.1 434.2c0-5.1 4.1-9.2 9.3-9.2s9.2 4.2 9.2 9.2-4.1 9.2-9.3 9.2-9.2-4.1-9.2-9.2zm17.4-.1c0-4.5-3.5-8.2-8.2-8.2s-8.2 3.7-8.2 8.3c0 4.5 3.5 8.2 8.2 8.2s8.2-3.7 8.2-8.3zm-13.1-.1c0-2.8 2.1-5.1 5.1-5.1 1.9 0 2.9.6 3.9 1.5l-1.4 1.7c-.8-.7-1.5-1.1-2.5-1.1-1.7 0-2.8 1.4-2.8 3.1s1.1 3 2.8 3c1.1 0 1.7-.5 2.5-1.1l1.4 1.4c-1.1 1.1-2.1 1.7-4 1.7-2.9.1-5-2.2-5-5.1z"/><path fill="#e6e6e6" d="m525 425.3h3.4l4.2 13.2 4.4-13.3h2.6l4.4 13.3 4.2-13.2h3.3l-6.2 18h-2.7l-4.4-12.8-4.4 12.8h-2.7z"/><path fill="#e6e6e6" d="m551.2 436.4c0-3.9 3.1-7 7.2-7 4.2 0 7.2 3.2 7.2 7s-3.1 7-7.3 7c-4.1 0-7.1-3.1-7.1-7zm11.2 0c0-2.3-1.7-4.3-4.2-4.3s-4.1 2-4.1 4.3 1.7 4.3 4.1 4.3c2.7.1 4.2-1.9 4.2-4.3z"/><path fill="#e6e6e6" d="m567.8 429.7h3.1v3c.8-2 2.4-3.4 4.8-3.3v3.2h-.2c-2.7 0-4.6 1.7-4.6 5.4v5.1h-3.1z"/><path fill="#e6e6e6" d="m577.5 424.5h3.1v11.1l5.6-6h3.8l-5.4 5.5 5.5 8h-3.5l-4.1-5.8-1.9 2v3.9h-3.1z"/><path fill="#e6e6e6" d="m590.1 436.4c0-3.9 3.1-7 7.2-7 4.2 0 7.2 3.2 7.2 7s-3.1 7-7.3 7c-4.1 0-7.1-3.1-7.1-7zm11.2 0c0-2.3-1.7-4.3-4.2-4.3s-4.1 2-4.1 4.3 1.7 4.3 4.1 4.3c2.6.1 4.2-1.9 4.2-4.3z"/><path fill="#e6e6e6" d="m606.5 438.2v-8.6h3.1v7.6c0 2.1 1.1 3.3 2.9 3.3s3-1.3 3-3.3v-7.6h3.1v13.4h-3.1v-2.1c-.8 1.3-2.1 2.3-4.2 2.3-3 .2-4.8-1.8-4.8-5z"/><path fill="#e6e6e6" d="m622.2 439.4v-7.1h-1.7v-2.6h1.7v-3.7h3.1v3.7h3.6v2.6h-3.6v6.6c0 1.2.6 1.7 1.7 1.7.7 0 1.3-.2 1.9-.5v2.5c-.8.5-1.7.7-2.8.7-2.3 0-3.9-.9-3.9-3.9z"/><path fill="#e6e6e6" d="m631.5 425.3h3.2v15h9.4v2.9h-12.5v-17.9z"/><path fill="#e6e6e6" d="m654.3 443.1v-1.7c-.9 1.1-2.3 2-4.4 2-2.6 0-4.8-1.4-4.8-4.2 0-3 2.3-4.4 5.4-4.4 1.7 0 2.6.2 3.7.5v-.2c0-1.9-1.2-2.9-3.3-2.9-1.5 0-2.6.3-3.9.8l-.8-2.5c1.5-.7 2.9-1.1 5.1-1.1 4 0 5.9 2.1 5.9 5.7v8zm.1-5.6c-.8-.3-1.9-.5-3.1-.5-2 0-3.1.8-3.1 2.1s1.1 2 2.6 2c2 0 3.5-1.1 3.5-2.9z"/><path fill="#e6e6e6" d="m663.3 441.1v2.1h-3.1v-18.7h3.1v7.4c1-1.4 2.4-2.5 4.5-2.5 3.2 0 6.3 2.5 6.3 7s-3.1 7-6.3 7c-2.2 0-3.6-1.1-4.5-2.3zm7.7-4.7c0-2.6-1.7-4.3-3.9-4.3s-3.9 1.7-3.9 4.4c0 2.6 1.8 4.3 3.9 4.3s3.9-1.7 3.9-4.4z"/><path fill="#e6e6e6" d="m675.3 441.4 1.4-2.1c1.4 1.1 3 1.7 4.4 1.7s2.1-.5 2.1-1.5-1.3-1.4-2.8-1.8c-.1 0-.2-.1-.2-.1-2-.6-4.2-1.4-4.2-4s2.1-4.1 4.8-4.1c1.7 0 3.5.6 5 1.5l-1.2 2.2c-1.3-.8-2.6-1.3-3.8-1.3s-1.9.5-1.9 1.4 1.3 1.4 2.8 1.8c.1 0 .2.1.2.1 2 .6 4.2 1.5 4.2 4 0 2.9-2.2 4.2-5 4.2-2 0-4.1-.7-5.8-2z"/></g>
</svg>
