<?xml version="1.0" encoding="utf-8"?>
<!-- Generator: Adobe Illustrator 23.0.1, SVG Export Plug-In . SVG Version: 6.00 Build 0)  -->
<svg version="1.2" baseProfile="tiny" id="Layer_1" xmlns="http://www.w3.org/2000/svg" xmlns:xlink="http://www.w3.org/1999/xlink"
	 x="0px" y="0px" viewBox="0 0 900 600" xml:space="preserve">
<g>
	<path d="M257.65,7.51l-0.1,0.1C257.82,7.66,257.72,7.64,257.65,7.51z"/>
	<path d="M258.35,78.85v0.1C258.4,78.93,258.42,78.96,258.35,78.85z"/>
	<path d="M209.39,82.16l0.1,0.1C209.49,82.1,209.6,82.06,209.39,82.16z"/>
	<path d="M307.92,239.69l0.1-0.1C307.88,239.56,307.97,239.44,307.92,239.69z"/>
	<path d="M229.46,46.88c0-0.01,0-0.04,0-0.04C229.35,46.95,229.3,46.99,229.46,46.88z"/>
	<path d="M409.37,570.31c-1.74-0.99-1.31-2.79-4.21-10.33c-10.36-26.89-9.33-20.62-9.33-23.88c-1.61-2.61-4.01-3.71-6.82-4.41
		c-4.43,1.72-3.96-1-8.83-1.71c-0.1-0.01-10.83-1.46-10.94-1.51c-2.32-1.1-19.26-2.27-30.2-3.71c-10.59-1.39-16.62-3.3-29.4-4.72
		c-8.58,0-3.87,0.29-11.04-1.61c-8.64-2.28-13.12-2.78-15.45-3.71c-1.62-3.06-1.72-7.62-4.11-10.64c-2.82-3.55,1.02-7.91,2.61-8.73
		c3.08-1.59,3.18-8.59-2.11-11.64c-1.71-0.99-3.41-2.01-5.62-1.91c2.81-5.93-2.55-6.25,0-29.4c2.26-20.46,6.88-52.23,2.81-72.14
		c-2.32-11.34,3.37-15.54,1.81-23.38c-0.6,0-0.81,0.3-0.9,0.6c-3.91,12.07-4.27,13.28-3.31,15.75c0.2,0.7,0.4,1.4,0.3,2.11
		c-0.35,5.61,1.61,15.55,1.1,19.37c-0.83,11.04,0.08,11.56,0.8,20.27c-1.65,1.35-1.33-0.48-4.31,29.9
		c-1.47,14.97-2.05,19.45-0.9,27.29c0.37,2.57,0.21,10.43,1.4,18.66c-2.71,3.01-5.92,3.51-10.64,1.71
		c-1.51-2.81-3.01-5.72-4.62-8.63c-1.02-1.52,1.33-3.89-5.22-10.44c-0.07-0.07-0.3-0.5-0.3-0.6c1.19-6.77-0.44-17.53-0.5-17.66
		c-2.54-8.22-0.17-11.62-2.61-26.09c-0.98-5.85-0.35-7.67-2.21-10.23c-1.32-1.83-4.94-10.41-4.11-17.96
		c0.59-5.41,1.01-18.78,2.91-28.3c0.53-2.67,0.29-5.27-0.3-22.28c0.7-0.5,0.6,0.6,1.3,0.3c0.3-0.4,0.2-1,0.1-1.51
		c-3.04-26.33-5.94-24.96-6.22-35.62c-0.26-9.67-3.61-32.93-2.81-35.32c3.84,0.81,32.09-2.63,49.87,0.5c0.8-0.3,1.81-0.3,2.31-1.4
		c-12.58-5.1-46.41,0.18-52.28-0.7c-1-2.51-0.7-5.02-0.6-7.83c3.31-0.8,6.72,0,9.83-1.61c-3.55,0.66-11.41-1.72-12.42,1.45
		c-0.31,0,0.05,7.94-0.52,11.39c-3.98-0.83-13.5,0.86-20.57,0.7c-4.08-0.09-3.81-0.42-3.81-2.01c0.35-5.95-12.87-20.28-5.22-36.92
		c4.27-9.29,11.33-19.68,15.25-24.38c6.65-7.99,2.53-5.47,15.75-8.53c11.14-2.57,13.43-3.36,21.67-3.81c6.53-0.36,8.37-1.35,15.05,0
		c9.26,1.88,4.73-1.98,13.24,16.46c6.59,14.27,4.46,13.47,5.52,17.46c1.39,5.21,1.13,14.33,1.1,14.45c-1.41,6.02,0.37,13.9-1,21.67
		c-0.51,2.89,1.22,2.5-1.81,4.52c-1.85,1.06-3.34,1.56-4.01,2.91c-0.46,1.14-0.76,3.05,0.2,4.01c1.6,1.2,3.5-0.72,5.22-0.2
		c0.14-0.41,0.25-0.21,0.17-0.04c-0.26,0.26-0.03,0.63-0.58,1.33c-0.39,0.51-1.1,0.9-1,1.71c0.63,1.05,1.86-1.65,4.21-3.11
		c3.52-2.19,5.83-14.43,1.81-6.72c-3.65,6.99-15.16,6.47-5.92,2.11c4.03-1.9,3.38-4.56,4.62-6.32c3.58-5.08-0.16-8.96,2.11-17.26
		c2.87-10.5,0.5-6.84,0.5-12.64c0.5,0.2,1,0.4,1.4,0.6c0.3-1.91,0.2-2.01-1.1-4.82c-0.7,0.2-0.2,1.1-1,1.3
		c-2.7-12.89-6.3-8.16-21.17-57.9c-1.13-3.79-1.98-2.24-1.71-6.62c0.9-0.5,1.71,0.4,2.61,0c-1.23-2.46-1.75-1.43-2.61-1.61
		c-1.36-2.72-0.57-12.32-6.12-24.08c-1.74-3.69-1.46-5.97-4.11-12.74c-0.86-2.2-0.75-2.38-3.01-18.56c-0.1-0.7-0.2-1.4-1.4-1.61
		c1.3,18.21,2.39,18.44-3.31,12.74c0.9,2.81,1.3,3.31,4.92,6.22c12.6,34.64,12.73,13.63-24.58,19.26
		c-6.34,0.96-0.82-1.03-10.94,2.91c-5.22-10.44-9.63-21.07-12.94-32.31c0.4-0.2,0.9-0.4,1.51-0.7c2.4-3.49,3.36-17.24,3.71-21.07
		c0.87-9.34,0.31-9.11,8.13-15.95c1.91,2.71,4.54,4.49,6.82,6.72c3.51,3.44,7.64,2.22,11.54-0.8
		c14.69-11.38,15.64-11.12,18.26-13.75c1.35,0.45,3.69,2.02,2.31,2.71c-10.22,3.75-18.67,16.77-17.06,31.41
		c0.53,4.85,2.99,9.68,3.51,9.73c0-3.09-2.58-4.49-1.61-15.35c0.9-10.11,7.1-21.91,16.96-24.48c0.8-0.21,1.4-0.9,2.11-1.1
		c6.25,1.09,12.04,1.26,17.36,8.43c5.2,7.02,2.11,24.97,1.51,34.22c-0.66,10.12,0.5,7.42,0.5,12.34c0,0.6-0.09,1.2,0.1,1.81
		c1.55,5.07-0.04,19.66,5.92,28.6c7.83,9.99,4.42,37.45,14.35,67.23c1.29,3.2,1.13-0.12,0.6-2.71c-5.42-26.4-4.4-17.57-5.52-28.2
		c-1.63-15.57-2.34-29.1-7.83-37.13c-1.72-2.52-1.3-3.65-1.3-16.25c0.49-0.98,5-2.48,8.33-11.34c4.76-12.64-3.41-18.46-5.42-21.47
		c-5.24-9.17-7.22-12.01-7.12-17.86c0.21-12.06-9.99-18.84-19.37-19.47c-7.26,0-7.13-4.25-6.72-11.54c0-0.7,0.29-1.41,0.5-2.11
		c1.34-4.49,6.26-1.6,13.95-2.81c1.81-1.3,2.5-3.21,2.11-5.12c-0.51-2.49,0.87-9.83,0.9-9.93c-0.2-1.71-1.51-2.91-1.3-4.52
		c0.7-1,2.51-0.5,2.81-2.41c-0.8-3.61-4.41-5.92-5.82-9.63c0.5-0.5,0.9-0.9,1.4-1.3c-0.3-0.3-0.6-0.7-1.1-1.2
		c0.05-0.63,1.42-5.04,0.2-7.02c-1.11-1.8-2.69-6.9-2.71-6.92c-1.61-3.41-3.7-6.53-5.82-9.73c-0.8-1.21-1.92-2.08-3.31-2.51
		c-4.39-1.36-3-3.04-12.94-4.72c-27.76-4.69-26.3,7.01-33.41-0.1c-6.54-6.54-19.64,3.2-20.37,8.53c-1.36,9.98-3.61,16.4,0.7,24.68
		c1.92,3.68,5.29,12.04,7.12,19.57c1.62,6.66-0.48,13.57-3.21,23.68c-0.72,4.31,0.64-0.45,3.11-1.61c0.8,1.91,0,3.21-1.51,3.91
		c-2.81,1.31-4.92,3.61-8.03,4.31c1.13,1.5,8.95-2.8,10.54-3.81c7.9-5.04,11.25-19.79,12.14-27.49c1.62-13.96-2.18-17.82-1.4-29.9
		c1.65,0,1.01,1.37,2.11-8.53c1.21-1.39,6.04,0.4,7.02-4.92c0-3.12,7.11-3.13,14.05-3.71c4.95-0.42,7.64-1.25,11.24,0.1
		c1.12,0.42,2.04,0.77,1.51-0.3c0-1.04,8.27-2.03,13.95,4.62c2.65,3.56-4.08-3.34-9.35-3.69c0.74,1.13,3.19,1.53,3.93,3.19
		c-1.2,0.8-2.21-0.9-3.61-0.1c2.11,1.1,4.12,2.09,6.12,3.01c2.12,0.98,3.71,3.01,6.12,3.11c3.54,5.99,2.68,5.66,3.61,7.53
		c1.3,2.01,1.61,4.21,1.4,6.52c-0.7,1.4-1.51,2.91-2.31,4.41c1.12,3.72,0.84,3.03,2.11,2.71c7.86,7.86,4.7,7.01,2.51,8.33
		c0.4,2.11,0.9,4.11,1.3,6.02c-0.6,1.1-2.01,0.5-2.41,1.71c0.3,1.2,1.91,0.6,2.51,1.51c0.2,1.1-1,1.51-1.3,2.41
		c-0.79,3.16,2.05,4.73-0.7,7.73c-1.3,0.8-2.81,0.9-4.11,0.7c-2.11-0.31-4.21,0.2-6.32,0.1c-2.21-0.1-3.61,0.91-4.41,2.91
		c-2.26,5.6-1.51,6.81-1.51,9.53c-0.78,0.59-1.57-0.44-2.26-0.02c0.48,0.77,0.97,1.56,1.45,2.33c-2.25,1.69-8.71,4.69-13.45,10.23
		c-2.74,3.21-4.52,3.31-8.93,4.82c-5.99,2.04-11.99-4.92-10.74-7.43c0.2-0.6,0-1.2-0.2-1.91c4.41-9.09,3.61-11.96,6.62-14.05
		c1.01-6.07-1.23-11.42-0.4-14.05c0.4-1.26,0.12-2.7,0.1-4.06c0.6,0.23,0.72,0.78,1.1,1.25c1.67,1.67,1.25,1.02,1.75,0.21
		c0.49,0.1,1.08,0.29,1.67,0.39c0.5-0.5-0.2-0.7-0.4-1c-0.47-0.7-3.39-3.14-3.41-5.88c0,0-0.19-0.13-0.2-0.14
		c1.36,0.34,5.14,7.98,8.23,6.12c-1.1-1.1-3.21-1.51-2.21-3.81c1.74,0.29,3.56,3.21,5.2,2.74c-0.04-0.64-0.6-0.86-1.08-1.23
		c-8.36-6.53-7.53-7.8-10.16-7.91c0.96,2.08,3.92,2.75,4.14,6.5c-1.88-0.99-3.84-4.45-4.61-3.81c-0.1,0.1-0.02-0.04,0.39,0.06
		c0,0.42,0,0.85,0,1.28c-0.33-0.32-0.4-0.76-0.4-1.2c0.04,0.02,0.06,0.05,0.1,0.07c-0.1-0.1-0.1-0.16-0.1-0.08c0,0,0,0,0,0
		c-1.25-0.62-1.02-3.14-3.01-4.54c-0.3,1.1,0.7,1.91,0.7,2.91c-0.47,0.97-1.07-1.19-1.19,1.43c-7.99-6.66-6.69-4.22-7.52-12.55
		c0-0.56,1.08,1.12,1.08,0.6c0.71-0.24-1.21-3.07-0.1-4.74c-0.6-1.1-1.4-1.91-1.51-3.81c-2.58,10.34,3.13,4.11-3.21,43.45
		c-0.6,3.74-4.06,7.06-7.02,9.43c-5.18,4.15,3.7-0.99,6.02-3.81c2.21-2.68,5.35-9.03,4.31-12.04c-0.81-2.35,1-8.34,1-13.95
		c0-3.81,0.03-4.86,1.3-4.01c3.15,2.88,7.24,7.57,7.02,11.84c-0.33,6.32,1.03,5.01,0.7,13.95c-1.28,1.6-1.89,2.51-4.41,9.83
		c-2.58,7.5-8.27,10.71-9.63,11.84c-20.8,17.21-13.65,9.11-18.06,29.4c-0.59,2.71-1.91,4.82-4.11,6.32
		c-2.91-0.58-1.74-6.55-0.1-9.23c0.5-0.82,2.21-5.18,0.7-7.02c-0.86-1.28,0.55-3.15-5.22-5.32c-1.15-3.21,0.49-104.57-0.9-106.36
		c-0.9-0.3-1.3,0.1-1.4,0.7c-0.8,9.58,0.12,105.48-1,107.16c-6.44-0.34-5.52-2.21-5.52-5.62c0-107.33,0.22-101.07-0.4-101.94
		c-2.48-1.24-1.71-5.1-1.71,104.65c-0.94,1.07-1.92-1.29-3.91,1.61c-0.81,1.18-0.35,3.06,0.1,4.41c-0.52,1.22-0.67,1.38-1.1,3.11
		c1.91,7.01,0.99,4.01,0.7,6.92c0.5,2.31,2.41,3.31,3.71,4.41c0.58,0.87,0.67,387.07,0.1,388.21c-0.45,0.72-0.1,1.02-18.46,2.91
		c-6.88,0.71-11.47,21.11-18.26,32.21c-1.64,2.68-0.13,3.6-2.21,5.02c-1.81,1.23-1.18,6.72,3.82,8.33c10.94,3.52,24.5,6,39.33,9.13
		c4.91,1.04,1.62-0.94,8.43-1.91c33.28-4.73,17.73-1.97,36.02-4.31c0.4-0.05,6.44-1.42,10.13-1.51c9.98-0.22,4.82-2.56,9.93-1.1
		c29.53,8.4,24.45,2.69,30.7,5.82c1,0.7,0.4,1.2,0.6,1.51c0.36,1.07,0.76,0.38,0.2,1.51c-2.67,2.23-6.59,14.08-6.72,15.15
		c-0.1,0.8-1.3,1.1-1.1,2.11c1.51,2.52,56.11,12.55,65.92,8.63c11.03-4.41,66.32-16.28,72.54-21.47c0.3-1.81,0.79-3.81,0-5.72
		C409.97,571.41,409.77,570.61,409.37,570.31z M293.47,283.84c0.2,0.9,0,1.1-0.9,0.8C292.87,284.34,293.07,284.14,293.47,283.84z
		 M293.66,244.41c0.1,0.4,0.1,0.6,0.2,0.9c0.02,0.04,0.46,0.46,0.54,0.6c0.2,0.34-0.49,2,1.46,4.62c-2.98,10.72-2.01,6.7-2.01-5.22
		C293.66,245.11,293.46,244.91,293.66,244.41z M293.47,266.78c0.45,1.8,0.76,3.44,0,5.32C293.17,270.1,293.27,268.49,293.47,266.78z
		 M298.67,127.32c4.54,7.62,1.2,13.96,1.1,13.96c-3.41,8.2-2.95,5.86-8.51,11.42c-0.72,0.72,0.01,1.59-0.9,2.21
		c-1.29-9.67,0.13-1.01-1.81-17.66c0-3-1.24-0.19,2.4-5.2c2.22-3.48,1.91-8.34,1.91-12.25
		C294.63,121.82,297.26,124.95,298.67,127.32z M288.96,116.38c-0.07-3.75,5,6.77-0.5,15.85
		C287.75,126.91,289.06,121.7,288.96,116.38z M205.78,74.64c0.1-0.4-0.1-1,0.5-1.61C206.28,73.73,206.38,74.24,205.78,74.64z
		 M221.72,12.14c-2.58-0.32-5.42-0.39-5.42,2.21c-1.62,11.33,1.51,28.83,1.51,34.32c0,3.1-1.34,16.17-3.18,17.14
		c-0.21,0.21-1.01-0.8-1.51-0.83c-0.39,0-0.53,0.21-0.53,0.35c2.67,4.16-4.47,13.75-6.12,13.04c-0.72-0.9,0.02-1.92,1.51-6.02
		c3.73-10.3,2.64-15,2.02-11.15c-0.2,2.61-1.13,5.01-1.71,7.63c-0.15,0.7-0.31,1.3-1.1,1.3c2.24-21.63,4.07-17.59-2.01-35.82
		c-0.1-0.4-0.1-1.3-1-1.51c0.94,2.63,5.65,19.33,3.91,21.07c-1.13-1.13-2.01-7.7-4.52-11.94c-7.49-12.68-4.85-31.25-1.51-33.61
		c2.11-1.49,3.91-3.51,6.32-4.52c1.18-1.72,4.31-1.8,4.31-1.7c0.24,0.4-0.55,1.19,0.2,1.19c5.99,0,4.19-0.35,8.02,1.82
		c1.56,0.88,2.31,2.3,2.31,3.91c-0.71-0.41-1.35-0.72-2.11-1.1C222.28,10.41,221.72,11.93,221.72,12.14z M226.26,8.31
		c-3.79-2.53,2.72-2.93,4.5-3.38c3.31-0.83,6.86-1.34,12.97,0.47C238.13,6.06,231.47,5.71,226.26,8.31z M247.32,4.6
		c1.91-0.7,3.51,0.5,5.12,0.8C250.73,5.5,249.02,5.4,247.32,4.6z M262.71,11.11c-0.1-0.14-0.47-0.17,1.18-0.66
		c0.13,1.06,0.97,1.2,1.43,2C264.31,12.45,263.58,12.33,262.71,11.11z M232.15,53.44c0.46,0.28,0.59,0.69,0.6,1.2
		C232.07,54.43,232.13,53.89,232.15,53.44z M287.51,518.46c0.8,0.2-0.31,0.66-0.96,0.17C286.85,518.33,287.16,518.32,287.51,518.46z
		 M283.88,517.74c0.17-0.03,1.71,0.24,0.28,0.34C283.65,518.12,283.28,517.84,283.88,517.74z M244.81,419.8
		c4.38,43.77,7.91,51.52,2.51,53.68c-1.62,2.43-5.33,7.86-5.42,8.03c-1.25-1.1-2.36-2.6-3.63-3.24c-2.29-1.15-2.36,0.39-3.39-0.57
		c-1.14-2.65-1.35-2.54-1.71-5.12c-5.3-38.95-3.41-24.57,2.61-70.94c0.09-0.7,0.19-1.4,0.1-2.11c-0.44-3.31,0.06-6.62,0.1-9.93
		c0.16-12.11-0.42-14.8,2.61-18.96c3.33-4.59,2.45-4.4,1.81-6.32c0.84-0.86,1.43-1.94,2.01-3.01
		C248.05,371.47,231.67,404.47,244.81,419.8z M225.24,510.09c1.13,1.7,13.91,11.59,16.15,14.55c-4.26-1.99-9.89-2.33-14.65-9.23
		c-0.59-0.85-1.34-1.65-2.06-2.47c-4.1-4.66,0.35-2.6-11.48-11.08c-6.73-4.83-13.8-5.27-12.14-2.51c6.23,0,12.44,3.96,12.44,4.21
		c0,1.42,1.99,1.78,4.06,3.64c6.92,6.23,6.87,16.57,8.28,9.51c10.44,11.49,13.4,5.2,20.57,14.05c-1.81-0.7-3.41-0.3-4.62-1.61
		c-0.3-0.4-1-0.49-1.61-0.6c-12.24-2.21-11.49-5.53-12.64-3.61c4.95,4.96,17.91,4.7,10.59,4.81c-13.01,0.18-12.56,2.97-18.61-1.49
		c-1.54-0.98-1.59-3.6-1.81-4.82c0-5.59-4.31-6.45-4.31-8.13c0.6-0.9,1.91-0.1,2.51-1.1c-0.2-0.25-2.08-2.28-2.12-2.31
		c-11.14-9.79-9.78-8.73-10.94-8.73c1,3.37,2.21,6.47,4.41,9.23c-2.36,1.17-6.04-4.98-7.73-6.73c-1.33-1.38-2.21-3.01-2.31-5.12
		c1.4-1.81,2.71-3.81,3.31-6.12c2.55-9.87,7.13-12.81,7.83-18.96c0.38-3.36,3.51-2.03,6.52-0.9c1.63,2.45,3.24,5.1,5.73,7.03
		c6.08,4.74,7.97,11,14.14,5.61c3.78-3.31,0.39-6.45,0.9-7.22c1.11-1.47,5.82,3.47,3.41,7.32c-7.19,3.72-5.35,8.62-15.35,15.85
		c-0.41,0.29-0.8,0.5-1.1,1.2C223.23,506.28,223.43,508.49,225.24,510.09z M205.37,506.59c3.43,2.51,7.35,6.23,9.26,6.41
		c-0.12,0.19-0.48,0.56-0.63,0.71C209.59,513.41,207.19,510.69,205.37,506.59z M211.49,282.47c14.31,0.64,14.94-0.63,22.57-0.63
		c1.47,2.7,3.36,37.52,5.32,45.05c1.75,6.72,0.82,7.68,1.61,8.73c1.45,1.94,1.45,9.91,1.61,11.44c0.55,5.31-4.95,8.32-4.62,9.83
		c1.08,0,1.91-1.01,3.22-0.7c0.57,7.74-5.19,10.08-4.92,12.84c0.24,2.43-0.9,1.54-1.71,5.62c-1.27,6.43-2.34,16.65-1.61,22.98
		c0.52,4.46-1.41,7.48-2.31,15.75c0,0.59-1.29,0.96-2.01,1.2c-1.41,2.26-1.85,5.55-1.39,5.29c2.95-1.71,1.76-4.4,4.61-5.59
		c-0.37,1.47-0.9,6.92-1.91,10.84c-1.93,7.5-3.11,20.92-0.8,37.02c1.07,7.46-0.13,4,5.52,22.58c-4.52,4.9-5.94,1.34-12.64-3.81
		c-2.29-2.08-4.31-4.26-4.82-7.32c-0.08-0.16-0.22-0.07,0.4-0.25c1.51-0.43,0.81-2.42,0.3-5.97c-0.1-0.68-0.03-1.23-0.6-1.91
		c-0.76,4.44,0.25,8.43-0.42,7.73c-0.84-0.88-2.04-1.3-3.09-2.01c-0.2-1.4,0.07-2.71,0.2-4.01c0.96-9.83-1.17-11.04-2.31-19.57
		c-3.19-23.97-13.93-44.44-3.61-76.46c7.44-23.08,4.41-24.58,5.72-27.19c1.61-0.64,1.72,2.02-1.2-21.07
		C212.12,319.08,207.71,282.3,211.49,282.47z M239.19,159.02c1.36,1.87,1.92,4.42,3.11,7.02c3.84,8.38,2.8,10.83,3.5,14
		c0,1.03,1.2-4.89-0.79-13.19c-1.88-7.81-6.31-8.7,1.4-8.13c18.17,1.35,17.73,1.06,21.87,2.51c2.37,7.99,0.68,23.09,7.02,32.01
		c0.9,3.61,1.91,6.92,3.11,10.94c-8.04-0.7-22.13-1.67-30.7,0.1c-16.94,3.49-19.81,5.47-21.07,4.21c2.62-5.67,6.52-10.94,5.42-15.85
		c-0.11-0.5,0.2-1.2,0.2-1.71c0-13.74-6.91-25.25-7.73-28.5C231.16,159.42,234.87,158.02,239.19,159.02z M225.74,170.76
		c2.02,4.31,2.68,9.04,3.71,13.65c1.73,7.76,0.52,16.75-4.72,23.08c-11.62,14.05-9.28,11.83-15.05,19.26
		c-14.91,19.2-11.79,38.06-3.21,47.96c0.51,0.59,1.2,1.2,1.3,2.21c-0.4,2.31-0.79,4.71,0.1,7.12c0.68,1.84-0.68,7.99-0.5,14.55
		c0.86,31.56,10.77,38.16-2.31,73.75c-4.03,10.98-5.59,34.93-4.01,37.02c2.06,3.18,0.16,4.26,3.91,16.15
		c0.84,2.67,5.69,19.31,4.41,22.88c1.71,4.21,2.08,8.53,2.81,12.74c0.58,3.32-0.2,6.52-0.9,9.63c-1.35,0.68-4.1-0.29-5.02,4.01
		c-0.77,3.62-0.36,4.48-1.71,6.42c-6.53,9.42-4.87,13.32-8.43,17.46c-1.53,1.78-1.61,3.91-0.2,5.92c7.92,11.32,11,6.66-0.8,9.63
		c-1.81,0.46-3.61,0.62-5.32-0.1c0-110.17-0.1-204.08-0.1-307.54c0-41.82,0.93-33.43,0.8-42.24c-0.03-2.09,5.97-1.13,11.24-5.92
		C219.35,142.43,208.05,133.09,225.74,170.76z M177.38,118.08c-0.71-2.13-1.93-0.96,0.3-4.31c0.1-1.2-1-2.01-0.6-3.21
		c0.19-0.75,0.3-1.5,1.3-1.84c0.38-0.13,4.61,1.26,6.22,2.24c4.61,2.79,5.61-0.62,10.02-0.02c-0.44,6.04,0.76,6.3-1.09,9.15
		c-4.18,6.42-2.49,6.96-0.2,11.54c-1.82,2.68-3.11,5.54-3.45,8.67c-0.22,1.98,3.7-6.36,7.06-9.47c6.5-6.01,4.98-20.53,9.53-24.38
		c3.24-3.12,6.88-7.16,9.53-7.83c-2.5,11.01-3.22,12.28-2.51,15.25c1.09,4.56-0.97,10.44-2.31,11.34c-1.11-0.55-0.28-3.05-1.91-2.51
		c-1.3,5.2,4.57,15.03,3.41,16.96c-0.4,0.8,0.5,1.51,0.4,2.41c-2.77,3.32-10.63,15.07-13.85,16.56c-5.69,2.63-7.66,4.46-9.33,0.7
		c-0.59-1.77-5.95-5.41-6.32-13.34c-0.3-6.55-0.89-7.22-0.7-8.53c0.35-2.42-0.25-4.72-0.6-7.02c-0.26-1.71-1.11-3.1-2.51-4.11
		C176.02,123.6,177.08,123.11,177.38,118.08z M188.02,161.13c0,377.78-0.31,353.1-1.3,354.09c-1.4,0-3.01,0.7-4.92,0.7
		c-0.43-2.5-0.57-361.61,0.1-362.62C183.9,155.81,185.91,158.42,188.02,161.13z M208.48,567.4c-5.72,0.71-11.53,1.03-17.26,2.11
		c-1.1,0.21-2.21,0.8-3.61,0.5c0-13.07-3.38-18.26-0.9-18.26c3.61,0.7,7.32,0.72,10.84,1.71c7.13,1.99,14.83,2.03,18.06,3.61
		c1.81,0.89,3.71,1.43,5.72,1.91C249.27,565.52,249.13,562.36,208.48,567.4z M392.4,581.54c-2.19,1.3-46.21,11.09-51.17,13.34
		c-14.23,6.48-50.19-2.08-66.02-5.42c0-0.4-0.1-0.7,0-0.9c6.28-15.15,4.24-12.67,5.92-14.13c0.71-0.62,0.76-1.57,1.1-2.43
		c1.91-4.74-4.68-3.21-25.08-8.43c-11.45-2.93-15.32-4.47-19.37-4.01c-1.14,0.13-8.61-2.15-14.15-3.21
		c-1.7-0.32-3.01-1.32-4.62-1.61c-6.03-1.08-23.14-5.32-23.48-5.32c-16.61-0.98-12.94-5.06-8.93,20.37
		c-0.5,0.42-1.11,1.02-1.71,1.51c-9.23-2.81-11.93-2.76-29.8-6.82c-10.14-2.3-12.7-2.68-13.34-6.52
		c0.03-0.21,17.12-36.49,17.18-36.59c0.46-0.88,1.1-1.54,2.09-1.54c3.28,0,1.67,1.41,6.22,2.21c0.53,0.09,10.83,1.85,12.14,1.51
		c-3.75-2.01-7.73-2.06-11.94-3.14c-3.63-0.93-3.14-0.01,12.64-2.08c3.81-0.5,7.63-1.91,11.54-1.61c0.52,0,14.71-3.38,16.76-2.51
		c4.19,1.26,2.42,0.96,5.22,3.41c4.67,4.67,1.93,7.08,4.62,10.44c5.92,7.4,20.94,1.21,32.61,4.21c1.26,0.32,4.02,0.22,4.92-0.54
		c1.28-1.09-0.08-2.16-0.8-1.87c-1.59,0.45-2.34,0.01-7.02-1.81c-0.63-0.25-1.15-0.54-1.4-1.2c4.65-0.66,6.71-0.25,8.33-2.81
		c-3.11-0.7-5.92,0.7-8.83-0.2c-2.07-1.03-4.41-4.04-7.53-6.12c-3.38-2.25-12.21-9.75-11.46-14.01c0.12-0.67,5.02-5.37,7.34-8.41
		c2.25-2.95,3.19-6.76,7.32-7.08c2.83-3.27,5.43-12.12,7.12-13.24c0.62,0.93,2.41,0.2,3.21,1.81c1.61,2.69-1.05-0.81,6.72,15.55
		c2.78,5.84,9.59,2.55,15.15,1.29c1.45-0.33-0.34-4.7,0.4-7.21c0.9,0.3,1.81,0.49,2.51,0.9c0.81,0.49,1.61-0.5,2.51,0.3
		c0.6,0.9,1.2,2.11,1.1,3.61c-1.71,2.57-4.66,7.89-3.91,11.64c0.38,1.93-0.01-1.24,4.01,14.35c1.14,4.41,0.29,3.22,10.03,3.91
		c1.3,3.41,1.71,7.02,3.31,10.13c-0.98,2.28-2.87,3.09-5.12,3.91c-0.8-0.9-1.9-1.39-3.11-1.1c-1.97,0.46-17.27-1.11-17.66-1.4
		c-1.61-1.2-3.51-1.4-5.32-2.01c-5.05-1.68-5.35-4.41-7.42-4.41c-2.1,2.1,4.77,6.46,9.43,7.12c3.41,0.49,6.61,1.66,10.03,2.21
		c8.58,1.37,8.91,0.75,11.14,1.81c1.12,0.53,10.18-1.73,9.43-7.02c-0.11-0.51-0.44-5.84-3.2-10.55c-0.32-0.54,0.17-0.31-2.12-0.69
		c5.85-0.45,4.32,2.47,14.85,2.61c7.59,0.1,41.27,7.92,52.28,7.12c1.98-0.14,13.69,2.72,20.97,3.41c2.11,0.2,4.21,0.6,6.12,1.51
		c-0.1,0.63-2.2,1.1-0.6,0.95c12.9-1.18,6.98-0.21,16.56,20.22c3.01,6.42,5.62,13.04,8.33,19.47
		C407.59,578.86,399.85,577.12,392.4,581.54z"/>
	<path d="M233.67,49.85l-0.1-0.1C233.57,49.8,233.62,49.83,233.67,49.85z"/>
	<path d="M759.14,563.56c-1.95-1.37-0.97-3.38-5.82-14.75c-0.61-1.43-7.62-17.91-7.42-19.06c0.11-0.34-1.55-3-6.12-4.41
		c-1.73-0.54-3.15,1.59-6.02-0.7c-3.07-2.46-7.39-0.79-17.56-3.71c-0.49-0.14-28.32-2.41-34.92-4.01
		c-3.97-0.96-22.01-4.42-27.29-3.41c-2.91-1.61-6.22-1.71-9.33-2.61c-1.91-3.81-4.82-5.82-9.13-5.62c-2.01,0.6-3.61,2.31-5.62,2.61
		c-19.02-2.17-13.81-0.62-17.76-1.61c-1.61-0.4-3.31-0.5-4.72,0c-1.4-0.6-2.01-1.91-2.81-2.71c-5.48-2.74-7.38,8.8-0.3-37.23
		c1.46-9.47,5.6-20.48,6.56-42.27c-0.8,7.43-4.61,23.4-7.77,42.17c-9.26,55.06-3.29,37.76-1.61,55.69
		c-2.01,3.11-5.12,4.01-8.03,4.92c-1.84-0.55-6.61-2.8-7.34-3.73c-1.06-1.35-0.65-2.34-2.02-3.71c-0.8-0.66-2.13-0.02-2.98-1.08
		c0.4-2.11,0.59-4.41,0.4-6.62c-0.53-6.22-0.17-12.54-0.3-18.86c-0.31-15.25-1-15.83-0.9-22.68c0.1-7.03-1.22-10.41-1.81-15.55
		c-0.82-7.19-3.01-10.39-3.01-12.74c0-26.17,13.55-29.74,7.93-68.03c-0.34-2.29,0.55,2.59,0-18.46c-0.35-13.45-3.1-17.12-3.51-20.17
		c-0.33-2.45-3.54-23.02-2.51-25.59c3.34,1.03,35.97-2.52,50.07,0.7c1.3-0.5,1.3-0.5,2.31-1.71c-24.65-4.49-47.88,0.83-52.58-0.4
		c-0.62-3.73-0.79-5.13,0.1-7.93c8.5-0.37,8.52-0.47,9.03-1.81c-1.71,1-3.59,0.49-5.02,0.3c-9.96-1.31-3.1,5.22-13.04-6.72
		c-4.28-5.14-2.3-5.59-3.17-5.74c-2.38-0.42-1.74,5.89,6.89,12.36c-5.08,3.48-4.31,2.71-3.81,3.21c-2.04,2.04-3.24,0.84-4.41,2.51
		c2.31,0.6,4.22-0.35,6.12-0.8c1.88-0.44,3.23-2.54,5.22-3.61c-1.1,4.01-0.3,7.63-0.8,11.34c-8.33-0.1-16.36,1.71-24.68,0.7
		c0.48-1.63,0.23-3,0-4.52c-4.38-7.78-8.99-20.58-6.62-29.2c2.77-10.07,14.11-26.07,20.67-33.71c1.63-1.9-0.09-1.42,16.96-5.22
		c18.09-4.03,16.25-1.72,24.88-3.41c0.54,0,8.65,0.96,12.94,2.11c2.33,0.62,2.48,6.33,7.93,16.46c8.02,14.93,5.55,32.31,5.62,36.62
		c0.24,15.39-1.57,21.86-0.3,17.46c1.07-3.72,2.09-3.39,2.22-5.91c-0.04,0.1-0.06,0.19-0.11,0.29c0.09-1.09-0.39-2.27,0.12-3.52
		c0-0.67-0.04-1.33-0.12-2c-0.73-6.22,2.12-10.97,2.08-15.13c-0.42,2.01-0.71,4.03-2.08,6.3c0-4.52,0-8.43,0-12.34
		c0-0.39,0.13-0.44,0.29-0.27c0,0.24,0.03,0.12,0.01,0.01c0.39,0.43,0.97,2.12,0.39,3.27c2.66,4.24,0.6,1.32,0.6-1.71
		c0-0.63,0.92-0.5,1.61-0.5c-0.5-2.51-0.5-2.51-1.61-4.11c-1.33,3.31-0.21-1.78-6.72-14.65c-7.49-14.81-6.29-17.23-14.45-38.53
		c-0.92-2.4-0.95-5.08-2.51-7.32c-0.31-0.44-1.51-12.28-1.86-14.4c1.53,24.49,3.55,17.55,8.38,35.47c0.34,1.69,0,2-2.05,1.87
		c-7.74-0.5-20.57-1.16-28.15,0.45c-18.87,4.01-22.02,6.22-20.37,3.01c4.08-7.94,5.72-11.09,4.82-14.55
		c-0.26-0.99,3.43-4.8-7.63-30.6c6.54-2.32,9.64-4.33,15.05-3.21c6.88,14.68,5.27,14.45,6.82,20.67c0.7-3.11-0.19-6.12-0.4-9.13
		c-0.28-4.01-1.91-7.73-3.81-11.34c4.88-1.11,21.91,0.3,26.2,2.18c-0.84-3.04-2.03-5.97-3.32-8.9c-0.53-1.19-1.11-2.31-1.4-3.61
		c-2.27-9.93-3.19-7.46-4.21-14.95c-2.05-15.06-1.86-14.45-3.01-14.45c-0.22,1.14,1.07,12.93,0.6,15.75c-1.65,0-2.66-2.49-4.12-3.16
		c-0.19,1.61,3.26,4.76,4.94,5.97c11.99,34.64,14.93,13.15-27.59,19.57c-12.06,1.82-4.87,7.21-12.24-6.92
		c-3.18-6.09-8.53-22.14-8.53-22.88c2.06-0.82,3.47,0.79,5.62-25.69c0.53-6.46,3.32-7.64,5.22-9.53c3.05-3.05,2.21-2.78,3.28-1.47
		c1.83,2.24,4.13,3.86,6.05,5.79c6.04,6.07,13.31-2.44,29.9-14.65c1.15,0.73,2.32,1.14,3.01,2.51c-9,3.14-14.86,11.41-17.16,20.57
		c-3.82,15.22,6.09,27.07,2.41,18.86c-4.73-12.21,1.89-34.32,16.15-37.93c0.8-0.2,1.2-1.19,2.21-1c3.97,0.73,3.61,0.42,5.54,0.85
		c24.93,5.63,8.22,35.95,14.33,58.75c0.08,0.31,0.2,6.22,0.2,6.32c1.06,19.65,7.76,18.16,9.33,30.8
		c0.66,5.29,6.29,53.07,11.44,57.79c1.12,0.22,1.02,0.15,1.51,0.31c0-6.82-5.48-23.97-6.12-33.51c-0.76-11.27-2.19-28.88-8.23-37.43
		c-1.15-1.63-0.86-1.62-1.2-17.76c0.89-1.79,5.83-3.46,9.03-13.04c4.75-10.45-5.19-18.84-6.92-22.07
		c-5.39-10.03-6.28-10.19-6.12-14.05c0.15-3.65-1.38-8.95-3.11-10.74c-9.92-10.24-15.27-6.38-21.37-9.43
		c-2.42-3.02-2.11-8.03-1.3-11.84c0.7-3.32,3.77-3.43,7.32-3.11c11.3,1.01,8.37-3.12,8.82-10.59c0.03,0.12,0.12,0.26,0.08-0.04
		c0.01-0.01,0.01-0.01,0.02-0.01c-0.11-0.11-0.12-0.05-0.11,0.03c-0.91,0.14-1.3,0.8-1.59,1.57c-0.39,2.93,1.47,3.33,0.1,6.52
		c-0.99,1.98-4.57,1.73-5.12,1.61c-2.12-0.46-4.21,0.16-6.32,0c-3.89-0.29-4.65,3.94-5.92,9.03c0,1,0.7,2.11,0.3,3.31
		c-0.67,0.57-1.16-0.32-1.83-0.21c-0.1,0.34,0.03,0.31-0.28,0.21l0.2,0.1h0.02c-0.05,0.84,0.82,1.32,1.08,2.11
		c-0.2,0.6-0.8,0.82-1.3,1.1c-13.95,7.89-10.37,11.94-21.87,14.15c-3.81,0.73-8.41-1.91-9.63-5.62c-1.14-3.46,0.18-4.99,2.51-11.14
		c3.23-8.54,0.91-3.67,3.51-6.92c0.58-2.3,0.26-6.7-0.2-9.23c-0.99-5.43,0.67-3.65-0.48-9.52c1.18,0.81,1.39,2.4,2.59,3.1
		c1.3-0.37-0.87-1.99,2.31-0.4c0.3-0.5,0.6,0,0.3-0.4c-2-2.2-4.01-4.31-4.61-7.4c0.02,0.01,0.04,0.03,0.05,0.04
		c-0.02-0.02-0.03-0.03-0.06-0.06v0c-1.22-0.89-1.45-3.37-3.3-5.22c-0.7,1,0.8,1.81,0.3,2.81c-1.5,0.2-4.67-6.16-6.68-9.11
		c0.54,3.4,2.32,6.05,4.87,8.31c0,1.16,0.46,2.72-5.64-3.23c-0.26-0.25-0.87-5.7-0.88-5.8c0-0.1,0.2-0.3,0.3-0.5
		c0.5,0.1,0.5,0.8,1.1,0.7h-0.1c0.2-1.1-0.49-2.01-0.6-3.11c-0.09-0.9,0.7-1.91,0-2.71c-0.8-0.8-0.2-1.91-0.7-3.41
		c-2.2,6.34-0.84,4.82-0.8,9.23c0.17,17.57-3.02,34.5-3.11,34.82c-1.57,5.48-6.05,7.35-7.63,9.93c4.76-1.28,10.86-7.84,11.04-15.15
		c0.01-0.5,0.31-1.01,0.1-1.4c-0.98-1.92-0.2-3.71,0-5.52c0.64-5.76,0.86-12.4,1.51-13.04c3.14,2.64,7.73,7.69,7.73,11.44
		c-0.45,6.07,1.24,8.31,0.7,14.75c-1.97,2.19-1.9,2.8-4.52,9.73c-2.81,7.45-8.38,10.9-9.43,11.74c-7.38,5.85-8.1,6.46-10.13,7.83
		c-12.51,8.39-2.49,20.46-12.54,28.19c-1-0.4-1.51-1.1-1.61-2.11c-0.46-4.66,0.99-5.59,2.21-8.43c1.64-4.69,0.08-4.92-0.4-7.83
		c-0.7-0.1-1,0.2-1,0.7c0,0.8-0.2,1.71,0,2.51c1.06,4.24-2.41,6.73-3.51,11.14c0.1,2.31,1.91,3.81,2.31,5.82
		c-1.58,2.47-2.95,5.04-3.19,8.08c2.12-0.88,2.3-4.6,6.9-9.08c4.01-3.9,4.43-8.38,6.52-18.36c1.17-5.6,3.6-7.26,10.33-12.94
		c2.86-2.41,1.91,0.81,0.8,5.12c-3.17,12.41,1.78,9.93-3.11,20.87c-1.2-0.7-0.5-2.41-2.01-2.81c-1.78,4.16,3.86,13.68,3.41,18.46
		c0,0.3,0.1,0.7,0.2,0.9c-10.33,14.46-12.34,17.4-20.77,19.67c-1.64-0.18-8.94-10.98-8.43-13.55c0.2-4.11-0.9-8.23-0.7-12.34
		c0.1-2.11-0.51-4.21-0.9-6.32c-0.32-1.7-1.31-2.32-3.81-4.41c-3.1-2.6,0.91-6.28-1.81-8.63c0-1.4,0.8-2.01,1.1-2.61
		c0.2-1-0.5-1.51-0.7-2.21c0.2-1,0-2.11,1.2-2.91c1.46,0.29,3.02,1.42,4.77,0.75c-1.63-1.71-1.35-1.34-1.35-4.36
		c0-137.21,0.06-128.41-0.1-130.44c0-1.25-1.53-1.95-1.91,0.3c-0.1,0.91-0.2,132.34-0.2,132.45c-2.21,0-2.82,0.19-3.61,1.1
		c-1.22,1.39-0.5,2.91,0,4.52c-0.2,1.2-1.1,2.31-0.9,4.11c2.87,4.31-2.15,6.66,4.31,10.54c0.39,1.57,0.67,350.49-0.2,352.09
		c-1.51,0.2-3.21,0.7-5.02,0.8c-6.98,0.78-5.31-1.61-17.56,26.99c-2.39,5.59-3.71,5.97-3.71,6.82c0.3,2.01-0.9,3.31-2.01,4.29
		c-0.72,2.32,0.64,6.41,3.81,7.32c13.84,3.99-0.43,1.33,36.52,8.63c2.1,0.42,4.11,1.1,6.02,1.1c1.3-0.2,1.81-1.2,2.91-1.71
		c7.23-1.07,22.97-3.42,34.22-4.21c6.37-0.45,11.24-2.32,12.94-2.11c1.63,0.21,7.49-0.12,9.23-1.71
		c13.51,3.68,16.19,4.49,26.09,5.52c1.41,0.15,6.1-0.22,7.83,1.51c0.6,0.6,0.2,1.4,0.5,2.11c-3.83,3.32-6.59,15.19-8.33,17.56
		c0.83,1.11-0.7,0.71,23.38,5.72c14.63,3.04,20.26,1.69,25.59,3.71c0.51,0.19,1.2,0.2,1.71,0.1c5.84-1.12,10.63,1.08,17.16-1.61
		c9.26-3.8,64.57-15.95,70.34-20.67C761.29,566.83,759.85,564.13,759.14,563.56z M638.93,156.09c5.56,9.33-0.17,15.6-0.8,17.76
		c-1.25,4.3-5.27,4.82-7.02,8.33c-1.7,5.67,0.57,7.49-2.61-17.96c5.39-7.08,4.09-7.01,4.62-15.65
		C635.64,151.56,637.47,153.63,638.93,156.09z M629.6,144.17c2.96,6.47,1.24,14.71-1.3,17.26
		C629.1,155.81,628.8,150.29,629.6,144.17z M572.49,84.96c-0.48,0-0.61-0.65-0.61-1.13C571.8,83.5,572.32,83.96,572.49,84.96z
		 M568.85,78.45c-0.35,0.03-0.57-0.04-0.63-0.39C568.22,77.67,569.11,78.45,568.85,78.45z M568.99,78.73
		c0.34,0.27,0.48,0.68,0.51,1.11C569.22,79.6,568.99,79.2,568.99,78.73z M625.35,510.21c0.2,0.58-13.58,2.29-16.11-1.52
		C612.34,509.73,624.56,507.95,625.35,510.21z M582.85,397.62c-0.41,0.85,0.57,4.75-1.71,7.02c-0.31,0.31-5.2,15.69-5.82,17.86
		c-5.65,19.89,3.23,33.68,3.01,44.35c-0.49,23.5,2.75,34.57,0.6,37.53c-0.84-0.48-2.18-0.11-3.11-0.2
		c-2.33-1.86-0.21-4.35-8.03-2.01c-1.25-9.43-2.94-32.45-0.5-42.04c6.28-24.71,4.31-37.41,4.31-44.95c0.02-0.1,2.11-8.9,2.71-9.83
		c4.82-7.55,6.18-17.51,7.32-18.76C583.14,393.56,584.03,395.15,582.85,397.62z M573.8,521.53c0.63,10.47-0.76,12.18-0.2,17.96
		c0.06,0.66,0.41,1.72,0.2,2.81c-1.1,1.41-6.06,7.03-7.83,7.03c-7.47,3.73-7.66,3.82-9.11,3.81c-4.45-0.01-12.79-2.23-12.65-5.28
		c0.66-6.63-0.48-5.83-0.21-9.8c-1.9-3.96,0.26-5.9-0.11-16.36c5.42,0.46,2.76-1.45,3.14,8.22c0.24,6.13,0.08,8.53,1.79-8.51
		c-1.61-1.3-3.61-0.8-5.12-1.51c-1.07-4.06,5.36-1.5,7.83-1.71c1.2,1.3,1.3,2.41,0.1,3.41c1.2,3.01,3.81,4.11,6.52,5.32
		c4.01-0.6,7.42-2.81,10.54-5.32c3.33-1.65,1.07-13.94-0.39-16.95c-0.1-0.3,0-0.6,0-1.1c4.26-0.78,2.89-2.44,5.82,6.72
		c3.35,0.91,1.87,1.65,5.41,4.01c0.2,1.3,0.2,2.51-0.2,3.71C576.09,518.34,573.58,517.89,573.8,521.53z M574.52,550.34
		c-1.84,0-3.14-0.2-4.92-0.7c2.31-1.61,3.31-3.71,5.52-4.72C575.6,546.89,575.34,548.48,574.52,550.34z M575.72,506.89
		c1-0.5,2.01-0.7,3.61-0.5c0,1.1,0.5,2.11-0.4,3.21C577.53,509.1,575.82,509.1,575.72,506.89z M580.84,382.98
		c0.85,0.43,0.11,1.42-0.3,0.8C580.36,383.51,580.41,383.19,580.84,382.98z M548.73,330.1c1.66-20.77-2.8-15.96,8.63-16.25
		c15.99-0.41,16.96-2.31,17.06,2.31c0.42,19.33,8.93,23.79,6.52,63.92c-2.51,2.91-4.34,6.3-7.02,8.93c-0.7,0.69-2.76,3.56-1.51,4.41
		c1.64-1.48,6.51-6.82,6.53-6.04c0.15,5.72-3.96,13.25-6.33,16.07c-2.8,3.34-0.87,6.46-2.71,9.73c-0.84,1.25,1.54,7.55-0.8,23.68
		c-7.45,51.24-5.99,12.03-4.52,57.39c0.31,9.58,3.49,11.56,2.81,16.36c-0.03,0.2,1.49,8.33,1.51,8.43
		c-2.91,3.01-6.62,4.01-9.93,5.52c-1.37-0.2-2.26-0.61-3.15-1.07c-0.88-0.46-2.17-5.69-2.37-6.73c0-0.1-0.43-0.33-0.55-0.38
		c-3.58-1.55-2.33,1.64-2.66-8.27c-0.13-3.91-0.5-7.83-1.51-11.64c-2.2-8.33-3.29-16.94-5.32-25.39
		c-2.35-9.76-1.97-13.23-3.01-20.37c-1.36-9.32,0.46-14.4,2.41-24.28c1.24-6.3,2.12-8.86,5.72-16.05c0.71-1.65,5.2-13.84,5.22-15.75
		c0.08-7.67,1.1-21.77-1.91-28.9c-0.64-1.28-0.44-4.14-0.9-6.02C548.62,350.3,547.96,339.71,548.73,330.1z M530.07,194.72
		c0-0.6,3.23-0.04,7.93-2.39c9.56-4.78,13.6-16.22,15.85-16.66c13.64,28.51,13.97,30.95,15.45,37.93
		c3.63,17.09-1.4,22.02-11.24,33.81c-6.48,7.77-13.74,17.33-16.86,26.09c-3.6,10.12-2.26,24.43,5.72,32.81
		c1.88,1.97,0.38,2.13,0.7,7.83c0.2,3.47-0.53,6.77-1.2,13.04c-3.23,29.99,5.62,33.52,5.62,50.67c0,10.61,0.53,20.01-4.72,29.52
		c-7.21,13.08-6.03,17.77-8.53,25.27c-4.08,12.24,0.76,30.79,3.81,43.35c-1.15,2.88-0.71-1.04,3.01,16.15
		c0.24,1.1,3.42,15.37,2.3,15.35c-7.66-0.12-16.4,2.33-17.65,1.71C529.96,507.95,530.07,523.13,530.07,194.72z M521.8,183.99
		c0.1-0.3-0.11,0.01,6.06,7.95c0,361.52-0.3,313.24-0.3,317.67c-1.65,0.73-5.92,1.47-5.92,0.1
		C521.48,161.15,521.44,184.61,521.8,183.99z M539.21,563.26c-1.33,0.33-0.5-1.48-1.41-2.09c-1.61,0.5,0,1.9-0.6,2.61
		c-0.29,0.34-1.44,1.89-2.41,1.4c-6.9-2.67-21.77-4.69-37.63-8.93c-3.63-0.97-5.76-3.62-3.9-6.92c7.21-12.8,14.64-31.44,16.96-34.92
		c1.17-0.78,2.23-0.5,3.41-0.4c2.33,2.16,8.43,2.6,8.93,2.61c2.21,0.05,4.41,0.9,7.32,0.8c-4.31-2.11-8.43-2.11-12.84-3.31
		c3.61-1.1,6.82-0.7,9.43-1.51c1.75,0.59,1.8,1.19,2.71,1c4.15-2.77-0.02-0.94,16.26-3.67c2.86-0.48,1.51-0.35,2.7-0.04
		c0.2,1.61,0.6,3.31,0.1,4.82c-2.11,1.91-4.92,0.4-7.02,2.31c0.5,1.2-0.1,2.41-0.5,3.21c0.5,2.11,0.9,3.81,1.71,5.42
		c-0.7,1.81-0.18,3.82-0.7,5.62c-1.85,6.35,2.53,7.44,0.5,11.74c-2.63,0.54-8.69-2.4-8.13,1.51c2.24,11.19,2.22,14.6,3.36,14.47
		c2.3-0.46-1.66-13.14-0.35-14.27c1.78-0.09,3.26,0.59,4.92,1c0.2,0.5,0.5,0.9,0.4,1.1c-1.81,4.52,6.81,7.8,7.92,7.8
		c7.42,1.82,16.84-3.9,17.39-3.76c17.68,4.5,9.02,5.83,16.37,5.04c2.21-0.24,4.35-0.22,7.08,0.16
		C597.25,557.27,568.2,558.61,539.21,563.26z M585.35,553.05c-2.51,0.3-4.62-0.3-6.52-2.11c0.19-3.97-0.79-13.43-0.8-13.55
		c-0.95,2.37,0.08,4.65-0.6,6.02c-2.2-1.47-2.09-7.91-1.81-10.64c1.13-10.89,0.58-12.04,0.44-12.12c0.05-0.02,0.15-0.1,0.36-0.42
		c4.56,0,4.84,1.08,7.12,0.8c1.71,5.02,6.12,6.32,9.93,7.93c4.41-0.9,7.42-3.31,10.44-6.12c0-5.81-1.3-8.49-1.3-12.54
		c0-0.88-1.44-0.16-2.01-1.3c-0.14-0.75-0.35-3.03,0.28-3.45c1.27-0.74,2.42-0.52,3.43,0.54c0.98,1.03,2.11,1.91,2.41,3.41
		c0.33,1.63,1.69,0.27,4.11,6.02c0.05,0.1,0.78,2.25,1.29,1.71c1.64-1.72-1.03-4.82-0.09-4.82c4.56-0.33,1.95,3.07,4.52,4.52
		c2.4-0.21,0.9-2.61,1.91-3.61c0-0.1,1.23-0.34,2.01,0.3c0.6,0.4,1.1,0.9,1.71,1.3c0.71,0.36,1.4-0.17,1.4-1
		c0-0.62-0.04-0.92,0.6-1.2c1.11-0.49,1.51,1.2,2.11,1.2c3,0,2.01-1.51,3.01-2.51c2.11-1.2,4.54-1.87,6.62-3.31
		c0.71-0.49,1.61-0.61,2.41-0.4c5.3,1.37,4.17,0.85,6.52,9.53c1.07,3.97-7.22,11.2-7.47,11.69c-4.77,5.49-14.97,9.07-21.93,10.79
		C606.24,541.98,611.61,549.94,585.35,553.05z M748,573.22c-0.91,0.28-1.91,0.4-2.61,1c-3.97,3.05-46.15,11.09-53.58,14.55
		c-10.97,5.1-32.06,0.63-37.73-0.4c-0.1-0.02-26.58-4.73-27.3-5.29c-1.14-0.87,0.53-0.82,4.53-13.38c0.1-0.4,0.3-1.01,0.7-1.2
		c1.29-0.62,1.21-2,1.71-3.01c2.16-4.36-7.69-2.82-31.1-9.63c-1.16-0.34-6.58-1.61-6.23-1.85c6.27-3.4,9.2-2.11,16.97-11.3
		c1.79-0.72,12.88-2.7,21.57-8.83c0.14-0.55,1-0.71,1-0.81c0.76-2.76,4.31-2.77,9.63-11.93c2.34-4.02,0.09-5.81,1.4-7.12
		c2.29,0,2.23,1.07,9.73,1.2c6.52,0.12,37.98,7.22,49.17,7.22c2.77-0.4,27.14,4.08,29,4.62c0.3,0.3,0.3,0.89,0.8,1.1
		c0.8-0.1,1.4-0.59,2.41-0.2c8.13,3.15-0.3-11.34,21.37,40.03C758.94,571.03,756.93,570.45,748,573.22z"/>
	<path d="M611.24,420.1c0.03-0.46,0.05-0.92,0.08-1.38C610.67,424.4,610.78,426.62,611.24,420.1z"/>
	<path d="M631.11,310.53c0.18-1.18,0.2-0.47-0.72,0.6C630.71,310.93,630.96,310.73,631.11,310.53z"/>
	<path d="M609.22,196.13c-0.02-0.13-0.05-0.25-0.08-0.37C606.95,186.38,610.58,203.78,609.22,196.13z"/>
	<path d="M625.39,315.95c0.41-2.15,1.47-2.6,0-1.51c-0.5,0.3-0.8,0.9-0.6,1.51C625.48,316.3,625.3,316.4,625.39,315.95z"/>
	<path d="M632.41,328.69c1.85-1.76,4.84-3.31,6.52-5.42c1.49-1.49,0.97-1.74-0.6-0.8c-3.41,2.48-4.3,2.74-5.39,3.83
		c-0.62,0.62-1.19,1.91-1.94,0.78c0.4-1.2,0.8-2.41,1.3-3.71c2.11-1.1,3.3-3.22,5.02-4.82c2.42-2.25,3.07-5.02,3.71-8.23
		c0.1-0.5-0.1-0.9-0.8-0.9c-0.7,0.4-0.8,1.2-1,1.81c-1.67,6.19-8.47,12.94-10.41,11.97c-0.56,12.14-12.26,46.42-14.88,50.74
		c-2.39,3.93-3.39,8.33-3.11,12.94c0.37,6.13-1.8,4.6-0.3,14.45c0.88,5.78,1.08,11.53,0.78,17.38c0.63-5.73,1.36-11.24,0.43-16.58
		c-0.49-2.82,0.63-3.11,1-7.32c1.75-19.5,1.3-14.73,1.3-17.26c7.12-15.45,11.94-31.61,15.75-48.06
		C630.41,328.59,631.41,329.29,632.41,328.69z M630.81,325.08c0.65,0.13,0.18,0.9-0.4,0.9
		C630.41,325.88,629.98,325.08,630.81,325.08z M611.94,393.81c0-1.1-0.5-2.02,0.2-3.21C612.52,391.72,612.37,392.72,611.94,393.81z
		 M612.75,388.9c0-0.56-0.23-0.9,0-0.9C612.75,388.55,612.98,388.9,612.75,388.9z"/>
	<path d="M529.37,171.16l0.1,0.1C529.5,171.08,529.5,171.09,529.37,171.16z"/>
	<path d="M632.94,316.92c0.95-0.27,0.9,0.27,0.49-0.5c0.91-1.01,2.42-6.34,2.49-7.7c-2.26-0.65-1.06,5.51-10.54,7.53
		c-0.1,0-0.19,1.18,0.38,1.93c1.7,2.22,6.86-1.64,5.24-0.02c-0.57,0.65-1.26,1.18-1.78,1.95
		C630.28,318.77,632.4,317.39,632.94,316.92z M633.72,315.55c0,0.25-0.12,0.52-0.37,0.66C633.23,315.86,633.32,315.66,633.72,315.55
		z"/>
	<path d="M626.18,313.87c1.94-1.33,2.84-1.15,4.2-2.74C629.83,311.49,626.99,312.86,626.18,313.87z"/>
	<path d="M573.17,80.02C573.23,80.06,573.22,80.05,573.17,80.02L573.17,80.02z"/>
	<path d="M598.98,109.85c0.01-0.03,0.01-0.06,0.02-0.09C598.86,109.9,598.88,109.85,598.98,109.85z"/>
	<path d="M522.64,140.66c-0.11,0.07-0.2,0-0.1,0.1L522.64,140.66z"/>
	<path d="M597.59,38.92l-0.1,0.1C597.86,39.06,597.79,39.11,597.59,38.92z"/>
	<path d="M592.38,37.71c-0.02,0-0.03,0-0.05,0C592.24,37.8,592.26,37.83,592.38,37.71z"/>
	<path d="M535.39,117.08c19.04-2.5,24.23-23.53,23.68-41.04c-0.28-8.73-2.5-11.41-1.4-20.87c-0.4-0.2,0.6-0.4,0.3-0.1
		c0,0,0.3,0.3,0.6,0.6c0.7-3.21,0-6.42,1.1-9.53c1.61-0.6,3.51-0.21,5.02-1.4c3.35-2.66-0.63-5.08,7.12-6.12
		c9.63-1.29,10.26-0.56,12.44-1.1c4.94-0.82,5.69,0.19,8.08,0.2c0.18-0.2,0.86-0.7,2.16-0.7c8.8,0.49,12.36,4.75,13.04,6.22
		c-1.81,0.54-2.75-3.32-9.77-4.17c1.32,1.17,3.39,1.43,4.35,3.07c-1.3,1-2.61-1.1-4.01,0c3.41,1.51,6.82,2.92,9.73,5.12
		c3.43,2.59,1.69-2.35,7.32,10.94c0.47,1.12,0.4,2.51,0.6,3.81c-0.9,1.71-1.71,3.41-2.51,5.02c1.23,3.68,0.79,2.52,2.51,2.81
		c1.71,2.01,4.01,3.71,4.72,6.42c-0.6,1-1.61,1.1-2.21,1.51c-0.6,2.41,1,4.31,0.7,6.42c-0.5,0.8-1.91,0.3-2.31,1.51
		c0.63,1.52,2.53,0.14,2.78,2.2c2.08-5.94-1.15-7.09-0.57-9.02c0.6-0.9,2.44-0.29,2.71-1.81c0.32-1.8-0.97-2.6-4.11-7.22
		c-2.87-4.22-0.68-2.77-0.1-4.31c-0.3-0.3-0.7-0.6-1.1-0.9c-0.3-0.6,0.2-1.1,0.3-1.61c1.29-4.93-0.91-6.17-1.91-9.83
		c-1.19-4.41-6.05-11.67-6.92-12.64c-2.68-2.99-2.78-1.63-7.53-4.52c-3.99-2.42-15.44-3.83-22.17-3.71
		c-16.88,0.29-11.82,8.11-21.17-0.2c-6.37-2.46-10.25,0.5-14.35,3.61c-5.94,4.5-4.33,8.53-5.92,16.46
		c-1.58,7.92,0.74,11.5,7.02,26.69c5.13,12.41,1.64,20.76-1.91,34.62C540.2,115.27,537.79,115.68,535.39,117.08z M604.32,43.81
		c-2.52-1.03-0.51-2.33,0.64-0.52C605.47,44.09,605.23,44.19,604.32,43.81z M607.63,43.73c-0.1-0.1-0.1-0.29-0.1-0.49
		C607.65,43.51,607.69,43.7,607.63,43.73z M592.11,36.55c0.25,0.08,0.51,0.17,0.77,0.26C585.92,36.81,585.21,34.27,592.11,36.55z
		 M565.59,37.61c6.57-1.95,11.03-3.23,17.42-0.88c1.77,0.65-9.95-0.36-16.52,2.99C565.78,39,565,38.72,565.59,37.61z M546.22,105.14
		c0.1-0.4,0.2-0.9,0.3-1.61C547.02,104.44,546.72,104.84,546.22,105.14c-0.04,0.1-0.09,0.55-0.2,1
		C545.69,105.72,545.82,105.42,546.22,105.14z M545.72,108.34c1.88,0.47,0.18,1.17,2.31-4.11c2.53-6.26,0.39-3.03-0.3-3.2
		c0-10.24,5.87-16.49-1.71-33.71c-1.46-3.32,1.6,8.9,2.01,10.84c0.84,4.03,0.2,7,0.2,7.22c-0.97-0.97-1.23-5.17-5.42-13.95
		c-5.21-10.92-5.21-28.33,0-32.11c6.69-4.85,7.23-5.46,10.64-5.82c-0.54,0.45-0.83,0.69-1.38,1.11c1.54,0,3.14,0.09,4.8,0.09
		c0.2-0.1,0.5-0.4,0.7,0c1.32-0.1,2.13,1.21,3.01,1.51c1.99,0.79,2.82,2.34,3.01,4.39c0,0.1-1.1-0.52-1.2-0.57
		c-1.2-0.67,0.67,1.7-0.2,3.59c-3.54-0.57-5.55-0.26-5.82,3.31c-1.19,15.8,1.43,14.56,0.1,16.96c-0.29,0.44,1.69,6.38,0.7,12.14
		c0.9,1.2,1.02,1.2,1,1.91c-0.1,6.02-0.8,12.04-2.51,17.86c-0.37,1.98-0.69,1.46-2.61,0.5c0.61,2.85,1.07,5.1-3.01,10.84
		c-1.55,2.18-6.28,5.75-6.63,5.73C541.62,112.76,544.25,109.59,545.72,108.34z"/>
	<path d="M528.96,143.57c1.61-0.4,2.91-1.91,5.02-1.51c-0.8-1.81-2.51-1.81-3.91-2.61c0-141.97,0.36-134.52-1.51-134.25
		c-1.02,0.34-0.8-8.06-0.8,135.46c-0.63,0.78-1.09,0.95-4.92,0.1C523.43,142.95,525.98,142.76,528.96,143.57z"/>
	<path d="M289.16,292.17l-0.1,0.1C289.22,292.27,289.16,292.29,289.16,292.17z"/>
	<path d="M299.99,291.87c0.3-0.4,0.8-1.2,1.71-1.1c0.1-0.1,0-0.2,0.1-0.3c0-0.1,0.24-0.19,0.24,0.04c-0.03,0.33-0.44-0.2-0.44,1.57
		c1.65,1.65,4.57-10.54,5.02-12.14c0.2-0.7,0.2-1.4-0.2-2.11c-1.71,2.37-3.31,8.07-4.41,11.24c-8.02,6.13-8.39,5.65-9.33,7.42
		c-1.38-0.31-0.67-1.06,0.4-4.01c2.41-1.4,4.12-3.81,6.12-6.02c1.91-2.1,2.81-4.82,2.41-7.83c0-0.1-0.2-0.1-0.2-0.2
		c-0.87,0.43-0.16-0.86-3.51,7.53c-7.83,6.81-5.31,6.32-8.72,6.32c0.1,1.43-0.11,0.75,1.8,1.71c0.2,1.1-0.9,1.51-1.2,2.51
		c-0.38,5.98-4.19,25.66-9.63,35.92c-0.69,1.31-1.2,2.61-1.3,4.21c-0.15,2.25-3.77,5.62-3.01,8.83c0.7-0.4,1.2-0.8,1.81-1.61
		c0.5,3.71,0.9,7.22,0.4,10.84c1.61-4.92,1.4-9.93,0.9-15.25c5.19-7.27,11.28-22.41,12.44-41.04
		C294.57,296.68,297.38,294.48,299.99,291.87z"/>
	<path d="M649.58,288.46c-1.71,14.56,3.32,17.06,0,24.88c-6.03,14.19-4.63,12.01-9.63,17.26c-3.98-1.23,3.98-6.03,5.42-14.55
		c0.38-2.23,1.82-4.6,1.4-7.53c-3.62,6.1-3.02,8.71-5.23,12.74c1.99,0.99-1.84,4.05-3.31,5.72c-0.6,4.01-0.6,4.01,1.1,5.52
		c8.05-5.65,12.47-16.43,13.34-25.18c0.3-1.91-0.81-3.71-1-5.52c-1.19-11.41,1.72-28.96-3.14-30.17
		C647.68,274.39,651.4,272.96,649.58,288.46z"/>
	<path d="M309.73,252.54c-3.76,27.93,7.07,11.94-4.72,39.93c-1.19,2.82-3.31,4.82-5.32,6.72c-3.24-1.35,1.46-3.77,1.91-6.92
		c0-0.44,0.38-0.46-3.81,3.41c-0.23,3.16-0.82,4.55,1.2,5.42c12.5-10.84,11.82-19.82,13.24-23.78c0.4-1.11,0.21-2.31-0.1-3.51
		c-3.08-12.09,2.35-29.73-4.1-34.24C308.31,243.3,310.78,244.73,309.73,252.54z"/>
	<path d="M605.12,90.59c0-1.71-0.58-2.92-1.2-4.11c-0.68-1.31-0.3-2.81-0.7-4.21c-0.6,0.3-1.1,0.5-1.61,0.7
		c-1.3-0.4-1.91-1.3-2.11-2.51c-0.66-0.66-0.69-1.38-0.53-1.38c0.82,0.13,0.53,0.79,0.53,1.38c2.83-0.62,2.41-0.18,3.31-6.92
		c-1.81-1.29-3.25,0.87-2.21,4.01c-1.51-1.4-1.64-3.5-2.41-5.22c-0.31-0.7,0-1.61,0.4-2.31c1.25-0.28-0.11,0.84,2.91,1.71
		c0.3-2.01-1.61-2.51-2.21-3.81c1.1-0.6,1.61,0.9,2.71,0.5c0.8-0.8-2.11-2.41-3.41-2.81c-2.83,0.76-4,1.26-4.11,6.62
		c-0.11,5.25,3.68,10.65,6.92,12.54C602.31,86.68,603.01,88.88,605.12,90.59z M597.59,68.01c-0.2,0.1-0.3,0.8-0.6,0.2
		C596.86,67.94,597.59,67.52,597.59,68.01z M597.2,76.8c-0.75-1.48-0.87-3.44-0.89-3.85C597.67,75.06,599.12,80.57,597.2,76.8z
		 M598.8,78.93c-0.51-0.04-0.68-0.57-0.54-0.57C598.84,78.41,598.96,78.93,598.8,78.93z"/>
	<path d="M264.57,58.88c-0.13,0-0.1-0.02-0.1,0.1L264.57,58.88z"/>
	<path d="M260.86,53.67c2.39,4.77,2.53,5.27,3.61,5.22c0.11-1.85-2.29-4.39-1.71-7.12c-0.8-1-1.3,0.4-2.41-0.3
		c-1-1.2-1.71-3.31-2.81-5.22c-0.94-1.16-1.42-2.58-1.2-4.31c0.7,1.34,1.45,2.83,1.2,4.31c1.3,0.4,1.61,1.91,2.61,2.61
		c2-0.2,2.01-2.66,2.01-5.12c0-0.6,0.5-1,0.6-1.51c-0.6-0.7-1.2-0.6-2.01-0.3c-0.97,1.07-1.1,4.3-1.1,3.41
		c-1.2-1.4-1.31-3.21-2.01-4.82c-0.3-0.7,0-1.61,0.8-2.21c0.7,0.9,1.4,1.81,2.71,1.71c0.19-1.34-1.58-2.36-1.58-3.12
		c0.58-0.35,1.29,0.6,2.08-0.09c-0.8-1.61-2.41-2.01-3.71-2.61c-2.51,0.5-3.61,1.91-3.61,4.21
		C254.34,39.68,251.65,45.99,260.86,53.67z M259.99,45.54c0.26,0.06,0.6,0.6,0.1,0.46C259.72,45.9,259.55,45.39,259.99,45.54z
		 M258.52,36.24c1.14,0,1.3,0.96,0.37,0.44C258.79,36.62,258.27,36.24,258.52,36.24z M257.27,36.37c-0.14,0.3-0.33,0.34-0.49,0.4
		C256.86,36.43,257.4,36.09,257.27,36.37z"/>
	<path d="M586.56,41.93c-3.76,0.11-9.54-1.84-13.14-1c25,5.33,20.84,6.67,23.98,5.42c4.29,1.22,4.98,4.01,11.84,4.01
		c-2.21-1.1-3.71-3.22-6.02-4.11C599.87,44.95,593.61,41.72,586.56,41.93z"/>
	<path d="M232.16,9.42c15.83,3.36,12.93,2.8,20.47,5.12c6.48,1.99,2.18-1.59,8.23,2.21c2.52,1.58,5.22,2.11,8.13,2.21
		c-1.5-0.75-9.33-8.3-23.48-8.43C239.83,10.47,239.19,9.08,232.16,9.42z"/>
	<path d="M268.19,21.86c-0.2-2.59-3.5-1.68-6.22-0.9c7.94,1.98,3.29,1.42,2.73,3.85l-0.02-0.04c-3.65,2.19-6.69,1.56-11.15,1.61
		c1,1.1,6.47,2.15,12.45,0c0.4-0.1,0.8-0.5,1.51,0c-0.4,1.51-1.52,2.38-3.01,2.91c-6.09,2.17-9.05,1.42-17.36,0.5
		c0.2,0.2,0.4,0.61,0.7,0.7c7.5,2.33,10.53,1.87,19.57-0.3c3.14-2.02,0.78-3.83,2.51-6.42C268.4,22.84,265.35,26.82,268.19,21.86z
		 M266.38,24.57c0.04-0.02,0.2-0.1,0.49-0.24c0-0.01,0.01-0.01,0.01-0.01C266.96,24.78,266.76,24.95,266.38,24.57z"/>
	<path d="M253.44,26.27l-0.1,0.1C253.55,26.37,253.56,26.4,253.44,26.27z"/>
	<path d="M224.94,273.11c7.04-1.14,7.15-3.27,9.23-4.47c0.08-2.5-8.18-8.15-9.43-13.9c-3.34,0.83,0.27,7.24,6.52,12.24
		c-0.89,1.68-2.95,1.81-4.06,3.06c0.22,0.09,0.42,0.19,0.75,0.35c-1.09,0.55-0.9,0.4-0.9,0.5c-0.93,1.04-2.64,0.44-3.61,1.71
		C223.74,273.31,224.34,273.2,224.94,273.11z"/>
	<path d="M227.05,269.99l0.1,0.1C227.19,270.05,227.24,270.07,227.05,269.99z"/>
	<path d="M226.95,17.54c0,1.98,4.91,22.01,9.83,26.69c-4.09-9.71-5.23-14.61-6.32-18.26c-2.46-8.2-1.99-6.02-0.6-6.02
		c-0.2-1.71-2.01-2.61-2.31-4.31C226.65,16.24,226.95,16.94,226.95,17.54z"/>
	<path d="M569,51.36c1.83-2.43-0.58,0.48,2.81,1.91c-0.14-1.84-2.15-2.69-1.91-3.01c-0.17,0.17,0.18,0.47-2.41-3.41
		c-1.81,1.36,4.15,19.24,8.43,27.79C578.71,78.82,572.49,65.31,569,51.36z"/>
	<path d="M593.28,57.58l-0.1,0.1C593.72,57.73,593.5,57.69,593.28,57.58z"/>
	<path d="M606.02,55.57l-0.1-0.1C605.96,55.59,605.9,55.57,606.02,55.57z"/>
	<path d="M606.02,56.17c0-2.3-1.59,1.61-6.12,1.61c-2.1,0-4.27,0-6.38-0.09c5.67,2.68,10.31,0.69,14.51-0.31
		c-1.43,4.29-5.12,3.05-6.18,4.57c1.86,0.7,3.62,0.03,5.38-0.35c3.41-0.75,1.37-4.7,3.01-6.52
		C609.15,53.99,607.84,56.17,606.02,56.17z"/>
	<path d="M585.35,86.58c1.5,0-2.47-2.21-5.92-5.32c-0.1-0.1-3.47-3.37-4.21-3.81c-5.37-2.68,2.25,2.06,2.51,6.02
		c-1.2-0.4-1.61-2.21-3.01-2.51c1.15,3.72,4.47,6.42,6.62,6.42c0.48-0.84-0.51-0.71-1.4-1.61
		C577.14,79.49,582.15,85.88,585.35,86.58z"/>
	<path d="M233.27,45.44l-0.1,0.1C233.39,45.54,233.36,45.63,233.27,45.44z"/>
	<path d="M244.61,54.77l0.1-0.1C244.55,54.75,244.61,54.63,244.61,54.77z"/>
	<path d="M256.25,414.98c-1.1-0.7-2.01-0.2-2.81,0.8c-3.61-3.31-6.52-7.02-6.52-12.14c-1-0.1-1.4,0.3-1.61,0.9
		c-1.19,6.32,5.48,9.28,5.12,11.84C252.36,416.69,255.06,417.6,256.25,414.98z"/>
	<path d="M262.06,483.01c0.7-0.1,1-0.5,0.9-0.8c-0.4-4.62-0.41-9.16-1.81-13.65c-2.81-9.02-1.62-3.06-0.5,5.32
		C261.23,478.18,259.92,476.88,262.06,483.01z"/>
	<path d="M271.9,379.46c-1.3,0-0.87-0.14,0.1,15.65C273.3,389.8,273,384.58,271.9,379.46z"/>
	<path d="M222.73,18.55c-1,1.81-1.1,3.61-1.3,5.42c2.66,0.89,3.16,8.73,4.92,9.43c0.08-1.09-1.79-6.4-2.51-8.83
		C222.28,19.33,223.64,19.8,222.73,18.55z"/>
	<path d="M589.77,61.79l-0.1,0.1C589.85,61.89,589.77,61.91,589.77,61.79z"/>
	<path d="M589.79,61.89c0.22,0.65,5.8,1.86,11.72,1.1c0-1.08,0.29-0.95,0.34-1.05C601.75,61.89,589.89,61.89,589.79,61.89z"/>
	<path d="M230.12,20.01c0.86,2.28,8.44,10.11,9.77,9.77C229.38,18.94,230.73,20.19,230.12,20.01z"/>
	<path d="M229.96,19.95c0.16,0.09,0.2,0.07,0.1-0.1L229.96,19.95z"/>
	<path d="M608.13,64c0.1-0.5,0.7-1.1,0.5-1.81c-1.1,0.1-1.3,1.3-2.11,1.2c-0.6,1,0.22,1.61,0,2.31c-0.47,1.52-1.71,2.41-2.71,3.51
		c0.6,0.6,1.2,0.4,1.91,0C607.78,68.27,607.87,65.83,608.13,64z"/>
	<path d="M563.48,49.45c-1.51,3.41-1.51,3.41-1.3,6.02c0.2,0.2,0.5,0.3,1,0.7c0.4,1.3,0.9,2.91,1.51,4.41c0,0.4,0.1,1.1,0.8,1.2
		C565.49,58.21,562.94,55.08,563.48,49.45z"/>
	<path d="M271.9,402.64c-0.1-0.6-0.2-0.8-1.2-1.4c-0.9,3.11-1,4.62-0.7,8.53C271.4,407.36,272.22,404.65,271.9,402.64z"/>
	<path d="M267.78,131.73c0.9,2.01,1.81,2.71,3.71,3.01c-0.7-2.31-1.3-3.51-3.11-5.22C267.18,130.22,267.38,131.03,267.78,131.73z"/>
	<path d="M263.67,362.51c1.91-2.61,0.3-4.92,0.2-7.93c-1.1,1.81-1.3,4.21-0.9,7.12C262.97,362,263.37,362.21,263.67,362.51z"/>
	<path d="M285.95,228.66c-1,1.91-0.2,3.11-1,4.41c-1.13,0.52-9.4,0.24-0.2,1c3.37,2.81-5.88,2.41,0.8,2.41
		C286.75,234.17,286.05,231.77,285.95,228.66z"/>
	<path d="M241.7,49.95c3.71,1.71,6.42,1.4,8.73-0.7C247.52,49.75,244.91,50.15,241.7,49.95z"/>
	<path d="M267.78,32.03c0.43-0.3,0.67-0.67,0.2-1.14c-0.46,0.18-0.69,0.91-0.59,1.01c-2.59,0.09-0.2,2.09-1.52,3.4
		c-0.8,0.8-1.51,1.81-2.31,2.71C267.78,38.01,267.51,35.06,267.78,32.03z"/>
	<path d="M606.83,54.87c1.1-1,1.1-1,1.3-2.51c-1.71-1.2-1.71-1.2-5.92-0.1c4.93,0.87,4.41,1.17,4.41,2.31c-0.5,0.2-0.7,0.4-0.6,0.8
		C606.92,55.56,606.73,54.77,606.83,54.87z"/>
	<path d="M247.42,393.51c-1,2.81-1.71,5.12-1,7.93C247.62,399.43,247.62,399.43,247.42,393.51z"/>
	<path d="M279.42,170.56c-1.25,1.07,0.3,1.93,3.71,4.82C283.04,172.87,281.23,171.76,279.42,170.56z"/>
	<path d="M563.28,68.22c0.05,0.07,0.09,0.15,0.14,0.22C563.39,68.17,563.38,68.22,563.28,68.22z"/>
	<path d="M590.57,80.86c-0.2-0.1-0.4-0.3-0.6-0.2c-2.01,0.7-4.21,0.3-6.12,1.3c0.65,1.14,1.59-0.42,3.61,1.2
		C587.72,81.36,590.11,82.25,590.57,80.86z"/>
	<path d="M252.43,44.33c-1.3,0.2-1.71,1.61-2.81,2.01c-1,0.3-1.91,0.9-3.41,1.81C250.83,47.65,251.73,47.04,252.43,44.33z"/>
	<path d="M592.18,75.54c-1.51,1.81-3.41,2.71-6.12,3.91C589.08,79.45,593.93,77.8,592.18,75.54z"/>
	<path d="M570.5,44.84l-0.1,0.1C570.78,44.94,570.89,45.08,570.5,44.84z"/>
	<path d="M577.43,48.45c0-0.81-4.09-3.18-6.68-3.47C572.88,46.32,575.11,47.49,577.43,48.45z"/>
	<path d="M577.53,58.98c0.1-0.49-0.18-0.69-0.66-0.79c-1.29-1.97-2.88-3.64-4.96-4.83c1.18,2.17,2.56,3.56,4.89,4.85
		C576.62,58.39,576.98,59.12,577.53,58.98z"/>
	<path d="M268.39,484.42c-0.7,2.11-0.7,2.11,0.2,3.61C270.19,486.62,268.69,485.62,268.39,484.42z"/>
	<path d="M225.64,41.93c-0.49-2.05-1.45-3.89-2.7-5.56C223.07,38.61,223.88,40.46,225.64,41.93z"/>
	<path d="M239.39,154.71c1.44-0.72-0.27-2.47-0.7-3.11C238.08,153.3,238.18,153.3,239.39,154.71z"/>
	<path d="M256.75,117.78c1-1.4,1-1.4,0.5-3.41C256.95,115.47,256.35,116.48,256.75,117.78z"/>
	<path d="M244.71,24.97c-0.59-1.58-2.05-1.8-3.33-2.28C241.26,23.59,244.01,24.78,244.71,24.97z"/>
	<path d="M216.41,274.11c-1.1-0.5-2.21-0.4-3.41-0.1C214.1,274.71,215.31,274.11,216.41,274.11z"/>
	<path d="M577.73,51.9c0.8,1.29,2.06,1.78,3.31,2.17C580.37,52.72,579.14,52.21,577.73,51.9z"/>
	<path d="M577.63,51.76l-0.1,0.1C577.8,51.9,577.75,51.96,577.63,51.76z"/>
	<path d="M284.04,244.91c-0.6-0.9-1.4-1.2-2.51-0.8C282.23,245.01,282.94,245.21,284.04,244.91z"/>
	<path d="M268.19,426.22c-0.8,0.9-1,1.61-1,2.31C268.39,427.93,268.39,427.93,268.19,426.22z"/>
	<path d="M251.03,129.32c0.5-0.2,0.6-0.4,0.4-0.6c-0.6-0.7-0.6-1.81-1.61-2.21C249.62,127.82,250.12,128.62,251.03,129.32z"/>
	<path d="M274.01,355.78c-1.31-0.44-1.43,1.38-0.9,1.91C274.21,357.29,273.8,356.49,274.01,355.78z"/>
	<path d="M256.95,77.45c0-1.1,0-1.1-1-1.71C255.54,76.74,255.94,77.25,256.95,77.45z"/>
	<path d="M597.09,108.65c0.1-0.8,0.1-0.8-0.9-1.71C596.29,108.25,596.29,108.25,597.09,108.65z"/>
	<path d="M249.82,55.47c0.1,0.9,0.2,1.81,0.4,3.01C250.22,57.28,250.83,56.28,249.82,55.47z"/>
	<path d="M269.49,416.69c0.3-0.6,0.6-1.1,0.9-1.81C269.39,415.28,269.39,415.28,269.49,416.69z"/>
	<path d="M527.26,176.28c0,0,0.1,0.1,0.2,0.4c0.92-0.31,1.06-0.96,0.7-1.4C527.91,175.02,527.08,175.19,527.26,176.28z"/>
	<path d="M260.96,411.77c-0.2-0.59-0.8-0.04-1.61,0.5C260.56,412.78,260.76,412.27,260.96,411.77z"/>
	<path d="M227.04,44.13c0.18-0.55-0.16-1.66-1.29-2.06C225.67,42.99,226.23,43.7,227.04,44.13z"/>
	<path d="M251.33,25.87c0.6,0.5,1.4,0.4,2.11,0.4C252.83,25.57,252.13,25.47,251.33,25.87z"/>
	<path d="M258.05,462.14c-0.4-0.8-0.5-1.2-0.7-1.61C257.05,461.24,257.15,461.54,258.05,462.14z"/>
	<path d="M548.43,114.47l-0.1-0.1C548.27,114.53,548.14,114.52,548.43,114.47z"/>
	<path d="M548.25,114.5c-0.9,0.13-1.56,0.52-2.03,1.27C547.17,115.78,547.84,115.31,548.25,114.5z"/>
	<path d="M205.25,85.23c0.81-0.15,1.46-0.61,2.03-1.26C206.34,83.97,205.66,84.35,205.25,85.23z"/>
	<path d="M205.17,85.37c0.08-0.19,0.17-0.15-0.1-0.1L205.17,85.37z"/>
	<path d="M529.97,171.36c-0.8,0.3-0.7,1.1-1.4,1.91C529.77,172.57,529.77,172.57,529.97,171.36z"/>
	<path d="M589.57,85.88c0.01-0.96-0.64-1.45-1.2-2.12C588.26,84.72,588.91,85.31,589.57,85.88z"/>
	<path d="M550.54,112.97c-1,0.1-1.71,0.6-2.21,1.4C549.33,114.37,550.14,114.07,550.54,112.97z"/>
	<path d="M222.33,248.02c0.14,0,0.1,0.19,0.1-1.3C222.3,246.72,222.33,246.52,222.33,248.02z"/>
	<path d="M574.17,49.78c0.33,0.89,1.09,1.18,1.86,1.47C575.83,50.21,575.02,49.97,574.17,49.78z"/>
	<path d="M588.46,69.92c-1-0.1-1.71-0.2-2.31-0.3C586.66,70.42,587.36,70.32,588.46,69.92z"/>
	<path d="M238.24,21.23c0.01,0.04,0.03,0.08,0.04,0.13C238.41,21.23,238.42,21.26,238.24,21.23z"/>
	<path d="M238.24,21.23c-0.24-0.89-1-1.18-1.87-1.47C236.57,20.8,237.39,21.04,238.24,21.23z"/>
	<path d="M589.57,61.89l0.1-0.1c-0.12,0.02-0.16,0.02-0.17,0.02c-0.7-0.88-1.77-0.53-2.64-0.72c0.75,0.94,1.7,0.82,2.64,0.72
		C589.49,61.82,589.53,61.83,589.57,61.89z"/>
	<path d="M585.96,56.98l0.1-0.1C585.74,56.74,585.9,56.79,585.96,56.98z"/>
	<path d="M584.05,55.37c0.28,0.92,1.07,1.08,1.82,1.42C585.53,55.94,584.89,55.56,584.05,55.37z"/>
	<path d="M237.82,17.07c0.26,0.97,1.19,1.09,1.87,1.47C239.41,17.59,238.67,17.27,237.82,17.07z"/>
	<path d="M237.78,16.94c-0.18,0.07-0.15,0-0.1,0.1C237.89,17.08,237.81,17.1,237.78,16.94z"/>
	<path d="M234.73,19.12c0.01,0.04,0.03,0.08,0.04,0.13C234.9,19.13,234.91,19.16,234.73,19.12z"/>
	<path d="M234.73,19.12c-0.25-0.98-1.1-1.18-1.87-1.47C233.15,18.6,233.89,18.92,234.73,19.12z"/>
	<path d="M246.11,38.41l0.1-0.1C245.93,38.27,246.04,38.29,246.11,38.41z"/>
	<path d="M246.02,38.29c-0.42-0.56-1.16-0.49-1.82-0.68C244.67,38.34,245.37,38.24,246.02,38.29z"/>
	<path d="M247.62,38.52c-0.4,0-0.9,0-1.4-0.2C246.51,38.92,247.11,38.82,247.62,38.52z"/>
	<path d="M256.65,457.23c0.3-0.4,0.3-0.8-0.1-1.2C256.14,456.42,256.25,456.82,256.65,457.23z"/>
	<path d="M245.01,29.48c1.2,0.2,1.61,0.2,2.01,0.3C246.61,29.48,246.21,29.28,245.01,29.48z"/>
	<path d="M268.69,421.91c-0.4,0.5-0.5,1,0,1.51C269.09,422.91,269.19,422.41,268.69,421.91z"/>
	<path d="M266.38,434.65c0.6-0.3,0.7-0.7,0.1-1.1C266.18,433.85,265.98,434.25,266.38,434.65z"/>
	<path d="M219.22,273.31c-0.3-0.1-0.6-0.2-0.9,0.1C218.62,273.51,219.02,273.61,219.22,273.31z"/>
	<path d="M225.34,270.4c0.57,0.47,1.13,0.41,1.71,0.4C227.05,270.08,227.66,270.08,225.34,270.4z"/>
	<path d="M281.63,271.7c0-0.5,0.1-1,0.3-1.4C281.23,270.6,281.33,271.1,281.63,271.7z"/>
	<path d="M282.03,268.49c-0.1,0.7-0.1,1.2-0.2,1.71C282.13,269.79,282.63,269.29,282.03,268.49z"/>
	<path d="M566.11,63.85c0.11-0.76,0.32-1.59-0.62-2.06C565.39,62.58,565.3,63.35,566.11,63.85z"/>
	<path d="M566.09,64l0.1-0.1C566.06,63.86,566.13,63.77,566.09,64z"/>
	<path d="M590.37,87.48c0.1,0.4,0.2,0.8,0.3,1.3C590.97,88.18,590.67,87.88,590.37,87.48z"/>
	<path d="M268.09,482.81c0.1-0.3,0.1-0.7-0.1-0.9C267.88,482.21,267.78,482.51,268.09,482.81z"/>
	<path d="M569.7,72.53c0-0.5,0.1-1-0.3-1.4C569,71.73,569.3,72.13,569.7,72.53z"/>
	<path d="M591.47,57.38c0.7,0.1,1.3,0.1,1.71,0.2C592.78,56.98,592.28,56.78,591.47,57.38z"/>
	<path d="M229.86,41.73c0.2-0.7-0.2-1-0.7-1.2C229.25,40.92,229.25,41.43,229.86,41.73z"/>
	<path d="M583.95,55.47c-0.19-0.65-0.72-0.77-1.28-0.71C582.81,55.46,583.38,55.47,583.95,55.47z"/>
	<path d="M582.66,54.76c-0.01-0.03-0.02-0.06-0.02-0.09c-0.05,0.01-0.09,0-0.14,0.01c0.02,0.07,0.03,0.09,0.06,0.07
		C582.54,54.78,582.57,54.76,582.66,54.76z"/>
	<path d="M566.87,65.17c-0.07-0.48-0.04-1.09-0.68-1.27C566.19,64.46,566.2,65.02,566.87,65.17z"/>
	<path d="M566.89,65.31l0.1-0.1C566.87,65.18,566.85,65.13,566.89,65.31z"/>
	<path d="M236.28,19.85c0.12-0.12,0.15-0.11-0.05-0.07C236.25,19.81,236.27,19.82,236.28,19.85z"/>
	<path d="M234.87,19.15c0.27,0.64,0.8,0.76,1.35,0.63C235.93,19.25,235.45,19.15,234.87,19.15z"/>
	<path d="M567.03,65.65c-0.01-0.02-0.02-0.02-0.04-0.04C567.02,65.68,567.03,65.67,567.03,65.65z"/>
	<path d="M566.99,65.21c0,0.2,0.04,0.39,0.04,0.44C567.13,65.74,566.99,65.56,566.99,65.21z"/>
	<path d="M585.15,69.52c0.4,0,0.7,0,1,0.2C585.86,69.42,585.65,68.92,585.15,69.52z"/>
	<path d="M576.12,51.16l-0.1,0.1C576.21,51.18,576.17,51.26,576.12,51.16z"/>
	<path d="M576.16,51.22c0.3,0.55,0.78,0.74,1.36,0.64C577.25,51.12,576.71,51.07,576.16,51.22z"/>
	<path d="M230.79,13.45c-0.01-0.04-0.02-0.07-0.03-0.12C230.61,13.48,230.65,13.41,230.79,13.45z"/>
	<path d="M231.96,14.23c-0.09-0.73-0.69-0.71-1.17-0.78C230.93,14.12,231.49,14.14,231.96,14.23z"/>
	<path d="M230.06,13.43c0.3-0.1,0.5,0,0.6,0.1c-0.2-0.1-0.3-0.3-0.5-0.4C229.93,12.9,229.42,13.43,230.06,13.43z"/>
	<path d="M261.66,342.44c0-0.1-0.1-0.1-0.2-0.2c0,0.41-0.22,0.16,0,0.6C261.66,342.94,261.76,342.74,261.66,342.44z"/>
	<path d="M233.37,15.04c-0.09-0.83-0.69-0.81-1.25-0.72C232.34,14.82,232.9,14.85,233.37,15.04z"/>
	<path d="M232.11,14.31c-0.02-0.03-0.04-0.05-0.05-0.08C231.96,14.34,231.9,14.36,232.11,14.31z"/>
	<path d="M233.47,14.94c0.28,0.56,0.73,0.68,1.28,0.69C234.61,14.77,233.95,14.94,233.47,14.94z"/>
	<path d="M234.75,15.63c0,0.16,0.02,0.11,0.12,0.01c0.19,0.65,0.72,0.7,1.28,0.7C235.99,15.42,235.3,15.63,234.75,15.63z"/>
	<path d="M236.16,16.34c0.01,0.03,0.02,0.06,0.02,0.1C236.3,16.31,236.31,16.34,236.16,16.34z"/>
	<path d="M236.28,16.34c0.28,0.74,0.81,0.79,1.36,0.64C237.34,16.43,236.86,16.24,236.28,16.34z"/>
	<path d="M265.37,60.17c-0.23-0.43-0.4-0.85-0.49-1.28C264.96,59.34,265.07,59.85,265.37,60.17z"/>
	<path d="M245.71,55.17c-0.2-0.4-0.5-0.5-0.8-0.5C244.91,55.57,245.41,54.97,245.71,55.17z"/>
	<path d="M586.06,60.89c0.3,0,0.5,0.1,0.8,0.3C586.66,60.99,586.46,60.59,586.06,60.89z"/>
	<path d="M572.61,49.05c0.37,0.46,0.82,0.65,1.35,0.61C573.65,49.06,573.08,49.05,572.61,49.05z"/>
	<path d="M574.17,49.79c-0.04-0.18-0.07-0.13-0.2-0.13C574.05,49.79,573.95,49.75,574.17,49.79z"/>
	<path d="M231.48,17.14c-0.08-0.06-0.74-0.77-0.82-0.9C230.72,16.49,231.11,17.14,231.48,17.14z"/>
	<path d="M231.48,17.14c0.38,0.35,0.83,0.6,1.28,0.6C232.51,17.21,232,17.15,231.48,17.14z"/>
	<path d="M579.03,48.95c0.16,0.64,0.64,0.64,1.08,0.67C579.76,49.39,579.36,49.2,579.03,48.95z"/>
	<path d="M580.44,49.65c-0.56-0.11-0.24,0-0.1,0.1L580.44,49.65z"/>
	<path d="M577.63,48.35l-0.1,0.1C577.72,48.37,577.67,48.48,577.63,48.35z"/>
	<path d="M579.03,49.05c-0.28-0.65-0.81-0.77-1.36-0.63C577.9,48.95,578.46,49.05,579.03,49.05z"/>
	<path d="M226.44,33.3c0,0.3,0.1,0.6,0.1,1C227.05,33.8,226.55,33.6,226.44,33.3z"/>
	<path d="M205.07,85.37c-0.3,0.1-0.7,0.1-1.1,0.2C204.67,86.08,204.87,85.77,205.07,85.37z"/>
	<path d="M243.4,37.41c0.2,0.07,0.4,0.09,0.54,0.16C243.82,37.43,243.69,37.27,243.4,37.41z"/>
	<path d="M589.74,86.14c0.19,0.45,0.44,0.9,0.53,1.44C590.18,87.02,590.42,86.39,589.74,86.14z"/>
	<path d="M589.74,86.14c-0.09-0.22-0.07-0.15-0.17-0.25C589.57,86.13,589.54,86.06,589.74,86.14z"/>
	<path d="M596.79,38.82c0.2,0.1,0.5,0.1,0.7,0.3C597.29,38.92,597.19,38.52,596.79,38.82z"/>
	<path d="M593.48,38.41c-0.4,0-0.7,0-1-0.1C592.68,38.72,592.98,39.02,593.48,38.41z"/>
	<path d="M235.27,143.17c0-0.22,0.28-0.22-0.1-0.6C235.17,142.79,234.89,142.79,235.27,143.17z"/>
	<path d="M255.14,452.31c0.1,0.3,0.2,0,0-0.5C255.14,452.01,255.04,452.21,255.14,452.31z"/>
	<path d="M228.85,40.12c0.1,0.1,0.2,0.3,0.3,0.5C229.15,39.23,228.85,39.71,228.85,40.12z"/>
	<path d="M544.11,117.18l0.1,0.1c0.02-0.07,0.05-0.09,0.04-0.09c0.53,0.06,0.99-0.05,1.36-0.51c-0.57-0.1-1.13-0.09-1.36,0.51
		C544.25,117.19,544.21,117.2,544.11,117.18z"/>
	<path d="M282.73,266.78c0.1,0,0.1,0,0.2,0.1c0-0.1,0.1-0.2,0.1-0.3C282.92,266.24,282.73,266.22,282.73,266.78z"/>
	<path d="M569.6,44.54c0.4,0,0.6,0.1,0.8,0.3C570.3,44.54,570.1,44.23,569.6,44.54z"/>
	<path d="M239.79,22.16l0.1-0.1C239.73,22.06,239.75,22,239.79,22.16z"/>
	<path d="M238.39,21.36c0.28,0.56,0.74,0.68,1.37,0.69C239.53,21.27,238.96,21.26,238.39,21.36z"/>
	<path d="M241.24,22.6c-0.31-0.44-0.87-0.54-1.35-0.64C240.07,22.69,240.68,22.75,241.24,22.6z"/>
	<path d="M241.29,22.66c0.12,0.04,0.07,0.06,0.1-0.1C241.19,22.65,241.24,22.55,241.29,22.66z"/>
	<path d="M256.75,7.51c0.4,0.1,0.7,0.2,0.9,0.3C257.45,7.61,257.25,7.31,256.75,7.51z"/>
	<path d="M577.03,76.14c0.3-0.5-0.1-0.6-0.1-0.9C576.93,75.54,577.03,75.84,577.03,76.14z"/>
	<path d="M295.68,236.48l-0.1,0.3C295.84,236.78,295.8,236.86,295.68,236.48z"/>
	<path d="M244.88,24.96c0.39,0.49,0.86,0.42,1.33,0.61C245.85,25.12,245.41,24.93,244.88,24.96z"/>
	<path d="M244.88,24.96c-0.02-0.03-0.05-0.05-0.07-0.09C244.66,25.01,244.67,24.96,244.88,24.96z"/>
	<path d="M249.12,53.97c0,0.55,0.25,0.94,0.53,1.39C249.73,54.83,249.74,54.32,249.12,53.97z"/>
	<path d="M249.62,55.57l0.1-0.1C249.63,55.34,249.66,55.29,249.62,55.57z"/>
	<path d="M581.14,53.97c0.28,0.65,0.74,0.77,1.36,0.71C582.19,53.98,581.62,53.97,581.14,53.97z"/>
	<path d="M209.25,82.54c-0.62-0.13-1.09,0.06-1.46,0.52C208.36,83.17,208.94,83.17,209.25,82.54z"/>
	<path d="M209.39,82.56l-0.1-0.1C209.25,82.58,209.19,82.52,209.39,82.56z"/>
	<path d="M259.05,464.25c-0.1-0.1-0.2-0.2-0.2-0.2S258.95,464.15,259.05,464.25z"/>
	<path d="M232.77,44.74c-0.25-0.13-0.22-0.14-0.13,0.03c-0.1,0.1-0.12,0.06,0.16,0.1C232.72,44.76,232.67,44.84,232.77,44.74z"/>
	<path d="M232.8,44.87c0.26,0.23,0.49,0.42,0.57,0.67C233.37,45.13,233.16,44.93,232.8,44.87z"/>
	<path d="M571.81,48.35C571.81,48.25,571.61,48.05,571.81,48.35L571.81,48.35z"/>
	<path d="M572.05,48.43c0.18,0.22,0.38,0.41,0.46,0.72C572.51,48.76,572.32,48.55,572.05,48.43z"/>
	<path d="M571.81,48.35c0.36,0.09,0.25,0.16,0.1-0.1L571.81,48.35z"/>
	<path d="M580.44,49.65c0,0.1,0,0.2,0.1,0.3C580.54,49.85,580.44,49.75,580.44,49.65z"/>
	<path d="M247.52,52.36c0,0.1,0,0.2,0.1,0.3C247.62,52.46,247.52,52.36,247.52,52.36z"/>
	<path d="M247.72,52.56c0.16,0.16,0.37,0.37,0.56,0.56C248.2,52.8,247.96,52.64,247.72,52.56z"/>
	<path d="M248.46,53.39c-0.03-0.13-0.06-0.14-0.18-0.26C248.35,53.43,248.26,53.34,248.46,53.39z"/>
	<path d="M249.12,54.07c-0.09-0.36-0.27-0.62-0.66-0.68C248.57,53.71,248.77,53.89,249.12,54.07z"/>
	<path d="M578.23,59.69c0.1-0.5-0.2-0.7-0.7-0.7C577.53,59.49,577.83,59.69,578.23,59.69z"/>
	<path d="M578.33,59.69c0,0.46,0.18,0.66,0.6,0.69C578.97,59.88,578.7,59.69,578.33,59.69z"/>
	<path d="M578.93,60.49l0.1-0.1C578.86,60.39,578.97,60.33,578.93,60.49z"/>
	<path d="M230.56,16.34l0.1-0.1C230.4,16.11,230.43,16.08,230.56,16.34z"/>
	<path d="M241.4,19.25l-0.1-0.2c0,0.06,0,0.08,0,0.1c-0.03-0.03-0.55-0.27-1.41-0.7l-0.1,0.1c1.08,0.43,1.54,0.62,1.51,0.6
		C241.31,19.17,241.33,19.18,241.4,19.25z"/>
	<path d="M246.31,25.47c-0.13,0.13-0.14,0.06,0.1,0.3L246.31,25.47z"/>
	<path d="M240.41,30.36c-0.2-0.17-0.34-0.36-0.42-0.67C239.99,30.08,240.12,30.28,240.41,30.36z"/>
	<path d="M240.41,30.36c0.22,0.15,0.14,0.17,0.28,0.03C240.58,30.39,240.49,30.38,240.41,30.36z"/>
	<path d="M240.69,30.69c0-0.1-0.1-0.1-0.1-0.2C240.59,30.59,240.59,30.59,240.69,30.69z"/>
	<path d="M251.93,41.93c-0.14,0.14-0.15,0.12,0.1,0C252.17,41.78,252.18,41.8,251.93,41.93z"/>
	<path d="M273,136.85l-0.1-0.2C272.77,137.04,272.75,136.97,273,136.85z"/>
	<path d="M280.83,273.41c-0.13-0.25-0.07-0.26-0.2,0H280.83z"/>
	<path d="M288.86,292.17c0.1-0.3,0-0.4-0.3-0.4C288.55,292.13,288.86,292,288.86,292.17z"/>
	<path d="M641.54,321.27c0,0.03-0.02,0.07-0.02,0.11C641.7,321.38,641.65,321.38,641.54,321.27z"/>
	<path d="M640.84,321.97c0.45,0,0.65-0.25,0.68-0.59C641.1,321.41,640.84,321.6,640.84,321.97z"/>
	<path d="M579.63,61.07c0,0.04,0.01,0.08,0,0.12C579.74,61.09,579.78,61.07,579.63,61.07z"/>
	<path d="M579.03,60.39c0,0.36,0.25,0.63,0.6,0.68C579.66,60.65,579.39,60.39,579.03,60.39z"/>
	<path d="M265.37,60.17c0.15,0.27,0.03,0.14,0.21,0.32C265.49,60.32,265.49,60.29,265.37,60.17z"/>
	<path d="M580.39,61.84l0.05-0.05c-0.24-0.24-0.1-0.15-0.1,0.1C580.62,62.03,580.57,62.02,580.39,61.84z"/>
	<path d="M579.73,61.09c0.16,0.16,0.37,0.37,0.56,0.56C580.22,61.33,579.98,61.17,579.73,61.09z"/>
	<path d="M570,72.73c0-0.1,0-0.1-0.1-0.2C569.8,72.53,570,72.54,570,72.73z"/>
	<path d="M569.89,72.53c-0.03-0.04-0.06-0.07-0.09-0.1C569.8,72.52,569.87,72.53,569.89,72.53z"/>
	<path d="M258.25,79.05c0.13-0.13,0.13-0.07,0-0.2V79.05z"/>
	<path d="M573.31,80.36c0.1-0.1,0.09-0.1-0.1-0.1L573.31,80.36z"/>
	<path d="M573.38,80.27c0.2,0,0.37,0.01,0.53,0.09C573.73,79.91,573.55,80.02,573.38,80.27z"/>
	<path d="M574.02,80.26c0,0.37,0.18,0.64,0.6,0.68C574.65,80.52,574.39,80.26,574.02,80.26z"/>
	<path d="M574.62,80.94c0,0.04,0.01,0.08,0,0.12C574.72,80.96,574.76,80.94,574.62,80.94z"/>
	<path d="M587.65,83.34c-0.04-0.09-0.07-0.17-0.09-0.27C587.42,83.2,587.43,83.12,587.65,83.34z"/>
	<path d="M588.26,83.87c-0.23-0.15-0.41-0.35-0.61-0.53C587.77,83.6,587.96,83.79,588.26,83.87z"/>
	<path d="M207.28,83.84c0.35-0.11,0.6-0.31,0.6-0.67C207.52,83.26,207.26,83.44,207.28,83.84z"/>
	<path d="M207.18,83.87l0.1,0.1C207.25,83.81,207.35,83.82,207.18,83.87z"/>
	<path d="M546.2,115.91c0.04-0.01,0.07-0.02,0.12-0.03C546.19,115.74,546.23,115.74,546.2,115.91z"/>
	<path d="M546.2,115.91c-0.42,0.11-0.68,0.31-0.68,0.67C545.88,116.49,546.14,116.31,546.2,115.91z"/>
	<path d="M189.72,140.66l0.1,0.1C189.87,140.53,189.85,140.63,189.72,140.66z"/>
	<path d="M227.68,45.58c0.53,0.94,1.52,1.55,1.45,1.19C228.72,44.64,226.23,42.98,227.68,45.58z"/>
	<path d="M227.15,44.03c-0.04,0.04-0.07,0.07-0.1,0.1C227.21,44.13,227.19,44.31,227.15,44.03z"/>
	<path d="M225.64,42.03c0.04,0.01,0.07,0.03,0.1,0.05C225.74,41.98,225.75,42.03,225.64,42.03z"/>
	<path d="M628.83,323.2c0.14-2.94-0.07-2.39,0.4-3.1C628.27,321.34,627.55,322.56,628.83,323.2z"/>
	<path d="M592.98,163.44l-0.1,0.1C592.97,163.57,592.93,163.67,592.98,163.44z"/>
	<path d="M588.56,158.42c0.13,0,0.13,0.01,0.01-0.03C588.56,158.4,588.56,158.42,588.56,158.42z"/>
	<path d="M639.94,321.97l-0.1-0.1C639.84,322.03,639.75,321.92,639.94,321.97z"/>
	<path d="M635.89,282.36c0.15-0.77,0.18-0.53-0.05-0.91C635.88,281.76,635.89,282.26,635.89,282.36z"/>
	<path d="M634.12,299.09c-0.37,0.6-0.08,1.86-0.19,3.62C634.41,301.61,634.49,300.48,634.12,299.09z"/>
	<path d="M551.84,34.6l0.1,0.1C552.07,34.57,552.16,34.6,551.84,34.6z"/>
	<path d="M549.13,100.32l-0.1-0.1C549.03,100.39,549.04,100.29,549.13,100.32z"/>
	<path d="M349.58,540.1c-22.63,3.32-22.59,2.04-22.59,4.11c2.87,1.79,28.79-4.13,31.48-4.14
		C361.81,540.05,352.79,539.63,349.58,540.1z"/>
	<path d="M306.92,542.11c-1.51-0.19-3.01,0.2-4.51,0.41c1.18,0.88-0.79-0.14,17.76,3.21c1.01,0.18,2.01,0.5,3.11-0.1
		C322.43,544.36,321.5,543.91,306.92,542.11z"/>
	<path d="M326.88,546.63c-0.45-0.75-0.84-0.64-1.4-0.3c-1.84,3.69,2.83,11.39,3.61,19.57C330.11,557.38,326.34,549.91,326.88,546.63
		z"/>
	<path d="M328.59,569.2c-1.17,1.17,0.67,1.42,4.11,17.77C333.01,580.36,330.54,569.2,328.59,569.2z"/>
	<path d="M367.72,537.5c-0.08,0-0.15,0.17-0.22,0.33c-0.54,0.9,7.25,0.34,13.36-2.25C380.19,535.01,380.42,535.16,367.72,537.5z"/>
	<path d="M273.1,538.3c-4.74-0.33-8.16-0.79-13.04-0.7c-1.21,0.02,10.3,2.48,13.55,1.51C273.7,538.7,273.4,538.3,273.1,538.3z"/>
	<path d="M209.59,529.37c2.52,1.65,5.41,2.2,8.43,2.41c0.16-0.48,0.12-0.76-0.05-0.91C217.75,530.65,213.66,529.37,209.59,529.37z"
		/>
	<path d="M230.76,505.99c0.73,0,0.06,0.53,5.32-5.72c0.1-0.1,0-0.4-0.1-0.6C233.64,501.38,231.18,503.38,230.76,505.99z"/>
	<path d="M239.99,494.55c1.88-1.77,3.12-3.88,3.31-6.42c-1.3,2.01-2.71,4.11-4.11,6.12C239.59,494.35,239.89,494.55,239.99,494.55z"
		/>
	<path d="M190.52,526.76c-0.3-0.1-0.7,0-0.8,0.4c1.71,1,1.7,1.02,3.81,1.2c4.15,0.36,4.08,0.46,3.98-0.14
		C197.45,527.8,197.46,527.75,190.52,526.76z"/>
	<path d="M284.54,540.7c0,0.04,0.76,0.43,0.8,0.45c1.89,0.88,3.58,0.75,5.62,0.65C288.2,540.42,286.62,540.34,284.54,540.7z"/>
	<path d="M246.51,485.32c0.5-1.61,1.2-2.71,1.2-4.01C246.65,482.2,246.1,483.32,246.51,485.32z"/>
	<path d="M246.31,534.39c0.9,0.1,1.91,0.1,2.81,0.2C248.42,533.38,247.32,533.88,246.31,534.39z"/>
	<path d="M255.64,537.09c0.7,0.2,1.3,0.3,2.01,0C256.95,536.89,256.35,536.89,255.64,537.09z"/>
	<path d="M292.97,542.21c-0.6-0.6-1.28-0.29-1.91-0.5C291.56,542.41,292.27,542.31,292.97,542.21z"/>
	<path d="M333.75,593.92c0-0.85-1.01-1.37-0.7-0.08c0.11,0.47,0.54,0.49,0.79,0.62c0.1,0.04,0.09,0.05-0.03-0.07
		C333.65,594.23,333.75,594.39,333.75,593.92z"/>
	<path d="M333,592.98c0.03,0.01,0.05,0.02,0.08,0.03C333.12,592.84,333.13,592.86,333,592.98z"/>
	<path d="M332.95,592.91C333.02,593.03,333.01,592.94,332.95,592.91L332.95,592.91z"/>
	<path d="M332.93,592.87c-0.14-0.28-0.13-0.18-0.13-0.09c0,0.16-0.02,0.07,0.13,0.11c0.01,0,0.01,0.01,0.02,0.01
		C332.95,592.89,332.94,592.89,332.93,592.87z"/>
	<path d="M247.62,481.31c0.1-0.1,0.21-0.09,0.31-0.09C247.87,480.98,247.73,480.94,247.62,481.31z"/>
	<path d="M249.32,535.09c0.6-0.5,0-0.4-0.2-0.5C249.04,534.88,249.22,535.19,249.32,535.09z"/>
	<path d="M208.38,390.49c-1.47,2.37-1.34,4.93-1.2,16.36c0.02,1.26,0,2.19,1.1,3.11c0.19-3.21-0.6-5.92-0.6-9.53
		C207.68,397.09,208.7,394.1,208.38,390.49z"/>
	<path d="M219.12,358.89c-0.89,2.47-0.92,3.02-0.1,6.02C219.83,362.98,219.41,360.99,219.12,358.89z"/>
	<path d="M221.53,424.01c-0.7-0.6-0.9,0.2-1.3,0.8C221.13,424.82,221.43,424.52,221.53,424.01z"/>
	<path d="M235.98,358.19c-0.54,0-0.85,1.01-0.4,1.3C236.5,359.5,236.35,358.19,235.98,358.19z"/>
	<path d="M218.92,354.08c0.33-0.99-0.3-0.94-0.3-0.7C218.72,353.68,218.62,353.98,218.92,354.08z"/>
	<path d="M218.22,426.02c0,0,0.2-0.1,0.2-0.2C218.69,424.88,217.15,425.49,218.22,426.02z"/>
	<path d="M224.09,421.56c-0.14-0.35-0.54-0.07-0.24,0.33C224,422.01,224.22,421.77,224.09,421.56z"/>
	<path d="M216.81,458.43h-0.1C216.85,458.7,216.81,458.67,216.81,458.43z"/>
	<path d="M211.09,418.6c0-0.08,0-0.23,0-0.3C210.83,418.42,210.84,418.34,211.09,418.6z"/>
	<path d="M244.91,186.71c0.6-0.6,0.14-1.24-0.34-0.52C244.21,186.81,244.63,186.99,244.91,186.71z"/>
	<path d="M187.51,145.27c0.59-0.59,0.46-1.09,0.1-1.3c-0.57,0-0.62,0.65-0.4,1.2C187.32,145.07,187.41,145.17,187.51,145.27z"/>
	<path d="M189.35,140.78c-0.43,0.09-0.65,0.35-0.33,0.98C189.59,141.54,189.47,140.74,189.35,140.78z"/>
	<path d="M203.37,495.86c0.8-3.31,2.41-6.22,3.11-9.83c-1.4,1.3-1.8,2.8-2.41,4.11C203.21,492,202.03,494.52,203.37,495.86z"/>
	<path d="M209.89,479.1c1.15-0.29,1.39-1.17,1.3-2.35C211.19,476.64,210.38,476.88,209.89,479.1z"/>
	<path d="M207.98,483.07c0.06,0,0.26-0.02,0.35-0.11c0.21-0.21,0.15-0.65,0.35-0.85C208.07,482.11,207.35,483.07,207.98,483.07z"/>
	<path d="M207.98,483.07C207.98,483.07,207.98,483.07,207.98,483.07C207.96,483.07,207.96,483.07,207.98,483.07z"/>
	<path d="M208.58,482.01c0.13,0.13,0.1,0.15,0.1-0.09C208.64,481.95,208.62,481.99,208.58,482.01z"/>
	<path d="M208.69,481.66c0,0.72,0.46-0.44,0.7-1.05C208.78,480.75,208.69,481.2,208.69,481.66z"/>
	<path d="M210.09,479.2l-0.1-0.11C210.02,479.29,209.95,479.27,210.09,479.2z"/>
	<path d="M209.58,479.58c-0.25,0.3-0.41,1.08-0.19,0.96C210.14,480.15,210.3,478.71,209.58,479.58z"/>
	<path d="M210.99,49.71c0,5.14-0.52,9.47-0.36,9.92l-0.05-0.05c0,0.28-0.02,0.16,0.1,0.1l-0.03-0.03c0.02,0.01,0.05-0.01,0.1-0.09
		c4.26-6.49-1.26-31.61-3.28-44.43C206.01,25.27,210.99,36.79,210.99,49.71z"/>
	<path d="M214.91,13.43c1.2-1.3,1.61-3.21,3-4.4C216.05,10.09,215.58,10.38,214.91,13.43z"/>
	<path d="M216.81,46.84c0,0.67-0.38,0.15,0.1,1.1C216.81,47.34,216.81,47.14,216.81,46.84z"/>
	<path d="M215.31,54.77c0,0.81-0.03,0.7,0.1,0.7C215.41,54.67,215.45,54.77,215.31,54.77z"/>
	<path d="M216.11,51.86c0-0.7,0.03-0.6-0.1-0.6C216.01,51.96,215.98,51.86,216.11,51.86z"/>
	<path d="M214.77,14.05c0.12-0.35,0.19-0.52,0.23-0.58c-0.02,0.03-0.06,0.09-0.12,0.14C214.61,13.75,214.61,14.51,214.77,14.05z"/>
	<path d="M214.99,13.47C215.03,13.42,215.02,13.41,214.99,13.47L214.99,13.47z"/>
	<path d="M214.71,58.58c0-0.2-0.1-0.3-0.1-0.5C214.6,58.18,214.6,58.38,214.71,58.58z"/>
	<path d="M214,61.29c0-0.08,0-0.23,0-0.3C213.74,61.12,213.75,61.04,214,61.29z"/>
	<path d="M625.39,260.16c-0.4,0.7,0,2.78,0,3.81c-0.78,1.26-3.36,0.13-4.72,0.9c1.89,0.79,5.02-0.62,5.02,1.91
		c-0.51,1.26-4.64,0.65,0.5,1.3C626.58,264.47,626.84,262.34,625.39,260.16z"/>
	<path d="M597.98,518.31c0.32,0.12,0.79-0.02,1.53-0.38c-0.7-1.91-0.9-3.91-2.61-6.42C596.85,512.77,596.8,517.87,597.98,518.31z"/>
	<path d="M600.3,382.07c-2.34,3.98-0.39,8.21,1.71,6.12C600.91,386.39,600.81,384.28,600.3,382.07z"/>
	<path d="M604.42,413.08c-0.4,2.91-0.5,5.72,0,8.43C604.42,418.7,604.42,415.89,604.42,413.08z"/>
	<path d="M602.21,405.85c0.9-1.81-0.7-2.81-0.9-4.21C600.91,403.14,600.5,404.65,602.21,405.85z"/>
	<path d="M586.56,385.48c-0.1,0.6-0.49,1.11,0,1.61c0.9-0.9,0.9-0.9,0.7-3.31C586.56,384.18,586.76,384.88,586.56,385.48z"/>
	<path d="M622.08,275.31c0.7,0.9,0.7,0.9,2.41,0.9C623.78,275.51,623.08,275.01,622.08,275.31z"/>
	<path d="M553.85,305.61c6.06,0,2.94-1.01-0.1-0.4C553.32,305.4,553.5,305.53,553.85,305.61z"/>
	<path d="M603.62,430.33c0.5-0.8,0.5-1.61,0-2.61C603.21,428.73,603.11,429.43,603.62,430.33z"/>
	<path d="M599.3,376.85c0.7-0.1,0.9-0.4,0.5-1.1C599.4,376.05,599,376.35,599.3,376.85z"/>
	<path d="M595.55,507.43c0.04,0.09,0.09,0.17,0.15,0.26C596.86,505.42,594.69,505.56,595.55,507.43z"/>
	<path d="M562.98,280.73c0-1.39,0.03-1.2-0.1-1.2C562.88,280.92,562.85,280.73,562.98,280.73z"/>
	<path d="M621.48,304.51c0-0.6,0.1-1.1,0.3-1.51C621.07,303.41,621.17,303.91,621.48,304.51z"/>
	<path d="M599.9,372.14c-0.3,0.4-0.3,0.8-0.1,1.2C600.2,372.84,600.2,372.84,599.9,372.14z"/>
	<path d="M564.08,302.5c-0.2,0-0.4,0-0.6,0C563.68,302.71,563.88,302.6,564.08,302.5z"/>
	<path d="M567.61,301.41c-1.89,0.35-1.63,0.19-1.63,0.59c0.39,0,1.32,0.14,1.71,0.2C567.69,301.22,567.72,301.41,567.61,301.41z"/>
	<path d="M621.88,301.2c-0.31,2.14-0.22,1.74-0.08,1.53C622.16,302.17,622.35,301.84,621.88,301.2z"/>
	<path d="M622.78,299.59c0.1-0.7,0.2-1.2,0.3-1.61C622.68,298.39,622.28,298.79,622.78,299.59z"/>
	<path d="M562.28,275.91c0,0.2,0,0.5,0,0.7C562.48,276.62,562.33,276.02,562.28,275.91z"/>
	<path d="M623.37,297.3c-0.08-0.59-0.06,0.26-0.39,0.59C623.12,297.75,623.43,297.58,623.37,297.3z"/>
	<path d="M558.86,304.71c0.2,0,0.4-0.1,0.5-0.1C559.17,304.61,558.96,304.61,558.86,304.71z"/>
	<path d="M601.21,442.68c0,0.32,0.07,0.43,0.3,0.2C601.36,442.73,601.48,442.4,601.21,442.68z"/>
	<path d="M600.71,447.59c0.36-0.36,0.25-0.52,0-0.8C600.5,447.09,600.3,447.29,600.71,447.59z"/>
	<path d="M678.97,535.99c-1.36,0.25-1.23,1.84,0.18,1.84c4.88,0,24.3-3.48,29.02-4.34C702.42,532.21,684.7,534.94,678.97,535.99z"/>
	<path d="M653.02,535.58c-0.1,0.1,1.02,1.12,1.96,1c5.91-0.13,14.96,2.76,19.16,2.21C672.56,536.26,657.14,534.59,653.02,535.58z"/>
	<path d="M678.07,539.5c-0.68-0.46-1.09-0.28-1.36,0.05c-2.06,2.47,2.23,8.82,3.67,19.62C681.29,550.74,677.71,543.76,678.07,539.5z
		"/>
	<path d="M680.27,562.38c-1.72,0.29,0.04,0.8,3.41,17.36c0,0.2,0.1,0.2,0.5,0.8C684.07,577.23,682.57,563.76,680.27,562.38z"/>
	<path d="M731.25,528.47c-5.01,1.37-12.27,1.23-12.94,3.21c5.07-0.57,10.29-1.3,15.05-3.11
		C732.63,528.21,732.03,528.25,731.25,528.47z"/>
	<path d="M635.91,534.17c0,0.26,3.66,1.58,7.64,0.81C635.48,533.23,635.75,532.48,635.91,534.17z"/>
	<path d="M684.32,586.38c-1.1-0.8-0.6-0.52,0.17,1.28C684.7,586.96,684.81,586.74,684.32,586.38z"/>
	<path d="M710.98,532.88c0.25,0,0.2,0.03,0.2-0.1C711.03,532.85,711.07,532.83,710.98,532.88z"/>
	<path d="M645.96,535.69c-0.1-0.05-0.06-0.03-0.2-0.1C645.76,535.72,645.72,535.69,645.96,535.69z"/>
	<path d="M608.63,160.93c-2.76,0.92,0.52,4.69,3.71,5.72C610.94,164.14,610.34,162.13,608.63,160.93z"/>
	<path d="M622.78,206.48c0.4-1.91,0.1-2.41-3.71-4.82C619.87,203.77,619.87,203.77,622.78,206.48z"/>
	<path d="M579.13,185.91c1.49,0.75,1.47-1.69-0.6-3.01C578.13,184.21,578.73,185.11,579.13,185.91z"/>
	<path d="M596.99,148.89c1.15-1.13,1.08-1.19,0.8-3.41C596.95,147,596.87,146.99,596.99,148.89z"/>
	<path d="M615.34,209.29c-0.4-0.61-1.26-2.49-2.21-1.2C613.94,209.29,613.94,209.29,615.34,209.29z"/>
	<path d="M612.75,167.65c0,0.1-0.1,0.2-0.1,0.3c0.14,0.43,0.6,0.27,0.6,0C613.15,167.85,612.95,167.75,612.75,167.65z"/>
	<path d="M636.33,268.99c0-0.22,0.28-0.22-0.1-0.6C636.04,268.57,636.14,268.81,636.33,268.99z"/>
	<path d="M591.37,160.73c0.08,0,0.4-0.2,0.4-0.3C591.53,159.45,590.4,160.07,591.37,160.73z"/>
	<path d="M590.37,158.52c-0.11,0.84-0.07,1.15,0.7,1.4C591.17,159.32,591.17,158.72,590.37,158.52z"/>
	<path d="M575.32,174.17c-0.1-0.1-0.1-0.2-0.1-0.3C574.87,173.87,575.03,174.47,575.32,174.17z"/>
	<path d="M594.69,163.54v-0.1C594.39,163.29,594.44,163.29,594.69,163.54z"/>
	<path d="M545.42,450.9c0.2-3.21,0.5-5.62-0.1-8.43C544.61,445.66,544.64,447.12,545.42,450.9z"/>
	<path d="M557.88,466.22c1.67-0.44,1.69-0.6,1.79-2.47c-0.2,0.1-0.5,0.1-0.6,0.3C557.6,466.61,557.68,466.27,557.88,466.22z"/>
	<path d="M568.6,409.06c-0.3,0.2-0.2,0.5,0,0.8C568.9,409.56,568.9,409.36,568.6,409.06z"/>
	<path d="M564.08,459.19c1.15-0.38-0.05-1.93-0.1-0.06C563.98,459.28,563.97,459.23,564.08,459.19z"/>
	<path d="M563.28,460.54l0.1,0.1C563.33,460.45,563.4,460.54,563.28,460.54z"/>
	<path d="M564.08,459.23c-0.49,0.16-0.74,0.41-0.74,0.96C563.34,460.95,564.08,460.36,564.08,459.23z"/>
	<path d="M546.62,461.14c0.12-0.12,0.22-0.28,0.22-0.44C546.84,460.23,546.14,460.17,546.62,461.14z"/>
	<path d="M555.75,466.56c-0.1,0.1-0.2,0.1-0.3,0c0,0.1-0.1,0.1-0.1,0.2C555.45,466.76,555.75,466.87,555.75,466.56z"/>
	<path d="M563.38,460.74c-0.67,0.22-0.7,0.61-0.7,1.33C563.05,461.81,563.38,461.5,563.38,460.74z"/>
	<path d="M562.62,462.18c0.1,0.1,0.06,0.07,0.06-0.04c0-0.09,0.03-0.07-0.09,0.01l0.02,0.02
		C562.38,462.17,562.34,462.32,562.62,462.18z"/>
	<path d="M585.05,218.02c0.25-0.37,0.34-0.58-0.1-0.8C584.43,217.73,584.82,218.02,585.05,218.02z"/>
	<path d="M579.33,522.55c-1.4,1.71-2.11,4.62-2.11,9.23C578.23,530.07,578.83,527.56,579.33,522.55z"/>
	<path d="M548.03,538.6c0-0.2-0.3-0.3-0.8-0.6c-0.57,10.41,2.59,11.59,0.81,0.65C548.03,538.64,548.03,538.62,548.03,538.6z"/>
	<path d="M550.24,97.41c5.34-24.41,0.6-22.87-2.21-50.97c-1.19,6.71,0.33,15.07,2.01,22.88c3.59,16.73-1.45,27.65-0.9,30.9
		C550.26,99.47,550.01,98.43,550.24,97.41z"/>
	<path d="M555.45,44.03c0.77-0.77,1.32-1.58,1.38-2.64C555.76,41.89,555.55,42.85,555.45,44.03z"/>
	<path d="M556.86,41.22c0,0.06-0.02,0.13-0.02,0.17C557,41.34,556.97,41.34,556.86,41.22z"/>
	<path d="M555.85,84.67c0,0.7-0.03,0.6,0.1,0.6C555.95,84.57,555.99,84.67,555.85,84.67z"/>
	<path d="M556.56,81.76h0.1C556.66,81.28,556.56,80.53,556.56,81.76z"/>
	<path d="M544.93,64.7c0,0.95-0.06,1.63,0.62,2.05C545.64,65.9,545.66,65.16,544.93,64.7z"/>
	<path d="M545.53,66.78c0,0.13-0.07,0.15,0.07,0.25C545.64,66.81,545.53,66.71,545.53,66.78z"/>
	<path d="M555.25,88.88c0-0.82,0.06-0.7-0.2-0.7C555.05,89,555,88.88,555.25,88.88z"/>
	<path d="M554.35,90.89c0,0.3,0,0.5,0,0.7C554.71,91.41,554.56,91.2,554.35,90.89z"/>
	<path d="M544.83,64.81c0-0.06-0.11-0.87-0.11-1.01C544.11,64.3,544.62,64.4,544.83,64.81z"/>
	<path d="M555.53,44.05c-0.45,0.18-0.48,0.47-0.28,0.88C555.52,44.14,555.63,43.95,555.53,44.05z"/>
	<path d="M553.65,93.9c0.07,0,0.13,0,0.2,0C553.71,93.5,553.77,93.52,553.65,93.9z"/>
	<path d="M557.66,34.9c0.13-0.13,0.14-0.1-0.07-0.1c-0.78,0-0.63-0.03-0.59,0.08C557.1,34.88,557.17,35.39,557.66,34.9z"/>
	<path d="M552.04,34.8C552.04,34.7,551.64,35.1,552.04,34.8L552.04,34.8z"/>
	<path d="M561.67,39.52c0,0.1,0.1,0.1,0.1,0.2C561.92,39.72,562.2,40.04,561.67,39.52z"/>
	<path d="M557.82,40.27c0.1-0.07,0.2-0.13,0.24-0.15C557.89,40.12,557.89,40.13,557.82,40.27z"/>
	<path d="M557.76,40.36l0.01-0.02c0.01-0.02,0.03-0.05,0.05-0.07C557.56,40.48,557.72,40.44,557.76,40.36z"/>
	<path d="M557.35,40.56c-0.25,0.07-0.36,0.25-0.37,0.56c0.3,0,0.51-0.05,0.64-0.37C557.62,40.57,557.81,40.44,557.35,40.56z"/>
	<path d="M556.97,41.12c-0.14,0-0.13-0.02-0.01,0.1C556.96,41.21,556.97,41.23,556.97,41.12z"/>
<path fill="#e6e6e6" d="m206.8 163.6c0-5.1 4.1-9.2 9.3-9.2s9.2 4.2 9.2 9.2-4.1 9.2-9.3 9.2-9.2-4.1-9.2-9.2zm17.3-.1c0-4.5-3.5-8.2-8.2-8.2s-8.2 3.7-8.2 8.3c0 4.5 3.5 8.2 8.2 8.2s8.2-3.7 8.2-8.3zm-13 0c0-2.8 2.1-5.1 5.1-5.1 1.9 0 2.9.6 3.9 1.5l-1.4 1.7c-.8-.7-1.5-1.1-2.5-1.1-1.7 0-2.8 1.4-2.8 3.1s1.1 3 2.8 3c1.1 0 1.7-.5 2.5-1.1l1.4 1.4c-1.1 1.1-2.1 1.7-4 1.7-2.9 0-5-2.3-5-5.1z"/><path fill="#e6e6e6" d="m226.6 154.7h3.4l4.2 13.2 4.4-13.3h2.6l4.4 13.3 4.2-13.2h3.3l-6.2 18h-2.7l-4.4-12.8-4.4 12.8h-2.7z"/><path fill="#e6e6e6" d="m252.8 165.8c0-3.9 3.1-7 7.2-7 4.2 0 7.2 3.2 7.2 7s-3.1 7-7.3 7c-4 0-7.1-3.1-7.1-7zm11.3 0c0-2.3-1.7-4.3-4.2-4.3s-4.1 2-4.1 4.3 1.7 4.3 4.1 4.3c2.7.1 4.2-1.9 4.2-4.3z"/><path fill="#e6e6e6" d="m269.5 159.1h3.1v3c.8-2 2.4-3.4 4.8-3.3v3.2h-.2c-2.7 0-4.6 1.7-4.6 5.4v5.1h-3.1z"/><path fill="#e6e6e6" d="m279.1 153.9h3.1v11.1l5.6-6h3.8l-5.4 5.5 5.5 8h-3.5l-4.1-5.8-1.9 2v3.9h-3.1z"/><path fill="#e6e6e6" d="m291.7 165.8c0-3.9 3.1-7 7.2-7 4.2 0 7.2 3.2 7.2 7s-3.1 7-7.3 7c-4 0-7.1-3.1-7.1-7zm11.3 0c0-2.3-1.7-4.3-4.2-4.3s-4.1 2-4.1 4.3 1.7 4.3 4.1 4.3c2.6.1 4.2-1.9 4.2-4.3z"/><path fill="#e6e6e6" d="m308.2 167.6v-8.6h3.1v7.6c0 2.1 1.1 3.3 2.9 3.3s3-1.3 3-3.3v-7.6h3.1v13.4h-3.1v-2.1c-.8 1.3-2.1 2.3-4.2 2.3-3.1.2-4.8-1.8-4.8-5z"/><path fill="#e6e6e6" d="m323.9 168.8v-7.1h-1.7v-2.6h1.7v-3.7h3.1v3.7h3.6v2.6h-3.6v6.6c0 1.2.6 1.7 1.7 1.7.7 0 1.3-.2 1.9-.5v2.5c-.8.5-1.7.7-2.8.7-2.3 0-3.9-.9-3.9-3.9z"/><path fill="#e6e6e6" d="m333.2 154.7h3.2v15h9.4v2.9h-12.5v-17.9z"/><path fill="#e6e6e6" d="m356 172.5v-1.7c-.9 1.1-2.3 2-4.4 2-2.6 0-4.8-1.4-4.8-4.2 0-3 2.3-4.4 5.4-4.4 1.7 0 2.6.2 3.7.5v-.2c0-1.9-1.2-2.9-3.3-2.9-1.5 0-2.6.3-3.9.8l-.8-2.5c1.5-.7 2.9-1.1 5.1-1.1 4 0 5.9 2.1 5.9 5.7v8zm.1-5.6c-.8-.3-1.9-.5-3.1-.5-2 0-3.1.8-3.1 2.1s1.1 2 2.6 2c2 0 3.5-1.1 3.5-2.9z"/><path fill="#e6e6e6" d="m364.9 170.5v2.1h-3.1v-18.7h3.1v7.4c1-1.4 2.4-2.5 4.5-2.5 3.2 0 6.3 2.5 6.3 7s-3.1 7-6.3 7c-2.1 0-3.5-1.1-4.5-2.3zm7.7-4.7c0-2.6-1.7-4.3-3.9-4.3s-3.9 1.7-3.9 4.4c0 2.6 1.8 4.3 3.9 4.3s3.9-1.7 3.9-4.4z"/><path fill="#e6e6e6" d="m376.9 170.8 1.4-2.1c1.4 1.1 3 1.7 4.4 1.7s2.1-.5 2.1-1.5-1.3-1.4-2.8-1.8c-.1 0-.2-.1-.2-.1-2-.6-4.2-1.4-4.2-4s2.1-4.1 4.8-4.1c1.7 0 3.5.6 5 1.5l-1.2 2.2c-1.3-.8-2.6-1.3-3.8-1.3s-1.9.5-1.9 1.4 1.3 1.4 2.8 1.8c.1 0 .2.1.2.1 2 .6 4.2 1.5 4.2 4 0 2.9-2.2 4.2-5 4.2-1.9 0-4-.7-5.8-2z"/><path fill="#e6e6e6" d="m505.6 163.6c0-5.1 4.1-9.2 9.3-9.2s9.2 4.2 9.2 9.2-4.1 9.2-9.3 9.2-9.2-4.1-9.2-9.2zm17.4-.1c0-4.5-3.5-8.2-8.2-8.2s-8.2 3.7-8.2 8.3c0 4.5 3.5 8.2 8.2 8.2s8.2-3.7 8.2-8.3zm-13.1 0c0-2.8 2.1-5.1 5.1-5.1 1.9 0 2.9.6 3.9 1.5l-1.4 1.7c-.8-.7-1.5-1.1-2.5-1.1-1.7 0-2.8 1.4-2.8 3.1s1.1 3 2.8 3c1.1 0 1.7-.5 2.5-1.1l1.4 1.4c-1.1 1.1-2.1 1.7-4 1.7-2.9 0-5-2.3-5-5.1z"/><path fill="#e6e6e6" d="m525.4 154.7h3.4l4.2 13.2 4.4-13.3h2.6l4.4 13.3 4.2-13.2h3.3l-6.2 18h-2.7l-4.4-12.8-4.4 12.8h-2.7z"/><path fill="#e6e6e6" d="m551.7 165.8c0-3.9 3.1-7 7.2-7 4.2 0 7.2 3.2 7.2 7s-3.1 7-7.3 7c-4.1 0-7.1-3.1-7.1-7zm11.2 0c0-2.3-1.7-4.3-4.2-4.3s-4.1 2-4.1 4.3 1.7 4.3 4.1 4.3c2.7.1 4.2-1.9 4.2-4.3z"/><path fill="#e6e6e6" d="m568.3 159.1h3.1v3c.8-2 2.4-3.4 4.8-3.3v3.2h-.2c-2.7 0-4.6 1.7-4.6 5.4v5.1h-3.1z"/><path fill="#e6e6e6" d="m577.9 153.9h3.1v11.1l5.6-6h3.8l-5.4 5.5 5.5 8h-3.5l-4.1-5.8-1.9 2v3.9h-3.1z"/><path fill="#e6e6e6" d="m590.6 165.8c0-3.9 3.1-7 7.2-7 4.2 0 7.2 3.2 7.2 7s-3.1 7-7.3 7c-4.1 0-7.1-3.1-7.1-7zm11.2 0c0-2.3-1.7-4.3-4.2-4.3s-4.1 2-4.1 4.3 1.7 4.3 4.1 4.3c2.6.1 4.2-1.9 4.2-4.3z"/><path fill="#e6e6e6" d="m607 167.6v-8.6h3.1v7.6c0 2.1 1.1 3.3 2.9 3.3s3-1.3 3-3.3v-7.6h3.1v13.4h-3.1v-2.1c-.8 1.3-2.1 2.3-4.2 2.3-3 .2-4.8-1.8-4.8-5z"/><path fill="#e6e6e6" d="m622.7 168.8v-7.1h-1.7v-2.6h1.7v-3.7h3.1v3.7h3.6v2.6h-3.6v6.6c0 1.2.6 1.7 1.7 1.7.7 0 1.3-.2 1.9-.5v2.5c-.8.5-1.7.7-2.8.7-2.3 0-3.9-.9-3.9-3.9z"/><path fill="#e6e6e6" d="m632 154.7h3.2v15h9.4v2.9h-12.6z"/><path fill="#e6e6e6" d="m654.8 172.5v-1.7c-.9 1.1-2.3 2-4.4 2-2.6 0-4.8-1.4-4.8-4.2 0-3 2.3-4.4 5.4-4.4 1.7 0 2.6.2 3.7.5v-.2c0-1.9-1.2-2.9-3.3-2.9-1.5 0-2.6.3-3.9.8l-.8-2.5c1.5-.7 2.9-1.1 5.1-1.1 4 0 5.9 2.1 5.9 5.7v8zm.1-5.6c-.8-.3-1.9-.5-3.1-.5-2 0-3.1.8-3.1 2.1s1.1 2 2.6 2c2 0 3.5-1.1 3.5-2.9z"/><path fill="#e6e6e6" d="m663.7 170.5v2.1h-3.1v-18.7h3.1v7.4c1-1.4 2.4-2.5 4.5-2.5 3.2 0 6.3 2.5 6.3 7s-3.1 7-6.3 7c-2.1 0-3.5-1.1-4.5-2.3zm7.8-4.7c0-2.6-1.7-4.3-3.9-4.3-2.1 0-3.9 1.7-3.9 4.4 0 2.6 1.8 4.3 3.9 4.3s3.9-1.7 3.9-4.4z"/><path fill="#e6e6e6" d="m675.8 170.8 1.4-2.1c1.4 1.1 3 1.7 4.4 1.7s2.1-.5 2.1-1.5-1.3-1.4-2.8-1.8c-.1 0-.2-.1-.2-.1-2-.6-4.2-1.4-4.2-4s2.1-4.1 4.8-4.1c1.7 0 3.5.6 5 1.5l-1.2 2.2c-1.3-.8-2.6-1.3-3.8-1.3s-1.9.5-1.9 1.4 1.3 1.4 2.8 1.8c.1 0 .2.1.2.1 2 .6 4.2 1.5 4.2 4 0 2.9-2.2 4.2-5 4.2-2 0-4.1-.7-5.8-2z"/><path fill="#e6e6e6" d="m61 298.6c0-5.1 4.1-9.2 9.3-9.2s9.2 4.2 9.2 9.2-4.1 9.2-9.3 9.2c-5.1 0-9.2-4.2-9.2-9.2zm17.4-.1c0-4.5-3.5-8.2-8.2-8.2s-8.2 3.7-8.2 8.3c0 4.5 3.5 8.2 8.2 8.2s8.2-3.7 8.2-8.3zm-13.1-.1c0-2.8 2.1-5.1 5.1-5.1 1.9 0 2.9.6 3.9 1.5l-1.4 1.7c-.8-.7-1.5-1.1-2.5-1.1-1.7 0-2.8 1.4-2.8 3.1s1.1 3 2.8 3c1.1 0 1.7-.5 2.5-1.1l1.4 1.4c-1.1 1.1-2.1 1.7-4 1.7-2.8.1-5-2.2-5-5.1z"/><path fill="#e6e6e6" d="m80.9 289.7h3.4l4.2 13.2 4.4-13.3h2.6l4.4 13.3 4.2-13.2h3.3l-6.2 18h-2.7l-4.4-12.8-4.4 12.8h-2.7z"/><path fill="#e6e6e6" d="m107.1 300.8c0-3.9 3.1-7 7.2-7s7.2 3.2 7.2 7-3.1 7-7.3 7c-4 0-7.1-3.1-7.1-7zm11.3 0c0-2.3-1.7-4.3-4.2-4.3s-4.1 2-4.1 4.3 1.7 4.3 4.1 4.3c2.6.1 4.2-1.9 4.2-4.3z"/><path fill="#e6e6e6" d="m123.7 294h3.1v3c.8-2 2.4-3.4 4.8-3.3v3.2h-.2c-2.7 0-4.6 1.7-4.6 5.4v5.1h-3.1z"/><path fill="#e6e6e6" d="m133.4 288.9h3.1v11.1l5.6-6h3.8l-5.4 5.5 5.5 8h-3.5l-4.1-5.8-1.9 1.9v3.9h-3.1z"/><path fill="#e6e6e6" d="m146 300.8c0-3.9 3.1-7 7.2-7s7.2 3.2 7.2 7-3.1 7-7.3 7c-4.1 0-7.1-3.1-7.1-7zm11.2 0c0-2.3-1.7-4.3-4.2-4.3s-4.1 2-4.1 4.3 1.7 4.3 4.1 4.3c2.6.1 4.2-1.9 4.2-4.3z"/><path fill="#e6e6e6" d="m162.4 302.6v-8.6h3.1v7.6c0 2.1 1.1 3.3 2.9 3.3s3-1.3 3-3.3v-7.6h3.1v13.4h-3.1v-2.1c-.8 1.3-2.1 2.3-4.2 2.3-3 .2-4.8-1.8-4.8-5z"/><path fill="#e6e6e6" d="m178.1 303.8v-7.1h-1.7v-2.7h1.7v-3.7h3.1v3.7h3.6v2.6h-3.6v6.6c0 1.2.6 1.7 1.7 1.7.7 0 1.3-.2 1.9-.5v2.5c-.8.5-1.7.7-2.8.7-2.3.1-3.9-.9-3.9-3.8z"/><path fill="#e6e6e6" d="m187.4 289.7h3.2v15h9.4v2.9h-12.5v-17.9z"/><path fill="#e6e6e6" d="m210.2 307.5v-1.7c-.9 1.1-2.3 2-4.4 2-2.6 0-4.8-1.4-4.8-4.2 0-3 2.3-4.4 5.4-4.4 1.7 0 2.6.2 3.7.5v-.2c0-1.9-1.2-2.9-3.3-2.9-1.5 0-2.6.3-3.9.8l-.8-2.5c1.5-.7 2.9-1.1 5.1-1.1 4 0 5.9 2.1 5.9 5.7v8zm.1-5.6c-.8-.3-1.9-.5-3.1-.5-2 0-3.1.8-3.1 2.1s1.1 2 2.6 2c2 0 3.5-1.1 3.5-2.9z"/><path fill="#e6e6e6" d="m219.2 305.5v2.1h-3.1v-18.7h3.1v7.4c1-1.4 2.4-2.5 4.5-2.5 3.2 0 6.3 2.5 6.3 7s-3.1 7-6.3 7c-2.2 0-3.6-1.1-4.5-2.3zm7.7-4.7c0-2.6-1.7-4.3-3.9-4.3s-3.9 1.7-3.9 4.4c0 2.6 1.8 4.3 3.9 4.3s3.9-1.7 3.9-4.4z"/><path fill="#e6e6e6" d="m231.2 305.8 1.4-2.1c1.4 1.1 3 1.7 4.4 1.7s2.1-.5 2.1-1.5-1.3-1.4-2.8-1.8c-.1 0-.2-.1-.2-.1-2-.6-4.2-1.4-4.2-4s2.1-4.1 4.8-4.1c1.7 0 3.5.6 5 1.5l-1.2 2.2c-1.3-.8-2.6-1.3-3.8-1.3s-1.9.5-1.9 1.4 1.3 1.4 2.8 1.8c.1 0 .2.1.2.1 2 .6 4.2 1.5 4.2 4 0 2.9-2.2 4.2-5 4.2-2 0-4.1-.7-5.8-2z"/><path fill="#e6e6e6" d="m360.6 298.6c0-5.1 4.1-9.2 9.3-9.2s9.2 4.2 9.2 9.2-4.1 9.2-9.3 9.2-9.2-4.2-9.2-9.2zm17.4-.1c0-4.5-3.5-8.2-8.2-8.2s-8.2 3.7-8.2 8.3c0 4.5 3.5 8.2 8.2 8.2s8.2-3.7 8.2-8.3zm-13.1-.1c0-2.8 2.1-5.1 5.1-5.1 1.9 0 2.9.6 3.9 1.5l-1.4 1.7c-.8-.7-1.5-1.1-2.5-1.1-1.7 0-2.8 1.4-2.8 3.1s1.1 3 2.8 3c1.1 0 1.7-.5 2.5-1.1l1.4 1.4c-1.1 1.1-2.1 1.7-4 1.7-2.8.1-5-2.2-5-5.1z"/><path fill="#e6e6e6" d="m380.5 289.7h3.4l4.2 13.2 4.4-13.3h2.6l4.4 13.3 4.2-13.2h3.3l-6.2 18h-2.7l-4.4-12.8-4.4 12.8h-2.7z"/><path fill="#e6e6e6" d="m406.7 300.8c0-3.9 3.1-7 7.2-7 4.2 0 7.2 3.2 7.2 7s-3.1 7-7.3 7c-4.1 0-7.1-3.1-7.1-7zm11.3 0c0-2.3-1.7-4.3-4.2-4.3s-4.1 2-4.1 4.3 1.7 4.3 4.1 4.3c2.7.1 4.2-1.9 4.2-4.3z"/><path fill="#e6e6e6" d="m423.3 294h3.1v3c.8-2 2.4-3.4 4.8-3.3v3.2h-.2c-2.7 0-4.6 1.7-4.6 5.4v5.1h-3.1z"/><path fill="#e6e6e6" d="m433 288.9h3.1v11.1l5.6-6h3.8l-5.4 5.5 5.5 8h-3.5l-4.1-5.8-1.9 2v3.9h-3.1z"/><path fill="#e6e6e6" d="m445.6 300.8c0-3.9 3.1-7 7.2-7 4.2 0 7.2 3.2 7.2 7s-3.1 7-7.3 7c-4.1 0-7.1-3.1-7.1-7zm11.3 0c0-2.3-1.7-4.3-4.2-4.3s-4.1 2-4.1 4.3 1.7 4.3 4.1 4.3c2.6.1 4.2-1.9 4.2-4.3z"/><path fill="#e6e6e6" d="m462.1 302.6v-8.6h3.1v7.6c0 2.1 1.1 3.3 2.9 3.3s3-1.3 3-3.3v-7.6h3.1v13.4h-3.1v-2.1c-.8 1.3-2.1 2.3-4.2 2.3-3.1.2-4.8-1.8-4.8-5z"/><path fill="#e6e6e6" d="m477.8 303.8v-7.1h-1.8v-2.7h1.7v-3.7h3.1v3.7h3.6v2.6h-3.6v6.6c0 1.2.6 1.7 1.7 1.7.7 0 1.3-.2 1.9-.5v2.5c-.8.5-1.7.7-2.8.7-2.2.1-3.8-.9-3.8-3.8z"/><path fill="#e6e6e6" d="m487.1 289.7h3.2v15h9.4v2.9h-12.5v-17.9z"/><path fill="#e6e6e6" d="m509.9 307.5v-1.7c-.9 1.1-2.3 2-4.4 2-2.6 0-4.8-1.4-4.8-4.2 0-3 2.3-4.4 5.4-4.4 1.7 0 2.6.2 3.7.5v-.2c0-1.9-1.2-2.9-3.3-2.9-1.5 0-2.6.3-3.9.8l-.8-2.5c1.5-.7 2.9-1.1 5.1-1.1 4 0 5.9 2.1 5.9 5.7v8zm.1-5.6c-.8-.3-1.9-.5-3.1-.5-2 0-3.1.8-3.1 2.1s1.1 2 2.6 2c2 0 3.5-1.1 3.5-2.9z"/><path fill="#e6e6e6" d="m518.8 305.5v2.1h-3.1v-18.7h3.1v7.4c1-1.4 2.4-2.5 4.5-2.5 3.2 0 6.3 2.5 6.3 7s-3.1 7-6.3 7c-2.2 0-3.5-1.1-4.5-2.3zm7.7-4.7c0-2.6-1.7-4.3-3.9-4.3s-3.9 1.7-3.9 4.4c0 2.6 1.8 4.3 3.9 4.3s3.9-1.7 3.9-4.4z"/><path fill="#e6e6e6" d="m530.8 305.8 1.4-2.1c1.4 1.1 3 1.7 4.4 1.7s2.1-.5 2.1-1.5-1.3-1.4-2.8-1.8c-.1 0-.2-.1-.2-.1-2-.6-4.2-1.4-4.2-4s2.1-4.1 4.8-4.1c1.7 0 3.5.6 5 1.5l-1.2 2.2c-1.3-.8-2.6-1.3-3.8-1.3s-1.9.5-1.9 1.4 1.3 1.4 2.8 1.8c.1 0 .2.1.2.1 2 .6 4.2 1.5 4.2 4 0 2.9-2.2 4.2-5 4.2-1.9 0-4.1-.7-5.8-2z"/><path fill="#e6e6e6" d="m659.5 298.6c0-5.1 4.1-9.2 9.3-9.2s9.2 4.2 9.2 9.2-4.1 9.2-9.3 9.2-9.2-4.2-9.2-9.2zm17.3-.1c0-4.5-3.5-8.2-8.2-8.2s-8.2 3.7-8.2 8.3c0 4.5 3.5 8.2 8.2 8.2 4.8 0 8.2-3.7 8.2-8.3zm-13-.1c0-2.8 2.1-5.1 5.1-5.1 1.9 0 2.9.6 3.9 1.5l-1.4 1.7c-.8-.7-1.5-1.1-2.5-1.1-1.7 0-2.8 1.4-2.8 3.1s1.1 3 2.8 3c1.1 0 1.7-.5 2.5-1.1l1.4 1.4c-1.1 1.1-2.1 1.7-4 1.7-2.9.1-5-2.2-5-5.1z"/><path fill="#e6e6e6" d="m679.3 289.7h3.4l4.2 13.2 4.4-13.3h2.6l4.4 13.3 4.2-13.2h3.3l-6.2 18h-2.6l-4.4-12.8-4.4 12.8h-2.7z"/><path fill="#e6e6e6" d="m705.5 300.8c0-3.9 3.1-7 7.2-7 4.2 0 7.2 3.2 7.2 7s-3.1 7-7.3 7c-4 0-7.1-3.1-7.1-7zm11.3 0c0-2.3-1.7-4.3-4.2-4.3s-4.1 2-4.1 4.3 1.7 4.3 4.1 4.3c2.7.1 4.2-1.9 4.2-4.3z"/><path fill="#e6e6e6" d="m722.1 294h3.1v3c.8-2 2.4-3.4 4.8-3.3v3.2h-.2c-2.7 0-4.6 1.7-4.6 5.4v5.1h-3.1z"/><path fill="#e6e6e6" d="m731.8 288.9h3.1v11.1l5.6-6h3.8l-5.4 5.5 5.5 8h-3.5l-4.1-5.8-1.9 2v3.9h-3.1z"/><path fill="#e6e6e6" d="m744.4 300.8c0-3.9 3.1-7 7.2-7 4.2 0 7.2 3.2 7.2 7s-3.1 7-7.3 7c-4.1 0-7.1-3.1-7.1-7zm11.3 0c0-2.3-1.7-4.3-4.2-4.3s-4.1 2-4.1 4.3 1.7 4.3 4.1 4.3c2.6.1 4.2-1.9 4.2-4.3z"/><path fill="#e6e6e6" d="m760.9 302.6v-8.6h3.1v7.6c0 2.1 1.1 3.3 2.9 3.3s3-1.3 3-3.3v-7.6h3.1v13.4h-3.1v-2.1c-.8 1.3-2.1 2.3-4.2 2.3-3.1.2-4.8-1.8-4.8-5z"/><path fill="#e6e6e6" d="m776.6 303.8v-7.1h-1.7v-2.7h1.7v-3.7h3.1v3.7h3.6v2.6h-3.6v6.6c0 1.2.6 1.7 1.7 1.7.7 0 1.3-.2 1.9-.5v2.5c-.8.5-1.7.7-2.8.7-2.3.1-3.9-.9-3.9-3.8z"/><path fill="#e6e6e6" d="m785.9 289.7h3.2v15h9.4v2.9h-12.5v-17.9z"/><path fill="#e6e6e6" d="m808.7 307.5v-1.7c-.9 1.1-2.3 2-4.4 2-2.6 0-4.8-1.4-4.8-4.2 0-3 2.3-4.4 5.4-4.4 1.7 0 2.6.2 3.7.5v-.2c0-1.9-1.2-2.9-3.3-2.9-1.5 0-2.6.3-3.9.8l-.8-2.5c1.5-.7 2.9-1.1 5.1-1.1 4 0 5.9 2.1 5.9 5.7v8zm.1-5.6c-.8-.3-1.9-.5-3.1-.5-2 0-3.1.8-3.1 2.1s1.1 2 2.6 2c2 0 3.5-1.1 3.5-2.9z"/><path fill="#e6e6e6" d="m817.6 305.5v2.1h-3.1v-18.7h3.1v7.4c1-1.4 2.4-2.5 4.5-2.5 3.2 0 6.3 2.5 6.3 7s-3.1 7-6.3 7c-2.1 0-3.5-1.1-4.5-2.3zm7.7-4.7c0-2.6-1.7-4.3-3.9-4.3-2.1 0-3.9 1.7-3.9 4.4 0 2.6 1.8 4.3 3.9 4.3 2.2 0 3.9-1.7 3.9-4.4z"/><path fill="#e6e6e6" d="m829.6 305.8 1.4-2.1c1.4 1.1 3 1.7 4.4 1.7s2.1-.5 2.1-1.5-1.3-1.4-2.8-1.8c-.1 0-.2-.1-.2-.1-2-.6-4.2-1.4-4.2-4s2.1-4.1 4.8-4.1c1.7 0 3.5.6 5 1.5l-1.2 2.2c-1.3-.8-2.6-1.3-3.8-1.3s-1.9.5-1.9 1.4 1.3 1.4 2.8 1.8c.1 0 .2.1.2.1 2 .6 4.2 1.5 4.2 4 0 2.9-2.2 4.2-5 4.2-1.9 0-4-.7-5.8-2z"/><path fill="#e6e6e6" d="m206.3 434.2c0-5.1 4.1-9.2 9.3-9.2s9.2 4.2 9.2 9.2-4.1 9.2-9.3 9.2-9.2-4.1-9.2-9.2zm17.4-.1c0-4.5-3.5-8.2-8.2-8.2s-8.2 3.7-8.2 8.3c0 4.5 3.5 8.2 8.2 8.2s8.2-3.7 8.2-8.3zm-13.1-.1c0-2.8 2.1-5.1 5.1-5.1 1.9 0 2.9.6 3.9 1.5l-1.4 1.7c-.8-.7-1.5-1.1-2.5-1.1-1.7 0-2.8 1.4-2.8 3.1s1.1 3 2.8 3c1.1 0 1.7-.5 2.5-1.1l1.4 1.4c-1.1 1.1-2.1 1.7-4 1.7-2.9.1-5-2.2-5-5.1z"/><path fill="#e6e6e6" d="m226.1 425.3h3.4l4.2 13.2 4.4-13.3h2.6l4.4 13.3 4.2-13.2h3.3l-6.2 18h-2.7l-4.4-12.8-4.4 12.8h-2.7z"/><path fill="#e6e6e6" d="m252.4 436.4c0-3.9 3.1-7 7.2-7 4.2 0 7.2 3.2 7.2 7s-3.1 7-7.3 7c-4.1 0-7.1-3.1-7.1-7zm11.2 0c0-2.3-1.7-4.3-4.2-4.3s-4.1 2-4.1 4.3 1.7 4.3 4.1 4.3c2.7.1 4.2-1.9 4.2-4.3z"/><path fill="#e6e6e6" d="m269 429.7h3.1v3c.8-2 2.4-3.4 4.8-3.3v3.2h-.2c-2.7 0-4.6 1.7-4.6 5.4v5.1h-3.1z"/><path fill="#e6e6e6" d="m278.6 424.5h3.1v11.1l5.6-6h3.8l-5.4 5.5 5.5 8h-3.5l-4.1-5.8-1.9 2v3.9h-3.1z"/><path fill="#e6e6e6" d="m291.3 436.4c0-3.9 3.1-7 7.2-7 4.2 0 7.2 3.2 7.2 7s-3.1 7-7.3 7c-4.1 0-7.1-3.1-7.1-7zm11.2 0c0-2.3-1.7-4.3-4.2-4.3s-4.1 2-4.1 4.3 1.7 4.3 4.1 4.3c2.6.1 4.2-1.9 4.2-4.3z"/><path fill="#e6e6e6" d="m307.7 438.2v-8.6h3.1v7.6c0 2.1 1.1 3.3 2.9 3.3s3-1.3 3-3.3v-7.6h3.1v13.4h-3.1v-2.1c-.8 1.3-2.1 2.3-4.2 2.3-3 .2-4.8-1.8-4.8-5z"/><path fill="#e6e6e6" d="m323.4 439.4v-7.1h-1.7v-2.6h1.7v-3.7h3.1v3.7h3.6v2.6h-3.6v6.6c0 1.2.6 1.7 1.7 1.7.7 0 1.3-.2 1.9-.5v2.5c-.8.5-1.7.7-2.8.7-2.3 0-3.9-.9-3.9-3.9z"/><path fill="#e6e6e6" d="m332.7 425.3h3.2v15h9.4v2.9h-12.5v-17.9z"/><path fill="#e6e6e6" d="m355.5 443.1v-1.7c-.9 1.1-2.3 2-4.4 2-2.6 0-4.8-1.4-4.8-4.2 0-3 2.3-4.4 5.4-4.4 1.7 0 2.6.2 3.7.5v-.2c0-1.9-1.2-2.9-3.3-2.9-1.5 0-2.6.3-3.9.8l-.8-2.5c1.5-.7 2.9-1.1 5.1-1.1 4 0 5.9 2.1 5.9 5.7v8zm.1-5.6c-.8-.3-1.9-.5-3.1-.5-2 0-3.1.8-3.1 2.1s1.1 2 2.6 2c2 0 3.5-1.1 3.5-2.9z"/><path fill="#e6e6e6" d="m364.4 441.1v2.1h-3.1v-18.7h3.1v7.4c1-1.4 2.4-2.5 4.5-2.5 3.2 0 6.3 2.5 6.3 7s-3.1 7-6.3 7c-2.1 0-3.5-1.1-4.5-2.3zm7.7-4.7c0-2.6-1.7-4.3-3.9-4.3-2.1 0-3.9 1.7-3.9 4.4 0 2.6 1.8 4.3 3.9 4.3 2.2 0 3.9-1.7 3.9-4.4z"/><path fill="#e6e6e6" d="m376.5 441.4 1.4-2.1c1.4 1.1 3 1.7 4.4 1.7s2.1-.5 2.1-1.5-1.3-1.4-2.8-1.8c-.1 0-.2-.1-.2-.1-2-.6-4.2-1.4-4.2-4s2.1-4.1 4.8-4.1c1.7 0 3.5.6 5 1.5l-1.2 2.2c-1.3-.8-2.6-1.3-3.8-1.3s-1.9.5-1.9 1.4 1.3 1.4 2.8 1.8c.1 0 .2.1.2.1 2 .6 4.2 1.5 4.2 4 0 2.9-2.2 4.2-5 4.2-2 0-4.1-.7-5.8-2z"/><path fill="#e6e6e6" d="m505.1 434.2c0-5.1 4.1-9.2 9.3-9.2s9.2 4.2 9.2 9.2-4.1 9.2-9.3 9.2-9.2-4.1-9.2-9.2zm17.4-.1c0-4.5-3.5-8.2-8.2-8.2s-8.2 3.7-8.2 8.3c0 4.5 3.5 8.2 8.2 8.2s8.2-3.7 8.2-8.3zm-13.1-.1c0-2.8 2.1-5.1 5.1-5.1 1.9 0 2.9.6 3.9 1.5l-1.4 1.7c-.8-.7-1.5-1.1-2.5-1.1-1.7 0-2.8 1.4-2.8 3.1s1.1 3 2.8 3c1.1 0 1.7-.5 2.5-1.1l1.4 1.4c-1.1 1.1-2.1 1.7-4 1.7-2.9.1-5-2.2-5-5.1z"/><path fill="#e6e6e6" d="m525 425.3h3.4l4.2 13.2 4.4-13.3h2.6l4.4 13.3 4.2-13.2h3.3l-6.2 18h-2.7l-4.4-12.8-4.4 12.8h-2.7z"/><path fill="#e6e6e6" d="m551.2 436.4c0-3.9 3.1-7 7.2-7 4.2 0 7.2 3.2 7.2 7s-3.1 7-7.3 7c-4.1 0-7.1-3.1-7.1-7zm11.2 0c0-2.3-1.7-4.3-4.2-4.3s-4.1 2-4.1 4.3 1.7 4.3 4.1 4.3c2.7.1 4.2-1.9 4.2-4.3z"/><path fill="#e6e6e6" d="m567.8 429.7h3.1v3c.8-2 2.4-3.4 4.8-3.3v3.2h-.2c-2.7 0-4.6 1.7-4.6 5.4v5.1h-3.1z"/><path fill="#e6e6e6" d="m577.5 424.5h3.1v11.1l5.6-6h3.8l-5.4 5.5 5.5 8h-3.5l-4.1-5.8-1.9 2v3.9h-3.1z"/><path fill="#e6e6e6" d="m590.1 436.4c0-3.9 3.1-7 7.2-7 4.2 0 7.2 3.2 7.2 7s-3.1 7-7.3 7c-4.1 0-7.1-3.1-7.1-7zm11.2 0c0-2.3-1.7-4.3-4.2-4.3s-4.1 2-4.1 4.3 1.7 4.3 4.1 4.3c2.6.1 4.2-1.9 4.2-4.3z"/><path fill="#e6e6e6" d="m606.5 438.2v-8.6h3.1v7.6c0 2.1 1.1 3.3 2.9 3.3s3-1.3 3-3.3v-7.6h3.1v13.4h-3.1v-2.1c-.8 1.3-2.1 2.3-4.2 2.3-3 .2-4.8-1.8-4.8-5z"/><path fill="#e6e6e6" d="m622.2 439.4v-7.1h-1.7v-2.6h1.7v-3.7h3.1v3.7h3.6v2.6h-3.6v6.6c0 1.2.6 1.7 1.7 1.7.7 0 1.3-.2 1.9-.5v2.5c-.8.5-1.7.7-2.8.7-2.3 0-3.9-.9-3.9-3.9z"/><path fill="#e6e6e6" d="m631.5 425.3h3.2v15h9.4v2.9h-12.5v-17.9z"/><path fill="#e6e6e6" d="m654.3 443.1v-1.7c-.9 1.1-2.3 2-4.4 2-2.6 0-4.8-1.4-4.8-4.2 0-3 2.3-4.4 5.4-4.4 1.7 0 2.6.2 3.7.5v-.2c0-1.9-1.2-2.9-3.3-2.9-1.5 0-2.6.3-3.9.8l-.8-2.5c1.5-.7 2.9-1.1 5.1-1.1 4 0 5.9 2.1 5.9 5.7v8zm.1-5.6c-.8-.3-1.9-.5-3.1-.5-2 0-3.1.8-3.1 2.1s1.1 2 2.6 2c2 0 3.5-1.1 3.5-2.9z"/><path fill="#e6e6e6" d="m663.3 441.1v2.1h-3.1v-18.7h3.1v7.4c1-1.4 2.4-2.5 4.5-2.5 3.2 0 6.3 2.5 6.3 7s-3.1 7-6.3 7c-2.2 0-3.6-1.1-4.5-2.3zm7.7-4.7c0-2.6-1.7-4.3-3.9-4.3s-3.9 1.7-3.9 4.4c0 2.6 1.8 4.3 3.9 4.3s3.9-1.7 3.9-4.4z"/><path fill="#e6e6e6" d="m675.3 441.4 1.4-2.1c1.4 1.1 3 1.7 4.4 1.7s2.1-.5 2.1-1.5-1.3-1.4-2.8-1.8c-.1 0-.2-.1-.2-.1-2-.6-4.2-1.4-4.2-4s2.1-4.1 4.8-4.1c1.7 0 3.5.6 5 1.5l-1.2 2.2c-1.3-.8-2.6-1.3-3.8-1.3s-1.9.5-1.9 1.4 1.3 1.4 2.8 1.8c.1 0 .2.1.2.1 2 .6 4.2 1.5 4.2 4 0 2.9-2.2 4.2-5 4.2-2 0-4.1-.7-5.8-2z"/></g>
</svg>
