<?xml version="1.0" encoding="utf-8"?>
<!-- Generator: Adobe Illustrator 23.0.1, SVG Export Plug-In . SVG Version: 6.00 Build 0)  -->
<svg version="1.2" baseProfile="tiny" id="Layer_1" xmlns="http://www.w3.org/2000/svg" xmlns:xlink="http://www.w3.org/1999/xlink"
	 x="0px" y="0px" viewBox="0 0 900 600" xml:space="preserve">
<g>
	<path d="M589.31,319.22l-0.1-0.1C589.23,319.19,589.24,319.22,589.31,319.22z"/>
	<path d="M154.68,240.93c-7.09,19.98-2.32,34.8,6.68,43.8c10.89,7.08,7.03,5.56,35.1,5.56c9.41,0,5.34,0.23,9.2-2.93
		c2.73,0.51,5.36-0.39,8.09-0.91c3.64-0.69,6.57-5.56,6.47-8.4c-0.22-2.18-0.38-2.13-2.63-4.75c-0.56-8.44-13.29-5.24-9.1-16.99
		c6.22-17.45,23.01-18.12,20.13-27.11c-1.12-2.47-6.54-1.73,4.86-5.26c5.12-1.58,24.04,2.86,58.06-3.94
		c3.11,1.24,8.31,15.58,11.23,16.49c3.33,12.48-2.71,2.35,44.4-13.35c1.7,6.78,11.87,13.4,17.9,16.89
		c4.47,5.21,4.22-2.97,35.7-16.49c21.83-9.38,19.1-9.01,21.65-9.51c15.05-2.93,48.34-22.89,49.87-23.06
		c3.66-0.4,9.84-2.51,12.04-6.27c20.81-2.47,14.93-7.02,18.81-3.14c1.55,1.55,2.22-0.56,1.01,5.87c-4.15,4.96-8.09,15.27-2.93,25.89
		c-4.89,13.04-3.06,59.08,5.16,64.84c1.9,17.14,7.31,28.11,7.99,30.75c2.99,11.6,2.34,10.97,4.65,13.05
		c2.32,10.84,4.25,8.22,17.8,7.99c42.1-0.73,46.41,4.7,53.2-0.1c3.45,0,6.43,0.65,9.2-3.14c-0.51-0.2-0.91-0.4-1.42-0.71
		c-2.75-4.59,0.83,0.49-7.08-6.17l0.1,0.1c-6.57-2.15-1.98-5.8-6.27-7.79c-0.51,0.71-1.01,1.31-1.52,2.02c-0.85,0-2.54-2-4.96-1.52
		c-1.72-0.81-1.82-2.43-2.02-3.64c-0.91-0.51-1.21,0.3-1.82,0.4c-5.13-1.54-2.63-0.97-8.9,1.01c-0.78-0.24-9.87-2.09-11.63-4.65
		c-7.3-3.93-19.79,0.72-19.72-3.54c0-0.18,1.31-37.74,1.31-44.1c0-6.41,4.1-9.18,5.26-21.34c0.8-8.37,2.27-15.17,1.11-24.68
		c-2.72-22.34,1.87-11.56,5.06-22.15c10.54-35.09,3.18-34.22,10.42-33.68c6.26,0.46,11.84,3.19,24.68-0.91
		c8.05-2.57,30.55-16.49,32.97-32.87c0.22-1.51,1.11-2.63,1.82-3.74c3.38-1.45,1.2-1.37,2.43-4.65c4.73-12.69,1.03-20.14,12.64,4.75
		c-2.02,4.96-3.94,10.01-7.59,14.26c4.03,7.39-10.48,51.81-7.59,59.47c1.49,3.95,1.36,13.32,0.91,19.42
		c-3.98,3.19-12.36,42.86-20.23,65.64c-8.54,24.75-2.94,13.9-1.82,22.86c4.75,7.12,6.44,3.45,4.25,6.37
		c0.56,2.68,4.64,3.48,2.73,4.75c-2,2,2.24,1.71,3.24,1.92c5.17,5.75,1.48,2.25-1.52,3.74c0,1.71,7.27,1.05,9.91,4.65
		c-1.01,0.71-2.12,1.09-3.24,0.81c-11.44-2.92-4.21-4.28-14.36-9.2c-2.07-2.82,1.52-5.01-2.93-5.56c-0.84,0.56,0.61,1.08,0.4,1.92
		c-0.07,0.62,0.53,10.81,2.63,11.23c1.17-0.78,0.66-2.22,1.16-3.22c3.59,1,3.72,4.93,8.75,5.95c2.76,0.56,5.98,2.77,10.11,0.51
		c3.91-2.15-1.25-3.59-3.74-6.98c-1.42-1.92-3.94-2.83-4.86-5.56c1.82-0.1,3.44,0.4,5.06,0.51c1.62,3.03,4.45,5.16,6.57,7.89
		c0,5.25,0.97,2.52,7.89,0.1c3.25-1.62-6.15-7.05-6.37-9.31c-4.86-2.43-9.71-3.54-14.97-3.94c-2.44-5.5-7.35-2.57-8.09-10.01
		c-1.56-2.18-1.86-1.7-1.82-3.24c0-0.1,0.65-6.87,1.01-7.59c8.97-23.85,7.86-25.89,12.74-37.53c7.03-16.73,14.7-38.33,9.71-55.73
		c-1.15-4.01,1.06-6.82,0.81-13.45c-0.21-5.63,1.58-6.55,4.15-20.23c1.65-8.79,2.51-3.8,3.54-14.36c0.26-2.66,0.79-9.83-0.61-12.34
		c4.86-4.56,3.23-2.5,6.88-10.72c2.35-0.78,8.48,5.08,15.37-2.63c1.44-2.15,3.33-0.15,5.36-1.31c0.71-0.4,1.31-1.01,2.02-1.52
		c3.24,0.2,5.66-1.31,7.89-3.44c6.4,2.13,3.53,4.73,14.87-16.49c1.3-0.87,4.16,0.48,5.77-2.33c3.75-6.54,4.45-9.74,7.48-12.85
		c4.05-4.14-1-6.17,7.48-1.92c0.71-0.3,0.61-0.71,0.61-1.01c0-1.84,0.16,0.37,12.54,1.52c0.1-1.01-1.52-1.82-0.51-2.63
		c-0.51-1.11-1.92-0.71-2.23-1.82c0.76-0.76,4.7,1.98-1-3.14c2.38-0.22,5.99,2.15,7.07,0.2c0.48-2.39-5.27-2.04-8.29-8.09
		c-1.11-3.64-2.43-7.48-2.12-11.73c0.2-2.8-4.28-14.81-10.22-22.66c-5.63-7.44-4.68-4.25-7.18-8.09c-2.26-3.47-4.08-4.41-7.79-7.59
		c-0.71-1.01-0.1-2.23-1.42-3.34c-3.54-1.11-7.59-2.93-12.04-3.24c0.27-2.18,2.52-2.04,1.62-4.75c-1.92-0.1-2.33,2.02-3.84,2.53
		c-0.91-1.01-0.51-2.63-1.92-3.84c-1.31-0.61-3.34,0-4.35-1.72c-3.33,1.66-1.57,2.57-2.43,4.45c-0.81,0.61-1.52-0.3-2.33-0.3
		c-4.21,0-0.35,3.97,0,4.96c-4.81,1.94-15.02,4.34-16.18,6.68c-0.32,1.44,1.67,2.28-0.3,2.93c-0.58,0.33-3.28-1.24-7.38,6.07
		c-7.17,12.79-11.31,13.84-18.21,18.11c-9.35-6.75-27.97-7.36-27.21-2.02c2.28,3.7,23.47,4.66,27.82,9
		c5.67-1.47,8.88,4.79,13.53,2.21c-3.64,12.14-3.63,10.72-1.72,14.07c0.33,0.57-0.59,3.48-0.18,6.08c-0.93,0.8-5.41,9.71-5.46,9.81
		c-2.89,5.78-3.17,3.02-5.51,8.48c4.22-0.72,3.45-3.88,5.51-5.95c4.61-4.61,5.97-10.96,6.68-11.13c0.36,3.55-0.74,6.65-1.92,10.03
		c-0.19,0.55-0.21-0.02,0.91,1.39c5.53-9.55,9.51-13.95,7.69-16.29c-3.69-0.34-5.98,4.55-5.95-0.05c0.05-6.85-1.66-4.76,1.5-13.29
		c1.07-2.89,4.63-5.04,4.69-4.18c0.19,2.47-2.61,2.63-3.38,3.98c0,0.8-0.04,1.52-0.06,2.22c-0.07,2.65,0.59,3.44,0.7,5.87
		c0.07,1.58-0.57,2.29,1.58,3.15c1.14-1.28,4.4,0.48,3.74-2.83c-0.1-0.71-0.89-1.24-0.4-1.92c1.11-1.55,4.72,0.55,4.26-1.53
		c-0.54-2.44-1.49-4.97-1.12-7.17c-0.35-1.77-1.45-2.25-1.21-3.37c0-0.15,1.63-0.47,2.24,0.43c0.67,1.18,0.44,3.24,0.91,6.78
		c0,1.65,1.55,0.85,2.12,3.74c-2.4,5.67-5.39,6.19-8.75,14.21c-0.3,0.72,0.76,1.19,1.47,0.46c6.65-6.94-0.24-1.38,10.11-5.87
		c3.79-1.64,7.94-2.26,12.34-2.73c9.17-0.97,7.96,1.8,11.87-0.77c0.67,2.47,3.83,0.95,6.23,0.06c7.79,3.54,8.13,3.55,8.8,4.35
		c2.16,2.58,6.97,4.59,8.65,6.06c0.37,0.32-1.46,4.47-3.79,6.08c-0.68,0.47-2.44,4.65-4.75,8.9c-1.59,3.71-1.98,1.22-7.18,3.14
		c-0.42,4.4-4.85,8.24-7.08,15.78c-1.34,4.55-8.34-2.92-8.6-3.44c0.38-0.38,0.76-0.96,1.21-1.52c-1.45-0.58-2.21,0.03-2.93,1.21
		c-0.75,6.13,7.62,2.51-2.12,7.38c-3.87-2.58-5.08-2.63-7.59-5.06c-0.42-0.41-1.81,0.17-1.7,1.44c0.16,1.86,9.22,4.81,4.83,5.54
		c-1.84-0.61-2.39-1.5-3.44-1.11c-4.26,5.42-8.71,7.59-14.57,3.54c-0.93-3.1-1.06-4.77-3.03-6.88c-8.08-8.62-6.82-16.24-9.1-12.44
		c-6.32,0.26-9.7-3.56-14.87-0.61c-4.62,1.93-13.56,0.33-12.74,3.03c19.12,1.59,18.32-3.14,22.76,0.4
		c-1.26,14.76-8.4,22.51-8.4,24.68c0.43,3.4-14.53,21.87-32.77,25.79c-3.74,0.81-7.69,0.71-11.53,1.11
		c-2.87,0,10.01-10.75,13.76-16.99c1.46-1.46,1,0.61,2.23,0.3c0.61-0.4-0.2-1.21,0.4-1.62c11.65,3.74,26.41-15.11,32.06-25.49
		c3.4-6.23,1.94-11.12-0.51-5.36c-2.2,5.17-10.38,17.47-14.87,19.82c-0.66,0.35-2.52,5.97-14.46,8.7c-1.58,0.36-2.62-0.83-2.62-2.06
		c3.24-10.78,1.8-13.29,1.8-13.08c-2.91,9.41-2.37,8.41-2.94,5.2c-0.85-4.78,0.06-13.72,2.4-14.38c0.13,0-0.62-0.74-0.64-1.83
		c0-0.1,7.14-30.39-0.72-45.87c-3.32-6.55-6.99-20.55-6.94-20.65c0.3-0.48-0.4-0.81,5.52,1.74c3.23,1.39,5.2-1.24,4.89-1.46
		c-33.58-16.38-22.52-11.91-46.66-9.57c-5.03,0.49-6.04-1.73-12.14,0.71c-3.81,1.52-9.92,3.89-10.92,6.17
		c-1.18,2.67-3.43,2.86-10.32,10.62c-2.95,3.33-3.7,1.88-9,7.18c-4.33,4.33-7.87,8.95-18.21,21.85c-6.96,8.68-6.04,9.68-6.98,10.62
		c-12.9,12.9-9.53,7.73-24.48,16.59c-1.01,0.6-2.12,1.21-3.34,1.11c-0.54,1.68-1.68,2.59-3.19,3.2c1.14-2.76-1.92-3.06-2.48-6.94
		c-0.2-0.81,0.91-1.31,0.71-2.33c-0.3-0.1-0.61-0.4-0.91-0.3c-7.08,1.77-2.95,10.79,1.8,10.12c-10.97,5.75-7.16,3.23-7.06,3.23
		c-0.35-0.87,0.5-1.48,1.21-2.43c-0.78-1.17-1.69,0.48-3.34,2.12c-1.82-0.91-3.14-2.43-4.65-3.94c-0.81,2.83-0.51,3.44,3.03,6.68
		c-3.62,7.84-2.77,9.43-4.86,7.79c-5.98-4.71-5.72-5.12-6.57-4.75c2.43,5.06,6.27,9,9.51,12.64c0.74,1.48-1.44,4.91,4.86,0.71
		c3.34-2.23,2.11-0.43,1.52,10.92c-0.5,1.27-1.27,2.16-2.14,2.96c-0.48-4.45-0.87-2.45-2.41-2.96c0.2,0.61-0.2,0.81-0.71,0.81
		c-0.1,0-0.1,0.1-0.2,0.1c0-0.1,0.1-0.1,0.2-0.1c-0.1-0.61,0.3-0.71,0.71-0.81c1.35-1.79,1.04-0.68,0.1-1.62
		c0.59-2.07,0.7-1.54-0.1-3.14c0.51-1.01,1.82-1.11,2.53-2.23c-0.81-0.3-1.62-0.61-2.53-1.01c-4.72,2.58-2.5,2.88-1.72,4.05
		c0,2.25-0.69,2.68-0.4,4.55c0.11,0.7,0.32,6.6-1.72,9.1c-1.25,1.87,0.86,1.93,0.61,3.34c-32.16,8.58-24.54,7.84-13.15,4.86
		c16.82-4.41,11.73-3.21,11.73-0.61c0.91,5.26,2.73,10.22,5.46,15.07c-1.42,2.02-2.02,4.45-4.55,5.77c0.2,1.31-1.01,2.63,0.51,4.15
		c1.42-2.93,3.54-5.16,5.46-7.89c0.92,1.34,6.18,8.44,4.45,9.31c-4.48,1.7-5.03,3.7-10.42,8.6c1.83,2.43,7.57-3.78,15.68-4.96
		c3.24,1.62,6.68,3.24,10.52,4.05c-0.71,3.39-4.75,3.43-4.75,4.86c5.65-0.71,5.76-2.2,6.78-4.15c7.41,1.06,7.07,0.12-7.69,6.68
		c-14.49,6.44-9.42,5.35-21.75,9.1c-7.9,2.41-5.38,2.77-22.66,9.71c-23.24,9.34-29.82,16.18-33.28,17.9
		c-4.15-2.53-15.37-11.94-18.31-15.37c2.74-2.4,56.64-11.31,56.74-11.33c14.63-2.33,17-7.12,9.71-4.55
		c-12.46,4.38-31.94,4.53-38.54,6.78c-12.72,4.33-19.79,2.86-39.85,10.01c-10.43,3.72-18.35,8.15-24.48,10.22
		c-1.22,0.41-6.25,3.64-6.27,3.64c-1.99-1-3.27-8.05-15.78-24.28c-5.88-7.62-5.43-8.53-4.96-10.42c7.74-30.6,7.18-29.19,7.18-35.5
		c1.52-2.43,4.05-4.25,4.55-7.28c1.21-1.21,2.53-2.33,3.34-3.84c10.46-4.81,11.78-6.82,11.13-4.35c-4.7,17.75,1.77,6.61,1.31-2.12
		c0.73-2.02,11.92-6.71,14.06-7.48c28.4-10.32,24.68-12.44,24.68,0.2c1.31-3.64,2.33-7.38,2.33-11.33c1.49-3.09,5.06-4.9,8.19-5.46
		c7.43-1.33,4.08-6.47,11.53-7.99c7.02-1.43,4.07-2.77,8.29-1.72c5.92-6.82,22.66-15.5,28.93-15.58c7.14-0.09,17.41-3.58,24.88-6.37
		c8.99-3.36,2.86-0.69,21.04,4.45c1.69-0.34,2.33-2.13-2.12-3.64c-11.76-3.98-12.19-6.65-18.11-4.65
		c-9.71,3.27-14.43,6.04-16.99,6.27c-10.08,1.49-12.85,0.52-17.4,3.03c-4.25,2.35-8.69,1.8-15.88,9.1
		c-2.98,3.03-8.93,5.42-12.14,5.97c-7.07,1.21-8.81,6.08-10.11,7.38c-2.23,0.4-3.94,1.82-5.26,3.84
		c-9.73,0.81,0.79,3.77-22.25,10.42c-8.67,2.5-19.6,6.56-26.8,11.83c-4.92,3.6-7.25,3.5-9.41,5.56c-1.39,1.33-3.77,0.39-4.65,4.05
		c-1.25,5.16-5.52,9.38-5.26,11.73c-12.64,3.72-24.51-6.24-50.37,4.05c-4.68,1.86-30.89,20.04-34.79,21.34
		c-1.11,0.1-1.31-1.11-2.53-1.52c-14.87-2.59-16.42-8.59-26.1-5.36c-2.73,0.91-3.34,1.52-4.55,4.45c-2.24-0.17-5.69-4.12-9-0.81
		c-3.74,0-5.87,1.41-7.18,3.34c-6.87,10.11-5.21,17.2-6.17,21.34c-1.03,3.49,0.44,6.03,2.82,16.3
		C153.77,236.29,156.04,237.12,154.68,240.93z M619.45,311.84c3.47,5.33,8.68,6.32,3.14,7.18c-2.53-2.33-4.86-4.65-6.68-8.09
		C617.33,311.33,618.34,311.53,619.45,311.84z M705.23,63.42c0.26,0.13,0.26,0.07,0,0.2V63.42z M701.51,55.97
		c0.64-2.38,1.84,0.82,2.28,3.28C703.94,59.89,701.3,56.38,701.51,55.97z M596.7,42.79c-3.65-2.09-10.52-2.15-9.4-2.49
		c6.16-1.84,10.66-1.04,15.36,1.78C600.44,42.38,598.42,42.08,596.7,42.79z M629.73,35.95c0.62,0.04,0.59-0.08-0.5,1
		C629.12,36.45,628.94,35.89,629.73,35.95z M621.38,48.25c-0.66-1.32-1.41-2.36,3.44-1.62C624.21,48.34,622.71,47.84,621.38,48.25z
		 M623.5,41.77c0.89-1.81,1.82-0.99,1.82-0.1C624.7,42.18,624.11,42.27,623.5,41.77z M626.84,50.78c1.24-0.94,2.36-2.8,4.45-2.43
		C626.66,53.34,627.05,51.89,626.84,50.78z M631.39,48.24c0-0.12-0.03-0.29,0.2-0.29C631.52,48.08,631.46,48.17,631.39,48.24z
		 M633.72,58.87c-0.8,0.1-1.26,1.12-2.13,0.8c-1.07-1.6,0.35-2.67,4.35-6.88C636.53,59.17,636.6,58.5,633.72,58.87z M634.93,29.64
		c0,1.18-0.48,1.39-1.31,2.22c0.1-0.87,0.29-1.74,1.21-2.16c0.01,0,0.5-2.04,1.59-2.09C637.71,27.52,636.13,29.64,634.93,29.64z
		 M639.31,25.24c-0.09,0.04,0-0.35,0.13-0.32C640.05,25.04,639.43,25.2,639.31,25.24z M652.43,12.95c0.77-0.14,2.37,1.49-3.94,1.81
		C650,13.55,651.11,13.05,652.43,12.95z M645.35,35.81c0.25,0.13,0.24,0.08,0.08,0.16C645.32,36.02,645.35,36.06,645.35,35.81z
		 M644.64,29.33c0.53,0.4,0.42,0.81,0,0.81C644.34,29.84,644.54,29.54,644.64,29.33z M643.93,54.21c-0.51-0.61-0.91-1.01-1.52-1.72
		c2.93-1.31,2.93-1.21,3.24-0.71C645.45,52.8,644.94,53.61,643.93,54.21z M647.03,62.04c-1.18,0.87-1.37-0.08-0.32-0.18
		C647.48,61.86,647.57,61.65,647.03,62.04z M649.07,20.44c0.76-0.13,0.71,0.16,3.16,5.65C650.72,24.59,646.99,20.8,649.07,20.44z
		 M649.29,65.64c0.81-0.61,1.21-0.4,1.42,0.91C650,66.15,649.5,66.15,649.29,65.64z M652.11,49.33c-0.1,0.03,3.68-4.93,3.75-5.03
		c0.09-0.09,0.4,0,0.61,0C655.47,48,655.16,48.33,652.11,49.33z M655.2,62.64c-0.05,0.09-0.46,0.16,0.03-0.05
		C655.22,62.61,655.21,62.62,655.2,62.64z M655.41,62.42c0.5-0.92,1.16-1.39,2.88-1.02C657.5,62.55,656.61,62.54,655.41,62.42z
		 M671.04,47.44c-0.13,0.26-0.07,0.26-0.2,0H671.04z M660.62,60.59c0.16-0.08,0.27-0.16,0.4-0.24
		C661.03,60.72,661.05,60.92,660.62,60.59z M661.16,60.2c0.03-0.07,0.07-0.15,0.07-0.22C661.5,59.98,661.4,60.08,661.16,60.2z
		 M662.34,56.54c-0.2-1.21-0.2-1.21,0.61-1.62C663.34,55.63,663.04,56.14,662.34,56.54z M667.3,19.52
		c-0.51,1.53-1.16,0.95-2.53,2.33c-0.97,0.65-0.73,1.02-2.23-0.3C665.74,20.14,668.72,16.67,667.3,19.52z M668.6,12.03
		c-0.85,1.7-2.63,0.55-2.73,0.52c0.17-0.72,0.1-1.42,0.59-1.9C667.18,9.94,669.4,10.86,668.6,12.03z M669.91,65.45
		c0.04-0.04,0.06-0.05,0.02-0.01C669.97,65.44,669.95,65.44,669.91,65.45z M669.53,59.07c0.09-0.51,0.5-0.71,1-0.81
		C671.67,58.54,671.19,60.02,669.53,59.07z M673.67,28.12c-0.43,0-0.2-0.2-0.2-0.3C674.04,27.82,674.01,28,673.67,28.12z M680,27.99
		c-0.67,0.11-1.42-0.35-0.39-1.49C682.08,23.77,681.48,27.74,680,27.99z M683.38,32.27c-0.06-0.3-1.36-1.62,0.1-1.62
		C684.09,30.65,685.12,32.87,683.38,32.27z M686.92,25.49c-0.2-1.31-2.12-1.72-1.52-3.54C686.31,22.96,687.43,23.87,686.92,25.49z
		 M688.64,48.45c0.81,0.71,1.31,1.42,0.61,2.63C688.64,50.27,688.13,49.56,688.64,48.45z M690.26,61.5
		c-0.91-0.23-0.71-1.24-0.61-1.14C690.52,60.96,690.26,61.07,690.26,61.5z M691.47,54.01c0.1,0.1,0.28,0.44,0.3,0.51
		C691.38,54.52,691.22,54.4,691.47,54.01z M691.88,54.55c0.13,0.03,0.28,0.03,0.31,0.09C692.25,54.74,691.88,55.17,691.88,54.55z
		 M582.33,317c-0.43,0.24-0.84,0.3-1.27,0.08C578.9,315.96,581.19,315.85,582.33,317z M568.16,312.08c6.56-4.62,9.97,7.89-0.09,0.06
		C568.1,312.12,568.13,312.1,568.16,312.08z M553.13,32.2c1.48-0.77,3.62,0.46,7.45,0.98c6.43,0.87,7,3.63,8.5,6.37
		c0,0.49,0.75-0.79,9.5,21.64c7.31,18.74,2.12,37.96,2.12,38.75c-1.3,1.73-1.32,0.48-0.51,3.74c-0.69,4.82-0.71,3.66-2.63,5.26
		c-0.6,17.99-1.65,10.59,1.72,24.06c-1.78,3.24-9.15,8.11-12.24,13.96c-2.73,1.11-4.65,3.44-6.98,5.06
		c-9.37,1.56-7.38,2.12-7.18-6.57c0.13-5.9-0.72-10.99-0.2-14.06c3.1,0,7.49-5.36,9.9-7.17c1.02-2.37-0.06-1.21,1.62-2.33
		c5.95-2.8,5.29-7.33,7.18-11.13c0-3.02,19.24-27.29-2.94-66.85c-1.36-2.43-4.42-6.51-7.59-7.69
		C560.4,36.05,552.56,32.49,553.13,32.2z M522.45,36.82c16.02-7.54,4.75,0.4,27.21-4.65c10.91,7.27,9.97,2.39,15.27,13.15
		c6.27,18.83,18.93,20.03,7.48,53.91c-3.9,11.55-3.95,17.29-10.7,21.52c-0.67,0.42-1.41,0.66-1.84,1.44
		c0.56,1.11,0.75,0.84-0.3,1.08c-2.03,0.47-8.96,4.25-9.12,4.53c-1.67,2.93,0.75,14.35,0.53,20.18c-0.61,0.71-1.01,1.31-1.42,1.82
		c1.77,8.49-6.68,41.95-7.79,43.6c-1.96,0.52-3.34,1.33-3.34,3.84c-0.69,9.02,0.94,42.17-2.53,48.75c0.53,4.1-5.29,8.41-4.35,20.03
		c2.38,29.45-4.87,38.04,4.55,39.95c8.91,1.81,9.52-0.08,12.24,0.4c5.27,0.95,10.11,3.14,15.27,4.75c0.51,0.61,1,1.32,1.31,1.62
		c0.41,0.39,4.65,2.03,2.16,2.14c-0.1,0-2.37-0.18-2.37,0.65c0,3.2,11.89,1.75,17.09,5.3c1.72,1.17,3.12,1.77,12.34,5.46
		c-2.76,0.34-5.29,0.57-7.89-0.4c-8.18-3.05-12.32-2.8-17.09-7.38c-15.64,0-13.78-0.22-14.25,0.51c-1.8,2.78,8.51,2.33,11.82,2.33
		c1.92,0.81,2.73,1.92,3.34,2.63c4.25,1.82,8.7,1.82,13.25,3.94c-18.84,0.32-19.34-2.33-25.59-2.33c-29.3,0-31.26,3.79-34.29-0.1
		c-4.01-12.48-3.05-7.25-5.36-18.11c-2.87-13.44-5.88-16.57-6.57-22.66c-0.6-5.21-2.93-13.89-6.57-20.84
		c-3.57-29.16-2.67-25.74-3.64-30.24c3.99-13.97,0.48-32.57,3.94-40.16c5.59-12.25,0-22.29,0-27.71c0-23.21-3.43-5.89-2.43-29.13
		c0.44-10.16-0.57-24.83,5.87-40.96c6.72-16.85,0.26-9.21,6.47-22.76c-3.29-4.93-4.74,8.44-8.6,14.67
		c-9.26,14.94-5.13,16.21-10.32,7.38C500.09,47.02,519.01,43.14,522.45,36.82z M429.5,116.22c2.21-4.85,1.64-2.48,2.22-2.04
		c1.14,0.86,6.18-3.81,4.36-0.09C431.35,116.18,428.64,118.81,429.5,116.22z M434.96,119.66c-0.96,0.59-1.58,1.09-3.03,0.71
		C432.59,116.73,437.65,115.36,434.96,119.66z M430.42,119.7c0.58,1.85,0.12,2.37-2.24,2.08
		C427.08,120.12,430.42,119.6,430.42,119.7z M430.27,129.94c0.06-0.58,0.87-1.17,0.66-1.81c-0.12-0.35-3.07,0.55-3.65-2.62
		c0.88-0.88,1.86-0.86,2.73-0.91c0.44,0.55,0.3,4.44,1.92-1.52c3.73-3.73,3.09,1.74,1.82,6.47
		C431.63,130.22,430.14,131.28,430.27,129.94z M431.63,146.81c0.34-0.46,0.66-0.81,1.3-0.56c0.78,4.26,0.22,3.41-4.45,5.66
		C425.49,153.36,431.33,147.42,431.63,146.81z M426.97,146.26c4.14-1.04,3.66-1.34,2.88-0.3
		C426.66,150.23,426.28,148.09,426.97,146.26z M433.15,151.53c-1.33,2-5.82,5.08-5.93,5.07
		C423.89,155.83,431.08,151.79,433.15,151.53z M427.38,165.78c1.37-0.69-0.4-0.9,5.43-6.1c0.63-0.56,1.06-1.07,0.54-1.59
		c-1.98,0.71-3.26,2.47-6.37,4.65c-0.39,0.39-1.5-0.66-0.71-1.92c2.56-1.28,3.3-1.85,3.28-2.12c0.37,0,0.68,0.04,0.86-0.41
		c-0.24-0.24-0.73-0.22-0.89,0.33c-0.23-0.32-1.93-0.04-1.44-0.54c6.87-6.87,5.11-6.94,7.38,1.82c0.34,1.33,1.62,5.52,1.62,7.08
		c-3.25,1.62-3.68,0.8-4.35,2.02c1.63,0.48,8.24-1.7,4.05,3.54c0,0.99,0.42,0.38-0.3,1.82c-0.81,0.51-1.52,1.92-3.03,2.12
		C430.61,173.27,428.69,169.72,427.38,165.78z M435.16,178.73c0.55-1.91,4.73-7.94,5.56-2.12
		C437.85,178.91,435.63,181.97,435.16,178.73z M439.41,185.61c-4.88-0.66-0.92-6.59,2.12-7.38
		C444.48,183.02,446.7,180.59,439.41,185.61z M443.06,185.8c0.88-0.54,1.59-2.22,2.62-2.22
		C447.35,185.25,443.06,186.06,443.06,185.8z M445.48,189.65c-0.33-0.26-4.96-1.4,2.33-3.34c0.75-0.24,1.38-0.2,1.72,0.51
		c-0.4,1.11-1.42,0.91-2.12,1.11C446.88,187.93,446.1,189.33,445.48,189.65z M452.16,192.08c-0.1-0.04-5.63-1.83-4.33-1.83
		C451.08,190,454.24,188.73,452.16,192.08z M444.16,177.83c-3.47-6.32-1.46-8.74-2.12-11.32c0-0.18,5.24,1.07,10.95,0.09
		c9.55-1.63,0.2-0.21-12.27-2.33c-0.91-3.64-2.12-7.18-2.83-10.72c3.14-2.43,6.07-5.97,6.57-8.19c-8.3,6.64-7.55,6.41-7.59,4.05
		c-0.25-18.84,1.01-18.17,0.3-22.56c2.25-14.46,1.2-12.76,8-17.91c3.33-2.52,15.34-5.77,24.28-15.07
		c12.53-13.03,18.99-24.53,28.12-34.79c4.41-2.94-4.35,4.63-4.35,28.95c3.25,26.46,6.91,6.05,4.86,24.57c0,2.27-11.5,0.22-9.47,1.23
		c3.7,2.33,9.37,2.49,9.37,3.02c0.02,0.1,1.72,11.62,1.72,11.72c0,32.68,1.61,22.3,1.61,31.04c0,3.72-0.16,15.16,0.4,16.28
		c-8.54,6.41-21.82,4.04-23.25,7.38c0,1.96,4.05,1.94-9.82,4.36c-4.57,0.8-8.44,1-13.86-0.81
		C452.58,183.54,457.08,188.91,444.16,177.83z M456.61,190.16c13,0,1.73,4.08,1.73,0.91C457.93,190.45,456.69,191.26,456.61,190.16z
		 M207.89,266.21c10.39,8.67,5.87,4.73,6.86,7.46c0.01,0.03,1.14,1.42,1.53,2.12c2.27,4.18-3.37,7.24-8.18,7.41
		c0.68-1.6,0.58-3.52,1.82-5.06c3.27-4.67-5.01-11.35-11.94-12.34c-0.94-0.24-3.02,0.57-3.74-3.03c-1.2,0.45-2.41-0.21-2.26-0.36
		c4-3.23,0.74,7.85,7.62-6.52c6.42,2.93,0.61,1.35,0.61,3.64c1.34,3.13,4.61,1.93,5.13,2.8
		C206.94,265.04,197.72,263.5,207.89,266.21z M193.63,259.54c-2.43-0.71-2.43-0.71-2.33-1.01
		C194.26,256.31,194.34,259.54,193.63,259.54z M193.93,253.78c0.81-0.1,0.91,0.2,0.61,0.81
		C194.33,254.28,194.13,254.08,193.93,253.78z M200.91,250.54c0.6,0,1.28,0.72,1.62,1.11C199.23,252.31,200.36,250.68,200.91,250.54
		z M208.29,247.51c-4.33-0.72-7.27-0.52-5.06-2.73c2.58-3.01,1.26-1.74,7.59-0.51C210.39,245.01,208.76,247.51,208.29,247.51z
		 M226.7,229.01c-0.74,5.17-8.8,7.74-11.63,11.32c-3.66-1.22-3.64-1.25-5.06-1.72c-1.21-2.12,1.01-3.24,0.81-5.06
		c-1.52-1.82-1.4-4.57-3.54-6.27c-0.38-0.3-1.2-0.11-1.81-0.31c-1.94-0.65,0.81-1.83,2.05-1.77c1.29,0.06,1.02,2.68,5.32,3.91
		C222.18,231.8,223.73,227.74,226.7,229.01z M219.11,226.77c-2.57-0.5-5.26-0.1-7.48-2.33c7.91-1.58,6.94-1.44,7.79-0.81
		C218.71,224.45,219.52,225.36,219.11,226.77z M248.14,173.87c27.62-5.52,26.95,0.6,41.47-1.21c0.2,0,0.4,0.3,0.61,0.4
		c1.22,4.06-5.51,4.87-4.14,4.87c0.61,1,2.01,0.61,2.42,1.81c-2.73,7.79-4.05,16.08-5.97,24.07c2.83,5.2,4,7.8,7.79,12.64
		c-19.53,4.88-56.55,1.9-70.9,4.15c-23.33,3.65-19.4,7.14-24.07,5.56c-9.27-5.49-9-5.17-11.73-7.38
		c-3.29-2.67-2.02-10.11,3.03-15.16c2.22-2.22-4.55,10.02,7.79,21.13c0.51-0.2,0.91-0.4,1.31-0.61c0.3-0.19,0.93,0.28,1.11-0.61
		c-2.17-2.17-3.9-2.88-4.45-4.55c-0.88-2.68-1.82-7.98-1.01-9.61c2.73-0.73,5.2-1.35,7.29-3.24c-1.49,0.11-6.8,0.76-7.38,0.81
		c-0.59-3.04,1.78-6.27,1.92-6.27C226.16,190.38,229.22,177.65,248.14,173.87z M201.82,194.61c-2.33,1.56-4.71,1.88-7.29,2.56
		c-1.93,0.51-1.14-0.06-2.84-1.14c-1.74-1.1-2.69,0.35-4.22,0.11c-1.82-2.43-6.16-1.46-9.82-3.65
		C189.76,187.23,189.34,192.79,201.82,194.61z M153.98,214.43c4.54-17.33,0.51-18.37,13.25-21.85c4.28,1.43,7.71,5.36,11.73,5.77
		c1.73,0,1.98-1.52,3.03-1.62c6.39,1.6,0.97,3.86-2.02,8.9c-4.4,7.41,1.66,15.6,7.08,18.11c6.18,2.85,4.12,5.46,10.22,5.46
		c9.24,0,6.5-2.55,10.42,3.34c1.32,2.65-7.08,6.74-7.08,6.88c-5.54-0.17-4.86-1.11-11.33-4.35c-3.84-2.26-8.06,0.79-0.61,5.77
		c2.8,1.87,5.77,3.54,9.31,3.94c-1.31,5.58-2.86,1.22-13.15,1.22c-3.05,0,1.02,4.69,1.92,5.26c0.9,0.57,3.14,1.53,3.14,2.23
		c-14.24,1.9,5.08,4.85-2.67,5.23c-0.98,0.05-2.13-0.21-2.99,0.03c-2.67,2.67,4.22,3.3,5.06,4.05c-1.21,1.52-3.34,1.11-4.65,2.53
		c2.19,0.94,5.38,2.29,7.08,2.12c9.29,0,6.43,1.26,9.72,2.22c8.85,2.57,6.42,11.17,0.3,17.9c-6.31,0.46-7.07-0.29-8.93-0.49
		c-12.55-1.29-20.24,0.05-23.75-2.34c-5.34-3.63-9.6-4.8-12.24-12.74c-2.3-6.92-1.3-10.91-1.52-18.31
		c-0.48-16.5,7.19-13.52,0.4-23.26C153.41,218.98,152.81,218.87,153.98,214.43z"/>
	<path d="M588.6,318.51l-0.1-0.1C588.55,318.54,588.53,318.47,588.6,318.51z"/>
	<path d="M401.89,162.04c0.1-0.13,0.19-0.15-0.1-0.1L401.89,162.04z"/>
	<path d="M583.14,108.23l0.1-0.1C583.07,108.17,583.12,108.17,583.14,108.23z"/>
	<path d="M754.49,478.53c-3.78-2.16-5.8-3.12-7.79-6.68c-0.29-3.51-2.47-4.58-2.23-8.4c0.54-8.57-7.61-22.29-13.45-28.83
		c-1.95-1.95-3.41-2.32-5.16-5.06c-2.24-3.52-4.95-4.69-7.69-7.08c-1.61-2.3,3.53-3.13-13.65-6.37c0.3-1.62,2.23-2.43,2.02-4.15
		c-0.87-1.53-2.17,0.56-4.05,2.23c-0.91-1.11-0.61-2.73-1.92-3.84c-1.42-0.4-3.24-0.4-4.65-1.62c-2.8,1.68-1.31,2.3-2.02,4.45
		c-0.81,0.71-1.52-0.2-2.33-0.2c-4.2,0-0.4,3.74,0,4.96c-2.11,0.53-1.28-0.72-2.12-1.42c-3-1.5-12.45,2.58-17.2,5.46
		c-3.02,1.83-2.8,4.5-7.48,6.78c-6.66,3.24-2.65,5.5-14.87-0.51c-10.36-5.09-13.37-0.53-20.13-3.24c-3.66-1.47-6.91-0.24-23.36-5.26
		c-18.08-5.51-52.99-12.44-62.31,4.15c-3.54,6.29-1.09,8.96-21.04,12.54c-25.46,4.57-24.77,23.27-39.65,31.15
		c-8.27,4.96-2.67,2.38-21.04,13.86c-3.27,2.34-1.63,2.58-2.02,4.35c-0.61,0.81-1.31,1.62-1.92,2.43c-0.19,2.03-0.75,5.78-2.73,6.27
		c-0.91-2.02,0.51-3.54,1.01-5.16c-1.97-1.97-1.56,1.01-3.46,1.59c-0.61-3.31,10.51-14.7,12.87-17.06c0.63-0.63,5.59-7.69,9.15-7.69
		c0.57-1.32,2.18-1.26,2.31-1.52c0.33-0.5,0.83-0.61,1.43-0.61c0.27-0.67,0.8-0.72,1.5-0.72c0.27-0.91,1.9-1.24,3.21-2.02
		c0.25,0,0.58-1.31-0.91-1.31c-2.22,0-12.63,5.18-17.6,11.33c-2.94-1.58-11.26-5.73-14.51-4.98c-0.01-0.01-0.03-0.02-0.04-0.07
		l-0.1,0.1c0.11-0.02,0.15-0.02,0.15-0.02c0.83,1.32,6.57,3.13,9.35,4.36c10.15,4.48-3.58,2.75-11.13,25.39
		c-1.01,3.72-2.24,3.73-2.73,7.89c-0.2,1.11-0.28,2.33-0.51,3.44c-0.27,1.32-1.72,1.92-1.52,4.05c0.51,1.52,1.31,3.84,1.31,6.68
		c-1.11,2.12-0.4,4.86-1.01,7.69c-3.46,0.8-11.91,2.95-14.06,5.77c1.83,2.29-3.2-0.58,14.67-3.14c1.2,6.02-0.42,6.38,6.17,13.35
		c0.51,1.01-0.71,1.52-0.4,2.83c0.41,0.83,1.24,1.82,0.3,1.82c-6.92,0.99-17.03,4.55-48.25,4.55c-8.96,0,1.17,2.32-19.42-2.93
		c-3.72-1.24-2.55-2.28-9.1-3.54c-4.32-1.3-3.82-2.03,0-1.32c37.2,6.98,29.73,1.52,27.92,1.52c-25.37-1.81-34.29-5.97-39.85-5.97
		c-14.04,0-21.37-3.51-37.73-3.24c-23.88,0.4-23.2,2.11-30.85,1.72c-2.46-0.13-5.72,1.63-6.68,1.31c-1.78-1.11,0.16-2.31-5.06-21.04
		c-1.25-4.49-2.01-5.54-4.65-15.58c0-2.22,13.56-22.73,14.87-24.58c4.12-5.82,3.57-10.97,6.23-10.12c-0.79,1.59-1.74,3.35,0.04,3.35
		c2.17-0.43,1.18-2.5,7.99-7.69c5.32-4.05-1.04-2.88,8.29-3.94c3.87-0.44,7.91-3.57,2.43,3.74c-1.04,1.39-2.02,2.93-2.93,4.96
		c2.43-1.01,2.93-1.62,4.96-4.75c3.77-5.83-0.75-6.04,11.33-7.28c12.58-1.29,18.91-0.35,26.1-1.31c2.33-0.31,4.55-0.3,6.78,0.91
		c-0.5,2.29-2.06,4.38-2.22,6.77c1.48-0.17,4.55-7.15,5.25-8.89c4.25-4.06,10.19-1.74,13.76-2.73c2.36-1.57,4.98-4.45,10.72-3.54
		c3.53,0.35,5.62-0.92,6.78,1.01c9.05-5.09,26.61-7.18,32.37-5.46c11.9,3.55,25.66,1.59,31.56,2.43c1.01,1.01,2.12,2.23,3.34,3.54
		c0.3,0.61-0.83,1.12-0.4,1.92c1.22,2.32,2.23,0.38,8.4,3.94c1.01-0.2,1.92-0.4,2.93-0.61c5.47,1.58,9.21,2.04,10.32,7.59
		c2.68,1.79,4.84-7.79-6.78-9.81c-1.92-0.33-3.74-1.1-5.77-0.91c-2.23,0.21-8.63-6.35-8.9-6.68c-4.89-5.75-18.47-1.14-24.17-2.33
		c-11.94-2.49-14.59-3.8-18.91-2.83c-3.88,0.87-7.66-1.48-17.3,3.24c-4.54,2.23-11.92,2.32-14.87,1.92
		c-5.77-0.79-8.44,2.22-10.72,3.74c-4,0-2.47-0.36-6.47,1.82c-10.43-1.9,1.3,3.29-25.79,2.63c-7.23-0.18-18.5-0.12-25.39,2.02
		c-7.16,2.23-15.82,2.18-20.03,7.48c-0.4,0.51-0.61,1.11-1.52,1.31c-17.04-4.42-1.51-2.82-21.04-3.54c-9.01-0.33-4.5,2.08-11.43-0.4
		c-24.49-8.79-52.74,9.06-62.91,4.05c-6.5-3.2-5.37-1.95-7.08-4.35c-11.55-3.65-25.42-11.35-29.74-0.91
		c-2.67-0.21-1.75-2.02-7.59-2.02c-2.44,2.44-5.57,0.25-8.5,4.55c-6.87,10.11-5.21,17.2-6.17,21.34c-1.03,3.51,0.19,4.92,2.83,16.28
		c0.96,4.13,3.22,5.35,1.92,9c-9.52,26.81,3.01,47.91,18.21,49.26c7.79,0.69,8.27,0.1,23.57,0.1c9.22,0,5.24,0.31,9.2-2.93
		c2.63,0.51,5.26-0.39,7.99-0.91c3.64-0.69,6.57-5.56,6.47-8.4c-0.23-2.32-0.9-2.78-2.63-4.75c-0.87-8.39-13.56-5.71-9.41-16.59
		c2-5.25,4.77-12.22,10.32-13.15c1.11-0.81,1.21-2.02,2.02-3.03c13.21-9.73-5.12-1.15,62.41,11.13c4.35,13.64,2.42,16.68,4.96,19.22
		c-1.01,7.04,1.03,6.74,5.26,5.16c4.44-1.66,5.43-0.99,9.71-1.42c40.37-3.98,14.36-1.33,33.58,1.42
		c21.14,4.53,12.32-0.82,25.69,1.92c28.52,5.84,30.13,12.86,57.86,10.72c2.4-0.18,31.73-3.6,39.25-6.37c3.03,0.4,5.97,2.02,8.9,0.3
		c-0.18-0.89-0.33-1.78,0.4-1.42c19.37,11.84,16.39,4.54,21.04,11.23c17.68,25.43,11.62,14.85,27.92,38.13
		c6.5,4.33,25.9,1.85,27.71,1.21c3.19,1.52,15.96,2.41,19.52,2.33c4.61-0.11,7.43-1.39,10.01-1.62c1.08-0.09,14.11-1.02,15.17-0.81
		c3.43,0.69,6.46-3.7,8.4-4.75c0.3-1.82-0.81-2.82-1.92-2.93c-3.34-0.35-5.46-3.03-8.4-4.15c-1.78-7.14-2.82-14-4.65-6.68
		c-4.86,1.01-9.71-0.81-14.36,0.51c-7.49-2.81-4.1-2.78-7.53-5.07c0.36-0.01,0.74-0.03,1.15-0.09c8.85-8.85,9.41-4.51,9.41-15.78
		c1.52-1.21,3.34-1.62,4.55-3.03c0.81-4.04,1.72,0.16,18.61-5.66c1.26,2.16-0.38,1.5-1.72,19.62c-0.61,0.61-1.42,0.41-1.92,0
		c-2.13-1.71-4.75-1.62-7.28-2.12c-6.92,3.95-10.08-1.23-11.03,1.92c1.76,3.52,9.41,0.4,15.58,1.72c3.88,3.51,2.68,6.14,3.54,13.96
		c0.44,3.98,2.25,1.7,5.16,3.64c7.25-1.98,1.09,2.04,12.34,5.77c2.55,0.85,2.73,0.81,5.56-0.81c4.94,2.47,6.99-1.84,10.01-5.97
		c-1.11-5.36-2.53-6.68-7.89-7.79c-1.75,2.63,2.7,3,4.25,4.45c-2.03,3.38,1.33,1.81,0.91,3.64c-0.61,0.51-1.11,0.2-1.92,0
		c-0.91-3.34-4.35-4.96-5.66-8.09c-9.79-4.14-6.52-3.79-9.2-3.34c-2.33-1.31-4.86-2.43-5.97-5.16c-7.42-1.86-0.33-8.39-0.61-22.86
		c1.07-0.53,25.96-9.13,34.79-28.42c4.39-2.46,7.57-8.99,12.44-12.95c2.12,0.2,4.24,0.83,6.17,1.82c4.49,2.3,4.1,1.04,8.9,1.92
		c0.51,0.09,1.31-0.91,2.02-0.61c1.62,0.3,2.33,1.82,3.84,1.82c2.32,4.3,2.48,5.47,3.74,6.17c1.82,1.01,1.92,2.63,1.52,4.65
		c2.63,3.34,5.06,7.08,8.4,9.31c5.87,1.01,10.11-0.51,13.35-4.96c3.42,0,4.35,0.41,6.47-2.02c2.12,0.81,3.44-1.01,5.06-0.91
		c1.11-0.91,2.02-1.72,3.03-2.63c1.62,0.91,3.34,1.72,5.46,0.81c9.31-18.63,8.86-17.9,9.91-17.9c4.43,0.47,5.62-2.93,8.8-10.22
		c1.98-4.55,4.14-4.4,5.16-9.31c8.13,3.66,5.33,2.29,6.07,0.81c2.54,0,0.68,0.78,12.14,1.92c0.4-0.81-0.3-1.21-0.3-1.72
		c0-2.44-1.81-1.24-2.43-2.63c0.2-0.4,0.61-0.2,0.91-0.1c3.05,0-0.71-0.99-0.71-2.73c-0.57,0.29-1.01-0.4-0.91-0.4
		c0.3-0.01,0.8-0.4,0.9-0.1c1.21-0.3,2.33,0.2,3.54,0.4C755.15,480.8,755.66,479.41,754.49,478.53z M298.62,467
		c0.32-0.32,0.59,0.2,0,0.2C298.62,467.13,298.62,467.07,298.62,467z M285.26,462.95c4.54-0.21,6.09,1.64,10.82,2.82
		c-3.94,2.21-2.54,2.9-3.94,3.14c-5.15-0.2-9.69-2.52-14.74-5.64C277.3,463.16,276.67,463.34,285.26,462.95z M180.48,456.68
		c5.62,1.12,15.9,4.11,19.22,8.8c-12.01-0.4-6.78-0.22-9.47-1.46c-2.79-1.29-6.58,8.53-7.33,8.71c-0.88,0.29,0.73-4.79,0.82-5.33
		c0.55-3.3,4.31-5.09,0.89-5.02c-0.47,0.01-2.61,0.53-2.71,0.57C178.77,458.89,162.67,461.3,180.48,456.68z M182.09,488.24
		c-7.01-1.75-8.82-10.6-1.11-18.31c0,0.1,0.05,8.95-0.1,9.31C179.43,482.63,182.51,487.49,182.09,488.24z M196.26,553.99
		c-2.67,0.3-5.17,0.32-7.8-0.11c-8.16-1.35-39.04,3.91-39.04-24.78c0-12.59-0.5-16.46,1.82-20.84c1.85-2.77,2.14-7.33-1.11-10.82
		c-0.34-0.68-1.82-7.65-2.43-10.62c-1.15-5.56,2.93-9.96,2.93-18.91c2.08-7.48,5.42-7.2,10.62-8.8c4.36,1.45,7.66,5.25,12.44,5.87
		c1.08,0,1.22-1.52,2.23-1.72c6.77,1.36,1.53,3.69-1.72,8.9c-4.63,7.43,1.44,15.4,6.57,18c7.71,3.91,4.3,5.66,11.73,5.66
		c1.27,0,2.41-0.3,3.84,0.4c-0.19,5.39,9.69,4.13-1.6,9.8c-6.52,0-8.8-4.25-13.06-5.08c-7.06-1.36-0.28,8.68,10,10.35
		c0.84,0,0.2,2.18-0.99,2.91c-0.53,0.53-8.07-2.28-12.76-1.29c1.01,3.64,1.72,4.45,6.57,7.08c-6.6,1.3-5.55,0.87-5.55,2.24
		c1.31,1.11,2.83,2.02,4.45,2.63c-1.48,1.09-3.22,0.4-4.86,0.61c-2.16,2.89,3.28,3.11,5.26,4.15c-2.92,2.19-4.66,1.04-4.45,2.73
		c1.6,0.15,4.41,1.93,6.47,1.72c8.78-0.38,6.84,1.53,10.01,2.33c0.81,0.2,1.52,0.6,2.23,1.11C204.63,542.3,201,546.76,196.26,553.99
		z M195.14,517.06c0.61,0.3,1.11,0.61,1.62,1.01C195.41,518.98,193.38,518.47,195.14,517.06z M187.86,526.17
		c-0.74-0.18-1.65-0.51-2.63-0.71C187.27,523.42,189.09,524.94,187.86,526.17z M188.19,529.37c-0.7,0.32-1.54,0.13-2.05-0.26
		C187.64,527.61,188.39,528.59,188.19,529.37z M188.54,520.39c0.26,0.01,0.41,0.35,0.23,0.71
		C188.77,521.32,187.68,520.38,188.54,520.39z M209.01,538.52c0.1,0.71-0.4,1.21,0,1.82c4.93,5.52-1.25,9.19-6.79,9.4
		c0.71-1.72,0.61-3.54,1.82-5.06c2.98-4.25-4.2-11.23-11.94-12.34c-1.32-0.33-2.57,0.65-3.63-2.67c-0.11-0.43,0.72,0.51,2.11-0.76
		c0.4-2.12,1.92-4.25,2.93-6.57c3.62,1.81,3.81,1.28,1.49,2.71c-2.03,1.25,0.46,3.46,4.09,3.46c0.78,0.65,0.72,1.28,0.3,1.58
		c-0.67,0.42-1.88-0.03-2.23,1.15C202.91,532.92,201.02,531.62,209.01,538.52z M202.73,514.03c-4.81-0.72-9.08-0.47-2.94-4.86
		c1.52,1.11,3.34,1.21,5.16,1.62C204.45,512.21,203.64,513.22,202.73,514.03z M208.7,506.75c-0.45-0.12-6.05-1.63-4.86-2.23
		c2.07-0.8,4.16,0.4,6.27,0.4C210.6,504.93,210.05,506.75,208.7,506.75z M207.48,497.75c-1.45,2.89-0.25,2.87-1.36,3.12
		C204.38,500.86,201.44,494.76,207.48,497.75z M274.24,513.93c-15.14-3.24-20.21-3.96-54.32-15.17
		c-17.84-5.87-15.22-3.28-20.84-5.56c-5.69-5.69-4.09,4.26-12.95-2.63c-0.5-0.71-2.12-3.38-2.45-4.15
		c-0.62-1.46-0.24-7.16,1.84-10.82c15.46,0,2.07-1.85,0.71-2.53c2.43-7.65,6.77-4.69,12.14-4.96c5.06-0.25,10.01-0.61,15.27-0.91
		c3.31-2.29,4.29-1.14,15.98-4.75c14.72-4.55,35.17-2.32,48.65,5.36c9.8,5.58,12.97,3.94,12.61,5.04c-0.95,2.93-2.78,2.95-5.43,3.36
		c0,1.12,1.21,1.22,1.62,2.12c0,0.1-12.94,18.79-13.45,21.54C275.37,513.74,278.23,514.5,274.24,513.93z M331.06,539.03
		c-1.89-0.18-0.19-1.44,0.93-0.32C331.69,538.96,331.38,539.06,331.06,539.03z M334.83,539.22c3.64,0.4,7.38,0.1,10.92,1.52
		C342.01,541.14,338.27,541.24,334.83,539.22z M401.08,552.36c0.4-0.3,0.91-0.2,1.72,0C401.99,552.57,401.48,552.67,401.08,552.36z
		 M406.23,552.59c-2.11,0.38-1.54-1.03,0.52-0.12C406.57,552.52,406.4,552.56,406.23,552.59z M729.05,462.89
		c0.18-0.48,0.76-0.2,0.76,0.47C729.81,464.02,728.83,463.47,729.05,462.89z M728.19,470.33c-0.66-0.44-0.75-0.51-1.02-1.07
		C726.42,467.68,727.91,468.98,728.19,470.33z M726.47,457.29c0.4,0.51,0.61,1.01,0.71,2.02
		C726.06,458.5,726.06,458.5,726.47,457.29z M724.54,434.63c-2.41-2.41-2.42-2.42-2.53-4.06
		C723.67,431.44,723.95,432.83,724.54,434.63z M719.89,439.18c1.21,0.4,1.52,1.01,1.21,2.23
		C720.08,440.9,719.58,440.36,719.89,439.18z M717.77,434.43c0.86,1.72-0.54,2.92-2.12,2.12
		C716.15,435.64,716.76,434.83,717.77,434.43z M708.07,456.25c0-0.15,0.67-0.16,0.09,0.42
		C707.89,456.41,708.02,456.35,708.07,456.25z M708.16,467.2c0.01,0.01,0.86,0.64,1.42,1.01c-1.2,0.09-1.74,0.72-2.53,0.4
		C706.95,467.81,707.35,467.4,708.16,467.2z M707.41,474.5c0.09-0.14,0.3-0.27,0.46-0.12C708.42,474.6,707.18,474.85,707.41,474.5z
		 M703.2,419.56c2.1-0.38,3.26,1.54,0.9,2.32C702.92,422.27,702.03,421.42,703.2,419.56z M703.91,427.85
		c-0.14,0.9-0.2,1.15-0.93,1.88c-1.92,1.92-2.64,2.91-3.72,0.95C700.56,430.39,703.91,427.93,703.91,427.85z M700.68,464.73
		c-0.02,0.67-0.94,2.06-1.01,0.28C699.64,464.3,700.72,463.29,700.68,464.73z M698.75,469.32c0.81,0-0.3,1.46-0.3,0.51
		C698.45,469.63,698.75,469.42,698.75,469.32z M696.02,470.74c-0.71,1.31-2.02,1.01-3.14,1.21
		C693.8,471.14,694.61,470.23,696.02,470.74z M693.09,453.75c1.85-1.86-0.15,5.59-3.74,5.36
		C690.76,457.08,691.88,455.36,693.09,453.75z M689.94,422.19c0.1,0,0.17,1.24-0.7,1.42C684.07,425.55,686.11,422.19,689.94,422.19z
		 M689.14,435.84c-0.17,0-0.26-0.08-0.22-0.29C689.19,435.59,689.14,435.65,689.14,435.84z M686.52,429.98
		c0.6,1.77,1.85,3.37,2.29,5.41C688.13,435.15,683.05,429.28,686.52,429.98z M688.44,476.2c-0.36-0.58-1.11-0.39-1.21-1.31
		C688.11,474.74,688.53,474.87,688.44,476.2z M683.68,420.87C684.47,420.09,685.38,420.87,683.68,420.87
		c-0.56,0.66-1.2,0.71-1.94,0.71C682.26,420.9,683.11,421.07,683.68,420.87z M684.69,471.55c-0.2,0.4-0.51,0.71-1.62,0.91
		C683.78,471.75,683.89,471.04,684.69,471.55z M682.77,445.35l-0.2,0.1C682.57,445.19,682.52,445.22,682.77,445.35z M681.96,438.98
		c0.5,0.76-0.02,0.91-0.29,0.78C681.26,439.56,681.35,438.98,681.96,438.98z M680.35,461.94c3.04-1.26,2.64-0.88,2.64-0.37
		c-0.07,1.08-0.51,1.68-1.42,2.3C680.93,463.23,680.24,462.84,680.35,461.94z M676.91,434.63c-0.12,0-0.44,0.13-0.39,0.04
		C676.65,434.34,676.65,434.37,676.91,434.63z M676.3,435.02c0.13-0.13,0.1-0.3,0.1-0.09C676.4,435.09,676.12,435.26,676.3,435.02z
		 M674.68,427.95c0.3-0.29,0.52-0.39,0.91,0C674.59,428.95,674.46,428.18,674.68,427.95z M674.18,437.66c0,0.18-1.76,2.33-2.8,2.85
		C672.15,438.07,672.37,437.76,674.18,437.66z M673.97,468.21c-5.3,1.18-4.62,2.96-5.06-0.51c0.85-0.98,4.46-5.02,4.46-4.86
		C673.58,464.82,673.77,466.42,673.97,468.21z M671.17,440.58c0.1,0,0.12,0.76-0.34,0.22C670.76,440.72,670.98,440.59,671.17,440.58
		z M666.79,446.56c-0.13,0.25-0.3,0-0.4-0.1C666.87,445.49,667.01,446.34,666.79,446.56z M666.49,436.45
		c-0.43,1.28-1.37,3.35-1.54,1.94C664.83,437.36,665.78,436.99,666.49,436.45z M664.97,460.32c1.52-1.52,2.74-2.63,5.06-3.03
		C663.84,463.19,664.97,462.6,664.97,460.32z M643.43,430.28c5.04,1.26,11.4,3.9,11.29,4.23c-0.9,1.42-0.41,2.55,0.04,4.07
		c-3.29,3.29-3.44,2.06-11.33-2.33c-1.4-2.3-4.34-3.15-6.79-5.48C636.45,430.59,640.6,429.57,643.43,430.28z M453.19,491.1
		c0.1,0.78-0.15,1.09-0.64,1.25C452.48,491.72,452.58,491.29,453.19,491.1z M452.11,492.7c0.64-0.56,0.5,0.76-0.26,1.14
		C451.79,493.43,451.79,492.97,452.11,492.7z M451.71,494.03c-0.04,0.19-0.05,0.46-0.35,0.08
		C451.36,494.1,451.6,494.06,451.71,494.03z M447.3,531.12c0-0.1,0-0.3-0.1-0.51C447.3,530.82,447.3,530.92,447.3,531.12z
		 M447.91,536.38c-1.52-0.87-0.6-1.85-0.42-1.79C448.51,535.01,448.58,535.71,447.91,536.38z M448.82,501.39
		c-0.09-0.09-0.16-0.39-0.03-0.39C449.09,500.99,449.11,501.39,448.82,501.39z M452.16,542.35c-0.77,0.26-0.77-1-0.39-0.81
		C452.09,541.54,452.41,542.35,452.16,542.35z M454.43,545.67c-2.71-1.35,0.04-2.6,1.87,0.43
		C455.55,546.04,454.94,545.92,454.43,545.67z M464.19,545.79c-5.1-1.1-3.37-0.41-9.31-9.91c-8.43-13.51-3.56-43.3,1.31-37.73
		C464.64,553.44,492.55,551.9,464.19,545.79z M578.43,582.7c2.2-0.29,0.15,3.06-0.75,0.41C577.94,582.85,578.19,582.73,578.43,582.7
		z M571.21,582.3c-0.48,0.48-1.03,0.15-1.62-0.2C570.4,581.8,570.9,581.6,571.21,582.3z M563.62,584.46
		c0.14-0.04,0.23,0.07-0.2,0.07L563.62,584.46z M556.33,571.83c-1.41,4.01,2.98,1.17-10.21,0.87c-1.12-0.03-2.37,2.33,5.26,2.33
		c5.02,0,2.63,2.3,3.54,3.34c3.34,1.48,3.21,0.79,3.74,3.44c0.91,1.43,4.06,1.86,2.24,1.96c-7.81,0.46-9.27-3.1-9.95-1.35
		c-0.74,1.9,3.65,3.18,5.49,3.53c9.67,1.82,10.85,0.28,17.8,4.35c1.2,0.7,6.92,3.74,7.99,2.9c0.32-0.25,0.22-0.26,0-1.59
		c-2.12-0.3-3.62-1.84-5.26-3.03c-1.6-1.17-3.62-1.46-5.35-2.63c-0.65-0.44,1.89-0.67,4.14,0.1c5.48,1.87,13.35,6.69,12.63,7.2
		c-4.05,2.86-6.01,0.97-6.87,1.4c-1.35,0.56-4.56,0.61-6.07,0.61c-1.5-1.5-1.73,0.22-3.03-0.51c-2.39-4.18-6.21-1.79-18.81-8.09
		c-4.35,0.91-8.7-0.61-13.05,0.1c-0.83,3.73,2.7-0.59,17.09,4.86c5.65,2.14,7.36,1.3,10.82,3.03c1.18,0.71,0.58,1.73,0.42,1.73
		c-22.71,3.37-24.75-1.83-28.85-1.22c-16.68,2.47-16.98,1.74-25.99,0.1c-0.97-3.62-2.07-5.01-14.16-20.74c0-0.1,1.29,0.01,1.51-0.2
		c-10.32-10.32-22.28-31.93-28.83-38.64c-7.06-7.22-13.25-35.41-11.69-43.46c0.41-2.1,4.28-5.29,5.32-8.32
		c2.69-2.33,11.68-4.19,20.74-13.05c2.16-2.11,0.24-0.74,3.03-4.45c3.9-5.17,13.1-12.44,14.26-14.87c0.17-0.35,5.18-5.45,11.53-8.8
		c5.15-2.72,5.07-1.97,17.3-4.96c7.5-1.83,7.92-5.66,9.2-6.57c7.33-2.6,3.24-10.08,25.08-11.23c3.66-0.19,28.07,1.07,31.76,2.83
		c2.09,5.57,2.29,4.96,1.75,4.95c-1.77-0.03-6.9-1.97-8.73,1.43c0.51,0.2,1.66,0.37,2.43,0.81c2.42,1.37,5.97,3.67,7.28,4.05
		c1.72,0.29,2.12-0.35,2.63,1.11c5.04,14.61,2.16,27.8-2.83,42.28c-15.34,12.36-13.89,11.65-25.89,17.09
		c-0.51,0.23-4.25,1.71-4.75,0.71c-0.1-0.3-0.1-0.61-0.2-0.91c-4.32-2.36-3.31-0.85-2.43,3.03c-3.65,2.43-8.83,3.65-12.74,4.55
		c-5.24,1.2-1.03-2.68,1.21-8.19c1.83,0,7.29-0.29,7.58-0.7c1.2-1.73-6.35-4.45-8.49-7.6c-6.53-1.57-8.67,18.67-44.1,22.76
		c-3.34-1.92-5.77-2.93-7.18-2.83c2.74,3.43,3.41-1.77,4.35,20.33c0.72,16.99-3.46,11.9,7.59,33.48c1.48,2.88,4.27,10.74,3.91,11.53
		c-4.06,9.03,32.26,0.81,20.16,0.81c-12.08,0-19.41,3.37-18.71-6.37c6.98,1.75,18.55,3.77,25.39,1.52
		c17.77-5.87,16.11-7.19,17.3-6.17C565.4,568.88,558.54,565.52,556.33,571.83z M545.11,503.51c0,0.23-0.65,0.62-0.81,0
		C544.5,503.31,544.81,503.11,545.11,503.51z M550.45,547.32c0.67,1.32,2.24,0.73,3.47,1.09c7.88,2.32,13.16,2.12,18.31,2.12
		c-0.25,0.25-0.48,0.63-1.83,0.82c-7.35,1.03-2.24,1.48-1.82,2.63c-29.51,14.78-36.54,6.96-47.13,7.59
		c-0.92,0-8.89-17.46-9.41-22.86c1.65-10.84-1.33-16.35,0.61-19.52c-1.53-2.84-3.28-9.41-0.4-7.69c0.27,3.01,0.02,4.57,1.26,4.25
		c0.66,0,0.31-3.14,1.53-4.44c0.6-0.65,1.8-0.16,4.09-0.52c7.62-0.54,2.42-1.29,4.53,6.8c0.14,0.41,1.79-4.86,4.12-8.33
		c0.2-0.3,7.36-3.57,16.23-0.28c1.13,3.76-2.72,9.1,0.4,9.1c0.8-3.51,3.39-6.12,4.92-9.62c0.06-0.17-1.59,0.49,14.91-3.02
		c1.52,0.71,1.32,2.03,1.92,2.93c0.63-1.36-0.31-2.51,0.51-4.15c7.79-3.25,5.53-4.18,10.86-1.1c1,0.58-1.48-1.76-1.46-2.79
		c0.01-0.43,9.92-3.52,16.59-9.46c0.38-0.34,1.33-1.21,1.72-1.33c2.21-0.47,10.9-10.82,11.23-11.53c-0.74-2.96,2.4-4.18,5.66-16.08
		c3.25-11.87,0.94-17.38-1.62-29.33c-1.01-4.71-2.55-6.23-3.94-8.09c2.53,0.2,4.45,0.3,5.87,2.53c-0.61,2.33,0.79,4.26,1.82,6.27
		c5.47,10.74,4.99,42.23,1.92,26.91c-0.35-1.33,0.1-6.35-2.22-4.04c0,7.86,3,12.93,1.62,16.49c-10.76,27.61-14.41,28.79-16.05,33.37
		c0,0-0.84,4.1-2.15,7.69c-2.11,5.76-3.06,12.31-0.1,17.6c-1.07,1.72-2.52,2.98-3.66,4.54c-3.06,4.17,2.91,1.26-16.77,11.44
		C566.63,551.03,549.91,545.97,550.45,547.32z M578.71,549.58c-7.43,1.09-6.37,0.95-5.11,0.32
		C576.44,548.51,579.97,549.4,578.71,549.58z M580.11,548.62c0.59,0,1.09,0,2.19,0C582.4,548.62,581.4,549.59,580.11,548.62z
		 M591.13,585.34c-0.36-0.24-0.09-0.39,0.17-0.39C591.55,585.02,591.77,585.34,591.13,585.34z M608.33,582
		c4.98,7.78,6.66,5.14,6.54,7.45c-0.05,1.04-1.41,2.01-3.4,1.45c-0.1,0,0.21-0.55-0.2-1.72c-0.7-1.98-2.34-2.4-6.13-7.92
		C604.09,580.21,608.23,581.97,608.33,582z M592.55,573.3c2.44,3.8,5.67,3.34,7.59,7.18c0.34,0.6,8.45,9.69,9,10.32
		c-1.81,3.19-8.76-2.79-10.72-4.15c-7.69-5.34-7.72-5.44-8.19-6.68c-0.12-1.33-0.3-5.76-1.82-7.28
		C590.12,572.39,591.23,573.2,592.55,573.3z M583.11,547.84c0.87-0.75,1.2-0.23,4.81-2.66c5.94-4,4.52-6.12,7.62-9.09
		c5.24-5.04,2.54,1.84,5.98-1.13c0.49-0.37,2,1.41,7.01-0.09c0.66-0.2,2.51-0.55,2.99-0.06
		C600.49,544.83,579.29,551.12,583.11,547.84z M728.09,490.16c-1.13,0.89-4.63,10.77-6.52,11.19c-1.54,0.34-3.74,0.49-5.2,1.15
		c-0.24,4.54-3.9,6.84-6.68,16.18c-1.22,4.12-5.82-1.13-8.6-2.93c-0.2-1.01,1.01-1.11,0.91-1.92c-2.37-1.19-4.13,2.37-1.21,4.65
		c2.1,1.64,1.05,1.23-3.64,4.05c-0.97-0.78-7.87-4.96-8.5-4.96c-3.68,3.68,9.03,5.93,4.45,7.08c-1.29,0.14-2.3-1.42-3.94-0.91
		c-0.32,0.48-1.06,2.1-2.33,3.03c-2.16,1.38-2.52,2.27-3.56,2.39c-3.69,0.43-7.96,0.28-8.98-3.3c-1.19-5.23-6.03-6.78-9.31-14.87
		c-2.04-5.03-2.01-3.73-2.54-3.45c-0.72,0.38-15.1-1.1-19.2-3.73c-2.89-0.13-14.05-1.87-13.2-0.85c1.1,1.18,2.64,1.58,3.79,2.37
		c1.43,0.99,3.34,0.2,4.75,1.31c-1.21,2.01-3.83,4.05-6.88,8.7c-3.52,5.38-2.61,2.54-5.87,6.37c-10.77,12.67-9.12,7.73-18.95,10.15
		c-2.34,0.57-4.46,0.62-5.82-1.36c0.07-0.1,18.22-22.48,11.44-19.69c-0.64,0.26-11.69,19.08-12.71,15.97
		c-3-9.15,13.93-41.4,14.73-41.79c0.37,0.55-0.03,1.93,0.76,1.93c0.67,0.25,0.79-0.71,1.47-0.62c0.9,0.59,0.82,1.88,1.42,2.83
		c1.88,3.86-0.35-6.86-0.61-7.59c3.36-10.91,5.42-21.56,3.74-33.08c1.49-0.89,2.08,1.21-4.06-21.41c-0.24-0.9,12.46,0.48,20.85,9.28
		c4.87,5.1,15.64,7.05,9.05,9.22c-3.96,1.31-1.48,2.21-3.09,3.32c-1.43,0.99-3.54,1.11-4.45,3.14c2.23,1.62,3.74,4.45,7.08,4.25
		c0.2,0,0.4,0.2,0.61,0.3c2.31,1.63,3.65,1.08,14.36,2.23c1.15,1.05,1.08,2.85,2.85,3.41c0.78,0.25-0.42,2.9-0.83,4.29
		c-2.76,9.31,0.31,7.42,0.1,9.71c-0.3,1.72-0.71,3.54-0.1,5.26c-5.75,7.19-7.8,6.33-6.98,8.4c2.51-1.15,4.53-2.89,7.28-4.35
		c1.44,0.52,2.21,1.74,3.94,2.12c8.76-15.34,0.25-8.15-2.43-7.38c0-5.31-2.89-15.13,5.87-20.74c0,3.94-2.97,3.52-3.64,5.26
		c-0.1,3.24,1.16,6.37,1.11,9.61c-0.01,0.54,0.91,0.92,1.42,1.11c0.99-0.99,3.84-0.11,3.84-1.52c0.72-1.58-1.78-2.69,0.2-3.64
		c1.03-0.49,2.35,0.04,3.64-0.5c-0.51-2.83-1.62-5.56-1.31-8.29c-0.61-1.01-1.11-1.82-1.62-2.63c3.44-3.04,3.11,5.81,3.74,7.79
		c5.52,4.6-4.83,9.1-6.17,18c2.34-0.18,3.27-2.91,5.46-4.15c23.56-9.64,28.39-3.24,35.4-6.33c2.61-1.15,18.39,9.34,18.71,9.98
		C730.92,486.32,730.07,488.59,728.09,490.16z M734.86,479.94c-0.47,0-0.25-0.66,0.1-0.3C735.18,479.86,735.12,479.94,734.86,479.94
		z M738.3,467.3c-0.13-0.26-0.16-0.22,0.08-0.14C738.54,467.21,738.56,467.17,738.3,467.3z M741.15,467.4
		c-0.79-1.07-1.75-2.05-2.04-3.14C740.26,461.97,741.35,466.09,741.15,467.4z M742.96,471.85c0-0.44,0.4-0.35,0.4,0.1
		C743.17,472.24,743.05,472.14,742.96,471.85z"/>
	<path d="M361.23,462.04l0.1,0.1C361.33,461.98,361.39,462.04,361.23,462.04z"/>
	<path d="M480.48,463.46l0.1-0.1C480.53,463.36,480.48,463.34,480.48,463.46z"/>
	<path d="M588.3,162.95c0.95-2.65,0.61-5.46,1.42-7.79c-0.61-1.42-1.21-1.82-2.33-1.21c-1.11,1.92-0.71,4.65-2.53,6.37
		c-1.53,24.77-1.27,25.67,0,31.25c-2.12,5.66-4.89,11.02-5.46,16.99c-0.65,6.78-6.42,24.83-3.94,39.04
		c3.56,20.44-9.22,55.29-0.91,49.06c0.91-1.42,0.68-3.03,0.71-4.55c0.17-7.69,3.94-14.38,4.25-30.55c0.07-3.68-0.6-0.59-0.3-10.52
		c0.36-12.33-1.69-11.42-0.4-16.99C592.27,175.79,586.76,167.25,588.3,162.95z"/>
	<path d="M351.01,507.56c10.75,4.17,35.78,4.38,36.62,4.45c-1.31-1.01-2.43-1.11-3.44-1.11c-5.26,0.3-10.42-0.83-15.58-1.11
		c-15.58-0.85-19.26-4.91-26.6-4.96c-85.23-0.51-36.6,4.93-27.51,1.52C315.35,506.02,344.22,504.92,351.01,507.56z"/>
	<path d="M572.32,297.78c-4.41,0.61-4.93,3.94-5.56,6.47c-1.62,1.31-3.54,1.82-5.06,3.03c1.31,1.21,1.31,1.21,5.26,0.51
		c2.33-1.92,3.03-5.36,6.37-7.28c0.1,2.73,0.4,4.96,2.83,6.27c0.26-0.97-0.08-0.42-1.01-6.47
		C573.39,297.84,573.63,297.78,572.32,297.78z"/>
	<path d="M438,509.28c-0.76-3.3-9.46,2.21-16.99,3.03c-2.98,0.33-25.24-1.16-26.5,0.1c4.24,0.39,5.49-0.09,12.54,0.3
		C423.4,513.62,418.91,514.62,438,509.28z"/>
	<path d="M429.1,480.55C429.03,480.64,429.77,481.24,429.1,480.55L429.1,480.55z"/>
	<path d="M445.78,491.58c3.2-2.66-9.35-8.09-15.48-11.23c-0.4-0.21-0.81-0.4-1.31,0.1c0.04,0.04,0.07,0.07,0.1,0.11
		c0.11-0.13,2.24,1.02,15.07,10.51C444.57,491.37,445.18,491.68,445.78,491.58z"/>
	<path d="M363.55,140.59c1.66-2.21,0.48-5.26,1.21-9.1C359.44,126.16,360.57,144.57,363.55,140.59z"/>
	<path d="M371.54,465.18c1.33-2.13,2.02-5.76,3.14-6.88c0.2-2.45-2.28-2.92-3.14-1.21C365.93,468.3,370.73,466.79,371.54,465.18z"/>
	<path d="M347.07,145.96c-3.1-1.55-2.6,14.1-0.2,15.48C348.02,160.39,347.81,161.13,347.07,145.96z"/>
	<path d="M348.48,480.45c1.68-1.56,2.04-7.13,5.06-14.67C351.23,462.89,346.42,478.39,348.48,480.45z"/>
	<path d="M422.12,145.25c2.62-0.65,1.22-3.12-1.52-4.05c-8.15-2.76-8.21-2.68-8.6-1.31C415.44,141.91,418.58,144.03,422.12,145.25z"
		/>
	<path d="M435.77,474.48c-0.91-0.41-1.82-0.61-3.44,0.1c2.93,0.71,5.16,1.92,7.18,3.44c2.07,1.55,6.77,3,9.81,5.66
		C452.32,480.69,442.6,477.58,435.77,474.48z"/>
	<path d="M344.03,185.4c4.81-0.53,3.22-1.01,27.01-9.81C379.73,171.25,344.7,183.83,344.03,185.4z"/>
	<path d="M317.33,190.97l-0.1-0.1C317.13,190.99,317.09,190.97,317.33,190.97z"/>
	<path d="M290.42,204.62c0.12-0.05,6.4-1.87,11.43-5.56c9.49-6.98,13.8-6.15,15.29-8.09c-3.56-0.08-10.83,3.51-13.68,5.66
		C296.15,202.18,290.57,202.95,290.42,204.62z"/>
	<path d="M386.11,468.41c-2.9-20.27-6.65-16.74-3.54-6.98C383.38,463.96,385,466.09,386.11,468.41z"/>
	<path d="M370.03,125.73c-0.26,3.7,5.93,9.62,8.9,12.14C378.6,136.98,371.28,123.22,370.03,125.73z"/>
	<path d="M590.73,188.94c-0.71-0.2-1.21,0.1-1.52,0.71c-0.95,2.86,4.15,6.23,7.59,9.41C596.39,196.63,595.38,195.01,590.73,188.94z"
		/>
	<path d="M303.67,504.02c0.82,1.23,13.26-11.15,13.55-11.73C315.29,491.96,302.99,502.65,303.67,504.02z"/>
	<path d="M305.39,181.76c1.49-3.96,3.41-9.13,3.84-12.95C306.88,172.65,301.33,183.79,305.39,181.76z"/>
	<path d="M600.84,203.2c-1.45-1.64-2.93-0.17-2.93,0.81c0,3.23,1.31,4.53,2.43,7.89C601.15,208.87,600.84,205.83,600.84,203.2z"/>
	<path d="M577.07,294.03c1.52,0.3,1.4-0.52,3.74-10.22C578.19,286.12,575.56,292.71,577.07,294.03z"/>
	<path d="M404.31,546.8c0.81,1.22,0.97,0.11,6.17,0.61c4.59,0.44,4.87,1.26,5.97,0.61C415.93,546.98,404.73,543.91,404.31,546.8z"/>
	<path d="M422.22,206.64c10.52-3.62,10.12-1.54,11.23-3.54c-3.74,0.4-7.1,0.36-10.32,1.52
		C420.59,205.53,421.94,206.93,422.22,206.64z"/>
	<path d="M446.09,103.78c3.6-0.28,2.86-5.63-0.91-6.07C445.66,102.26,443.85,102.88,446.09,103.78z"/>
	<path d="M465.31,468.92c2.98-2.49-1.99-4.54-3.54-8.8C461.56,464.16,463.79,466.29,465.31,468.92z"/>
	<path d="M479.87,464.06c0.04,0.04,0.08-0.05,0.1-0.1L479.87,464.06z"/>
	<path d="M478.46,464.67l-0.1,0.1C478.38,464.77,478.44,464.69,478.46,464.67z"/>
	<path d="M471.88,470.64c6.11-3.06,13.26-6.96,6.5-5.88c-0.32,0.6-0.95,0.71-1.52,0.71c-0.51,0.84-1.19,1.33-2.26,1.42
		C475.83,467.5,472.01,469.6,471.88,470.64z"/>
	<path d="M476.94,465.38l-0.1,0.1C476.88,465.48,476.92,465.41,476.94,465.38z"/>
	<path d="M298.51,166.49c-0.14,2.84-0.32,7.18-0.81,11.83c1.74-1.45,1.99-8.8,2.02-10.92C299.74,166.89,299.32,166.59,298.51,166.49
		z"/>
	<path d="M301.04,469.53c-0.57,0-3.77,7.95-4.15,9.71c1.4,0,3.7-6.18,4.55-8.4C301.65,470.44,301.65,469.93,301.04,469.53z"/>
	<path d="M330.58,190.06c-0.9,1.8,15.48,15.17,0.3,0C330.88,189.95,330.68,190.06,330.58,190.06z"/>
	<path d="M620.87,133.01c1.76,0,1.22-4.49-4.15,0.2C616.72,133.65,617.53,133.27,620.87,133.01z"/>
	<path d="M588.91,318.21l0.1,0.1C589.01,318.26,589.08,318.25,588.91,318.21z"/>
	<path d="M589.72,319.02c-0.03-0.12-0.03-0.1-0.1-0.1L589.72,319.02z"/>
	<path d="M569.18,566.73c0.61,0.3,0.91,0.51,1.42,0.81C573.63,564.26,571.8,560.01,569.18,566.73z"/>
	<path d="M590.73,295.75c-1.82-2.02-3.34-2.12-5.87-0.4C586.89,295.55,588.71,296.06,590.73,295.75z"/>
	<path d="M599.43,220.5c1.31-1.21,1.52-2.63,0.81-4.25C597.48,216.25,599.04,220.5,599.43,220.5z"/>
	<path d="M466.72,458.4c-1.62-1.62-3.84-2.12-6.27-2.02C466.12,458.64,465.82,460.2,466.72,458.4z"/>
	<path d="M598.11,224.85c2.12-1.52,2.23-1.92,1.01-4.35C597.71,221.71,597.3,223.03,598.11,224.85z"/>
	<path d="M442.45,505.94c1.52-1.14,0.56-1.32-2.93-4.35C440.22,503.61,440.22,503.61,442.45,505.94z"/>
	<path d="M375.59,173.27l0.1,0.1C376.02,173.13,375.92,173.23,375.59,173.27z"/>
	<path d="M380.86,170.71c-1.68,0.74-3.46,1.35-4.97,2.51C377.8,172.91,379.54,172.2,380.86,170.71z"/>
	<path d="M606.61,194.61c-0.91,0.4-2.02,1.01-3.54,1.72C607.09,196.96,608.55,194.89,606.61,194.61z"/>
	<path d="M317.54,492.2c1.72-0.53,3.07-1.5,4.14-2.85C319.83,489.74,318.45,490.6,317.54,492.2z"/>
	<path d="M317.33,492.28l0.1,0.1C317.55,492.15,317.64,492.17,317.33,492.28z"/>
	<path d="M592.65,312.34c-1.01-1.01-1.72-1.31-2.63-0.51C591.13,313.46,591.13,313.46,592.65,312.34z"/>
	<path d="M311.97,473.07c-1.21,0.51-1.92,1.31-1.92,2.53C311.06,475.09,311.56,474.18,311.97,473.07z"/>
	<path d="M372.05,174.68c0.03-0.03,0.06-0.05,0.09-0.08C371.89,174.56,371.93,174.57,372.05,174.68z"/>
	<path d="M375.59,173.16c-1.38,0.1-2.55,0.5-3.45,1.44C373.56,174.82,374.62,174.23,375.59,173.16z"/>
	<path d="M587.9,262.68c0-0.3-0.3-0.51-0.51-0.81c-0.71,0.71-0.2,1.31-0.51,2.02C587.8,263.79,587.9,263.18,587.9,262.68z"/>
	<path d="M310.65,165.38c-1.01,1.42-1.42,2.33-1.31,3.54C310.35,168.11,310.45,166.99,310.65,165.38z"/>
	<path d="M387.32,167.5c0.81-0.2,1.82,0,2.73-0.81C388.33,166.69,388.33,166.69,387.32,167.5z"/>
	<path d="M469.55,471.95c1.11,0,1.82-0.4,2.23-1.42C470.67,470.44,469.96,470.94,469.55,471.95z"/>
	<path d="M319.05,189.65c-0.91,0-1.62,0.1-1.72,1.11C318.04,190.66,318.54,190.26,319.05,189.65z"/>
	<path d="M574.04,558.74c-1.42,0.2-1.01,0.91-1.01,1.62C574.14,560.05,573.84,559.44,574.04,558.74z"/>
	<path d="M454.08,450.41c-0.91-0.3-1.42-0.3-1.92,0.1C452.66,450.81,453.27,450.81,454.08,450.41z"/>
	<path d="M323.6,488.24c-1.11-0.1-1.82,0.2-1.92,1.21C322.49,489.45,323.09,489.05,323.6,488.24z"/>
	<path d="M295.78,480.75c0.71-0.3,1.01-0.91,1.01-1.62C296.39,479.54,295.88,479.94,295.78,480.75z"/>
	<path d="M447.93,466.11c0.1,0.74,1.15,0.69,2,0.69C449.46,466.03,448.62,466.26,447.93,466.11z"/>
	<path d="M447.91,465.98l-0.1,0.1C447.99,466.13,447.91,466.11,447.91,465.98z"/>
	<path d="M402.28,162.44c0.05-0.01,0.23-0.05,0.31-0.2C402.4,162.33,402.22,162.43,402.28,162.44z"/>
	<path d="M280.31,503c0.3,0,0.4-0.2,0.1-0.3C280.06,502.7,279.88,503,280.31,503z"/>
	<path d="M297.4,179.13c0.1-0.3,0.1-0.61,0.2-0.91C297.5,178.52,297.1,178.73,297.4,179.13z"/>
	<path d="M381.25,170.23c-0.36,0.5-0.75,0.68,0.2,0.2c-0.12-0.12-0.14-0.09,0.07-0.19C381.44,170.23,381.34,170.23,381.25,170.23z"
		/>
	<path d="M382.77,169.52c-0.35,0.27-0.8,0.47-1.24,0.72C382.05,170.26,382.6,170.3,382.77,169.52z"/>
	<path d="M584.15,273.2l0.2,0.2C584.96,273,584.15,272.07,584.15,273.2z"/>
	<path d="M359.61,463.96c0.76-0.28,0.8-0.83,0.65-1.48C359.62,462.79,359.51,463.28,359.61,463.96z"/>
	<path d="M360.32,462.44l-0.1-0.1C360.26,462.55,360.26,462.47,360.32,462.44z"/>
	<path d="M446.9,465.88c0.4,0.1,0.71,0.1,1.01,0.1C447.5,465.98,447.3,465.58,446.9,465.88z"/>
	<path d="M327.04,510.89c0.26,0.26,0.14,0.28,0.71,0C327.75,510.69,327.04,510.41,327.04,510.89z"/>
	<path d="M382.87,169.62c0.47-0.09,1.02-0.11,1.35-0.68C383.67,169.04,383.14,169.17,382.87,169.62z"/>
	<path d="M387.14,167.49c0.21,0,0.24,0.06,0.08-0.09C387.2,167.44,387.17,167.46,387.14,167.49z"/>
	<path d="M385.91,168.21c0.47-0.19,0.93-0.3,1.23-0.72C386.58,167.45,386,167.3,385.91,168.21z"/>
	<path d="M385.91,168.31l-0.1-0.1C385.68,168.34,385.66,168.27,385.91,168.31z"/>
	<path d="M384.22,168.95c0.06-0.01,0.11-0.02,0.17-0.03l-0.02-0.02C386.9,168.41,384.85,167.67,384.22,168.95z"/>
	<path d="M290.02,204.82c0.1,0,0.3,0.05,0.3-0.3C290.12,204.52,289.92,204.62,290.02,204.82z"/>
	<path d="M309.31,476.21c0.05-0.34-0.33-0.15-1.39,0.9c-3.76,3.76-9.03,8.71-5.87,9.1c1.05-0.38,6.91-8.55,7.24-9.96l0.04,0.04
		C309.34,476.16,309.37,476.2,309.31,476.21z"/>
	<path d="M309.35,476.2c0.51,0.03,0.7-0.33,0.7-0.71C309.58,475.49,309.38,475.76,309.35,476.2z"/>
	<path d="M469.35,472.46c0.36-0.72,0.12-0.52-0.3-0.3C469.15,472.26,469.25,472.36,469.35,472.46z"/>
	<path d="M359.41,464.16c0.1-0.1,0.1-0.2,0.1-0.3C359.17,463.86,359.05,464.34,359.41,464.16z"/>
	<path d="M613.99,90.63c0.07-0.14,0.07-0.13-0.1-0.1L613.99,90.63z"/>
	<path d="M591.21,319.7c0.1,0.1,2.48,0.25,2.95-1.18c-1.24-1.24-4.59-1.91-5.14-0.28c0,0.05,0.65,0.28,0.65,0.69
		C590.37,318.92,590.93,319.08,591.21,319.7z"/>
	<path d="M618.93,490.03c0.63,2.5-1.71,5.48,3.86,13.38c0.61-0.61,0.29-1.11,0-1.62C619.85,496.64,621.33,490.63,618.93,490.03z"/>
	<path d="M475.22,466.29l0.1-0.1C475.28,466.19,475.25,466.17,475.22,466.29z"/>
	<path d="M477.44,464.87l0.1-0.1C477.5,464.77,477.46,464.83,477.44,464.87z"/>
	<path d="M478.96,464.16l0.1-0.1C478.99,464.06,479,464.08,478.96,464.16z"/>
	<path d="M518.81,157.39c7.66,6.65-4.16-4.3-7.18-27.21c-0.79-5.98,2.63-0.97-1.42-6.37c-0.65,0.39-3.13,6.71-0.1,18.81
		c0.75,3.01,3.24,5.71,6.57,9.71C517.03,153.34,515.39,154.41,518.81,157.39z"/>
	<path d="M525.69,111.06c-8.99-20.68-5.84-25.06-6.98-29.43C515.42,80.97,513.63,99,525.69,111.06z"/>
	<path d="M523.47,217.77c0-10.75-1.26-0.58-4.35-18.71c0-1.95-2.73-1.94-2.73-1.31c-1.83,1.37-0.28,7.5,1.01,9.41
		c2.6,3.85,4.91,11.73,4.96,11.83C523.13,218.98,523.47,218.53,523.47,217.77z"/>
	<path d="M562.91,84.05c1.29,7.11,1.49,7.74,1.01,11.13C569.58,95.18,565.9,79.5,562.91,84.05z"/>
	<path d="M562.1,69.59c-2.8-2.8-2.6,5.05,0.43,10.04C565.6,84.67,563.7,77.86,562.1,69.59z"/>
	<path d="M520.84,303.44c-1.48,7.01,1.74,9.26,3.24,6.27C523.47,306.83,521.54,300.09,520.84,303.44z"/>
	<path d="M512.13,233.07c0.63-1.11,0.52-13.57-0.39-14.8C509.84,223.53,512,233.33,512.13,233.07z"/>
	<path d="M530.04,120.77c0.33-1.11,0.05-1.55-4.86-7.59C522.89,112.61,522.74,117.12,530.04,120.77z"/>
	<path d="M512.03,236.54c-0.86,5.41,1.02,8.2,1.02,8.44C515.78,244.98,512.94,234.72,512.03,236.54z"/>
	<path d="M515.98,62.61c-2.15,5.1-2.32,5.64-1.96,6.32C514.81,70.44,517.19,67.31,515.98,62.61z"/>
	<path d="M535.61,134.14c-2.63,0.57,0.19,4.73,1.61,7.06C537.67,137.92,535.74,134.1,535.61,134.14z"/>
	<path d="M518.41,192.79c0.39,0.39,0.71,0.61,1.1,0.91c0.1-0.1,3.77-3.76,3.24-3.7C520.33,190.26,519.96,190.56,518.41,192.79z"/>
	<path d="M552.45,312.65c-0.41,0.18-0.77-0.4,3.48,2.43C559.25,316.7,556.9,310.77,552.45,312.65z"/>
	<path d="M538.44,154.25c2.03-4.1-0.19-4.94-0.71-3.64C537.11,151.94,537.44,153.18,538.44,154.25z"/>
	<path d="M518.61,50.98c-1.82,2.02-1.82,2.02-2.33,4.96C518.11,54.42,518.71,53,518.61,50.98z"/>
	<path d="M514.26,253.17c0.51-2.02,0.61-2.02-0.81-4.45C512.75,250.42,512.74,250.43,514.26,253.17z"/>
	<path d="M523.67,227.38c-1.59,0-1.78,2.13-0.4,3.23C523.3,230.51,524.7,227.38,523.67,227.38z"/>
	<path d="M523.67,44.1c-0.8,0.8-1.9,1.19-2.23,2.63C523.68,46.01,523.67,46,523.67,44.1z"/>
	<path d="M529.03,38.94c-1.42,0.71-1.42,0.61-2.43,2.12C528.62,41.27,528.93,40.86,529.03,38.94z"/>
	<path d="M510.99,212.51c0.1,0.75,1.32,2.2,1.22,1.8c-0.22-1.55-0.38-3.5-0.38-3.75C511.83,207.7,510.84,211.29,510.99,212.51z"/>
	<path d="M528.83,170.33c0.56-1.34-0.08-2.4-1.11-3.44C525.88,167.35,528.83,169.12,528.83,170.33z"/>
	<path d="M533.24,124.82c0.13,0-0.2-1.08-1.48-1.72C530.17,123.1,530.93,125,533.24,124.82z"/>
	<path d="M515.88,258.63c-0.65,1.2-0.33,1.94,0.81,2.63C517.27,260.1,516.85,259.39,515.88,258.63z"/>
	<path d="M522.76,223.84c-1.33-0.67-0.5,2.51-0.42,2.41C523.07,225.11,523.24,224.52,522.76,223.84z"/>
	<path d="M507.08,253.68c0.61-0.89,0.79-1.67,0.3-2.63C506.92,251.98,506.87,251.99,507.08,253.68z"/>
	<path d="M544.81,310.52c-0.91-0.61-1.72-0.3-2.63,0C543.09,311.03,543.9,311.23,544.81,310.52z"/>
	<path d="M518.46,267.02c-1.16-0.98,0.33,3.22,0.62,1.2C519.14,267.74,518.86,267.36,518.46,267.02z"/>
	<path d="M537.14,128.72c1.34,0.15,0.83-1.33-0.15-1.41C535.11,127.18,536.53,128.65,537.14,128.72z"/>
	<path d="M548.03,311.51c-0.13-0.36-0.44-0.22-0.35,0.01C547.92,312.19,548.14,311.61,548.03,311.51z"/>
	<path d="M552.61,63.96c1.24,4.79,6.23,4.32,4.04,1.69c-2.09-2.51-3.86-1.42-4-1.81c0-0.19-0.34-0.72-0.91-0.17
		C551.63,63.77,552.2,64.1,552.61,63.96z"/>
	<path d="M529.94,120.87C530.34,121.07,529.94,120.77,529.94,120.87L529.94,120.87z"/>
	<path d="M524.28,162.13c-0.01-0.01-0.07-0.17-0.08-0.18C522.82,158.4,521.63,162.13,524.28,162.13c-0.01,0.01-0.02,0.01-0.03,0.03
		c-0.11,0.11-0.12,0.04,0.12,0.28C524.29,162.18,524.33,162.09,524.28,162.13z"/>
	<path d="M664.16,91.54c7.65,3.97,2.1,0.41,8.8,2.12c1.96,0.5,3.83,0.34,3.34-1.63c-0.91-1.52-2.83-1.21-4.86-2.23
		c-1.52-1.52-3.84-2.73-6.47-3.34c-0.91-0.91-1.42-2.33-2.93-2.43c-2.56,0,0.17,3.17,0.4,3.74
		C662.63,87.79,661.17,89.98,664.16,91.54z"/>
	<path d="M603.73,70.32c0.13-0.27-1.34,0-2.78,1.6c-0.84,0.93-0.79,1-4.28,5.12C594.88,79.15,599.6,79.08,603.73,70.32z"/>
	<path d="M587.19,115.11c2.13,0,4.78-1.01,6.57-1.82C593.36,111.66,585.67,112.08,587.19,115.11z"/>
	<path d="M600.44,103.27c-0.5-4.01-4.08,1.67-4.86,2.33C597.93,106.26,599.22,105.22,600.44,103.27z"/>
	<path d="M583.24,108.33c-0.23,2.12,0.09,4.2,0.2,5.56C587.03,113.17,584.5,109.33,583.24,108.33z"/>
	<path d="M609.85,93.36c2-0.5,5.64-3.87,2.54-3.25C610.45,90.32,610.25,90.63,609.85,93.36z"/>
	<path d="M604.79,95.58c1.93,0.4,1.92,0.41,3.54-1.01C606.71,94.17,606.71,94.17,604.79,95.58z"/>
	<path d="M613.18,60.69c0.65,0.16,1.27-1.24,1.24-1.54C614.18,56.76,611.38,60.09,613.18,60.69z"/>
	<path d="M603.3,110.84c0.33-0.22,0.78-0.15-2.26-0.59C600.25,110.25,600.71,112.57,603.3,110.84z"/>
	<path d="M609.33,63.16c0.06-0.11-1.02,0.29-1.2,0.97C608.93,64.33,608.94,64.32,609.33,63.16z"/>
	<path d="M595.38,112.48c0.41,0.28,0.64-0.2,0.1-0.2C595.48,112.37,595.38,112.37,595.38,112.48z"/>
	<path d="M609.44,63.22c0.1,0,0.1-0.1,0.2-0.1C609.54,63.12,609.44,63.12,609.44,63.22z"/>
	<path d="M483.15,111.19c-1,0.05-2.01,0.27-3.07,0.38C485.55,116.05,488.83,110.92,483.15,111.19z"/>
	<path d="M476.63,109.54c-1.92-1.62-2.12-1.52-4.25,0.4C473.94,110.15,475.33,110.85,476.63,109.54z"/>
	<path d="M448.01,140.29c1.52-0.3,1.52-1.42,2.02-2.93C448.21,137.96,447.61,138.77,448.01,140.29z"/>
	<path d="M451.04,135.74c1.11-0.3,1.21-1.21,1.31-2.23C450.82,134.33,450.86,134.35,451.04,135.74z"/>
	<path d="M464.09,162.54c-1.31-0.36-2.04-0.02-2.73,1.01C462.58,163.96,463.05,163.17,464.09,162.54z"/>
	<path d="M471.38,161.94c-0.5-0.44-1.06-0.63-1.68-0.38C468.15,162.17,470.35,162.82,471.38,161.94z"/>
	<path d="M468.04,107.26c-0.16-0.28-0.88-0.15-0.51,0.36C467.98,108.07,468.18,107.52,468.04,107.26z"/>
	<path d="M254.72,198.25c0.75-0.21,0.89-1.88,1.82-1.42c10.38,2.97,19.4-1.34,18.18-2.56c-1.11-1.43-1.71-0.06-6.14,0.94
		c-5.96,1.35-9.42-0.3-19.02,1.92c-1.03,0.24-2.99,0.46-3.14,0.51C248.28,199.5,252.97,198.73,254.72,198.25z"/>
	<path d="M237.1,197.63c-1.59-0.77-2.51,0.65-3.21,1.11C235.27,199.01,237.1,199.04,237.1,197.63z"/>
	<path d="M226.89,199.16c0.28,0.11,1.05,0.42,1.18,0.47C230.58,200.55,231.14,197.34,226.89,199.16z"/>
	<path d="M279.6,178.73c-0.71-1.42-0.71-1.42-2.12-0.3C278.08,179.33,278.79,179.23,279.6,178.73z"/>
	<path d="M205.07,205.54c0-0.37-1.9-0.81-2.75,0.29C203.51,206.91,205.08,205.77,205.07,205.54z"/>
	<path d="M242.88,197.54c-1.01-0.51-1.42-0.1-1.92,0.4C242.07,198.96,242.38,198.15,242.88,197.54z"/>
	<path d="M284.56,177.92c0.07-0.22-0.01-0.55-0.4-0.81C282.25,177.35,282.29,179.62,284.56,177.92z"/>
	<path d="M209.61,205.03c-0.61-0.51-0.81-0.71-1.11-0.91C208.19,205.03,208.19,205.03,209.61,205.03z"/>
	<path d="M555.62,133.36c1.31,0.31,2.07-0.71,2.94-1.37c-1.21,0-2.43,0-3.54,0C554.79,132.91,555.14,133.25,555.62,133.36z"/>
	<path d="M509.61,473.77c-1.54,1.62-0.47,4.48-2.63,5.98c1.22,2.13,1.79-0.2,3.84-3.84c1.34-11.29-1.31-11.28-1.31-12.55
		c0.4-1.88,0.89-4.6,1.26-6.62c0.55-4.38,2.96-4.33,3.99-6.92c-3.43-6.85-14.21,4.62-7.07,14.14
		C507.69,470.69,510.01,470.17,509.61,473.77z"/>
	<path d="M475.52,488.14c-3.07,2.29,1.99,10.23,6.17,10.23C478.97,494.35,479.63,485.07,475.52,488.14z"/>
	<path d="M541,468.02c0.83,0.25,1.07-17.37,2.69-24.68C540.77,442.97,538.77,467.34,541,468.02z"/>
	<path d="M547.84,481.06c5.59,2.25,5.8,1.35,10.62,3.03c2.65,0.58,1.45-2.29-11.43-5.66C546.16,478.42,546.15,480.37,547.84,481.06z
		"/>
	<path d="M498.38,526.37c2.49,5.89,8.6,11.26,8.6,7.38C498.27,525.38,499.32,525.43,498.38,526.37z"/>
	<path d="M603.17,465.58c-2.41,1.85-2.67,4.09-5.72,7.31c-3.67,3.86-6.77,4.46-7.63,7.05C592.84,479.94,605.25,468.07,603.17,465.58
		z"/>
	<path d="M533.53,578.08c-0.58-0.15-1.03-0.29-1.56-0.02c0.42,0.84-0.49,0.18,2.57,1.69c0.14,0.07,0.76-0.16,2.17-0.34
		c6.12-0.79,9.98,4.55,10.53,1.28c-1.77-1.99-4.45-1.12-6.99-1.72C535.6,575.86,536.33,578.81,533.53,578.08z"/>
	<path d="M570.3,441c-2.39-2.39-4.84,1.3-8.9,5.36c1.25,0,4.44-2.75,8.19-4.55C569.89,441.71,569.99,441.31,570.3,441z"/>
	<path d="M482.7,498.45c0.56,1.4,0.71,2.3,4.05,3.14C485.94,499.55,484.53,497.24,482.7,498.45z"/>
	<path d="M580.31,484.09c-2.3-0.09-4.29,0.57-7.18,1.31C576.26,486.01,578.29,485.1,580.31,484.09z"/>
	<path d="M492.72,520.81c0.81,1.62,2.44,4.51,3.44,2.53C495.55,522.12,494.94,521.01,492.72,520.81z"/>
	<path d="M487.96,517.37c-0.24,0.83,1.61,1.98,2.37,2.39C490.67,519.94,492.35,517.37,487.96,517.37z"/>
	<path d="M545.01,441.11c1.21-1.31,1.62-2.93,2.63-4.45C545.6,437.41,545.09,438.12,545.01,441.11z"/>
	<path d="M554.69,453.73c0.07-0.2-2.15-0.63-3.31,2.45C552.98,455.77,554.32,455.1,554.69,453.73z"/>
	<path d="M505.97,482.67c-1.57-0.43-2.16-0.2-1.82,2.23C505.16,484.49,505.97,483.89,505.97,482.67z"/>
	<path d="M501.72,574.52c-0.64,0.32,0.78,1.61,1.72,2.02C503.24,575.33,503.24,575.33,501.72,574.52z"/>
	<path d="M556.14,428.05c0.88,0.13,1.39-0.75,0.96-1C556.3,426.58,555.39,428.05,556.14,428.05z"/>
	<path d="M488.79,505.17c0.71-0.06,0.06-0.74-0.63-0.74C488.06,505.25,488.16,505.17,488.79,505.17z"/>
	<path d="M558.77,450.21c-0.22,0-0.4-0.04-0.4,0.2C558.55,450.59,559.09,450.53,558.77,450.21z"/>
	<path d="M589.11,480.85c-0.06-0.28,0.05-0.01,0.45-0.36c0.71-0.63-0.64-0.83-0.49,0.16c-0.39,0-0.58,0.04-0.77,0.3
		C588.81,481.33,588.89,480.64,589.11,480.85z"/>
	<path d="M554.92,453.68c0.03-0.02,0.28-0.2,0.3-0.23C554.75,452.97,554.73,453.8,554.92,453.68z"/>
	<path d="M550.27,432.4c0-0.37,0.25-0.71-0.01-0.52C549.89,432.15,549.9,432.03,550.27,432.4z"/>
	<path d="M550.78,431.59c-0.15,0-0.3-0.05-0.3,0.3C550.67,431.9,550.78,431.8,550.78,431.59z"/>
	<path d="M708.97,498.25c-1.63-1.3-3.44-2.12-5.66-2.63c-2.23-2.53-2.53-2.63-4.05-1.82c0,1.39,0.86,1.84,1.42,2.93
		c0,3.48,1.52,3.9,6.17,5.87c2.54-1.34,8.08,1.59,8.05-1C714.87,499.66,711.03,499.89,708.97,498.25z"/>
	<path d="M632.2,440.29c-3.46-3.46-0.98-3.87-9.9-5.32c-0.45-0.07-0.08,0.77,2.72,1.58c3.41,0.98,2.5,1.3,7.38,5.56
		c4.26,3.72,8.11,5.48,8.29,5.66C645.17,445.84,639.02,440.79,632.2,440.29z"/>
	<path d="M652.23,468.92c-0.84-1.12-1.81,0.16-1.88,0.99C650.17,471.84,652.23,471,652.23,468.92z"/>
	<path d="M652.3,493.98c-1.58,1.46-1.81,1.22,0,0.94C655.3,494.47,655.65,490.88,652.3,493.98z"/>
	<path d="M647.39,474c0.17-0.39-0.85-0.81-1.31,0.73C645.84,475.39,646.99,474.94,647.39,474z"/>
	<path d="M647.92,495.46c-0.51-0.03-0.77,0.31-1.15,0.77C647.77,496.86,649.1,495.53,647.92,495.46z"/>
	<path d="M542.99,521.41c-0.22,1.4,0.38,2.83,0,4.55C546.52,525.97,543.71,516.87,542.99,521.41z"/>
	<path d="M543.73,528.33c-2.04-1.48-1.87,5.52,0.16,2.38C544.26,530.13,544.54,528.92,543.73,528.33z"/>
	<path d="M521.52,523.08c-0.86-0.56-1.51,2.16,0.63,1.97C522.53,523.8,522.57,523.77,521.52,523.08z"/>
	<path d="M522.59,518.99c-0.65-0.56-0.61,1.42,0.21,0.61C522.98,519.39,522.92,519.28,522.59,518.99z"/>
	<path d="M583.04,507.15c0-0.1-0.1-0.1-0.2-0.2c0,0.33-0.38,0.03,0,0.4C582.94,507.35,583.04,507.22,583.04,507.15z"/>
	<path d="M267.16,487.12c-6.86,0-8.08-1.09-11.84-2.29c-4.89-1.55-14.41-3.01-14.12-2.65c2.41,2.31,5.28,2.52,7.96,3.22
		c3.34-2.67,5.1,2.62,14.8,3.82C269.75,489.95,270.5,487.12,267.16,487.12z"/>
	<path d="M190.89,490.56c-1.31-0.71-2.53-1.52-4.25-1.52C187.75,492.74,190.08,490.34,190.89,490.56z"/>
	<path d="M228.72,479.03c1.49,0.51,2.11,0.76,3.01,0.63C233.48,479.4,232.43,477.85,228.72,479.03z"/>
	<path d="M222.15,477.31c1.11,1.31,2.12,1.82,3.94,1.52C224.88,477.52,223.77,477.21,222.15,477.31z"/>
	<path d="M279.09,474.28c-0.61-0.61-1.21-1.11-2.12-0.61C277.68,475.29,278.08,475.39,279.09,474.28z"/>
	<path d="M284.05,475.19c-1.02-0.59-1.73-0.41-2.12,0.71C283.06,476.48,283.68,476.39,284.05,475.19z"/>
	<path d="M197.06,475.7c1.19,0.9,1.22,0.91,2.86,0.52C200.1,476.15,199.19,474.97,197.06,475.7z"/>
	<path d="M236.11,480.75c0.61,1.01,1.11,0.61,1.72,0.3C237.32,480.25,236.81,480.45,236.11,480.75z"/>
	<path d="M202.93,476.91c0.2,0.1,0.4,0.3,0.51,0.3C204.84,476.86,202.52,475.54,202.93,476.91z"/>
	<path d="M200,476.3c0.1,0,0.1,0.1,0.2,0.2C200.42,476.39,200.25,476.3,200,476.3z"/>
<path fill="#e6e6e6" d="m206.8 163.6c0-5.1 4.1-9.2 9.3-9.2s9.2 4.2 9.2 9.2-4.1 9.2-9.3 9.2-9.2-4.1-9.2-9.2zm17.3-.1c0-4.5-3.5-8.2-8.2-8.2s-8.2 3.7-8.2 8.3c0 4.5 3.5 8.2 8.2 8.2s8.2-3.7 8.2-8.3zm-13 0c0-2.8 2.1-5.1 5.1-5.1 1.9 0 2.9.6 3.9 1.5l-1.4 1.7c-.8-.7-1.5-1.1-2.5-1.1-1.7 0-2.8 1.4-2.8 3.1s1.1 3 2.8 3c1.1 0 1.7-.5 2.5-1.1l1.4 1.4c-1.1 1.1-2.1 1.7-4 1.7-2.9 0-5-2.3-5-5.1z"/><path fill="#e6e6e6" d="m226.6 154.7h3.4l4.2 13.2 4.4-13.3h2.6l4.4 13.3 4.2-13.2h3.3l-6.2 18h-2.7l-4.4-12.8-4.4 12.8h-2.7z"/><path fill="#e6e6e6" d="m252.8 165.8c0-3.9 3.1-7 7.2-7 4.2 0 7.2 3.2 7.2 7s-3.1 7-7.3 7c-4 0-7.1-3.1-7.1-7zm11.3 0c0-2.3-1.7-4.3-4.2-4.3s-4.1 2-4.1 4.3 1.7 4.3 4.1 4.3c2.7.1 4.2-1.9 4.2-4.3z"/><path fill="#e6e6e6" d="m269.5 159.1h3.1v3c.8-2 2.4-3.4 4.8-3.3v3.2h-.2c-2.7 0-4.6 1.7-4.6 5.4v5.1h-3.1z"/><path fill="#e6e6e6" d="m279.1 153.9h3.1v11.1l5.6-6h3.8l-5.4 5.5 5.5 8h-3.5l-4.1-5.8-1.9 2v3.9h-3.1z"/><path fill="#e6e6e6" d="m291.7 165.8c0-3.9 3.1-7 7.2-7 4.2 0 7.2 3.2 7.2 7s-3.1 7-7.3 7c-4 0-7.1-3.1-7.1-7zm11.3 0c0-2.3-1.7-4.3-4.2-4.3s-4.1 2-4.1 4.3 1.7 4.3 4.1 4.3c2.6.1 4.2-1.9 4.2-4.3z"/><path fill="#e6e6e6" d="m308.2 167.6v-8.6h3.1v7.6c0 2.1 1.1 3.3 2.9 3.3s3-1.3 3-3.3v-7.6h3.1v13.4h-3.1v-2.1c-.8 1.3-2.1 2.3-4.2 2.3-3.1.2-4.8-1.8-4.8-5z"/><path fill="#e6e6e6" d="m323.9 168.8v-7.1h-1.7v-2.6h1.7v-3.7h3.1v3.7h3.6v2.6h-3.6v6.6c0 1.2.6 1.7 1.7 1.7.7 0 1.3-.2 1.9-.5v2.5c-.8.5-1.7.7-2.8.7-2.3 0-3.9-.9-3.9-3.9z"/><path fill="#e6e6e6" d="m333.2 154.7h3.2v15h9.4v2.9h-12.5v-17.9z"/><path fill="#e6e6e6" d="m356 172.5v-1.7c-.9 1.1-2.3 2-4.4 2-2.6 0-4.8-1.4-4.8-4.2 0-3 2.3-4.4 5.4-4.4 1.7 0 2.6.2 3.7.5v-.2c0-1.9-1.2-2.9-3.3-2.9-1.5 0-2.6.3-3.9.8l-.8-2.5c1.5-.7 2.9-1.1 5.1-1.1 4 0 5.9 2.1 5.9 5.7v8zm.1-5.6c-.8-.3-1.9-.5-3.1-.5-2 0-3.1.8-3.1 2.1s1.1 2 2.6 2c2 0 3.5-1.1 3.5-2.9z"/><path fill="#e6e6e6" d="m364.9 170.5v2.1h-3.1v-18.7h3.1v7.4c1-1.4 2.4-2.5 4.5-2.5 3.2 0 6.3 2.5 6.3 7s-3.1 7-6.3 7c-2.1 0-3.5-1.1-4.5-2.3zm7.7-4.7c0-2.6-1.7-4.3-3.9-4.3s-3.9 1.7-3.9 4.4c0 2.6 1.8 4.3 3.9 4.3s3.9-1.7 3.9-4.4z"/><path fill="#e6e6e6" d="m376.9 170.8 1.4-2.1c1.4 1.1 3 1.7 4.4 1.7s2.1-.5 2.1-1.5-1.3-1.4-2.8-1.8c-.1 0-.2-.1-.2-.1-2-.6-4.2-1.4-4.2-4s2.1-4.1 4.8-4.1c1.7 0 3.5.6 5 1.5l-1.2 2.2c-1.3-.8-2.6-1.3-3.8-1.3s-1.9.5-1.9 1.4 1.3 1.4 2.8 1.8c.1 0 .2.1.2.1 2 .6 4.2 1.5 4.2 4 0 2.9-2.2 4.2-5 4.2-1.9 0-4-.7-5.8-2z"/><path fill="#e6e6e6" d="m505.6 163.6c0-5.1 4.1-9.2 9.3-9.2s9.2 4.2 9.2 9.2-4.1 9.2-9.3 9.2-9.2-4.1-9.2-9.2zm17.4-.1c0-4.5-3.5-8.2-8.2-8.2s-8.2 3.7-8.2 8.3c0 4.5 3.5 8.2 8.2 8.2s8.2-3.7 8.2-8.3zm-13.1 0c0-2.8 2.1-5.1 5.1-5.1 1.9 0 2.9.6 3.9 1.5l-1.4 1.7c-.8-.7-1.5-1.1-2.5-1.1-1.7 0-2.8 1.4-2.8 3.1s1.1 3 2.8 3c1.1 0 1.7-.5 2.5-1.1l1.4 1.4c-1.1 1.1-2.1 1.7-4 1.7-2.9 0-5-2.3-5-5.1z"/><path fill="#e6e6e6" d="m525.4 154.7h3.4l4.2 13.2 4.4-13.3h2.6l4.4 13.3 4.2-13.2h3.3l-6.2 18h-2.7l-4.4-12.8-4.4 12.8h-2.7z"/><path fill="#e6e6e6" d="m551.7 165.8c0-3.9 3.1-7 7.2-7 4.2 0 7.2 3.2 7.2 7s-3.1 7-7.3 7c-4.1 0-7.1-3.1-7.1-7zm11.2 0c0-2.3-1.7-4.3-4.2-4.3s-4.1 2-4.1 4.3 1.7 4.3 4.1 4.3c2.7.1 4.2-1.9 4.2-4.3z"/><path fill="#e6e6e6" d="m568.3 159.1h3.1v3c.8-2 2.4-3.4 4.8-3.3v3.2h-.2c-2.7 0-4.6 1.7-4.6 5.4v5.1h-3.1z"/><path fill="#e6e6e6" d="m577.9 153.9h3.1v11.1l5.6-6h3.8l-5.4 5.5 5.5 8h-3.5l-4.1-5.8-1.9 2v3.9h-3.1z"/><path fill="#e6e6e6" d="m590.6 165.8c0-3.9 3.1-7 7.2-7 4.2 0 7.2 3.2 7.2 7s-3.1 7-7.3 7c-4.1 0-7.1-3.1-7.1-7zm11.2 0c0-2.3-1.7-4.3-4.2-4.3s-4.1 2-4.1 4.3 1.7 4.3 4.1 4.3c2.6.1 4.2-1.9 4.2-4.3z"/><path fill="#e6e6e6" d="m607 167.6v-8.6h3.1v7.6c0 2.1 1.1 3.3 2.9 3.3s3-1.3 3-3.3v-7.6h3.1v13.4h-3.1v-2.1c-.8 1.3-2.1 2.3-4.2 2.3-3 .2-4.8-1.8-4.8-5z"/><path fill="#e6e6e6" d="m622.7 168.8v-7.1h-1.7v-2.6h1.7v-3.7h3.1v3.7h3.6v2.6h-3.6v6.6c0 1.2.6 1.7 1.7 1.7.7 0 1.3-.2 1.9-.5v2.5c-.8.5-1.7.7-2.8.7-2.3 0-3.9-.9-3.9-3.9z"/><path fill="#e6e6e6" d="m632 154.7h3.2v15h9.4v2.9h-12.6z"/><path fill="#e6e6e6" d="m654.8 172.5v-1.7c-.9 1.1-2.3 2-4.4 2-2.6 0-4.8-1.4-4.8-4.2 0-3 2.3-4.4 5.4-4.4 1.7 0 2.6.2 3.7.5v-.2c0-1.9-1.2-2.9-3.3-2.9-1.5 0-2.6.3-3.9.8l-.8-2.5c1.5-.7 2.9-1.1 5.1-1.1 4 0 5.9 2.1 5.9 5.7v8zm.1-5.6c-.8-.3-1.9-.5-3.1-.5-2 0-3.1.8-3.1 2.1s1.1 2 2.6 2c2 0 3.5-1.1 3.5-2.9z"/><path fill="#e6e6e6" d="m663.7 170.5v2.1h-3.1v-18.7h3.1v7.4c1-1.4 2.4-2.5 4.5-2.5 3.2 0 6.3 2.5 6.3 7s-3.1 7-6.3 7c-2.1 0-3.5-1.1-4.5-2.3zm7.8-4.7c0-2.6-1.7-4.3-3.9-4.3-2.1 0-3.9 1.7-3.9 4.4 0 2.6 1.8 4.3 3.9 4.3s3.9-1.7 3.9-4.4z"/><path fill="#e6e6e6" d="m675.8 170.8 1.4-2.1c1.4 1.1 3 1.7 4.4 1.7s2.1-.5 2.1-1.5-1.3-1.4-2.8-1.8c-.1 0-.2-.1-.2-.1-2-.6-4.2-1.4-4.2-4s2.1-4.1 4.8-4.1c1.7 0 3.5.6 5 1.5l-1.2 2.2c-1.3-.8-2.6-1.3-3.8-1.3s-1.9.5-1.9 1.4 1.3 1.4 2.8 1.8c.1 0 .2.1.2.1 2 .6 4.2 1.5 4.2 4 0 2.9-2.2 4.2-5 4.2-2 0-4.1-.7-5.8-2z"/><path fill="#e6e6e6" d="m61 298.6c0-5.1 4.1-9.2 9.3-9.2s9.2 4.2 9.2 9.2-4.1 9.2-9.3 9.2c-5.1 0-9.2-4.2-9.2-9.2zm17.4-.1c0-4.5-3.5-8.2-8.2-8.2s-8.2 3.7-8.2 8.3c0 4.5 3.5 8.2 8.2 8.2s8.2-3.7 8.2-8.3zm-13.1-.1c0-2.8 2.1-5.1 5.1-5.1 1.9 0 2.9.6 3.9 1.5l-1.4 1.7c-.8-.7-1.5-1.1-2.5-1.1-1.7 0-2.8 1.4-2.8 3.1s1.1 3 2.8 3c1.1 0 1.7-.5 2.5-1.1l1.4 1.4c-1.1 1.1-2.1 1.7-4 1.7-2.8.1-5-2.2-5-5.1z"/><path fill="#e6e6e6" d="m80.9 289.7h3.4l4.2 13.2 4.4-13.3h2.6l4.4 13.3 4.2-13.2h3.3l-6.2 18h-2.7l-4.4-12.8-4.4 12.8h-2.7z"/><path fill="#e6e6e6" d="m107.1 300.8c0-3.9 3.1-7 7.2-7s7.2 3.2 7.2 7-3.1 7-7.3 7c-4 0-7.1-3.1-7.1-7zm11.3 0c0-2.3-1.7-4.3-4.2-4.3s-4.1 2-4.1 4.3 1.7 4.3 4.1 4.3c2.6.1 4.2-1.9 4.2-4.3z"/><path fill="#e6e6e6" d="m123.7 294h3.1v3c.8-2 2.4-3.4 4.8-3.3v3.2h-.2c-2.7 0-4.6 1.7-4.6 5.4v5.1h-3.1z"/><path fill="#e6e6e6" d="m133.4 288.9h3.1v11.1l5.6-6h3.8l-5.4 5.5 5.5 8h-3.5l-4.1-5.8-1.9 1.9v3.9h-3.1z"/><path fill="#e6e6e6" d="m146 300.8c0-3.9 3.1-7 7.2-7s7.2 3.2 7.2 7-3.1 7-7.3 7c-4.1 0-7.1-3.1-7.1-7zm11.2 0c0-2.3-1.7-4.3-4.2-4.3s-4.1 2-4.1 4.3 1.7 4.3 4.1 4.3c2.6.1 4.2-1.9 4.2-4.3z"/><path fill="#e6e6e6" d="m162.4 302.6v-8.6h3.1v7.6c0 2.1 1.1 3.3 2.9 3.3s3-1.3 3-3.3v-7.6h3.1v13.4h-3.1v-2.1c-.8 1.3-2.1 2.3-4.2 2.3-3 .2-4.8-1.8-4.8-5z"/><path fill="#e6e6e6" d="m178.1 303.8v-7.1h-1.7v-2.7h1.7v-3.7h3.1v3.7h3.6v2.6h-3.6v6.6c0 1.2.6 1.7 1.7 1.7.7 0 1.3-.2 1.9-.5v2.5c-.8.5-1.7.7-2.8.7-2.3.1-3.9-.9-3.9-3.8z"/><path fill="#e6e6e6" d="m187.4 289.7h3.2v15h9.4v2.9h-12.5v-17.9z"/><path fill="#e6e6e6" d="m210.2 307.5v-1.7c-.9 1.1-2.3 2-4.4 2-2.6 0-4.8-1.4-4.8-4.2 0-3 2.3-4.4 5.4-4.4 1.7 0 2.6.2 3.7.5v-.2c0-1.9-1.2-2.9-3.3-2.9-1.5 0-2.6.3-3.9.8l-.8-2.5c1.5-.7 2.9-1.1 5.1-1.1 4 0 5.9 2.1 5.9 5.7v8zm.1-5.6c-.8-.3-1.9-.5-3.1-.5-2 0-3.1.8-3.1 2.1s1.1 2 2.6 2c2 0 3.5-1.1 3.5-2.9z"/><path fill="#e6e6e6" d="m219.2 305.5v2.1h-3.1v-18.7h3.1v7.4c1-1.4 2.4-2.5 4.5-2.5 3.2 0 6.3 2.5 6.3 7s-3.1 7-6.3 7c-2.2 0-3.6-1.1-4.5-2.3zm7.7-4.7c0-2.6-1.7-4.3-3.9-4.3s-3.9 1.7-3.9 4.4c0 2.6 1.8 4.3 3.9 4.3s3.9-1.7 3.9-4.4z"/><path fill="#e6e6e6" d="m231.2 305.8 1.4-2.1c1.4 1.1 3 1.7 4.4 1.7s2.1-.5 2.1-1.5-1.3-1.4-2.8-1.8c-.1 0-.2-.1-.2-.1-2-.6-4.2-1.4-4.2-4s2.1-4.1 4.8-4.1c1.7 0 3.5.6 5 1.5l-1.2 2.2c-1.3-.8-2.6-1.3-3.8-1.3s-1.9.5-1.9 1.4 1.3 1.4 2.8 1.8c.1 0 .2.1.2.1 2 .6 4.2 1.5 4.2 4 0 2.9-2.2 4.2-5 4.2-2 0-4.1-.7-5.8-2z"/><path fill="#e6e6e6" d="m360.6 298.6c0-5.1 4.1-9.2 9.3-9.2s9.2 4.2 9.2 9.2-4.1 9.2-9.3 9.2-9.2-4.2-9.2-9.2zm17.4-.1c0-4.5-3.5-8.2-8.2-8.2s-8.2 3.7-8.2 8.3c0 4.5 3.5 8.2 8.2 8.2s8.2-3.7 8.2-8.3zm-13.1-.1c0-2.8 2.1-5.1 5.1-5.1 1.9 0 2.9.6 3.9 1.5l-1.4 1.7c-.8-.7-1.5-1.1-2.5-1.1-1.7 0-2.8 1.4-2.8 3.1s1.1 3 2.8 3c1.1 0 1.7-.5 2.5-1.1l1.4 1.4c-1.1 1.1-2.1 1.7-4 1.7-2.8.1-5-2.2-5-5.1z"/><path fill="#e6e6e6" d="m380.5 289.7h3.4l4.2 13.2 4.4-13.3h2.6l4.4 13.3 4.2-13.2h3.3l-6.2 18h-2.7l-4.4-12.8-4.4 12.8h-2.7z"/><path fill="#e6e6e6" d="m406.7 300.8c0-3.9 3.1-7 7.2-7 4.2 0 7.2 3.2 7.2 7s-3.1 7-7.3 7c-4.1 0-7.1-3.1-7.1-7zm11.3 0c0-2.3-1.7-4.3-4.2-4.3s-4.1 2-4.1 4.3 1.7 4.3 4.1 4.3c2.7.1 4.2-1.9 4.2-4.3z"/><path fill="#e6e6e6" d="m423.3 294h3.1v3c.8-2 2.4-3.4 4.8-3.3v3.2h-.2c-2.7 0-4.6 1.7-4.6 5.4v5.1h-3.1z"/><path fill="#e6e6e6" d="m433 288.9h3.1v11.1l5.6-6h3.8l-5.4 5.5 5.5 8h-3.5l-4.1-5.8-1.9 2v3.9h-3.1z"/><path fill="#e6e6e6" d="m445.6 300.8c0-3.9 3.1-7 7.2-7 4.2 0 7.2 3.2 7.2 7s-3.1 7-7.3 7c-4.1 0-7.1-3.1-7.1-7zm11.3 0c0-2.3-1.7-4.3-4.2-4.3s-4.1 2-4.1 4.3 1.7 4.3 4.1 4.3c2.6.1 4.2-1.9 4.2-4.3z"/><path fill="#e6e6e6" d="m462.1 302.6v-8.6h3.1v7.6c0 2.1 1.1 3.3 2.9 3.3s3-1.3 3-3.3v-7.6h3.1v13.4h-3.1v-2.1c-.8 1.3-2.1 2.3-4.2 2.3-3.1.2-4.8-1.8-4.8-5z"/><path fill="#e6e6e6" d="m477.8 303.8v-7.1h-1.8v-2.7h1.7v-3.7h3.1v3.7h3.6v2.6h-3.6v6.6c0 1.2.6 1.7 1.7 1.7.7 0 1.3-.2 1.9-.5v2.5c-.8.5-1.7.7-2.8.7-2.2.1-3.8-.9-3.8-3.8z"/><path fill="#e6e6e6" d="m487.1 289.7h3.2v15h9.4v2.9h-12.5v-17.9z"/><path fill="#e6e6e6" d="m509.9 307.5v-1.7c-.9 1.1-2.3 2-4.4 2-2.6 0-4.8-1.4-4.8-4.2 0-3 2.3-4.4 5.4-4.4 1.7 0 2.6.2 3.7.5v-.2c0-1.9-1.2-2.9-3.3-2.9-1.5 0-2.6.3-3.9.8l-.8-2.5c1.5-.7 2.9-1.1 5.1-1.1 4 0 5.9 2.1 5.9 5.7v8zm.1-5.6c-.8-.3-1.9-.5-3.1-.5-2 0-3.1.8-3.1 2.1s1.1 2 2.6 2c2 0 3.5-1.1 3.5-2.9z"/><path fill="#e6e6e6" d="m518.8 305.5v2.1h-3.1v-18.7h3.1v7.4c1-1.4 2.4-2.5 4.5-2.5 3.2 0 6.3 2.5 6.3 7s-3.1 7-6.3 7c-2.2 0-3.5-1.1-4.5-2.3zm7.7-4.7c0-2.6-1.7-4.3-3.9-4.3s-3.9 1.7-3.9 4.4c0 2.6 1.8 4.3 3.9 4.3s3.9-1.7 3.9-4.4z"/><path fill="#e6e6e6" d="m530.8 305.8 1.4-2.1c1.4 1.1 3 1.7 4.4 1.7s2.1-.5 2.1-1.5-1.3-1.4-2.8-1.8c-.1 0-.2-.1-.2-.1-2-.6-4.2-1.4-4.2-4s2.1-4.1 4.8-4.1c1.7 0 3.5.6 5 1.5l-1.2 2.2c-1.3-.8-2.6-1.3-3.8-1.3s-1.9.5-1.9 1.4 1.3 1.4 2.8 1.8c.1 0 .2.1.2.1 2 .6 4.2 1.5 4.2 4 0 2.9-2.2 4.2-5 4.2-1.9 0-4.1-.7-5.8-2z"/><path fill="#e6e6e6" d="m659.5 298.6c0-5.1 4.1-9.2 9.3-9.2s9.2 4.2 9.2 9.2-4.1 9.2-9.3 9.2-9.2-4.2-9.2-9.2zm17.3-.1c0-4.5-3.5-8.2-8.2-8.2s-8.2 3.7-8.2 8.3c0 4.5 3.5 8.2 8.2 8.2 4.8 0 8.2-3.7 8.2-8.3zm-13-.1c0-2.8 2.1-5.1 5.1-5.1 1.9 0 2.9.6 3.9 1.5l-1.4 1.7c-.8-.7-1.5-1.1-2.5-1.1-1.7 0-2.8 1.4-2.8 3.1s1.1 3 2.8 3c1.1 0 1.7-.5 2.5-1.1l1.4 1.4c-1.1 1.1-2.1 1.7-4 1.7-2.9.1-5-2.2-5-5.1z"/><path fill="#e6e6e6" d="m679.3 289.7h3.4l4.2 13.2 4.4-13.3h2.6l4.4 13.3 4.2-13.2h3.3l-6.2 18h-2.6l-4.4-12.8-4.4 12.8h-2.7z"/><path fill="#e6e6e6" d="m705.5 300.8c0-3.9 3.1-7 7.2-7 4.2 0 7.2 3.2 7.2 7s-3.1 7-7.3 7c-4 0-7.1-3.1-7.1-7zm11.3 0c0-2.3-1.7-4.3-4.2-4.3s-4.1 2-4.1 4.3 1.7 4.3 4.1 4.3c2.7.1 4.2-1.9 4.2-4.3z"/><path fill="#e6e6e6" d="m722.1 294h3.1v3c.8-2 2.4-3.4 4.8-3.3v3.2h-.2c-2.7 0-4.6 1.7-4.6 5.4v5.1h-3.1z"/><path fill="#e6e6e6" d="m731.8 288.9h3.1v11.1l5.6-6h3.8l-5.4 5.5 5.5 8h-3.5l-4.1-5.8-1.9 2v3.9h-3.1z"/><path fill="#e6e6e6" d="m744.4 300.8c0-3.9 3.1-7 7.2-7 4.2 0 7.2 3.2 7.2 7s-3.1 7-7.3 7c-4.1 0-7.1-3.1-7.1-7zm11.3 0c0-2.3-1.7-4.3-4.2-4.3s-4.1 2-4.1 4.3 1.7 4.3 4.1 4.3c2.6.1 4.2-1.9 4.2-4.3z"/><path fill="#e6e6e6" d="m760.9 302.6v-8.6h3.1v7.6c0 2.1 1.1 3.3 2.9 3.3s3-1.3 3-3.3v-7.6h3.1v13.4h-3.1v-2.1c-.8 1.3-2.1 2.3-4.2 2.3-3.1.2-4.8-1.8-4.8-5z"/><path fill="#e6e6e6" d="m776.6 303.8v-7.1h-1.7v-2.7h1.7v-3.7h3.1v3.7h3.6v2.6h-3.6v6.6c0 1.2.6 1.7 1.7 1.7.7 0 1.3-.2 1.9-.5v2.5c-.8.5-1.7.7-2.8.7-2.3.1-3.9-.9-3.9-3.8z"/><path fill="#e6e6e6" d="m785.9 289.7h3.2v15h9.4v2.9h-12.5v-17.9z"/><path fill="#e6e6e6" d="m808.7 307.5v-1.7c-.9 1.1-2.3 2-4.4 2-2.6 0-4.8-1.4-4.8-4.2 0-3 2.3-4.4 5.4-4.4 1.7 0 2.6.2 3.7.5v-.2c0-1.9-1.2-2.9-3.3-2.9-1.5 0-2.6.3-3.9.8l-.8-2.5c1.5-.7 2.9-1.1 5.1-1.1 4 0 5.9 2.1 5.9 5.7v8zm.1-5.6c-.8-.3-1.9-.5-3.1-.5-2 0-3.1.8-3.1 2.1s1.1 2 2.6 2c2 0 3.5-1.1 3.5-2.9z"/><path fill="#e6e6e6" d="m817.6 305.5v2.1h-3.1v-18.7h3.1v7.4c1-1.4 2.4-2.5 4.5-2.5 3.2 0 6.3 2.5 6.3 7s-3.1 7-6.3 7c-2.1 0-3.5-1.1-4.5-2.3zm7.7-4.7c0-2.6-1.7-4.3-3.9-4.3-2.1 0-3.9 1.7-3.9 4.4 0 2.6 1.8 4.3 3.9 4.3 2.2 0 3.9-1.7 3.9-4.4z"/><path fill="#e6e6e6" d="m829.6 305.8 1.4-2.1c1.4 1.1 3 1.7 4.4 1.7s2.1-.5 2.1-1.5-1.3-1.4-2.8-1.8c-.1 0-.2-.1-.2-.1-2-.6-4.2-1.4-4.2-4s2.1-4.1 4.8-4.1c1.7 0 3.5.6 5 1.5l-1.2 2.2c-1.3-.8-2.6-1.3-3.8-1.3s-1.9.5-1.9 1.4 1.3 1.4 2.8 1.8c.1 0 .2.1.2.1 2 .6 4.2 1.5 4.2 4 0 2.9-2.2 4.2-5 4.2-1.9 0-4-.7-5.8-2z"/><path fill="#e6e6e6" d="m206.3 434.2c0-5.1 4.1-9.2 9.3-9.2s9.2 4.2 9.2 9.2-4.1 9.2-9.3 9.2-9.2-4.1-9.2-9.2zm17.4-.1c0-4.5-3.5-8.2-8.2-8.2s-8.2 3.7-8.2 8.3c0 4.5 3.5 8.2 8.2 8.2s8.2-3.7 8.2-8.3zm-13.1-.1c0-2.8 2.1-5.1 5.1-5.1 1.9 0 2.9.6 3.9 1.5l-1.4 1.7c-.8-.7-1.5-1.1-2.5-1.1-1.7 0-2.8 1.4-2.8 3.1s1.1 3 2.8 3c1.1 0 1.7-.5 2.5-1.1l1.4 1.4c-1.1 1.1-2.1 1.7-4 1.7-2.9.1-5-2.2-5-5.1z"/><path fill="#e6e6e6" d="m226.1 425.3h3.4l4.2 13.2 4.4-13.3h2.6l4.4 13.3 4.2-13.2h3.3l-6.2 18h-2.7l-4.4-12.8-4.4 12.8h-2.7z"/><path fill="#e6e6e6" d="m252.4 436.4c0-3.9 3.1-7 7.2-7 4.2 0 7.2 3.2 7.2 7s-3.1 7-7.3 7c-4.1 0-7.1-3.1-7.1-7zm11.2 0c0-2.3-1.7-4.3-4.2-4.3s-4.1 2-4.1 4.3 1.7 4.3 4.1 4.3c2.7.1 4.2-1.9 4.2-4.3z"/><path fill="#e6e6e6" d="m269 429.7h3.1v3c.8-2 2.4-3.4 4.8-3.3v3.2h-.2c-2.7 0-4.6 1.7-4.6 5.4v5.1h-3.1z"/><path fill="#e6e6e6" d="m278.6 424.5h3.1v11.1l5.6-6h3.8l-5.4 5.5 5.5 8h-3.5l-4.1-5.8-1.9 2v3.9h-3.1z"/><path fill="#e6e6e6" d="m291.3 436.4c0-3.9 3.1-7 7.2-7 4.2 0 7.2 3.2 7.2 7s-3.1 7-7.3 7c-4.1 0-7.1-3.1-7.1-7zm11.2 0c0-2.3-1.7-4.3-4.2-4.3s-4.1 2-4.1 4.3 1.7 4.3 4.1 4.3c2.6.1 4.2-1.9 4.2-4.3z"/><path fill="#e6e6e6" d="m307.7 438.2v-8.6h3.1v7.6c0 2.1 1.1 3.3 2.9 3.3s3-1.3 3-3.3v-7.6h3.1v13.4h-3.1v-2.1c-.8 1.3-2.1 2.3-4.2 2.3-3 .2-4.8-1.8-4.8-5z"/><path fill="#e6e6e6" d="m323.4 439.4v-7.1h-1.7v-2.6h1.7v-3.7h3.1v3.7h3.6v2.6h-3.6v6.6c0 1.2.6 1.7 1.7 1.7.7 0 1.3-.2 1.9-.5v2.5c-.8.5-1.7.7-2.8.7-2.3 0-3.9-.9-3.9-3.9z"/><path fill="#e6e6e6" d="m332.7 425.3h3.2v15h9.4v2.9h-12.5v-17.9z"/><path fill="#e6e6e6" d="m355.5 443.1v-1.7c-.9 1.1-2.3 2-4.4 2-2.6 0-4.8-1.4-4.8-4.2 0-3 2.3-4.4 5.4-4.4 1.7 0 2.6.2 3.7.5v-.2c0-1.9-1.2-2.9-3.3-2.9-1.5 0-2.6.3-3.9.8l-.8-2.5c1.5-.7 2.9-1.1 5.1-1.1 4 0 5.9 2.1 5.9 5.7v8zm.1-5.6c-.8-.3-1.9-.5-3.1-.5-2 0-3.1.8-3.1 2.1s1.1 2 2.6 2c2 0 3.5-1.1 3.5-2.9z"/><path fill="#e6e6e6" d="m364.4 441.1v2.1h-3.1v-18.7h3.1v7.4c1-1.4 2.4-2.5 4.5-2.5 3.2 0 6.3 2.5 6.3 7s-3.1 7-6.3 7c-2.1 0-3.5-1.1-4.5-2.3zm7.7-4.7c0-2.6-1.7-4.3-3.9-4.3-2.1 0-3.9 1.7-3.9 4.4 0 2.6 1.8 4.3 3.9 4.3 2.2 0 3.9-1.7 3.9-4.4z"/><path fill="#e6e6e6" d="m376.5 441.4 1.4-2.1c1.4 1.1 3 1.7 4.4 1.7s2.1-.5 2.1-1.5-1.3-1.4-2.8-1.8c-.1 0-.2-.1-.2-.1-2-.6-4.2-1.4-4.2-4s2.1-4.1 4.8-4.1c1.7 0 3.5.6 5 1.5l-1.2 2.2c-1.3-.8-2.6-1.3-3.8-1.3s-1.9.5-1.9 1.4 1.3 1.4 2.8 1.8c.1 0 .2.1.2.1 2 .6 4.2 1.5 4.2 4 0 2.9-2.2 4.2-5 4.2-2 0-4.1-.7-5.8-2z"/><path fill="#e6e6e6" d="m505.1 434.2c0-5.1 4.1-9.2 9.3-9.2s9.2 4.2 9.2 9.2-4.1 9.2-9.3 9.2-9.2-4.1-9.2-9.2zm17.4-.1c0-4.5-3.5-8.2-8.2-8.2s-8.2 3.7-8.2 8.3c0 4.5 3.5 8.2 8.2 8.2s8.2-3.7 8.2-8.3zm-13.1-.1c0-2.8 2.1-5.1 5.1-5.1 1.9 0 2.9.6 3.9 1.5l-1.4 1.7c-.8-.7-1.5-1.1-2.5-1.1-1.7 0-2.8 1.4-2.8 3.1s1.1 3 2.8 3c1.1 0 1.7-.5 2.5-1.1l1.4 1.4c-1.1 1.1-2.1 1.7-4 1.7-2.9.1-5-2.2-5-5.1z"/><path fill="#e6e6e6" d="m525 425.3h3.4l4.2 13.2 4.4-13.3h2.6l4.4 13.3 4.2-13.2h3.3l-6.2 18h-2.7l-4.4-12.8-4.4 12.8h-2.7z"/><path fill="#e6e6e6" d="m551.2 436.4c0-3.9 3.1-7 7.2-7 4.2 0 7.2 3.2 7.2 7s-3.1 7-7.3 7c-4.1 0-7.1-3.1-7.1-7zm11.2 0c0-2.3-1.7-4.3-4.2-4.3s-4.1 2-4.1 4.3 1.7 4.3 4.1 4.3c2.7.1 4.2-1.9 4.2-4.3z"/><path fill="#e6e6e6" d="m567.8 429.7h3.1v3c.8-2 2.4-3.4 4.8-3.3v3.2h-.2c-2.7 0-4.6 1.7-4.6 5.4v5.1h-3.1z"/><path fill="#e6e6e6" d="m577.5 424.5h3.1v11.1l5.6-6h3.8l-5.4 5.5 5.5 8h-3.5l-4.1-5.8-1.9 2v3.9h-3.1z"/><path fill="#e6e6e6" d="m590.1 436.4c0-3.9 3.1-7 7.2-7 4.2 0 7.2 3.2 7.2 7s-3.1 7-7.3 7c-4.1 0-7.1-3.1-7.1-7zm11.2 0c0-2.3-1.7-4.3-4.2-4.3s-4.1 2-4.1 4.3 1.7 4.3 4.1 4.3c2.6.1 4.2-1.9 4.2-4.3z"/><path fill="#e6e6e6" d="m606.5 438.2v-8.6h3.1v7.6c0 2.1 1.1 3.3 2.9 3.3s3-1.3 3-3.3v-7.6h3.1v13.4h-3.1v-2.1c-.8 1.3-2.1 2.3-4.2 2.3-3 .2-4.8-1.8-4.8-5z"/><path fill="#e6e6e6" d="m622.2 439.4v-7.1h-1.7v-2.6h1.7v-3.7h3.1v3.7h3.6v2.6h-3.6v6.6c0 1.2.6 1.7 1.7 1.7.7 0 1.3-.2 1.9-.5v2.5c-.8.5-1.7.7-2.8.7-2.3 0-3.9-.9-3.9-3.9z"/><path fill="#e6e6e6" d="m631.5 425.3h3.2v15h9.4v2.9h-12.5v-17.9z"/><path fill="#e6e6e6" d="m654.3 443.1v-1.7c-.9 1.1-2.3 2-4.4 2-2.6 0-4.8-1.4-4.8-4.2 0-3 2.3-4.4 5.4-4.4 1.7 0 2.6.2 3.7.5v-.2c0-1.9-1.2-2.9-3.3-2.9-1.5 0-2.6.3-3.9.8l-.8-2.5c1.5-.7 2.9-1.1 5.1-1.1 4 0 5.9 2.1 5.9 5.7v8zm.1-5.6c-.8-.3-1.9-.5-3.1-.5-2 0-3.1.8-3.1 2.1s1.1 2 2.6 2c2 0 3.5-1.1 3.5-2.9z"/><path fill="#e6e6e6" d="m663.3 441.1v2.1h-3.1v-18.7h3.1v7.4c1-1.4 2.4-2.5 4.5-2.5 3.2 0 6.3 2.5 6.3 7s-3.1 7-6.3 7c-2.2 0-3.6-1.1-4.5-2.3zm7.7-4.7c0-2.6-1.7-4.3-3.9-4.3s-3.9 1.7-3.9 4.4c0 2.6 1.8 4.3 3.9 4.3s3.9-1.7 3.9-4.4z"/><path fill="#e6e6e6" d="m675.3 441.4 1.4-2.1c1.4 1.1 3 1.7 4.4 1.7s2.1-.5 2.1-1.5-1.3-1.4-2.8-1.8c-.1 0-.2-.1-.2-.1-2-.6-4.2-1.4-4.2-4s2.1-4.1 4.8-4.1c1.7 0 3.5.6 5 1.5l-1.2 2.2c-1.3-.8-2.6-1.3-3.8-1.3s-1.9.5-1.9 1.4 1.3 1.4 2.8 1.8c.1 0 .2.1.2.1 2 .6 4.2 1.5 4.2 4 0 2.9-2.2 4.2-5 4.2-2 0-4.1-.7-5.8-2z"/></g>
</svg>
