<?xml version="1.0" encoding="utf-8"?>
<!-- Generator: Adobe Illustrator 23.0.1, SVG Export Plug-In . SVG Version: 6.00 Build 0)  -->
<svg version="1.2" baseProfile="tiny" id="Layer_1" xmlns="http://www.w3.org/2000/svg" xmlns:xlink="http://www.w3.org/1999/xlink"
	 x="0px" y="0px" viewBox="0 0 900 600" xml:space="preserve">
<g>
	<path d="M201.92,331.67c0.18,0.09,0.1,0.03,0.1-0.1L201.92,331.67z"/>
	<path d="M693.63,346.78c-0.1,0.24-0.12,0.14,0.1,0.1L693.63,346.78z"/>
	<path d="M761.61,360.25c-2.88-5.66-2.97-9.88-9.6-20.82c-3.68-6.07-8.14-7.86-10.92-10.41c-3.61-3.31-6.77-3.16-8.06-3.67
		c0.92-4.9-0.71-9.39-2.25-14.09c-4.49-3.57-9.63-4.51-15.01-3.06c-0.44,0.12-5.86,2.01-6.53,2.65
		c-7.41,7.1-10.93,10.86-13.27,20.01c-1.78,6.96-4.86,6.47-8.27,14.7c-0.2,0.71-0.61,1.33-1.12,2.25
		c-19.4,6.01-24.44-6.09-51.65-12.05c-7.6-1.66-37.33,0.35-38.99,0.41c-5.92,2.76-12.04,4.61-18.17,6.53
		c-41.78,13.11-33.58,17.08-54.61,20.11c-4.74,0.68-6.2,1.21-10.51-0.92c-10.46-5.16-29.9-19.07-56.76-12.35
		c-5.71,1.43-7.86,3.03-17.25,9.29c-0.31,1.63-1.22,2.96-2.65,4.19c-1.33-0.2-2.76-0.1-4.29,0.71c-2.35,3.91-9.44,2.19-16.33,5.92
		c-9.24,0-4.53-0.12-21.44-0.31c-5.69-0.06-2.93,0.82-13.98,0.82c-21.55,0-19.77-0.03-20.01,0c-7.48,1.03-22.35,0.6-29.5-2.86
		c-27.74-13.43-24.31-18.93-65.13-23.78c-1.46-0.17-5.38,0.67-16.13-1.94c-16.31-3.96-17.57-4.86-19.39-4.9
		c-7.74-0.18-25.61-4.12-27.74-4.96c0.82,6.53,24.51,6.3,46.22,12.82c15.05,4.52,20.73-0.52,42.77,6.94
		c29.62,10.02,32.37,24.55,67.78,22.36c17.27-1.07,20.38,0.13,29.91-1.22c4.32-0.61,2.33-0.39,19.19-0.2
		c16.8,0.19,15.53-2.87,15.62,2.45c0.38,23.47,5.95,32.44,7.55,45.83c1.88,10.32,5.46,9.39,4.19,6.84
		c-2.96-7.45-3.79-15.32-4.49-23.17c-0.01-0.1-3.21-13.06-3.67-32.77c-0.09-3.8,2.94-1.48,5.21-2.76c1.03-1.37,3.19-2.61,4.64-3.09
		c0.15,1.74,5.58,2.75,7.3,3.09c-4.3-4.69-7.25-2.81-6.42-3.94c0.83-1.12,10.44-7.28,19.58-11.06c2.1-1.05,2.86-0.96,10.51-1.53
		c1.53-0.11,3.16-0.2,4.39,0.61c13.94-1.99,32.89,8.83,33.48,10c-0.9,0.6-0.93,0.62-1.12,1.53c0.93,0.83,2.28-0.1,3.16,1.02
		c-1.6,7.58-2.56,8.66-2.25,22.66c0.09,3.93,2.42,29.26,3.06,31.34c0.3,0.61-0.43,1.43-0.82,1.94c-0.98,1.31-0.76,0.9-5.82,1.94
		c-42.42,8.69-30.29,4.99-53.9,6.23c-38.38,2-53.47-3.22-102.59-17.25c-14.32-4.09-18.29-4.32-25.32-10.62
		c-4.17-3.74-3.26-1.01-7.15-3.67c-4.07-2.79-3.41-1.78-8.47-4.39c-8.48-4.37-10.08-5.77-13.58-6.84
		c-17.7-5.42-12.15-5.9-38.59-16.94c-49.96-20.87-50.17-10.17-59.37-20.35c-3.05-3.38-6.48-7.31-5.76-11.49
		c0-3.29-3.71,2.35-1.43,6.64c4.02,7.57,13.27,13.47,13.27,15.4c-2.55,1.84-5.41,3.16-8.47,3.98c-10.82-5.97-9.62-6.52-12.25-7.04
		c-1.94-0.65-2.92,2.78,7.15,8.37c0.64,0.36,1.22,0.57,1.02,1.33c-5.15,3.28-3.19,0.85-5.19-0.2c-6.86-3.63-7.6-4.34-9.51-3.57
		c0,0.89-0.29,1.11,0.55,2.16c0.84,1.05,3.6,3.07,7.08,4.13c1.57,0.48,2.6-0.6-5.29,5.03c-1.87-1.87-6.24-4.92-6.74-2.45
		c0.81,2.49,4.49,3.25,4.49,4.59c-1.22,1.02-1.94,2.65-3.37,3.57c-1.12-0.41-2.04-0.84-2.96-1.12c-1.08-0.33-1.75,0.47-0.93,1.57
		c0.65,0.86,1.78,1.3,2.15,2.2c-3.75,6.66-3.81,7.12-6.43,9.08c-7.79,5.84-6.15,8.03-15.82,2.45c0-7.51-9.04-7.61,2.65-32.56
		c6.66-14.2,11.35-11.45,11.64-16.74c0.51-9.57,0.14-9.36,1.02-11.33c3.74-7.18,5.06-11.07,8.78-12.96c1.69-0.86,3.7-3.66,5.31-3.98
		c7.21,4.61,8.94,0.79,14.19,4.29c0.02,0.01,9.07,4.48,12.73,7.31c1.56,1.2,0.19-0.35-3.54,0.76c-4.2,1.24-6.48-0.88-8.27,3.27
		c-1.48,3.43-1.95,4.38-1.02,5.31c2.35-1.22,1.53-4.49,4.19-5.92c2.96,0.52,4.71-0.64,8.39-0.62c0.46,0,0.54,0.06,0.08-0.09
		c1.88-1.56,1.38-1.68,1.84-1.22c-0.65-0.98,0.97,0.49,1.84-0.82c0.15-1.67-5.52-4.88-12.56-9.08c-12.39-7.4-10.8-2.66-17.86-7.86
		c-8.92,3.11-14.71,11.88-16.33,20.01c-3.77,18.83,2.82,7.61-11.74,23.89c0,5.94-14.1,21.83-5,36.54
		c3.37,5.45,8.83,10.41,14.29,6.74c3.81-2.56,7.74-5.24,10.21-8.98c5.26-7.96,9.11-13.43,16.13-17.56
		c17.96-10.57,18.89-9.46,20.62-12.45c0.45-1.5-1.83-2.35-0.2-2.35c43.26,7.95,47.26,16.62,88.71,32.97
		c15.78,6.23,21.03,9.99,28.38,13.88c1.64,3.95,5.87,3.39,8.47,6.23c44.71,11.66,44.33,11.74,52.16,13.07
		c5.95,1.01,13.5,5.22,29.3,7.66c26.43,4.07,40.83,0.13,43.18,0.71c2.03,0.9-0.48,1.04,2.14,9.49
		c11.34,36.61,7.63,15.54,20.72,49.71c4.27,11.14,4.46,15.55,6.84,27.97c-17.76-14.32-28.5-11.9-51.35-13.37
		c-10.68-0.69-14.5,1.63-18.07,0.2c-1.53-0.61-3.06-0.6-4.7-0.71c-6.74-0.47-13.27-1.33-19.8-2.86c-4.22-0.6-1.25-2.1-2.15-3.8
		c0.64,0.01,1.32,0.24,1.85-0.29c1.09-2.55-9.15-4.47-12.25-9.9c-8.26-5.59-7.65-7.26-10.82-8.17c-4.61-1.65-4.5-5.79-17.15,11.02
		c-1.75,2.32-3.38,4.31-3.57,7.15c0,3.25-1.42,6.49,0.2,9.6c-0.99,2.12-6.75,7.11-8.47,8.68c-6.21,5.66-6.38,10.21-7.55,12.15
		c-2.84,4.68-0.51,12.31,0.2,20.01c0.65,7,4.59,12.47,11.64,10.92c3.1-0.68,3.84-3.57,4.49-6.84c0.47-2.36,1.45-4.49,2.04-6.74
		c0.32-1.22,1.02-2.25,2.04-3.06c6.97-5.58,4.45-4.98,12.66-5.82c8.32-0.85,21.61-5.3,22.46-7.55c0-1.99-2.24,0.05-2.76-1.33
		c0-1.28,8.42-0.59,9.7-0.41c2.77,0.4,6.28,0.21,12.05,2.04c11.85,3.75,18.24,4.7,29.5,9.8c34.62,15.68,31.29,10.13,42.77,13.07
		c5.2,1.33,5.7,3.05,13.17,3.57c20.44,1.42,19.06-0.72,23.68-0.1c9.76-4.51,10.37-26.58,11.74-38.18c0.78-6.6,2.5-39.88,2.25-49.92
		c-0.26-10.56-2.82-8.01-2.76-13.58c0.06-6.04-2.03-19.91-5.1-24.6c0.82-3.78,0.82-3.78,0.2-7.45c2.72-3.5,13.45,2.77,54.71-1.94
		c7.63-0.87,6.95-2.59,8.47,0c3.11,5.28,7.45,8.78,13.78,9.9c-2.34,16.84-5.33,10.63-4.7,28.28c-2.52,1.26-2.85,3.49-6.02,12.05
		c0.89,5.54-1.68,5.7-1.94,16.74c-0.9,37.51-1.18,24.93-0.2,38.79c0.45,6.3-3.06,9.75-0.82,21.64c1.25,4.37,1.79,2.9,2.04,8.17
		c0.59,12.32,2.86,11.54,2.86,23.07c0,7.4,2.18,5.31,1.84,11.53c0,1.63,0.41,2.96,2.04,3.78c2.96,0.41,5.82,1.84,8.88,2.04
		c7.38,0.92,0.23-1.06,16.94,2.14c8.59,1.65,8.8-1.14,15.41,0.51c0.82,0.2,1.84,0.51,2.55,0.31c1.94-0.71,4.06,0.07,5.41-1.02
		c0.9-0.73,0.92-1.53,1.22-2.25c2.8,0.49,8.71,1.64,11.02-0.1c1.47-1.1,1.67-0.95-0.61-3.88c-3.01-1.32-7.91-1.37-11.64-3.57
		c-2.88-1.71-6-1.43-13.37-1.43c-0.45,1.65,0.89,1.63,5.72,1.63c6.41,0,3.77,1.24,13.47,3.57c3.36,0.81,4.9,0.81,5.31,2.04
		c-0.31,0.61-0.82,1.02-1.43,1.02c-17.06,0-12.43-3.51-29.91-5.1c-2.12,0-1.85,1.32-0.61,1.63c8.39,0.84,9.26,0.72,11.23,1.84
		c2.83,1.61,4.62,1.08,7.96,2.76c-0.2,0.82-0.81,1.11-1.43,0.92c-2.13-0.66-4.49,0.1-6.43-1.43c-0.89-0.53-11.54-0.59-14.7-0.2
		c-2.88,0.36-5.91-1.33-13.58-1.33c-3.67,0-7.35-0.41-10.62-2.65c-1.02-4.39-2.01-8.67-1.74-13.17c0.66-10.74-8.37-31.59-2.04-97.79
		c0.71-7.4,1.13-15.46,4.8-21.13c1.65-2.27,0.76-7.92,2.04-16.74c0.93-6.36,4.36-10.14,5-16.13c0-0.61,0.31-1.22,0.71-2.45
		c0.61,3.27,1.02,5.82,2.14,8.37c0.82-4.29,0-8.47-2.25-11.43c0.59-7.13,4-9.05,5.51-19.39c-0.41-0.2-0.71-0.41-1.02-0.61
		c-1.33,0.92-0.82,2.55-1.94,4.08c-4.16,2.65-5.94,16.49-6.43,21.44c-2.86,2.45-14.01-10.12-16.13-13.88
		c-1.12-0.51-1.84,0.2-2.65,0.31c-0.85,0.59-3.97,6.63-4.59,1.02c-0.73-6.57-2.39-12.02-2.35-16.13c0.16-14.7-2.34-35.48-2.25-46.65
		c0.02-2.31,0.13-3.18,3.67-4.08c18.87-4.78,22.23-8.68,33.07-9.39c12.32-0.81,27.49-1.33,39.3,2.45c1.32,0.42,2.65,0.61,3.98,1.63
		c2.14,4.49,5.5,8.48,9.39,11.94c5.11,4.55,3.67,10.39,3.67,8.88c-7.71-19.39-40.24-28.32-58.18-16.74
		c-9.74,6.28-17.56,11.73-18.48,24.19c1.43,10.41,6.53,18.48,15.31,24.4c0.92-0.31,2.14-0.1,2.65-1.43
		c-6.84-3.06-7.58-3.36-11.43-11.23c-5.04-10.3-5.32-19.52,4.08-26.34c10.72-7.77,16.28-11.54,29.7-11.43
		c3.07,0.03,8.53,0.79,12.25,2.65c11.76,5.88,24.63,13.47,22.56,26.34c-0.98,0.98-2.18-2.11-3.16,3.78
		c-4.91,29.45-18.97,26.19-26.23,48.28c-9.76,29.68-7.59,20.49-9.7,27.87c-2.32,1.69-1.92,5.18-3.47,7.76
		c-0.75,1.24-0.73,2.45-0.61,7.66c0.12,5.14-0.02,2.77-1.43,15.11c-0.67,5.93-0.92,6.94-2.96,11.84c-1.32,0.66-1.72-0.14-2.96,9.29
		c-1.47,11.19-1.15,15.51-3.47,19.5c-0.98,1.69-0.87,1.21-5.41,32.15c-1.24,8.48,1.33,8.25,1.33,13.07
		c0.27,3.24-0.13,4.97,1.33,5.61c1.33-5,0-10,0.51-15.21c6.18-0.71,13.57,2.42,20.52,4.39c4.07,1.15,4.05-3.63,5.61-5
		c3.73,0.31,5.9,1.95,9.19,1.33c2.89-0.54,9.14,2.37,11.43-1.53c3.76,0.81,3.33-2.35,1.74-2.65c-4.21-0.81-7.65-3.27-11.43-5.1
		c-8.13-3.94-25.18-4-27.15-4.59c-2.56-0.78-5.1-1.53-7.96-2.14c2.35-21.58,4.74-23.61,7.04-37.97c1.48-9.25,2.48-8.56,4.9-19.29
		c0.76-3.36,0.92-6.84,1.94-10.21c1.37-4.52-1.06-14.41,0.82-19.09c6.5-5.2,11.05-39.3,24.29-50.12
		c11.9-9.72,11.83-21.33,12.56-22.05c0.82-0.71,1.43-0.51,2.14-0.51c1.53-1.94,3.87-2.38,6.12-2.86c2.88-0.62,3.8,1.95,5.82,2.55
		c3.28,0.98,6.43,2.35,9.49,4.29c-0.1,2.55,0.51,5.1,0.41,7.86c-0.18,4.93,3.03,7.3,5.72,9.39c2.35-0.41,4.7-0.71,7.25-1.12
		c1.12,0.31,2.45,1.02,4.19,0.92c0,2.33-0.57,1.54-1.12,8.68c-0.47,0.38-0.86,0.15-1.31,0.11c0.68,4.51,1.62,7.67,4.06,15.1
		c0.3,0.92,0.31,2.04,1.53,2.35c1.5-1.25-2.3-5.67-1.85-10.06c1.25,0.47,2.12,7.27,0.32-10.15c-0.45-2.69,1.36-4.86,0.82-7.45
		c1.43-0.1,1.94,1.21,2.65,1.12c2.04-0.25,3.27-2.14,5.21-1.33c-0.31,2.65-1.53,7.35-2.96,10.72c-1.22-0.61-0.17-5.49-1.12-6.64
		c-0.61,0.35-0.8-0.27-0.31,11.53c0.57,13.51,0.86,13.94,1.74,15.01c1.54-0.51,0.77-1.61,0.61-3.16c-0.41-4.17-0.3-3.83,2.04-17.15
		c1.27-7.25,0.22,7.02,3.27,15.52c2.7,0,0.02-15.68,1.53-20.21c7.08-6.05,11.91-12.24,16.54-11.43c3.06,0.53,5.71-0.33,8.47-1.74
		c2.64-1.35,5.49-2.27,7.96-3.98c8.73-6.05,10.13-7.04,11.23-9.49c2.63-5.85,3.99-7.33,4.39-12.45
		C762.2,361.64,762.36,361.73,761.61,360.25z M375.76,531.03c-1.02-1.53-2.68-2.42-4.08-3.67c-1.07-0.95-3.58-3.93-4.51-2.96
		c-1.24,1.3,1.38,4.05,2.78,5.21c3.25,2.68,4.04,2.17-1.94,3.88c-1.43-1.56-6.21-7.1-8.42-5.11c-3.28,2.96,10.92,6.65-1.28,6.65
		c-3.53,0-4.82,1.19-5.87,1.71c-4.41,3.21-7.74,5.44-9.03,10.02c-2.37,8.39-1.85,7.63-2.98,8.78c-0.14,0.15-4.21,1.12-5.9,1.12
		c-2.04-2.25-3.24-4.29-3.47-6.94c-0.46-5.21-1.84-10.21-2.04-15.62c6.13-14.81,4.07-10.81,12.15-18.7c4.24-4.14,3.74-4.46,5-5.28
		c0.05-0.03,0.81-0.49,0.81-0.55c0-5.57-1.03-2.38-0.31-7.63c0.51-3.7,0.01-4.19,2.25-7.25c2.98-4.08,9.52-13.58,11.53-13.58
		c3.16,1.73,5.08,2.08,6.33,3.78c2.56,3.5,5.47,4.22,7.04,5.82c9.25,9.43,18.48,5.64,3.68,11.13c-1.85,0.69-2.95,2.56-4.8,3.37
		c-1.5,0.66-2.45,1.91-2.55,3.47c-0.27,4.35,0.44,3.5,1.33,6.43c4.56,15.1,6.73,11.39,6.73,15.01
		C377.52,530.72,376.61,530.94,375.76,531.03z M521.52,489.08c-0.72,16.57,0.19,31.21-3.67,52.77c-0.88,4.93-3.5,8.09-6.94,11.53
		c-9.15,2.69-12.89-0.02-23.17,0.1c-2.05,0.02-4.06-0.29-5.51-1.74c-0.73-0.73-33.58-8.55-33.69-8.57
		c-0.94-0.18-10.61-4.33-13.27-5.61c-10.6-5.13-15.17-6.09-30.83-10.51c-9.11-2.57-4.76-0.77-13.47-2.14
		c-7.61-1.2-11.78,0.69-13.07-0.31c-2.55-4.59-4.19-9.9-5.51-15.31c1.67-3.77,3.36-0.39,12.25,0.1c-2.43-1.87-5.08-2.14-7.35-3.37
		c1.63-2.04,1.63-2.04,4.8-2.86c5.37,2.89,7.28,3.28,31.64,6.23c6.41,0.78,10.36-1.48,21.03-0.1c4.28,0.55,8.57,0.71,12.86-0.2
		c4.83,1.61,11.54,0.43,24.33,6.61c1.09,0.53,4.05,1.99,4.97,2.78c10.2,8.69,8.36,10.73,9.7,9.39c-1.02-1.53-1.56-3.26-1.74-5.1
		c-0.15-1.63-1.65-6.19-1.84-8.68c-1.74-23.23-15.95-47.76-20.31-60.84c-0.2-0.61-1.12-0.71-1.02-1.53
		c4.1-1.37,57.98,10.47,59.41,11.74C522.88,475.21,522.31,470.98,521.52,489.08z M519.58,449.67c0.73,2.85,0.36,5.92,0.41,8.88
		c0.06,3.37,1.61,1.02-35.73-6.74c-22.2-4.61-18.99-3.01-24.09-4.29c-0.11-0.66-1.93-8.01-2.76-14.8
		c2.78-0.73,12.46,1.11,22.46-1.94c1.39-0.43,14.93-2.19,27.56-5.31c1.63-0.4,3.37-0.71,4.9-0.1c1.02-1.12,1.94-2.14,3.16-1.74
		c0.8,0.27,1.12,0.63,1.33,1.33c-1.35,5.85-4.59,2.57-8.29,2.64c-0.26,0.01,0.88,1.93,6.86,3.37
		C519.36,434.45,517.63,442.06,519.58,449.67z M570.21,416.7c-0.48,0.1-6.37,0.93-9.7,0.82c-6.74-0.23-12.22,1.81-23.27,0.61
		c-28.05-3.04-26.16,3.29-26.95-2.25c-1.67-19.04-5.7-22.38-0.41-48.08c0.21-1.02,0.33-2.04,1.22-2.55c1.63,0,12.99,4,26.54-3.47
		c0.1-0.06,23.99-11.53,26.74-11.53C563.99,372.71,565.52,394.76,570.21,416.7z M637.18,552.86c8.76,4.52,7.91,4.4,8.05,4.4
		c6.35,0.82,3.38,2.04,2.15,1.63c-0.74-0.47-1.75-0.85-2.04-1.53c-4.97,0-10.18-4.41-13.88-4.91c-13.08-1.75-13.06-1.62-13.26-0.64
		c0,1.77,11.87,1.64,14.89,3.2c2.86,1.46,7.51,3.56,10.62,4.29c-9.57,1.28-10.58-1.33-16.64-1.33c-4.24-2.31-2.16-1.67-5.51-2.14
		c-2.45-0.51-5.11-0.5-7.35-2.04c-1.01-0.7-2.43-1.11-3.94-1.02c-0.11,0,1.27,2.83,5.57,3.78c5.7,1.25,8.61,0.5,10.82,3.27
		c-0.61,1.02-0.41,2.35-1.43,3.16c-3,1.88-11.89-4.85-21.23-4.29c-0.61,0.1-1.22,0-1.63-0.82c0-1.12,1.15-9.31,1.94-10.11
		C613.95,549.88,631.43,549.9,637.18,552.86z M698.73,422.32c0.08,0.23,0.1,0.46,0.15,0.69
		C698.69,422.87,698.49,422.72,698.73,422.32z M710.57,410.37c-0.1,0.24,0.01,0.92-0.61,0.92
		C709.23,408.76,710.8,409.62,710.57,410.37z M755.72,379.74c0.19-1.67-0.54,0.67,2.62-7.24c0.1-0.2,0.41-0.41,0.82-1.02
		C759.16,374.05,758.18,377.89,755.72,379.74z M755.79,374.65c0.63-4.43,2.11-12.71-1.53-15.14c0,7.38,0.35,10.78-2.25,18
		c-2.53,7.05-4.63,4.05-2.65,7.35c-0.92,0.92-1.02,2.14-1.22,3.37c-3.02,2.12-6.18,4.22-9.6,5.61c-9.94,4.06-6.26,4.3-9.39,3.67
		c-6.33-1.82-12.04,5.3-16.66,10.7c-2.1,2.45-4.39-7.18-5.63-7.77c-1.21-0.48-0.76,2.07-1.45,2.92c-0.2,0.2-2.37,1.5-3.92,1.3
		c-2.34-1.42-1.75-4.56-3.86-6.1c-0.1-0.1-0.17,0.21-0.94,0.59c-0.51,2.04,1.94,2.96,1.74,4.8c-2.22,2.42-4.41,0.3-6.43,0.1
		c-5,1.33-5,1.33-7.45,0.82c-2.96-5.1-2.55-11.02-3.67-16.33c-1.39-2.32-4.39-2.28-4.9-2.96c-0.95-1.48-1.14-0.74-9.6-4.39
		c-9.34-4.02-7.93,4.62-5.21-8.78c1.46-7.19,1.94-15.08-3.16-20.31c-6.34-6.5-7.25-6.53-7.25-7.66c0.37-0.47,0.83-0.24,1.33,0
		c2.63,1.27,5.61,1.94,7.66,4.29c8.73,5.08,19.03,4.36,22.36,2.14c0.59-0.49,1.39-0.51,2.14-0.41c0.71,0.51,0.71,1.63,1.84,1.63
		c0.92,0.1,0.92,1.53,2.04,1.33c1.99-1.4,4.36-4.1,5.44-6.48c-2.48,0.56-3.19,4.5-6.35,2.4c5.5-7.03,0-7.07,10.53-13.91
		c3.91-2.53,14.93-8.01,18.46-6.6c2.5-2.5,1.83-2.08,2.35-2.24c2.29-0.69,4.19-0.36,1.99,1.27c-0.69,0.51-10.65,3.66-12.71,15.57
		c-1.75,10.13,0.65-1.52,5.1-6.43c-0.55,3.82-1.2,6.93-0.41,9.7c1.65-5.85,2.54-10.46,6.02-13.58c-0.47,2.81-2.56,6.92-2.45,11.02
		c1.56-0.78,1.11-2.91,3.88-10.41c0.72-1.94,1.69-3.9,2.45-5.82c0.77-1.96,0.6-4.19,1.33-6.12c0.97-2.57,1.93-7.37-0.15-9.19
		c-2.32-2.02,2,3.77-2.86,11.48c-0.32,0.51-1.27,0.68-1.99,0.27c-0.65-1.59-2.13-8.74-6.84-5.21c-0.31,1.74-1.74,3.06-2.55,4.7
		c-0.74,1.49-2.33,4.97-2.35,5c-1.17,0.39-1.81,0.68-2.35,0.41c-1.11-1.66,5.33-12.17,11.33-16.64c0.18-0.09,0.28-0.34,0.37-0.53
		c-1.35-0.31-2.23,0.67-3.12,1.35c-8.97,6.85-9.94,18.08-8.59,8.42c-3.18,1.59-2.73,8.63-5.19,6.99c1.45-2.9,0.34-5.05,0.46-5.4
		c2.11-4.08,8.54-11.63,12.3-12.77c5.5-1.66,10.92-1.63,16.23,1.43c0.57,1.8,3.67,10.51,1.22,10.51c-1.82-0.36-1.89-0.32-1.86-2.16
		c0.02-1.01,0.1-1.93-0.58-2.94c-0.25,5.26-2.59,4.56-0.92,7.35c3.57,0.41,6.3,2.37,8.78,4.9c5.69,5.81,13.45,18.78,13.98,18.27
		c0,0.01,0.01,0.06-0.01,0.15c-0.04-0.01-0.07-0.03-0.09-0.04c0.02,0.01,0.04,0.03,0.08,0.07v0.01c0.02-0.02,0.11,0.1,0.2,0
		c-0.22,0-0.2,0-0.1-0.1c-0.07-0.07-0.08-0.1-0.08-0.09c0.02-0.02,0.03-0.05,0.03-0.1c0-1.79-7.78-13.24-11.36-17.26
		c-0.48-0.48-0.99-0.89-0.51-1.74c4.94,3.59,9.16,7.2,12.25,12.76c6.34,11.4,9.9,17.78,9.9,27.56
		C757.83,370.46,757.53,372.71,755.79,374.65z M661.16,366.79c0-0.88,0-1.97,0-2.85C662.03,364.83,661.55,365.81,661.16,366.79z
		 M715.16,321.97c0.35,1.24,0.57,2.11-0.1,3.37c-4.42,2.58-4.7,2.91-5.31,1.84c0.82-1.63,1.11-4.13,3.47-7.03
		c0-0.1-0.02,0.33-0.02,0.43C713.17,322.72,714.78,320.63,715.16,321.97z"/>
	<path d="M716.49,312.07l-0.1-0.1C716.33,312.09,716.33,312.04,716.49,312.07z"/>
	<path d="M695.26,415.78l-0.1,0.1C695.28,415.89,695.3,415.93,695.26,415.78z"/>
	<path d="M502.43,98.73l-0.1,0.1C502.37,98.83,502.41,98.76,502.43,98.73z"/>
	<path d="M337.17,229.59c-0.22,7.26,0.99,9.09,2.86,17.76c0.54,2.52,1.17,4.42,2.96,5.82c5.1,2.04,10.11,1.84,14.9-1.02
		c8.95,12.53,8.12,9.81,10,9.19c2.14,1.07,3.34,4.9,8.37,4.8c3.11-0.06,8.8-1.73,9.19-2.25c1.75-3.49-1.72-4.6,1.02-13.37
		c3.65-11.67,3.91-11.71,3.88-13.47c-0.05-2.55,0.92-4.49,3.06-5.92c0.31,0,0.71,0.1,1.22,0.1c2.33-6.32,8.02-6.63,14.6-11.23
		c3.7-2.11-1.11-1.71,18.99,4.59c8.88,2.79,14.35,6.44,34.09,16.94c13.39,7.12,24.97,8.89,30.52,11.33
		c6.95,3.05,22.24,4.9,27.77-0.31c0.31-0.71-0.71-0.92-0.61-1.74c3.57-3.27,7.55-6.53,7.76-12.35c8.23-0.75,6.6,2.39,17.25-1.12
		c16.67-5.5,12.03-14.55,14.29-22.46c0-20.8-15.49-58.55-22.15-70.03c-7.03-12.11-7.8-19.35-17.97-31.85
		c-6.19-7.6-11.14-8.73,19.91-7.45c2.66,0.11,10.65,1.62,23.78,3.37c12.4,1.65,11.16,0.71,15.62,0.1
		c3.11,7.77,7.57,12.91,15.92,14.5c-2.64,14.96-6.35,19.44-4.7,28.17c-2.76,1.07-3.03,3.71-6.23,12.66c0.61,1.94,0.4,3.77-0.31,5.72
		c-3.02,8.29-0.41,32.37-2.45,36.44c1.36,16.68,1.14,14.05-0.2,21.23c-0.82,4.37-0.37,13.31,1.12,15.72
		c1.9,3.05,0.57,8.88,2.96,18.17c2.26,8.76-0.24,13.04,2.14,17.15c0.78,1.35,0.51,3.06,0.61,4.7c0,2.25,0.1,2.25,2.04,4.19
		c1.66,0.11,9.61,2.46,11.13,2.25c7.77-0.62,15.37,3.38,22.46,2.25c8.14-1.3,7.3,1.98,15.31-0.31c1.33-0.71,0.92-1.63,1.63-2.35
		c3.06,0.61,6.43,1.12,9.6,0.61c3.78-1.68,1.23-3.17,0.82-4.29c-2.04-1.46-7.62-1.35-11.84-3.88c-3.17-1.89-11.16-1.45-13.37-1.12
		c0,1.2,0.88,1.33,6.43,1.33c5.76,0,3.86,1.51,12.66,3.57c2.42,0.57,4.82,0.78,5.51,1.94c-0.5,1.51-2.55,1.34-4.59,1.12
		c-21.69-2.34-8.07-3.38-27.05-5.1c-2.06,0-1.57,1.63-0.31,1.63c8.97,0.82,8.96,0.75,9.9,1.22c3.62,2.07,5.46,1.76,8.98,3.27
		c0.1,0.92-0.61,1.12-1.12,1.02c-2.14-0.61-4.52,0.04-6.43-1.43c-1.05-0.81-12.74-0.55-14.7-0.31c-1.63,0.2-3.37-0.3-5.1-0.61
		c-8.39-1.49-13.32,0.51-19.29-3.47c-0.61-3.37-1.72-6.84-1.63-10.41c0.29-11.65-1.78-12.24-2.45-24.29
		c-0.09-1.68-2.78-35.46-2.25-39.91c2.2-18.21,1.25-47.25,7.25-56.96c2.32-3.76,0.9-8.06,2.35-17.46c1.13-7.36,4.48-9.2,5.21-17.97
		c1.4,1.53,0.84,2.62,2.45,7.86c0.61,0,0.79,0.44,0.31-5.41c-0.18-2.15-0.71-4.08-2.25-5.72c-0.43-5.19,1.95-6.2,5-17.76
		c0.19-0.72,0.51-1.63-0.61-2.45c-1.43,0.82-1.22,2.45-1.84,3.98c-5.7,3.07-6.47,20.85-6.74,21.64
		c-3.67,1.83-14.12-10.39-16.33-14.19c-3.27,0.31-6.43,0.82-9.49-0.31c0.59-13.49-0.43-14.01-0.2-16.74
		c2.28-27.38,1.98-48.65,2.35-52.37c1.85-3.39,55.72-10.73,75.64-1.43c5.19,11.33,13.93,12.82,12.96,19.8
		c1.02,1.33,0.71,2.86,0.31,5c-0.1-2.25-0.1-3.67-0.61-5.41c-1.66-0.83-2.69-8.28-16.54-15.31c-4.27-2.17-8.78-3.85-13.68-4.29
		c-7.87-0.7-19.45-4.64-37.77,11.33c-3.87,3.38-6.32,7.45-7.86,12.35c-1.12,3.57-0.54,7.05,0.51,10.51
		c3.23,10.66,8.89,14.41,13.98,18.58c2.56,0,3.08-1.4,2.35-1.63c-5.08-1.61-8.37-4.9-10.51-9.7c-1.33-2.96-2.63-5.82-3.47-8.98
		c-2.07-7.79,1.72-14.4,5.1-17.05c13.52-10.57,20.65-14.61,36.54-12.45c8.83,1.2,28.32,12.57,29.19,21.44
		c0.11,1.12,0.61,2.14,1.12,2.96c-0.89,8-0.32,3.94-2.76,4.29c-1.7,0,1.2,16.54-16.54,34.09c-11.25,11.14-10.8,21.89-19.19,41.65
		c-0.98,2.31-0.68,3.12-1.12,3.57c-1.86,1.91-2.12,4.61-3.16,6.94c-1.2,2.67-1.68,5.42-1.33,8.27c0.58,4.64-0.44,5.92-1.53,17.56
		c-0.33,3.47-1.12,6.84-2.55,10c-1.36,0.82-2.12-0.27-3.47,14.8c-0.12,1.33-1.24,11.18-1.94,12.35c-1.86,2.41-2.01,3.85-4.7,23.07
		c-1.44,10.3-2.9,15.72-0.51,20.72c1.36,2.44-0.61,8.51,1.84,8.78c0.49-1.08,0.31-9.13,0.31-15.11c2.66-1.23,12.36,1.41,15.92,2.96
		c1.94,0.84,5.64,1.93,7.45,0.82c1.64-1.01,1.02-3.27,2.55-4.59c1.33,0,2.76,0.4,4.19,0.82c3.92,1.14,2.66,0.2,8.78,0.71
		c2.66,0,5.7,1.04,7.55-1.63c1.22-0.1,2.86,0.41,3.16-1.43c-0.1-0.82-0.61-1.22-1.22-1.33c-7.04-1.58-11.7-6.84-20.21-7.76
		c-25.06-2.7-12.91-0.55-26.23-4.19c1.26-15.11,3.56-16.39,7.66-41.44c1.09-6.69,3.55-9,4.7-18.99c0.77-6.67,2.51-7.44,1.63-16.03
		c-1.2-11.7,1.18-8.53,3.57-14.5c6.57-16.38,4.92-12.46,9.39-26.13c6.91-21.11,20.56-21.26,23.78-38.38
		c0.19-1.02,0.51-2.14,0.82-3.37c0.71-0.1,1.33-0.1,2.25-0.2c1.33-1.84,3.77-2.16,6.02-2.65c1.43-0.32,2.75,0.32,3.78,1.22
		c2.61,2.3,5.56,1.69,11.43,5.41c-0.1,2.65,0.56,5.31,0.51,8.17c-0.08,4.44,2.57,6.65,5.61,9.08c2.35-0.2,4.7-0.41,6.84-1.02
		c1.74,0.1,3.06,1.22,4.9,0.82c-1.72,11.33-1.05,9.57-2.45,8.17c-1.59-1.59,3.14,12.85,4.19,16.33c0.31,0.71,0.61,1.53,1.63,2.14
		c0.57-2.38-2.76-7.24-2.25-11.02c4.75,10.29-1.29-8.29,1.22-14.29c0.3-0.72,0.1-1.63,0.2-2.55c1.12-0.31,1.74,0.92,2.45,0.92
		c1.94,0.1,3.27-2.35,5.51-1.02c-3.88,13.41-3.49,15.88-3.98,4.08c-1.42-0.4-1.88-1.14,0.2,25.62c1.96,1.96,1.58-1.05,1.22-3.78
		c-0.39-2.97,0.21-1.67,1.74-13.88c1.53-12.33,1.17,12.4,4.08,13.37c1.08-3.25,0.61-3.01,0.61-19.29
		c0.58-1.88,9.78-9.67,11.94-11.02c4.45-2.78,8.11-0.54,10.31-1.74c3.33-1.81,7.16-2.83,10.31-5c9.07-6.24,10.79-7.19,12.05-10.21
		c2.69-6.48,3.2-3.71,4.7-16.54c0.63-5.41-0.62-9.77-5.61-20.62c-4.41-9.58-8.02-12.93-12.05-15.62c-4.51-3-5.08-5.2-11.02-5.82
		c0.71-4.49-0.45-8.49-1.63-12.45c-1.55-5.21-15.38-10.57-28.48,3.98c-5.69,6.32-6.53,12.19-7.55,15.52
		c-1.45,4.69-4.7,5.18-8.06,13.58c-0.11,0.44-0.57,1.26-1.33,1.63c-6.75,1.87-12.27,3.53-28.38-4.29
		c-7.54-3.66-22.62-9.36-30.73-8.57c-0.12,0.01-36.23-0.53-59.21,5.82c-15.01,4.15-55.63,12.96-55.73,12.96
		c-12,0.9-12.07-2-25.83-1.12c-9.84,0.62-22.82,3.62-33.99,9.49c-8.36,4.4-12.01,11.02-15.52,16.54c-0.32,0.32-3.04,9.94-2.65,10.72
		c1.22,2.14,0.38,4.39,0.31,6.53c-0.4,11.57,3.2,15.42,2.14,18.58c-0.87,2.16,2.24,10.53,7.04,16.33
		c16.47,19.87,5.46,3.9,16.03,31.75c16.21,42.71,15.58,29.3,2.65,33.38c-2.98,0.75-17.75-0.42-22.15-0.92
		c-23.55-2.69-26.98-0.95-38.79-5.92c0.61-1.63,2.96,0.1,3.16-1.94c-0.1-0.82-0.82-1.12-1.53-1.33c-3.9-0.83-8.11-1.32-9.9-1.43
		c-7.18-0.46-6.78-3-11.02-3.88c-6.49-1.34-12.69-3.96-23.17-7.45c-1.94,0.92-3.15,2.56-4.08,4.19c-6.64,11.62-5.43,16.3-1.94,23.27
		c-0.31,0.71-0.8,1.33-0.92,2.04c-1.05,6.45-7.36,9.68-11.94,18.07C335.7,217.89,337.46,219.92,337.17,229.59z M636.03,245.2
		c0.38,0,6.47,3.96,12.68,5.61c-1.78,1.77-2.59,0.17-5.32-0.88c-2.37-0.91-3.15-0.81-4.3-1.43c-0.1-0.03-7.67-4.43-16.31-4.43
		c-4.03-0.29-5.19-0.9-5.41,0.41c1.2,2.05,11.05,0.95,16.84,3.89c6.74,3.42,7.2,2.29,8.68,3.77c-3.27,0-6.24,0.46-9.29-0.41
		c-6.8-1.95-5.5-0.2-9.17-2.4c-2.37-1.42-6.77-1.09-9.26-2.16c-1.89-0.82-1.58-1.66-5.11-1.66c-0.15,0-0.13-0.19-0.13-0.02
		c1,4.75,11.29,3.37,15.1,5.95c1.02,0.69,0.37,1.78-0.1,3.67c-1.56,0.69-1.42,1.35-7.76-0.92c-12.63-4.52-13.27-2.43-14.78-3.13
		c-1.44-0.67,0.31-8.76,1.31-10.85C611.31,242.16,629.73,242.08,636.03,245.2z M708.33,100.97c-0.1,0.1-0.24-0.02-0.11-0.4
		C708.4,100.66,708.62,100.75,708.33,100.97z M709.86,103.63c-0.25-0.08-0.56-0.15-0.61-0.2c-0.22-0.42-0.03-0.76,0.31-0.92
		C709.92,102.88,710.32,102.69,709.86,103.63z M755.28,72.13c0,0.1,0,0.15-0.13,0.15C755,72.28,755.4,72.01,755.28,72.13z
		 M698.92,21.5c-0.02,0.24-0.1,0.23-0.19,0.06C698.79,21.56,698.86,21.53,698.92,21.5z M650.83,37.02c2.89-0.36,9.66,6,16.55,7.4
		c12.12,2.47,13.71-2.18,16.85-1.44c0.39,1.56,0.18,1.08,2.14,1.74c0.2,0.61,0.41,1.22,1.74,1.12c2.2-2.2,4.36-4.96,6.23-7.45
		c-1.46-3.96,7.08-9.68,6.47-11.6c-0.06-0.31-5.61,4.53-7.8,9.04c-0.31,1.33,0.51,1.94,0,2.96c-4.53,3.77-3.24,3.72-5.51,3.27
		c-1.75-0.87,1.98-2.46,2.65-8.27c2.84-2.65,5.67-6.01,15.21-10.21c1.37-0.6,7.49-2.84,8.23-2.84c2.48,0,1.63,1.23,4.12-1.76
		c1.03-0.31,2.08-0.79,3.27-0.1c-0.89,3.13-7.4,1.42-12.15,12.25c-1.03,2.34-1.59,4.91-2.35,7.35c-0.1,0.31-0.1,0.71,0.31,0.82
		c0.85-0.42,3.94-10.07,5.39-9.48c0.64,0.26,0.23,0.1-0.39,3.66c-0.73,4.17,0.71,4.11,1.22,1.94c0.44-1.88,3.11-10.27,5-9.8
		c-1.02,3.67-2.45,7.35-2.35,11.23c2.42-5.14,3.32-11.8,6.64-17.46c0.54-5.99,3.99-12.42,0-15.41c0.92,4.49-0.2,8.47-1.84,12.15
		c-3.79,2.53-1.13-2.8-6.51-5.71c-0.77,0-1.98,0.21-2.67,0.81c-1.33,3.47-3.88,6.12-4.59,9.39c-7.43,5.39-0.06-7.71,9.46-16.81
		c0.14-0.13-1.29-0.15-3.64,1.7c-6.45,5.08-7.8,10.6-8.98,11.76c-0.53,0.51,1.21-8.26-3.67,3.96c-1.95,0.4-0.11-0.09-0.71-5.51
		c2.14-4.08,5.33-7.32,8.78-10.41c5.29-4.74,17.35-3.47,19.8-0.1c1.29,4.15,3.7,11.78-0.13,9.74c-1.7-0.91,0.2-2.5-0.89-4.84
		c-4.51,11.58-1,3.52,7.45,12.14c5.64,5.75,11.56,16.35,13.64,17.66c0-2.17-7.72-13.09-10.77-16.43
		c-3.84-5.11,7.69,3.25,11.64,10.82c7.2,13.82,9.1,17.51,9.6,22.25c0.9,8.52-1.28,5.55-0.26,7.76c0.71,1.54,0.05,5.78-2.61,7.55
		c-0.89,0.89,2.25-4.94,2.25-8.17c-1.23,0.41-0.82,2.2-2.45,2.45c0.69-5.51,1.3-10.62-1.14-14.31c-1.04-1.57,1.2,3.47-0.29,11.15
		c-0.89,4.6-1.84,9.19-5.31,12.76c0.2,0.61,0.51,1.22,0.71,1.84c-1.02,0.82-0.71,2.14-0.92,3.16c-3.16,2.25-6.22,4.29-9.7,5.72
		c-6.39,2.62-7.64,3.61-7.83,3.9c-0.11-0.15-0.73-0.45-3.5-0.54c-5.1-0.16-12.16,7.18-14.6,10.83c-2.29,2.29-4.74-6.88-5.72-7.86
		c-1.74,0.51-0.51,2.25-1.22,3.06c-7.74,4.33-4.68-3.73-8.47-4.49c-1.83,1.83,1.73,3.36,1.02,5.31c-2.19,2.19-4.28-0.04-6.56-0.09
		c-1.16-0.03-3.26,1.59-5.59,1.2c-5.23-0.86-3.46-16.12-5.91-17.75c-1.02-0.82-2.14-1.12-3.37-1.43c-1.12-0.41-1.63-1.74-2.96-2.04
		c-7.47-1.71-9.78-5.4-13.59-3.73c-2.69,1.18,1.76-5.57,1.95-15.46c0.21-10.46-4-12.37-10.51-18.88
		C650.72,37.73,650.83,37.52,650.83,37.02z M703.29,17.68c-0.03,0.3-0.17,1.27-0.17,1.33C702.84,18.46,702.84,17.99,703.29,17.68z
		 M709.04,20.03c0.92-1.67,1.34-4.18,2.42-5.66c0.59-0.81,0.47-1.05,3.1,0.45c0.19,0.92,0.4,1.84-0.01,3.16
		C710.14,20.75,709.77,20.86,709.04,20.03z M650.65,36.77c0.1,0.03,0.19,0.04,0.08,0.15C650.46,36.83,650.47,36.68,650.65,36.77z
		 M508.97,252.26c-4.71,0-9.31-0.17-21.33-3.98c-33.54-10.62-41.13-21.82-57.06-26.95c-9.77-3.14-12.1-3.57-15.82-5.51
		c-0.49-0.88,0.2-2.48-1-2.62c-0.71-0.09-1.52,0.79-2.16,0.68c-0.63-1.03-4.5-2.99-0.4-2.45c18.36,2.41,25.48,6.97,39.61,7.25
		c3.41,0.07,21.11,7.89,54.5,16.07c8.11,1.99,18.95,2.3,20.44,3.63C523.07,244.35,514.86,252.26,508.97,252.26z M501.21,48.71
		c26.06,0.98,16.43-1.63,43.18-6.53c9.21-1.69,22.03-6.39,23.99-5.41c0.82,0.82-0.14-0.46-1.12,16.43
		c-0.69,11.95-0.83,24.27-1.12,25.52c-1.83,7.76,1.99,24.57,0.61,26.54c-11.48,0-35.88-5.92-50.43-2.35
		c-2.34,0.39-1.81-0.37-8.47-15.21c1.53-1.74,3.37-3.16,4.29-5.92c-0.03,0.03-0.05,0.05-0.07,0.06c-0.04,0.01-0.63,0.46-4.62,3.61
		c-1.19-0.5-1.32-1.7-1.74-2.76C489.89,43.01,489.59,48.28,501.21,48.71z M448.94,125.47c-9.51-9.51-11.56-16.08-12.35-29.6
		c-0.46-7.97,0.82-24,6.43-29.7c13.24-13.46,33.64-15.75,43.79-17.76c5.34-1.06,2.22,2.12,9.9,20.42
		c15.53,36.99,14.2,29.65,14.09,32.87c-1.82-0.14-14.05-11.46-15.09-10.89c0.68,1.62,10.53,8.55,10.7,9.87
		c-3.51-0.81-2.27-1.84-4.07-1.84c-0.29,0.36-0.61,0.67-0.43,1.33c3.47,1.43,6.53,3.67,9.7,5.41c1.74,5.82,6.53,9.39,9.19,14.5
		c-8.35,3.79-40.13,3.98-49.2,3.98c-5.83,0-12.51,1.65-16.64,1.43C452.93,125.37,450.99,125.17,448.94,125.47z M448.03,191.62
		c21.87,0.99,12.91-5.21,41.85-0.1c7.35,1.3,20.68,6.11,25.52,10.41c0.59,0.59,1.22,0.67,1.94,0.1c-4.19-4.29-9.39-7.04-13.88-10.51
		c-1.39,0.23-0.63,0.87-10-3.16c-3.35-1.44-4.47,0.12-8.06-0.71c-5.07-1.18-10.49-0.42-11.43-1.22
		c-3.84-11.53-19.2-43.66-17.16-45.02c9.47,11.84,10.17,19.73,23.07,30.11c6.62,5.33,3.29,4.15,14.29,12.76
		c0.38,0.3,5.23,4.05,5.77,3.91c1.85-0.47-9.84-9.6-19.96-20.96c-12.81-14.38-11.92-17.59-23.38-31.95
		c-1.04-1.31-1.84-2.65-2.76-3.98c-1.72-2.84,0.36-1.09,9.6-2.65c14.88-2.52,42.33,0.83,58.29-6.33c2.26-0.75,0.2,1.25,12.05,21.33
		c7.95,13.48,9.65,22.22,16.43,39.2c0.73,1.83,1.54,3.67,1.74,5.61c0.88,8.96,3.36,4.98,4.39,31.03
		c0.52,13.07-7.69,13.83-14.29,15.72c-1.83,0.53-3.67,0.71-5.51,0.51c-63.24-7.03-67.33-19.78-94.42-21.74
		c-4.16-0.3-7.67-0.76-15.41-3.06c-8.96-2.66-9.85-1.69-14.19-2.76c-10.35-2.54-11.22-2.86-12.66-2.04
		c-0.52,0.29-1.12-0.1-1.74-0.82c-0.51-1.63-0.21-3.47-0.41-5.31c-0.18-1.64-1.3-4.4-0.92-5.92c4.24-3.47,1.32-2.94,6.23-2.45
		c0.67,0.13,1.02-0.15,1.02-0.82c-1.33-0.82-2.65-1.74-4.39-1.94c-2.04,1.12-3.67,2.55-4.9,4.59c-0.92-1.22-1.22-2.65-1.43-4.29
		c0.85-1.24,0.76-2.95,1.65-4.2c1.44-2.01,2.09-0.23,4.06-0.19C408.5,184.97,438.43,191.18,448.03,191.62z M408.89,211.29
		c-0.8-0.09-1.58-0.45-2.2-0.98C407.62,209.73,408.49,209.93,408.89,211.29z M369.43,173.04c7.01,2.81,11.44,2.45,13.58,3.88
		c3.32,2.21,6.84,2.54,11.02,2.96c6.1,0.61,1.61,0.27-2.25,5.72c-4.16,5.87,3.08,9.9,3.57,21.23c8.38,6.87,21.48,5.49,5.72,14.5
		c-0.92-1.12-2.04-1.54-3.27-1.84c-6.24-1.49-7.93-2.54-10-2.35c-0.83,0-1.39,0.68-1.31,1.09c0.33,3.99,11.08,4.79,10.58,5.51
		c-1.46,2.11-1.58,2.66-2.74,3.09c-2.04,0.23-8.21-2.54-8.01,0.48c0.09,1.35,2.27,2.32,3.52,2.79c0.89,0.33-0.46,2.16-1.33,2.35
		c-1.63,0-3.37-1.02-5,0.41c0.78,2.36,3.16,2.25,4.7,3.78c0,2.23-1.11,4.95-3.37,6.43c0.07,0.17,0.37,1.11,0.72,1.83
		c-3.58,10.74-2.35,10.97-2.35,16.54c-2.65,1.22-5.21,1.94-8.37,1.63c-8.54-7.4-16.13-13.89-16.13-20.82
		c0-11.45-3.06-1.65,4.29-28.58c0.97-2.92,2.36-3.08,2.32-5.88c-0.05-3.15-2.87-10.07-2.79-12.91c0.08-2.71,0.73-2.19,2.31-7.75
		C368.88,172.87,368.24,173.47,369.43,173.04z M340.82,215.26c2.79-5.53,7.59-9.92,12.51-18.88c2.78-5.05-0.78-4.81-1.88-10.67
		c-1.18-6.32,3.05-5.57,5.21-12.96c0.7-2.39,1.27-2.77,9.29-0.92c0.31,1.23-0.28,2.1-0.61,3.05c-7.18,20.52-7.32,17.69-3.06,32.15
		c-3.41,15.52-8.04,21.35-7.04,30.52c1.29,11.82,1.22,10.4,1.22,11.91c0,0.36-4.26,3.82-11.74,1.77c-1.7-1.7-3.76-13.14-3.78-13.78
		C340.63,221.41,338.46,219.95,340.82,215.26z"/>
	<path d="M495.59,90.87c0.1-0.08,0.14-0.06,0.1-0.1L495.59,90.87z"/>
	<path d="M652.79,286.55c3.34,1.19,5.95-1.79,2.35-3.16c-1.06-0.4-10.13-3.86-10.31-3.98c-6.04-4.02-13.22-1.29-17.05-3.78
		c-0.93-0.6-2.14-0.61-3.27-0.82c-1.02-0.82-0.61-2.45-1.94-3.06c-1.94-0.61-3.98-0.83-6.12-0.51c-2.56,0.39-5.21,0.38-7.76,0.92
		c-1.58,0.33-4.13-0.51-5.1,0.31c-0.2,0.51-0.1,1.02,0.41,1.22c8.58,3.43,15.23,0.08,23.48,4.08c4.16,2.02,10.04-0.63,17.05,3.67
		c0.85,0.52,6.44,1.66,9.7,3.78C653.92,285.84,652.9,285.53,652.79,286.55z M620.81,273.25c-0.32,0.17-0.5,0.34-0.68,0.34
		c-3.39,0-3.68-0.05-2.96-0.51C618.08,273,621.62,272.83,620.81,273.25z"/>
	<path d="M655.45,590.64c-9.58-3.83-10.37-3.9-10.42-3.89c0.01,0,0.02-0.03-0.2-0.19c-3.96-2.89-8.6-2.21-14.8-2.65
		c-1.43-1.22-3.27-1.53-4.8-1.74c-1.33-0.53-0.17-1.09-2.35-3.27c-4.81-1.09-11.16,0.51-16.84,0.51c-3.01,0-2.11,1.35-1.43,1.63
		c3.71,1.53,11.23,1.92,13.78,1.84c5.36-0.17,7.15,1.62,11.74,2.65c5.62,1.26,8.42-0.4,11.64,1.53c4.76,2.86,8.77,2.41,12.56,5.31
		c-0.41,0.41-0.71,0.61-1.02,0.82c1.22,1.22,1.74,1.12,3.98-0.51C657.08,591.66,656.47,591.05,655.45,590.64z M621.37,580.72
		c-0.89,0.27-9.22-0.39,0.69-0.39C622.52,580.33,621.48,580.69,621.37,580.72z"/>
	<path d="M607.98,478.77c0.92-0.2,1.22-1.02,0.92-1.63c-0.71-1.43-0.6-2.86-0.71-4.29c-0.23-3.03-2.18-7.72-4.08-5.82
		c0,0.92-0.55-0.02,1.84,3.88C608.91,475.76,606.13,477.37,607.98,478.77z"/>
	<path d="M605.33,160.08c-0.91-1.14-3.11-0.81-1.33,1.74c4.18,5.95,1.47,7.21,3.27,9.9c1.02-0.51,1.02-1.43,0.71-1.94
		C606.23,166.78,608.67,164.25,605.33,160.08z"/>
	<path d="M612.88,75.25c-0.38-0.38-1.23-0.29-1.63,0.92c-0.77,1.93-0.26,6.29,0,8.37C612.06,81.48,613.09,78.42,612.88,75.25z"/>
	<path d="M602.67,388.53c-0.36,7.68,1.74,9.69,1.74,8.37c0.31-2.25-0.51-4.39-0.71-6.53C603.59,389.75,603.59,389.14,602.67,388.53z
		"/>
	<path d="M612.37,392.61c0.94-7.53,0.61-5.06,1.43-10C610.52,381.42,611.72,389.54,612.37,392.61z"/>
	<path d="M602.98,90.16c0.31-0.1,0.71-0.2,0.71-0.31c0.2-2.35-0.41-5.72-1.53-8.68C601.55,84.44,602.06,87.3,602.98,90.16z"/>
	<path d="M578.07,101.89c0.1,0.2,0.41,0.2,0.61,0.41c0.92-1.63,0.92-1.63,1.12-6.84c-1.22,1.43-1.32,1.74-1.74,3.67
		C577.87,100.06,577.36,100.98,578.07,101.89z"/>
	<path d="M580.42,402.62c-1.63,2.04-2.25,4.19-1.33,6.74C580.52,407.21,580.11,404.86,580.42,402.62z"/>
	<path d="M648,386.79c1.86,0.53,1.39-3.33,0.31-4.9C647.69,383.63,647.38,385.26,648,386.79z"/>
	<path d="M648.3,79.44c0.71-1.84,0.31-3.47-1.02-5.92C646.76,80.03,646.91,79.78,648.3,79.44z"/>
	<path d="M599.92,67.29c-0.41,1.63-0.2,2.04,1.74,5c-0.31-2.35-0.51-3.88-0.71-5.41C600.33,66.37,600.02,66.88,599.92,67.29z"/>
	<path d="M601.86,378.83c0.62-1.24-0.08-1.47-0.31-4.9C600.33,375.67,600.43,377.3,601.86,378.83z"/>
	<path d="M602.27,581.05c0.51-0.82,1.02-1.63,0.31-3.06c-1.12,1.12-1.12,2.35-1.43,3.47C601.75,581.97,602.06,581.46,602.27,581.05z
		"/>
	<path d="M600.63,274.41c1.63-1.22,1.63-1.22,1.12-3.47C601.14,272.06,600.43,273.08,600.63,274.41z"/>
	<path d="M612.98,399.45c0.41-1.33,0.1-2.04-0.71-2.86C611.76,397.82,612.58,398.43,612.98,399.45z"/>
	<path d="M647.18,369.85c1.12-0.82,1.12-0.82,0.61-2.35C646.57,368.11,646.67,368.93,647.18,369.85z"/>
	<path d="M646.77,60.45c-0.82,0.61-0.51,1.43-0.2,2.35C648,61.47,648,61.47,646.77,60.45z"/>
	<path d="M694.85,415.58c-0.1-0.71-0.1-1.43-0.1-2.65C694.14,414.15,694.44,414.87,694.85,415.58z"/>
	<path d="M611.86,89.54c-0.61,1.02-0.31,1.74,0.41,2.45C612.37,91.28,612.47,90.46,611.86,89.54z"/>
	<path d="M693.52,105.26c0.03-0.12,0.12-1.33-0.1-1.33C693.42,104.34,693.52,104.85,693.52,105.26z"/>
	<path d="M601.55,128.64c-0.41,0.71,0.2,1.12,0.82,1.63C602.37,129.25,602.27,128.74,601.55,128.64z"/>
	<path d="M601.86,133.95c-0.64,0.64-0.34,0.51,0.2,1.33C602.41,134.58,602.6,135.06,601.86,133.95z"/>
	<path d="M603.08,141.19c0.41-0.61,0.2-1.12-0.82-1.53C602.16,140.58,602.47,140.99,603.08,141.19z"/>
	<path d="M602.88,437.02c0-0.31,0-0.61-0.1-0.92C602.31,435.16,602.21,437.69,602.88,437.02z"/>
	<path d="M603.39,447.02c-0.61,0.41-0.51,0.82,0,1.33C603.9,447.94,603.8,447.53,603.39,447.02z"/>
	<path d="M646.38,66.95c0.09,0.39,0.19,0.79,0.29,1.36C647.05,67.56,646.97,67.24,646.38,66.95z"/>
	<path d="M603.49,584.11c0,0.1,0,0.2,0,0.2c0.5,0,0.75-0.16,0.31-0.31C603.69,584.01,603.59,584.11,603.49,584.11z"/>
	<path d="M647.42,374.54c-0.11-0.5-0.04-1.14-0.76-1.22C646.76,373.78,646.87,374.24,647.42,374.54z"/>
	<path d="M602.57,442.02c0.51-0.51-0.2-0.94-0.2-0.2C602.37,441.92,602.57,441.92,602.57,442.02z"/>
	<path d="M615.23,404.66c0.2-0.61-0.1-0.82-0.51-0.82C614.92,404.05,615.03,404.25,615.23,404.66z"/>
	<path d="M581.54,92.1c0.38,0,0.1-0.28,0.1-0.41C581.38,91.69,581.41,91.96,581.54,92.1z"/>
	<path d="M606.65,175.9c0.27,0,0.24-0.27,0.1-0.41C606.38,175.49,606.65,175.77,606.65,175.9z"/>
	<path d="M646.36,66.88c-0.01,0-0.02,0-0.1,0c0.05,0.02,0.07,0.04,0.12,0.07C646.36,66.9,646.36,66.89,646.36,66.88
		C646.36,66.88,646.36,66.88,646.36,66.88c-0.1-0.3-0.1-0.61-0.1-1.32C645.55,66.37,646.05,66.57,646.36,66.88z"/>
	<path d="M614.51,97.2c-0.1-0.31-0.1-0.61-0.2-1.02C613.8,96.69,614.31,96.89,614.51,97.2z"/>
	<path d="M612.17,92.1h0.31C612.23,91.97,612.3,91.97,612.17,92.1z"/>
	<path d="M614.72,403.53c0,0.1,0,0.2,0.1,0.2C614.82,403.64,614.72,403.53,614.72,403.53z"/>
	<path d="M582.05,399.35c0.25,0,0.24,0.03,0.1-0.1L582.05,399.35z"/>
	<path d="M607.37,483.16v-0.1C607.22,482.91,607.24,482.9,607.37,483.16z"/>
	<path d="M603.08,277.16c0.1,0,0.2-0.1,0.2-0.2c0-0.1-0.1-0.1-0.2-0.2C602.83,277,602.82,276.91,603.08,277.16z"/>
	<path d="M647.38,374.75c0.13,0.13,0.1,0.13,0.1,0c0.1-0.1,0.16-0.09-0.06-0.2C647.47,374.71,647.5,374.64,647.38,374.75z"/>
	<path d="M646.36,372.91c0,0.16-0.06,0.31,0.31,0.31C646.67,373.01,646.57,372.91,646.36,372.91z"/>
	<path d="M582.46,399.04c-0.1,0.1-0.2,0.1-0.2,0.31C582.36,399.25,582.36,399.15,582.46,399.04z"/>
	<path d="M614.41,97.2c0.1,0.1,0.2,0.1,0.31,0.2C614.62,97.3,614.62,97.2,614.41,97.2z"/>
	<path d="M704.75,321.77l-0.1-0.1C704.65,321.85,704.55,321.87,704.75,321.77z"/>
	<path d="M754.16,359.44c0.12,0.06,0.1,0.16,0.1-0.1L754.16,359.44z"/>
	<path d="M722.72,312.18c0.12,0.02,0.14,0.11,0.1-0.1L722.72,312.18z"/>
	<path d="M508.35,427.52l-0.1,0.1C508.49,427.58,508.49,427.7,508.35,427.52z"/>
	<path d="M753.65,51.26c0.15,0.21,0.19,0.39,0.1-0.1L753.65,51.26z"/>
	<path d="M747.92,40.05l0.01-0.01c-0.11,0-0.16-0.27-0.1,0.1L747.92,40.05z"/>
	<path d="M703.53,14.82l-0.1-0.1C703.42,14.88,703.4,14.82,703.53,14.82z"/>
	<path d="M347.58,409.45c0.49,0.21,1.02,0.11,1.43-0.41c-1.31-1.97-8.87-3.23-13.47-9.7c-0.86-1.2-2.68-2.7-3.27-1.44
		c2.76,3.49,5.6,7.16,9.88,9.2C342.25,407.1,347.32,409.45,347.58,409.45z"/>
	<path d="M309.34,377.46c1.19-1.66,0.09-0.22-15.04-2.61c2.13,2.61,10.23,2.96,13.16,3.27
		C308.31,378.21,308.85,378.15,309.34,377.46z"/>
	<path d="M190.07,337.59c0.1,0.92,1.02,0.93,1.63,1.12c3.15,0.98,6.33,1.94,10.41,1.94c-3.88-1.94-7.35-2.55-10.62-3.57
		C190.8,336.73,190.07,337.14,190.07,337.59z"/>
	<path d="M287.76,372.91c-1.32-1.46-1.42-1.73-4.27-1.95c-1.28-0.1-2.04-0.36-0.04,0.81C284.79,372.54,286.25,372.84,287.76,372.91z
		"/>
	<path d="M204.98,342.49c1.22,0.71,2.25,1.12,3.57,0.92C207.63,342.19,207.63,342.19,204.98,342.49z"/>
	<path d="M460.38,373.32c-0.3,1.41,2.11,3,3.12,2.89C463.93,376.12,462.12,374.19,460.38,373.32z"/>
	<path d="M499.47,400.68c0.95,0.24,2.05,0.02,2.32-1.19c0.07-0.31-1.1,0.26-3.44,0.68C498.66,400.78,499.06,400.68,499.47,400.68z"
		/>
	<path d="M226.82,346.17c0.82,0.61,1.63,0.92,2.65,0.82C228.46,345.96,228.46,345.96,226.82,346.17z"/>
	<path d="M322.47,392.71c-0.61-0.82-0.61-0.82-2.45-0.71C320.8,392.85,321.5,393.36,322.47,392.71z"/>
	<path d="M326.35,392.92c0,1.39,0.55,1.84,1.53,1.84C327.73,393.85,326.85,394.03,326.35,392.92z"/>
	<path d="M456.9,377.71c0.1,0.94,0.45,1.72,1.37,1.97C458.56,379.76,458.02,378.21,456.9,377.71z"/>
	<path d="M458.44,379.85l0.1-0.1C458.34,379.71,458.4,379.65,458.44,379.85z"/>
	<path d="M276.14,367.06c-0.11-0.33-0.83-0.17-0.93-0.17c0,0.06,0,0.24,0,0.31C275.49,367.2,276.22,367.45,276.14,367.06z"/>
	<path d="M455.58,375.87c-0.86,0,0.28,0.9,0.51,1.12C456.19,376.59,456.09,376.18,455.58,375.87z"/>
	<path d="M436.08,376.87c0-0.64-0.09-1.12-0.71-1.31C435.37,376.06,435.29,376.72,436.08,376.87z"/>
	<path d="M436.18,376.89c-0.04,0-0.07-0.02-0.1-0.02C436.08,377.03,436.05,377.02,436.18,376.89z"/>
	<path d="M436.08,376.99c0.09,0.48,0.02,1.13,0.69,1.3C436.89,378.29,436.72,377.33,436.08,376.99z"/>
	<path d="M436.8,378.42c0.02-0.02,0.06-0.06,0.1-0.1C436.74,378.28,436.8,378.29,436.8,378.42z"/>
	<path d="M436.9,378.42c0.16,0.37,0.2,0.82,0.2,0.92C437.51,378.83,437.1,378.63,436.9,378.42z"/>
	<path d="M458.74,380.56c0.08-0.28-0.17-0.45-0.41-0.6C458.39,380.06,458.56,381.24,458.74,380.56z"/>
	<path d="M435.37,375.34c0-0.67,0-1.13-0.71-1.31C434.65,374.71,434.6,375.21,435.37,375.34z"/>
	<path d="M435.37,375.34c0,0.04,0,0.08,0,0.12C435.5,375.33,435.5,375.37,435.37,375.34z"/>
	<path d="M491.05,389.01c-0.17-0.17,0.15,0.2,0.15,0.54C491.56,389.19,491.21,389.15,491.05,389.01z"/>
	<path d="M453.23,396.3c0.1,0.19,0.1,0.6,0.2,1.01C453.86,396.88,453.62,396.68,453.23,396.3z"/>
	<path d="M444.15,368.93c0.06,0,0.12,0.01,0.18,0.02C444.22,368.8,444.28,368.8,444.15,368.93z"/>
	<path d="M445.79,369.44c-0.33,0-0.25-0.03-0.11,0.1C445.94,369.41,445.92,369.44,445.79,369.44z"/>
	<path d="M444.49,368.95c-0.42-0.07,0.13,0.51,1.06,0.49C445.27,369.18,444.87,369.02,444.49,368.95z"/>
	<path d="M447.21,370.77c-0.06-0.31-0.1-0.4-0.7-0.4C446.7,370.67,446.8,370.97,447.21,370.77z"/>
	<path d="M217.74,344.13c0-0.34-0.66-0.18-0.31,0C217.53,344.23,217.64,344.13,217.74,344.13z"/>
	<path d="M443.53,374.14l0.1,0.1C443.64,373.97,443.64,374.03,443.53,374.14z"/>
	<path d="M434.35,373.73c-0.1,0-0.07,0.31,0.31,0.31C434.65,373.73,434.55,373.63,434.35,373.73z"/>
	<path d="M442.92,373.32c-0.2,0.2,0.44,0.64,0.71,0.71C443.43,373.83,443.13,373.52,442.92,373.32z"/>
	<path d="M442.37,372.81c-0.2-0.1-0.19-0.12,0.44,0.51C442.75,373.12,442.59,372.92,442.37,372.81z"/>
	<path d="M442,372.71c0.25,0,0.37,0.16,0.1-0.1C442.08,372.63,442.03,372.68,442,372.71z"/>
	<path d="M441.39,371.79c-0.06,0.06-0.06,0.06-0.1,0.1C441.48,371.89,441.64,372.04,441.39,371.79z"/>
	<path d="M441.53,371.93c0.06,0.06,0.24,0.24,0.31,0.31C442.47,372.87,441.9,372.02,441.53,371.93z"/>
	<path d="M440.57,371.18c0.16,0,0.1,0.06,0.1-0.1C440.62,371.13,440.61,371.14,440.57,371.18z"/>
	<path d="M440.7,371.19c0,0.29,0.4,0.53,0.69,0.6C441.3,371.42,441.11,371.23,440.7,371.19z"/>
	<path d="M439.86,370.26c-0.02,0.02-0.06,0.06-0.1,0.1C439.94,370.4,439.86,370.46,439.86,370.26z"/>
	<path d="M440.45,371.02c0.25,0.06-0.01-0.44-0.48-0.6C439.76,370.35,439.93,370.85,440.45,371.02z"/>
	<path d="M439.66,370.05c0,0.1,0.1,0.2,0.31,0.2C439.86,370.16,439.66,370.16,439.66,370.05z"/>
	<path d="M445.89,369.69c0.06,0.33,0.38,0.49,0.7,0.57C446.34,370.18,446.09,369.94,445.89,369.69z"/>
	<path d="M445.78,369.54c0.13,0.22,0.11,0.12,0.11,0.06C445.89,369.4,445.93,369.39,445.78,369.54z"/>
	<path d="M453.33,396.19c-0.1-0.1-0.2-0.1-0.31-0.2C453.03,396.08,453.13,396.19,453.33,396.19z"/>
	<path d="M328.39,394.96c-0.1,0-0.31-0.1-0.51-0.1C328.27,395.24,327.88,395.47,328.39,394.96z"/>
	<path d="M491,388.94v-0.1C490.85,388.69,490.87,388.68,491,388.94z"/>
	<path d="M480.59,382.92c0,0.04,0,0.07,0,0.1C480.86,383.15,480.86,383.19,480.59,382.92z"/>
	<path d="M480.38,382.81c0.08,0.08,0.2,0.22,0.2,0.1C480.59,382.71,480.59,382.61,480.38,382.81z"/>
	<path d="M465.79,378.53l-0.1,0.1C465.94,378.63,465.92,378.66,465.79,378.53z"/>
	<path d="M455.99,377.1c0.05,0,0.09,0,0.13,0C456.08,376.97,456.14,376.94,455.99,377.1z"/>
	<path d="M456.19,377.32c0.13,0.3,0.32,0.47,0.71,0.39C456.77,377.03,456,376.87,456.19,377.32z"/>
	<path d="M465.02,377.86c1.73,1.73-0.2-0.62-0.77-0.77c0.2,0.31,0.51,0.51,0.71,0.82L465.02,377.86z"/>
	<path d="M464.01,376.82c-0.16-0.17-0.34-0.34-0.47-0.54C463.61,376.57,463.79,376.7,464.01,376.82z"/>
	<path d="M464.26,377.1l0.1-0.1C463.82,376.75,464.01,376.75,464.26,377.1z"/>
	<path d="M483.14,539.6c-0.9-0.45-16.2-0.61-17.76-0.61c0.2,0,2.57,0.62,5.82,1.12C483.43,542,483.62,539.6,483.14,539.6z"/>
	<path d="M454.56,536.34c2.76,2.04,5,2.55,7.35,2.86C462.48,538.05,461.73,537.82,454.56,536.34z"/>
	<path d="M489.47,534.09c-0.51-0.51-1.02-1.02-1.94-2.04C487.71,535.2,490.35,534.97,489.47,534.09z"/>
	<path d="M398.62,515.21c0.92,0.61,1.63,1.02,2.55,0.71C400.44,515.06,399.7,514.67,398.62,515.21z"/>
	<path d="M391.27,512.76c-0.61-0.2-1.33-0.41-2.04-0.71C389.64,513.17,389.64,513.17,391.27,512.76z"/>
	<path d="M432.1,524.29c-0.31,0.71,0.2,0.82,0.61,0.92C432.89,524.6,432.46,524.54,432.1,524.29z"/>
	<path d="M437.92,528.68c0.31,0.31,0.61,0.82,1.12,0.61C438.94,528.68,438.63,528.27,437.92,528.68z"/>
	<path d="M406.17,517.25c0.41,0.51,0.41,0.51,1.22,0.1C406.99,516.94,406.58,516.94,406.17,517.25z"/>
	<path d="M443.74,532.36c0.22,0.33,0.82,0.35,0.82-0.1C444.25,532.05,443.94,531.95,443.74,532.36z"/>
	<path d="M492.74,539.2c0.33-0.33,0.46-0.29-0.11-0.45C492.33,538.65,492.43,538.59,492.74,539.2z"/>
	<path d="M492.53,538.58c-0.11-0.44-0.41-0.31-0.41-0.2C492.12,538.63,492.21,538.58,492.53,538.58z"/>
	<path d="M713.24,356.93c0.4-1.31,0.7-2.61,1.1-3.82c-2.09-2.69-5.66-4.15-8.98-4.9c-0.7,0.3-1.59,0.7-2.4,1.1
		c-0.17,0.09-0.74-0.48-0.46-0.9c0.94-1.1,4.06-4.57,4.08-4.59c-2.58,0.76-3.36,2.44-5.41,4.49c-0.92,0.41-1.94,0.92-2.86,1.33
		c0.1,0.31,0,0.51,0.1,0.51c0.66,0.6,1.81-0.17,2.58,0.43c0.76,0.58-1.57,2.66-2.79,4.36c-3.01,1.32-6.48,2.81-3.88,5
		c1.36,1.14,2.08,0.95,4.08,0.41c0.21-1.19-0.96-1.21-1.82-1.5c-2.51-1.1,1.55-1.06,2.94-2.58c1.27-1.39,1.75-1.85,2.68-2.88
		c0,2.04-0.56,2.33-1.97,4.31c0.82,0.82,1.43,1.73,2.45,2.04c1.12,0.2,1.43-0.82,2.25-1.22c1.12,0.2,1.94,1.12,3.16,0.71
		c1.32-0.56,1.44-2.33,2.81-2.76c-0.82,3.28-2.16,5.5,0.01,6.41C714.61,364.42,709.71,358.23,713.24,356.93z M707.2,350.86
		c-1.35,0.78-2.61,1.27-3.95,1.49C704.86,350.46,705.12,350.37,707.2,350.86z M709.34,354.95c-3.11-1.26-0.77,0.55-1.02,1.94
		c-0.19,0.49-0.49,0.8-1.14,0.81c-0.79,0.01-1.17-1.52-2.23-1.52c-0.62-0.1-1.13,0.71-1.84,0.1c0.56-2.4,2.24-3.56,3.12-3.56
		C707.11,352.8,710.31,353.98,709.34,354.95z M711.24,356.14c-0.24-1.39,0.96-0.79,0.55-3.24c0.78,0.78,0.81,0.83,0.1,1.62
		C711.62,354.89,712.34,355.51,711.24,356.14z"/>
	<path d="M713.22,356.99l0.1-0.1C713.22,356.92,713.25,356.94,713.22,356.99z"/>
	<path d="M725.47,364.64c0.26,0.37,0.87,0.51,1.33,0.51c0-0.01-0.01-0.02-0.01-0.02c-1.05-3.11,0.5-2.45,0-2.83
		c-0.1-0.08-1.12-0.86-1.12-0.96c-0.28-0.61,0.2-1.4-0.4-2.22c-3.41-4.66-3.79-9.99-3.27-15.52c0.93-9.91-2.07-0.08-1.53,5.61
		C721.58,360.93,719.56,357.65,725.47,364.64z M724.04,360.36c0-0.08-0.07-0.24-0.15-0.42
		C724.11,359.93,724.37,359.95,724.04,360.36z M722.63,358.01c0.81,0.45,1.29,0.9,1.12,1.82
		C722.75,359.69,722.41,359.08,722.63,358.01z"/>
	<path d="M719.45,385.36c-0.71,2.25,2.25,2.25,2.25,3.88c-0.2,0.41-0.51,0.41-0.92,0.41c-0.66,0.06-0.75-0.63-1.06-1.04
		c-1.07-1.4-1.68,2.44-1.59,4.92c2-1.33,3.95,0.31,5.72-0.31c1.31,0.65,1.75,2.43,3.47,2.05C724.07,389,725.58,390.06,719.45,385.36
		z"/>
	<path d="M695.16,350.25c0.44,0-0.29,1,3.98-4.59c3.23-4.24,4.68-4.72,5.1-7.15c0.06-0.57,3.91-5.82,3.98-5.92
		c-1.51-1.81-2.96,2.31-11.74,13.88C694.52,349.43,694.13,349.48,695.16,350.25z"/>
	<path d="M689.13,366.68c-8.27,5.45-5.12,19.42-4.08,12.86c0.59-3.72,0.32-9.5,7.45-13.07c1.64-0.98,1.63-0.49,1.8-1.24
		C694.39,364.67,691.8,364.93,689.13,366.68z"/>
	<path d="M732.2,362.06c-0.91-2.54-0.5-5.29-1.32-8.65c-0.56,2.79-0.92,5.6-0.82,8.37c-0.8,0.16-2.69-1.96-2.57-0.73
		c0,0.81,1.63,2.17,4.3,4.83c1.27,0,2.73-0.7,2.14-1.75C733.59,363.52,732.2,362.52,732.2,362.06z"/>
	<path d="M746.2,376.48c0.47,0.2,0.82-0.04,1.26-0.27c2.37-1.2-1.62,2.54,1.08,5.06c2.49,0,1.38-7.39,0.72-9.9
		C747.73,372.91,746.71,374.75,746.2,376.48z"/>
	<path d="M734.98,332.97c0.61,1.48,0.32,0.18,5.6,8.71c0.73,1.18,1.94,3.97,2.96,5C742.37,339.01,734.19,331.08,734.98,332.97z"/>
	<path d="M744.3,356.98c-0.36,2.29-1.88,12.5-1.88,14.81c1.18,0.34,1.28-0.25,1.63-2.86C744.81,363.31,744.64,354.79,744.3,356.98z"
		/>
	<path d="M732.21,395.37c0.71-0.1,1.02-0.51,1.02-1.02c0-4-1.54-6.84-3.98-10.11C728.64,386.94,729.74,386.96,732.21,395.37z"/>
	<path d="M694.4,346.34c-0.05,0.26-0.11,0.17,0.45-0.07c0.09-0.09,0.35-0.51,0.41-0.61c-0.48-2.38-0.26-2.34,5.74-9.87
		c2.35-2.95-4.17,1.83-7.06,7.63C694.02,344.63,694.53,345.45,694.4,346.34z"/>
	<path d="M694.34,346.68c0.06-0.19,0.03-0.2-0.1-0.1L694.34,346.68z"/>
	<path d="M738.03,363.21c0.61,0.71,1.22,1.33,1.94,2.14c0-7.48,0.45-5.57-1.74-8.06C737.3,360.56,738.03,363.02,738.03,363.21z"/>
	<path d="M715.37,360.76c-0.57-1.28-0.9-2.65-1.84-3.76c-0.21-0.21-0.36,1.61-0.16,2.83c0.49,3.06,3.91,6.64,4.77,4.49
		C717.41,363.11,716,362.18,715.37,360.76z"/>
	<path d="M721.29,363.32c1.63-0.81,0.74-0.89-0.82-2.44c-4.63-3.97-4.27-5.2-4.28-4.72C716.15,359.6,717.98,361.19,721.29,363.32z"
		/>
	<path d="M747.32,367.71c-0.71,2.04-1.12,3.47-1.63,5C746.94,374.21,747.74,370.69,747.32,367.71z"/>
	<path d="M734.72,361.52c-0.18-0.09,0.43,1.88,3,4.45C737.82,364.17,736.16,362.61,734.72,361.52z"/>
	<path d="M728.13,357.29c0-9.13-0.84-1.59-0.61,0C727.92,357.7,728.13,357.6,728.13,357.29z"/>
	<path d="M680.88,371.06c0,0.05,1.95-0.22,2.4-0.52C686.1,369.13,682.85,367.8,680.88,371.06z"/>
	<path d="M730.39,329.23c-0.16,1.47,0.09,1.77,1.62,4.07C731.72,331.83,731.45,330.28,730.39,329.23z"/>
	<path d="M675.97,374.85c0.88-0.13,2.11,0.06,2.76-1.02C678.31,373.02,676.62,374.1,675.97,374.85z"/>
	<path d="M729.76,366.28c-1.04-0.31-1.87-1.12-3.06-1.12C728.13,366.28,728.13,366.28,729.76,366.28z"/>
	<path d="M734.56,366.38c-0.22,0.54-0.01,0.73,0.51,0.61C735.17,366.58,734.86,366.48,734.56,366.38z"/>
	<path d="M705.26,319.83c0.18-0.18,0.41-0.26,0.35-0.63C705.57,318.99,705.61,318.79,705.26,319.83z"/>
	<path d="M704.84,320.67c0.01-0.02,0.31-0.82,0.32-0.84C704.67,320.43,704.47,321.85,704.84,320.67z"/>
	<path d="M704.54,321.46c0.13,0.12,0.11,0.14,0.11-0.01C704.65,321.04,704.72,321.02,704.54,321.46z"/>
	<path d="M754.97,359.24c-0.14-0.27-0.09-1.09-0.64-1.28C754.16,357.88,754.18,358.91,754.97,359.24z"/>
	<path d="M754.16,357.91c0.13,0.03,0.1,0.07,0.1-0.1L754.16,357.91z"/>
	<path d="M740.38,356.89l0.1,0.31C740.48,356.82,740.51,356.89,740.38,356.89z"/>
	<path d="M723.02,311.87c0-0.13,0.02-0.06-0.1-0.31L723.02,311.87z"/>
	<path d="M716.4,311.86C716.49,311.77,716.54,311.58,716.4,311.86L716.4,311.86z"/>
	<path d="M716.48,311.71c0.05-0.09,0.08-0.14,0.01-0.14C716.49,311.61,716.49,311.65,716.48,311.71z"/>
	<path d="M680.76,371.07c-0.15,0.15-0.15,0.13,0.1,0C680.87,370.94,680.89,370.95,680.76,371.07z"/>
	<path d="M701.63,334.72c0.06-0.07,0.16-0.08,0.16-0.08C701.79,334.34,701.63,334.61,701.63,334.72z"/>
	<path d="M748.98,348.13C748.94,348.1,748.95,348.11,748.98,348.13L748.98,348.13z"/>
	<path d="M754.26,357.7c-0.27-0.27-0.24-0.31-0.1,0.1L754.26,357.7z"/>
	<path d="M727.5,360.66c-0.07-0.02-0.09-0.12-0.11-0.12C727.29,360.34,726.82,360.66,727.5,360.66z"/>
	<path d="M562.05,413.44c-6.09-1.72-14.16-7.71-14.66-7.64c-1.33-1.66-3.24-2.18-5.65-3.18c2.08,2.4,2.66,2.7,5.63,3.24
		c0.02,0.05,0.07,0.12,0.16,0.22C556.26,416.32,569.23,415.46,562.05,413.44z"/>
	<path d="M538.98,364.03c2.45-0.92,4.8-1.94,7.15-2.86C543.37,361.27,540.81,361.89,538.98,364.03z"/>
	<path d="M516.21,412.72c-3.27,1.53-3.27,1.53-3.78,3.16c2-1,2.06-0.57,4.08-2.65C516.79,412.95,516.37,412.72,516.21,412.72z"/>
	<path d="M519.99,407.31c0.95-0.52,1.54-1.09,1.33-2.14C520.39,405.52,519.99,406.43,519.99,407.31z"/>
	<path d="M523.26,403.13c-0.1,0-0.2,0.1-0.2,0.2c0.1,0.1,0.1,0.1,0.2,0.2C523.51,403.28,523.57,403.44,523.26,403.13z"/>
	<path d="M354.42,532.36c-0.2,1.02,0.51,1.13,1.02,1.43c0.97,0.57,1.73,0.68,2.77-0.1C357.13,532.35,356,531.7,354.42,532.36z"/>
	<path d="M351.09,534.82c-0.32-0.01-0.65,0.15-0.96,0.4C350.72,537.27,352.77,534.88,351.09,534.82z"/>
	<path d="M511.62,436.61c-7.16-3.18-19.64-3.9-19.8-3.98c0.48,0.48,0.13,0.28,1.22,0.71c19.14,3.92,16.56,4.16,18.88,4.17
		C512.16,437.52,512.12,436.77,511.62,436.61z"/>
	<path d="M482.12,433.34c0.64,1.6,2.17,2.47,4.45,2.14c0.11,0-0.28-0.64-0.36-0.71C484.88,434.26,483.45,433.85,482.12,433.34z"/>
	<path d="M490.03,432.25c-0.47,0.07-1.22,0.21,1.58,0.28C492.13,432.54,490.99,432.06,490.03,432.25z"/>
	<path d="M507.62,427.36c1.03-0.08,0.37,0.04-0.32-0.42C507.05,426.81,506.88,427.42,507.62,427.36z"/>
	<path d="M482.11,433.33C482.21,433.36,482.3,433.33,482.11,433.33L482.11,433.33z"/>
	<path d="M514.99,222.45c-2.11-1.97-1.31-0.94-10.92-2.04C490.13,218.81,506.98,222.89,514.99,222.45z"/>
	<path d="M543.77,231.53c-1.81-0.85-4.03-0.73-6.32-1.02C539.28,232.06,543.77,233.59,543.77,231.53z"/>
	<path d="M492.84,218.57c-1.84-1.02-3.37-1.33-5.72-1.12C489.16,218.47,490.59,219.28,492.84,218.57z"/>
	<path d="M423.53,193.97c-1.22-0.51-2.25-1.22-3.47-1.02C419.3,194.27,422.01,194.67,423.53,193.97z"/>
	<path d="M409.34,191.11c-0.6-1.51-0.51-1.54-2.55-1.33C407.63,190.94,408.61,190.75,409.34,191.11z"/>
	<path d="M518.56,206.42c-0.42,1.09,0.23,1.57,0.71,2.35C519.79,207.55,519.07,207.03,518.56,206.42z"/>
	<path d="M524,215.79c0.1,0,0.46-0.94-0.75-1.2C523.06,215.37,523.43,215.68,524,215.79z"/>
	<path d="M414.47,192.01c1.26,0.08,0.14-0.51-0.11-0.46C413.83,191.66,414.18,192.01,414.47,192.01z"/>
	<path d="M461.81,207.03c0.2,0.1,0.41,0.2,0.61,0.31C462.21,207.14,462.01,207.03,461.81,207.03z"/>
	<path d="M469.36,210.2c0.2,0.2,0.5,0.31,0.61,0.31C469.87,210.46,469.46,210.26,469.36,210.2z"/>
	<path d="M415.16,191.93c-0.07,0.07-0.05,0.05-0.1,0.1C415.33,192.3,415.29,192.34,415.16,191.93z"/>
	<path d="M461.91,206.93c-0.27-0.13-0.24-0.17-0.1,0.1C461.82,207.02,461.86,206.98,461.91,206.93z"/>
	<path d="M469.97,210.51c-0.06,0.06-0.04,0.04-0.1,0.1C470.14,210.74,470.11,210.77,469.97,210.51z"/>
	<path d="M523.97,215.92c0.31,0.15,0.1-0.03,0.02-0.06C523.96,215.85,523.94,215.86,523.97,215.92z"/>
	<path d="M697.71,53c-0.17-1.49-1.43-1.11-2.24-1.46c-0.64-0.28-0.82-0.96,0.19-1.3c3.93-0.83,4.31-3.9,6.07-4.25
		c-0.58,1.73-1.12,3.06-2.5,4.35c0.19,0.15,1.09,1.04,1.84,1.53c1.21,1.21,2.42-0.6,3.06-0.92c1.02,0.41,1.94,1.12,3.16,0.71
		c1.52-0.82,1.63-2.83,3.34-3.55c-0.72,4.29-3.3,5.97,0.75,7.53c0.1-0.2,0.41-0.41,0.41-0.51c-0.2-1.53-0.61-3.06-0.2-4.9
		c1.71-1.87,2.07-4.49,2.14-4.7c-2.14-2.25-4.7-3.67-8.78-4.7c-0.82,0.41-1.74,0.82-2.65,1.12c-1.27-1.45,2.57-2.73,2.59-4.51
		c0.01-1.29-3.31,2.57-4.12,3.29c-1.08,0.94-4.15,1.47-2.8,2.13c0.62,0.3,1.49-0.15,2.2,0.46c0.64,0.54-1.9,2.99-2.67,4.25
		c-1.84,0.82-3.57,1.43-4.9,2.86C692,52.85,695.77,54.58,697.71,53z M710.98,45.65c1.25-0.27,0.78,1.95-0.3,2.34
		C710.78,47.21,710.88,46.43,710.98,45.65z M709.55,44.94v0.1C709.16,44.91,709.12,44.94,709.55,44.94z M708.8,47.43
		c-0.38,0.23-0.78,0.11-0.78-0.59C708.66,46.54,709.3,47.21,708.8,47.43z M707.88,46.79c-0.67,0.58-0.62,0.72-0.59,0.95
		c0.07,0.56,1.29,2.38-0.68,2.71c-0.61-0.41-1.22-1.02-1.84-1.53c-0.81-0.6-1.21,0.89-2.12,0.21c-0.01-0.01-0.02-0.01-0.02-0.01
		C703.66,44.42,707.28,45.27,707.88,46.79z M706.59,43.51c-1.4,0.7-3.17,0.91-4.52,2.08C703.2,43.28,704.07,42.83,706.59,43.51z"/>
	<path d="M727.19,58.61c-0.42-1.54-1.92-0.87-0.92-3.37c-0.31-0.82-2.53-1.59-1.43-2.14c0.56-1.41-3.46-3-3.57-11.33
		c-0.08-5.92,0.61-9.27-0.32-9.27c-2.13,6.42-0.7,12.74-0.3,19.27C721.59,53.53,725.07,58.61,727.19,58.61z M722.15,51
		c0.34-0.2,0.22-0.54,2.06,2.32C722.64,53.25,721.65,51.29,722.15,51z"/>
	<path d="M718.84,78.11c-0.82,0.71,0.2,1.33,0.2,1.94c0.02,0.01,0.05,0.02,0.07,0.03c-1.65,1.1-1.71,4.08-1.99,5.55
		c-0.17,0.69,2.28-0.27,3.25,0.23c0.77,0.4,2,0.11,2.96,0.2c1.22,0.31,1.53,2.35,3.27,1.94C724.55,82.91,724.15,82.4,718.84,78.11z
		 M720.96,82.01c-0.75,0.87-2.1,0.43-1.83-1.82C719.13,79.71,721.48,81.49,720.96,82.01z"/>
	<path d="M694.44,43c3.16-2.96,5.21-7.04,8.57-9.9c0.41-3.27,3.06-5.21,4.59-7.86c-1.21-1.87-3.75,3.25-11.74,14.09
		C693.91,41.98,693.57,42.29,694.44,43z"/>
	<path d="M684.23,73.11c0.3-1.51,0.47-3.4,0.71-4.7c1.51-7.9,8.09-9.05,8.57-10.51c-5.84-0.51-10.77,6.88-10.71,13.06
		C682.83,72.47,683.63,74.91,684.23,73.11z"/>
	<path d="M731.39,58.41c3.27-0.41,1.68-2.34,1.21-2.34c-1.87-1.4-1.72-2.87-2.03-8.57c0-0.25-1.03-0.18-1.03,1.12
		c-0.2,1.84-0.31,3.78-0.41,5.72c-1.12,0-1.63-1.22-2.65-1.33C727.66,55.45,727.72,55.44,731.39,58.41z"/>
	<path d="M746.48,69.19c2.13-1.08-0.55,2.53,1.36,4.74c2.81,0.74,1.76-7.51,0.82-10.52c-2.21,4.41-2.6,3.9-3.09,5
		C745.17,69.27,745.7,69.59,746.48,69.19z M747.62,68.21c0.2,0.51,0.01,0.71-0.31,0.71C747.32,69.3,747.15,68.33,747.62,68.21z"/>
	<path d="M734.52,25.39c-1.12,1.05,0.62,0.29,8.31,14.14C741.2,31.25,734.79,24.84,734.52,25.39z"/>
	<path d="M743.95,49.11c-1.43,5-1.43,10.11-2.25,15.01C744.14,65.9,744.12,51.49,743.95,49.11z"/>
	<path d="M728.23,76.58c-0.31,1.94,0.28,3.07,0.71,4.19c2.64,6.77,1.53,5.97,2.45,7.15c2.13,0.21,0.82-5.37-0.51-7.25
		C730.09,79.53,729.63,77.98,728.23,76.58z"/>
	<path d="M739.65,50.67c-0.31-0.03-0.62,1.19-1.08,0.55c-0.21-0.28-0.21-0.99-0.95-0.77c-0.82,1.43-0.61,3.27-0.41,4.8
		c0.39,1.28,1.28,1.87,2.04,2.84c0.31,0.39-0.08-1.55,0.1-3.76C739.36,52.75,739.95,50.6,739.65,50.67z"/>
	<path d="M713.53,50.75c-1.03,0.17-1.02,0.64-1.02,1.22c0.29,2.51,2.74,6.89,5.1,5.31C715.67,55.35,714.14,53.2,713.53,50.75z"/>
	<path d="M720.88,56.16c0.2-0.31,0.31-0.51,0.61-0.92c-6.76-6.15-6.43-7.6-6.43-7.03C715.09,51.73,717.89,54.67,720.88,56.16z"/>
	<path d="M745.38,65.96c1.74-1.53,1.53-3.27,1.74-5.31C745.79,62.8,745.79,62.9,745.38,65.96z"/>
	<path d="M734.35,54.84c0.41,1.53,1.33,2.65,3.16,4.08C736.97,56.74,735.94,55.89,734.35,54.84z"/>
	<path d="M680.76,63.51c1.33,0,2.35-0.2,3.06-1.02C683.97,61.2,681.8,61.61,680.76,63.51z"/>
	<path d="M727.21,46.87c-0.71,1.33-0.71,2.55,0.41,3.78C727.41,49.32,727.31,48.1,727.21,46.87z"/>
	<path d="M729.66,21.66c0,1.83-0.11,2.13,1.33,3.57C731.09,23.89,730.32,22.91,729.66,21.66z"/>
	<path d="M675.25,67.7c0,0,0.1,0.2,0.31,0.2c0.82-0.31,1.84-0.31,2.45-1.22c-0.1-0.2-0.31-0.41-0.41-0.41
		C675.04,66.91,674.67,68.14,675.25,67.7z"/>
	<path d="M729.05,59.23c-0.53-0.71-1.18-0.57-1.78-0.52C726.85,58.71,727.71,59.56,729.05,59.23z"/>
	<path d="M753.89,51.22c0.2,0.1-0.14-0.08-0.14-0.98C753.34,50.75,753.51,50.98,753.89,51.22z"/>
	<path d="M704.14,13.29c0.19,0.19-0.5,0.19-0.5,1.41c0.67-1.31,0.51-1.41,0.61-1.31C704.41,12.98,704.32,13.2,704.14,13.29z"/>
	<path d="M704.85,11.86c-0.37,0.46-0.42,0.95-0.53,1.29C704.74,12.8,704.74,12.41,704.85,11.86z"/>
	<path d="M703.64,14.7c-0.04,0.07-0.07,0.15-0.11,0.22C703.69,15.08,703.6,15.07,703.64,14.7z"/>
	<path d="M731.09,26.25c0.35-0.42,0.35-0.74-0.2-1.02C730.99,25.54,731.09,25.85,731.09,26.25z"/>
	<path d="M712.2,39.52l-0.1-0.31C711.97,39.6,711.94,39.52,712.2,39.52z"/>
	<path d="M748.54,41.67l0.1-0.1C748.56,41.49,748.58,41.43,748.54,41.67z"/>
	<path d="M747.93,40.14c0,0.48,0.28,0.95,0.64,1.35C748.77,40.17,747.93,40.25,747.93,40.14z"/>
	<path d="M704.96,11.96c0.1-0.1,0.1-0.1,0.2-0.2C705.06,11.86,704.96,11.86,704.96,11.96z"/>
	<path d="M705.16,36.97c0,0-0.1,0-0.2,0.2C705.06,37.08,705.16,36.97,705.16,36.97z"/>
	<path d="M748.64,41.67C749.05,41.97,748.54,41.46,748.64,41.67L748.64,41.67z"/>
	<path d="M733.78,59.26C733.74,59.24,733.74,59.24,733.78,59.26L733.78,59.26z"/>
	<path d="M733.85,59.3c0.04,0.02,0.07,0.03,0.1,0.03C733.91,59.33,733.88,59.31,733.85,59.3z"/>
	<path d="M733.82,59.29c0.01,0,0.02,0,0.02,0.01c-0.03-0.01-0.05-0.03-0.07-0.04C733.79,59.27,733.79,59.27,733.82,59.29z"/>
	<path d="M734.15,59.63c0,0-0.1-0.2-0.31-0.2C733.95,59.53,734.15,59.63,734.15,59.63z"/>
	<path d="M477.8,82.03c0.1,0.05,14.58,6.89,15.85,6.91c-0.03,0.01-0.05,0.04-0.1,0.09c0.35,0.35,0.65,0.52,0.92,0.71
		c-0.64-0.64-0.75-0.82-0.82-0.81c-1.41-2.03-7.93-4.77-10.21-5.73C475.18,79.74,477.09,81.66,477.8,82.03z"/>
	<path d="M501.84,98.42c-0.22-0.44-14.73-7.52-16.09-7.83C486.35,91.98,502.78,100.31,501.84,98.42z"/>
	<path d="M485.69,90.47c-0.07,0.06-0.05,0.04-0.1,0.09C485.69,90.56,485.83,90.68,485.69,90.47z"/>
	<path d="M486.7,95.35c-0.01-0.01-7.03-2.38-8.45-2.61C478.25,93.83,489.16,96.58,486.7,95.35z"/>
	<path d="M478.23,92.62c-0.16,0-0.1,0-0.05,0.04c-0.08,0.1-0.04,0.04,0.06,0.07c0-0.09,0.23-0.19,0-0.11c0,0,0,0,0-0.01
		L478.23,92.62z"/>
	<path d="M487.73,102.1c0.77,0.54,1.9,0.49,2.76,0.1c-2.25-1.59-3.04-1.51-5.72-2.04C485.18,101.59,486.71,101.49,487.73,102.1z"/>
	<path d="M496.21,83.93c-0.47-2.49-0.59-2.08-2.55-3.06C493.96,82.3,494.98,82.91,496.21,83.93z"/>
	<path d="M478.13,92.62c-0.25,0,0.25-0.33-2.06-0.5C475.55,92.12,476.81,92.71,478.13,92.62z"/>
	<path d="M488.04,96.26c0.78-0.18,0.12-0.5-0.32-0.53C486.08,95.62,487.6,96.36,488.04,96.26z"/>
	<path d="M478.37,98.06c0.39,0.41,0.94,0.51,1.91,0.67C479.82,97.9,479.04,98.15,478.37,98.06z"/>
	<path d="M478.37,98.06c-0.05-0.04-0.09-0.09-0.13-0.14C478.12,98.03,478.06,98.02,478.37,98.06z"/>
	<path d="M480.37,98.82c0.65,0.66,1.57,0.52,2.15,0.62C481.97,98.51,481.14,98.77,480.37,98.82z"/>
	<path d="M480.29,98.73l-0.11,0.1C480.43,98.83,480.39,98.83,480.29,98.73z"/>
	<path d="M482.66,99.54c0.65,0.56,1.4,0.59,2.22,0.52C484.23,99.41,483.42,99.52,482.66,99.54z"/>
	<path d="M482.66,99.54c-0.05-0.03-0.09-0.05-0.13-0.09C482.42,99.55,482.34,99.58,482.66,99.54z"/>
	<path d="M484.2,89.89c-0.25,0.08,0.36,0.75,1.39,0.57C485.34,89.96,484.99,89.72,484.2,89.89z"/>
	<path d="M484.11,89.91c-0.02-0.02-0.04-0.03-0.05-0.06C483.9,90.01,483.94,89.94,484.11,89.91z"/>
	<path d="M481.71,88.42c0.3,0,0.23,0.03,0.1-0.1L481.71,88.42z"/>
	<path d="M483.33,88.94c-0.32-0.32-0.58-0.51-1.42-0.51C482.2,88.73,482.61,88.94,483.33,88.94z"/>
	<path d="M478.24,97.91c-0.4-0.13-0.83-0.52-1.12-0.82C477.52,97.99,477.91,97.82,478.24,97.91z"/>
	<path d="M495.18,90.53c-0.09-0.32-0.28-0.53-0.66-0.56C494.64,90.38,495.18,90.64,495.18,90.53z"/>
	<path d="M494.37,89.95c0.25,0,0.1,0.05,0.1-0.1C494.44,89.88,494.4,89.92,494.37,89.95z"/>
	<path d="M483.24,89.03h0.01c0.04,0.01,0.07,0.02,0.11,0.04C483.33,88.9,483.38,88.9,483.24,89.03z"/>
	<path d="M483.36,89.07c0.04,0.3,0.2,0.55,0.69,0.67C484.06,89.52,483.86,89.21,483.36,89.07z"/>
	<path d="M492.17,79.39c0.17,0.17,0.05,0.13,0.05-0.15c-0.1,0.1-0.04,0.07-0.19-0.01C492.14,79.44,492.07,79.49,492.17,79.39z"/>
	<path d="M492.89,80.03C492.95,80.07,492.95,80.06,492.89,80.03L492.89,80.03z"/>
	<path d="M492.81,80.01c0.03,0.01,0.06,0.02,0.08,0.02c-0.09-0.05-0.29-0.19-0.62-0.55C492.35,79.76,492.54,79.92,492.81,80.01z"/>
	<path d="M493.65,80.87c0.02-0.02,0.07-0.07,0.09-0.09C493.59,80.77,493.65,80.76,493.65,80.87z"/>
	<path d="M493.03,80.16c-0.2-0.01-0.03,0.39,0.13,0.51C493.79,81.13,493.89,80.18,493.03,80.16z"/>
	<path d="M481.81,88.32c-0.04-0.04-0.14-0.14-0.2-0.2C481.69,88.19,481.7,88.32,481.81,88.32z"/>
	<path d="M558.78,102.81c-0.2-0.31-0.41-0.71-0.61-0.82c-4.99-1.35-9.81-3.85-14.09-5.41C547.18,99.89,556.66,104.61,558.78,102.81z
		"/>
	<path d="M539.39,92.5c0-2.07-7.6-4.45-6.93-3.77C536.11,92.47,538.82,92.31,539.39,92.5z"/>
	<path d="M514.58,79.85c0-0.03-0.02-0.06-0.03-0.08c-0.08-0.18-0.28-0.12-0.38-0.02C514.17,80.12,514.45,79.85,514.58,79.85z"/>
	<path d="M517.13,76.78c0.36-0.36,0.11-1.1-0.18-0.59C516.79,76.46,516.87,76.65,517.13,76.78z"/>
	<path d="M528.26,87.91c-0.45-0.45-0.31,0-0.92,0C527.65,88.22,527.97,88.2,528.26,87.91z"/>
	<path d="M543.37,95.67l-0.2-0.1C543.29,95.69,543.24,95.67,543.37,95.67z"/>
	<path d="M543.72,96.13c0.38,0.38,0.3,0.42,0.4,0.32c0.1-0.1,0.12,0.04-0.38-0.43C543.44,95.73,542.94,95.35,543.72,96.13z"/>
	<path d="M610.13,245.42c0-0.08-0.03-0.14-0.06-0.19C609.83,244.89,609.61,245.42,610.13,245.42z"/>
<path fill="#e6e6e6" d="m206.8 163.6c0-5.1 4.1-9.2 9.3-9.2s9.2 4.2 9.2 9.2-4.1 9.2-9.3 9.2-9.2-4.1-9.2-9.2zm17.3-.1c0-4.5-3.5-8.2-8.2-8.2s-8.2 3.7-8.2 8.3c0 4.5 3.5 8.2 8.2 8.2s8.2-3.7 8.2-8.3zm-13 0c0-2.8 2.1-5.1 5.1-5.1 1.9 0 2.9.6 3.9 1.5l-1.4 1.7c-.8-.7-1.5-1.1-2.5-1.1-1.7 0-2.8 1.4-2.8 3.1s1.1 3 2.8 3c1.1 0 1.7-.5 2.5-1.1l1.4 1.4c-1.1 1.1-2.1 1.7-4 1.7-2.9 0-5-2.3-5-5.1z"/><path fill="#e6e6e6" d="m226.6 154.7h3.4l4.2 13.2 4.4-13.3h2.6l4.4 13.3 4.2-13.2h3.3l-6.2 18h-2.7l-4.4-12.8-4.4 12.8h-2.7z"/><path fill="#e6e6e6" d="m252.8 165.8c0-3.9 3.1-7 7.2-7 4.2 0 7.2 3.2 7.2 7s-3.1 7-7.3 7c-4 0-7.1-3.1-7.1-7zm11.3 0c0-2.3-1.7-4.3-4.2-4.3s-4.1 2-4.1 4.3 1.7 4.3 4.1 4.3c2.7.1 4.2-1.9 4.2-4.3z"/><path fill="#e6e6e6" d="m269.5 159.1h3.1v3c.8-2 2.4-3.4 4.8-3.3v3.2h-.2c-2.7 0-4.6 1.7-4.6 5.4v5.1h-3.1z"/><path fill="#e6e6e6" d="m279.1 153.9h3.1v11.1l5.6-6h3.8l-5.4 5.5 5.5 8h-3.5l-4.1-5.8-1.9 2v3.9h-3.1z"/><path fill="#e6e6e6" d="m291.7 165.8c0-3.9 3.1-7 7.2-7 4.2 0 7.2 3.2 7.2 7s-3.1 7-7.3 7c-4 0-7.1-3.1-7.1-7zm11.3 0c0-2.3-1.7-4.3-4.2-4.3s-4.1 2-4.1 4.3 1.7 4.3 4.1 4.3c2.6.1 4.2-1.9 4.2-4.3z"/><path fill="#e6e6e6" d="m308.2 167.6v-8.6h3.1v7.6c0 2.1 1.1 3.3 2.9 3.3s3-1.3 3-3.3v-7.6h3.1v13.4h-3.1v-2.1c-.8 1.3-2.1 2.3-4.2 2.3-3.1.2-4.8-1.8-4.8-5z"/><path fill="#e6e6e6" d="m323.9 168.8v-7.1h-1.7v-2.6h1.7v-3.7h3.1v3.7h3.6v2.6h-3.6v6.6c0 1.2.6 1.7 1.7 1.7.7 0 1.3-.2 1.9-.5v2.5c-.8.5-1.7.7-2.8.7-2.3 0-3.9-.9-3.9-3.9z"/><path fill="#e6e6e6" d="m333.2 154.7h3.2v15h9.4v2.9h-12.5v-17.9z"/><path fill="#e6e6e6" d="m356 172.5v-1.7c-.9 1.1-2.3 2-4.4 2-2.6 0-4.8-1.4-4.8-4.2 0-3 2.3-4.4 5.4-4.4 1.7 0 2.6.2 3.7.5v-.2c0-1.9-1.2-2.9-3.3-2.9-1.5 0-2.6.3-3.9.8l-.8-2.5c1.5-.7 2.9-1.1 5.1-1.1 4 0 5.9 2.1 5.9 5.7v8zm.1-5.6c-.8-.3-1.9-.5-3.1-.5-2 0-3.1.8-3.1 2.1s1.1 2 2.6 2c2 0 3.5-1.1 3.5-2.9z"/><path fill="#e6e6e6" d="m364.9 170.5v2.1h-3.1v-18.7h3.1v7.4c1-1.4 2.4-2.5 4.5-2.5 3.2 0 6.3 2.5 6.3 7s-3.1 7-6.3 7c-2.1 0-3.5-1.1-4.5-2.3zm7.7-4.7c0-2.6-1.7-4.3-3.9-4.3s-3.9 1.7-3.9 4.4c0 2.6 1.8 4.3 3.9 4.3s3.9-1.7 3.9-4.4z"/><path fill="#e6e6e6" d="m376.9 170.8 1.4-2.1c1.4 1.1 3 1.7 4.4 1.7s2.1-.5 2.1-1.5-1.3-1.4-2.8-1.8c-.1 0-.2-.1-.2-.1-2-.6-4.2-1.4-4.2-4s2.1-4.1 4.8-4.1c1.7 0 3.5.6 5 1.5l-1.2 2.2c-1.3-.8-2.6-1.3-3.8-1.3s-1.9.5-1.9 1.4 1.3 1.4 2.8 1.8c.1 0 .2.1.2.1 2 .6 4.2 1.5 4.2 4 0 2.9-2.2 4.2-5 4.2-1.9 0-4-.7-5.8-2z"/><path fill="#e6e6e6" d="m505.6 163.6c0-5.1 4.1-9.2 9.3-9.2s9.2 4.2 9.2 9.2-4.1 9.2-9.3 9.2-9.2-4.1-9.2-9.2zm17.4-.1c0-4.5-3.5-8.2-8.2-8.2s-8.2 3.7-8.2 8.3c0 4.5 3.5 8.2 8.2 8.2s8.2-3.7 8.2-8.3zm-13.1 0c0-2.8 2.1-5.1 5.1-5.1 1.9 0 2.9.6 3.9 1.5l-1.4 1.7c-.8-.7-1.5-1.1-2.5-1.1-1.7 0-2.8 1.4-2.8 3.1s1.1 3 2.8 3c1.1 0 1.7-.5 2.5-1.1l1.4 1.4c-1.1 1.1-2.1 1.7-4 1.7-2.9 0-5-2.3-5-5.1z"/><path fill="#e6e6e6" d="m525.4 154.7h3.4l4.2 13.2 4.4-13.3h2.6l4.4 13.3 4.2-13.2h3.3l-6.2 18h-2.7l-4.4-12.8-4.4 12.8h-2.7z"/><path fill="#e6e6e6" d="m551.7 165.8c0-3.9 3.1-7 7.2-7 4.2 0 7.2 3.2 7.2 7s-3.1 7-7.3 7c-4.1 0-7.1-3.1-7.1-7zm11.2 0c0-2.3-1.7-4.3-4.2-4.3s-4.1 2-4.1 4.3 1.7 4.3 4.1 4.3c2.7.1 4.2-1.9 4.2-4.3z"/><path fill="#e6e6e6" d="m568.3 159.1h3.1v3c.8-2 2.4-3.4 4.8-3.3v3.2h-.2c-2.7 0-4.6 1.7-4.6 5.4v5.1h-3.1z"/><path fill="#e6e6e6" d="m577.9 153.9h3.1v11.1l5.6-6h3.8l-5.4 5.5 5.5 8h-3.5l-4.1-5.8-1.9 2v3.9h-3.1z"/><path fill="#e6e6e6" d="m590.6 165.8c0-3.9 3.1-7 7.2-7 4.2 0 7.2 3.2 7.2 7s-3.1 7-7.3 7c-4.1 0-7.1-3.1-7.1-7zm11.2 0c0-2.3-1.7-4.3-4.2-4.3s-4.1 2-4.1 4.3 1.7 4.3 4.1 4.3c2.6.1 4.2-1.9 4.2-4.3z"/><path fill="#e6e6e6" d="m607 167.6v-8.6h3.1v7.6c0 2.1 1.1 3.3 2.9 3.3s3-1.3 3-3.3v-7.6h3.1v13.4h-3.1v-2.1c-.8 1.3-2.1 2.3-4.2 2.3-3 .2-4.8-1.8-4.8-5z"/><path fill="#e6e6e6" d="m622.7 168.8v-7.1h-1.7v-2.6h1.7v-3.7h3.1v3.7h3.6v2.6h-3.6v6.6c0 1.2.6 1.7 1.7 1.7.7 0 1.3-.2 1.9-.5v2.5c-.8.5-1.7.7-2.8.7-2.3 0-3.9-.9-3.9-3.9z"/><path fill="#e6e6e6" d="m632 154.7h3.2v15h9.4v2.9h-12.6z"/><path fill="#e6e6e6" d="m654.8 172.5v-1.7c-.9 1.1-2.3 2-4.4 2-2.6 0-4.8-1.4-4.8-4.2 0-3 2.3-4.4 5.4-4.4 1.7 0 2.6.2 3.7.5v-.2c0-1.9-1.2-2.9-3.3-2.9-1.5 0-2.6.3-3.9.8l-.8-2.5c1.5-.7 2.9-1.1 5.1-1.1 4 0 5.9 2.1 5.9 5.7v8zm.1-5.6c-.8-.3-1.9-.5-3.1-.5-2 0-3.1.8-3.1 2.1s1.1 2 2.6 2c2 0 3.5-1.1 3.5-2.9z"/><path fill="#e6e6e6" d="m663.7 170.5v2.1h-3.1v-18.7h3.1v7.4c1-1.4 2.4-2.5 4.5-2.5 3.2 0 6.3 2.5 6.3 7s-3.1 7-6.3 7c-2.1 0-3.5-1.1-4.5-2.3zm7.8-4.7c0-2.6-1.7-4.3-3.9-4.3-2.1 0-3.9 1.7-3.9 4.4 0 2.6 1.8 4.3 3.9 4.3s3.9-1.7 3.9-4.4z"/><path fill="#e6e6e6" d="m675.8 170.8 1.4-2.1c1.4 1.1 3 1.7 4.4 1.7s2.1-.5 2.1-1.5-1.3-1.4-2.8-1.8c-.1 0-.2-.1-.2-.1-2-.6-4.2-1.4-4.2-4s2.1-4.1 4.8-4.1c1.7 0 3.5.6 5 1.5l-1.2 2.2c-1.3-.8-2.6-1.3-3.8-1.3s-1.9.5-1.9 1.4 1.3 1.4 2.8 1.8c.1 0 .2.1.2.1 2 .6 4.2 1.5 4.2 4 0 2.9-2.2 4.2-5 4.2-2 0-4.1-.7-5.8-2z"/><path fill="#e6e6e6" d="m61 298.6c0-5.1 4.1-9.2 9.3-9.2s9.2 4.2 9.2 9.2-4.1 9.2-9.3 9.2c-5.1 0-9.2-4.2-9.2-9.2zm17.4-.1c0-4.5-3.5-8.2-8.2-8.2s-8.2 3.7-8.2 8.3c0 4.5 3.5 8.2 8.2 8.2s8.2-3.7 8.2-8.3zm-13.1-.1c0-2.8 2.1-5.1 5.1-5.1 1.9 0 2.9.6 3.9 1.5l-1.4 1.7c-.8-.7-1.5-1.1-2.5-1.1-1.7 0-2.8 1.4-2.8 3.1s1.1 3 2.8 3c1.1 0 1.7-.5 2.5-1.1l1.4 1.4c-1.1 1.1-2.1 1.7-4 1.7-2.8.1-5-2.2-5-5.1z"/><path fill="#e6e6e6" d="m80.9 289.7h3.4l4.2 13.2 4.4-13.3h2.6l4.4 13.3 4.2-13.2h3.3l-6.2 18h-2.7l-4.4-12.8-4.4 12.8h-2.7z"/><path fill="#e6e6e6" d="m107.1 300.8c0-3.9 3.1-7 7.2-7s7.2 3.2 7.2 7-3.1 7-7.3 7c-4 0-7.1-3.1-7.1-7zm11.3 0c0-2.3-1.7-4.3-4.2-4.3s-4.1 2-4.1 4.3 1.7 4.3 4.1 4.3c2.6.1 4.2-1.9 4.2-4.3z"/><path fill="#e6e6e6" d="m123.7 294h3.1v3c.8-2 2.4-3.4 4.8-3.3v3.2h-.2c-2.7 0-4.6 1.7-4.6 5.4v5.1h-3.1z"/><path fill="#e6e6e6" d="m133.4 288.9h3.1v11.1l5.6-6h3.8l-5.4 5.5 5.5 8h-3.5l-4.1-5.8-1.9 1.9v3.9h-3.1z"/><path fill="#e6e6e6" d="m146 300.8c0-3.9 3.1-7 7.2-7s7.2 3.2 7.2 7-3.1 7-7.3 7c-4.1 0-7.1-3.1-7.1-7zm11.2 0c0-2.3-1.7-4.3-4.2-4.3s-4.1 2-4.1 4.3 1.7 4.3 4.1 4.3c2.6.1 4.2-1.9 4.2-4.3z"/><path fill="#e6e6e6" d="m162.4 302.6v-8.6h3.1v7.6c0 2.1 1.1 3.3 2.9 3.3s3-1.3 3-3.3v-7.6h3.1v13.4h-3.1v-2.1c-.8 1.3-2.1 2.3-4.2 2.3-3 .2-4.8-1.8-4.8-5z"/><path fill="#e6e6e6" d="m178.1 303.8v-7.1h-1.7v-2.7h1.7v-3.7h3.1v3.7h3.6v2.6h-3.6v6.6c0 1.2.6 1.7 1.7 1.7.7 0 1.3-.2 1.9-.5v2.5c-.8.5-1.7.7-2.8.7-2.3.1-3.9-.9-3.9-3.8z"/><path fill="#e6e6e6" d="m187.4 289.7h3.2v15h9.4v2.9h-12.5v-17.9z"/><path fill="#e6e6e6" d="m210.2 307.5v-1.7c-.9 1.1-2.3 2-4.4 2-2.6 0-4.8-1.4-4.8-4.2 0-3 2.3-4.4 5.4-4.4 1.7 0 2.6.2 3.7.5v-.2c0-1.9-1.2-2.9-3.3-2.9-1.5 0-2.6.3-3.9.8l-.8-2.5c1.5-.7 2.9-1.1 5.1-1.1 4 0 5.9 2.1 5.9 5.7v8zm.1-5.6c-.8-.3-1.9-.5-3.1-.5-2 0-3.1.8-3.1 2.1s1.1 2 2.6 2c2 0 3.5-1.1 3.5-2.9z"/><path fill="#e6e6e6" d="m219.2 305.5v2.1h-3.1v-18.7h3.1v7.4c1-1.4 2.4-2.5 4.5-2.5 3.2 0 6.3 2.5 6.3 7s-3.1 7-6.3 7c-2.2 0-3.6-1.1-4.5-2.3zm7.7-4.7c0-2.6-1.7-4.3-3.9-4.3s-3.9 1.7-3.9 4.4c0 2.6 1.8 4.3 3.9 4.3s3.9-1.7 3.9-4.4z"/><path fill="#e6e6e6" d="m231.2 305.8 1.4-2.1c1.4 1.1 3 1.7 4.4 1.7s2.1-.5 2.1-1.5-1.3-1.4-2.8-1.8c-.1 0-.2-.1-.2-.1-2-.6-4.2-1.4-4.2-4s2.1-4.1 4.8-4.1c1.7 0 3.5.6 5 1.5l-1.2 2.2c-1.3-.8-2.6-1.3-3.8-1.3s-1.9.5-1.9 1.4 1.3 1.4 2.8 1.8c.1 0 .2.1.2.1 2 .6 4.2 1.5 4.2 4 0 2.9-2.2 4.2-5 4.2-2 0-4.1-.7-5.8-2z"/><path fill="#e6e6e6" d="m360.6 298.6c0-5.1 4.1-9.2 9.3-9.2s9.2 4.2 9.2 9.2-4.1 9.2-9.3 9.2-9.2-4.2-9.2-9.2zm17.4-.1c0-4.5-3.5-8.2-8.2-8.2s-8.2 3.7-8.2 8.3c0 4.5 3.5 8.2 8.2 8.2s8.2-3.7 8.2-8.3zm-13.1-.1c0-2.8 2.1-5.1 5.1-5.1 1.9 0 2.9.6 3.9 1.5l-1.4 1.7c-.8-.7-1.5-1.1-2.5-1.1-1.7 0-2.8 1.4-2.8 3.1s1.1 3 2.8 3c1.1 0 1.7-.5 2.5-1.1l1.4 1.4c-1.1 1.1-2.1 1.7-4 1.7-2.8.1-5-2.2-5-5.1z"/><path fill="#e6e6e6" d="m380.5 289.7h3.4l4.2 13.2 4.4-13.3h2.6l4.4 13.3 4.2-13.2h3.3l-6.2 18h-2.7l-4.4-12.8-4.4 12.8h-2.7z"/><path fill="#e6e6e6" d="m406.7 300.8c0-3.9 3.1-7 7.2-7 4.2 0 7.2 3.2 7.2 7s-3.1 7-7.3 7c-4.1 0-7.1-3.1-7.1-7zm11.3 0c0-2.3-1.7-4.3-4.2-4.3s-4.1 2-4.1 4.3 1.7 4.3 4.1 4.3c2.7.1 4.2-1.9 4.2-4.3z"/><path fill="#e6e6e6" d="m423.3 294h3.1v3c.8-2 2.4-3.4 4.8-3.3v3.2h-.2c-2.7 0-4.6 1.7-4.6 5.4v5.1h-3.1z"/><path fill="#e6e6e6" d="m433 288.9h3.1v11.1l5.6-6h3.8l-5.4 5.5 5.5 8h-3.5l-4.1-5.8-1.9 2v3.9h-3.1z"/><path fill="#e6e6e6" d="m445.6 300.8c0-3.9 3.1-7 7.2-7 4.2 0 7.2 3.2 7.2 7s-3.1 7-7.3 7c-4.1 0-7.1-3.1-7.1-7zm11.3 0c0-2.3-1.7-4.3-4.2-4.3s-4.1 2-4.1 4.3 1.7 4.3 4.1 4.3c2.6.1 4.2-1.9 4.2-4.3z"/><path fill="#e6e6e6" d="m462.1 302.6v-8.6h3.1v7.6c0 2.1 1.1 3.3 2.9 3.3s3-1.3 3-3.3v-7.6h3.1v13.4h-3.1v-2.1c-.8 1.3-2.1 2.3-4.2 2.3-3.1.2-4.8-1.8-4.8-5z"/><path fill="#e6e6e6" d="m477.8 303.8v-7.1h-1.8v-2.7h1.7v-3.7h3.1v3.7h3.6v2.6h-3.6v6.6c0 1.2.6 1.7 1.7 1.7.7 0 1.3-.2 1.9-.5v2.5c-.8.5-1.7.7-2.8.7-2.2.1-3.8-.9-3.8-3.8z"/><path fill="#e6e6e6" d="m487.1 289.7h3.2v15h9.4v2.9h-12.5v-17.9z"/><path fill="#e6e6e6" d="m509.9 307.5v-1.7c-.9 1.1-2.3 2-4.4 2-2.6 0-4.8-1.4-4.8-4.2 0-3 2.3-4.4 5.4-4.4 1.7 0 2.6.2 3.7.5v-.2c0-1.9-1.2-2.9-3.3-2.9-1.5 0-2.6.3-3.9.8l-.8-2.5c1.5-.7 2.9-1.1 5.1-1.1 4 0 5.9 2.1 5.9 5.7v8zm.1-5.6c-.8-.3-1.9-.5-3.1-.5-2 0-3.1.8-3.1 2.1s1.1 2 2.6 2c2 0 3.5-1.1 3.5-2.9z"/><path fill="#e6e6e6" d="m518.8 305.5v2.1h-3.1v-18.7h3.1v7.4c1-1.4 2.4-2.5 4.5-2.5 3.2 0 6.3 2.5 6.3 7s-3.1 7-6.3 7c-2.2 0-3.5-1.1-4.5-2.3zm7.7-4.7c0-2.6-1.7-4.3-3.9-4.3s-3.9 1.7-3.9 4.4c0 2.6 1.8 4.3 3.9 4.3s3.9-1.7 3.9-4.4z"/><path fill="#e6e6e6" d="m530.8 305.8 1.4-2.1c1.4 1.1 3 1.7 4.4 1.7s2.1-.5 2.1-1.5-1.3-1.4-2.8-1.8c-.1 0-.2-.1-.2-.1-2-.6-4.2-1.4-4.2-4s2.1-4.1 4.8-4.1c1.7 0 3.5.6 5 1.5l-1.2 2.2c-1.3-.8-2.6-1.3-3.8-1.3s-1.9.5-1.9 1.4 1.3 1.4 2.8 1.8c.1 0 .2.1.2.1 2 .6 4.2 1.5 4.2 4 0 2.9-2.2 4.2-5 4.2-1.9 0-4.1-.7-5.8-2z"/><path fill="#e6e6e6" d="m659.5 298.6c0-5.1 4.1-9.2 9.3-9.2s9.2 4.2 9.2 9.2-4.1 9.2-9.3 9.2-9.2-4.2-9.2-9.2zm17.3-.1c0-4.5-3.5-8.2-8.2-8.2s-8.2 3.7-8.2 8.3c0 4.5 3.5 8.2 8.2 8.2 4.8 0 8.2-3.7 8.2-8.3zm-13-.1c0-2.8 2.1-5.1 5.1-5.1 1.9 0 2.9.6 3.9 1.5l-1.4 1.7c-.8-.7-1.5-1.1-2.5-1.1-1.7 0-2.8 1.4-2.8 3.1s1.1 3 2.8 3c1.1 0 1.7-.5 2.5-1.1l1.4 1.4c-1.1 1.1-2.1 1.7-4 1.7-2.9.1-5-2.2-5-5.1z"/><path fill="#e6e6e6" d="m679.3 289.7h3.4l4.2 13.2 4.4-13.3h2.6l4.4 13.3 4.2-13.2h3.3l-6.2 18h-2.6l-4.4-12.8-4.4 12.8h-2.7z"/><path fill="#e6e6e6" d="m705.5 300.8c0-3.9 3.1-7 7.2-7 4.2 0 7.2 3.2 7.2 7s-3.1 7-7.3 7c-4 0-7.1-3.1-7.1-7zm11.3 0c0-2.3-1.7-4.3-4.2-4.3s-4.1 2-4.1 4.3 1.7 4.3 4.1 4.3c2.7.1 4.2-1.9 4.2-4.3z"/><path fill="#e6e6e6" d="m722.1 294h3.1v3c.8-2 2.4-3.4 4.8-3.3v3.2h-.2c-2.7 0-4.6 1.7-4.6 5.4v5.1h-3.1z"/><path fill="#e6e6e6" d="m731.8 288.9h3.1v11.1l5.6-6h3.8l-5.4 5.5 5.5 8h-3.5l-4.1-5.8-1.9 2v3.9h-3.1z"/><path fill="#e6e6e6" d="m744.4 300.8c0-3.9 3.1-7 7.2-7 4.2 0 7.2 3.2 7.2 7s-3.1 7-7.3 7c-4.1 0-7.1-3.1-7.1-7zm11.3 0c0-2.3-1.7-4.3-4.2-4.3s-4.1 2-4.1 4.3 1.7 4.3 4.1 4.3c2.6.1 4.2-1.9 4.2-4.3z"/><path fill="#e6e6e6" d="m760.9 302.6v-8.6h3.1v7.6c0 2.1 1.1 3.3 2.9 3.3s3-1.3 3-3.3v-7.6h3.1v13.4h-3.1v-2.1c-.8 1.3-2.1 2.3-4.2 2.3-3.1.2-4.8-1.8-4.8-5z"/><path fill="#e6e6e6" d="m776.6 303.8v-7.1h-1.7v-2.7h1.7v-3.7h3.1v3.7h3.6v2.6h-3.6v6.6c0 1.2.6 1.7 1.7 1.7.7 0 1.3-.2 1.9-.5v2.5c-.8.5-1.7.7-2.8.7-2.3.1-3.9-.9-3.9-3.8z"/><path fill="#e6e6e6" d="m785.9 289.7h3.2v15h9.4v2.9h-12.5v-17.9z"/><path fill="#e6e6e6" d="m808.7 307.5v-1.7c-.9 1.1-2.3 2-4.4 2-2.6 0-4.8-1.4-4.8-4.2 0-3 2.3-4.4 5.4-4.4 1.7 0 2.6.2 3.7.5v-.2c0-1.9-1.2-2.9-3.3-2.9-1.5 0-2.6.3-3.9.8l-.8-2.5c1.5-.7 2.9-1.1 5.1-1.1 4 0 5.9 2.1 5.9 5.7v8zm.1-5.6c-.8-.3-1.9-.5-3.1-.5-2 0-3.1.8-3.1 2.1s1.1 2 2.6 2c2 0 3.5-1.1 3.5-2.9z"/><path fill="#e6e6e6" d="m817.6 305.5v2.1h-3.1v-18.7h3.1v7.4c1-1.4 2.4-2.5 4.5-2.5 3.2 0 6.3 2.5 6.3 7s-3.1 7-6.3 7c-2.1 0-3.5-1.1-4.5-2.3zm7.7-4.7c0-2.6-1.7-4.3-3.9-4.3-2.1 0-3.9 1.7-3.9 4.4 0 2.6 1.8 4.3 3.9 4.3 2.2 0 3.9-1.7 3.9-4.4z"/><path fill="#e6e6e6" d="m829.6 305.8 1.4-2.1c1.4 1.1 3 1.7 4.4 1.7s2.1-.5 2.1-1.5-1.3-1.4-2.8-1.8c-.1 0-.2-.1-.2-.1-2-.6-4.2-1.4-4.2-4s2.1-4.1 4.8-4.1c1.7 0 3.5.6 5 1.5l-1.2 2.2c-1.3-.8-2.6-1.3-3.8-1.3s-1.9.5-1.9 1.4 1.3 1.4 2.8 1.8c.1 0 .2.1.2.1 2 .6 4.2 1.5 4.2 4 0 2.9-2.2 4.2-5 4.2-1.9 0-4-.7-5.8-2z"/><path fill="#e6e6e6" d="m206.3 434.2c0-5.1 4.1-9.2 9.3-9.2s9.2 4.2 9.2 9.2-4.1 9.2-9.3 9.2-9.2-4.1-9.2-9.2zm17.4-.1c0-4.5-3.5-8.2-8.2-8.2s-8.2 3.7-8.2 8.3c0 4.5 3.5 8.2 8.2 8.2s8.2-3.7 8.2-8.3zm-13.1-.1c0-2.8 2.1-5.1 5.1-5.1 1.9 0 2.9.6 3.9 1.5l-1.4 1.7c-.8-.7-1.5-1.1-2.5-1.1-1.7 0-2.8 1.4-2.8 3.1s1.1 3 2.8 3c1.1 0 1.7-.5 2.5-1.1l1.4 1.4c-1.1 1.1-2.1 1.7-4 1.7-2.9.1-5-2.2-5-5.1z"/><path fill="#e6e6e6" d="m226.1 425.3h3.4l4.2 13.2 4.4-13.3h2.6l4.4 13.3 4.2-13.2h3.3l-6.2 18h-2.7l-4.4-12.8-4.4 12.8h-2.7z"/><path fill="#e6e6e6" d="m252.4 436.4c0-3.9 3.1-7 7.2-7 4.2 0 7.2 3.2 7.2 7s-3.1 7-7.3 7c-4.1 0-7.1-3.1-7.1-7zm11.2 0c0-2.3-1.7-4.3-4.2-4.3s-4.1 2-4.1 4.3 1.7 4.3 4.1 4.3c2.7.1 4.2-1.9 4.2-4.3z"/><path fill="#e6e6e6" d="m269 429.7h3.1v3c.8-2 2.4-3.4 4.8-3.3v3.2h-.2c-2.7 0-4.6 1.7-4.6 5.4v5.1h-3.1z"/><path fill="#e6e6e6" d="m278.6 424.5h3.1v11.1l5.6-6h3.8l-5.4 5.5 5.5 8h-3.5l-4.1-5.8-1.9 2v3.9h-3.1z"/><path fill="#e6e6e6" d="m291.3 436.4c0-3.9 3.1-7 7.2-7 4.2 0 7.2 3.2 7.2 7s-3.1 7-7.3 7c-4.1 0-7.1-3.1-7.1-7zm11.2 0c0-2.3-1.7-4.3-4.2-4.3s-4.1 2-4.1 4.3 1.7 4.3 4.1 4.3c2.6.1 4.2-1.9 4.2-4.3z"/><path fill="#e6e6e6" d="m307.7 438.2v-8.6h3.1v7.6c0 2.1 1.1 3.3 2.9 3.3s3-1.3 3-3.3v-7.6h3.1v13.4h-3.1v-2.1c-.8 1.3-2.1 2.3-4.2 2.3-3 .2-4.8-1.8-4.8-5z"/><path fill="#e6e6e6" d="m323.4 439.4v-7.1h-1.7v-2.6h1.7v-3.7h3.1v3.7h3.6v2.6h-3.6v6.6c0 1.2.6 1.7 1.7 1.7.7 0 1.3-.2 1.9-.5v2.5c-.8.5-1.7.7-2.8.7-2.3 0-3.9-.9-3.9-3.9z"/><path fill="#e6e6e6" d="m332.7 425.3h3.2v15h9.4v2.9h-12.5v-17.9z"/><path fill="#e6e6e6" d="m355.5 443.1v-1.7c-.9 1.1-2.3 2-4.4 2-2.6 0-4.8-1.4-4.8-4.2 0-3 2.3-4.4 5.4-4.4 1.7 0 2.6.2 3.7.5v-.2c0-1.9-1.2-2.9-3.3-2.9-1.5 0-2.6.3-3.9.8l-.8-2.5c1.5-.7 2.9-1.1 5.1-1.1 4 0 5.9 2.1 5.9 5.7v8zm.1-5.6c-.8-.3-1.9-.5-3.1-.5-2 0-3.1.8-3.1 2.1s1.1 2 2.6 2c2 0 3.5-1.1 3.5-2.9z"/><path fill="#e6e6e6" d="m364.4 441.1v2.1h-3.1v-18.7h3.1v7.4c1-1.4 2.4-2.5 4.5-2.5 3.2 0 6.3 2.5 6.3 7s-3.1 7-6.3 7c-2.1 0-3.5-1.1-4.5-2.3zm7.7-4.7c0-2.6-1.7-4.3-3.9-4.3-2.1 0-3.9 1.7-3.9 4.4 0 2.6 1.8 4.3 3.9 4.3 2.2 0 3.9-1.7 3.9-4.4z"/><path fill="#e6e6e6" d="m376.5 441.4 1.4-2.1c1.4 1.1 3 1.7 4.4 1.7s2.1-.5 2.1-1.5-1.3-1.4-2.8-1.8c-.1 0-.2-.1-.2-.1-2-.6-4.2-1.4-4.2-4s2.1-4.1 4.8-4.1c1.7 0 3.5.6 5 1.5l-1.2 2.2c-1.3-.8-2.6-1.3-3.8-1.3s-1.9.5-1.9 1.4 1.3 1.4 2.8 1.8c.1 0 .2.1.2.1 2 .6 4.2 1.5 4.2 4 0 2.9-2.2 4.2-5 4.2-2 0-4.1-.7-5.8-2z"/><path fill="#e6e6e6" d="m505.1 434.2c0-5.1 4.1-9.2 9.3-9.2s9.2 4.2 9.2 9.2-4.1 9.2-9.3 9.2-9.2-4.1-9.2-9.2zm17.4-.1c0-4.5-3.5-8.2-8.2-8.2s-8.2 3.7-8.2 8.3c0 4.5 3.5 8.2 8.2 8.2s8.2-3.7 8.2-8.3zm-13.1-.1c0-2.8 2.1-5.1 5.1-5.1 1.9 0 2.9.6 3.9 1.5l-1.4 1.7c-.8-.7-1.5-1.1-2.5-1.1-1.7 0-2.8 1.4-2.8 3.1s1.1 3 2.8 3c1.1 0 1.7-.5 2.5-1.1l1.4 1.4c-1.1 1.1-2.1 1.7-4 1.7-2.9.1-5-2.2-5-5.1z"/><path fill="#e6e6e6" d="m525 425.3h3.4l4.2 13.2 4.4-13.3h2.6l4.4 13.3 4.2-13.2h3.3l-6.2 18h-2.7l-4.4-12.8-4.4 12.8h-2.7z"/><path fill="#e6e6e6" d="m551.2 436.4c0-3.9 3.1-7 7.2-7 4.2 0 7.2 3.2 7.2 7s-3.1 7-7.3 7c-4.1 0-7.1-3.1-7.1-7zm11.2 0c0-2.3-1.7-4.3-4.2-4.3s-4.1 2-4.1 4.3 1.7 4.3 4.1 4.3c2.7.1 4.2-1.9 4.2-4.3z"/><path fill="#e6e6e6" d="m567.8 429.7h3.1v3c.8-2 2.4-3.4 4.8-3.3v3.2h-.2c-2.7 0-4.6 1.7-4.6 5.4v5.1h-3.1z"/><path fill="#e6e6e6" d="m577.5 424.5h3.1v11.1l5.6-6h3.8l-5.4 5.5 5.5 8h-3.5l-4.1-5.8-1.9 2v3.9h-3.1z"/><path fill="#e6e6e6" d="m590.1 436.4c0-3.9 3.1-7 7.2-7 4.2 0 7.2 3.2 7.2 7s-3.1 7-7.3 7c-4.1 0-7.1-3.1-7.1-7zm11.2 0c0-2.3-1.7-4.3-4.2-4.3s-4.1 2-4.1 4.3 1.7 4.3 4.1 4.3c2.6.1 4.2-1.9 4.2-4.3z"/><path fill="#e6e6e6" d="m606.5 438.2v-8.6h3.1v7.6c0 2.1 1.1 3.3 2.9 3.3s3-1.3 3-3.3v-7.6h3.1v13.4h-3.1v-2.1c-.8 1.3-2.1 2.3-4.2 2.3-3 .2-4.8-1.8-4.8-5z"/><path fill="#e6e6e6" d="m622.2 439.4v-7.1h-1.7v-2.6h1.7v-3.7h3.1v3.7h3.6v2.6h-3.6v6.6c0 1.2.6 1.7 1.7 1.7.7 0 1.3-.2 1.9-.5v2.5c-.8.5-1.7.7-2.8.7-2.3 0-3.9-.9-3.9-3.9z"/><path fill="#e6e6e6" d="m631.5 425.3h3.2v15h9.4v2.9h-12.5v-17.9z"/><path fill="#e6e6e6" d="m654.3 443.1v-1.7c-.9 1.1-2.3 2-4.4 2-2.6 0-4.8-1.4-4.8-4.2 0-3 2.3-4.4 5.4-4.4 1.7 0 2.6.2 3.7.5v-.2c0-1.9-1.2-2.9-3.3-2.9-1.5 0-2.6.3-3.9.8l-.8-2.5c1.5-.7 2.9-1.1 5.1-1.1 4 0 5.9 2.1 5.9 5.7v8zm.1-5.6c-.8-.3-1.9-.5-3.1-.5-2 0-3.1.8-3.1 2.1s1.1 2 2.6 2c2 0 3.5-1.1 3.5-2.9z"/><path fill="#e6e6e6" d="m663.3 441.1v2.1h-3.1v-18.7h3.1v7.4c1-1.4 2.4-2.5 4.5-2.5 3.2 0 6.3 2.5 6.3 7s-3.1 7-6.3 7c-2.2 0-3.6-1.1-4.5-2.3zm7.7-4.7c0-2.6-1.7-4.3-3.9-4.3s-3.9 1.7-3.9 4.4c0 2.6 1.8 4.3 3.9 4.3s3.9-1.7 3.9-4.4z"/><path fill="#e6e6e6" d="m675.3 441.4 1.4-2.1c1.4 1.1 3 1.7 4.4 1.7s2.1-.5 2.1-1.5-1.3-1.4-2.8-1.8c-.1 0-.2-.1-.2-.1-2-.6-4.2-1.4-4.2-4s2.1-4.1 4.8-4.1c1.7 0 3.5.6 5 1.5l-1.2 2.2c-1.3-.8-2.6-1.3-3.8-1.3s-1.9.5-1.9 1.4 1.3 1.4 2.8 1.8c.1 0 .2.1.2.1 2 .6 4.2 1.5 4.2 4 0 2.9-2.2 4.2-5 4.2-2 0-4.1-.7-5.8-2z"/></g>
</svg>
