<?xml version="1.0" encoding="utf-8"?>
<!-- Generator: Adobe Illustrator 23.0.1, SVG Export Plug-In . SVG Version: 6.00 Build 0)  -->
<svg version="1.2" baseProfile="tiny" id="Layer_1" xmlns="http://www.w3.org/2000/svg" xmlns:xlink="http://www.w3.org/1999/xlink"
	 x="0px" y="0px" viewBox="0 0 900 600" xml:space="preserve">
<g>
	<path d="M370.09,171.92l0.1-0.1C370.12,171.87,370.09,171.83,370.09,171.92z"/>
	<path d="M175.1,202.35l0.1-0.1C175.04,202.28,175.1,202.22,175.1,202.35z"/>
	<path d="M349.47,130.78C348.9,130.93,348.82,131.01,349.47,130.78L349.47,130.78z"/>
	<path d="M4.47,138.62c0,1.23-1,1.94-0.51,3.08c0.94,2.21-2.63,2.35-0.1,12.03c2.06,7.89-1.17,3.67-2.78,5.14
		c-0.31,2.36,2.36,2.98,3.6,4.63c0.51,2.26,0.93,4.83,1.44,7.3c1.71,8.39,5.19,9.15,6.89,11.41c-4.87,4.87,1.29,4.24,2.16,5.86
		c-0.2,1.83-3.08,1.22,1.95,4.42c0,2.36,1.54,3.7,3.08,4.83c2.36-0.31,1.54-2.78,2.98-3.39c3.99-0.61,0.89,5.21,10.48,4.01
		c8.12,2.57,16.14,2.78,23.85,1.85c2.06-1.23,3.6-2.67,5.76-2.78c4.77,1.36,4.97-1.12,16.65-3.7c15.95-3.52,13.66-1.74,16.86-4.93
		c4.11-1.95,8.53-0.82,11.92-3.29c40.04-1.77,19.29,4.92,38.55,10.59c38.13,13.86,10.49,15.93,69.69,14.18
		c23.75-0.7,6.59-5.17-16.75-4.01c-8.77,0.44-22.68,0.8-29.92-4.11c1.03-0.16,7.45,1.85,3.91-0.72
		c-1.73-1.26-29.68-17.87-26.62-28.88c0.03-0.1-3.58-19.41-1.95-24.36c8.98-27.38,37.28-32.38,50.06-30.01
		c6.89,1.27,3.71-3.24,26.31,10.79c2.02,1.51,1.11,1.2-3.8,3.49c-1.69-1.45-2.98-3.15-4.63-1.34c3.89,4.77,0.98,10.06,12.33,11.1
		c46.77,4.29,15.61,3.14,55.2,21.48c1.48-1.11,1.2-1.34,1.85-1.23c5.72,1.91-1.4,1.57,11.2,4.93c-0.77,1.35-10.65,2.76,5.04,2.16
		c0.93-0.41,1.13-1.34,2.47-1.34c10.63,1.28,10.76-0.9,27.55,1.85c9.62,1.58,13.86,5.8,28.47,9.76c11.33,3.08,12.63,6.39,13.67,4.93
		c-1.59-6.88-0.2-2.18-5.86-5.96c-3.31-2.22-11.98-4.91-16.45-6.68c-5.33-2.11-4.63-1.5-4.63-6.48c-1.03,1.34,0,2.88-1.34,3.7
		c-3.5-0.25-3.24-2.86-22.41-4.21c-11.3-0.8-12.82,0.93-27.44-2.67c-4.86-1.62,1.76-1.98,1.54-5.04c-5.84,0-5.39,2.61-6.58,3.08
		c-19.02-7.96-13.64-4.46-9.56-9.35c0.51-0.51,1.75-0.21,1.54-1.54c-12.67,2.77-6.92,3.76-23.02-6.48
		c-4.88-3.1-6.45-2.75-13.98-4.01c-2.05-4.56-5.87-5.28-5.45-6.99c2.26-2.26,5.04-3.8,7.09-6.17c-0.73-2.18-2.71-0.33-4.73-0.1
		c-18.15,2.08-4.51,5.09-28.06-7.09c-8.49-4.4-29.09-7.58-40.6-0.1c-3.54,2.3-31.85,11.4-27.86,42.04
		c1.72,13.15-3.3,20.66,21.89,38.44c-3.85-0.37-10.01-3.18-11.51-4.73c-5-5.15-7.15-3.52-8.02-7.3c0.52-3.13,0.52-1.46-0.62-4.32
		c-7.49-18.82-4.31-45.36,4.11-51.29c11.57-8.15-0.59-5.57,6.89-8.02c23.72-7.77,33.65-30.73,71.54-29.29
		c30.82,1.17,24.88,0.29,38.44,6.27c1.64-0.1,2.57-0.95,3.8-0.82c4.21,0.45-2.52,0,25.49,0c2.5,0,3.85,0.64,17.68,4.52
		c8.7,2.44,53.53,0.39,54.99,5.24c-1.97,3.94-6.05,9.06-7.2,15.11c-0.68,3.57-3.18,2.94-6.58,4.52c-2.72,1.27-4.28,1.88-4.99,2.13
		c1.26-0.34,4.9-1.04,8.48,0.34c-1.17,7.01-2.28,12.11-2.47,17.47c-0.32,9.41-6.85,19.37-2.06,24.16c2.85,0.81,1.84-2.23,3.6-2.67
		c2.21,0,8.23,4.12,13.06,1.79c0.1-0.59,0.16-1.09-0.63-1.79c-4.32-0.21-8.74-1.54-13.47-1.23c-0.8-1.45-0.64-3.3,2.16-2.88
		c6.57,1,10.64-1.14,11.82-0.1c2.31,5.55,2.15,8.04,0.72-4.83c-0.86-7.74,3-8.84-3.8-8.84c-1.13,0-2.26-0.62-3.6-0.1
		c1.95,1.95,4.93,0.41,6.68,2.47c0,1.76-0.49,0.91-9.66,3.29c-3.45,1.15-0.78-0.84-0.1-12.44c1.35-23.19,5.97-11.23,2.78-19.22
		c4.94-9.17,0.34-4.01,8.53-17.47c2.67,0.62,5.04,1.64,7.2,2.78c2.97-2.74,3.67-4.11,11.2-4.42c4.73-0.2,6.11-1.05,19.12-4.01
		c4.36-0.99,5.16-2.98,12.03-1.23c4.34,1.1,8.13,2.58,3.7,3.19c-15.29,2.09-11.79,2.54-19.32,1.03c-2.15-0.43-4.32-0.21-6.37,0.93
		c0.72,1.85,2.15,2.43,3.8,2.26c2.77-0.28,5.55,0.62,8.53,0.82c-1.64,1.54-3.94,1.95-4.11,4.32c-0.28,3.88,7.69,5.34-10.28,6.58
		c-12.91,0.89-15.04,11.81-5.34,6.78c5.18-2.69,7.22-1.55,17.17-5.04c8.75-3.07,1.87-6.36,1.75-8.74c2.16-1.75,2.67-2.14,4.52-2.26
		c4.11-0.27,8.22-1.23,12.33-1.13c5.05,0.13,7.91-3.25-7.81-1.44c-13.97,1.61,0.57-2.99,10.28-1.85c1.55-2.32,3.06,0.07,8.22-1.44
		c34.59-10.09,132.2-11.35,136.61-9.15c0.03,0.18,2.08,23.28,5.45,35.05c1.73,6.04-2.29,8.56-1.75,18.09
		c0.69,12.05-4.74,15.49-4.01,25.08c1.72,22.57,5.52,25.27-3.8,25.8c-12.9,0.74-10.19,0.68-11.82,0.31
		c-21.06-4.82-45,1.93-50.16-1.64c-2.74-1.9-22.63-2.44-27.03-1.75c-0.1,0.02-19.13,2.7-20.15,3.19c-3.17,1.52-6.29,0.03-8.74,1.03
		c-3.72,1.51-6.08,1.11-25.29-1.44c-22.4-2.98-37.92-3.28-45.02-10.38c-1.4-1.4-5.58-5.14-7.61-5.14c-2.58,1.55,2.84,4.87,5.14,7.5
		c8.9,10.18,26.83,8.65,66.92,15.73c-7.81,1.3-15.07,2.63-22.41-0.41c-21.6-8.95-54.16,3.66-76.78,0.1
		c-8.01-1.26-35.79,3.21-38.96-4.32c-17.35-4-11.62-4.21-24.16-2.36c-33.33,4.91-57.12,5.52-87.68-10.48
		c-5.05,0.92-7.81,2.69-12.64,2.36c-0.31-0.1-0.82,0.21-0.72,1.03c0.8,1,7.5,2.49,14.8,0.51c10.7,5.89,28.9,14.64,41.63,11.31
		c6.65,2.82,38.59,1.68,47.9-2.88c5.56-2.72,2.41,2.44,11.41,5.35c3.35,1.3,4.81,1.78,23.13,3.39
		c74.04,6.52,53.35-11.99,100.84-0.62c23.02,5.51,21.82-5.65,60.75,0.51c3.58,0.57,7.38,0.81,9.56-1.95
		c1.14-1.45,2.07-1.04,3.91-2.88c0.93-1.13,0.21-2.26,1.23-2.67c5.65-0.31,11.31-1.75,16.75,0.41c4.55-2.18,28.78-2.78,33.71-2.78
		c0.51,0.82,0.93,1.54,1.13,1.75c3.7,0.51,6.9-0.43,9.87,1.03c1.07,0.52,0.56-0.45,7.61-0.1c7.1,0.35,7.92-1.88,13.57-1.34
		c4.5,0.43,2.48-2.7,2.57-3.6c0.62-1.13,2.36-1.03,2.88-2.98c-0.72-1.95-0.57-4.53-0.41-7.09c0.13-2.08-1.11-5.39-1.13-6.27
		c-0.4-21.59,0.51-13.64,0.51-24.57c8.68-3.31,18.92,0.07,22.61-3.7c4.28-4.37,9.6,0.43,12.13,0.82
		c28.58,4.48,20.66,1.71,24.46,2.88c3.25,1,16,3.45,35.05,4.63c16.2,0,23.41-1.89,35.26-6.78c20.12-8.3,22.31-7.06,35.87-13.36
		c22.78-10.59,33.41-11.83,34.29-14.47c1.02-1.02-58.84,17.8-63.79,20.14c-46.37,21.84-103.86-3.24-113.99,2.67
		c-26.79,1.29-24.83,9.53-24.26-1.95c5.32-6.26,10.24-4.42,0.1-4.93c1.43-7.13,2.66-9.35,1.34-13.98c-1.38-4.82-1.64-9.76-2.88-14.6
		c-0.71-4.26,3.65,1.47,8.43-1.54c-4.44-5.26-12.69-3.41-11.82-19.02c0.27-0.54,0.57-0.73,1.01-0.94c1.8-0.85-3.42,3.83,12.05,1.64
		c3.39-0.48,4.71,1.14,8.53,3.29c4.57,2.57,4.36-0.64,10.69,0.21c11.97,1.6,3.43,2.9,21.59,7.09c18.22-1.92,48.54-0.74,78.12-3.19
		c21.17-1.75,30.47,2.84,65.37-2.98c15.79-2.63,19.84-4.72,19.84,0.1c-0.51,0.93-2.06,0-2.36,1.34c1.86,3.71,2.85-6.85,4.93,11.62
		c0.4,3.58-1.76,3.97-5.65,4.52c-7.35,1.05-8.43,2.94-10.28,2.57c-2.51-0.5-8.46,1.57-8.02,3.19c8.95,0.32,8.72-3.55,14.39-2.88
		c4.44,0.53,6.23,0.2,6.8,0c-0.37,0.3-1.03,1.23-0.84,3.6c-9.94,7.72-3.96,3.45,1.44,2.16c5.18,1.29,8.69-2.51,9.46-6.99
		c2.88-3.1,5.42-5.06,6.99-9.46c1.25-3.49-1.81-9.22-4.93-11.41c-4.53-3.18-8.22-7.3-11.82-12.13c11.9-1.49,10.34-0.06,14.9-1.75
		c4.42,4.11,8.94,8.02,13.67,11.51c2.12-1.32-1.65-7.39-4.52-9.66c-4.55-3.59-3.71-2.81-4.01-3.7c0.82-0.93,1.75-1.75,3.39-1.64
		c2.67,2.26,5.98,3.99,8.43,6.78c3.6,4.1,12.45,3.99-0.31-8.33c2.47-0.62,4.52-1.34,6.68-1.13c3.73,3.73,5.72,4.42,8.53,4.42
		c3.15,0,0.76-2.51-1.34-6.06c3.61-2.41,9.75,1.5,7.71-2.57c1.44-0.62,2.88-1.13,4.32-1.75c1.54-0.31,2.98,1.44,4.01,0.72
		c1.34-1.23,0-1.95,0.51-2.98c7.84-5.45,10.58-15.4,25.7-17.68c11.97,10.26,9.18,9.9,7.61,18.81c-1.81,10.2-2.54,10.01-5.76,14.9
		c-4.58,6.98-13.35,21.43-21.07,25.9c-14.35,8.32-15.12,9.83-16.45,13.88c-4.74,14.45-5.78,16.55-9.66,19.43
		c-0.1,0.08-15.96,11.78-16.65,13.16c0,2.41,1.36,1.12-8.94,5.24c-1.54-4.83-4.93-8.12-8.12-11.82
		c0.27-9.38-14.04-12.07-19.22-19.32c-1.75-1.75-2.25,4.22,5.04,8.53c7.79,4.61,9.97,10.75,14.8,16.75
		c0.63,0.63-1.72,1.46-4.93-2.88c-6.13-8.26-21.06-21.24-22.2-20.56c-1.07,1.5,0.32,3.45,1.64,4.73
		c22.57,21.89,21.06,24.36,28.68,23.74c2.06,1.9,0,9.65,14.8-0.21c9.24-6.15,6.98-3.41,7.71-5.24c-1.34,0-2.47,0.93-3.7,0.51
		c-0.21,1.17-1.16,0.9-2.8,0.66c0.19-0.09,1.87-1.06,13.9-9.08c6.66-4.43,6.68-7.74,8.12-10.59c6.2-12.25,2.55-13.74,5.86-16.45
		c19.63-5.52,39.07-36.89,40.19-41.22c3.94-15.25,4.61-16.57,2.57-18.4c-1.66-1.66,5.64-3.18-13.05-15.01
		c-18.52,4.36-16.34,12.41-29.91,18.81c-15.61,7.36-46.93,11.57-64.86,20.15c-3.08,0.21-6.68-1.23-8.53,2.57
		c0.39,2.72,2.38,4.54,3.29,3.08c0.1-0.82-0.82-1.34-0.1-2.26c3.99-0.5,4.64-0.97,5.76-0.41c3.47,3.9,2.59,3.49-9.46,5.65
		c-2.4-2.89-16.06,2.72-62.5-2.88c-9.85-1.19-70.69,0.35-84.18,1.23c-9.43,0.62-10.77-0.77-17.99-2.36
		c-8.21-1.81-5.17-0.36-10.48-0.31c-11.16,0.11-18.07-4.91-25.49,1.03c-2.92-1.86-71.59-2.02-81,1.23
		c-0.89,0.22-11.54-0.03-14.08,0.41c-31.83,5.5-42.48,11.01-54.89,5.65c-10.88-4.69-12.35,0.33-36.08,4.52
		c-13.75,2.43-3.65,3.67-54.58-3.39c-8.36-1.16-21.19,2.62-30.22-3.49c-3.31-2.24-7.29-3.12-11.41-2.78
		c-4.11,0.34-5.06-0.55-6.78-0.31c-13.73,1.96-20.46,3.61-28.06,0.41c-26.05-10.98-57.5-10.13-97.34,16.86
		c-0.15,2.95-2.89,4.3-6.27,6.99c-11.43,9.11-21.24,0.24-31.97-2.06c-3.5-0.5-0.9-1.93-1.34-5.45c-0.21-1.64,0.1-3.39,0.21-4.83
		c-0.21-1.44-1.25-2.05-1.54-3.29c-1.09-4.61-6.6-7.5-11.51-6.48c-1.34,0.28-2.57,1.03-4.11,1.64c-11.89-5.52-9.31-0.3-12.44-0.82
		c-1.23-0.51-1.23-2.36-2.57-2.57c-2.16-0.62-3.91,1.03-6.37,0.51c-2.36-4.48-5.92-6.23-10.48-2.78
		c-3.49,2.64-13.92,7.08-15.83,7.91c-6.82-8.31-15.53,2.78-27.44,2.57c-0.82-2.57-1.48-5.12-2.47-7.61
		c-4.42-11.16-3.59-5.83-5.45-6.89c-0.82-0.41-1.23-1.54-2.36-1.75c-0.62,0.41-1.34,0.93-1.85,1.23c-2.94-0.13-8.03-2.91-9.05,3.19
		c2.48,6.61,2.86,6.59,1.85,7.09c-3.8-3.38-2.25-2.57-3.91-2.57c-1.13,1.03-0.32,2.66-0.93,3.19c-1.15,1-2.36,0.93-2.67,2.06
		c-0.33,2.96,6.23,3.5,5.96,5.34c-3.12,1.65-5.95,0.76-4.73,5.65c-0.41,0.82-1.54,0.82-1.75,1.64c-0.59,1.77,0.99,5.4,0.31,8.12
		c-0.41,1.34,1.13,2.57,0.51,4.01c-1.54-0.1-2.06-1.95-3.7-1.44c-3.16,1.58,1.65,7.3,1.65,8.32C2.73,135.02,4.06,136.77,4.47,138.62
		z M237.5,138.82c-4.01,0.2-7.44,0.09-11.31-1.03C233.05,134.23,233.84,134.65,237.5,138.82z M361.92,160.41
		c6.56,0.25,8.74-0.02,8.07,2.78c-2.11,0.53-12.44,2.12-13.1,0.95c-0.36-0.65-0.38-1.27-0.2-1.96
		C357.15,160.49,357.24,160.23,361.92,160.41z M489.53,208.51c-1.64,0.62-3.48,0.37-5.14,0c-4.19-0.93-8.43-0.83-12.64-1.34
		c-11.28-1.36-9.72-0.54,0.31-4.63C490.06,207.65,489.72,206.98,489.53,208.51z M492.2,206.97c-4.42-3.06,0.81-1.78-9.44-4.46
		c-0.79-0.21,5.11-1.44,12.31,1.48C495.08,205.94,493.75,206.46,492.2,206.97z M582.45,160.2c1.3,2.77-0.74-0.24-1.13,21.38
		c-0.08,4.17,1.34,6,1.34,9.66c0,1.49,0.93,2.89,1.34,4.11c-0.93,0.93-1.95,0.82-3.19,0.31c-0.51-1.44-0.24-2.98-0.21-4.52
		C580.78,183.85,573.95,163.7,582.45,160.2z M807.87,105.52c3.16,7.33-8.86,11.85-7.71,17.58c-0.43,0.77-1.92,2.42-3.24,1.42
		c-1.24-0.94-1.15,0.15,3.34-7.07c3.74-6.01,1.71-11.11-0.21-19.02C808.93,105.08,806.81,103.05,807.87,105.52z M824,159.69
		c-0.48,0-0.1-0.25,0.07-0.4C824.05,159.42,824,159.56,824,159.69z M744.45,98.22c1.04,0,2.08,0.1,0,0.1
		C744.45,98.22,744.45,98.22,744.45,98.22z M609.59,94.62c18.56,3.81,12.9,3.97,28.27,1.85c11.36,4.05,87.7-2.08,99.7,2.16
		c1.28,1.28-2.09,1.1-22.2,1.92c-2.06,0.08-3.5,1.14-3.98,1.14c-36.31-2.91-1.9,1.67-78.98,0.56c-11.15-0.16-10.14-4.41-17.05-5.07
		C594.93,95.23,606.13,96.36,609.59,94.62z M583.48,93.9c-1.37,0.11-2.02,0.08-3.25,0.2C581.65,93.39,581.36,93.51,583.48,93.9z
		 M180.55,106.55c0,1.36-9.7,6.64-10.11,6.67C168.74,113.34,175.39,107.6,180.55,106.55z M169.76,113.29c0,0.4-0.15,0.67-0.59,0.8
		C169.21,113.66,169.44,113.46,169.76,113.29z M168.71,114.24c0.39-0.01-0.15,0.66-1.22,0.57
		C167.59,114.8,167.6,114.26,168.71,114.24z M21.13,182.41c-1.13,0.21-1.64-0.31-1.85-1.23c0.72-0.62,1.44-0.72,2.16,0.21
		C21.33,181.69,21.23,181.99,21.13,182.41z M23.9,173.98c1.23-1.54,3.19-2.06,3.6-4.11c2.48,1.55,1.16,0.47,0.51,5.65
		C26.47,175.52,25.34,174.9,23.9,173.98z M30.07,132.66c0.72,0.21,0.82,0.62,0.93,1.03c-0.21,0.93-1.33,0.83-1.95,1.34
		c-0.51,0.42-0.82,1.13-2.36,1.23C27.5,134.3,29.14,133.79,30.07,132.66z M27.5,117.44c0.97,0.49,3.35,10.69,0.62,8.12
		C27.8,125.06,25.66,117.79,27.5,117.44z M27.5,162.26c0-1.44,1.34-1.54,2.16-2.16C32.79,160.32,32.37,167.13,27.5,162.26z
		 M28.32,141.7c3.84,0.55,0.93,3.21,0.62,3.7c-0.4,0.64-1.66,4.67-2.88,1.03C26.99,145.09,28.42,143.76,28.32,141.7z M26.78,187.96
		c0.1,0.21,0.31,0.41,0.31,0.51C27.09,189.31,25.83,188.9,26.78,187.96z M27.5,184.56c2.42-0.33,2.37-0.26,3.29,1.54
		C29.25,186,28.22,185.59,27.5,184.56z M31.1,190.63c0.93-0.72,1.54-0.1,2.06,0.62C32.12,191.66,32.12,191.66,31.1,190.63z
		 M32.01,130.81c0.37-0.19,0.74-0.5,0.82-0.41c1.64,1.44,3.85,2.47,3.91,5.04c0,0.1,0.31,0.1,0.31,0.1
		C37.13,136.83,33.27,132.45,32.01,130.81z M32.02,122.17c0.72,0.82,0.51,1.54,0.21,2.47C31.51,123.71,31.61,122.99,32.02,122.17z
		 M40.66,135.95c2.36,1.44,4.01,3.8,5.96,5.76C44.43,143.67,41.73,138.89,40.66,135.95z M47.13,152.8c0.93,0.21,1.34,0.93,1.95,1.54
		C46.88,155.13,45.54,153.44,47.13,152.8z M47.73,182.04c-2.93,2.63,0.84-1.66,2.08-5.39C52.47,175.98,51.78,178.41,47.73,182.04z
		 M50.11,161.03c-0.1-0.72-0.1-1.13-0.21-1.54C51.5,158.16,53.63,161.03,50.11,161.03z M51.65,145.5c1.23,0.21,1.95,0.82,2.26,1.95
		C52.27,147.46,52.27,147.46,51.65,145.5z M53.39,192.67c-2.71,0.32-3.88-3.98-1.19-2.8C53.85,190.6,55.45,192.43,53.39,192.67z
		 M58.2,182.07c-0.57,0.34-1.19,0.12-1.72-0.28C56.49,179.74,60.09,181.07,58.2,182.07z M58.27,159.15
		c-1.69,0.4-1.56-1.92-0.14-1.01C59.03,159.05,58.95,159,58.27,159.15z M58.23,151.16v0.21C57.69,151.23,57.71,151.29,58.23,151.16z
		 M59.47,194.74c-1.1-0.66-0.27-2.23,1.51-1.35C63.26,194.54,60.95,195.81,59.47,194.74z M62.65,174.8
		c-0.31-0.21-0.62-0.41-1.03-0.62c-0.13-1.67,0.73-2.87,2.26-1.85C64.19,173.57,63.68,174.28,62.65,174.8z M68.2,183.74
		c0.48-0.58,0.91-0.55,1.34,0C69.03,184.46,68.61,184.26,68.2,183.74z M75.91,190.83c-1.54,0.31-1.54,0.21-2.67-1.03
		C74.83,188.21,77.35,190.55,75.91,190.83z M80.23,184.26c-2.21,1.47-3.08-1.21-0.32-1.07C80.98,183.24,80.82,183.86,80.23,184.26z
		 M90.12,178.21c-0.18,0.45,0.27,0.03-3.82,2.55C87.95,175.8,90.82,176.71,90.12,178.21z M91.64,182.1c-0.2,0.11-0.51-0.01-0.72-0.1
		C90.92,180.37,92.92,181.43,91.64,182.1z M32.54,105.73c3.08,0.97,13.6-2.99,16.65-4.73c5.88-3.34,6.33,2.59,11.82,2.26
		c4.72-0.59,21.32-15.33,21.88-6.85c0.43,6.51,0.58,5.05,0.48,5.56c-0.3,1.57-2.11,1.77-1.77,2.8c1.04,2.08,4.72,1.37,5.37-2.74
		c0.46-2.91-4.06-2.67,4.15-4.21c3.91,1.44,3.7,5.55,5.04,8.43c1.44,1.44,2.78,0.71,2.78-0.1c0.97-3.64-5.3-3.07,0-7.2
		c1.64-0.21,2.98,0.52,4.32,1.34c6.56,4.02,13.1-6.81,16.03,4.42c1.25,4.79,1.18,9.59,0.51,14.39c-0.13,0.97-0.48,1.7,0.31,2.47
		c3.56,0,0.98-6.26,8.63-1.13c6.64,4.45,12.74,5,20.15,6.48c-0.4,2.02-12.37,7.95-12.37,35.18c0,12.27,3.25,12.02,4.12,18.9
		c0.01,0.1,0.6,4.89,0.49,4.79c-4.03-4.02-7.65-2.11-9.63-5.42c-2.84-0.95-9.68-0.37-21.79,0.41c-2.16-2.67-4.93-4.21-8.33-4.63
		c-2.99,2.99-2.57-0.63-3.29-1.23c-1.54-1.54-3.49-1.03-4.93-1.64c-1.55-2.04,1.36-1.27,4.01-11.2c1.13-0.72,1.85,0.52,2.36,0.41
		c5.88-1.26,8.19-5.73,9.87-10.28c0.2-0.55,10.42-23.28,3.8-11.72c-8.87,15.49-1.75,9.91-12.33,17.68
		c-4.51,1.06-4.97-0.27-6.27-0.93c-0.93,0.31-0.51,1.23-0.93,1.75s-1.34,0.51-1.54,1.34c0,1.14,1.85,1.37,1.85,2.78
		c-2.01,8.02-4.22,6.94-8.84,13.67c-5.99,8.71-11.59,3.77-19.65-1.49c-0.47-0.31,3.34-8.84,4.44-11.97
		c8.61-5.44,5.08-1.39,11.77-6.85c0.15-0.07-0.15-1.27-1.18-1.27c-4.96,0-0.62-3.34-0.62-5.34c-2.27-4.54-4.04,18.73-38.75-19.84
		c-1.32-0.91-4.43-1.66-4.93-2.67c0.93-4.24,1.02-7.9-2.16-10.79c-1.66,0.51-0.25,8.4-4.19-6.5v-0.01
		C32.14,110.02,31.65,106.79,32.54,105.73z M68.92,163.8c-1.02,1.43-2.26,2.66-2.08,1.24C66.92,164.48,67.51,163.58,68.92,163.8z
		 M67.07,159.79c0.31-0.31,0.62-0.31,0.93,0.1C67.62,160.18,67.28,160.21,67.07,159.79z M19.39,91.76c3.4,0.39,4.86,0.98,7.7,7.6
		c2.1,4.89,4.11,6.69,2.78,10.41c-0.08,0.23-2.45-3.67-3.29-7.02C24.51,94.55,18.04,91.76,19.39,91.76z M10.54,173.05
		c1.13,0.51,1.13,0.51,2.06,2.26C10.56,175.82,10.54,175.86,10.54,173.05z M13.42,122.07c-0.88,0-0.92-0.71-1.03-1.63
		C13.57,120.69,14.15,121.11,13.42,122.07z M14.34,177.27c-0.55,0.55-0.45-1.29,0.1-0.41C14.45,176.96,14.34,177.16,14.34,177.27z
		 M13.92,112.63c1.16-1.12-0.35-2.09-0.61-2.68c0.42,0,0.12-1.23,3.08-0.42c1.62,1.02,1.77,3.08,1.13,3.08
		c-3.23,0.74-4.85,2.08-5.14,5.76C8.61,112.83,12.9,113.62,13.92,112.63z M10.33,102.95c-2.62-1.29,0.87-3.61,1.54,0.1
		C11.28,103.54,10.81,103.18,10.33,102.95z M9.1,130.6c1.36,0,2.74,1.54,0.76,2.42C8.78,133.5,8.17,131.99,9.1,130.6z"/>
	<path d="M789.16,129.06l0.1,0.1C789.43,128.95,789.42,129.02,789.16,129.06z"/>
	<path d="M785.66,128.54l-0.1-0.1C785.46,128.55,785.45,128.47,785.66,128.54z"/>
	<path d="M228.86,207.49l-0.1-0.1C228.68,207.46,228.63,207.45,228.86,207.49z"/>
	<path d="M175.62,536.2c-0.16,0.04-0.1-0.02-0.1,0.1L175.62,536.2z"/>
	<path d="M174.08,537.54c-7.14-3.57,0.16-0.97,1.43-1.32c-0.15-2.38-19.01-9.69-25.79-23.35c-2.76-5.56-3.69-21.38-3.7-21.48
		c-3.43-32.99,42.42-50,67.33-34.54c12.02,7.46,11.29,6.42,7.81,7.91c-0.93,0.31-1.64,1.13-2.78,0.93
		c-1.65-1.38-2.88-3.04-4.52-1.23c3.89,4.77,0.98,10.06,12.33,11.1c19.42,1.78,24.63,1.28,31.56,6.78
		c14.07,11.18,17.3,11.84,23.44,14.6c1.13,0,1.03-1.23,1.95-1.13c5.9,1.97-1.87,1.45,11.2,4.93c-0.73,1.27-10.5,2.8,4.83,2.16
		c1.13-0.41,1.34-1.44,2.88-1.34c7.98,1.04,24.67-0.78,36.7,4.52c20.63,9.1,20.95,6.28,31.35,12.03c2.17,1.44,1.17-1.27,0.51-3.91
		c-9.52-3.7-1.5-1.22-12.64-5.55c-5.6-2.18-11.56-3.71-13.36-5.65c0-8.42-0.01-1.13-1.34-0.31c-1.44-0.1-2.68-0.81-4.01-1.34
		c-11.93-4.74-39.28-1.55-47.9-6.48c0.81-0.87,8.71-6.33-1.34-2.98c-0.93,0.72-0.62,1.75-1.64,2.06c-4.52-1.75-9.25-3.29-13.77-5.86
		c5.89-5.24,5.84-3.83,5.65-5.04c-12.67,2.77-6.92,3.76-23.02-6.48c-4.88-3.1-6.45-2.75-13.98-4.01c-2.86-5.2-6.1-5.36-5.55-7.2
		c2.36-2.06,5.04-3.8,7.09-6.06c-0.66-2.21-2.67-0.31-4.73-0.1c-18.39,1.86-3.04,5.86-28.06-7.09c-8.49-4.4-29.09-7.58-40.6-0.1
		c-3.54,2.3-31.85,11.4-27.86,42.04c1.72,13.15-3.3,20.66,21.89,38.44c-3.85-0.37-10.01-3.18-11.51-4.73
		c-4.85-4.99-7.39-3.77-7.91-7.2c0-0.72,0.62-1.34,0.1-2.78c0-0.93-7.49-11.34-4.52-33.3c0.94-6.96,2.46-15.88,7.91-19.63
		c8.64-5.93,4.59-5.68,4.42-6.89c1.26-1.26,4.3-0.91,10.9-4.63c26.22-14.78,30.34-30.95,90.97-24.36c16.31,7.41,10.4,3.56,14.6,4.01
		c9.21,0.98,17.97-2.53,30.12,0.82c12.94,3.57,18.63,5.85,25.29,5.04c4.15-0.51,29.67,0.18,41.01,2.57
		c2.36,0.68,1.75,1.44,1.03,2.67c-9.21,15.59-5.07,14-8.43,16.75c-0.1,0.03-8.58,2.39-10.18,3.91c3.6-1.13,6.37-0.93,9.05,0
		c-0.45,3.15-3.04,24.65-4.42,27.55c-2.72,5.73-2.19,17.25,1.85,13.88c0.62-0.62,0.41-1.95,1.54-2.26c1.64-0.21,2.77,0.85,4.11,1.23
		c5.6,1.61,11.78,1.59,8.22-1.64c-4.32-0.21-8.74-1.64-13.47-1.23c-0.51-0.93-0.62-1.85,0.1-2.67c1.37-1.14,1.46,0.87,11.41-0.41
		c2.23-0.29,2.06-1.62,3.8,3.6c0.1-2.98-0.21-5.76-0.72-8.53c-0.51-2.78,0.51-5.55,0-8.53c-2.57-0.1-4.93-0.51-7.61-0.51
		c1.13,1.23,2.26,1.14,3.39,1.34c5.83,1.02,2.6,2.67,2.06,2.67c-6,0.43-9.24,3.1-10.28,1.54c1.79-7.16,1.25-3.93,3.29-25.18
		c1.73-3.46,3.47-0.74,1.34-6.06c4.52-8.39,1.83-6.84,4.11-10.48c5.24-8.38,3.3-7.53,8.33-5.86c1.13,0.31,2.06,1.44,3.6,1.34
		c3.28-7.02-1.26-3.93-45.23-10.18c-3.6-0.51-10.66,1.27-16.03,0.21c-18.87-3.72-7.94-9.09-42.04-4.52
		c-16.84,2.26-52.58-26.93-112.24,15.42c-0.18,3.27-10.03,11.52-15.83,10.69c-3.11,0-7.09,0.41-9.97-1.23
		c-7.89-4.49-12.94-3.81-14.18-5.55c1.23-3.08,0.21-6.37,0.93-9.35c-0.62-1.03-1.25-1.85-1.44-2.78c-0.9-4.4-5.97-7.38-10.9-6.89
		c-1.75,0.18-3.19,1.23-4.83,1.85c-10.77-5.57-10.47-0.32-12.75-0.93c-3.98-5.31-4.78-1.08-8.53-2.06
		c-6.72-8.63-5.33-4.18-26.62,5.14c-2.26-2.88-2.47-2.98-5.76-2.98c-2.16,0-4.12,0.5-6.17,1.34c-22.45,9.17-12.71,2.71-21.28-10.59
		c-0.82,0.21-1.34,0.41-1.85,0.62c-1.03-0.41-1.44-1.85-2.67-1.95c-0.72,0.41-1.44,0.93-1.95,1.23c-2.26-0.1-4.32-1.23-6.48-0.51
		c-5.63,4.61,1.87,9.86-0.62,10.79c-5.61-5.61-3.9-0.56-4.93,0.62c-0.28,0.47-4.88,2.03-1.23,4.11c3.09,2.25,4.73,1.77,4.52,3.39
		c-1.85,0.72-4.21,0.72-5.24,3.08c1.44,6.46-1.83-0.03-1.13,7.2c1.5,15.43,0.51,6.8-2.88,7.71c-2.85,3.63,1.44,6.19,1.44,8.22
		c0,2.06,1.03,3.8,1.54,5.24c0.21,1.23-0.41,1.85-0.41,2.47c0.21,1.54,0.1,2.98-0.72,4.42c-0.43,0.58-0.27,6.55,0.82,9.15
		c0.61,1.44,0.72,2.88,0.31,4.32c-1.13,0.93-2.67-1.44-3.29,0.82c0.21,2.06,2.36,2.57,3.6,4.11c3.39,18.66,5.38,14.54,8.22,18.81
		c-0.51,1.13-2.06,1.75-1.75,2.98c0.83,3.26,5.78,0.63,2.98,4.83c0.62,1.34,2.16,1.44,3.08,2.67c0,2.16,1.54,3.49,3.08,4.63
		c2.36-0.31,1.54-2.88,2.98-3.39c3.78-0.58,1.57,5.51,10.59,4.01c7.81,2.47,16.75,3.08,24.36,1.64c4.58-2.75,3.84-2.93,7.71-1.64
		c14.74-6.48,26.67-4.88,31.35-9.56c7.13-2.14,9.42-0.99,11.51-3.08c2.58-0.11,22.86-0.6,26.72,1.64
		c3.61,7.53,11.02,8.22,15.21,10.38c4.86,2.51,9.76,5.14,15.11,5.96c4.63,4.52,10.07,6.37,16.03,6.68
		c5.09,0.27,43.48,1.5,47.11-2.29C206.89,537.5,183.91,542.45,174.08,537.54z M236.97,472.06c-3.63,0.21-7,0.4-10.59-0.82
		C233.35,467.46,234.35,468.4,236.97,472.06z M368.19,491.53c0.37-0.12,0.4,0.06,0.57,0.06
		C368.42,491.59,367.74,491.61,368.19,491.53z M369.06,494.26c4.69,3.28-6.42,3.54-12.23,3.8
		C355.82,492.02,359.28,493.81,369.06,494.26z M180.65,439.99c-0.14,1.28-8.96,6.27-9.07,6.32
		C167.33,448.48,174.35,441.28,180.65,439.99z M169.86,446.71c0,0.73-0.7,0.95-0.7,0.84C169.21,447.08,169.46,446.82,169.86,446.71z
		 M168.71,447.68c0.67-0.01-0.16,0.71-1.22,0.56C167.05,448.17,168.07,447.69,168.71,447.68z M9.9,434.36
		c1.46,0.24,2.65,2.18,1.24,2.24C8.74,436.7,9.39,434.19,9.9,434.36z M9.18,466.59c-0.97,0.32-1.11-4.74,1.77-1.42
		C10.74,466.15,10.13,466.38,9.18,466.59z M12.08,509.27c-1.62-0.87-1.53-0.92-1.53-3.28C11.89,507.01,12.8,507.83,12.08,509.27z
		 M13.31,455.62c-0.76-0.33-1.01-0.75-0.62-1.54C13.79,454.37,13.83,454.37,13.31,455.62z M14.34,510.71
		c-0.55,0.55-0.45-1.29,0.1-0.41C14.45,510.4,14.34,510.61,14.34,510.71z M11.98,450.68c-0.81-0.82-0.93-1.84-0.93-2.98
		c0.57-1.22,2.13-0.83,2.93-1.68c1.1-1.16-0.45-1.88-0.68-2.54c0.35,0,0.14-1.13,2.88-0.52c1.03,0.62,1.64,1.44,1.64,2.98
		C14.03,447.19,14.03,447.19,11.98,450.68z M21.21,515.51c-0.81,0.86-3.42-1.76-0.19-1.31C21.6,515.36,21.64,515.05,21.21,515.51z
		 M26.78,522.33c-0.27,0.27-0.79-0.68,0.21-0.93C27.21,521.85,27.26,522.13,26.78,522.33z M23.8,507.01
		c4.71-2.49,2.94-4.35,5.14-2.88c0.41,1.03-0.51,1.65-0.62,2.47c-0.37,2.75-0.24,2.35-0.41,2.35
		C26.23,508.74,24.97,508.27,23.8,507.01z M31.71,495.7c0.23,2.29-2.6,2.33-4.31-0.1c0-0.55-0.6-0.22,2.16-2.06
		C30.97,493.83,31.28,494.84,31.71,495.7z M32.49,456.82c0.02,0.38-0.11,0.79-0.37,1.26C30.97,456.01,32.4,455.13,32.49,456.82z
		 M29.11,468.58c-2.01,1.31-2.12,2.41-1.94,1.42c0.33-1.86,0.28-1.91,3.32-3.79C32.04,467.17,29.78,468.14,29.11,468.58z
		 M26.68,453.15c-0.19-0.93,0.1-1.34,1.34-2.47c0.26,1.82,0.81,3.61,1.15,5.42C29.96,460.36,28.46,462.11,26.68,453.15z
		 M30.69,476.89c-2.51,2.51-3.37,6.86-4.63,3.08C29.02,476.13,28.17,473.29,30.69,476.89z M27.4,518.32
		c1.75-0.51,1.75-0.51,4.01,0.82C29.48,519.85,28.68,519.06,27.4,518.32z M31.2,524.28c0.93-0.41,0.93-0.41,1.95,0.62
		C32.23,525.51,31.61,525.1,31.2,524.28z M32.01,464.25c0.37-0.19,0.74-0.5,0.82-0.41c1.64,1.44,3.85,2.47,3.91,5.04
		c0,0.1,0.31,0.1,0.31,0.1C37.11,469.95,34.1,467.15,32.01,464.25z M44.46,475.25c-1.64-1.13-2.57-2.78-3.8-5.76
		C44.25,471.54,48.42,477.62,44.46,475.25z M47.44,515.75c-1.84-1.05,0.75-0.98,2.3-5.3c0.3-0.82,1.55-0.49,1.81,0.68
		C50.5,513.11,48.48,514.71,47.44,515.75z M47,486.36c0.93,0,1.6,0.88,1.98,1.73C46.91,489.06,45.49,486.71,47,486.36z
		 M51.24,494.39c-1.58,0.52-1.69-2.26-0.06-1.81C51.67,492.71,52.91,493.83,51.24,494.39z M51.65,478.95
		c1.23,0.21,1.95,0.82,2.26,1.95C52.27,480.9,52.27,480.9,51.65,478.95z M52.79,526.03c-1.93-0.52-2.7-1.93-1.72-2.71
		C52.94,521.82,56.53,527.03,52.79,526.03z M56.49,515.23c0.82-1.34,0.82-1.34,2.57-0.31C58.13,515.64,57.4,516.02,56.49,515.23z
		 M57.9,492.71c-0.4,0-0.71-0.28-0.9-0.91C58.16,490.77,59.46,492.71,57.9,492.71z M57.92,484.7c0.39-0.13,0.31-0.16,0.31,0.1
		L57.92,484.7z M59.47,528.18c-1.1-0.66-0.26-2.23,1.51-1.35C63.26,527.98,60.95,529.25,59.47,528.18z M62.86,508.24
		c-1.25-0.67-1.46-0.81-0.97-1.82C63.19,503.77,65.3,506.67,62.86,508.24z M68.2,517.29c0.45-0.71,0.81-0.63,1.34-0.1
		C69.13,517.91,68.61,517.7,68.2,517.29z M73.14,523.04c1.34-0.51,2.36-0.41,3.39,0.62C74.3,524.57,74.25,524.59,73.14,523.04z
		 M77.87,517.6c1.03-1.13,1.95-0.93,2.98-0.72C80.13,518.11,79.3,518.73,77.87,517.6z M87.22,513.59c-0.31,0.21-0.72,0.21-1.54,0.41
		c1.03-1.85,2.06-2.98,3.49-3.8C91.68,511.45,89.17,512.25,87.22,513.59z M90.92,515.54c0-0.97,1.04-1.27,1.03-0.25
		C91.94,515.77,91.55,515.78,90.92,515.54z M132.45,515.44c-0.64-0.8-1.02-1.5-1.13-1.64c-3.24-1.08-21.69,0.39-21.79,0.41
		c-1.97-2.46-4.78-4.19-8.33-4.63c-2.92,2.92-2.55-0.49-3.39-1.34c-1.15-1.29-3.15-0.99-4.48-1.46c-2.69-0.94,2.28-2.64,3.66-11.18
		c1.34-0.82,2.06,0.42,2.57,0.31c7.81-1.67,8.52-8.34,12.13-15.32c1.09-2.11,9.32-21.67-2.06,0.1c-1.88,3.6-0.16,4.23-3.6,6.99
		c-4.62,3.72-5.57,4.74-9.66,4.11c-3.17-2.12-1.95-0.29-2.67,0.62c-0.41,0.51-1.34,0.51-1.54,1.44c0.21,1.13,1.75,1.44,1.75,3.7
		c-0.1,1.85-1.85,4.01-2.98,6.48c-2.47,1.54-4.12,3.79-5.76,6.17c-6.02,8.76-11.63,3.63-19.31-1.27c-1.06-0.68,2.28-6.98,4.1-12.19
		c7.63-4.82-2.69,1.75,11.82-6.78c-0.5-2.66-2.5-0.17-3.6-2.16c-0.1-1.68,2.39-3.81,1.54-4.81c-0.99-1.16-1.86,1.22-2.88,1.73
		c-11.05,5.52-27.94-11.62-35.67-21.28c-1.61-1.21-3.68-1.2-4.93-2.78c0.8-4.16,0.94-7.76-2.26-10.69
		c-1.73,0.53-0.07,8.55-4.21-6.48c-1.34-2.36-2.61-4.61-3.29-7.3c-2.53-10.04-9.93-11.63-7.35-11.06c3.18,0.44,4.87,0.46,7.97,7.67
		c2.07,4.82,4.34,6.93,2.67,10.69c2.2-0.55,1.32-3.07,2.36-4.32c1.95,0.62,3.91-0.17,5.96-0.72c13.94-3.73,12.2-7.2,18.45-2.72
		c5.21,3.72,9.87-3.53,22.77-8.69c4.07,0.39,2.75,2.61,3.7,8.33c-0.21,1.64-1.85,1.54-1.85,2.78c0.98,1.96,4.86,1.7,5.55-2.88
		c-1.38-3.21-1.74-2.91,4.11-4.01c4.91,1.68,3.54,8.5,6.27,9.15c1.05,0.25,1.64-0.35,1.64-0.82c0.91-3.65-5.27-3.09,0-7.2
		c4.07-0.51,5.43,4.58,12.13,1.23c8.6-4.3,10.13,9.38,8.74,18.91c-0.86,5.88,3.41-0.46,4.01-0.82c7.36,2.3,7.55,5.46,20.45,7.71
		c11.5,2-1.17-1.21-5.86,20.04c-5.66,25.65,2.88,28.23,2.88,39.88C138.59,516.85,135.8,516.28,132.45,515.44z M67.44,493.45
		c-0.9-0.37,0.06-0.46,0.25-0.37C68.1,493.28,68.04,493.65,67.44,493.45z M68.72,497.66c-0.51,0.51-0.93,1.03-1.44,1.54
		C67.07,497.86,67.07,497.86,68.72,497.66z"/>
	<path d="M229.27,541.34c-0.02,0.02-0.05,0.04-0.07,0.07C229.42,541.45,229.41,541.48,229.27,541.34z"/>
	<path d="M899.04,440.3c0.56-1.5,1.23-3.14-0.31-4.73c-8.74-9.01-10-11.28-13.67-10.28c-31.41,8.6-0.23,16.27-81.2,26.72
		c-2.35,0.3-13.31,2.31-14.18,4.93c0.62,1.54,1.23,3.29,1.95,5.04c-7.41,3.7-74.42,0.96-75.96,0.41c-0.51-0.26-2.73,0.64-3.49,0.93
		c-8.47-1.54-13.52-2.74-24.67-2.26c-9.61,0.42-8.68-1.14-22.92-1.64c-38.37-1.36-38.56-3.15-42.76-6.89
		c0.94-2.58,6.84-3.37,9.05-9.76c-5.55,1.85-10.07,4.93-14.8,7.61c-3.39-0.51-6.58-0.93-9.87-1.44c-2.67-2.88-6.17-3.8-9.97-4.21
		c-0.21-2.47-0.41-4.63-0.62-7.09c2.85-3.51,0.28-7.74-4.11-23.13c3.91-1.44,8.53-1.13,10.59-5.45c-0.92-5.09-5.48-1.13-8.94,0.93
		c-2.47,1.47-3.68,3.52-4.42-8.02c3.7-1.64,7.5-2.26,11.31-2.88c3.6,3.08,8.22,3.7,12.44,4.73c7.69-2.2-0.03-2.9,14.8-2.36
		c2.47,0.09,4.83-0.31,7.09-1.23c0.31-0.62,0.62-1.23,0.93-1.95c28.43-6.38,28.78-12.62,54.58-17.27
		c58.9-10.62,77.73-20.28,97.44-28.06c4.17,1.6,5.65,11.85,4.63,16.14c3.96,1.98-6.35,7.05-6.58,8.53c2.75,0.73,4.37-2.41,5.65-1.13
		c-1.03,2.98-1.75,5.96-3.08,8.43c-27.38,12.97-54.61,24.21-70.41,39.78c-3.53-0.71-2.62-0.44-4.93,2.16
		c-11.19,12.54-27.9,13.51-44.3,15.73c-3.18,0.43-21.22,4.01-35.15,3.08c-6.97,0,5.18,3.47,17.68,2.16
		c22.98-2.41,23.25-0.75,33.92-2.98c36.7-7.67,34.88-24.84,95.08-52.63c2.01,1.01,3.72,4.13,7.71,4.63
		c1.11,0.14,5.09,3.16,9.87,4.01c10.98,12.04,24.03,29.21,26.62,14.7c22.91-25.09,24.16-28.19,24.16-48
		c4.52-9.61,0.98-1.48,7.5-9.87c4.07-5.23,9.63-14.61,13.47-18.6c6.85-7.14,3.5-23.26,6.58-27.65c2.51-3.58,0.52-7.12,1.75-12.85
		c2.03-9.5-5.41-6.41-5.96-6.48c-2.26-0.72-4.93-1.13-7.4-0.62c-21.69,10.84-12.08,16.72-30.01,28.16
		c-14.48,9.24-9.71,3.23-29.5,12.64c-8.74,4.16-11.09,3.08-14.08,5.65c-10.52,9.04-5.83,9.45-4.32,11.72
		c-8.36,2.79-31.49,13.46-74.62,22c-66.73,13.22-21.77,4.2-72.98,22.31c-2.88,1.02-5.86,2.06-8.22,4.01
		c-20.92,0-17.1,1.02-29.29-2.47c-4.63,0.82-8.53,2.88-12.85,3.39c-1.03-1.54-0.31-3.7-2.36-4.73c-2.04,1.3-12.91,1.32-22.3,4.11
		c-11.92,3.54-16.07,3.61-37.62,7.09c-48.92,7.9-34.19,8.1-50.16,11.41c-28.84,5.97-32.18,11.08-35.98,11.92
		c-4.25-2.2-8.16,0.16-11.72,3.39c-7.19,6.54-2.28,5.42-9.15,6.48c-18.36-4.28-15.18-6.61-19.94-2.78
		c-3.31,2.66-4.53,3.64-17.06,5.14c-0.62,1.13-0.72,2.06,0.21,2.88c3.48-1.74,5.62,2.49,19.53-5.86
		c27.43,11.76,20.76,2.17,28.99-2.67c2.7,2.25,1.89,5.36,3.91,5.14c1.35-0.61,0.61-1.37-0.21-5.04c-0.21-0.72-1.23-1.13-0.93-2.06
		c1.23-1.03,2.66-1.42,4.01-0.72c4.41,2.29,7.52-2.47,18.3-6.58c0.93-0.41,0.82-1.34,1.75-2.16c2.34-0.6,34.69-8.94,37.72-9.25
		c56.45-5.79,86.65-16.04,89.01-13.67c0.7,1.41,0.22,7.65,1.03,10.9c5.98,23.92,5.94,13.96,7.3,30.94c0,2.16-1.01,1.75-8.31,2.28
		c5.8-2.39-47.65-5.45-56.97-6.39c-23.39-2.38-26.31,2.15-18.81-4.63c3.06-2.76,2.84-2.4,2.47-2.78c-1.15-0.11-1.12,0.18-10.59,7.2
		c-25.28-0.74-38.52,2.24-61.88,5.86c-5.79,0.9,0.52,1.62,3.6,0.51c3.39-1.22,4.53,0.17,5.34-0.1c2.99-1.01,6.16-0.54,9.25-1.03
		c3.39-0.54,6.78-1.33,10.18-1.13c7.61,0.44,16.66-2.23,23.74-1.34c11.58,1.46,20.54-0.29,30.63,0.62c0.1,0.01,53.8,4.95,54.58,5.34
		c1.01,1.3,0.01,1.72,1.13,16.45c1.62,21.22,2.99,20.44,1.13,26.11c-4.91,14.99,0.38,9.59-6.68,26.62
		c-5.1,12.31,1.51,29.63-2.16,32.38c-0.37-0.1-30.22-0.82-30.32-0.82c-8.05,0-5.62-1.75-14.8-1.75c-2.12,0-7.07,0.26-8.94-0.51
		c-5.54-2.29-8.49,0.97-12.85-1.75c-3.34-2.08-16.53-3.18-22-4.11c-2.44-0.42-25.38,1.02-25.49,1.03
		c-7.09-6.21-3.11-3.55-11.72-4.73c-18.38-2.51-40.76-4.73-47.28-6.37c-16.73-4.22-14.04-9.46-20.56-11.51
		c-1.03,0.21-1.23,0.72-1.23,1.34c14.36,20.4,34.67,13.33,70.2,21.69c-4.42,1.54-8.94,1.95-13.47,1.54
		c-0.11-0.02-19.98-4.71-20.66-4.93c-4.89-2.45-36.61,4.01-54.79,4.01c-6.36,0-3.57-1.06-18.71-0.62
		c-11.88,0.35-10.63-0.69-12.75-0.21c-3.39,0.78-13.77,0.03-15.42-4.21c-27.58-5.52,7.28-3.34-59.93,0.82
		c-19.02,1.18-41.09-8.87-44.4-10.18c-8.56-3.39-5.6-4.26-13.47-1.75c-5.74,1.83-6.66-0.61-7.3,1.95c4.93,1.75,9.97,1.75,14.9,0.41
		c12.45,7.11,30.62,14.45,41.53,11.41c3.19,1.44,6.48,1.56,9.76,1.44c23.15-0.82,30.42-0.6,37.93-4.21
		c10.21-4.91-10.76,10.99,68.56,9.97c23.33-0.3,19.26-4.06,39.16-5.34c19.4-1.25,42.92,8.88,51.39,2.78
		c5.04,0.31,9.76,1.23,14.7,0.93c4.27-2.76,3.35-2.07,19.84-0.51c5.69,0.54,5.06-0.01,11.41,2.98c4.73,0.21,9.35-1.13,13.88-0.62
		c0.93,0.31,1.03,1.54,2.06,1.64c65.63,1.82,64.52,4.69,65.89,1.95c-1.79-6.77,1.28-9.38,0-14.29c-0.92-3.53-1.72-14.19,0.72-21.48
		c3.63-10.83,24.6-2.75,29.4-6.68c5.2-4.26,8.84,1.16,13.67,2.16c37.44,7.72,53.9,15.75,82.02,11.41
		c3.42-0.53,68.95-20.51,76.47-22.1c4.86-1.03,9.89-4.35,3.49-2.67c-106.95,28-100.66,23.56-154.8,10.48
		c-4.22-1.02-8.73-1.35-12.85-2.88c-3.08-1.14-6.06-1.23-8.53,0c-8.53-0.82-16.24,0.31-24.16,2.16c-0.41-2.26-0.31-4.32,0.21-6.27
		c2.06-1.95,4.11-3.6,7.2-4.63c-2.57-0.31-4.63,0.21-6.68-0.51c1.75-6.55,3.47-8.19,2.26-14.6c-0.39-2.06-1.72-13.58-1.23-15.52
		c4.93,1.75,5.14,1.85,8.02,0.62c-2.67-3.39-7.2-4.73-9.25-8.63c-1.03-5.14-1.13-8.63-0.31-11.72c0.41-0.1,0.82-0.21,1.23-0.31
		c-0.47,1.42-0.41,0.86,0.21,0.51c0,3.95,6.99,1.69,11.2,2.78c0.62,0.31,1.23,1.34,2.67,1.34c7.5,0,3.37,5.17,12.95,2.78
		c2.56,0.32,8.72,1.61,10.79,3.39c4.95,4.24,9.33,4.5,9.76,4.93c2.44,1.51,95.75,5.16,110.81,6.89c35.9,4.11,57.43-6.09,55.71,1.95
		c-1.03,0.21-1.75,0.41-2.57,0.62c0.41,2.06,2.26,0.41,3.29,1.44c0.1,4.52,2.06,9.25,0.1,14.18c-17.64,2.94-14.3,2.75-15.93,2.57
		c-3.29-0.37-4.42,0-8.53,2.36c2.67,0.41,5.14,0.92,7.3-0.1c4.24-2,12.02-1.46,14.39-0.51c-0.93,0.82-0.41,2.06-1.03,3.19
		c-9.28,6.18-7.7,5.09,1.44,2.26c4.13,2.19,8.83-1.38,9.76-6.06c3.91-3.19,7.5-6.27,8.63-11.31c-1.21-4.84-1.31-6.48-3.8-8.63
		c-1.77-1.53-11.87-11.94-10.79-13.88c9.02-1.08,7.49,1.16,11.72,0.1c4.14-1.03,0.5-1.95,14.9,11.92c1.42,1.37,1.94-5.2-3.6-10.18
		c-1.24-1.12-2.47-2.26-3.7-3.39c1.03-1.34,2.26-1.75,3.7-1.85c2.57,2.47,5.62,4.55,7.91,7.5c4.39,5.64,10.05,2.79,2.88-5.65
		c-2.99-3.52-3.82-2.76,4.32-3.19c2.98,2.98,5.34,6.17,9.87,5.04c1.34-4.02-9.46-8.03,5.76-5.86c1.35,0-0.4-0.99,0-2.06
		c1.34-0.41,2.78-0.82,3.49-1.03c2.36-0.31,3.7,1.34,4.93,0.51c0.93-0.93,0-1.54,0.31-2.47c9.87-5.55,9.11-12.84,26.42-15.73
		c2.29,0.64,1.88,1.29,8.94,9.35c0.62,4.36-3.86,18.46-5.65,20.66c-13.85,16.96-19.33,26.65-38.13,33.92c-3.36,1.3-4.69,4-5.96,6.89
		c-9.63,21.9-6.67,14.22-28.06,28.99c-0.92,0.63-0.41,1.95-1.34,2.67c-2.78,0.82-5.55,1.64-8.63,2.57
		c-1.23-4.93-4.32-8.43-7.09-12.33c0.34-4.92-4.58-10-8.74-12.75c-10.17-6.73-8.07-9.34-9.76-8.33c-0.31,0.31-0.63,0.71-0.31,1.95
		c2.21,8.54,7.86,2.65,22.72,31.66c2.06,0.72,3.8,2.36,6.37,1.95c2.98-1.23,6.37-2.36,8.63-5.45c0.19-0.33-1.09,0.4,14.6-7.91
		c9.64-5.11,9.48-9.78,10.18-10.48c7.83-12.84,3.66-13.86,7.4-16.24C871.56,494.31,906.21,452.85,899.04,440.3z M791.42,349.85
		c0.08-0.15,0.29-1,0.62-1.75c3.29,1.29,9.96,6.44,11.71,11.18c0,3.67-6.21,21.66-9.87,21.66c-0.19-1.51,2.88-4.65,2.36-7.21
		C792.27,361.84,799.34,359.68,791.42,349.85z M792.84,381.96c0.3-0.07,0.07-0.94,0.93-0.86c-0.09,1.25-1.02,0.32-1.02,1.44
		C792.27,382.2,792.37,382.06,792.84,381.96z M815.12,331.55c-0.29,0-0.74-0.17-1.6-0.51C815.96,329.71,816.12,331.55,815.12,331.55
		z M796.56,339.47c15.35-0.49-0.81-6.25,21.89,5.14c2.57-1.88,0.65-4.75-1.95-6.58c-3.82-2.67-4.35-1.03,0.13-4.91
		c1.02-0.89,4.92,5.74,10.53,4.83c0.74-0.19,1.64-1.73,0.54-3.82c-1.94-3.72-8.87-5.53-3.08-6.27c4.35,2.36,3.87,1.75,8.53,1.75
		c-0.24-1.79-2.92-3.15-1.75-4.32c4.25-3.72,4.58,2.79,8.94-1.34c-0.59-0.59-4.53-0.94-1.78-2.85c4.75-3.29,1.69-0.37,7.43-1.03
		c1.57-0.18-1.53-2.66-1.85-3.62c1.44-2.06,3.91-3.39,5.86-5.65c2.94-8.82,8.29-12.02,14.29-14.08c3.71-1.28,5.33-0.08,9.25,0.82
		c-1.27,5.8,0.65,7.42-2.26,12.33c-2.59,4.37-0.56,1.86-2.47,17.58c-1.18,9.72-2.7,4.24-19.02,33.71
		c-10.13,5.88,1.54,20.46-12.23,34.23c-3,3-17.32,21.88-17.42,21.86c-2.52-0.45-7.69-6.06-8.99-7.68
		c-14.53-18.02-21.61-13.91-26.42-18.91c0.87-2.47,5.63-1.83,8.63-3.69c6.59-4.07,18.57-23.86,13.67-30.33
		c-2.86-3.78-12.15-13.04-16.86-10.69C785.27,343.98,791.78,339.62,796.56,339.47z M801.75,474.96c-0.95-8.68-2.73-9.06,3.37-3.55
		c10.07,9.11-6.61,13.71-6.61,21c-2.31,2.31-2.82,0.93-3.6,0.41C794.37,490.39,803.07,487.1,801.75,474.96z"/>
	<path d="M783.51,496.42c-0.2,0.15-0.12,0.07,0,0.1V496.42z"/>
	<path d="M512.56,533.84c-4.63-0.19-8.63,1.64-13.26,2.78c3.8,1.34,7.29,1.7,10.9,1.44c17.65-1.28,23.12-0.04,30.22-2.88
		c5.02-5.64,2.03-6.37,23.85-11c-2.86-2.02-13.83,1.23-17.06,2.26C534.19,530.59,546.8,535.23,512.56,533.84z"/>
	<path d="M341.72,115.59c-0.25-2.52-12.93-3.5-18.5-1.23c-15.46-8.38-36.05-12.29-36.7-8.12c1.78,0.51,7.02-1.19,18.4,3.7
		c28.63,12.31,18.85,7.86,21.38,5.96c1.64-0.51,3.49-0.92,5.34-0.51C334.94,116.11,338.33,115.49,341.72,115.59z"/>
	<path d="M342.03,449.14c-4.29-3.1-13.94-3.32-18.81-1.23c-18.34-9.53-36.35-11.57-36.7-8.43c1.43,1.27,5-0.23,11.62,1.85
		c25.07,7.87,27.75,14.08,27.75,8.43c2.06-0.93,4.11-1.13,6.27-0.72C335.35,449.65,338.54,449.04,342.03,449.14z"/>
	<path d="M386.85,462.81c4.31,0.74,5.72-2.2,13.36-2.47c3.04-0.1,9.41-1.37,12.23-3.19c3.54-2.28-0.41-4.41-0.93-6.58
		c0.31-0.41,0.62-1.03,1.13-1.95c-2.16-0.51-3.7-0.62-4.42,1.13c-0.38,3.62,4.93,6.06-4.42,6.06
		C384.14,455.82,383.9,462.31,386.85,462.81z"/>
	<path d="M459.31,150.95c9.8-0.85,10.41-0.85,12.23-0.21c3.59,1.27,46.83,1.54,51.7-0.41C464.4,150.34,466.27,148.23,459.31,150.95z
		"/>
	<path d="M392.09,169.04c3.56,0.47,7.68,4.01,7.2,1.13c-4.71-5.98-18.87-13.49-19.74-6.99c-0.16,2.58,2.06,3.21,3.8,3.91
		C383.8,167.22,389.88,168.75,392.09,169.04z"/>
	<path d="M397.84,504.75c0.51,0.41,1.13,0.1,1.54-0.31c-2.63-6.5-19.63-14.43-19.63-7.61C379.75,502.47,393.76,500.92,397.84,504.75
		z"/>
	<path d="M244.79,514c0.7-2.06,1.95-3.7,3.29-5.34c-0.82-0.72-1.65-0.52-2.47-0.21c-6.56,2.49,0.27,5.06-18.81,8.53
		C223.06,523.63,242.84,519.73,244.79,514z"/>
	<path d="M244.9,180.56c0.65-2.05,2.06-3.6,3.19-5.34c-1.03-0.72-1.85-0.51-2.47-0.21c-6.13,2.56-0.07,5.08-18.5,8.53
		C221.53,189.63,242.76,187.29,244.9,180.56z"/>
	<path d="M324.97,526.23c3.79-1.18,12.33-2.3,12.33-6.68c-7.2-1.85-7.34-1.8-11.2,2.67c-1.62,1.87-4.93,1.03-6.27,4.11
		C321.88,527.67,323.43,526.95,324.97,526.23z"/>
	<path d="M320.55,193.3c2.86,1.64,6.09-1.75,8.63-1.75c3.3,0,7-1.92,8.33-5.24c-2.31-0.77-7.04-3.16-9.76,0.72
		C324.65,191.43,318.68,190.02,320.55,193.3z"/>
	<path d="M467.12,490.26c-30.51,0,0.19,0.95,1.03,1.34c4.09,1.87,7.04,1.7,37.52,3.8c4.86,0.69,8.73,1.28,15.52,0.31
		c-6.12-0.19-47.85-3.49-53.24-5.34C467.74,490.26,467.43,490.26,467.12,490.26z"/>
	<path d="M306.47,200.8c5.04,0.72,17.37,0.41,21.69-0.31c4.32,1.03,9.97,0.31,14.39-1.85c-4.93-0.41-9.46,0.41-13.88-0.31
		C324.7,201.11,318,196.43,306.47,200.8z"/>
	<path d="M327.95,533.84c4.42,1.03,9.35,0.41,14.7-1.85c-4.93-0.51-9.46,0.51-13.88-0.31c-4.22,2.82-11.05-1.78-22,2.47
		C310.89,534.87,323.73,534.66,327.95,533.84z"/>
	<path d="M303.9,515.75c-6.98,0.82-6.84,3.92-9.66,4.63c-2.71,0.68,2.02,1.43,3.91,1.75c5.86-1.54,10.79-4.32,16.03-6.37
		C313.26,514.83,311.32,514.87,303.9,515.75z"/>
	<path d="M303.9,182.3c-6.98,0.82-6.84,3.92-9.66,4.63c-2.64,0.66,1.64,1.37,3.91,1.75c5.86-1.54,10.79-4.32,16.03-6.37
		C313.38,181.34,310.57,181.51,303.9,182.3z"/>
	<path d="M658.93,488.92c-10.79-1.54-20.87-1.03-30.73-2.67C624.64,492.17,652.82,489.43,658.93,488.92z"/>
	<path d="M660.67,131.63c-0.1,0-30.57,0.05-31.45,0.82C629.22,137.91,655.31,132.74,660.67,131.63z"/>
	<path d="M432.69,152.39c-5.86,0.27-20.29,0.04-24.26,0.41c-21.57,2.03-24.61-2.42-26.52-0.82c0.83,4.99,27.59,1.39,33.1,1.34
		C431.92,153.14,431.82,153.51,432.69,152.39z"/>
	<path d="M378.62,116.21c-6.27-0.62-6.68-0.62-8.53,0.72c6.31,0.9,7.34,0.94,8.53,1.95c-0.51,2.16-0.82,4.21-1.75,5.96
		c-2.06,1.13-3.91-0.82-6.06-0.1c1.7,0.75,1.34,0.92,4.63,1.75c0.62,0.21,0.82,1.13,1.64,0.82c7.55-18.88,4.25-12.84,1.23-13.88
		c-1.44-0.5-3.08-0.51-5.04,0.21C374.07,113.86,381.57,114.74,378.62,116.21z"/>
	<path d="M453.35,525.2c0.92-0.69-1.44,1.69,12.75-22c3.28-5.48,4.85-6.36,3.8-7.71C468.58,495.69,452.81,521.72,453.35,525.2z"/>
	<path d="M458.39,185.8c0.1-0.06,14.57-30.01,14.6-30.12C475.26,146.57,459.64,177.53,458.39,185.8z"/>
	<path d="M375.75,148.07c3.46-1.15,6.22-0.37,10.9-1.03c5.86-0.83,11.61-2.16,17.78-1.95c-0.1,0-25.48-0.41-28.68,1.13
		C372.99,147.55,374.88,148.42,375.75,148.07z"/>
	<path d="M407.61,486.35c-19.14,2.01-23.75-2.38-25.7-0.93C381.91,492.27,432.23,483.76,407.61,486.35z"/>
	<path d="M375.75,481.62c2.59-0.97,2.53-0.35,12.13-1.34c4.11-0.42,8.02-1.75,12.13-1.75C365.74,478.54,375.22,481.82,375.75,481.62
		z"/>
	<path d="M402.88,182.51c-8.23-3.04-20.95-8.93-20.15-4.52c5.53-0.34,7.22,2.44,20.04,5.96
		C404.36,184.38,404.24,182.9,402.88,182.51z"/>
	<path d="M403.19,516.06c-15.62-5.86-16.34-6.66-19.74-6.06c-1.41,0.47-0.56,1.43,0.21,1.44c4.2,0.07,6.4,1.66,14.9,4.73
		C403.02,517.76,405.73,516.69,403.19,516.06z"/>
	<path d="M407.1,443.59c-1.02-2.72-0.99-1.89-1.44-2.57c-2.98-0.41-3.2-0.44-4.52,0.41c-2.87,1.84-5.02,4.32-1.75,5.14
		C401.55,445.34,404.53,445.44,407.1,443.59z"/>
	<path d="M263.09,105.42c-0.99-3.46-4.63-6.56-8.33-6.06c10.35,9.88,5.06,2.57,2.98,12.95
		C259.26,114.95,261.02,108.24,263.09,105.42z"/>
	<path d="M385.1,445.13c-7.34,4.19-2.36,0.01-8.33,13.27c-2.16,0.82-3.8-0.72-5.76-0.31c1.64,1.64,4.32,1.03,5.86,2.98
		c3.64-9.37,4.28-8.64,5.55-13.26C384.44,446.7,386.57,446.05,385.1,445.13z"/>
	<path d="M182.2,137.49c-17.52-4.94-17.15,0.41-15.21,0.41c5.24,0,10.48,0.1,15.73,0.1C182.5,137.9,182.4,137.49,182.2,137.49z"/>
	<path d="M263.09,438.66c-0.72-2.57-2.57-3.91-4.42-5.45c-7.93-1.59-0.53,0.92,2.36,5.55c-1.03,2.47-2.57,4.52-3.08,6.99
		C259.26,448.37,261.21,441.66,263.09,438.66z"/>
	<path d="M182.2,470.93c-17.52-4.94-17.15,0.41-15.21,0.41C181.58,471.34,183.89,471.78,182.2,470.93z"/>
	<path d="M417.89,448.11c15.18,0.35,13.6,0.46,15.11-0.62C429.83,445.7,422.02,444.8,417.89,448.11z"/>
	<path d="M490.66,509.17c-0.31,0.31-0.62,0.62-0.1,1.23c3.91-4.52,9.05-7.3,14.08-10.9C502.01,496.58,498.88,500.95,490.66,509.17z"
		/>
	<path d="M507.52,154.96c-1.34-0.67-2.3-1.38-5.55,2.26C483.53,177.84,507.49,155.06,507.52,154.96z"/>
	<path d="M183.43,190.11c-4.61,1.54-17.83-0.22-13.16,3.29c3.39,0.82,6.69-0.34,9.97-0.93C181.27,192.29,182.5,192.07,183.43,190.11
		z"/>
	<path d="M183.33,523.56c-3.83,1.34-17.64-0.65-12.85,3.19c3.71,0.99,7.79-0.58,11.41-1.44C182.4,525.1,182.91,524.79,183.33,523.56
		z"/>
	<path d="M356.42,442.87c-4.97,0-3.97-0.66-11.31,0.41c-1.26,0.18-1.15,1.75,0.21,1.75C359.44,443.46,355.77,444.17,356.42,442.87z"
		/>
	<path d="M356.32,109.63c-13.09-2.05-19.58,3.58-0.31,0.62C356.32,110.25,356.42,109.94,356.32,109.63z"/>
	<path d="M562,111.28c6.2,4.43-3.91-6.27-9.25-11.82C550.91,97.55,553.59,104.27,562,111.28z"/>
	<path d="M772.71,383.66c7.69-5.24,9.54-2.98,10.69-5.86c-1.82-1.81-2.7,0.73-4.52,1.34c-2.32,0.78-2.3-1.78-6.99,4.32
		C772.2,383.87,772.4,383.77,772.71,383.66z"/>
	<path d="M446.26,490.77c-6.99-0.51-14.08-0.51-21.07,0C432.28,490.77,439.27,490.77,446.26,490.77z"/>
	<path d="M346.86,132.96c0.62-0.62-0.91-1.72-2.06-1.34c-14.45,5.78-11.17,4.69,1.75,1.64
		C346.66,133.27,346.76,133.07,346.86,132.96z"/>
	<path d="M346.86,466.41c0.61-0.61-0.81-1.88-2.47-1.23c-13.25,5.15-11.62,4.78,2.16,1.54
		C346.66,466.72,346.76,466.51,346.86,466.41z"/>
	<path d="M561.69,458.7c-0.3-1.22,0.81,0.95-7.2-10.69c-0.58-0.85-1.42-0.45-1.03,0.31C555.03,451.32,558.63,457.17,561.69,458.7z"
		/>
	<path d="M370.3,450.37c2.85,0.5,5.79,0.91,8.63,1.42c0.1-0.5,0.2-1.12-0.51-1.83C376.3,449.32,371.28,448.41,370.3,450.37z"/>
	<path d="M387.87,184.05c-3.31-1.79-2.1-0.14-11-3.7C373.23,182.9,382.96,183.71,387.87,184.05z"/>
	<path d="M377.7,516.26c9.24,1.37,9.15,1.65,9.15,0.62c-4.31-1.15-1.9,0.1-10.07-3.08C375.67,514.89,376.42,515.94,377.7,516.26z"/>
	<path d="M550.59,432.49c1.51-1.27,1.54-1.23,1.75-2.67c-2.78,1.85-5.76,3.08-7.71,5.76C545.7,437.01,545.36,436.86,550.59,432.49z"
		/>
	<path d="M438.14,151.77c-6.78,0.09-10.49,1.4,11.41,0.21C445.74,151.77,441.94,151.72,438.14,151.77z"/>
	<path d="M264.32,489.74c-2.47-1.54-5.55-1.95-11.92-1.54C256.41,487.99,260.01,490.26,264.32,489.74z"/>
	<path d="M630.76,440.61c0.21,0.31,0.41,0.51,0.82,1.03C642.45,435.6,632.09,435.75,630.76,440.61z"/>
	<path d="M252.09,154.65c0.49,0,11.44,1.78,11.92,1.85C260.21,154.34,256.2,154.45,252.09,154.65z"/>
	<path d="M268.54,171.51c-3.39-1.75-4.42-1.44-6.37,1.13C264.63,173.67,266.38,171.72,268.54,171.51z"/>
	<path d="M268.74,504.54c-1.64-1.09-4.51-1.35-6.27,0.41C260.93,507.02,265.38,506.17,268.74,504.54z"/>
	<path d="M372.56,478.95c-2.98-1.03-5.04-1.03-8.74-0.1C366.26,478.94,372.9,481.34,372.56,478.95z"/>
	<path d="M367.93,146.12c8.17,1.76,4.8-3.27-4.73-0.82C365.26,145.61,366.59,145.83,367.93,146.12z"/>
	<path d="M246.23,124.23c1.85-0.72,3.8-1.03,4.52-3.29C247.56,121.22,243.63,122.37,246.23,124.23z"/>
	<path d="M599.41,493.03c1.54,0.62,1.54,0.62,5.76-0.93C602.39,490.36,601.26,490.56,599.41,493.03z"/>
	<path d="M591.7,115.59c2.47,2.57,3.29,2.78,5.65,1.85C595.46,116.02,591.7,113.21,591.7,115.59z"/>
	<path d="M250.86,454.07c-2.26,0.41-4.42,0.21-5.55,2.36C245.62,458.9,250.06,456.8,250.86,454.07z"/>
	<path d="M591.81,466.61c1.04,2.96,3.27,3.57,5.65,2.78C593.42,466.43,592.47,465.62,591.81,466.61z"/>
	<path d="M670.54,131.63c-2.26-1.75-4.21-0.62-7.09,0C665.61,132.86,665.61,132.86,670.54,131.63z"/>
	<path d="M299.99,486.86c-1.43,0.54-2.67,1.34-3.29,2.88C299.54,491.63,303.85,485.4,299.99,486.86z"/>
	<path d="M640.01,463.84c-3.77-0.29-15.37,4.55-1.44,1.23C639.09,464.87,639.91,464.76,640.01,463.84z"/>
	<path d="M662.52,489.74c2.98,0.82,4.52,0.62,5.96-0.72C664.37,488.1,663.96,488.2,662.52,489.74z"/>
	<path d="M652.66,427.76c-3.1,0.83-7.23,1.62-4.42,3.49C651.53,429.92,651.63,429.92,652.66,427.76z"/>
	<path d="M601.57,141.19c2.16,0.62,3.6-1.44,5.55-1.75C604.56,137.13,601.57,139.29,601.57,141.19z"/>
	<path d="M301.94,153.52c-3.29,0.1-3.8,0.51-5.04,3.19C299.07,156.61,300.5,155.58,301.94,153.52z"/>
	<path d="M422.51,489.64c-3.29-0.1-6.48-0.31-9.66-0.41C416.04,490.15,419.22,490.36,422.51,489.64z"/>
	<path d="M249.62,176.03c1.95,0.82,3.19-0.41,4.93-1.85C252.53,173.65,249.36,173.95,249.62,176.03z"/>
	<path d="M369.78,510.61c-1.13-0.22-2.26-0.93-3.6,0.41c1.64,1.03,2.88,2.26,4.83,1.13C370.3,510.71,370.3,510.71,369.78,510.61z"/>
	<path d="M288.38,476.17c1.85,0,2.67-1.75,4.11-2.57C289.65,472.19,288.21,473.79,288.38,476.17z"/>
	<path d="M642.99,432.39c-2.28,0-5.59,0.99-3.7,2.88C639.59,435.56,641.34,435.24,642.99,432.39z"/>
	<path d="M366.6,177.78c1.44,0.82,2.67,1.95,4.73,0.72C370.21,176.72,366.39,175.68,366.6,177.78z"/>
	<path d="M249.52,509.07c1.85,1.03,2.57,0.72,4.52-1.54C251.06,507.32,251.06,507.32,249.52,509.07z"/>
	<path d="M288.07,142.73c2.16,0.21,2.98-1.75,4.63-2.47C290.68,138.05,288.07,141.03,288.07,142.73z"/>
	<path d="M633.43,110.76c2.36,0.21,4.52-0.51,6.58-2.36C637.14,108.4,636.11,108.71,633.43,110.76z"/>
	<path d="M362.9,196.18c-1.75-0.72-3.29-0.31-4.93,0.21C359.3,198.03,361.05,198.03,362.9,196.18z"/>
	<path d="M363.62,529.93c-3.39-0.82-3.39-0.82-6.06,0.51C359.71,531.27,361.25,531.06,363.62,529.93z"/>
	<path d="M343.68,182.71c0.26,2.07,2.29,0.95,4.52,0.21C346.35,181.79,345.01,181.17,343.68,182.71z"/>
	<path d="M343.68,516.26c0.28,1.96,1.97,1.05,4.42,0C346.25,515.23,344.91,514.72,343.68,516.26z"/>
	<path d="M282.11,147.35c1.85,0.41,1.85,0.41,3.7-2.06C283.54,145.09,283.54,145.09,282.11,147.35z"/>
	<path d="M285.81,478.64c-2.16,0.1-2.16,0.1-4.32,2.36C284.06,481.31,285.09,480.28,285.81,478.64z"/>
	<path d="M345.11,157.43c0,6.78-0.09,5.67,0.21,5.96C345.32,156.77,345.41,157.43,345.11,157.43z"/>
	<path d="M185.9,473.5c-0.35,0-1.78,2.26,4.63,1.13C188.98,474.01,187.54,473.3,185.9,473.5z"/>
	<path d="M345.22,490.56c0,6.85-0.09,6.17,0.21,6.17C345.42,489.85,345.51,490.56,345.22,490.56z"/>
	<path d="M185.59,140.98c1.54,0.82,3.19,0.62,5.04-0.1C187.43,140.24,185.13,139.15,185.59,140.98z"/>
	<path d="M592.53,494.26c1.23,0.31,2.26-0.31,3.39-0.93C593.84,491.95,591.87,491.85,592.53,494.26z"/>
	<path d="M597.77,141.7c-1.75-1.44-1.75-1.44-3.7,0.51C596.02,142.42,596.02,142.42,597.77,141.7z"/>
	<path d="M375.64,446.67c-0.62,0.1-1.34,0-1.85,0.51C381.2,448.75,379.31,446.31,375.64,446.67z"/>
	<path d="M770.35,385.51c-1.64-0.62-2.67-0.21-3.6,1.23C768.29,387.06,769.42,386.95,770.35,385.51z"/>
	<path d="M351.69,530.65c-1.85-0.72-3.08-0.62-4.52,0C348.81,531.78,348.81,531.78,351.69,530.65z"/>
	<path d="M374,129.98c-1.44-1.44-1.44-1.44-3.8-0.72C371.63,129.57,372.76,129.78,374,129.98z"/>
	<path d="M374.31,462.91c-1.23-0.72-2.57-1.03-4.63-0.41C371.74,462.91,372.97,463.32,374.31,462.91z"/>
	<path d="M192.47,521.19c-1.44,0-2.67,0.21-3.7,1.23C191.34,522.53,191.34,522.53,192.47,521.19z"/>
	<path d="M545.35,148.53c-4.27,0-4.23,0.33,0,0.33C549.62,148.86,549.57,148.53,545.35,148.53z"/>
	<path d="M192.47,187.75c-1.44-0.1-2.67,0.1-4.01,1.13C191.04,189.5,191.14,189.5,192.47,187.75z"/>
	<path d="M459.31,150.85c-1.85,0.1-3.91-0.1-5.76,0.51C455.51,151.47,457.46,151.98,459.31,150.85z"/>
	<path d="M347.38,197.62c2.06,0.82,2.06,0.82,3.8-0.41C348.92,196.59,348.92,196.59,347.38,197.62z"/>
	<path d="M372.25,142.63c-1.75-0.41-3.49-0.72-5.24-0.31C368.76,143.86,370.5,143.24,372.25,142.63z"/>
	<path d="M253.12,117.55c1.34,0,1.34,0,2.26-1.23C253.94,116.42,253.94,116.42,253.12,117.55z"/>
	<path d="M252.61,450.99c1.64,0.51,2.36-0.1,2.88-1.34C254.25,449.35,253.53,449.86,252.61,450.99z"/>
	<path d="M341.72,516.98c-1.57-1.04-3.31,0.33-1.64,1.44C340.9,518.11,341.72,518.01,341.72,516.98z"/>
	<path d="M764.7,490.77c1.54-0.1,1.54-0.1,2.67-1.03C765.62,489.54,765.62,489.54,764.7,490.77z"/>
	<path d="M372.25,476.07c-1.75-0.41-3.49-0.72-5.24-0.31C368.76,477.3,370.5,476.69,372.25,476.07z"/>
	<path d="M341.83,183.54c-1.13-0.41-2.06-0.72-2.57,0.72c0.31,0.21,0.51,0.41,0.82,0.72C341,184.77,341.52,184.36,341.83,183.54z"/>
	<path d="M256.72,173.57c0.93,0.21,1.54-0.21,2.36-1.13C256.72,172.13,256.72,172.13,256.72,173.57z"/>
	<path d="M535.48,154.96c0.31,0.93,0.51,1.85,0.72,2.78C537.21,156.32,537.07,153.57,535.48,154.96z"/>
	<path d="M384.17,112.61c0.41-0.41,0.93-0.72,0.31-1.34C380.93,112.57,381.05,114.56,384.17,112.61z"/>
	<path d="M256.1,506.7c1.44,0.62,2.26,0.31,2.88-0.72C258.05,505.26,257.23,505.37,256.1,506.7z"/>
	<path d="M373.28,137.59c-2.06-0.41-3.29-0.62-4.63,0C369.99,138,371.12,138.1,373.28,137.59z"/>
	<path d="M368.14,471.14c1.85,0.1,3.08,0.62,4.52-0.1C371.22,470.52,370.09,470.52,368.14,471.14z"/>
	<path d="M758.73,490.87c0.72,0,1.34,0.21,1.95-0.31C759.86,489.02,759.86,489.02,758.73,490.87z"/>
	<path d="M244.59,154.34c-0.21-0.72-0.82-0.51-1.34-0.41C243.56,154.76,243.97,154.96,244.59,154.34z"/>
	<path d="M318.7,514.72c0.72,0.21,1.34,0.21,1.95-0.72C319.42,513.38,318.9,513.69,318.7,514.72z"/>
	<path d="M244.49,487.27c-0.31,0-0.72,0-1.44-0.1C243.97,488.65,244.88,488.07,244.49,487.27z"/>
	<path d="M404.11,480.39c0.62,0.31,1.34,0.21,2.78,0C405.45,480.39,404.73,480.39,404.11,480.39z"/>
	<path d="M197,185.28c1.34-0.41,1.34-0.41,1.44-1.34C197.61,183.95,197.1,184.36,197,185.28z"/>
	<path d="M760.17,124.84c0.82,0.31,1.54,0.51,1.85-0.31C761.62,123.31,760.68,123.82,760.17,124.84z"/>
	<path d="M197.1,518.73c1.23-0.41,1.23-0.41,1.44-1.44C197.61,517.39,197.1,517.8,197.1,518.73z"/>
	<path d="M318.6,181.17c0.72,0.41,1.34,0.31,2.47-0.72C319.62,180.14,319.01,180.14,318.6,181.17z"/>
	<path d="M532.81,501.25c-0.62,0.82-0.21,1.75-0.1,2.67C533.63,502.28,533.63,502.28,532.81,501.25z"/>
	<path d="M613.29,470.21c-0.82-0.72-1.54-0.72-2.36,0C611.75,470.83,612.57,470.93,613.29,470.21z"/>
	<path d="M235.65,486.86c-0.41,0-0.82,0.21-1.44,0.41C236.5,488.42,238.25,486.86,235.65,486.86z"/>
	<path d="M284.26,504.34c0.72,0.62,1.44,0.62,2.26,0C285.7,503.72,284.98,503.72,284.26,504.34z"/>
	<path d="M370.5,505.57c0.1,0.93,0.21,1.85,0.31,2.78C371.22,507.32,371.22,506.39,370.5,505.57z"/>
	<path d="M613.91,117.13c-0.82-0.62-1.54-0.72-2.47,0C612.26,117.75,612.98,117.75,613.91,117.13z"/>
	<path d="M678.56,411.73c-1.03-0.31-1.75,0.1-2.06,1.34C677.74,413.27,678.46,412.96,678.56,411.73z"/>
	<path d="M690.59,409.36c-1.23-0.1-1.23-0.1-1.85,0.51C689.45,409.77,690.17,410.08,690.59,409.36z"/>
	<path d="M286.63,170.48c-0.93,0.21-1.75-0.31-2.57,0.72C284.98,171.2,285.7,171.72,286.63,170.48z"/>
	<path d="M370.5,172.13c0.1,0.93,0.21,1.75,0.31,2.78C371.22,173.87,371.22,172.95,370.5,172.13z"/>
	<path d="M513.79,428.79c-1.56,0.16-2.84,1.37-2.36,1.85C512.56,430.43,513.38,429.92,513.79,428.79z"/>
	<path d="M766.55,124.43c0.72,0.1,1.54,0.21,2.16-0.51C767.57,122.99,767.57,122.99,766.55,124.43z"/>
	<path d="M234.31,153.93c1.03,0.51,1.75,0.62,2.67-0.21C236.06,153.52,235.34,153.21,234.31,153.93z"/>
	<path d="M175.82,202.96c0.11,0.61,1.21,0.86,1.04,1.53C178.96,204.49,177.69,202.96,175.82,202.96z"/>
	<path d="M208.2,176.75c0.1-0.31,0.72-0.62,0-0.82C207.66,175.93,207.69,177.26,208.2,176.75z"/>
	<path d="M450.16,491.39c-0.51,0-0.82-0.1-1.23-0.1C449.24,491.69,449.65,491.59,450.16,491.39z"/>
	<path d="M353.13,516.26c-0.82-0.51-1.44-0.72-2.26,0.41C351.8,516.67,352.41,517.08,353.13,516.26z"/>
	<path d="M541.23,495.81c-0.31,0-0.62,0-0.93,0C540.45,495.85,541.23,496.03,541.23,495.81z"/>
	<path d="M353.13,182.82c-0.82-0.51-1.54-0.72-2.06,0.1C351.8,183.54,352.41,183.54,353.13,182.82z"/>
	<path d="M203.16,180.76l-0.1-0.1C203.09,180.81,203.02,180.81,203.16,180.76z"/>
	<path d="M202.24,182.3c0.58-0.47,0.95-0.87,0.83-1.51C202.51,181,202.15,181.33,202.24,182.3z"/>
	<path d="M199.16,477.92c-0.41-0.51-0.93-0.51-1.54-0.1C198.13,478.23,198.64,478.43,199.16,477.92z"/>
	<path d="M203.06,514.1c0.01,0.05,0,0.09,0.01,0.13C203.19,514.2,203.19,514.23,203.06,514.1z"/>
	<path d="M202.24,515.75c0.58-0.48,0.95-0.87,0.83-1.51C202.51,514.44,202.15,514.77,202.24,515.75z"/>
	<path d="M207.79,509.68c0,1.14,0.52,0.2,0.72,0C208.51,509.12,207.79,509.28,207.79,509.68z"/>
	<path d="M199.16,144.48c-0.41-0.51-0.93-0.51-1.44-0.1C198.13,144.89,198.64,144.99,199.16,144.48z"/>
	<path d="M787.41,130.7c0.72-0.1,1.23-0.41,1.23-1.23C788.03,129.57,787.41,129.57,787.41,130.7z"/>
	<path d="M330.31,138c-0.2,0.1-0.59,0.82,0.41,0.82C331.53,138.42,330.98,137.33,330.31,138z"/>
	<path d="M616.47,473.08c0.62-0.02,1.24-0.09,1.95-0.09C617.56,472.12,616.97,472.51,616.47,473.08z"/>
	<path d="M633.33,110.66c-0.51,0.21-1.03,0.21-1.95,0.31C632.41,111.38,632.92,111.38,633.33,110.66z"/>
	<path d="M329.9,471.96c1.35,0.9,1.47-0.62,1.03-0.62C330.52,471.14,330.21,471.45,329.9,471.96z"/>
	<path d="M681.54,130.81c0.21,0,0.41,0.1,0.62,0.21C682.79,131.01,682.16,130.18,681.54,130.81z"/>
	<path d="M371.84,150.85l-0.1-0.31C371.74,150.91,371.7,150.85,371.84,150.85z"/>
	<path d="M183.94,138.51c-0.31-0.72-0.82-0.51-1.34-0.41C182.91,138.72,183.33,138.82,183.94,138.51z"/>
	<path d="M696.55,128.96c-0.54,0.14-0.52,0.08,0,0.21V128.96z"/>
	<path d="M708.68,127.31c-0.54,0.14-0.52,0.08,0,0.21V127.31z"/>
	<path d="M494.67,167.19c0.41-0.21,0.51-0.62,0.41-1.03C494.36,166.27,494.16,166.58,494.67,167.19z"/>
	<path d="M786.03,497.94c-0.36-0.04-0.72,0.06-0.99,0.33C785.99,499.21,786.32,497.85,786.03,497.94z"/>
	<path d="M545.45,496.53l-0.1,0.21C545.88,496.73,545.84,496.79,545.45,496.53z"/>
	<path d="M790.5,102.44l-0.41,0.1C790.6,102.67,790.5,102.7,790.5,102.44z"/>
	<path d="M449.86,532.09c-0.1,0.41-0.51,0.41-0.41,0.82C449.65,532.71,449.75,532.4,449.86,532.09z"/>
	<path d="M450.59,530.59c0.15-0.12,0.2-0.13,0.18-0.16c0.01,0.01,0.01,0.01,0.02,0.01c0.06-0.15,0.09-0.33,0.13-0.51
		c-0.19,0.34-0.24,0.39-0.21,0.44c-0.01-0.01-0.01-0.01-0.03-0.03C450.65,530.42,450.62,530.51,450.59,530.59z"/>
	<path d="M450.59,530.59c-0.52,0.42-0.53,1.06-0.63,1.6C450.13,531.66,450.38,531.12,450.59,530.59z"/>
	<path d="M604.14,470.01c-0.13,0.13-0.18,0.31,0.21,0.31C604.65,470.11,604.55,470.01,604.14,470.01z"/>
	<path d="M431.56,444.72c-0.1-0.1-0.28-0.44-0.51-0.21C430.53,444.69,431.27,445.01,431.56,444.72z"/>
	<path d="M450.91,529.93c0.23-0.41,0.46-0.84,0.69-1.23C451.1,528.99,451,529.48,450.91,529.93z"/>
	<path d="M183.94,471.96c-0.31-0.72-0.82-0.51-1.34-0.41C182.91,472.16,183.33,472.27,183.94,471.96z"/>
	<path d="M452.31,527.21c-0.5,0.42-0.52,1.05-0.61,1.59C451.88,528.27,452.08,527.73,452.31,527.21z"/>
	<path d="M514.86,427.85c-0.32,0-0.22-0.01-0.26,0.25C514.73,427.93,514.76,427.94,514.86,427.85z"/>
	<path d="M516.36,427.14c-0.47,0.09-1.02,0.29-1.5,0.71C515.41,427.82,516,427.68,516.36,427.14z"/>
	<path d="M452.57,526.61c-0.03,0.07-0.08,0.2-0.26,0.6C452.57,526.99,452.53,527.18,452.57,526.61z"/>
	<path d="M452.57,526.61c0.23-0.5,0.42-1.01,0.68-1.51C452.67,525.51,452.62,526.05,452.57,526.61z"/>
	<path d="M704.36,406.89c-0.54,0-0.76,0.27-0.21,0.41C704.48,407.31,704.54,407.07,704.36,406.89z"/>
	<path d="M693.57,489.74c0.21,0,0.41,0.1,0.62,0.1C693.98,489.74,693.77,489.74,693.57,489.74z"/>
	<path d="M680.82,489.84c-0.31-0.41-0.62-0.31-0.93-0.1C680.1,490.26,680.51,490.15,680.82,489.84z"/>
	<path d="M458.2,186.07c0.04-0.1,0.08-0.24,0.08-0.38C458.24,185.82,458.22,185.96,458.2,186.07z"/>
	<path d="M458.18,186.21c0,0.12,0,0.02,0.02-0.13C458.16,186.2,458.13,186.26,458.18,186.21z"/>
	<path d="M457.15,189.39c0.14-0.14,0.17-0.41-0.1-0.41C457.05,189.12,456.76,189.39,457.15,189.39z"/>
	<path d="M455.41,193.81l0.1-0.31C455.24,193.51,455.28,193.43,455.41,193.81z"/>
	<path d="M618.22,119.4c0.21-0.21,0.82-0.1,0.93-0.72C618.43,118.57,618.02,118.68,618.22,119.4z"/>
	<path d="M371.84,484.4v-0.31C371.72,484.46,371.7,484.4,371.84,484.4z"/>
	<path d="M616.47,120.12c0.03-0.21,0.17-0.21-0.1-0.1L616.47,120.12z"/>
	<path d="M616.54,119.94c0.48-0.2,1.03-0.46,1.58-0.65C617.54,119.39,616.8,119.23,616.54,119.94z"/>
	<path d="M229.68,541.55C229.99,541.24,229.68,541.34,229.68,541.55L229.68,541.55z"/>
	<path d="M203.32,514.06c0.08-0.03,0.15-0.06,0.15-0.06C203.42,514,203.37,514.03,203.32,514.06z"/>
	<path d="M203.16,514.21c0.05-0.05,0.1-0.1,0.15-0.14C203.13,514.14,203.16,514.05,203.16,514.21z"/>
	<path d="M766.13,124.74c0.29,0.14,0.49-0.59,0.1-0.21C766.13,124.54,766.13,124.74,766.13,124.74z"/>
	<path d="M616.06,120.32l0.31-0.21C616.24,119.98,616.31,119.95,616.06,120.32z"/>
	<path d="M314.07,515.85c0.07,0,0.15,0.05,0.23,0.07C314.26,515.9,314.22,515.85,314.07,515.85z"/>
	<path d="M564.16,112.41l0.21,0.1C564.23,112.25,564.29,112.27,564.16,112.41z"/>
	<path d="M678.97,411.42c-0.48,0.48-0.21,0.31-0.1,0.21C678.97,411.62,678.97,411.52,678.97,411.42z"/>
	<path d="M367.11,475.66c-0.1,0-0.21,0-0.31-0.1C366.91,475.66,367.01,475.76,367.11,475.66z"/>
	<path d="M516.56,426.94c0,0-0.1,0.1-0.1,0.31C516.46,427.14,516.56,427.04,516.56,426.94z"/>
	<path d="M616.26,473.13c0.15,0.08,0.08,0.08,0.22-0.05C615.89,473.08,616.19,473.71,616.26,473.13z"/>
	<path d="M513.89,428.89c0.34-0.17,0.67-0.42,0.71-0.79C514.41,428.37,514.16,428.62,513.89,428.89z"/>
	<path d="M562.51,459.43c0-0.53-0.31-0.81-0.82-0.73C561.69,459.8,562.62,459.43,562.51,459.43z"/>
	<path d="M562.53,459.54c0.04,0.52,0.33,0.79,0.9,0.7C563.25,459.86,563.05,459.58,562.53,459.54z"/>
	<path d="M564.26,461.06c-0.26-0.17-0.52-0.36-0.78-0.6C563.55,460.84,563.83,461.06,564.26,461.06z"/>
	<path d="M563.33,460.34c0.05,0.05,0.09,0.08,0.14,0.12C563.4,460.21,563.49,460.19,563.33,460.34z"/>
	<path d="M564.26,461.17l0.1,0.21C564.25,461.03,564.26,460.99,564.26,461.17z"/>
	<path d="M367.11,142.22c-0.1,0-0.21,0-0.31-0.1C366.91,142.22,367.01,142.32,367.11,142.22z"/>
	<path d="M532.5,504.03c0.26-0.13,0.24-0.07,0.1-0.21L532.5,504.03z"/>
	<path d="M535.99,157.74c0.26,0,0.24,0.03,0.1-0.1L535.99,157.74z"/>
	<path d="M203.32,180.62c-0.05,0.02-0.11,0.04-0.15,0.04C203.16,180.82,203.13,180.77,203.32,180.62z"/>
	<path d="M203.32,180.62c0.08-0.03,0.15-0.06,0.15-0.06C203.42,180.56,203.37,180.59,203.32,180.62z"/>
	<path d="M314.3,182.48c-0.05-0.03-0.09-0.07-0.23-0.07C314.14,182.41,314.23,182.46,314.3,182.48z"/>
	<path d="M229.68,208.1C229.89,207.79,229.68,207.9,229.68,208.1L229.68,208.1z"/>
	<path d="M785.05,377.7c-0.1,0-0.1,0.1-0.1,0.21C785.42,377.43,785.15,377.6,785.05,377.7z"/>
	<path d="M176.64,537.95l0.1,0.1C176.83,537.9,176.73,537.95,176.64,537.95z"/>
	<path d="M175.96,536.44c-0.67-0.17,0.95,0.83,0.81,1.5c0.03-0.01,0.06-0.01,0.09-0.01C178.82,537.91,177.92,536.93,175.96,536.44z"
		/>
	<path d="M79.87,166.43c-0.99,0.81-0.86,0.64-1.5,1.17c-0.48,0-2.04-0.41-2.88-1.13c-0.72-0.72,1.13-2.36-0.93-2.67
		c-12.54,12.54-6.21,10.42-0.93,12.64c6.18,3.09,3.75,4.37,6.09,3.31c1.41-0.64,5.17-4.08,3.37-4.85c-1.27,0.25-2.07,1.76-3.54,2.01
		c-1.08,0.19-2.44-0.89-2.11-2.23c4.73-3.16,5.64-1.84,6.48-2.99c-1.02-1.54,0.86-1.07-5.04-0.31c-1.72,0.22-3.04,1.84-4.41,2.36
		c-1.23-0.72-2.88-0.41-4.01-1.75c6-7.66,3.25,0.08,12.75-3.08c1.04,0.21,1.6,0.79,2.57,0.31c1.25-2.64,0.86-7.74-2.47-8.02
		C79.65,162.15,81.57,165.21,79.87,166.43z"/>
	<path d="M57.41,130.39c0.96-6.74-4.39-5.14-2.36-14.6c3.27-15.28-8.96-10.29-3.08,7.81C53.17,127.32,53.09,127.52,57.41,130.39z"/>
	<path d="M64.5,121.25c0.3-1.29-0.72-2.48-0.62-3.8c0.6-2.01,1.53-4.97-1.54-7.09c-0.82,0.21-1.44,0.41-2.06,0.62
		c-0.62-0.31-0.62-0.31-2.26-0.31c0.82,4.32,1.95,8.22,5.34,11.62C63.89,121.76,64.19,121.45,64.5,121.25z"/>
	<path d="M124.53,151.16c3.39-0.72,5.96-1.85,7.81-3.6C128.33,147.77,125.97,148.9,124.53,151.16z"/>
	<path d="M117.57,152.75c-0.89,0.2-3.42,0.5-4.05,1.13C110.13,156.14,114.45,157.34,117.57,152.75z"/>
	<path d="M117.63,152.64c-0.08,0.12-0.1,0.1,0.11,0.06C117.75,152.36,117.77,152.47,117.63,152.64z"/>
	<path d="M88.66,138.78c-0.17-2.45-1.8-0.25-2.06,1.79C88.31,139.87,88.72,139.7,88.66,138.78z"/>
	<path d="M84.24,146.33c0.93-0.72,1.44-1.64,1.44-3.49C83.48,144.03,82.51,145.93,84.24,146.33z"/>
	<path d="M118.06,128.44c-0.22-0.17-0.71-0.46-0.79,0.22C117.14,129.34,118.06,129.34,118.06,128.44z"/>
	<path d="M118.85,151.76c0.08-0.23-0.52,0.53-0.74,0.64C118.52,152.4,118.73,152.18,118.85,151.76z"/>
	<path d="M117.79,152.47c0.07,0.15,0.01,0.17,0.32-0.06C117.69,152.41,117.72,152.34,117.79,152.47z"/>
	<path d="M83.31,494.57c-4.52,1.18-0.71,5.77-5.65,6.48c-0.51-0.62-1.75-0.31-2.26-1.44c-0.33-0.73,0.92-2.03-0.82-2.47
		c-13.91,15.76-5.71,7.36,3.91,16.65c2.41-0.87,5.51-3.89,4.59-5.33c-0.45-0.89-2.55,1.94-4.18,1.94c-1.13-0.36-1.76-0.88-1.85-2.06
		c3.2-3.2,7.34-2.03,6.46-3.8c-0.17-0.34-4.85-0.84-9.02,2.67c-1.05-0.45-3.27-0.81-3.91-1.44c-0.1-1.07,2.16-3.58,3.29-3.8
		c10.18,2.73,7.76-0.64,10.69,0.82c1.79,0.9,2.43-5.11,0.7-6.84C84.78,495.5,84.15,495.06,83.31,494.57z"/>
	<path d="M52.72,440.67c-4.09,1.17-1.15,14.84-0.04,18.96c0.54,2.01,4.64,4.23,4.64,4.06c0.49-1.42,0.18-2.74-0.11-4.47
		C50.61,454.35,59.81,438.65,52.72,440.67z"/>
	<path d="M60.39,444.51c-0.72-0.21-1.33-1.32-2.25-0.02c0,4.58,5.34,14.21,6.48,9.68c-1.42-2.84-0.4-4.64,0.09-6.58
		C61.8,441.78,62.18,444.51,60.39,444.51z"/>
	<path d="M132.24,481.11c-2.7,0.19-8.46,1.37-7.5,4.01C127.59,483.37,133.99,481.72,132.24,481.11z"/>
	<path d="M117.57,486.2c-0.89,0.2-3.42,0.5-4.05,1.13C110.15,489.57,114.44,490.8,117.57,486.2z"/>
	<path d="M117.56,486.18c0.23,0,0.18-0.09,0.18-0.22C117.75,485.84,117.66,486.09,117.56,486.18z"/>
	<path d="M83.94,479.6c0.67,0.15,1.34-1.08,1.49-1.43C87.1,474.21,81.4,479.02,83.94,479.6z"/>
	<path d="M86.6,474.12c2.36-1.23,2.36-1.23,1.64-3.08C87.22,471.55,86.6,472.37,86.6,474.12z"/>
	<path d="M118.06,461.89c-0.22-0.17-0.71-0.46-0.79,0.22C117.14,462.77,118.06,462.85,118.06,461.89z"/>
	<path d="M118.15,485.8c-0.1,0.05,0.51,0.17,0.73-0.7C118.44,485.54,118.36,485.64,118.15,485.8z"/>
	<path d="M117.79,485.92c0.07,0.15,0.01,0.17,0.32-0.06C117.69,485.86,117.72,485.78,117.79,485.92z"/>
<path fill="#e6e6e6" d="m206.8 163.6c0-5.1 4.1-9.2 9.3-9.2s9.2 4.2 9.2 9.2-4.1 9.2-9.3 9.2-9.2-4.1-9.2-9.2zm17.3-.1c0-4.5-3.5-8.2-8.2-8.2s-8.2 3.7-8.2 8.3c0 4.5 3.5 8.2 8.2 8.2s8.2-3.7 8.2-8.3zm-13 0c0-2.8 2.1-5.1 5.1-5.1 1.9 0 2.9.6 3.9 1.5l-1.4 1.7c-.8-.7-1.5-1.1-2.5-1.1-1.7 0-2.8 1.4-2.8 3.1s1.1 3 2.8 3c1.1 0 1.7-.5 2.5-1.1l1.4 1.4c-1.1 1.1-2.1 1.7-4 1.7-2.9 0-5-2.3-5-5.1z"/><path fill="#e6e6e6" d="m226.6 154.7h3.4l4.2 13.2 4.4-13.3h2.6l4.4 13.3 4.2-13.2h3.3l-6.2 18h-2.7l-4.4-12.8-4.4 12.8h-2.7z"/><path fill="#e6e6e6" d="m252.8 165.8c0-3.9 3.1-7 7.2-7 4.2 0 7.2 3.2 7.2 7s-3.1 7-7.3 7c-4 0-7.1-3.1-7.1-7zm11.3 0c0-2.3-1.7-4.3-4.2-4.3s-4.1 2-4.1 4.3 1.7 4.3 4.1 4.3c2.7.1 4.2-1.9 4.2-4.3z"/><path fill="#e6e6e6" d="m269.5 159.1h3.1v3c.8-2 2.4-3.4 4.8-3.3v3.2h-.2c-2.7 0-4.6 1.7-4.6 5.4v5.1h-3.1z"/><path fill="#e6e6e6" d="m279.1 153.9h3.1v11.1l5.6-6h3.8l-5.4 5.5 5.5 8h-3.5l-4.1-5.8-1.9 2v3.9h-3.1z"/><path fill="#e6e6e6" d="m291.7 165.8c0-3.9 3.1-7 7.2-7 4.2 0 7.2 3.2 7.2 7s-3.1 7-7.3 7c-4 0-7.1-3.1-7.1-7zm11.3 0c0-2.3-1.7-4.3-4.2-4.3s-4.1 2-4.1 4.3 1.7 4.3 4.1 4.3c2.6.1 4.2-1.9 4.2-4.3z"/><path fill="#e6e6e6" d="m308.2 167.6v-8.6h3.1v7.6c0 2.1 1.1 3.3 2.9 3.3s3-1.3 3-3.3v-7.6h3.1v13.4h-3.1v-2.1c-.8 1.3-2.1 2.3-4.2 2.3-3.1.2-4.8-1.8-4.8-5z"/><path fill="#e6e6e6" d="m323.9 168.8v-7.1h-1.7v-2.6h1.7v-3.7h3.1v3.7h3.6v2.6h-3.6v6.6c0 1.2.6 1.7 1.7 1.7.7 0 1.3-.2 1.9-.5v2.5c-.8.5-1.7.7-2.8.7-2.3 0-3.9-.9-3.9-3.9z"/><path fill="#e6e6e6" d="m333.2 154.7h3.2v15h9.4v2.9h-12.5v-17.9z"/><path fill="#e6e6e6" d="m356 172.5v-1.7c-.9 1.1-2.3 2-4.4 2-2.6 0-4.8-1.4-4.8-4.2 0-3 2.3-4.4 5.4-4.4 1.7 0 2.6.2 3.7.5v-.2c0-1.9-1.2-2.9-3.3-2.9-1.5 0-2.6.3-3.9.8l-.8-2.5c1.5-.7 2.9-1.1 5.1-1.1 4 0 5.9 2.1 5.9 5.7v8zm.1-5.6c-.8-.3-1.9-.5-3.1-.5-2 0-3.1.8-3.1 2.1s1.1 2 2.6 2c2 0 3.5-1.1 3.5-2.9z"/><path fill="#e6e6e6" d="m364.9 170.5v2.1h-3.1v-18.7h3.1v7.4c1-1.4 2.4-2.5 4.5-2.5 3.2 0 6.3 2.5 6.3 7s-3.1 7-6.3 7c-2.1 0-3.5-1.1-4.5-2.3zm7.7-4.7c0-2.6-1.7-4.3-3.9-4.3s-3.9 1.7-3.9 4.4c0 2.6 1.8 4.3 3.9 4.3s3.9-1.7 3.9-4.4z"/><path fill="#e6e6e6" d="m376.9 170.8 1.4-2.1c1.4 1.1 3 1.7 4.4 1.7s2.1-.5 2.1-1.5-1.3-1.4-2.8-1.8c-.1 0-.2-.1-.2-.1-2-.6-4.2-1.4-4.2-4s2.1-4.1 4.8-4.1c1.7 0 3.5.6 5 1.5l-1.2 2.2c-1.3-.8-2.6-1.3-3.8-1.3s-1.9.5-1.9 1.4 1.3 1.4 2.8 1.8c.1 0 .2.1.2.1 2 .6 4.2 1.5 4.2 4 0 2.9-2.2 4.2-5 4.2-1.9 0-4-.7-5.8-2z"/><path fill="#e6e6e6" d="m505.6 163.6c0-5.1 4.1-9.2 9.3-9.2s9.2 4.2 9.2 9.2-4.1 9.2-9.3 9.2-9.2-4.1-9.2-9.2zm17.4-.1c0-4.5-3.5-8.2-8.2-8.2s-8.2 3.7-8.2 8.3c0 4.5 3.5 8.2 8.2 8.2s8.2-3.7 8.2-8.3zm-13.1 0c0-2.8 2.1-5.1 5.1-5.1 1.9 0 2.9.6 3.9 1.5l-1.4 1.7c-.8-.7-1.5-1.1-2.5-1.1-1.7 0-2.8 1.4-2.8 3.1s1.1 3 2.8 3c1.1 0 1.7-.5 2.5-1.1l1.4 1.4c-1.1 1.1-2.1 1.7-4 1.7-2.9 0-5-2.3-5-5.1z"/><path fill="#e6e6e6" d="m525.4 154.7h3.4l4.2 13.2 4.4-13.3h2.6l4.4 13.3 4.2-13.2h3.3l-6.2 18h-2.7l-4.4-12.8-4.4 12.8h-2.7z"/><path fill="#e6e6e6" d="m551.7 165.8c0-3.9 3.1-7 7.2-7 4.2 0 7.2 3.2 7.2 7s-3.1 7-7.3 7c-4.1 0-7.1-3.1-7.1-7zm11.2 0c0-2.3-1.7-4.3-4.2-4.3s-4.1 2-4.1 4.3 1.7 4.3 4.1 4.3c2.7.1 4.2-1.9 4.2-4.3z"/><path fill="#e6e6e6" d="m568.3 159.1h3.1v3c.8-2 2.4-3.4 4.8-3.3v3.2h-.2c-2.7 0-4.6 1.7-4.6 5.4v5.1h-3.1z"/><path fill="#e6e6e6" d="m577.9 153.9h3.1v11.1l5.6-6h3.8l-5.4 5.5 5.5 8h-3.5l-4.1-5.8-1.9 2v3.9h-3.1z"/><path fill="#e6e6e6" d="m590.6 165.8c0-3.9 3.1-7 7.2-7 4.2 0 7.2 3.2 7.2 7s-3.1 7-7.3 7c-4.1 0-7.1-3.1-7.1-7zm11.2 0c0-2.3-1.7-4.3-4.2-4.3s-4.1 2-4.1 4.3 1.7 4.3 4.1 4.3c2.6.1 4.2-1.9 4.2-4.3z"/><path fill="#e6e6e6" d="m607 167.6v-8.6h3.1v7.6c0 2.1 1.1 3.3 2.9 3.3s3-1.3 3-3.3v-7.6h3.1v13.4h-3.1v-2.1c-.8 1.3-2.1 2.3-4.2 2.3-3 .2-4.8-1.8-4.8-5z"/><path fill="#e6e6e6" d="m622.7 168.8v-7.1h-1.7v-2.6h1.7v-3.7h3.1v3.7h3.6v2.6h-3.6v6.6c0 1.2.6 1.7 1.7 1.7.7 0 1.3-.2 1.9-.5v2.5c-.8.5-1.7.7-2.8.7-2.3 0-3.9-.9-3.9-3.9z"/><path fill="#e6e6e6" d="m632 154.7h3.2v15h9.4v2.9h-12.6z"/><path fill="#e6e6e6" d="m654.8 172.5v-1.7c-.9 1.1-2.3 2-4.4 2-2.6 0-4.8-1.4-4.8-4.2 0-3 2.3-4.4 5.4-4.4 1.7 0 2.6.2 3.7.5v-.2c0-1.9-1.2-2.9-3.3-2.9-1.5 0-2.6.3-3.9.8l-.8-2.5c1.5-.7 2.9-1.1 5.1-1.1 4 0 5.9 2.1 5.9 5.7v8zm.1-5.6c-.8-.3-1.9-.5-3.1-.5-2 0-3.1.8-3.1 2.1s1.1 2 2.6 2c2 0 3.5-1.1 3.5-2.9z"/><path fill="#e6e6e6" d="m663.7 170.5v2.1h-3.1v-18.7h3.1v7.4c1-1.4 2.4-2.5 4.5-2.5 3.2 0 6.3 2.5 6.3 7s-3.1 7-6.3 7c-2.1 0-3.5-1.1-4.5-2.3zm7.8-4.7c0-2.6-1.7-4.3-3.9-4.3-2.1 0-3.9 1.7-3.9 4.4 0 2.6 1.8 4.3 3.9 4.3s3.9-1.7 3.9-4.4z"/><path fill="#e6e6e6" d="m675.8 170.8 1.4-2.1c1.4 1.1 3 1.7 4.4 1.7s2.1-.5 2.1-1.5-1.3-1.4-2.8-1.8c-.1 0-.2-.1-.2-.1-2-.6-4.2-1.4-4.2-4s2.1-4.1 4.8-4.1c1.7 0 3.5.6 5 1.5l-1.2 2.2c-1.3-.8-2.6-1.3-3.8-1.3s-1.9.5-1.9 1.4 1.3 1.4 2.8 1.8c.1 0 .2.1.2.1 2 .6 4.2 1.5 4.2 4 0 2.9-2.2 4.2-5 4.2-2 0-4.1-.7-5.8-2z"/><path fill="#e6e6e6" d="m61 298.6c0-5.1 4.1-9.2 9.3-9.2s9.2 4.2 9.2 9.2-4.1 9.2-9.3 9.2c-5.1 0-9.2-4.2-9.2-9.2zm17.4-.1c0-4.5-3.5-8.2-8.2-8.2s-8.2 3.7-8.2 8.3c0 4.5 3.5 8.2 8.2 8.2s8.2-3.7 8.2-8.3zm-13.1-.1c0-2.8 2.1-5.1 5.1-5.1 1.9 0 2.9.6 3.9 1.5l-1.4 1.7c-.8-.7-1.5-1.1-2.5-1.1-1.7 0-2.8 1.4-2.8 3.1s1.1 3 2.8 3c1.1 0 1.7-.5 2.5-1.1l1.4 1.4c-1.1 1.1-2.1 1.7-4 1.7-2.8.1-5-2.2-5-5.1z"/><path fill="#e6e6e6" d="m80.9 289.7h3.4l4.2 13.2 4.4-13.3h2.6l4.4 13.3 4.2-13.2h3.3l-6.2 18h-2.7l-4.4-12.8-4.4 12.8h-2.7z"/><path fill="#e6e6e6" d="m107.1 300.8c0-3.9 3.1-7 7.2-7s7.2 3.2 7.2 7-3.1 7-7.3 7c-4 0-7.1-3.1-7.1-7zm11.3 0c0-2.3-1.7-4.3-4.2-4.3s-4.1 2-4.1 4.3 1.7 4.3 4.1 4.3c2.6.1 4.2-1.9 4.2-4.3z"/><path fill="#e6e6e6" d="m123.7 294h3.1v3c.8-2 2.4-3.4 4.8-3.3v3.2h-.2c-2.7 0-4.6 1.7-4.6 5.4v5.1h-3.1z"/><path fill="#e6e6e6" d="m133.4 288.9h3.1v11.1l5.6-6h3.8l-5.4 5.5 5.5 8h-3.5l-4.1-5.8-1.9 1.9v3.9h-3.1z"/><path fill="#e6e6e6" d="m146 300.8c0-3.9 3.1-7 7.2-7s7.2 3.2 7.2 7-3.1 7-7.3 7c-4.1 0-7.1-3.1-7.1-7zm11.2 0c0-2.3-1.7-4.3-4.2-4.3s-4.1 2-4.1 4.3 1.7 4.3 4.1 4.3c2.6.1 4.2-1.9 4.2-4.3z"/><path fill="#e6e6e6" d="m162.4 302.6v-8.6h3.1v7.6c0 2.1 1.1 3.3 2.9 3.3s3-1.3 3-3.3v-7.6h3.1v13.4h-3.1v-2.1c-.8 1.3-2.1 2.3-4.2 2.3-3 .2-4.8-1.8-4.8-5z"/><path fill="#e6e6e6" d="m178.1 303.8v-7.1h-1.7v-2.7h1.7v-3.7h3.1v3.7h3.6v2.6h-3.6v6.6c0 1.2.6 1.7 1.7 1.7.7 0 1.3-.2 1.9-.5v2.5c-.8.5-1.7.7-2.8.7-2.3.1-3.9-.9-3.9-3.8z"/><path fill="#e6e6e6" d="m187.4 289.7h3.2v15h9.4v2.9h-12.5v-17.9z"/><path fill="#e6e6e6" d="m210.2 307.5v-1.7c-.9 1.1-2.3 2-4.4 2-2.6 0-4.8-1.4-4.8-4.2 0-3 2.3-4.4 5.4-4.4 1.7 0 2.6.2 3.7.5v-.2c0-1.9-1.2-2.9-3.3-2.9-1.5 0-2.6.3-3.9.8l-.8-2.5c1.5-.7 2.9-1.1 5.1-1.1 4 0 5.9 2.1 5.9 5.7v8zm.1-5.6c-.8-.3-1.9-.5-3.1-.5-2 0-3.1.8-3.1 2.1s1.1 2 2.6 2c2 0 3.5-1.1 3.5-2.9z"/><path fill="#e6e6e6" d="m219.2 305.5v2.1h-3.1v-18.7h3.1v7.4c1-1.4 2.4-2.5 4.5-2.5 3.2 0 6.3 2.5 6.3 7s-3.1 7-6.3 7c-2.2 0-3.6-1.1-4.5-2.3zm7.7-4.7c0-2.6-1.7-4.3-3.9-4.3s-3.9 1.7-3.9 4.4c0 2.6 1.8 4.3 3.9 4.3s3.9-1.7 3.9-4.4z"/><path fill="#e6e6e6" d="m231.2 305.8 1.4-2.1c1.4 1.1 3 1.7 4.4 1.7s2.1-.5 2.1-1.5-1.3-1.4-2.8-1.8c-.1 0-.2-.1-.2-.1-2-.6-4.2-1.4-4.2-4s2.1-4.1 4.8-4.1c1.7 0 3.5.6 5 1.5l-1.2 2.2c-1.3-.8-2.6-1.3-3.8-1.3s-1.9.5-1.9 1.4 1.3 1.4 2.8 1.8c.1 0 .2.1.2.1 2 .6 4.2 1.5 4.2 4 0 2.9-2.2 4.2-5 4.2-2 0-4.1-.7-5.8-2z"/><path fill="#e6e6e6" d="m360.6 298.6c0-5.1 4.1-9.2 9.3-9.2s9.2 4.2 9.2 9.2-4.1 9.2-9.3 9.2-9.2-4.2-9.2-9.2zm17.4-.1c0-4.5-3.5-8.2-8.2-8.2s-8.2 3.7-8.2 8.3c0 4.5 3.5 8.2 8.2 8.2s8.2-3.7 8.2-8.3zm-13.1-.1c0-2.8 2.1-5.1 5.1-5.1 1.9 0 2.9.6 3.9 1.5l-1.4 1.7c-.8-.7-1.5-1.1-2.5-1.1-1.7 0-2.8 1.4-2.8 3.1s1.1 3 2.8 3c1.1 0 1.7-.5 2.5-1.1l1.4 1.4c-1.1 1.1-2.1 1.7-4 1.7-2.8.1-5-2.2-5-5.1z"/><path fill="#e6e6e6" d="m380.5 289.7h3.4l4.2 13.2 4.4-13.3h2.6l4.4 13.3 4.2-13.2h3.3l-6.2 18h-2.7l-4.4-12.8-4.4 12.8h-2.7z"/><path fill="#e6e6e6" d="m406.7 300.8c0-3.9 3.1-7 7.2-7 4.2 0 7.2 3.2 7.2 7s-3.1 7-7.3 7c-4.1 0-7.1-3.1-7.1-7zm11.3 0c0-2.3-1.7-4.3-4.2-4.3s-4.1 2-4.1 4.3 1.7 4.3 4.1 4.3c2.7.1 4.2-1.9 4.2-4.3z"/><path fill="#e6e6e6" d="m423.3 294h3.1v3c.8-2 2.4-3.4 4.8-3.3v3.2h-.2c-2.7 0-4.6 1.7-4.6 5.4v5.1h-3.1z"/><path fill="#e6e6e6" d="m433 288.9h3.1v11.1l5.6-6h3.8l-5.4 5.5 5.5 8h-3.5l-4.1-5.8-1.9 2v3.9h-3.1z"/><path fill="#e6e6e6" d="m445.6 300.8c0-3.9 3.1-7 7.2-7 4.2 0 7.2 3.2 7.2 7s-3.1 7-7.3 7c-4.1 0-7.1-3.1-7.1-7zm11.3 0c0-2.3-1.7-4.3-4.2-4.3s-4.1 2-4.1 4.3 1.7 4.3 4.1 4.3c2.6.1 4.2-1.9 4.2-4.3z"/><path fill="#e6e6e6" d="m462.1 302.6v-8.6h3.1v7.6c0 2.1 1.1 3.3 2.9 3.3s3-1.3 3-3.3v-7.6h3.1v13.4h-3.1v-2.1c-.8 1.3-2.1 2.3-4.2 2.3-3.1.2-4.8-1.8-4.8-5z"/><path fill="#e6e6e6" d="m477.8 303.8v-7.1h-1.8v-2.7h1.7v-3.7h3.1v3.7h3.6v2.6h-3.6v6.6c0 1.2.6 1.7 1.7 1.7.7 0 1.3-.2 1.9-.5v2.5c-.8.5-1.7.7-2.8.7-2.2.1-3.8-.9-3.8-3.8z"/><path fill="#e6e6e6" d="m487.1 289.7h3.2v15h9.4v2.9h-12.5v-17.9z"/><path fill="#e6e6e6" d="m509.9 307.5v-1.7c-.9 1.1-2.3 2-4.4 2-2.6 0-4.8-1.4-4.8-4.2 0-3 2.3-4.4 5.4-4.4 1.7 0 2.6.2 3.7.5v-.2c0-1.9-1.2-2.9-3.3-2.9-1.5 0-2.6.3-3.9.8l-.8-2.5c1.5-.7 2.9-1.1 5.1-1.1 4 0 5.9 2.1 5.9 5.7v8zm.1-5.6c-.8-.3-1.9-.5-3.1-.5-2 0-3.1.8-3.1 2.1s1.1 2 2.6 2c2 0 3.5-1.1 3.5-2.9z"/><path fill="#e6e6e6" d="m518.8 305.5v2.1h-3.1v-18.7h3.1v7.4c1-1.4 2.4-2.5 4.5-2.5 3.2 0 6.3 2.5 6.3 7s-3.1 7-6.3 7c-2.2 0-3.5-1.1-4.5-2.3zm7.7-4.7c0-2.6-1.7-4.3-3.9-4.3s-3.9 1.7-3.9 4.4c0 2.6 1.8 4.3 3.9 4.3s3.9-1.7 3.9-4.4z"/><path fill="#e6e6e6" d="m530.8 305.8 1.4-2.1c1.4 1.1 3 1.7 4.4 1.7s2.1-.5 2.1-1.5-1.3-1.4-2.8-1.8c-.1 0-.2-.1-.2-.1-2-.6-4.2-1.4-4.2-4s2.1-4.1 4.8-4.1c1.7 0 3.5.6 5 1.5l-1.2 2.2c-1.3-.8-2.6-1.3-3.8-1.3s-1.9.5-1.9 1.4 1.3 1.4 2.8 1.8c.1 0 .2.1.2.1 2 .6 4.2 1.5 4.2 4 0 2.9-2.2 4.2-5 4.2-1.9 0-4.1-.7-5.8-2z"/><path fill="#e6e6e6" d="m659.5 298.6c0-5.1 4.1-9.2 9.3-9.2s9.2 4.2 9.2 9.2-4.1 9.2-9.3 9.2-9.2-4.2-9.2-9.2zm17.3-.1c0-4.5-3.5-8.2-8.2-8.2s-8.2 3.7-8.2 8.3c0 4.5 3.5 8.2 8.2 8.2 4.8 0 8.2-3.7 8.2-8.3zm-13-.1c0-2.8 2.1-5.1 5.1-5.1 1.9 0 2.9.6 3.9 1.5l-1.4 1.7c-.8-.7-1.5-1.1-2.5-1.1-1.7 0-2.8 1.4-2.8 3.1s1.1 3 2.8 3c1.1 0 1.7-.5 2.5-1.1l1.4 1.4c-1.1 1.1-2.1 1.7-4 1.7-2.9.1-5-2.2-5-5.1z"/><path fill="#e6e6e6" d="m679.3 289.7h3.4l4.2 13.2 4.4-13.3h2.6l4.4 13.3 4.2-13.2h3.3l-6.2 18h-2.6l-4.4-12.8-4.4 12.8h-2.7z"/><path fill="#e6e6e6" d="m705.5 300.8c0-3.9 3.1-7 7.2-7 4.2 0 7.2 3.2 7.2 7s-3.1 7-7.3 7c-4 0-7.1-3.1-7.1-7zm11.3 0c0-2.3-1.7-4.3-4.2-4.3s-4.1 2-4.1 4.3 1.7 4.3 4.1 4.3c2.7.1 4.2-1.9 4.2-4.3z"/><path fill="#e6e6e6" d="m722.1 294h3.1v3c.8-2 2.4-3.4 4.8-3.3v3.2h-.2c-2.7 0-4.6 1.7-4.6 5.4v5.1h-3.1z"/><path fill="#e6e6e6" d="m731.8 288.9h3.1v11.1l5.6-6h3.8l-5.4 5.5 5.5 8h-3.5l-4.1-5.8-1.9 2v3.9h-3.1z"/><path fill="#e6e6e6" d="m744.4 300.8c0-3.9 3.1-7 7.2-7 4.2 0 7.2 3.2 7.2 7s-3.1 7-7.3 7c-4.1 0-7.1-3.1-7.1-7zm11.3 0c0-2.3-1.7-4.3-4.2-4.3s-4.1 2-4.1 4.3 1.7 4.3 4.1 4.3c2.6.1 4.2-1.9 4.2-4.3z"/><path fill="#e6e6e6" d="m760.9 302.6v-8.6h3.1v7.6c0 2.1 1.1 3.3 2.9 3.3s3-1.3 3-3.3v-7.6h3.1v13.4h-3.1v-2.1c-.8 1.3-2.1 2.3-4.2 2.3-3.1.2-4.8-1.8-4.8-5z"/><path fill="#e6e6e6" d="m776.6 303.8v-7.1h-1.7v-2.7h1.7v-3.7h3.1v3.7h3.6v2.6h-3.6v6.6c0 1.2.6 1.7 1.7 1.7.7 0 1.3-.2 1.9-.5v2.5c-.8.5-1.7.7-2.8.7-2.3.1-3.9-.9-3.9-3.8z"/><path fill="#e6e6e6" d="m785.9 289.7h3.2v15h9.4v2.9h-12.5v-17.9z"/><path fill="#e6e6e6" d="m808.7 307.5v-1.7c-.9 1.1-2.3 2-4.4 2-2.6 0-4.8-1.4-4.8-4.2 0-3 2.3-4.4 5.4-4.4 1.7 0 2.6.2 3.7.5v-.2c0-1.9-1.2-2.9-3.3-2.9-1.5 0-2.6.3-3.9.8l-.8-2.5c1.5-.7 2.9-1.1 5.1-1.1 4 0 5.9 2.1 5.9 5.7v8zm.1-5.6c-.8-.3-1.9-.5-3.1-.5-2 0-3.1.8-3.1 2.1s1.1 2 2.6 2c2 0 3.5-1.1 3.5-2.9z"/><path fill="#e6e6e6" d="m817.6 305.5v2.1h-3.1v-18.7h3.1v7.4c1-1.4 2.4-2.5 4.5-2.5 3.2 0 6.3 2.5 6.3 7s-3.1 7-6.3 7c-2.1 0-3.5-1.1-4.5-2.3zm7.7-4.7c0-2.6-1.7-4.3-3.9-4.3-2.1 0-3.9 1.7-3.9 4.4 0 2.6 1.8 4.3 3.9 4.3 2.2 0 3.9-1.7 3.9-4.4z"/><path fill="#e6e6e6" d="m829.6 305.8 1.4-2.1c1.4 1.1 3 1.7 4.4 1.7s2.1-.5 2.1-1.5-1.3-1.4-2.8-1.8c-.1 0-.2-.1-.2-.1-2-.6-4.2-1.4-4.2-4s2.1-4.1 4.8-4.1c1.7 0 3.5.6 5 1.5l-1.2 2.2c-1.3-.8-2.6-1.3-3.8-1.3s-1.9.5-1.9 1.4 1.3 1.4 2.8 1.8c.1 0 .2.1.2.1 2 .6 4.2 1.5 4.2 4 0 2.9-2.2 4.2-5 4.2-1.9 0-4-.7-5.8-2z"/><path fill="#e6e6e6" d="m206.3 434.2c0-5.1 4.1-9.2 9.3-9.2s9.2 4.2 9.2 9.2-4.1 9.2-9.3 9.2-9.2-4.1-9.2-9.2zm17.4-.1c0-4.5-3.5-8.2-8.2-8.2s-8.2 3.7-8.2 8.3c0 4.5 3.5 8.2 8.2 8.2s8.2-3.7 8.2-8.3zm-13.1-.1c0-2.8 2.1-5.1 5.1-5.1 1.9 0 2.9.6 3.9 1.5l-1.4 1.7c-.8-.7-1.5-1.1-2.5-1.1-1.7 0-2.8 1.4-2.8 3.1s1.1 3 2.8 3c1.1 0 1.7-.5 2.5-1.1l1.4 1.4c-1.1 1.1-2.1 1.7-4 1.7-2.9.1-5-2.2-5-5.1z"/><path fill="#e6e6e6" d="m226.1 425.3h3.4l4.2 13.2 4.4-13.3h2.6l4.4 13.3 4.2-13.2h3.3l-6.2 18h-2.7l-4.4-12.8-4.4 12.8h-2.7z"/><path fill="#e6e6e6" d="m252.4 436.4c0-3.9 3.1-7 7.2-7 4.2 0 7.2 3.2 7.2 7s-3.1 7-7.3 7c-4.1 0-7.1-3.1-7.1-7zm11.2 0c0-2.3-1.7-4.3-4.2-4.3s-4.1 2-4.1 4.3 1.7 4.3 4.1 4.3c2.7.1 4.2-1.9 4.2-4.3z"/><path fill="#e6e6e6" d="m269 429.7h3.1v3c.8-2 2.4-3.4 4.8-3.3v3.2h-.2c-2.7 0-4.6 1.7-4.6 5.4v5.1h-3.1z"/><path fill="#e6e6e6" d="m278.6 424.5h3.1v11.1l5.6-6h3.8l-5.4 5.5 5.5 8h-3.5l-4.1-5.8-1.9 2v3.9h-3.1z"/><path fill="#e6e6e6" d="m291.3 436.4c0-3.9 3.1-7 7.2-7 4.2 0 7.2 3.2 7.2 7s-3.1 7-7.3 7c-4.1 0-7.1-3.1-7.1-7zm11.2 0c0-2.3-1.7-4.3-4.2-4.3s-4.1 2-4.1 4.3 1.7 4.3 4.1 4.3c2.6.1 4.2-1.9 4.2-4.3z"/><path fill="#e6e6e6" d="m307.7 438.2v-8.6h3.1v7.6c0 2.1 1.1 3.3 2.9 3.3s3-1.3 3-3.3v-7.6h3.1v13.4h-3.1v-2.1c-.8 1.3-2.1 2.3-4.2 2.3-3 .2-4.8-1.8-4.8-5z"/><path fill="#e6e6e6" d="m323.4 439.4v-7.1h-1.7v-2.6h1.7v-3.7h3.1v3.7h3.6v2.6h-3.6v6.6c0 1.2.6 1.7 1.7 1.7.7 0 1.3-.2 1.9-.5v2.5c-.8.5-1.7.7-2.8.7-2.3 0-3.9-.9-3.9-3.9z"/><path fill="#e6e6e6" d="m332.7 425.3h3.2v15h9.4v2.9h-12.5v-17.9z"/><path fill="#e6e6e6" d="m355.5 443.1v-1.7c-.9 1.1-2.3 2-4.4 2-2.6 0-4.8-1.4-4.8-4.2 0-3 2.3-4.4 5.4-4.4 1.7 0 2.6.2 3.7.5v-.2c0-1.9-1.2-2.9-3.3-2.9-1.5 0-2.6.3-3.9.8l-.8-2.5c1.5-.7 2.9-1.1 5.1-1.1 4 0 5.9 2.1 5.9 5.7v8zm.1-5.6c-.8-.3-1.9-.5-3.1-.5-2 0-3.1.8-3.1 2.1s1.1 2 2.6 2c2 0 3.5-1.1 3.5-2.9z"/><path fill="#e6e6e6" d="m364.4 441.1v2.1h-3.1v-18.7h3.1v7.4c1-1.4 2.4-2.5 4.5-2.5 3.2 0 6.3 2.5 6.3 7s-3.1 7-6.3 7c-2.1 0-3.5-1.1-4.5-2.3zm7.7-4.7c0-2.6-1.7-4.3-3.9-4.3-2.1 0-3.9 1.7-3.9 4.4 0 2.6 1.8 4.3 3.9 4.3 2.2 0 3.9-1.7 3.9-4.4z"/><path fill="#e6e6e6" d="m376.5 441.4 1.4-2.1c1.4 1.1 3 1.7 4.4 1.7s2.1-.5 2.1-1.5-1.3-1.4-2.8-1.8c-.1 0-.2-.1-.2-.1-2-.6-4.2-1.4-4.2-4s2.1-4.1 4.8-4.1c1.7 0 3.5.6 5 1.5l-1.2 2.2c-1.3-.8-2.6-1.3-3.8-1.3s-1.9.5-1.9 1.4 1.3 1.4 2.8 1.8c.1 0 .2.1.2.1 2 .6 4.2 1.5 4.2 4 0 2.9-2.2 4.2-5 4.2-2 0-4.1-.7-5.8-2z"/><path fill="#e6e6e6" d="m505.1 434.2c0-5.1 4.1-9.2 9.3-9.2s9.2 4.2 9.2 9.2-4.1 9.2-9.3 9.2-9.2-4.1-9.2-9.2zm17.4-.1c0-4.5-3.5-8.2-8.2-8.2s-8.2 3.7-8.2 8.3c0 4.5 3.5 8.2 8.2 8.2s8.2-3.7 8.2-8.3zm-13.1-.1c0-2.8 2.1-5.1 5.1-5.1 1.9 0 2.9.6 3.9 1.5l-1.4 1.7c-.8-.7-1.5-1.1-2.5-1.1-1.7 0-2.8 1.4-2.8 3.1s1.1 3 2.8 3c1.1 0 1.7-.5 2.5-1.1l1.4 1.4c-1.1 1.1-2.1 1.7-4 1.7-2.9.1-5-2.2-5-5.1z"/><path fill="#e6e6e6" d="m525 425.3h3.4l4.2 13.2 4.4-13.3h2.6l4.4 13.3 4.2-13.2h3.3l-6.2 18h-2.7l-4.4-12.8-4.4 12.8h-2.7z"/><path fill="#e6e6e6" d="m551.2 436.4c0-3.9 3.1-7 7.2-7 4.2 0 7.2 3.2 7.2 7s-3.1 7-7.3 7c-4.1 0-7.1-3.1-7.1-7zm11.2 0c0-2.3-1.7-4.3-4.2-4.3s-4.1 2-4.1 4.3 1.7 4.3 4.1 4.3c2.7.1 4.2-1.9 4.2-4.3z"/><path fill="#e6e6e6" d="m567.8 429.7h3.1v3c.8-2 2.4-3.4 4.8-3.3v3.2h-.2c-2.7 0-4.6 1.7-4.6 5.4v5.1h-3.1z"/><path fill="#e6e6e6" d="m577.5 424.5h3.1v11.1l5.6-6h3.8l-5.4 5.5 5.5 8h-3.5l-4.1-5.8-1.9 2v3.9h-3.1z"/><path fill="#e6e6e6" d="m590.1 436.4c0-3.9 3.1-7 7.2-7 4.2 0 7.2 3.2 7.2 7s-3.1 7-7.3 7c-4.1 0-7.1-3.1-7.1-7zm11.2 0c0-2.3-1.7-4.3-4.2-4.3s-4.1 2-4.1 4.3 1.7 4.3 4.1 4.3c2.6.1 4.2-1.9 4.2-4.3z"/><path fill="#e6e6e6" d="m606.5 438.2v-8.6h3.1v7.6c0 2.1 1.1 3.3 2.9 3.3s3-1.3 3-3.3v-7.6h3.1v13.4h-3.1v-2.1c-.8 1.3-2.1 2.3-4.2 2.3-3 .2-4.8-1.8-4.8-5z"/><path fill="#e6e6e6" d="m622.2 439.4v-7.1h-1.7v-2.6h1.7v-3.7h3.1v3.7h3.6v2.6h-3.6v6.6c0 1.2.6 1.7 1.7 1.7.7 0 1.3-.2 1.9-.5v2.5c-.8.5-1.7.7-2.8.7-2.3 0-3.9-.9-3.9-3.9z"/><path fill="#e6e6e6" d="m631.5 425.3h3.2v15h9.4v2.9h-12.5v-17.9z"/><path fill="#e6e6e6" d="m654.3 443.1v-1.7c-.9 1.1-2.3 2-4.4 2-2.6 0-4.8-1.4-4.8-4.2 0-3 2.3-4.4 5.4-4.4 1.7 0 2.6.2 3.7.5v-.2c0-1.9-1.2-2.9-3.3-2.9-1.5 0-2.6.3-3.9.8l-.8-2.5c1.5-.7 2.9-1.1 5.1-1.1 4 0 5.9 2.1 5.9 5.7v8zm.1-5.6c-.8-.3-1.9-.5-3.1-.5-2 0-3.1.8-3.1 2.1s1.1 2 2.6 2c2 0 3.5-1.1 3.5-2.9z"/><path fill="#e6e6e6" d="m663.3 441.1v2.1h-3.1v-18.7h3.1v7.4c1-1.4 2.4-2.5 4.5-2.5 3.2 0 6.3 2.5 6.3 7s-3.1 7-6.3 7c-2.2 0-3.6-1.1-4.5-2.3zm7.7-4.7c0-2.6-1.7-4.3-3.9-4.3s-3.9 1.7-3.9 4.4c0 2.6 1.8 4.3 3.9 4.3s3.9-1.7 3.9-4.4z"/><path fill="#e6e6e6" d="m675.3 441.4 1.4-2.1c1.4 1.1 3 1.7 4.4 1.7s2.1-.5 2.1-1.5-1.3-1.4-2.8-1.8c-.1 0-.2-.1-.2-.1-2-.6-4.2-1.4-4.2-4s2.1-4.1 4.8-4.1c1.7 0 3.5.6 5 1.5l-1.2 2.2c-1.3-.8-2.6-1.3-3.8-1.3s-1.9.5-1.9 1.4 1.3 1.4 2.8 1.8c.1 0 .2.1.2.1 2 .6 4.2 1.5 4.2 4 0 2.9-2.2 4.2-5 4.2-2 0-4.1-.7-5.8-2z"/></g>
</svg>
