<?xml version="1.0" encoding="utf-8"?>
<!-- Generator: Adobe Illustrator 23.0.1, SVG Export Plug-In . SVG Version: 6.00 Build 0)  -->
<svg version="1.2" baseProfile="tiny" id="Layer_1" xmlns="http://www.w3.org/2000/svg" xmlns:xlink="http://www.w3.org/1999/xlink"
	 x="0px" y="0px" viewBox="0 0 900 600" xml:space="preserve">
<g>
	<path d="M120.95,165.9c0.01,0.01,0.02,0.02,0.03,0.03C121,165.87,120.98,165.9,120.95,165.9z"/>
	<path d="M805.55,235.97c-4.89-4.19-4.16-4.06-5.18-4.78c-2-1.4-3.14-0.37-2.7-2.64c1.33-6.85-4.08-34.7-13.69-37
		c-10.21-20.35-88.5-43.67-97.68-41.16c-2.87,0.78-4.75-0.15-11.57-0.3c-56.93-1.27-43.04,5.41-50.96-1.02
		c-8.57-6.97-8.43,1.06-14.76-8.96c-1.05-1.65-2.45-3.19-2.09-5.39c-21.15-40.39-3.32-27.53-35.42-85.15
		c-0.84-1.51-0.91-1.52-5.74-18.29c-3.1-10.76-6.12-7.85-9.08-15.91c-2.37-6.46-6.62-9.25-11.76-11.62
		c-3.13-1.44-10.27-2.78-10.62-2.72c-0.03,0.01-0.55,0.37-0.97,0.45c-0.98,0.19-3.39-1.1-5.42-0.74c-1.39,0.25-1.5,0.97-2.62,1.2
		c-0.78,0.16-1.84,0.02-3.64,0.45c-5.41,1.29-6.08,4.42-12.39,6.73c-0.1,0-11.24-9.51-15.36-9.08c-7.76,0.8-8.54,0.78-10.45,1.28
		c-5.69,1.49-25.39,18.65-33.84,35.16c-14.77,28.87-2.79,2.09-13.34,31.93c-20.97,59.31-14.34,56.68-18.9,58.84
		c-3.66,5.34-3.88,11.02-3.55,16.86c-19.93,11.47,6.18,16.77-16.15,14.19c-20.54-2.37-45.96-15.36-54.88-14.02
		c-0.1,0.02-32.47-1.63-35.9-4.08c-5.1-3.65-10.8-5.59-11.13-6.37c-2.16-5.1-47.11,4.52-52.72,15.89
		c-0.63,1.27-1.16,1.38-15.35,12.6c-7.44,5.88-6.02,7.5-9.53,8.36c-2.89,0.71-15.77-1.6-20.98-3.43c-7.19-2.52-1.78,5.58,5.12,5.15
		c2.02-0.12,6.95,0.97,8.92,1.43c5.96,1.38,6.99,1.42,5.37,3.59c-9.52,12.73-8.86,25.06-11.66,28.25c0.67,0.46,0.94,1.14,0.82,2.04
		c-0.77,5.83,2.03,8.18,2.21,12.58c0.1,0-2.88-1.51-3.89-1.59c-10.58-0.85-5.42,1.41-17.04,0.24c-8.03-0.81-4.69,1.73-7.28-2
		c-1.99,0.66-3.91,0.38-5.84,0.41c-0.74-2.48-3.56-1.32-4.98-2.94c0.32-2.08,0.49-4.19,1.98-6.08c4.17-5.27-0.33-10.59-2.57-7.07
		c0.1,0.1,1.96,1.7,1.66,2.71c-2.27,7.75-2,3.52-6.37,9.65c-4.41,6.18-4.82,3.54-5.33,4.29c-0.22-0.15-0.31,0.22-0.54,0.22
		c-2.16,1.03-9.47-4.05-10.53-4.94c1.18-2.49,1.26,0.01,2.4,0.13c8.78,0.96,7.12,8.67,11.91,0.92c2.03-3.28-2.35,0.34-3.5,0.36
		c-0.33-0.27-0.84-0.69-1.51-1.25c4.34-3.46,8.04-2.59,3.57-4.21c0.8-1.75,2.42-0.03,3.49-0.79c2.23-5.32-3.47-10.17-4.32-2.69
		c-0.55,0.43-1.26,0.98-1.93,1.5c-2.64-0.97-2.2-0.25-2.2-3.07c-1.63-0.57-6.02,6.97-6.02,5.22c0,0.03,0,0.07,0,0.1
		c-0.02,0.01-0.04,0.02-0.05,0.03c0.17,1.4-0.9,0.56-0.27,0.16c0.69-0.44,0.03-0.48,0.74-2.52c0.42-1.22,1.08-2.35,1.47-3.56
		c15.32-8.45,7.3-5.09,6.39-7.53c0.85-1.93,2.19-3.97,0.47-3.97c-9.23,11.92-29.19-15.3-33.31-16.22c-3.39-0.76,1.54-5.01-3.58-9.85
		c-0.04,0.13-0.27,0.65-0.97,2.69c0,0.1-1.84-5.2-2.04-7.36c1.93-0.4,1.1-3.22,1.76-3.24c6.29-0.16,13.75-4.52,15.44-4.76
		c4.56-0.64,3.91,5.16,11.54,0.48c5.1-3.13,13.24-9.6,13.65-3.62c0.38,5.54,0.71,4.22-1.2,6.23c3.33,2.2,5.09-0.01,4.47-3.3
		c-0.34-1.82-1.63-1.05,3.53-2.39c4.11,1.42,2.76,7.99,5.71,7.53c1.23-0.19,0.85-1.7,0.28-2.8c-1.47-2.87-2.5-0.95,0.6-4.22
		c1.98,0,3.42,2.37,6.47,2.08c1-0.09,8.37-3.81,9.9,1.34c0.75,2.53,2.13,4.93,1.6,7.78c-0.84,4.49,2.4,5.4,2.74,3.04
		c1.69-11.64-4.68-19.08-14.38-14.4c0.1,0-2.33-1.34-3.15-1.56c-4.52-1.21-6.17,0.96-6.76,0.96c-1.16-0.99-1.07-2.44-3.48-2.14
		c-1,0.12-1.66,0.54-2.48,0.62c-2.37,0.24-1.77-3.03-5.97-3.79c-2.69,0.98-16.27,8.18-16.44,8.18c-5.59-5.66-11.24,0.53-19.01,2.09
		c-6.28,1.26-1.86-1.01-6.54-8.01c-2.57-1.25-4.02-0.9-5.57-0.9c3.97,2.62,4.17,6.42,6.29,9.48c1.34,1.92,0.54,3.79,0.54,4.04
		c-2.92-3.73-1.4-1.72-2.46-4.62c-2.66-7.31-3.83-6.29-6.77-10.22c-2.84-0.49-7.27-1.73-5.97,1.98c2.95,8.38,0.35,2.56-1.35,2.83
		c-0.81,0.13-0.57-0.24-1.28,2.71c-1.83,1.34-2.53,1.58-1.97,2.46c1.12,1.75,3.28,2.06,4.95,3.41c-5.51,2.07-4.32,2.54-4.11,4.91
		c-1.37,0.58-1.63,1.82-1.28,3.14c0.66,2.47,0.16,5,0.83,7.87c0.1,0-3.88-2.74-3.72,0.17c0.13,2.48,4.89,9.5,2.96,14.1
		c-1.91,4.56,1.25,9.29,0.74,12.28c-1.79-0.22-1.51-0.41-2.01-0.38c-0.85,0.07-0.78,1.48-0.27,2.05c2.58,2.92,2.46,0.68,3.26,6.15
		c1.25,8.6,5.53,9.74,6.12,11.35c-2.54,3.06-1.66,2.78,1.79,4.45c-0.23,0.72-0.44,1.33-0.66,1.98c1.17,1.05,2.93,1.48,2.78,3.4
		c3.11,2.71,1.8,3.69,4.84-0.56c2.18,0,2.93,4.74,7.55,3.23c1.92-0.63,0.94,1.41,13.41,1.67c8.99,0.19,9.8-2.2,16.21-1.89
		c13.61,0.67,16.48-5.35,16.59-5.35c3.25,1.22,6.53-2.87,20.26-4.94c0.92-0.14,21.93,1.36,24.69,4.3c3.11,3.31,7.03,5.2,13.38,8.08
		c5.18,2.35,4.28,4.66,10.69,6.36c3.72,0.98,11.05,3.76,18.82,3.26c3.46-0.22-0.17,0.26,22.54,9.07c3.04,1.18,1.76,1.09,31.02,0.81
		c8.59-0.08,25.17,7.59,30.89,5.84c1.81-0.55,24.17,6.82,50.11,0.6c1.15-0.28,5.55-0.47,8.78-0.79c25.49-2.57-7.47-1.09,33.07-1.85
		c2.84-0.05,3.34,0.77,10.31,4c3.31,1.54,1.32-0.65,11.05,2.97c4.41,1.64,5.8,0.95,16.99,1.01c2.03,0.01,3.82-0.03,5.44-1.26
		c2.6,1.2,20.59,11.52,28.46,5.81c2.63,0.84,5.02,0.47,7.46,0.3c1.45-4.54,1.32-2.96-0.18-6.19c0.53-1.82,1.54-4.01-0.79-4.84
		c-1.68-0.6-0.55-1.67-1.62-2.83c-8.7-9.48-21.16-10.66-22.43-16.02c4.68,0,6.93,0.32,9.21-1.44
		c27.89-21.55,22.91-23.75,26.72-26.75c7.98-6.28,5.1-17.58,12.23-31.82c1.4-2.8,6.69-14.64,8.42-18.83
		c0.78-1.88,1.93-4.96,0.04-5.71c-10.18-4.02-7.61-1.51-13.53-12.01c0.82-24.95,1.52,0.9,1.63-28.22
		c0.02-6.32,5.87,12.24,8.54,13.19c2.4,0.86,7.53,14.53,8.3,16.62c1.83,4.96,2.69,4.27,0.57,6.4c-1.7,1.71-0.89,1.55,2.24,12.9
		c1.63,5.91,4.06,5.56,3.33,11.82c-1.17,9.98-0.57,8.25-1.4,9.51c-21.08,32.06-12.25,37.2-19.93,43.58
		c-4.54,3.77-6.02,4.88-6.59,7.8c-0.71,3.65-0.65,13.1,3.46,16.44c3.02,0.92,6.02,1.84,9.04,2.76c-0.36,1.47,0.49,2.15,1.55,2.41
		c82.73,20.52,139.45,7.28,131.39,11.6c10.51,5.19,120.27-13.7,120.38-13.66c0.1,0.04,6.69-0.99,12.08-7.29
		C804.05,245.34,805.82,240.67,805.55,235.97z M151.6,210.39c2.46-2.99,1.94-2.53,3.57-2.11c5.87,1.51,4.31,0.6,1.48,2.23
		c-2.8,1.62-1.08,1.77-5.01,0.63C151.63,210.88,151.51,210.48,151.6,210.39z M149.45,204.25c0,0.13-0.02,0.07-0.12,0.14
		c-0.09,0.18-0.03,0.2-0.25,0.16C149.5,204.27,149.45,204,149.45,204.25z M148.76,200.83c0.1,0.32,0.14,0.26-0.1,0.24L148.76,200.83
		z M148.39,205.07c0.24-0.14,0.24-0.53,0.66-0.5C148.27,205.09,148.29,205.58,148.39,205.07z M102.68,155.49
		c-0.74,0.49-1.77-0.46-1.61-1.03C101.3,153.75,103,154.39,102.68,155.49z M101.46,179.84c-0.92-0.56-0.66-1.16-0.27-1.88
		C103.16,179.05,103.2,178.63,101.46,179.84z M103.5,214.19c-0.04,0-0.07,0-0.07-0.01c-0.78-1.29-0.48-1.09,0.1-1.55
		C104.02,214.13,104.16,214.08,103.5,214.19z M104.5,170.82c-0.19-0.09-0.46-0.13-0.55-0.27C103.68,170.1,105,169.6,104.5,170.82z
		 M106.2,163.66c-2.28,0-2,4.03-3.44,2.59c-0.5-1.31-0.25-1.54,0.21-1.88c1.98-1.45,2.35,1.8,1.96-3.3
		c1.96-0.29,1.96-0.29,2.94,1.77C107.38,163.4,106.84,163.49,106.2,163.66z M111.53,219.49c-1.02,0.72-1.96-0.92-0.7-1.1
		C111.42,218.32,112.08,219.18,111.53,219.49z M117.78,179.67c0.47-0.49,0.65,0.06,1.2,0.88c-2.27,0-1.95-0.03-2.07,0.09
		c-0.17,0.17,0.14,0.98-0.79,1.22C114.89,182.17,117.11,180.37,117.78,179.67z M116.08,167.27c0.1,0-0.17-0.8,1.42,6.25
		c-0.64-0.09-0.98-0.08-1.01-0.16C115.18,168.69,114.92,168.39,116.08,167.27z M117.38,186.88c1.41,1.31,1.43,0.35-1.34,4.97
		C114.91,190.57,114.82,191.49,117.38,186.88z M115.9,224.63l-0.07-0.19C116.05,224.46,116.02,224.41,115.9,224.63z M113.55,212.87
		c2.79-2.64,3.17-3.39,3.89-2.68c0.21,0.21,0.2,0.52,0.12,0.8C116.4,215.07,116.95,214.17,113.55,212.87z M117.1,221.57
		c0.24-0.15,0.33-0.26,0.43-0.26C120.67,221.28,118.85,223.9,117.1,221.57z M115.92,203.01c2.81-1.85,1.98-2.04,3.89,0.39
		C118.95,205.76,117.48,204.15,115.92,203.01z M119.9,226.47c0.72-0.23,0.49-0.27,0.87,0.19
		C120.2,227.02,120.12,226.75,119.9,226.47z M121.37,179.76c-3.58-3.88,0.82-0.83,1.49,0.32c0.36,0.62,0.29,0.53,0.21,1.31
		C123.76,182.08,121.46,179.86,121.37,179.76z M141.37,200.1c0.07,0.04-0.01,0.34-0.02,0.53
		C139.45,199.84,140.54,199.61,141.37,200.1z M137.15,191.01c-0.78,0.28-1.02-0.25-1.2-1.61
		C137.67,191.02,137.71,190.81,137.15,191.01z M135.08,200.63c0.32,0.06,1.52,0.68,1.62,0.73
		C133.73,202.9,134.77,200.54,135.08,200.63z M127.89,182.71c1.18,1.24,2.38,2.44,3.35,3.87
		C129.07,188.19,125.61,180.31,127.89,182.71z M132.83,196.37c0.12,0.34-0.34,0.45-0.56,0.43
		C130.94,196.58,132.27,194.78,132.83,196.37z M132.78,219.03c-0.57-0.7,0.11-0.19,0.23-0.55c0.78-0.85,0.72-0.77,0.84-0.83
		c0.92-3.55,0.41-3.19,1.93-2.54C135.5,217.49,133.43,217.52,132.78,219.03z M137.95,227.51c-0.92,0.55-3.05-0.83-2.39-1.79
		C136.4,224.5,139.31,226.7,137.95,227.51z M141.47,218.95c-0.51,0.05-1.02,0.02-1.59,0.02
		C140.43,216.5,142.84,218.82,141.47,218.95z M142.15,228.36c1.26-0.14,2.01-0.09,2.26,0.98
		C143.46,229.7,142.64,229.82,142.15,228.36z M144.21,212.17c-0.13-1.7,1.78-1.56,1.6-0.44
		C145.56,213.31,144.27,212.97,144.21,212.17z M149.98,220.44c-0.36-0.28-0.01-0.38,0.09-0.32
		C150.37,220.21,150.08,220.5,149.98,220.44z M153.6,224.93c0.79,0,1.43,0,2.12,0C155.1,226.18,155.1,226.18,153.6,224.93z
		 M616.96,148.7c3.37,0,3.84,3.41,6.25,4.62c-1.42,6.67-5.66,11.52-3.06,13.07c2.89,1.72,5.11-5.27,6.51-8.6
		c0.56-1.34,0.26-2.37,4.04,0.56c-1.76,4.33-2.49,5.71-2.68,7.89c-0.09,1.04,1.35,1.8,2.25,1.34c1.75-0.9,3.04-7.49,3.63-7.56
		c5.86-0.71-0.05,4.99-0.14,9.76c-0.03,1.43,2.65,3.53,4.66-1.03c3.14-7.12,1.76-6.38,3.92-6.13c-0.33,3.82-4.46,9.37-0.34,9.37
		c1.46,0,2.13-1.93,3.46-5.08c1.55-3.68-0.53-3.28,4.27-2.75c-1.33,3.27-1.87,4.43-1.96,5.42c-0.11,1.23,1.26,2.24,2.31,1.85
		c1.66-0.63,2.52-3.9,3.59-6.76c12.01-1.37,12.18,0,16.6-1.45c7.16-2.34,9.13-4.39,10.97-2.21c0.9,1.07,3.95,4.81,3.65,6.18
		c-0.81,3.79,0.73,12.17-7.61,19.5c-10.26,9.03-27.11,12.22-32.38,12.26c-16.33,0.12-41.02,20.99-65.27,2.59
		c1.69-2.74,1.95-5.43,1.13-8.26c-0.55-1.88,1.11-3.5,0.24-8.29c-0.89-4.92,3.09-5.05,1.11-12.59c-0.52-1.97-0.52-3.91,0.1-6.27
		c2.38,1.42,4.28,3.01,5.64,5.1c2.11,3.26-0.72,1.69,7.55,3.61c0.96,0.22,1.87,0.13,2.65-0.49c2.96-2.37,4.46-0.53,7.35-4.36
		c7.32-9.72,8.44-10.28,7.84-12.81C612.67,154.76,616.7,148.7,616.96,148.7z M590.79,169.42c4.93,0.21,11.55-2.16,11.69-2.3
		c-0.2,0.88-0.13-1.09-0.93,2.84C596.02,172.11,593.38,174.15,590.79,169.42z M449.09,47.74c12.98-26.98,37.16-58.32,57.27-36.07
		c-22.45,18.76-38.93,60.67-46.29,73.75c-3.21-2.51-10.8-12.01-15.58-22.29C441.97,57.72,442.92,60.57,449.09,47.74z M408.79,161.3
		c-1.17,0.96-0.72,0.8-1.74,0.41C407.88,160.8,407.51,161.01,408.79,161.3z M408.77,166.3c-0.39,1.2-1.44,1.12-2.38,1.49
		C406.49,166.04,406.49,166.04,408.77,166.3z M406,171.59c-0.5-0.43-0.36,0.06-0.52-1.78C410.82,169.33,408.27,169.77,406,171.59z
		 M405.03,173.96c2.49-0.22,3.12-0.44,2.94,0.9c-0.28,2.1-2.67,1.05-2.79,2.55c0.22,1.21,2.61,0.18,2.12,2.2
		c-1.06,0.57-2.19,0.28-3.75,0.41C404.57,174.68,404.6,174,405.03,173.96z M255.62,145.67c0.31-0.54,0.2-0.5,0.37-0.27
		c0.06,0.11,0.11,0.24-0.02,0.24c-0.68,0-0.45,0.52-0.66,0.73c-0.65,1.52-11.9,7.97-11.66,7.64
		C243.79,153.99,251.18,145.67,255.62,145.67z M220.15,175.32c24.47-17.36,26.78-19,31.1-21.42c10.48-5.88,10.36-11.15,15.62-12.51
		c38.04-9.86,17.8-1.53,48.72,3.22c47.55,7.29,36.04,3.86,47.46,7.84c48.04,16.76,42.06,4.45,39.6,16.48
		c-3.02,14.79-1.52,22.86-1.6,24.32c-0.08,1.46-2.73,8.28-0.38,17.63c3.67,14.56,0.53,20.95,4.76,20.11
		c1.03-0.21,0.68-2.31,0.68-2.41c-0.16-3.53,0.92,0.64,3.77-2.04c-0.97-1.94-2.4-0.48-3.71-0.59c-1.03-6.07-1.7-3.2,4.42-5.86
		c0.44,2.39,0.84,4.65,1.27,6.97c-1.48,1.09-3.43,0.64-4.82,1.56c-0.97,2.6,5.3,0.29,5.56,0.7c3.69,5.73-11.67,3.08-23.37,2.52
		c-10.99-0.53-30.28-12.69-57.91-12.69c-6.35-6.2-8.91-4.05-13.98-8.36c-2.5-2.13-4.86-4.71-8.71-4.66
		c-4.04,0.06-2.74-2.86-8.75-4.61c-11.42-3.32-11.37-2.54-10.46-6.16c1.34-5.31,1.03-10.93-2.63-18.22
		c-3.57-7.13-41.74-16.58-62.79-1.26c-3.29,2.39-7.82,6.14-9.42,7.7C215.65,181.73,218.1,176.78,220.15,175.32z M404.97,210.69
		c4.91,0.22,3.4-2.05,4.31,1.28c-1.76,1.15-3.57,1.24-5.49,1.32c-2.81-6.88-2.21-13.74-0.84-20.87c5.06,0.72,2.85-2.49,5.73,16.62
		c-1.62,0.45-3.22-0.2-4.54,0.75C404.12,210.4,404.46,210.67,404.97,210.69z M409.37,214.31c2.67,4.17,0.23,4.96-4.4,5.25
		C404,214.41,402.81,215.82,409.37,214.31z M498.96,251.84c7.86,3.68,4.19,4.05-1.99,0.48C497.98,252.06,498.6,251.67,498.96,251.84
		z M488.9,246.62c-0.15-0.16-0.08-0.11-0.28-0.23C488.9,246.47,488.84,246.42,488.9,246.62z M485.89,244.32
		c-1.04,0.24-5.96-3.14-6.72-3.16c-4.11-0.06,8.25,6.56,17.63,13.72c2.52,1.92,6.8,2.33,8.61,4.43c1.15,1.33,2.93,1.34,4.46,2.26
		c-0.41,2.93,3.93,3.66-27.72-11.04c-6.87-3.19-0.44,2.83,1.4,2.83c4.12,2.21,22.3,9.98,26.91,13.77c-0.19,0.56-0.38,1.07-0.62,1.79
		c-1.72-0.77-9.61,0.23-35.33-16.61c-0.08,0.63-0.26,1.01-0.13,1.24c0.4,0.69,0.73,1.62,1.36,1.95c4.37,2.25,8.07,5.54,12.31,7.98
		c12.19,7.01,15.87,8.63,2.3,4.31c-12.4-3.95-9.52-4.34-13.81-4.64c-4.06-0.28-9.7-0.31-9.6-0.31c-23.91,0-26.9-8.12-34.41-8.36
		c-29.67-0.95-57.1,9.98-85.95,4.43c0.99-0.51,1.83-0.93,2.57-1.31c0.04-3.31-5.52,2.36-17.31-0.67c-2.15-0.55-1.16-2.29-4.34-2.47
		c-2.97-0.16-5.67-0.52-8.57-1.19c-29.41-6.73-26.47,7.37-62.49-12.21c-2.82,1.77-5.57,0.51-7.48,0.51
		c-15.68-2-16.82-7.3-21.16-8.53c-8.43-2.4-21.57-12.71-19.51-26.1c1.68-10.95,2.62-11.63,4.16-17.25
		c17.52-22.05,40.2-21.12,66.81-14.55c9.85,2.43,7.37,22,6.14,21.98c-1.14-0.02-3.78-1.21-6.25-1.26c-3.41-0.07,0.02,1.2-9.59-2.41
		c2.8-3.12,9.19-5.03,8.46-9.08c-0.29-1.6-2.19-2.59-3.46-1.69c-14.37,10.09-6.78,6.23-11.77,6.54c-0.76,0.05-1.49,0.58-2.31,0.92
		c0.23,1.66,1.52,2.31,2.59,3.14c7.18,5.53-0.52,0.34,24.35,7.17c5.56,1.53,33.23,13.18,36.57,17.8c-8.78,0-6.5,2.13-4.73,2.12
		c16.57-0.12,33.87,4.94,41.76,7.21c53.35,15.38,51.13,4.83,73.7,6.28c5.88,0.38,4.99,3.17,29.64,3.09
		c11.32-0.04,11.01-3.85,19.84,5.54C486.14,244.55,487.92,246.35,485.89,244.32z M537.06,156.96c3.84,2.27,7.05-1.77-9.35,31.03
		c-7.36-11.19-4.64-40.46-4.64-40.57c-4.23,0.94-2.17,24.16-0.68,31.51c3.49,17.19,8.44,4.13-1.01,28.02
		c-5.65,14.28-5.03-19.1-3.87-34.62c-0.72,0.6-1.23,0.86-1.3,1.13c-1.55,4.98-1.78,13.9-1.8,19.1c-0.07,19.17,2.86,20.92,0.14,24.09
		c-10.52,12.27-0.12,5.88-27.45,21.33c-3.94,0.24-6.48-1.81-8.92-3.9c-24.6-0.31-18.29,1.54-22.29,0.18
		c-1.41-0.48-4.95-1.63-5.92-0.48c-0.28,0.34-7.39-0.16-10.57-1.64c-3.39-1.58-11.56-1.05-14.84-0.55
		c-10.15,1.55-9.1,1.09-9.23-1.91c-0.25-5.38-2.17-4.57-2.75-7.73c-0.39-2.12-2.85-15.03-2.85-17.14c14.9-3.5,13.99-3.27,14.11-3.37
		c0.93-0.79,0.15-2.45-1.43-2.44c-9.61,0.08-13.17,5.45-13.48,1.32c-0.82-10.77-0.37-8.18-1.03-9.85c-7.1,0.82-4.94,1.96-4.64-8.65
		c2.71,0.25,1.89,0.18,3.96,0.02c0.28,2.02,0.32,1.74,0.08,2.01c-0.22,0.25-7.63,2.61,0.81,2.53c-2.43,5.29,4.05,2.54,6.42-0.79
		c-1.21-2-2.61-1.12-5.57-0.06c0.93-14.24,2.17-4.64,4.21-7.96c2.59-4.22,11.4-10.41,13.65-8.02c0.81,0.97,1.24,0.73,6.85-1.08
		c0.93-0.3,1.44-2.07-2.26-2.39c-7.82-0.68-15.14,2.98-17.76,6.69c-2.93,4.15-2.03,3.66-3.88,2.74c2.6-13.75,0.85-6.88,4.11-3.07
		c0-1.61-0.62-4.33,1.2-5.96c1.39-1.24,0.09-4.81-2.57-6.56c-2.2-1.45-2.23-2.57-4.2-7.34c1.48-3.28,6.18-4.89,7.72-5.9
		c2.28-1.47-0.22-3.44,0.75-8.13c1.88-0.66,2.69-0.64,3.1-2.51c0.23-1.04,11.61-44.06,16.33-58.22c7.8-23.43,1.84-17.57,17.27,5.09
		c5.11,7.51,5.09,5.84,3.92,8.58c-6.27,14.71-6,13.89-6.12,15.22c-0.43,5.01-4,7.08-6.59,15.95c-1.16,3.98-1.72,1.84-0.43,4.8
		c-10.42,22.88-6.29,20.69-8.29,22.43c-2.38,2.08-2.92-1.34-9.28,2.48c-0.27-0.39-0.54-0.75-0.74-1.02c-2.53-0.12-2.1,1.81-2.7,2.92
		c-1.24,1.39-2.5,2.76-3.71,4.18c-0.53,0.62-1.11,2.99,3.24-0.5c4.78-3.83,5.52-4.81,7.94-4.65c5.68,0.38,5.64,0.69,7.69-0.74
		c4.18-2.91-2.67,0.18,8-23.65c9.66-21.57,0.68-9.21,8.7-22.91c0.65-1.11,0.62-2.2-0.47-3.32c1.71-3.67,3.38-7.38,5.16-11.04
		c0.97-1.99,2.59-0.87,2.48-3.84c-0.01-0.3,4.75-8.64,5.57-9.6c0.85-1-1.17,1.41,9.28,14.92c13.57,17.53,34.3,26.57,32.84,28.66
		c-6.21,8.94-8.18,16.79-10.57,20.06c-9.7,13.27-9.46,31.09-13.31,3.01c-3.86-28.13,0.31-35.41-1.46-38.55
		c-3.4,6.24-1.61,41.72,3.77,55.71c1.05,2.72-1.07,3.18-1.47,11.29c-1.27,25.99-9.74-53.59-10.3-55.25
		c-2.45,0.94,1.4,26.82,1.82,29.91c5.85,43.12,9.19,26.96-3.85,51.81c-2.55-3.56-2.24-8.57-3.71-7.53c-1.2,0.84,2,7.98,2.51,9.15
		c0.1,2.38-2.06,3.67-1.21,5.72c1.38-0.25,1.47-1.94,2.14-2.27c0.98-0.82,3.87,5.97,1.14-2.43c3.61-9.06,13.24-22.65,13.3-29.31
		c0.1-11.13,11.72-29.57,14.71-36.63c3.53-8.33,5.1-10.45,7.77-13.94C517.5,123.57,522.62,148.4,537.06,156.96z M526.32,51.94
		c-1.63,5.47-1.83,5.97-1.72,6.94c1.85,9.53,3.82,58.11,2.88,63.58c-0.61,3.54-1.5,5.2-1.25,7.69c0.26,2.57,0.67,9.75-1.09,6.45
		c-10.59-19.83-8.48-15.64-28.52-29.51c-9.79-6.77-25.17-21.55-27.47-31.52c2.27-2.77,28.29-67.46,57.61-72.09
		c3.36-0.53,2.73,0.52,16.2,2.12c7.99,0.95,9.48,10.88,13.72,14.92c3.49,3.32,6.33,7.47,6.62,12.3c0.43,7.22,1.82,5.56,0.6,9.82
		c-0.09,0.45,1.97,3.16,2.25,3.52c8.24,10.69,4.19,9.35,15.29,26.56c4.95,7.67,15.35,63.2,31.63,76.91
		c-2.04,4.93-3.84,12.67-16.37,15.12c-1.16-0.6-3.49-4.44-4.39-3.54c-0.6,1.62,1,2.5,1.15,3.85c-2.66,1.24-1.59,0.71-3.26,1.71
		c-0.62-0.67-1.54-1.71-1.08-2.63c1.03-1.03-0.3-0.8-0.55-1c-4.07-3.38-6.73-12.81-12.46-20.06c-9.75-12.34-12.5-19.92-23.73-30.06
		c-2.46-2.22-2.35-2.28-15.56-21.91C523.63,71.51,529.15,56.04,526.32,51.94z M532.48,102.55c0.06-0.29,0.76-0.47,0.88-0.54
		c-0.29-3.69-1.31-6.83-1.17-10.08c2.2-0.16,0.77,0.08,11.89,14.84c19.95,26.49,4.81,3.72,28.63,37.14
		c-3.12,5.07-4.04,0.31-7.92-0.24c-3.31,0,0.33,3.26,1.21,4.16c0.03,0.6,0.29,0.35-5.33,1.69c-2.12-1.14-4.6-0.13-7.37,0.02
		c-1.61-2.78,0.06-1.39-2.73-7.62C535.96,109.31,530.04,114.73,532.48,102.55z M550.59,154.03c0.86-1.83,2.66-1.87,6.95-2.14
		c3.68-0.23,2.41,4.84,11.61,4.31c1.75-0.1,6.47-0.7,7.42-0.99c0.89,0,5.68-4.67-5.15-2.34c-2.22,0.48-4.34,0.39-6.66-0.48
		c6.8-2.32,4.25-0.93,9.98-5.32c1.27,1.36,2.75,2.71,2.74,4.96c0.62,0,2.11,2.51,5.98,9.7c-10,8.64-0.44,11.91-6.01,22.2
		c-7.02,0.81-13.97,0.59-21.14,0.05c0.66-7.74,1.67-9.41-0.36-14.66C555.92,169.21,550.54,154.13,550.59,154.03z M534.5,232.53
		c3.31,4.01-7.64,3.04,19.44,9.12c1.09,0.25,0.89,0.14,1.19,0.62c-5.66,0.4,0.38,1.62,10.25,4.48c6.38,1.85,30.03,2.66,30.15,2.68
		c7.35,1.37,13.68,2.56,22.55,2.92c-2.27,0.54-20.5,0.48-21.58,0.28c-1.36-0.24-5.23-1.55-6.72-1.75
		c-0.1-0.01-29.56-2.57-41.42-7.42c0.73-0.91,0.79-0.56,0.97-0.84c3.11,0-14.97-0.44-17.06-9.22
		C533.05,233.11,533.79,232.81,534.5,232.53z M590.1,248.31c0.11-0.15,0-0.15,0.36-0.07C590.33,248.4,590.44,248.38,590.1,248.31z
		 M802.88,242.84c-1.41,3.68,0.98,5.16-1.65,7.5c-7.36,6.54-126.57,31.49-257.5,7.19c-2.13-0.4-2.63-1.91-13.24-5.94
		c-2.04-4.84-2.32-15.64-0.31-17.18c1.53,1.9,1.46,3.94,5.74,5.72c2.45,1.02,4.83,1.66,7.45,1.47c4.76,3.15,1.1,2.5,6.36,4.18
		c7.24,2.32,23.82,5.6,35.08,5.53c8.79-0.05,0.98,2.25,17.37,2.61c0.1,0,48.43,0.27,64.76-1.6c-16.75-0.67-20.87,1.48-24.59,0.52
		c-4.33-1.12,2.39-0.52,7.49-0.79c1.97-0.1,2.81-0.42,7.43-0.61c5.7-0.24,9.15,0.07,12.93-0.05c4.94-0.15,2.73-0.72,15.35-1.25
		c47.22-1.97,40.78,0.29,38.22-2.6c0.45-1.46-34.46,1-41.7,1.06c-22.53,0.16-31.73-1.28-23.79,1.01
		c-4.05,0.64-31.93,1.58-44.44,0.46c-26.78-2.4-26.51-5.72-27.65-3.65c5.26,3.35-2.26,0.76-12.37,0.19
		c-6.5-0.37-18.29-3.91-18.5-4.29c3.93-1.5-10.22-2.63-15.77-6.05c-2.78-1.71-2.01-3.18-1.11-8.54c1.56-9.32,1.91-13.87,6.59-22.12
		c7.03,7.46,17.11,6.99,15.62,6.25c-1.1-0.55-9.23-0.76-14.79-7.66c3.04-5.9,6.73-11.39,10.22-17c3.76-0.73,7.34,0.25,10.93,0.28
		c3.47,0.03,6.95-0.48,10.32-0.16c1.41,2.03-1.05,3.84,0.17,7.29c1.5,4.23-2.71,5.37,0.78,8.88c6.02,6.04,4.48,5.18,19.27,8.49
		c6.24,1.4,24.5-3.06,26.25-5.25c0.36-0.46,1.27-0.6,1.95-0.67c3.37-0.36,6.59-1.2,9.77-2.46c8.09-3.2,9.51,1.73,30.96-6.29
		c3.99-1.49,1.78-1.99,5.2-3.87c16.53-9.08,15.24-18.43,17.09-26.81c0.51-2.32-5.04-9.09-7.31-9.93c-2.64-0.98-4.08,0.1-13.44,3.26
		c-1.14,0.39-1.44,0.3-15.01,0.56c-6.48,0.13-17.38-4.11-20.3-5.75c2.19-2.52,42.63-2,46.21-1.94
		c13.64,0.23,58.23,11.63,74.94,21.08c23.79,13.47,20.01,15.59,22.33,13.63c6.73,3.72,4.11,7.06,7.4,9
		c2.25,1.32,10.28,11.46,9.59,12.84c-1.38,2.76,5.45,20.97,1.42,24.44c-11.03,9.51-38.6,11.45-53.27,12.21
		c4.5,1.88,26.36-0.89,31.16-1.69c14.89-2.5,19.69-6.26,25-11.41c1.05,1.48,3.96,0.83,4.61,3.52c-2.43,1.63-11.01,4.48-13.25,5.39
		c-15.21,6.19-2.01,2.43,13.42-3.71C803.39,239.67,803.44,241.39,802.88,242.84z"/>
	<path d="M786.43,535.27c0.35-4.57,0.58-5.82,0.29-7.45c-6.01-33.85-12.35-29.01-14.35-32.3c-3.91-6.43-22.11-17.26-28.9-20.53
		c-54.81-26.36-119.72-22.19-130.38-16.1c-5.85-0.69-3.55,2.75-7.8-3.67c-3.25-4.91-2.3-4.52-5.36-14.91
		c-0.49-1.65-3.93-4.51-5.53-15.94c-5.21-37.19-11.25-45.84-19.62-64.78c-0.9-2.03-0.53-1.16-4.88-22.14
		c-0.48-2.34-0.53-2.06-6.21-10.6c-1.42,0.9-2.32,1.13-1.25,2.2c5.84,5.83,7.06,15.37,5.42,23.64c3.78,6,5.33,8.26,6.13,10.66
		c4.75,14.27,9,19.64,9.83,23.51c3.77,17.5,12.17,67.38,23.31,76.25c-5.2,11.39-2.77,9.03-11.08,12.48
		c-11.68,4.85-3.68,0.18-9.62-2.56c-2.87-1.32,0.97,4.73,1.33,5.71c-6.77,1.54-3.89,0.54-5.99-4.06c-0.4-0.89-3.17-3.71-6.05-12.08
		c-2-5.83-4.69-9.27-10.38-18.17c-2.48-3.87-0.03-2.52-6.26-11.64c-7.69-11.26-9.99-12.07-12.12-15.8
		c-17.93-31.34-16.28-30.9-17.33-47.52c-0.34-5.34,3.06-4.17,0.49-5.75c-0.09-1.86,0.44-3.49,0.93-5.12
		c3.33-0.92,4.65-0.94,4.29-2.44c-3.15-1.29-11.91,1.81-8.27,2.82c0.88,0.24,1.93-0.57,2.64,0.02c-2.04,5.07-7.32,3.76-5.4,7.83
		c-6.5,2.62-14.06,8.12-19.3,12.74c-1.2-2.49-1.45-3.86-3.63-2.42c0.52,1.68,0.99,3.23,1.44,4.68
		c-3.94,5.93-10.07,11.19-14.67,12.59c-1.39-2.16-5.18-9.09-6.66-12.24c-7.78-16.62-14.67-22.95-18.62-34.41
		c-1.27-3.68-3.14-3.57-3.93-5.67c-1.15-3.07-1.91-6.22-0.78-9.62c12.72-5.45,14.64-6.8,21.91-9.02
		c61.4-18.74,42.53-11.79,66.21-10.59c9.83,0.5,10.11,9.25,14.92,12.89c0.57-0.5,1.08-0.93,1.65-1.43c-1.39-3.78-3.38-7.04-6.4-9.54
		c-7.31-6.06-26.06-7.81-29.92-6.84c-8.77,2.21,0.52-3.68-17.13-4.13c-2.53-0.07-11.85-1.32-15.98-0.6
		c-28.84,5-38.33,14.4-72.55,24.48c-5.18,1.53-26.4,15.28-34.41,15.79c-5.86,0.37-10.54,8.5-13.38,13.69
		c-2.35,4.29-2.44,1.45-4.69,5.88c-2.42,4.77-4.47,0.54-8.11,6.56c-2.93,4.85-2.35,5.39-5.75,8.22c-3.6,2.99-1.13,2.55-4.69,4.43
		c-10.29,5.44-1.96-3.53-29.35,17.71c-30.66,23.77-20.91,10.65-43.27,24.39c-0.31,0.19-11.77,10-17.79,18.9
		c-16.29-10.13-38.01,32.07-50.84,52.46c-2.87-0.6-5.65-1.65-7.92-3.53c0.63-7.14,0.63-13.58-5.25-16.55
		c-6.22-3.14-7.1,2.11-10.68-0.14c-2.92-1.83-5.58-1.55-8.02,0.41c-2.87-2.59,0.02-2.74-7.21-1.66c-5.66-7.08-4.08-3.25-21.72,4.44
		c-2.46-6.87-14.76,2.4-21.88,2.28c-3.4-10.1-2.33-8.33-8.59-9.5c-1.91-0.36,1.77,0.34,4.34,6.43c1.87,4.43,2.93,3.89,2.36,7.54
		c-3.79-4.47-2.58-9.38-8.09-13.22c-0.51-0.35-0.76-1.08-1.13-1.61c-10.42-3.17-4.36,3.95-4.85,6.14c0.78,0.78-1.37-1.54-3.11-1.33
		c-0.28,0.87-0.58,1.83-0.87,2.75c-0.83,0.66-3.48,1.14-0.71,3.41c2.83,2.31,5.33,1.15,0.72,3.5c-2.47,1.26-0.34,3.17-1.26,3.76
		c-1.2,0.77-1.35,1.92-1.02,3.08c0.68,2.46,0.13,5,0.74,7.44c-0.88,0.27-1.13-0.39-1.62-0.6c0.49,0-2.48-0.73-2.02,1.44
		c0.9,4.27,3.89,6.27,3.05,11.75c-0.1,0.66,0.19,1.43-0.04,2.01c-1.17,2.89-0.64,5.7,0.22,8.49c1.81,5.84-0.81,2.64-2.18,4.02
		c-0.65,0.65,0.63,1.63,2.94,3.99c1,5.29,1.48,10.56,5.56,13.46c3.71,2.64-4.38,2.85,3.04,5.98c-0.86,2.28-1.2,1.89,1.26,3.39
		c0.87,0.53,0.3,1.65,0.87,2.15c0.63,0.55,1.02,1.42,1.85,1.88c2.48,1.36,1.84-5.28,4.67-1.5c1.4,1.87,3.17,2.76,5.45,2.25
		c3.29-0.73,1.7,2.27,20.46,1.26c0.11-0.01,5.56-1.64,9.24-1.45c4.74,0.24,14.81-1.05,16.85-5.33c2.56,0.68,9.05-2.02,11.47-3
		c1.68-0.68,3.73-0.35,5.1-1.86c5.53,0.61,6.98,1.82,10.26,1.6c7.2,10.23,16.59,10.3,20.93,14.7c4.34,4.4,18.19,7.03,25.16,6.73
		c3.87-0.17,1.63,1.46,22.87,9.18c3.32,1.21,2.07,1.13,31.34,0.67c3.79-0.06,6.52,1.68,12.25,2.54c8.26,1.24,10.89,4.76,17.97,3.53
		c2.79-0.48,30.26,7.04,50.22,0.37c1.44-0.48,8.55,0.03,17.02-1.78c4.34-0.93,26.32-0.81,27.77-0.32
		c1.12,0.38,12.25,7.46,25.26,7.46c25.2,0,13.11-1.78,24.15,3.03c3.31,1.44,6.29,1.79,10.86,3.77c2.05,0.89,4.07,0.91,6.16,0.63
		c2.13-0.29,2.39-0.62,2.9-3.25c0.1,0-0.1,0.01,0.89,0.43c7.29,3.07,9.24-3,6.34-5.54c0.54-2.24,1.52-4.39-0.99-5.29
		c-1.39-0.49-0.45-1.42-1.1-2.21c-5.33-6.52-3.69-3.54-19.66-12.87c-2.73-1.59-9.1-11.17-13.74-10.47
		c-0.11,0.02-26.17-0.08-30.39-0.49c-7.62-0.74-4.42-1.6-9.03-2.21c-7.74-1.03-40.51,3.97-50-0.01c-1.25-0.52-0.7-0.66-2.83-0.66
		c-4.99,0-13.6-5.17-30.74-9.09c-28.07-6.41-14.9,4.03-34.35-12.13c9.47-9.81,10.77-10.54,12.3-13.87c18.04,0,15.04,0.15,17.17-0.15
		c25.37-3.62,50.33-23.34,58.96-19.83c1.56,0.63,1.52,1.52,2.94,2.16c1.6,0.72,9.32,0.98,12.15,0.37
		c7.37-1.59,23.96,5.93,23.08-2.15c-0.15-1.39,3.41-0.24,4.68,0.13c4.38,1.29,4.74,2.05,12.64,0.46c1.77-0.36,2.7-1.96,2.22-3.71
		c-0.14-0.52-0.59-0.95-0.88-1.41c0.95-2.9,0.42-3.49-2.11-3.74c-12-1.22-14.48-2.55-21.43-3.05c-5.52-0.4-4.26-3.71-8.63-3.04
		c-1.92,0.29-2.65-0.07-14.25-1.13c-1.29-0.12-3.71,1.44-8.24-0.26c-3.56-1.34-8.89-0.8-11.58,0.26c-2.54,1-9.67,1.61-14.76,2.58
		c-5.09,0.97-10.74,3.43-20.55,3.96c-14.18,0.76-12.32,1.94-16.23,1.88c-0.48-0.01,4.38-13.58,10.9-16.72
		c5.46-2.63,9.51-6.18,18.9-13.19c4.09-3.06,21.13-5.8,21.24-5.83c6.27-2.06,7.05-2.7,9.35-2.14c12.55,3.04,19.9-14.4,35.52-17.7
		c4.65-0.98,7.17-2.79,13.26-4.3c4.08-1.01,9.58-0.72,15.28-4.51c6.49-4.31,39.1-7.7,37.06-13.81c-4.57-13.7-5.94-9.4-9.43-19.79
		c19.91-10.46,11.84-15.38,16.73-8.19c2.63,3.87,1.72,0.9,4.81,5.38c28.2,40.82,24.71,37.04,33.26,63.69
		c-1.8,2.21-3.27,2.68-2.35,5.18c1.48,4.04,1.46,10.93,3.39,14.2c2.11,3.58,0.87,6.68-0.19,10.94c-6.68,3.9-14.09,21.24-16.73,28.47
		c-5.65,15.47-0.51,14.88-10.35,21.22c-4.85,3.13-3.83,15.61-0.2,20.23c0.55,0.7,0.98,0.73,9.36,3.33c1.05,2.68,0.34,2.5,10.57,4.52
		c52.75,10.39,55.98,9.76,110.33,9.32c34.3-0.27,36.17,1.44,72.46-3.53c28.62-3.92,60.12-9.9,59.86-10.16
		c5.1,0.44,12.61-5.66,12.55-7.91c-0.11-4.53,1.64-8.87,1.28-13.25C789.86,537.2,789.78,535.43,786.43,535.27z M107.5,480.43
		c-0.6-0.83,0.68-1.71,1.39-0.23C109.39,481.24,107.9,480.99,107.5,480.43z M107.7,505.16c-0.87-0.47-0.67-1.15-0.22-1.97
		C109.48,504.8,109.68,504.17,107.7,505.16z M109.69,539.57c-0.18-0.05-0.35-1.04-0.39-1.23c0-0.42,0.59-0.13,0.75,0.08
		C110.79,539.4,110.13,539.71,109.69,539.57z M110.22,495.67c0.63-0.17,0.43-0.35,0.88,0.4
		C110.36,496.31,110.55,496.35,110.22,495.67z M111.2,489.78c-2.28,2.02-0.96,4.91-2.61,0.27c3.12-1.47,3.15-1.01,2.37-3.73
		c2.06-0.17,2.17-0.11,2.85,1.26C114.54,489.02,113.04,488.15,111.2,489.78z M116.42,544.3c0-0.43,0.41-0.49,0.98-0.88
		c0.26,0.47,0.49,0.81,0.58,1.18C118.1,545.08,116.34,545.23,116.42,544.3z M498.8,305.3c4.42,1.48,13.62,1.51,18.63,3.18
		c5.78,3.47-12.54-1.35-57.54,20.57c-4.44,2.16-4.3,0.55-9.72,2.4c-12.52,4.29-6.72,5.46-14.64-4.66
		C435.63,326.73,493.08,303.38,498.8,305.3z M359.08,382.39c0.6-1.19,1.15-2.83,1.19-2.93c0.73,0.68,0.93,3.12-1.06,2.84
		c-0.61,1.22-0.4,0.96-3.68,2.71C353.74,383.6,357.83,383.01,359.08,382.39z M360.22,384.17c0.59,1.63-3.25,3.95-5,4.66
		c-0.1,0,0.08,0.34-0.5-1.78C354.83,386.99,359.5,384.55,360.22,384.17z M357,390.39c-0.61,0.65-1.07,1.15-1.64,1.77
		C355.07,390.57,355.13,390.57,357,390.39z M123.74,505.43c0.87-1.39,2.65,0.78-0.37,0.78
		C123.47,506.09,123.64,505.43,123.74,505.43z M122.36,492.21c0.38,2.53,1.44,4.75,1.07,7.44c-0.56-0.91-1-1.31-0.94-1.6
		C122.84,496.23,120.66,494.65,122.36,492.21z M123.36,506.22c-0.08,0.24,0.2-0.51-1.11,1.53
		C122.08,507.02,122.04,506.22,123.36,506.22z M123.68,511.78c1.45,1.42,1.21,1.14,1.21,1.24c-3.2,4.88-2.04,4.87-3.49,3.03
		C123.21,513.29,122.6,514.38,123.68,511.78z M122.12,550.04c0.15-0.23,0.1-0.25,0.19,0.03L122.12,550.04z M123.38,534.87
		c0.88,1.84-0.51,3.01-0.33,4.51C119.01,538.03,119.42,538.6,123.38,534.87z M125.36,547.79c-1.11-0.05-1.84-0.28-2.55-1.52
		C126.08,547.23,125.64,546.86,125.36,547.79z M125.91,529.31c-0.96,1.54-1.99,0.27-3.57-0.84c1.97-1.67,1.82-1.8,2.55-1.36
		C125.67,527.58,126.19,528.86,125.91,529.31z M125.82,496.47c0,0.07-0.03,0.16-0.05,0.24C125.42,496.5,125.82,496.26,125.82,496.47
		z M126.22,551.86c0.7-0.35,0.44-0.47,0.97,0.38C126.31,552.36,126.81,552.45,126.22,551.86z M129.66,506.3
		c-0.86,0-1.29-0.34-1.54-1.02c-0.01-0.04-0.09-0.26-0.09-0.27c-1.15-0.29,0.02-0.62-1.11-1.06c-0.93-0.35-0.56-0.82-0.45-0.82
		c0.65-0.13,0.7,0.89,0.99,1.03c0,0.04,0.68-0.15,0.81,0.59C129.2,505,129.76,506.35,129.66,506.3z M133.44,507.53
		c2.08,1.86,3.1,3.02,4.24,4.59C135.16,511.56,134.64,510.99,133.44,507.53z M138.18,521.23c1.04-0.02,0.8,0,1.49,0.89
		c-0.38,0.04-0.73,0.13-0.85,0.13C138.32,522.25,137.76,521.23,138.18,521.23z M138.98,544.71c0-0.76-0.05-1.07,0.65-1.17
		c1.58,0,0.25-4.18,1.98-3.29C142.95,540.95,141.05,542.13,138.98,544.71z M142.41,526.93c-0.56,0.43-1.04,0.52-1.37-0.1
		C140.69,526.16,142.01,525.29,142.41,526.93z M141.93,515.01c1.57,0.6,1.11,0.19,1.86,1.39
		C142.58,516.82,142.51,516.02,141.93,515.01z M141.63,551.41c1.03-1.24,1.2-1.26,3.25,1.07
		C143.67,552.93,143.08,553.34,141.63,551.41z M146.34,544.19c0.41-1.32,0.98-0.87,1.86-0.71
		C147.85,544.63,147.1,544.27,146.34,544.19z M146.79,525.39c0.67-0.11,0.52-0.15,0.8,0.13
		C146.98,525.75,147.11,525.86,146.79,525.39z M148.69,554.33c-0.13-0.12,0.07-0.58,0.13-0.99c0.71,0.27,1.31,0.51,2.01,0.79
		C150.01,555.09,149.3,554.92,148.69,554.33z M150.86,538.33c-0.5-1.74-0.42-1.8,1.07-1.91
		C152.36,536.93,152.35,537.8,150.86,538.33z M156.19,545.93c0,0-0.09-0.12-0.13-0.18C156.44,545.56,156.78,545.64,156.19,545.93z
		 M159.98,550.74c0.82-0.89,1.51-0.39,2.32-0.11C161.46,551.4,160.76,551.19,159.98,550.74z M196.49,544.76
		c-10.8-2.23-7.57,1.38-10.25-2.25c-4.93,0.15-5.61,0.26-5.8-0.02c-1.18-1.72-3.27-1.54-5.06-2.29c0.01-2.15,0.1-4.17,1.47-5.93
		c3.8-4.87,1.92-9.8-1.62-8.3c-0.88,0.37-0.85-0.04,1.22,2.74c-0.26,1.83-1.87,5.83-3.19,6.6c-6.18,3.57-2.62,14.06-19.55,3.56
		c-0.21-1.5,0.28-0.12,3.27-9.58c2.83-2.4,10.95-4.84,9.43-6.51c-0.67-0.82-1.95-0.09-2.65-1.07c1.19-3.51,1.71-3.47,0.76-4.32
		c-2.13,1.58-3.2,3.73-7.58,2.78c-11.7-2.53-22.05-17.95-25.5-18.77c-4.06-0.97,0.93-3.78-3.96-9.85c-0.71,0.85-0.49,0.33-0.96,2.08
		c-1.17-2.19-1.72-4.23-2.18-6.37c1.44-1.97,1.06-1.17,1.64-3.67c4.28-0.46,8.33-1.75,12.2-3.59c9.86-4.71,4.23,5.33,16-1.58
		c5.33-3.13,12.14-8.49,12.54-2.95c0.44,6.03,0.72,4.86-1.4,5.98c0.99,1.4,1.97,1.58,2.99,1.2c2.78-1.05,1.63-4.1,1.36-5.47
		c3.11-0.89,3.98-1.51,5.36-0.17c1.45,1.4,2.23,5.41,2.75,6.03c1.24,1.46,2.84,0.24,2.16-1.23c-0.35-0.75-0.68-1.04-1.86-3.03
		c3.78-4.82,4.88,1.62,9.91-0.45c14.48-5.94,5.35,13.18,14.74,17.65c7.23,3.44,6.02,2.07,7.88-0.64c0.82-1.19,2.57-2.66,7.15-10.35
		c7.01-11.74,21.49-30.9,15.73-16.25c-5.23,13.3-31.7,37.69-32.89,50.9c-0.12,1.3,0.22-2.32-3.21,11.97
		c-1.01,0.83-1.95-0.02-2.81,0.2c-0.89,0.23-1.71,0.76-2.62,0.91c-2.14,0.36-4.61-0.59-5.61,1.58c3.52,1.17,4.77-0.56,5.18-0.61
		c7.07-0.89,5.32-1.9,5.79,5.16C197.7,544.29,198.32,545.13,196.49,544.76z M155.01,526.32c-0.15,0.08-0.27-0.02-0.39-0.13
		C154.96,526.19,155.35,526.32,155.01,526.32z M155.56,530c-0.29,0.61-0.64,0.52-0.72,0.77c-0.33,0.16-0.07,0.16,0.03-0.55
		C154.87,529.72,155.92,529.25,155.56,530z M490.58,578.55c1.17,0.75,3.01,0.81,3.6,2.59c1.66,0-1.04,1.07-5.73-2.48
		C489.41,578.6,490.17,578.29,490.58,578.55z M479.62,572.7c0.26,0.31,0.28,0.24-0.08,0.08
		C479.24,572.52,479.18,572.52,479.62,572.7z M310.87,541.21c1.56,0.78,3.02,1.66,4.23,3.4c-3.12,0.48-5.97-0.29-5.99,1.26
		c0,0.46,0.39,0.96,1.45,0.97c21.88,0.22,40.22,7.7,70.36,14.19c13.32,2.87,19.27,1.25,37.88-0.38c16.42-1.44,6.36,3.35,39.87,2.96
		c8.9-0.1,7.68-3.05,14.68,3.06c1.06,0.93,3.24,3.31,4.25,4.82c0.87,0.39-0.85-0.1-0.72-0.85c-23.93-11.98,19.49,16.6,23.62,17.06
		c0.32,0.03,0.84,0.66,0.89,0.97c0.07,0.42-0.13,0.69-0.57,1.75c-1.21-0.91-3.34-2.49-4.83-3.08
		c-11.88-4.74-24.04-12.57-25.44-10.34c2.27,2.65,18.67,9.32,31.42,16.52c-0.12,0.41-0.58,2.44-1.01,2.12
		c-2.72-2.3-0.87,4.71-35.03-16.71c-0.47,2.33-1.47,1.81,17.93,13.44c11.64,6.98,8.21,5.49-7.26,0.48
		c-3.86-1.25-3.91-3.56-13.67-3.37c-12.01,0.23-19.1,0.78-33.34-6.83c-3.95-2.11-3.95-1.54-20.65-0.95
		c-7.06,0.25-7.93-0.28-13.54,1.11c-12.61,3.13-50.84,5.94-56.76,2.33c2.31-1.3,1.88-0.93,1.99-1.61c-3.65-1.67-5.59,2.68-16.64,0.2
		c-2.2-0.49-2.27-1.22-3.15-2.4c-22.78-2.28-4.16-4.04-46.29-2.87c-3.73,0.1-22.76-8.67-26.04-10.45
		c-18.57,2.15-25.33-7.35-29.71-8.54c-6.98-1.9-14.7-9.46-17.47-14.79c-4.52-8.71,1.98-27.21,2.89-28.74
		c0.31-0.52,10.19-13.04,23.74-19.11c7.89-3.53,14.76-4.18,24.86-1.3c3.79,1.08-1.11,11.32-2.42,14.63c0,0.2-0.68,1.2,0.14,3.01
		c0.68,1.51,0.26,3.43,1.68,4.67C265.28,529.16,257.92,514.82,310.87,541.21z M265.53,510.92c2.15,3.53,2.39,6.01,0.21,10.07
		c-1.81-0.14-3.59-0.08-4.22-0.77c-2.31-2.5-8.89-5.87-8.79-5.77c1.4,0,5.5-13.19,5.53-13.29c1.71,1.24,3.36,3.07,4.65,5.12
		c2.58,4.12-0.99,1.87-1.59,4.76C262.78,511.82,261.65,512.01,265.53,510.92z M453.06,497.06c-1.22,0-2.42,0-3.9,0
		C450.91,496.22,450.91,496.26,453.06,497.06z M442.72,495.32c1.55-0.04,2.19-0.3,3.33,0.55c0.53,0.02,1.07,0.02,1.81,0.02
		c-1.09,0.99-1.53-0.01-2.01-0.01C445.63,495.6,442.31,495.4,442.72,495.32z M344.02,496.8c10.2-1.83,9.48,0.04,22.82-3.04
		c5.91-1.37,5.46-1.95,17.8-3.5c5.63-0.71,5.59-1.9,8.75-2.15c7.89-0.63,16.59,3.24,24.5,2.74c8.21-0.52,6.13-0.92,8.2,0.76
		c8.08,6.55,25.84,7.8,27.32,8.54c-9,3.36-9.44-0.17-18.59-0.17c-2.88,0-6.4-1.38-6.81-1.32c-2.21,0.32-3.44-0.94-4.81-2.33
		c-3.96-4.04-2.31-3.4-7.25-3.4c-0.57,1.26,1.17,1.24,3.56,1.54c4.47,6.31,10.56,5.96,14.83,8.93c-4.06,2.91-5.38-2.76-29.52-0.65
		c-3.05,0.27-4.18-1.9-5.31-3.58c-0.73-0.65-1.89-0.6-1.94-0.5c-0.33,0.51-0.85,0.57-1.41,0.56c-9.89-0.24-35.15,16.01-55.49,19.95
		c-2.54,0.49,1.35,0.39-17.26,0.31c2.91-8.06,8.08-14.42,12.25-21.43C338.61,498.08,341.29,497.29,344.02,496.8z M370.55,459.35
		c-5.05,0.16-5.23,3.53-21.67,14.29c-6.41,4.19-6.53,7.02-9.57,8.58c-1.23,0.63-17.86,37.52-22.47,42.06
		c-12.1,11.91-10.21,10.62-12.64,9.45c-3.74-1.81-5.21,0.3-7.7-2.62c-3.62-4.24-27.78-8.23-27.6-9.83c0-4.33,5.31-6.55-10.28-23.86
		c1.31-20.57-3.3-4.73-3.88-3.82c-36.63-12.68-54.31,30.26-48.96,16.74c0.25,0.07,0.91-0.51,0.91-0.77
		c1.71-5.61,41.06-45.45,29.44-48.88c-2.29-0.67-3.7,1.04,7.78-10.46c2.16-2.17,2.15-3.82,5.26-4.14
		c20.26-2.08,0.36,4.13,27.1-16.92c12.54-9.87,18.49-6.43,56.52-35.21c5.94-4.49,16.37-9.38,18.13-9.63
		c1.5,0.63,1.58,2.04,1.74,4.25c2.37,32.68,2.38,23.85,15.86,53.93c1.45,3.25,1.19,3.66,1.48,6.28
		C372.46,450.89,376.92,459.15,370.55,459.35z M372.48,444.95c4.82,0.86,3.65,0.01,5.21,3.37c-0.54,1.21-1.82,0.95-4,0.56
		C372.56,448.68,372.88,449.38,372.48,444.95z M375.63,452.84c1.8-1.29,1.77-1.26,3.87-0.39c-0.79,1.25-2.11,1.3-3.29,1.7
		C375.97,453.62,375.8,453.22,375.63,452.84z M490.16,406.95c8.25,14.29,9.49,9-11.62,15.84c-6.94,2.25-11.64,1.88-16.27,4.97
		c-8.95,5.98-14.94,3.47-23.75,7.67c-1.69,0.81-9.02,3.01-10.96,3.53c-9.97,2.66-20.56,19.01-31.82,15.08
		c-5.63-1.96-9.23,2.53-10.37,2.35c-4.85-0.75-7.7,4.11-8.68-0.18c4.24-1.64,3.04-1.58,5.41-0.51c0.72-3.11,1-2.21-0.85-3.93
		c0.99-1.25,0.87-0.45,0.46-3.58c-0.13,0-0.39-0.41-0.2-0.22c0.57,0.85,5.05-0.22,7.52-1.48c5.16-2.64,3.23-4.25,7.05-4.7
		c0.1-0.01,7.54-1.05,7.54-0.4c-1.96,4.9-6.49,4.9-17.42,8.92c-9.67,3.56,23.18-1.05,19.78-9.43c-1.85-4.55-18.07,0.86-20.35,3.05
		c-1.9,1.83,0.44,1.3-5.1,2.74c-2.42-4.76-1.68-4.53-3.31-2.77c-1.66,0.59-3.36-1.05-5.03,0.02c-2.78-3.64-7.43-13.82-7.43-14.97
		c1.65-0.57,3.17-1.09,4.75-1.63c1.51,1.18,1.61,3.58,3.45,4.48c1.94-0.84,0.34-1.86,0.36-2.97c0.02-1.17,10.65-7.09,11.7-7.65
		c0.04-5.22-10.3,3.91-13.28,5.4c-10.56-11.69-4.28-24.81-11.03-21.02c0.1,0-0.36-0.19,1.95,0.99c0.43,3.32,0.22,1.87,0.81,4.85
		c-3.17,0.79-2.86,0.62-2.86,0.72c0.08,0.54-0.42,0.41,3.17,0.41c0.78,2.31,1.51,4.48,2.24,6.65c-1.41,1.03-3.54,0.4-4.71,2.17
		c4.02,1.71,5.45-2.89,7.23,3.74c-1.06,1.71-2.76,1.42-4.34,1.67c-1.05-1.15-1.18-2.93-2.78-3.45c-0.04-0.1-2.27-5.55-1.43-4.47
		c0.03-0.07,0.02-0.07-0.04-0.07c-3.9-7.32-5.32-23.59-3.87-23.99c4.79-1.31,3.7-1.35,17.77-18.12c-0.84-0.9-0.74-0.79-9.67,6.68
		c-4.22-6.08,4.29-13.95,2.32-9.83c-0.08,0.16-1.11,3.5-1.39,4.52c-0.37,1.36,0.89,1.85,1.09,1.25c0.88-2.65,1.85-5.26,2.81-8.04
		c-0.96-0.86-1.8-1.98-3.34-2.01c-6.04,7.77-6.02,5.89-2.38,0.52c0.07-0.1,17.07-8.16,13.62-13.06c7.49-12.93,7.82-7.02,19.44-12.65
		c3.5-1.69,7.13-2.33,11.57-5.68c9.74-7.36,16.26-7.08,23.13-11.38c2.67,2.46,4.25,5.46,6.49,8.31c-6.69,2.44-7.76,0.02-12.7,3.47
		c-16.23,11.33-26.74,6.79-29.52,14.07c0.35,1.26,1.67,0.86,2.47,0.02c3.14-3.33,17.27-3.62,26.93-10.86
		c6.89-5.16,9.28-1.46,22.06-6.87c12.04-5.09,7.86-4.11,9.81,5.39C456.57,340.61,490.1,406.84,490.16,406.95z M599.19,476.54
		c0.15-0.15,1.36-0.33,1.46-0.33c1.68-2.52-3.49,6.04-7.63,6.26C581.98,483.05,588.12,482.71,599.19,476.54z M586.25,485.92
		c14.71,3.62,18.88-16.43,25.29-24.22c3.29,0.3,3.79,3.6,5.77,4.99c0.53,2.1-2.83,6.35-4.33,10.75c-0.66,1.94,1.65,3.14,3.01,1.96
		c1.77-1.54,2.96-4.37,5.35-9.3c1.43,0.34,2.29,1.25,3.34,2.16c-0.81,1.68-1.61,3.23-2.31,4.81c-2.05,4.61,0.87,5.23,2.01,3.84
		c1.75-2.14,1.73-4.18,3.43-6.96c5.57,1.9,0.93,1.06-0.66,9.33c-0.38,1.96,1.6,3.08,3.08,1.98c2.59-2.59,3.32-8.44,5.51-8.23
		c0.23,0.67,0.72-0.15-1.7,5.52c-1.71,4.01,1.63,5.39,3.41,2.13c1.35-2.48,2.59-6.17,2.63-6.27c4.19,1.01,3.49,0.15,1.7,4.02
		c-1.93,4.18,1.65,5.74,3.56,1.76c2.64-5.49,0.44-4.41,7.32-4.48c6.75-0.07,7.64,0.93,11.78-0.45c8.29-2.76,9.27-3.06,10.73-1.13
		c2.54,3.36,3.91,5.54,2.74,8.13c-1.92,4.24,3.38,12.24-19.53,23.39c-3.96,1.93-16.12,3.86-22.9,3.85
		c-11.51-0.03-4.82,2.43-41.75,7.87c-3.14,0.46-7.65-1.6-13.21-3.04c-3.79-0.99-6.44-3.56-9.24-6.01c3.74-7.9,0.1-6.43,1.99-11.7
		c0.37-1.04,0.17-3.74,0.86-4.33c1.73-1.49,0.19-2.56,1.29-8.42c0.92-4.89-1.63-5.59,0.46-10.63
		C582.3,481.32,577.67,483.81,586.25,485.92z M569.02,456.9c1.4,1.64,0.61,0.2,2.98,5.05c-3.86,0.28-7.22,1.4-11.32,0.24
		C555.24,460.67,564.19,462.66,569.02,456.9z M532.03,420.6c-4.3-3.91-1.74-4.82-9.23-15.45c-2.83-4.02-7.56-9.17-8.15-10.88
		c-1.84-5.33-5.06-2.46-8.18-10.88c7.57-4.64-2.12-0.09,10.34-7.99c11.79-7.47,10.59-6.96,10.99,2.8
		c0.95,23.3,22.73,45.47,38.16,72.78c2.18,3.85,2.49,2.53-1.12,5.26c-3.68-2.73-5.03-4.2-6.34-3.17c-0.28,0-0.76,0.99,0.56,2.44
		c1.76,1.94,2.35,1.42,0.94,1.89c-3.64,1.46-4.85,0.19-12.24,0.41c-1.43-4.22-0.96-4.83-1.93-7.68
		C543.98,444.65,536.3,424.48,532.03,420.6z M548.55,460.49c9.1-1.47,1.53,6.27,21.63,4.98c1.15-0.07,1.95-0.78,2.05-2.12
		c1.41,1.75,2.97,5.12,4.11,8.87c-1.13,1.16-3.13,1.72-2.91,3.96c-1.8,0.74-3.3,1.42-3.98,3.19c-0.28,1.12-0.66,1.03,2.28,1.03
		c0.88,3.05,0.79,10.07-1.46,13.46c-4.07,0.88-14.57,0.04-22.62-1.83c1.71-8.57,2.19-9.03,1.21-13.58
		C544.74,459.29,541.88,461.57,548.55,460.49z M791.36,551.99c2.4,14.84-142.39,31.04-252.27,11.68c-0.43-0.08-7.22-1.31-7.85-1.62
		c-13.58-6.65-12.28-5.44-12.76-7.91c-0.68-3.51-1.6-12.06,0.76-14.96c1.35,2.54,1.06,3.19,3.89,5.1c3.89,2.64,10.31,2.33,9.3,2.33
		c-5.13-1.78-9.65-2.59-11.23-7.84c0.74-0.84,1.81-1.5,2.69-0.82c1.12,0.87-0.28,1.27-0.03,2.73c8.3,5.05,17.06,4.53,18.75,6.22
		h0.01c12.85,0-17.49-2.08-16.11-9.37c1.22-6.46,1.85-14.75,4.87-22.11c4.68-11.41,1.03,2.85,19.54,1.84
		c-0.67,0-11.4-1.66-16.14-8.08c2.76-5.58,6.37-10.7,9.68-16.26c3.51,3.39,10.37,4.52,10.11,4.25c1.59-0.8-1.05-1.06,14.68,0.38
		c1.12,0.1,0.7,2.37,0.46,3.06c-1.52,4.32,1,5.47-0.82,8.88c-1.56,2.91,0.42,4.59,5.73,9.8c1.08,1.06,4.22,1.42,12.54,4.16
		c4.69,1.55,7.82,1.25,21.39-1.13c8.56-1.5,4.05-2.1,8.46-2.73c2.4-0.34,5.14-0.31,6.9-1c8.55-3.37,9.67-0.21,24.84-2.83
		c12.78-2.21,12.06-4.44,13.44-5.34c1.06-0.69,4.82-2.04,8.65-4.91c9.68-7.24,9.56-15.85,11.15-21.29c0.34-1.17-0.06-2.32-0.72-3.33
		c-3.25-4.98-4.99-8.97-10.71-7.19c-22.27,6.89-45.9-2.43-54.19-13.17c8.39-3.1,49.74-3.97,64.08-1.08
		c78.69,15.89,78.79,36.19,84.97,33.11c7.1,5.37,3.64,7.11,6.74,8.9c3,1.74,10.39,11.55,9.77,13.07c-0.66,1.61,1.7,9.92,2.8,20.31
		c1.54,14.48-58.46,16.46-59.17,16.7c-7.03,0,53.76,2.39,60.35-13.68c4.14,1.98,5.23,2.08,4.83,3.93
		c-23.92,9.55-29.4,12.31,0.41,1.46C793.38,546.29,790.73,548.09,791.36,551.99z"/>
	<path d="M136.89,158.38c-2.34-0.41-2.31,2.49-2.23,4.61c0.36,9.31,0.29,10.36,5.41,14.78c0.71-7.35-3.16-4.56-2.05-11.28
		C138.98,160.67,138.99,158.75,136.89,158.38z"/>
	<path d="M145.56,162.99c-0.97-2.54-2.23-1.92-4.17-1.81c-2.39,0.15,1.88,10.12,3.89,9.18c0.29-0.14,0.85-1.03,0.55-1.8
		C144.77,165.88,146.42,165.22,145.56,162.99z"/>
	<path d="M169.98,198.75c0.62,1.03,0.46,0.74,0.93,1.53c3.16-0.61,9.85-0.69,11.12-9.64c0.11,0-1.2,0.89-1.89,1.62
		C173.5,199.42,178.47,194.17,169.98,198.75z"/>
	<path d="M548.75,360.71c3.32,6.4,4.73,9.05,7.38,9.96C551.56,357.61,548,359.26,548.75,360.71z"/>
	<path d="M195.26,192.51c-0.69-0.8-1.12-1.48-1.86-1.24c-4.24,1.42-5.15,1.79-6.59,3.03C185.24,195.68,187,198.02,195.26,192.51z"/>
	<path d="M526.05,313.39c0.14,1.19,4.12,1.09,5.31,0.89c0.82-0.14,0.9,0,0.31-1.03C531,312.07,525.85,311.73,526.05,313.39z"/>
	<path d="M562.12,391.95c-2.21,2.55,2.73,6.32,2.05,2.26C563.79,391.97,562.56,391.43,562.12,391.95z"/>
	<path d="M207.45,185.07c-1.27-0.42-4.37,1.08-3.96,1.86C204.6,189.02,209.14,186.04,207.45,185.07z"/>
	<path d="M558.56,380.08c1.38-0.82,0.57-2.99-0.61-4.09C555.56,378.16,557.95,380.45,558.56,380.08z"/>
	<path d="M583.62,466.4c-0.29,0.37-0.82,0.72-0.78,1C583.56,473.41,587.32,468.88,583.62,466.4z"/>
	<path d="M506.06,367.34c-1.44,0.58-1.28,1.36-0.82,2.2C510.74,367.06,509.44,365.98,506.06,367.34z"/>
	<path d="M556.92,324.13c2.51-0.23-0.5-2.86-3.11-1.72C554.31,323.72,555.69,324.24,556.92,324.13z"/>
	<path d="M581.36,463.37c1.38-1.93-1.07-3.84-1.35-2.66C579.64,462.32,580.01,463.64,581.36,463.37z"/>
	<path d="M537.81,355.75c0.73-0.28,1.24-0.69,1.24-1.67c-3.18-0.88-2.38-1.09-4.23,0.66C536.25,354.65,537.06,355.36,537.81,355.75z
		"/>
	<path d="M579.08,457.95c0.17-0.34,0.39-0.72,0.37-1.08c-0.22-3.63-3.85,0.12-1.05,1.24C579.02,458.36,578.85,458.42,579.08,457.95z
		"/>
	<path d="M513.84,364.5c2.26-0.56,2.23-0.59,2.81-2.05C514.84,362.8,512.4,363.35,513.84,364.5z"/>
	<path d="M559.89,387.11c0.82,0.14,1.74-2.11-0.41-2.65c-0.18,0.31-0.54,0.65-0.6,1.03C558.78,386.21,559.33,387.01,559.89,387.11z"
		/>
	<path d="M163.98,184.14c-0.17,2.34,2.21,0.56,1.74-1.55C164.49,183.34,164.02,183.63,163.98,184.14z"/>
	<path d="M533.39,361.37c0.86-0.63,1.13-1.36,0.6-2.3C532.69,359.81,532.69,359.81,533.39,361.37z"/>
	<path d="M520.41,360.17c0.42,0.33,0.15,0.22,0.74,0.52C524.16,360.69,522.27,357.85,520.41,360.17z"/>
	<path d="M597.12,449.93c-0.09-2.89-1.47-2.92-1.24-1.43C595.96,449.02,596.34,449.49,597.12,449.93z"/>
	<path d="M522.03,314.97c-1.26-1.17-2.77,0.33-2.12,0.91C520.54,316.37,521.58,316.08,522.03,314.97z"/>
	<path d="M161.2,189.06c-0.2,1.59,2.41,0.26,1.9-1.4C162.89,186.74,161.36,187.79,161.2,189.06z"/>
	<path d="M563.96,347.74c0.71,0.49,1.57-0.67,0.44-1.49C563.36,345.5,562.22,346.56,563.96,347.74z"/>
	<path d="M560.21,342.5c-2.59-1.77-1.83,0.65-0.64,0.53C559.74,343.01,559.88,342.77,560.21,342.5z"/>
	<path d="M550.39,322.02c0.27-0.83,0.5-0.79-0.94-1.06c-0.16-0.03-0.34,0.45-0.16,0.53C549.64,321.7,550.01,321.85,550.39,322.02z"
		/>
	<path d="M192.16,169.02c-0.68,0.4-0.54,0.26-0.42,0.87C192.37,169.56,192.36,169.78,192.16,169.02z"/>
	<path d="M565.88,400.4c-0.32-0.5-0.06-0.47-0.8-0.22C565.57,401,565.36,400.96,565.88,400.4z"/>
	<path d="M553.28,16.36c-0.01-0.02-0.02-0.04-0.02-0.07C553.17,16.24,553.07,16.28,553.28,16.36z"/>
	<path d="M186.25,534.25c-0.01,0.03-0.03,0.06-0.04,0.09C186.37,534.34,186.4,534.29,186.25,534.25z"/>
	<path d="M154.8,536.35v-0.01C154.72,536.45,154.7,536.46,154.8,536.35z"/>
	<path d="M569.19,480.28l0.07,0.07C569.26,480.25,569.31,480.33,569.19,480.28z"/>
	<path d="M719.27,251.53c-0.1,0.02-45.26,1.37-45.63,1.44c3.87,3,22.32-0.41,42.84-0.14C724.22,252.93,723.89,250.8,719.27,251.53z"
		/>
	<path d="M769.17,212.06c1.22-0.11,19.72-3.24,18.41-5.33C782.27,208.21,757.42,214.02,769.17,212.06z"/>
	<path d="M766.19,212.21c-0.16,0-0.19,0-0.16,0.03c-0.03-0.02-0.06,0-0.23,0.07c0.1,0,0.19,0,0.29-0.01
		C766.13,212.28,766.16,212.24,766.19,212.21z"/>
	<path d="M765.85,248.12c-12.04,1.42,0.9,1.86,5.52-0.02C769.52,247.93,767.67,247.91,765.85,248.12z"/>
	<path d="M561.39,189.94c-1-0.4-2.31,0.15-0.33,0.99C569.65,193.8,570.91,193.8,561.39,189.94z"/>
	<path d="M727.54,246.8c0,0.25-1.15,0.17,10.31,0.17C737.85,246.72,738.99,246.8,727.54,246.8z"/>
	<path d="M740.6,250.31c2.96,0.41,5.29,0.65,8.1-1.03C739.9,250.53,738.07,249.96,740.6,250.31z"/>
	<path d="M765.81,212.31c-1.51,0.05-3.02,0.1-4.54,0.15C762.8,212.65,764.35,212.99,765.81,212.31z"/>
	<path d="M754.72,213.11c-1.88,0.27,2.69,0.45,2.69-0.03C754.74,213.08,755.39,213.06,754.72,213.11z"/>
	<path d="M563.06,212.39c-4.92-0.11,6.1,0.41,0.16,0.01C563.16,212.39,563.11,212.39,563.06,212.39z"/>
	<path d="M561.46,212.22c0.01-0.02-0.03-0.01-0.21-0.01c0.04,0.03,0.09,0.06,0.14,0.08c0.01-0.01,0.01-0.01,0.01-0.01
		c-0.02,0.03,0.05,0.01,0.32,0.03c-0.08-0.03-0.17-0.05-0.25-0.1C561.47,212.21,561.47,212.21,561.46,212.22z"/>
	<path d="M756.71,201.37c0-0.1,0.28-0.07-2.56-0.07C754.16,201.4,753.87,201.37,756.71,201.37z"/>
	<path d="M761.75,200.65c-2.24,0-1.99-0.03-1.99,0.1C762,200.75,761.75,200.78,761.75,200.65z"/>
	<path d="M628.12,249.04c1.51,0,1.31,0.04,1.31-0.13C627.92,248.91,628.12,248.86,628.12,249.04z"/>
	<path d="M780.83,245.54c0.1,0,0.14-0.16-0.15-0.16C780.58,245.37,780.52,245.54,780.83,245.54z"/>
	<path d="M456.75,137.19c0,0.11,5.91,53.58,5.94,53.68C465.65,185.14,460.59,142.45,456.75,137.19z"/>
	<path d="M419.62,219.48c1.61,0.96,2.49,0.26,6.95-1.91c7.84-3.81,11.03-2.27,12.46-2.81c2.87-1.09,1.14-4.18-4.29-4.51
		c-6.1-0.36-18.9,2-17.99,4.72c0.83,2.06,9.18-3.1,15.66-1.75C431.95,213.4,421.48,216.91,419.62,219.48z"/>
	<path d="M468.99,137.35c-7.33-45.16-11.51-50.13-3.28-5.58C467.2,139.8,469.44,140.09,468.99,137.35z"/>
	<path d="M440.83,81.38c-0.01,0.02,1.13,7.52,1.65,11.55C449.28,145.49,444.43,72.57,440.83,81.38z"/>
	<path d="M447.42,221.48c-6.66-0.55-19.35,5.49-25.86,5.36c-0.94-0.02-1.6,0.75-0.31,1.3c3.49,1.49,11.35-2.7,16.11-3.46
		C440.99,224.1,450.4,221.72,447.42,221.48z"/>
	<path d="M466.16,212.8c-0.21,0-1.57,0.66-2.38,1.58c-3.04,3.45-9.14,6.45-8.28,7.67c0.5,0.72,0.56,0.59,5.9-2.69
		c5.86-3.61,5.59-2.1,4.8-5C468.01,212.68,469.59,211.59,466.16,212.8z"/>
	<path d="M468.31,212.38c0.18-0.03,0.23-0.01,0.2-0.04c0.03,0.02,0.03-0.02,0.03-0.19c-0.03,0.04-0.07,0.09-0.1,0.12
		C468.39,212.29,468.35,212.34,468.31,212.38z"/>
	<path d="M496.4,190.28c-0.06,0.15,0.11,0.41,0.25,0.84c2.36-0.87,2.31-1.52,6.68-13.89c0.1-0.4-0.03-0.69-0.08-1.69
		C501.43,177.82,500.67,179.76,496.4,190.28z"/>
	<path d="M435.21,140.74c0.42-0.42,0.57-0.44,0.7-0.92c0.4-1.53-5.27-6.92-7.49-4.71C427.1,136.44,427.39,135.35,435.21,140.74z"/>
	<path d="M438.6,119.17c0.73,0.29,0.35-7.76-0.48-8.41C435.71,108.85,437.35,118.59,438.6,119.17z"/>
	<path d="M410.9,192.95c-0.06-0.07-0.12-0.15-0.18-0.22C410.68,193.27,410.57,193.16,410.9,192.95z"/>
	<path d="M469.98,210.55c-0.05,0.07-0.1,0.14-0.15,0.21C469.94,210.89,469.9,210.94,469.98,210.55z"/>
	<path d="M469.04,211.63c0.25-0.04,0.13,0.04,0.87-0.77C469.72,210.66,469.29,211.44,469.04,211.63z"/>
	<path d="M468.56,212.09c0.07-0.06,0.21-0.18,0.48-0.47C468.78,211.68,468.61,211.84,468.56,212.09z"/>
	<path d="M468.55,212.15c0-0.02,0.01-0.03,0.01-0.05C468.5,212.14,468.5,212.15,468.55,212.15z"/>
	<path d="M287.39,241.69c-0.96,0.85-2.42,0.57-3.34,1.65c-1.5,1.78-3.31,3.22-5.49,4.15c-0.3,0.13-0.79,1.2,0.11,1.2
		c2.24,0,6.26-1.54,6.67-3.74c0.48-2.63,1.18-1.43,3.32-3.08C287.99,241.75,287.53,241.55,287.39,241.69z"/>
	<path d="M431.59,248.11c-3.18,1.25-9.89-0.08-7.03,1.98c0.5,0.36,2.32,0.52,3.01,0.52C434.3,250.06,433.61,247.32,431.59,248.11z"
		/>
	<path d="M468.53,240.95c0.77,0.18,2.98,0.02,3.64-0.62c0.92-0.89-2.46-1.63-4.38-1.22c-0.63,0.13-1.14,0.85-1.78,1.02
		c-1.27,0.35-1.61-0.57-2.39,0.48C464.33,241.69,466.81,240.55,468.53,240.95z"/>
	<path d="M279.99,181.88c1.03,0.26,1.7-1.51,2.28-2.56C279.75,176.05,277.47,181.1,279.99,181.88z"/>
	<path d="M249.31,234.74c-0.12,3,2.3,4.19,3.38,3.1C253.97,236.57,251.43,234.48,249.31,234.74z"/>
	<path d="M217.17,209.56c-2.63,0.38,2.9,2.52,3.65,2.45c0.32-0.03,0.6-0.29,0.66-1.01C220.17,210.54,219.05,209.29,217.17,209.56z"
		/>
	<path d="M467.22,245.62c2.38,1.55,2.48,1.58,5.27,0.42C470.98,244.69,469.45,245.08,467.22,245.62z"/>
	<path d="M295.04,239.73c1.58,1.39,3.07,1.46,3.72-0.53C296.37,238.81,296.33,238.8,295.04,239.73z"/>
	<path d="M306.59,218.87c-0.74-0.15-1.27,1.4,0.5,1.65C308.56,220.74,309.32,218.87,306.59,218.87z"/>
	<path d="M418.96,248.96c-3.06,0.52,0.04,1.84,3.41,0.8C421.01,248.7,419.97,248.78,418.96,248.96z"/>
	<path d="M455.37,245.17c-0.82,0.02-1.27,1.21,0.55,1.34C458.83,246.72,457.27,245.13,455.37,245.17z"/>
	<path d="M458.76,239.52c-0.52-0.12-1.08-0.03-1.64,0.12C457.12,242.07,462.12,240.3,458.76,239.52z"/>
	<path d="M230.55,211.16c-0.22,0.63,0.12,1,0.71,1.27C233.06,213.24,233.79,210.62,230.55,211.16z"/>
	<path d="M290.09,241.04c1.24-0.23,2.42,0.22,3.06-1.18C291.08,239.54,291.08,239.54,290.09,241.04z"/>
	<path d="M352.01,256.02c1.6,0.44,1.6,0.44,2.56-0.82C353.34,254.84,352.52,254.79,352.01,256.02z"/>
	<path d="M314.26,219.89c-1.24-0.8-1.46-0.67-2.34,0.55C313.41,220.79,315.54,220.7,314.26,219.89z"/>
	<path d="M461.75,246.14c1.4,0.97,1.4,0.97,2.32,0.16C463.35,245.76,462.61,245.68,461.75,246.14z"/>
	<path d="M236.59,211.62c0.28,0.27,0.59,0.81,0.88,0.81C239.47,212.45,238.77,209.74,236.59,211.62z"/>
	<path d="M225.19,211.37c0.65,0.91,0.16,0.78,1.95,0.5C226.2,210.83,226.74,210.79,225.19,211.37z"/>
	<path d="M247.5,229.46c-0.08-0.05-0.67,0.44-0.63,0.58c0.1,0.35,0.41,0.65,0.64,0.97c0.24-0.18,0.8-0.59,0.9-0.67
		C248.13,230.06,247.83,229.66,247.5,229.46z"/>
	<path d="M403.59,250.28c-0.26,0.05-0.47,0.4-0.7,0.61C404.84,252.24,404.83,250.03,403.59,250.28z"/>
	<path d="M299.93,239.3c0.63,0.8,0.49,0.84,1.11,0.31c0.33-0.28,0.38-0.15-0.02-0.38C300.21,238.77,300.38,238.96,299.93,239.3z"/>
	<path d="M410.7,250.64c2.24,0,1.91,0.18,1.95-0.59C410.35,250.3,410.66,250.12,410.7,250.64z"/>
	<path d="M297.57,218.84c1.16,0.8,0.7,0.76,1.68,0.21C298.38,218.38,298.82,218.48,297.57,218.84z"/>
	<path d="M551.83,61.39c3.79,3.8-0.58-5.71-4.02-8.78c-1.28-1.14-1.41-0.67-2.32-0.51C546.49,54.6,549.62,59.18,551.83,61.39z"/>
	<path d="M521.43,60.55c-1.21,3.64-1.56,13.26-0.62,12.79c1.69-0.99,1.66-10.2,1.59-12.18C522.39,60.66,521.98,60.36,521.43,60.55z"
		/>
	<path d="M519.36,84.18c-1.47,1.91-1.45,3.46,0.42,6.24C520.16,88.91,520.83,84.67,519.36,84.18z"/>
	<path d="M563.03,86.62c0.48,0.29,0.67,0.57,0.83-1.08c0.22-2.3-1.58-3.27-2.12-2.78C560.48,83.93,561.77,85.86,563.03,86.62z"/>
	<path d="M555.85,70.54c1.73,2.34,2.94-1.36,0.18-3.15c-0.25,0.27-0.6,0.47-0.67,0.74C555.12,69.06,555.33,69.85,555.85,70.54z"/>
	<path d="M591.33,158.83c1.56-3.31-3.28-5.15-2.02-1.53C589.69,158.39,590.1,159.04,591.33,158.83z"/>
	<path d="M518.05,97.22c-0.01,0.84-0.01,1.82,1.5,2.22c0.08-1.76,0.24-3.46-0.3-5.13C517.51,94.75,518.14,96.11,518.05,97.22z"/>
	<path d="M527.97,45.7c0.66-1.4,0.79-2.78,0.1-4.25C526.41,42.49,526.39,42.89,527.97,45.7z"/>
	<path d="M553.14,16.3c-2.95-1.27-4.16-2.11-4.45-0.8C548.54,16.12,550.96,18.04,553.14,16.3z"/>
	<path d="M587.17,152.39c1.4-3.01-1.83-4-1.68-1.93C585.56,151.5,586.19,152.09,587.17,152.39z"/>
	<path d="M584.29,147.37c1.62-2.63-1.45-3.5-1.44-2.51C582.86,146.89,583.18,146.57,584.29,147.37z"/>
	<path d="M559.09,78.31c1.25-1.09,0.88-2.1,0-2.64C558.17,75.11,557.24,76.88,559.09,78.31z"/>
	<path d="M560.69,37.88c-1.56-1.39-1.58-1.59-1.97-0.76C558.29,38.04,559.98,39.43,560.69,37.88z"/>
	<path d="M555.24,34.22c0.35-0.15,0.29-0.02,0.13-0.41C554.32,31.2,552.3,35.27,555.24,34.22z"/>
	<path d="M545.59,14.14c-1.24-0.83-0.98-0.72-1.3,0.15c0.36,0.12,0.74,0.24,1.13,0.32C545.63,14.65,545.71,14.22,545.59,14.14z"/>
	<path d="M565.96,91.31c0.45-0.69,0.34-0.48-0.14-0.83C565.19,90.83,565.19,90.65,565.96,91.31z"/>
	<path d="M529.55,36.55c-0.33,0.74-0.26,0.49,0.08,1.07C530.64,36.85,530.7,37.13,529.55,36.55z"/>
	<path d="M293.55,146.41c1.18,1.17,0.81,2.48,1.19,5.31c0.26,1.94,1.98,2.5,2.54,0.8c0.44-1.35-0.38-7.22-0.92-7.84
		c-3.11-3.54-3.69-2.51-8.91-4.1c-7.22-2.2-10.14,1.11-13.65,0.51c-1.35-0.23-2.04,0.86-1.64,1.01
		C282.53,144.55,287.21,140.09,293.55,146.41z"/>
	<path d="M339.87,164.64c3.53,4.23,6.47,2.24,4.59,0.57c-1.03-0.91-2.34-1.58-2.52-3.19c-0.09-0.85-12.04-11.42-15.13-9.84
		C322.16,154.57,330.93,153.94,339.87,164.64z"/>
	<path d="M315.77,198.83c4.06,0.55,8.83-3.78,5.76-3.83C316.38,194.93,313.4,198.24,315.77,198.83z"/>
	<path d="M331.9,202.52c-7.76,2.4-4.42,9.54,3.02,0.05C333.44,202.53,332.6,202.3,331.9,202.52z"/>
	<path d="M293.06,156.47c-0.71-0.13-0.89,0.22-1.62,1.66c1.22,0.1,1.06,0.55,2.24-0.98C293.96,156.79,294.3,156.7,293.06,156.47z"/>
	<path d="M285.4,172.93c0.68-0.62,1.47-1.21,1.51-1.56C287.07,169.94,284.29,170.06,285.4,172.93z"/>
	<path d="M352.77,172.39c0.24-0.38,0.49-0.29-1.34-1.32c-0.72-0.48-1.78,0.31-1.37,0.73C351.03,172.79,352.01,173.63,352.77,172.39z
		"/>
	<path d="M289.09,162.94c-0.44-0.06-1.73,0.93-0.23,2.32C290.1,164.6,290.12,163.07,289.09,162.94z"/>
	<path d="M327.41,193.64c-0.96-1.46-1.82-1.45-2.82,0.11C325.56,194.24,326.5,194.4,327.41,193.64z"/>
	<path d="M336.58,200.77c-0.86,0.86-0.03,1.49,0.18,1.35c0.78-0.43,1.61-0.88,2.62-1.43C338.78,200.25,338.55,199.43,336.58,200.77z
		"/>
	<path d="M356.84,175.33c0.1-0.01,0.81-0.52-0.12-1.27C355.15,172.81,354.4,175.78,356.84,175.33z"/>
	<path d="M361.35,175.55c-0.19,0-0.45,0.42-0.63,0.6C363.32,177.78,362.58,175.53,361.35,175.55z"/>
	<path d="M368.62,177.89c-1.3-1.02-0.85-0.8-1.89-0.5C366.63,178.43,367.46,179.11,368.62,177.89z"/>
	<path d="M333.06,190.72c-1.67-0.24-1.69-0.26-2.48,1.1C331.6,192.03,332.37,191.88,333.06,190.72z"/>
	<path d="M560.53,138.65c0.98,0.38,1.65-1.5-0.54-2.6C559.15,137.43,559.6,138.29,560.53,138.65z"/>
	<path d="M556.02,132.39c2.3,0.1-0.11-3.6-0.85-1.55C554.93,131.5,555.27,132.36,556.02,132.39z"/>
	<path d="M534.76,101.43c-0.07,0-0.08-0.06,0.71,0.89C536.07,102.82,534.88,101.49,534.76,101.43z"/>
	<path d="M557.33,155.18c-1.4-4.18-5.98,1.71,5.18,14.11C565.61,166.94,559.73,166.34,557.33,155.18z"/>
	<path d="M561.68,171.41c-0.12,1.89-0.13,8.63,1.92,9.75c0.27,0.15,0.83-0.13,1.29-0.21C562.61,173.54,564.59,173.46,561.68,171.41z
		"/>
	<path d="M404.31,205.16c-0.12,1.24,2.25,1.56,2.25,0.06C406.56,205.12,406.82,205.16,404.31,205.16z"/>
	<path d="M709.05,551.81c-15.37,1.35-63.86,1.68-64.07,1.9c3.76,1.93,10.71,2.14-39.01,1.61c-22.99-0.24-30.59-6.85-30.98-3.89
		c2.67,1.54,8.12,2.68-12.66,0.18c-9.64-1.16-17.79-4.25-20.92-4.25c7.4,4.64,32.05,7.25,35.84,6.68c4.1-0.62,22.88,3.12,22.78,3.19
		c-0.52,0.39-15.95,1.55-18.39-0.87c-0.65-0.65-10.89-0.25-32.44-4.68c-17.3-3.55-11.31-5.5-15.01-4.3c3.56,7.4,42.78,9.2,43.65,9.3
		c0.6,0.07,2.18,1.24,3.13,1.36c11.4,1.49,33.77,0.43,45.42,0.14c3.3-0.08,6.17,1.77,9.91,0.59c1.82,0.14,15.49-0.49,16.94-1.54
		c0.15-1.22-0.63-0.91,4.97-0.91c-1.37,0.56-1.53,0.65-1.56,0.65c2.06,0.67,3.58,0.04,4.9-1.47c56.24-1.21,52.25-1.14,52.36-1.22
		C714.91,553.54,713.24,551.44,709.05,551.81z M603.05,557.75c0-0.1-0.19-0.07,1.71-0.07C604.76,557.78,604.92,557.75,603.05,557.75
		z M636.82,557.95c-7.19,0.37-9.26-0.5-2.1-0.71C655.06,556.64,657.31,556.9,636.82,557.95z"/>
	<path d="M656.65,556.97c-0.01,0-0.01,0-0.02,0C656.65,556.96,656.64,556.97,656.65,556.97z"/>
	<path d="M709.73,556.24c-6.46,1.45-7.64-0.37-11.39,0.06c-10.13,1.17-23.94,1.18-36.04,1.41c3.63,3.6,34.73-0.97,39.49-0.14
		c3.14,0.55,6.18,0.22,9.24-0.45C710.9,556.2,710.26,556.12,709.73,556.24z"/>
	<path d="M756.62,517.24c25.12-4.51,19.33-5.63,18.17-5.13c-2.08,0.9-1.87,0.82-20.63,4.94
		C755.01,517.26,755.84,517.38,756.62,517.24z"/>
	<path d="M759.71,552.55c-0.1,0.02-16,1.87-8.85,1.76C761.72,554.13,761.24,552.25,759.71,552.55z"/>
	<path d="M737.36,554.22c-5.86,0.61-4.62,0.45-8.32,0.6C732.03,555.47,734.75,556.22,737.36,554.22z"/>
	<path d="M716.34,551.97c0.09,0.23-0.64,0.16,5.9,0.16C722.24,551.9,722.86,551.97,716.34,551.97z"/>
	<path d="M751.19,517.9c0-0.25,0.53-0.17-4.75-0.17C746.45,517.97,745.92,517.9,751.19,517.9z"/>
	<path d="M554.65,517.88c4.54,0,4.09,0.06,4.09-0.14C554.2,517.74,554.65,517.67,554.65,517.88z"/>
	<path d="M750.44,505.8c-3.73,0-3.32-0.06-3.32,0.19C750.86,506,750.44,506.06,750.44,505.8z"/>
	<path d="M666.91,556.3c0-0.19,0.35-0.14-2.99-0.14C664.11,556.35,663.66,556.3,666.91,556.3z"/>
	<path d="M555.46,497.81c2.8,0-1.24-1.08-0.81-0.51C554.79,497.59,555.2,497.81,555.46,497.81z"/>
	<path d="M556.5,497.79c0.02,0.02,0.04,0.04,0.06,0.06C556.67,497.75,556.63,497.79,556.5,497.79z"/>
	<path d="M742.95,506.53c-0.36,0.05-0.36,0.01-0.01,0.12L742.95,506.53z"/>
	<path d="M742.74,518.56c0.37-0.09,0.39-0.04,0-0.15V518.56z"/>
	<path d="M776.63,511.71c-0.16,0.1-0.2,0.12-0.2,0.14c-0.01-0.02-0.01,0.01-0.07,0.07c0.04,0,0.09,0,0.13,0L776.63,511.71z"/>
	<path d="M556.72,497.93c-0.11-0.15-0.05-0.18-0.15-0.08C556.71,497.93,556.72,498.03,556.72,497.93z"/>
	<path d="M270.88,442.65c0.58,0.85,0.49,0.31,9.86-1.85c0.78-0.18,1.86-0.12,2.49-0.75C286.35,436.93,268.31,438.87,270.88,442.65z"
		/>
	<path d="M258.49,461.07c1.78-1.13-0.04-5.47-1.43-6.4c-1.82-1.22-3.3,0.7-9.79,3.54c1.13,2.32,1.01-0.63,8.23-1.43
		C257.15,460.15,257.43,461.27,258.49,461.07z"/>
	<path d="M297.45,499.6c0.84,0.17,1.44,0.49,1.86,0.33c2.75-1.05,3.74-7.43,2.9-10.97C299.2,488.42,301.39,493.96,297.45,499.6z"/>
	<path d="M332.51,399.28c-2.24,0.82-10.64,4.22-10.11,6.55c3.65,1.52,2.4-2.92,10.68-5.37
		C335.63,399.71,333.74,398.82,332.51,399.28z"/>
	<path d="M352.15,413.64c-1.92,0.57-4.03,0.88-4.81,3.2c0.32,0.19,0.55,0.45,0.7,0.41c2.32-0.61,4.8-1.91,6.9-3.06
		C354.1,412.82,353.08,413.37,352.15,413.64z"/>
	<path d="M342.13,418.12c-1.36,0.57-2.67,1.31-2.99,3.23c0.56,0.04,1.09,0.25,1.37,0.08c1.24-0.75,2.68-1.31,3.34-3.11
		C343.15,418.22,342.55,417.94,342.13,418.12z"/>
	<path d="M313.42,470.86c-2.06,2.98-0.56,5.69,0.58,4.68C314.52,475.08,315.16,472.13,313.42,470.86z"/>
	<path d="M342.2,394.31c0.67-1.01-6.22,0.6-5.85,1.68C337.13,397.56,341.1,395.69,342.2,394.31z"/>
	<path d="M289.23,438.92c-1.84-1.34-2.63,0.26-3.29,0.95C287.76,442.44,290.83,440.09,289.23,438.92z"/>
	<path d="M258.79,481.52c1.16-1.42,1.72-2.08,1.18-3.45C259.3,476.4,256.27,478.26,258.79,481.52z"/>
	<path d="M307.63,435.57c-2.81-0.26-4.57,3.81,0.04,2.01C308.75,437.16,309.38,435.73,307.63,435.57z"/>
	<path d="M301.75,420.18c-2.93,1.64-2.93,1.64-3.53,3.07C301.62,422.44,301.86,422.25,301.75,420.18z"/>
	<path d="M312.55,479.39c-0.63,1.12-1.19,2.19-0.26,3.88C314.02,480.89,314.04,480.35,312.55,479.39z"/>
	<path d="M299.52,437.2c-1.53,0.44,0.3,2.81,2.18,1.38C302.9,437.67,301.43,436.65,299.52,437.2z"/>
	<path d="M258.85,474.31c1.06-1.19,1.06-1.19-0.04-2.6C257.44,472.75,257.44,472.96,258.85,474.31z"/>
	<path d="M293.65,439.68c1.33,0.23,1.97-0.84,1.49-1.44C293.55,436.59,291.34,439.28,293.65,439.68z"/>
	<path d="M282.58,505.32c-0.28-0.15-0.63-0.46-0.92-0.49C278.75,504.57,280.53,509.1,282.58,505.32z"/>
	<path d="M272.67,507.67c-1.29,0.47-0.79,1.07-0.7,1.76C275.2,509.14,274.32,507.06,272.67,507.67z"/>
	<path d="M312.87,412.89c1.45-1.02-0.41-2.62-1.85-0.05C311.71,413.27,312.33,413.27,312.87,412.89z"/>
	<path d="M301.46,484.68c-0.38,2.52,1.29,2,1.36-0.07C302.88,482.86,301.68,483.27,301.46,484.68z"/>
	<path d="M302.44,479.63c0.03,1.05-0.17,1.46,0.77,0.61C304.7,478.88,302.36,476.68,302.44,479.63z"/>
	<path d="M307.97,416.3c1.47-1.47-0.61-1.97-1.38-0.17C306.59,416.57,307.37,416.9,307.97,416.3z"/>
	<path d="M315.85,409.35c-0.37,0.33-0.63,0.79-1.25,1.61c0.81-0.08,1.35-0.04,1.75-0.14C317.65,410.5,316.87,408.45,315.85,409.35z"
		/>
	<path d="M304.37,473.61c-0.64,0.11-1,1.21-0.23,2.13C305.55,475.06,305.05,473.49,304.37,473.61z"/>
	<path d="M315.93,434.45c-0.59,0.1-0.46,0.17-0.19,0.88c0.18-0.1,0.37-0.19,0.54-0.29C316.22,434.87,316.16,434.41,315.93,434.45z"
		/>
	<path d="M435.04,411.61c-3.55-6.17-8.49-15.79-7.96-11.3c0.12,1.04,6,11.59,6.5,12.5c-4.56,3.58-8.88,7.25-14.77,8.77
		c-1.31-2.97-2.71-6.87-4.56-11.35c-0.99-2.41-1.86-1.62-1.76-0.99c0.79,4.69,3.4,9.02,4.66,13.81c3.98-0.54,7.45-1.46,13.15-5.78
		c5.01-3.8,3.6-3.36,6.13,0.08c1.81,2.46,2.4,3.27,3.28,2.17c-5.23-9.09-4.68-4.51,1.55-9.85
		C446.08,405.53,436.14,411.15,435.04,411.61z"/>
	<path d="M373.03,396.55c2.67-17.7,13.23-25.52,11.03-29.97C379.75,372.77,366.74,392.39,373.03,396.55z"/>
	<path d="M399.36,382.48c-4.01,20.03,21.35,49.42,9.11,29.25C397.75,394.07,402.44,382.48,399.36,382.48z"/>
	<path d="M416.58,376.47c-4.53-13.31,2.4-25.28,1.4-27.62c-1.64-3.84-8.32,18.13-2.64,28.14
		C416.17,378.45,417.11,378.02,416.58,376.47z"/>
	<path d="M393.81,430.42c-6.89,1.89-5.58,2.57-12.24,3.92c-7.36,1.49-0.67,5.69,8.58-0.73c2.27-1.58,15.97-3,16.55-5.03
		c-4.57,1.02-4.69,1.29-8.3,2.11C394.11,431.65,396.14,429.78,393.81,430.42z"/>
	<path d="M406.78,428.55c0,0.02,0,0.01,0.03-0.05c-0.02-0.01-0.05-0.02-0.07-0.02C406.72,428.56,406.7,428.59,406.78,428.55z"/>
	<path d="M439.14,400.96c-7.71-11.49-11.55-21.34-11.59-21.39c-0.46,5.49,5.8,16.04,9.17,20.43
		C437.98,401.64,438.4,401.09,439.14,400.96z"/>
	<path d="M433.43,354.16c0.59,5,2.56,10.59,2.08,4.7c-0.76-9.23-0.71-8.36-2.05-10.43c0.88-4.92,4.49-7.77,3.23-7.79
		c-1.72-0.04-5.08,4.48-3.85,9.42C433.17,351.39,433.27,352.78,433.43,354.16z"/>
	<path d="M443.59,374.85c-0.07,0.31,2.05,9.06,3.42,11.4c1.36-0.51,1.03-1.06-1.36-10.31C445.12,373.93,443.81,373.92,443.59,374.85
		z"/>
	<path d="M387.21,359.47c-0.79-0.09-1.43-0.35-1.87-0.18c-2.25,0.84-4.59,1.85-6.54,3.23C380.56,364.39,385.73,363.26,387.21,359.47
		z"/>
	<path d="M369.5,407.87c-3.75,7.91-0.22,13.83,1.13,0.82C370.68,408.12,370.26,407.62,369.5,407.87z"/>
	<path d="M476.51,390.6c-3.62,1.11-8.68,2.61-9.31,4.3c4.73-2.15,4.76-0.83,9.19-2.39C478.12,391.9,478.28,390.06,476.51,390.6z"/>
	<path d="M394.46,355.04c-0.47-0.57-0.87-0.58-6.27,2.24c-0.26,0.14-0.46,0.59-0.97,1.29C390.36,358.43,395.45,356.25,394.46,355.04
		z"/>
	<path d="M374.45,432.71c-7.94,0.07-6.48,0.07-7.46,1.43C375.18,434.83,375.94,432.69,374.45,432.71z"/>
	<path d="M376.62,439.94c-1.86-0.57-4.52-1.22-6.32-1.7c1.11,1.72,1.81,2.24,3.72,2.61C379.32,441.86,376.93,440.04,376.62,439.94z"
		/>
	<path d="M460.6,399.59c6.61-3.8,5-4.73-3.26,0.77C456.1,401.36,456.21,402.11,460.6,399.59z"/>
	<path d="M464.99,396.43L464.99,396.43c0.07-0.1,0.12-0.15,0.12-0.16c0-0.01-0.06,0.02-0.21,0.08
		C464.84,396.44,464.66,396.53,464.99,396.43z"/>
	<path d="M456.6,401.19c-0.05-0.01-0.09-0.01-0.13-0.01C456.31,401.35,456.5,401.3,456.6,401.19z"/>
	<path d="M359.94,418.7c2.42,0.57,2.9,0.41,3.87-1.41C362.52,417.3,360.28,417.45,359.94,418.7z"/>
	<path d="M363.97,394.13c1.48-0.15-0.29-1.82-0.39-1.92C362.09,393.71,363.48,394.18,363.97,394.13z"/>
	<path d="M358.09,399.05c-0.2,0.1-0.38,0.26-0.83,0.58C360.03,400.96,360.81,397.68,358.09,399.05z"/>
	<path d="M455.72,401.56c0.08,0.06,0.21,0.18,0.22,0.17C456.79,400.88,456.05,401.23,455.72,401.56z"/>
	<path d="M466.98,395.04c-0.53-0.08-0.97,0.04-1.3,0.51C466.21,395.63,466.64,395.45,466.98,395.04z"/>
	<path d="M467.06,394.96c-0.08,0.12-0.14,0.06,0.09,0.1C467.21,394.92,467.27,394.86,467.06,394.96z"/>
	<path d="M407.74,427.85c-0.47,0-0.77,0.23-0.91,0.62C406.82,429.03,409.04,427.85,407.74,427.85z"/>
	<path d="M408.26,427.74c0.1,0-0.39,0.15,1.22-0.42C409.04,427.32,408.57,427.13,408.26,427.74z"/>
	<path d="M408.18,427.85c0.08-0.15,0.1-0.11-0.06-0.07C408.12,427.85,408.05,427.85,408.18,427.85z"/>
	<path d="M409.71,427.11c0,0.01,0,0.02,0,0.03C409.73,427.07,409.71,427.04,409.71,427.11z"/>
	<path d="M409.47,427.31c0.24,0,0.21,0.15,0.23-0.17C409.68,427.19,409.63,427.27,409.47,427.31z"/>
	<path d="M465.62,395.62c0.11-0.16,0.08-0.03-0.1-0.09C465.57,395.73,465.46,395.84,465.62,395.62z"/>
	<path d="M465.12,396.27c0.1-0.04,0.13-0.07,0.19-0.1C465.44,396.08,465.87,395.36,465.12,396.27z"/>
	<path d="M270.07,575.42c2.47-0.36,5.13-1.18,6.82-2.98c0-2.76,1.2-2.93,0.93-3.2c-2.55-0.73-1.5,1.86-7.96,5.16
		C269.49,574.59,269.75,575.46,270.07,575.42z"/>
	<path d="M277.89,569.19c-0.02,0.04-0.09,0.06,0.08,0.1C278.01,569.18,278,569.22,277.89,569.19z"/>
	<path d="M419.81,575.44c-3.17,0.53-3.85-0.54-4.33,0.78C418.43,579.48,431.74,573.44,419.81,575.44z"/>
	<path d="M221.99,505.9c0.25,1.17,5.94,1.52,6.07,0.5C228.26,504.78,221.58,503.97,221.99,505.9z"/>
	<path d="M461.81,567.65c4.29-0.37,1.2-3.33-3.97-1.09C458.31,567.06,458.33,567.95,461.81,567.65z"/>
	<path d="M241.06,561.3c-1.24,2.86,3.57,5.28,3.42,2.28C244.42,562.28,242.37,561.25,241.06,561.3z"/>
	<path d="M208.79,536.05c-0.2-0.02-0.45,0.4-0.77,0.71c1.49,1.31,3.03,1.96,4.92,1.66C212.94,537.05,210.35,536.21,208.79,536.05z"
		/>
	<path d="M231.72,508.75c0.84,0.34,1.83,0.38,3.06-0.07C232.08,505.26,227.71,507.13,231.72,508.75z"/>
	<path d="M464.42,572.16c-0.61-0.06-2.77-0.26-2.77-0.26C457.02,571.43,460.03,575.26,464.42,572.16z"/>
	<path d="M413.67,575.81c-1.57-0.26-2.98-0.43-4.35,0.14C411.02,577.3,412.53,577.26,413.67,575.81z"/>
	<path d="M290.48,566.04c-1.36-0.62-2.65-0.68-3.94,0.14C287.05,567.73,290.05,567.6,290.48,566.04z"/>
	<path d="M299.36,547.18c0.25-0.08,0.42-0.47,0.62-0.71C296.65,544.06,296.78,547.98,299.36,547.18z"/>
	<path d="M303.82,547.06c1.32,0.88,5.23-1.46-0.68-0.63C303.37,546.71,303.59,546.91,303.82,547.06z"/>
	<path d="M451.61,566.82c-1.31-0.75-2.11-1.32-3.22-0.16C449.72,567.79,449.72,567.79,451.61,566.82z"/>
	<path d="M449.79,572.55c-3.6-0.98-2.59-0.92-3.9-0.04C447.19,573.45,448.11,573.58,449.79,572.55z"/>
	<path d="M284.35,567.13c1.82-0.52-2.13-1.32-2.6-0.07c-0.1,0.21-0.06,0.37,0.02,0.43C282.74,568.19,283.49,567.37,284.35,567.13z"
		/>
	<path d="M223.81,537.83c-0.87-0.42-1.75-0.47-1.75,0.37C222.07,539.72,226.21,539,223.81,537.83z"/>
	<path d="M230.68,538.37c-0.76-0.44-1.17-0.79-1.62-0.9C227.68,537.12,227.13,540.42,230.68,538.37z"/>
	<path d="M404.37,576.78c-0.8,0-1.48,0-2.16,0C403.48,577.53,403.48,577.53,404.37,576.78z"/>
	<path d="M238.35,556.74c0.55,1.45,0.98,0.7,1.56,0.19c-0.38-0.31-0.63-0.63-0.96-0.77C238.84,556.11,238.31,556.63,238.35,556.74z"
		/>
	<path d="M455.14,567.66c0.73,0,1.35,0,2.06,0C456.37,566.23,455.95,566.24,455.14,567.66z"/>
	<path d="M455.98,573.36c-0.82-0.57-1.42-0.94-1.99-0.6C452.61,573.58,454.24,573.36,455.98,573.36z"/>
	<path d="M346.43,581.92c-2.85,0-2.12-0.19-2.65,0.83C344.86,583.22,344.17,583.54,346.43,581.92z"/>
	<path d="M217.22,538.54c0.57,0.43,0.71,0.21,1.25-0.66C216.24,537.88,216.1,537.69,217.22,538.54z"/>
	<path d="M395.44,577.99c0.26-0.09,0.44-0.44,0.72-0.76c-0.45-0.1-0.78-0.27-1.09-0.21c-0.19,0.03-0.71,0.51-0.66,0.6
		C394.5,577.97,395.24,578.07,395.44,577.99z"/>
	<path d="M278.23,569.26c2.08,0.27,1.95-1.12,0.97-1.12C278.82,568.14,277.6,569.18,278.23,569.26z"/>
	<path d="M290.4,546.1c0.54,0,1.13-0.52-0.91-0.73C289.49,545.85,289.12,545.98,290.4,546.1z"/>
	<path d="M292.83,565.91c-1.02-0.57-0.73-0.62-1.43,0.23C292.42,566.81,292.06,566.82,292.83,565.91z"/>
	<path d="M167.83,527.26c-1.39,0.13-2.3,1.7-2.1,2.73c0.41,2.13-4.25,3.28-4.12,1.12c0-3.34-0.38-2.11-6.78,5.26
		c0.37,4.39,2.65,0.25,9.29,6.42c2.79-1.54,3.44-2.26,4.1-4.54c-2.83,0.32-2.7,3.43-5.1,0.2c2.95-2.81,3.3-1.16,5.63-3.17
		c-3.34-1-5.71,0.48-8.1,2.02c-0.99-0.39-1.93-0.74-3.02-1.17c0.92-1.19,1.62-2.23,2.9-2.94c1.47,0.54,4.14,1.43,5.64,0.95
		c3.13-1,3.37,0.76,3.9-0.85C170.8,531.05,170.23,527.04,167.83,527.26z"/>
	<path d="M142.92,483.72c-3.7-0.33-3.19,16.12,3.56,19.21c0.28-1.78,0.39-3.4-0.78-4.79C141.55,493.21,147.87,484.17,142.92,483.72z
		"/>
	<path d="M150.29,486.12c-1.06,0.59-2.15,0.25-3.63,0.11c1.09,8.56,6.31,12.42,5.25,6.81C151.41,490.41,153.42,489.34,150.29,486.12
		z"/>
	<path d="M188.17,516.15c-0.79,0.68-1.35,1.07-1.8,1.57c-5.49,6.12-3.11,3.03-6.74,4.55c-0.9,0.38-1.63,0.98-2.69,1.39
		c-0.22,0.06-0.34,0.59-0.46,0.93C175.85,526.53,188.38,524.65,188.17,516.15z"/>
	<path d="M185.13,534.32c-2.65,0-7.33,0.17-5.13,1.62C182.72,537.75,188.06,534.32,185.13,534.32z"/>
	<path d="M198.52,505.21c0.91-1.1,3.13-5.61,2.74-6.26C200.73,498.08,197.1,503.55,198.52,505.21z"/>
	<path d="M204.85,499.02c-1.35,0.86-1.35,0.86-2.27,4.13C204.66,502.73,205.05,501.12,204.85,499.02z"/>
	<path d="M168.35,515.16c2.02-1.62,0.89-3.51-0.46-1.77C166.92,514.66,168.05,515.46,168.35,515.16z"/>
	<path d="M170.23,510.74c2.04-1.2,2.07-1.28,1.38-2.85C170.72,508.51,170.04,509.18,170.23,510.74z"/>
	<path d="M196.68,510.27c-0.44,0.78-0.68,1.04-0.71,1.33C195.93,512.05,196.83,513.33,196.68,510.27z"/>
	<path d="M198.42,494.46c-0.73,0.31-0.64,0.14-0.42,0.77C198.7,494.88,198.61,495.07,198.42,494.46z"/>
	<path d="M400.48,496.72c-2.42-0.22-4.62-0.56-6.85,0.64C395.27,499.08,399.73,498.57,400.48,496.72z"/>
	<path d="M397.61,498.56c-0.03,0.03-0.06,0.04-0.09,0.08c0.02-0.01,0.03-0.02,0.05-0.02c-0.04,0.02-0.04,0.02,0.03,0.02
		c0.01-0.03,0.04-0.04,0.05-0.07c0,0,0,0,0,0C397.65,498.56,397.65,498.56,397.61,498.56z"/>
	<path d="M391.28,497.41c-2.02-0.33-2.02-0.33-3.28,0.45C389.99,498.78,390.28,498.7,391.28,497.41z"/>
	<path d="M385,498.72c0.08-0.79-0.8-0.4-1.57-0.17C384.31,499.68,385,499.24,385,498.72z"/>
	<path d="M382.07,499.24c0.03-0.05-0.32-0.45-0.37-0.43c-1.01,0.48-0.61,0.62-0.22,1.06C381.69,499.65,381.93,499.47,382.07,499.24z
		"/>
	<path d="M530.68,407.49c-0.44-0.64-1.41-1.85-2.03-2.55C522.04,397.45,524.98,407.49,530.68,407.49z"/>
	<path d="M553.18,440.2c-1.13-3.07-2.55-0.68-1.78,0.32C552.15,441.5,552.65,440.65,553.18,440.2z"/>
	<path d="M556.3,447.62c0.17-0.25,0.46-0.53,0.58-0.77c0.6-1.2-2.45-3.44-1.55,0.08C555.4,447.23,556.05,447.44,556.3,447.62z"/>
	<path d="M536.75,410.8c0.02,0.04,0.19-0.02,0.29-0.03C536.53,410.42,536.43,410.26,536.75,410.8z"/>
	<path d="M536.24,410.23c0.15,0.09,0.24,0.13,0.31,0.19C536.49,410.21,536.49,410.26,536.24,410.23z"/>
	<path d="M533.49,408.19C533.27,407.98,535.21,410.24,533.49,408.19L533.49,408.19z"/>
	<path d="M555.11,477.93c1.29,0.62,1.33-1.27,0.74-1.87c-4.99-8.03-4.05-12.85-5.17-13.64
		C546.01,459.63,551.93,476.39,555.11,477.93z"/>
	<path d="M555.84,483.96c-0.29-3.43-2.23-7.38-1.94,4.13c0.02,0.63,1.14,3.18,2.5,1.57C555.43,485.19,556.05,486.54,555.84,483.96z"
		/>
	<path d="M569.18,480.28c0,0.08-0.02,0.16-0.03,0.23C569.28,480.36,569.28,480.39,569.18,480.28z"/>
<path fill="#e6e6e6" d="m206.8 163.6c0-5.1 4.1-9.2 9.3-9.2s9.2 4.2 9.2 9.2-4.1 9.2-9.3 9.2-9.2-4.1-9.2-9.2zm17.3-.1c0-4.5-3.5-8.2-8.2-8.2s-8.2 3.7-8.2 8.3c0 4.5 3.5 8.2 8.2 8.2s8.2-3.7 8.2-8.3zm-13 0c0-2.8 2.1-5.1 5.1-5.1 1.9 0 2.9.6 3.9 1.5l-1.4 1.7c-.8-.7-1.5-1.1-2.5-1.1-1.7 0-2.8 1.4-2.8 3.1s1.1 3 2.8 3c1.1 0 1.7-.5 2.5-1.1l1.4 1.4c-1.1 1.1-2.1 1.7-4 1.7-2.9 0-5-2.3-5-5.1z"/><path fill="#e6e6e6" d="m226.6 154.7h3.4l4.2 13.2 4.4-13.3h2.6l4.4 13.3 4.2-13.2h3.3l-6.2 18h-2.7l-4.4-12.8-4.4 12.8h-2.7z"/><path fill="#e6e6e6" d="m252.8 165.8c0-3.9 3.1-7 7.2-7 4.2 0 7.2 3.2 7.2 7s-3.1 7-7.3 7c-4 0-7.1-3.1-7.1-7zm11.3 0c0-2.3-1.7-4.3-4.2-4.3s-4.1 2-4.1 4.3 1.7 4.3 4.1 4.3c2.7.1 4.2-1.9 4.2-4.3z"/><path fill="#e6e6e6" d="m269.5 159.1h3.1v3c.8-2 2.4-3.4 4.8-3.3v3.2h-.2c-2.7 0-4.6 1.7-4.6 5.4v5.1h-3.1z"/><path fill="#e6e6e6" d="m279.1 153.9h3.1v11.1l5.6-6h3.8l-5.4 5.5 5.5 8h-3.5l-4.1-5.8-1.9 2v3.9h-3.1z"/><path fill="#e6e6e6" d="m291.7 165.8c0-3.9 3.1-7 7.2-7 4.2 0 7.2 3.2 7.2 7s-3.1 7-7.3 7c-4 0-7.1-3.1-7.1-7zm11.3 0c0-2.3-1.7-4.3-4.2-4.3s-4.1 2-4.1 4.3 1.7 4.3 4.1 4.3c2.6.1 4.2-1.9 4.2-4.3z"/><path fill="#e6e6e6" d="m308.2 167.6v-8.6h3.1v7.6c0 2.1 1.1 3.3 2.9 3.3s3-1.3 3-3.3v-7.6h3.1v13.4h-3.1v-2.1c-.8 1.3-2.1 2.3-4.2 2.3-3.1.2-4.8-1.8-4.8-5z"/><path fill="#e6e6e6" d="m323.9 168.8v-7.1h-1.7v-2.6h1.7v-3.7h3.1v3.7h3.6v2.6h-3.6v6.6c0 1.2.6 1.7 1.7 1.7.7 0 1.3-.2 1.9-.5v2.5c-.8.5-1.7.7-2.8.7-2.3 0-3.9-.9-3.9-3.9z"/><path fill="#e6e6e6" d="m333.2 154.7h3.2v15h9.4v2.9h-12.5v-17.9z"/><path fill="#e6e6e6" d="m356 172.5v-1.7c-.9 1.1-2.3 2-4.4 2-2.6 0-4.8-1.4-4.8-4.2 0-3 2.3-4.4 5.4-4.4 1.7 0 2.6.2 3.7.5v-.2c0-1.9-1.2-2.9-3.3-2.9-1.5 0-2.6.3-3.9.8l-.8-2.5c1.5-.7 2.9-1.1 5.1-1.1 4 0 5.9 2.1 5.9 5.7v8zm.1-5.6c-.8-.3-1.9-.5-3.1-.5-2 0-3.1.8-3.1 2.1s1.1 2 2.6 2c2 0 3.5-1.1 3.5-2.9z"/><path fill="#e6e6e6" d="m364.9 170.5v2.1h-3.1v-18.7h3.1v7.4c1-1.4 2.4-2.5 4.5-2.5 3.2 0 6.3 2.5 6.3 7s-3.1 7-6.3 7c-2.1 0-3.5-1.1-4.5-2.3zm7.7-4.7c0-2.6-1.7-4.3-3.9-4.3s-3.9 1.7-3.9 4.4c0 2.6 1.8 4.3 3.9 4.3s3.9-1.7 3.9-4.4z"/><path fill="#e6e6e6" d="m376.9 170.8 1.4-2.1c1.4 1.1 3 1.7 4.4 1.7s2.1-.5 2.1-1.5-1.3-1.4-2.8-1.8c-.1 0-.2-.1-.2-.1-2-.6-4.2-1.4-4.2-4s2.1-4.1 4.8-4.1c1.7 0 3.5.6 5 1.5l-1.2 2.2c-1.3-.8-2.6-1.3-3.8-1.3s-1.9.5-1.9 1.4 1.3 1.4 2.8 1.8c.1 0 .2.1.2.1 2 .6 4.2 1.5 4.2 4 0 2.9-2.2 4.2-5 4.2-1.9 0-4-.7-5.8-2z"/><path fill="#e6e6e6" d="m505.6 163.6c0-5.1 4.1-9.2 9.3-9.2s9.2 4.2 9.2 9.2-4.1 9.2-9.3 9.2-9.2-4.1-9.2-9.2zm17.4-.1c0-4.5-3.5-8.2-8.2-8.2s-8.2 3.7-8.2 8.3c0 4.5 3.5 8.2 8.2 8.2s8.2-3.7 8.2-8.3zm-13.1 0c0-2.8 2.1-5.1 5.1-5.1 1.9 0 2.9.6 3.9 1.5l-1.4 1.7c-.8-.7-1.5-1.1-2.5-1.1-1.7 0-2.8 1.4-2.8 3.1s1.1 3 2.8 3c1.1 0 1.7-.5 2.5-1.1l1.4 1.4c-1.1 1.1-2.1 1.7-4 1.7-2.9 0-5-2.3-5-5.1z"/><path fill="#e6e6e6" d="m525.4 154.7h3.4l4.2 13.2 4.4-13.3h2.6l4.4 13.3 4.2-13.2h3.3l-6.2 18h-2.7l-4.4-12.8-4.4 12.8h-2.7z"/><path fill="#e6e6e6" d="m551.7 165.8c0-3.9 3.1-7 7.2-7 4.2 0 7.2 3.2 7.2 7s-3.1 7-7.3 7c-4.1 0-7.1-3.1-7.1-7zm11.2 0c0-2.3-1.7-4.3-4.2-4.3s-4.1 2-4.1 4.3 1.7 4.3 4.1 4.3c2.7.1 4.2-1.9 4.2-4.3z"/><path fill="#e6e6e6" d="m568.3 159.1h3.1v3c.8-2 2.4-3.4 4.8-3.3v3.2h-.2c-2.7 0-4.6 1.7-4.6 5.4v5.1h-3.1z"/><path fill="#e6e6e6" d="m577.9 153.9h3.1v11.1l5.6-6h3.8l-5.4 5.5 5.5 8h-3.5l-4.1-5.8-1.9 2v3.9h-3.1z"/><path fill="#e6e6e6" d="m590.6 165.8c0-3.9 3.1-7 7.2-7 4.2 0 7.2 3.2 7.2 7s-3.1 7-7.3 7c-4.1 0-7.1-3.1-7.1-7zm11.2 0c0-2.3-1.7-4.3-4.2-4.3s-4.1 2-4.1 4.3 1.7 4.3 4.1 4.3c2.6.1 4.2-1.9 4.2-4.3z"/><path fill="#e6e6e6" d="m607 167.6v-8.6h3.1v7.6c0 2.1 1.1 3.3 2.9 3.3s3-1.3 3-3.3v-7.6h3.1v13.4h-3.1v-2.1c-.8 1.3-2.1 2.3-4.2 2.3-3 .2-4.8-1.8-4.8-5z"/><path fill="#e6e6e6" d="m622.7 168.8v-7.1h-1.7v-2.6h1.7v-3.7h3.1v3.7h3.6v2.6h-3.6v6.6c0 1.2.6 1.7 1.7 1.7.7 0 1.3-.2 1.9-.5v2.5c-.8.5-1.7.7-2.8.7-2.3 0-3.9-.9-3.9-3.9z"/><path fill="#e6e6e6" d="m632 154.7h3.2v15h9.4v2.9h-12.6z"/><path fill="#e6e6e6" d="m654.8 172.5v-1.7c-.9 1.1-2.3 2-4.4 2-2.6 0-4.8-1.4-4.8-4.2 0-3 2.3-4.4 5.4-4.4 1.7 0 2.6.2 3.7.5v-.2c0-1.9-1.2-2.9-3.3-2.9-1.5 0-2.6.3-3.9.8l-.8-2.5c1.5-.7 2.9-1.1 5.1-1.1 4 0 5.9 2.1 5.9 5.7v8zm.1-5.6c-.8-.3-1.9-.5-3.1-.5-2 0-3.1.8-3.1 2.1s1.1 2 2.6 2c2 0 3.5-1.1 3.5-2.9z"/><path fill="#e6e6e6" d="m663.7 170.5v2.1h-3.1v-18.7h3.1v7.4c1-1.4 2.4-2.5 4.5-2.5 3.2 0 6.3 2.5 6.3 7s-3.1 7-6.3 7c-2.1 0-3.5-1.1-4.5-2.3zm7.8-4.7c0-2.6-1.7-4.3-3.9-4.3-2.1 0-3.9 1.7-3.9 4.4 0 2.6 1.8 4.3 3.9 4.3s3.9-1.7 3.9-4.4z"/><path fill="#e6e6e6" d="m675.8 170.8 1.4-2.1c1.4 1.1 3 1.7 4.4 1.7s2.1-.5 2.1-1.5-1.3-1.4-2.8-1.8c-.1 0-.2-.1-.2-.1-2-.6-4.2-1.4-4.2-4s2.1-4.1 4.8-4.1c1.7 0 3.5.6 5 1.5l-1.2 2.2c-1.3-.8-2.6-1.3-3.8-1.3s-1.9.5-1.9 1.4 1.3 1.4 2.8 1.8c.1 0 .2.1.2.1 2 .6 4.2 1.5 4.2 4 0 2.9-2.2 4.2-5 4.2-2 0-4.1-.7-5.8-2z"/><path fill="#e6e6e6" d="m61 298.6c0-5.1 4.1-9.2 9.3-9.2s9.2 4.2 9.2 9.2-4.1 9.2-9.3 9.2c-5.1 0-9.2-4.2-9.2-9.2zm17.4-.1c0-4.5-3.5-8.2-8.2-8.2s-8.2 3.7-8.2 8.3c0 4.5 3.5 8.2 8.2 8.2s8.2-3.7 8.2-8.3zm-13.1-.1c0-2.8 2.1-5.1 5.1-5.1 1.9 0 2.9.6 3.9 1.5l-1.4 1.7c-.8-.7-1.5-1.1-2.5-1.1-1.7 0-2.8 1.4-2.8 3.1s1.1 3 2.8 3c1.1 0 1.7-.5 2.5-1.1l1.4 1.4c-1.1 1.1-2.1 1.7-4 1.7-2.8.1-5-2.2-5-5.1z"/><path fill="#e6e6e6" d="m80.9 289.7h3.4l4.2 13.2 4.4-13.3h2.6l4.4 13.3 4.2-13.2h3.3l-6.2 18h-2.7l-4.4-12.8-4.4 12.8h-2.7z"/><path fill="#e6e6e6" d="m107.1 300.8c0-3.9 3.1-7 7.2-7s7.2 3.2 7.2 7-3.1 7-7.3 7c-4 0-7.1-3.1-7.1-7zm11.3 0c0-2.3-1.7-4.3-4.2-4.3s-4.1 2-4.1 4.3 1.7 4.3 4.1 4.3c2.6.1 4.2-1.9 4.2-4.3z"/><path fill="#e6e6e6" d="m123.7 294h3.1v3c.8-2 2.4-3.4 4.8-3.3v3.2h-.2c-2.7 0-4.6 1.7-4.6 5.4v5.1h-3.1z"/><path fill="#e6e6e6" d="m133.4 288.9h3.1v11.1l5.6-6h3.8l-5.4 5.5 5.5 8h-3.5l-4.1-5.8-1.9 1.9v3.9h-3.1z"/><path fill="#e6e6e6" d="m146 300.8c0-3.9 3.1-7 7.2-7s7.2 3.2 7.2 7-3.1 7-7.3 7c-4.1 0-7.1-3.1-7.1-7zm11.2 0c0-2.3-1.7-4.3-4.2-4.3s-4.1 2-4.1 4.3 1.7 4.3 4.1 4.3c2.6.1 4.2-1.9 4.2-4.3z"/><path fill="#e6e6e6" d="m162.4 302.6v-8.6h3.1v7.6c0 2.1 1.1 3.3 2.9 3.3s3-1.3 3-3.3v-7.6h3.1v13.4h-3.1v-2.1c-.8 1.3-2.1 2.3-4.2 2.3-3 .2-4.8-1.8-4.8-5z"/><path fill="#e6e6e6" d="m178.1 303.8v-7.1h-1.7v-2.7h1.7v-3.7h3.1v3.7h3.6v2.6h-3.6v6.6c0 1.2.6 1.7 1.7 1.7.7 0 1.3-.2 1.9-.5v2.5c-.8.5-1.7.7-2.8.7-2.3.1-3.9-.9-3.9-3.8z"/><path fill="#e6e6e6" d="m187.4 289.7h3.2v15h9.4v2.9h-12.5v-17.9z"/><path fill="#e6e6e6" d="m210.2 307.5v-1.7c-.9 1.1-2.3 2-4.4 2-2.6 0-4.8-1.4-4.8-4.2 0-3 2.3-4.4 5.4-4.4 1.7 0 2.6.2 3.7.5v-.2c0-1.9-1.2-2.9-3.3-2.9-1.5 0-2.6.3-3.9.8l-.8-2.5c1.5-.7 2.9-1.1 5.1-1.1 4 0 5.9 2.1 5.9 5.7v8zm.1-5.6c-.8-.3-1.9-.5-3.1-.5-2 0-3.1.8-3.1 2.1s1.1 2 2.6 2c2 0 3.5-1.1 3.5-2.9z"/><path fill="#e6e6e6" d="m219.2 305.5v2.1h-3.1v-18.7h3.1v7.4c1-1.4 2.4-2.5 4.5-2.5 3.2 0 6.3 2.5 6.3 7s-3.1 7-6.3 7c-2.2 0-3.6-1.1-4.5-2.3zm7.7-4.7c0-2.6-1.7-4.3-3.9-4.3s-3.9 1.7-3.9 4.4c0 2.6 1.8 4.3 3.9 4.3s3.9-1.7 3.9-4.4z"/><path fill="#e6e6e6" d="m231.2 305.8 1.4-2.1c1.4 1.1 3 1.7 4.4 1.7s2.1-.5 2.1-1.5-1.3-1.4-2.8-1.8c-.1 0-.2-.1-.2-.1-2-.6-4.2-1.4-4.2-4s2.1-4.1 4.8-4.1c1.7 0 3.5.6 5 1.5l-1.2 2.2c-1.3-.8-2.6-1.3-3.8-1.3s-1.9.5-1.9 1.4 1.3 1.4 2.8 1.8c.1 0 .2.1.2.1 2 .6 4.2 1.5 4.2 4 0 2.9-2.2 4.2-5 4.2-2 0-4.1-.7-5.8-2z"/><path fill="#e6e6e6" d="m360.6 298.6c0-5.1 4.1-9.2 9.3-9.2s9.2 4.2 9.2 9.2-4.1 9.2-9.3 9.2-9.2-4.2-9.2-9.2zm17.4-.1c0-4.5-3.5-8.2-8.2-8.2s-8.2 3.7-8.2 8.3c0 4.5 3.5 8.2 8.2 8.2s8.2-3.7 8.2-8.3zm-13.1-.1c0-2.8 2.1-5.1 5.1-5.1 1.9 0 2.9.6 3.9 1.5l-1.4 1.7c-.8-.7-1.5-1.1-2.5-1.1-1.7 0-2.8 1.4-2.8 3.1s1.1 3 2.8 3c1.1 0 1.7-.5 2.5-1.1l1.4 1.4c-1.1 1.1-2.1 1.7-4 1.7-2.8.1-5-2.2-5-5.1z"/><path fill="#e6e6e6" d="m380.5 289.7h3.4l4.2 13.2 4.4-13.3h2.6l4.4 13.3 4.2-13.2h3.3l-6.2 18h-2.7l-4.4-12.8-4.4 12.8h-2.7z"/><path fill="#e6e6e6" d="m406.7 300.8c0-3.9 3.1-7 7.2-7 4.2 0 7.2 3.2 7.2 7s-3.1 7-7.3 7c-4.1 0-7.1-3.1-7.1-7zm11.3 0c0-2.3-1.7-4.3-4.2-4.3s-4.1 2-4.1 4.3 1.7 4.3 4.1 4.3c2.7.1 4.2-1.9 4.2-4.3z"/><path fill="#e6e6e6" d="m423.3 294h3.1v3c.8-2 2.4-3.4 4.8-3.3v3.2h-.2c-2.7 0-4.6 1.7-4.6 5.4v5.1h-3.1z"/><path fill="#e6e6e6" d="m433 288.9h3.1v11.1l5.6-6h3.8l-5.4 5.5 5.5 8h-3.5l-4.1-5.8-1.9 2v3.9h-3.1z"/><path fill="#e6e6e6" d="m445.6 300.8c0-3.9 3.1-7 7.2-7 4.2 0 7.2 3.2 7.2 7s-3.1 7-7.3 7c-4.1 0-7.1-3.1-7.1-7zm11.3 0c0-2.3-1.7-4.3-4.2-4.3s-4.1 2-4.1 4.3 1.7 4.3 4.1 4.3c2.6.1 4.2-1.9 4.2-4.3z"/><path fill="#e6e6e6" d="m462.1 302.6v-8.6h3.1v7.6c0 2.1 1.1 3.3 2.9 3.3s3-1.3 3-3.3v-7.6h3.1v13.4h-3.1v-2.1c-.8 1.3-2.1 2.3-4.2 2.3-3.1.2-4.8-1.8-4.8-5z"/><path fill="#e6e6e6" d="m477.8 303.8v-7.1h-1.8v-2.7h1.7v-3.7h3.1v3.7h3.6v2.6h-3.6v6.6c0 1.2.6 1.7 1.7 1.7.7 0 1.3-.2 1.9-.5v2.5c-.8.5-1.7.7-2.8.7-2.2.1-3.8-.9-3.8-3.8z"/><path fill="#e6e6e6" d="m487.1 289.7h3.2v15h9.4v2.9h-12.5v-17.9z"/><path fill="#e6e6e6" d="m509.9 307.5v-1.7c-.9 1.1-2.3 2-4.4 2-2.6 0-4.8-1.4-4.8-4.2 0-3 2.3-4.4 5.4-4.4 1.7 0 2.6.2 3.7.5v-.2c0-1.9-1.2-2.9-3.3-2.9-1.5 0-2.6.3-3.9.8l-.8-2.5c1.5-.7 2.9-1.1 5.1-1.1 4 0 5.9 2.1 5.9 5.7v8zm.1-5.6c-.8-.3-1.9-.5-3.1-.5-2 0-3.1.8-3.1 2.1s1.1 2 2.6 2c2 0 3.5-1.1 3.5-2.9z"/><path fill="#e6e6e6" d="m518.8 305.5v2.1h-3.1v-18.7h3.1v7.4c1-1.4 2.4-2.5 4.5-2.5 3.2 0 6.3 2.5 6.3 7s-3.1 7-6.3 7c-2.2 0-3.5-1.1-4.5-2.3zm7.7-4.7c0-2.6-1.7-4.3-3.9-4.3s-3.9 1.7-3.9 4.4c0 2.6 1.8 4.3 3.9 4.3s3.9-1.7 3.9-4.4z"/><path fill="#e6e6e6" d="m530.8 305.8 1.4-2.1c1.4 1.1 3 1.7 4.4 1.7s2.1-.5 2.1-1.5-1.3-1.4-2.8-1.8c-.1 0-.2-.1-.2-.1-2-.6-4.2-1.4-4.2-4s2.1-4.1 4.8-4.1c1.7 0 3.5.6 5 1.5l-1.2 2.2c-1.3-.8-2.6-1.3-3.8-1.3s-1.9.5-1.9 1.4 1.3 1.4 2.8 1.8c.1 0 .2.1.2.1 2 .6 4.2 1.5 4.2 4 0 2.9-2.2 4.2-5 4.2-1.9 0-4.1-.7-5.8-2z"/><path fill="#e6e6e6" d="m659.5 298.6c0-5.1 4.1-9.2 9.3-9.2s9.2 4.2 9.2 9.2-4.1 9.2-9.3 9.2-9.2-4.2-9.2-9.2zm17.3-.1c0-4.5-3.5-8.2-8.2-8.2s-8.2 3.7-8.2 8.3c0 4.5 3.5 8.2 8.2 8.2 4.8 0 8.2-3.7 8.2-8.3zm-13-.1c0-2.8 2.1-5.1 5.1-5.1 1.9 0 2.9.6 3.9 1.5l-1.4 1.7c-.8-.7-1.5-1.1-2.5-1.1-1.7 0-2.8 1.4-2.8 3.1s1.1 3 2.8 3c1.1 0 1.7-.5 2.5-1.1l1.4 1.4c-1.1 1.1-2.1 1.7-4 1.7-2.9.1-5-2.2-5-5.1z"/><path fill="#e6e6e6" d="m679.3 289.7h3.4l4.2 13.2 4.4-13.3h2.6l4.4 13.3 4.2-13.2h3.3l-6.2 18h-2.6l-4.4-12.8-4.4 12.8h-2.7z"/><path fill="#e6e6e6" d="m705.5 300.8c0-3.9 3.1-7 7.2-7 4.2 0 7.2 3.2 7.2 7s-3.1 7-7.3 7c-4 0-7.1-3.1-7.1-7zm11.3 0c0-2.3-1.7-4.3-4.2-4.3s-4.1 2-4.1 4.3 1.7 4.3 4.1 4.3c2.7.1 4.2-1.9 4.2-4.3z"/><path fill="#e6e6e6" d="m722.1 294h3.1v3c.8-2 2.4-3.4 4.8-3.3v3.2h-.2c-2.7 0-4.6 1.7-4.6 5.4v5.1h-3.1z"/><path fill="#e6e6e6" d="m731.8 288.9h3.1v11.1l5.6-6h3.8l-5.4 5.5 5.5 8h-3.5l-4.1-5.8-1.9 2v3.9h-3.1z"/><path fill="#e6e6e6" d="m744.4 300.8c0-3.9 3.1-7 7.2-7 4.2 0 7.2 3.2 7.2 7s-3.1 7-7.3 7c-4.1 0-7.1-3.1-7.1-7zm11.3 0c0-2.3-1.7-4.3-4.2-4.3s-4.1 2-4.1 4.3 1.7 4.3 4.1 4.3c2.6.1 4.2-1.9 4.2-4.3z"/><path fill="#e6e6e6" d="m760.9 302.6v-8.6h3.1v7.6c0 2.1 1.1 3.3 2.9 3.3s3-1.3 3-3.3v-7.6h3.1v13.4h-3.1v-2.1c-.8 1.3-2.1 2.3-4.2 2.3-3.1.2-4.8-1.8-4.8-5z"/><path fill="#e6e6e6" d="m776.6 303.8v-7.1h-1.7v-2.7h1.7v-3.7h3.1v3.7h3.6v2.6h-3.6v6.6c0 1.2.6 1.7 1.7 1.7.7 0 1.3-.2 1.9-.5v2.5c-.8.5-1.7.7-2.8.7-2.3.1-3.9-.9-3.9-3.8z"/><path fill="#e6e6e6" d="m785.9 289.7h3.2v15h9.4v2.9h-12.5v-17.9z"/><path fill="#e6e6e6" d="m808.7 307.5v-1.7c-.9 1.1-2.3 2-4.4 2-2.6 0-4.8-1.4-4.8-4.2 0-3 2.3-4.4 5.4-4.4 1.7 0 2.6.2 3.7.5v-.2c0-1.9-1.2-2.9-3.3-2.9-1.5 0-2.6.3-3.9.8l-.8-2.5c1.5-.7 2.9-1.1 5.1-1.1 4 0 5.9 2.1 5.9 5.7v8zm.1-5.6c-.8-.3-1.9-.5-3.1-.5-2 0-3.1.8-3.1 2.1s1.1 2 2.6 2c2 0 3.5-1.1 3.5-2.9z"/><path fill="#e6e6e6" d="m817.6 305.5v2.1h-3.1v-18.7h3.1v7.4c1-1.4 2.4-2.5 4.5-2.5 3.2 0 6.3 2.5 6.3 7s-3.1 7-6.3 7c-2.1 0-3.5-1.1-4.5-2.3zm7.7-4.7c0-2.6-1.7-4.3-3.9-4.3-2.1 0-3.9 1.7-3.9 4.4 0 2.6 1.8 4.3 3.9 4.3 2.2 0 3.9-1.7 3.9-4.4z"/><path fill="#e6e6e6" d="m829.6 305.8 1.4-2.1c1.4 1.1 3 1.7 4.4 1.7s2.1-.5 2.1-1.5-1.3-1.4-2.8-1.8c-.1 0-.2-.1-.2-.1-2-.6-4.2-1.4-4.2-4s2.1-4.1 4.8-4.1c1.7 0 3.5.6 5 1.5l-1.2 2.2c-1.3-.8-2.6-1.3-3.8-1.3s-1.9.5-1.9 1.4 1.3 1.4 2.8 1.8c.1 0 .2.1.2.1 2 .6 4.2 1.5 4.2 4 0 2.9-2.2 4.2-5 4.2-1.9 0-4-.7-5.8-2z"/><path fill="#e6e6e6" d="m206.3 434.2c0-5.1 4.1-9.2 9.3-9.2s9.2 4.2 9.2 9.2-4.1 9.2-9.3 9.2-9.2-4.1-9.2-9.2zm17.4-.1c0-4.5-3.5-8.2-8.2-8.2s-8.2 3.7-8.2 8.3c0 4.5 3.5 8.2 8.2 8.2s8.2-3.7 8.2-8.3zm-13.1-.1c0-2.8 2.1-5.1 5.1-5.1 1.9 0 2.9.6 3.9 1.5l-1.4 1.7c-.8-.7-1.5-1.1-2.5-1.1-1.7 0-2.8 1.4-2.8 3.1s1.1 3 2.8 3c1.1 0 1.7-.5 2.5-1.1l1.4 1.4c-1.1 1.1-2.1 1.7-4 1.7-2.9.1-5-2.2-5-5.1z"/><path fill="#e6e6e6" d="m226.1 425.3h3.4l4.2 13.2 4.4-13.3h2.6l4.4 13.3 4.2-13.2h3.3l-6.2 18h-2.7l-4.4-12.8-4.4 12.8h-2.7z"/><path fill="#e6e6e6" d="m252.4 436.4c0-3.9 3.1-7 7.2-7 4.2 0 7.2 3.2 7.2 7s-3.1 7-7.3 7c-4.1 0-7.1-3.1-7.1-7zm11.2 0c0-2.3-1.7-4.3-4.2-4.3s-4.1 2-4.1 4.3 1.7 4.3 4.1 4.3c2.7.1 4.2-1.9 4.2-4.3z"/><path fill="#e6e6e6" d="m269 429.7h3.1v3c.8-2 2.4-3.4 4.8-3.3v3.2h-.2c-2.7 0-4.6 1.7-4.6 5.4v5.1h-3.1z"/><path fill="#e6e6e6" d="m278.6 424.5h3.1v11.1l5.6-6h3.8l-5.4 5.5 5.5 8h-3.5l-4.1-5.8-1.9 2v3.9h-3.1z"/><path fill="#e6e6e6" d="m291.3 436.4c0-3.9 3.1-7 7.2-7 4.2 0 7.2 3.2 7.2 7s-3.1 7-7.3 7c-4.1 0-7.1-3.1-7.1-7zm11.2 0c0-2.3-1.7-4.3-4.2-4.3s-4.1 2-4.1 4.3 1.7 4.3 4.1 4.3c2.6.1 4.2-1.9 4.2-4.3z"/><path fill="#e6e6e6" d="m307.7 438.2v-8.6h3.1v7.6c0 2.1 1.1 3.3 2.9 3.3s3-1.3 3-3.3v-7.6h3.1v13.4h-3.1v-2.1c-.8 1.3-2.1 2.3-4.2 2.3-3 .2-4.8-1.8-4.8-5z"/><path fill="#e6e6e6" d="m323.4 439.4v-7.1h-1.7v-2.6h1.7v-3.7h3.1v3.7h3.6v2.6h-3.6v6.6c0 1.2.6 1.7 1.7 1.7.7 0 1.3-.2 1.9-.5v2.5c-.8.5-1.7.7-2.8.7-2.3 0-3.9-.9-3.9-3.9z"/><path fill="#e6e6e6" d="m332.7 425.3h3.2v15h9.4v2.9h-12.5v-17.9z"/><path fill="#e6e6e6" d="m355.5 443.1v-1.7c-.9 1.1-2.3 2-4.4 2-2.6 0-4.8-1.4-4.8-4.2 0-3 2.3-4.4 5.4-4.4 1.7 0 2.6.2 3.7.5v-.2c0-1.9-1.2-2.9-3.3-2.9-1.5 0-2.6.3-3.9.8l-.8-2.5c1.5-.7 2.9-1.1 5.1-1.1 4 0 5.9 2.1 5.9 5.7v8zm.1-5.6c-.8-.3-1.9-.5-3.1-.5-2 0-3.1.8-3.1 2.1s1.1 2 2.6 2c2 0 3.5-1.1 3.5-2.9z"/><path fill="#e6e6e6" d="m364.4 441.1v2.1h-3.1v-18.7h3.1v7.4c1-1.4 2.4-2.5 4.5-2.5 3.2 0 6.3 2.5 6.3 7s-3.1 7-6.3 7c-2.1 0-3.5-1.1-4.5-2.3zm7.7-4.7c0-2.6-1.7-4.3-3.9-4.3-2.1 0-3.9 1.7-3.9 4.4 0 2.6 1.8 4.3 3.9 4.3 2.2 0 3.9-1.7 3.9-4.4z"/><path fill="#e6e6e6" d="m376.5 441.4 1.4-2.1c1.4 1.1 3 1.7 4.4 1.7s2.1-.5 2.1-1.5-1.3-1.4-2.8-1.8c-.1 0-.2-.1-.2-.1-2-.6-4.2-1.4-4.2-4s2.1-4.1 4.8-4.1c1.7 0 3.5.6 5 1.5l-1.2 2.2c-1.3-.8-2.6-1.3-3.8-1.3s-1.9.5-1.9 1.4 1.3 1.4 2.8 1.8c.1 0 .2.1.2.1 2 .6 4.2 1.5 4.2 4 0 2.9-2.2 4.2-5 4.2-2 0-4.1-.7-5.8-2z"/><path fill="#e6e6e6" d="m505.1 434.2c0-5.1 4.1-9.2 9.3-9.2s9.2 4.2 9.2 9.2-4.1 9.2-9.3 9.2-9.2-4.1-9.2-9.2zm17.4-.1c0-4.5-3.5-8.2-8.2-8.2s-8.2 3.7-8.2 8.3c0 4.5 3.5 8.2 8.2 8.2s8.2-3.7 8.2-8.3zm-13.1-.1c0-2.8 2.1-5.1 5.1-5.1 1.9 0 2.9.6 3.9 1.5l-1.4 1.7c-.8-.7-1.5-1.1-2.5-1.1-1.7 0-2.8 1.4-2.8 3.1s1.1 3 2.8 3c1.1 0 1.7-.5 2.5-1.1l1.4 1.4c-1.1 1.1-2.1 1.7-4 1.7-2.9.1-5-2.2-5-5.1z"/><path fill="#e6e6e6" d="m525 425.3h3.4l4.2 13.2 4.4-13.3h2.6l4.4 13.3 4.2-13.2h3.3l-6.2 18h-2.7l-4.4-12.8-4.4 12.8h-2.7z"/><path fill="#e6e6e6" d="m551.2 436.4c0-3.9 3.1-7 7.2-7 4.2 0 7.2 3.2 7.2 7s-3.1 7-7.3 7c-4.1 0-7.1-3.1-7.1-7zm11.2 0c0-2.3-1.7-4.3-4.2-4.3s-4.1 2-4.1 4.3 1.7 4.3 4.1 4.3c2.7.1 4.2-1.9 4.2-4.3z"/><path fill="#e6e6e6" d="m567.8 429.7h3.1v3c.8-2 2.4-3.4 4.8-3.3v3.2h-.2c-2.7 0-4.6 1.7-4.6 5.4v5.1h-3.1z"/><path fill="#e6e6e6" d="m577.5 424.5h3.1v11.1l5.6-6h3.8l-5.4 5.5 5.5 8h-3.5l-4.1-5.8-1.9 2v3.9h-3.1z"/><path fill="#e6e6e6" d="m590.1 436.4c0-3.9 3.1-7 7.2-7 4.2 0 7.2 3.2 7.2 7s-3.1 7-7.3 7c-4.1 0-7.1-3.1-7.1-7zm11.2 0c0-2.3-1.7-4.3-4.2-4.3s-4.1 2-4.1 4.3 1.7 4.3 4.1 4.3c2.6.1 4.2-1.9 4.2-4.3z"/><path fill="#e6e6e6" d="m606.5 438.2v-8.6h3.1v7.6c0 2.1 1.1 3.3 2.9 3.3s3-1.3 3-3.3v-7.6h3.1v13.4h-3.1v-2.1c-.8 1.3-2.1 2.3-4.2 2.3-3 .2-4.8-1.8-4.8-5z"/><path fill="#e6e6e6" d="m622.2 439.4v-7.1h-1.7v-2.6h1.7v-3.7h3.1v3.7h3.6v2.6h-3.6v6.6c0 1.2.6 1.7 1.7 1.7.7 0 1.3-.2 1.9-.5v2.5c-.8.5-1.7.7-2.8.7-2.3 0-3.9-.9-3.9-3.9z"/><path fill="#e6e6e6" d="m631.5 425.3h3.2v15h9.4v2.9h-12.5v-17.9z"/><path fill="#e6e6e6" d="m654.3 443.1v-1.7c-.9 1.1-2.3 2-4.4 2-2.6 0-4.8-1.4-4.8-4.2 0-3 2.3-4.4 5.4-4.4 1.7 0 2.6.2 3.7.5v-.2c0-1.9-1.2-2.9-3.3-2.9-1.5 0-2.6.3-3.9.8l-.8-2.5c1.5-.7 2.9-1.1 5.1-1.1 4 0 5.9 2.1 5.9 5.7v8zm.1-5.6c-.8-.3-1.9-.5-3.1-.5-2 0-3.1.8-3.1 2.1s1.1 2 2.6 2c2 0 3.5-1.1 3.5-2.9z"/><path fill="#e6e6e6" d="m663.3 441.1v2.1h-3.1v-18.7h3.1v7.4c1-1.4 2.4-2.5 4.5-2.5 3.2 0 6.3 2.5 6.3 7s-3.1 7-6.3 7c-2.2 0-3.6-1.1-4.5-2.3zm7.7-4.7c0-2.6-1.7-4.3-3.9-4.3s-3.9 1.7-3.9 4.4c0 2.6 1.8 4.3 3.9 4.3s3.9-1.7 3.9-4.4z"/><path fill="#e6e6e6" d="m675.3 441.4 1.4-2.1c1.4 1.1 3 1.7 4.4 1.7s2.1-.5 2.1-1.5-1.3-1.4-2.8-1.8c-.1 0-.2-.1-.2-.1-2-.6-4.2-1.4-4.2-4s2.1-4.1 4.8-4.1c1.7 0 3.5.6 5 1.5l-1.2 2.2c-1.3-.8-2.6-1.3-3.8-1.3s-1.9.5-1.9 1.4 1.3 1.4 2.8 1.8c.1 0 .2.1.2.1 2 .6 4.2 1.5 4.2 4 0 2.9-2.2 4.2-5 4.2-2 0-4.1-.7-5.8-2z"/></g>
</svg>
