<?xml version="1.0" encoding="utf-8"?>
<!-- Generator: Adobe Illustrator 23.0.1, SVG Export Plug-In . SVG Version: 6.00 Build 0)  -->
<svg version="1.2" baseProfile="tiny" id="Layer_1" xmlns="http://www.w3.org/2000/svg" xmlns:xlink="http://www.w3.org/1999/xlink"
	 x="0px" y="0px" viewBox="0 0 900 600" xml:space="preserve">
<g>
	<path d="M731.31,137.81c-1.61-8.14-3.79-16.18-6.13-24.11c-2.83-9.58-12.84-23.21-14.27-24.11c-10.25-6.52-15.21-13.95-27.43-19.19
		c-2.71-1.16-2.68-1.28-0.9-4.62c5.44-10.26,13.52-20.56,11.55-40.19c-0.11-1.1-0.42-2.22-0.1-3.32
		c1.57-5.37-4.21-15.73-12.56-17.18c-3.32-5.73-7.23-5.23-12.06-4.92c-3.12,0.2-3.42,2-13.86,18.59c-1.03,2.06,0.24,2.09,0.5,3.01
		c-0.61,1.23-1.9,1.62-6.83,6.43c-4.58,4.47-8.36,5.71-14.37,9.14c-3.83,1.92,0.5,3.62,1,4.42c-7.16,4.22-0.99,2.5-17.48,10.75
		c-7.75,3.87-6.55,1.62-30.14,7.84c-8.89,2.34-20.35,2.11-47.12,13.46c-45.24,19.18-77.77,14.27-118.65,34.96
		c-15.15,7.67-28.42,14.15-30.24,16.18c-1.84,2.05-8.7,1.94-17.38,7.84c-2.26,1.53-13.13,2.26-20.7,5.93
		c-1.29,0.63-2.61,0.5-4.02,0.2c-2.81-0.6-5.73-1.08-8.54-1.91c-11.93-3.53-19.19,0.44-22.71-1.21c-0.9-4.42-5.2-6.45-8.24-9.54
		c-0.6-0.61-1.41-1.1-2.31-1.41c-12.59-4.3-17.49,1.1-22.1,2.91c-4.3,1.69-2.41,2.86-12.86,11.25c-4.08,3.28-9.22,10.43-11.86,14.57
		c-8.09,11.23-3.1,9-12.16,17.78c-4.52-0.9-9.64,0-14.67-0.7c-0.64-2.3,3.94-16.72-10.05-12.06c-1.21-0.3-1.31-1.88-2.41-2.11
		c-1.31-0.27-2.01,0.7-3.01,1.11c-1.91-1.51-4.02-0.3-6.23-0.4c-0.9-0.5-0.9-2.21-2.71-2.51c-1.61,0.9-3.62,1.91-5.63,2.91
		c-1,0-2.01-1.11-3.01-0.5c-1.21,0.6,0.1,1.8-0.6,2.21c-1.51,0.88-0.79-1.98-2.31-2.91c-3.82,1.91-8.45,1.78-12.76,2.91
		c-9.85,2.58-13.21,11.34-17.18,30.24c-0.73,3.47,2.67,13.89,4.42,17.88c1.46,3.31,5.6,3.73,7.43,5.73c-0.4,1.91-1,3.92,0,5.63
		c0.4,0.9,0.8,0.1,1.21,0.1c2.61,3.42,6.13,5.54,10.55,5.32c6.88-0.34,12.31,1.89,21,1.81c0.9-0.01,1.81,0.1,2.21,1.11
		c-3.21,0.9-5.02,0.8-7.53-0.7c-10.28,4.82-19.84,0.04-29.03-7.13c-1.21-2.01-0.3-4.22-1.31-6.13c-1.11,2.81-1.22,5.53,0.7,8.04
		c6.23,8.11,13.86,6.96,19.39,8.74c2.57,0.83,15.94-1.23,18.69,0.9c-2.3,6.91-17.16,7.51-19.09,8.84
		c4.34,1.55,15.98-2.44,18.99-3.42c1.9-0.62,3.32-2.11,4.22-4.72c0.7,3.21,0.7,3.21-5.73,8.24c3.32-1.21,5.63-2.51,7.43-4.62
		c3.01,2.01-1.71,3.48-3.01,5.02c-0.7,1.64-0.55,3.31,1.21,3.01c6.53-1.75,9.72-5,13.16-8.44c1.21,0,0.5,2.01,2.01,1.91
		c0.6-1.51-0.9-2.81-0.4-4.22c-4.22-4.12-7.84-9.14-14.07-10.65c0.8,1.51,2.41,1.91,3.62,2.91c3.91,3.23,3.92,7.74,0,11.15
		c-1.71-3.11-0.4-7.23-3.32-10.25c-0.8,1.41,0.9,2.41-0.1,3.52c-1.51-0.5-1.81-2.11-2.71-3.01c0.4-1,1.61-0.6,2.01-1.41
		c-0.1-0.4-0.3-0.7-0.6-0.7c-25,0-11.73-0.75-29.54-1.31c-4.43-0.14-10.56-5.24-8.24-8.34c2.01,0.8,4.03,1.59,6.03,2.51
		c1.71,0.79,4.22,0,5.83,2.51c-3.42,0.1-5.83-1.81-8.54-2.31c7.08,5.11,19.52,3.78,28.73,2.81c5.21-0.54,14.84,0.62,17.08,5.32
		c1.51,0.27,0.77-1.68,2.11-1c3.25,3.25,4.54,2.93,6.63,5.53c5.36,6.65-2.48,10.88-3.11,12.26c3.21-1.11,3.32-1.21,6.73-5.32
		c0.6,0.9-0.1,1.91,0.2,2.91c2.91-0.7,1.61-3.42,2.41-4.92c0.7-0.2,0.9,0.4,1.61,0.6c-3.15-3.15,0.17-16.94-16.38-21.9
		c-2.34-0.7-10.42-2.47-13.71-0.62c-0.45-0.36-0.91-0.72-1.46-1.09c0.7-1.61,2.91,0,3.62-1.71c0-0.9-1.31-0.1-1.41-1
		c1.09-1.2,1.79-2.96,3.94-2.91c0.05-0.21,0.01-0.5,0.18-0.5c2.81-1.61,5.12-4.02,8.74-4.22c-1.41,1.21-2.81,2.41-4.22,3.72
		c1.21,0.6,1.71-0.1,2.21-0.6c3.82-3.82,4.01-4.71,8.84-3.72c10.56,14.78,6.33,23.51,19.79,33.76c6.06,4.61,9.41,5.49,10.95,6.43
		c12.55,7.6,24.15,7.65,33.15,10.55c22.75,7.32,24.82,10.03,34.06,9.85c1.51-0.03,2.82,0.48,4.22,1c5.75,2.14,11.55,3.52,17.68,3.82
		c14.65,0.72,8.18,2.45,29.14,1c20.29-1.4,20.94-3.59,26.12,1.71c12.1,12.39,9.57,10.91,13.06,12.46
		c11.45,5.1,12.76,5.07,15.57,7.03c2.72,1.9,6.03,2.31,9.14,3.32c1.91,0.5,2.61-0.3,2.91-2.71c-0.9,0.5-1.81,0.91-2.81,0.6
		c-2.52-0.78-5.21-1.43-7.54-2.71c-15.16-8.39-15.91-5.77-18.89-9.54c-3.41-4.33-7.34-8.14-11.75-11.55
		c-3.12-2.41-6.53-3.4-10.45-2.61c-20.19,4.05-51.82,0.24-61.28-3.92c-5.7-2.51-8.74,0.52-18.39-3.32
		c-6.54-2.6-13.45-4.16-19.99-6.93c-7.9-3.35-12.49-1.13-23.61-6.43c-12.92-6.15-15.37-5.28-21.1-11.55
		c-11.8-12.94-6.42-12.66-12.36-24.21c16.6-28.46,23.04-23.76,46.82-16.78c2.1,0.62,3.39,1.39,4.92,2.41
		c-2.53,1.36-5.54,1.29-7.94,2.61c3.92,1.31,7.43,0.7,10.65-1.11c8.71,5.04,14.1,14.48,12.62,21.86c-0.22,0.79,0.82-0.27-5.38,2.65
		c-15.67-6.57-20.27-8.47-21.1-6.53c0.47,2.36,3.22,0.51,32.65,15.37c1.4,0.71,3.03,1.19,4.22,2.11c4.07,3.15,8.54,5.83,12.66,8.74
		c0.3,0.6-0.2,1.51,1,2.21c3.32,1.11,7.13,1.71,11.05,1.71c14.05,0,18.69,4.42,26.02,4.42c7.53,0,15.4,4.74,30.64,3.72
		c2.91-0.2,5.92-0.57,8.74,0.4c4.2,1.45,8.74,2.01,12.96,3.21c3.01,3.62,7.23,4.32,11.55,5.53c1.5,3.5,12.44,6.17,16.88,6.83
		c5.42,0.81,10.25,3.42,15.47,5.22c-0.42,0.99-0.93,1.64-2.01,1.51c-3.72-0.47-7.65-0.67-11.15-2.11
		c-4.04-1.66-8.34-1.81-12.46-2.71c-0.02,0-0.68,0.59-0.7,0.6c4.23,2.45,6.47,0.8,13.06,3.82c14.15,6.49,14.97,2.76,14.97,4.42
		c-1.31,2.41-1.5,2.59-3.82,2.21c-29.81-4.93-26.6-4.67-27.25-4.3c-2.03,1.17,10.12,3.31,12.28,4.4c4.82,2.45,8.3,3.14,11.65,4.82
		c-0.7,0.9-1.21,1.61-2.71,2.01c-8.21-1.15-16.6-5.92-26.42-7.43c3,2.81,5.45,2.33,6.73,3.62c2.81,2.81,6.53,3.92,9.85,5.63
		c0.97-0.12,1.71,0.12,1.71,1.11c0.4-0.3,1.11-0.3,1.31-1c-0.3-1.71-2.41-1.31-3.21-2.61c0.6-0.8,1.21-0.3,1.71,0
		c2.61,1.31,5.42,1.42,8.24,1.71c3.01,0.31,4.22-1,4.72-4.42c-23.62-8.7-4.87-2.4,4.42-1.71c1.21-1.81,3.01-3.11,2.01-5.53
		c-1.51-1-3.32-0.3-5.32-0.9c2.91-0.2,3.42-2.11,4.22-4.02c-0.3-0.9-1.11-1-1.91-1.21c-26.72-9.2-13.78-2.7-26.93-8.54
		c-0.3-1.91-0.2-4.02-1.91-5.63c-2.51,0.2-5.22,0.3-7.84,0.8c-1.81-0.6-3.53-1.28-5.12-2.41c-4.97-3.54-9.62-2.29-12.56-5.02
		c-2.6-2.42-15.95,0.37-26.32-1.91c-8.85-1.95-17.99-2.79-26.72-5.22c-7.46-2.08-14.76-0.58-24.82-2.91
		c-3.9-7.54-25.59-17.17-25.72-17.68c4.52-3.92,10.15-5.52,15.37-7.64c8.29-3.36,8.86-1.21,20.5-6.33
		c5.6-2.46,17.38-3.31,23.51-3.62c10.28-0.52,24.11-2.44,28.43-1.11c4.75,1.47,13.31,3.46,18.18,2.41c4.7-1.01,9.32,2.39,27.83-1.31
		c8.51-1.7,22.3-13.4,27.13-26.32c1.88-5.03,6.25-5.46,24.01-13.86c11.68-5.53,15.03-12.66,24.01-18.79
		c11.65-7.95,9.06-8.66,14.57-10.75c21.67-8.23,14.29-6.49,23.41-7.84c-1.74,4.28-0.23,7.11-1.51,13.06
		c-1.35,6.33,1.29,27.42,10.15,44.41c1.86,3.58,10.45,18.08,12.46,20.09c9.56,8.53,8.68,10.6,13.06,12.96
		c18.71,10.06,39.54,13.2,44.51,13.26c8.68,0.11,5.4-0.74,9.04-0.3c5.53,0.66,10.94-0.07,16.38-1c1.9-0.33,3.32-1.71,5.32-1.81
		c11.05-0.53,20.2-6.02,29.54-11.15c2.01-1.1,2.81-3.02,4.32-4.42C742.04,174.11,727.09,141.5,731.31,137.81z M231.94,230.98
		c0.07-0.35,1.61,0.9,1.75,2.37c-1.49,1.8-3.13,2.64-4,3.21C226.11,238.67,230.32,236.48,231.94,230.98z M219.13,231.24
		c-0.1,1.51-0.7,2.81-2.81,3.82C217.52,233.35,218.32,232.35,219.13,231.24z M440.66,259.17c-0.7-0.5-1.41-1.11-2.21-1.71
		C441.12,255.79,441.87,257.8,440.66,259.17z M679.97,5.79c0.12,0,3.72,1.75,7.42,3.6c1.56,2.89,4.64,8.24,4.62,9.95
		c-0.08,6.85,1.98,16.87-3.11,27.83c-3.48,7.5-17.21,28.01-13.36,35.06c-2.74,8.19-2.75,8.42-6.63,11.55
		c-6.33-1.31-11.86-4.72-18.28-6.23c-1.59-2.91-7.35-3.57-6.45-3.89c5.34-1.86,7.98-6.48,10.98-9.97c-0.4-3.3-3.59-8.02-3.11-8.84
		c0.93-1.59,0.12-3.01,0.2-4.52c0.12-2.21-1.01-3.71-2.81-5.02c-1.9-1.38-7.63-6.45-7.41-6.61c2.86-1.78,5.34-3.37,7.92-5.04
		c9.29,6.01,8.36,6.91,10.95,6.53c0.92-2.77-4.52-6.43-7.74-7.43c-0.3-0.09-0.5-0.4-0.7-0.6c3.23-4.04,9.4,6.53,11.51,3.36
		c1.94-2.5-4.04-5.8-6.39-7.17c0.94-0.94,1.37-1.51,2.21-1.6c2.31,0.9,3.32,4.02,6.33,3.72c0.98-2.95-1.97-4.63-4.62-6.23
		c0.17-0.97,0.68-1.56,1.35-1.95c1.21-0.7,4,2.58,6.99,1.55c0-2.41-3.17-3.49-4.62-4.02c0.51-3.42,3.61,0.51,5.43-1.91
		c0.1-2.01-1.91-1.51-2.71-2.41C671.13,18.35,674.95,11.72,679.97,5.79z M639.98,82.35c3.01-1.61,4.92-4.22,8.34-4.63
		C646.32,79.89,642.94,82.08,639.98,82.35z M663.29,23.17c0.5-0.2,0.9-0.6,0.9-1.31c-0.3-1.61-1.71-2.41-3.21-3.52
		c1.91-6.63,4.82-12.46,9.64-17.18c2.21,0.7,4.12,0.7,5.93,0.8c2.39,2.39,3.14,0.7-6.23,13.36c-2.73,3.68-3.3,7.21-6.93,12.06
		c-0.7-2.11-2.41-3.21-3.42-5.12C661.44,21.77,662.1,23.36,663.29,23.17z M662.68,28.9c-0.74,0.93-1.15,1.85-2,2.21
		c-1-1.61-1.11-3.42-1.81-5.02C660.92,26.09,660.74,28.18,662.68,28.9z M654.05,26.89c2.61,1.21,3.42,4.22,5.73,5.92
		c-1.14,1.91-2.62,2.55-2.62,2.36C655.2,27.94,649.74,29.05,654.05,26.89z M639.8,37.29c4.99-2,3.39-2.4,4.91-1.79
		c2.05,0.82,2.88,2.89,4.51,4.25c0.4-1.41,1.91-1.41,2.31-2.61c-0.6-2.01-2.21-2.81-3.82-3.62c-1.45-0.73,0.76-2.2,1.86-2.4
		c0.34,0,4.51,3.01,5.59,6.33c-3.46,1.95-13.76,10.3-14.01,8.96C639.33,36.52,633.15,39.96,639.8,37.29z M438.75,104.55
		c18.18-7.93,31.47-7.57,39.99-11.65c1.27-0.61,22.15-3.46,30.44-6.03c1-0.31,1.71,0.1,2.71,0.3c1.41-1.51,3.31-2.42,5.43-2.91
		c17.22-4.03,21.47-9.59,44.91-16.07c22.68-6.27,55.97-6.94,75.05-26.02c1.71,2.61,2.11,5.32,1.81,8.14c0.9,0.7,1.61,1.11,3.01,1.81
		c-7.84,3.53-17.5,14.67-48.83,22.3c-9.45,2.3-19.19,3.52-28.53,6.63c-0.6,0.2-1.31,0.29-2.01,0.3
		c-16.93,0.27-18.48,8.82-40.09,12.56c-4.66,0.81-3.19,3.25-8.24,5.12c-5.52,2.05-7.39,1.02-8.54,2.01
		c-3.03,2.61-40.14,10.09-50.03,17.78c-19.96,5.36-4.47,9.14-24.67-10.12C430.43,108.12,438.64,104.6,438.75,104.55z M193.76,215.18
		c-0.02,0-0.03-0.01-0.05-0.03c0.29-0.88,1.47-0.74,1.68-1.76c2.49,0,5.74-6.13,6.85-8.48c3.28,0.5,6.07,2.27,9.23,1.15
		c0,0.94,0.7,1.32,0.51,1.98C205.31,215.65,205.3,217.53,193.76,215.18z M207.47,199.49c0.7,0,0.8,1.11,1.91,1.31
		c1.41-1.11,2.11-2.81,4.12-3.11c0.23,2.98-3.67,3.2-3.71,5.66c-0.01,0.71,0.53,0.55,0.64,0.9c0.22,0.67-1.53,0.97-2.36,0.87
		c-0.25-0.19-3.43-2.67-3.38-2.97c0.13-0.56,0.43-0.74,1.06-0.74c0.7,0.5,0.8,2.01,2.21,1.91
		C209.16,201.38,206.01,200.22,207.47,199.49z M211.89,203.31c0.15-2.59,2.31-2.86,2.27-2.68
		C213.74,202.53,212.05,203.15,211.89,203.31z M216.62,201.1c-0.51,2.87-2.02,4.8-4.9,4.8C217.15,200.47,216.67,200.9,216.62,201.1z
		 M217.92,212.91c0,3.71,0.24-2.91,14.77,2.66c6.85,2.63,10.73,7.99,11.55,14.57c-3.32-1.71-4.02-5.51-7.33-6.93
		c-2.9-1.24-4.95-3.93-8.67-5.15c-2.09-0.69,3.68,2.6,4.85,4.35c-5.86-2.2-8.17-3.88-14.07-3.72c-3.72,0.1-7.33-0.67-11.05,0.1
		c-1,0.21-2.11,0.1-3.11-0.71C213.48,215.92,210.96,214.51,217.92,212.91z M208.61,213.6c-0.42,0.21,0.1-0.08,2.48-3.05
		c2.38-0.53,2.27-0.54,2.93-1.54c0.65-0.98,1.26-2.01,2.99-1.78C215.03,210.59,211.97,212.2,208.61,213.6z M243.25,198.62
		c-1.27,0.28-8.34-3.09-17.91,2.08c-12.53,5.57-5.35,0.35-8.34-0.04c0.03-0.03,0.05-0.07,0.06-0.12c0.42-1.28,2.47-2.6,2.47-3.26
		c-0.19-0.66-0.37-1.32-0.56-1.98c-0.72,0.12-1.46-0.65-2.26-0.13c-1.02,0.66,0.79,1.17,0.81,2.09c0,0.07-2.23,2.57-3,3.06
		c-0.83,0.41,0.7-1.83,0.6-2.03c-0.78-2.36-2.15-2.41-3.8-2.32c-0.19,0.05,0.11-0.27-1.45,1.62c-0.3,0.45-1.74-0.68-2.91-0.41
		c-0.39,0-0.49,1.52-5,5.13c0.8-3.11,3.82-4.12,3.72-6.93c0.32,0.49,0.39,1.4,1,1.71c0.63-1.25-1.13-5.85-2.08-3.7
		c-0.34,0.77-0.35-1.24-4.04-1.72c-2.42-0.31-4.33-1.43-5.63-3.52c2.95,8.84,2.34,12.67,2.89,10.41c0.81-3.28-1.49-7.61-0.3-6.42
		c1.89,1.89,3.28,6.33,3.53,4.87c0.22-1.27-1.8-4.39-0.59-3.53c1.48,1.05,1.36,2.9,2.11,4.31c-0.7,1.11-1.41,2.21-1.91,3.11
		c-0.4,1.41,0.7,2.11,0.6,3.32c-2.97,7.42-6.02,7.81-6.12,9.05c-1.63,0.06-3.38,3.09-5.17,0.09c-0.08,0-0.05-0.01-0.02-0.01
		l0.01-0.01c0,0.02,0.03,0.03,0.05,0.03c-0.06-0.06-0.08-0.02,0.26-0.19c4.63-2.35,8.43-7.81,8.47-11.1
		c0.53-1.06-3.15,5.54-6.25,8.6c-0.7,0.69-2.2,1.27-2.56,2.6c-0.93-0.93,2.42,2.32-5.36-2.25c0.29-2.44,0.98-4.84,0.5-7.23
		c-1.41,2.01-0.73,4.71-2.01,6.63c-1.41-0.8-2.81-1.41-3.92-2.21c-1.11-0.9-1.91-2.11-2.51-2.71c-0.32-7.81,1.08-15.68,1.61-20.6
		c-2.02,4.79-2.41,10.59-2.41,15.87c-1.75-3.07-1-6.42-1.51-9.44c-1.81,1.72-0.61,3.74-1.41,5.32c-3.62-7.74,0-14.47,2.61-21.28
		c0.14,2.61-2.66,10.02-1.51,9.68c1.06-0.31,1.61-2.24,1.59-1.43c-0.04,1.62-1.05,3.09-0.48,5.3c0.75-2.1,3.02-9.61,5.22-11.55
		c0.69,1.72-0.59,3.42,0.6,4.82c1.19-1.97,0.9-5.6,0.9-7.43c-0.66-0.28-1.22,0.5-1.71-0.1c0.29-1.18,1.84-1.41,2.18-3.02
		c0.07-0.21,0.35-0.15-4.36,1.63c-1.15,0.44,2.21-4.42,2.28-4.53c-0.23-0.46-0.31-0.73-0.8-1.71c-1.11,0.71-1.29,2.38-3.11,3.21
		c6.24-12.48,11.46-8.31,22.1-12.26c0.47,0.48,0.71,1.62,1.81,2.11c4.39,0.39,6.89-3.5,10.66-4.72c2.88,2.89-0.39,2.9-0.1,4.32
		c1,2.01,1,2.01,0.9,4.52c1.71-1.71,1.09-3.29,1.31-4.92c5.41-1.91,5.02-1.89,5.02-1.74c0,7.9-0.23,8.2,0.7,9.37
		c2.19-2.74-0.8-6.84,2.31-8.94c0.83,0,1.25,0.4,1.61,1.11c-1.16,3.7,1.18,4.69,1.4,4.55c1.36-1.01,0.23-2.66,1.12-3.65
		c2.82-0.54,5.27-1.57,7.74,0.2c-0.4,3.82,0.4,7.53-0.2,11.15c-1.2,7.2-3.66,11.75-2.41,10.29c3.22-3.77,3.67-10.43,4.6-10.12
		c1.98,0.8,3.84,0.85,5.96,0.83c4.6-0.05,5.29,2.02,11.33-0.3c6.01-7.45,21.78-30.21,20.09-26.25c-2.65,6.2-8.05,9.96-7.05,10.96
		c0.14,0.14-1.05,0.15-1.28,2.03c1.11-0.4,1.51-1.11,1.71-1.91c-0.09-0.09,5.49-6.13,8.64-7.84c0,6.21-15.45,25.34-18.89,29.64
		c-0.78-0.38,0.32-1.81-0.98-1.99c-1.12-0.28-0.47,3.57-0.82,4.5c-7.23,11.71-6.48,10.97-7.5,11.41
		C243.81,193.63,243.25,195.9,243.25,198.62z M203.05,193.77c1.11,1,1.51,1.91,0.7,3.01C203.56,195.88,202.65,195.17,203.05,193.77z
		 M310.15,199.29c-3.49-5.23-6.84-8.72-14.57-11.25c-13.16-4.32-21.1-4.16-23.21-6.03c-5.52,0.79-11.36,2.1-15.27,6.13
		c-8.57,8.82-10.31,14-11.55,14.87c-0.63-2.32-0.54-2.51,0.9-5.22c4.65-8.72,10.24-16.88,16.38-24.61c6.35-8,14.1-22.11,14.57-26.12
		c-1.67-6.67-9.07-0.27-5.02-4.32c11.15-9.25,18-19.26,29.84-16.98c6.74,1.3,11.2,6.13,17.28,11.96c2.62,1.21,6.88-1.14,9.95,0.7
		c-1,3.32-1.65,6.71-3.11,9.75c-1.45,2.99-1.91,6.03-1.41,9.14c1.13,7-0.45,13.64,2.21,28.03c2.22,11.98,8.14,18.71,8.14,22.71
		C304.15,218.41,325.24,217.23,310.15,199.29z M405.39,199.39c-2.66,0-2.83-1.19-4.62-2.21c-2.81,0.2-5.43-0.09-8.14-0.5
		c-7.36-1.11-6.59,1.51-10.05,1.51c-22.59,1.58-23.37,0.39-44.31,8.24c-13.67-29.29-8.22-33.5-10.05-49.13
		c-0.59-5.08,0.95-11,3.72-19.29c4.75-0.91,5.38-0.15,18.39,2.81c8.45,1.93,4.27-1.69,9.64-2.61c14.63-2.5,15.7-3.08,17.58-4.22
		c3.58-2.16,7.64-3.82,11.65-6.43c4.06,22.66,6,28.86,3.32,31.25c0,0,0.1,0.3,0.2,0.5c0.4-0.1,0.9-0.1,1.31-0.2
		c0.27,0.82,0.3,2.3,0.3,2.41c-0.19,12.33,3.86,16.57,5.22,22C401.97,193.1,405.87,198.75,405.39,199.39z M463.46,186.43
		c-1.03,1.18-2.42,1.9-3.52,3.11c-11.7,13.02-29.66,10.92-50.13,10.65c-1.43-0.02-14.12-30.45-12.76-41.59
		c1.41-1.41,3.72-0.7,4.62-2.71c-1.63-1.32-2.89,0.14-4.72-0.03c-1.34-0.12,0.95-11.45-5.93-29.61c1.41-1,2.92-0.8,4.22-1.41
		c4.12-1.92,32.41-14.81,32.68-14.54c4.56,4.65,10.23,8.12,13.03,13.93c-3.83,4.02-8.84,3.7-13.76,4.32
		c1.21,1.81,3.21,0.7,4.32,1.81c-3.32,2.71-6.46,5.26-10.15,7.03c-2.13,1.02-2.83,2.76-2.49,2.67c10.69-2.91,4.96-4.67,17.97-9.9
		c10.25-4.12,9.55-4,9.65-3.9c4.42,5.62,9.74,10.43,13.84,16.25c0.6,0,1.21,0,1.71,0c6.53,7.64,10.95,16.28,14.87,25.72
		C470.81,170.46,473.36,175.12,463.46,186.43z M541.7,124.43c-2.84,0.81-5.34,2.4-7,5.33c-3.11,1.41-6.23,2.71-8.64,5.12
		c-7.81,7.81-13.53,11.14-16.28,14.47c-7.87,9.53-20.78,13.17-29.84,17.48c-1.51-3.02-1.82-3.72-2.52-4.9
		c-6.05-10.19-3.52-9.34-10.05-18.89c-6.02-8.81-16.37-14.85-17.98-17.68c7.81-4.28,24.82-6.16,24.82-10.25
		c45.93-14.13,44.99-14.41,45.91-17.18c0.2-0.5,1-1,1.61-1.11c2.34-0.61,4.52-1.82,6.82-2.45c13.52-3.72,16.97-6.84,21.96-8.03
		c40.14-9.55,60.59-9.22,93.58-33.22c1.41,3.11,5.32,3.52,6.53,6.83c-1.31,3.11-0.5,6.13,0.5,9.34c-1.41,1.21-1.41,3.11-2.01,4.92
		c-1.61,0.7-2.92,1.93-4.82,2.11c-5.18,0.5-7.36,4.59-9.07,4.26c-2.37-0.45-3.76,1.43-5.49,2.86c0.72,0.1,1.4-0.61,2.11,0
		c-1.42,2.83-29.45,15.79-36.97,24.31c-4.89,5.55-13.59,9.79-15.71,10.28c-1.47,0.34-3.21,0.3-4.48,0.96
		c-2.29,1.2-4.86,1.74-7.43,1.91C560.93,121.35,543.34,123.96,541.7,124.43z M714.94,190.26c-1.56,0.85-2.33,2.45-2.88,4.04
		c-0.03,0.1-0.27,0.24,1.48-0.82c-0.94,2.97-1.46,2.33-4.52,5.93c0-0.77,0.69-3.41-1.56,0.11c-0.08,0.13-0.15,0.04,0.89,0.37
		c0.19,0.1-1.17,1.51-2.15,2.03c-2.58,1.36-4.62,3.42-6.63,5.53c0.52,0.16,1.15,0.12,1.04,0.27c-0.2,0.23-1.65,1.95-2.26,1.95
		c-6.55,7.58-12.54,9.27-20.69,12.55c-4.41,1.78-8.97,2.83-13.76,2.41c-4.69-0.41-10.93,0.98-13.67,0.69
		c-20.19-2.11-27.16-8.49-29.14-7.43c12.1,7.22,26.68,7.19,11.82,6.57c-4.69-0.2-9.31-0.48-13.63-2.05
		c-17.77-6.44-13.78-6.19-17.28-7.33c-15.2-4.96-21.6-14.44-27.29-25.01c-10.18-18.9-15.44-43.87-14.72-51.74
		c0.36-3.93,3.51-13.56,3.02-13.56c2.06-0.99,4.16-0.79,6.02-1.21c1.01,1.27-0.53,1.98,0.7,2.51c0.9-0.5,0.5-1.91,1.51-2.71
		c2.32-0.9,4.45-1.82,6.63-2.51c14.02-4.48,22.4-16.88,26.32-16.88c0.3,0.8-1.11,1.31-0.2,2.41c4.13-6.26,0.2-2.91,26.09-18.27
		c-0.65,1.24-2.68,1.9-1.87,2.71c3-1.68,3.73-3.32,4.23-3.32c0.93,0,2.24-1.58,6.52-3.72c2.81,3.01,7.84,2.41,10.25,6.43
		c-1.7,1.32-6.21,3.13-5.38,3.97c-0.07-0.04-0.21-0.13-0.35-0.27c-2.31,1.11-4.42,2.71-6.03,4.72c0.03,0.03,0.06,0.07,0.09,0.1
		c-0.32-0.28-3.02,1.7-4.2,3.92c-2.61,2.31-4.62,4.92-6.13,8.04c0.11,0.11,0.33,0.33,0.4,0.4c8.69-11.74,4.56-6.32,8.36-10.22
		c1.28-1.31,1.68-1.95,1.59-2.12c0.28,0.27,0.79,0.16,6.32-4.54c-0.01,0-0.04-0.02-0.05-0.03c0.14,0.14,3.68-1.84,4.17-2.16
		c4.8-3.12,9.35,1.16,11.65,2.01c6.59-1.86,10.79,9.91,17.58-7.34c8.03,0,20.49,6.54,26.82,12.16
		c21.7,19.24,25.53,51.91,11.65,78.16c-0.05,0.09-0.82,1.79-0.75,1.86c0.33,0.33,0.22,0.27,0.3,0.18
		c16-21.95,10.63-67.89-12.89-82.33c0.19-0.19-1.02-1.69-2.63-2.09c-0.5-0.7-1.11-1.21-2.01-1.41c-6.03-4.52-13.16-6.33-20.39-7.84
		c0.09-0.55,1.21-3.97,1.21-7.74c7.54,1.47,12.73,5.04,14.27,5.04c0.76,0.76,1.66,1.92,3.31,1.98c0.02,0.43,0.87,1.49,2.07,1.4
		c0.05,0.1,1.02,1.97,2.64,1.97c0.09,0.09-0.15,0.17,0.62,0.94c8.61,7.29,10.39,11.91,11.54,11.86c0,0.97,0.41,1.63,1.33,1.98
		c0.32,0.16-0.13-2.04-1.24-2.04c0.18-1.63-10.27-12.94-12.14-12.91c-0.26,0-0.6-1.38-2.55-1.84c-0.52-0.12-0.61-1.47-2.18-1.38
		c-0.64-1.26-1.84-1.89-3.22-2.05c-0.29-2.09-13.31-5.46-14.25-6.66c1.4-5.91,1.95-4.78,3.01-4.42c23.26,13.22,32.37,17.99,43,43.4
		c2.1,5.03,2.26,10.46,3.52,15.67c0.68,2.82-0.27,5.62,0,8.34C731.77,173.68,712.45,197.74,714.94,190.26z"/>
	<path d="M222.74,206.02c-0.1-0.03-0.07,0.02-0.1,0.1L222.74,206.02z"/>
	<path d="M248.67,496.17c-0.16,0.16-0.1,0.11,0,0.01V496.17z"/>
	<path d="M217.92,546.91c0.04-0.19,0.13-0.1-0.1-0.1L217.92,546.91z"/>
	<path d="M633.05,420.12c-2.75-9.27-12.29-22.43-14.27-23.91c-15.4-10.18-19.01-22.02-60.48-27.63c-0.2-3.72-2.01-6.73-4.22-9.44
		c0.8-3.42-0.29-5.94-2.71-7.94c-2.9-2.4-5.22-4.42-8.64-3.01c-18.06,7.4-19.41,6.89-18.69,9.95c-18.2,2.17-11.97,1.77-21.1,0.8
		c-5.47-0.58-6.03-1.1-7.23-0.3c-1.11,1.51,0.6,2.51,0.2,3.62c-8.74,1.11-17.18-0.58-25.62-2.51c-6.31-1.44-0.25-1.26-24.51-10.25
		c-12.52-4.64-10.27-7.92-51.74-17.88c-23.32-5.6-11.19-5.41-31.04-7.03c-1.11-0.09-2.31,0.1-3.21,0.8
		c-13.18,8.46-18.08,13.76-15.27,31.04c0.78,4.84,0.49,20.73,1.71,28.13c0.37,2.26,7.31,27.75,22.2,60.98
		c-2.61,0.5-5.23-0.22-7.74,0.5c-14.35,4.15-17.53-4.29-36.47-2.01c-1.51,0.18-3.11,0.6-5.02,0c-1-4.32-5-6.35-7.94-9.34
		c-3.04-3.09-12.67-5.01-21-0.7c-8.43,4.36-10.84,8.65-12.76,10.15c-9.43,7.33-10.57,10.72-17.38,19.99
		c-5.54,7.54,0.51,3.84-10.15,15.47c-4.82-0.9-9.95,0.3-15.17-0.9c0.2-1.91,0.48-3.52,0.6-5.22c0.42-5.83-2.81-8.64-8.44-7.23
		c-0.6,0.2-1.31,0.4-1.81,0.5c-1.21-0.5-1.41-1.99-2.71-2.11c-1.01-0.09-1.61,0.7-2.61,1.21c-2.01-1.31-4.22-0.5-6.43-0.3
		c-0.8-0.8-0.9-2.41-2.81-2.51c-1.61,0.8-3.42,1.81-5.43,2.81c-1,0.1-1.91-1.11-2.91-0.5c-1.21,0.5-0.2,1.81-0.9,2.41
		c-1.51-0.3-0.6-2.01-1.51-2.61c-0.2-0.1-0.5-0.3-0.6-0.2c-7,3.41-19.66-0.22-24.61,14.77c-6.75,20.41-6.69,19.32-1.91,33.85
		c1.46,4.43,4.09,5.59,8.44,7.94c-1.65,7.86,0.67,5.38,2.51,7.43c5.23,5.85,10.09,3.15,15.27,4.12c15.38,2.88,16.45,0.51,17.28,3.01
		c-10,0.8-4.72-2.25-10.55,0.1c-8.39,3.38-18.93-2.85-26.12-8.24c-1.11-2.11-0.4-4.22-0.9-6.33c-1.61,2.71-1.44,5.95,0.3,8.24
		c6.31,8.27,14.98,7.07,18.39,8.44c4.42,1.78,5.63-1.09,19.69,0.7c-1.04,5.96-12.86,7.63-18.79,8.74
		c1.48,2.67,16.24-2.07,18.89-2.91c1.91-0.61,3.11-2.41,4.12-4.22c2,2.67-2.59,4.51-3.27,6.21c2.31-0.08,3.51-1.92,5.07-3.19
		c1,0.5,0.7,1.31,0.6,2.11c-0.9,1.31-2.51,1.71-3.82,3.01c-0.5,0.7,0,1.61-0.4,3.01c6.53-0.7,10.85-4.22,14.77-8.34
		c1.41-0.2,0.7,1.81,2.01,1.81c0.7-1.61-0.9-3.01-0.3-4.42c-4.32-4.12-7.94-9.14-14.27-10.95c0.1,1.44,2.36,2.22,3.62,3.21
		c3.65,2.89,4.7,7.29-0.3,11.96c0.1-2.91-0.83-5.02-1-7.43c-0.12-1.71-0.6-3.32-2.71-3.62c0.4,1.21,1.61,2.21,1,3.82
		c-1.44-0.74-2.1-2.22-2.81-3.52c2.22-1.21,1.61,0.86,2.01-1.51c-2.95-0.59-8.41,0.85-18.18-0.6c-4.02-0.6-8.04-0.79-12.06-0.9
		c-5.08-0.14-10.64-6.12-8.04-8.44c7,3.5-0.05,0.23,6.77,2.96c1.52,0.51,3.43-0.07,4.48,1.86c-1.92,1.01-3.21-0.8-5.02-0.4
		c3.93,3.27,12.36,1.2,17.28,2.41c0.84,0.21,18.38-4.62,25.52,4.22c0.9,0.2,0.9-0.9,1.61-1.21c2.41,2.61,6.05,3.81,7.94,7.03
		c3.32,5.67-2.24,8.63-3.72,10.85c2.81-0.9,4.82-2.81,6.23-5.43c0.9,1.11,0.1,2.01,0.3,2.91c3.06,3.06,7.43-20.19-12.16-26.02
		c-3.11-0.93-6.43-1.21-9.64-1.61c-2.51-0.31-3.82,0.4-5.12,0.6c0.06,0.19-0.03,0.45-0.01,0.72c0.12,1.83,2.16-2.66,15.68,2.79
		c6.42,2.59,8.57,6.94,10.32,12.61c0.15,0.47,0.14,0.97-0.57,1.56c-3.96-6.33-12.89-11.3-15.47-12.16c0.79,1.6,2.67,1.71,3.49,3.17
		c0.1,0.1,1.34,0.04,1.64,1.25c-0.9,0.1-1.41-0.3-1.81-1c-3.66,0.46-0.11-3.06-21.2-2.81c-12.6,0.15-3.46-0.2,1.8-3.32
		c0.11-0.06,0.7-0.41,1.62-0.86c2.01-0.99,4.68-1.85,4.43-2.02c-2.76-2.16,1.05-0.75,1.9-2.33c0.16-1.12-3.58,0.61,1.51-4.02
		c1.31-0.2,2.41,2.01,4.02,0.3c-0.7-0.7-2.21,0.1-2.51-1.41c1.31-0.7,2.94-1.08,4.22-2.31c1.02-0.98,2.71-1.51,3.92-2.11
		c0.6,0.4,0.3,0.7,0.3,1c-1.71,0.9-2.91,2.31-4.52,4.02c2.71-0.4,3.52-2.31,4.92-3.62c-0.02-0.02-0.03-0.03-0.04-0.04
		c2.95-1.77,2.98-1.77,6.57-1.27c11.32,15.34,6.09,28.7,28.63,39.28c4.55,2.14,10.16,6.7,27.13,9.64c8.6,1.49,21.96,6.32,27.83,8.84
		c10.31,4.43,13.48,1.77,17.68,3.52c15.56,6.46,48.33,7.05,64.9,3.72c9.41-1.89,15.39,12.88,21.9,15.57
		c17.2,7.13,26.98,13.59,27.63,8.44c-9.64-0.62-15.27-6.72-23.81-9.04c-9.29-2.52-14.81-20.08-27.83-17.58
		c-5.73,1.1-11.65,1.01-17.48,1.51c-15.74,1.33-38.05-3.15-41.59-4.72c-6.27-2.78-12.85-0.8-21.9-4.42
		c-7.23-2.89-13.92-4.29-19.29-6.73c-5.96-2.71-11.45-0.93-22.71-6.03c-12.99-5.88-15.21-5.75-19.59-10.05
		c-12.31-12.07-8.44-15.61-14.07-25.92c16.43-28.16,22.9-23.94,47.52-16.58c1.4,0.42,2.61,1,4.12,2.21
		c-2.61,1.31-5.32,1.31-8.44,2.61c4.32,1,7.64,0.8,10.85-1.21c8.24,3.72,14.37,14.07,13.06,22.1c-7.76,3.39-3.04,2.75-15.67-2.01
		c-3.42-1.29-6.73-2.91-10.55-3.11c-0.51,4.83,8.15-0.09,49.23,26.93c0.78,0.67-0.2,2.05,1.71,2.51c13.1,3.18,13.2-0.21,27.23,3.92
		c11.07,3.26,9.32,1.02,16.18,2.81c8.23,2.15,16.48,3.67,25.02,2.81c5.63-0.57,10.84,1.57,16.18,2.61c8.2,1.6,2.82,3.27,15.07,6.33
		c4.22,3.42,8.74,5.49,13.66,6.13c6.64,0.86,12.76,3.52,18.89,5.83c0.84,0.42,0.15,2.04-2.01,1.61c-3.9-0.78-8.03-0.81-11.75-2.51
		c-2.21-1.01-9.44-2.21-11.75-2.01c0.69,2.06,5.77,0.67,15.67,5.12c3.81,1.72,7.74,2.91,12.06,2.81c0.3,1.81-0.9,2.31-1.91,3.01
		c-9.75-1.61-19.49-3.11-29.14-4.72c3.62,2.71,8.14,2.61,11.96,4.42c10.89,5.16,14.44,3.87,9.85,6.93
		c-9.96-1.22-9.44-3.68-26.22-7.03c6.43,2.91,11.65,7.84,18.89,9.95c-0.2-2.51-2.91-2.01-3.62-3.52c0.91-1.36-0.58,0.85,9.85,1.91
		c3.11,0.32,4.52-0.8,5.22-4.32c-3.62-1.51-7.64-2.31-11.05-4.42c5.22,0.4,10.15,2.51,15.57,2.51c1.11-1.71,2.91-3.01,1.91-5.43
		c-1.51-1.11-3.32-0.5-5.43-1.11c3.01,0.1,3.52-2.01,4.32-3.72c-0.58-1.17-14.32-5.82-21.3-6.83c-2.62-0.38-5.02-1.81-7.53-2.91
		c-0.6-0.9,0.49-1.8-0.3-2.81c-1.96-2.53,0.65-3.34-7.03-2.11c-6.06,0.97-6.52-3.93-17.88-5.53c-4.16-5.39-11.31,0.59-37.88-5.22
		c-34.43-7.54-30.72-3.46-42.2-6.43c-2.89-5.78-18.52-14.53-24.51-17.08c-0.5-0.21-1-0.4-1.21-1.21c1.41-0.2,2.71-0.7,3.72-1.91
		c0.82-1.23,16.11-6.94,22.1-7.94c10.13-1.69,7.26-4.62,23.01-6.23c43.48-4.45,52.66-0.04,79.47-16.18
		c5.79-3.48,11.42-14.63,11.15-24.92c-0.08-3.01,0.53-6.03,0.3-9.04c-0.09-1.21,0.9-2.01,1.11-3.11c1-5.43,1.42-10.95-0.1-16.38
		c-2.19-7.84-4.72-15.47-9.34-22.2c-2.57-3.74-1.46-6.65-17.48-24.71c4.99-1.6,8.69-2.45,27.53,0.2c8.62,1.21,10.41-0.48,19.79,1.71
		c0.88,5.41,5.73,8.68,4.42,10.65c-2.71,3.52-3.84,7.83-6.13,11.45c-3.18,5.03-5.29,16.39-5.12,21.7c0.11,3.42-0.6,6.83-0.5,10.35
		c0.36,13.11,6.75,32.25,10.05,37.78c12.07,20.24,11.88,19.58,13.16,20.7c9.55,8.33,7.2,10.32,15.87,14.27
		c18.51,8.41,36.97,11.65,42,11.35c8.04-0.47,16.15,0.5,24.11-1.21c2.5-0.54,4.72-1.91,7.33-2.11c10.85-0.82,19.88-6.44,28.93-11.55
		c1.61-0.91,2.21-2.71,3.52-3.92c13.98-12.93,27.03-31.88,27.53-50.84c0.18-6.83,0.9-13.66-0.1-20.5
		C639.31,444.42,640.63,445.64,633.05,420.12z M231.18,538.97c1.22,1.74,0.99,1.07,1.81,2.71c-1.99,2.27-3.14,3.34-5.82,4.02
		C226.47,545.7,229.81,544.84,231.18,538.97z M216.31,542.59c0.98-0.8,1.14-2.26,2.21-3.21
		C218.02,541.68,218.02,541.68,216.31,542.59z M440.15,565.69c0.48,0.72,0.4,1.28-0.3,1.81c-0.7-0.5-1.71-0.7-2.01-1.71
		C438.05,565.79,439.11,565.05,440.15,565.69z M525.56,367.43c0.51-1.15,0.39-1.18,0.39-6.09c1.47,0.39,1.31,2.61,2.81,2.61
		c2.86-2.08-1.07-4.77,0.9-6.03c3.26-2.97,7.7-4.62,12.08-6.57c1.75-0.78,3.47-1.09,5.41-0.46c1.11,1.41,2.51,2.51,4.12,3.72
		c-0.82,3.28,4.12,1.47-12.76,7.03C536.29,362.38,524.31,368.68,525.56,367.43z M522.94,363.15c1,1.91,0.4,3.42,1,4.82
		c-1.18,0.59-1.97,0.94-2.81,0.6C522.46,364.58,521.9,365.55,522.94,363.15z M518.32,361.45c1.51,2.51,0.4,5.32,0.9,7.94
		c-0.9,0.37-1.69,0.71-2.61,0.37c-1.87-0.68,1.9-1.72-0.6-8.11C516.91,361.35,517.51,360.94,518.32,361.45z M497.5,360.74
		c2.81,0.6,5.32,1.31,7.64,1.41c1.6,1.6,1.14,4.54,1.71,6.43c0.04-0.01,2.21-0.2,3.21-0.2c1.31-2.51-0.5-4.22-1.11-6.33
		c2.31-0.69,3.57-0.85,4.37,4.35c0.14,1.39,0.1,2.63-0.25,4.09c-5.97-0.86-10.04,0.47-16.88-0.9
		C497.9,366.87,498.1,363.96,497.5,360.74z M346.02,349.49c0.1,0.2-0.3,0.3-1,0.9c0-8.98-1.26-11.07,11.25-21.2
		c4.96-4.02,9.2-1.3,11.96-1.91c5.23-1.15,3.91,2.49,30.44,7.84c33.96,6.84,72.89,36.53,96.75,28.93c0,2.98-1.13,5.32-3.11,7.54
		c0,1.31,1.21,1.81,1,3.32c-4.22-1.21-8.44-0.62-12.66-0.9c-29.91-2.04-50.37-15.67-66.31-20.9c-2.84-0.93-7.54-6.08-19.29-7.53
		c-18.54-2.31-20.52-8.15-28.03-7.23c-5.93,0.72-11.06,3.39-16.48,5.63C348.12,344.96,345.92,346.38,346.02,349.49z M211.51,520.37
		c-0.15,0-1.45,1.52-3.44,1.52c2.93-3.3,1.91-3.51,3.42-1.51c0.7-0.7,1.28-4.19,4.52-4.42
		C214.71,517.56,213.71,519.56,211.51,520.37z M209.68,512.53c0.19,0.88-1.79,1.01-2.78,0.62c-1.91-1.91-2.22-1.69-3.14-2.61
		c1.11-2.77,1.79,1,3.42,1c1.26-1.83-1.55-2.74-0.7-4.02c1.6,0.31,0.92,3.1,3.27,0.63c0.78-0.82,1.59-1.74,3.06-1.95
		c0,2.91-3.42,3.32-3.82,5.73C208.98,512.18,209.62,512.22,209.68,512.53z M213.39,508.8c0,1.45-1.01,2.4-2.3,3.04
		C210.99,510,212.31,509.46,213.39,508.8z M216.12,508.75c-0.75,5.97-5.32,5.34-5.22,5.27C213.52,512.8,214.33,510.34,216.12,508.75
		z M221.25,511.55c-1.21,0.1-2.61,0-4.02,0.5c-0.6-1.3,0.4-2.81-1.1-3.31c0.83-1.23,2.24-2.06,2.6-3.21
		c-0.58-1.53-1.3-2.48-3.01-1.91c-0.29,1.06,1,1.09,1,2.31c-1.37,0.29-1.61,2.27-3.17,2.66c0-0.65,1.44-2.45-0.54-3.77
		c-2.67-1-2.99,0.38-4.02,1.41c-0.8,0.2-1.52-0.73-2.71-0.1c-1.63,0.86-2.71,3.01-5.02,4.62c0.43-2.22,2.44-3.55,3.13-5.05
		c0.62-1.34,0.04-1.69,0.39-1.68c0.64,0.02,0.33,1.09,1.1,0.89c0.22-1.55-0.07-2.1-1.21-3.52c-0.5-0.2-0.6,0.1-0.8,0.4
		c-3.7-2.29-6.51-1.75-6.57-1.64c-0.25,0.55,1.3,3.18,2.45,4.75c0.89-1.5-0.98-2.2-0.6-3.53c1.67,1.68,1.65,1.74,2.65,4.93
		c0.19,0.61-1.59,2.22-2,3.83c-0.32,0.96,3.73,2.89-6.37,12.34c-0.35,0.26,0.95,0.06,1.73-0.41c3.12-1.89,5.64-7.22,6.5-8.63
		c6.56,2.19,8.36,1.33,8.36,1.33c0.69,0.49,1.19,0.89,1.09,1.69c-8.9,9.68-4.83,8.27-17.88,7.53c-0.5,0-0.5-0.6-0.6-1.11
		c-0.7,0.1-1.31,0.2-2.01,0.4c-1.62-1.54-7.03-2.81-6.8-4.09c0.04-0.21,0.63-3.99,0.65-5.22c0.09-5.74-1.39,3.67-2.19,4.89
		c-2.37-1.14-6.51-2.91-6.53-5.71c-0.06-8.73,3.2-28.49,0.46-16.56c-1.06,4.63-1.17,8.19-1.17,12.62c-1.85-3.12-1.1-6.4-1.61-9.44
		c-1.71,1.91-0.6,4.02-1.51,5.93c-0.82-3.29-1.58-4.83-1.52-7.83c0.08-4.2,3.06-12.39,4.51-14.45c0.86,0-2.14,7.03-1.8,10.14
		c0.99-0.29,1.11-1.19,1.69-1.69c0.35-0.35-0.89,3.64-0.82,5.14c0.07,1.6,0.82-1.43,2.45-5.64c1.73-4.46,3.52-5.97,3.42-5.97
		c0,2.48-0.5,4.1,0.3,5.93c0.76-2.59,1.22-5.27,0.7-7.94c-0.4-0.7-1.31,0.7-1.61-0.4c0.27-0.82,1.79-1.33,2.01-2.71
		c-0.95,0.47-2.79,0.84-4.12,1.41c0.38-2.64,2.52-4.1,2.24-4.51c-0.4-0.5-0.25-1.26-0.53-1.92c-1.21,0.7-1.21,2.51-3.32,3.32
		c0.47-0.87,3.22-5.4,4.82-7.13c6.13-2.91,11.96-3.01,17.28-5.02c0.7,0.7,0.8,1.91,2.01,2.21c5.78,0.14,10.41-7.55,11.52-3.17
		c0.56,1.7-1.03,1.5-1.05,2.79c-0.01,0.45,0.56,1.06,1.06,2.23c0.29,0.58-1.44,1.26,0.03,2.07c1.51-1.21,0.9-2.92,1-4.62
		c2.35-0.74,5.12-1.81,5.22-1.81c-0.39,2.49-0.1,3.32-0.1,8.85c2.12,0.78,1.6-1.61,1.61-4.9c0.01-4.18,2.8-4.09,2.96-2.27
		c0.07,0.76-1.15,3.51,1.46,4.56c1.55-1.55,0.33-2.32,1.11-3.62c7.04-2.1,6.71,0,7.84,0c-1.01,7.24,2.15,5.18-3.11,22.71
		c3.01-3.72,3.42-7.64,4.82-11.35c2.31,0.9,4.62,0.85,7.03,0.8c3.9-0.08,3.67,2.21,10.65-0.2c5.81-7.3,16.55-22.98,20.29-26.72
		c-1.74,5.31-6.83,8.91-8.54,13.36c3.52-2.98,2.45-3.92,10.35-9.85c-4.32,11.55-11.75,20.9-19.19,30.24
		c-0.68-0.84,0.77-1.94-0.89-2.42c-1.08,1.42-0.4,3.33-0.7,4.92c-1.58,1.78-2.29,4.32-4.32,5.94c-1.51,6.8-6.33,3.84-5.83,11.34
		C234.91,505.22,227.88,506.83,221.25,511.55z M203.05,505.62c-0.6-1.51-1.11-2.71-1.81-4.52
		C203.25,503.3,203.25,503.3,203.05,505.62z M177.33,486.02c-0.08-0.25,0.24-0.88,0.8-1.11c0,0.15,0,0.45,0,0.6
		C177.84,485.62,177.84,486.53,177.33,486.02z M315.98,523c-0.2-6.13-2.81-10.95-6.43-15.17c-1.34-1.34-3.47-7.79-14.77-11.55
		c-11.03-3.67-20.68-4.36-23.41-5.73c-6.11,1.22-10.71,1.61-15.35,6.33c-9.49,9.65-9.46,13.32-11.37,14.67
		c-1.11-1.77-0.5-2.21,1.52-6.13c11.6-22.54,17.19-20.98,28.43-44.41c1.77-3.68,3.04-6.24,0.2-8.44c-1.53-1.18-3.01,0.3-4.72,0.1
		c1.2-1.5,2.51-2.62,3.81-3.66c10.13-8.11,5.51-6.01,11.82-10.54c4.25-3.04,12.83-6.13,17.41-3.99c7.2,3.37,6.73,3.43,15.17,11.45
		c3.01,1,6.73-0.6,10.35,0.7c-1,3.32-1.71,6.83-3.21,9.95c-2.98,6.15-0.67,8.8-0.9,17.48c-0.75,28.17,9.64,35.98,9.64,42.3
		C328.34,518.37,322.11,520.18,315.98,523z M395.75,505.82c-8.56,0-28.23,2.34-33.25,2.01c-4.4-0.29-20.67,5.5-25.22,7.23
		c-7.48-19.45-9.64-19.22-9.64-41.29c0-14.82-2.18-5.82,3.52-27.23c2.41-0.4,4.62-0.4,6.83,0.2c4.72,1.29,15.79,4.53,17.98,2.71
		c4.05-3.34,8.95,0.16,12.86-3.32c1,2.41,3.62,3.72,3.62,7.03c2.93,2.53,3.36,6.44,4.91,9.82c0.7,1.53,1.27,2.14,1.32,2.24
		c-0.94,0.96-0.64,1.99-0.2,3.21c3.59,9.99,2.39,10.8,6.53,18.69c8.61,16.4,13.94,15.27,14.45,18.59
		C399.48,505.86,399.88,505.82,395.75,505.82z M442.06,489.44c-12.4,12.26-30.77,16.57-39.07,16.06
		c-19.67-17.82-19.18-30.61-22.4-39.08c-1.11-2.91-2.21-5.53-2.71-8.64c31.78,10.69,39.95-10.57,66.98-5.01
		c0.1,0,0.63,1.24,2.53,8.24C450.54,472.57,446.14,485.41,442.06,489.44z M449.9,453.67c-2.72-8.17-6.07-13.26-5.78-13.26
		c1.58-0.02,2.47-1.11,3.77-1.51C449.49,443.81,450.4,448.56,449.9,453.67z M437.14,415.2c0,4.44,14.8,20.22,5.83,23.41
		c-10.04-16.06-8.28-13.49-22.32-27.85c-19.97-20.43-18.15-14.16-2.35-14.44c3.46-0.06,4.3-0.81,4.89,0.29
		C423.2,396.63,437.14,415.17,437.14,415.2z M472.39,394.58c-1.91-1.95-4.01-2.2-6.62-1.39c0.3,0.6,1.41,0.1,1.51,1.11
		c-15.18,0-33.95-3.99-40.89-2.41c-6.47,1.47-13.21,1.23-19.8,0.3c-9.69-1.37-16.02-4.29-28.43-21.1c-0.59-0.8-1.06-1.9-2.51-1.71
		c2.2,8.56,8.77,12.01,11.45,15.97c4.51,6.67,10.58,7.8,13.06,9.75c12.64,9.93,13.69,12.69,18.28,17.28
		c4.64,4.06,15.96,17.09,16.38,17.88c1.59,3.04,9.22,15.76,8.94,18.79c-5.34,0-6.77-3.79-36.78,7.28
		c-6.27,2.31-24.34,2.06-30.03-2.47c-7.11-13.04-4.53-7.15-11.15-20.7c-8.27-16.92-14.29-39.23-16.88-46.11
		c-2.88-7.65-0.92-14.66-1.61-17.98c-1.37-6.68-0.23-13-0.4-19.99c0.8-1.21,1.5-1.81,2.31-2.21c9.86-4.86,16.17-9.58,28.93-3.72
		c7.08,3.25,16.78,3.81,21.6,6.03c8.86,4.08,18.18,7.24,26.93,11.45c35.55,17.13,56.71,16.08,67.72,16.08
		c0.46,5.78,3.28,8.17,1.11,9.75c-2.68,1.95-3.52,4.82-4.72,7.74c-2.09,0-3.74,2.69-4.5,2.69c-4.56-0.66-5.11-1.45-6.8-2.02
		C475.97,393.68,472.5,394.69,472.39,394.58z M483.85,399.52c-3.58,0.42-6.33-0.14-9.14-1.21
		C477.62,399.02,480.83,397.01,483.85,399.52z M476.95,401.64c5.73,1.71,10.35-0.4,14.87-1.71c2.11-3.41,0.74-6.18,3.92-9.95
		c2.11-2.51,3.94-5.33,2.21-9.14c-1.19-2.62-1.41-5.73-2.01-8.94c4.17,0.25,8.53,0.7,9.13,0.7c2.91,3.52,2.41,8.24,5.12,11.75
		c2.11-3.01,1.91-4.32-1.81-11.65c0.11,0,1.13-0.58,2.12,0.35c2.82,2.65,1.8,8.92,5.31,9.09c2.73-1.82,0.07-7.86-0.91-8.84
		c-0.1-0.1,0.1-0.4,0.1-0.7c0.8,0.1,1.7-0.5,2.4,0.19c1.4,1.38,0.05,5.27,3.33,6.64c3.48-4.24-3.25-8.27,1.44-8.66
		c1.35-0.11,1.94,4.07,4.69,5.33c1.61-2.51-0.2-4.12-1.21-6.03c0.7-0.2,1.11-0.8,1.81-0.5c1.21,1,1.81,2.91,3.72,2.31
		c1.5-1.79-0.95-2.49-0.8-3.51c0.5-0.25,9.43-5.85,21.2-8.94c1.38,2.38,2.84,5.15,3.91,7.01c0.1,0.1-0.11,9.65-4.41,14.88
		c-2.54,3.09-4.11,7.04-7.33,9.54c-6.51,5.05-12.76,10.55-20.9,13.26c-5.8,1.93-18.54,9.07-19.49,14.77
		c-3.72,2.61-7.03,5.83-11.96,5.53c-4.62-4.72-6.93-10.95-11.55-15.87C480.54,405.85,478.33,404.04,476.95,401.64z M635.66,457.89
		c-1.01,6.43-0.91,12.96-2.81,19.29c-5.86,19.53-9.07,19.88-11.18,22.18c0-0.12-0.01-0.24-0.08-0.39c0.1-0.4,0.2-0.8,0.3-1.31
		c-1.98,0.38-0.41,0.72-1.94,2.25c-0.14,0.22-0.7,1.26-0.55,1.26c0.59-0.19,0.89-0.29,1.29-0.49c0.05-0.1,0.13-0.19,0.21-0.28
		c-0.07,0.12-0.14,0.25-0.21,0.39c-0.51,2.03-2.45,4.12-4.65,6.08c0.53-0.55,0.69-0.53,0.43-1.56c-1.55,0.96-1.6,1.04-0.96,2.02
		c-2.88,2.5-6.03,4.75-6.97,6.32c0,0.9-0.51,1.51-1.31,1.91c-0.44,0.67-1.03,1.22-1.65,1.74c-4.45,3.74-6.23,7.06-17.44,11.02
		c-4.64,1.64-8.37,3.98-15.87,3.62c-5.74-0.28-11.8,0.87-15.07,0.6c-16.98-1.4-27.52-7.92-29.44-8.03
		c2.66,3.1,16.37,6.76,20.09,7.73c-4.42-0.12-16.01-0.83-18.59-1.71c-6.04-2.06-12.2-3.85-17.78-7.23
		c-6.23-3.78-24.09-2.05-40.09-51.84c-1.42-4.42-2.06-12.13-3.52-17.48c-2.28-8.37,0.44-11.85,2.91-24.71
		c0.29-1.51,0.6-3.21,1.51-4.42c1.69-2.53,3.61-10.08,6.73-12.56c3.62,1.51,3.03,5.79,6.03,7.64c2.73,1.68,3.11,5.73,6.23,7.43
		c0.88,0,6.01,1.42,13.65-6.27c5.17-5.2,4.14-7.54,23.12-15.83c14.7-6.43,17.51-14.69,24.12-17.49c0.59-0.25,0.46-0.5,0.19-0.59
		c-0.9-0.3-1.61,1.11-2.71,0.3c1.41-2.21,2.42-4.72,4.22-6.43c3.96-3.76,3.46-8.51,3.98-9.21c0.77-1.05,0.35-0.09,13.2,1.28
		c13.73,1.46,43.84,17.95,52.74,32.95c1.61,2.71,2.53,5.81,4.32,8.34c5.59,7.89,7.04,16.98,7.54,26.22
		C635.97,446.34,636.56,452.17,635.66,457.89z"/>
	<path d="M330.95,562.68c1.81,2.21,4.82,2.81,13.96,2.71C339.59,563.28,333.16,562.08,330.95,562.68z"/>
	<path d="M287.55,517.97c-0.6-2.91-2.71-4.62-4.82-6.73C283.73,513.75,285.74,516.77,287.55,517.97z"/>
	<path d="M401.98,569.41c2.11,1.11,3.82,0.6,5.43,1C405.49,568.41,404.89,568.31,401.98,569.41z"/>
	<path d="M349.23,566.5c-1.51-1.11-1.51-1.11-3.32-0.8C347.42,566.7,347.42,566.7,349.23,566.5z"/>
	<path d="M397.15,568.61c1.11,1,1.11,1,3.42,0.8C399.16,568.61,398.26,568.31,397.15,568.61z"/>
	<path d="M442.87,576.75c-0.6-1.41-1.31-1.71-2.61-1.81C440.76,576.14,441.56,576.54,442.87,576.75z"/>
	<path d="M225.26,206.43c-0.7-0.4-1.51-0.6-2.21-0.5C223.55,207.13,224.35,206.93,225.26,206.43z"/>
	<path d="M215.21,547.61c0.9,0.1,1.41-0.2,1.71-1C216.11,546.51,215.51,546.71,215.21,547.61z"/>
	<path d="M182.96,523.9c0.3,0.9,1.11,1,1.61,1.51C183.82,523.2,184.01,523.55,182.96,523.9z"/>
	<path d="M248.26,545c0.4-0.7-0.4-1-0.8-1.71C247.36,544.4,247.86,544.7,248.26,545z"/>
	<path d="M620.79,497.98l-0.2,0.1C620.63,498.07,620.79,498.02,620.79,497.98z"/>
	<path d="M606.73,514.51c-1.28,1.29-0.84,0.72,0.5,1.05c0.8-0.4,1.2-1,1.31-1.91C607.93,513.5,607.17,514.06,606.73,514.51z"/>
	<path d="M605.92,152.47c-2.35-26.86,8.12-40.05,7.54-43c-19.97,41.62,1.31,73.96,1.31,73.85
		C615.09,180.41,607.56,171.2,605.92,152.47z"/>
	<path d="M679.57,212.65c-26.75,6.42-42.23-7.8-43.4-6.63c-0.4,0.54,8.84,6.51,20.9,8.54c15.29,2.58,30.71-1.95,37.94-7.71
		c0.09,0.26,2.76-1.1,4.06-2.64C698.36,202.83,691.89,209.7,679.57,212.65z"/>
	<path d="M606.62,191.06c-0.69,0.71,0.26,1.41,1.21,2.9C607.83,192.72,607.7,191.86,606.62,191.06c0.03-0.03,0.05-0.06,0.08-0.08
		c1.23-1.23-15.87-19.17-12.01-54.56c1.83-16.78-10.53,20.42,10.93,54.13C606.19,191.44,606.42,191.27,606.62,191.06z"/>
	<path d="M623.81,173.47c0.99-2.96-15.75-28.14,3.82-62.39c-0.19-0.19-0.39-0.3-0.41-0.3C614.2,128.51,615.25,160.64,623.81,173.47z
		"/>
	<path d="M700.06,185.54c-13.79,10.29-31.8,11.99-47.32,1.61c-0.93-0.62-2.53-2.21-2.95-1.57c-0.66-0.87-1.5-1.45-2.37-1.76
		c0.3,1.19,1.04,1.76,2.21,2.11c0-0.93,3.41,5.21,16.28,8.14C692.13,200.03,708.8,179.02,700.06,185.54z"/>
	<path d="M632.05,146.87c-0.39-24.25,15.82-37.65,12.68-35.64c-3.03,1.95-3.08,3.88-3.23,3.57c-8.83,9.92-13.55,30.08-7.54,48.12
		C634.25,158.02,632.21,157.04,632.05,146.87z"/>
	<path d="M649.67,125.07c-3.27,0.79-14.53,29.72,3.36,47.61c-0.32-2.59-2.53-3.58-2.7-3.75c2.76,0-14.89-15.76-1.31-41.76
		c0.38-0.88,0.74-0.86,0.74-1.95c-0.13-0.39,0.15,0.56,1.27-1.28c1.78-2.93,4.82-4.82,6.73-7.64
		C653.65,118.42,651.62,121.17,649.67,125.07z"/>
	<path d="M705.7,127.14c0-2.87-2.66-3.53-2.66-4.36c0-0.61-0.47-1.02-0.83-1.33c-7.09-7.83-10.05-7.92-10.05-7.82
		c-4.86-4.58-21.11-6.97-33.15,1.39c-1.4,0.84-1.31,1.42-1.12,1.42c1.38,0.16,8.25-6.87,20.9-6.14c8.03,0.47,11.14,3.43,13.39,3.43
		c-1.04,0,4.85,2.54,9.52,8.43c1.07,1.34,1.12,0.78,1.26,1.05c0,0.1,0.74,2.76,2.65,3.89c0,2.21,12.87,21.36-3.31,43.06
		c-0.64,0.86-0.69,1.26-0.69,1.48c-1.88,1.13-3.43,2.91-3.96,3.97c-0.41,0-1.85,0.37-2.71,2c-1.45,0.2-2.51,0.78-3.4,2
		c-1.6-0.19-2.71,0.89-4.1,1.31c-20.9,6.32-31.33-7.62-31.76-6.34c-0.29,1.64,9.39,9.27,21.95,9c6.52-0.14,13.9-2.89,13.9-3.87
		c0,0.24,3.37-0.81,3.37-2.02c1.28,0,2.14-0.88,2.71-2.02c0.13-0.13,2.82-0.87,3.98-3.93l0.01-0.03c0.01-0.02,0.01-0.03,0.02-0.05
		c2.07-0.23,9.59-12.34,9.54-24.86C711.14,138.11,707.15,127.25,705.7,127.14z"/>
	<path d="M593.97,203.21c2.91,3.92,6.84,6.62,11.25,8.64c1.31,0.6,3.11,1.51,4.52-0.2C609.74,209.46,608.2,211.13,593.97,203.21z"/>
	<path d="M568.65,154.89c1.11-3.62,1.11-6.93,1-10.55C567.35,148.36,566.94,152.78,568.65,154.89z"/>
	<path d="M572.58,169.65c-0.12-3.15,0.01-7.68-1.32-11.86C570.49,162.13,569.81,166.76,572.58,169.65z"/>
	<path d="M585.13,193.57c0.7,2.61,1.61,5.02,4.62,5.93C589.25,196.78,587.14,195.17,585.13,193.57z"/>
	<path d="M567.12,138.42c0.16,5.38,1.58-2.76,2.33-7.75C567.99,132.22,567.04,135.64,567.12,138.42z"/>
	<path d="M621.6,215.57c-2.11-1-4.12-1.11-6.83-1.81C617.08,216.27,618.78,216.67,621.6,215.57z"/>
	<path d="M635.75,216.81c2.85,2.31,6.64,2.6,7.95,2.97C643.6,219.75,634.41,215.72,635.75,216.81z"/>
	<path d="M625.31,196.98c-1-1.91-2.61-3.42-4.32-4.72C622,194.17,623.41,195.78,625.31,196.98z"/>
	<path d="M681.17,217.98c2.71,0.1,4.22-1,5.93-1.81C686.73,215.06,687.5,215.23,681.17,217.98z"/>
	<path d="M578.1,182.31c0.3,2.01,0.7,3.11,1.91,4.02C580.41,184.52,580.41,184.52,578.1,182.31z"/>
	<path d="M577.19,134.19c1.31-1.61,0.9-3.42,1.31-5.02C577.39,130.57,577.19,131.38,577.19,134.19z"/>
	<path d="M664.2,99.63c20.1-5.32,31.08,5.48,32.09,3.71c0.18-0.27-0.07,0.14-0.24,0.31c1.51,1.31,3.01,2.41,4.72,3.32
		c1.74-1.74-24-18.31-46.92-3.82c-0.36,0.18-0.64,0.52-0.91,0.8c-0.89,0.2-1.5,0.6-2,1.41C651.88,106.3,656.09,101.77,664.2,99.63z"
		/>
	<path d="M628.23,90.89c-0.56-1.05-3.35,2.55-4.02,3.62C625.81,93.71,627.17,92.34,628.23,90.89z"/>
	<path d="M651.24,105.66c-0.1,0-0.26-0.21-0.3-0.3c-1.71,0.6-2.71,1.91-3.72,3.32C648.53,108.12,650.05,107.05,651.24,105.66z"/>
	<path d="M576.69,151.67c0-1.41,0-2.81-0.01-4.23C575.99,148.84,576.27,150.19,576.69,151.67z"/>
	<path d="M710.51,175.08c-0.13-0.13-0.36-0.29-0.4-0.3c-1.17,0.84-1.5,1.97-1.35,2.05c-1.83,1.51-2.42,3.34-2.22,3.25
		c1.27-0.62,2.07-1.7,2.66-2.98C708.97,176.97,710.08,176.96,710.51,175.08z"/>
	<path d="M627.4,211.75c-0.94-0.77-1.91-1.44-3.09-1.91c-0.93-1.15-2.03-1.9-3.32-2.41c1.14,2.12,1.98,1.88,3.89,3.61
		c0.9,0.81,1.94,1.4,3.14,1.92c2.05,1.49,4.27,3.05,6.9,3.68C638.16,217.4,628.86,212.95,627.4,211.75z"/>
	<path d="M712.79,181.79c-1.25,2.31-1.89,1.78-3.15,4.48c-0.1-0.1,0.22-0.17-6.86,6.6c0.09,0.17,0.29,0.39,0.3,0.4c0,0,0,0,0-0.01
		c2.69-1.69,4.99-3.99,6.79-6.67c0.15,0.15,1.93-1.45,2.75-3.38c-0.27-0.09,1.76-1.27,2.61-4.02c-0.02-0.02-0.23-0.23-0.3-0.3
		C714.8,179.1,713.89,179.76,712.79,181.79z"/>
	<path d="M700.16,195.07c0.04,0.04,0.08,0.08,0.12,0.12c-0.5-0.4-3.32,1.65-4.24,2.49c-3.21,1.31-6.23,3.1-9.54,4.12
		c-30.37,9.33-46.69-10.75-49.23-10.75c-1.55,1.81,27.11,24.55,58.07,7.74c0.36-0.19,0.69-0.58,0.96-0.77
		c0.09,0.27,2.5-0.8,4.06-2.64c0-0.06-0.01-0.1-0.03-0.13c0.04,0.04,0.09,0.09,0.13,0.13c1.1-0.4,2-1.1,2.61-2.1
		c0,0-0.03-0.03-0.09-0.09C702.41,192.6,700.7,194.26,700.16,195.07z"/>
	<path d="M703.07,193.27C703.07,193.27,703.07,193.27,703.07,193.27C703.07,193.27,703.07,193.27,703.07,193.27z"/>
	<path d="M709.51,116.51c20.6,37.61-1.58,57.23,1.11,58.57c1-0.9,1.71-2.11,2.01-3.42c-0.1,0,14.6-23.02,0.52-50.44
		c-0.93-1.81-1.69-3.54-3.22-4.93c-0.2-0.15-0.39-1.29-1.8-2.52c-0.37-0.33-5.94-8.12-7.35-6.7
		C710.77,117.07,707.52,114.96,709.51,116.51z"/>
	<path d="M705.99,181.31c-1.91,0.1-2.21,1.31-2.81,2.21C704.48,183.32,704.98,182.31,705.99,181.31z"/>
	<path d="M714.42,102.84c0,2.29,12.05,16.44,12.06,42.81c0.01,21.34-10.01,37.77-10.05,37.88c-0.2,0.59,0.08,0.8-0.09,0.88
		c-2.1,1.9-4.18,5.88-4.08,5.98c-0.96,0.7-1.66,1.59-2.05,2.57c-7.67,7.67-8.75,8.61-8.67,8.84c-0.27-0.17-1.36,0.4-2.77,2.01
		c0.1,0.1,0.2,0.2,0.3,0.3c0.83-0.3,1.55-0.78,2.11-1.43c0.35-0.4,0.47-0.68,0.41-0.82c0.04,0.03,0.09,0.05,0.14,0.1
		c0.19,0.19,5.42-3.58,8.78-8.7c1.99-1.39,2.01-2.61,2.11-2.71c1.34-1.34,1.49-1.4,1.7-1.61c0-0.67,28.28-39.15,2.41-83.49
		C716.14,104.44,715.72,103.15,714.42,102.84z"/>
	<path d="M660.48,221.8c0.4,0.4,0.9,0.6,1.41,0.1C661.38,221.5,660.98,221.5,660.48,221.8z"/>
	<path d="M663.79,221.9c0.4,0.4,0.9,0.4,1.71-0.1C664.7,221.4,664.2,221.4,663.79,221.9z"/>
	<path d="M619.59,190.05c0.1,0.1-0.2-0.2-0.5-0.6C618.58,190.25,619.59,190.35,619.59,190.05z"/>
	<path d="M576.59,140.12c0.3-0.6,0.3-1.11,0-1.61C576.39,139.01,576.19,139.51,576.59,140.12z"/>
	<path d="M631.34,202.71c0.7,1,1.51,1.71,2.71,2.01c0.5,0.7,1.21,1.21,2.01,1.41c1.1-1.1-1.59-0.59-9.44-8.44
		C627.63,200,628.43,200.8,631.34,202.71z"/>
	<path d="M589.25,188.94c-0.37,0.15-0.17-1.47-2.11-3.21c-0.03,0-0.05,0.01-0.08,0.02c0.17-0.41-0.7-2.18-5.64-12.54
		c-0.7-1.46,0.48,5.82,5.31,12.72c0.07-0.03,0.15-0.05,0.2-0.07c-0.27,0.65,1.72,3.67,1.93,3.47c0.21,0.85,0.6,1.45,1.39,1.94
		c0.61-0.61,0.12-0.15,0,0.09c0.96,2.33,3.35,4.54,3.28,4.19c-0.4-1.85-1.7-3.21-2.97-4.59
		C590.35,190.05,589.95,189.45,589.25,188.94z"/>
	<path d="M554.3,109.55c2.47-0.71,4.85-1.78,7.11-3.08C555.02,107.07,543.26,112.71,554.3,109.55z"/>
	<path d="M522.34,104.15c1.91-0.3,4.02-0.5,4.62-3.32C524.14,100.43,523.54,102.64,522.34,104.15z"/>
	<path d="M534.6,97.02c1.45-1.21,2.34-2.22,2.7-4.32C535.57,93.97,534.95,95.31,534.6,97.02z"/>
	<path d="M565.44,104.85c1.51-0.1,2.41-0.8,3.52-1.61C566.84,102.94,566.84,102.94,565.44,104.85z"/>
	<path d="M546.05,109.17c0.9,0.1,2.01,0.7,2.51-0.6C547.45,107.67,546.85,109.07,546.05,109.17z"/>
	<path d="M575.78,100.63c-1-0.8-1.61,0-2.21,0.6C574.58,101.84,575.18,101.44,575.78,100.63z"/>
	<path d="M584.53,97.52c-1.31-1.21-1.61-0.5-2.31-0.5C583.22,98.32,583.42,96.92,584.53,97.52z"/>
	<path d="M617.88,88.98c-0.8-0.6-1.41-0.4-1.81,0.5C616.98,90.19,617.48,89.78,617.88,88.98z"/>
	<path d="M627.22,84.36c-1.28-0.3-1.13,0.25-1.41,0.8C626.64,85.61,626.85,85.13,627.22,84.36z"/>
	<path d="M623,86.37c-0.42-0.35-0.75-0.3-1.01-0.02C620.95,87.43,622.77,87.72,623,86.37z"/>
	<path d="M345.21,256.66c-4.42-1.41-8.74-2.71-13.76-3.01C333.46,256.26,336.77,256.96,345.21,256.66z"/>
	<path d="M288.45,209.84c-0.41-3.19-2.49-4.5-4.32-6.33C285.13,206.22,286.54,208.23,288.45,209.84z"/>
	<path d="M402.68,260.78c2.01,1,3.72,1.11,5.63,1C406.6,259.97,405.69,259.77,402.68,260.78z"/>
	<path d="M346.52,256.86c1,1.71,2.31,1.41,3.52,1C349.03,257.06,348.03,256.46,346.52,256.86z"/>
	<path d="M397.66,260.07c1.06,1.34,2.03,1.45,3.32,0.8C400.17,259.79,399.04,259.87,397.66,260.07z"/>
	<path d="M389.92,260.18c0.34,0.23,0.61,0.3,0.82,0.2C391.75,259.91,390.35,258.72,389.92,260.18z"/>
	<path d="M443.57,267.91c-0.6-1-1.11-1.51-2.11-1.11C441.86,267.71,442.47,268.01,443.57,267.91z"/>
	<path d="M411.72,144.04c1.51-0.3,2.41-0.8,3.42-1.71C413.23,142.03,413.23,142.03,411.72,144.04z"/>
	<path d="M423.78,127.56c-0.3-0.9-0.8-1.21-1.71-0.6C422.47,127.86,422.97,128.06,423.78,127.56z"/>
	<path d="M365.61,144.64c2.81,1.91,4.92,1.81,7.43-0.5C371.33,142.23,371.33,142.23,365.61,144.64z"/>
	<path d="M386.11,142.06c1.09-0.32,1.8-0.5,2.79-0.63C384.19,140.02,376.65,144.8,386.11,142.06z"/>
	<path d="M351.36,145.24c1.29,0,2.58-0.05,3.91-0.2C352.82,144.6,335.86,145.24,351.36,145.24z"/>
	<path d="M387.41,160.91c1.51,0.1,1.51,0.1,3.52-1.21C389.28,159.43,388.34,159.88,387.41,160.91z"/>
	<path d="M360.91,144.77c-2.52,0.57-0.72,0.35,1.9,0.87C362.38,144.89,361.76,144.58,360.91,144.77z"/>
	<path d="M381.68,162.42c-0.2,0.2-0.3,0.4-0.6,0.7c0.78,0.33,1.34-0.06,1.34-0.62C382.46,162.01,381.95,162.33,381.68,162.42z"/>
	<path d="M314.07,166.64c3.42-5.99,2.11-11.44-1.41-14.87C315.21,161.53,314.7,160.94,314.07,166.64z"/>
	<path d="M308.14,143.53c0.5,2.61,2.41,4.92,6.13,7.74C312.56,148.05,311.05,145.54,308.14,143.53z"/>
	<path d="M311.96,174.38c-0.29,0.91-0.7,1.91-1,2.91c2.39-1.35,2.79-3.42,2.61-6.13C312.29,172.24,312.26,173.42,311.96,174.38z"/>
	<path d="M307.74,180.71c0.8-0.2,1.21-0.5,1.21-1.41C308.24,179.4,307.84,179.7,307.74,180.71z"/>
	<path d="M305.13,142.83c0.2,0.5,0.6,0.8,1.21,0.6C306.33,142.53,305.83,142.43,305.13,142.83z"/>
	<path d="M189.99,183.32c-1.15-0.36-0.36-2.26-1.71-2.81c0.11,1.71,1.16,4.41,1.23,4.41c1.23-0.67,0.91-0.72,1.05-0.37
		c1.17,2.89,0.21,11.43,0.83,17.66c0.74-4.05,1.47-7.61,1.21-13.76c1.7,3.4,1.4,7.14,2.21,10.85c1.29-5.15-0.22-10.17-2.62-14.91
		C189.75,179.56,191.13,183.42,189.99,183.32z"/>
	<path d="M198.23,169.14c0.88,1.97,0.99,4.24,2.53,6.31c0.59,0.8-0.31-3.4-0.32-3.5c0.38-0.8,0.97-0.16,1.61-0.17
		c0.66-0.01,0.86-2.79,1-3.64C201.77,165.26,199.73,166.36,198.23,169.14z"/>
	<path d="M194.39,174.63c0.05,0.11,0.47-0.73,0.47-2.2c0-3.75-0.54-1.85,2.95-8.41C193.71,166.63,192.52,169.71,194.39,174.63z"/>
	<path d="M232.49,186.03c2.02-2.46,3.1-5.84,3.22-9.75C235.87,171.38,235.39,177.78,232.49,186.03z"/>
	<path d="M178.35,201.28c0.08,3.62,0.68,5.05,2.9,7.05c0.8-0.6,0.1-1.11,0-1.61C179.14,205.52,179.54,203.01,178.35,201.28z"/>
	<path d="M218.93,195.17c0.06,0.23,0.05,0.02,0.21,0.1C219.14,195.05,219.18,195.12,218.93,195.17z"/>
	<path d="M219.14,194.94c-0.12,0.48,2.07-0.33,3.72-3.06c0.01-0.02,0.19-0.3,0.17-0.3C221.15,192.44,219.25,192.62,219.14,194.94z"
		/>
	<path d="M256.8,171.16c-1.89,1.39-2.02,1.92-1.21,4.72C256.1,174.18,256.8,172.97,256.8,171.16z"/>
	<path d="M184.67,181.71c-1.71,1.61-1.61,3.42-2.41,4.82C183.36,185.23,184.17,183.82,184.67,181.71z"/>
	<path d="M181.16,206.63c0.78-0.65,0.32-1.64,0.5-2.41C181.13,205.11,181.5,205.84,181.16,206.63z"/>
	<path d="M238.22,179.8c-0.37,0.56-0.14,0.98,0.4,1.31C239.22,180.51,238.62,180.2,238.22,179.8z"/>
	<path d="M248.69,187.44c0.31-0.23,0.39-0.73,0.48-0.9C247.59,186.18,247.72,188.15,248.69,187.44z"/>
	<path d="M529.77,83.05c-2.31-0.6-3.52,0.4-5.22,4.22C526.66,86.07,528.46,84.96,529.77,83.05z"/>
	<path d="M668.62,44.97c-2.16,2.83,0.34,8.56,5.91,4.83c0.48-0.65,0.76-2.41,1.36-4.54C673.45,44.18,670.96,41.89,668.62,44.97z
		 M669.43,45.91c0.57-0.77,1.6-1.16,2.7-0.8c1.21,0.89-1.15,1.39,0.07,1.92c0.41,0.8,1.18-0.25,1.51,0.49
		C674.38,50.19,667.62,50.04,669.43,45.91z"/>
	<path d="M670.96,52.11c-4.18-3.08-8.58,3.41-4.65,6.31C670.24,61.31,674.93,55.04,670.96,52.11z M666.31,55.55
		c-0.45-2.13,2.52-4.06,4.78-0.72C670.85,58.54,666.81,57.9,666.31,55.55z"/>
	<path d="M664.41,59.14c-2.03,0.74-2.17,2.76-2.57,4.84c6.58,2.33,6.29,2.48,6.87,1.69c-0.22-1.46-1.85-0.95-1.69-2.12
		c0.62-1.91,2.72-0.15,3.17-2.78c-0.64,0.1-1.7,0.19-2.47,0.3C667.09,59.49,665.98,58.43,664.41,59.14z M665.19,63.33
		c-0.48,0.14-0.86-0.01-1.59-0.55c0.32-1.22,0.19-2.4,1.95-2.31C665.84,61.94,665.84,61.94,665.19,63.33z"/>
	<path d="M665.4,19.86c0.2-1.61,0.2-1.61-1.81-1.71C663.79,19.46,664.3,20.06,665.4,19.86z"/>
	<path d="M205.16,212.15c-0.83,0.63-2.39,1.04-2.81,2.11c2.51-0.9,2.51-0.9,4.22-2.61C205.87,211.25,205.56,211.85,205.16,212.15z"
		/>
	<path d="M208.95,209.35c0.17-0.24,0.31-0.65,0.53-1.22C207.6,209.73,208.57,209.88,208.95,209.35z"/>
	<path d="M606.23,393.19c-13.65-10.07-30.24-11.88-36.37-10.25c3.25,2.53,19.97-6.28,48.49,22.65c0.21,0.21,0.45,1.65,2.15,2.97
		c0.32,1.32,11.52,15.23,13.06,38.38c2.34,35.09-16.71,51.91-15.59,53.03c0.74,0.74,1.27-1.57,2.72-2.05
		c-0.22-0.88,0.37-0.91,3.14-5.48C642.3,462.05,637.83,416.5,606.23,393.19z"/>
	<path d="M620.69,497.98l0.1-0.1C620.72,497.9,620.67,497.92,620.69,497.98z"/>
	<path d="M521.33,417c-11.05,16.48-13.76,51.14,2.01,75.25C510.38,467.54,509.48,442.42,521.33,417z"/>
	<path d="M547.75,501.7c0.35-1.04,3.64,6.11,19.29,9.54c20.27,4.45,37.07-2.01,50.64-17.48c0.2-0.2,0.3-0.6,0.4-0.9
		c-0.1-0.1-0.2-0.2-0.3-0.3c-39.15,39.15-71.05,6.76-73.54,5.78C543.9,498.16,545.56,500.67,547.75,501.7z"/>
	<path d="M550.74,401.69c0.24,0.24,5.23-3.37,10.78-5.29c36.03-12.52,69.07,16.09,69.82,55.15c0.52,27.06-14.65,39.81-13.16,41.3
		c14.55-15.48,22.17-51.68,0.1-80.67c-14.19-18.65-42.39-26.84-66.91-11.65c-0.36,0.18-0.56,0.52-0.81,0.8
		C550.44,401.44,550.43,401.38,550.74,401.69z"/>
	<path d="M620.07,478.78c1.45,0,13.97-26.66-0.78-52.23c-14.57-25.25-44.42-26.83-59.38-14.87c-7.45,4.18-9.89,9.6-10.15,9.34
		c-0.81,0.63-2.38,2.34-1.84,2.88c0.33,0.33,1.7-1.36,2.14-2.58c32.42-35.55,66.21-1.11,65,0.1c13.52,21.41,12.99,34.77,4.68,56.92
		c-1.29,1.69-2.38,3.48-3.28,5.36c0.1,0.1,0.2,0.2,0.3,0.3C619.11,481.87,619.97,478.68,620.07,478.78z"/>
	<path d="M530.82,479.7c-0.1-0.59-2.25-6.65-3.36-10.96c-7.98-31.07,8.49-49.58,7.55-50.9c0.08,0.05,0.14,0.11,0.19,0.16
		c0.68-0.48,1.67-1.64,1-2.31c-1.18,0.84-1.51,1.99-1.34,2.05C517.59,441.41,527.33,477.7,530.82,479.7z"/>
	<path d="M530.98,479.8c-0.2-0.1-0.19-0.2-0.1,0.1L530.98,479.8z"/>
	<path d="M515.2,500.38c-0.3-1.5-1.11-2.8-2.11-3.91c-0.1,0.1-0.18,0.18-0.24,0.24c0.98-0.98-16.08-22.47-10.31-57.12
		c-0.8,0.08-0.97,0.66-1.11,1.31C497.43,472.15,509.78,496.31,515.2,500.38z"/>
	<path d="M547.65,423.73c-7.01,8.67-12.23,26.53-7.23,44.21c0.31,1.08,1.32,2.77,1.15,1.94c-0.49-2.28-0.89-4.11-1.25-5.96
		C535.19,437.1,549.79,423.73,547.65,423.73z"/>
	<path d="M515.22,516.88c-0.75-0.75-1.97,0.87-13.18-6.24c-0.11-0.11-0.19-0.15-0.27-0.14c-1.79,0,8.27,10.31,15.09,8.79
		C517.15,519.14,516.93,517.28,515.22,516.88z"/>
	<path d="M479.64,476.88c0.4-3.92,0-7.84-0.9-11.86C477.6,469.16,477.46,473.12,479.64,476.88z"/>
	<path d="M474.72,460.8c0.11,0.76,0.58,1.32,1.41,1.41c0.59-3.49,1.31-6.89,0.5-10.34C475.32,454.68,474.82,457.69,474.72,460.8z"/>
	<path d="M601.6,514.05c-3.72,1.61-7.23,3.61-11.05,4.82c-17.69,5.61-33.98,2.6-49.23-7.74c-6.89-4.67-13.33-12.68-12.22-10.49
		c2.04,4.03,14.74,15.93,29.3,19.83c18.08,4.84,35.87,0.07,43.45-6.09c0.2,0.2,4.09-1.83,6.78-4.66c-0.11-0.11-0.19-0.19-0.3-0.3
		C603.49,512.27,601.82,514.27,601.6,514.05z"/>
	<path d="M492.2,500.59c1.11,2.51,1.91,5.22,4.72,6.63C496.92,504.81,496.01,503.61,492.2,500.59z"/>
	<path d="M612.35,432.41c-0.47-0.71-0.81-1.55-1.75-1.82c-0.25-0.12-0.2-2.32-3.35-3.97c-0.48-0.25-0.5-2.18-4.05-3.37
		c0.05-0.43-0.31-0.72-0.69-0.92c-23.53-15.21-41.24,3.91-43.12,7.03c-1.85,0.03-5.99,9.46-6.84,11.94
		c-6.34,18.57,4.04,37.61,8.45,38.6c-3.24-4.67-3.03-2.84-3.01-3.47c0.04-1.68-1.33-1.8-1.27-2c0.18-0.96-0.55-1.62-0.93-2.28
		c-11.5-23.68,2.21-39.25,3.51-42.39c0.17-0.06,0.67-0.51,1.51-1.51c2.06-2.42,9.26-7.74,9.26-7.64c1.81,0,4.1-1.44,6.03-1.9
		c19.27-4.61,28.07,6.9,31.05,7.9c0.59,1.73,1.85,3.02,3.37,4.03c-0.13,0.74,0.42,1.14,0.71,1.72c15.23,25.56-1.51,43.49-1.41,45.41
		c0,0.03,0.01,0.04-0.04,0.04c-1.49,0.74-1.07,0.84-2.06,1.87c-19.09,19.69-40.35,4.81-41.68,4.92c1.21,4.43,27.3,13.49,43.3-5.42
		C617.5,471.04,623.04,448.62,612.35,432.41z"/>
	<path d="M608.44,509.43c0.01,0.01,0.29,0.29,0.3,0.3c3.72-2.51,6.93-5.73,9.44-9.44c-0.09-0.09-0.17-0.17-0.25-0.25
		C617.82,499.93,609.06,508.78,608.44,509.43z"/>
	<path d="M474.11,446.54c-0.14,0.38,0.4,0.64,0.8,0.7C477.08,441.83,476.97,430.53,474.11,446.54z"/>
	<path d="M527.54,524.32c0.13,0.06,0.02,0.04,0.09-0.07c0.26-0.56,1.06-0.56,1.34-1.46c-2.01-0.6-3.92-1.21-6.53-1.31
		C523.66,523.8,526.13,523.25,527.54,524.32z"/>
	<path d="M527.6,524.36c-0.04,0.15-0.11,0.15,0.16,0.15C527.67,524.4,527.63,524.4,527.6,524.36z"/>
	<path d="M479.14,426.75c-1.71,2.21-2.71,4.12-2.51,6.93C478.13,431.47,478.43,429.36,479.14,426.75z"/>
	<path d="M536.5,416c0.9-0.7,1.61-1.61,2.01-2.71c1.58-1.29,2.67-2.85,3.67-4.53c0.09-0.27-2.96,1.84-3.97,4.23
		c-0.65,0.5-2.41,2.32-1.98,2.74C536.32,415.82,536.41,415.91,536.5,416z"/>
	<path d="M484.36,459c-0.1-1.41-0.2-2.71-0.3-4.12C483.36,456.89,483.36,456.89,484.36,459z"/>
	<path d="M594.17,523.2c-1.98,0.3-3.66,1.07-5.22,2.22C590.9,525.1,592.64,524.54,594.17,523.2z"/>
	<path d="M498.11,498.57c-0.03,0.03-0.06,0.05-0.09,0.08c0.03-0.44-1.23-2.16-4.32-7.91c-4.93-9.16-3.43-9.79-5.73-10.65
		c1.86,5.59,5.62,13.4,9.85,18.69c0.02,0,0.02,0,0.04,0c-0.05,0.03-0.1,0.07-0.15,0.09c0.67,1.6,1.93,3.09,3.26,4.18
		C501.5,503.5,500.52,500.81,498.11,498.57z"/>
	<path d="M485.87,490.14c-0.2,1.41,0.3,2.51,1.61,3.52C488.12,491.82,487.09,491.24,485.87,490.14z"/>
	<path d="M485.31,436.7c-0.65,1.8-0.96,3.26-0.55,5.12C486.31,436.25,485.73,435.54,485.31,436.7z"/>
	<path d="M566,484.58c1.14,0-3.17-3-3.28-3.07C562.72,482.53,563.66,483.98,566,484.58z"/>
	<path d="M531.18,516.77c-0.9-1.11-1.91-1.91-3.32-2.41c0.58,1.29,1.67,2.08,2.94,2.68c-0.1,0.1,2.81,2.76,6.1,4.05
		c0.12,0,0.2-0.02,0.25-0.05c0.1,1.16,8.89,5.43,13.01,5.67c-5.46-1.95-7.89-3.47-12.95-5.82
		C536.98,520.06,531.13,516.85,531.18,516.77z"/>
	<path d="M570.26,529.59c3.96,0,4-0.42,0-0.42C566.3,529.16,566.26,529.59,570.26,529.59z"/>
	<path d="M547.96,403.84c1.52-0.55,2.83-1.92,2.68-2.07c-0.6-0.7-2.4,1.01-2.98,1.77c-1.81,0.76-3.09,2.42-4.42,4.02
		C545.14,406.76,546.55,405.35,547.96,403.84z"/>
	<path d="M559.37,494.53c0.15-0.15-1.2-1.53-2.67-2.07c0,0.66,0.3-0.65-2.61-1.82c1.59,2.73,2.71,1.81,2.5,2.12
		C556.29,493.06,558.78,495.51,559.37,494.53z"/>
	<path d="M614.73,486.78c0.8-0.5,2.51-2.2,1.75-2.96c-0.9,0.7-1.71,1.61-2.11,2.71c-5.01,5.01-5.88,5.78-5.88,5.99
		c-0.33-0.07-1.23,0.4-2.77,1.95c0,0.16-6.36,3.64-8.34,4.42c-21.53,8.56-35.04-4.03-36.07-2.74c-0.28,0.28,0.1-0.17,0.2-0.27
		c-0.52-0.73-1.92-1.85-2.3-0.9c0.5,0.7,1.21,1.21,2,1.31c12.46,9.27,35.55,7.85,44.81-1.41c1.78-0.65,2.7-1.82,2.61-2.22
		c0.01,0.01,0.02,0.01,0.03,0.02C608.94,492.96,612.6,490.28,614.73,486.78z"/>
	<path d="M532.08,482.51c0.27-0.81-0.44-2.05-1-2.71C530.71,480.72,531.54,481.73,532.08,482.51z"/>
	<path d="M527.16,497.68c0.1,0.1-0.2-0.2-0.4-0.6C526.18,497.87,527.16,497.98,527.16,497.68z"/>
	<path d="M484.16,445.44c-0.3,0.6-0.4,1.11,0,1.61C484.46,446.54,484.36,446.04,484.16,445.44z"/>
	<path d="M384.9,368.38c3.72,1.91,7.64,2.91,11.86,3.42C393.72,370.11,388.16,367.75,384.9,368.38z"/>
	<path d="M365.81,346.98c3.93,1.76,4,1.64,5.93-0.1C369.73,344.97,368.02,346.58,365.81,346.98z"/>
	<path d="M389.52,391.89c-0.6-2.11-1.81-3.62-3.51-4.93C386.28,389.18,387.7,390.59,389.52,391.89z"/>
	<path d="M392.73,455.38c-0.1-2.28-1.52-3.81-3.32-6.23C389.92,452.17,391.23,453.77,392.73,455.38z"/>
	<path d="M348.63,351.5c2.54-0.91,2.74-1.17,3.92-4.02C350.14,348.28,349.43,349.79,348.63,351.5z"/>
	<path d="M380.28,348.28c1.61,0.1,3.01-0.4,4.32-1.31C382.69,346.07,381.68,347.78,380.28,348.28z"/>
	<path d="M400.97,372.6c1.11,1.21,2.31,0.8,3.62,0.7C402.88,372.3,402.88,372.3,400.97,372.6z"/>
	<path d="M409.41,374.51c0,0.93,1.48,1.44,2,0.7C410.98,374.45,410.19,374.27,409.41,374.51z"/>
	<path d="M383.49,364.86c0.2,1.41,0.7,1.41,1.41,1.42C385.1,364.75,383.97,365.41,383.49,364.86z"/>
	<path d="M419.67,376.36c-0.87-0.56-1.12,1.49,0.79,0.85C420.67,376.61,420.07,376.62,419.67,376.36z"/>
	<path d="M395.55,399.32c0-0.89-0.53-1.19-1.31-1C394.51,399.12,394.72,399.47,395.55,399.32z"/>
	<path d="M461.55,391.99c0.22,1.12,1.47,0.54,1-0.1C462.26,391.48,461.86,391.59,461.55,391.99z"/>
	<path d="M451.11,389.68c0.52,0.88,0.47,0.9,1.61,0.9C452.41,389.88,451.91,389.58,451.11,389.68z"/>
	<path d="M313.47,474.97c2.91-5.12,2.31-10.95-1.61-14.57C314.42,471.93,313.81,466.79,313.47,474.97z"/>
	<path d="M312.86,459.5c-1-2.91-2.71-5.22-5.43-6.83C308.34,455.68,310.85,457.39,312.86,459.5z"/>
	<path d="M310.25,486.02c2.41-1.31,2.51-3.62,2.31-5.93C311.05,481.8,311.26,484.12,310.25,486.02z"/>
	<path d="M307.05,489.04c1,0.2,1-0.3,1.11-1C307.31,488.03,307.05,488.37,307.05,489.04z"/>
	<path d="M304.32,451.26c0.2,0.6,0.4,1.11,1.31,0.7C305.51,451.27,305.02,451.09,304.32,451.26z"/>
	<path d="M362.29,451.87c2.71,2.31,5.02,2.41,7.74,0C367.12,450.46,364.8,451.56,362.29,451.87z"/>
	<path d="M190.41,496.39c0,30.35,1.69,6.82,1.3,0.8c1.6,2.78,2.2,10.43,2.2,10.54c1.95-8.13-3.42-15.76-3.42-16.89
		c-1.41-0.4-0.4,1.21-1.41,1.11c-1.21-0.5-0.2-2.21-1.69-2.79c0.3,1.11,0.5,2.11,0.8,3.32
		C190.21,492.98,190.41,494.58,190.41,496.39z"/>
	<path d="M200.74,474.97c-1.71,0.2-2.51,1.21-3.33,2.61c0.45,1.2,1.33,3.76,2.12,6.33c1.42-0.71-0.33-2.73,0.2-3.72
		c0.76-0.51,1.01,0.4,1.71,0.3C201.64,478.67,203.44,476.51,200.74,474.97z"/>
	<path d="M194.02,479.67c0.04-2.3,0.57-2.33,3.1-7.4c-4.43,2.05-5.41,6.66-3.42,11.25C194.16,482.09,194,480.9,194.02,479.67z"/>
	<path d="M188.99,521.39c3.62-0.7,7.94-5.83,8.94-10.35C195.32,514.66,193.11,518.48,188.99,521.39z"/>
	<path d="M197.13,508.63c1.12-5.48-1.56-7.41,0.1-8.54c0.22-0.15,0.74,0.33-2.71-3.11C195.42,501.09,196.22,504.61,197.13,508.63z"
		/>
	<path d="M231.88,494.36c2.42-3.35,3.18-7.02,3.02-11.05C233.31,489.23,232.83,491.21,231.88,494.36z"/>
	<path d="M180.55,515.06c-1.41-0.18-1.13-0.79-3.11-5.43c0.62,4.67,0.47,4.69,3.01,7.23C181.03,516.29,180.46,515.52,180.55,515.06z
		"/>
	<path d="M217.92,503.61c2.41-0.6,3.42-1.91,4.12-3.62C220.63,500.89,218.73,501.3,217.92,503.61z"/>
	<path d="M255.8,479.69c-1.91,1.81-2.01,2.51-0.7,4.42C254.99,482.51,256.3,481.4,255.8,479.69z"/>
	<path d="M181.86,494.87c0.57-1.04,1.39-2.25,1.62-3.35C184.06,488.76,181.97,492.63,181.86,494.87z"/>
	<path d="M248.56,496.07c-0.1-0.4-0.2-0.8-0.2-1.31c-0.6,0.2-1.11,0.41-1.11,1.11C247.66,496.67,248.16,495.67,248.56,496.07z"/>
	<path d="M237.31,488.23c-0.2,0.8-0.2,1.31,0.5,1.41C238.22,489.14,237.92,488.74,237.31,488.23z"/>
	<path d="M180.95,512.95c-0.5,0.7-0.3,1.41-0.5,2.01C181.03,514.49,180.86,513.7,180.95,512.95z"/>
	<path d="M405.29,486.23c-6.93-5.12-13.46-10.85-21.5-15.67C385.3,472.96,399.77,483.61,405.29,486.23z"/>
	<path d="M388.11,478.29c-0.3-0.28-0.49-0.34-1.81-1c0.49,2.8,1.56,4.36,1.76,3.87c0.4-1.3,0.13-1.22,0.33-1.09
		c2,1.76,14.49,12.04,14.49,10.59C402.96,489.42,395.34,485.18,388.11,478.29z"/>
	<path d="M405.73,496.78c0,0.31,1.19,0.87,1.13,0.59C406.71,496.77,405.26,495.84,405.73,496.78z"/>
	<path d="M403.84,490.89c-1.21-0.84-1.06,0.54,0.55,0.76C404.25,491.28,404.06,491.04,403.84,490.89z"/>
	<path d="M407,497.38c0.2,0.9,0.9,1,1.61,1.11C408.21,497.88,407.7,497.38,407,497.38z"/>
	<path d="M389.41,483.17c0,0.84,0.53,1.51,1.22,1.85C390.53,484.2,390.21,483.37,389.41,483.17z"/>
	<path d="M388.12,481.21c-0.1,0-0.02,1.48,1.29,1.95C389.45,482.17,388.98,481.58,388.12,481.21z"/>
	<path d="M518.81,393.47c2.1,0.57,3.99-1.2,5.88-2.55c-1.03-1.88-2.64-6.5-6.61-4.17C515.5,388.25,515.82,392.65,518.81,393.47z
		 M518.36,388.34c-0.06,0.17,0.72-1.85,3.48,0.71c-0.01,0.63-0.98,0.54-1.18,1.07c-0.16,0.41,0.02,0.41,0.59,1.17
		C519.23,393.38,516.86,390.16,518.36,388.34z"/>
	<path d="M516.09,395.31c1.72-4.46-4.9-7.12-6.75-2.62C507.33,397.61,514.4,399.68,516.09,395.31z M513.3,392.08
		c2.72,0.97,1.33,4.85-1.2,3.95C509.43,395.07,510.73,391.16,513.3,392.08z"/>
	<path d="M506.18,402.44c0.82-1.05-0.93-1.84,0.18-2.6c1.37-0.65,2.53,1,3.84,0.3c0.38-1.06-1.34-1.2-1.64-2.29
		c0.57-1.29-0.07-2.48-1.49-3.3c-1.93-0.18-3.31,1.04-4.68,2.06C502.85,397.71,505.02,402.69,506.18,402.44z M504.26,397.38
		c0.65-0.84,1.43-1.47,2.47-1.25c0.81,0.49,0.42,1.23,0.45,1.12c-0.34,0.95-1.26,1.15-2.13,1.48
		C504.81,398.22,504.5,397.9,504.26,397.38z"/>
	<path d="M384.8,333.62c-2.41-1.41-4.32,0-6.33,0.5C381.48,335.22,382.59,335.12,384.8,333.62z"/>
	<path d="M363.5,329.6c-1.77-0.39-2.33,0.03-2.81,0.9C361.81,331.01,362.52,330.88,363.5,329.6z"/>
	<path d="M532.68,361.55c0.2-1.02-0.63-1.24-1.21-1.72c-0.99,0.78-0.71,1.4-0.2,2.42C532.08,362.25,532.48,361.95,532.68,361.55z"/>
	<path d="M207.37,518.68c-1.38-0.02-1.91,1.51-1.91,1.61C206.83,520.28,207.59,518.68,207.37,518.68z"/>
	<path d="M205.31,520.39c-0.87,0.01-1.57,0.41-1.96,1.3C204.84,521.83,205.47,520.39,205.31,520.39z"/>
	<path d="M203.35,521.69c-0.85-0.11-1.48,0.19-1.71,1.11C202.53,522.79,203.19,522.58,203.35,521.69z"/>
	<path d="M659.33,158.78c0.19,0.35,0.47,0.7,1.04,1.02c-2.91-9.69-4.66-18.2,1.52-27.53c12.86-19.44,43.77-6.02,37.88,19.73
		c-2.32,10.13-10.92,18.54-23.41,17.14c-3.06-0.34-2.74-0.39-3.32-0.1c0,2.35,11.93,3.47,20.08-3.32
		c11.33-9.43,11.58-28.85,0.5-38.58C673.66,109.62,646.9,135.41,659.33,158.78z"/>
	<path d="M687.58,135.74c-6.23-5.06-17.05,0.23-17.05,8.29c1.72-0.62,0.63-5.71,7.14-8.53c4.99-2.17,8.82,0.7,10.33,1.21
		C688.36,136.35,688.52,136.49,687.58,135.74z"/>
	<path d="M677.76,156.9c-0.7-0.2-1.3-0.99-2.11-0.6c1.92,1.73,4.43,2.43,6.76,2.26c12-0.89,13.76-17.88,6-22.15
		c-0.15,0.07-0.29,0.19-0.4,0.3C697.96,149.31,687.57,160.52,677.76,156.9z"/>
	<path d="M583.02,477.89c33.56,4.75,34.39-49.5,2.81-48.83c-18.1,0.39-27.38,20.75-18.54,37.43c1.06,2-0.36-1.01-1.16-4.78
		c-5.46-25.89,15.59-36.17,29.63-29.08c21.09,10.65,13.26,48.46-13.73,43.62c-0.73-0.13-1.51-0.27-2.43-0.38
		C580.51,477.79,581.81,477.72,583.02,477.89z"/>
	<path d="M594.27,463.42c-6.72,3.87-10.8-0.64-12.47-0.5c7.57,6.48,14.52,0.42,14.51-0.6c0.02,0.06,0.07,0.1,0.17,0.1
		c7.36-6.46,3.72-19.94-6.23-21.2c-10.71-1.36-12.66,10.35-12.34,10.03c0.72-0.44,0.96-1.07,1.17-1.83
		c2.25-8.34,13.92-10.46,18.61-2.37c4.74,8.19-1.39,14.25-1.38,15.23c-0.01-0.02-0.01-0.04-0.03-0.06
		C595.58,462.62,594.97,463.01,594.27,463.42z"/>
<path fill="#e6e6e6" d="m206.8 163.6c0-5.1 4.1-9.2 9.3-9.2s9.2 4.2 9.2 9.2-4.1 9.2-9.3 9.2-9.2-4.1-9.2-9.2zm17.3-.1c0-4.5-3.5-8.2-8.2-8.2s-8.2 3.7-8.2 8.3c0 4.5 3.5 8.2 8.2 8.2s8.2-3.7 8.2-8.3zm-13 0c0-2.8 2.1-5.1 5.1-5.1 1.9 0 2.9.6 3.9 1.5l-1.4 1.7c-.8-.7-1.5-1.1-2.5-1.1-1.7 0-2.8 1.4-2.8 3.1s1.1 3 2.8 3c1.1 0 1.7-.5 2.5-1.1l1.4 1.4c-1.1 1.1-2.1 1.7-4 1.7-2.9 0-5-2.3-5-5.1z"/><path fill="#e6e6e6" d="m226.6 154.7h3.4l4.2 13.2 4.4-13.3h2.6l4.4 13.3 4.2-13.2h3.3l-6.2 18h-2.7l-4.4-12.8-4.4 12.8h-2.7z"/><path fill="#e6e6e6" d="m252.8 165.8c0-3.9 3.1-7 7.2-7 4.2 0 7.2 3.2 7.2 7s-3.1 7-7.3 7c-4 0-7.1-3.1-7.1-7zm11.3 0c0-2.3-1.7-4.3-4.2-4.3s-4.1 2-4.1 4.3 1.7 4.3 4.1 4.3c2.7.1 4.2-1.9 4.2-4.3z"/><path fill="#e6e6e6" d="m269.5 159.1h3.1v3c.8-2 2.4-3.4 4.8-3.3v3.2h-.2c-2.7 0-4.6 1.7-4.6 5.4v5.1h-3.1z"/><path fill="#e6e6e6" d="m279.1 153.9h3.1v11.1l5.6-6h3.8l-5.4 5.5 5.5 8h-3.5l-4.1-5.8-1.9 2v3.9h-3.1z"/><path fill="#e6e6e6" d="m291.7 165.8c0-3.9 3.1-7 7.2-7 4.2 0 7.2 3.2 7.2 7s-3.1 7-7.3 7c-4 0-7.1-3.1-7.1-7zm11.3 0c0-2.3-1.7-4.3-4.2-4.3s-4.1 2-4.1 4.3 1.7 4.3 4.1 4.3c2.6.1 4.2-1.9 4.2-4.3z"/><path fill="#e6e6e6" d="m308.2 167.6v-8.6h3.1v7.6c0 2.1 1.1 3.3 2.9 3.3s3-1.3 3-3.3v-7.6h3.1v13.4h-3.1v-2.1c-.8 1.3-2.1 2.3-4.2 2.3-3.1.2-4.8-1.8-4.8-5z"/><path fill="#e6e6e6" d="m323.9 168.8v-7.1h-1.7v-2.6h1.7v-3.7h3.1v3.7h3.6v2.6h-3.6v6.6c0 1.2.6 1.7 1.7 1.7.7 0 1.3-.2 1.9-.5v2.5c-.8.5-1.7.7-2.8.7-2.3 0-3.9-.9-3.9-3.9z"/><path fill="#e6e6e6" d="m333.2 154.7h3.2v15h9.4v2.9h-12.5v-17.9z"/><path fill="#e6e6e6" d="m356 172.5v-1.7c-.9 1.1-2.3 2-4.4 2-2.6 0-4.8-1.4-4.8-4.2 0-3 2.3-4.4 5.4-4.4 1.7 0 2.6.2 3.7.5v-.2c0-1.9-1.2-2.9-3.3-2.9-1.5 0-2.6.3-3.9.8l-.8-2.5c1.5-.7 2.9-1.1 5.1-1.1 4 0 5.9 2.1 5.9 5.7v8zm.1-5.6c-.8-.3-1.9-.5-3.1-.5-2 0-3.1.8-3.1 2.1s1.1 2 2.6 2c2 0 3.5-1.1 3.5-2.9z"/><path fill="#e6e6e6" d="m364.9 170.5v2.1h-3.1v-18.7h3.1v7.4c1-1.4 2.4-2.5 4.5-2.5 3.2 0 6.3 2.5 6.3 7s-3.1 7-6.3 7c-2.1 0-3.5-1.1-4.5-2.3zm7.7-4.7c0-2.6-1.7-4.3-3.9-4.3s-3.9 1.7-3.9 4.4c0 2.6 1.8 4.3 3.9 4.3s3.9-1.7 3.9-4.4z"/><path fill="#e6e6e6" d="m376.9 170.8 1.4-2.1c1.4 1.1 3 1.7 4.4 1.7s2.1-.5 2.1-1.5-1.3-1.4-2.8-1.8c-.1 0-.2-.1-.2-.1-2-.6-4.2-1.4-4.2-4s2.1-4.1 4.8-4.1c1.7 0 3.5.6 5 1.5l-1.2 2.2c-1.3-.8-2.6-1.3-3.8-1.3s-1.9.5-1.9 1.4 1.3 1.4 2.8 1.8c.1 0 .2.1.2.1 2 .6 4.2 1.5 4.2 4 0 2.9-2.2 4.2-5 4.2-1.9 0-4-.7-5.8-2z"/><path fill="#e6e6e6" d="m505.6 163.6c0-5.1 4.1-9.2 9.3-9.2s9.2 4.2 9.2 9.2-4.1 9.2-9.3 9.2-9.2-4.1-9.2-9.2zm17.4-.1c0-4.5-3.5-8.2-8.2-8.2s-8.2 3.7-8.2 8.3c0 4.5 3.5 8.2 8.2 8.2s8.2-3.7 8.2-8.3zm-13.1 0c0-2.8 2.1-5.1 5.1-5.1 1.9 0 2.9.6 3.9 1.5l-1.4 1.7c-.8-.7-1.5-1.1-2.5-1.1-1.7 0-2.8 1.4-2.8 3.1s1.1 3 2.8 3c1.1 0 1.7-.5 2.5-1.1l1.4 1.4c-1.1 1.1-2.1 1.7-4 1.7-2.9 0-5-2.3-5-5.1z"/><path fill="#e6e6e6" d="m525.4 154.7h3.4l4.2 13.2 4.4-13.3h2.6l4.4 13.3 4.2-13.2h3.3l-6.2 18h-2.7l-4.4-12.8-4.4 12.8h-2.7z"/><path fill="#e6e6e6" d="m551.7 165.8c0-3.9 3.1-7 7.2-7 4.2 0 7.2 3.2 7.2 7s-3.1 7-7.3 7c-4.1 0-7.1-3.1-7.1-7zm11.2 0c0-2.3-1.7-4.3-4.2-4.3s-4.1 2-4.1 4.3 1.7 4.3 4.1 4.3c2.7.1 4.2-1.9 4.2-4.3z"/><path fill="#e6e6e6" d="m568.3 159.1h3.1v3c.8-2 2.4-3.4 4.8-3.3v3.2h-.2c-2.7 0-4.6 1.7-4.6 5.4v5.1h-3.1z"/><path fill="#e6e6e6" d="m577.9 153.9h3.1v11.1l5.6-6h3.8l-5.4 5.5 5.5 8h-3.5l-4.1-5.8-1.9 2v3.9h-3.1z"/><path fill="#e6e6e6" d="m590.6 165.8c0-3.9 3.1-7 7.2-7 4.2 0 7.2 3.2 7.2 7s-3.1 7-7.3 7c-4.1 0-7.1-3.1-7.1-7zm11.2 0c0-2.3-1.7-4.3-4.2-4.3s-4.1 2-4.1 4.3 1.7 4.3 4.1 4.3c2.6.1 4.2-1.9 4.2-4.3z"/><path fill="#e6e6e6" d="m607 167.6v-8.6h3.1v7.6c0 2.1 1.1 3.3 2.9 3.3s3-1.3 3-3.3v-7.6h3.1v13.4h-3.1v-2.1c-.8 1.3-2.1 2.3-4.2 2.3-3 .2-4.8-1.8-4.8-5z"/><path fill="#e6e6e6" d="m622.7 168.8v-7.1h-1.7v-2.6h1.7v-3.7h3.1v3.7h3.6v2.6h-3.6v6.6c0 1.2.6 1.7 1.7 1.7.7 0 1.3-.2 1.9-.5v2.5c-.8.5-1.7.7-2.8.7-2.3 0-3.9-.9-3.9-3.9z"/><path fill="#e6e6e6" d="m632 154.7h3.2v15h9.4v2.9h-12.6z"/><path fill="#e6e6e6" d="m654.8 172.5v-1.7c-.9 1.1-2.3 2-4.4 2-2.6 0-4.8-1.4-4.8-4.2 0-3 2.3-4.4 5.4-4.4 1.7 0 2.6.2 3.7.5v-.2c0-1.9-1.2-2.9-3.3-2.9-1.5 0-2.6.3-3.9.8l-.8-2.5c1.5-.7 2.9-1.1 5.1-1.1 4 0 5.9 2.1 5.9 5.7v8zm.1-5.6c-.8-.3-1.9-.5-3.1-.5-2 0-3.1.8-3.1 2.1s1.1 2 2.6 2c2 0 3.5-1.1 3.5-2.9z"/><path fill="#e6e6e6" d="m663.7 170.5v2.1h-3.1v-18.7h3.1v7.4c1-1.4 2.4-2.5 4.5-2.5 3.2 0 6.3 2.5 6.3 7s-3.1 7-6.3 7c-2.1 0-3.5-1.1-4.5-2.3zm7.8-4.7c0-2.6-1.7-4.3-3.9-4.3-2.1 0-3.9 1.7-3.9 4.4 0 2.6 1.8 4.3 3.9 4.3s3.9-1.7 3.9-4.4z"/><path fill="#e6e6e6" d="m675.8 170.8 1.4-2.1c1.4 1.1 3 1.7 4.4 1.7s2.1-.5 2.1-1.5-1.3-1.4-2.8-1.8c-.1 0-.2-.1-.2-.1-2-.6-4.2-1.4-4.2-4s2.1-4.1 4.8-4.1c1.7 0 3.5.6 5 1.5l-1.2 2.2c-1.3-.8-2.6-1.3-3.8-1.3s-1.9.5-1.9 1.4 1.3 1.4 2.8 1.8c.1 0 .2.1.2.1 2 .6 4.2 1.5 4.2 4 0 2.9-2.2 4.2-5 4.2-2 0-4.1-.7-5.8-2z"/><path fill="#e6e6e6" d="m61 298.6c0-5.1 4.1-9.2 9.3-9.2s9.2 4.2 9.2 9.2-4.1 9.2-9.3 9.2c-5.1 0-9.2-4.2-9.2-9.2zm17.4-.1c0-4.5-3.5-8.2-8.2-8.2s-8.2 3.7-8.2 8.3c0 4.5 3.5 8.2 8.2 8.2s8.2-3.7 8.2-8.3zm-13.1-.1c0-2.8 2.1-5.1 5.1-5.1 1.9 0 2.9.6 3.9 1.5l-1.4 1.7c-.8-.7-1.5-1.1-2.5-1.1-1.7 0-2.8 1.4-2.8 3.1s1.1 3 2.8 3c1.1 0 1.7-.5 2.5-1.1l1.4 1.4c-1.1 1.1-2.1 1.7-4 1.7-2.8.1-5-2.2-5-5.1z"/><path fill="#e6e6e6" d="m80.9 289.7h3.4l4.2 13.2 4.4-13.3h2.6l4.4 13.3 4.2-13.2h3.3l-6.2 18h-2.7l-4.4-12.8-4.4 12.8h-2.7z"/><path fill="#e6e6e6" d="m107.1 300.8c0-3.9 3.1-7 7.2-7s7.2 3.2 7.2 7-3.1 7-7.3 7c-4 0-7.1-3.1-7.1-7zm11.3 0c0-2.3-1.7-4.3-4.2-4.3s-4.1 2-4.1 4.3 1.7 4.3 4.1 4.3c2.6.1 4.2-1.9 4.2-4.3z"/><path fill="#e6e6e6" d="m123.7 294h3.1v3c.8-2 2.4-3.4 4.8-3.3v3.2h-.2c-2.7 0-4.6 1.7-4.6 5.4v5.1h-3.1z"/><path fill="#e6e6e6" d="m133.4 288.9h3.1v11.1l5.6-6h3.8l-5.4 5.5 5.5 8h-3.5l-4.1-5.8-1.9 1.9v3.9h-3.1z"/><path fill="#e6e6e6" d="m146 300.8c0-3.9 3.1-7 7.2-7s7.2 3.2 7.2 7-3.1 7-7.3 7c-4.1 0-7.1-3.1-7.1-7zm11.2 0c0-2.3-1.7-4.3-4.2-4.3s-4.1 2-4.1 4.3 1.7 4.3 4.1 4.3c2.6.1 4.2-1.9 4.2-4.3z"/><path fill="#e6e6e6" d="m162.4 302.6v-8.6h3.1v7.6c0 2.1 1.1 3.3 2.9 3.3s3-1.3 3-3.3v-7.6h3.1v13.4h-3.1v-2.1c-.8 1.3-2.1 2.3-4.2 2.3-3 .2-4.8-1.8-4.8-5z"/><path fill="#e6e6e6" d="m178.1 303.8v-7.1h-1.7v-2.7h1.7v-3.7h3.1v3.7h3.6v2.6h-3.6v6.6c0 1.2.6 1.7 1.7 1.7.7 0 1.3-.2 1.9-.5v2.5c-.8.5-1.7.7-2.8.7-2.3.1-3.9-.9-3.9-3.8z"/><path fill="#e6e6e6" d="m187.4 289.7h3.2v15h9.4v2.9h-12.5v-17.9z"/><path fill="#e6e6e6" d="m210.2 307.5v-1.7c-.9 1.1-2.3 2-4.4 2-2.6 0-4.8-1.4-4.8-4.2 0-3 2.3-4.4 5.4-4.4 1.7 0 2.6.2 3.7.5v-.2c0-1.9-1.2-2.9-3.3-2.9-1.5 0-2.6.3-3.9.8l-.8-2.5c1.5-.7 2.9-1.1 5.1-1.1 4 0 5.9 2.1 5.9 5.7v8zm.1-5.6c-.8-.3-1.9-.5-3.1-.5-2 0-3.1.8-3.1 2.1s1.1 2 2.6 2c2 0 3.5-1.1 3.5-2.9z"/><path fill="#e6e6e6" d="m219.2 305.5v2.1h-3.1v-18.7h3.1v7.4c1-1.4 2.4-2.5 4.5-2.5 3.2 0 6.3 2.5 6.3 7s-3.1 7-6.3 7c-2.2 0-3.6-1.1-4.5-2.3zm7.7-4.7c0-2.6-1.7-4.3-3.9-4.3s-3.9 1.7-3.9 4.4c0 2.6 1.8 4.3 3.9 4.3s3.9-1.7 3.9-4.4z"/><path fill="#e6e6e6" d="m231.2 305.8 1.4-2.1c1.4 1.1 3 1.7 4.4 1.7s2.1-.5 2.1-1.5-1.3-1.4-2.8-1.8c-.1 0-.2-.1-.2-.1-2-.6-4.2-1.4-4.2-4s2.1-4.1 4.8-4.1c1.7 0 3.5.6 5 1.5l-1.2 2.2c-1.3-.8-2.6-1.3-3.8-1.3s-1.9.5-1.9 1.4 1.3 1.4 2.8 1.8c.1 0 .2.1.2.1 2 .6 4.2 1.5 4.2 4 0 2.9-2.2 4.2-5 4.2-2 0-4.1-.7-5.8-2z"/><path fill="#e6e6e6" d="m360.6 298.6c0-5.1 4.1-9.2 9.3-9.2s9.2 4.2 9.2 9.2-4.1 9.2-9.3 9.2-9.2-4.2-9.2-9.2zm17.4-.1c0-4.5-3.5-8.2-8.2-8.2s-8.2 3.7-8.2 8.3c0 4.5 3.5 8.2 8.2 8.2s8.2-3.7 8.2-8.3zm-13.1-.1c0-2.8 2.1-5.1 5.1-5.1 1.9 0 2.9.6 3.9 1.5l-1.4 1.7c-.8-.7-1.5-1.1-2.5-1.1-1.7 0-2.8 1.4-2.8 3.1s1.1 3 2.8 3c1.1 0 1.7-.5 2.5-1.1l1.4 1.4c-1.1 1.1-2.1 1.7-4 1.7-2.8.1-5-2.2-5-5.1z"/><path fill="#e6e6e6" d="m380.5 289.7h3.4l4.2 13.2 4.4-13.3h2.6l4.4 13.3 4.2-13.2h3.3l-6.2 18h-2.7l-4.4-12.8-4.4 12.8h-2.7z"/><path fill="#e6e6e6" d="m406.7 300.8c0-3.9 3.1-7 7.2-7 4.2 0 7.2 3.2 7.2 7s-3.1 7-7.3 7c-4.1 0-7.1-3.1-7.1-7zm11.3 0c0-2.3-1.7-4.3-4.2-4.3s-4.1 2-4.1 4.3 1.7 4.3 4.1 4.3c2.7.1 4.2-1.9 4.2-4.3z"/><path fill="#e6e6e6" d="m423.3 294h3.1v3c.8-2 2.4-3.4 4.8-3.3v3.2h-.2c-2.7 0-4.6 1.7-4.6 5.4v5.1h-3.1z"/><path fill="#e6e6e6" d="m433 288.9h3.1v11.1l5.6-6h3.8l-5.4 5.5 5.5 8h-3.5l-4.1-5.8-1.9 2v3.9h-3.1z"/><path fill="#e6e6e6" d="m445.6 300.8c0-3.9 3.1-7 7.2-7 4.2 0 7.2 3.2 7.2 7s-3.1 7-7.3 7c-4.1 0-7.1-3.1-7.1-7zm11.3 0c0-2.3-1.7-4.3-4.2-4.3s-4.1 2-4.1 4.3 1.7 4.3 4.1 4.3c2.6.1 4.2-1.9 4.2-4.3z"/><path fill="#e6e6e6" d="m462.1 302.6v-8.6h3.1v7.6c0 2.1 1.1 3.3 2.9 3.3s3-1.3 3-3.3v-7.6h3.1v13.4h-3.1v-2.1c-.8 1.3-2.1 2.3-4.2 2.3-3.1.2-4.8-1.8-4.8-5z"/><path fill="#e6e6e6" d="m477.8 303.8v-7.1h-1.8v-2.7h1.7v-3.7h3.1v3.7h3.6v2.6h-3.6v6.6c0 1.2.6 1.7 1.7 1.7.7 0 1.3-.2 1.9-.5v2.5c-.8.5-1.7.7-2.8.7-2.2.1-3.8-.9-3.8-3.8z"/><path fill="#e6e6e6" d="m487.1 289.7h3.2v15h9.4v2.9h-12.5v-17.9z"/><path fill="#e6e6e6" d="m509.9 307.5v-1.7c-.9 1.1-2.3 2-4.4 2-2.6 0-4.8-1.4-4.8-4.2 0-3 2.3-4.4 5.4-4.4 1.7 0 2.6.2 3.7.5v-.2c0-1.9-1.2-2.9-3.3-2.9-1.5 0-2.6.3-3.9.8l-.8-2.5c1.5-.7 2.9-1.1 5.1-1.1 4 0 5.9 2.1 5.9 5.7v8zm.1-5.6c-.8-.3-1.9-.5-3.1-.5-2 0-3.1.8-3.1 2.1s1.1 2 2.6 2c2 0 3.5-1.1 3.5-2.9z"/><path fill="#e6e6e6" d="m518.8 305.5v2.1h-3.1v-18.7h3.1v7.4c1-1.4 2.4-2.5 4.5-2.5 3.2 0 6.3 2.5 6.3 7s-3.1 7-6.3 7c-2.2 0-3.5-1.1-4.5-2.3zm7.7-4.7c0-2.6-1.7-4.3-3.9-4.3s-3.9 1.7-3.9 4.4c0 2.6 1.8 4.3 3.9 4.3s3.9-1.7 3.9-4.4z"/><path fill="#e6e6e6" d="m530.8 305.8 1.4-2.1c1.4 1.1 3 1.7 4.4 1.7s2.1-.5 2.1-1.5-1.3-1.4-2.8-1.8c-.1 0-.2-.1-.2-.1-2-.6-4.2-1.4-4.2-4s2.1-4.1 4.8-4.1c1.7 0 3.5.6 5 1.5l-1.2 2.2c-1.3-.8-2.6-1.3-3.8-1.3s-1.9.5-1.9 1.4 1.3 1.4 2.8 1.8c.1 0 .2.1.2.1 2 .6 4.2 1.5 4.2 4 0 2.9-2.2 4.2-5 4.2-1.9 0-4.1-.7-5.8-2z"/><path fill="#e6e6e6" d="m659.5 298.6c0-5.1 4.1-9.2 9.3-9.2s9.2 4.2 9.2 9.2-4.1 9.2-9.3 9.2-9.2-4.2-9.2-9.2zm17.3-.1c0-4.5-3.5-8.2-8.2-8.2s-8.2 3.7-8.2 8.3c0 4.5 3.5 8.2 8.2 8.2 4.8 0 8.2-3.7 8.2-8.3zm-13-.1c0-2.8 2.1-5.1 5.1-5.1 1.9 0 2.9.6 3.9 1.5l-1.4 1.7c-.8-.7-1.5-1.1-2.5-1.1-1.7 0-2.8 1.4-2.8 3.1s1.1 3 2.8 3c1.1 0 1.7-.5 2.5-1.1l1.4 1.4c-1.1 1.1-2.1 1.7-4 1.7-2.9.1-5-2.2-5-5.1z"/><path fill="#e6e6e6" d="m679.3 289.7h3.4l4.2 13.2 4.4-13.3h2.6l4.4 13.3 4.2-13.2h3.3l-6.2 18h-2.6l-4.4-12.8-4.4 12.8h-2.7z"/><path fill="#e6e6e6" d="m705.5 300.8c0-3.9 3.1-7 7.2-7 4.2 0 7.2 3.2 7.2 7s-3.1 7-7.3 7c-4 0-7.1-3.1-7.1-7zm11.3 0c0-2.3-1.7-4.3-4.2-4.3s-4.1 2-4.1 4.3 1.7 4.3 4.1 4.3c2.7.1 4.2-1.9 4.2-4.3z"/><path fill="#e6e6e6" d="m722.1 294h3.1v3c.8-2 2.4-3.4 4.8-3.3v3.2h-.2c-2.7 0-4.6 1.7-4.6 5.4v5.1h-3.1z"/><path fill="#e6e6e6" d="m731.8 288.9h3.1v11.1l5.6-6h3.8l-5.4 5.5 5.5 8h-3.5l-4.1-5.8-1.9 2v3.9h-3.1z"/><path fill="#e6e6e6" d="m744.4 300.8c0-3.9 3.1-7 7.2-7 4.2 0 7.2 3.2 7.2 7s-3.1 7-7.3 7c-4.1 0-7.1-3.1-7.1-7zm11.3 0c0-2.3-1.7-4.3-4.2-4.3s-4.1 2-4.1 4.3 1.7 4.3 4.1 4.3c2.6.1 4.2-1.9 4.2-4.3z"/><path fill="#e6e6e6" d="m760.9 302.6v-8.6h3.1v7.6c0 2.1 1.1 3.3 2.9 3.3s3-1.3 3-3.3v-7.6h3.1v13.4h-3.1v-2.1c-.8 1.3-2.1 2.3-4.2 2.3-3.1.2-4.8-1.8-4.8-5z"/><path fill="#e6e6e6" d="m776.6 303.8v-7.1h-1.7v-2.7h1.7v-3.7h3.1v3.7h3.6v2.6h-3.6v6.6c0 1.2.6 1.7 1.7 1.7.7 0 1.3-.2 1.9-.5v2.5c-.8.5-1.7.7-2.8.7-2.3.1-3.9-.9-3.9-3.8z"/><path fill="#e6e6e6" d="m785.9 289.7h3.2v15h9.4v2.9h-12.5v-17.9z"/><path fill="#e6e6e6" d="m808.7 307.5v-1.7c-.9 1.1-2.3 2-4.4 2-2.6 0-4.8-1.4-4.8-4.2 0-3 2.3-4.4 5.4-4.4 1.7 0 2.6.2 3.7.5v-.2c0-1.9-1.2-2.9-3.3-2.9-1.5 0-2.6.3-3.9.8l-.8-2.5c1.5-.7 2.9-1.1 5.1-1.1 4 0 5.9 2.1 5.9 5.7v8zm.1-5.6c-.8-.3-1.9-.5-3.1-.5-2 0-3.1.8-3.1 2.1s1.1 2 2.6 2c2 0 3.5-1.1 3.5-2.9z"/><path fill="#e6e6e6" d="m817.6 305.5v2.1h-3.1v-18.7h3.1v7.4c1-1.4 2.4-2.5 4.5-2.5 3.2 0 6.3 2.5 6.3 7s-3.1 7-6.3 7c-2.1 0-3.5-1.1-4.5-2.3zm7.7-4.7c0-2.6-1.7-4.3-3.9-4.3-2.1 0-3.9 1.7-3.9 4.4 0 2.6 1.8 4.3 3.9 4.3 2.2 0 3.9-1.7 3.9-4.4z"/><path fill="#e6e6e6" d="m829.6 305.8 1.4-2.1c1.4 1.1 3 1.7 4.4 1.7s2.1-.5 2.1-1.5-1.3-1.4-2.8-1.8c-.1 0-.2-.1-.2-.1-2-.6-4.2-1.4-4.2-4s2.1-4.1 4.8-4.1c1.7 0 3.5.6 5 1.5l-1.2 2.2c-1.3-.8-2.6-1.3-3.8-1.3s-1.9.5-1.9 1.4 1.3 1.4 2.8 1.8c.1 0 .2.1.2.1 2 .6 4.2 1.5 4.2 4 0 2.9-2.2 4.2-5 4.2-1.9 0-4-.7-5.8-2z"/><path fill="#e6e6e6" d="m206.3 434.2c0-5.1 4.1-9.2 9.3-9.2s9.2 4.2 9.2 9.2-4.1 9.2-9.3 9.2-9.2-4.1-9.2-9.2zm17.4-.1c0-4.5-3.5-8.2-8.2-8.2s-8.2 3.7-8.2 8.3c0 4.5 3.5 8.2 8.2 8.2s8.2-3.7 8.2-8.3zm-13.1-.1c0-2.8 2.1-5.1 5.1-5.1 1.9 0 2.9.6 3.9 1.5l-1.4 1.7c-.8-.7-1.5-1.1-2.5-1.1-1.7 0-2.8 1.4-2.8 3.1s1.1 3 2.8 3c1.1 0 1.7-.5 2.5-1.1l1.4 1.4c-1.1 1.1-2.1 1.7-4 1.7-2.9.1-5-2.2-5-5.1z"/><path fill="#e6e6e6" d="m226.1 425.3h3.4l4.2 13.2 4.4-13.3h2.6l4.4 13.3 4.2-13.2h3.3l-6.2 18h-2.7l-4.4-12.8-4.4 12.8h-2.7z"/><path fill="#e6e6e6" d="m252.4 436.4c0-3.9 3.1-7 7.2-7 4.2 0 7.2 3.2 7.2 7s-3.1 7-7.3 7c-4.1 0-7.1-3.1-7.1-7zm11.2 0c0-2.3-1.7-4.3-4.2-4.3s-4.1 2-4.1 4.3 1.7 4.3 4.1 4.3c2.7.1 4.2-1.9 4.2-4.3z"/><path fill="#e6e6e6" d="m269 429.7h3.1v3c.8-2 2.4-3.4 4.8-3.3v3.2h-.2c-2.7 0-4.6 1.7-4.6 5.4v5.1h-3.1z"/><path fill="#e6e6e6" d="m278.6 424.5h3.1v11.1l5.6-6h3.8l-5.4 5.5 5.5 8h-3.5l-4.1-5.8-1.9 2v3.9h-3.1z"/><path fill="#e6e6e6" d="m291.3 436.4c0-3.9 3.1-7 7.2-7 4.2 0 7.2 3.2 7.2 7s-3.1 7-7.3 7c-4.1 0-7.1-3.1-7.1-7zm11.2 0c0-2.3-1.7-4.3-4.2-4.3s-4.1 2-4.1 4.3 1.7 4.3 4.1 4.3c2.6.1 4.2-1.9 4.2-4.3z"/><path fill="#e6e6e6" d="m307.7 438.2v-8.6h3.1v7.6c0 2.1 1.1 3.3 2.9 3.3s3-1.3 3-3.3v-7.6h3.1v13.4h-3.1v-2.1c-.8 1.3-2.1 2.3-4.2 2.3-3 .2-4.8-1.8-4.8-5z"/><path fill="#e6e6e6" d="m323.4 439.4v-7.1h-1.7v-2.6h1.7v-3.7h3.1v3.7h3.6v2.6h-3.6v6.6c0 1.2.6 1.7 1.7 1.7.7 0 1.3-.2 1.9-.5v2.5c-.8.5-1.7.7-2.8.7-2.3 0-3.9-.9-3.9-3.9z"/><path fill="#e6e6e6" d="m332.7 425.3h3.2v15h9.4v2.9h-12.5v-17.9z"/><path fill="#e6e6e6" d="m355.5 443.1v-1.7c-.9 1.1-2.3 2-4.4 2-2.6 0-4.8-1.4-4.8-4.2 0-3 2.3-4.4 5.4-4.4 1.7 0 2.6.2 3.7.5v-.2c0-1.9-1.2-2.9-3.3-2.9-1.5 0-2.6.3-3.9.8l-.8-2.5c1.5-.7 2.9-1.1 5.1-1.1 4 0 5.9 2.1 5.9 5.7v8zm.1-5.6c-.8-.3-1.9-.5-3.1-.5-2 0-3.1.8-3.1 2.1s1.1 2 2.6 2c2 0 3.5-1.1 3.5-2.9z"/><path fill="#e6e6e6" d="m364.4 441.1v2.1h-3.1v-18.7h3.1v7.4c1-1.4 2.4-2.5 4.5-2.5 3.2 0 6.3 2.5 6.3 7s-3.1 7-6.3 7c-2.1 0-3.5-1.1-4.5-2.3zm7.7-4.7c0-2.6-1.7-4.3-3.9-4.3-2.1 0-3.9 1.7-3.9 4.4 0 2.6 1.8 4.3 3.9 4.3 2.2 0 3.9-1.7 3.9-4.4z"/><path fill="#e6e6e6" d="m376.5 441.4 1.4-2.1c1.4 1.1 3 1.7 4.4 1.7s2.1-.5 2.1-1.5-1.3-1.4-2.8-1.8c-.1 0-.2-.1-.2-.1-2-.6-4.2-1.4-4.2-4s2.1-4.1 4.8-4.1c1.7 0 3.5.6 5 1.5l-1.2 2.2c-1.3-.8-2.6-1.3-3.8-1.3s-1.9.5-1.9 1.4 1.3 1.4 2.8 1.8c.1 0 .2.1.2.1 2 .6 4.2 1.5 4.2 4 0 2.9-2.2 4.2-5 4.2-2 0-4.1-.7-5.8-2z"/><path fill="#e6e6e6" d="m505.1 434.2c0-5.1 4.1-9.2 9.3-9.2s9.2 4.2 9.2 9.2-4.1 9.2-9.3 9.2-9.2-4.1-9.2-9.2zm17.4-.1c0-4.5-3.5-8.2-8.2-8.2s-8.2 3.7-8.2 8.3c0 4.5 3.5 8.2 8.2 8.2s8.2-3.7 8.2-8.3zm-13.1-.1c0-2.8 2.1-5.1 5.1-5.1 1.9 0 2.9.6 3.9 1.5l-1.4 1.7c-.8-.7-1.5-1.1-2.5-1.1-1.7 0-2.8 1.4-2.8 3.1s1.1 3 2.8 3c1.1 0 1.7-.5 2.5-1.1l1.4 1.4c-1.1 1.1-2.1 1.7-4 1.7-2.9.1-5-2.2-5-5.1z"/><path fill="#e6e6e6" d="m525 425.3h3.4l4.2 13.2 4.4-13.3h2.6l4.4 13.3 4.2-13.2h3.3l-6.2 18h-2.7l-4.4-12.8-4.4 12.8h-2.7z"/><path fill="#e6e6e6" d="m551.2 436.4c0-3.9 3.1-7 7.2-7 4.2 0 7.2 3.2 7.2 7s-3.1 7-7.3 7c-4.1 0-7.1-3.1-7.1-7zm11.2 0c0-2.3-1.7-4.3-4.2-4.3s-4.1 2-4.1 4.3 1.7 4.3 4.1 4.3c2.7.1 4.2-1.9 4.2-4.3z"/><path fill="#e6e6e6" d="m567.8 429.7h3.1v3c.8-2 2.4-3.4 4.8-3.3v3.2h-.2c-2.7 0-4.6 1.7-4.6 5.4v5.1h-3.1z"/><path fill="#e6e6e6" d="m577.5 424.5h3.1v11.1l5.6-6h3.8l-5.4 5.5 5.5 8h-3.5l-4.1-5.8-1.9 2v3.9h-3.1z"/><path fill="#e6e6e6" d="m590.1 436.4c0-3.9 3.1-7 7.2-7 4.2 0 7.2 3.2 7.2 7s-3.1 7-7.3 7c-4.1 0-7.1-3.1-7.1-7zm11.2 0c0-2.3-1.7-4.3-4.2-4.3s-4.1 2-4.1 4.3 1.7 4.3 4.1 4.3c2.6.1 4.2-1.9 4.2-4.3z"/><path fill="#e6e6e6" d="m606.5 438.2v-8.6h3.1v7.6c0 2.1 1.1 3.3 2.9 3.3s3-1.3 3-3.3v-7.6h3.1v13.4h-3.1v-2.1c-.8 1.3-2.1 2.3-4.2 2.3-3 .2-4.8-1.8-4.8-5z"/><path fill="#e6e6e6" d="m622.2 439.4v-7.1h-1.7v-2.6h1.7v-3.7h3.1v3.7h3.6v2.6h-3.6v6.6c0 1.2.6 1.7 1.7 1.7.7 0 1.3-.2 1.9-.5v2.5c-.8.5-1.7.7-2.8.7-2.3 0-3.9-.9-3.9-3.9z"/><path fill="#e6e6e6" d="m631.5 425.3h3.2v15h9.4v2.9h-12.5v-17.9z"/><path fill="#e6e6e6" d="m654.3 443.1v-1.7c-.9 1.1-2.3 2-4.4 2-2.6 0-4.8-1.4-4.8-4.2 0-3 2.3-4.4 5.4-4.4 1.7 0 2.6.2 3.7.5v-.2c0-1.9-1.2-2.9-3.3-2.9-1.5 0-2.6.3-3.9.8l-.8-2.5c1.5-.7 2.9-1.1 5.1-1.1 4 0 5.9 2.1 5.9 5.7v8zm.1-5.6c-.8-.3-1.9-.5-3.1-.5-2 0-3.1.8-3.1 2.1s1.1 2 2.6 2c2 0 3.5-1.1 3.5-2.9z"/><path fill="#e6e6e6" d="m663.3 441.1v2.1h-3.1v-18.7h3.1v7.4c1-1.4 2.4-2.5 4.5-2.5 3.2 0 6.3 2.5 6.3 7s-3.1 7-6.3 7c-2.2 0-3.6-1.1-4.5-2.3zm7.7-4.7c0-2.6-1.7-4.3-3.9-4.3s-3.9 1.7-3.9 4.4c0 2.6 1.8 4.3 3.9 4.3s3.9-1.7 3.9-4.4z"/><path fill="#e6e6e6" d="m675.3 441.4 1.4-2.1c1.4 1.1 3 1.7 4.4 1.7s2.1-.5 2.1-1.5-1.3-1.4-2.8-1.8c-.1 0-.2-.1-.2-.1-2-.6-4.2-1.4-4.2-4s2.1-4.1 4.8-4.1c1.7 0 3.5.6 5 1.5l-1.2 2.2c-1.3-.8-2.6-1.3-3.8-1.3s-1.9.5-1.9 1.4 1.3 1.4 2.8 1.8c.1 0 .2.1.2.1 2 .6 4.2 1.5 4.2 4 0 2.9-2.2 4.2-5 4.2-2 0-4.1-.7-5.8-2z"/></g>
</svg>
