<?xml version="1.0" encoding="utf-8"?>
<!-- Generator: Adobe Illustrator 23.0.1, SVG Export Plug-In . SVG Version: 6.00 Build 0)  -->
<svg version="1.2" baseProfile="tiny" id="Layer_1" xmlns="http://www.w3.org/2000/svg" xmlns:xlink="http://www.w3.org/1999/xlink"
	 x="0px" y="0px" viewBox="0 0 900 600" xml:space="preserve">
<g>
	<path d="M837.27,515.06c-7.61,1.52-9.21-0.56-10.86,0.1c-5.77,1.92-21.37-4.12-33.42-0.62c-3.38,5.42-10.75,2.5-11.48,6.52
		c-0.42,2.31-2.31,2.77-8.9,2.38c-27.77-1.64-45.5,1.11-66.52-2.17c-30.27-4.73-55.85-1.34-67.24,3.1c-1.04,0.4-2.28,0.41-3.52,0.72
		c-5.73-4.56-23.49-8.12-30.1-7.86c-6.51,0.26-8.19-1.34-10.76-1.34c-13.23,0-23.13-3.35-38.07-5.38
		c-12.8-1.74-10.37-3.97-30.93-7.66c-44.92-8.05-46.32-3.68-51.93-14.9c-0.21-6.99,1.96-6.93,3.21-13.14
		c23.46-22.34,43.03-38.6,43.49-39.52c3.23,0.16,2.46-2.61,8.34-7.14c41.37-31.89,52.11-41.95,64.97-53.59
		c-0.12-1.86,0.13-1.73,15-18.83c-0.41-0.21-0.72-0.31-1.24-0.52c4.53-6.04,15.14-11.23,21.93-14.79
		c1.45-0.76,37.85-37.83,85.56-67.24c2.69-1.66,5.38-3.52,7.03-6.41c3.62-0.62,7.14-1.34,10.97-0.41c4.01-3.67,5.46-2.43,8.59-5.69
		c3.28-3.42,5.38-1.42,14.07-8.17c4.07-0.16,11.81-3.54,13.55-8.59c1.34-0.83,2.69-1.03,3.93-1.45c8.11-2.21,0.85-9.21-2.9-14.07
		c-9.72-12.63-6.4-8.46-11.79-14.07c-3.7-3.85-7.69,0.68-14.48-3.31c-2.4-1.41-5.26-0.81-7.03,1.45c-1.23,1.56-2.69,2.69-4.03,3.93
		c-4.19,3.88-1.75,3.82-4.03,7.14c-1.7,2.46-2.16,5.7-4.24,8.07c-0.82,0.94-0.83,2.48-0.83,3.83c0,5.88-5.95,8.69-10.76,12.93
		c-5.49,4.85,3.81,1.16-25.35,11.69c0-0.41,0-0.72,0.1-1.24c-9.99,1.66-41.08,17.79-41.69,17.79c-8.17,2.38-15.31,7.14-22.86,10.86
		c-23.05,11.38-32.28,21.15-37.14,25.24c-5.06,4.26-3.84,1.95-6.1,4.86c-9.2,10.23-11.25,9.15-16.24,13.97
		c-36.78,35.44-78.51,39.25-115.25,67.24c-6.55,4.99-17.58,11.41-24.21,15.83c-3.32,2.22-6.39,5.4-8.69,5.79
		c-0.62,0.11-1.34,0.62-1.86,1.14c-7.03,6.94-22.27,11.24-35.07,21.41c-1.59,1.26-12.68,8.8-14.38,9.1
		c-3.73,0.67-7.55,1.03-11.28,0.31c-0.41-0.72-0.72-1.34-1.24-2.17c-2.38,0.1-4.15-1.63-6.21-2.48c-2.18-0.9-4.34-1.77-6.41-2.9
		c-13.93-7.52-22.01-7.94-26.79-10.55c-16.16-8.81-56.1-9.73-74.07-13.97c-9.71-2.29-19.55-0.21-20.48-0.21
		c-6.43-0.6-11.54,3.89-13.86,9.93c-2.25,5.87-4.16,11.89-4.97,18.1c-0.11,0.83-4.23,11.49-4.76,12.21
		c-3.29,4.5-4.43,6.37-7.35,7.24c-5.84,1.75-17.04,9.98-34.35,15c-1.04,0.3-2.08,0.4-2.9,0.93c-2.82,1.82-5.69,1.97-9.21,0.72
		c-1.66-2.79-5.07-3.63-8.38-4.03c-4.24-0.52-8.07-2.38-12.31-3c-0.31,0-0.62-0.11-0.83-0.31c-2.64-2.54-6.1-2.38-9.41-3.1
		c-4.35,1.55-7.24,4.66-9.62,8.69c-16.02,4.14-23.3,5.48-26.38,9c-1.34,1.34-7.82,2.87-10.76,15.62c-0.52,2.27-1.13,4.55-0.31,6.83
		c0.63,1.76-0.52,3.41-0.52,5.28c2.07,4.86,2.9,10.24,4.45,15.52c-5.28,7.45-11.28,14.17-17.07,21.41c-0.42,3.34-0.81,3.1,0.3,2.18
		c0.29-0.29,3.79-2.97,8.29-8.18c15.23-17.67,8.66-12.75,14.9-6.52c1.76,1.76,3.62,3.31,5.48,4.97c0.17,1.35-4.54,2.66,3.72,2.07
		c4.35,1.66,9.72,2.38,14.17,1.86c34.72-4.06,30.41-6.31,34.86-4.66c0.11,0.04,4.27,0.05,11.5-1.31c-1.3-1.13-5.38-0.28-7.16-1.17
		c0.75-1.25,2.29-0.42,3.1-1.24c1.42-1.42,6-2.99,7.14-2.9c2.48,0.2,4.45-1.14,6.31-2.07c4.34,1.81,11.02,5.08,14.26,8.16
		c-0.11-2.27-1.12-1.65-6.19-6.71c-2.6-2.6-4.85-1.99-5.38-3.72c2.53,0,4.24-1.77,6.41-2.79c4.02-1.89,8.48-3,11.69-6
		c3.32,0.66,0.39,3.94,26.07,20.9c5.19,3.43,5.51,4.61,14.9,16.45c0.36,0.46,1.14,0.98,0.72,1.86c-16.36,1.33-14.96-0.75-20.38,0.93
		c-1.98,0.61-11.45-1.85-33.83,3.83c-2.87,0.73-0.14,0.47-23.48,1.55c-30.98,1.44-36.5,3.36-40.86,3.72
		c-4.76,0.4-9.62,0.55-14.38,0.93c-13.08,1.05-16.71,3.47-22.14-0.72c-4.14-3.2-8.28-6.52-10.76-11.59
		c-0.27-1.62-0.05-2.03,0.52-7.14c-6.07,8.38,0.19,7.82-1.14,11.79c2.79,3.31,5.99,5.91,9,8.69c7.68,7.09,95.11-3.83,105.52-5.28
		c7.61-1.06,5.15-2.38,17.9-3.52c29.8-2.66,27.25,2.01,36-1.24c3.83,2.28,7.35,4.86,10.66,7.97c6.94,0,23.21,7.47,45.52,4.03
		c1.87-0.29,3.72-0.31,6-0.52c1.97-2.17,5.69-2.17,7.66-4.97c21.85-3.33,17.72-3.73,21.52-3.83c6.37-0.16,5.28-1.55,7.14-1.55
		c3.61-0.41,15.11-1.86,18-0.62c-4.07,5.65-9.86,6.42-16.76,10.03c-3.75,1.96-8.01-0.65-10.86,4.86c-2.07,0.52-3.93,1.14-5.79,1.55
		c-0.83,1.66,0.52,2.59,0.83,3.72c-0.52,1.34-1.97,1.34-3,2.38c-0.31,0.93-0.62,2.17-0.93,3.21c1.66,2.38,3.72,1.34,5.79,1.14
		c2.18,3.63,7.41,1.74,11.28,0c6.1,6.97,12.35-1.68,26.17-4.45c1.79,0,1.25,1.94,0.72,3.41c-0.84,2.37-0.62,2.79,2.38,4.35
		c1.34-1.14,3.1-1.76,4.76-2.69c2.35-5.3,1.96-5.79,3.31-5.79c7.66,0.77,10.88-7.93,11.17-14.9c0.27-6.41-0.26-7.4,2.79-7.35
		c11.73,0.2,15.36,1.47,22.35,0.83c12.65-1.16,38.14,5.99,47.69,5.28c8.23-0.62,15.13,2.46,24.31,2.28
		c79.15-1.59,47.05-2.75,92.38-6.21c0.1-0.01,23.72-1.6,24.1-1.45c3.79,1.81,5.65-1.01,29.28-3.62c7.96-0.88,6.68-2.01,12.93-1.55
		c27.31,2.02,27.89,8.55,77.28-0.72c11.05-2.08,14.32-4.83,26.07-6c9.76-0.97,22.04-6.24,33.73-7.66c9.43-1.14,12.19-0.8,16.35-2.69
		c4.75-2.16,4.6,1.45,6.52,1.86c0.41-0.41,0.72-0.83,1.34-1.45c2.17,0.41,4.45,0.62,6.52,1.55c9.62,4.34,16.06,3.03,27.1,7.03
		c3.31,1.2,16.13,5.97,20.38,6.31c6.49,0.53,6.43-5.48,10.66-7.86c1.7-0.96,6.09-11.07,6.62-20.07
		C850.67,525.46,844.84,513.55,837.27,515.06z M739.09,214.23c2.64-0.32,2.71-0.41,3.52,0.1c3,1.93,7.1,2.67,7.5,2.67
		c1.84-0.25,3.52-1.12,5.53-0.51c6.68,6.29,3.03,4.38,6.83,8.17c12.58,14.38,14.67,14.56,5.07,17.38
		c-5.59,12.59-14.04,6.6-27.1,2.18c-2.96-1-5.06-4.91-5.38-7.03c0.62-1.55,1.34-3.1,1.97-4.66c-2.28-3.62-3-7.66-3.31-11.79
		C735.36,218.73,737.5,216.18,739.09,214.23z M720.92,246.45c0.3-0.15,0.16,1.07,2.62,4.46c1.42,1.96,6.74,7.92,9.13,8.3
		c1.29,0.2,3.11-1.06,0.01-3.81c-2.7-2.4-11.42-11.37-7.97-12.52c1.81,3.46,10.04,15.27,12.62,12.31c0.72-2.17-1.76-3-2.28-4.76
		c0-0.83,0.93-1.55,0.31-3.21c-1.03-1.76-2.28-4.45-5.38-5.48c-0.1,0.1-1.07,1.21-1.19,1.09c-5.29-4.62-1.27-0.99-1.71-7.5
		c-0.27-4.04,3.37-3.02,4.24-8.79c0.13-0.63,0.38-1.24,1.14-1.24c3.54,8.66,2.5,6.64,0.1,10.24c0.52,5.37,3.52,8.99,8.47,11.37
		c0,0.13,2.3-0.24,4.33,0.47c0.6,0.21,5.74,3.2,7.99,4.41c-10.29,5.14-11.51,4.67-14.9,8.28c-6.22,6.63-10.82,1.66-16.24,4.35
		c-2.51,1.25-3.53-1.19-5.9-5.69c-1.03-1.97-2.79-3.31-3.62-5.9C715.38,250.75,717.95,248.6,720.92,246.45z M491.52,377.16
		c14.3-7.2,30.21-13.08,36.93-15.72c16.77-6.59,23.36-17.32,32.48-21.73c2.67-1.29-3.07,1.53,12.52-10.97
		c14.44-11.58,17.34-18.87,29.38-26.07c4.77-2.85,12.17-8.47,19.24-11.07c14.56-5.35-8.67-1.1,62.59-25.97
		c7.16-2.5,9.92-4.64,23.38-10.76c0.62-0.16,1.34,0.34,1.34-0.07c0-0.1-0.02-0.23,0.08-0.23c0.34,0-0.07,0.19-0.07,0.4
		c0.31,1.87,1.7,2.87,6.21,10.35c1.64,2.71,3.36,1.17-13.14,11.28c-47.99,29.41-41.18,31.88-55.55,43.35
		c-8.14,6.49-9.13,9.64-21.1,16.97c-6.83,4.18-11.6,6.06-14.38,10.35c-1.37,2.12-4.41,2.47-11.69,12.93
		c-2.48,3.57-22.65,24.73-29.38,29.9c-34.74,26.66-32.6,26.49-41.69,31.97c-5.62,3.38-48.63,44.23-48.74,44.28
		c-10.96-16.44-23.13-28.29-34.97-42c-2.49-2.89-4.5-6.15-7.14-8.9c-0.81-0.84-1.14-1.97-1.14-3.21
		C437.45,410.71,472.69,386.64,491.52,377.16z M408.15,429.41c0.62,0.81,0.52,1.1,0.31,1.55c-0.81,1.27-4.24,3.94-4.45,1.45
		C405.25,431.47,406.7,430.44,408.15,429.41z M402.25,433.85c0.2,0.39,0.49,0.69,0.69,0.99c0.34,0.69-2.97,4.44-3.69,0.46
		C400.19,434.38,400.93,433.65,402.25,433.85z M396.97,436.85c-0.1,0-1.17,0.23-1.26,0.25
		C396.02,436.79,396.28,436.42,396.97,436.85z M136.79,483.41c-2.69,0.21-2.69,0.21-5.69-1.14
		C134.82,482.37,134.82,482.37,136.79,483.41z M124.71,480.2c0.96,0.42,1.19,0.24-0.94,0.55c-5.12,0.73-4.38,1.1-6.02-1.17
		C119.86,479.58,119.76,478.03,124.71,480.2z M114.93,476.39c2.09,1.19-3.41,2.92-4.73,4.74c-2.07-0.1-4.03,0.52-6.1-0.21
		C106.89,477.04,110.93,474.12,114.93,476.39z M115.48,481.86l-0.21,0.31C113.7,481.38,115.05,481,115.48,481.86z M101.72,484.86
		c-0.17,1.33,3.15,2.99-0.02,2.04c-1.17-0.35-1.89-1.02-2.66-1.94C99.93,484.38,100.79,484.39,101.72,484.86z M75.65,498.73
		c-2.13,0.31-4.48-0.91-6.51,0.2C69.59,495.17,73.73,496.18,75.65,498.73z M66.01,517.31c0.04-1.33,0.51-1.07,0.9-1.16
		c0.72-0.17,1.79-0.86,2.93-0.26c-0.99,1.44-2.3,2.21-3.51,2.48C66.13,518,66.03,517.66,66.01,517.31z M66.03,513.31
		c0-3.65,8.76-4.2,15.41,0.83c-2.87,0.19-5.32,0.82-7.55,0.52C65.48,513.52,66.94,514.22,66.03,513.31z M73.16,518.47
		c-0.7,0.39-1.23,0.28-1.97-0.09C72.44,517.96,72.44,517.96,73.16,518.47z M68.18,530.09c-1.68-3.41,2.08-2.51,2.73-4.46
		c0-2.25,0.17,0.19,5.47-1.67c0.79-0.28,1.56-0.22,2.35-0.3c-0.43,1.47-4.99,2.48-6.7,4.24c2.57,0.29,4.46-1.15,6.72-1.67
		c-1.75,2.16-4.27,3.53-6.83,4.55C70.18,531.49,68.96,531.67,68.18,530.09z M80.56,528.21c-0.5,1.16-1.44,2.1-3.39,2.45
		C77.89,529.31,79.08,528.43,80.56,528.21z M78.98,523.52c0.18-0.21,0.38-0.42,0.81-0.18C79.46,523.42,79.22,523.49,78.98,523.52z
		 M70.58,534.62c-0.21-1.7,1.15-1.76,6.39-3.79C74.34,534.33,73.29,534.23,70.58,534.62z M80.09,545.58
		c-1.66-0.93-5.49-3.38-4.66-5.07c0.86-1.07,1.88-0.26,2.11-0.25c0.1,0.03,0.26-0.16-0.34,0.44c-0.1,0.1,0.44,0.96,0.82,0.84
		c1.69-0.76,3.45-0.35,5.16-0.52c-0.14,0.1-2.77,1.36-1.85,2.59c0.87,1.01,2.08,0.62,2.79,1.24
		C82.96,546.24,81.59,546.55,80.09,545.58z M101.64,547.9c-0.02,0.03-0.03,0.06-0.03,0.06C101.61,547.92,101.71,547.77,101.64,547.9
		z M101.99,547.5c0.02-0.02,0.02-0.03,0.04-0.05C102.13,547.45,102.11,547.41,101.99,547.5z M105.41,548.33
		c-1.05,0.1-0.66-1.54,1.48-1.09C106.27,547.7,105.94,548.27,105.41,548.33z M140.09,539.07c-5.31,1.4-10.23,4.58-17.17,5.69
		c-5.77,0.93-4.48-0.61-8.69,0.21c-2.07,0.4-4.24,0.31-6.52,0.41c-4.34-3.04-3.58-2.47-9.52,2.48c-4.6-0.58,0.4-0.58,0.93-3.1
		c-6.55-1.01-8.48,5.72-13.76,2.28c0.76-0.65,5.35-0.88,7.13-2.48c-1.76,0.03-3.23-0.77-4.32-1.66c-1.27-0.26-2.42,0.54-3.59,0.35
		c-2.08-0.33,0.96-0.55,1.42-3.77c-0.61-0.23-1.06,0.1-1.53,0.33c-0.34,0.22,0.22-0.87-1.47-2.4c-1.32,0-2.3,1.46-3.78,1.45
		c0.74-1.93,3.29-2.12,3.78-4.14c-0.31-0.21-0.52-0.41-0.83-0.72c-1.48,0.68-1.71,1.85-3.83,2.38c-0.24,0.83-1.35,2.32-3.31,3.31
		c-0.81,0.5-1.51,0.28-1.86-1.14c1.45-1.14,3-2.17,4.97-2.59c0.99-1.79,3.29-2.45,3.94-4.58c0.07-0.32,0.33-0.25-0.7-0.53
		c-0.75-0.2-0.65-0.23-0.65,0.04c0,0.52-0.3,0.73-0.84,0.73c-1.78,2.54-1.68,2.7-4.93,3.64c-0.93,0.27-1.44,0.77,2.66-2.61
		c0.62-0.51,1.34-1.14,2.28-1.03c0-0.62,0.31-0.83,0.83-0.93c0.4-0.54,0.72-1.13,0.93-1.45c-0.27-0.36-0.65-0.85-1.01-1.12
		c0.08-1.55,2.93-2.05,3.39-6.23c-0.51-1.05-1.15-2.11-1.34-2.48c-4.03,0.72-8.17,0.62-11.9,2.9c1.3,0.65,5.24-0.77,2.99,0.55
		c-1.84,1.08-4.63,2.83-6.3,1.83c-0.62-1.24-1.34-2.69-0.52-4.55c2.69,0.52,5.16-0.15,7.76-0.83c10.5-2.74,7.94-0.38,9.62-2.07
		c-1.67-1.77-1.27-4.24-1.97-6.52c-3.83-2.17-8.17-3.31-12.41-4.55c-0.31,0.52-0.52,0.93-0.72,1.24c-5.71,1.02-5.39-5.7,4.76-1.34
		c0.51,0.22,1.24,0.62,1.66,0.41c2.59-1.52,4.94,2.41,6,0.93c-2.11-2.11-2.53-1.6-3.31-2.59c-2.89-3.64-9.27-1.65-10.64-2.33
		c-1.29-0.65,0.28-2.57,1.43-3.47c0-0.15-0.02-0.12,0.32,0.03c2.81,1.21,5.93,1.12,9.31,1.52c-0.3-1.14,1.11-1.12,1.03-2.28
		c-2.27-0.73-3.76-2.79-6.62-3.41c3.81-1.06,5.31,2.02,7.24,1.86c0.54-2.16-3.35-3.01-4.76-5.18c1.03-1.34,2.59,0,3.72-1.03
		c2.59-4.66,4.05-0.12,6.31-0.72c-0.21-0.83-0.31-1.34-0.41-1.86c1.79-1,5.86,1.21,5.41-0.05c-0.38-1.05-1.6-0.95-2.1-1.91
		c1.66-0.52,3.21-0.11,4.66,0.41c1.66,0.61,3.41,0.21,5.07,0.31c0.18,1.13-1.55,1.03-1.14,2.38c1.63,0,3.76,0.3,4.76,0
		c2.78-1.31,2.22-4.55,5.38-4.55c2.48,0,4.86-1.09,7.24-1.24c22.21-1.41,11.92,1.87,25.97,2.59c4.36,0.22,15.8,2.79,19.65,7.55
		c1.9,2.35,3.96,4.74,5.59,7.24c5.43,8.34,2.31,20.03-2.48,25.76C157.7,533.09,145.62,537.61,140.09,539.07z M191.41,518.69
		c-3.73-1.15-23.07,7.78-23.07,5.28c1.03-3,1.27-6.25,2.9-9.1c0.98-1.73,1.25-8.23-2.28-12.41c-2.86-3.39-6.86-12.49-10.97-13.86
		c-4.61-2.3-2.83-1.47-4.03-2.07c15.44-5.24,29.27-14.11,29.38-14.17c9.09,0.95,18.81,4.38,18.81,4.48
		c-0.23,1.46-0.49,1.29-0.07,1.36c1.86,0.31,2.33-1.15,6.7-0.35c11.67,2.14,10.82-0.21,13.86,0.93c5.16,1.47,11.6,4.03,11.6,4.16
		c2.95,6.34,5.33,11.94,7.54,25.02c1.63,9.66-10.58,28.34-16.35,29.17c-4.75,0.69-12.37,0.98-14.68-0.41
		c-4.63-2.8-9.8-3.38-14.79-5.28c-7.83-2.97-10.81-4.18-18.1-6c1.21-1.34,4.42-1.71,12.83-4.86
		C191.67,520.28,191.82,519.5,191.41,518.69z M314,564.72c-4.66,4.02-16.44,3.47-27.52,6.83c-1.97,2.07-4.76,3.31-7.55,3.83
		c-10.45,1.95-20.9,3.82-31.66,1.66c-10.36-2.08-16.59-0.52-28.45-14.07c-2.8-3.2-5.77-6.24-9.09-8.78c-3.94-3.02-0.51-1.68-9-8.28
		c-32.77-25.47-19.22-14.11,8.37-5.91c9.91,2.95,11.65,0.74,12.83,1.14c3.41,0.93,5.98-0.75,8.28-2.9
		c10.77-10.08,9.53-12.08,13.66-17.38c2.87-18.03-3.01-34.43-7.8-39.91c-2.6-2.98-17.56-5.76-21.48-6.23
		c-15.37-1.83-19.2-3.49-25.45-4.03c-4.3-0.67-0.96-1.27,4.97-6.21c3.93,0.62,7.86,0.63,11.69,1.45
		c16.78,3.58,37.94-2.66,44.59-7.86c36.5,7.55,45.68,14.96,59.69,15.31c1.33,0.03,9.45,0.73,9.57,1.11
		c1.32,4.25,2.45,8.37,3.67,12.45c-1.77,7.39,4.06,5.94,2.28,29.28C324,537.03,322.27,548.19,314,564.72z M321.04,565.24
		c-0.41-0.1-0.83-0.31-1.45-0.42c0.16-0.55,0.36-1.6,0.62-2.07c4.56-12.42,4.94-20.3,8.79-29.69c0.82-2,0.78-4.39,1.03-12.92
		c2.28,2.79,0.36,2.89,4.45,16.86c1.75,5.98,3.68,13.26,1.86,26.38C331.28,564.62,326.11,564.1,321.04,565.24z M306.35,586.65
		c-1.15,0.52-1.86,1.95-3.41,0.93C303.97,586.65,305,586.34,306.35,586.65z M300.04,593.68c0.28-3.02,2.97-1.54,6.93-4.96
		c0.72-0.62,1.66-1.14,2.79-0.32C303.52,593.4,302.25,595.27,300.04,593.68z M343.89,592.66c0.93-0.31,1.86-1.14,3.31-0.93
		C347.2,598.15,341.36,596.47,343.89,592.66z M358.8,565.46c-1,4.78,3.55,5.2-2.48,21c-1.59,0.99-3.12,1.74-4.97,1.97
		c-0.49-0.49-0.81-2.98-2.23-0.99c-0.49,0.69-1.22,2.66-1.54,2.66c-0.71,0.09-1.42,0.1-2.12,0.2c-0.83,0.11-1.55,0.93-2.38,0.41
		c-0.93-0.93,0.62-2.79-1.34-3.31c-0.12,0.16-1.7,2.14-1.85,2.19c-13.37,3.15-13.91,7.54-22.77,6.39c4.08-5.02,3.5,0.09,8.06-5.73
		c0.43-0.55-0.69,0.46,8.6-3.38c0.65-0.27,1-0.6,0.72-1.34c-1.76-1.37-9.36,2.43-11.17,3.72c-4.12,2.92-8.99,4.67-13.66,6.62
		c-1.75,0.73-2.78,0.41-4.84-0.61c-0.13,0,6.34-6.48,12.7-7.25c2.63-0.32,6.32-1.95,7.36-2.7c0.37-0.26,0.61-0.63,0.61-1.44
		c-2.07-0.72-3.72,1.24-5.69,1.24c-2.13-1.42-0.69-1.66-7.03,0.1c-2.97-1.19-3.38-0.67-3.6-1.8c-0.56-1.12,5.89-1.21,7.71-2.07
		c0.8-0.38,0.13-1.2,2.31-1.92c12.12-2.23,21.79-13.34,20.69-16.54c-0.94-2.76,1.71-24.01-4.45-33.11
		c-1.35-1.99-5.84-23.91-6.52-27.21c-1.67-8.13-0.83-12.02-6.62-28.04c-1.3-3.59-0.84-4.16-10.97-4.76
		c-14.06-0.84-22.64-6.42-44.38-11.28c-6.52-1.46-13.27-1.98-19.76-3.83c-1.04-0.3-2.28-0.62-3.41,0.1c0,1.96,2.38,1.03,3,2.38
		c-1.51,0.88-3,1.31-4.66,1.66c-19.65,4.08-20.93,4.78-26.28,4.55c-4.85-0.21-19.14-0.42-19.76-1.97c3.57-4.89,3.7-8.34,4.97-10.45
		c4.88-9.52,2.95-11.91,4.03-14.07c5.37-14.93,6.73-14.55,14.48-15.31c5.38-0.53,10.76-1.17,16.14-0.1
		c26.82,5.31,17.18,2.69,25.04,3.83c47.28,6.87,20.53,2.6,49.45,9.21c4.12,1.18,0.44,1.25,8.48,3.52
		c6.45,1.82,5.77,2.05,28.97,12.41c3.05,1.36,2.89,1.97,3.41,8.69c0.17,2.19,1.54,10.8,2.4,12.08c0.36,0.54,0.84,1.01,1.43,1.47
		c0.93,4.55,1.75,8.9,2.28,13.24c2.79,23.06,3.66,22.33,4.14,26.38C362.73,524.45,361.7,551.63,358.8,565.46z M390.77,564.83
		c-23.03-5.46-29.1,0.97-28.24-4.87c8.96-61.29-8.91-97.2-8.69-101.07c2.85-4.27,6.53,0.08,20.39-6.27
		c0.59-0.2,29.07,46.29,35.37,62.34c1.22,3.11,1.14,6.21,0.62,9.41c-2.79,1.34-5.17,3-7.35,4.97c-0.73,0.36-1.34,0.85-1.24,1.66
		c1.47,0.49,4.42-3.06,6.53-2.9c0.71,0,0.18,4.91,0.09,5.6c-1.98,16.33-1.4,20.59-5.69,32.59
		C398.42,566.17,394.6,565.73,390.77,564.83z M477.05,572.48c-9.06-0.88-20.16,3.16-31.55-1.76c-7.21-3.11-11.57,0.88-28.24-1.97
		c-3.72-0.64-7.55-0.72-11.28-1.85c3.34-9.47,6.26-32.4,6.21-38.38c-0.04-4.25,2.43-2.37,2.24-3.12c-1.22-3.55-1.01-9.41-3.59-15.19
		c-5.51-12.37-14.41-30.53-21.73-40.45c-3.19-4.33-3.91-8.17-10.86-18.31c-0.63-0.92-1.55-1.76-1.45-3.1
		c10.2-8.75,19-11.46,18.51-10.97c-0.88,1.5-0.63,3.17-1.13,4.55c-0.62,0.93-1.55,1.24-1.66,2.17c0.51,1.41,0.04,2.58,1.76,3.72
		c0-0.11-0.23-1.97-0.41-3.1c2.61-1.36,2.12-6.42,3-6.4c2.93,0.04,2.43,3.18,4.57,4.09c0,0.01,0,0.05-0.02,0.14l0.1-0.1
		c-0.06-0.02-0.07-0.04-0.08-0.04c0.39-0.8-0.83-2.41-0.44-3.68c1.22-0.51,2.02-1.97,3.62-1.97c6.85,6.46,9.43,13.27,10.87,13.62
		c0.02-0.23,0.07-0.54-0.01-0.69c-9.14-17.71-8.23-11.45-9.31-14.69c0.93-0.83,1.97-1.66,3.21-2.79c-0.72-2.59,1.13-4.15,3.1-5.48
		c1-0.68,5.26-4.24,8.82-5.35c7.52-2.33,6.69-4.34,11.04-6.13c0.03,0.03,12.75,16.37,20.28,23.9c15.13,15.13,21.13,25.5,25.66,29.38
		c-3.1,3.21-5.79,6.72-8.28,9.93c-0.1,1.45,1.24,1.45,1.45,2.69c0.1,1.76-1.03,3.72-0.62,6.21c5.93,10.55,1.44,4.31,7.76,10.24
		c1.87,1.75,4.66,0.72,6.52,2.28c4.07,13.72,0.8,2.79,2.59,14.48c1.38,9.02,1.66,17.51-0.93,29.17c-2.24,10.1-1.96,15.11-4.45,19.97
		C478.87,570.22,479.36,572.48,477.05,572.48z M774.89,533.07c-0.1,1.86-0.64,3.73-0.41,5.69c0.76,6.58,0.73,3.99-3.21,5.48
		c-6.42,2.43-10.96,0.68-22.86,3.62c-103.53,25.53-97.61,16.16-115.04,14.9c-8.97-0.65-5.5-3.99-34.04,0.72
		c-21.04,3.48-11.35,2.15-17.17,0.93c-9.8-2.05-24.97,0.85-34.66,3.21c-5.24,1.28-60.05,6.15-63.21,3.41
		c-0.29-2.19,5.15-8.44,4.97-16.45c-0.07-2.97,2.54-5.47,4.03-18.83c2.09-18.66-2.66-20.62-3.31-34.24c0.97-0.65,3.09-0.23,4.24,0
		c15.5,3.11,10.91,1.07,16.45,1.97c6.2,1.01,16.31,2.74,20.17,4.03c32.3,10.84,49.35,6.79,69.21,12.21
		c8.8,2.4,11.02,0.74,16.86,2.59c1.65,0.52,3.29,0.99,5.07,0.31c1.44-0.55,2.9-0.1,3.72,1.45c5.15,9.7,29.91-4.3,65.9-1.34
		c13.95,1.15,27.5,3.91,29.07,3.52c3.25-0.81,12.09,0.52,26.28-0.62c12.81-1.03,28.74,0.41,27.1,0.41c-0.15,0.18-0.5,0.27-0.62,0.62
		c-0.92,1.83,2.9-0.24,3.83,2.07C776.75,530.27,774.99,531.1,774.89,533.07z M790.2,520.76c-0.52,0.62-1.03,0.52-1.55,0.52
		c-0.41,0-0.93,0.21-1.14-0.52C788.44,520.76,789.27,520.76,790.2,520.76z M828.79,558c-3.61-2.06-9.08-2.84-13.14-4.76
		c-9.31-4.4-13.5-2.28-15-4.34c4.08-7.37,3.5-23.07-0.41-23.07c-3.85,1.65-1.11,14.47-3.59,22.55c-0.07,0.23-2.08,0.59-1.48-3.41
		c0.62-4.15,0.56-8.48,0.83-12.62c0.18-2.81,0.36-5.03-1.34-6.31c-0.74,0.31-1.55,0.43-2.07,1.34c-2.13,9.3-0.02,10.55-1.94,19.12
		c-0.12,0.54-6.59-1.16-11.81-3.91c-0.21-3.72,0.21-7.76-1.14-11.17c0.85-3.29,4.02-6.02,4.66-6.23c5.58-0.93,11.6-4.43,17.9-4.43
		c0.19,0,0.42-0.32,0.62-0.41c0-1.03-1.24-0.62-1.66-1.55c10.05-4.31-0.13-2.41,19.21-0.62c18.02,1.67,21.1-1.07,23.32,0.89
		C853.06,529.05,842.84,565.03,828.79,558z"/>
	<path d="M90.77,70.8c-0.01,0.01-0.01,0.02-0.02,0.04C90.87,70.95,90.88,70.91,90.77,70.8z"/>
	<path d="M851.13,88.93c4.27-6.15,2.45-17.15,1.55-24.62c-1.9-0.86-2.27,1.67-1.86,3.72c0.55,2.81,1.05,13.07,0.21,15.31
		c-4.28,8.88-5.48,12.41-10.14,12.62c-2.5,0.11-6.77,1.29-11.9-1.24c-4.85-2.4-9.63-4.83-14.9-6.31c-2.9-0.81-5.48-2.69-8.28-3.21
		c-0.62-1.24-0.31-2.07-0.1-2.9c0.83-4.76,0.69-9.62,1.03-14.38c0.58-7.98-4.45-8.65-4.45-5.79c-1.48,12.71-1.45,20.69-1.45,22.66
		c-2.37,0.51-3.45-0.25-3.69-0.51c-12.23,0.89-7.65-4.78-11.94-6.21c-1.26-0.79-4.75,6.71-1.76-15c4.24-1.48,9.04-1.27,12.97-3.66
		c-2.76,2.45-2.18,16.97-2.21,18.46c-0.08,3.59,1.86,6.31,1.86,6c2.55,0,2.46-2.1,2.48-3.72c0.15-13.74,1.01-22.42-1.48-21.18
		c1.16-1.13,1.09-2.54,2-3.76c-2.48-1.03-4.66,1.03-6.62-0.31c0-2.14,8.37-0.3,11.59-3.52c1.14-1.14,2.59-1.24,3.93-1.03
		c0.93,0.41,0.31,1.55,1.86,1.86c8.07-0.83,16.76-0.83,25.35-3.62c6.72,3.41,10.55,8.9,11.69,16.66c-2.9,2.79-3.43,6.52-3.31,10.55
		c0.06,2,0.33,10.27,2.28,10.76c1.16-1.66-0.31-1.41-0.31-12.93c0-7.03,5.56-6.4,3.41-13.45c-2.83-9.27-7.09-10.79-11.07-13.45
		c-2.58-1.72-3.44-0.49-16.55,1.45c-7.11,1.05-10.02-5.26-21.31,1.97c-0.35,0.35-2.03,0.33-10.86,1.24
		c-1.76,0.83-1.45,1.86-2.07,2.59c-1.14,0.62-3,0-3.41,2.07c0.1,2.07,2.17,1.34,3.21,2.17c-0.41,0.72-1.24,0.42-1.86,0.62
		c-1.75,0.55-3.11-1.47-5.07-0.52c-1.65,0.8-25.27-5.71-32.38-6.41c-12.35-1.23-25.49-6.27-33-8.48
		c-25.68-7.58-32.72-5.07-43.45-7.66c-9.51-2.29-29.38,2.99-32.69,3.72c-5.36,1.18-18.7-1.22-22.04-1.86
		c-2.91-0.56-12.6-0.6-16.66-0.72c-19.73-0.61-89.33-32.39-155.28-25.14c-1.14,0.12-2.28,0.21-3.52,0.1
		c-12.57-1.04-13.85,0.1-27.1,0.62c-16.22,0.64-27.3,6.99-47.69,20.59c-13.23,1.04-11.5,0.9-13.04-1.66
		c-0.83-0.83-1.77-0.19-2.59-0.72c-1.38-0.89-17.53-8.66-21.41-10.03c-48.28-17.08-21.93-8.77-82.87-18.1
		c-8.05-1.23-13.11-3.43-21.21-2.17c-6.54,1.01-14.24-1.22-19.35,9.52c-1.67,3.51-5.39,15.9-5.48,19.76
		c-0.02,0.96-1.6,3.71-2.07,5.28c-1.19,5.3-5.64,11.32-8.79,13.04c-3.88,1.81-5.32,1.73-7.14,3c-12.28,8.6-30,12.32-34.86,15.1
		c-1.76-0.21-3.52-0.52-5.28-0.72c-0.93-0.93-1.76-1.97-2.9-2.59c-2.86-1.56-17.59-3.86-19.76-5.59c-2.33-1.85-8.8-3.56-12.21-0.72
		c-10.81,8.98,0.95,5.02-19.35,10.55c-0.52,0.21-1.14,0.31-1.76,0.41c-3.31,0-6.02,2.2-9.1,2.9c-0.28,0.06-1.52,1.13-5.17,3.93
		c-5.32,4.09-6.36,8.15-8.38,15.31c-1.13,4,1.49,4.21-0.41,9.93c2.07,4.97,2.9,10.24,4.45,15.52c-2.07,4.14-6.93,10.35-16.97,21.73
		c-0.12,1.17-0.33,2.32-0.41,3.31c2.25-3.64,3.76-1.89,18.41-20.38c0.54-0.68,0.81-1.23,1.76-1.14c3.98,5.21-1.91,0.41,8.79,10.35
		c0.83,1.14-0.83,1.66,0.62,2.59c1.14,0,3.01-0.53,4.35,0.1c9.09,4.29,34.99-1.4,44.84-3.45c1.71-0.35,1.94,0.7,5.91,0.4
		c2.78-0.21,5.55-1.01,7.81-0.89c1.73,0.2,2.23,1.44,3.1,1.24c0.52-0.31,1.34-0.1,1.55-0.52c-3.41-2.07-7.35-1.24-11.07-1.76
		c0.31-0.31,0.41-0.72,0.62-0.83c4.07-1.07,6.37-3.52,10.04-3.93c7.4,0,2.65-5.57,16.35,3.01c0.81,0.51,1.79,0.99,2.74,1.01
		c-0.48-1.43-2.13-1.67-2.95-2.88c-1.83-2.68-4.91-3.88-6.41-4.76c0.72-1.34,2.17-0.93,3.1-1.76c2.8-2.47,10.44-3.88,14.79-7.97
		c2.8,2.34,6.19,8.45,25.76,21.21c4.45,2.9,5.43,4.54,16.14,18c-9.61,1.7,4.07,0.44-33.21,1.86c-15.05,0.57-15.82,3.85-35.07,4.45
		c-32.17,1-49.71,4.35-50.59,4.35c-26.4-0.23-30.27,7.5-41.59-3.83c-2.59-2.17-4.66-4.76-5.79-7.14c-1.97-3-0.62-5.07-0.83-7.35
		c-2.22,1.67-2.31,3.24-2.69,6.1c0.72,1.76,2.28,3.21,1.66,5.17c2.79,3.41,6.07,6.14,9.31,8.9c2.88,2.46,3.71,1.42,9.52,2.38
		c4.52,0.75,7.35-0.43,10.86-0.52c24.89-0.59,23.16-0.37,36.73-2.07c14.06-1.77,46.87-4.03,53.07-6.31
		c6.94-2.56,14.38-2.3,21.62-2.9c21.81-1.8,13.8,2.24,27.62-0.83c2.59,2.07,5.82,3.49,8.28,6.1c1.25,1.33,2.79,2.08,4.66,2.17
		c4.37,0.21,18.82,5.35,34.97,4.55c4.65-0.23,9.31-0.83,14.17-1.34c2.07-2.28,5.79-2.38,7.97-5.17c12.34-1.3,19.8-3.92,23.69-3.83
		c3.42,0.08,0.43-1.18,10.76-1.86c6.19-0.41,14.69-2.17,11.17,1.34c-2.28,1.86-4.46,3.71-7.24,4.76c-6.47,2.44-8.64,4.66-12.21,4.66
		c-4.92,0.31-4.97,1.09-7.24,3.93c-1.76,1.14-3.93,0.93-5.59,1.66c-1.24,1.76,0.72,2.79,0.62,4.35c-3.79,2.28-2.78,0.96-3.93,5.17
		c2.03,1.62,0.95,1.65,5.9,1.03c2.28,3.86,6.79,1.62,11.28,0.21c1.24,0.21,1.76,2.06,3.41,2.17c1.45,0.1,2.9-0.21,4.35,0.31
		c12.26-5.77,14.21-6.59,19.14-6.93c2.45,2.9-3.58,4.3,2.28,7.45c5.97-3.19,4.65-1.45,7.14-7.86c3-0.75,7.15,0.49,10.45-6.93
		c2.25-5.08,1.72-9.1,2.28-14.9c1.46-1.95,3.04-0.88,12.93-0.41c20.37,0.95,9.79-1.29,26.17,1.14c22.67,3.36,28.13,5.17,34.24,4.45
		c6.45-0.76,13.23,2.56,24.31,2.28c39.86-1.01,23.89,2.19,91.04-6.21c15.66-1.03,5.7-0.16,22.35-1.55
		c4.83-0.69,0.55,1.65,10.35-0.31c15.15-3.03,24.64-3.25,27.73-4.35c7.91-2.8,24.3,4.84,56.59,3.52
		c15.75-0.64,47.42-9.6,49.76-10.14c5.69-1.3,3.25,0.86,23.07-4.86c19.37-5.6,23.32-2.84,29.69-5.48c6.63-2.75,5.22,1.23,7.66,1.55
		c0.31-0.41,0.62-0.93,1.03-1.55c2.38,0.41,4.77,0.6,7.03,1.66c8.56,3.99,18.1,3.4,28.24,7.55c30.1,12.32,21.77,1.63,29.79-2.38
		c1.22-0.61,5.68-10.63,6.41-19.77c0.9-11.07-4.61-15.94-6.41-18.1C848.24,95.55,850.1,92.55,851.13,88.93z M502.6,16.94
		c48.6,8.1,37.7,9.13,76.39,18.27c6.74,1.59,14.13,6.42,29.34,5.21c14.51-1.15,15.09,2.15,20.9,1.24c0.42-0.11,0.95,0.01,1.24,0.21
		c5.77,2.68,20.28-2.8,27.62-2.28c7.63,0.54,22.84,0.13,43.35,4.76c23.97,5.41,15.46,5.24,49.86,11.79
		c8.42,1.6,25.13,5.56,25.24,5.6c2.25,0.69,1.23,0.3,0.93,15.71c-1.5-0.13-53.23-1.03-54.73-1.03c-17.87-0.1-17.65,3.07-28.14,3.93
		c-16.25,1.33-17.34-1.22-44.17-0.83c-0.11,0-32.41,5.01-49.24,1.86c-36.63-6.85-116.03,9.21-105.32-5.07
		c5.54-9.33,8.14-20.99,7.45-22.97c-0.95-2.71,0.27-6.44-0.21-9.93c-0.95-6.95,3.38-15.89-1.97-25.24
		C500.69,17.26,501.51,16.66,502.6,16.94z M136.48,64.42c-1.44,0.83-1.46,0.81-3.93-0.62C136.27,63.8,136.3,63.97,136.48,64.42z
		 M121.48,60.28c0.93,0.1,1.14,0.21,3.1,1.55c-2.64,0.38-6.26,1.71-6.72-0.83C118.99,60.39,120.13,60.28,121.48,60.28z
		 M110.82,56.87c2.3,0,4.47,0.96,4.66,1.14c-0.93,2.48-3.83,2.48-5.17,4.45c-1.53,0.22-4.23,0.31-4.35,0.31
		c-0.62-0.1-1.45,0.31-1.86-0.62C104.29,61.95,106.38,58.68,110.82,56.87z M115.58,63.19c-0.77,0.98-1.54-0.63-0.93-0.63
		C115.06,62.66,115.37,62.97,115.58,63.19z M101.61,65.97c0,0.93,1.24,1.45,0.52,2.48c-1.24-0.21-2.07-0.93-2.79-1.76
		C99.94,65.71,100.52,65.76,101.61,65.97z M74.81,76.7c0.13,0.19,0.05,0.09-0.26,0.11c-0.32,0.03-0.65,0.05-0.87-0.39
		C74.38,76.19,74.81,76.53,74.81,76.7z M71.61,78.49c1.45-0.1,2.79,0.1,3.62,1.86c-1.9,0.08-3.77,0.22-5.48-0.31
		C69.85,78.7,70.78,78.49,71.61,78.49z M73.37,95.77c-3.16-0.9-9.06,0.34-7.03-2.69c4.97-2.17,9.72-1.55,14.28,1.76
		C78.14,95.66,75.88,96.48,73.37,95.77z M73.78,99.39c-0.54,0.37-0.93,0.69-1.26,0.73C71.74,100.23,70.96,98.36,73.78,99.39z
		 M66.54,97.42c3.94-0.49,2.89-0.6,3.38-0.04c0.18,0.18-0.54,1.5-3.38,2.32C65.86,99.02,65.76,98.38,66.54,97.42z M68.83,112.53
		c-2.63-3.5,1.28-3.54,2.17-4.66c0.33-1.33-1.21-0.67,7.9-2.45c1.73-0.34-7.06,4.3-7.69,4.92c2.49,0.02,5.54-1.57,6.47-1.57
		C74.8,111.95,70.8,113.72,68.83,112.53z M78.13,116.35c-1.31-0.2-2.03,0.59-3.2,0.89c1.69-2.4,3.83-4.08,6.52-5.1
		C78.08,115.87,78.06,115.79,78.13,116.35z M70.68,116.46c-0.37-1.32,0.43-1.47,8.12-5.15c-1.37,2.21-3.74,3.24-5.74,4.74
		C72.44,116.46,71.51,116.87,70.68,116.46z M74.49,117.42c-0.24,0.19-0.49,0.36-0.82,0.07C73.96,117.49,74.24,117.45,74.49,117.42z
		 M73.07,120.5c1.06-1.98,4.63-2.14,5.17-4.14c1.1,0,1.49,0.05,1.65,0.01C78.5,118.69,74.02,123.35,73.07,120.5z M79.71,119.99
		c-0.23,0.57-0.77,0.64-1.33,0.69C78.54,120.44,79.13,120.01,79.71,119.99z M101.61,128.97c0.1,0,0.21-0.1,0.31-0.1
		C102.66,129.08,101.61,129.63,101.61,128.97z M105.16,128.82c0.26-0.18,0.68-0.16,1.11-0.16
		C106.09,130.25,104.14,129.55,105.16,128.82z M106.32,128.45c0.06-0.17,0.1-0.04,0.26-0.2
		C106.28,128.56,106.27,128.55,106.32,128.45z M131.73,125.25c-3.75,2.8-7.49,1.04-22.24,2.38c-1.35,0-1.16,0.32-1.54-0.11
		c-0.85-0.97-1.72-1.77-3.01-1.85c-3.87,1.08-7.5,6.64-6.34,3.97c1.44-3.33,1.41-2.78,0.93-2.95c-2.39-0.84-4.36,1.06-7.93,2.8
		c-3.67,1.79-5.98-0.22-5.88-0.22c2.59-1.13,5.58-0.93,8.77-3.3c-2.38,0.57-4.35,0.52-6.1-1.13c-0.41,0-2.04,0.95-3.41,0.21
		c0-1.31,1.97-1.55,1.76-3.21c-4.67,1.27-5.54,3.97-4.35,4.45c2.38,1.35,3.6,0.88,0.1,2.28c-4.49-2.02-4.84-2.43-6.52-5.38
		c0.27-0.7,0.76-0.95,1.34-1.14c0.07,0.27,0.13,0.55,0.21,0.83c0.99,0.39,1.87-0.52,2.8-0.63c0.95-0.12,1.12,0.6,2.21,0.23
		c3.06-1.05,0.94-2.9,0.69-3.89c-0.2-0.4-2.31,1.05-3,1.17c-1.16,0.19,2.07-2.46,2.15-2.57c0.99-1.3,0.12-1.8-0.69-1.43
		c-0.6,0.27-1.09,0.87-1.78,0.6c0.26-0.08-0.19-0.44,1.2-1.83c1.81-1.81,0.78-1.6,0.34-4.17c-0.89,0.19-1.58,0.84-2.36,0.73
		c0.25-1.26,1.46-1.67,2.26-2.39c3.65-3.28,3.21-6.29,0.93-7.35c-4.33,0.52-6.96,0.77-10.97,2.48c5.02,1.37,0.92,0.51-0.27,2.77
		c0,0.01,0,0.01,0,0.01c-1.09-0.12-2.17,0.49-3.46-0.4c-2.11-6.36,0.88-3.53,4.14-4.24c4.24-0.92,8.38-2.38,13.55-2.28
		c-2.88-2.52-1.78-6.6-2.86-7.23c-3.46-2.03-7.35-2.93-11.42-4.25c-1.55,0.62-3.31,1.66-5.07,0.31c0-0.24-0.34-1.14,0.31-1.66
		c7.91-0.83,7.37,1.83,9.31,1.24c3.18-0.96,5.18,2.44,6.72,1.24c-1.11-1.4-2.82-1.98-4.02-2.99c-0.91-0.76-0.77-1.08-1.03-1.17
		c-2.75-0.61-5.22-1.32-7.87-0.6c-1.64,0.45-2.82-1.66,0.21-3.31c3.28,0.47,10.67,2.53,10.24-0.93c-0.33-0.19-4.64-3.36-4.75-3.43
		c2.32,0,1.89-0.25,4.75,1.47c1.22,0.73,2.34-0.36,0.72-1.66c-4.48-3.2-6.64-4.24-0.93-4.24c0.83-0.93,1.14-2.28,2.59-2.28
		c1.31,0,2.29,1.73,3.92,1.23c-0.21-0.72-0.31-1.24-0.52-1.97c3.45,0,4.87,0.98,5.19,1.31c0.67-1.33,0.77-0.99,0.29-1.31
		c-0.88-0.6-1.6-0.79-1.45-1.55c1.43-0.78,6.7,2.03,8.9,0.93c0.1,0,0.31,0.41,0.53,0.62c-0.1,0.78-1.27,0.48-1.33,1.38
		c0,0.42,3.94,0.54,5.47,0.18c2.19-2.19,1.85-3.4,6.1-4.35c2.44-0.54,15.66-2.46,20.38-0.83c7.12,2.46,25.1,2.87,30.42,9.31
		c5.37,6.51,9.52,10.96,9.1,18.21C167.69,119.08,141.61,117.89,131.73,125.25z M179.1,107.04c-0.21,0-0.34-0.45-0.62-0.83
		c18.58-6.48,10.73-3.07,14.61-6.95c0.5-0.5,1.61-0.49,1.32-1.63c-1.98-0.94-2.25,1.46-3.52,1.86c-0.1,0.03-21.18,6.41-21.73,6.41
		c-1.05,0,1.47-7.62,1.97-8.69c3.75-8.14-1.49-12.43-5.69-19.76c-1.31-2.29-4.3-6.6-7.03-7.66c-1.87-0.72-4.27-2.2-5.38-2.69
		c10.38-2.08,22.27-8.46,31.24-14.07c3.47,1.86,1.98-0.28,18.21,4.76c0.7,2.81,2.75,0.45,5.17,0.93c0.45,0.09,10.27,1.86,13.55,0.52
		c14.6,5.34,12.8,4.32,14.28,7.45c2.65,5.63,7.23,20.51,6.21,26.59c-1.87,11.14-9.03,20.95-13.82,24.06
		c-3.07,2-7.33,1.59-11.11,1.59c-6.46,0-6.94-2.22-11.17-3.21C199.75,114.37,184.77,108.1,179.1,107.04z M308.21,149.26
		c-21.03,3.73-21.17,3.81-22.45,4.97c-6.17,4.89-23.28,5.68-31.45,5.79c-3.12,0.04-0.97-0.8-7.66-1.24
		c-21.18-1.38-24.15-12.05-34.14-20.48c-9.09-7.68-4.73-5.18-10.24-9.41c-16.36-12.57-24.42-18.11-19.86-16.97
		c6,2.38,12.1,4.14,18,6.72c6.83,3,13.86,5.48,21.62,4.24c1.98,0,4.38,0.59,7.97-2.69c1.41-1.29,7.66-6.12,12-14.79
		c1.35-2.7,2.76-1.3,2.82-13.2c0.04-7.74-4.02-28.3-11.2-31.08c-14.01-5.42-27.39-5.22-33.42-6.72c-13.13-3.28-16.49-0.51-9.65-5.57
		c1.09-0.8,2.15-1.63,3.13-2.61c10.95,0,19.83,4.15,30.31,1.97c10.87-2.26,20.26-3.19,26.38-8.48
		c44.58,9.29,37.29,14.21,69.21,16.04c4.65,15.09,3.91,12.5,3.15,15.36c-0.03,0.15,1.57,5.49,1.61,5.64
		c3.58,9.29,0.36,34.5-1.45,44.28c-2.33,12.59-3.29,12.76-7.35,22.35C314.39,146.13,314.09,148.22,308.21,149.26z M324.97,146.05
		c-0.79,0.19-4.28,0.68-5.07-0.1c-0.2-1.01,2.02-7.04,4.03-14.16c1.12-3.94,1.76-7.96,3.21-11.79c1.96-5.22,2.9-9.86,2.9-18.53
		c2.08,2.77,0.33,2.83,4.03,15.93c1.98,7.01,3.9,12.88,2.18,27.23C336.26,145.42,327.84,145.37,324.97,146.05z M306.91,167.72
		c-0.03,0.01-0.68,0.2-0.68,0.2C306.42,167.43,307.37,167.64,306.91,167.72z M303.35,168.08c0.79,0.1,1.71,0.1,2.51,0.1
		C304.38,169.91,302.97,169.59,303.35,168.08z M300.14,175.22c-0.64-2.57,3.17-1.8,6.82-4.97c0.12,0,1.12-1.21,3.32-0.72
		C305.95,172.92,301.5,177.42,300.14,175.22z M346.28,176.77c-1.14,0.31-1.97,0.41-3-0.31c0-3.09,0.69-2.64,3.93-3.72
		C347.29,174.19,347.19,175.64,346.28,176.77z M358.8,146.76c-0.92,4.37,2.87,4.51-0.93,16.76c-1.74,5.62-1.45,4.51-6.41,6.41
		c-0.72-0.62-0.31-1.66-1.34-1.86c-1.55,0.52-1.45,2.38-2.69,3.31c-3.86,0-3.24,1.29-4.03,0.62c-1.03-1.03,0.41-2.69-1.66-3.21
		c-1.62,2.35-2.39,1.31-16.76,7.55c-1.81,0.79-4.08,1.84-7.76,0.62c3.82-3.82,4.64-1.58,6.83-4.14c2.46-2.88-0.06-0.65,10.35-5.28
		c0.54-0.36,0.46-1.64-1.55-1.24c-11.68,3.54-3.05,2.21-23.28,10.76c-2.36,1-3.24,0.06-4.97-0.52c10.46-10.15,11.3-4.98,19.97-9.93
		c0.85-0.49,1.05-1.01,0.31-1.66c-1.86-0.21-3.31,1.24-5.07,1.24c-2.28-2.17-4.66,0-7.24,0c-2.06-1.03-3.31-0.47-3.31-1.55
		c0.62-1.14,1.76-1.06,2.69-1.14c7.33-0.64,1.56-1.15,9.93-3.52c9.04-2.56,19.38-12.22,17.79-16.14c-1.3-3.21,1.88-9.34-1.86-26.07
		c-1.68-7.52-1.78-3.47-3.72-10.66c-6.87-25.41-8.78-50.12-13.66-54.62c-8.49-2.48-10.79,0.35-26.48-4.76
		c-22.99-7.49-26.54-7.69-42-10.55c-5.68-1.05-7.6-2.12-8.22-1.01c-0.84,1.51,2.37,0.89,2.84,2.57
		c-11.44,3.81-12.89,2.87-22.45,5.59c-2.99,0.85-6.1,0.93-9.1,0.72c-15.25-1.02-15.87-0.76-19.1-1.96c-0.26,0,2.9-3.64,4.35-8.92
		c0.36-1.32,1.4-2.87,1.51-2.98c1.55-3,2.07-6.41,3.1-9.52c-0.34-4.55,3.46-13.52,7.76-17.59c22.9-4.98,31.35,2.49,48.42,2.69
		c0.1,0,28.55,4.43,28.66,4.45c6.87,1.19,22.15,5.18,22.55,5.48c2.57,2.91,4.84,0.96,23.28,9.72c19.66,9.34,12.85,2.68,16.55,21.93
		c1.03,7.92,2.74-0.42,5.07,18.82c2.79,23.06,3.66,22.33,4.14,26.38C362.57,104.56,361.97,131.73,358.8,146.76z M391.17,146.37
		c-13.45-3.66-25.44-1.41-28.39-2.89c-2.24-1.77,6.83-27.28-1.91-77.09c-4.93-28.1-14.06-26.55,1.03-28.66
		c4.04-0.56,7.97-1.55,11.79-3.72c0.86-7.13,24.65-14.83,31.14-16.45c-0.62,1.76-0.01,3.11,0.4,4.56
		c3.86,13.75,2.94,15.79,4.14,17.9c1.2,2.57,0.5,3.59,1.24,9.41c0.68,5.29,1.74,10.25,0.62,16.97c-1.08,41.73-0.82,38.43-1.34,39.31
		c-5.79,3.48-6.85,4.09-9,7.86c2.46-1.43,4.33-3.52,7.24-4.14c0.74,2.66-1.08,14.4-1.55,17.07c-0.35,2.03,1.53,5.12-4.14,21.52
		C398.72,147.09,394.9,147.38,391.17,146.37z M478.55,153.4c-1.84,0.65-4.59-0.35-6.36-0.11c-4.29,0.57-17.68,1.68-23.9-0.72
		c-10.84-4.2-15.73-0.75-23.38-1.86c-18.85-2.75-17.9-2.29-18.31-3.31c5.82-19.63,6.1-36.17,7.14-53.38c0-1.35,1.69-9.32,1.45-16.97
		c-0.36-11.62,0.56-8.92,0.41-14.38c-0.84-32.26-8.87-42.61-7.47-46.18c1.24-2.48,24.11,0.54,44.61-2.54
		c9.78-1.47,32.52,0.7,42.31,1.76c2.07,2.48,3.22,5.17,3.83,7.97c2.16,9.89-0.3,6.39-0.3,12.02c0.62,6.72-0.42,13.45-0.21,20.17
		c0.1,3.21-0.55,6.4-1.86,9.41c-4.18,9.59-4.05,11.7-6.72,12.41c-0.44,0.12-0.64,1.34-0.88,1.33c-1.97-0.05-4.1-1.05-5.75-1.15
		c-3.07-0.19,3.41,1.93,4.25,2.49c1.99,1-3.79,3.32-0.11,4.54c0.83,0.41,1.66-1.55,2.69,0.31c-1.64,0-2.81,0.84-4.03,1.86
		c1.41,1.41,0.99,1.46,1.45,3.41c4.14,17.54,0.6,28.85-2.48,47.17C484.13,142.31,479.08,153.14,478.55,153.4z M774.88,124.7
		c-16.51,4.54-15.87,1.13-34.14,6.52c-2.17,0.64-43.49,9.63-63,13.14c-19.92,3.58-34.62,1.53-36.21,0.93
		c-5.5-1.67-10.72-0.65-15-2.69c-5.56-2.65-31.78,2.72-41.18,4.21c-0.87,0.14-2.46-1.38-4.02-1.42
		c-23.99-0.52-31.14,3.84-42.51,4.87c-32.37,2.95-45.56,2.41-53.29,2.75c-3.3,0.15-1-2.69-0.11-4.52
		c5.25-10.78,2.57-11.29,3.93-15.1c4.35-12.17,5.94-27.08,1.55-40.86c-1.04-3.25-2.01-4.59,1.78-4.1c4.08,0.82,5.56,1.18,7.12,0.69
		c-2.26-1.5-1.49-0.81-4.97-1.97c-3.32-4.74,1.07-2.58,6.75-2.58c3.25,0,5.77-0.24,7.85-0.25c14.35-0.03,39.75,13.79,79.75,13.48
		c5.25-0.04,8.52-0.28,13.86,1.45c21.31,6.9,14.31,4.31,22.04,5.07c4.01,9.52,25.38,1.55,33.31,0.93
		c49.04-3.85,40.28,2.05,67.15,2.27c15.98,0.13,42.93-1.95,48,0.41c-0.83,1.14-2.17,0.31-3,1.34c5.31,0,6.43-0.54,6.62,1.34
		C773.12,114.57,774.57,119.74,774.88,124.7z M776.13,102.39c-1.15,4.02,9.49,0.56-40.76,1.45c-29.72,0.52-33.87-5.2-62.28-4.03
		c-28.58,1.17-30.7,6.25-37.14,5.79c-2.38-2.07-5.38-3.11-8.48-3.93c-24.81-6.57-35.04-8.89-42-8.07
		c-7.28,0.86-51.68-6.22-43.86-8.17c29.88-2.78,22.97-3.06,47.17-2.28c8.78,0.28,16.23,4.04,28.66,3
		c18.17-1.52,11.65-0.41,16.14-1.03c14.46-2,16.61-2.95,20.38-2.07c8.79,2.05,12.39,0.8,23.48,2.07
		c23.05,2.64,28.33-4.44,43.97-5.28c13.71-0.73,11.81,0.27,19.24,0.31c34.13,0.16,34.78-0.59,42.42,0.72
		c1.89,2.36,2.2,4.84,7.76,6.21c17.57,4.32,13.26,0.02,16.76,3.52c0.52,0.62,1.86-0.1,1.86,1.45c-1.98,1.13-5.75,1.21-7.97,1.55
		c-12.09,1.87-6.51,3.75-12.52,5.17c-3.41,0.81-5.79,0.69-7.35,3.21c-0.1,0.21-0.52,0.1-0.72,0.21c-0.62-0.41-0.62-1.34-1.66-1.45
		C778.28,100.99,776.66,101.19,776.13,102.39z M789.16,102.8c-0.68,0.24-1.18,0.17-1.66-0.1
		C788.14,102.38,788.65,102.29,789.16,102.8z M827.96,139.22c-3.09-1.74-8.28-2.35-14.38-5.17c-3.6-1.67-6.09-2-12.72-3.1
		c0-3,3.34-3.47,2.28-18.62c-0.29-4.13-2.51-7.51-4.14-3.72c-2.48,7.14,0.14,19.65-2.79,21.41c-0.31-0.21-0.83-0.41-0.93-0.72
		c-0.37-3.67,1.62-18.03,0.31-21.21c-0.61-2.11-2.73-1.77-3,0.41c-0.37,3.01-1.14,6-1.03,9.1c0.04,1.16,0.11,9.58-1.38,10.5
		c-0.35,0.22-8.63-2.61-11.14-3.98c-0.83-5.28-0.21-10.14,0.93-14.9c3.07-4.09,12.87-1.89,21-5.38c2.25-2.7-1.34-3.06-2.59-3.83
		c4.37-0.26,5.68-2.56,6.34-2.62c11.58-1,7.95-2.75,11.25-1.42c0.71-0.71-0.61-1.37,0-2.28c1.62,0.29,3.33-0.19,4.86,1.14
		c-0.72,0.93-2.59,0.72-2.69,2.69c2.48,2.59,5.48,1.24,8.17,0.62c2.7,0.67,6.31,2.52,12.52,1.03c3.54-0.85,2.64,0.62,5.07,4.03
		C851.94,114.56,840.6,147.65,827.96,139.22z"/>
	<path d="M797.17,84.28c0.02,0,0.04,0,0.06,0C797.1,84.14,797.08,84.18,797.17,84.28z"/>
	<path d="M814.72,79.42c0.39,5.61,3.61,4.03,3.83,2.38C821.04,63.14,813.2,57.86,814.72,79.42z"/>
	<path d="M808.3,70.32c0,6.31-0.72,10.01,2.28,10.24c1.24-0.21,1.86-1.03,1.97-2.07c0.52-5.28,0.31-10.45-1.55-15.31
		C808.58,62.78,808.3,68.07,808.3,70.32z"/>
	<path d="M823.92,81.49c3.54-0.44,2.51-9.47-0.72-12.41C821.23,70.06,820.17,81.96,823.92,81.49z"/>
	<path d="M608.64,355.54l-0.21,0.1C608.57,355.78,608.51,355.8,608.64,355.54z"/>
	<path d="M415.49,450.51l0.1-0.1C415.49,450.37,415.49,450.34,415.49,450.51z"/>
	<path d="M165.96,547.55l0.1-0.1C165.86,547.25,165.96,547.34,165.96,547.55z"/>
	<path d="M142.48,546.51c-0.25,0.04-0.18,0.03-0.1,0.1L142.48,546.51z"/>
	<path d="M92.72,544.55l-0.1-0.1C92.48,544.58,92.38,544.55,92.72,544.55z"/>
	<path d="M71.82,527.89l0.1,0.1C72.03,527.85,72.09,527.93,71.82,527.89z"/>
	<path d="M165.96,125.98l0.1-0.1C165.84,125.87,165.91,125.78,165.96,125.98z"/>
	<path d="M71.09,110.46c0.12-0.17,0.21-0.1-0.1-0.1L71.09,110.46z"/>
	<path d="M573.61,359.12c-0.17,0.09,0.73,1.77,2.34,0.87c2.06-1.15,4.25-2.16,5.9-3.72c6.34-6.03,8.98-8.18,9.52-14.07
		c-4.3,0-9.92,11.95-15.72,13.24C575.14,356.86,574.63,358.2,573.61,359.12z"/>
	<path d="M575.84,334.54c-0.28-0.18-0.39-0.35-0.49-0.39c-0.44-0.44-7.37,2.32-8.1,2.67c-0.63,0.3-1.03,0.93-0.72,1.86
		C569.14,339.62,572.88,336.47,575.84,334.54z"/>
	<path d="M658.61,304.23c-3.31,0.6-6.63,0.83-8.52,4.06C658.23,305.68,658.9,306.16,658.61,304.23z"/>
	<path d="M642.26,312.4c-2.59,0-3.41,0.41-5.69,2.9C639.05,315.71,640.5,314.26,642.26,312.4z"/>
	<path d="M632.33,316.64c-0.91-0.56-1.58-0.66-1.86,0.41C631.17,317.26,631.81,317.16,632.33,316.64z"/>
	<path d="M649.63,308.53c-0.29,0.05-0.56,0.06-0.95,0.16C649.11,308.96,649.3,308.85,649.63,308.53z"/>
	<path d="M650.09,308.28c-0.03,0.01,0.01-0.01-0.27,0.08c-0.33,0.2-0.23,0.18,0.04,0.11C649.94,308.63,649.87,308.61,650.09,308.28z
		"/>
	<path d="M624.26,320.57c0.41,0,0.72-0.1,1.14-0.1C624.78,319.75,624.57,320.06,624.26,320.57z"/>
	<path d="M636.46,315.47c0.27-0.12,0.28-0.06,0.06-0.06C636.33,315.41,636.31,315.57,636.46,315.47z"/>
	<path d="M630.36,317.47c0-0.21,0.05-0.29,0.08-0.31C630.04,317.06,629.73,317.47,630.36,317.47z"/>
	<path d="M630.45,317.16c0,0,0.01,0,0.01,0C630.51,317.16,630.48,317.13,630.45,317.16z"/>
	<path d="M624.23,320.71c-0.11,0.06-0.18,0.18-0.18,0.18C624.47,320.67,624.37,320.64,624.23,320.71z"/>
	<path d="M636.93,539.3c0.1-0.05,0.23,0.22-2.53-3.24c-1.78-1.78-3.98-4.19-7.66-2.79c-3.41,1.71-3.02,1.64-5.47,0.26
		c-8.19-4.62-8.36-4.55-11.08-3.78c-0.71,2.01,2.69,2.14,12.41,6.31c1.18,0.32,5.04-2.18,8.9,1.03c1.24,1.03,2.6,1.83,4.03,2.48
		C635.94,539.77,636.34,539.78,636.93,539.3z"/>
	<path d="M617.12,555.72c-0.24,3.1,6.48,2.57,9.27,1.11C626.6,556.7,620.42,555.37,617.12,555.72z"/>
	<path d="M632.02,556.76c2.17,0.62,4.76-0.1,8.07-2.38C636.87,554.02,634.72,554.9,632.02,556.76z"/>
	<path d="M649.09,542.17c-2.07-1.86-4.66-2.59-7.45-2.79C643.5,541.86,646.3,542.07,649.09,542.17z"/>
	<path d="M605.33,556.14c2.2,0.56,4.17,0.57,6.03,0.31c2.4-0.34,2.1-0.36,2.35-1.34C610.35,554.47,610.25,554.53,605.33,556.14z"/>
	<path d="M759.06,529.55c0.95,0.85,1.13,0.15,6.1-0.72C762.38,527.79,761.82,527.91,759.06,529.55z"/>
	<path d="M664.19,544.65c0.83,1.55,2.07,1.24,3.31,0.93C666.47,544.03,666.47,544.14,664.19,544.65z"/>
	<path d="M680.12,544.65c0.93,0.41,1.66,0.21,2.17-0.72C681.26,543.31,680.75,544.14,680.12,544.65z"/>
	<path d="M752.44,530.38c1.26,0.99,1.88,0.68,3,0.31C754.52,529.77,753.71,530.17,752.44,530.38z"/>
	<path d="M590.84,557.69c-0.7,0.35-0.47,1.3,0.41,0.41C591.26,557.7,591.07,557.6,590.84,557.69z"/>
	<path d="M674.54,545.38c-0.13,0-0.29,0-0.41,0C674.26,545.65,674.15,545.64,674.54,545.38z"/>
	<path d="M594.78,556.96c0.41,0.41,0.72,0.31,1.03-0.1C595.04,556.47,594.95,556.69,594.78,556.96z"/>
	<path d="M445.69,557.89c1.36-2.33-0.05-7.23-0.62-9.83C445.07,555.13,444.93,551.05,445.69,557.89z"/>
	<path d="M459.39,497.7v0.01c0.1-0.05,0.27,0.07,0.07-0.12C459.44,497.62,459.42,497.65,459.39,497.7z"/>
	<path d="M452.09,499.88c-0.13,0.15-0.29,0.46-0.39,0.5c2.32,0,7.07-1.37,7.63-2.54C459.63,497.21,452.27,499.66,452.09,499.88z"/>
	<path d="M434.84,561.82c2.17-2.28,2.48-3.1,2.38-7.35C436.99,555.3,435.5,559.78,434.84,561.82z"/>
	<path d="M418.39,505.24c2.02,0,1.24,0.37,4.76-1.03C421.28,503.27,420.25,504.41,418.39,505.24z"/>
	<path d="M415.7,450.3c0.1,1.91,0.9,3.34,2.47,4.27C418.17,452.95,417.35,451.34,415.7,450.3z"/>
	<path d="M418.18,454.75l0.1-0.1C418.12,454.57,418.18,454.5,418.18,454.75z"/>
	<path d="M402.66,443.48c0.01,1.33,1.2,1.84,2.28,2.48C404.3,444.84,402.66,442.68,402.66,443.48z"/>
	<path d="M402.25,476.99c0.21,0.72,0.52,1.24,1.55,1.03C403.58,477.02,403.29,476.4,402.25,476.99z"/>
	<path d="M460.8,471.51c0.41-0.21-0.1-0.52-0.94-0.52C460.1,471.36,460.41,471.71,460.8,471.51z"/>
	<path d="M395.94,471.82c-0.84,1.68,1.45,1.14,0.62,0.31C396.42,471.9,396.17,471.93,395.94,471.82z"/>
	<path d="M460.08,496.98c-1.51,0.84,0.5,1.01,1.34,0.29C460.91,496.81,460.46,496.77,460.08,496.98z"/>
	<path d="M451.8,500.48c-0.27,0-1.81,0.1-2.17,0.1C450.51,501.29,451.06,500.81,451.8,500.48z"/>
	<path d="M418.67,454.75c-0.5-0.12-0.52,0.48,0.03,1.03C419.43,455.4,418.94,454.84,418.67,454.75z"/>
	<path d="M381.45,447.72c0.1,0,0.21-0.1,0.31-0.1c-0.15,0-0.26,0-0.41,0C381.35,447.87,381.32,447.85,381.45,447.72z"/>
	<path d="M401.63,442.44c0.11,0.5,0.25,0.83,0.81,0.83C402.39,442.81,402.1,442.53,401.63,442.44z"/>
	<path d="M402.43,443.27c0.01,0.03,0.02,0.06,0.02,0.1C402.58,443.24,402.6,443.27,402.43,443.27z"/>
	<path d="M381.35,447.81c-0.07,0.07-0.13,0.13-0.21,0.21C381.31,448.18,381.35,448.06,381.35,447.81z"/>
	<path d="M286.79,520.65c-3.43,1.71,4.61,4.96,3,20.9c-0.21,2.07-0.31,4.03-0.41,6.1C294.71,540.02,292.08,524.81,286.79,520.65z"/>
	<path d="M290.73,507.51c2.46-1.13,2.69-1.43,3.1-4.55C291.55,505.13,291.55,505.13,290.73,507.51z"/>
	<path d="M285.45,561c-0.19,0-0.29,0.41,0,0.41C285.71,561.15,285.65,561.2,285.45,561z"/>
	<path d="M293.93,502.75c-0.05,0-0.07,0.02-0.09,0.05c-0.29,0.38,0.27-0.14,0.23-0.14C294,502.66,293.93,502.67,293.93,502.75z"/>
	<path d="M334.49,452.68c1.24,1.66,2.59,3.21,4.55,4.14C338,450.13,333.05,450.29,334.49,452.68z"/>
	<path d="M341.11,462.53c-0.03-1.64-1.42-3.92-2.2-3.13c-0.1,0.1-0.25,1.07-0.07,1.25c1.38,1.62,0.34,5.06,2.38,5.06
		C340.9,464.7,341.13,463.64,341.11,462.53z"/>
	<path d="M324.04,468.41c0.58-0.56,0.55-1.21,0.1-1.86C323,467.58,323,467.58,324.04,468.41z"/>
	<path d="M323.83,462.2c-0.83,0.31-1.14,0.83-0.52,1.66C324.47,463.65,324.64,463.11,323.83,462.2z"/>
	<path d="M57.54,565.76c1.03-1.55,0.31-3.52,1.24-4.97c-0.3-0.38-0.55-0.65-0.87-0.68C56.8,560.11,54.17,566.48,57.54,565.76z"/>
	<path d="M166.82,546.99c1.2,1.59,3.1,2.32,4.83,2.32C169.58,546.21,166.67,546.77,166.82,546.99z"/>
	<path d="M166.58,546.93c0.21-0.04,0.19,0.03,0.1-0.1L166.58,546.93z"/>
	<path d="M163.57,559.98c1.62,1.14,4.33,1.52,5.8,1.52C167.48,559.43,165.4,560.2,163.57,559.98z"/>
	<path d="M163.56,559.98c-0.22-0.15-0.19-0.18-0.19-0.02C163.37,559.96,163.53,559.98,163.56,559.98z"/>
	<path d="M180.03,554.27c0.93,0.52,1.86,0.41,2.9,0.1C180.96,553.03,180.96,553.03,180.03,554.27z"/>
	<path d="M145.9,547.27c0.35-0.12-2.91-1.82-2.76-1.24c0.04,0.11,0.32,0.87,0.35,0.97C143.72,547.46,144.81,547.79,145.9,547.27z"/>
	<path d="M142.99,545.89c0.04,0,0.1,0.04,0.1,0H142.99z"/>
	<path d="M174.24,551.69c-0.21,1.03-0.21,1.03,0.93,1.03C175.26,552.06,174.78,551.95,174.24,551.69z"/>
	<path d="M163.12,559.84c-1.02-0.94-2.74-0.19-0.04,0H163.12z"/>
	<path d="M163.27,559.96c0.04-0.04,0.07-0.07,0.1-0.1C162.98,559.8,163.14,559.84,163.27,559.96z"/>
	<path d="M71.72,549.83c-0.24-0.24-0.1-0.34-1.14,0C70.96,550.02,70.89,550.65,71.72,549.83z"/>
	<path d="M118.37,504.1c-1.3-2.17-1.56-0.96,0.32-4.36c-0.21-2.28-1.34-3.72-3.62-4.45c0.68-1.25,1.33-2.58,1.66-3.31
		c-1.84-4.6-2.9,0.89-3.83,2.28c-1.52-1.52,0.51-2.74-0.11-4.33c-1.43,0.48-1.25,1.86-1.55,2.79
		C108.75,500.52,117.29,508.33,118.37,504.1z"/>
	<path d="M118.79,523.86c0.52-0.93,1.03-1.76,1.45-2.48c0-1.26-1.19-1.58-1.28-1.4c-3.69,5.38-4.92,3.97-4.92,6.98
		c0,4.08,1.52,7.29,3.72,10.76c0.21-2.95-1.87-4.83-1.55-7.03c1.96,1.64,2.27,4.28,4.55,5.79c0.62-2.37-1.41-3.79-1.41-5.04
		C119.1,530.07,123.6,528.68,118.79,523.86z"/>
	<path d="M148.79,499.03c-2.33,0-0.17,2.13-1.45,5.69c-2.39,6.66,3.76,13.72,2.48,17.17c0.32,0.53,0.58,0.79,0.83,0.9
		c3.01,1.34,0.05-8.56-0.52-19.31C150.05,501.98,149.69,500.23,148.79,499.03z"/>
	<path d="M153.35,500.37c-0.24,3.19,1.26,1.3,2.28,12.41c0.2,2.24-0.93,3.89-0.93,6c0.33-0.33,2.7-1.27,3.12-3.55
		c0-1.95,1.21-6.74-1.69-10.83C155.29,503.36,155.21,501.82,153.35,500.37z"/>
	<path d="M110.2,521.07c0.54-5.01-2.17-2.84-2.17-0.62c-0.35,4.23-0.41,17.02,3,18.83C111.75,537.1,108.6,536.01,110.2,521.07z"/>
	<path d="M109.47,508.04c0.49-2.96-4.14-3.96-4.14-17.29C102.69,494.65,103.75,504.55,109.47,508.04z"/>
	<path d="M138.13,513.82c-0.83,0.31-1.03,0.93-1.14,1.97c-0.21,1.03,1.45,1.45,1.55,2.59c-0.43,1.56-1.81,0.65-2.74,0.99
		c-1.2,0.44,1.07,1.23,1.42,1.28c0.88,0.12,1.6-0.48,2.77-1.97C139.58,516.93,139.99,514.96,138.13,513.82z"/>
	<path d="M113.2,519.82c0.93-0.72,1.97-1.45,3.62-2.59C114.55,517.35,111.25,519.07,113.2,519.82z"/>
	<path d="M105.85,540.72c0.72,1.24,1.66,0.41,2.69,0.62C107.76,539.67,107.73,539.52,105.85,540.72z"/>
	<path d="M138.24,510.31c0.83-1.24,0.83-2.07-0.1-2.9C136.46,508.33,136.32,508.48,138.24,510.31z"/>
	<path d="M119.82,496.86c-0.85,1.59-0.91,2.7,0,4.24C121.01,499.59,120.5,498.54,119.82,496.86z"/>
	<path d="M116.1,507c0.61,0.97,1.1,1.39,2.07,0.72C117.75,506.89,117.23,506.37,116.1,507z"/>
	<path d="M132.86,505.75c1.03,0.31,1.03,0.31,1.86-0.72C133.89,504.62,133.48,505.44,132.86,505.75z"/>
	<path d="M122.41,528.93c0.51-0.51,0.42-0.9,0.1-1.55C121.89,527.89,121.79,528.41,122.41,528.93z"/>
	<path d="M134.41,513.93c0.93,0.72,1.03-0.21,1.34-0.62C134.93,513,134.61,513.41,134.41,513.93z"/>
	<path d="M88.78,489.93c-0.36,0.19-0.42,0.41,0,0.62C90.25,490.91,90.05,489.27,88.78,489.93z"/>
	<path d="M92.92,544.96c0.55,0,1.04-0.21,1.24-0.21C93.54,544.24,93.34,544.65,92.92,544.96z"/>
	<path d="M138.44,505.13c-0.51-0.39-0.93-0.54-1.34,0C137.51,505.55,137.93,505.65,138.44,505.13z"/>
	<path d="M81.23,493.65c0.21,0.1,0.31,0.31,0.52,0.31s0.31-0.21,0.52-0.31C81.81,493.19,82.02,493.65,81.23,493.65z"/>
	<path d="M84.53,491.79c-0.13-0.04-0.87-0.18-0.97-0.18C83.76,492.06,83.97,492.36,84.53,491.79z"/>
	<path d="M82.86,491.2c-0.89,0-0.11,0.14,0.47,0.25C83.32,491.25,83.04,491.2,82.86,491.2z"/>
	<path d="M83.34,491.49c0.1,0.14,0.27,0.19,0.17-0.01C83.38,491.46,83.28,491.42,83.34,491.49z"/>
	<path d="M119.92,515.58c0-0.1,0,0.1-0.1,0.21c0.42,0.42,0.97,0.08,0.52-0.21C120.23,515.48,120.03,515.48,119.92,515.58z"/>
	<path d="M377.52,498.51c-1.86,1.86-1.97,5.17-4.96,5.8c0,3.66,5.79,0.8,7.35-2.59C379.47,500.05,379.25,498.84,377.52,498.51z"/>
	<path d="M393.14,537.31c0.64,1.11,1.3,0.74,2.17,0.31c0.93-0.15,1.47-0.59,1.55-1.55C395.21,535.86,394.28,536.79,393.14,537.31z"
		/>
	<path d="M369.66,504.31c0.64,0.32,1.25,0.51,1.76,0C370.9,503.17,370.9,503.17,369.66,504.31z"/>
	<path d="M401.73,531.1c-0.21,0.1-0.41,0.21-0.62,0.21C401.62,531.93,401.53,531.3,401.73,531.1z"/>
	<path d="M226.91,510.41c-0.31,0.62-1.24,0.83-1.34,1.76c1.02,0.81,1.71,0.42,2.7-0.24c2.17-1.42,2.09,0.21,5.17-0.6
		c3.21-0.84,2.7-0.43,5.77-0.51c1.87-0.04,2.14-1.37,2.04-1.47c-2.86-2.34-6.08-0.71-9.28-0.6c-3.1-0.83-5.69-2.69-8.89-3
		C223.49,508.24,226.08,508.55,226.91,510.41z"/>
	<path d="M199.48,514.96c-1.14,4.45-2.02,9-2.07,13.66c-0.03,2.98,2.35-3.94,2.69-14.17C199.89,514.65,199.48,514.75,199.48,514.96z
		"/>
	<path d="M199.69,486.62c-1.13,4.26,0.42,7.27,0.83,10.45C201.55,493.75,200.2,490.65,199.69,486.62z"/>
	<path d="M203.1,505.24c-2.24-0.53-3.08-0.18-6.21,2.07C200.41,507.51,201.24,507.31,203.1,505.24z"/>
	<path d="M174.55,493.34c-1.55,0.21-2.9,0.93-4.35,2.38C172.38,495.72,173.62,494.89,174.55,493.34z"/>
	<path d="M194.41,516.41c-1.34-0.41-2.07,0-2.79,1.34C193.1,517.98,193.91,517.81,194.41,516.41z"/>
	<path d="M219.55,503.69c0.1-1.14,0.1-1.14-1.34-1.97C218.51,502.93,218.65,502.78,219.55,503.69z"/>
	<path d="M223.27,514.55c-0.24,0.35-0.43,0.6-0.6,0.81C221.3,517.07,224.02,516.77,223.27,514.55z"/>
	<path d="M200.82,512.38c-0.65,0.65-0.83,0.82-0.83,1.97C200.86,513.77,200.58,513.48,200.82,512.38z"/>
	<path d="M195.24,495.62c-1.03-0.66-2.21-0.58-2.11-0.43C193.67,495.98,194.32,495.87,195.24,495.62z"/>
	<path d="M192.86,494.89c0,0.1,0.1,0.21,0.1,0.31C192.96,495,192.86,494.89,192.86,494.89z"/>
	<path d="M807.37,525.1c-3.52,3.08-2.51,18.82-1.76,20.38c1.06,2.21,4.45,0.59,4.45-1.97C810.32,540,811.23,525.78,807.37,525.1z"/>
	<path d="M814.92,526.65c-2.49,0.83-4.14,15.56-2.28,17.79C817.89,550.7,820.13,525.3,814.92,526.65z"/>
	<path d="M835.93,533.78c-0.12,4.15,0.55,12.04,4.45,13.55c0.89-1.61-0.25-2.01-0.9-4.85c-0.35-1.55-0.44-3.28-0.44-4.86
		c0-8.95,2.79-6.27,2.28-10.35c0.28-0.61,0.85-0.86,1.3-1.32c0.99-1.01,0.13-2.03-0.99-1.47
		C838.2,526.65,836.04,529.76,835.93,533.78z"/>
	<path d="M822.17,527.99c-2.07,4.03-1.82,7.96-1.34,11.9c0.11,0.93,0.83,1.55,1.76,1.66C826.83,542.01,826.45,530.25,822.17,527.99z
		"/>
	<path d="M764.13,238.43c1.05-0.84,1.41-0.24-13.24-18.83c-0.52-0.52-0.93-1.34-2.79-1.24
		C749.31,220.09,761.65,237.61,764.13,238.43z"/>
	<path d="M71.91,528.47c-0.28,0.08-0.59,0.17-0.93,0.25C71.4,528.93,71.68,528.82,71.91,528.47z"/>
	<path d="M72.03,528.31c-0.03,0.05-0.07,0.11-0.11,0.17C72.18,528.39,72.16,528.44,72.03,528.31z"/>
	<path d="M636.92,120.93c0.15,0-2.57-3.58-4.08-4.99c-3.34-3.13-6.67-0.92-9.72,0.1c-2.84-1.79-13.27-8.43-13.1-4.41
		c0.07,1.56,1.56,1.32,12.89,5.96c8.57-1.71,6.84,1.14,13.04,3.62C636.15,121.31,636.45,121.12,636.92,120.93z"/>
	<path d="M537.26,96.39c0.63,1.14,12.86,2.09,20.48,5.9C554.83,98.41,544.95,92.69,537.26,96.39z"/>
	<path d="M617.85,136.84c-3.04,2.43,4.35,3.03,8.48,2.17C624.65,136.77,620.82,137.83,617.85,136.84z"/>
	<path d="M608.02,136.53c-1.1,0.14-1.58-0.11-2.28,0.93c4.48,1.54,8.79-0.31,8.07-1.03C613.31,135.92,613.68,135.81,608.02,136.53z"
		/>
	<path d="M649.81,123.8c-2.38-1.76-5.07-3-8.07-3C643.71,123.6,646.92,123.39,649.81,123.8z"/>
	<path d="M632.23,138.08c2.69,0.52,4.86-0.83,7.66-1.76C637.19,135.39,637.09,135.39,632.23,138.08z"/>
	<path d="M758.65,110.77c2.57,0.58,4.28,0.09,6.62-1.14C762.68,108.91,760.92,109.73,758.65,110.77z"/>
	<path d="M667.61,126.6c-0.83-0.93-1.86-1.03-3.52-1.03C665.22,127.21,665.21,127.22,667.61,126.6z"/>
	<path d="M752.65,112.42c1.24,0.41,2.07,0.31,2.79-0.83C754.4,111.18,753.47,111.18,752.65,112.42z"/>
	<path d="M679.61,126.29c1.55,0.21,2.17-0.21,2.69-0.83C681.37,124.84,680.75,125.56,679.61,126.29z"/>
	<path d="M594.89,138.18c0.32,0.63,0.08,0.84,0.93,0.41C595.41,137.92,595.69,137.76,594.89,138.18z"/>
	<path d="M501.46,89.66c-0.52-0.52-1.14-0.21-1.66-0.52C500.22,89.56,500.74,89.77,501.46,89.66z"/>
	<path d="M591.26,139.53c-0.21-0.1-0.41-0.21-0.62-0.21C590.37,139.32,590.33,139.99,591.26,139.53z"/>
	<path d="M557.84,102.49c0-0.1,0-0.1,0-0.31C557.74,102.29,557.84,102.39,557.84,102.49z"/>
	<path d="M621.05,51.39c1.76,0.61,6.34,0.42,8.17,0.31c9-0.52,9.12,1.55,11.9,1.55c1.14-0.95-4.72-6.75-12.31-4.66
		c-1.97,0.41-4.35,0.1-5.9,1.97c-4.67-3.43-8.93-4.3-13.76-3.93c-0.58,0-1.05,0.55-1.14,1.14
		C608.61,50.13,611.28,47.99,621.05,51.39z"/>
	<path d="M637.5,67.53c3.59,0,5.52-0.31,7.24,0.72c3.93-1.45,7.86-2.69,11.17-4.97c-4.14,0.21-7.66,1.97-11.48,3.1
		C642.26,66.49,639.67,64.53,637.5,67.53z"/>
	<path d="M623.33,67.32c-0.3,0.5-0.5,0.89-0.69,1.19c-1,2.01,7.96,4.1,13.73-0.36C631.6,67.42,627.36,68.66,623.33,67.32z"/>
	<path d="M551.12,78.08c-2.38-1.14-2.38-1.14-7.03-0.93C547.08,78.91,548.01,79.01,551.12,78.08z"/>
	<path d="M774.99,74.04c-1.57-1.67-3.19-1.54-5.48-1.34C771.68,74.25,773.13,74.46,774.99,74.04z"/>
	<path d="M671.01,61.42c-1.89-1.35-2.98-0.1-4.02-0.1C666.27,63.46,667.87,62.47,671.01,61.42z"/>
	<path d="M681.37,60.8c-0.32-0.61-0.7-0.52-1.14,0C680.64,61.11,680.95,61.11,681.37,60.8z"/>
	<path d="M529.91,73.84c-0.42-0.3-0.83-0.4-1.24-0.1C528.98,74.35,529.39,74.04,529.91,73.84z"/>
	<path d="M658.81,62.46c-0.13-0.04-0.06-0.02-0.31-0.1C658.5,62.62,658.42,62.59,658.81,62.46z"/>
	<path d="M765.16,72.18c0.12,0,0.29,0,0.41,0C765.58,72.04,765.66,72.06,765.16,72.18z"/>
	<path d="M480.87,82.84c-6.18,2.23-8.3,0.06-12.72,3.93c-3.01,2.63-5.14,4.76-7.86,6.41c5.07-0.72,8.9-3.31,12.1-7.24
		c6.42-0.66,6.99,0.18,12.1-2.38C483.83,81.56,482.24,82.34,480.87,82.84z"/>
	<path d="M449.84,104.04c3.93-2.59,3.93-2.59,5.07-4.77C451.94,99.91,451.42,100.73,449.84,104.04z"/>
	<path d="M444.97,103.42c0,1.68-0.07,1.45,0.21,1.45C445.18,103.16,445.5,103.42,444.97,103.42z"/>
	<path d="M449.42,104.46c0.59,0,0.34-0.31,0.52-0.31C449.59,104.08,449.42,104.11,449.42,104.46z"/>
	<path d="M482.32,77.77l-0.1-0.1C482.35,77.92,482.32,77.91,482.32,77.77z"/>
	<path d="M286.17,102.7c-1.38,1.99,5.39,6.69,3.52,21.21c-0.2,1.55-0.21,3.31-0.31,4.97C296.11,123.53,289.87,99.53,286.17,102.7z"
		/>
	<path d="M290.42,88.32c1.13,2.26,3.53-1.92,3.93-4.97C292.94,84.54,290.42,88.22,290.42,88.32z"/>
	<path d="M284.93,142.53c0.04-0.01,0.56-0.1,0.72-0.1C285.15,141.7,285.25,142.43,284.93,142.53z"/>
	<path d="M285.04,142.63C285.14,142.43,284.73,142.94,285.04,142.63L285.04,142.63z"/>
	<path d="M333.87,32.46c1.03,3.1,3.1,4.55,5.07,6.31C338.83,35.04,337.49,33.28,333.87,32.46z"/>
	<path d="M338.69,41.21c-0.01,0.81,0.93,2.03,1.18,3.04c0.45,1.35-0.37,3.4,1.24,3c-0.04-0.6,0.05-1.95,0.05-2.71
		C341.16,40.91,338.71,39.77,338.69,41.21z"/>
	<path d="M324.14,49.63c0.52-0.62,0.52-1.24-0.1-1.86C323,48.9,323,48.9,324.14,49.63z"/>
	<path d="M324.26,44.15c0-0.07-0.4-0.29-0.52-0.41c-0.86,0.21-0.82,1.24-0.11,1.24C324.16,44.97,324.36,44.52,324.26,44.15z"/>
	<path d="M371.82,85.73c0.27,0,0.18-0.06,0.16-0.12C371.94,85.48,371.94,85.51,371.82,85.73z"/>
	<path d="M377.02,80.46c-0.75,1.31-1.75,4.74-4.93,5.23c-0.12,0,0.41,0.87,0.48,0.97c1.4,1.4,2.15,0.86,3.93,0
		c1.54-0.75,1.66-0.93,3.32-3.31C379.95,80.89,377.73,79.04,377.02,80.46z"/>
	<path d="M409.9,62.04c-1.76-1.86-1.76-1.86-8.17-4.24C403.51,60.52,408.63,64.59,409.9,62.04z"/>
	<path d="M392.32,119.67c1.95,0.08,3.31-0.36,4.35-1.97C395.26,117.56,393.92,117.93,392.32,119.67z"/>
	<path d="M371.79,85.57c0.02,0.02,0.03,0.04,0.04,0.06C371.99,85.47,371.96,85.53,371.79,85.57z"/>
	<path d="M369.87,85.11c0.5,0.8,0.53,0.83,1.93,0.44C371.33,84.84,371.03,84.53,369.87,85.11z"/>
	<path d="M385.9,44.97c-0.24,0-0.18,0.54,0.06,0.66c0.35,0.18,0.39,0.48,0.49-0.08C386.51,45.21,386.23,45.03,385.9,44.97z"/>
	<path d="M396.13,53.25c-0.76,0.08-0.13,0.86,0.01,0.72c0.21,0,0.33-0.32,0.52-0.41C396.29,53.19,396.4,53.25,396.13,53.25z"/>
	<path d="M57.55,146.95c0.91-1.75,0.4-3.7,1.44-5.56c-0.56,0-0.95-0.04-1.18-0.04c-0.64,0-1.68,2.62-1.92,4.28
		C55.74,146.62,57.55,147.05,57.55,146.95z"/>
	<path d="M162.83,141.35c2.03,0.36,3.59,1.83,6.45,0.98C164.27,140.79,161.51,141.12,162.83,141.35z"/>
	<path d="M167.62,128.67c0.77,1.53,2.57,2.04,4.14,2.59C170.71,128.89,170.74,128.87,167.62,128.67z"/>
	<path d="M179.82,135.08c1.14,0.83,1.14,0.83,3,0.31C181.79,134.56,180.86,134.56,179.82,135.08z"/>
	<path d="M71.3,131.77c0.67-0.66,0.15-1.11-0.41-0.83C70.25,131.58,70.83,132.08,71.3,131.77z"/>
	<path d="M175.48,134.46c-0.31-0.93-0.31-0.93-1.86-1.34C174.13,134.25,174.65,134.67,175.48,134.46z"/>
	<path d="M165.03,125.98c0,0.48,0.27,0.77,0.7,0.89C165.69,126.28,165.41,126.07,165.03,125.98z"/>
	<path d="M167.51,128.67c0-0.61-0.44-0.69-0.8-0.87C166.8,127.97,166.79,128.48,167.51,128.67z"/>
	<path d="M165.82,126.95c1.88,1.88,0.48-0.09-0.07-0.09C165.77,127.01,165.71,127.05,165.82,126.95z"/>
	<path d="M118.27,85.73c0.11-0.85-1.03-1.59-1.03-2.28c-0.16-1.25,4.05-2.19-2.03-7c-0.18-0.18,1.41-2.69,1.52-3.03
		c-1.83-4.79-3.18,1.21-3.83,1.86c-1.44-1.32,0.81-2.82-0.32-4.35C106.69,79.68,116.92,89.79,118.27,85.73z"/>
	<path d="M117.44,118.11l0.1-0.1C117.4,118.01,117.47,118.02,117.44,118.11z"/>
	<path d="M118.68,105.39c1.37-2.46,2.13-3.26,0.1-3.93c-4.22,5.27-4.84,4.35-4.86,6.1c-0.13,9.27,5.39,13.09,3.1,8.59
		c-0.19-0.79-0.52-1.55-0.31-2.38c-0.78-0.3-0.97-0.71-0.31-1.45c0.31,0.41,0.41,0.93,0.31,1.45c1.55,0,1.84,3.07,3.72,3.93
		c0.5,0,0.77-0.47,0.41-1.34c-1.73-4.3-2.23-2.99,0.1-6.1C121.27,108.18,120.34,106.63,118.68,105.39z"/>
	<path d="M148.48,80.25c-0.31,0.38-0.62,0.64-0.62,0.71c0.3,4.84-2.16,6.17-0.41,12.62c0.48,1.77,1.04,3.72,1.86,5.28
		c0.94,1.77,0.1,3.7,1.03,5.39c3.31,0.41-0.06-7.61-0.31-19.45C150,83.35,149.72,81.8,148.48,80.25z"/>
	<path d="M152.93,82.84c2.44,3.88,3.71,12.89,0.83,17.9c3.02-1.81,3.83-2.67,4.03-4.76c0.71-7.25-0.36-7.23-3.31-13.14
		C154.4,82.19,153.51,82.48,152.93,82.84z"/>
	<path d="M110.1,102.49c0.65-4.54-1.99-4.15-2.28,0.41c-0.27,4.29-0.13,16.24,3.21,17.79C111.93,117.1,108.78,120.89,110.1,102.49z"
		/>
	<path d="M109.02,89.21c0.25,0.05,0.59,0.12,1.08,0.25c-3.41-5.69-5.17-11.17-4.86-16.97C102.44,70.25,103.97,88.15,109.02,89.21z"
		/>
	<path d="M138.05,95.17c-0.04-0.04-0.46,0.69-0.49,0.73c-1.67,2.87,3.27,4.83-1.09,4.83c-0.52-0.1-1.03-0.21-1.55,0.21
		c2.07,1.76,2.48,1.66,4.97-0.62C139.89,98.21,139.79,96.45,138.05,95.17z"/>
	<path d="M138.42,86.72c0.18-0.46-0.81-0.95-1.43-0.98c-3.7-0.18-4.63,1.99-3.5,1.9c0.94-0.07,1.61-1.18,2.67-1.18
		C137.86,87.02,138.2,87.28,138.42,86.72z"/>
	<path d="M120.37,81.83c0.5-0.37,0.23-1.06-0.34-4.07C118.41,80.88,119.44,82.53,120.37,81.83z"/>
	<path d="M138.24,91.64c0.75-1.07,0.91-2.01-0.1-2.91C136.37,89.76,136.38,89.87,138.24,91.64z"/>
	<path d="M112.27,101.15c2.28-0.93,2.28-0.93,3.62-2.28C114.34,98.87,113.41,99.6,112.27,101.15z"/>
	<path d="M105.23,122.05c1.28,0.67,2.17,0.77,3.52,0C107.47,121.23,106.45,121.31,105.23,122.05z"/>
	<path d="M122.3,110.46c0.93-0.62,0.31-1.34,0-1.97C121.87,110.21,121.9,109.25,122.3,110.46z"/>
	<path d="M135.44,94.11c-0.52,0.21-1.03,0.41-1.03,1.14c0.21,0.1,0.31,0.41,0.52,0.41C135.75,95.67,136.09,94.11,135.44,94.11z"/>
	<path d="M80.41,74.77c0.62,0.31,1.03,0.62,1.66,0.93C81.85,74.66,81.85,74.66,80.41,74.77z"/>
	<path d="M88.89,71.66c0.97,0.39,1.13-0.23,1.48-0.81C89.46,70.86,89.11,70.79,88.89,71.66z"/>
	<path d="M90.44,70.73l-0.07,0.11C90.61,70.85,90.56,70.85,90.44,70.73z"/>
	<path d="M116.3,88.63c0.5,1.01,1.1,0.55,2.17,0.21C116.58,88.04,117.16,88.35,116.3,88.63z"/>
	<path d="M83.71,73.22c0-0.1,0-0.21,0.1-0.31c-0.1,0-0.31-0.1-0.41-0.1C82.89,72.94,82.84,73.22,83.71,73.22z"/>
	<path d="M117.75,118.32c0-0.1-0.1-0.21-0.1-0.31C117.65,118.17,117.64,118.32,117.75,118.32z"/>
	<path d="M116.1,98.67l-0.31,0.1C115.92,98.91,115.84,98.92,116.1,98.67z"/>
	<path d="M226.91,91.54c-0.52,0.72-0.93,1.34-1.34,1.97c0.21,0.21,0.31,0.41,0.41,0.41c2.05-0.36,4.09-1.26,6.11-1.22
		c2.25,0.04,1.32-0.64,4.5-0.57c3.56,0.08,3.42,0,4.48-0.7c0.07-0.87-0.2-1.29-0.93-1.55c-4.7-1.69-5.73,1.93-11.9-1.03
		c-1.54-0.74-3.21-1.24-4.66-1.76C222.4,88.27,223.74,88.37,226.91,91.54z"/>
	<path d="M197.41,112.01c1.8-3.6,0.93-4.87,3.41-18.1C198.22,96.72,197.29,108.71,197.41,112.01z"/>
	<path d="M199.49,68.65c-0.7,3.52,0.42,6.45,1.14,9.93C201.25,75.27,200.73,72.07,199.49,68.65z"/>
	<path d="M196.17,89.04c2.79,0.1,4.97-0.52,7.45-2.28C201.24,86.04,199.79,86.46,196.17,89.04z"/>
	<path d="M173.72,75.18c-1.24,0.1-2.28,0.72-3.41,1.76C172.69,76.53,172.69,76.53,173.72,75.18z"/>
	<path d="M192.46,76.53c1.24,0.31,1.55,1.45,2.69,0.62C194.39,76.3,193.72,76.06,192.46,76.53z"/>
	<path d="M218.52,83.04c-0.14,0.55-0.08,1.03,0.31,1.55C219.92,86.23,220.58,83.24,218.52,83.04z"/>
	<path d="M222.76,97.73c0.74,0,1.03-1.35,0.33-1.18C222.88,96.61,222.01,97.49,222.76,97.73z"/>
	<path d="M189.34,90.6c0.34-0.16,0.24-0.12,0.41-0.21C189.24,90.39,189.34,90.32,189.34,90.6z"/>
	<path d="M218.41,83.15c0-0.1-0.14-0.47-0.05-0.22C218.39,82.98,218.41,83.05,218.41,83.15z"/>
	<path d="M173.93,74.87c-0.05,0.05-0.09,0.09-0.14,0.12C174.1,74.87,174.32,74.87,173.93,74.87z"/>
	<path d="M173.79,75c-0.06,0.02-0.12,0.05-0.17,0.08C173.67,75.08,173.73,75.04,173.79,75z"/>
	<path d="M807.58,106.42c-3.7,2.67-2.81,17.07-1.76,20.69c1.16,1.16,2.97,0.47,3.62-0.83C810.7,123.77,811.51,109.05,807.58,106.42z
		"/>
	<path d="M811.82,123.6c0.04,3.5,3.63,3.78,4.24,1.86C822.21,106.22,811.55,99.02,811.82,123.6z"/>
	<path d="M840.97,109.39c-1.92-1.85-3.88,0.54-4.42,2.93c-2.31,10.2,3.67,19.56,4.23,15.5c0.18-1.26-1.95-1.1-1.66-11.74
		C839.76,111.08,842.43,110.8,840.97,109.39z"/>
	<path d="M823.05,109.7c-0.38-0.07-0.73-0.16-0.78-0.18c0,1.01-2.77,2.03-1.44,12.41C827,128.11,826.37,110.31,823.05,109.7z"/>
	<path d="M70.89,110.36c0.1,0,0.21-0.1,0.31-0.1C71.09,110.25,70.99,110.36,70.89,110.36z"/>
<path fill="#e6e6e6" d="m206.8 163.6c0-5.1 4.1-9.2 9.3-9.2s9.2 4.2 9.2 9.2-4.1 9.2-9.3 9.2-9.2-4.1-9.2-9.2zm17.3-.1c0-4.5-3.5-8.2-8.2-8.2s-8.2 3.7-8.2 8.3c0 4.5 3.5 8.2 8.2 8.2s8.2-3.7 8.2-8.3zm-13 0c0-2.8 2.1-5.1 5.1-5.1 1.9 0 2.9.6 3.9 1.5l-1.4 1.7c-.8-.7-1.5-1.1-2.5-1.1-1.7 0-2.8 1.4-2.8 3.1s1.1 3 2.8 3c1.1 0 1.7-.5 2.5-1.1l1.4 1.4c-1.1 1.1-2.1 1.7-4 1.7-2.9 0-5-2.3-5-5.1z"/><path fill="#e6e6e6" d="m226.6 154.7h3.4l4.2 13.2 4.4-13.3h2.6l4.4 13.3 4.2-13.2h3.3l-6.2 18h-2.7l-4.4-12.8-4.4 12.8h-2.7z"/><path fill="#e6e6e6" d="m252.8 165.8c0-3.9 3.1-7 7.2-7 4.2 0 7.2 3.2 7.2 7s-3.1 7-7.3 7c-4 0-7.1-3.1-7.1-7zm11.3 0c0-2.3-1.7-4.3-4.2-4.3s-4.1 2-4.1 4.3 1.7 4.3 4.1 4.3c2.7.1 4.2-1.9 4.2-4.3z"/><path fill="#e6e6e6" d="m269.5 159.1h3.1v3c.8-2 2.4-3.4 4.8-3.3v3.2h-.2c-2.7 0-4.6 1.7-4.6 5.4v5.1h-3.1z"/><path fill="#e6e6e6" d="m279.1 153.9h3.1v11.1l5.6-6h3.8l-5.4 5.5 5.5 8h-3.5l-4.1-5.8-1.9 2v3.9h-3.1z"/><path fill="#e6e6e6" d="m291.7 165.8c0-3.9 3.1-7 7.2-7 4.2 0 7.2 3.2 7.2 7s-3.1 7-7.3 7c-4 0-7.1-3.1-7.1-7zm11.3 0c0-2.3-1.7-4.3-4.2-4.3s-4.1 2-4.1 4.3 1.7 4.3 4.1 4.3c2.6.1 4.2-1.9 4.2-4.3z"/><path fill="#e6e6e6" d="m308.2 167.6v-8.6h3.1v7.6c0 2.1 1.1 3.3 2.9 3.3s3-1.3 3-3.3v-7.6h3.1v13.4h-3.1v-2.1c-.8 1.3-2.1 2.3-4.2 2.3-3.1.2-4.8-1.8-4.8-5z"/><path fill="#e6e6e6" d="m323.9 168.8v-7.1h-1.7v-2.6h1.7v-3.7h3.1v3.7h3.6v2.6h-3.6v6.6c0 1.2.6 1.7 1.7 1.7.7 0 1.3-.2 1.9-.5v2.5c-.8.5-1.7.7-2.8.7-2.3 0-3.9-.9-3.9-3.9z"/><path fill="#e6e6e6" d="m333.2 154.7h3.2v15h9.4v2.9h-12.5v-17.9z"/><path fill="#e6e6e6" d="m356 172.5v-1.7c-.9 1.1-2.3 2-4.4 2-2.6 0-4.8-1.4-4.8-4.2 0-3 2.3-4.4 5.4-4.4 1.7 0 2.6.2 3.7.5v-.2c0-1.9-1.2-2.9-3.3-2.9-1.5 0-2.6.3-3.9.8l-.8-2.5c1.5-.7 2.9-1.1 5.1-1.1 4 0 5.9 2.1 5.9 5.7v8zm.1-5.6c-.8-.3-1.9-.5-3.1-.5-2 0-3.1.8-3.1 2.1s1.1 2 2.6 2c2 0 3.5-1.1 3.5-2.9z"/><path fill="#e6e6e6" d="m364.9 170.5v2.1h-3.1v-18.7h3.1v7.4c1-1.4 2.4-2.5 4.5-2.5 3.2 0 6.3 2.5 6.3 7s-3.1 7-6.3 7c-2.1 0-3.5-1.1-4.5-2.3zm7.7-4.7c0-2.6-1.7-4.3-3.9-4.3s-3.9 1.7-3.9 4.4c0 2.6 1.8 4.3 3.9 4.3s3.9-1.7 3.9-4.4z"/><path fill="#e6e6e6" d="m376.9 170.8 1.4-2.1c1.4 1.1 3 1.7 4.4 1.7s2.1-.5 2.1-1.5-1.3-1.4-2.8-1.8c-.1 0-.2-.1-.2-.1-2-.6-4.2-1.4-4.2-4s2.1-4.1 4.8-4.1c1.7 0 3.5.6 5 1.5l-1.2 2.2c-1.3-.8-2.6-1.3-3.8-1.3s-1.9.5-1.9 1.4 1.3 1.4 2.8 1.8c.1 0 .2.1.2.1 2 .6 4.2 1.5 4.2 4 0 2.9-2.2 4.2-5 4.2-1.9 0-4-.7-5.8-2z"/><path fill="#e6e6e6" d="m505.6 163.6c0-5.1 4.1-9.2 9.3-9.2s9.2 4.2 9.2 9.2-4.1 9.2-9.3 9.2-9.2-4.1-9.2-9.2zm17.4-.1c0-4.5-3.5-8.2-8.2-8.2s-8.2 3.7-8.2 8.3c0 4.5 3.5 8.2 8.2 8.2s8.2-3.7 8.2-8.3zm-13.1 0c0-2.8 2.1-5.1 5.1-5.1 1.9 0 2.9.6 3.9 1.5l-1.4 1.7c-.8-.7-1.5-1.1-2.5-1.1-1.7 0-2.8 1.4-2.8 3.1s1.1 3 2.8 3c1.1 0 1.7-.5 2.5-1.1l1.4 1.4c-1.1 1.1-2.1 1.7-4 1.7-2.9 0-5-2.3-5-5.1z"/><path fill="#e6e6e6" d="m525.4 154.7h3.4l4.2 13.2 4.4-13.3h2.6l4.4 13.3 4.2-13.2h3.3l-6.2 18h-2.7l-4.4-12.8-4.4 12.8h-2.7z"/><path fill="#e6e6e6" d="m551.7 165.8c0-3.9 3.1-7 7.2-7 4.2 0 7.2 3.2 7.2 7s-3.1 7-7.3 7c-4.1 0-7.1-3.1-7.1-7zm11.2 0c0-2.3-1.7-4.3-4.2-4.3s-4.1 2-4.1 4.3 1.7 4.3 4.1 4.3c2.7.1 4.2-1.9 4.2-4.3z"/><path fill="#e6e6e6" d="m568.3 159.1h3.1v3c.8-2 2.4-3.4 4.8-3.3v3.2h-.2c-2.7 0-4.6 1.7-4.6 5.4v5.1h-3.1z"/><path fill="#e6e6e6" d="m577.9 153.9h3.1v11.1l5.6-6h3.8l-5.4 5.5 5.5 8h-3.5l-4.1-5.8-1.9 2v3.9h-3.1z"/><path fill="#e6e6e6" d="m590.6 165.8c0-3.9 3.1-7 7.2-7 4.2 0 7.2 3.2 7.2 7s-3.1 7-7.3 7c-4.1 0-7.1-3.1-7.1-7zm11.2 0c0-2.3-1.7-4.3-4.2-4.3s-4.1 2-4.1 4.3 1.7 4.3 4.1 4.3c2.6.1 4.2-1.9 4.2-4.3z"/><path fill="#e6e6e6" d="m607 167.6v-8.6h3.1v7.6c0 2.1 1.1 3.3 2.9 3.3s3-1.3 3-3.3v-7.6h3.1v13.4h-3.1v-2.1c-.8 1.3-2.1 2.3-4.2 2.3-3 .2-4.8-1.8-4.8-5z"/><path fill="#e6e6e6" d="m622.7 168.8v-7.1h-1.7v-2.6h1.7v-3.7h3.1v3.7h3.6v2.6h-3.6v6.6c0 1.2.6 1.7 1.7 1.7.7 0 1.3-.2 1.9-.5v2.5c-.8.5-1.7.7-2.8.7-2.3 0-3.9-.9-3.9-3.9z"/><path fill="#e6e6e6" d="m632 154.7h3.2v15h9.4v2.9h-12.6z"/><path fill="#e6e6e6" d="m654.8 172.5v-1.7c-.9 1.1-2.3 2-4.4 2-2.6 0-4.8-1.4-4.8-4.2 0-3 2.3-4.4 5.4-4.4 1.7 0 2.6.2 3.7.5v-.2c0-1.9-1.2-2.9-3.3-2.9-1.5 0-2.6.3-3.9.8l-.8-2.5c1.5-.7 2.9-1.1 5.1-1.1 4 0 5.9 2.1 5.9 5.7v8zm.1-5.6c-.8-.3-1.9-.5-3.1-.5-2 0-3.1.8-3.1 2.1s1.1 2 2.6 2c2 0 3.5-1.1 3.5-2.9z"/><path fill="#e6e6e6" d="m663.7 170.5v2.1h-3.1v-18.7h3.1v7.4c1-1.4 2.4-2.5 4.5-2.5 3.2 0 6.3 2.5 6.3 7s-3.1 7-6.3 7c-2.1 0-3.5-1.1-4.5-2.3zm7.8-4.7c0-2.6-1.7-4.3-3.9-4.3-2.1 0-3.9 1.7-3.9 4.4 0 2.6 1.8 4.3 3.9 4.3s3.9-1.7 3.9-4.4z"/><path fill="#e6e6e6" d="m675.8 170.8 1.4-2.1c1.4 1.1 3 1.7 4.4 1.7s2.1-.5 2.1-1.5-1.3-1.4-2.8-1.8c-.1 0-.2-.1-.2-.1-2-.6-4.2-1.4-4.2-4s2.1-4.1 4.8-4.1c1.7 0 3.5.6 5 1.5l-1.2 2.2c-1.3-.8-2.6-1.3-3.8-1.3s-1.9.5-1.9 1.4 1.3 1.4 2.8 1.8c.1 0 .2.1.2.1 2 .6 4.2 1.5 4.2 4 0 2.9-2.2 4.2-5 4.2-2 0-4.1-.7-5.8-2z"/><path fill="#e6e6e6" d="m61 298.6c0-5.1 4.1-9.2 9.3-9.2s9.2 4.2 9.2 9.2-4.1 9.2-9.3 9.2c-5.1 0-9.2-4.2-9.2-9.2zm17.4-.1c0-4.5-3.5-8.2-8.2-8.2s-8.2 3.7-8.2 8.3c0 4.5 3.5 8.2 8.2 8.2s8.2-3.7 8.2-8.3zm-13.1-.1c0-2.8 2.1-5.1 5.1-5.1 1.9 0 2.9.6 3.9 1.5l-1.4 1.7c-.8-.7-1.5-1.1-2.5-1.1-1.7 0-2.8 1.4-2.8 3.1s1.1 3 2.8 3c1.1 0 1.7-.5 2.5-1.1l1.4 1.4c-1.1 1.1-2.1 1.7-4 1.7-2.8.1-5-2.2-5-5.1z"/><path fill="#e6e6e6" d="m80.9 289.7h3.4l4.2 13.2 4.4-13.3h2.6l4.4 13.3 4.2-13.2h3.3l-6.2 18h-2.7l-4.4-12.8-4.4 12.8h-2.7z"/><path fill="#e6e6e6" d="m107.1 300.8c0-3.9 3.1-7 7.2-7s7.2 3.2 7.2 7-3.1 7-7.3 7c-4 0-7.1-3.1-7.1-7zm11.3 0c0-2.3-1.7-4.3-4.2-4.3s-4.1 2-4.1 4.3 1.7 4.3 4.1 4.3c2.6.1 4.2-1.9 4.2-4.3z"/><path fill="#e6e6e6" d="m123.7 294h3.1v3c.8-2 2.4-3.4 4.8-3.3v3.2h-.2c-2.7 0-4.6 1.7-4.6 5.4v5.1h-3.1z"/><path fill="#e6e6e6" d="m133.4 288.9h3.1v11.1l5.6-6h3.8l-5.4 5.5 5.5 8h-3.5l-4.1-5.8-1.9 1.9v3.9h-3.1z"/><path fill="#e6e6e6" d="m146 300.8c0-3.9 3.1-7 7.2-7s7.2 3.2 7.2 7-3.1 7-7.3 7c-4.1 0-7.1-3.1-7.1-7zm11.2 0c0-2.3-1.7-4.3-4.2-4.3s-4.1 2-4.1 4.3 1.7 4.3 4.1 4.3c2.6.1 4.2-1.9 4.2-4.3z"/><path fill="#e6e6e6" d="m162.4 302.6v-8.6h3.1v7.6c0 2.1 1.1 3.3 2.9 3.3s3-1.3 3-3.3v-7.6h3.1v13.4h-3.1v-2.1c-.8 1.3-2.1 2.3-4.2 2.3-3 .2-4.8-1.8-4.8-5z"/><path fill="#e6e6e6" d="m178.1 303.8v-7.1h-1.7v-2.7h1.7v-3.7h3.1v3.7h3.6v2.6h-3.6v6.6c0 1.2.6 1.7 1.7 1.7.7 0 1.3-.2 1.9-.5v2.5c-.8.5-1.7.7-2.8.7-2.3.1-3.9-.9-3.9-3.8z"/><path fill="#e6e6e6" d="m187.4 289.7h3.2v15h9.4v2.9h-12.5v-17.9z"/><path fill="#e6e6e6" d="m210.2 307.5v-1.7c-.9 1.1-2.3 2-4.4 2-2.6 0-4.8-1.4-4.8-4.2 0-3 2.3-4.4 5.4-4.4 1.7 0 2.6.2 3.7.5v-.2c0-1.9-1.2-2.9-3.3-2.9-1.5 0-2.6.3-3.9.8l-.8-2.5c1.5-.7 2.9-1.1 5.1-1.1 4 0 5.9 2.1 5.9 5.7v8zm.1-5.6c-.8-.3-1.9-.5-3.1-.5-2 0-3.1.8-3.1 2.1s1.1 2 2.6 2c2 0 3.5-1.1 3.5-2.9z"/><path fill="#e6e6e6" d="m219.2 305.5v2.1h-3.1v-18.7h3.1v7.4c1-1.4 2.4-2.5 4.5-2.5 3.2 0 6.3 2.5 6.3 7s-3.1 7-6.3 7c-2.2 0-3.6-1.1-4.5-2.3zm7.7-4.7c0-2.6-1.7-4.3-3.9-4.3s-3.9 1.7-3.9 4.4c0 2.6 1.8 4.3 3.9 4.3s3.9-1.7 3.9-4.4z"/><path fill="#e6e6e6" d="m231.2 305.8 1.4-2.1c1.4 1.1 3 1.7 4.4 1.7s2.1-.5 2.1-1.5-1.3-1.4-2.8-1.8c-.1 0-.2-.1-.2-.1-2-.6-4.2-1.4-4.2-4s2.1-4.1 4.8-4.1c1.7 0 3.5.6 5 1.5l-1.2 2.2c-1.3-.8-2.6-1.3-3.8-1.3s-1.9.5-1.9 1.4 1.3 1.4 2.8 1.8c.1 0 .2.1.2.1 2 .6 4.2 1.5 4.2 4 0 2.9-2.2 4.2-5 4.2-2 0-4.1-.7-5.8-2z"/><path fill="#e6e6e6" d="m360.6 298.6c0-5.1 4.1-9.2 9.3-9.2s9.2 4.2 9.2 9.2-4.1 9.2-9.3 9.2-9.2-4.2-9.2-9.2zm17.4-.1c0-4.5-3.5-8.2-8.2-8.2s-8.2 3.7-8.2 8.3c0 4.5 3.5 8.2 8.2 8.2s8.2-3.7 8.2-8.3zm-13.1-.1c0-2.8 2.1-5.1 5.1-5.1 1.9 0 2.9.6 3.9 1.5l-1.4 1.7c-.8-.7-1.5-1.1-2.5-1.1-1.7 0-2.8 1.4-2.8 3.1s1.1 3 2.8 3c1.1 0 1.7-.5 2.5-1.1l1.4 1.4c-1.1 1.1-2.1 1.7-4 1.7-2.8.1-5-2.2-5-5.1z"/><path fill="#e6e6e6" d="m380.5 289.7h3.4l4.2 13.2 4.4-13.3h2.6l4.4 13.3 4.2-13.2h3.3l-6.2 18h-2.7l-4.4-12.8-4.4 12.8h-2.7z"/><path fill="#e6e6e6" d="m406.7 300.8c0-3.9 3.1-7 7.2-7 4.2 0 7.2 3.2 7.2 7s-3.1 7-7.3 7c-4.1 0-7.1-3.1-7.1-7zm11.3 0c0-2.3-1.7-4.3-4.2-4.3s-4.1 2-4.1 4.3 1.7 4.3 4.1 4.3c2.7.1 4.2-1.9 4.2-4.3z"/><path fill="#e6e6e6" d="m423.3 294h3.1v3c.8-2 2.4-3.4 4.8-3.3v3.2h-.2c-2.7 0-4.6 1.7-4.6 5.4v5.1h-3.1z"/><path fill="#e6e6e6" d="m433 288.9h3.1v11.1l5.6-6h3.8l-5.4 5.5 5.5 8h-3.5l-4.1-5.8-1.9 2v3.9h-3.1z"/><path fill="#e6e6e6" d="m445.6 300.8c0-3.9 3.1-7 7.2-7 4.2 0 7.2 3.2 7.2 7s-3.1 7-7.3 7c-4.1 0-7.1-3.1-7.1-7zm11.3 0c0-2.3-1.7-4.3-4.2-4.3s-4.1 2-4.1 4.3 1.7 4.3 4.1 4.3c2.6.1 4.2-1.9 4.2-4.3z"/><path fill="#e6e6e6" d="m462.1 302.6v-8.6h3.1v7.6c0 2.1 1.1 3.3 2.9 3.3s3-1.3 3-3.3v-7.6h3.1v13.4h-3.1v-2.1c-.8 1.3-2.1 2.3-4.2 2.3-3.1.2-4.8-1.8-4.8-5z"/><path fill="#e6e6e6" d="m477.8 303.8v-7.1h-1.8v-2.7h1.7v-3.7h3.1v3.7h3.6v2.6h-3.6v6.6c0 1.2.6 1.7 1.7 1.7.7 0 1.3-.2 1.9-.5v2.5c-.8.5-1.7.7-2.8.7-2.2.1-3.8-.9-3.8-3.8z"/><path fill="#e6e6e6" d="m487.1 289.7h3.2v15h9.4v2.9h-12.5v-17.9z"/><path fill="#e6e6e6" d="m509.9 307.5v-1.7c-.9 1.1-2.3 2-4.4 2-2.6 0-4.8-1.4-4.8-4.2 0-3 2.3-4.4 5.4-4.4 1.7 0 2.6.2 3.7.5v-.2c0-1.9-1.2-2.9-3.3-2.9-1.5 0-2.6.3-3.9.8l-.8-2.5c1.5-.7 2.9-1.1 5.1-1.1 4 0 5.9 2.1 5.9 5.7v8zm.1-5.6c-.8-.3-1.9-.5-3.1-.5-2 0-3.1.8-3.1 2.1s1.1 2 2.6 2c2 0 3.5-1.1 3.5-2.9z"/><path fill="#e6e6e6" d="m518.8 305.5v2.1h-3.1v-18.7h3.1v7.4c1-1.4 2.4-2.5 4.5-2.5 3.2 0 6.3 2.5 6.3 7s-3.1 7-6.3 7c-2.2 0-3.5-1.1-4.5-2.3zm7.7-4.7c0-2.6-1.7-4.3-3.9-4.3s-3.9 1.7-3.9 4.4c0 2.6 1.8 4.3 3.9 4.3s3.9-1.7 3.9-4.4z"/><path fill="#e6e6e6" d="m530.8 305.8 1.4-2.1c1.4 1.1 3 1.7 4.4 1.7s2.1-.5 2.1-1.5-1.3-1.4-2.8-1.8c-.1 0-.2-.1-.2-.1-2-.6-4.2-1.4-4.2-4s2.1-4.1 4.8-4.1c1.7 0 3.5.6 5 1.5l-1.2 2.2c-1.3-.8-2.6-1.3-3.8-1.3s-1.9.5-1.9 1.4 1.3 1.4 2.8 1.8c.1 0 .2.1.2.1 2 .6 4.2 1.5 4.2 4 0 2.9-2.2 4.2-5 4.2-1.9 0-4.1-.7-5.8-2z"/><path fill="#e6e6e6" d="m659.5 298.6c0-5.1 4.1-9.2 9.3-9.2s9.2 4.2 9.2 9.2-4.1 9.2-9.3 9.2-9.2-4.2-9.2-9.2zm17.3-.1c0-4.5-3.5-8.2-8.2-8.2s-8.2 3.7-8.2 8.3c0 4.5 3.5 8.2 8.2 8.2 4.8 0 8.2-3.7 8.2-8.3zm-13-.1c0-2.8 2.1-5.1 5.1-5.1 1.9 0 2.9.6 3.9 1.5l-1.4 1.7c-.8-.7-1.5-1.1-2.5-1.1-1.7 0-2.8 1.4-2.8 3.1s1.1 3 2.8 3c1.1 0 1.7-.5 2.5-1.1l1.4 1.4c-1.1 1.1-2.1 1.7-4 1.7-2.9.1-5-2.2-5-5.1z"/><path fill="#e6e6e6" d="m679.3 289.7h3.4l4.2 13.2 4.4-13.3h2.6l4.4 13.3 4.2-13.2h3.3l-6.2 18h-2.6l-4.4-12.8-4.4 12.8h-2.7z"/><path fill="#e6e6e6" d="m705.5 300.8c0-3.9 3.1-7 7.2-7 4.2 0 7.2 3.2 7.2 7s-3.1 7-7.3 7c-4 0-7.1-3.1-7.1-7zm11.3 0c0-2.3-1.7-4.3-4.2-4.3s-4.1 2-4.1 4.3 1.7 4.3 4.1 4.3c2.7.1 4.2-1.9 4.2-4.3z"/><path fill="#e6e6e6" d="m722.1 294h3.1v3c.8-2 2.4-3.4 4.8-3.3v3.2h-.2c-2.7 0-4.6 1.7-4.6 5.4v5.1h-3.1z"/><path fill="#e6e6e6" d="m731.8 288.9h3.1v11.1l5.6-6h3.8l-5.4 5.5 5.5 8h-3.5l-4.1-5.8-1.9 2v3.9h-3.1z"/><path fill="#e6e6e6" d="m744.4 300.8c0-3.9 3.1-7 7.2-7 4.2 0 7.2 3.2 7.2 7s-3.1 7-7.3 7c-4.1 0-7.1-3.1-7.1-7zm11.3 0c0-2.3-1.7-4.3-4.2-4.3s-4.1 2-4.1 4.3 1.7 4.3 4.1 4.3c2.6.1 4.2-1.9 4.2-4.3z"/><path fill="#e6e6e6" d="m760.9 302.6v-8.6h3.1v7.6c0 2.1 1.1 3.3 2.9 3.3s3-1.3 3-3.3v-7.6h3.1v13.4h-3.1v-2.1c-.8 1.3-2.1 2.3-4.2 2.3-3.1.2-4.8-1.8-4.8-5z"/><path fill="#e6e6e6" d="m776.6 303.8v-7.1h-1.7v-2.7h1.7v-3.7h3.1v3.7h3.6v2.6h-3.6v6.6c0 1.2.6 1.7 1.7 1.7.7 0 1.3-.2 1.9-.5v2.5c-.8.5-1.7.7-2.8.7-2.3.1-3.9-.9-3.9-3.8z"/><path fill="#e6e6e6" d="m785.9 289.7h3.2v15h9.4v2.9h-12.5v-17.9z"/><path fill="#e6e6e6" d="m808.7 307.5v-1.7c-.9 1.1-2.3 2-4.4 2-2.6 0-4.8-1.4-4.8-4.2 0-3 2.3-4.4 5.4-4.4 1.7 0 2.6.2 3.7.5v-.2c0-1.9-1.2-2.9-3.3-2.9-1.5 0-2.6.3-3.9.8l-.8-2.5c1.5-.7 2.9-1.1 5.1-1.1 4 0 5.9 2.1 5.9 5.7v8zm.1-5.6c-.8-.3-1.9-.5-3.1-.5-2 0-3.1.8-3.1 2.1s1.1 2 2.6 2c2 0 3.5-1.1 3.5-2.9z"/><path fill="#e6e6e6" d="m817.6 305.5v2.1h-3.1v-18.7h3.1v7.4c1-1.4 2.4-2.5 4.5-2.5 3.2 0 6.3 2.5 6.3 7s-3.1 7-6.3 7c-2.1 0-3.5-1.1-4.5-2.3zm7.7-4.7c0-2.6-1.7-4.3-3.9-4.3-2.1 0-3.9 1.7-3.9 4.4 0 2.6 1.8 4.3 3.9 4.3 2.2 0 3.9-1.7 3.9-4.4z"/><path fill="#e6e6e6" d="m829.6 305.8 1.4-2.1c1.4 1.1 3 1.7 4.4 1.7s2.1-.5 2.1-1.5-1.3-1.4-2.8-1.8c-.1 0-.2-.1-.2-.1-2-.6-4.2-1.4-4.2-4s2.1-4.1 4.8-4.1c1.7 0 3.5.6 5 1.5l-1.2 2.2c-1.3-.8-2.6-1.3-3.8-1.3s-1.9.5-1.9 1.4 1.3 1.4 2.8 1.8c.1 0 .2.1.2.1 2 .6 4.2 1.5 4.2 4 0 2.9-2.2 4.2-5 4.2-1.9 0-4-.7-5.8-2z"/><path fill="#e6e6e6" d="m206.3 434.2c0-5.1 4.1-9.2 9.3-9.2s9.2 4.2 9.2 9.2-4.1 9.2-9.3 9.2-9.2-4.1-9.2-9.2zm17.4-.1c0-4.5-3.5-8.2-8.2-8.2s-8.2 3.7-8.2 8.3c0 4.5 3.5 8.2 8.2 8.2s8.2-3.7 8.2-8.3zm-13.1-.1c0-2.8 2.1-5.1 5.1-5.1 1.9 0 2.9.6 3.9 1.5l-1.4 1.7c-.8-.7-1.5-1.1-2.5-1.1-1.7 0-2.8 1.4-2.8 3.1s1.1 3 2.8 3c1.1 0 1.7-.5 2.5-1.1l1.4 1.4c-1.1 1.1-2.1 1.7-4 1.7-2.9.1-5-2.2-5-5.1z"/><path fill="#e6e6e6" d="m226.1 425.3h3.4l4.2 13.2 4.4-13.3h2.6l4.4 13.3 4.2-13.2h3.3l-6.2 18h-2.7l-4.4-12.8-4.4 12.8h-2.7z"/><path fill="#e6e6e6" d="m252.4 436.4c0-3.9 3.1-7 7.2-7 4.2 0 7.2 3.2 7.2 7s-3.1 7-7.3 7c-4.1 0-7.1-3.1-7.1-7zm11.2 0c0-2.3-1.7-4.3-4.2-4.3s-4.1 2-4.1 4.3 1.7 4.3 4.1 4.3c2.7.1 4.2-1.9 4.2-4.3z"/><path fill="#e6e6e6" d="m269 429.7h3.1v3c.8-2 2.4-3.4 4.8-3.3v3.2h-.2c-2.7 0-4.6 1.7-4.6 5.4v5.1h-3.1z"/><path fill="#e6e6e6" d="m278.6 424.5h3.1v11.1l5.6-6h3.8l-5.4 5.5 5.5 8h-3.5l-4.1-5.8-1.9 2v3.9h-3.1z"/><path fill="#e6e6e6" d="m291.3 436.4c0-3.9 3.1-7 7.2-7 4.2 0 7.2 3.2 7.2 7s-3.1 7-7.3 7c-4.1 0-7.1-3.1-7.1-7zm11.2 0c0-2.3-1.7-4.3-4.2-4.3s-4.1 2-4.1 4.3 1.7 4.3 4.1 4.3c2.6.1 4.2-1.9 4.2-4.3z"/><path fill="#e6e6e6" d="m307.7 438.2v-8.6h3.1v7.6c0 2.1 1.1 3.3 2.9 3.3s3-1.3 3-3.3v-7.6h3.1v13.4h-3.1v-2.1c-.8 1.3-2.1 2.3-4.2 2.3-3 .2-4.8-1.8-4.8-5z"/><path fill="#e6e6e6" d="m323.4 439.4v-7.1h-1.7v-2.6h1.7v-3.7h3.1v3.7h3.6v2.6h-3.6v6.6c0 1.2.6 1.7 1.7 1.7.7 0 1.3-.2 1.9-.5v2.5c-.8.5-1.7.7-2.8.7-2.3 0-3.9-.9-3.9-3.9z"/><path fill="#e6e6e6" d="m332.7 425.3h3.2v15h9.4v2.9h-12.5v-17.9z"/><path fill="#e6e6e6" d="m355.5 443.1v-1.7c-.9 1.1-2.3 2-4.4 2-2.6 0-4.8-1.4-4.8-4.2 0-3 2.3-4.4 5.4-4.4 1.7 0 2.6.2 3.7.5v-.2c0-1.9-1.2-2.9-3.3-2.9-1.5 0-2.6.3-3.9.8l-.8-2.5c1.5-.7 2.9-1.1 5.1-1.1 4 0 5.9 2.1 5.9 5.7v8zm.1-5.6c-.8-.3-1.9-.5-3.1-.5-2 0-3.1.8-3.1 2.1s1.1 2 2.6 2c2 0 3.5-1.1 3.5-2.9z"/><path fill="#e6e6e6" d="m364.4 441.1v2.1h-3.1v-18.7h3.1v7.4c1-1.4 2.4-2.5 4.5-2.5 3.2 0 6.3 2.5 6.3 7s-3.1 7-6.3 7c-2.1 0-3.5-1.1-4.5-2.3zm7.7-4.7c0-2.6-1.7-4.3-3.9-4.3-2.1 0-3.9 1.7-3.9 4.4 0 2.6 1.8 4.3 3.9 4.3 2.2 0 3.9-1.7 3.9-4.4z"/><path fill="#e6e6e6" d="m376.5 441.4 1.4-2.1c1.4 1.1 3 1.7 4.4 1.7s2.1-.5 2.1-1.5-1.3-1.4-2.8-1.8c-.1 0-.2-.1-.2-.1-2-.6-4.2-1.4-4.2-4s2.1-4.1 4.8-4.1c1.7 0 3.5.6 5 1.5l-1.2 2.2c-1.3-.8-2.6-1.3-3.8-1.3s-1.9.5-1.9 1.4 1.3 1.4 2.8 1.8c.1 0 .2.1.2.1 2 .6 4.2 1.5 4.2 4 0 2.9-2.2 4.2-5 4.2-2 0-4.1-.7-5.8-2z"/><path fill="#e6e6e6" d="m505.1 434.2c0-5.1 4.1-9.2 9.3-9.2s9.2 4.2 9.2 9.2-4.1 9.2-9.3 9.2-9.2-4.1-9.2-9.2zm17.4-.1c0-4.5-3.5-8.2-8.2-8.2s-8.2 3.7-8.2 8.3c0 4.5 3.5 8.2 8.2 8.2s8.2-3.7 8.2-8.3zm-13.1-.1c0-2.8 2.1-5.1 5.1-5.1 1.9 0 2.9.6 3.9 1.5l-1.4 1.7c-.8-.7-1.5-1.1-2.5-1.1-1.7 0-2.8 1.4-2.8 3.1s1.1 3 2.8 3c1.1 0 1.7-.5 2.5-1.1l1.4 1.4c-1.1 1.1-2.1 1.7-4 1.7-2.9.1-5-2.2-5-5.1z"/><path fill="#e6e6e6" d="m525 425.3h3.4l4.2 13.2 4.4-13.3h2.6l4.4 13.3 4.2-13.2h3.3l-6.2 18h-2.7l-4.4-12.8-4.4 12.8h-2.7z"/><path fill="#e6e6e6" d="m551.2 436.4c0-3.9 3.1-7 7.2-7 4.2 0 7.2 3.2 7.2 7s-3.1 7-7.3 7c-4.1 0-7.1-3.1-7.1-7zm11.2 0c0-2.3-1.7-4.3-4.2-4.3s-4.1 2-4.1 4.3 1.7 4.3 4.1 4.3c2.7.1 4.2-1.9 4.2-4.3z"/><path fill="#e6e6e6" d="m567.8 429.7h3.1v3c.8-2 2.4-3.4 4.8-3.3v3.2h-.2c-2.7 0-4.6 1.7-4.6 5.4v5.1h-3.1z"/><path fill="#e6e6e6" d="m577.5 424.5h3.1v11.1l5.6-6h3.8l-5.4 5.5 5.5 8h-3.5l-4.1-5.8-1.9 2v3.9h-3.1z"/><path fill="#e6e6e6" d="m590.1 436.4c0-3.9 3.1-7 7.2-7 4.2 0 7.2 3.2 7.2 7s-3.1 7-7.3 7c-4.1 0-7.1-3.1-7.1-7zm11.2 0c0-2.3-1.7-4.3-4.2-4.3s-4.1 2-4.1 4.3 1.7 4.3 4.1 4.3c2.6.1 4.2-1.9 4.2-4.3z"/><path fill="#e6e6e6" d="m606.5 438.2v-8.6h3.1v7.6c0 2.1 1.1 3.3 2.9 3.3s3-1.3 3-3.3v-7.6h3.1v13.4h-3.1v-2.1c-.8 1.3-2.1 2.3-4.2 2.3-3 .2-4.8-1.8-4.8-5z"/><path fill="#e6e6e6" d="m622.2 439.4v-7.1h-1.7v-2.6h1.7v-3.7h3.1v3.7h3.6v2.6h-3.6v6.6c0 1.2.6 1.7 1.7 1.7.7 0 1.3-.2 1.9-.5v2.5c-.8.5-1.7.7-2.8.7-2.3 0-3.9-.9-3.9-3.9z"/><path fill="#e6e6e6" d="m631.5 425.3h3.2v15h9.4v2.9h-12.5v-17.9z"/><path fill="#e6e6e6" d="m654.3 443.1v-1.7c-.9 1.1-2.3 2-4.4 2-2.6 0-4.8-1.4-4.8-4.2 0-3 2.3-4.4 5.4-4.4 1.7 0 2.6.2 3.7.5v-.2c0-1.9-1.2-2.9-3.3-2.9-1.5 0-2.6.3-3.9.8l-.8-2.5c1.5-.7 2.9-1.1 5.1-1.1 4 0 5.9 2.1 5.9 5.7v8zm.1-5.6c-.8-.3-1.9-.5-3.1-.5-2 0-3.1.8-3.1 2.1s1.1 2 2.6 2c2 0 3.5-1.1 3.5-2.9z"/><path fill="#e6e6e6" d="m663.3 441.1v2.1h-3.1v-18.7h3.1v7.4c1-1.4 2.4-2.5 4.5-2.5 3.2 0 6.3 2.5 6.3 7s-3.1 7-6.3 7c-2.2 0-3.6-1.1-4.5-2.3zm7.7-4.7c0-2.6-1.7-4.3-3.9-4.3s-3.9 1.7-3.9 4.4c0 2.6 1.8 4.3 3.9 4.3s3.9-1.7 3.9-4.4z"/><path fill="#e6e6e6" d="m675.3 441.4 1.4-2.1c1.4 1.1 3 1.7 4.4 1.7s2.1-.5 2.1-1.5-1.3-1.4-2.8-1.8c-.1 0-.2-.1-.2-.1-2-.6-4.2-1.4-4.2-4s2.1-4.1 4.8-4.1c1.7 0 3.5.6 5 1.5l-1.2 2.2c-1.3-.8-2.6-1.3-3.8-1.3s-1.9.5-1.9 1.4 1.3 1.4 2.8 1.8c.1 0 .2.1.2.1 2 .6 4.2 1.5 4.2 4 0 2.9-2.2 4.2-5 4.2-2 0-4.1-.7-5.8-2z"/></g>
</svg>
