<?xml version="1.0" encoding="utf-8"?>
<!-- Generator: Adobe Illustrator 23.0.1, SVG Export Plug-In . SVG Version: 6.00 Build 0)  -->
<svg version="1.2" baseProfile="tiny" id="Layer_1" xmlns="http://www.w3.org/2000/svg" xmlns:xlink="http://www.w3.org/1999/xlink"
	 x="0px" y="0px" viewBox="0 0 900 600" xml:space="preserve">
<g>
	<path d="M492.4,587.45c-16.21-2.89-11.71-5.26-29.83-7.46c-1.14-0.21-2.07-0.62-2.9-1.24c-1.76,0.83-3.21,0-5.18-0.72
		c3.43-2.49,5.61-2.95,6.73-6.63c1.18-3.85,8.58-10.14,8.49-21.96c-0.04-5.32,2.05-16.37,0.62-23.92
		c-2.55-13.5-4.34-9.68-6.94-20.51c-2.99-12.47-1.28-15.2-3.21-16.78c2.04-5.43,2.85-7.84,1.97-10.77
		c-5.94-19.69-3.74-6.52-2.28-3.21c4.95,11.24-8.43,15.02-0.31,30.34c1.04,1.96,1.97,4.04,1.97,6.11
		c9.51,7.61,8.11,70.31-17.09,65.14c-23.51-4.83-25.16-5.47-32.93-4.97c-3.9,0.25-7.81-1.68-14.81-2.69
		c-7.07-1.03-7.11-3.81-14.71-5.39c-0.31-0.1-0.52-0.41-0.31-0.83c0.83-0.52,1.24,0.72,1.97,0.41c1.14-0.21,1.24-1.86,2.69-1.97
		c2.91,0.7,6.02,0.53,9.12,0.42c-3.07-1.58-8.11-1.07-9.43-2.39c-0.93-3-3.42-5.59-4.04-9.22c5.17-1.85,6.45-2.07,7.56-3.83
		c0.69-1.1,2.07-1.53,2.54-2.88c-2.68,0.33-3.43,3.82-6.89,4.23c-1.14,0.13-1.86,0.93-2.9,1.14c-1.35-2.69-1.98-5.28-2.28-7.97
		c-1.01-9.05-10.37-7.53-9.11-20.82c0.35-1.75-1.3-1.87-1.55-0.41c-0.74,4.33,0.13,11.42,5.07,16.36c1.61,1.61,2.69,2.33,2.69,6.11
		c-1.22,1.22-1.93,0.97-0.31,10.87c3.48,21.23,9.03,1.55-46.6,6.42c-0.05-0.01-12.18-6.35-15.85-7.46
		c-2.48-0.75-4.97-2.07-7.25-3.31c0.41-1.76,2.17-3,1.24-5.07c-2.28,0.83-3.73,2.59-5.49,4.14c-4.25-1.45-8.7-1.97-13.05-2.59
		c0-4.56-3.83-6.52-5.9-9.42c0-4.63,2.25-2.33,7.35-12.53c0.7-1.23,0.88-3.53-0.83-3.31c-1.38,3.88-6.11,8.55-6.11,12.85
		c-0.26-0.79-1.4,1.44-3.11,1.34c-15.24-9.52-35.06-9.21-53.02,0.62c-2.97,1.62-5.91,2.18-3.52-0.21c7.47-6.15,11.8-9.19,14.6-13.98
		c4.33-7.4,45.66-30.52,56.03-13.67c1.62,0.51,28.84-0.29,29-0.31c14.49-1.66,27.53,2.93,39.25,3.21c1.08,0.03,1.27,1.03,0.83,1.45
		c-1.22,1.17-3.42,0.1-4.66,1.86c1.76,1.97,4.48-0.03,5.7,1.14c1.59,1.52,1.76,3.31,3.42,3.94c6.79-1.81-7.48-10.78,5.8-17.81
		c29.02,15.77,7.89,1.25,0-1.04c-1.05-4.21-0.93-3.42-0.62-4.04c0.43-0.31,3.55-0.12,2.8-2.38c-0.56-2.25-2.42-5.1-1.14-8.91
		c1.8-5.38-0.15-11.44,3.73-19.57c-0.02-0.11-1.58-11.19-1.66-14.6c-0.13-5.81,0.93-5.3,2.38-5.59c1.28-5.13-1.43-11.13,0.93-17.3
		c-3.26-20.19-5.03-16.71,10.98-19.06c1.42-0.35,0.1,1.55,23.51,1.55c4.76,2.69,10.25,2.8,15.22,4.14c2.07,0.94,0.58,2.87,4.25,1.04
		c1.54,4.61,0.15,4.2,15.43,21.75c2.62,2.62,4.07,12.01,5.9,13.98c0.31-1.97,0-3.73,0.72-5.18c1.13-0.68,1.45-0.89,1.45-2.49
		c0-8.62,6.56-19.28,2.69-20.51c-7.54-2.39-15.83-2.78-18.54-3.83c-1.35-1.97-0.83-4.56-1.97-6.63c-1.66-1.86-4.14-0.62-6.73-1.66
		c1.35-0.1,2.38,0.62,3-0.52c0.21-3.62-0.52-7.15-1.86-10.15c-1.49-54.95,7.74-27.85,12.01-65.25c2.81-24.54-10.43-62.03-8.91-80.99
		c0.45-5.58,1.29-9.98,1.24-13.26c-0.01-0.35,0.47,0.22,1.66-0.72c7.06-6.83,11.4-7.01,13.57-10.05
		c5.16-7.23,11.11-8.67,12.12-10.87c1.02-3.38-3.21-5.72,1.24-6.84c2.77-0.69,0.92-3.57-6.21-15.53c-1.01-1.7-1.89-2.55-9.84-11.5
		c-9.51-10.7-17.83-9.32-20.71-14.08c-4.93-8.17-23.5-21.61-25.68-22.68c-11.07-5.45-30.65-8.68-30.65,3.31
		c0,5.53,7.04,9.09,12.32,15.43c4.08,4.89,1.84,5.83,4.87,10.56c2.59,4.04,1.54,4.72,0.52,5.49c-2.25,1.12-2.97-5.72-3.11-6.52
		c-3.47,0-1.72-1.6-4.97-3.42c-9.08-5.07-4.91-8.2-5.07-11.91c-3.73,1.35-4.35,3.52-2.38,8.08c0.83,0.72,1.86,1.45,2.9,2.28
		c0.85,3.42,4.84,4.11,7.66,9.53c5.87,11.27,6.89,12.25,7.25,17.5c0,11.83,6.46,21.18,6.01,25.27c-0.12,1.09,1.41,4.5,3,8.29
		c5.13,2.28,1.7,0.19,1.86,16.78c0.01,1.1-2.35,8.64-6.11,31.07c-2.37,14.14-0.58,10.74-2.28,20.09
		c-5.99,33.06-1.26,32.97-6.63,40.39c-2.75,3.8-0.71,4.67-3.42,10.77c-17.93,40.33-6.94,35.73-9.53,48.78
		c-1.27,6.4-0.94,18.88,0.93,27.44c-2.07,5.39-0.83,10.77-0.62,16.26c-4.19,3.2-1.93,14.71-1.35,21.75
		c-1.84,4.92-5.05,20.21-3.52,25.17c0.69,4.16-3.12,1.48-2.07,8.29c-2.07,3.31-5.49,5.18-6.63,8.8c-9.39,0.49-2.79-0.1-12.84-1.55
		c-25.68-3.71-0.88-3.29-53.34,0.21c-5.78-4.92-7.99-3.88-10.05-6.63c-3.72-1.63-5.91-0.41-11.91-0.41
		c-7.46,0-10.81,3.75-21.54,7.87c-13.93,5.35-15.41,9.91-22.99,12.95c-7.99,3.2-8.63,4.25-12.12,4.25c-9.29,0-9.32-0.73-12.12,0
		c-10.1,2.64-12.06-2.03-13.67-0.41c0,2.16,7.02,3.49,9.94,3.21c12.07-1.15,14.79,1.36,19.16-1.35c0.41-0.21,0.83-0.41,1.35-0.41
		c8.28-0.69,15.85-8.1-0.62,6.94c-5.29,4.83-3.17,5.5-6.42,9.22c-7.46,8.54-13.01,22.08-9.42,32.83c1.36,4.08-4.33-4.2-17.3-0.1
		c-0.72-0.41-0.83-1.35-1.97-1.45c-1.92,0.96-2.16,1.14-5.07,1.14c-1.24-1.86-3.52-0.62-4.97-1.66c-1.21-6.24,3.99-9.64-0.31-13.77
		c0.31-0.21,0.41-0.42,0.62-0.52c1.13-0.54,2.28-0.83,3.42-1.24c6.19-6.01,3.83-8.74,3.83-8.08c-1.24,1.66-2.38,3.31-3.62,5.07
		c-9.74,4.1-2.62,2.99-6.84,5.8c1.39,1.11,1.17,0.89,2.28,2.28c-0.46,2.12-1.17,5.67-2.17,6.52c-2.24,1.89-3.29,8.04-6.05,8.56
		c2.34-3.39,2.51-4.06,1.7-4.53c-1.04,0.31-1.35,1.66-2.69,1.86c-4.79-1.59,2.45-3.45,2.8-5.07c-0.72-0.1-1.24-0.1-1.86-0.21
		c-1.55,1.04-3.42,1.66-4.45,3.21c-1.17,0.36-3.52-0.3-3.48-0.4c1.49-4.26,1.8-2.98,7.8-2.83c0.51,0.01-0.08-1.07,1.58-1.33
		c0.62-0.1,1.24,0.31,1.66-0.41c0-4.04-0.21-4.45-2.8-5.39c-2.8,0.47-0.25,4.83-3.52,5.49c-0.41-0.1-1.24,0.1-1.76-0.62
		c-0.41-0.41,0.21-1.55-1.14-1.66c-2.5,4.62-6.8,9.12-1.97,9.22c5.06,0.1,6.88,2.57,7.53,2.61c-2.36,2.17-5.53,0.33-11.46-2.09
		c0.62-3.42,1.24-6.73,1.76-9.63c2.59-2.8,6.11-4.04,7.87-7.04c-0.62-1.55-2.26,0.3-2.8-0.72c-0.81-1.56,1.14-2.9-0.1-4.45
		c-2,2.5-4.04,6.67-14.29,2.17c-8.59-3.77-13.01-7.99-17.5-11.08c-1.35-0.62-2.9-0.21-4.04-1.66c0.21-2.8-0.31-5.59-3-7.25
		c-1.18,0.35,0.61,5.77-4.44-4.83c-0.4-0.38-2.24-2.32-3.74-5.21c-2.28-4.39-8.68-9.77-12.63-7.25c-1.85,2.38,2.7,4.54,1.76,6.42
		c-1.04,0-1.66-1.66-2.8-1.04c-1.04,0.83,0,2.07-0.62,2.8c-0.52,0.83-1.76,0.93-1.55,2.28c1.14,1.66,3.52,1.35,5.18,2.49
		c-1.04,1.24-2.93,1.34-3.31,2.9c-0.23,0.93,0.31,1.45,0.52,2.17c-0.21,0.72-1.04,1.04-1.04,2.49c1.14,2.17,1.35,5.18,2.28,8.29
		c-9.36-4.01,2.94,6.99,1.86,13.15c-0.79,4.55,1.27,7.08,2.69,10.87c0.67,1.34-1.89,0.57-2.38,1.55c0.21,1.97,2.38,1.86,3.42,3.11
		c3.87,9.66,3.32,8.44,8.91,12.63c-0.21,1.04-1.35,1.86-0.72,2.8c0.93,1.24,2.28,0.62,3.21,1.24c0.31,0.72-0.62,1.35,0.1,2.17
		c4.3,1.72,0.81,1.93,5.49,3.94c1.28-0.49,0.76-4.92,3.83-1.97c2.67,2.57,3.55,0.75,8.29,0.83c14.94,0.24,17.91-4.03,24.96-5.07
		c4.7-0.7,13.46-3.52,14.5-7.46c6.17-1.54,7.96-4.69,13.77-6.42c0.65,0-0.37-0.75,2.8-1.45c7.21-1.58,8.3,0.35,9.84,1.76
		c7.84,7.17,10.02,9.92,14.19,10.67c4.32,0.78,1.48,3.04,8.91,4.76c9.56,2.23,15.63,1.49,22.16-0.62c13.39-4.33,14.5,5.18,35,2.9
		c9.22,3.95,21.29,1.39,28.89-2.8c2.94-3.62-12.96,1.93-17.68,1.37c-1.3-0.16-0.58-1.1-1.17-1.57c-1.29-1.29-13.2,1.23-23.38-0.1
		c-7.72-1.01-6.23-4.6-19.9-2.49c-7.61,1.18-23.33,2.45-28.58-1.35c-4.26-3.08-8.93-7.39-9.32-12.63
		c-0.48-6.44-3.33-10.26-0.93-20.82c1.5,0.97,1.64,3.6,3.11,5.18c0.75-4.49,2.57-6,1.01-6.58c-0.84-0.31-1.39,0.46-1.83,0.57
		c-0.9-1.8,1.06-10.17,11.5-16.05c9.16-6.87,25.4-8.65,25.91-8.36c2.76,1.6,6.23,3.39,7.33,4.84c3.18,4.17,7.35,7.25,10.36,11.5
		c16.3,4.89,9.48,1.29,21.91,3.36c24.49,6.89,16.86,3.48,32.04,10.63c0.31,0.62-0.72,0.93-0.21,1.86c2,0.17,3.76,0.21,5.9-0.1
		c28.27-4.18,70.06,10.41,70.84,11.18c0.91-0.26,1.64-0.5,2.49-0.31c5.43,1.24,11.17,1.5,15.33,2.14c5.05,0.78,7.87,2.21,11.18,2.21
		c1.12,0,3.8,1.24,4.97,1.24c4.54-0.37,26.85,5.15,30.38,5.64c5.23,0.73,8.11-0.6,13.86,3.81c-1.49,0.29-3.08-0.53-4.46-0.03
		c-1,2.33,29.71,8.03,25.18,9.54c-4.12,0.73-4.24-0.45-4.94-1.3c-0.79-0.79-5.77-0.11-16.72-4.18c-2.37-0.88-7.09-2.65-13.04-2.38
		c0,1.52,2.07,0.73,7.46,2.42c7.74,2.43,8.53,4.01,12.01,4.01c0.63,0,1.27,0.3,1.55,1.04c-2.43,0-19.94-0.17-22.37-0.31
		c-13.34-0.75-5.85,2.01-15.43-0.17c-16.76-3.8-11.64-6.7-15.85-6.05c-0.96,0.1-13.26,3.11-13.26,3.11
		c-1.94-0.4-65.12,7.26-75.29,2.17c0.69-1.73,0.57-1.39-1.66-1.35c-12.84,0.27-6.58,2.67-29.26-6.59c-0.71-0.29-1.65,0.75-0.67,1.51
		c3.62,2.83,17.55,9.26,22.99,7.46c2.67-0.89,2.99,0.37,11.08,2.17c11.21,2.5,60.53-0.17,69.18-1.86
		c16.8-3.29,13.01-3.31,16.67-4.04c24.12,10.96,21.78,5.34,28.48,6.11c6.76,0.77,11.44-0.27,15.12,0.93
		c5.17,1.68,17.46,1.31,20.4-1.14c1.97,0.1,3.84,0.33,5.59-0.52c2-0.97,5.59,0.3,5.59-3.11
		C508.47,591.47,495.09,587.93,492.4,587.45z M441.34,419.89c22.39,6.8,18.19-4.54,15.43,21.23c-1.81,0-1.47-4.59-8.18-11.18
		C447.48,428.83,440.54,421.23,441.34,419.89z M440.51,416.68c-0.73,1.24-2.8,0.39-2.8-3.83
		C439.48,414.29,439.48,414.29,440.51,416.68z M434.47,366.49c-0.22,7.03-2.41,7.37-2.31,14.17c0.04,2.61,0.76,5.56,0.72,10.56
		c-0.02,2.28-0.4,5.68-0.4,5.68c0.11,2.88,2.72,6.67,1.4,8.8c-14.23-39.6,0.89-26.34,9.02-87.3c0.86-6.46-0.21-9.05-0.21-14.71
		C450.85,337.8,434.65,360.72,434.47,366.49z M442.17,298.2c-0.51,0.91-1.77,1.14-1.75,2.38c0.05,4-3.22-20.53-3.22-33.14
		C438.75,277.8,441.14,287.95,442.17,298.2z M394.84,186.25c-1.35-0.1-1.24-1.24-1.76-1.86
		C394.69,181.76,395.42,184.81,394.84,186.25z M403.54,218.25c-0.87,0.87-4.47-8.69-4.87-14.19c8.94-4.88,10.65-5.11,10.97-7.98
		c-5.94-1.38-10.44,4.44-11.06,3.37c-0.74-1.28-0.43-2.59-0.54-3.88c1.86-1.04,3.49-2.4,4.56-4.25c0.61-1.06,3.28-1.71,2.33-1.93
		c-5.72-1.3-6.92,2.09-7.13,0.92c-0.92-5.18,2.7-4.21,5-7.28c0.48-0.64,1.02-1.28,0.29-1.71c-1.16-0.68-4.01,0.73-5.26,1.09
		c-0.83-2.08-1.03-2.65-1.86-5.8c0.17-0.4,4.21-6.91,1.9-7.05c-1.12-0.07-2.97,3.53-3.03,3.64c-2.52,0.53-0.95-7.2-7.56-11.08
		c-2.03-1.19-4.68-4.37-7.77-7.97c-1.34-1.56-2.07-3.11-0.62-4.87c-5.93-8.3,20.48-7.15,31.07,2.8c1.98,1.86,8.69,5.91,12.63,10.67
		c18.49,22.27,22.4,6.34,42.77,44.53c-0.58,1.92-11.33,4.88-14.19,9.11c-3.57,5.29-4.32,7.96-7.04,10.25
		c-6.24,5.26-5.62,4.97-5.99,4.74c-1.1-0.71-4.78-6.11-3.65-11.79c1.33-6.67-1.75-11.68-8.2-14.85
		C416.44,199.9,409.45,209.75,403.54,218.25z M432.64,212.14c-1.88,8.06-0.89,10.36-2.9,8.91c-17.58-12.72-25.51-5.18-13.11-13.93
		C422.45,203.01,429.1,206.98,432.64,212.14z M406.75,228.19c-0.62,0.21-0.93-0.21-1.14-0.62c-1.74-4.53-2.51-4.23-0.21-7.25
		c0.63-0.82,0.72-1.97,2.07-3C408.04,224.31,407.31,220.36,406.75,228.19z M379.41,380.63c0.97-7.37,3.44-11.57,4.25-16.05
		c0.4-2.24,4.46-6.91,7.77-14.6c1.59-3.69,0.92-2.19,2.49-10.56c5.93-2.97-3.69-1.26,10.56-58.93c1.68-6.79-2.49,3.2,3.11-21.54
		c1.18-5.23,2.49-11.67,2.49-42.98c7.04,1.04,12.53,4.76,18.02,8.18c0.84,2.01,1.04,6.83,1.04,6.94c1.18-0.84,1.76-3.94,1.76-4.04
		c2.31-0.19,1.59,3.26,6.32,6.94c1.62,1.08-1.81,2.26,6.11-3.31c7.61-5.36,8.42-12.58,13.88-14.81c1.45-0.59,1.9-1.95,4.76-2.9
		c4.99,3.63-4.38,4.05-10.36,14.08c-3.31,1.92-12.77,7.74-12.15,11.5c-2.49,0-0.44-0.96-3.18,14.08
		c-2.59-12.84,1.68-13.21,1.79-16.69c0.09-2.78-3.86,0.05-4.48,8.62c-0.25,3.4,0.07,26.35,0.83,39.77
		c1.9,33.52,11.39,24.18-3.42,72.29c-4.67,15.18-6.39,16.93-5.39,24.96c1.17,9.33-0.5,9.77,2.8,19.16
		c5.48,15.62,2.68,5.91-32.83,4.56c-2.25-10.68-2.3-7.37-2.9-10.98c-1.22,3.65,0.5,6.39,0.83,9.94
		c-17.19,2.58-12.48,4.16-12.95-7.25C380.18,387.9,378.27,389.33,379.41,380.63z M233.8,521.07c0.18,0.08,0.12,0.17-0.08,0.2
		C233.75,521.17,233.8,521.07,233.8,521.07z M105.25,525.6c0.49-0.89,1.13-0.02,1.69,0.54C106,527.34,104.9,526.23,105.25,525.6z
		 M109.73,549.44c-0.91-0.39-1.17-1.62-0.28-1.79C109.91,547.56,111.47,548.75,109.73,549.44z M110.87,540.54
		c0-0.25-0.05-0.43-0.1-0.57c0.1,0.07,0.23,0.15,0.42,0.24C111.08,540.33,110.97,540.43,110.87,540.54z M112.74,532.98
		c-3.11,1.86-2.07,1.04-3.21,4.66c-3.25-3.25,0.31-3.07,0.72-4.45c0.41-0.83-0.62-1.24-0.72-1.86
		C111.79,529.51,113.69,532.5,112.74,532.98z M117.71,581.55c-0.93-0.23-1.19-0.81-0.72-1.66
		C117.71,580.2,118.43,580.51,117.71,581.55z M129.82,546.54c0.46,0,0.77,0.22,0.74,0.69C130.56,547.52,129.9,546.85,129.82,546.54
		c-1.45,0.1-2.17-1.24-3.31-1.76C127.03,543.03,129.82,545.44,129.82,546.54z M125.78,538.67c0.29,0.48-0.45,1.12-0.66-0.47
		C125,537.27,125.02,537.91,125.78,538.67z M121.87,539.1c-2.6-6.68,0.8-3.99,1.64,1.85C122.58,540.57,122.17,539.88,121.87,539.1z
		 M123.53,548.79c1.8-2.9,1.78-2.61,2.62-1.78c0.17,0.16,0.1-0.2-2.43,2.33C123.7,549.29,123.5,548.82,123.53,548.79z
		 M125.89,585.17c-0.62,0.31-1.14,0-1.55-0.52C124.97,583.18,126.7,584.15,125.89,585.17z M125.78,558.04
		c-0.63,0.21-0.99-0.21-1.24-0.83c2.19-4.82,0.12-4.9,2.6-3.18c0.55,0.38-0.49,1.62-0.63,2.04
		C126.3,556.69,126.41,557.52,125.78,558.04z M129.93,578.65c-1.04,0.72-1.86,0.1-3.21-0.21c1.04-1.45,1.76-2.49,2.59-3.52
		C130.73,575.63,130.32,574.35,129.93,578.65z M130.13,569.85c-2.31-0.26-3.24-1.13-1.04-2.9
		C130.46,566.95,132.12,569.02,130.13,569.85z M131.14,589.01c-0.23,0-0.2,0.05-0.07-0.21
		C131.17,589.01,131.24,589.01,131.14,589.01z M133.32,586.2c-0.39,0.51-1.48,0.12-2.15-0.1
		C132.4,585.05,133.61,585.83,133.32,586.2z M134.79,589.83c0.73-0.42,1.13-0.2,1.45,0.52C135.42,590.87,135,590.56,134.79,589.83z
		 M138.24,550.88c-1.07,0.84-3.36-2.02-4.28-3.61C135.24,547.76,139.32,550.04,138.24,550.88z M159.11,564.68
		c-0.11,0.27-0.5,0.44-0.71,0.7C157.54,564.16,159.54,563.66,159.11,564.68z M157.8,561.46c0,0.11-0.11,0.32-0.11,0.1
		C157.68,560.89,157.8,561.35,157.8,561.46z M150.85,561.87c-0.42,0.42-0.83,0.31-1.24-0.1
		C150.02,561.35,150.43,561.25,150.85,561.87z M141.57,560.29c-0.38-0.01-0.64-0.39-0.77-1.11
		C142.84,558.98,142.5,560.31,141.57,560.29z M143.6,552.65c1.04,0.31,1.55,0.41,1.76,1.04C144.53,554,144.53,554,143.6,552.65z
		 M146.08,563.94c-0.1,0.31-0.41,0.52-0.83,0.62C143.74,564.1,145.12,562.36,146.08,563.94z M146.91,578.96
		C146.19,581.85,143.93,581.94,146.91,578.96C145.64,574.46,150.44,577.2,146.91,578.96z M152.31,587.98
		c-0.83,1.21-4.82-1.4-1.99-1.83C151.1,586.03,153,586.96,152.31,587.98z M152.99,579.6c-1.13-0.25-0.16-1.7,1.48-0.95
		C154.15,579.46,153.64,579.75,152.99,579.6z M155.4,572.75c-0.46-1.07,0.91-2.53,1.48-1.08
		C157.33,572.81,155.74,573.77,155.4,572.75z M156.71,588.59c-0.82-1.03,0.35-0.93,1.59-0.52
		C157.53,589.1,157.25,589.27,156.71,588.59z M162.14,579.27c0.1,0,0.59-0.26,0.59,0.04C162.73,579.52,162.14,579.66,162.14,579.27z
		 M166.59,583.21c0.69-0.69,1.39-0.64,2.17-0.1C167.93,583.72,167.31,583.83,166.59,583.21z M169.17,575.33l0.08-0.07
		C170.25,575.38,169.31,575.35,169.17,575.33z M214.23,578.96c0.06,0.12-5.71-7.03-4.25-18.12
		C212.57,576.35,213.09,572.92,214.23,578.96z M271.29,539.61c-0.11-0.09-10.87-10.04-10.98-10.15c5.9,0.93,11.6,2.17,17.3,6.32
		C274.61,536.29,273.98,539.29,271.29,539.61z M283.2,543.96c-8.21-1.24-7.38,0.66-8.91-0.1c-1.1-1.09,1.9-0.71,4.14-4.04
		c0.72-0.93,1.97-1.35,3.11-2.07C286.09,539.93,292.5,545.36,283.2,543.96z M379.32,550.67c-0.61-0.51-0.13-2.02,0.31-1.13
		C380.37,551.01,379.68,551.02,379.32,550.67z M379.93,553.28c0-0.31,0-0.52,0-1.04C380.03,552.76,380.24,552.97,379.93,553.28z
		 M383.62,560.59c-0.22,0.19-0.04,0.2-2.44-1.3C382.84,557.28,383.91,560.36,383.62,560.59z M491.18,596.43
		c-0.24-0.48,2.71,0.07,3.19,0.03C496.05,596.46,492.14,599.95,491.18,596.43z M480.43,586.89c0.18,0.04,0.33,0.07,0.48,0.15
		C480.61,587.26,480.52,587.07,480.43,586.89z M506.7,595.74c-0.78,0.39-1.87,0.67-1.98,0.72c-2.37-2.23-3.25-2.46-18.02-7.25
		C494.23,589.54,510.03,594.07,506.7,595.74z"/>
	<path d="M121.23,528.63c0.01,0.01,0.01,0.02,0.02,0.03C121.35,528.76,121.36,528.76,121.23,528.63z"/>
	<path d="M392.25,542.51l-0.1-0.1C392.1,542.59,392.03,542.51,392.25,542.51z"/>
	<path d="M395.78,560.84c-0.44,0-0.32-0.01-0.1,0.1L395.78,560.84z"/>
	<path d="M549.36,19.09c-0.03,0.01-0.1,0.07-0.1,0.1L549.36,19.09z"/>
	<path d="M157.16,78.12c-0.03,0.03-0.05,0.07-0.08,0.1C157.09,78.26,157.13,78.16,157.16,78.12z"/>
	<path d="M798.95,5.11c-0.34-2.72-2.23-1.7-3.11-1.35c-0.41-0.62,0-1.55-1.14-2.28c-9.11-3.65-7.95,0.53-10.46,0.72
		c-6.41-3.42-5.34-0.7-8.6,0.52c-2.58,0.96-4.38,2.67-5.9,4.87c-2.35,3.41-5.13,3.84-12.22,7.87c-6.29,3.57-8.65,3.27-18.02,6.21
		c-4.46,1.12-3.35-0.3-7.66,0.21c-16.82,1.98-17.64-1.29-18.43,5.9c0.1,0.93,1.66,0.93,1.45,2.17c-25.84,6.46-34.67,5.78-63.59,0.93
		c-58.67-9.83-67.89-2.56-62.14-2.69c26.51-0.63-4.72-2.29,45.36,3.52c22.89,2.66,17.96,0.86,22.27,2.49
		c10.67,4.02,44.35,5.34,54.06,2.9c1.66-0.42,3.31-0.93,5.18-0.72c1.97,3.21,3.31,6.52,3.73,10.36c-5.54,2.42-8.27,0.09-10.87,2.69
		c4.04,0.31,7.56-1.55,11.5-0.41c0.83,4.14-1.55,7.66-2.59,11.6c-11.96,0.57-58.82,10.92-61.52,11.6
		c-33.38,8.41-53.73-7.15-79.74-7.15c0.97-1.93,2.04-2.71-3-1.45c-0.22,1.09-0.07,2.12-2.07,1.45c0.51-2.54,1.73-1.71-7.35,0.83
		c-24.47,6.85-14.16,11.08-11.08-21.75c0.84-8.94-6.62-22.88-3.73-24.98c0-0.77,0.39-2.28-2.59-2.88
		c-3.59,2.51-28.28-2.82-39.04-1.14c-9.78,1.52,3.16-2.87-38.42-3.62c-2.6-2.88-13.44-1.76-15.95-1.14
		c-13.47,3.36-18.7-1.7-25.48-3.31c-9.24-2.21-12.68,2.73-18.43,6.01c-11.27,6.41-18.01,0.31-52.09,0.31
		c-19.87-7.78-55.66-0.08-60.79-1.66c-2.02-2.26-4.51-2.46-9.74-6.52c-3.66-1.46-4.82-0.31-11.29-0.31
		c-7.74,0-11.25,3.77-21.96,7.87c-13.81,5.29-23.96,16.72-35.52,17.3c-6.91,0.35-8.3-0.76-12.84,0.31
		c-7.41,1.75-10.69-0.93-11.6-0.93c-1.46,0-1.17,0.97-0.83,1.14c7.78,5,12.84,0.83,19.68,2.07c2.01,0.5,6.57,0.71,9.01-0.83
		c2.06-1.03,2.62,0.06,9.11-2.69c8.25-3.51-10.17,8.54-12.53,15.12c-1.57,4.38-9.04,8.47-12.01,23.3
		c-2.06,10.3,1.77,12.51,0.31,13.67c-5.49-2.38-11.08-3-17.09-1.04c-2.53-3.8,0.88-0.92-6.84-0.52c-1.14-1.86-3.31-0.72-4.87-1.66
		c-0.94-6,2.78-8.42,0.72-12.74c-1.97-0.72-1.97-0.72-3.52,0.1c2.41,2.41,2.44,1.92,0.62,7.97c-7.33,7.33-2.38,13.95-18.54,7.15
		c-0.4-0.89-0.22-1.59,0.34-2.28c-0.03-0.08,0.14-1.15,1.01-7.25c1.02-1.23,11.73-8.68,6.73-7.77c-3.38,0.62-0.38-2.74-1.45-4.76
		c-1.79,2.23-3.64,6.95-14.29,2.38c-12.56-5.38-15.01-10.96-20.92-11.91c-1.63,0,0.47-5.32-3.83-7.87
		c-0.72,0.52-0.21,1.35-1.24,1.76c-0.72-2.28-2.59-4.04-2.8-6.63c-4.74-3.16-9.36-16.65-17.81-12.43c-0.52,2.49,2.07,3.73,2.28,6.01
		c-1.24,0-1.86-1.55-3.11-0.93c-0.83,0.83-0.12,1.96-0.62,2.8c-0.43,0.72-1.66,0.83-1.35,2.28c1.04,1.66,3.31,1.35,4.97,2.49
		c-1.04,1.35-3.11,1.35-3.42,3.62c-0.43,1.08,1.98,0.11-0.41,3.11c3.34,13.85,2.28,7.2-0.52,8.6c-2.82,1.41,5.62,7.54,4.66,13.57
		c-0.97,6.06,3.29,9.07,2.59,11.39c-0.87,1.15-2.17-0.86-2.17,1.76c1.92,1.92,2.49,1.34,3.21,2.49c1.8,4.37,3.23,9.51,7.66,11.6
		c2.67,1.26-0.15,2.21,0.41,3.62c0.62,1.55,2.49,0.62,3.31,1.45c0.1,0.93-0.62,1.45,0,2.17c4.54,2.27,0.86,1.94,5.49,4.04
		c1.74-0.46,0.43-2.9,2.38-2.9c1.5,0,2.99,3.25,5.9,2.07c2.79-1.13,12.55,1.16,22.37-3.52c3.99-1.9,19.28-3.56,21.33-9.74
		c1.14,0,1.86-0.21,2.69-0.62c10.63-6.28,10.39-4.75,11.81-6.52c0.19-0.19,4.87-1.56,9.53-0.72c9,8.07,11.54,11.78,16.47,12.63
		c4,0.7,2.17,3.07,7.87,4.45c22.63,5.49,24.27-5.42,37.7,0.31c11.86,5.06,18.12,1.1,22.78,3.11c8.76,3.78,26.14-2.1,26.82-4.14
		c-0.41-1.45,14.11,7.94,21.13,5.7c5.15-1.65,0.76,3.14,27.96,3.31c17.22,0.11,53.86-1.24,68.87-7.25
		c27.27,11.69,20.75,5.31,28.69,6.21c6.97,0.8,10.62-0.4,15.02,0.93c5.09,1.54,17.39,1.21,20.82-1.24c1.66,0.21,3.11,0.21,4.56-0.21
		c6.81-2.55-5.95-5.59-13.15-8.08c-1.69-0.41-0.54-1.72,6.73,0.52c18.23,5.61,9.26,3.83,8.91,6.63c1.24,0.41,2.28-0.31,3.31-0.72
		c0.62-1.14,0.62-2.17-0.21-3.52c-22.86-8.47-12.16-3.26-0.1-4.56c5.34-0.57,14.76-2.8,17.09-2.49c1.04,0.14,17.15,1.61,19.37,0
		c1.6-1.6-0.25-1.87-0.1-3.21c3.06-17.61,4.54-15.37,10.46-17.4c26.81-9.2,27.62-4.52,54.68,0.41c12.09,2.2,19.16,5.64,29,4.76
		c19.42-1.73,69.27-15.5,78.19-14.19c-0.45,0.9-1.56,2.26,0.41,2.59c5.69-2.85,8.53-2.34,15.02-3.42c2.49-2.07,5.28-3.31,6.94-5.7
		c2.3-6.13,5.69-10.56-0.1-17.09c-3.2-3.61-12.03-8.33-14.81-9.32c1.23-2.45,13.18-3.7,16.78-3.21c2.57,2.11,7.16,12.08,8.6,7.04
		c-0.47-4.51-8.19-9.17-1.04-7.87c2.68,3.13,3.39,3.97,4.56,4.56c3.91,1.96-0.06-5.59-0.1-5.8c4.79-1.84,5.07,1.55,7.97,1.55
		c2.52-0.84-0.35-3.1,0.21-4.56c2.42-2.42,2.86,1.3,4.76,1.76c0.83,0.2,1.45,0.21,1.86-0.62c0.1-1.14-1.45-1.66-1.24-2.9
		c0.93-1.87,2.62,0.15,3.94,0c2.47-0.41,0.29-1.9,0.52-2.8c0.62-0.41,1.24-0.93,1.86-1.45c1.76-0.31,3.52,0.31,4.97-0.41
		c0.21-1.45-1.45-1.04-1.55-2.28c18.77-12.01,11.04-15.2,22.99-6.01c1.56,4.48,1.9,12.91-1.04,17.81
		c-5.92,9.9-4.18,11.21-6.32,14.08c-4.46,5.99-4.19,6.67-7.15,9.22c-7.15,6.15-16.75,11.96-17.3,18.75c0,2.94-3.4,5.14-7.56,12.84
		c-1.04,1.92-1.83,1.59-11.29,9.42c-1.06,0.88-3.4,4.01-6.11,3.52c-0.31-0.62-0.32-1.54-0.72-1.97c-8.4-8.79-8.89-6.31-10.05-9.42
		c-2.01-5.41-9.44-8.41-15.43-15.02c-0.21-0.31-0.62-0.31-1.14-0.52c-0.72,2.07,1.45,3,1.86,4.76c-5.46-2.34-3.14-1.12-6.63-5.39
		c-0.41-0.41-1.04-0.62-1.55,0.31c1.24,2.49,2.68,4.79,5.18,6.42c12.67,8.25,12.5,15.73,16.16,17.19c6,2,4.37-5.43,10.77,5.9
		c6.5,0.39,8.68-3.27,13.77-7.25c8.88-6.95,6.05-4.89,11.29-12.32c12.6-17.91,0.34-8.61,14.29-19.47
		c14.25-11.1,15.87-21.65,18.43-26.1C801.33,22.07,801.01,13.55,798.95,5.11z M103.62,32.66c0.93-0.21,1.24,0.41,1.55,0.93
		C103.73,33.9,103.73,33.9,103.62,32.66z M107.87,56.79c-0.85-0.37-0.88-0.96-0.41-1.76C109.65,55.48,108.8,56.79,107.87,56.79z
		 M108.9,47.78c-0.29-0.21-0.19-0.53,0-0.83C110.12,47.26,109.18,48.06,108.9,47.78z M108.49,41.26c-0.31,1.14-0.62,2.28-0.93,3.42
		C105.63,42.98,106.22,41.54,108.49,41.26c0.2-0.91-0.08-1.85-0.93-2.49c1-1.2,3.33-0.96,3.73,1.24
		C110.53,40.77,109.28,40.99,108.49,41.26z M114.29,87.03c1.3-0.08,1.62,0.34,2.06,1.45C114.81,88.9,115.01,87.86,114.29,87.03z
		 M156.75,71.39c0.93,1.06-0.14,0.45-0.48,1.7c-0.06,0.32-0.3-0.16,0.23-0.63C156.63,72.33,156.63,71.89,156.75,71.39z
		 M156.13,68.49c0.11,0.22,0.18,0.21,0.07,0.21C155.97,68.7,156,68.75,156.13,68.49z M148.78,69.11c-0.29,0.39-0.53,0.1-0.93,0.1
		C148.26,68.8,148.57,68.8,148.78,69.11z M128.68,54.2c-1.15-0.48-2.05-0.81-2.63-1.36C123.69,50.63,126.68,51.77,128.68,54.2z
		 M123.61,45.61c0.64,0.64-0.08,1.49-0.2,0.56C123.39,46,123.45,45.81,123.61,45.61z M121.42,48.51c-0.71-1.74-2.83-3.28-2.17-6.42
		C120.49,44.26,121.74,46.12,121.42,48.51z M122.06,56.58c-0.41-0.62-0.41-0.62,0.41-1.24c0.99-3.41,3.54-0.45,0.1-0.02
		C122.3,55.32,122.98,55.86,122.06,56.58z M122.57,91.9c0.71-1.07,1.19-0.8,1.97,0C123.61,92.52,123.61,92.52,122.57,91.9z
		 M123.51,65.39c-0.39,0-0.7-0.55-0.83-0.93c0.54-0.96,0.85-2.43,1.04-3.52c0.51-0.21,1.03-0.17,1.34,0.3
		C125.33,61.51,125.41,61.94,123.51,65.39z M128.17,86.19c-4.95,0.39-2.31-1.71-1.86-2.28c0.41-0.62,0.52-1.45,1.35-1.66
		C128.37,82.98,128.3,83.6,128.17,86.19z M128.6,77.03c-0.8,0.5-2.05-0.33-2.82-0.77C126.59,71.84,130.66,75.76,128.6,77.03z
		 M129.1,96.46c0-0.27-0.08-0.23,0.31-0.1L129.1,96.46z M130.86,93.87c-0.13,0-1.09-0.25-0.95-0.38c0.74-0.64,0.79-0.62,1.99,0.07
		C131.48,93.66,131.17,93.76,130.86,93.87z M133.83,97.99c-1.76-0.15-0.61-1.58,0.13-0.84c0.18,0.13,0.36,0.37,0.62,0.55
		C134.31,97.94,134.06,98.01,133.83,97.99z M136.19,58.42c-1.76,0-4.5-3.73-4.25-3.98C132.09,54.29,138.76,58.42,136.19,58.42z
		 M139.04,66.73c0.72-0.52,1.24-0.31,1.55,0.41C139.77,67.66,139.77,67.66,139.04,66.73z M141.84,60.21c0.71,0,1.38,0.18,1.66,0.83
		C142.62,61.69,142.22,61.26,141.84,60.21z M143.18,71.81c-1.25-0.49,0.27-2.36,1.14-0.62C144.13,71.67,143.71,72.01,143.18,71.81z
		 M143.8,88.29c0-0.72,0-0.73,0.93-1.24C144.61,87.8,144.5,88.18,143.8,88.29z M146.11,85.12c-0.35,1.01-1.24,1.74-1.38,1.93
		c0.1-0.99,0.12-2.08,0.21-2.99C145.71,83.5,146.55,83.86,146.11,85.12z M149.7,95.54c-2.51,0.3-2.55-2.81-0.51-1.99
		C150.51,94.09,151.02,95.39,149.7,95.54z M150.74,86.62c0.21-0.93,0.83-1.14,1.66-0.72C151.88,86.82,151.88,86.82,150.74,86.62z
		 M153.95,80.51c-1.73-1.73,2.49-3.08,0.72,0C154.16,80.4,154.06,80.4,153.95,80.51z M154.68,95.32c0.7-0.4,1.31-0.23,1.97,0.21
		C155.2,96.77,155.2,96.77,154.68,95.32z M160.58,86.93c-0.68,0-0.36-0.56-0.1-0.31C160.75,86.62,160.9,86.83,160.58,86.93z
		 M166.45,90.81c-0.62,0.28-1.12,0.13-1.62-0.36C165.96,89.45,167.73,90.23,166.45,90.81z M230.18,34.94
		c9.44-7.34,6.2-9.99,13.98-13.88c12.92-7.75,40.53-22.66,49.4-7.87c4.2,1.33,36.55-1.54,44.33-0.31c39.32,6.23,8.56,0.11,59.76,5.8
		c0.46,1.64-1.16,0.68-4.97,9.94c-3.4,8.26-3.01,6.34-9.63,8.49c-5.84,1.89-3.1,3.05,0.72,1.14c7.27-1.45,4.86-0.99,4.48,4.68
		c-0.17,2.65,0.22,6.73-0.45,10.95c-2.01,12.62,0.13,16.92-0.45,17.64c-2,1.88-12.54-4.82-36.73-6.14
		c-34.61-1.9-6.46,6.86-45.36-10.25c-0.14-0.95,0.96-2.02,1.26-2.93c0.19-0.57,0.26-1.66,0.42-2.52c0.25-1.31,0.78-1.87,1.07-2.74
		c0.89-2.68-1.4-1.49-1.72,0.4c-0.24,1.41,0.4,2.03,0.03,2.33c-9.52,7.63-0.38,3.34-18.15,2.04c-1.23-0.98,0.9-1.41-1.86-4.66
		c-6-7.06-5.76-4.18,2.28-16.05c2.76-4.08,0.44-6.28-0.41-4.14c-0.86,2.75-3.54,5.65-4.56,8.08c-4.96,9.92-1.31,5.3-15.64,0.31
		c-6.9-2.4-4.72-0.49-8.91-1.14c-19.57-3.05-33.14,8.05-36.87,8.49C221.49,41.72,224.02,39.73,230.18,34.94z M395.88,70.05
		c-0.41,0.62-1.47-0.09-1.97,0.83c0.62,1.04,1.86,0.21,2.59,0.93c0.64,0.64,0.66,1.09,0.21,1.76c-1.13,0.28-5.12-1.12-4.05,1.01
		c-1.4-0.23-2.04-0.01-2.68-2.26c-0.46-1.15-0.79-8.04-0.41-9.32c1.35-0.45,2.09-0.19,3.52,0.41c2,4.76,2.05,3.99,0.41,4.97
		C394.46,68.77,395.88,68.66,395.88,70.05z M392.77,60.62c-4.18,3.33-5.22-5.66,0.52-2.8C393.08,58.86,392.88,59.79,392.77,60.62z
		 M272.53,50.27c4.87-2.32,1.51-2.05,7.35-4.97c1.69,0.91,3.38,1.82,4.63,3.21c6.12,6.79-5.51,0.57-11.67,3.21
		C272.52,51.29,271.93,50.55,272.53,50.27z M271.38,46.23c-1.31,1.79-2.27,0.11-13.76-10.05c6.3,1.73,12.54,2.48,17.83,6.77
		C275.77,43.27,273.21,43.73,271.38,46.23z M211.95,85.58c-0.76,0-4.54-7.24-4.25-14.71c0.38-0.09,0.93,0.09,0.93,0.52
		c0.72,4.55,3.38,14.19,3.49,14.29C213.12,86.79,212.5,88.32,211.95,85.58z M490.12,105.36c-0.77-1.54-1.78-2.07,2.8-1.56
		C493.03,103.8,494.29,104.72,490.12,105.36z M486.34,99.35c8.22,2.89,9.02,1.56,13.31,4.67c-5.8,0.64-4.48,0.18-5.9-1.24
		c-17.6-3.04-5.93-0.76-19.51-5.12c-3.97-1.27-12.7-1.98-9.91-0.58c1.07,0.71,7.16,0.75,14.71,4.66c3.49,1.81,5.49,0.37,5.49,2.17
		c-26.07,0-28.9-0.75-30.86,0.1c-3.06,1.33-18.08-3.1-19.26-5.18c-2.17-3.81-15.07,2.19-16.36,1.76
		c-1.54-0.21-72.38,8.12-75.13,1.08c-0.32-0.83-11.27,1.4-14.87-0.14c-10.27-3.42-15.79-7.72-17.3-6.21
		c-0.16,1.09,0.75,1.37,1.38,1.87c-0.6,0.26-1.24,0.54-1.9,0.61c-21.91,3.93-13.62,1.99-15.95,0.83c-1.49-1.12-21.48,2.1-29.41-1.76
		c-4.96-2.41-14.15-0.91-21.13,0c-9.02,1.18-14.76-0.31-15.43-0.31c-6.37,0-14.95-8.01-15.64-14.91
		c-0.78-7.91-3.31-11.68-0.41-21.33c0.7,1.84,0.9,4.17,2.65,5.75c1.62-4.33,2.1-5.42,1.29-6.06c-1.03-0.62-1.41,0.49-2.28,0.62
		c-0.64-1.91,2.82-8.02,3.83-9.73c2.98-5.02,18.37-14.09,33.76-14.6c8.89,5.56,2.98,0.21,17.92,16.47
		c13.37,4.68,14.84,1.33,21.33,3.21c24.49,7.1,16.17,3.13,32.42,10.77c-0.82,4.1,2.61,0.07,21.64,1.55
		c7.81,0.61,12.5-0.44,17.61,0.93c13.78,3.72,34.11,8.87,35.65,9.56c1.53,0.68,1.55,0.94,1.88,0.87
		c5.2-1.62,61.41,11.54,69.76,11.43c1.39-0.02,2.73,0.2,3.83,1.14c1.45,1.24,4.23,1.27,4.25,2.58c-0.23-0.05-3.36-0.35-4.25,0.21
		C474.62,97.14,476.42,95.85,486.34,99.35z M398.26,75.64c0.26-0.13,0.21-0.17,0.21,0.1L398.26,75.64z M478.05,94.86
		c0.2,0.04,0.32,0.04,0.17,0.04C478.38,94.99,478.21,94.93,478.05,94.86z M485.25,96.41c0.45,0,0.65,0.24,0.85,0.47
		C484.53,96.91,484.33,96.41,485.25,96.41z M488.98,95.32c0.8-0.56,1.67-0.65,2.58-0.21C492.12,95.38,492.46,95.32,488.98,95.32z
		 M545.43,71.39c-0.12,0.83-1.14,0.93-1.55,1.66c-0.41,0.52,0.41,1.04,0.21,2.28c-4.29,10.18-3.3,11.87-4.35,15.02
		c-36.22,0-17.15,2.8-45.15,2.8c-2.05-1.64,0.21-0.89-13-1.74c-0.73-0.05-2.37,1.1-2.95,1.33c-3.8-1.27-2.97-2.61-12.63-3.94
		c-11.57-1.59-4.61,1.16-9.83-15c0-0.1-1.18,0.02-1.36,0.91c-0.09,0.86,2.49,11.19,2.69,12.01c-0.23,0.16-41.76-7.8-43.19-8.6
		c-8.31-12.46-2.59-0.59-2.59-0.1c-2.8,0.21-6.84-0.41-11.6-1.86c0.72-3.52-1.13-6.32-2.69-9.22c-5.47-10.12-2.47-6.27-1.76-11.6
		c-0.71-0.81-0.84,0.21-1.24,0.41c-4,2.59-5.8-3.2-2.73-3.45c1.9-0.15,2.41,1.1,3.06,0.58c0.22-0.18,0.4-0.34,0.4-0.55
		c0-3.65,2.96-9.07,1.35-10.15c-1.01,0.5-0.28-0.64-1.76,4.56c-1.29,0.89-2.84,0.22-4.35,0.52c-0.72-2.38-0.93-4.45,0.62-6.32
		c-1.24-2.28,0.31-4.56-0.1-6.84c3.98-4.33,4.3-8.61,6.36-8.8c1.78-0.17,3.65,0.5,5.03-1.14c-1.35-1.14-2.8,0.1-4.04-0.72
		c0-0.73,1.95-0.97,2.9-1.35c-0.11-0.99-3.21-0.97,0.31-1.55c0.31-0.83-1.04-0.52-0.72-1.24c0.9-0.5,1.98,0,2.9-0.31
		c0.53,0,0.05-0.87,0.72-1.45c12.47-5.54,11.93-8.98,19.57-8.39c6.13,0.47,8.27,4.03,14.81,2.9c2.93,2.44,9.04,2.06,12.46,1.41
		c7.16-1.35-1.44-1.41,14.99-1.41c1.06,2.12,28.96,2.76,32.73,4.45c6.26,2.81,8.39,0.33,18.95,1.04c6.32,0.42,12.53,2.38,18.95,1.45
		c2.17,3.42,4.25,6.63,7.46,8.7c-1.44-2.98-8.2-9.29-3.52-8.29c6.71,0.39,5.83,0.74,6.11,3.42c1.22,11.52,4.73,13,3.52,22.06
		C549.08,54.79,547.51,56.55,545.43,71.39z M390.5,48.19c4.21-0.28,4.31-0.02,3.71,3.01c-1.04,0.62-2.17,0.62-3.31,0.41
		C390.48,50.86,390.41,48.19,390.5,48.19z M707.61,33.7c-0.32-0.32,0.3-0.36,0.3-0.1C707.81,33.59,707.71,33.7,707.61,33.7z
		 M723.55,33.18c1.18,1.18,7.33,4.94,10.05,6.42c8.03,4.38,2.35,14.04,2.49,16.26c-1.56,2.77-4.28,3.65-6.63,5.28
		c-3.31,0.31-6.52,0.62-9.94,1.04c5.59-8.29,4.56-7.66,4.97-14.6c0.52-0.52,6.14-2.78,3.83-3.94c-1.24-0.1-1.86,1.45-3.42,1.45
		c-2.59-2.38-3-6.01-4.87-9.22C721.32,35.55,722.84,34.6,723.55,33.18z M721.9,31.94c-0.31,0.31-0.52,0.52-0.62,0.52
		c-9.72,0.17-9.29,1.67-11.81,0.41c3.31-0.72,6.11-1.86,9.22-1.97c0.14-3.46-5.03-3.06-2.4-5.69c0.11-0.11,2.33,0.9,6.59-0.17
		c1.27-0.32,2.63-0.13,4,0.26C722.62,27.25,717.55,29.22,721.9,31.94z M728.94,24.79c0-0.14-0.06-0.12,0.31,0H728.94z M734.33,24.17
		c-0.1,0.1-0.41,0.05-0.41-0.21C734.18,23.7,734.8,24.01,734.33,24.17z M778.65,7.91c-9.17,6.32-14.47,12.49-24.23,12.74
		c-3.83,2.07-7.56,2.8-14.6,3.42c0.72-0.96,27.84-7.33,31.79-13.37C777.47,1.74,786.95,2.19,778.65,7.91z M723.45,79.37
		c1.59-1.95,3.13,3.47,7.25,7.35C729.01,87.85,728.7,86.36,723.45,79.37z"/>
	<path d="M195.07,520.45c-1.03-9.95-5.89-17.37-15.74-11.39c-2.13,0.43-1.86-1.33-6.94-0.31c-1.35,0.41-1.55,1.66-2.59,1.66
		c-1.04-0.21-1.35-1.55-2.38-1.55c-1.76-0.21-2.9,1.45-4.76,1.24c-6.18-5.66-5.04-1.71-19.26,7.77c-5.41-3.38-8.26,0.13-13.26,3
		c-11.24,6.45-5.67,1.12-12.12-4.45c-2.88,0-3.64-0.53-4.25,0.31c3.95,2.63,5.02,6.11,6.52,7.46c1.36,1.22,1.76,2.9,1.55,4.66
		c0.21-0.1,0.62-0.21,1.14-0.31c0.72-0.72,0-1.97,0.72-2.59c6.61-1.47,11.55-7.35,15.74-7.35c2.35,1.18,3.99,2.35,7.04,0.1
		c8.52-6.27,12.4-14.89,15.12-3.11c-0.21,1.04-1.35,1.35-0.83,2.28c1.96,1.23,4.46-1.12,3-4.04c-0.29-1.18-2.14-0.67,3.21-2.9
		c4.23,0.96,4.51,8.23,7.04,5.7c0.57-2.72-4.73-3.19-0.93-5.9c2.53-1.08,3.97,2.6,9.53-0.93c2.26-1.69,5.61-0.87,6.32,0.62
		c0.99,2.09,2.69,4.04,2.9,6.63C192.56,522.26,194.26,522.26,195.07,520.45z"/>
	<path d="M116.67,29.35c1.43,2.86,2.93,1.88,3.73,6.94c1.45-0.62,0.41-2.07,1.35-2.69c4.01,0,11.53-7.15,15.74-7.15
		c6.49,3.25,6.26,0.24,13.05-5.39c2.48-2.06,6.52-5.49,7.66-2.49c2.52,6.61,0.38,5.62,0.72,6.84c2.07,1.14,2.8,0.72,3.52-2.69
		c-1.38-2.76-2.02-1.99,2.9-4.04c4.01,2.29,2.85,3.08,4.87,5.7c0.83,0.41,1.35,0.52,1.86,0c0.62-2.07-1.86-2.38-2.17-3.94
		c0.18-1.84,1.93-2.84,3.52-2.07c2.93,1.4,5.79,0.19,8.39-1.76c1.47,0,4.17-0.95,5.7,2.28c1.03,2.18,2.54,4.24,2.49,6.84
		c-0.08,3.94,4.04,5.18,2.49-0.52c-2.32-10.82-8.38-12.77-13.88-9.53c-3.9,2.3-1.84-0.97-9.01,0.62c-3.55,3.33-2.38-0.19-4.45,0
		c-1.66,0-2.8,1.35-4.45,1.35c-1.48-1.06-4.18-5.04-8.39-0.83c-2.69,2.69-9.57,7.75-11.18,8.29c-7.13-4.75-11.76,5.32-20.09,6.21
		c-3.59-4.64-2.76-8.9-9.32-7.35C113.87,25.62,115.43,27.38,116.67,29.35z"/>
	<path d="M456.15,454.27c-3.4-10.52,0.67-0.86-8.6-18.95c-2.11-4.12-3.73-3.41-3.73-2.17c-0.34,2.37,8.99,14.83,4.25,13.88
		c-2.44-1.36-11.48-24.27-13.46-20.3c1.45,1.55,2.17,3.52,2.9,5.49c2.64,7.06,5.41,9.89,6.63,13.57c0.52,1.58,1.62,3.29,3.11,4.04
		c7.03,1.41,3.69-8.07,7.97,6.63c-0.31,2.8-2.07,4.97-0.52,7.77C456.32,458.4,457.21,457.55,456.15,454.27z"/>
	<path d="M549.98,20.54c9.53,0.87,11.95-1.68,17.4-0.52c9.2,1.96,24.75,7.43,24.75,4.04c-6.75-2.97-24.77-6.64-28.79-6.42
		c-9.54,0.52-10.28,1.68-13.88,1.55C549.57,19.51,549.36,20.03,549.98,20.54z"/>
	<path d="M162.34,74.09c3.11,1.45,5.8-0.31,8.6-1.24c0.21-3.73-0.21-4.45-2.8-5.39c-3.22,1.18,0.14,4.68-3.11,5.49
		c-5.01,0.63,0.37-8.56-7.77,5.39c1.3,3.24,5.08,0.09,9.84,4.25c1.36-0.64,3.93-3.63,2.9-4.66c-1.24,0.21-1.55,1.97-3,1.97
		c-4.39-0.63,2.04-4.01,2.8-4.66c-2.38-0.52-3.42-0.1-6.73,2.8c-1.04-0.1-2.17,0.1-3-0.93C160.58,75.95,161,74.71,162.34,74.09z"/>
	<path d="M403.54,537.33c0.62,0.1,1.14-0.31,0.93-1.14c-1.04-1.35-2.9-1.14-4.14-1.86c0.2-2.19,2.62-1.7,2.8-3.31
		c-2.17,0.31-3.42,2.17-4.97,3.42c-12.95,1.24-13.05,1.24-16.26,3.21c-1.18,3.54,6.54-1.26,15.12,0c0.7,1.41-0.84,2.04-1.11,3.13
		c0.75,0.12,1.26-0.35,1.73-0.95C398.82,538.32,397.54,536.4,403.54,537.33z"/>
	<path d="M395.78,540.74l0.1,0.1C395.92,540.73,395.94,540.78,395.78,540.74z"/>
	<path d="M272.02,505.84c-3.03-0.34-12.9,2.36-17.71,4.45c-0.88,0.29-4.78,2.9,3.11,0.21c14.23-4.87,22.72-4.59,33.45-2.28
		c0.56,0.28,0.93-0.99-0.21-1.45C280.86,502.77,275.68,505.84,272.02,505.84z"/>
	<path d="M140.08,38.46c-0.05-1.07-0.43-5.93-1.04-7.15c-2-1.43-3.46,0.43-3,2.59c2.44,11.54,3.76,11.99,7.87,14.19
		C143.56,41.76,140.38,44.76,140.08,38.46z"/>
	<path d="M138.01,527.38c2.06,11.25,4.1,11.4,7.77,13.36c0-5.98-4.06-3.38-3.94-11.29C141.98,520.82,137.12,522.57,138.01,527.38z"
		/>
	<path d="M443.21,454.68c-0.74-0.95-2.58-1.06,0,2.9c4.43,6.8,7.25,11.99,13.15,15.53C455.08,468.95,457.52,472.98,443.21,454.68z"
		/>
	<path d="M322.76,522.52c-3.33-2.92-2.85-4.11-5.59-6.32c-6.21-5-8.71-4.15-7.35-2.8c12.2,7.32,9.56,12.48,14.91,13.67
		C324.83,525.21,324.09,523.68,322.76,522.52z"/>
	<path d="M148.57,533.18c2.84,0-0.94-2.82,0.41-5.7c-0.83-1.24-1.35-2.28-2.49-2.8c-0.83,0.83-2.17,0.41-3.21,1.04
		C144.43,528.83,145.98,531.32,148.57,533.18z"/>
	<path d="M147.53,40.74c0.72-2.17-1.14-3.83-0.52-5.8c0-0.21-0.1-0.52-0.21-0.72c-1.8-2.88-1.94-2.23-5.18-1.35
		C142.67,36.18,144.12,38.98,147.53,40.74z"/>
	<path d="M624.76,48.3c-1.01-0.5-9.64-0.46-16.78-1.55C600.87,46.1,600,50.96,624.76,48.3z"/>
	<path d="M383.97,495.9c-6.05-1.21-10.44-1.22-3.11,0.31C405.43,501.34,424.7,504.05,383.97,495.9z"/>
	<path d="M184.92,54.2c-1.55,1.76-2.28,3.94-4.04,5.59c-1.76,0.62-3.83,1.24-5.07,3.42C181.34,64.38,186.23,58.64,184.92,54.2z"/>
	<path d="M331.98,509.78c15.85,0,4.65-0.34,24.65,1.76C350.47,509.7,331.19,506.64,331.98,509.78z"/>
	<path d="M413.07,496.73c0.58-3.69,3.04-25.02,0.41-27.65C414.68,473.87,412.45,494.25,413.07,496.73z"/>
	<path d="M560.65,33.18c-3.52-1.55-4.76-1.55-7.04,0.21C556.11,35.15,558.31,35.2,560.65,33.18z"/>
	<path d="M415.56,549.55c7.16,2.33,7.87,2.83,9.32,1.86C412.84,546.77,412.79,548.65,415.56,549.55z"/>
	<path d="M450.56,493.99c0.02-0.82-0.55-1.22-1.04-1.71C431.38,473.8,446.78,491.96,450.56,493.99z"/>
	<path d="M450.56,494.14l0.1-0.1C450.53,493.95,450.56,493.99,450.56,494.14z"/>
	<path d="M415.76,565.7c8.28,4.02,11.44,5.35,11.83,5.31c0.41,0.69,0.92,0.79,1.64,0.28c-0.39-0.23-1.47-0.56-1.63-0.36
		c-0.6-0.71-10.43-5.85-12.56-5.85C415.35,565.29,415.45,565.6,415.76,565.7z"/>
	<path d="M436.27,513.82c-1.67-0.73-10.44-3.93-10.87-2.17C428.51,512.16,436.27,514.62,436.27,513.82z"/>
	<path d="M182.74,73.57c3.12-0.77,4.16-2.74,4.04-2.8c0.11,0-4.94,0.69-6.42,1.85C181.71,73.57,182.12,73.78,182.74,73.57z"/>
	<path d="M188.03,563.74c-1.76,0.83-3.83,0.1-5.7,1.24C183.05,567.38,186.53,566.13,188.03,563.74z"/>
	<path d="M411.62,505.43c-0.1,1.97-0.91,3.54-2.07,4.97c-3.24,4.02,1.2,2.29,3.11-3.83C412.85,505.94,412.45,505.43,411.62,505.43z"
		/>
	<path d="M202.01,544.37c-2.8-0.52-4.25-0.21-5.39,1.04C198.38,546.03,199.94,545.61,202.01,544.37z"/>
	<path d="M374.54,517.65c0.67,1.15,2,5.28,3.52,5.28C378.36,522.93,377.35,519.57,374.54,517.65z"/>
	<path d="M199.63,52.13c-0.21-0.31-0.21-0.52-0.52-1.14c-1.45,0.62-3,0.31-4.66,1.86C196.73,53.27,198.18,52.96,199.63,52.13z"/>
	<path d="M188.96,563.11c1.97,0.62,3.21,0.21,4.25-1.55C191.34,561.04,190.1,561.66,188.96,563.11z"/>
	<path d="M443.21,471.77c5.63,6.93,4.52,3.9,3.62,3C442.67,469.88,443.08,471.64,443.21,471.77z"/>
	<path d="M186.86,70.78c3.03,0.24,4.7-1.09,4.07-1.87C188.38,68.91,188.34,68.91,186.86,70.78z"/>
	<path d="M564.69,23.75c0.41,1.24-0.1,2.59-0.21,4.45C568.5,23.57,565.67,22.63,564.69,23.75z"/>
	<path d="M190.51,535.67c1.45,2.17,1.45,2.17,3.31,2.17C193.1,536.81,192.27,536.08,190.51,535.67z"/>
	<path d="M316.76,549.86c1.47,1.47,3.62-0.96,2.69-2.28C318.41,548.2,317.27,548.62,316.76,549.86z"/>
	<path d="M380.76,506.26c-0.83,1.66-0.83,1.66,1.55,3.62C382,508.54,381.9,507.19,380.76,506.26z"/>
	<path d="M309.71,538.26c-3.01,2.63-0.66,4.47,0.21,1.86C310.13,539.5,310.54,538.78,309.71,538.26z"/>
	<path d="M326.08,510.81c1.45,0.41,2.8,0.72,4.04-0.62C328.46,509.36,327.32,510.3,326.08,510.81z"/>
	<path d="M190.62,43.64c-2.23-1.12-2.99,0.01,1.66,2.17C191.86,44.47,191.13,44.05,190.62,43.64z"/>
	<path d="M412.35,500.25c-0.37,1.12-1.26,0.62-4.76,0.62C409.1,501.88,414.13,501.59,412.35,500.25z"/>
	<path d="M192.17,68.6c1.55,0.31,2.49-0.1,3.21-1.04C194.14,66.84,193.31,67.25,192.17,68.6z"/>
	<path d="M404.47,416.47c0-1.86,0-3,0-4.14C404.06,413.46,404.06,414.6,404.47,416.47z"/>
	<path d="M167.11,53.58c-1.05,0-2.2,2.28-0.52,2.28C167.11,55.13,167.62,54.51,167.11,53.58z"/>
	<path d="M168.87,49.33c-0.21-0.1-0.31-0.21-0.62-0.31C166,50.71,169.22,52.15,168.87,49.33z"/>
	<path d="M168.04,548.62c0.81-0.16,1.39-1.26,0.62-2.49C167.83,546.85,167.11,547.48,168.04,548.62z"/>
	<path d="M194.24,561.25c1.76-0.1,1.76-0.1,2.9-1.14C196,559.7,195.07,559.9,194.24,561.25z"/>
	<path d="M399.5,561.87c-1.24-0.52-2.49-0.52-3.73-0.41C396.91,562.29,398.16,561.98,399.5,561.87z"/>
	<path d="M430.57,545.72c-0.93-0.93-1.97-1.45-3.73-1.04C428.29,545.3,429.23,546.03,430.57,545.72z"/>
	<path d="M580.95,62.18c1.14,0.52,1.14,0.52,1.97-0.62C582.09,61.04,581.36,61.14,580.95,62.18z"/>
	<path d="M584.26,31c1.97-0.21,1.97-0.21,3.11-1.55C586.02,29.66,584.88,29.76,584.26,31z"/>
	<path d="M449.69,479.27c0.21,1.07,0.95,2.21,2.18,2.78c0,0,0.03,0.05,0.03,0.19l0.1-0.1c-0.11-0.04-0.14-0.09-0.13-0.08
		C451.64,480.77,450.96,479.78,449.69,479.27z"/>
	<path d="M447.56,476.43c0.2,1.2,0.79,2.29,2.13,2.84C449.37,478,448.84,476.93,447.56,476.43z"/>
	<path d="M631.9,49.13c-0.41,0-0.93,0.21-0.83,0.93C635.08,50.5,634.44,49.49,631.9,49.13z"/>
	<path d="M588.61,60.93c-0.83-0.31-1.55-0.31-1.86,0.72C588.2,61.87,588.2,61.87,588.61,60.93z"/>
	<path d="M370.4,538.47c-1.55,0.93-1.55,0.93-1.86,1.97C369.37,540.23,370.09,539.81,370.4,538.47z"/>
	<path d="M169.59,543.96c1.14-1.24,1.14-1.24,0.52-2.17C169.59,542.3,169.07,542.82,169.59,543.96z"/>
	<path d="M310.44,532.77c-1.04,1.35-1.04,1.35-0.52,2.28C310.54,534.53,310.85,533.91,310.44,532.77z"/>
	<path d="M406.86,523.04c0.21,0.83,0,1.76,0.62,2.69C407.58,524.69,407.89,523.76,406.86,523.04z"/>
	<path d="M341.4,536.6c1.23,0.74,1.6,1.25,2.07,0.62C343.16,536.39,342.65,536.08,341.4,536.6z"/>
	<path d="M405.1,418.75c-0.41,0.72-0.1,1.35-0.1,2.07C405.41,420.2,405.3,419.47,405.1,418.75z"/>
	<path d="M413.38,465.97c-0.21,1.04-0.83,2.17,0.21,3C413.48,468.04,413.38,467.01,413.38,465.97z"/>
	<path d="M694.66,51.72c-0.72-0.62-0.72-0.62-1.55,0.31C693.73,52.34,694.25,52.34,694.66,51.72z"/>
	<path d="M394.19,541.39c-0.97,0.11-1.74,0.45-2.04,1.53C393.05,542.62,393.94,542.51,394.19,541.39z"/>
	<path d="M394.19,541.39c0.04-0.01,0.09-0.02,0.13-0.02C394.2,541.24,394.23,541.23,394.19,541.39z"/>
	<path d="M408.39,512.62c-1.03,0.35-1.23,1.24-1.43,2.13C407.85,514.36,408.35,513.67,408.39,512.62z"/>
	<path d="M451.31,495.01c-0.01-0.05-0.02-0.09-0.02-0.15C451.18,494.97,451.14,494.97,451.31,495.01z"/>
	<path d="M452.74,497.04c0-0.99-0.39-1.7-1.43-2.03C451.34,495.96,451.75,496.65,452.74,497.04z"/>
	<path d="M415.14,564.98c-0.05,0.01-0.1-0.01-0.16-0.01C415.06,565.11,415.01,565.11,415.14,564.98z"/>
	<path d="M414.99,564.97c-0.42-0.94-1.22-1.24-2.12-1.44C413.16,564.51,413.93,565.01,414.99,564.97z"/>
	<path d="M575.46,34.01c0.52,0,1.14,0,2.07-0.52C576.49,33.39,575.87,33.07,575.46,34.01z"/>
	<path d="M454.39,499.01c0-0.72-0.31-1.04-0.93-1.14C453.36,498.49,453.56,498.9,454.39,499.01z"/>
	<path d="M705.53,49.75c-0.72-0.21-1.24-0.1-1.66,0.41C704.4,50.06,705.02,50.47,705.53,49.75z"/>
	<path d="M438.13,514.23c-0.72,0-1.24-0.1-1.76-0.1C436.89,514.44,437.3,514.85,438.13,514.23z"/>
	<path d="M569.76,35.35c1.08,0,0.25-0.52,0-0.52C568.68,34.84,569.51,35.35,569.76,35.35z"/>
	<path d="M405.92,425.27C405.82,425.69,405.82,425.89,405.92,425.27L405.92,425.27z"/>
	<path d="M408,442.36c0.1-0.1,0.31-0.41,0-0.62C408,441.94,408,442.15,408,442.36z"/>
	<path d="M406.75,521.27c-0.52,0.83-0.21,1.24,0.21,1.66C406.75,522.52,406.75,522,406.75,521.27z"/>
	<path d="M328.25,551.41c0.21-0.21,0.31-0.52,0-0.93C327.41,551.32,328.15,551.52,328.25,551.41z"/>
	<path d="M596.07,47.26c-0.83-0.1-1.24-0.1-1.55,0.41C595.03,48.19,595.45,48.4,596.07,47.26z"/>
	<path d="M395.88,540.64l-0.1-0.1C395.73,540.7,395.71,540.64,395.88,540.64z"/>
	<path d="M395.74,540.65c-0.58,0.01-1.13,0.15-1.42,0.71C394.92,541.47,395.51,541.46,395.74,540.65z"/>
	<path d="M323.8,541.88c0.41-0.21,0.41-0.41,0.1-0.83C323.62,541.06,323.23,541.6,323.8,541.88z"/>
	<path d="M575.36,33.9c-0.21,0.1-0.62,0-0.72,0.41C575.04,34.52,575.25,34.32,575.36,33.9z"/>
	<path d="M411.48,562.89c-0.08-0.12-0.06-0.08-0.2-0.1C411.31,562.9,411.27,562.93,411.48,562.89z"/>
	<path d="M412.97,563.43c-0.37-0.57-0.92-0.61-1.49-0.54C411.81,563.43,412.38,563.52,412.97,563.43z"/>
	<path d="M411.28,562.78c-0.16-0.78-0.83-0.6-1.42-0.6C410.15,562.66,410.71,562.7,411.28,562.78z"/>
	<path d="M409.82,562.06c-0.25-0.68-0.91-0.61-1.41-0.7C408.7,562.02,409.25,561.99,409.82,562.06z"/>
	<path d="M409.96,562.08c-0.21-0.04-0.13-0.02-0.1,0.1L409.96,562.08z"/>
	<path d="M407.58,561.04c0.41,0.1,0.62,0.1,0.93,0.21C408.2,561.15,408.1,560.73,407.58,561.04z"/>
	<path d="M584.26,31c-0.31,0.1-0.62,0.1-0.93,0.21C583.85,31.73,584.05,31.42,584.26,31z"/>
	<path d="M363.88,542.61c0.59,0,0.56-0.19,0.21-0.31C363.88,542.3,363.67,542.4,363.88,542.61z"/>
	<path d="M452.11,483.27c0.31-0.41,0.52-0.83-0.21-0.93C452.11,482.54,452.11,482.96,452.11,483.27z"/>
	<path d="M412.45,462.86v0.31C412.59,463.18,412.57,463.24,412.45,462.86z"/>
	<path d="M661.52,53.37c-0.13,0.13-0.18,0.31,0.21,0.31C661.86,53.55,661.91,53.37,661.52,53.37z"/>
	<path d="M644.23,51.2l-0.41,0.1C644.33,51.43,644.23,51.47,644.23,51.2z"/>
	<path d="M327.22,529.97c0.26,0-0.09-0.21-0.21-0.21C326.8,529.87,326.91,529.97,327.22,529.97z"/>
	<path d="M193.1,524.28l-0.1,0.31C193.27,524.59,193.23,524.67,193.1,524.28z"/>
	<path d="M406.86,514.65c-0.1,0.41-0.52,0.52-0.1,1.04C406.75,515.27,406.86,514.96,406.86,514.65z"/>
	<path d="M406.24,528.11c0-0.08,0.05-0.16,0.08-0.24C406.29,527.92,406.24,527.96,406.24,528.11z"/>
	<path d="M379,523.97c0.41,0,0.08-0.06-0.12-0.15C378.91,523.86,378.94,523.91,379,523.97z"/>
	<path d="M378.79,523.76c0.02,0.02,0.05,0.04,0.09,0.06C378.86,523.79,378.84,523.76,378.79,523.76z"/>
	<path d="M322.04,544.37c0.1-0.1,0.1-0.21,0.21-0.31C322.04,544.16,322.04,544.16,322.04,544.37z"/>
	<path d="M403.96,530.28c0.48,0,0.67-0.19,0.63-0.69C404.24,529.7,404.05,529.91,403.96,530.28z"/>
	<path d="M403.25,531c-0.18,0-0.13,0-0.02,0.11C403.23,531.07,403.24,531.04,403.25,531z"/>
	<path d="M403.85,530.18c-0.28,0.19-0.56,0.39-0.6,0.82C403.69,530.96,403.95,530.75,403.85,530.18z"/>
	<path d="M404.68,529.56c0.04-0.18,0.06-0.07-0.1-0.1C404.61,529.61,404.53,529.61,404.68,529.56z"/>
	<path d="M405.3,528.73c-0.28,0.19-0.48,0.38-0.59,0.72C405.13,529.48,405.3,529.2,405.3,528.73z"/>
	<path d="M703.77,50.06c0,0.1-0.1,0.21-0.1,0.31C703.77,50.37,703.88,50.27,703.77,50.06z"/>
	<path d="M406.04,528.29c0.22-0.22,0.23-0.14,0.09-0.28C406.11,528.11,406.08,528.19,406.04,528.29z"/>
	<path d="M406.04,528.29c-0.21,0.19-0.39,0.39-0.63,0.55C405.72,528.75,405.91,528.56,406.04,528.29z"/>
	<path d="M440.2,468.15c-0.26,0-0.24-0.03-0.1,0.1C440.29,468.53,441.63,469.58,440.2,468.15z"/>
	<path d="M441.65,469.7c-0.24-0.16-0.42-0.32-0.64-0.48C441.14,469.5,441.32,469.7,441.65,469.7z"/>
	<path d="M440.93,468.97c-0.14,0.14-0.14,0.06,0.08,0.25C440.98,469.14,440.95,469.06,440.93,468.97z"/>
	<path d="M442.32,470.32c0.02,0.04,0.04,0.06,0.06,0.1C442.5,470.3,442.54,470.32,442.32,470.32z"/>
	<path d="M441.55,469.7c0.09,0.36,0.35,0.63,0.77,0.62C442.13,469.98,441.92,469.79,441.55,469.7z"/>
	<path d="M442.47,470.61c-0.01,0.52,0.32,0.54,0.74,0.54C443.31,471.15,442.95,471.04,442.47,470.61z"/>
	<path d="M442.48,470.42l-0.1,0.1C442.51,470.66,442.45,470.62,442.48,470.42z"/>
	<path d="M450.46,494.24c0.04-0.02,0.07-0.01,0.11-0.02C450.57,494.11,450.56,494.14,450.46,494.24z"/>
	<path d="M450.57,494.22c0.02,0.47,0.23,0.74,0.71,0.64C451.19,494.39,451,494.11,450.57,494.22z"/>
	<path d="M452.84,497.04l-0.1,0.1C452.9,497.11,452.84,497.21,452.84,497.04z"/>
	<path d="M452.85,497.14c0.03,0.46,0.24,0.71,0.71,0.62C453.38,497.39,453.25,497.11,452.85,497.14z"/>
	<path d="M430.47,545.82c0.1,0,0.21,0.1,0.31,0.1C430.78,545.92,430.68,545.82,430.47,545.82z"/>
	<path d="M321.83,544.89c0.1,0,0.21-0.41,0.1-0.62C321.83,544.47,321.11,544.37,321.83,544.89z"/>
	<path d="M378.89,523.66c-0.18,0-0.06-0.06-0.1,0.1L378.89,523.66z"/>
	<path d="M378.79,523.65c0.04-0.52-0.25-0.71-0.72-0.71C378.07,523.41,378.35,523.62,378.79,523.65z"/>
	<path d="M214.85,66.21l0.1-0.1C214.88,66.08,214.95,65.97,214.85,66.21z"/>
	<path d="M341.47,577.62c-1.87,0.13-3.67,0.62-5.04,1.34c-4.01,2.08-8.68-0.98-7.47,2.66c0,0.6,5.67,3.38,10.05,0.55
		c0.95-0.61,7.58-5.49,6.65-6.42C343.92,575.86,342.2,577.62,341.47,577.62z"/>
	<path d="M275.43,583.31c-1.09,3.26,3.68,1.66,6.84,0.41c4.73-1.87,4.06-3.72,5.28-4.65c3.75-2.88,3.32-2.55,3.32-5.2
		c-2.73,0.27-4.73,2.67-5.59,3.32c-0.4,0.79,0.19,1.56-0.32,2.07C282.28,581.09,279.94,581.07,275.43,583.31z"/>
	<path d="M259.79,578.55c-4.75,2.87-9.84,5.65-15.43,6.73c-1.28,0.25-3.01,4.55,10.87-1.97c1.44-0.68,2.69-1.78,3.22-2.49
		c4.6-5.49,6.38-4.84,5.39-6.42c-1.07,0.26-1.83,0.78-2.64,1.46C259.73,577.11,260.22,576.62,259.79,578.55z"/>
	<path d="M435.44,587.56c-2.2-1.43-1.17-1.54-10.05,0.1c0.54,0,4.07,1.02,8.49-0.21C434.93,588.28,434.93,588.28,435.44,587.56z"/>
	<path d="M341.51,586.74c0.21,0.3,0.21,0.61,0.41,0.82c0.95,0.95,4.46,0.44,5.76,0.06C351.97,586.37,349.93,586.74,341.51,586.74z"
		/>
	<path d="M221.06,554.73c2.08,0.46,3.47-0.31,5.18-1.66C223.55,552.65,222.62,552.97,221.06,554.73z"/>
	<path d="M363.77,590.66c0,1.33,5.57,0.75,7.15-1.14C367.76,590.49,363.46,589.71,363.77,590.66z"/>
	<path d="M352.49,593.15c-1.55,0-2.9,0-4.14,1.14C350.93,594.49,350.93,594.49,352.49,593.15z"/>
	<path d="M321.11,561.15c1.76,0.21,1.76,0.21,2.69-0.62C322.69,560.21,322.56,560.24,321.11,561.15z"/>
	<path d="M386.27,586.81c-0.41,0.14-0.8,0.43-1.58,1.07C390.55,586.52,386.6,586.7,386.27,586.81z"/>
	<path d="M357.17,592.23c2.05-0.01,6.42-2.41-1.37-0.11C356.31,592.2,356.75,592.23,357.17,592.23z"/>
	<path d="M440.31,584.55c-1.39-0.64-3.01-0.25-4.66,0C437.33,584.95,438.93,585.47,440.31,584.55z"/>
	<path d="M381.38,587.97c-1.55-0.31-2.8-0.31-4.66,0.31C379.41,588.8,379.41,588.8,381.38,587.97z"/>
	<path d="M416.93,589.27c3.01-0.31-4.51-2.13-1.05-0.24C416.21,589.21,416.55,589.31,416.93,589.27z"/>
	<path d="M463.51,586.83c-0.98-0.54-1.85-0.37-2.8,0.21C461.85,586.93,462.57,587.56,463.51,586.83z"/>
	<path d="M355.49,571.4c-0.59-0.08-1.12,0.05-1.45,0.62C355.28,572.23,355.28,572.23,355.49,571.4z"/>
	<path d="M348.65,573.89c0.72,0.62,1.24,0.1,1.66-0.41C349.59,572.95,348.96,572.85,348.65,573.89z"/>
	<path d="M423.43,587.56c-0.41-0.31-0.83-0.31-1.24,0C422.6,588.38,423.01,588.49,423.43,587.56z"/>
	<path d="M356.73,585.38c0.52,0.31,1.04,0.41,1.55,0C357.77,585.07,357.25,585.07,356.73,585.38z"/>
	<path d="M364.5,583.83c0.83,0.31,1.45,0.52,1.97-0.1C365.85,583.31,365.33,583.52,364.5,583.83z"/>
	<path d="M268.5,568.29c1.04,0.52,1.14-0.1,1.14-0.93C268.7,567.15,268.5,567.67,268.5,568.29z"/>
	<path d="M371.96,582.38c0.31,0.41,0.72,0.31,1.14,0.1C372.68,582.07,372.37,582.17,371.96,582.38z"/>
	<path d="M265.49,571.71c-0.34,0.85,1.11,0.28,0.52-0.31C265.91,571.5,265.6,571.5,265.49,571.71z"/>
	<path d="M290.96,573.89c0.59-0.19,0.98-0.23,0.98-0.61C291.94,572.47,291.09,573.34,290.96,573.89z"/>
	<path d="M299.36,570.47c0,0.79,1.35,0.26,0.83,0C299.89,570.17,299.68,570.15,299.36,570.47z"/>
	<path d="M303.09,570.67c0,0.14,0.4,0.33,0.62,0.1C303.71,570.26,303.09,570.5,303.09,570.67z"/>
	<path d="M239.7,554.31c0.31,0.21,0.52,0.41,0.83,0C240.22,553.9,240.02,553.9,239.7,554.31z"/>
	<path d="M235.35,553.59c0.39,0,0.34,0.03,0.21-0.1C235.17,553.48,235.22,553.46,235.35,553.59z"/>
	<path d="M378.17,580.82c-0.39,0-0.43-0.04,0,0.1C378.31,580.79,378.3,580.82,378.17,580.82z"/>
	<path d="M456.77,586.11c-0.56-0.56-0.89,0.1-0.31,0.1C456.57,586.21,456.67,586.11,456.77,586.11z"/>
	<path d="M267.42,548.86c-0.03-0.02-0.07-0.04-0.17-0.04C267.32,548.82,267.56,548.93,267.42,548.86z"/>
	<path d="M267.18,548.68c0.02,0,0.02,0.04,0.18,0.04C267.25,548.62,266.83,548.41,267.18,548.68z"/>
	<path d="M393.6,381.26c-2.38,2.38-2.9,5.39-5.07,7.35C391.08,391.74,393.25,385.67,393.6,381.26z"/>
	<path d="M397.64,346.98c-1.5-6.32-1.24-7.1-2.28-6.84C394.34,346.08,398.44,348.57,397.64,346.98z"/>
	<path d="M420.36,366.87c1.91,0.82,0.7-4.28-0.66-6.22C418.21,364.06,420.22,366.87,420.36,366.87z"/>
	<path d="M389.77,365.1c-1.86,0-3.94-1.76-5.39,0.93C385.24,368.6,388.28,365.89,389.77,365.1z"/>
	<path d="M410.99,302.12c1.21,0.2,2.09-4.99,2.29-6C411.88,297.44,409.94,301.95,410.99,302.12z"/>
	<path d="M422.18,375.46c-0.41-2.17-0.52-3.73-1.76-5.28C420.01,374.01,420.01,374.01,422.18,375.46z"/>
	<path d="M406.76,359.48c0.55,0.39-0.22-1.47-2.81-3.8C404.78,358.06,404.85,358.11,406.76,359.48z"/>
	<path d="M431.14,240.79c-0.61,0.01-1.46,1.22-0.16,3.35C431.31,242.92,432.62,240.77,431.14,240.79z"/>
	<path d="M398.78,351.64c0.26-1.29,0.15-2.1-1.14-2.49C397.95,350.08,397.54,351.22,398.78,351.64z"/>
	<path d="M416.07,289.4c-1.04,0.62-1.14,1.45-0.83,2.59C415.74,291.25,416.32,290.29,416.07,289.4z"/>
	<path d="M431.09,247.97c-0.62,0.21-0.93,0.62-0.93,1.24C431.4,249.32,431.5,249.32,431.09,247.97z"/>
	<path d="M423.53,265.26c-0.93,1.14-0.93,1.14-0.62,2.17C423.53,266.82,424.15,266.2,423.53,265.26z"/>
	<path d="M421.36,272.31c-1.14,1.04-1.14,1.04-0.62,2.07C421.25,273.86,421.87,273.24,421.36,272.31z"/>
	<path d="M418.35,280.9c-1.04,0.62-1.35,1.45-0.72,2.49C418.64,282.53,418.74,281.71,418.35,280.9z"/>
	<path d="M407.64,320.52l0.04,0.04c0-0.03-0.01-0.09,0-0.1l-0.01-0.01c0-0.13,0.03,0-0.09-0.08c0,0.01,0,0.03,0,0.1l0.01,0.01
		C407.59,320.6,407.61,320.55,407.64,320.52z"/>
	<path d="M430.99,235.02c0.45-0.55,0.55-1.2-0.1-2.07C430.26,233.78,430.16,234.4,430.99,235.02z"/>
	<path d="M409.15,310.84c0.9-0.6,0.57-1.8,0.71-2.81C408.89,308.81,409.19,309.86,409.15,310.84z"/>
	<path d="M409.09,311c-0.68,1.01-1.71,6.28-1.41,9.38C408.67,319.6,409.02,310.89,409.09,311z"/>
	<path d="M410.07,306.48c0,0.62-0.1,1.14-0.1,1.66C410.18,307.49,410.58,307.1,410.07,306.48z"/>
	<path d="M393.19,389.85c-0.13,0.29-0.2,0.5,0.1,0.93C393.66,390.42,393.64,390.13,393.19,389.85z"/>
	<path d="M398.36,354.43c0,0.84-0.05,0.41,0.41,0.41c-0.1-0.21-0.1-0.31-0.21-0.52C398.57,354.33,398.36,354.33,398.36,354.43z"/>
	<path d="M406.96,324.19L406.96,324.19c0-0.01,0,0,0.01-0.01c1.53-1.71,0.38-6.69,0.03-0.46c-0.01,0.24-0.05,0.38-0.07,0.44
		l-0.08-0.08C406.86,324.35,406.82,324.33,406.96,324.19z"/>
	<path d="M407,359.74c-0.28,0,0.24,0.52,0.57,0.58C407.53,359.94,407.36,359.77,407,359.74z"/>
	<path d="M407.69,360.34c-0.04,0-0.08-0.02-0.11-0.02C407.57,360.49,407.57,360.45,407.69,360.34z"/>
	<path d="M407.79,360.56c-0.05-0.04-0.11-0.08-0.21-0.12C407.69,360.54,408.06,360.78,407.79,360.56z"/>
	<path d="M393.6,167.29c0.1,0.31,0.31,0.62,0.41,0.93c1.76-0.41,1.76-0.41,2.69-2.9C394.95,165.33,394.12,166.05,393.6,167.29z"/>
	<path d="M414.93,64.45c-4.94-4.29-10.77-7.15-16.57-10.87c-1.49,3.59,12.2,7.15,19.26,19.16
		C420.14,76.26,424.26,72.55,414.93,64.45z"/>
	<path d="M418.35,26.65c-3.52-1.03-15.96,2.54-13.15,4.87c18.63-5.91,8.02,0.34,18.47,5.86c0.21,0.11,0.73-2.16-0.96-4.2
		C421.06,31.2,419.7,29.04,418.35,26.65z"/>
	<path d="M423.32,16.19c-2.85,0-4.95,1.67-10.86,2.9c-6.05,1.26-6.53,0.41-7.88,1.86C409.06,23.51,419.66,21.58,423.32,16.19z"/>
	<path d="M467.86,85.68c1.21,1.85,2.62-1.8-5.18-15.22C461.83,71.87,462.34,72.7,467.86,85.68z"/>
	<path d="M518.71,54.41c-2.19-1.21-2.24-2.11-2.34-1.8c-0.6,2.76-1.84,0.56-16.3,0.56c0.85,1.1-0.23,0.07,16.78,1.55
		C518.83,56.31,518.33,56.53,518.71,54.41z"/>
	<path d="M518.43,56c-0.03,0.2-0.07,0.21,0.07,0.06C518.48,56.05,518.45,56.02,518.43,56z"/>
	<path d="M516.43,52.34l-0.1,0.1C516.37,52.52,516.39,52.56,516.43,52.34z"/>
	<path d="M399.3,48.3c2.24,2.24,8.73,2.46,11.91,2.28C407.07,49.81,399.93,47.67,399.3,48.3z"/>
	<path d="M518.5,35.35c-1.7-2.55-6.82-4.63-6.44-4.26C513.08,32.64,517.84,35.35,518.5,35.35z"/>
	<path d="M511.91,30.95c0.11-0.11-0.05-0.11-0.05,0.05l0.01-0.01C511.97,30.99,511.94,30.98,511.91,30.95z"/>
	<path d="M446.21,52.96c2.93,0.38,5.43,0.07,7.89-0.14C456.37,52.62,448.12,52.24,446.21,52.96z"/>
	<path d="M398.82,29.91c-0.11-2.04-3.34,1.62-1.18,1.62C397.79,31.37,398.87,30.85,398.82,29.91z"/>
	<path d="M495.4,52.72c-2.11,0.14,5.19,0.62,4.48,0.26C498.65,52.34,497.28,52.6,495.4,52.72z"/>
	<path d="M535.48,55.86c1.24,0.1,2.38,0.1,3.62,0.21C537.97,55.24,536.73,55.55,535.48,55.86z"/>
	<path d="M541.65,56.21c-1.15-0.17-2.43-0.06-2.54-0.04C540.14,56.92,545,56.72,541.65,56.21z"/>
	<path d="M400.85,27.59c-0.72,0-1.55-0.93-1.97,0.31C399.61,28.21,400.23,27.69,400.85,27.59z"/>
	<path d="M509.52,29.45c0.23,0-0.4-1.44-2.09-1.44C507.43,28.56,508.07,29.43,509.52,29.45z"/>
	<path d="M509.59,29.55c0.02-0.02,0.09-0.08,0.1-0.1C509.44,29.45,509.59,29.42,509.59,29.55z"/>
	<path d="M510.44,30.56c1.99,1.29,1.63-1.01-0.85-1.01C509.85,30.06,510.13,30.36,510.44,30.56z"/>
	<path d="M531.96,54.93c0.41,0.1,0.83,0.1,1.24,0.1C533.2,54.89,533.4,54.93,531.96,54.93z"/>
	<path d="M463.2,44.88c-0.39-0.78-0.15-2.09-0.39-1.58C462.48,43.96,462.59,44.41,463.2,44.88z"/>
	<path d="M420.73,44.57c-0.26-0.32-0.53-0.45-0.78-0.42C418.71,44.25,419.76,45.94,420.73,44.57z"/>
	<path d="M463.98,48.98c0.72,0.92,0.65-0.86,0.3-1.32C463.37,46.48,463.75,48.68,463.98,48.98z"/>
	<path d="M464.44,49.44l0.1-0.1C464.41,49.29,464.48,49.24,464.44,49.44z"/>
	<path d="M463.09,45.07c0-0.03,0-0.05,0-0.08C462.93,45.15,463.14,45.21,463.09,45.07z"/>
	<path d="M463.1,45.16c0.18,3.74,1.36,1.52,0.38,0.33C463.18,45.12,463.1,45.26,463.1,45.16z"/>
	<path d="M505.97,27.29l-0.02,0.02C505.79,27.31,506.05,27.46,505.97,27.29z"/>
	<path d="M506.72,28.08c1.12,0.11,0.78-0.72-0.74-0.72C505.99,27.92,506.59,28.07,506.72,28.08z"/>
	<path d="M505.55,27.32c0.88-0.02,0.02-0.78-0.92-0.7C504.35,26.61,504.68,27.34,505.55,27.32z"/>
	<path d="M504.53,26.57C504.32,26.63,504.58,26.72,504.53,26.57L504.53,26.57z"/>
	<path d="M504.47,26.5c0.1-0.1,0.08-0.04-0.02-0.04C504.34,26.46,504.36,26.6,504.47,26.5z"/>
	<path d="M503.17,25.83c-0.06,0-0.14,0-0.21,0C503.32,27.35,505.7,25.86,503.17,25.83z"/>
	<path d="M530.3,46.54c0.1,0.21,0.21,0.41,0.21,0.31C530.51,46.85,530.51,46.64,530.3,46.54z"/>
	<path d="M514.16,49.55c0.02,0.48,0.15,0.88,0.52,1.23C514.97,51.06,514.7,50.05,514.16,49.55z"/>
	<path d="M514.16,49.55c0-0.28,0.01-0.24-0.11-0.11C514.07,49.46,514.16,49.55,514.16,49.55z"/>
	<path d="M464.76,49.74c0.21,0,0.24-0.3-0.21-0.3C464.53,49.44,464.66,49.74,464.76,49.74z"/>
	<path d="M409.45,72.12c0.43,0,0.56,0.45,0.4-0.02C409.81,71.92,409.79,71.78,409.45,72.12z"/>
	<path d="M513.27,48.76l-0.05,0.05C514.13,49.5,511.51,47.01,513.27,48.76z"/>
	<path d="M513.88,49.21c-0.97-0.51-0.16,0.04-0.02,0.08C514.39,49.46,513.98,49.26,513.88,49.21z"/>
	<path d="M516.22,52.44c0.06-0.06,0.07-0.07,0.1-0.1C516.13,52.34,516.17,52.25,516.22,52.44z"/>
	<path d="M516.17,52.32h0.01C515.87,51.09,514.93,52.12,516.17,52.32z"/>
	<path d="M514.97,51.05c-0.1,0-0.09-0.07,0.43,0.38C515.92,51.95,515.3,51.15,514.97,51.05z"/>
	<path d="M514.77,50.89c-0.16,0.16-0.15,0.07,0.17,0.14C514.88,50.98,514.83,50.93,514.77,50.89z"/>
	<path d="M522.95,39.08c0,0.05,0,0.07,0,0.1c0,0,0,0,0,0c0,0.23,0.03,0.41,0.25,0.52C524.02,40.13,523.69,39.08,522.95,39.08z"/>
	<path d="M518.63,35.5c-0.3-0.08,0.97,1.58,2.64,2.73c0.81,0.56,1.38,0.8,1.59,0.91C522.63,38.61,521.75,36.31,518.63,35.5z"/>
	<path d="M522.95,39.18c-0.02-0.01-0.06-0.03-0.08-0.04C522.92,39.26,522.94,39.29,522.95,39.18z"/>
	<path d="M519.22,56.89c0.04-0.04,0.03-0.03,0.1-0.1C519.06,56.64,519.12,56.59,519.22,56.89z"/>
	<path d="M518.74,56.25c-0.6-0.3-0.09,0.09,0.36,0.36C519.2,56.72,518.98,56.37,518.74,56.25z"/>
	<path d="M519.42,57.1c0.01-0.05,0-0.08-0.01-0.11C518.85,56.85,519.22,56.9,519.42,57.1z"/>
	<path d="M527.41,43.53c-0.12,0.12-0.14,0.1,0.01,0.1C527.42,43.6,527.41,43.58,527.41,43.53z"/>
	<path d="M527.66,43.67c-0.48-0.14-0.21,0.53,0.34,0.58C528.23,44.25,527.98,43.76,527.66,43.67z"/>
	<path d="M525.96,42.08c0,0.5,0.23,0.68,0.62,0.71C526.79,42.8,526.51,41.94,525.96,42.08z"/>
	<path d="M526.69,42.9c0-0.03-0.01-0.05-0.01-0.09C526.58,42.91,526.52,42.95,526.69,42.9z"/>
	<path d="M526.69,42.9c0,0.35,0.2,0.59,0.61,0.61C527.52,43.51,527.4,42.84,526.69,42.9z"/>
	<path d="M524.4,40.65c0,0.59,0.8,1.07,0.72,0.47C525.04,40.41,524.4,40.73,524.4,40.65z"/>
	<path d="M523.7,40.01c0.09,0.49,0.74,0.72,0.68,0.33C524.32,39.92,523.7,39.52,523.7,40.01z"/>
	<path d="M512.6,48.09v-0.1C512.45,47.84,512.47,47.83,512.6,48.09z"/>
	<path d="M502.83,25.72c0.04,0,0.18,0,0.23,0C502.56,25.39,502.69,25.72,502.83,25.72z"/>
	<path d="M530.36,46.49l0.05-0.05C528.86,44.88,530.18,46.67,530.36,46.49z"/>
	<path d="M529.68,45.71C528.4,44.85,529.19,45.55,529.68,45.71L529.68,45.71z"/>
	<path d="M528.96,44.98l-0.1,0.1C529.09,45.33,528.96,45.19,528.96,44.98z"/>
	<path d="M525.13,41.36c0,0.74,0.79,0.92,0.72,0.48C525.82,41.4,525.39,41.28,525.13,41.36z"/>
	<path d="M528.17,44.38c0.11,0.38,0.32,0.6,0.79,0.6C528.77,44.7,528.58,44.45,528.17,44.38z"/>
	<path d="M528.15,44.38c0.03,0-0.01-0.08-0.02-0.12C527.99,44.4,528,44.35,528.15,44.38z"/>
	<path d="M343.5,83.5c0.13-0.05,0.34-0.06,0.38-0.15c0.07-0.1,0-0.65-0.4,0.15c-0.74-0.15-3.87,1.55-6.53,1.87
		c-2.53,0.31-2.16,1.75-7.05,1.75c-1,0-2.18-0.31-3.11,0.52c0.24,0.96,0.33,1.52,0.87,1.78c7.07,3.37,10.03-0.03,15.4-4.67
		C343.69,83.92,343.77,83.57,343.5,83.5z"/>
	<path d="M283.72,84.24c-1.47,2.21,2.25,1.78-6.01,4.66c-12.44,4.34,4.87,5.25,7.56-2.49c3.19-1.96,3.3-1.93,4.84-6.23
		C290.15,80.07,284.97,82.63,283.72,84.24z"/>
	<path d="M256.69,86.62c-4.5,2.88-9.32,4.76-14.5,6.11c-2.41,0.8,2.41,3.12,11.81-2.38C257.74,88.15,258.34,85.56,256.69,86.62z"/>
	<path d="M424.43,94.87c-1.15,0.12,3.19,1.07,7.18,0.03c0.63-0.08,1.8,1.34,1.88,0.1C433.49,92.21,426.24,94.68,424.43,94.87z"/>
	<path d="M348.45,93.97c-4.31,0-10.39-0.28-8.18,0.83C341.87,96.4,349.3,93.97,348.45,93.97z"/>
	<path d="M224.58,60c-2.17,0.21-3.94,0.21-5.7,2.07C221.57,62.23,222.7,62,224.58,60z"/>
	<path d="M258.55,83.92c-0.6,0.45-0.24,0.88,0.41,1.24C265.54,80.56,261.05,81.43,258.55,83.92z"/>
	<path d="M361.6,97.49c1.28,1.92,4.17,1.06,6.11-0.1C365.74,97.28,363.67,97.28,361.6,97.49z"/>
	<path d="M346.58,101.63c1.66,0.41,2.9,0.31,4.25-1.04C349.17,100.49,347.93,100.49,346.58,101.63z"/>
	<path d="M354.82,99.2c-1.12,0.4,0.94,0.84,3.78-0.67C356.97,98,355.95,98.79,354.82,99.2z"/>
	<path d="M382.83,94.9c1.19,0.3,2.88-0.09,3.42-0.72C384.49,94.07,384.49,94.07,382.83,94.9z"/>
	<path d="M434.09,92c1.97,0.21,3.11,0.83,4.56-0.31C437.1,91.15,435.76,91.56,434.09,92z"/>
	<path d="M374.96,95.63c2.69,0.41,2.69,0.41,4.35-0.31C377.96,95.01,376.82,95.01,374.96,95.63z"/>
	<path d="M413.38,95.94c0.83,0.72,1.66,0.93,2.69,0.41C415.14,96.04,414.52,95.01,413.38,95.94z"/>
	<path d="M320.28,67.66c-0.1,0.07-0.99,0.71-0.84,0.76C322.39,69.35,322.75,67.05,320.28,67.66z"/>
	<path d="M365.02,91.17c-0.79-0.59-1.49-0.43-2.38,0C363.46,91.69,364.19,91.48,365.02,91.17z"/>
	<path d="M353.31,78.64c-2.55,0.85-0.21,1.45,0.37,0.69C354.21,78.67,353.44,78.58,353.31,78.64z"/>
	<path d="M459.26,94.18c0.93,0.31,1.66,0.52,2.59,0C460.92,93.56,460.19,93.76,459.26,94.18z"/>
	<path d="M348.34,80.82c-1.38-0.48-1.55-0.57-1.45,0.72C347.51,81.44,348.03,81.44,348.34,80.82z"/>
	<path d="M356.73,92.62c-0.54-0.22-1.14-0.2-1.76,0.1C355.49,92.86,355.93,93.01,356.73,92.62z"/>
	<path d="M298.11,77.5c-1.6,0-0.42,1.36,0.52,0.41C298.43,77.71,298.32,77.5,298.11,77.5z"/>
	<path d="M267.15,75.85c0.31-0.21,0.52-0.52,0.72-0.72C267.15,75.02,266.11,74.91,267.15,75.85z"/>
	<path d="M420.7,94.83c-0.34,0.36,0.86,1.25,0.86,0.07C421.19,94.62,420.91,94.62,420.7,94.83z"/>
	<path d="M370.33,89.55c-0.37,0.27-0.17,0.41,0.26,0.41C371.54,89.96,370.79,89.21,370.33,89.55z"/>
	<path d="M367.81,97.49c0.4-0.2,1.39-0.25,0.59-0.33C368.12,97.13,367.97,97.34,367.81,97.49z"/>
	<path d="M376.07,88.21c-0.22-0.05-0.18-0.07-0.18,0.06C376.44,88.27,376.39,88.29,376.07,88.21z"/>
	<path d="M263.94,78.64c-0.21,0.31-0.41,0.52,0,0.83C264.35,79.26,264.35,78.95,263.94,78.64z"/>
	<path d="M238.05,61.55c0.31,0.41,0.62,0.41,0.83,0.1C238.67,61.24,238.36,61.24,238.05,61.55z"/>
	<path d="M233.59,60.93c-0.1,0-0.31,0-0.52-0.1C233.28,60.93,233.39,60.93,233.59,60.93z"/>
	<path d="M265.39,55.96l0.1,0.31C265.62,55.88,265.66,55.96,265.39,55.96z"/>
	<path d="M301.53,78.02c0.4,0,0.34,0.05,0.21-0.21L301.53,78.02z"/>
	<path d="M215.61,66.44C215.94,66.81,215.74,66.52,215.61,66.44L215.61,66.44z"/>
	<path d="M454.5,93.45c0.08,0,0.23,0,0.31,0C454.42,93.19,454.5,93.18,454.5,93.45z"/>
	<path d="M252.84,18.9c2.61-0.73,5.22-2.02,12.03-3.53c16.65-3.69,27.15,1.77,24.75-0.62c-0.24-0.24-0.68-0.63-0.85-0.63
		C271.84,7.09,242.03,21.92,252.84,18.9z"/>
	<path d="M309.61,21.99c7.26,3.83,7.61,7.41,10.25,10.67c1.01,1.25,3,2.12,3,1.86c-0.02-3.89-1.62-3.52-5.07-8.29
		c-2.23-3.07-5.9-5.49-9.73-6.73C307.23,21.17,306.48,19.29,309.61,21.99z"/>
	<path d="M360.03,20.43c1.18,0.06,6.76-0.61,12.76,1.77c3.72,1.48,2.35-4.41-9.83-4.25C357.55,18.03,357.32,20.3,360.03,20.43z"/>
	<path d="M355.19,18.99c-3.87-1.25-23.93-5.27-25.48-1.55C340.49,16.59,355.08,18.97,355.19,18.99z"/>
	<path d="M383.04,21.16c-2.63-1.06-5.39-1.84-6.84,0.52C378.39,22.61,380.35,21.16,383.04,21.16z"/>
	<path d="M314.79,57.2c1.66,1.29,3.68-1.05,2.91-2.49C316.76,55.55,315.51,55.86,314.79,57.2z"/>
	<path d="M325.56,18.53c1.61-0.01,4.95-1.64,1.47-1.45C326.48,17.08,321.16,18.56,325.56,18.53z"/>
	<path d="M372.37,43.33c1.03-0.14,1.82-0.19,2.22-0.8C376.36,39.82,373.05,41.11,372.37,43.33z"/>
	<path d="M308.57,42.6c-0.03-0.31,0.02-0.51,0.08-0.83C309.24,38.91,306.4,41.23,308.57,42.6z"/>
	<path d="M366.67,46.89c-0.56,0.69,1.12,1.35,1.86-1.08C367.72,46.28,367.19,46.26,366.67,46.89z"/>
	<path d="M339.95,44.05c1.5,1.1,1.87,0.53,1.04-0.31C340.6,43.47,340.2,43.53,339.95,44.05z"/>
	<path d="M322.45,48.51c-1.23-0.61-0.92,1.75,0.1,0.31C322.56,48.71,322.56,48.51,322.45,48.51z"/>
	<path d="M379.12,39.47c0.29,0.03,0.42-0.16,0.5-0.39C379.01,39.39,378.4,39.41,379.12,39.47z"/>
	<path d="M319.86,51.92c0.17,0.17,0.23,0.37,0.52-0.21C320.17,51.51,320.27,51.11,319.86,51.92z"/>
	<path d="M362.12,49.85c0.27,0,0.23,0.05,0.1-0.21L362.12,49.85z"/>
	<path d="M326.48,58.31c0,0.04,0.22-0.11,0.22-0.28C326.7,57.85,326.38,57.89,326.48,58.31z"/>
	<path d="M326.19,58.33c-0.18,0.01-0.34,0.07-0.11,0.53C326.42,58.18,326.52,58.39,326.19,58.33z"/>
<path fill="#e6e6e6" d="m206.8 163.6c0-5.1 4.1-9.2 9.3-9.2s9.2 4.2 9.2 9.2-4.1 9.2-9.3 9.2-9.2-4.1-9.2-9.2zm17.3-.1c0-4.5-3.5-8.2-8.2-8.2s-8.2 3.7-8.2 8.3c0 4.5 3.5 8.2 8.2 8.2s8.2-3.7 8.2-8.3zm-13 0c0-2.8 2.1-5.1 5.1-5.1 1.9 0 2.9.6 3.9 1.5l-1.4 1.7c-.8-.7-1.5-1.1-2.5-1.1-1.7 0-2.8 1.4-2.8 3.1s1.1 3 2.8 3c1.1 0 1.7-.5 2.5-1.1l1.4 1.4c-1.1 1.1-2.1 1.7-4 1.7-2.9 0-5-2.3-5-5.1z"/><path fill="#e6e6e6" d="m226.6 154.7h3.4l4.2 13.2 4.4-13.3h2.6l4.4 13.3 4.2-13.2h3.3l-6.2 18h-2.7l-4.4-12.8-4.4 12.8h-2.7z"/><path fill="#e6e6e6" d="m252.8 165.8c0-3.9 3.1-7 7.2-7 4.2 0 7.2 3.2 7.2 7s-3.1 7-7.3 7c-4 0-7.1-3.1-7.1-7zm11.3 0c0-2.3-1.7-4.3-4.2-4.3s-4.1 2-4.1 4.3 1.7 4.3 4.1 4.3c2.7.1 4.2-1.9 4.2-4.3z"/><path fill="#e6e6e6" d="m269.5 159.1h3.1v3c.8-2 2.4-3.4 4.8-3.3v3.2h-.2c-2.7 0-4.6 1.7-4.6 5.4v5.1h-3.1z"/><path fill="#e6e6e6" d="m279.1 153.9h3.1v11.1l5.6-6h3.8l-5.4 5.5 5.5 8h-3.5l-4.1-5.8-1.9 2v3.9h-3.1z"/><path fill="#e6e6e6" d="m291.7 165.8c0-3.9 3.1-7 7.2-7 4.2 0 7.2 3.2 7.2 7s-3.1 7-7.3 7c-4 0-7.1-3.1-7.1-7zm11.3 0c0-2.3-1.7-4.3-4.2-4.3s-4.1 2-4.1 4.3 1.7 4.3 4.1 4.3c2.6.1 4.2-1.9 4.2-4.3z"/><path fill="#e6e6e6" d="m308.2 167.6v-8.6h3.1v7.6c0 2.1 1.1 3.3 2.9 3.3s3-1.3 3-3.3v-7.6h3.1v13.4h-3.1v-2.1c-.8 1.3-2.1 2.3-4.2 2.3-3.1.2-4.8-1.8-4.8-5z"/><path fill="#e6e6e6" d="m323.9 168.8v-7.1h-1.7v-2.6h1.7v-3.7h3.1v3.7h3.6v2.6h-3.6v6.6c0 1.2.6 1.7 1.7 1.7.7 0 1.3-.2 1.9-.5v2.5c-.8.5-1.7.7-2.8.7-2.3 0-3.9-.9-3.9-3.9z"/><path fill="#e6e6e6" d="m333.2 154.7h3.2v15h9.4v2.9h-12.5v-17.9z"/><path fill="#e6e6e6" d="m356 172.5v-1.7c-.9 1.1-2.3 2-4.4 2-2.6 0-4.8-1.4-4.8-4.2 0-3 2.3-4.4 5.4-4.4 1.7 0 2.6.2 3.7.5v-.2c0-1.9-1.2-2.9-3.3-2.9-1.5 0-2.6.3-3.9.8l-.8-2.5c1.5-.7 2.9-1.1 5.1-1.1 4 0 5.9 2.1 5.9 5.7v8zm.1-5.6c-.8-.3-1.9-.5-3.1-.5-2 0-3.1.8-3.1 2.1s1.1 2 2.6 2c2 0 3.5-1.1 3.5-2.9z"/><path fill="#e6e6e6" d="m364.9 170.5v2.1h-3.1v-18.7h3.1v7.4c1-1.4 2.4-2.5 4.5-2.5 3.2 0 6.3 2.5 6.3 7s-3.1 7-6.3 7c-2.1 0-3.5-1.1-4.5-2.3zm7.7-4.7c0-2.6-1.7-4.3-3.9-4.3s-3.9 1.7-3.9 4.4c0 2.6 1.8 4.3 3.9 4.3s3.9-1.7 3.9-4.4z"/><path fill="#e6e6e6" d="m376.9 170.8 1.4-2.1c1.4 1.1 3 1.7 4.4 1.7s2.1-.5 2.1-1.5-1.3-1.4-2.8-1.8c-.1 0-.2-.1-.2-.1-2-.6-4.2-1.4-4.2-4s2.1-4.1 4.8-4.1c1.7 0 3.5.6 5 1.5l-1.2 2.2c-1.3-.8-2.6-1.3-3.8-1.3s-1.9.5-1.9 1.4 1.3 1.4 2.8 1.8c.1 0 .2.1.2.1 2 .6 4.2 1.5 4.2 4 0 2.9-2.2 4.2-5 4.2-1.9 0-4-.7-5.8-2z"/><path fill="#e6e6e6" d="m505.6 163.6c0-5.1 4.1-9.2 9.3-9.2s9.2 4.2 9.2 9.2-4.1 9.2-9.3 9.2-9.2-4.1-9.2-9.2zm17.4-.1c0-4.5-3.5-8.2-8.2-8.2s-8.2 3.7-8.2 8.3c0 4.5 3.5 8.2 8.2 8.2s8.2-3.7 8.2-8.3zm-13.1 0c0-2.8 2.1-5.1 5.1-5.1 1.9 0 2.9.6 3.9 1.5l-1.4 1.7c-.8-.7-1.5-1.1-2.5-1.1-1.7 0-2.8 1.4-2.8 3.1s1.1 3 2.8 3c1.1 0 1.7-.5 2.5-1.1l1.4 1.4c-1.1 1.1-2.1 1.7-4 1.7-2.9 0-5-2.3-5-5.1z"/><path fill="#e6e6e6" d="m525.4 154.7h3.4l4.2 13.2 4.4-13.3h2.6l4.4 13.3 4.2-13.2h3.3l-6.2 18h-2.7l-4.4-12.8-4.4 12.8h-2.7z"/><path fill="#e6e6e6" d="m551.7 165.8c0-3.9 3.1-7 7.2-7 4.2 0 7.2 3.2 7.2 7s-3.1 7-7.3 7c-4.1 0-7.1-3.1-7.1-7zm11.2 0c0-2.3-1.7-4.3-4.2-4.3s-4.1 2-4.1 4.3 1.7 4.3 4.1 4.3c2.7.1 4.2-1.9 4.2-4.3z"/><path fill="#e6e6e6" d="m568.3 159.1h3.1v3c.8-2 2.4-3.4 4.8-3.3v3.2h-.2c-2.7 0-4.6 1.7-4.6 5.4v5.1h-3.1z"/><path fill="#e6e6e6" d="m577.9 153.9h3.1v11.1l5.6-6h3.8l-5.4 5.5 5.5 8h-3.5l-4.1-5.8-1.9 2v3.9h-3.1z"/><path fill="#e6e6e6" d="m590.6 165.8c0-3.9 3.1-7 7.2-7 4.2 0 7.2 3.2 7.2 7s-3.1 7-7.3 7c-4.1 0-7.1-3.1-7.1-7zm11.2 0c0-2.3-1.7-4.3-4.2-4.3s-4.1 2-4.1 4.3 1.7 4.3 4.1 4.3c2.6.1 4.2-1.9 4.2-4.3z"/><path fill="#e6e6e6" d="m607 167.6v-8.6h3.1v7.6c0 2.1 1.1 3.3 2.9 3.3s3-1.3 3-3.3v-7.6h3.1v13.4h-3.1v-2.1c-.8 1.3-2.1 2.3-4.2 2.3-3 .2-4.8-1.8-4.8-5z"/><path fill="#e6e6e6" d="m622.7 168.8v-7.1h-1.7v-2.6h1.7v-3.7h3.1v3.7h3.6v2.6h-3.6v6.6c0 1.2.6 1.7 1.7 1.7.7 0 1.3-.2 1.9-.5v2.5c-.8.5-1.7.7-2.8.7-2.3 0-3.9-.9-3.9-3.9z"/><path fill="#e6e6e6" d="m632 154.7h3.2v15h9.4v2.9h-12.6z"/><path fill="#e6e6e6" d="m654.8 172.5v-1.7c-.9 1.1-2.3 2-4.4 2-2.6 0-4.8-1.4-4.8-4.2 0-3 2.3-4.4 5.4-4.4 1.7 0 2.6.2 3.7.5v-.2c0-1.9-1.2-2.9-3.3-2.9-1.5 0-2.6.3-3.9.8l-.8-2.5c1.5-.7 2.9-1.1 5.1-1.1 4 0 5.9 2.1 5.9 5.7v8zm.1-5.6c-.8-.3-1.9-.5-3.1-.5-2 0-3.1.8-3.1 2.1s1.1 2 2.6 2c2 0 3.5-1.1 3.5-2.9z"/><path fill="#e6e6e6" d="m663.7 170.5v2.1h-3.1v-18.7h3.1v7.4c1-1.4 2.4-2.5 4.5-2.5 3.2 0 6.3 2.5 6.3 7s-3.1 7-6.3 7c-2.1 0-3.5-1.1-4.5-2.3zm7.8-4.7c0-2.6-1.7-4.3-3.9-4.3-2.1 0-3.9 1.7-3.9 4.4 0 2.6 1.8 4.3 3.9 4.3s3.9-1.7 3.9-4.4z"/><path fill="#e6e6e6" d="m675.8 170.8 1.4-2.1c1.4 1.1 3 1.7 4.4 1.7s2.1-.5 2.1-1.5-1.3-1.4-2.8-1.8c-.1 0-.2-.1-.2-.1-2-.6-4.2-1.4-4.2-4s2.1-4.1 4.8-4.1c1.7 0 3.5.6 5 1.5l-1.2 2.2c-1.3-.8-2.6-1.3-3.8-1.3s-1.9.5-1.9 1.4 1.3 1.4 2.8 1.8c.1 0 .2.1.2.1 2 .6 4.2 1.5 4.2 4 0 2.9-2.2 4.2-5 4.2-2 0-4.1-.7-5.8-2z"/><path fill="#e6e6e6" d="m61 298.6c0-5.1 4.1-9.2 9.3-9.2s9.2 4.2 9.2 9.2-4.1 9.2-9.3 9.2c-5.1 0-9.2-4.2-9.2-9.2zm17.4-.1c0-4.5-3.5-8.2-8.2-8.2s-8.2 3.7-8.2 8.3c0 4.5 3.5 8.2 8.2 8.2s8.2-3.7 8.2-8.3zm-13.1-.1c0-2.8 2.1-5.1 5.1-5.1 1.9 0 2.9.6 3.9 1.5l-1.4 1.7c-.8-.7-1.5-1.1-2.5-1.1-1.7 0-2.8 1.4-2.8 3.1s1.1 3 2.8 3c1.1 0 1.7-.5 2.5-1.1l1.4 1.4c-1.1 1.1-2.1 1.7-4 1.7-2.8.1-5-2.2-5-5.1z"/><path fill="#e6e6e6" d="m80.9 289.7h3.4l4.2 13.2 4.4-13.3h2.6l4.4 13.3 4.2-13.2h3.3l-6.2 18h-2.7l-4.4-12.8-4.4 12.8h-2.7z"/><path fill="#e6e6e6" d="m107.1 300.8c0-3.9 3.1-7 7.2-7s7.2 3.2 7.2 7-3.1 7-7.3 7c-4 0-7.1-3.1-7.1-7zm11.3 0c0-2.3-1.7-4.3-4.2-4.3s-4.1 2-4.1 4.3 1.7 4.3 4.1 4.3c2.6.1 4.2-1.9 4.2-4.3z"/><path fill="#e6e6e6" d="m123.7 294h3.1v3c.8-2 2.4-3.4 4.8-3.3v3.2h-.2c-2.7 0-4.6 1.7-4.6 5.4v5.1h-3.1z"/><path fill="#e6e6e6" d="m133.4 288.9h3.1v11.1l5.6-6h3.8l-5.4 5.5 5.5 8h-3.5l-4.1-5.8-1.9 1.9v3.9h-3.1z"/><path fill="#e6e6e6" d="m146 300.8c0-3.9 3.1-7 7.2-7s7.2 3.2 7.2 7-3.1 7-7.3 7c-4.1 0-7.1-3.1-7.1-7zm11.2 0c0-2.3-1.7-4.3-4.2-4.3s-4.1 2-4.1 4.3 1.7 4.3 4.1 4.3c2.6.1 4.2-1.9 4.2-4.3z"/><path fill="#e6e6e6" d="m162.4 302.6v-8.6h3.1v7.6c0 2.1 1.1 3.3 2.9 3.3s3-1.3 3-3.3v-7.6h3.1v13.4h-3.1v-2.1c-.8 1.3-2.1 2.3-4.2 2.3-3 .2-4.8-1.8-4.8-5z"/><path fill="#e6e6e6" d="m178.1 303.8v-7.1h-1.7v-2.7h1.7v-3.7h3.1v3.7h3.6v2.6h-3.6v6.6c0 1.2.6 1.7 1.7 1.7.7 0 1.3-.2 1.9-.5v2.5c-.8.5-1.7.7-2.8.7-2.3.1-3.9-.9-3.9-3.8z"/><path fill="#e6e6e6" d="m187.4 289.7h3.2v15h9.4v2.9h-12.5v-17.9z"/><path fill="#e6e6e6" d="m210.2 307.5v-1.7c-.9 1.1-2.3 2-4.4 2-2.6 0-4.8-1.4-4.8-4.2 0-3 2.3-4.4 5.4-4.4 1.7 0 2.6.2 3.7.5v-.2c0-1.9-1.2-2.9-3.3-2.9-1.5 0-2.6.3-3.9.8l-.8-2.5c1.5-.7 2.9-1.1 5.1-1.1 4 0 5.9 2.1 5.9 5.7v8zm.1-5.6c-.8-.3-1.9-.5-3.1-.5-2 0-3.1.8-3.1 2.1s1.1 2 2.6 2c2 0 3.5-1.1 3.5-2.9z"/><path fill="#e6e6e6" d="m219.2 305.5v2.1h-3.1v-18.7h3.1v7.4c1-1.4 2.4-2.5 4.5-2.5 3.2 0 6.3 2.5 6.3 7s-3.1 7-6.3 7c-2.2 0-3.6-1.1-4.5-2.3zm7.7-4.7c0-2.6-1.7-4.3-3.9-4.3s-3.9 1.7-3.9 4.4c0 2.6 1.8 4.3 3.9 4.3s3.9-1.7 3.9-4.4z"/><path fill="#e6e6e6" d="m231.2 305.8 1.4-2.1c1.4 1.1 3 1.7 4.4 1.7s2.1-.5 2.1-1.5-1.3-1.4-2.8-1.8c-.1 0-.2-.1-.2-.1-2-.6-4.2-1.4-4.2-4s2.1-4.1 4.8-4.1c1.7 0 3.5.6 5 1.5l-1.2 2.2c-1.3-.8-2.6-1.3-3.8-1.3s-1.9.5-1.9 1.4 1.3 1.4 2.8 1.8c.1 0 .2.1.2.1 2 .6 4.2 1.5 4.2 4 0 2.9-2.2 4.2-5 4.2-2 0-4.1-.7-5.8-2z"/><path fill="#e6e6e6" d="m360.6 298.6c0-5.1 4.1-9.2 9.3-9.2s9.2 4.2 9.2 9.2-4.1 9.2-9.3 9.2-9.2-4.2-9.2-9.2zm17.4-.1c0-4.5-3.5-8.2-8.2-8.2s-8.2 3.7-8.2 8.3c0 4.5 3.5 8.2 8.2 8.2s8.2-3.7 8.2-8.3zm-13.1-.1c0-2.8 2.1-5.1 5.1-5.1 1.9 0 2.9.6 3.9 1.5l-1.4 1.7c-.8-.7-1.5-1.1-2.5-1.1-1.7 0-2.8 1.4-2.8 3.1s1.1 3 2.8 3c1.1 0 1.7-.5 2.5-1.1l1.4 1.4c-1.1 1.1-2.1 1.7-4 1.7-2.8.1-5-2.2-5-5.1z"/><path fill="#e6e6e6" d="m380.5 289.7h3.4l4.2 13.2 4.4-13.3h2.6l4.4 13.3 4.2-13.2h3.3l-6.2 18h-2.7l-4.4-12.8-4.4 12.8h-2.7z"/><path fill="#e6e6e6" d="m406.7 300.8c0-3.9 3.1-7 7.2-7 4.2 0 7.2 3.2 7.2 7s-3.1 7-7.3 7c-4.1 0-7.1-3.1-7.1-7zm11.3 0c0-2.3-1.7-4.3-4.2-4.3s-4.1 2-4.1 4.3 1.7 4.3 4.1 4.3c2.7.1 4.2-1.9 4.2-4.3z"/><path fill="#e6e6e6" d="m423.3 294h3.1v3c.8-2 2.4-3.4 4.8-3.3v3.2h-.2c-2.7 0-4.6 1.7-4.6 5.4v5.1h-3.1z"/><path fill="#e6e6e6" d="m433 288.9h3.1v11.1l5.6-6h3.8l-5.4 5.5 5.5 8h-3.5l-4.1-5.8-1.9 2v3.9h-3.1z"/><path fill="#e6e6e6" d="m445.6 300.8c0-3.9 3.1-7 7.2-7 4.2 0 7.2 3.2 7.2 7s-3.1 7-7.3 7c-4.1 0-7.1-3.1-7.1-7zm11.3 0c0-2.3-1.7-4.3-4.2-4.3s-4.1 2-4.1 4.3 1.7 4.3 4.1 4.3c2.6.1 4.2-1.9 4.2-4.3z"/><path fill="#e6e6e6" d="m462.1 302.6v-8.6h3.1v7.6c0 2.1 1.1 3.3 2.9 3.3s3-1.3 3-3.3v-7.6h3.1v13.4h-3.1v-2.1c-.8 1.3-2.1 2.3-4.2 2.3-3.1.2-4.8-1.8-4.8-5z"/><path fill="#e6e6e6" d="m477.8 303.8v-7.1h-1.8v-2.7h1.7v-3.7h3.1v3.7h3.6v2.6h-3.6v6.6c0 1.2.6 1.7 1.7 1.7.7 0 1.3-.2 1.9-.5v2.5c-.8.5-1.7.7-2.8.7-2.2.1-3.8-.9-3.8-3.8z"/><path fill="#e6e6e6" d="m487.1 289.7h3.2v15h9.4v2.9h-12.5v-17.9z"/><path fill="#e6e6e6" d="m509.9 307.5v-1.7c-.9 1.1-2.3 2-4.4 2-2.6 0-4.8-1.4-4.8-4.2 0-3 2.3-4.4 5.4-4.4 1.7 0 2.6.2 3.7.5v-.2c0-1.9-1.2-2.9-3.3-2.9-1.5 0-2.6.3-3.9.8l-.8-2.5c1.5-.7 2.9-1.1 5.1-1.1 4 0 5.9 2.1 5.9 5.7v8zm.1-5.6c-.8-.3-1.9-.5-3.1-.5-2 0-3.1.8-3.1 2.1s1.1 2 2.6 2c2 0 3.5-1.1 3.5-2.9z"/><path fill="#e6e6e6" d="m518.8 305.5v2.1h-3.1v-18.7h3.1v7.4c1-1.4 2.4-2.5 4.5-2.5 3.2 0 6.3 2.5 6.3 7s-3.1 7-6.3 7c-2.2 0-3.5-1.1-4.5-2.3zm7.7-4.7c0-2.6-1.7-4.3-3.9-4.3s-3.9 1.7-3.9 4.4c0 2.6 1.8 4.3 3.9 4.3s3.9-1.7 3.9-4.4z"/><path fill="#e6e6e6" d="m530.8 305.8 1.4-2.1c1.4 1.1 3 1.7 4.4 1.7s2.1-.5 2.1-1.5-1.3-1.4-2.8-1.8c-.1 0-.2-.1-.2-.1-2-.6-4.2-1.4-4.2-4s2.1-4.1 4.8-4.1c1.7 0 3.5.6 5 1.5l-1.2 2.2c-1.3-.8-2.6-1.3-3.8-1.3s-1.9.5-1.9 1.4 1.3 1.4 2.8 1.8c.1 0 .2.1.2.1 2 .6 4.2 1.5 4.2 4 0 2.9-2.2 4.2-5 4.2-1.9 0-4.1-.7-5.8-2z"/><path fill="#e6e6e6" d="m659.5 298.6c0-5.1 4.1-9.2 9.3-9.2s9.2 4.2 9.2 9.2-4.1 9.2-9.3 9.2-9.2-4.2-9.2-9.2zm17.3-.1c0-4.5-3.5-8.2-8.2-8.2s-8.2 3.7-8.2 8.3c0 4.5 3.5 8.2 8.2 8.2 4.8 0 8.2-3.7 8.2-8.3zm-13-.1c0-2.8 2.1-5.1 5.1-5.1 1.9 0 2.9.6 3.9 1.5l-1.4 1.7c-.8-.7-1.5-1.1-2.5-1.1-1.7 0-2.8 1.4-2.8 3.1s1.1 3 2.8 3c1.1 0 1.7-.5 2.5-1.1l1.4 1.4c-1.1 1.1-2.1 1.7-4 1.7-2.9.1-5-2.2-5-5.1z"/><path fill="#e6e6e6" d="m679.3 289.7h3.4l4.2 13.2 4.4-13.3h2.6l4.4 13.3 4.2-13.2h3.3l-6.2 18h-2.6l-4.4-12.8-4.4 12.8h-2.7z"/><path fill="#e6e6e6" d="m705.5 300.8c0-3.9 3.1-7 7.2-7 4.2 0 7.2 3.2 7.2 7s-3.1 7-7.3 7c-4 0-7.1-3.1-7.1-7zm11.3 0c0-2.3-1.7-4.3-4.2-4.3s-4.1 2-4.1 4.3 1.7 4.3 4.1 4.3c2.7.1 4.2-1.9 4.2-4.3z"/><path fill="#e6e6e6" d="m722.1 294h3.1v3c.8-2 2.4-3.4 4.8-3.3v3.2h-.2c-2.7 0-4.6 1.7-4.6 5.4v5.1h-3.1z"/><path fill="#e6e6e6" d="m731.8 288.9h3.1v11.1l5.6-6h3.8l-5.4 5.5 5.5 8h-3.5l-4.1-5.8-1.9 2v3.9h-3.1z"/><path fill="#e6e6e6" d="m744.4 300.8c0-3.9 3.1-7 7.2-7 4.2 0 7.2 3.2 7.2 7s-3.1 7-7.3 7c-4.1 0-7.1-3.1-7.1-7zm11.3 0c0-2.3-1.7-4.3-4.2-4.3s-4.1 2-4.1 4.3 1.7 4.3 4.1 4.3c2.6.1 4.2-1.9 4.2-4.3z"/><path fill="#e6e6e6" d="m760.9 302.6v-8.6h3.1v7.6c0 2.1 1.1 3.3 2.9 3.3s3-1.3 3-3.3v-7.6h3.1v13.4h-3.1v-2.1c-.8 1.3-2.1 2.3-4.2 2.3-3.1.2-4.8-1.8-4.8-5z"/><path fill="#e6e6e6" d="m776.6 303.8v-7.1h-1.7v-2.7h1.7v-3.7h3.1v3.7h3.6v2.6h-3.6v6.6c0 1.2.6 1.7 1.7 1.7.7 0 1.3-.2 1.9-.5v2.5c-.8.5-1.7.7-2.8.7-2.3.1-3.9-.9-3.9-3.8z"/><path fill="#e6e6e6" d="m785.9 289.7h3.2v15h9.4v2.9h-12.5v-17.9z"/><path fill="#e6e6e6" d="m808.7 307.5v-1.7c-.9 1.1-2.3 2-4.4 2-2.6 0-4.8-1.4-4.8-4.2 0-3 2.3-4.4 5.4-4.4 1.7 0 2.6.2 3.7.5v-.2c0-1.9-1.2-2.9-3.3-2.9-1.5 0-2.6.3-3.9.8l-.8-2.5c1.5-.7 2.9-1.1 5.1-1.1 4 0 5.9 2.1 5.9 5.7v8zm.1-5.6c-.8-.3-1.9-.5-3.1-.5-2 0-3.1.8-3.1 2.1s1.1 2 2.6 2c2 0 3.5-1.1 3.5-2.9z"/><path fill="#e6e6e6" d="m817.6 305.5v2.1h-3.1v-18.7h3.1v7.4c1-1.4 2.4-2.5 4.5-2.5 3.2 0 6.3 2.5 6.3 7s-3.1 7-6.3 7c-2.1 0-3.5-1.1-4.5-2.3zm7.7-4.7c0-2.6-1.7-4.3-3.9-4.3-2.1 0-3.9 1.7-3.9 4.4 0 2.6 1.8 4.3 3.9 4.3 2.2 0 3.9-1.7 3.9-4.4z"/><path fill="#e6e6e6" d="m829.6 305.8 1.4-2.1c1.4 1.1 3 1.7 4.4 1.7s2.1-.5 2.1-1.5-1.3-1.4-2.8-1.8c-.1 0-.2-.1-.2-.1-2-.6-4.2-1.4-4.2-4s2.1-4.1 4.8-4.1c1.7 0 3.5.6 5 1.5l-1.2 2.2c-1.3-.8-2.6-1.3-3.8-1.3s-1.9.5-1.9 1.4 1.3 1.4 2.8 1.8c.1 0 .2.1.2.1 2 .6 4.2 1.5 4.2 4 0 2.9-2.2 4.2-5 4.2-1.9 0-4-.7-5.8-2z"/><path fill="#e6e6e6" d="m206.3 434.2c0-5.1 4.1-9.2 9.3-9.2s9.2 4.2 9.2 9.2-4.1 9.2-9.3 9.2-9.2-4.1-9.2-9.2zm17.4-.1c0-4.5-3.5-8.2-8.2-8.2s-8.2 3.7-8.2 8.3c0 4.5 3.5 8.2 8.2 8.2s8.2-3.7 8.2-8.3zm-13.1-.1c0-2.8 2.1-5.1 5.1-5.1 1.9 0 2.9.6 3.9 1.5l-1.4 1.7c-.8-.7-1.5-1.1-2.5-1.1-1.7 0-2.8 1.4-2.8 3.1s1.1 3 2.8 3c1.1 0 1.7-.5 2.5-1.1l1.4 1.4c-1.1 1.1-2.1 1.7-4 1.7-2.9.1-5-2.2-5-5.1z"/><path fill="#e6e6e6" d="m226.1 425.3h3.4l4.2 13.2 4.4-13.3h2.6l4.4 13.3 4.2-13.2h3.3l-6.2 18h-2.7l-4.4-12.8-4.4 12.8h-2.7z"/><path fill="#e6e6e6" d="m252.4 436.4c0-3.9 3.1-7 7.2-7 4.2 0 7.2 3.2 7.2 7s-3.1 7-7.3 7c-4.1 0-7.1-3.1-7.1-7zm11.2 0c0-2.3-1.7-4.3-4.2-4.3s-4.1 2-4.1 4.3 1.7 4.3 4.1 4.3c2.7.1 4.2-1.9 4.2-4.3z"/><path fill="#e6e6e6" d="m269 429.7h3.1v3c.8-2 2.4-3.4 4.8-3.3v3.2h-.2c-2.7 0-4.6 1.7-4.6 5.4v5.1h-3.1z"/><path fill="#e6e6e6" d="m278.6 424.5h3.1v11.1l5.6-6h3.8l-5.4 5.5 5.5 8h-3.5l-4.1-5.8-1.9 2v3.9h-3.1z"/><path fill="#e6e6e6" d="m291.3 436.4c0-3.9 3.1-7 7.2-7 4.2 0 7.2 3.2 7.2 7s-3.1 7-7.3 7c-4.1 0-7.1-3.1-7.1-7zm11.2 0c0-2.3-1.7-4.3-4.2-4.3s-4.1 2-4.1 4.3 1.7 4.3 4.1 4.3c2.6.1 4.2-1.9 4.2-4.3z"/><path fill="#e6e6e6" d="m307.7 438.2v-8.6h3.1v7.6c0 2.1 1.1 3.3 2.9 3.3s3-1.3 3-3.3v-7.6h3.1v13.4h-3.1v-2.1c-.8 1.3-2.1 2.3-4.2 2.3-3 .2-4.8-1.8-4.8-5z"/><path fill="#e6e6e6" d="m323.4 439.4v-7.1h-1.7v-2.6h1.7v-3.7h3.1v3.7h3.6v2.6h-3.6v6.6c0 1.2.6 1.7 1.7 1.7.7 0 1.3-.2 1.9-.5v2.5c-.8.5-1.7.7-2.8.7-2.3 0-3.9-.9-3.9-3.9z"/><path fill="#e6e6e6" d="m332.7 425.3h3.2v15h9.4v2.9h-12.5v-17.9z"/><path fill="#e6e6e6" d="m355.5 443.1v-1.7c-.9 1.1-2.3 2-4.4 2-2.6 0-4.8-1.4-4.8-4.2 0-3 2.3-4.4 5.4-4.4 1.7 0 2.6.2 3.7.5v-.2c0-1.9-1.2-2.9-3.3-2.9-1.5 0-2.6.3-3.9.8l-.8-2.5c1.5-.7 2.9-1.1 5.1-1.1 4 0 5.9 2.1 5.9 5.7v8zm.1-5.6c-.8-.3-1.9-.5-3.1-.5-2 0-3.1.8-3.1 2.1s1.1 2 2.6 2c2 0 3.5-1.1 3.5-2.9z"/><path fill="#e6e6e6" d="m364.4 441.1v2.1h-3.1v-18.7h3.1v7.4c1-1.4 2.4-2.5 4.5-2.5 3.2 0 6.3 2.5 6.3 7s-3.1 7-6.3 7c-2.1 0-3.5-1.1-4.5-2.3zm7.7-4.7c0-2.6-1.7-4.3-3.9-4.3-2.1 0-3.9 1.7-3.9 4.4 0 2.6 1.8 4.3 3.9 4.3 2.2 0 3.9-1.7 3.9-4.4z"/><path fill="#e6e6e6" d="m376.5 441.4 1.4-2.1c1.4 1.1 3 1.7 4.4 1.7s2.1-.5 2.1-1.5-1.3-1.4-2.8-1.8c-.1 0-.2-.1-.2-.1-2-.6-4.2-1.4-4.2-4s2.1-4.1 4.8-4.1c1.7 0 3.5.6 5 1.5l-1.2 2.2c-1.3-.8-2.6-1.3-3.8-1.3s-1.9.5-1.9 1.4 1.3 1.4 2.8 1.8c.1 0 .2.1.2.1 2 .6 4.2 1.5 4.2 4 0 2.9-2.2 4.2-5 4.2-2 0-4.1-.7-5.8-2z"/><path fill="#e6e6e6" d="m505.1 434.2c0-5.1 4.1-9.2 9.3-9.2s9.2 4.2 9.2 9.2-4.1 9.2-9.3 9.2-9.2-4.1-9.2-9.2zm17.4-.1c0-4.5-3.5-8.2-8.2-8.2s-8.2 3.7-8.2 8.3c0 4.5 3.5 8.2 8.2 8.2s8.2-3.7 8.2-8.3zm-13.1-.1c0-2.8 2.1-5.1 5.1-5.1 1.9 0 2.9.6 3.9 1.5l-1.4 1.7c-.8-.7-1.5-1.1-2.5-1.1-1.7 0-2.8 1.4-2.8 3.1s1.1 3 2.8 3c1.1 0 1.7-.5 2.5-1.1l1.4 1.4c-1.1 1.1-2.1 1.7-4 1.7-2.9.1-5-2.2-5-5.1z"/><path fill="#e6e6e6" d="m525 425.3h3.4l4.2 13.2 4.4-13.3h2.6l4.4 13.3 4.2-13.2h3.3l-6.2 18h-2.7l-4.4-12.8-4.4 12.8h-2.7z"/><path fill="#e6e6e6" d="m551.2 436.4c0-3.9 3.1-7 7.2-7 4.2 0 7.2 3.2 7.2 7s-3.1 7-7.3 7c-4.1 0-7.1-3.1-7.1-7zm11.2 0c0-2.3-1.7-4.3-4.2-4.3s-4.1 2-4.1 4.3 1.7 4.3 4.1 4.3c2.7.1 4.2-1.9 4.2-4.3z"/><path fill="#e6e6e6" d="m567.8 429.7h3.1v3c.8-2 2.4-3.4 4.8-3.3v3.2h-.2c-2.7 0-4.6 1.7-4.6 5.4v5.1h-3.1z"/><path fill="#e6e6e6" d="m577.5 424.5h3.1v11.1l5.6-6h3.8l-5.4 5.5 5.5 8h-3.5l-4.1-5.8-1.9 2v3.9h-3.1z"/><path fill="#e6e6e6" d="m590.1 436.4c0-3.9 3.1-7 7.2-7 4.2 0 7.2 3.2 7.2 7s-3.1 7-7.3 7c-4.1 0-7.1-3.1-7.1-7zm11.2 0c0-2.3-1.7-4.3-4.2-4.3s-4.1 2-4.1 4.3 1.7 4.3 4.1 4.3c2.6.1 4.2-1.9 4.2-4.3z"/><path fill="#e6e6e6" d="m606.5 438.2v-8.6h3.1v7.6c0 2.1 1.1 3.3 2.9 3.3s3-1.3 3-3.3v-7.6h3.1v13.4h-3.1v-2.1c-.8 1.3-2.1 2.3-4.2 2.3-3 .2-4.8-1.8-4.8-5z"/><path fill="#e6e6e6" d="m622.2 439.4v-7.1h-1.7v-2.6h1.7v-3.7h3.1v3.7h3.6v2.6h-3.6v6.6c0 1.2.6 1.7 1.7 1.7.7 0 1.3-.2 1.9-.5v2.5c-.8.5-1.7.7-2.8.7-2.3 0-3.9-.9-3.9-3.9z"/><path fill="#e6e6e6" d="m631.5 425.3h3.2v15h9.4v2.9h-12.5v-17.9z"/><path fill="#e6e6e6" d="m654.3 443.1v-1.7c-.9 1.1-2.3 2-4.4 2-2.6 0-4.8-1.4-4.8-4.2 0-3 2.3-4.4 5.4-4.4 1.7 0 2.6.2 3.7.5v-.2c0-1.9-1.2-2.9-3.3-2.9-1.5 0-2.6.3-3.9.8l-.8-2.5c1.5-.7 2.9-1.1 5.1-1.1 4 0 5.9 2.1 5.9 5.7v8zm.1-5.6c-.8-.3-1.9-.5-3.1-.5-2 0-3.1.8-3.1 2.1s1.1 2 2.6 2c2 0 3.5-1.1 3.5-2.9z"/><path fill="#e6e6e6" d="m663.3 441.1v2.1h-3.1v-18.7h3.1v7.4c1-1.4 2.4-2.5 4.5-2.5 3.2 0 6.3 2.5 6.3 7s-3.1 7-6.3 7c-2.2 0-3.6-1.1-4.5-2.3zm7.7-4.7c0-2.6-1.7-4.3-3.9-4.3s-3.9 1.7-3.9 4.4c0 2.6 1.8 4.3 3.9 4.3s3.9-1.7 3.9-4.4z"/><path fill="#e6e6e6" d="m675.3 441.4 1.4-2.1c1.4 1.1 3 1.7 4.4 1.7s2.1-.5 2.1-1.5-1.3-1.4-2.8-1.8c-.1 0-.2-.1-.2-.1-2-.6-4.2-1.4-4.2-4s2.1-4.1 4.8-4.1c1.7 0 3.5.6 5 1.5l-1.2 2.2c-1.3-.8-2.6-1.3-3.8-1.3s-1.9.5-1.9 1.4 1.3 1.4 2.8 1.8c.1 0 .2.1.2.1 2 .6 4.2 1.5 4.2 4 0 2.9-2.2 4.2-5 4.2-2 0-4.1-.7-5.8-2z"/></g>
</svg>
