<?xml version="1.0" encoding="utf-8"?>
<!-- Generator: Adobe Illustrator 23.0.1, SVG Export Plug-In . SVG Version: 6.00 Build 0)  -->
<svg version="1.2" baseProfile="tiny" id="Layer_1" xmlns="http://www.w3.org/2000/svg" xmlns:xlink="http://www.w3.org/1999/xlink"
	 x="0px" y="0px" viewBox="0 0 900 600" xml:space="preserve">
<g>
	<path d="M680.53,326.4c-3.18-4.85-8.21-5.78-13.85-7.13c-0.1-0.8-0.1-1.51-0.2-2.31c-0.7,0.7,0,1.81-0.9,2.31
		c-2.31-0.2-4.62-0.2-6.93-1.2c-0.2-2.01-0.2-4.22-1.61-6.02c-1.1-1.41-2.31-3.01-4.82-2.61c4.32,2.81,5.02,4.01,5.22,8.73
		c-0.4,0.4-0.8,0.7-1.61,0.4c-0.3-1.61-0.9-3.21-2.91-3.81c0.9,1.41,2.31,2.61,1.3,4.72c-0.8,0.3-1.3,1.41-2.51,1.1
		c-0.3-1.61,1-2.81,0.6-4.22c-2.21,1.2-0.6,4.12-2.71,5.62c-1.81-4.12,0.2-7.03,2.61-9.84c-2.54,0.48-5.61,4.42-4.01,10.34
		c-1.2,0.4-2.11,0.7-3.21,1c-1.08-4.09,2.94-10.39,5.62-13.75c2.98-3.74,8.58-3.66,12.25-0.3c6.26,5.73,4.66,8.92,6.32,9.33
		c1.74-0.44,0.63-3.59-0.5-5.02c-4.52-5.69-8.07-10.03-15.16-8.43c-7.67,1.73-14.33,11.6-11.94,17.97c0.7-3.31,0.9-6.72,4.01-9.43
		c-1.2,3.71-3.91,6.93-1.61,10.74c-2.71,2.51-4.74,5.51-7.03,8.33c-1.82,2.24,0.64-0.71-4.62,8.33c-0.06,0.1-6.73,8.4-8.93,13.55
		c-1.16,2.32-2.77,1.05-2.11-1.41c0.2-0.74,0.44-1.49,0.4-2.31c-1.88,1.82-1.24,4.77-3.41,7.33c-1.51,1.41-4.22,2.11-6.72,2.91
		c-3.76-1.25-10.85-6.76-19.17-4.92c-0.5,0.11-1.1,0.1-1.61-0.1c-4.17-2.09-39.96,7.42-54.6,15.36c-0.42,0.28-4.1,0.61-8.53,2.51
		c-22.41,9.64-37.1-6.43-65.04,6.02c-27.05,12.06-25.25,41.29-25.9,45.27c-25.82,7.43-37.9,17.36-50.59,18.47
		c-3.61,0.31-7.03,0.59-10.54,1.2c-2.81,0.49-5.62,1.23-8.53,1.2c-12.2-0.09-18.59,5.85-21.58,7.13
		c-23.32,9.93-21.95,15.03-31.32,19.07c-20.09,8.66-13.93,5.95-17.97,9.84c-4.07,3.92-8.02,5.2-7.13,10.74
		c1.07,6.58,1.48,5.15,0.3,6.32c-1.1,1.1,2.53,2.95,3.81,5.52c5.32,1.41,10.44,1.3,16.16-0.9c-1.61,2.11-2.51,3.71-3.91,4.92
		c-4.52,0.59-10.46-2.06-13.25-0.5c2.31,3.71,6.22,2.81,9.64,3.71c-1.41,1.81-2.51,3.61-4.52,4.72c-6.42-2.41,0.74,0.32,1.61-3.01
		c-1.91-1.71-4.32-1.61-6.62-1.81c-0.8,0-1.3,0.6-1.3,1.3c0.2,1.3,1.41,1.41,1.91,2.11c-0.3,1-1.91,0.9-1.71,2.31
		c1.51,2.47,6.75,1.08,4.42,3.41c-1.51,0.6-3.71-0.3-4.72,1.71c1,1.71,2.91,0.7,4.01,1.51c0.2,0.6,0.1,1.1-0.3,1.51
		c-2.31,0.7-4.01-1.51-6.32-1.41c3.71,6.32,3.71,6.32,6.52,7.63c0,1.41,0.4,2.71,1.51,3.71c3.75,3.39-0.16,6.8-0.6,10.34
		c4.92-2.31,6.1-7.7,2.51-11.44c-0.69-0.72-1.32-1.4-1.41-2.41c-0.37-4.38,0.61-11.75,3.71-14.85c8.54-8.54,12.21-12.19,13.35-16.86
		c5.34-4,36.37-15.23,42.76-17.16c6.72-2.03,13.64-3.63,19.67-7.53c2.81-1.81,6.13-2.36,9.54-1.61c7.07,1.56,12.79,0.46,16.26,0
		c-7.85,7.51-9.51,20.3-7.83,29.11c1.51,7.88-1.68,12.64-2.31,15.56c-1.84,8.5,1.28,19.68,2.41,26
		c2.28,12.73,14.18,17.33,16.66,16.16c2.68-1.27,4.99-3.02,6.02-5.92c3.59-10.14,6.15-23.72,16.46-31.92
		c2.01-1.6,4.42-3.01,5.72-5.32c0.8,0,1.41,0.6,2.11-0.3c-0.6-0.8,0.7-1.81-0.1-3.11c-1.1,0.8-1.8,0.09-2.71-0.5
		c-9.36-6.1-11.71-4.58-13.25-6.12c-5.33-9.65-5.15-9.27-4.82-9.94c-2.71-0.45,0.04-3.52-0.04-1.31c-0.01,0.41-0.15,0.98,0.04,1.31
		c3.21-1.91,6.93-0.21,10.24,0.4c-2.41-2.01-2.41-2.01-4.92-1.51c-1.61-0.9-2.91-2.41-5.42-1.41c3.5-6.04,0.22-4.57,6.52-5.62
		c5.94,2.64,13.83,1.95,20.68,6.12c6.8,4.14,8.79,2.59,21.48,4.01c10.77,1.21,10.36-0.54,18.77,1.51
		c11.01,2.68,13.7,2.26,16.76,5.52c-2.37-6.52,0.64,0.03-10.64-11.24c-6.52-6.52-12.62-9.54-21.18-19.57
		c-2.94-2.94,0.4-0.69-3.51-6.32c-4.4-6.33-8.93-12.65-13.45-19.07c2.11-2.11,4.52-3.3,7.33-3.81c21.7-3.94,28.14-9.6,43.86-5.62
		c0.88,0.49,0.43-0.2,15.66,19.27c3.44,4.39,6.86,12.11,12.04,18.07c0.71,0.35-0.63,3.37-0.7,3.61c-1.76,5.55-3.04,8.99-2.41,34.43
		c0.8,32.14,9.6,43.19,9.23,68.05c-0.02,1.2-0.2,2.51,0.2,3.81c4.12,5.02,9.23,8.03,15.96,7.93c2.77-0.25,4.81,1.42,8.53,0.8
		c1.81,0.9,3.41,1.91,5.52,2.61c2.11-1.51,5.02,1,7.33-0.8c0.1-0.9-1-1.2-0.7-2.31c3.41,1.41,6.91,1.35,10.34,2.51
		c3.4,1.15,6.83,0.7,9.64-1.91c2.71,0.3,5.22,0.3,7.83-2.11c-1.8-0.1-3.09-0.4-3.7-1.59c0.5-0.32,1.2-0.38,1.4-1.12
		c-0.21-3.39-8.47-2.01-13.05-5.82c-6.18,0.15-7.71-3.33-18.17-4.32c-5.12-0.48-9.03-3.01-12.55-6.62
		c2.63-13.79-3.7-13.34-1.51-37.74c2.24-24.99,4.62-31.77,3.11-43.46c-1.23-9.5,4.72-14.07,5.72-28.4
		c0.51-7.39-1.94,1.52,1.91-14.35c7.03,1.3,13.14-0.82,19.27-3.41c6.71-2.83,10.44-8.23,13.25-15.16
		c1.53,3.94-0.69,10.07,2.41,23.39c3.47,14.91-1.07,13.42,1.71,31.32c1.24,8,7.19,28.47,11.84,34.03c2.85,3.4,3.86,6.59,10.84,24.19
		c1.26,2.51,0.57,4.57,2.21,10.54c2.32,8.45,12.39,10.45,17.16,9.64c4.86-0.49,1.01,2.49,13.05,1.91c5.8-0.28,3.96-5.25,6.62-3.21
		c3.68,2.82,7.4,2.41,12.75,3.51c2.22,0.46,4.12,0.3,5.02-1.81c1.3-0.4,2.41,0.2,3.41-0.4c1.2-1.81,1.2-1.81-0.1-4.22
		c-2.71-1.1-5.62-2.02-8.53-2.61c-1-0.2-2.11-0.39-3.01-0.9c-3.13-1.78-6.93-1.61-9.94-3.51c-2.11,0.6-3.31-0.9-4.72-2.11
		c-6.62,0.4-12.25-2.41-17.36-5.62c-1.51-4.36-6.15-21.96-5.52-39.14c0.23-6.4-0.42-5.41-2.11-16.56
		c-1.93-12.79-9.13-23.6-9.13-25.59c0.2-3.61-0.17-7.22,0.1-10.84c0.56-7.32,1.61-14.65,1.41-22.08c-0.1-3.51,0.13-7.12,1.1-10.54
		c2.28-7.98,1.68-15.44,2.41-16.46c1.73,0.87,4.33,3.63,8.63,2.11c2.67-0.95,4.54,0.24,7.03-1c0.4-0.1,0.3-1.61,1.41-2.21
		c1.2,0.2,2.41,0.4,3.61,0.6c1.51,5.82,1.51,5.82,3.51,8.03c-0.4-1.91-0.8-3.61-1.2-5.22c-0.3-1.61,0.1-3.31-1.41-4.42
		c0.68-1.19,1.6-1.31,2.41-0.5c0.3,9.03,2.21,14.15,6.32,16.26c-3.01-4.42-1.3-9.13-2.01-14.15c-1.41,1.91-0.6,3.71-1.41,5.42
		c-1.41-3.31-1.61-4.42-1.1-7.03c1.1,0.1,2.21,0.6,3.31,0.4c2.41,9.84,6.83,17.16,11.74,19.27c-1.71-2.11-3.81-3.61-3.81-7.03
		c1.1,1.91,1.81,3.11,2.61,4.42c1.81-0.3,2.21,1.71,4.22,2.71c-7.03-10.14-7.83-20.78-6.83-31.62c1.79-0.96,4.27,0.37,5.62-0.8
		c2.32-2,5.02-3.51,6.93-6.12c4.08-5.6,10.5-16.68,11.94-23.89c1.02-3.39-0.29-1.05-1.4-11.23
		C691.17,334.71,681.64,328.09,680.53,326.4z M294.4,529.75c-1.51-0.2-1.2-1.51-1.51-2.31C293.89,525.95,295.58,527.68,294.4,529.75
		z M658.15,320.48c-0.2,0.8-0.7,0.6-1.71,0.8C657.15,320.08,657.65,320.08,658.15,320.48z M648.53,324.1
		c0.64,0.64,0.01,1.29-0.4,1.71c-0.22,0.31-0.3,0.28-0.3-0.1C647.57,324.93,647.79,324.42,648.53,324.1z M621.75,356.14
		c0.26,0.91-0.18,1.46-1.03,1.88C620.46,357.06,620.85,356.51,621.75,356.14z M465.84,467.92c3.93,13.43,25.6,25.84,31.62,32.63
		c-7.38-1.91-13.95-4.75-21.38-3.61c-4.28,0.66-7.27-1.1-15.96-1.1c-8.06,0-7.98-3-18.17-5.62c-10.12-2.6-10.25-2.24-10.55-2.79
		c-0.22-0.4-0.06-1-0.59-1.21c-5.12-0.9-8.73,0.8-10.74,5.32c-0.8,1.81-2.21,3.11-3.21,4.62c-0.19,1.09,0.51,1.68,0.9,2.41
		c5.16,9.56,6.18,11.94,10.74,13.25c4.34,1.25,10.13,4.57,9.58,4.94c-1.45,1.14-2.8,2.13-4.05,3.19c-4.62-0.9-8.93-2.31-13.45-4.32
		c0.36,4.52,4,5.04,10.44,6.42c-0.97,4.83-10.97-4.19-12.55-0.5c1.48,3.33,4.98,3.7,7.83,5.12c-0.12,1.04-0.67,1.3-1.51,0.9
		c-7.08-3.38-12.35-1.07-1.3,3.61c-1.37,3.19-2.53,4.83-3.31,7.23c-5.1,15.59-5.21,18.65-11.14,20.48
		c-6.08-3.39-8.84-5.35-11.54-10.74c0.69-1.49,0.07-3.39-0.37-5.13c-5.16-20.42-2.14-22.89,0.17-30.7c2.64-8.95-2.61-5.74,0.2-25.09
		c0.89-6.12,4.72-10.04,9.43-13.55c8.37,3.35,9.39,1.68,11.84,3.71c2.47,2.05,5.32,3.22,8.33,4.12c6.2,1.85,5.3,5.92,7.03,5.92
		c0.67-0.33,0.7-0.93,0.4-1.61c-3.37-7.5-7.59-4.62-14.96-10.14c-3.77-3.77,9.86,1.85,29.91-4.32
		C464.79,466.65,465.03,465.15,465.84,467.92z M463.03,463.71c-0.78,1.44-5.2,1.65-17.77,5.32c-2.59,0.76-17.76,1.85-22.88,2.41
		c-5.78,0.63-7.84-0.62-11.14,1.71c-2.17-0.89-4.45-2.12-6.17-2.98c-9.82-4.94-10.79-2.28,0.46,1.48c0,0.9-0.6,0.9-1.2,1.41
		c-2.87-1.91-9.95,1.43-14.45-0.69c-5.53-2.61-17.96,3.84-28.1,6.83c-59.24,17.45-50.19,23.97-55.91,23.09
		c-3.71-0.57-8.1,1.2-9.4,0.58c-3.92-1.86-4.79-5.65-5.25-9.41c-0.68-5.62,6.38-6.41,9.64-13.15c6.71-0.48,23.6-8.85,30.31-13.85
		c30.19-22.48,26.46-16.95,53.4-20.68c6.92-0.96,13.07-3.64,19.57-5.72c0.91-0.29,2.14-0.39,2.41-1.81
		c0.26-1.39-2.3,1.74,24.19-8.93c1.53-0.62,6.52-2.19,6.62-2.21c1.4,7.77,4.58,14.61,15.46,23.49c0,2.24,0.72,0.81,2.11,1.51
		C457.41,455.78,460.22,459.79,463.03,463.71z M505.02,437.5c-11.14-2.79-16.17,0.58-41.38,5.13c-8.37,1.51-8.78,5.48-10.18,5.51
		c-2.97,0.08-12.19-10.73-12.82-24.39c-0.37-8.14,1.06-17.71,6.32-23.89c3.74-4.38,3.44-10.2,13.35-14.75
		c5.83-2.68,12.29-4.02,18.37-5.52c6.43-1.58,12.85,0.2,19.37,0.2c-0.19,1.25-0.86,1.18-2.41,2.21
		c-3.61,2.41-9.31,11.25-10.34,15.46c-1.54,6.31,1.69,10.17,2.31,12.85c-5.31-5-9.24-12.39-12.35-18.77
		c0.44,6.57,8.09,16.53,13.35,21.48c0.23,6.12,2.95,9.11,1.44,7.84c-7.43-6.25-6.24-5.16-5.57-4.2c1.61,2.31,3.74,4.08,5.74,5.99
		c-12.7-2.99-25.8-4.73-21.49-3.73c18.53,4.3,20.23,4.41,24.8,6.74c4.13,2.12,3.99,4.23,5.22,4.72
		C497.86,431.27,507.6,438.15,505.02,437.5z M499.38,426.87c0-6.97-1.91,0.4-9.03-19.17c-5.11-14.03,6.21-18.2,5.62-22.08
		c4.42-3.71,9.23-5.58,14.96-5.42c17.14,0.47,23.28-11.79,15.66,2.81c-8.72,16.7-1.63,29.14,0.2,35.83
		c1.54,5.64,9.07,15.33,10.25,16.46c-4.15,1.75-16.95-2.28-28.63,0C505.83,431.88,502.66,429.89,499.38,426.87z M510.91,439.32
		c-2.65-2.65,16.78-0.7,26.5-0.7c-2.61,10.84-1.51,21.48-2.01,32.32C529.18,460.58,521.6,447.34,510.91,439.32z M600.98,592.38
		c0.48,0.13,0.52,0.49,0.63,1.35C600.57,593.26,599.51,591.97,600.98,592.38z M564.81,460.8c-1.85,22.31-6.69,23.37-5.62,30.41
		c2.12,13.98-4.33,31.68-4.33,57.05c-0.55,9.34,2.62,13.71,2.91,27.57c0.02,0.8-3.06,0.85-4.61,2.4c2.01-0.4,3.71-0.2,5.52-1
		c5.32,5.92,12.45,7.03,19.77,7.43c0.1,0.6,0.1,0.9,0.2,1.2c0,2.38,6.7,1.45,10.84,2.01c5.93,5.33,10.18,3.71,10.64,7.43
		c-1.91-0.3-3.82-0.29-5.52-0.9c-3.82-1.38-7.82-2.32-11.24-4.62c-0.9-0.61-2.11-0.72-3.11-0.8c-9.48-0.75-9.93-3.12-11.14-1.91
		c1.1,2.51,1.1,2.51,12.85,4.32c2.16,1.44,4.92,3.83,7.33,3.61c2.1-0.19,4.02,1.08,5.42,1.61c-2.71,1.41-5.02,0.69-7.33,0
		c-4.41-1.32-8.93-1.91-13.95-3.01c-2.49-2.12-5.34-6.12-10.14-6.12c0,2.29,4.43,1.24,6.93,6.02c0.86,1.65,2.8,2.19,4.12,3.01
		c-2.91,1-5.32,0.7-7.33-2.21c-0.9-0.7-2.01-0.3-3.21-0.6c-2.38-3.17-1.6-0.37-2.41-0.5c-1.94,0-1.1-3.01-2.81-1.3
		c-0.49,0.68,0.59,1.42,0,2.32c-5.32-1.61-11.44-1.71-14.45-8.23c0-24.01-6.06-30.62-9.25-64.17c-3.22-33.82,4.25-44.36,3.72-45.4
		c-0.71-4,1.24-11.15,0.01-14.59c-0.2-0.57-0.1-1.34-0.1-1.91c0.85-13.63,0.09-15.75,4.12-28.1c1.13-3.47,4.24-14.98,3.49-18.38
		c-0.16-0.72-0.46-1.44-1.08-2.1c-0.78-0.81-0.63-5.53-4.43-8.95c-0.32-0.29-0.71-0.48-1.4-0.08c5.01,6.1,1.77,13.78,4.02,17.16
		c-0.9,0.4-1-0.5-1.41-0.9c-1.1-1.1-2.02-2.5-3.11-3.61c-10.56-10.81-0.38-30.38,9.54-34.63c11.96-4.33,15.49-10.75,25.19-9.84
		c6.95,0.65,16.12,8.55,15.79,18.12c-0.12,3.51,0.05,1.9,0.56,4.33c0.71,3.37-2.73,14.1-3.7,16.5c-0.5-3.51,0.3-7.03-0.9-10.64
		c-0.6,0.4-0.9,0.5-0.9,0.6c0.05,3.61-1.19,6.93-1.71,10.34c-1.17,7.73-5.44,14.04-9.84,20.27
		C569.37,434.79,565.5,452.48,564.81,460.8z M601.14,429.08c-8.09,22.46-32.35,21.64-31.4,18.78c0.98-4.94,2.32-9.98,2.39-13.16
		c0.05-2.31,0.98-4.14,2.71-5.62c4.55-3.89,7.6-8.95,11.24-13.55c5.19-6.55,8.29-28.61,3.01-36.33c-3.68-5.39-8-8.45-9.13-8.83
		c-7.58-3.03-14.05-3.05-20.88,0.9c-8.98,5.21-17.19,5.01-22.68,16.76c-1.78,3.82-3.56,7.63-4.4,11.76
		c-2,9.89,2.5,18.17,10.51,22.05c0.64,0.64-3.65,10.3-3.9,11.05c-0.4-0.1-0.6,0-0.6-0.1c-9.55-11.75-14.1-24.81-11.94-39.75
		c1.14-7.92,5.15-12.72,11.54-19.37c11.52-2.06,34.32-14.35,48.78-14.35c-0.09,1.1-1.6,2.61-1.2,2.61c0,1.2,0.1,2.21,0.7,3.01
		c2.02,2.7,2.91,5.92,4.32,8.83c11.07,22.92-3.81,46.88-3.81,53.9c0.46,1.37,1.69,2.09,3.91,0.6c12.98-8.72,12.52-7.96,17.16-15.36
		c1.01-1.61,1.96-4.11,3.61-5.22c1.16-10.26,2.99-3.19,0,0C608.22,417.56,604.68,419.27,601.14,429.08z M679.93,561.27
		c2.8,0.55,5.52,1.51,8.83,2.51c-4.01,1.91-10.74-0.2-17.16-5.02C674.78,558.44,677.13,560.72,679.93,561.27z M630.15,405.89
		c-0.61,5.52-1,11.04-2.31,16.46c-1.5,6.22-1.06,12.54-1.51,18.87c-0.53,7.58-2.15,25.43,0.8,30.21
		c2.77,4.48,10.09,25.59,9.03,37.94c-0.88,10.21,1.71,24.26,4.96,33.78c2.26,6.62,2.02,4.93-0.52,6.52
		c-0.21,0.13-0.82,0.54-0.83,0.54c1.91,0.5,3.51-0.4,5.32-0.6c4.52,3.11,9.43,5.42,15.06,5.12c0.82,0.17,0.49,0.94,1.03,1.59
		c0.54,0.64,0.85,0.1,4.12,1.44c7.08,2.89,9.01,6.33,17.43,8.02c-0.39,1.43-0.55,0.83-7.73-0.2c-5.78-1.16-6.95-4.27-13.95-3.51
		c-4.7,0.51-5.32-4.73-12.35-5.02c-0.27,1.08,0.38,1.88,1.41,2.11c3.21,0.9,5.51,3.54,8.63,4.62c1.46,0.5,2.92,1,4.4,1.75
		c0.27,0.14-0.33,1.77-1.79,1.16c-3.52-1.46-5.21,0.64-9.03-1.71c-4.83-2.96-4.66,1.68-14.45-2.71c-5.71-2.56-2.87-7.85-6.93-18.17
		c-0.66-1.69-14.87-35.48-16.14-36.88c-1.48-1.91-8.8-22.6-6.95-32.28c2.68-13.93-0.72-14.25-3.71-40.65
		c-0.17-1.51-0.4-2.91-1.2-4.42c1.3-3.11,2.81-6.32,4.82-9.43c2.61,1.81,5.42,1.51,8.63,1.41c-0.51-0.6-1.15-1.11-1.76-1.45
		c-9.49-5.27-5.38,4.55,1.37-19.23c7.88-4.5,4.12-1.52,12.32-2.31C628.41,398.87,630.62,401.62,630.15,405.89z M667.99,414.43
		c-2.71-4.12-4.22-8.53-4.82-13.55c1.94-2.26,2.97-5.14,4.82-7.73c-0.68,3.05,0.38,6.3-0.11,9.54c-1.21-1.13-0.78-2.37-1.5-3.41
		C665.88,404.49,667.18,409.41,667.99,414.43z M691.1,366.66c-3,6.43-6.59,12.47-10.64,18.27c-1.82,2.61-4.25,4-7.86,4.31
		c-2.24-5.03-6.17-7.43-11.34-9.23c-1.59,2.69,6.54,1.6,9.43,9.03c-2.61,1-4.42,2.71-5.52,5.32c-1.1,2.61-3.11,4.82-4.01,7.53
		c-1.95,0.4-3.39,0.93-7.23-2.91c0.66-1.78,0.72-1.64,2.61-3.11c-2.61-0.4-3.01,1.61-3.81,2.71c-0.4,3.1,3.77,0.83,0.2,4.92
		c-5.1-0.39-6.47-0.92-7.31-2.27c-0.3-0.49-0.95-2.77-2.53-1.34c1.2,2.79,1.29,2.91,5.22,4.52c0.33,0.49-0.43,0.99-0.7,1.41
		c-1.81-0.2-3.71-0.1-5.22-1.2c-0.9,0.6,0,1.2-0.4,1.61c-10.57,3.82-13.05-10.79-15.64-18.11c-2.44-6.9-1.86-8.74,0.58-13.61
		c-0.9-0.2-1.21,0.4-1.51,0.9c-4.34,7.44-2.3,9.27,1.41,19.97c-5.82,2.61-12.14,2.81-17.56,5.22c0.2,5.12-2.5,8.84-4.62,12.85
		c-2.96,5.6-10.24,8.53-12.35,10.64c-0.64-1.29,0.74-1.83,0.34-2.84c-0.43-1.3-2.54,2.68-4.02,3.23c-0.19,0-0.57-1.24,0.47-3
		c5.16-8.68,7.71-27.15,7.23-33.82c-0.71-9.73-3.68-13.48-9.23-24.59c0.3-1.51,1.1-2.21,1.81-2.91c7.23-1.91,11.24-1.61,19.47,1.2
		c-3.49,0.7-6.26,1.21-9.84-0.1c0.49,2.14,3.07,1.49,3.68,2.92c0.61,1.43,4.86-0.5,8.06,0.09c1.1,0.2,2.62-0.89,3.81-1.51
		c1.72-0.88,3.61-1.3,5.62-1.41c1.6-3.66,6.01-4.76,6.93-5.22c-0.48-0.87-1.25,0.21-1.94-0.26c-0.66-0.66,0.5-1.58,0.63-1.85
		c0.8-0.9,1.51,0,2.11-0.4c0.4-2.71,1.81-5.12,3.61-7.63c0.39,1.94-1.69,3.8-0.1,6.02c2.21-7.53,4.22-14.65,9.03-20.58
		c-3.4,9.23-2.48,19.23-2.15,17.33c3.47-19.7,3.35-19.34,4.96-20.14c-2.47,8.22-2.71,17.04-2.51,25.39
		c-3.51-0.3-6.09,1.66-8.73,3.31c-1.94,1.21-0.44,2.77-4.01,12.85c2.57,2.57,4.66,1.65,6.26-1.51c0.84-1.66-2.26,2.33-4.46,1.29
		c-0.09-0.09-0.3-0.38-0.3-0.5c3.57-10.37,3.17-11.06,5.92-11.74c0.28,0.74-0.71,0.79-0.4,1.41c0.2,0.81,1.09,0.09,1.52,0.41
		c0.5-0.7,1.2-1.3,2.51-1.3c-0.5,1.61-1.61,1.3-2.51,1.3c-0.61,1.11-1.83,1.81-2.31,2.21c-0.7,1.2,0.2,1.71,0.2,2.51
		c-0.3,0.5-0.6,1.2-0.9,1.71c0.08,0.46,0.44,0.9,0.9,0.9c1.1,0.1,1.61-0.9,2.41-1.3c0.6-0.6-0.1-1.51,0.6-2.21
		c0.8-0.7,1.71-1.51,2.51-2.21c0.4-1.3-0.1-2.61,0.5-3.81c0.53,1.4,1.52,4.03,2,4.96c0.72,1.4,1.93,1.72,1.56,0.7
		c-0.23-0.63-1.12-1.08-0.73-1.94c1.2,0.2,1.81,1.91,3.21,1.41c0.12-1.28-1.25-1.06-1.86-2.18c-0.63-1.16,1.15-0.23,1.25-0.23
		c0.91-1.83-1.26,1.51,0.8-16.76c0.41-3.61,0.9-5.2,0.9-9.43c-2.09,1.33-3.21,14.07-3.21,17.56c0,2.11-1.38,4.2-2.01,4.52
		c-2.21-6.22,1.71-20.27,9.43-33.62c1-0.7,2.21-1.3,3.71-1.61c-1.98,5.27-5.53,16.96-4.93,22.64c-0.03,0.1-0.05,0.14,0,0.04
		c0,0.03,0,0.07,0.01,0.1c0.06-0.18,0.1-0.3,0.12-0.39c0.47-1.07,2.11-5.05,7.1-17.58c1.5,3.99-0.62,7.38,0.4,10.94
		c0.47-1.42,2.2-19.97,2.54-16.29c0.31,3.4,0.1,6.77,1.17,10.17c0.34-1.34,0.14-7.89,0.2-9.94c1.1-0.7,2.11-0.1,3.11-0.2
		c2.25,3.07,6.22,17.97,5.92,21.78c-0.89,11.3-2.01,13.38-2.01,14.35c-1.25-3.46-3.38-9.93-3.41-10.04
		c0.7,4.92,1.71,9.74,3.81,14.25c1.02,0,1.82-1.15,2.21-1.61c0.42-4.87,2.69-19.87-0.3-22.98c-1.02-1.06-0.52-5.93-4.32-14.85
		c5.24,0.21,5.02,4.38,8.24,11.04c0-2.9-1.58-6.67-2.91-9.23c2.11-0.1,2.81,1.31,3.51,2.61c5.61,10.37,8.51,22.8,8.93,26.5
		c0-8.54-1.42-16.24-6.02-25.09c2.67,1.41,4.32,3.17,9.27,13.11c2.93,5.86,3.57,10.29,4.18,17.5c0.13,1.52-1.21,2.44-1.71,3.31
		c0.19-1.73,0.79-3.45,0.2-5.02c-1.07,1.07-0.92,4.72-2.71,4.72c-0.71-1.87,1.72-12.34-1.71-17.56c-1.39,1.85,1.29,2.8-0.5,13.55
		c-0.18,2.03-1.04,3.79-1.3,4.12c-0.11-5.55-1.08-9.29-2.51-14.15c3.3,19.82-0.29,20.4,0.6,21.78c0.37,0.57,1.1,0.23,1.1,1
		c-0.4,1.19-2.91,2-2.4,2.79c0.51,0.79,1.26,0.71,2.3,0.62c7.89-9.1,2.48-2.31,2.71,0.2c3.66-3.66,3.43-7.78,5.72-12.25
		C692.17,363.22,691.8,365.17,691.1,366.66z"/>
	<path d="M621.82,350.99l-0.1-0.1C621.76,351.16,621.64,351.12,621.82,350.99z"/>
	<path d="M277.66,228.75c2.16-2.67,1.39-9.61-1.3-11.54c-1.52-1.09-3.11-2.38-5.12-2.51c-5.53-0.36-7.93-7.34-7.43-11.34
		c0.72-5.73,0.5-11.44,1-17.06c1.3-1.2,3.11-1,4.92-2.21c0.1-0.1-0.4-1.1,0.9-1.41c3.41-0.2,7.33-0.72,11.34-0.4
		c5.13,0.41,9.41-1.49,14.96-1c11.35,1,18.09-0.94,19.77-0.6c15.54,1.89,15.02,2.6,20.17,0.8c4.32-1.5,10.45-2.16,13.75-4.72
		c2.85,1.71,2.64,1.77,4.82,1.41c19.22-2.09,21.57,0.25,31.32-3.61c4.44-1.76,2.87,0.24,22.48-5.42c10.75-3.1,12-1.42,24.39-3.91
		c15.5-3.13,25.81-9.79,28.91-10.34c6.16-1.09,9.6-5.43,16.66-7.33c27.56-7.4,31.38-8.73,36.94-9.23
		c12.51-1.14,11.11-3.31,13.55-3.31c10.6,0,7.15-7.4,5.82,9.64c-0.95,12.19,1.25,25.9-1.2,32.52c-2.15,5.8-3.46,9.57-2.71,35.33
		c0.94,32.49,10.05,43.7,9.33,69.05c-0.1,1-0.2,1.91,0.2,2.91c4.12,5.12,9.33,7.93,16.06,7.83c2.82-0.04,5.37,1.71,8.63,0.8
		c3.81,3.41,8.13,2.51,12.25,2.31c0.7-1.3-0.7-1.51-0.2-2.61c3.11,1.2,6.52,1.22,9.84,2.31c3.41,1.12,7.03,1,9.94-1.81
		c2.71,0.3,5.52,0.6,7.63-2.01c-2.71-0.6-3.31-1-4.52-3.31c1.09-0.82,0.93,1.54,2.21,0.9c-0.1-2.11-0.1-2.11-1.81-2.61
		c-3.81-1.11-7.93-1.41-11.34-3.91c-6.33,0.16-7.43-3.37-17.87-4.22c-5.12-0.41-9.03-3.01-12.45-6.52c0.6-4.22,0.66-8.22,0-12.25
		c-2.09-12.73-2.85-5.62-1.51-25.09c1.07-15.54,4.54-32.94,3.41-41.45c-1.66-12.57,6.66-23.11,5.52-33.12
		c-0.49-4.32,1.51-7.93,1.91-12.25c5.95,2.42,15.13-1.04,21.48-4.22c6.1-3.05,7.93-7.67,11.14-13.55c1.14,6.1-0.16,11.29,2.01,20.98
		c3.74,16.76-0.33,14.09,1.71,30.61c1.2,9.77,7.57,30.99,12.25,36.84c2.88,3.59,3.58,6.07,8.93,19.87c3.52,9.08,1.9,5.45,3.61,14.15
		c1.61,8.15,11.03,11.46,17.26,10.44c1.11-0.18,2.21-0.2,3.11,0.4c3.01,2.01,6.33,1.63,9.64,1.41c7.01-0.48,4.14-5.62,7.43-3.11
		c3.6,2.75,7.13,2.28,12.35,3.21c2.21,0.4,4.22,0.4,5.32-1.81c1.53-0.26,3.68,0.96,4.32-2.21c-0.4-0.7-0.8-1.51-1.2-2.41
		c-28.03-8.76-23.55-6.72-26.2-9.03c-6.52,0.3-12.14-2.41-17.36-5.72c-0.55-1.4-6.29-20.78-5.62-34.83
		c0.42-8.69-1.76-27.39-10.34-44.16c-2.49-4.88,0.99-25.5,0.7-36.33c-0.27-10.22,3.01-9.34,3.01-26c1.91,1.1,3.51,1.91,4.92,2.71
		c2.51-0.1,4.82-1.08,6.93-0.9c2.81,0.23,4.52-0.2,5.52-2.81c1.51,0.2,2.71,0.5,4.01,0.7c0.6,2.91,0.8,5.92,3.21,8.13
		c-0.2-2.91-1.61-5.72-1.51-8.53c-0.56-1.31-1.69-0.18-1.07-1.28c0.36-0.66,0.88-0.94,1.88-1.02c1.1,1.91,0.35,4.23,0.8,6.32
		c0.44,2.07,1.72,4.26,1.61,6.42c1.81,1.71,2.81,4.32,6.02,5.72c-4.41-4.27-3.51-8.04-3.51-16.06c-1.51,2.11-0.8,4.01-1.41,5.82
		c-1.41-2.71-1.71-4.52-1.3-7.23c1.1,0.1,2.21,0.3,3.41,0.4c1.59,6.37,3.56,11.43,8.23,16.86c0.4,0.4,0.8,1.1,1.51,0.4
		c-0.4-1.51-2.21-2.61-1.61-4.92c0.9,1.51,1.41,3.21,2.51,3.91c1.1,0.6,2.11,1.51,3.41,2.01c-6.13-9.29-7.54-23.04-5.82-31.32
		c2.01,0,3.71,0.8,5.12-0.2c2.11-1.51,4.41-2.62,6.02-4.72c4.25-5.54,15.37-23.27,13.34-28.21c-2.8-6.84,0.38-14.45-8.73-26.8
		c-1.49-2.02-3.51-3.51-4.92-5.42c-3.85-5.23-8.65-6.15-14.15-7.33c-0.3-0.9,0.6-1.61-0.2-2.31c-0.2,0.8-0.5,1.41-0.7,2.11
		c-2.51,0.1-4.72-0.2-6.93-0.9c-1.3-6.62-2.71-8.53-6.42-8.83c0.24,1.09,4.8,1.35,4.92,7.93c0.02,1-0.5,1.3-1.51,1.1
		c-0.7-0.9-0.4-2.71-2.11-3.11c0,1.3,1.1,2.21,0.7,3.61c-0.6,0.8-1.41,1.41-2.61,1.61c-0.8-1.61,0.7-2.81,0.2-4.22
		c-2.01,1.2-0.4,4.12-2.51,5.42c-1.51-3.71-1.2-4.72,3.01-10.34c-3.76,1.58-5.69,4.96-4.52,10.84c-1.1,0.4-2.01,0.8-3.01,1.1
		c-0.7-1.1-0.5-2.21-0.2-3.21c6.29-21.19,20.65-13.02,23.49-2.61c0.49,2.46,3.29,0.09,0.2-4.12c-4.47-6.09-8.77-10.21-15.86-8.23
		c-7.21,2.01-13.67,12.01-11.34,18.07c1-1,0.61-2.01,0.8-2.91c1.22-5.65,2.52-4.64,2.52-5.32c-0.05-0.86,1-1.7,1.1-1.7
		c-0.1,0.9-0.2,1.51-1,1.81c0.15,1.65-3.05,5.73-0.7,9.33c-2.81,2.61-4.81,5.63-7.13,8.43c-2.04,2.47-0.41,3.28-5.12,9.13
		c-7.66,9.52-8.99,15.3-11.34,15.96c0.11-1.33,0.49-2.1,1.81-1.81c-0.3-0.5-1.1-0.6-1.1-1.2c2.92-11.67-1.53,2.09-2.51,3.41
		c-2.01,1.71-4.72,2.51-7.23,3.21c-3.71-2.31-7.83-3.41-11.54-5.22c-0.7-0.4-1.41-0.41-2.21-0.3c-10,1.37-39.77-1.54-44.77,0.4
		c-5.75,2.23-13.25,3.47-15.46,5.32c-3.68,3.09-12.58,4.18-20.98,10.14c-9.63,6.82-18.65,8.45-23.29,11.44
		c-21.45,13.84-25.13,9.27-42.36,5.82c-3.51-0.7-6.72-2.61-10.44-2.31c-1.23,0-0.14-1.36-5.82-1.1c-5.88,0.26-10.27,2.95-12.75,3.11
		c-7.08,0.47-15.85,9.93-19.87,15.76c-12.14,17.59-13.82,16.89-14.75,20.78c-17.02,11.98-15.76,6.58-30.61,16.56
		c-16.32,10.96-10.34,0.62-35.93,5.22c-23.54,4.23-2.19-0.22-23.39,3.41c-3.85,0.66-6.19,3.76-8.93,4.82
		c-31.87,12.31-34.36,15.37-52.39,16.06c-3.9-4.29-8.48-0.87-12.65-1.1c-5.32-0.3-10.54,0.7-15.66,2.01
		c-0.5,0.9-1.19,1.71-1.41,2.61c-2.7,11.3,0.34,13.52,0.1,15.46c-0.45,8.86,9.51,11.08,12.85,29.41c0.56,3.07-1.95,3.37,1.81,15.76
		c1.22,4.02,4.48,6.72,10.94,6.72c8.19,0.63,11.55,4.41,25.39-2.51c0.2-1.41-0.1-2.71,1.2-3.61c1.2,1.1,2.81,1,4.42,0.8
		c3.51-0.42,6.93-0.88,10.44-1.51C275.05,230.57,276.58,230.08,277.66,228.75z M262.09,182.97c1.81-0.76,3.9-1.2,6.83-1
		C266.61,182.47,264.9,184.08,262.09,182.97z M263.19,189.09c-1.2-0.6-2.01-1.1-3.31-1.81c1.41-0.4,2.41-0.7,3.31-1
		C263.8,187.19,263.3,187.99,263.19,189.09z M559.79,179.76c-2.69,8.47,1.88,5.23-1.91,29.31c-1.74,11.04-2.38,22.08-3.01,33.22
		c-0.38,6.73,0.89,13.35,2.21,19.97c0.6,3.01,0.1,6.12,0.9,9.13c-1.51,0.9-3.21,0.8-4.82,2.11c1.85,0.18,3.63-0.17,5.3-0.62
		c1.55-0.42,2.63,6.29,20.29,7.25c0,0.9,0.1,1.41,0.1,2.01c3.41,1.2,7.13,0.6,10.84,1.1c5.96,5.36,10.32,3.7,10.64,7.43
		c-10.08-0.72-16.46-6.22-19.57-6.22c-10.31-0.59-9.98-3.16-11.54-1.61c0.1,1.41,1.4,1.71,2.41,2.11c6.52,2.58,9.03,0.4,12.85,3.52
		c1.6,1.31,3.51,2.24,5.82,2.11c1.41-0.08,2.81,0.8,4.42,1.3c-3.04,2.03-3.98,0.93-21.18-2.71c-2.61-2.11-5.12-5.92-10.04-5.92
		c0,0.87-0.19,1.04,1.2,1.51c2.41,1,4.56,2.29,5.82,4.72c0.83,1.59,2.81,1.71,4.12,3.01c-4.32,0.48-5.19,0.25-7.63-2.61
		c-0.9-0.5-1.91-0.2-3.01-0.5c-0.8-0.1-0.7-1.41-1.71-1.61c-0.28,0.28-0.67,0.8-0.9,1.1c-1.46,0.29-1.13-1.71-2.71-1.91
		c0,0.1,0.19,2.79,0.2,2.91c-5.28-1.51-11.76-1.43-14.85-8.13c1.12-22.05-11.91-46.58-9.74-90.23c0.27-5.42,1.75-10.53,3.01-15.76
		c3.02-12.5,0.93-16.84,1-19.97c0.45-19.35,0.93-17.29,4.12-28.1c1.29-4.39,5.29-17.33,2.31-20.78c-0.62-0.82-0.72-7.35-5.42-9.03
		c3.31,4.53,2.8,9.73,3.31,14.35c-0.2,1.41,1.1,1.71,1.1,2.51c-0.51,0.85-0.58,0.99-7.13-7.43c-6.05-7.78,0.78-27.61,13.75-32.32
		c9.36-3.4,20.78-16.36,33.42-3.71c7.62,7.62,5.23,13.12,5.62,15.06c2.01,6.72-1.81,12.35-3.01,18.57
		c-0.95-3.38,0.55-9.16-1.61-10.24c-0.11,0.11-0.5,0.34-0.5,0.4c0,3.61-1.3,7.13-1.81,10.64c-1.51,10.49-10.3,19.18-11.54,22.88
		C561.52,156.62,567.61,155.19,559.79,179.76z M688.56,259.45c-3.71,2.11-11.14-0.3-16.56-5.12
		C677.32,256.34,682.84,257.65,688.56,259.45z M630.16,100.88c-0.48,5.72-0.79,11.34-2.21,16.86c-0.7,2.71-1.09,5.42-1.1,8.23
		c-0.12,17.71-2.29,16.32-0.9,37.44c0.18,2.74,1.37,3.4,2.93,6.88c2.75,6.12,5.37,18.11,6.29,21.22c2.69,9.07-0.14,14.33,1.2,25.19
		c3.35,27.17,9.95,27.32,3.51,28.61c1.87,0.86,3.2-0.41,5.02-0.3c4.42,3.01,9.33,5.32,15.16,5.12c0.6,0.7,0.61,1.89,1.91,2.11
		c6.98,1.18,9.01,5.85,20.48,8.93c-0.47,0.85-0.88,0.76-1.71,0.6c-4.11-0.8-8.3-1.06-12.25-3.31c-5.27-3-8.88,0.89-12.65-3.11
		c-2-2.12-4.72-2.31-7.03-3.31c-0.68,1.13-0.37,1.92,0.9,2.41c4.63,1.77,8.33,5.42,13.25,6.22c0.1,0.97-0.44,1.17-1,1.51
		c-1.2-0.1-2.41-0.8-3.71-0.7c-6.57,0.52-5.11-2.54-11.34-2.11c-7.37,0.51-11.74-2.63-12.8-5.24c-3.28-8.09,3.66-1.24-13.79-38.7
		c-1.79-3.84-3.84-9.63-4.47-10.88c-1.03-2.05-1.43-1.64-1.86-2.88c-12.42-35.83-1.7-29.91-7.03-50.89
		c-3.33-13.11-1.72-20.1-4.12-25.49c1.41-3.21,2.91-6.22,4.72-9.43c3.36,2.32,6.78,1.51,8.33,1.51c-1.1-2.52-5.39-2.18-6.93-3.71
		c3.21-5.12,5.22-10.64,6.83-16.56c3.41-3.71,8.03-2.31,12.55-2.41C629.66,96.32,630.36,98.46,630.16,100.88z M610.88,102.98
		c1.13-6.04,0.7-4.5,1.61-5.12C612.97,99.8,612.09,101.36,610.88,102.98z M668.25,110.53c-2.24-2.55-4-7.3-5.28-13.98
		c1.34-1.54,4.96-7.73,5.02-7.83c-0.7,3.21,0.4,6.42-0.2,9.64c-1.02-0.76-0.44-2.54-1.81-3.71
		C665.98,104.39,669.13,111.42,668.25,110.53z M658.25,16.26c-0.6,0.6-1,0.7-1.71,0.4C656.95,16.06,657.25,15.55,658.25,16.26z
		 M648.82,19.37c0.5,1-0.5,1.2-0.2,2.11C647.01,20.07,648.32,19.97,648.82,19.37z M607.95,57.12c-1.48,0.83-3.28,0.3-4.72,0.79
		c-1.71,0.58-3.21-1.2-4.92-0.4c0.85,1.97,3.53,0.76,4.02,2.91c4.76,0,5.5-1.02,7.73-0.3c1.72,0.55,3.07-2.43,9.43-3.01
		c3.68-5.75,7.17-4.27,6.85-5.07c-0.58-0.92-1.26,0.3-2.02-0.45c0.1-0.7,0.5-1.51,1.3-2.11c3.33,0.83-0.18-0.02,5.22-7.53
		c0.19,2.1-1.3,3.61-0.2,6.12c0-0.1,3.28-13.81,9.23-20.98c-3.53,8.23-2.48,19.03-2.16,17.23c0.67-5.53,1.82-11.9,3.06-17.33
		c0.18-0.81,0.3-1.91,1.71-2.41c-1.59,7.15-2.88,12.24-2.41,25.19c-3.61-0.3-6.23,1.59-8.83,3.31c-1.99,1.32-0.34,3.06-4.01,12.85
		c2.31,1.85,4.33,2.23,6.52-1.72c-1.77,0.1-2.94,2.46-4.98,1.19c-0.2-0.12,3.4-10,3.67-10.73c0.4-0.9,1.2-1.2,2.21-1.2
		c-0.26,1.85-1.37,1.31,1.1,1.81c0.5-0.9,1.41-1.2,2.81-1.71c-0.76,2.41-2.56,1.3-2.9,1.87c-0.53,1-1.58,1.63-2.62,3.05
		c1.48,1.89-2.3,7.03,2.66,3.6c0.52-0.36,0.55-0.21,0.55-0.38c0-2.32-0.52-1.24,2.91-4.33c0-1.3,0.1-2.51,0.2-4.12
		c1.84,2.21,0.49,6.02,3.51,6.83c0.89-1.14-0.71-1.49-0.41-2.31c0.27-0.27,0.5-0.2,0.8,0c0.1,0.06,2.31,1.68,2.29,0.75
		c-0.03-1.43-2.09-1.21-1.99-2.66c0.26-0.45,1.51,0.26,1.51-0.32c-2.01-9.37,2.93-24.03,1.3-25.48c-0.61-0.46-1.19,3.32-1.2,3.42
		c-3.35,15.05,0.3,14.03-3.91,18.67c-1.62-16.89,9.93-33.93,10.15-33.93c1.17-0.74,2.28-1.11,3.7-1.41
		c-3.91,7.23-4.52,14.85-5.72,22.28c0.94,0.47,0.02,1.69,7.63-17.36c1.4,3.5-0.59,7.47,0.5,10.94c3.2-36.22,2.8-1.21,3.58-8.06
		c1.12-9.77-2.14-8.71,3.54-8.2c2.91,5.82,4.24,12.14,5.42,18.37c1.03,5.41-0.59,9.91-1.3,18.47c-1.49-2.81-2.36-7.27-3.61-9.64
		c-0.29,1.74,1.57,7.79,1.91,8.73c1.08,3.02,1.39,5.14,2.68,4.04c0.22-0.19,0.54-0.48,0.83-0.43c0.9,0.9,0.71,0.86,0.69,0.19
		c-0.05-2.18,1.45-21.17,0.51-22.57c-2.3-3.42-2.06-7.61-3.41-11.24c-2.21-5.96-1.95-5.24-1.42-5.17c5.25,0.73,4.94,5.26,8.14,12.4
		c-0.27-3.8-1.61-7.43-3.31-10.74c2-0.13,2.79,1.24,3.61,2.81c4.35,8.32,7.74,18.94,8.83,26.2c0.47-8.5-2.13-16.93-5.42-24.59
		c2.09,1.32,3.57,3.26,4.72,5.42c9.26,17.47,4.44,8.13,8.23,23.59c0.34,1.39-0.02,2.52-1.1,3.53c-1.07,0.99,0.55-2.69-0.09-4.49
		c-0.01-0.02-0.01-0.03-0.01-0.05c-1.44,1.01-0.69,3.36-2.12,4.57c-2.67,2.26,1.4-7.46-2.24-16.02c-1.41-3.32,1.84,5.51-1.91,15.17
		c-0.74,1.91,0.16-0.24-0.86-5.32c-0.35-1.73-0.55-4.28-1.63-5.89c-0.28,2.22,1.4,5.69,1.12,12.82c-0.15,3.94-1.22,7.48-0.88,7.62
		c0.27,0.13,1.18-0.22,1.18,0.41c-0.29,1.33-5.27,3.3-0.5,3.81c1.61-0.8,2.31-2.71,3.91-3.71c0.79,1.39-1.31,2.11-0.8,3.41
		c5.17-5.16,3.07-8.3,6.02-11.74c0.59,6.5-7.73,18.8-11.64,24.49c-1.88,2.73-4.61,3.72-7.62,4.33c-1.87-4.18-5.12-7.33-11.84-9.03
		c3.53,2.89,8.37,3.52,9.53,8.63c-5.72,2.21-6.12,8.53-10.14,13.25c-2.74,1.12-4.25-2.44-6.52-3.01c-0.09-2.17,1.53-2.16,2.71-3.11
		c-2.01-0.6-2.11-0.5-3.91,2.71c-0.03,0.4,0.07,0.69,0.23,0.94c1.28,1.95,2.5,0.39,0.17,3.67c-5.92-0.8-5.92-0.8-8.83-4.01
		c-1.91-0.96-1.59,3.46,4.01,4.72c0.75,2.63-4.34,1.29-5.92,0.4c-0.7,0.6,0.1,1.2-0.3,1.61c-10.85,4.07-13.39-12.48-16.16-19.87
		c-1.51-4.01-1.3-7.73,0.9-11.34c0.06-0.06-0.18-0.87-0.2-1.1c-2.41,3.81-4.42,7.33-2.91,11.74c3.42,9.97,3.28,9.64,3.21,9.84
		c-5.72,2.51-11.94,2.71-17.26,5.12c-1.41,11.14-7.73,18.47-17.26,23.39c-0.93-0.66,0.87-1.49,0.4-2.91
		c-1.68,0.83-2.69,3.24-4.12,3.71c-0.3-1.2,0.2-2.41,0.7-3.31c3.49-6.23,4.89-12.95,5.92-19.87c3.88-25.97-4.62-28.13-8.04-38.74
		C589.44,51.51,608.94,56.45,607.95,57.12z M519.34,68.25c1.02-1.32,2.6-1.71,13.75-6.22c8.09-3.27,3.74-4.22,13.15-6.42
		c13.42-3.15,14.14-2.31,38.84-2.31c4.55,0,0,2.78,0,4.51c0,4.41,3.59,5.31,3.8,9.13c0.25,1.77,5.42,6.93,5.22,21.21
		c-0.1,6.65-2.94,20.43-5.62,26.47c-1.17,2.63-2.3,5.77-2.3,8.65c2.08,3.85,5.5-1.33,13.94-6.34c5.31-3.15,7.81-10.93,10.24-12.75
		c-4.17,12.51-5.51,9.52-9.54,20.78c-6.72,18.8-27.39,22.51-31.22,18.67c1.66-7.98,2.51-10.4,2.51-13.55c0-2.01,0.72-3.7,2.31-5.02
		c4.55-3.77,7.61-8.77,11.24-13.45c6.2-7.98,7.99-29.74,3.21-36.94c-7.11-10.7-18.38-13.28-27-9.23c-4.81,2.26-6.71,3.87-10.84,5.22
		c-10.86,3.56-15.6,12.18-18.77,23.39c-2.44,8.62,0.18,18.41,10.24,23.59c-0.6,4.42-3.01,7.93-4.22,11.74
		c-3.71,0.8-7.93-0.2-10.64,3.31c-5.72-7.03-13.25-24.67-14.65-41.85C512.56,85.33,513.91,83.03,519.34,68.25z M452.19,88.02
		c6.33-0.32,14.37,4.27,28.2-1.1c1.2-0.47,9.01-2.19,16.26-6.52c4.77-2.85,6.54-2.61,19.07-9.23c-3.79,9.47-6.82,14.99-4.92,24.29
		c5.6,27.37,5.72,19.5,11.04,32.92c0.8,2.01,2.01,3.71,3.71,5.42c-3.51,1.1-6.82,1.11-10.04,1.41c-14.06,1.3-51.86,16.71-61.03,9.03
		c-8.89-7.45-14.8-21.62-11.24-35.73C445.07,101.31,449.78,90.22,452.19,88.02z M387.15,122.95c10.02-9.14,5.1-5.98,9.15-1.36
		c1.08,1.23,0.82,1.18-1.73-6.77c5.73-10.59,14.98-18.46,16.96-20.88c4.79-5.84,13.07-8.16,22.78-9.74
		c4.43-0.72,4.28-0.11,14.79,2.25c2.16,0.48-20.34,24.36-3.15,52.65c3.35,5.52,4.85,5.01,6.32,7.93c5.65,3.32,12.31,2.49,17.16,2.81
		c-0.4,0.9-1.31,0.99-1.91,1.1c-11.59,2.11-11.57,5.23-43.16,12.35c-3.38,0,4.8-2.66,9.43-6.12c-8.26,1.65-15.1,5.2-22.88,7.73
		c-0.9-0.1-1.3-1.01-2.41-1.1c-4.17-0.34-7.56-2.23-9.84-6.22c-4.68-8.19-9.18-12.34-10.54-26.1
		C387.87,128.57,386.35,125.96,387.15,122.95z M341.38,143.73c-3.36,1.5-5.06,2.83-20.78,1
		C327.62,142.89,334.27,142.62,341.38,143.73z M246.26,167.53c12.78-0.08,46.64-18.64,54.61-20.04c17.02-3,28.7,3.13,44.22-2.66
		c27.24-10.15,7.74-4.92,24.89-11.84c19.61-7.92,14.32-14.06,15.46-1.61c0.1,6.79,1.8,14.29,8.03,24.99
		c1.92,3.3,8.54,8.53,10.24,9.74c-0.3,1.01-1.01,0.81-1.61,0.91c-35.18,6.34-32.64,5.6-35.33,7.23c-0.61,0.37-9.6,1.07-11.84,1.1
		c-8.15,0.12-23.57,7.57-31.01,3.31c-5.25-3.01-10.71,1.75-23.99,0.2c-7.62-0.89-7.61,0.6-16.66,0.5c-9.57-0.11-18.63,0.86-27,2.91
		c-7.42,1.82-4.74-0.02-15.86,2.81c-3.95,1.01-8.85-0.7-10.38-0.96c-3.13,0-4.32-1.67-5.88-3.35c1.41-3.51,2.71-7.03,3.31-10.54
		c0.9-0.84,1.91-1.29,2.92-1.51C231.23,168.54,245.39,167.53,246.26,167.53z M254.86,233.76c-6.54,1.58-10.33,4.24-21.58,0.4
		c-4.33-1.48-7.78-4.35-10.64-7.93c-0.89-1.12-0.9-2.61-1.1-4.12c0-0.15,0.99-1.16,1-2.47c0.18-18.35-11.95-26.46-13.45-30.65
		c1.11-2.23-2.2-6.58,0.1-19.67c7.62-2.32,19.7-2.38,22.49-3.31c-1.41,2.21-4.32,1.61-6.12,4.12c-0.5,3.59-2.49,7.38-3.98,11.27
		c-0.07,0.14,3.93,5.25,9,5.19c2.51-0.03,8.09,3.75,18.57-2.01c1.89,2.29-0.3,4.32-0.5,6.52c-1.2,0-2.21-0.2-3.31,0.1
		c-3.8,1.02-8,0.6-12,1.8c-0.11,0,0.2,1.82,3.27,1.82c9.98,0,11.01-2.99,11.19-1.15c0.42,4.15-7.64,2.44-12.7,4.97
		c1.51,2.61,2.81,2.71,10.84,0.6c0.39,1.09-0.32,2.06-0.6,3.11c-1.71-0.2-3.31,0.3-5.02,0.5c-2.27,0.27-3.19,0.08-4.72,1.61
		c4.66,4.66,10.99-3.13,9.54,3.61c-0.97,4.52,1.02,8.99,2.31,13.05c1.48,4.66,7.06,3.93,8,8.64c0.32,0.97-5.19-0.4-8,2.39
		c-0.12,0.12-1.48,0.25,8.52-0.49C256.22,232.72,255.94,233.5,254.86,233.76z M258.38,229.03c-2.26-6.79-7.09-4.3-9.33-10.24
		c-2.56-6.77-2.02-13.73-0.2-20.68c3.94-15.07,2.53-12.89,4.34-13.22c2.35-0.43,1.49-0.66,3.08,1.25c1.14,1.37,1.6,1.23,1.5,1.33
		c-2.11,0.88-4.9-0.5-5.7,2.6c0.59,1.35,1.59,1.96,3.38,1.75c4.31-0.5,5.77-0.4,7.15-1.96c2.35,5.63-4.99,1.11-8.43,4.42
		c3.17,5.18,8.93-0.17,8.11,3.11c0,4.2-3.73-0.82-5.82,3.01c1.45,1.95,1.44,2.03,5.22,1.61c0.2,4.52,1.1,8.83,4.42,12.85
		c6.96,2.44,10.22,2.66,10.37,6.43c0.43,4.28,2.86,6.28-3.61,7.13C255.63,230.67,263.24,229.03,258.38,229.03z"/>
	<path d="M280.76,542.6c-0.47-1.5-1.14-1.8-6.12-5.12c-3.08-2.05-3.47-4.99-2.41-25.59c0.74-14.41-2.92-12.51-2.81-22.08
		c0.05-4.22,0.3-8.53,2.61-12.35c2.31,0.2,4.41,0.58,6.52,0c7.13-1.94,10.09,0.94,18.77,0.8c1-0.02,2.11,0.3,3.01-0.9
		c-0.6-1-1.3-1-1.91-0.9c-8.49,0.22-12.75-2.6-18.07-1.41c-2.71,0.61-5.42,1-8.23,0.2c-1.41-0.4-2.61,0.2-3.11,1.61
		c-1.3,4.37-6.58,16.51-0.5,24.49c0.3,0.4,0.41,1,0.6,1.51c1.06,2.79,0.94,5.62,0.6,8.53c-0.43,3.77-1.68,21.69,0.1,24.19
		c5.53,7.74,11.77,11.49,21.38,10.94c1.51-0.09,2.91-0.5,4.22-2.31C290.29,544.3,285.48,544.51,280.76,542.6z"/>
	<path d="M529.48,541.19c-10.21,1.46-7.68,1.55-24.29-2.51c-3.14-0.45-1.74-2.42-8.13-3.31c-23.42-3.25-50.48-20.94-54.2-20.68
		c0.1,1,0.8,1.1,1.61,1.2c10.08,5.38,15.22,9.65,31.92,16.06c16.04,6.16,19.18,3.15,25.09,7.23c9.11,6.29,32.32,5.13,32.32,1.71
		C532.39,540.59,530.88,540.99,529.48,541.19z"/>
	<path d="M497.26,521.22c5.92,1.3,10.54,1.41,12.35,0.1C505.29,520.72,501.27,521.22,497.26,521.22z"/>
	<path d="M487.12,519.11c2.01,0.4,3.61,1.41,6.22,1.1C490.73,518.41,489.13,518.11,487.12,519.11z"/>
	<path d="M515.93,527.74c0,2.41,0.4,3.91,1.91,5.52C517.43,531.26,517.93,529.45,515.93,527.74z"/>
	<path d="M438.04,511.89c1.51,0.7,2.81,1.71,5.22,1.41C441.35,511.99,439.75,511.78,438.04,511.89z"/>
	<path d="M441.05,498.44c0.9,0.7,1.81,1,3.01,0.7C442.56,497.43,442.56,497.43,441.05,498.44z"/>
	<path d="M433.72,497.83c0.9,0.7,1.61,1,2.61,0.4C435.63,497.43,434.93,497.03,433.72,497.83z"/>
	<path d="M506.59,510.88c0.6,0.6,0.6,1.81,1.81,1.91C508.1,511.89,507.7,511.08,506.59,510.88z"/>
	<path d="M621.92,350.49c0.7-0.3,1.2-0.7,1.1-1.81C622.42,349.29,621.82,349.69,621.92,350.49z"/>
	<path d="M479.49,516.4c-0.4-0.5-0.9-0.7-1.51-0.1C478.49,516.9,478.99,517,479.49,516.4z"/>
	<path d="M509.6,514.7c-0.3-1-0.6-1.51-1.3-1.81C508.2,513.59,508.6,514.09,509.6,514.7z"/>
	<path d="M473.47,513.69c0-1.02-1.26-0.56-0.8-0.1C472.87,513.89,473.17,513.99,473.47,513.69z"/>
	<path d="M497.62,429.74c-0.44-0.44-0.89-0.98-1.87-0.56c0,0.12,0.86,1.65,2.51,1.51C498.67,430.07,498.39,430.52,497.62,429.74z"/>
	<path d="M577.15,397.46c1.11,0.43,2.38,3.6,2.33,1.03c-0.04-2.02-2.02-2.34-3.33-3.04c-1.24-1.8-2.35-3.87-4.12-5.32
		C571.03,393.45,573.44,396.66,577.15,397.46z"/>
	<path d="M544.93,452.26c-1.04-1.94-0.36-4.37-2.31-6.12C541.31,448.65,542.5,450.72,544.93,452.26z"/>
	<path d="M539.01,486.89c1.7,1.4,1.72,1.39,3.51,1.1C540.92,485.69,540.92,485.69,539.01,486.89z"/>
	<path d="M546.54,573.11c-1.05,3.48,2.12,5.51,3.11,2.91C548.25,575.82,547.64,574.52,546.54,573.11z"/>
	<path d="M549.15,458.19c-1.2-1.81-0.3-4.62-2.91-5.62C547.74,454.17,547.34,456.78,549.15,458.19z"/>
	<path d="M583.68,381.5c-1.72,0.21-1.74,0.25-2.52,1.51C582.27,382.91,583.17,382.61,583.68,381.5z"/>
	<path d="M543.33,491.91c-0.41,0.41-0.47,0.9-0.1,1.41c0.3,0.4,0.2,1.1,1,1C544.47,493.12,544.44,492.39,543.33,491.91z"/>
	<path d="M556.76,429.04c-0.53-0.04-0.77,0.71,0.12,1.24C557.36,429.68,556.95,429.04,556.76,429.04z"/>
	<path d="M549.94,462.79c0.13,0.17,0.32,0.33,0.5,0.52C551.55,461.32,548.99,461.52,549.94,462.79z"/>
	<path d="M677.12,333.73c0,2.12,0.3-2.65,0.3,14.65c0,13.6-3.48,14.34-0.6,15.06c1.83-0.61,1.33-2.77,2.51-4.11
		c0.6-0.8,0.03,3.04,0.48,3.94c0.08,0.15,1.32-1.95,0.92-5.76C678.12,332.2,678.45,333.62,677.12,333.73z"/>
	<path d="M657.75,357c0.52-0.61-1.11-4.22-0.6-7.42c0.53-3.31-0.1-6.62-0.1-10.34c-2.82,6.04-1.38,20.76-0.2,19.58
		C657.46,358.33,657.33,357.42,657.75,357z"/>
	<path d="M663.55,386.69c1.43,1.56-5.48-3.44-6.65-3.91c-0.44-0.18,0.84,4.01,4.06,6.35c1.36-1.82,3.07,0.53,4.71-0.6
		c0-2.98-4.22-5.33-5.72-6.32C660.79,383.99,661.63,384.6,663.55,386.69z"/>
	<path d="M664.27,359.72c-1.73-6.15-3.15-13.53-4.92-19.47C660.46,346.88,661.26,353.6,664.27,359.72z"/>
	<path d="M636.37,341.26c-1.93,3.53-5.27,9.69-4.01,13.45C632.96,349.99,636.17,346.07,636.37,341.26z"/>
	<path d="M648.82,350.59c1.53,9.44,5.02,15.81,1.91,5.62C650.14,354.3,650.12,352.2,648.82,350.59z"/>
	<path d="M654.64,361.63c0-3.21-0.4-6.22-1.3-9.23C653.23,355.61,653.63,358.62,654.64,361.63z"/>
	<path d="M648.25,358.69c0.05,3.25,1.91,5.68,0.16-3.08C648.37,356.62,648.24,357.66,648.25,358.69z"/>
	<path d="M647.31,361.53c0.5-1.81-0.4-3.41-0.8-5.22C646.21,358.12,646.81,359.82,647.31,361.53z"/>
	<path d="M657.92,357.27c-0.1,1.51,0.75,4.13,1.84,3.05c0-0.22,0-0.38,0-0.52c0.28,0.66,0.6,1.12,0.97,1.19
		c0.23,0.05,0.19,0.71-1.17-5.79c-1.65-7.82-1.3-5.87-1.28-5.26c0.03,1.34,0.37,6.49,1.27,9.26
		C658.32,358.55,657.92,356.33,657.92,357.27z"/>
	<path d="M657.94,357.04c0.04-0.32,0.01-0.24-0.09-0.13C657.88,356.95,657.91,357,657.94,357.04z"/>
	<path d="M602.45,400.88c1.29,0.4,2.23,0.8,3.21,0C604.54,400.05,603.68,400.21,602.45,400.88z"/>
	<path d="M648.42,348.68c-0.12,0.83,0.08,1.42,0.4,1.81C648.82,349.99,648.92,349.29,648.42,348.68z"/>
	<path d="M675.62,352.5c-0.1,0.3-0.1,0.7-0.1,1C675.52,353.2,675.62,352.8,675.62,352.5z"/>
	<path d="M595.42,360.88c-0.17,0.04-0.37,0.14-0.6,0.25C596.24,362.55,596.38,360.71,595.42,360.88z"/>
	<path d="M368.32,467.74c-11.04,3.47-10.98,1.82-10.98,2.59c0,0.85,8.34,1.4,13.3-2.34C373.38,465.93,370.59,467.03,368.32,467.74z"
		/>
	<path d="M297.72,491.01c0.41,1.72-0.6,3.9,1.51,5.22c1.3-1.5,0.11-3.12,0.7-4.51c0.51-1.2,2.21-1.2,2.71-2.71
		C300.59,489.01,298.95,489.36,297.72,491.01z"/>
	<path d="M303.34,488c2.01-0.5,3.21-1,4.72-2.61C305.95,485.89,304.45,485.99,303.34,488z"/>
	<path d="M380.33,468.42c1,0.8,1.51,2.21,3.61,2.91C383.18,469.72,382.12,468.72,380.33,468.42z"/>
	<path d="M350.62,470.93c1.3,0.1,2.41,0.6,3.31-0.9C352.62,469.83,351.62,469.73,350.62,470.93z"/>
	<path d="M386.35,463.51c0.84,0.38,1.48,0.61,2.31,0.2C388.06,463,387.45,462.7,386.35,463.51z"/>
	<path d="M311.47,484.48c1.1-0.2,1.61-0.6,2.11-2.01C312.48,483.18,311.57,483.08,311.47,484.48z"/>
	<path d="M618,474.56c1.81-2.01,3.61-3.01,4.32-5.02C619.93,470.43,618.72,472.07,618,474.56z"/>
	<path d="M633.06,545.21c-0.26,2.24-0.04,2.48,0.8,4.32C634.46,547.62,633.86,546.51,633.06,545.21z"/>
	<path d="M629.14,532.96c0.52-0.67-0.2-1.12-0.4-1.6C628.44,532.06,628.44,532.56,629.14,532.96z"/>
	<path d="M620.21,423.95c0.2-1-0.1-1.41-1-1.51C619.01,423.24,619.4,423.79,620.21,423.95z"/>
	<path d="M410.54,517.1c8-4.9-2.32-10.76-4.22-4.82c-1,3.13,2.61,4.66,2.61,4.82c-2.96,2.32-2.75,2.77-1.91,7.33
		c2.08,0,4.22,0.82,5.76-0.9C414.29,521.85,414.06,518.22,410.54,517.1z M409.84,510.98c2.95,0,2.95,4.42,0,4.42
		C406.95,515.62,406.81,510.98,409.84,510.98z M409.74,523.13c-0.1-0.7-0.1-1.1,0-1.51c-0.5-0.9-1.32,0.31-1.71-0.4
		c-0.99-1.84,3.19-4.09,4.22-1C412.75,521.72,412.04,522.52,409.74,523.13z"/>
	<path d="M408.23,505.26c0,1.26-2.32,1.27-1.82,3.1c0.9,0,1.41-0.7,2.11-1c2.41,2.19,5.63,1.68,4.32-4.62c-2.31-0.3-4.32,0-6.42,0.4
		c-0.09,0-0.18,0.55-0.18,0.64C406.57,504.63,407.94,503.98,408.23,505.26z M411.64,504.46c0.58,1.6,0.21,2.2-0.8,2.61
		C409.32,506.24,409.35,503.18,411.64,504.46z"/>
	<path d="M414.65,531.56c1.41,3.44,5.67,5.29,6.32,2.21C419.1,531.89,417.22,531.1,414.65,531.56z"/>
	<path d="M413.35,537.58c1.58,2.81,3.16,3.8,4.82,1C416.89,537.1,415.24,537.08,413.35,537.58z"/>
	<path d="M466.44,414.33c4.12,0.8,7.73,1.61,11.24,2.31C474.86,414.83,470.1,414.18,466.44,414.33z"/>
	<path d="M577.65,93.34c0.37,0.48,0.85,1.1,1.41,2.01c0.32-2.53,0.23-2.63-2.81-4.01c-1.61-1.91-2.31-4.12-4.42-5.22
		C571.09,89.9,573.9,92.45,577.65,93.34z"/>
	<path d="M544.93,148.04c-1.2-1.91-0.5-4.52-2.41-6.22C541.42,144.23,542.12,146.24,544.93,148.04z"/>
	<path d="M546.64,269.09c-0.4,1.59-0.56,2.92,0.9,3.61c0.89,0.42,1.61,0.2,2.01-1.1C548.05,271.5,547.54,270.19,546.64,269.09z"/>
	<path d="M548.95,153.86c-1.41-5.02-1.41-5.02-3.71-5.92C547.64,149.75,547.34,152.26,548.95,153.86z"/>
	<path d="M538.81,181.97c0.7,2.11,2.21,1.81,3.91,2.21C541.82,182.47,541.22,181.27,538.81,181.97z"/>
	<path d="M542.83,187.39c0.15,1.48,1.16,3.55,1.51,2.51C544.53,188.89,544.33,187.99,542.83,187.39z"/>
	<path d="M583.48,76.78c-1,0.4-2.11,0.3-2.51,1.41C582.57,78.19,582.57,78.19,583.48,76.78z"/>
	<path d="M549.85,157.58c-0.31,0.54-0.07,0.92,0.3,1.41C551.2,158.36,550.48,157.33,549.85,157.58z"/>
	<path d="M545.75,265.08c0.86,0.72,0.58-0.34,0.44-0.49C545.89,264.23,545.23,264.57,545.75,265.08z"/>
	<path d="M679.43,59.12c1.1-0.6,1.12-1.4,1.2-2.11c0.53-4.18-2.67-27.11-2.76-27.23c-0.14-0.19-0.4-0.33-0.85-0.37
		c0.81,6.64,0.32,27.17-1.51,29C678.43,62.77,679.43,48.6,679.43,59.12z"/>
	<path d="M661.56,80.8c0.3,0,2.11,1.12,0.81,1.25c-0.56,0.06-0.82-0.56-1.21-0.95c-1.58-0.49-2.57-1.94-4.31-2.57
		c-0.29-0.07,0.1,2.95,3.6,6.08c2.22-1.11,3.21,0.33,5.12-0.4c-0.65-3.34-3.19-4.85-6.22-7.13
		C659.56,78.99,661.36,79.39,661.56,80.8z"/>
	<path d="M658.12,53.09c0.17,0-0.52-0.87-0.91-3.72c-0.46-3.34-0.1-6.56-0.15-9.93c-0.2-14.34-3.32,9.64-0.72,15.16
		C657.34,54.5,656.87,53.06,658.12,53.09z"/>
	<path d="M659.27,35.43c0.28,5.2,2.55,16.94,5.12,20.07C662.38,48.88,661.07,42.05,659.27,35.43z"/>
	<path d="M636.07,36.93c-1.98,4.45-4.3,8.46-4.12,13.35C632.76,45.67,636.27,41.85,636.07,36.93z"/>
	<path d="M649.02,45.77c0.3,3.81,1,7.53,2.91,10.94C650.92,53.09,650.02,49.38,649.02,45.77z"/>
	<path d="M654.54,57.21c-0.15-4.74-1.6-14.88-1.42-7.35C653.19,52.48,653.78,54.79,654.54,57.21z"/>
	<path d="M660.64,56.7c-2.14-9.17-1.45-9.31-2.49-10.33C658.42,53.43,660.83,57.52,660.64,56.7z"/>
	<path d="M649.22,57.2c0-1.85-0.15-3.32-0.59-4.99c-0.82-3.15-0.61-3.06-0.61,5.03C648.01,57.38,648.81,57.61,649.22,57.2z"/>
	<path d="M605.66,96.55c-1.3-1-2.31-0.8-3.51,0.2C603.45,96.85,604.45,97.36,605.66,96.55z"/>
	<path d="M647.01,57.42c0.53,0.2,0.73,0.08,0.9-0.2c-1.16-0.88-0.17-2.67-1.2-3.7C646.68,57.73,647.01,56.81,647.01,57.42z"/>
	<path d="M657.55,43.46c0.26,0.94-0.06,2.24,0.7,2.81C658.15,45.57,658.35,44.66,657.55,43.46z"/>
	<path d="M681.94,43.76c0-3.57-1.09-1.26-0.12,0.03C681.87,43.55,681.79,43.64,681.94,43.76z"/>
	<path d="M646.61,53.39c0.09,0.06,0.1,0.25,0.1-0.1l-0.01,0.01c-0.03-0.19-0.04-0.37-0.06-0.56c-0.19-2-0.67-0.32-0.03,0.51
		C646.68,53.35,646.69,53.29,646.61,53.39z"/>
	<path d="M674.5,56.51c0.15,0,0.11,0.18,0.11-1.2c-0.12,0-0.2,0.1-0.3,0C674.5,56.05,674.31,56.51,674.5,56.51z"/>
	<path d="M616.6,59.32c-0.7-0.2-1,0-1,0.7C616.4,60.02,616.4,60.02,616.6,59.32z"/>
	<path d="M227.56,178.36c0.21,0.21,0.6,1.08,1.51,0.7c2.12-0.89,2.41-3.11,3.11-4.52c1.33-1.24,3.78-1.72,4.22-3.01
		c-3.01-1.51-4.22,1.61-6.72,2.01C230.12,175.48,227.94,176.82,227.56,178.36z"/>
	<path d="M311.42,166.72c1.6,0.02,2.46-0.29,3.96-1.11C309.44,165.84,305.76,166.67,311.42,166.72z"/>
	<path d="M341.28,148.14c2.01-0.2,3.81-0.8,5.82-2.11C344.27,146.32,343.98,146.41,341.28,148.14z"/>
	<path d="M345.6,174.34c-1.51-1.41-3.01-0.9-5.12-0.7C342.5,174.65,343.82,174.74,345.6,174.34z"/>
	<path d="M240.91,171.03c-1.3-0.5-2.21-0.4-3.21,1.1C239.31,172.43,240.11,172.13,240.91,171.03z"/>
	<path d="M325.22,150.45c-0.8-0.1-1.51-0.3-2.31,0.2C323.71,151.61,325.36,151.71,325.22,150.45z"/>
	<path d="M246.53,169.72c-0.9-0.4-1.51-0.4-1.71,0.7C245.73,170.93,246.13,170.63,246.53,169.72z"/>
	<path d="M252.56,168.32c-0.82,0.07-1.3,0.09-1.29,0.43C251.27,169.62,251.81,168.94,252.56,168.32z"/>
	<path d="M445.07,152.76c-3.61,0.2-6.52,1.71-9.43,3.11C437.54,156.17,442.76,154.37,445.07,152.76z"/>
	<path d="M392.07,121.95c0.2-0.9,0-1.3-0.7-1.41C391.17,121.34,391.17,121.75,392.07,121.95z"/>
	<path d="M617.3,171.33c1.02-1.02,1.74-2.35,2.51-3.12c1-0.8,2.31-1.51,2.71-3.01C619.81,165.91,619.01,166.81,617.3,171.33z"/>
	<path d="M632.56,239.88c0.2,1.61-0.3,3.41,1.51,5.32C634.16,242.79,633.36,241.29,632.56,239.88z"/>
	<path d="M620.21,119.44c0-0.6-0.2-1-1-1.3C618.9,119.21,619.29,119.53,620.21,119.44z"/>
	<path d="M629.14,228.74c0.1-0.7,0-1.2-0.8-1.71C628.34,227.94,628.54,228.34,629.14,228.74z"/>
	<path d="M226.12,212.67c0.26,0.51,0.73,1.24,1.04,1.82c2.29-0.57,5.83-0.77,5.56-4.22C232.27,204.31,222.9,206.24,226.12,212.67z
		 M229.57,212.48c-0.8-0.4-0.4-1.1-0.5-1.2c-0.88-0.58-1.28,0.51-1.91,0.2C226.85,204.53,235.11,210.4,229.57,212.48z"/>
	<path d="M230.07,202.74c-0.19-3.86-4.77-5.07-6.61-2.29c-1.29,1.94-0.69,5.65,2.9,5.8C228.57,206.35,230.18,204.85,230.07,202.74z
		 M226.56,200.45c3.62,0.78,2.46,4.31-0.25,4.31C223.81,204.9,223,201.16,226.56,200.45z"/>
	<path d="M227.66,197.02c0.4-1.81-0.96-4.85-1.06-4.8c-2.29,0.59-4.38,1.19-6.36,2.09c0.55,2.01,2.18-0.1,2.71,1.51
		c0.12,1.24-1.83,1.69-1.14,3.3c0.13,0.51,1.23-0.9,1.95-1.29C225.3,198.62,226.75,198.52,227.66,197.02z M225.86,196.82
		c-1.61-0.3-1.51-1.41-1.81-2.11C225.38,192.89,227.37,194.97,225.86,196.82z"/>
	<path d="M243.42,210.77c-2.91-0.6-4.92,0.3-6.02,2.71C240.51,214.2,243.31,213.95,243.42,210.77z"/>
	<path d="M240.71,218.6c2.78,0.9,2.87,0.83,3.72-1.1C242.24,216.71,242.23,216.68,240.71,218.6z"/>
	<path d="M256.47,205.86c1.61,2.01,1.61,2.01,4.42,0.4C259.38,205.35,258.08,204.85,256.47,205.86z"/>
<path fill="#e6e6e6" d="m206.8 163.6c0-5.1 4.1-9.2 9.3-9.2s9.2 4.2 9.2 9.2-4.1 9.2-9.3 9.2-9.2-4.1-9.2-9.2zm17.3-.1c0-4.5-3.5-8.2-8.2-8.2s-8.2 3.7-8.2 8.3c0 4.5 3.5 8.2 8.2 8.2s8.2-3.7 8.2-8.3zm-13 0c0-2.8 2.1-5.1 5.1-5.1 1.9 0 2.9.6 3.9 1.5l-1.4 1.7c-.8-.7-1.5-1.1-2.5-1.1-1.7 0-2.8 1.4-2.8 3.1s1.1 3 2.8 3c1.1 0 1.7-.5 2.5-1.1l1.4 1.4c-1.1 1.1-2.1 1.7-4 1.7-2.9 0-5-2.3-5-5.1z"/><path fill="#e6e6e6" d="m226.6 154.7h3.4l4.2 13.2 4.4-13.3h2.6l4.4 13.3 4.2-13.2h3.3l-6.2 18h-2.7l-4.4-12.8-4.4 12.8h-2.7z"/><path fill="#e6e6e6" d="m252.8 165.8c0-3.9 3.1-7 7.2-7 4.2 0 7.2 3.2 7.2 7s-3.1 7-7.3 7c-4 0-7.1-3.1-7.1-7zm11.3 0c0-2.3-1.7-4.3-4.2-4.3s-4.1 2-4.1 4.3 1.7 4.3 4.1 4.3c2.7.1 4.2-1.9 4.2-4.3z"/><path fill="#e6e6e6" d="m269.5 159.1h3.1v3c.8-2 2.4-3.4 4.8-3.3v3.2h-.2c-2.7 0-4.6 1.7-4.6 5.4v5.1h-3.1z"/><path fill="#e6e6e6" d="m279.1 153.9h3.1v11.1l5.6-6h3.8l-5.4 5.5 5.5 8h-3.5l-4.1-5.8-1.9 2v3.9h-3.1z"/><path fill="#e6e6e6" d="m291.7 165.8c0-3.9 3.1-7 7.2-7 4.2 0 7.2 3.2 7.2 7s-3.1 7-7.3 7c-4 0-7.1-3.1-7.1-7zm11.3 0c0-2.3-1.7-4.3-4.2-4.3s-4.1 2-4.1 4.3 1.7 4.3 4.1 4.3c2.6.1 4.2-1.9 4.2-4.3z"/><path fill="#e6e6e6" d="m308.2 167.6v-8.6h3.1v7.6c0 2.1 1.1 3.3 2.9 3.3s3-1.3 3-3.3v-7.6h3.1v13.4h-3.1v-2.1c-.8 1.3-2.1 2.3-4.2 2.3-3.1.2-4.8-1.8-4.8-5z"/><path fill="#e6e6e6" d="m323.9 168.8v-7.1h-1.7v-2.6h1.7v-3.7h3.1v3.7h3.6v2.6h-3.6v6.6c0 1.2.6 1.7 1.7 1.7.7 0 1.3-.2 1.9-.5v2.5c-.8.5-1.7.7-2.8.7-2.3 0-3.9-.9-3.9-3.9z"/><path fill="#e6e6e6" d="m333.2 154.7h3.2v15h9.4v2.9h-12.5v-17.9z"/><path fill="#e6e6e6" d="m356 172.5v-1.7c-.9 1.1-2.3 2-4.4 2-2.6 0-4.8-1.4-4.8-4.2 0-3 2.3-4.4 5.4-4.4 1.7 0 2.6.2 3.7.5v-.2c0-1.9-1.2-2.9-3.3-2.9-1.5 0-2.6.3-3.9.8l-.8-2.5c1.5-.7 2.9-1.1 5.1-1.1 4 0 5.9 2.1 5.9 5.7v8zm.1-5.6c-.8-.3-1.9-.5-3.1-.5-2 0-3.1.8-3.1 2.1s1.1 2 2.6 2c2 0 3.5-1.1 3.5-2.9z"/><path fill="#e6e6e6" d="m364.9 170.5v2.1h-3.1v-18.7h3.1v7.4c1-1.4 2.4-2.5 4.5-2.5 3.2 0 6.3 2.5 6.3 7s-3.1 7-6.3 7c-2.1 0-3.5-1.1-4.5-2.3zm7.7-4.7c0-2.6-1.7-4.3-3.9-4.3s-3.9 1.7-3.9 4.4c0 2.6 1.8 4.3 3.9 4.3s3.9-1.7 3.9-4.4z"/><path fill="#e6e6e6" d="m376.9 170.8 1.4-2.1c1.4 1.1 3 1.7 4.4 1.7s2.1-.5 2.1-1.5-1.3-1.4-2.8-1.8c-.1 0-.2-.1-.2-.1-2-.6-4.2-1.4-4.2-4s2.1-4.1 4.8-4.1c1.7 0 3.5.6 5 1.5l-1.2 2.2c-1.3-.8-2.6-1.3-3.8-1.3s-1.9.5-1.9 1.4 1.3 1.4 2.8 1.8c.1 0 .2.1.2.1 2 .6 4.2 1.5 4.2 4 0 2.9-2.2 4.2-5 4.2-1.9 0-4-.7-5.8-2z"/><path fill="#e6e6e6" d="m505.6 163.6c0-5.1 4.1-9.2 9.3-9.2s9.2 4.2 9.2 9.2-4.1 9.2-9.3 9.2-9.2-4.1-9.2-9.2zm17.4-.1c0-4.5-3.5-8.2-8.2-8.2s-8.2 3.7-8.2 8.3c0 4.5 3.5 8.2 8.2 8.2s8.2-3.7 8.2-8.3zm-13.1 0c0-2.8 2.1-5.1 5.1-5.1 1.9 0 2.9.6 3.9 1.5l-1.4 1.7c-.8-.7-1.5-1.1-2.5-1.1-1.7 0-2.8 1.4-2.8 3.1s1.1 3 2.8 3c1.1 0 1.7-.5 2.5-1.1l1.4 1.4c-1.1 1.1-2.1 1.7-4 1.7-2.9 0-5-2.3-5-5.1z"/><path fill="#e6e6e6" d="m525.4 154.7h3.4l4.2 13.2 4.4-13.3h2.6l4.4 13.3 4.2-13.2h3.3l-6.2 18h-2.7l-4.4-12.8-4.4 12.8h-2.7z"/><path fill="#e6e6e6" d="m551.7 165.8c0-3.9 3.1-7 7.2-7 4.2 0 7.2 3.2 7.2 7s-3.1 7-7.3 7c-4.1 0-7.1-3.1-7.1-7zm11.2 0c0-2.3-1.7-4.3-4.2-4.3s-4.1 2-4.1 4.3 1.7 4.3 4.1 4.3c2.7.1 4.2-1.9 4.2-4.3z"/><path fill="#e6e6e6" d="m568.3 159.1h3.1v3c.8-2 2.4-3.4 4.8-3.3v3.2h-.2c-2.7 0-4.6 1.7-4.6 5.4v5.1h-3.1z"/><path fill="#e6e6e6" d="m577.9 153.9h3.1v11.1l5.6-6h3.8l-5.4 5.5 5.5 8h-3.5l-4.1-5.8-1.9 2v3.9h-3.1z"/><path fill="#e6e6e6" d="m590.6 165.8c0-3.9 3.1-7 7.2-7 4.2 0 7.2 3.2 7.2 7s-3.1 7-7.3 7c-4.1 0-7.1-3.1-7.1-7zm11.2 0c0-2.3-1.7-4.3-4.2-4.3s-4.1 2-4.1 4.3 1.7 4.3 4.1 4.3c2.6.1 4.2-1.9 4.2-4.3z"/><path fill="#e6e6e6" d="m607 167.6v-8.6h3.1v7.6c0 2.1 1.1 3.3 2.9 3.3s3-1.3 3-3.3v-7.6h3.1v13.4h-3.1v-2.1c-.8 1.3-2.1 2.3-4.2 2.3-3 .2-4.8-1.8-4.8-5z"/><path fill="#e6e6e6" d="m622.7 168.8v-7.1h-1.7v-2.6h1.7v-3.7h3.1v3.7h3.6v2.6h-3.6v6.6c0 1.2.6 1.7 1.7 1.7.7 0 1.3-.2 1.9-.5v2.5c-.8.5-1.7.7-2.8.7-2.3 0-3.9-.9-3.9-3.9z"/><path fill="#e6e6e6" d="m632 154.7h3.2v15h9.4v2.9h-12.6z"/><path fill="#e6e6e6" d="m654.8 172.5v-1.7c-.9 1.1-2.3 2-4.4 2-2.6 0-4.8-1.4-4.8-4.2 0-3 2.3-4.4 5.4-4.4 1.7 0 2.6.2 3.7.5v-.2c0-1.9-1.2-2.9-3.3-2.9-1.5 0-2.6.3-3.9.8l-.8-2.5c1.5-.7 2.9-1.1 5.1-1.1 4 0 5.9 2.1 5.9 5.7v8zm.1-5.6c-.8-.3-1.9-.5-3.1-.5-2 0-3.1.8-3.1 2.1s1.1 2 2.6 2c2 0 3.5-1.1 3.5-2.9z"/><path fill="#e6e6e6" d="m663.7 170.5v2.1h-3.1v-18.7h3.1v7.4c1-1.4 2.4-2.5 4.5-2.5 3.2 0 6.3 2.5 6.3 7s-3.1 7-6.3 7c-2.1 0-3.5-1.1-4.5-2.3zm7.8-4.7c0-2.6-1.7-4.3-3.9-4.3-2.1 0-3.9 1.7-3.9 4.4 0 2.6 1.8 4.3 3.9 4.3s3.9-1.7 3.9-4.4z"/><path fill="#e6e6e6" d="m675.8 170.8 1.4-2.1c1.4 1.1 3 1.7 4.4 1.7s2.1-.5 2.1-1.5-1.3-1.4-2.8-1.8c-.1 0-.2-.1-.2-.1-2-.6-4.2-1.4-4.2-4s2.1-4.1 4.8-4.1c1.7 0 3.5.6 5 1.5l-1.2 2.2c-1.3-.8-2.6-1.3-3.8-1.3s-1.9.5-1.9 1.4 1.3 1.4 2.8 1.8c.1 0 .2.1.2.1 2 .6 4.2 1.5 4.2 4 0 2.9-2.2 4.2-5 4.2-2 0-4.1-.7-5.8-2z"/><path fill="#e6e6e6" d="m61 298.6c0-5.1 4.1-9.2 9.3-9.2s9.2 4.2 9.2 9.2-4.1 9.2-9.3 9.2c-5.1 0-9.2-4.2-9.2-9.2zm17.4-.1c0-4.5-3.5-8.2-8.2-8.2s-8.2 3.7-8.2 8.3c0 4.5 3.5 8.2 8.2 8.2s8.2-3.7 8.2-8.3zm-13.1-.1c0-2.8 2.1-5.1 5.1-5.1 1.9 0 2.9.6 3.9 1.5l-1.4 1.7c-.8-.7-1.5-1.1-2.5-1.1-1.7 0-2.8 1.4-2.8 3.1s1.1 3 2.8 3c1.1 0 1.7-.5 2.5-1.1l1.4 1.4c-1.1 1.1-2.1 1.7-4 1.7-2.8.1-5-2.2-5-5.1z"/><path fill="#e6e6e6" d="m80.9 289.7h3.4l4.2 13.2 4.4-13.3h2.6l4.4 13.3 4.2-13.2h3.3l-6.2 18h-2.7l-4.4-12.8-4.4 12.8h-2.7z"/><path fill="#e6e6e6" d="m107.1 300.8c0-3.9 3.1-7 7.2-7s7.2 3.2 7.2 7-3.1 7-7.3 7c-4 0-7.1-3.1-7.1-7zm11.3 0c0-2.3-1.7-4.3-4.2-4.3s-4.1 2-4.1 4.3 1.7 4.3 4.1 4.3c2.6.1 4.2-1.9 4.2-4.3z"/><path fill="#e6e6e6" d="m123.7 294h3.1v3c.8-2 2.4-3.4 4.8-3.3v3.2h-.2c-2.7 0-4.6 1.7-4.6 5.4v5.1h-3.1z"/><path fill="#e6e6e6" d="m133.4 288.9h3.1v11.1l5.6-6h3.8l-5.4 5.5 5.5 8h-3.5l-4.1-5.8-1.9 1.9v3.9h-3.1z"/><path fill="#e6e6e6" d="m146 300.8c0-3.9 3.1-7 7.2-7s7.2 3.2 7.2 7-3.1 7-7.3 7c-4.1 0-7.1-3.1-7.1-7zm11.2 0c0-2.3-1.7-4.3-4.2-4.3s-4.1 2-4.1 4.3 1.7 4.3 4.1 4.3c2.6.1 4.2-1.9 4.2-4.3z"/><path fill="#e6e6e6" d="m162.4 302.6v-8.6h3.1v7.6c0 2.1 1.1 3.3 2.9 3.3s3-1.3 3-3.3v-7.6h3.1v13.4h-3.1v-2.1c-.8 1.3-2.1 2.3-4.2 2.3-3 .2-4.8-1.8-4.8-5z"/><path fill="#e6e6e6" d="m178.1 303.8v-7.1h-1.7v-2.7h1.7v-3.7h3.1v3.7h3.6v2.6h-3.6v6.6c0 1.2.6 1.7 1.7 1.7.7 0 1.3-.2 1.9-.5v2.5c-.8.5-1.7.7-2.8.7-2.3.1-3.9-.9-3.9-3.8z"/><path fill="#e6e6e6" d="m187.4 289.7h3.2v15h9.4v2.9h-12.5v-17.9z"/><path fill="#e6e6e6" d="m210.2 307.5v-1.7c-.9 1.1-2.3 2-4.4 2-2.6 0-4.8-1.4-4.8-4.2 0-3 2.3-4.4 5.4-4.4 1.7 0 2.6.2 3.7.5v-.2c0-1.9-1.2-2.9-3.3-2.9-1.5 0-2.6.3-3.9.8l-.8-2.5c1.5-.7 2.9-1.1 5.1-1.1 4 0 5.9 2.1 5.9 5.7v8zm.1-5.6c-.8-.3-1.9-.5-3.1-.5-2 0-3.1.8-3.1 2.1s1.1 2 2.6 2c2 0 3.5-1.1 3.5-2.9z"/><path fill="#e6e6e6" d="m219.2 305.5v2.1h-3.1v-18.7h3.1v7.4c1-1.4 2.4-2.5 4.5-2.5 3.2 0 6.3 2.5 6.3 7s-3.1 7-6.3 7c-2.2 0-3.6-1.1-4.5-2.3zm7.7-4.7c0-2.6-1.7-4.3-3.9-4.3s-3.9 1.7-3.9 4.4c0 2.6 1.8 4.3 3.9 4.3s3.9-1.7 3.9-4.4z"/><path fill="#e6e6e6" d="m231.2 305.8 1.4-2.1c1.4 1.1 3 1.7 4.4 1.7s2.1-.5 2.1-1.5-1.3-1.4-2.8-1.8c-.1 0-.2-.1-.2-.1-2-.6-4.2-1.4-4.2-4s2.1-4.1 4.8-4.1c1.7 0 3.5.6 5 1.5l-1.2 2.2c-1.3-.8-2.6-1.3-3.8-1.3s-1.9.5-1.9 1.4 1.3 1.4 2.8 1.8c.1 0 .2.1.2.1 2 .6 4.2 1.5 4.2 4 0 2.9-2.2 4.2-5 4.2-2 0-4.1-.7-5.8-2z"/><path fill="#e6e6e6" d="m360.6 298.6c0-5.1 4.1-9.2 9.3-9.2s9.2 4.2 9.2 9.2-4.1 9.2-9.3 9.2-9.2-4.2-9.2-9.2zm17.4-.1c0-4.5-3.5-8.2-8.2-8.2s-8.2 3.7-8.2 8.3c0 4.5 3.5 8.2 8.2 8.2s8.2-3.7 8.2-8.3zm-13.1-.1c0-2.8 2.1-5.1 5.1-5.1 1.9 0 2.9.6 3.9 1.5l-1.4 1.7c-.8-.7-1.5-1.1-2.5-1.1-1.7 0-2.8 1.4-2.8 3.1s1.1 3 2.8 3c1.1 0 1.7-.5 2.5-1.1l1.4 1.4c-1.1 1.1-2.1 1.7-4 1.7-2.8.1-5-2.2-5-5.1z"/><path fill="#e6e6e6" d="m380.5 289.7h3.4l4.2 13.2 4.4-13.3h2.6l4.4 13.3 4.2-13.2h3.3l-6.2 18h-2.7l-4.4-12.8-4.4 12.8h-2.7z"/><path fill="#e6e6e6" d="m406.7 300.8c0-3.9 3.1-7 7.2-7 4.2 0 7.2 3.2 7.2 7s-3.1 7-7.3 7c-4.1 0-7.1-3.1-7.1-7zm11.3 0c0-2.3-1.7-4.3-4.2-4.3s-4.1 2-4.1 4.3 1.7 4.3 4.1 4.3c2.7.1 4.2-1.9 4.2-4.3z"/><path fill="#e6e6e6" d="m423.3 294h3.1v3c.8-2 2.4-3.4 4.8-3.3v3.2h-.2c-2.7 0-4.6 1.7-4.6 5.4v5.1h-3.1z"/><path fill="#e6e6e6" d="m433 288.9h3.1v11.1l5.6-6h3.8l-5.4 5.5 5.5 8h-3.5l-4.1-5.8-1.9 2v3.9h-3.1z"/><path fill="#e6e6e6" d="m445.6 300.8c0-3.9 3.1-7 7.2-7 4.2 0 7.2 3.2 7.2 7s-3.1 7-7.3 7c-4.1 0-7.1-3.1-7.1-7zm11.3 0c0-2.3-1.7-4.3-4.2-4.3s-4.1 2-4.1 4.3 1.7 4.3 4.1 4.3c2.6.1 4.2-1.9 4.2-4.3z"/><path fill="#e6e6e6" d="m462.1 302.6v-8.6h3.1v7.6c0 2.1 1.1 3.3 2.9 3.3s3-1.3 3-3.3v-7.6h3.1v13.4h-3.1v-2.1c-.8 1.3-2.1 2.3-4.2 2.3-3.1.2-4.8-1.8-4.8-5z"/><path fill="#e6e6e6" d="m477.8 303.8v-7.1h-1.8v-2.7h1.7v-3.7h3.1v3.7h3.6v2.6h-3.6v6.6c0 1.2.6 1.7 1.7 1.7.7 0 1.3-.2 1.9-.5v2.5c-.8.5-1.7.7-2.8.7-2.2.1-3.8-.9-3.8-3.8z"/><path fill="#e6e6e6" d="m487.1 289.7h3.2v15h9.4v2.9h-12.5v-17.9z"/><path fill="#e6e6e6" d="m509.9 307.5v-1.7c-.9 1.1-2.3 2-4.4 2-2.6 0-4.8-1.4-4.8-4.2 0-3 2.3-4.4 5.4-4.4 1.7 0 2.6.2 3.7.5v-.2c0-1.9-1.2-2.9-3.3-2.9-1.5 0-2.6.3-3.9.8l-.8-2.5c1.5-.7 2.9-1.1 5.1-1.1 4 0 5.9 2.1 5.9 5.7v8zm.1-5.6c-.8-.3-1.9-.5-3.1-.5-2 0-3.1.8-3.1 2.1s1.1 2 2.6 2c2 0 3.5-1.1 3.5-2.9z"/><path fill="#e6e6e6" d="m518.8 305.5v2.1h-3.1v-18.7h3.1v7.4c1-1.4 2.4-2.5 4.5-2.5 3.2 0 6.3 2.5 6.3 7s-3.1 7-6.3 7c-2.2 0-3.5-1.1-4.5-2.3zm7.7-4.7c0-2.6-1.7-4.3-3.9-4.3s-3.9 1.7-3.9 4.4c0 2.6 1.8 4.3 3.9 4.3s3.9-1.7 3.9-4.4z"/><path fill="#e6e6e6" d="m530.8 305.8 1.4-2.1c1.4 1.1 3 1.7 4.4 1.7s2.1-.5 2.1-1.5-1.3-1.4-2.8-1.8c-.1 0-.2-.1-.2-.1-2-.6-4.2-1.4-4.2-4s2.1-4.1 4.8-4.1c1.7 0 3.5.6 5 1.5l-1.2 2.2c-1.3-.8-2.6-1.3-3.8-1.3s-1.9.5-1.9 1.4 1.3 1.4 2.8 1.8c.1 0 .2.1.2.1 2 .6 4.2 1.5 4.2 4 0 2.9-2.2 4.2-5 4.2-1.9 0-4.1-.7-5.8-2z"/><path fill="#e6e6e6" d="m659.5 298.6c0-5.1 4.1-9.2 9.3-9.2s9.2 4.2 9.2 9.2-4.1 9.2-9.3 9.2-9.2-4.2-9.2-9.2zm17.3-.1c0-4.5-3.5-8.2-8.2-8.2s-8.2 3.7-8.2 8.3c0 4.5 3.5 8.2 8.2 8.2 4.8 0 8.2-3.7 8.2-8.3zm-13-.1c0-2.8 2.1-5.1 5.1-5.1 1.9 0 2.9.6 3.9 1.5l-1.4 1.7c-.8-.7-1.5-1.1-2.5-1.1-1.7 0-2.8 1.4-2.8 3.1s1.1 3 2.8 3c1.1 0 1.7-.5 2.5-1.1l1.4 1.4c-1.1 1.1-2.1 1.7-4 1.7-2.9.1-5-2.2-5-5.1z"/><path fill="#e6e6e6" d="m679.3 289.7h3.4l4.2 13.2 4.4-13.3h2.6l4.4 13.3 4.2-13.2h3.3l-6.2 18h-2.6l-4.4-12.8-4.4 12.8h-2.7z"/><path fill="#e6e6e6" d="m705.5 300.8c0-3.9 3.1-7 7.2-7 4.2 0 7.2 3.2 7.2 7s-3.1 7-7.3 7c-4 0-7.1-3.1-7.1-7zm11.3 0c0-2.3-1.7-4.3-4.2-4.3s-4.1 2-4.1 4.3 1.7 4.3 4.1 4.3c2.7.1 4.2-1.9 4.2-4.3z"/><path fill="#e6e6e6" d="m722.1 294h3.1v3c.8-2 2.4-3.4 4.8-3.3v3.2h-.2c-2.7 0-4.6 1.7-4.6 5.4v5.1h-3.1z"/><path fill="#e6e6e6" d="m731.8 288.9h3.1v11.1l5.6-6h3.8l-5.4 5.5 5.5 8h-3.5l-4.1-5.8-1.9 2v3.9h-3.1z"/><path fill="#e6e6e6" d="m744.4 300.8c0-3.9 3.1-7 7.2-7 4.2 0 7.2 3.2 7.2 7s-3.1 7-7.3 7c-4.1 0-7.1-3.1-7.1-7zm11.3 0c0-2.3-1.7-4.3-4.2-4.3s-4.1 2-4.1 4.3 1.7 4.3 4.1 4.3c2.6.1 4.2-1.9 4.2-4.3z"/><path fill="#e6e6e6" d="m760.9 302.6v-8.6h3.1v7.6c0 2.1 1.1 3.3 2.9 3.3s3-1.3 3-3.3v-7.6h3.1v13.4h-3.1v-2.1c-.8 1.3-2.1 2.3-4.2 2.3-3.1.2-4.8-1.8-4.8-5z"/><path fill="#e6e6e6" d="m776.6 303.8v-7.1h-1.7v-2.7h1.7v-3.7h3.1v3.7h3.6v2.6h-3.6v6.6c0 1.2.6 1.7 1.7 1.7.7 0 1.3-.2 1.9-.5v2.5c-.8.5-1.7.7-2.8.7-2.3.1-3.9-.9-3.9-3.8z"/><path fill="#e6e6e6" d="m785.9 289.7h3.2v15h9.4v2.9h-12.5v-17.9z"/><path fill="#e6e6e6" d="m808.7 307.5v-1.7c-.9 1.1-2.3 2-4.4 2-2.6 0-4.8-1.4-4.8-4.2 0-3 2.3-4.4 5.4-4.4 1.7 0 2.6.2 3.7.5v-.2c0-1.9-1.2-2.9-3.3-2.9-1.5 0-2.6.3-3.9.8l-.8-2.5c1.5-.7 2.9-1.1 5.1-1.1 4 0 5.9 2.1 5.9 5.7v8zm.1-5.6c-.8-.3-1.9-.5-3.1-.5-2 0-3.1.8-3.1 2.1s1.1 2 2.6 2c2 0 3.5-1.1 3.5-2.9z"/><path fill="#e6e6e6" d="m817.6 305.5v2.1h-3.1v-18.7h3.1v7.4c1-1.4 2.4-2.5 4.5-2.5 3.2 0 6.3 2.5 6.3 7s-3.1 7-6.3 7c-2.1 0-3.5-1.1-4.5-2.3zm7.7-4.7c0-2.6-1.7-4.3-3.9-4.3-2.1 0-3.9 1.7-3.9 4.4 0 2.6 1.8 4.3 3.9 4.3 2.2 0 3.9-1.7 3.9-4.4z"/><path fill="#e6e6e6" d="m829.6 305.8 1.4-2.1c1.4 1.1 3 1.7 4.4 1.7s2.1-.5 2.1-1.5-1.3-1.4-2.8-1.8c-.1 0-.2-.1-.2-.1-2-.6-4.2-1.4-4.2-4s2.1-4.1 4.8-4.1c1.7 0 3.5.6 5 1.5l-1.2 2.2c-1.3-.8-2.6-1.3-3.8-1.3s-1.9.5-1.9 1.4 1.3 1.4 2.8 1.8c.1 0 .2.1.2.1 2 .6 4.2 1.5 4.2 4 0 2.9-2.2 4.2-5 4.2-1.9 0-4-.7-5.8-2z"/><path fill="#e6e6e6" d="m206.3 434.2c0-5.1 4.1-9.2 9.3-9.2s9.2 4.2 9.2 9.2-4.1 9.2-9.3 9.2-9.2-4.1-9.2-9.2zm17.4-.1c0-4.5-3.5-8.2-8.2-8.2s-8.2 3.7-8.2 8.3c0 4.5 3.5 8.2 8.2 8.2s8.2-3.7 8.2-8.3zm-13.1-.1c0-2.8 2.1-5.1 5.1-5.1 1.9 0 2.9.6 3.9 1.5l-1.4 1.7c-.8-.7-1.5-1.1-2.5-1.1-1.7 0-2.8 1.4-2.8 3.1s1.1 3 2.8 3c1.1 0 1.7-.5 2.5-1.1l1.4 1.4c-1.1 1.1-2.1 1.7-4 1.7-2.9.1-5-2.2-5-5.1z"/><path fill="#e6e6e6" d="m226.1 425.3h3.4l4.2 13.2 4.4-13.3h2.6l4.4 13.3 4.2-13.2h3.3l-6.2 18h-2.7l-4.4-12.8-4.4 12.8h-2.7z"/><path fill="#e6e6e6" d="m252.4 436.4c0-3.9 3.1-7 7.2-7 4.2 0 7.2 3.2 7.2 7s-3.1 7-7.3 7c-4.1 0-7.1-3.1-7.1-7zm11.2 0c0-2.3-1.7-4.3-4.2-4.3s-4.1 2-4.1 4.3 1.7 4.3 4.1 4.3c2.7.1 4.2-1.9 4.2-4.3z"/><path fill="#e6e6e6" d="m269 429.7h3.1v3c.8-2 2.4-3.4 4.8-3.3v3.2h-.2c-2.7 0-4.6 1.7-4.6 5.4v5.1h-3.1z"/><path fill="#e6e6e6" d="m278.6 424.5h3.1v11.1l5.6-6h3.8l-5.4 5.5 5.5 8h-3.5l-4.1-5.8-1.9 2v3.9h-3.1z"/><path fill="#e6e6e6" d="m291.3 436.4c0-3.9 3.1-7 7.2-7 4.2 0 7.2 3.2 7.2 7s-3.1 7-7.3 7c-4.1 0-7.1-3.1-7.1-7zm11.2 0c0-2.3-1.7-4.3-4.2-4.3s-4.1 2-4.1 4.3 1.7 4.3 4.1 4.3c2.6.1 4.2-1.9 4.2-4.3z"/><path fill="#e6e6e6" d="m307.7 438.2v-8.6h3.1v7.6c0 2.1 1.1 3.3 2.9 3.3s3-1.3 3-3.3v-7.6h3.1v13.4h-3.1v-2.1c-.8 1.3-2.1 2.3-4.2 2.3-3 .2-4.8-1.8-4.8-5z"/><path fill="#e6e6e6" d="m323.4 439.4v-7.1h-1.7v-2.6h1.7v-3.7h3.1v3.7h3.6v2.6h-3.6v6.6c0 1.2.6 1.7 1.7 1.7.7 0 1.3-.2 1.9-.5v2.5c-.8.5-1.7.7-2.8.7-2.3 0-3.9-.9-3.9-3.9z"/><path fill="#e6e6e6" d="m332.7 425.3h3.2v15h9.4v2.9h-12.5v-17.9z"/><path fill="#e6e6e6" d="m355.5 443.1v-1.7c-.9 1.1-2.3 2-4.4 2-2.6 0-4.8-1.4-4.8-4.2 0-3 2.3-4.4 5.4-4.4 1.7 0 2.6.2 3.7.5v-.2c0-1.9-1.2-2.9-3.3-2.9-1.5 0-2.6.3-3.9.8l-.8-2.5c1.5-.7 2.9-1.1 5.1-1.1 4 0 5.9 2.1 5.9 5.7v8zm.1-5.6c-.8-.3-1.9-.5-3.1-.5-2 0-3.1.8-3.1 2.1s1.1 2 2.6 2c2 0 3.5-1.1 3.5-2.9z"/><path fill="#e6e6e6" d="m364.4 441.1v2.1h-3.1v-18.7h3.1v7.4c1-1.4 2.4-2.5 4.5-2.5 3.2 0 6.3 2.5 6.3 7s-3.1 7-6.3 7c-2.1 0-3.5-1.1-4.5-2.3zm7.7-4.7c0-2.6-1.7-4.3-3.9-4.3-2.1 0-3.9 1.7-3.9 4.4 0 2.6 1.8 4.3 3.9 4.3 2.2 0 3.9-1.7 3.9-4.4z"/><path fill="#e6e6e6" d="m376.5 441.4 1.4-2.1c1.4 1.1 3 1.7 4.4 1.7s2.1-.5 2.1-1.5-1.3-1.4-2.8-1.8c-.1 0-.2-.1-.2-.1-2-.6-4.2-1.4-4.2-4s2.1-4.1 4.8-4.1c1.7 0 3.5.6 5 1.5l-1.2 2.2c-1.3-.8-2.6-1.3-3.8-1.3s-1.9.5-1.9 1.4 1.3 1.4 2.8 1.8c.1 0 .2.1.2.1 2 .6 4.2 1.5 4.2 4 0 2.9-2.2 4.2-5 4.2-2 0-4.1-.7-5.8-2z"/><path fill="#e6e6e6" d="m505.1 434.2c0-5.1 4.1-9.2 9.3-9.2s9.2 4.2 9.2 9.2-4.1 9.2-9.3 9.2-9.2-4.1-9.2-9.2zm17.4-.1c0-4.5-3.5-8.2-8.2-8.2s-8.2 3.7-8.2 8.3c0 4.5 3.5 8.2 8.2 8.2s8.2-3.7 8.2-8.3zm-13.1-.1c0-2.8 2.1-5.1 5.1-5.1 1.9 0 2.9.6 3.9 1.5l-1.4 1.7c-.8-.7-1.5-1.1-2.5-1.1-1.7 0-2.8 1.4-2.8 3.1s1.1 3 2.8 3c1.1 0 1.7-.5 2.5-1.1l1.4 1.4c-1.1 1.1-2.1 1.7-4 1.7-2.9.1-5-2.2-5-5.1z"/><path fill="#e6e6e6" d="m525 425.3h3.4l4.2 13.2 4.4-13.3h2.6l4.4 13.3 4.2-13.2h3.3l-6.2 18h-2.7l-4.4-12.8-4.4 12.8h-2.7z"/><path fill="#e6e6e6" d="m551.2 436.4c0-3.9 3.1-7 7.2-7 4.2 0 7.2 3.2 7.2 7s-3.1 7-7.3 7c-4.1 0-7.1-3.1-7.1-7zm11.2 0c0-2.3-1.7-4.3-4.2-4.3s-4.1 2-4.1 4.3 1.7 4.3 4.1 4.3c2.7.1 4.2-1.9 4.2-4.3z"/><path fill="#e6e6e6" d="m567.8 429.7h3.1v3c.8-2 2.4-3.4 4.8-3.3v3.2h-.2c-2.7 0-4.6 1.7-4.6 5.4v5.1h-3.1z"/><path fill="#e6e6e6" d="m577.5 424.5h3.1v11.1l5.6-6h3.8l-5.4 5.5 5.5 8h-3.5l-4.1-5.8-1.9 2v3.9h-3.1z"/><path fill="#e6e6e6" d="m590.1 436.4c0-3.9 3.1-7 7.2-7 4.2 0 7.2 3.2 7.2 7s-3.1 7-7.3 7c-4.1 0-7.1-3.1-7.1-7zm11.2 0c0-2.3-1.7-4.3-4.2-4.3s-4.1 2-4.1 4.3 1.7 4.3 4.1 4.3c2.6.1 4.2-1.9 4.2-4.3z"/><path fill="#e6e6e6" d="m606.5 438.2v-8.6h3.1v7.6c0 2.1 1.1 3.3 2.9 3.3s3-1.3 3-3.3v-7.6h3.1v13.4h-3.1v-2.1c-.8 1.3-2.1 2.3-4.2 2.3-3 .2-4.8-1.8-4.8-5z"/><path fill="#e6e6e6" d="m622.2 439.4v-7.1h-1.7v-2.6h1.7v-3.7h3.1v3.7h3.6v2.6h-3.6v6.6c0 1.2.6 1.7 1.7 1.7.7 0 1.3-.2 1.9-.5v2.5c-.8.5-1.7.7-2.8.7-2.3 0-3.9-.9-3.9-3.9z"/><path fill="#e6e6e6" d="m631.5 425.3h3.2v15h9.4v2.9h-12.5v-17.9z"/><path fill="#e6e6e6" d="m654.3 443.1v-1.7c-.9 1.1-2.3 2-4.4 2-2.6 0-4.8-1.4-4.8-4.2 0-3 2.3-4.4 5.4-4.4 1.7 0 2.6.2 3.7.5v-.2c0-1.9-1.2-2.9-3.3-2.9-1.5 0-2.6.3-3.9.8l-.8-2.5c1.5-.7 2.9-1.1 5.1-1.1 4 0 5.9 2.1 5.9 5.7v8zm.1-5.6c-.8-.3-1.9-.5-3.1-.5-2 0-3.1.8-3.1 2.1s1.1 2 2.6 2c2 0 3.5-1.1 3.5-2.9z"/><path fill="#e6e6e6" d="m663.3 441.1v2.1h-3.1v-18.7h3.1v7.4c1-1.4 2.4-2.5 4.5-2.5 3.2 0 6.3 2.5 6.3 7s-3.1 7-6.3 7c-2.2 0-3.6-1.1-4.5-2.3zm7.7-4.7c0-2.6-1.7-4.3-3.9-4.3s-3.9 1.7-3.9 4.4c0 2.6 1.8 4.3 3.9 4.3s3.9-1.7 3.9-4.4z"/><path fill="#e6e6e6" d="m675.3 441.4 1.4-2.1c1.4 1.1 3 1.7 4.4 1.7s2.1-.5 2.1-1.5-1.3-1.4-2.8-1.8c-.1 0-.2-.1-.2-.1-2-.6-4.2-1.4-4.2-4s2.1-4.1 4.8-4.1c1.7 0 3.5.6 5 1.5l-1.2 2.2c-1.3-.8-2.6-1.3-3.8-1.3s-1.9.5-1.9 1.4 1.3 1.4 2.8 1.8c.1 0 .2.1.2.1 2 .6 4.2 1.5 4.2 4 0 2.9-2.2 4.2-5 4.2-2 0-4.1-.7-5.8-2z"/></g>
</svg>
