<?xml version="1.0" encoding="utf-8"?>
<!-- Generator: Adobe Illustrator 19.1.0, SVG Export Plug-In . SVG Version: 6.00 Build 0)  -->
<svg version="1.2" baseProfile="tiny" id="Layer_2" xmlns="http://www.w3.org/2000/svg" xmlns:xlink="http://www.w3.org/1999/xlink"
	 x="0px" y="0px" width="900px" height="600px" viewBox="144 97 900 600" xml:space="preserve">
<g>
	<path d="M895,360.3c0.5,0.3,1.1,0.7,1.8,1.1c-0.2,4.4-1.9,8.3-3.9,12c-1.5,2.8-2.3,5.6-2.4,8.7c-0.1,4.9-1.3,9.4-3.4,13.8
		c-2.8,5.8-5.2,11.8-8.6,17.4c-1.7,2.9-2.3,6.5-3.4,10c1.3,1.7,1.4,4,1.5,6.2c0.5,8.6,0.4,17.2-0.3,25.8c-0.2,1.8-0.2,3.6-0.3,5.6
		c7.2,0.7,14,1.8,20.7,3.4c5.7,1.4,11.3,2.9,16.7,5c1.5,0.6,3,1,4.6,0.9c6.4-0.1,12.7,1,19,1.7c6,0.7,11.7-0.5,16.3-4.5
		c2.7-2.3,5.5-3.5,8.9-3.6c2.1-0.1,4.2,0,6.3-0.8c2.7-1,3.7,1.3,4.6,3.2c5.3,0.4,10.2,1.6,14.1,4.3c0.4,2.7-1.3,3.4-1.9,4.8
		c2.1,0.4,3,1.9,3.3,3.6c1.2,1.1,2.7,1.3,3.5,2.6c1,2.4-1.5,3.6-2.2,5.8c0.1,2.1,2.8,3.4,2.1,6.2c-1,1.9-3.5,2.8-5,5
		c0,2.3-0.4,4.7-2.5,6.5c-0.1,0.1-0.2,0.2-0.2,0.3c-0.9,4.9-4.5,5.1-8.6,5.7c-7.7,1.2-15.7,1-23.3,2.6c-9.6,2.1-19.3,3.2-28.9,5.1
		c-9.7,1.9-19.5,3.6-29.4,4.6c-9,0.9-18,1.1-27,1.1c-8.1-0.1-16.2,0-24.2,0.6c-4.8,0.4-7.7-1.3-9.7-5.6c-3.6-7.6-4.9-15.6-5.6-23.8
		c-0.2-3,0-6.1,0-9.3c-1.9-1.4-2.2-3.5-2.9-5.5c-2.4-7.1-2.8-14.5-3.3-21.9c-0.4-6.1-0.1-12.2,1-18.2c1.1-6.1,2.1-12.1,3.2-18.4
		c-0.7,0-1.1-0.1-1.4,0c-4.9,2.1-10.2,2.5-15.3,3.7c-2.7,0.7-5.5,0.3-8.2-0.7c-5-1.8-10-3.6-14.7-5.9c-4.8-2.4-8.9-6.2-11-11.5
		c-0.5-1.3-0.7-2.9-2-3.7c-0.3-0.1-0.6-0.2-0.8-0.2c-10,2.5-20.4,2.5-30.6,3.2c-4.9,0.3-9.8-0.7-14.6-1.2c-1.5-0.1-2.9-0.5-4.4-0.1
		c-5.3,1.3-10.8,1.4-16.2,1.6c-4.2,0.2-8.5-0.1-12.7-0.8c-1.8-0.3-3.6-0.6-5.5,0c-1.2,0.4-2.6,0.4-3.9,0.3c-2.8-0.1-5.6-0.3-8.3,0
		c-1.7,0.2-3.4-0.2-5-1.3c-6.5,2.5-13.1,4.9-19.9,6.4c-1.8,0.4-3.6,0.8-5.5,0.8c-11.6,0.1-22.9,1.6-34.3,3.8c-2.6,0.5-5,1.7-7.4,2.7
		c-6.4,2.8-12.7,6-19.4,8.2c-3.2,1-6.3,1.7-9.7,1.9c-3.2,0.2-6.3,1-9.4,1.5c-9.2,1.5-18.4,2.1-27.7,2.2c-15.9,0.1-31.8-0.1-47.7-1.4
		c-7.6-0.6-15.2-1.9-22.9-2.8c-5.8-0.7-11.6-1.4-17.3-2.7c-4.4-1-8.2-3.2-11.5-6.3c1.4,0.4,2.8,0.6,4.1,1.1c5.5,1.6,11,3,16.5,4.2
		c2.6,0.6,5.2,1.1,7.9,1c10.6-0.5,21.1,1.4,31.7,1.8c15.4,0.5,30.7,1.5,46.1,1.1c6.7-0.2,13.5-0.2,20.1-1.3c0.6-1.2-0.2-1.9-0.5-2.7
		c-2.8-6.8-5-13.8-5.4-21.1c-0.6-8.8-3.7-16.9-5.3-25.4c-0.3-1.4-0.2-2.9-1.2-4.2c-1.3-0.4-2.5,0.7-4,0c0.1-0.9,1-0.9,1.6-1.2
		c0.7-0.4,1.6-0.3,2.1-1.3c-1.7-10-3.2-20.2-3.1-30.4c-0.5-0.2-0.8-0.4-1-0.4c-10.6,3.6-21.6,5.3-32.6,6.9
		c-13.8,2.1-27.1,6.1-40.8,8.6c-13.7,2.5-27.2,5.6-40.8,8.7c-3.4,0.8-6.9,0.8-10.2,1.4c-7.8,1.5-15.7,2.3-23.7,1.6
		c-1.9-0.2-3.9,0.5-5.9,0.9c-1.4,0.3-2.9,0.5-4.3,0c-3.7-1.2-7.6-1-11.4-0.9c-6.8,0-13.5-0.6-20.1-1.8c-3-0.6-6-0.8-9.1-0.8
		c-12.1,0.1-24.1,0.2-36.2,0.7c-8.9,0.4-17,3.6-25.6,5.2c-12.5,2.3-24.5,6.8-36.8,9.6c-8.3,1.9-16.8,2-25.3,2.1
		c-2.2,0-4.2-0.6-6.2-1.4c-2.6-1.1-5.1-1.1-7.5,0.5c-0.9,0.6-1.9,0.8-3.1,1.3c-1.6,2.4-3.1,5.1-4.5,7.8c-1.8,3.5-2,7-1,10.8
		c0.5,2,1.5,3.3,3.3,4.2c5.1,2.6,10.5,4.3,16.1,5.4c1.4,0.3,3,0.3,4.3-0.3c2.8-1.1,5.7-1,8.6-1.1c9-0.2,18-0.1,27-0.5
		c5.9-0.2,11.9,0.9,17.5,2.9c0.5,0.2,1,0.5,1.5,0.5c10,1,19.7,4,29.8,5.1c5,0.5,10,0.6,15.1,0.8c5.3,0.1,10.6,0.1,15.9,0.6
		c4.2,0.4,8.4-0.6,12.7-0.9c4.9-0.2,9.8-0.9,14.7-1.1c6.4-0.3,12.5-1.8,18.3-4.9c1,0.3,2,0.6,2.8,0.8c1.7-0.2,3-2.3,5.1-0.5
		c-3.2,1.3-6.6,1.2-9.9,3.5c4.7,1.4,8.2,3.9,13,4.1c5.8,0.2,11.6-0.7,17.5,0c2.6,0.3,5.2,0.7,7.9,1.1c3.3,0.5,6.6,0.3,9.9,0
		c1.3-0.1,2.6-0.7,3.9,0.1c0.4,1.3-0.6,1.6-1.5,1.8c-5.2,1.1-10.5,1.5-15.8,0.6c-4.1-0.7-8.1-1.2-12.2-0.6c-3.4,0.5-6.6-0.4-9.3-2.3
		c-3.1,0.9-9.1-0.3-16.9-3.4c-4.2,0.8-8.5,1.1-12.8,2.1c-2.7,0.6-5.5,0.9-8.3,1.1c-13,0.8-25.9,0.8-38.9,0.8
		c-4.3,0-8.4-0.6-12.6-1.3c-8.3-1.4-16.7-2.6-25.1-4c-1.7-0.3-3.4-0.5-5-1.1c-6.7-2.4-13.6-3-20.7-2.3c-2.6,0.3-5.3,0.1-7.9-0.4
		c-4.1-0.8-8.1,0.7-13,0.5c3.7,2.4,3.7,5.3,2.4,8.4c-0.5,1.2-0.9,2.5-1.4,3.7c-1.2,3.4-2.5,6.7-6,8.6c0.3,5.1,2.7,10,0.1,14.8
		c4.4,4,4.9,9.4,6.4,14.6c3.7,1.4,6.1,4.7,9,7c0.7,3.1,0.8,6,0.4,8.9c-0.6,4.5-2.7,7.4-7.2,8.4c-0.5,0.1-1,0.3-1.7,0.5
		c-0.7,4.6-3.7,7.4-7.7,9.2c-4.6,2.1-9.5,2-13.9,0c-9.1-4.1-17.7-9.1-25.1-15.8c-0.8-0.7-1.5-1.5-2.4-2.1
		c-7.4-5.5-11.9-12.4-12.7-21.9c-0.4-5.5-0.4-11.1-1.5-16.6c-0.2-1,0.2-2.1,0.3-3.8c-0.2-0.1-0.8-0.5-1.3-0.9
		c-6.6-4.7-10.4-11.5-13.7-18.6c-3.3-7.1-4.5-14.6-3.7-22.5c0.2-2,0-3.9-0.5-5.9c-1-3.6-0.1-7,1.4-9.9c1.9-1.6,4-0.9,5.6-1.5
		c0.9-0.6,0.4-1.5,0.7-2.2c0.8-2.5,2.2-3.8,4.9-3.8c11.1-0.2,22.2-1.5,33.4-0.6c2.5,0.2,5-0.1,7.5-0.2c3,0,6.1-0.3,8.5,1.6
		c1,1.5,0.7,3.1,1.2,4.8c2.6,0.6,5.4,0,8.1,0c5.5,0,10.8-0.7,16-2.5c3.3-1.1,6.6-1.9,10-2.3c7.8-1.1,15.3-3.3,22.9-5
		c14.6-3.3,29-7.3,43.7-10c6.8-1.2,13.3-3.7,20.2-4.3c5.7-0.5,11.3-1.3,17-1.8c5-0.5,10,0.5,15.1,0.9c8.9,0.7,17.5,2.3,26,5.2
		c1.8,0.6,4,0.3,5.9,0.8c6.4,1.5,12.6-0.3,18.8-1.1c26.2-3.4,51.8-9.4,77.3-16.1c10.4-2.7,21.1-3.7,31.8-4.9
		c5.1-0.6,10.3-1.1,15.4-1.7c4.7-0.5,8-2.8,10.2-7.1c4.7-9,12.3-14.7,21.7-18.2c2.2-0.8,4.6-1.3,6.8-2.2c5.2-2,10.5-2.7,16-1.7
		c0.6,0.1,1.3,0.2,2,0.1c13.4-0.8,26,2.1,38.1,7.7c3,1.4,5.9,3,8.2,5.6c0.6,0.7,1.4,1.1,2.3,1.5c2.5,1,4.9,2.1,6.7,4.3
		c5.5-2.4,11.3-1.7,16.9-2.4c13.6-1.6,26.9-4.3,40.2-7.2c13.6-2.9,27.1-6.1,40.2-10.8c7.1-2.6,14.5-2.7,21.9-3.8
		c8.5-1.3,16.9-1.3,25.3-0.2c5,0.7,10-0.1,15,0.3c8.6,0.6,17.2,0.9,25.8,1.4c5.2,0.3,10.3,1,15.4,2c5,0.9,9.7,2.6,14.1,5.2
		c5.4,3.2,11.1,5.7,16.8,8.1c3.3,1.4,6.5,2.9,9.2,5.6c6.3-0.2,12.6,0.7,19,0.3c5.3-0.3,9.9-1.5,12.9-5.4c1.2-1,0.5-1.6,0.6-2.5
		c4.1-4.2,7.7-9,12.4-13c4-3.5,8.5-5.7,13.7-6.8c5.7-1.1,11.4-2.3,17.4-2.4c-0.6-10.4,5.9-15.8,13.4-20.2c1.3-0.6,0.6-2.2,2.1-2.8
		c7.3-3,14-1.4,18.4,5.4c5.8,8.9,9.1,18.8,8.4,29.7c-0.1,1.4-0.1,2.9-1.3,4c-0.2-0.4-0.4-0.7-0.3-0.9c1.1-5.9-0.6-11.3-2.7-16.6
		c-1.5-3.7-2.9-7.4-4.5-11c-1.3-3-3.2-5.5-5.9-7.3c-3.4-2.3-6.8-2.6-10.3-0.2c-3.2,2.2-6.5,4.1-9.3,6.7c-2.9,2.7-5.1,5.8-5.9,9.7
		c-0.2,0.9-0.4,1.8,0.3,2.9c1.6,0.6,3.8-0.4,5.7,1c0.6,1,0.3,2.3-0.3,3.2c-4.4,6.5-7.1,13.9-10,21.1c-0.3,0.7-0.4,1.5-1.5,2.1
		c1.1-6,3.4-11.2,5.3-16.7c-5.1,5.4-8.2,11.9-10.1,19.1c0.1-1.5,0.1-3.1,0.3-4.6c0.2-1.6,0.4-3.2,0.8-4.7c0.4-1.6,1-3.2,1.7-5.6
		c-4.6,4.4-6.9,9.3-9.3,14.5c-0.3-0.6-0.6-0.9-0.5-1.1c1.9-5.6,4-11.2,8-15.8c3-3.5,6.8-5.8,11.2-7.3c1.4-0.5,2.8-0.8,3.4-2.7
		c-2.8-0.4-5.4,0.2-8.3,0.2c-1.7,1.7-4.2,2.2-6.6,2.7c-3.6,0.7-7,2.3-10.6,3.3c-6.6,1.8-11.7,5.8-17.1,8.8c-0.4,0.6-0.6,0.8-0.6,1
		c-2.3,9-8.3,13.7-17.3,15.2c-5.8,1-11.6,0.8-17.4,0.4c-2.7-0.2-5.2-1-7.1-3.1c-1.6-1.7-3.8-2.4-5.9-3.2c-5.9-2.3-11.9-4.4-17.4-7.5
		c-3.9,0-7.2,1.5-10.7,3.3c2.1,2.6,4.5,4.9,6.1,7.7c2.5,4.4,6.2,7.5,10.2,10.4c0.4,0.3,0.8,0.7,1.2,1c6.9,4.6,10.5,11.4,12.4,19.2
		c0.2,0.8,0.1,1.6,1,2.3c0.9-2.5,1.9-5,3-7.9c1.1,4.9-0.5,9.1-4.1,11.5c-1.5-0.8-1.4-2.4-1.7-3.8c-1.5-6.3-4.5-11.5-9.6-15.6
		c-2.4-1.9-4.7-3.8-7.1-5.7c-2.4-1.9-4.5-4.1-5.7-7c-1.3-3.2-3.3-5.7-5.6-8.1c-1.5-1.6-3-3.3-3.4-5.7c2.2-2.6,5.2-3.3,9-3.9
		c-1.8-1.2-3.1-1.5-4.5-1.9c-5.1-1.4-10.4-2-15.6-2.6c-8.4-0.9-16.8-2.2-25.3-1.8c-6.7,0.3-13.5,0-20.2-0.7
		c-5.9-0.6-11.9-1.2-17.8-0.5c-3.8,0.4-7.6,1-11.4,1.6c-2.1,0.3-4.3-0.1-6.2,1c-0.3,1.5-0.5,2.9-0.9,4.3c-2.8,9.7-4.7,19.6-5.4,29.6
		c-0.4,5.7-1.6,11.3-1,17c0.9,8.4,1.5,16.9,2.1,25.3c0.2,2.3,0,4.5-0.5,6.7c-1,4.7-0.5,9.4,0.7,13.9c3.6,0,6.8-1.7,10.1-0.5
		c1.4,1.4,2.5,3,3.3,4.9c1.7,3.9,4.6,6.7,8.4,8.7c4.1,2.2,8.5,3.8,13,4.9c9,2.3,18,2.6,26.7-1.3c1.5-4.4,2.9-8.8,4.3-13.1
		c-1-1.6-2.5-2.3-3.8-3.2c-3.7-2.6-7.2-5.4-10-9c-6.9-9-7.1-20.3-0.5-29.5c2.3-3.2,4.7-6.4,7.3-9.4c5.8-6.8,13.1-10.9,22.1-12.2
		c6.6-1,13.3-0.8,19.8,0.4c9.8,1.8,19.4,4.5,24.6,13.4c0.4,4.4,0.7,8.1,1.1,11.7c0.2,0,0.4,0,0.6,0.1
		C892.9,365.6,893.9,362.9,895,360.3z M839,522.7c4.7-0.5,9.1-1,13.6-1.1c7.8-0.1,15.6,0.1,23.4,0.3c13.8,0.3,27.4-2.6,41-4.4
		c7.1-0.9,14-2.7,21-4.1c3.2-0.7,6.6-0.5,9.8-1.6c3-1.1,6.1-1.6,9.3-1.9c4.4-0.3,8.7-0.5,13.1-1c3.4-0.4,6.9-0.2,10-1.5
		c0.6-1.4,0.9-3.1,1.8-3.7c2.5-1.5,2.7-3.7,2.9-6.1c1.7-1.8,3.3-3.5,4.9-5.2c-0.7-2.1-2.3-3.7-1.9-6.4c0.1-1.1,1.7-1.9,1.8-3.5
		c-0.9-0.6-1.7-1.2-2.6-1.8c-1-0.7-0.8-2.3-1.8-2.8c-1.3-0.5-2.5-0.6-3.7-0.3c-2,0.5-4-0.1-5.9-0.2c-1.7-0.1-2.6-1-2.5-3.4
		c1.7,1.5,2.4,0.2,3.4-0.7c1.7,2.7,4.2,2.2,6.6,2c1.2-1,2.2-1.8,1.6-3.7c-0.8-0.2-1.4-1.5-3-0.9c0.6,1.1,1.8,1.8,1.3,3.3
		c-1.9,0.4-3-0.6-3.5-2.2c-0.6-1.9-1.7-2.9-3.8-3.2c-3.6,1-7.2,2.8-11.3,2.7c-1.5,0-2.8,0.8-3.7,2c-3.8,5.2-9.1,8.8-13.6,13.3
		c-1.4,1.5-3.2,2.3-5.1,2.9c-6.1,2-12.4,2.7-18.7,3.1c-10.6,0.7-21.2,0.2-31.6-1.8c-6.9-1.3-13.8-1.3-20.8-2.2
		c-0.5,1.8-0.6,3.4-1.7,5.4c-0.1-2.3-0.8-4.1,0.1-5.5c1.4-1.9,1.1-4,1.1-6c-0.1-6.4,0.6-12.7,1.3-19c1.5-12.8,2.1-25.6,2.3-38.4
		c0-1.5-1-2.6-0.8-4.1c1.3-7.5,3.5-14.6,7.3-21.2c4.2-7.3,7.8-14.8,6.7-23.6c-0.6-4.6-1.2-9.2-3.7-13.2c-0.2-0.3-0.1-0.5,0.1-0.7
		c0.8,0,0.9,1.2,1.9,1.1c0.9-1.1,1.7-2.3,2.1-3.2c0.4-4.4-2.2-6.4-5.3-8c-4.2-2.1-8.6-3.4-13-4.8c-8.8-2.9-17.6-2.6-26.1,0.4
		c-8.8,3.1-16.7,7.7-22,16c-5.4,8.4-5.6,16.7-1.9,25.7c2.5,6.1,7.2,9.4,12.9,12c1.7-5.8,2.6-11.6,3.4-17.4c-2.8-1.6-5-3.7-6.4-7.1
		c2.9,0.8,4.2,3,6.3,4.4c0.4-4.8-1.2-9.2-0.7-14.3c2.1,1.8,2.2,3.7,2.5,5.4c1.3,7.1,0.4,14.3-0.4,21.4c-0.3,3-0.8,6.1-1.6,9
		c-1.4,5-3.2,9.8-4.8,14.7c-3,9.3-5,18.6-3.5,28.5c1,6.4,0.9,13,2,19.4c1.1,6.8,2,13.6,1.9,20.5c0,3.3,0.1,6.6,0.3,9.9
		c0.6,12.4,0.6,12.4,6.3,23.3C837.7,520.2,838.3,521.3,839,522.7z M646.8,322.5c-0.6,0.6-1,0.7-1.3,0.4c-5.5-4.2-11.9-5.5-18.5-6.8
		c-9.5-1.8-18.9-3.6-28.8-2.5c-9.6,1.1-18.2,4.2-25.6,10.6c-3.4,2.9-6.9,5.7-10.2,8.8c-2,1.9-4.5,3.3-6,5.7
		c-0.1,0.1-0.5,0.1-0.5,0.1c-1.3-0.4-0.2-1.9-1.4-2.4c-1.1,0.1-2.3,0.1-2.9,1.3c0.3,1.9,0.5,3.7,0.7,5.5c0.9,7.5,1.6,15,2.8,22.5
		c2.6,15.1,5.5,30.2,7.4,45.4c0.7,5.7,3.1,11.1,5.9,16.3c1.9-0.1,3.6-0.2,5.3-0.8c6.9-2.4,13.8-4.5,20.5-7.5
		c8-3.6,16.3-6.2,24.8-8.2c1-0.3,2.1-0.3,3.1-0.3c8.1-0.5,16.1-0.6,24.2-1.7c2-0.3,3.9-1.1,5.9-0.9c5.7,0.5,10.5-2.2,15.7-3.4
		c-0.7-5-0.5-9.6-0.5-14.2c0-2.9,0.3-5.8-0.2-8.7c-2.3-13.3-3.6-26.8-4.6-40.2c-0.4-5-0.4-10-1.6-14.8c-1-0.7-1.8-1.4-2.8-1.9
		c-4.1-2-8.2-4-12-6.7c-3.7-2.7-8.3-3.9-12.8-5.3c-11.4-3.6-23.2-4.1-34.9-5c-1.9-0.1-3.7,0.4-5.4,1c-3.9,1.4-7.7,2.7-11.6,4.1
		c-2.8,1-5.4,2.3-7.9,3.7c-2.4,1.4-3.3,2.4-4.6,5.2c1.4-0.9,2.5-1.6,3.5-2.4c4.2-3.2,8.8-5.2,13.8-6.9c7.3-2.4,14.8-2.4,22.3-2.2
		c1.5,0,2.9,0.1,4.3,0.4c5.5,1,10.9,2,16.4,3.2c4.2,0.9,8.2,2.1,12,4.2C643.8,319.1,645.6,320.5,646.8,322.5z M761.7,403.2
		c-1.1-8.3-0.9-16.2-1.1-24.1c-0.1-3.3,0.1-6.6-0.2-9.8c-0.8-7.2-1.7-14.4-1.4-21.7c0.5-13.3,2.5-26.3,7.3-38.8
		c0.3-0.9,1.2-1.8,0.3-3c-26.7,7.6-53.3,15.7-81.3,20c0.9,0.5,1.2,0.7,2,1.2c-5.8,2.3-11.5,3.3-17.4,3.5c-1.1,0-2.4,0.4-3.1-1
		c0.1-0.3,0.1-0.7,0.3-0.8c5.4-1.5,11.2-0.3,16.6-2.1c-2-0.2-17.8,0.8-19.4,1.3c0.4,2.1,0.9,4.1,1.1,6.2c0.6,5.5,1,11.1,1.5,16.6
		c0.5,5.7,0.7,11.4,1.6,17c1.7,10.5,3.1,20.9,2.6,31.6c-0.1,1.6,0,3.1,0,4.9c4.2,0.2,8.1-0.8,12-0.1c1.9,0.3,3.9,0.5,5.7-0.9
		c0.8-0.6,1.8-0.5,2.7-0.4c9.9,1.7,19.8,1.3,29.6-0.3c1.8-0.3,3.7-0.3,5.5-0.1c5.3,0.6,10.5,1,15.8,1.4
		C748.7,404.1,754.9,403.8,761.7,403.2z M161.7,389.3c-2.1,13.1,0.7,24.9,8.2,35.7c0.5,0.7,1,1.3,1.2,2.1c0.6,2.2,2.2,3.5,3.8,4.9
		c1.8,1.7,4.2,2.8,5.3,5.4c-1.4,4.4-0.8,9.1-0.2,13.6c0.6,3.9,1.4,7.8,1.9,11.8c0.3,2.5,1.2,4.6,2.7,6.5c3.5,4.4,7.5,8.6,11.9,12
		c7.7,5.9,16.2,10.5,25,14.5c0.8,0.3,1.5,0.3,2.3,0.3c5,0,9.4-1.5,12.8-5.2c0.1-0.1,0.1-0.5,0.1-0.5c-0.3-0.8-1,0.2-1.3-0.6
		c1.3-3.7,2.4-7.6,3.1-11.8c-3.7-3-7-6.2-8.8-10.7c-1.8-4.4-2.2-8.8-0.5-13.4c-2-0.4-4.2,0.6-5.2-1.6c-0.2-0.9,0.2-1.5,0.9-2
		c1.5-1.2,3.3-0.3,4.8-0.3c1.4-3.7,1.4-3.7,1.1-6.6c-5.4,2.4-7.4,1.9-8.2-2c2.6-1,4.5-1.3,8.1-1.1c-0.3-1.7-0.6-3.3-0.9-5
		c-6.7,2.6-8.9,2.4-11.3-1c3.9-2.2,7.8-3.2,12.1-1.8c3.5-2.9,8-11.2,8.1-15.3c-3.5-0.4-6.8-1.6-10.2-2.4c-1.5-0.4-3.2,0-4.7,0
		c-1.2,0-2.4-0.1-3.5-0.4c-4.5-1.4-9.1-2.8-13.5-4.5c-5.3-2-8.9-7.8-7.9-13.3c1.2-6.5,4.7-12,10-16.1c2.1-1.6,4.6-2.6,6.5-4.6
		c-1.4-1.4-2.8-1.1-4.2-0.7c-2.2,0.7-4.3,1.1-6.6,1.4c-6.7,0.9-13.4,0.6-20.2,1.2c-7.8,0.8-15.2,3.2-22.9,3.9
		c-1.4,2.1-1,4.3-1.7,6.2C160.5,388.3,161,388.7,161.7,389.3z M875.5,463c-0.5,8.1-2.5,15.4-4.5,22.9c2.3,0.8,4.3,0.8,6.2,0.8
		c4.9,0.1,9.8,0,14.6,1.5c4.2,1.3,8.5,1.7,12.9,1.9c8.6,0.4,17.2,0.8,25.7-0.8c4.7-0.9,9.3-1.9,12.1-2.5c5.3-4.8,10-8.1,13.3-12.4
		c3.7-4.8,7.9-6.6,13.6-6.1c0.3,0,0.7-0.3,1.1-0.5c-0.2-0.9,0-1.9-1.2-2.4c-2.5,0.9-5.3,0.9-8.1,0.9c-2.1,0-3.9,0.5-5.5,1.9
		c-2.3,2-5,3.5-7.5,5.1c-3.2,2-6.5,2.8-10.2,2.3c-2-0.3-3.9-0.6-5.9-0.8c-9.6-0.9-19.1-1.9-28.3-5.1c-5.9-2-12-3.3-18-4.8
		C882.5,464.1,879.3,463.2,875.5,463z M548.7,337.6c-0.9-0.5-1.8-0.1-2.7,0c-3.3,0.4-6.6,0.9-9.8,1.3c-13.7,1.5-27.3,3.4-40.6,7.1
		c-21.2,5.9-42.7,10.5-64.4,13.9c-6.9,1.1-13.8,2.6-20.9,1.3c-0.5-0.1-1.1-0.1-1.6,0c-3.9,0.6-7.6-0.1-11.2-1.4
		c-2.7-0.9-5.6-1.5-8.5-2c-6.9-1.1-14-1.5-20.9-2.1c-4.9-0.5-9.8-0.8-14.7-0.6c-9.2,0.4-18.2,2.9-27.4,4c-5.7,0.7-11.3,2.7-17,4.1
		c1.2,0.7,2.4,0.4,3.6,0.3c8.2-0.8,16.4-0.7,24.6-0.8c15.9-0.1,31.7,1.8,47.5,3.4c1.4,0.1,2.2,1.1,2.9,1.4
		c6.2-1.3,11.8-2.7,17.7-1.9c5.7,0.8,11.4,0.2,17-1c8.9-1.9,17.8-4,26.7-6c18-4,36.2-6.6,53.9-11.6c0.6-0.2,1.3-0.2,2-0.3
		c11.1-1.8,22.2-3.6,33.3-5.3c3-0.5,5.9-1.4,8.8-2.4C547.7,338.8,548.6,338.7,548.7,337.6z M232.1,451.1c-0.6,3.9-2.3,6.8-1.3,10.2
		c1.6,5.5,3.4,10.8,8.5,14.1c0.9,0.6,1.7,1.3,1.9,2.4c-0.1,2.7-1.8,5.2-1.2,8.2c1.5-0.1,2.7-0.6,3.9-1.5c0.4-1.1,0.8-2.3,1.2-3.6
		c0.4-1.5,0.7-3.1,1-4.6c0.5-3.4-1.4-6.3-4.9-7c-3.4-0.6-5-2.5-5.5-5.7C235,459.5,234.5,455.5,232.1,451.1z M198,374.3
		c-0.9-0.7-1.8-0.5-2.5-0.5c-8.3,0.5-16.6,0.9-24.8,1.4c-1.4,0.1-2.5,0.6-2.9,2.6C177.8,375.1,187.9,375.8,198,374.3z M824.1,453.5
		c-0.3,7,1.3,24.9,3.7,28.2C826.5,472.3,825.3,462.9,824.1,453.5z M244,378.5c4.2,0,8.1-0.8,10.8-2.1
		C251.4,377.5,247.7,376.4,244,378.5z M888.6,369.8c0.5-2.6,0.2-4.5-0.6-6.4c-1.1,0.6-1.6,1.2-1.6,2.3
		C887,366.9,887.6,368.1,888.6,369.8z"/>
	<path d="M1021.4,377c0.4,0,0.8-0.1,1.4-0.1c0.9,1.4,0.9,3.1,1.1,4.8c0.3,3.3,0.7,6.6,1.4,9.8c0.7,3.6,1.8,6.9,4.3,9.6
		c0.8,0.9,1.8,2,1,3.8c-6.9-6.5-13.2-13.1-13.9-23.1c-1.3-0.2-1.9,0.4-2.4,1.4c-0.2,2.4,0.6,4.8,1.4,7.2c1.5,4.7,3.8,9,5.6,13.6
		c1.1,2.8,2.1,5.7,3,8.6c1,3.1,1.3,6.3,0,9.3c-0.6,1.4-0.1,2.9-0.8,4.2c-0.8,0-1-0.5-0.9-1c0.5-6.6-2.6-12.1-5.4-17.6
		c-2.1-4.2-4.5-8.3-7-13.2c-0.5,3.4-0.1,6-1,9.2c-0.9-5.7-0.2-10.9-2.2-15.7c-0.9,3.1,0.4,6,0.4,9c-0.1,3.3,0.1,6.6,0,9.9
		c-0.1,3.2-1.1,6.2-1.2,9.4c-1.5-8.1-2.9-16.2-4.4-24.3c-0.1-0.6-0.1-1.3-1.1-2c-2.7,0.9-5.7,1.9-8.6,3c-1.8,0.7-3.6,1.4-5.4,0.8
		c-6.7-2.3-11.9,1-16.7,4.8c-2.7,2.1-5.7,3.9-8.1,6.3c-0.8,0.8-1.9,0.8-3.2,0.3c-1.7-1.8-2.8-4.1-3.5-6.5c-2.9-2.4-5,1.3-7.3,0.7
		c-1.4-0.5-2.1-1.6-3.3-2.5c-2.8,3-5.9,2.8-8.8,0.2c-3.3,1-6.4,2-9.6,1.5c-3.6-3-4.9-6.8-5.2-11c-0.3-3.8-1.4-7.5-0.9-11.7
		c-8.1-1-16.6-0.1-23.9-4.5c2.9-1,12.7-0.3,23.7,1.5c2.9,2,3.6,5,3.3,8.4c-0.3,3.9,0.8,7.6,1.1,11.4c0.1,1.1,0.8,1.9,1.7,2.8
		c2.2,0.3,4.5,0.6,6.8-0.5c1.6-0.8,3.3-0.3,4.9,0.6c1.9,1.1,3.9,1.7,5.9,0c1.5-2.7-3.3-4.4-1.1-7.2c1.6-0.5,2,0.5,2.4,1.8
		c0.6,2.4,0.9,5,2.9,6.8c2.3,0.5,4-1.2,6-1.5c0.2-1.8,0-3.7,2.2-4.3c0,3.4,2.7,10.1,5.1,12.5c1.7-1.8,3.3-3.6,5.2-5.2
		c2.6-2.2,5.4-4.3,8.3-6.1c4-2.5,8.2-2.8,12.7-0.6c3-2.6,6.8-3.3,10.5-4.4c5-1.5,9.5-4,13.9-6.3c1.2-0.8-0.6-1.8,0.5-2.6
		c0.6-0.4,1.2-1,1.6-1.4c0.2-1.4-1.3-1.2-1.2-2.6c4.6-3.6,6.7-9.1,8.5-14.8c1.8-5.7,2.4-11.6,1.8-17.7c3.5,7.9,1.4,15.6-1.1,24.1
		c2.6-2.9,3.1-6.1,5.1-8.6c0.3,0.6,0.5,0.9,0.6,1.3c-2.1,4.1-3.7,8.5-6.1,12.5c3.7-3.4,6.1-7.4,6-12.6c1.5-3.5,0.7-7.2,0.6-10.8
		c-0.1-4.7-1.9-9.1-3.7-13.3c-2.2-5.1-4-10.3-6-15.5c-1.5-3.9-4-7.2-6.7-10.3c-2.3-2.6-4.4-5.5-7.8-7c5.7,9.1,10.6,18.6,14.2,28.8
		c-2.7-5-5.4-9.9-8.2-14.9c-2.2-3.9-4.4-7.9-7-11.5c-2.3-3.1-4.6-6.1-8.1-8c-1.5-0.8-3-1.7-4.5-1.7c-0.6-0.5-0.7-1-0.9-1.5
		c-1.7-6.5-0.5-9.4,5.4-12.7c2.9-1.7,6-2.8,9.4-2.8c2.3,0,4.5,0.5,6.2,3.2c-7.3-2.5-16.6,1.1-19.9,7.2c0.9,0.9,1.8,0.9,2.8,0.2
		c0.4-0.3,1-0.4,1.4-0.7c3.4-2.4,6.8-2,9.8,0.5c3.2,2.7,4.6,6.1,3.5,10.2c-0.1,0.5-0.3,1-0.5,1.5c0.9,1.8,2.3,3.2,3.9,4.4
		c4.8,3.7,8.4,8.3,11,13.9c3.5,7.4,5.1,15.3,7.8,22.9c1.7,4.9,1.3,9.3,0.2,14c-0.1,0.5-0.2,1-0.3,1.6c-0.7,6-2.3,11.6-6,16.6
		c-0.9,1.3-1.5,2.8-2.2,4.2c-1.1,1.1-2.1,2.3-3.3,3.4c0.9,4.6,2.3,8.9,5.4,12.5c-0.7-3.3-1.1-6.5-1.4-9.8
		C1022.1,381.1,1022.3,378.9,1021.4,377z M1002.4,292.8c-1.5-2.8-1.7-2.9-4.7-2C1000.1,290.8,1001.1,292,1002.4,292.8
		c0.5,2,1,4,2.9,5.2C1004.5,296.1,1004.5,293.9,1002.4,292.8z M1012.1,384c-1.4,2.2-1.2,4.4-0.6,6.7c1.1,3.8,2.8,7.3,4.8,10.7
		c3.3,5.8,5.9,12,7.2,18.7c0.6-4-1-7.5-2.3-11C1018.3,400.7,1013.6,393,1012.1,384z M997.9,295.3c1.3,0.3,2.3,0.9,3.7,0.5
		c-1.5-1.6-2.7-2.9-4.4-3.9C996.7,293.4,997.6,294.2,997.9,295.3z M1003.4,388.8c-0.6,2.5,0.6,4.8,1,7.6
		C1005,393.5,1004.5,391.1,1003.4,388.8z"/>
	<path d="M963.5,327.8c-3.2-2.9-5.1-3-8.1-0.4c-0.2,0.2-0.4,0.4-0.6,0.6c-2.7,3.2-5.7,5.9-10.3,6c0.7,2.4,3.9,1,4.1,3.4
		c-3.4,1.5-5.1,0.8-6.9-3.4c3.4-3.5,9.8-3.4,11.6-9.1c-1-1.3-2.6,0.2-3.8-0.6c0-0.2,0-0.7,0-0.7c3.6-0.6,5.8-3.3,8.5-5.4
		c0.8-0.6,1.5-1.5,3.1-1.5c-1.9,2.6-4.7,3.9-6.5,6.4c2.2,1.4,3.3-1.2,5-0.8c4,1.6,7.6,4,10.8,6.8c0.2,1.8-0.8,3.1-1.7,4
		c-2.5,2.5-2.6,5.3-2.1,8.4c0.1,0.4,0,0.8,0,1.2c0,0.1-0.1,0.2-0.3,0.4c-1.2-0.1-2-1-3-1.7c-0.4-2.2,0.9-4.1,1.6-6
		c0.8-1.9,2.7-3.2,3.1-5.1c-0.3-1.1-1-1.1-1.7-1.2l0.1,0.1c-0.8-1.2-2-1.5-3.3-1.7L963.5,327.8z"/>
	<path d="M983.5,342.2c0.5,1.4,1.9,1,2.2,2c-0.1,0.9-1,0.8-1.5,1.5c1.1,1.9,3,3,5.1,3.8c-0.6,1.2-1.4,0.8-2,0.4
		c-2.2-1.3-4.2-2.8-5.4-5.1c-0.8-1.4-1.7-2.7-2.5-4.1c-0.5-0.8-1-1.6-1-2.6c0.5-6.8,0-13.7,1.6-20.5c0.6-2.6,1.4-5.1,3.2-8.1
		c-0.6,3-1.1,5.2-1.5,7.4c-1.6,7.7-1.8,15.2,1.9,22.4C984.1,340.4,984,340.5,983.5,342.2z M980.5,337c-0.2,2.5-0.2,2.5,2.3,4.3
		C982,339.5,981.5,338.2,980.5,337z"/>
	<path d="M966.6,329.3c0.2,0.5,0.3,1,0.5,1.6c-1.6,2.5-3.6,4.8-5.7,6.8c-1.6-0.3-3-0.6-3.8-2.2c-1.2,0.2-1.2,2.1-2.5,2
		c-2.2,0.2-2.6-2.1-4.5-2.7c0.9-1.5,2.4-2.1,3.2-3.4c2.7-4.7,4.4-5.2,9.7-3.6l-0.1-0.1c0.8,1.3,1.9,1.8,3.3,1.7L966.6,329.3z
		 M960.2,328.4c-3.4,0.3-4.3,2.7-5.3,5c-0.1,0.1,0.2,0.4,0.3,0.5c0.8-0.3,1.3-1.4,1.5-1.3c2.4,0.7,2.6,2.5,4,3.2
		c0.8-0.5,1.5-1.1,1.8-1.9c-0.1-1.2-1.7-1.8-1.2-3.3c1.2-0.2,1.4,2.3,3.2,1.2C963.4,330,961.8,329.3,960.2,328.4z"/>
	<path d="M973,376.3c-0.2-1.1-1.5-2-0.6-3.2c4.9,3.9,7.6,9.2,9.9,14.9c-2.3-0.1-3.2-2-4.4-3.5c-2.1-0.2-4.3,0-5.9-1.3
		c-1-0.2-1.2,1.1-2.4,0.7C969.9,381,970.2,378.1,973,376.3c-0.1,0.9-0.2,1.9-0.3,2.9c1.2,0.2,2.1,0.6,3.4,0.1
		C974.9,378.2,974.7,376.6,973,376.3z"/>
	<path d="M965.2,301.4c-2.6,2.7-4.7,5.7-7.3,8.3c0.4,0.4,0.7,0.7,1.2,1.1c-5.3,3.7-9.4,8.7-14,13.2c-1.2-0.9-0.2-1.5,0.1-2
		c0.5-0.8,1-1.6,1.7-2.2c5.2-4.7,9.2-10.6,13.9-15.7C961.9,302.9,963.1,301.4,965.2,301.4z"/>
	<path d="M942.5,343.8c-8.2,2.2-12.8,7.5-14.2,15.8c-0.2,1.3-0.2,2.9-1.5,4C923.8,354,933.2,342.2,942.5,343.8z"/>
	<path d="M990,344.2c-0.1-5.5,1.9-10.3,2.5-15.8c0.4,3.5-0.1,6.5-0.3,9.5c-0.3,6.1-0.3,6.1,3.3,10.1c-0.3,0.4-0.7,0.4-1.1,0.2
		c-0.4-0.1-0.7-0.2-1.1-0.3c-0.3,0.6,0,1.4-1.1,1.7c-2.8-2.4-4.7-5.6-7.4-9C987.4,341.1,988,343.4,990,344.2z"/>
	<path d="M1012.8,362.9c-1.7,0.8-1.8,2.8-4,2.9c0.2-1.9,1.9-2.8,2.6-4.2c0.8-1.5,1.7-2.9,2.8-4.9c0,5.7,1.4,11.1-2.4,16.5
		c-0.6-1.9-1-3.1-1.3-4C1010.7,366.8,1012.4,365.3,1012.8,362.9z"/>
	<path d="M1010.1,326.1c-3.4-6.8-6.1-14-10.7-20.1c0.9-0.9,1.4-0.4,1.8,0.1C1006,312,1008.5,318.9,1010.1,326.1z"/>
	<path d="M985.5,373.3c4,6,5.5,11,3.2,15.4C987.7,387.1,985.3,375.4,985.5,373.3z"/>
	<path d="M1013.2,303.2c0.5-9.7-5.9-14.8-13.8-19.7C1007.9,284.8,1015.7,294.8,1013.2,303.2z"/>
	<path d="M1004.9,336.9c-1,4.7-2.4,8.9-2.2,13.4c-1.2-1.2-1-3.1-2.6-3.3c-0.4-3.5,0.2-6.4,1.4-9.6c1.2,1.8-0.4,3.2,0.5,4.5
		C1003.6,340.8,1003.1,338.5,1004.9,336.9z"/>
	<path d="M1004.5,359.7c1.7-8,3.2-15.3,4.8-22.7C1010.3,342,1007.6,356.2,1004.5,359.7z"/>
	<path d="M434.2,396.9c2.1-2.7,5.2-2,7.9-2.3c2.9-0.3,5.8-0.3,8.6-0.6C445.6,397,439.8,396.5,434.2,396.9z"/>
	<path d="M418.8,383.6c-5.3,3.7-11.6,5.6-14.9,4.7C405.2,386.5,408.9,385.3,418.8,383.6z"/>
	<path d="M945.7,317.2c-0.5-0.2-1-0.3-1.5-1.4c2.3-5.7,7.5-9,12.3-13.1c0.5,1.2-0.3,1.5-0.7,1.9c-0.4,0.5-1,0.9-1.5,1.3
		c-2.5,2-4.6,4.3-6.7,6.7c-1.1,1.3-2.1,2.7-2,4.6L945.7,317.2z"/>
	<path d="M979.7,343.9c-3.9,0.5-7.5-4.1-8.2-10.4c1.5,2.2,2.5,4.1,3.9,5.7C976.6,340.9,978.2,342.3,979.7,343.9z"/>
	<path d="M968.8,336c0.9,3.8,2.7,7,5.3,10.1C969.4,345.7,967.4,341.7,968.8,336z"/>
	<path d="M217.3,400.4c-2.5,1.6-4.4,2.1-6.3,0.6c-1.5-1.2-1.5-3.2-0.2-5.5c1.8,0.5,1.3,2.4,2.6,3.7
		C214.2,399.4,215.4,399.8,217.3,400.4z"/>
	<path d="M945.7,317.2l-0.1,0.1c0.4-0.1,0.7-0.3,1.1-0.4c-2.8,3.4-6.2,6.1-9,9.4c-0.7,0.9-1.8,0.9-2.8,0.2
		C938.7,323.6,941.7,319.8,945.7,317.2z"/>
	<path d="M349.4,388.4c4.9-1.2,9.7-2.4,14.6-3.6C359.6,387.9,354.6,388.6,349.4,388.4z"/>
	<path d="M930.4,329.1c-3.3,2.3-7,2.5-10.7,1.7C923.2,330.2,926.7,329.2,930.4,329.1z"/>
	<path d="M212,394c2.1-2.8,5.1-2.2,8-2.4C217.6,393.5,215.1,394.6,212,394z"/>
	<path d="M433.2,417.6c-3.3,0-6.4-0.5-9.8-3C427.5,415.2,430.5,415.7,433.2,417.6z"/>
	<path d="M1009,361.2c1.4-3.1,2-6.4,3.6-10.4C1012.1,355.2,1012.2,358.8,1009,361.2z"/>
	<path d="M988.7,327.8c-0.3,4.1-0.6,7.4-0.9,10.7C986.4,336.5,986.5,335.1,988.7,327.8z"/>
	<path d="M337.2,389.5c2.4-1.1,4.6-1.9,8-1.6C342.2,389.9,339.9,389.8,337.2,389.5z"/>
	<path d="M463.9,390.8c-2.7,1.2-4.8,2.4-7.6,2.3C458.1,391,459.2,390.7,463.9,390.8z"/>
	<path d="M402.8,416.9c1.3,0.4,2.3,1,2.8,2.4c-1.5,0.9-2.7,0.1-3.7-0.4C401.5,417.8,401.9,417.3,402.8,416.9z"/>
	<path d="M995.7,343.4c1.6,1.9,3.3,3.8,4.7,6.5C997.4,347.9,997,347.4,995.7,343.4z"/>
	<path d="M223.1,391c2.3-1.8,2.9-1.8,5.7,0C226.9,391.1,225.1,392,223.1,391z"/>
	<path d="M996.5,308.4c-1.3-2.8-2-5.4-2.9-8.3C995.9,302.5,996.2,303.4,996.5,308.4z"/>
	<path d="M419.9,383.4c2.2-2.1,4.1-2.1,6.7-2.2C424.5,382.9,422.8,383.5,419.9,383.4z"/>
	<path d="M404.7,401.9c-1.6,0.7-3.2,0.7-5.4,0.2C401.6,400.4,403.1,401.3,404.7,401.9z"/>
	<path d="M232.4,390.3c2-1,3.3-0.9,4.8,0.2C235.1,391.5,235.1,391.5,232.4,390.3z"/>
	<path d="M244,389.4c-1.1,0.7-2.2,0.4-3.6,0.4C242.3,388.2,242.3,388.2,244,389.4z"/>
	<path d="M907.6,328.9c1.3-0.3,2.3-0.4,3.1,0.3c0.2,0.5,0.1,0.8-0.3,0.9C909.4,330.2,908.4,330.1,907.6,328.9z"/>
	<path d="M899.5,341.6c1.1,1,0.9,1.7,0,2.6C898.7,343.3,898.9,342.6,899.5,341.6z"/>
	<path d="M542.4,375.9c-0.5,1.3-1.3,1.3-2.4,0.8C540.6,376.1,541.2,375.3,542.4,375.9z"/>
	<path d="M993.2,326.2c-0.3-0.6-0.2-1.2,0.1-1.8C993.4,325,993.6,325.6,993.2,326.2z"/>
	<path d="M319.2,390.2c0.8-0.4,1.4-0.5,2.2-0.1C320.7,390.6,320.1,390.7,319.2,390.2z"/>
	<path fill="none" d="M839,522.7c-0.8-1.5-1.3-2.5-1.8-3.6c-5.7-10.9-5.7-10.9-6.3-23.3c-0.2-3.3-0.3-6.6-0.3-9.9
		c0.1-6.9-0.8-13.7-1.9-20.5c-1-6.4-1-13-2-19.4c-1.5-9.9,0.4-19.2,3.5-28.5c1.6-4.9,3.4-9.7,4.8-14.7c0.8-2.9,1.3-6,1.6-9
		c0.8-7.1,1.7-14.2,0.4-21.4c-0.3-1.8-0.4-3.6-2.5-5.4c-0.5,5.1,1.1,9.5,0.7,14.3c-2.1-1.4-3.4-3.6-6.3-4.4c1.4,3.3,3.5,5.5,6.4,7.1
		c-0.7,5.8-1.7,11.5-3.4,17.4c-5.7-2.6-10.4-6-12.9-12c-3.7-9-3.5-17.3,1.9-25.7c5.3-8.3,13.2-12.9,22-16c8.6-3,17.3-3.3,26.1-0.4
		c4.4,1.5,8.9,2.7,13,4.8c3.1,1.6,5.7,3.5,5.3,8c-0.4,0.9-1.1,2.2-2.1,3.2c-1,0.2-1.1-1-1.9-1.1c-0.3,0.2-0.3,0.4-0.1,0.7
		c2.5,4,3.1,8.6,3.7,13.2c1.2,8.8-2.4,16.3-6.7,23.6c-3.8,6.6-6,13.8-7.3,21.2c-0.3,1.6,0.8,2.6,0.8,4.1
		c-0.3,12.8-0.8,25.7-2.3,38.4c-0.7,6.3-1.4,12.6-1.3,19c0,2,0.3,4-1.1,6c-0.9,1.3-0.2,3.2-0.1,5.5c1.2-2,1.2-3.6,1.7-5.4
		c6.9,0.9,13.9,0.9,20.8,2.2c10.4,2,21,2.5,31.6,1.8c6.3-0.4,12.7-1.1,18.7-3.1c1.9-0.6,3.7-1.5,5.1-2.9c4.4-4.5,9.8-8.1,13.6-13.3
		c0.9-1.2,2.2-2.1,3.7-2c4.1,0.1,7.7-1.6,11.3-2.7c2.1,0.4,3.2,1.3,3.8,3.2c0.5,1.6,1.6,2.6,3.5,2.2c0.5-1.6-0.7-2.3-1.3-3.3
		c1.6-0.6,2.2,0.7,3,0.9c0.6,1.9-0.4,2.7-1.6,3.7c-2.4,0.3-4.9,0.8-6.6-2c-1,0.9-1.7,2.2-3.4,0.7c0,2.4,0.9,3.3,2.5,3.4
		c2,0.1,3.9,0.7,5.9,0.2c1.2-0.3,2.4-0.2,3.7,0.3c1.1,0.5,0.8,2.1,1.8,2.8c0.9,0.6,1.7,1.2,2.6,1.8c-0.1,1.6-1.7,2.4-1.8,3.5
		c-0.4,2.7,1.3,4.4,1.9,6.4c-1.6,1.7-3.2,3.5-4.9,5.2c-0.1,2.4-0.4,4.6-2.9,6.1c-0.9,0.5-1.1,2.3-1.8,3.7c-3.1,1.3-6.6,1.1-10,1.5
		c-4.3,0.5-8.7,0.6-13.1,1c-3.2,0.2-6.3,0.7-9.3,1.9c-3.1,1.2-6.5,1-9.8,1.6c-7,1.4-14,3.2-21,4.1c-13.6,1.7-27.2,4.7-41,4.4
		c-7.8-0.2-15.6-0.4-23.4-0.3C848.1,521.7,843.7,522.2,839,522.7z M956.9,481.4c-1.8,0.7-2,2.8-3.6,3.5c-1.5,0.6-2.9,1.3-3.4,3.5
		C954.4,486.7,955.6,485.5,956.9,481.4z M984.9,485.3c-0.1-0.3-0.1-0.6-0.2-0.9c-1.6,0.3-3.2,0.6-5.2,1
		C981.9,487.1,983.5,486.7,984.9,485.3z M825,371.5c0.4-1.4-0.4-2-1-2.5c-0.3-0.3-0.7-0.2-1,0.2C823.1,370.3,823.8,371,825,371.5z
		 M972.7,485.3c-1.1,0-2.2,0.1-3,1.3C971.3,487,972,486.2,972.7,485.3z M981.8,495c-1.2-0.4-2.5-0.5-3.7,0.2
		C979.9,495.6,979.9,495.6,981.8,495z M973.4,496.5c0.1-0.3,0.1-0.5-0.2-0.6c-0.1,0-0.3,0-0.3,0.1c-0.3,0.2-0.3,0.5-0.1,0.6
		C972.9,496.7,973.2,496.6,973.4,496.5z"/>
	<path fill="none" d="M646.8,322.5c-1.2-2-3.1-3.3-5.1-4.5c-3.7-2.1-7.8-3.3-12-4.2c-5.4-1.1-10.9-2.2-16.4-3.2
		c-1.4-0.3-2.9-0.4-4.3-0.4c-7.5-0.2-15-0.2-22.3,2.2c-5,1.6-9.6,3.7-13.8,6.9c-1,0.8-2.2,1.5-3.5,2.4c1.3-2.8,2.2-3.8,4.6-5.2
		c2.5-1.5,5.1-2.8,7.9-3.7c3.9-1.4,7.7-2.7,11.6-4.1c1.8-0.6,3.5-1.1,5.4-1c11.7,0.9,23.5,1.4,34.9,5c4.4,1.4,9,2.7,12.8,5.3
		c3.8,2.7,7.9,4.7,12,6.7c0.9,0.5,1.7,1.2,2.8,1.9c1.1,4.8,1.2,9.8,1.6,14.8c1,13.5,2.3,26.9,4.6,40.2c0.5,2.9,0.1,5.8,0.2,8.7
		c0,4.6-0.3,9.3,0.5,14.2c-5.3,1.1-10.1,3.9-15.7,3.4c-1.9-0.2-3.9,0.6-5.9,0.9c-8,1.1-16.1,1.2-24.2,1.7c-1.1,0.1-2.1,0.1-3.1,0.3
		c-8.5,2.1-16.8,4.7-24.8,8.2c-6.7,3-13.6,5.1-20.5,7.5c-1.6,0.6-3.3,0.7-5.3,0.8c-2.8-5.2-5.2-10.6-5.9-16.3
		c-1.9-15.2-4.8-30.3-7.4-45.4c-1.3-7.4-1.9-15-2.8-22.5c-0.2-1.8-0.5-3.7-0.7-5.5c0.7-1.2,1.9-1.2,2.9-1.3c1.2,0.5,0.1,1.9,1.4,2.4
		c0,0,0.4,0.1,0.5-0.1c1.5-2.5,3.9-3.9,6-5.7c3.3-3,6.8-5.8,10.2-8.8c7.4-6.4,16-9.5,25.6-10.6c9.8-1.1,19.3,0.7,28.8,2.5
		c6.5,1.2,13,2.6,18.5,6.8C645.8,323.1,646.3,323.1,646.8,322.5z"/>
	<path fill="none" d="M895,360.3c-1,2.7-2.1,5.3-3.1,8c-0.2,0-0.4,0-0.6-0.1c-0.3-3.7-0.7-7.3-1.1-11.7
		c-5.1-8.9-14.7-11.5-24.6-13.4c-6.5-1.2-13.1-1.4-19.8-0.4c-8.9,1.3-16.3,5.3-22.1,12.2c-2.6,3-5,6.2-7.3,9.4
		c-6.6,9.2-6.4,20.5,0.5,29.5c2.8,3.6,6.2,6.5,10,9c1.3,0.9,2.8,1.5,3.8,3.2c-1.4,4.2-2.8,8.6-4.3,13.1c-8.7,3.9-17.7,3.6-26.7,1.3
		c-4.5-1.1-8.8-2.7-13-4.9c-3.8-2-6.7-4.8-8.4-8.7c-0.8-1.9-1.9-3.5-3.3-4.9c-3.4-1.2-6.5,0.5-10.1,0.5c-1.3-4.6-1.7-9.2-0.7-13.9
		c0.5-2.2,0.6-4.4,0.5-6.7c-0.6-8.5-1.1-16.9-2.1-25.3c-0.6-5.7,0.6-11.3,1-17c0.7-10.1,2.6-19.9,5.4-29.6c0.4-1.4,0.6-2.8,0.9-4.3
		c1.9-1.1,4.1-0.7,6.2-1c3.8-0.6,7.6-1.1,11.4-1.6c6-0.7,11.9-0.1,17.8,0.5c6.7,0.6,13.5,1,20.2,0.7c8.5-0.4,16.9,0.9,25.3,1.8
		c5.3,0.6,10.5,1.2,15.6,2.6c1.3,0.4,2.7,0.8,4.5,1.9c-3.8,0.6-6.8,1.4-9,3.9c0.4,2.4,1.9,4.1,3.4,5.7c2.2,2.4,4.3,5,5.6,8.1
		c1.2,2.9,3.3,5.1,5.7,7c2.4,1.9,4.7,3.8,7.1,5.7c5.1,4.1,8.1,9.3,9.6,15.6c0.3,1.4,0.2,3,1.7,3.8L895,360.3z"/>
	<path fill="none" d="M761.7,403.2c-6.8,0.6-13,1-19.2,0.5c-5.3-0.4-10.5-0.8-15.8-1.4c-1.9-0.2-3.7-0.2-5.5,0.1
		c-9.8,1.6-19.7,2-29.6,0.3c-0.9-0.2-1.9-0.2-2.7,0.4c-1.8,1.4-3.8,1.2-5.7,0.9c-3.9-0.7-7.9,0.3-12,0.1c0-1.8-0.1-3.3,0-4.9
		c0.4-10.6-0.9-21.1-2.6-31.6c-0.9-5.6-1.1-11.3-1.6-17c-0.5-5.5-1-11.1-1.5-16.6c-0.2-2.1-0.7-4.2-1.1-6.2
		c1.6-0.4,17.4-1.5,19.4-1.3c-5.4,1.9-11.2,0.6-16.6,2.1c-0.1,0-0.2,0.5-0.3,0.8c0.6,1.4,2,1,3.1,1c5.9-0.2,11.6-1.2,17.4-3.5
		c-0.7-0.4-1.1-0.6-2-1.2c28-4.3,54.6-12.4,81.3-20c0.9,1.2,0.1,2.1-0.3,3c-4.9,12.5-6.8,25.5-7.3,38.8c-0.3,7.3,0.6,14.5,1.4,21.7
		c0.4,3.2,0.1,6.6,0.2,9.8C760.8,386.9,760.6,394.9,761.7,403.2z M720.3,399.5c7.7,2.4,14.8,0.7,21.8-2.2
		C734.8,397.6,727.6,399.5,720.3,399.5z M745.9,350.3c2.6-2,5-4,6.5-7c0.4-0.9,0.3-1.5-0.9-2C748.5,343.5,747.8,347.3,745.9,350.3z
		 M735.3,347.1c-3.8,0.9-5.5,3.1-5.9,7.4c2-2.1,3.8-4,5.6-5.9C735.3,348.4,735.2,347.9,735.3,347.1z M699.9,325.5
		c-4-0.1-7.5,0.1-10.8,1.4C692.5,326.9,696.1,327.4,699.9,325.5z M709.7,400.6c0,0.3,0.1,0.6,0.1,0.9c2.6,0.1,5.2,0.1,7.1-2.5
		C714.5,399.5,712.1,400.1,709.7,400.6z M740.7,358.2c3.1-3.2,3.1-3.2,3-5.6C741,354.6,740.9,354.8,740.7,358.2z M740.4,361.1
		c-1.2,0.5-1.5,1.1-0.7,2.3C740.1,362.7,741.1,362.4,740.4,361.1z M708.6,323.7c-0.9-0.5-1.4-0.2-1.8,0.7
		C707.6,324.7,708.3,324.7,708.6,323.7z M727.4,358c0.8-0.5,1.7-0.7,1-1.7C727.4,356.2,727.1,356.7,727.4,358z"/>
	<path fill="none" d="M161.7,389.3c-0.7-0.6-1.2-1-1.8-1.6c0.7-1.9,0.3-4.1,1.7-6.2c7.7-0.7,15.1-3.1,22.9-3.9
		c6.7-0.7,13.5-0.4,20.2-1.2c2.2-0.3,4.4-0.7,6.6-1.4c1.4-0.4,2.8-0.7,4.2,0.7c-2,2-4.5,3-6.5,4.6c-5.4,4.1-8.8,9.5-10,16.1
		c-1,5.5,2.6,11.3,7.9,13.3c4.4,1.7,9,3.1,13.5,4.5c1.1,0.4,2.4,0.4,3.5,0.4c1.6,0.1,3.3-0.4,4.7,0c3.4,0.9,6.8,2.1,10.2,2.4
		c-0.1,4.1-4.6,12.4-8.1,15.3c-4.3-1.5-8.2-0.5-12.1,1.8c2.4,3.5,4.6,3.6,11.3,1c0.3,1.7,0.6,3.3,0.9,5c-3.6-0.2-5.5,0.1-8.1,1.1
		c0.8,3.9,2.8,4.4,8.2,2c0.2,3,0.2,3-1.1,6.6c-1.5,0-3.3-0.9-4.8,0.3c-0.7,0.5-1.1,1.2-0.9,2c1.1,2.2,3.2,1.3,5.2,1.6
		c-1.8,4.6-1.3,9,0.5,13.4c1.8,4.4,5,7.7,8.8,10.7c-0.7,4.2-1.8,8.1-3.1,11.8c0.4,0.8,1.1-0.2,1.3,0.6c0,0.1,0,0.4-0.1,0.5
		c-3.5,3.7-7.9,5.2-12.8,5.2c-0.8,0-1.5,0-2.3-0.3c-8.8-4-17.3-8.7-25-14.5c-4.4-3.4-8.4-7.6-11.9-12c-1.5-1.9-2.4-4-2.7-6.5
		c-0.5-3.9-1.3-7.8-1.9-11.8c-0.6-4.6-1.2-9.2,0.2-13.6c-1.1-2.6-3.5-3.8-5.3-5.4c-1.6-1.4-3.2-2.7-3.8-4.9
		c-0.2-0.7-0.7-1.4-1.2-2.1C162.4,414.3,159.7,402.5,161.7,389.3z M206.3,457.7c2-0.5,3.2-0.9,4.5-1.2c3.7-0.7,5.5-3.9,4.5-7.4
		c-1-3.3-4.4-5.2-7.4-4.1c-3.6,1.3-4.9,4.9-3.1,8.5C205.5,454.7,206.7,455.7,206.3,457.7z M200.5,430.6c1.8,1.2,3.5,1.4,5.1,0
		c1.7-1.5,1.2-3.4,0.5-5.1c-0.5-1.3-0.7-2.8-2-4c-3.1,1.2-6.3,2.4-9.2,3.5c-0.5,1-0.2,1.6,0.2,1.9c1.3,0.7,2.3-1,3.4-0.1
		c1.1,1.4,0,2.2-0.6,3.2c-0.7,1.1-1.6,2.1-0.2,3.3C198.9,432.8,199.1,431.4,200.5,430.6z M205.4,444.7c3.1,0,5.9-2.8,5.8-5.9
		c-0.1-3.2-3.1-6.2-6.1-6.2c-3,0-5.9,2.9-5.8,5.9C199.4,441.9,202.3,444.7,205.4,444.7z M223.9,460.3c-0.6,2.7-0.4,2.9,2.4,2.2
		c0.1-0.5,0-1-0.4-1.4C225.4,460.6,224.9,460.2,223.9,460.3z"/>
	<path fill="none" d="M875.5,463c3.8,0.2,7,1.1,10.2,1.9c6,1.5,12.1,2.8,18,4.8c9.2,3.1,18.8,4.1,28.3,5.1c2,0.2,3.9,0.5,5.9,0.8
		c3.7,0.5,7.1-0.3,10.2-2.3c2.6-1.6,5.3-3.1,7.5-5.1c1.6-1.4,3.4-1.8,5.5-1.9c2.8-0.1,5.5,0,8.1-0.9c1.3,0.5,1.1,1.5,1.2,2.4
		c-0.5,0.2-0.8,0.5-1.1,0.5c-5.7-0.6-9.9,1.2-13.6,6.1c-3.3,4.4-8.1,7.6-13.3,12.4c-2.8,0.6-7.4,1.6-12.1,2.5
		c-8.5,1.6-17.1,1.3-25.7,0.8c-4.4-0.2-8.7-0.6-12.9-1.9c-4.7-1.4-9.7-1.3-14.6-1.5c-2,0-3.9,0-6.2-0.8C873,478.4,875,471,875.5,463
		z M930.2,485c4.4,0.3,7.8,0.5,10.8-1.8C937.6,483.4,934.2,483.3,930.2,485z M944.9,481.6c0.2-1.7,0.8-2.8-0.6-3.6
		C943.3,479.3,943.3,480.2,944.9,481.6z"/>
	<path fill="none" d="M548.7,337.6c-0.1,1.1-0.9,1.2-1.7,1.5c-2.9,1-5.8,1.9-8.8,2.4c-11.1,1.8-22.2,3.5-33.3,5.3
		c-0.7,0.1-1.3,0.1-2,0.3c-17.7,5-36,7.6-53.9,11.6c-8.9,2-17.8,4.1-26.7,6c-5.6,1.2-11.3,1.8-17,1c-6-0.8-11.6,0.6-17.7,1.9
		c-0.7-0.2-1.5-1.2-2.9-1.4c-15.8-1.6-31.6-3.5-47.5-3.4c-8.2,0-16.4,0-24.6,0.8c-1.1,0.1-2.3,0.5-3.6-0.3c5.8-1.4,11.3-3.4,17-4.1
		c9.2-1.1,18.2-3.5,27.4-4c4.9-0.2,9.8,0.2,14.7,0.6c7,0.6,14,1,20.9,2.1c2.9,0.5,5.7,1,8.5,2c3.7,1.3,7.4,2,11.2,1.4
		c0.5-0.1,1.1-0.1,1.6,0c7.1,1.3,14-0.2,20.9-1.3c21.7-3.4,43.2-8.1,64.4-13.9c13.3-3.7,26.9-5.6,40.6-7.1c3.3-0.4,6.6-0.8,9.8-1.3
		C546.9,337.5,547.8,337.1,548.7,337.6z"/>
	<path fill="none" d="M232.1,451.1c2.4,4.4,3,8.5,3.6,12.5c0.5,3.3,2.2,5.1,5.5,5.7c3.5,0.6,5.3,3.5,4.9,7c-0.2,1.6-0.6,3.1-1,4.6
		c-0.3,1.3-0.8,2.5-1.2,3.6c-1.2,0.9-2.4,1.4-3.9,1.5c-0.6-2.9,1.1-5.4,1.2-8.2c-0.2-1.1-1.1-1.8-1.9-2.4c-5.1-3.3-6.9-8.7-8.5-14.1
		C229.8,457.8,231.5,454.9,232.1,451.1z"/>
	<path fill="none" d="M198,374.3c-10.1,1.5-20.3,0.8-30.2,3.5c0.4-2,1.4-2.5,2.8-2.6c8.3-0.5,16.6-1,24.8-1.4
		C196.3,373.8,197.1,373.6,198,374.3z"/>
	<path fill="none" d="M824.1,453.5c1.2,9.4,2.5,18.8,3.7,28.2C825.4,478.4,823.7,460.5,824.1,453.5z"/>
	<path fill="none" d="M244,378.5c3.7-2.2,7.4-1,10.8-2.1C252.1,377.8,248.2,378.5,244,378.5z"/>
	<path fill="none" d="M888.6,369.8c-0.9-1.7-1.6-2.9-2.2-4.1c0-1.1,0.6-1.7,1.6-2.3C888.7,365.4,889,367.3,888.6,369.8z"/>
	<path fill="none" d="M1012.1,384c1.5,9,6.3,16.7,9.2,25c1.2,3.5,2.9,7.1,2.3,11c-1.2-6.7-3.9-12.9-7.2-18.7
		c-2-3.5-3.8-6.9-4.8-10.7C1010.9,388.4,1010.7,386.2,1012.1,384z"/>
	<path fill="none" d="M1021.4,377c0.9,2,0.7,4.1,0.9,6.2c0.3,3.3,0.7,6.5,1.4,9.8c-3.2-3.6-4.6-7.9-5.4-12.5
		c1.1-1.2,2.2-2.3,3.3-3.4L1021.4,377z"/>
	<path fill="none" d="M1027,358.7c0.1,5.2-2.3,9.2-6,12.6C1023.4,367.3,1025,362.9,1027,358.7L1027,358.7z"/>
	<path fill="none" d="M997.9,295.3c-0.3-1.1-1.2-1.9-0.7-3.4c1.7,1,2.9,2.4,4.4,3.9C1000.2,296.2,999.2,295.7,997.9,295.3z"/>
	<path fill="none" d="M1003.4,388.8c1.1,2.3,1.6,4.7,1,7.6C1004,393.6,1002.8,391.3,1003.4,388.8z"/>
	<path fill="none" d="M1002.4,292.8c2.1,1,2.2,3.3,2.9,5.2C1003.4,296.8,1002.9,294.8,1002.4,292.8L1002.4,292.8z"/>
	<path fill="none" d="M1002.4,292.7c-1.3-0.7-2.3-1.9-4.8-1.9C1000.7,289.9,1000.9,290,1002.4,292.7L1002.4,292.7z"/>
	<path fill="none" d="M966.7,329.4c-1.5,0.1-2.6-0.4-3.3-1.7C964.7,327.9,965.9,328.2,966.7,329.4z"/>
	<path fill="none" d="M980.5,337c1,1.2,1.5,2.6,2.3,4.3C980.2,339.5,980.2,339.5,980.5,337z"/>
	<path fill="none" d="M960.2,328.4c1.6,0.9,3.2,1.6,4.3,3.5c-1.8,1-2-1.4-3.2-1.2c-0.6,1.5,1.1,2,1.2,3.3c-0.3,0.8-1,1.4-1.8,1.9
		c-1.3-0.7-1.6-2.5-4-3.2c-0.2-0.1-0.7,1-1.5,1.3c-0.1-0.2-0.4-0.4-0.3-0.5C955.8,331.1,956.8,328.7,960.2,328.4z"/>
	<path fill="none" d="M973,376.3c1.7,0.3,1.9,1.9,3.1,3c-1.3,0.5-2.3,0.1-3.4-0.1C972.8,378.2,972.9,377.2,973,376.3L973,376.3z"/>
	<path d="M956.9,481.4c-1.3,4.1-2.5,5.3-7.1,7c0.5-2.1,2-2.9,3.4-3.5C954.9,484.2,955.1,482.1,956.9,481.4z"/>
	<path d="M984.9,485.3c-1.5,1.3-3.1,1.8-5.5,0.2c2.1-0.4,3.6-0.7,5.2-1C984.8,484.8,984.9,485.1,984.9,485.3z"/>
	<path d="M825,371.5c-1.2-0.5-1.9-1.2-2-2.3c0.3-0.4,0.7-0.5,1-0.2C824.6,369.5,825.4,370,825,371.5z"/>
	<path d="M972.7,485.3c-0.7,1-1.4,1.8-3,1.3C970.5,485.3,971.6,485.2,972.7,485.3z"/>
	<path d="M981.8,495c-1.9,0.6-1.9,0.6-3.7,0.2C979.3,494.4,980.5,494.5,981.8,495z"/>
	<path d="M973.4,496.5c-0.2,0-0.5,0.2-0.6,0.1c-0.2-0.1-0.2-0.4,0.1-0.6c0.1-0.1,0.3-0.1,0.3-0.1C973.5,496,973.5,496.2,973.4,496.5
		z"/>
	<path d="M720.3,399.5c7.3,0,14.5-1.9,21.8-2.2C735.1,400.2,727.9,401.9,720.3,399.5z"/>
	<path d="M745.9,350.3c1.9-3,2.6-6.7,5.6-9c1.2,0.4,1.3,1.1,0.9,2C750.9,346.2,748.5,348.3,745.9,350.3z"/>
	<path d="M735.3,347.1c-0.1,0.8-0.1,1.3-0.3,1.5c-1.8,1.9-3.6,3.8-5.6,5.9C729.8,350.3,731.5,348,735.3,347.1z"/>
	<path d="M699.9,325.5c-3.8,1.9-7.3,1.3-10.8,1.4C692.4,325.6,695.9,325.4,699.9,325.5z"/>
	<path d="M709.7,400.6c2.4-0.5,4.8-1.1,7.2-1.6c-1.9,2.6-4.5,2.6-7.1,2.5C709.7,401.2,709.7,400.9,709.7,400.6z"/>
	<path d="M740.7,358.2c0.2-3.3,0.3-3.5,3-5.6C743.8,355,743.8,355,740.7,358.2z"/>
	<path d="M740.4,361.1c0.6,1.3-0.3,1.5-0.7,2.3C738.9,362.2,739.3,361.6,740.4,361.1z"/>
	<path d="M708.6,323.7c-0.3,1.1-1,1-1.8,0.7C707.1,323.5,707.7,323.2,708.6,323.7z"/>
	<path d="M727.4,358c-0.3-1.3,0-1.8,1-1.7C729.1,357.3,728.2,357.5,727.4,358z"/>
	<path d="M206.3,457.7c0.3-2-0.9-3-1.5-4.2c-1.8-3.6-0.5-7.1,3.1-8.5c3-1.1,6.5,0.7,7.4,4.1c1,3.6-0.8,6.7-4.5,7.4
		C209.6,456.8,208.4,457.2,206.3,457.7z M210.1,454c2.8-1,3.8-2.3,3.2-4.3c-0.6-1.8-2.2-2.8-3.9-2.5c-2.2,0.3-3,2-2.6,5.1
		c1.1,0.6,1.2-1.4,2.3-0.8C210.7,451.8,209.2,453.4,210.1,454z"/>
	<path d="M200.5,430.6c-1.4,0.8-1.6,2.3-2.9,2.7c-1.4-1.2-0.5-2.2,0.2-3.3c0.6-1,1.7-1.8,0.6-3.2c-1.1-0.9-2.2,0.8-3.4,0.1
		c-0.4-0.4-0.7-0.9-0.2-1.9c3-1.1,6.1-2.3,9.2-3.5c1.4,1.2,1.5,2.7,2,4c0.7,1.8,1.2,3.6-0.5,5.1C204,432,202.2,431.8,200.5,430.6z
		 M203.1,429.2c1.4-2.2,1.2-3.8-0.3-4.6c-0.7,0.2-1.6,0.2-2.1,1.3C201,427.2,201.2,428.7,203.1,429.2z"/>
	<path d="M205.4,444.7c-3.2,0-6-2.9-6.1-6.1c-0.1-3,2.8-5.9,5.8-5.9c3,0,6,3,6.1,6.2C211.3,441.9,208.5,444.7,205.4,444.7z
		 M208.8,438.7c0-2-1.6-3.5-3.5-3.5c-2,0-3.5,1.6-3.5,3.5c0,2,1.5,3.5,3.5,3.5C207.4,442.2,208.8,440.7,208.8,438.7z"/>
	<path d="M223.9,460.3c1,0,1.5,0.3,2,0.8c0.4,0.4,0.5,0.9,0.4,1.4C223.5,463.2,223.3,462.9,223.9,460.3z"/>
	<path d="M930.2,485c4-1.7,7.4-1.6,10.8-1.8C938,485.5,934.6,485.3,930.2,485z"/>
	<path d="M944.9,481.6c-1.6-1.4-1.7-2.3-0.6-3.6C945.8,478.9,945.1,480,944.9,481.6z"/>
	<path fill="none" d="M210.1,454c-0.9-0.6,0.6-2.2-1-2.5c-1.1-0.7-1.3,1.4-2.3,0.8c-0.5-3.1,0.3-4.8,2.6-5.1
		c1.7-0.3,3.4,0.8,3.9,2.5C213.9,451.7,212.9,453,210.1,454z"/>
	<path fill="none" d="M203.1,429.2c-1.9-0.4-2.1-2-2.3-3.3c0.5-1,1.3-1.1,2.1-1.3C204.4,425.4,204.5,427,203.1,429.2z"/>
	<path fill="none" d="M208.8,438.7c0,2-1.5,3.4-3.5,3.5c-2,0-3.5-1.4-3.5-3.5c0-2,1.5-3.5,3.5-3.5
		C207.2,435.2,208.8,436.8,208.8,438.7z"/>
<path fill="#e6e6e6" d="m206.8 163.6c0-5.1 4.1-9.2 9.3-9.2s9.2 4.2 9.2 9.2-4.1 9.2-9.3 9.2-9.2-4.1-9.2-9.2zm17.3-.1c0-4.5-3.5-8.2-8.2-8.2s-8.2 3.7-8.2 8.3c0 4.5 3.5 8.2 8.2 8.2s8.2-3.7 8.2-8.3zm-13 0c0-2.8 2.1-5.1 5.1-5.1 1.9 0 2.9.6 3.9 1.5l-1.4 1.7c-.8-.7-1.5-1.1-2.5-1.1-1.7 0-2.8 1.4-2.8 3.1s1.1 3 2.8 3c1.1 0 1.7-.5 2.5-1.1l1.4 1.4c-1.1 1.1-2.1 1.7-4 1.7-2.9 0-5-2.3-5-5.1z"/><path fill="#e6e6e6" d="m226.6 154.7h3.4l4.2 13.2 4.4-13.3h2.6l4.4 13.3 4.2-13.2h3.3l-6.2 18h-2.7l-4.4-12.8-4.4 12.8h-2.7z"/><path fill="#e6e6e6" d="m252.8 165.8c0-3.9 3.1-7 7.2-7 4.2 0 7.2 3.2 7.2 7s-3.1 7-7.3 7c-4 0-7.1-3.1-7.1-7zm11.3 0c0-2.3-1.7-4.3-4.2-4.3s-4.1 2-4.1 4.3 1.7 4.3 4.1 4.3c2.7.1 4.2-1.9 4.2-4.3z"/><path fill="#e6e6e6" d="m269.5 159.1h3.1v3c.8-2 2.4-3.4 4.8-3.3v3.2h-.2c-2.7 0-4.6 1.7-4.6 5.4v5.1h-3.1z"/><path fill="#e6e6e6" d="m279.1 153.9h3.1v11.1l5.6-6h3.8l-5.4 5.5 5.5 8h-3.5l-4.1-5.8-1.9 2v3.9h-3.1z"/><path fill="#e6e6e6" d="m291.7 165.8c0-3.9 3.1-7 7.2-7 4.2 0 7.2 3.2 7.2 7s-3.1 7-7.3 7c-4 0-7.1-3.1-7.1-7zm11.3 0c0-2.3-1.7-4.3-4.2-4.3s-4.1 2-4.1 4.3 1.7 4.3 4.1 4.3c2.6.1 4.2-1.9 4.2-4.3z"/><path fill="#e6e6e6" d="m308.2 167.6v-8.6h3.1v7.6c0 2.1 1.1 3.3 2.9 3.3s3-1.3 3-3.3v-7.6h3.1v13.4h-3.1v-2.1c-.8 1.3-2.1 2.3-4.2 2.3-3.1.2-4.8-1.8-4.8-5z"/><path fill="#e6e6e6" d="m323.9 168.8v-7.1h-1.7v-2.6h1.7v-3.7h3.1v3.7h3.6v2.6h-3.6v6.6c0 1.2.6 1.7 1.7 1.7.7 0 1.3-.2 1.9-.5v2.5c-.8.5-1.7.7-2.8.7-2.3 0-3.9-.9-3.9-3.9z"/><path fill="#e6e6e6" d="m333.2 154.7h3.2v15h9.4v2.9h-12.5v-17.9z"/><path fill="#e6e6e6" d="m356 172.5v-1.7c-.9 1.1-2.3 2-4.4 2-2.6 0-4.8-1.4-4.8-4.2 0-3 2.3-4.4 5.4-4.4 1.7 0 2.6.2 3.7.5v-.2c0-1.9-1.2-2.9-3.3-2.9-1.5 0-2.6.3-3.9.8l-.8-2.5c1.5-.7 2.9-1.1 5.1-1.1 4 0 5.9 2.1 5.9 5.7v8zm.1-5.6c-.8-.3-1.9-.5-3.1-.5-2 0-3.1.8-3.1 2.1s1.1 2 2.6 2c2 0 3.5-1.1 3.5-2.9z"/><path fill="#e6e6e6" d="m364.9 170.5v2.1h-3.1v-18.7h3.1v7.4c1-1.4 2.4-2.5 4.5-2.5 3.2 0 6.3 2.5 6.3 7s-3.1 7-6.3 7c-2.1 0-3.5-1.1-4.5-2.3zm7.7-4.7c0-2.6-1.7-4.3-3.9-4.3s-3.9 1.7-3.9 4.4c0 2.6 1.8 4.3 3.9 4.3s3.9-1.7 3.9-4.4z"/><path fill="#e6e6e6" d="m376.9 170.8 1.4-2.1c1.4 1.1 3 1.7 4.4 1.7s2.1-.5 2.1-1.5-1.3-1.4-2.8-1.8c-.1 0-.2-.1-.2-.1-2-.6-4.2-1.4-4.2-4s2.1-4.1 4.8-4.1c1.7 0 3.5.6 5 1.5l-1.2 2.2c-1.3-.8-2.6-1.3-3.8-1.3s-1.9.5-1.9 1.4 1.3 1.4 2.8 1.8c.1 0 .2.1.2.1 2 .6 4.2 1.5 4.2 4 0 2.9-2.2 4.2-5 4.2-1.9 0-4-.7-5.8-2z"/><path fill="#e6e6e6" d="m505.6 163.6c0-5.1 4.1-9.2 9.3-9.2s9.2 4.2 9.2 9.2-4.1 9.2-9.3 9.2-9.2-4.1-9.2-9.2zm17.4-.1c0-4.5-3.5-8.2-8.2-8.2s-8.2 3.7-8.2 8.3c0 4.5 3.5 8.2 8.2 8.2s8.2-3.7 8.2-8.3zm-13.1 0c0-2.8 2.1-5.1 5.1-5.1 1.9 0 2.9.6 3.9 1.5l-1.4 1.7c-.8-.7-1.5-1.1-2.5-1.1-1.7 0-2.8 1.4-2.8 3.1s1.1 3 2.8 3c1.1 0 1.7-.5 2.5-1.1l1.4 1.4c-1.1 1.1-2.1 1.7-4 1.7-2.9 0-5-2.3-5-5.1z"/><path fill="#e6e6e6" d="m525.4 154.7h3.4l4.2 13.2 4.4-13.3h2.6l4.4 13.3 4.2-13.2h3.3l-6.2 18h-2.7l-4.4-12.8-4.4 12.8h-2.7z"/><path fill="#e6e6e6" d="m551.7 165.8c0-3.9 3.1-7 7.2-7 4.2 0 7.2 3.2 7.2 7s-3.1 7-7.3 7c-4.1 0-7.1-3.1-7.1-7zm11.2 0c0-2.3-1.7-4.3-4.2-4.3s-4.1 2-4.1 4.3 1.7 4.3 4.1 4.3c2.7.1 4.2-1.9 4.2-4.3z"/><path fill="#e6e6e6" d="m568.3 159.1h3.1v3c.8-2 2.4-3.4 4.8-3.3v3.2h-.2c-2.7 0-4.6 1.7-4.6 5.4v5.1h-3.1z"/><path fill="#e6e6e6" d="m577.9 153.9h3.1v11.1l5.6-6h3.8l-5.4 5.5 5.5 8h-3.5l-4.1-5.8-1.9 2v3.9h-3.1z"/><path fill="#e6e6e6" d="m590.6 165.8c0-3.9 3.1-7 7.2-7 4.2 0 7.2 3.2 7.2 7s-3.1 7-7.3 7c-4.1 0-7.1-3.1-7.1-7zm11.2 0c0-2.3-1.7-4.3-4.2-4.3s-4.1 2-4.1 4.3 1.7 4.3 4.1 4.3c2.6.1 4.2-1.9 4.2-4.3z"/><path fill="#e6e6e6" d="m607 167.6v-8.6h3.1v7.6c0 2.1 1.1 3.3 2.9 3.3s3-1.3 3-3.3v-7.6h3.1v13.4h-3.1v-2.1c-.8 1.3-2.1 2.3-4.2 2.3-3 .2-4.8-1.8-4.8-5z"/><path fill="#e6e6e6" d="m622.7 168.8v-7.1h-1.7v-2.6h1.7v-3.7h3.1v3.7h3.6v2.6h-3.6v6.6c0 1.2.6 1.7 1.7 1.7.7 0 1.3-.2 1.9-.5v2.5c-.8.5-1.7.7-2.8.7-2.3 0-3.9-.9-3.9-3.9z"/><path fill="#e6e6e6" d="m632 154.7h3.2v15h9.4v2.9h-12.6z"/><path fill="#e6e6e6" d="m654.8 172.5v-1.7c-.9 1.1-2.3 2-4.4 2-2.6 0-4.8-1.4-4.8-4.2 0-3 2.3-4.4 5.4-4.4 1.7 0 2.6.2 3.7.5v-.2c0-1.9-1.2-2.9-3.3-2.9-1.5 0-2.6.3-3.9.8l-.8-2.5c1.5-.7 2.9-1.1 5.1-1.1 4 0 5.9 2.1 5.9 5.7v8zm.1-5.6c-.8-.3-1.9-.5-3.1-.5-2 0-3.1.8-3.1 2.1s1.1 2 2.6 2c2 0 3.5-1.1 3.5-2.9z"/><path fill="#e6e6e6" d="m663.7 170.5v2.1h-3.1v-18.7h3.1v7.4c1-1.4 2.4-2.5 4.5-2.5 3.2 0 6.3 2.5 6.3 7s-3.1 7-6.3 7c-2.1 0-3.5-1.1-4.5-2.3zm7.8-4.7c0-2.6-1.7-4.3-3.9-4.3-2.1 0-3.9 1.7-3.9 4.4 0 2.6 1.8 4.3 3.9 4.3s3.9-1.7 3.9-4.4z"/><path fill="#e6e6e6" d="m675.8 170.8 1.4-2.1c1.4 1.1 3 1.7 4.4 1.7s2.1-.5 2.1-1.5-1.3-1.4-2.8-1.8c-.1 0-.2-.1-.2-.1-2-.6-4.2-1.4-4.2-4s2.1-4.1 4.8-4.1c1.7 0 3.5.6 5 1.5l-1.2 2.2c-1.3-.8-2.6-1.3-3.8-1.3s-1.9.5-1.9 1.4 1.3 1.4 2.8 1.8c.1 0 .2.1.2.1 2 .6 4.2 1.5 4.2 4 0 2.9-2.2 4.2-5 4.2-2 0-4.1-.7-5.8-2z"/><path fill="#e6e6e6" d="m61 298.6c0-5.1 4.1-9.2 9.3-9.2s9.2 4.2 9.2 9.2-4.1 9.2-9.3 9.2c-5.1 0-9.2-4.2-9.2-9.2zm17.4-.1c0-4.5-3.5-8.2-8.2-8.2s-8.2 3.7-8.2 8.3c0 4.5 3.5 8.2 8.2 8.2s8.2-3.7 8.2-8.3zm-13.1-.1c0-2.8 2.1-5.1 5.1-5.1 1.9 0 2.9.6 3.9 1.5l-1.4 1.7c-.8-.7-1.5-1.1-2.5-1.1-1.7 0-2.8 1.4-2.8 3.1s1.1 3 2.8 3c1.1 0 1.7-.5 2.5-1.1l1.4 1.4c-1.1 1.1-2.1 1.7-4 1.7-2.8.1-5-2.2-5-5.1z"/><path fill="#e6e6e6" d="m80.9 289.7h3.4l4.2 13.2 4.4-13.3h2.6l4.4 13.3 4.2-13.2h3.3l-6.2 18h-2.7l-4.4-12.8-4.4 12.8h-2.7z"/><path fill="#e6e6e6" d="m107.1 300.8c0-3.9 3.1-7 7.2-7s7.2 3.2 7.2 7-3.1 7-7.3 7c-4 0-7.1-3.1-7.1-7zm11.3 0c0-2.3-1.7-4.3-4.2-4.3s-4.1 2-4.1 4.3 1.7 4.3 4.1 4.3c2.6.1 4.2-1.9 4.2-4.3z"/><path fill="#e6e6e6" d="m123.7 294h3.1v3c.8-2 2.4-3.4 4.8-3.3v3.2h-.2c-2.7 0-4.6 1.7-4.6 5.4v5.1h-3.1z"/><path fill="#e6e6e6" d="m133.4 288.9h3.1v11.1l5.6-6h3.8l-5.4 5.5 5.5 8h-3.5l-4.1-5.8-1.9 1.9v3.9h-3.1z"/><path fill="#e6e6e6" d="m146 300.8c0-3.9 3.1-7 7.2-7s7.2 3.2 7.2 7-3.1 7-7.3 7c-4.1 0-7.1-3.1-7.1-7zm11.2 0c0-2.3-1.7-4.3-4.2-4.3s-4.1 2-4.1 4.3 1.7 4.3 4.1 4.3c2.6.1 4.2-1.9 4.2-4.3z"/><path fill="#e6e6e6" d="m162.4 302.6v-8.6h3.1v7.6c0 2.1 1.1 3.3 2.9 3.3s3-1.3 3-3.3v-7.6h3.1v13.4h-3.1v-2.1c-.8 1.3-2.1 2.3-4.2 2.3-3 .2-4.8-1.8-4.8-5z"/><path fill="#e6e6e6" d="m178.1 303.8v-7.1h-1.7v-2.7h1.7v-3.7h3.1v3.7h3.6v2.6h-3.6v6.6c0 1.2.6 1.7 1.7 1.7.7 0 1.3-.2 1.9-.5v2.5c-.8.5-1.7.7-2.8.7-2.3.1-3.9-.9-3.9-3.8z"/><path fill="#e6e6e6" d="m187.4 289.7h3.2v15h9.4v2.9h-12.5v-17.9z"/><path fill="#e6e6e6" d="m210.2 307.5v-1.7c-.9 1.1-2.3 2-4.4 2-2.6 0-4.8-1.4-4.8-4.2 0-3 2.3-4.4 5.4-4.4 1.7 0 2.6.2 3.7.5v-.2c0-1.9-1.2-2.9-3.3-2.9-1.5 0-2.6.3-3.9.8l-.8-2.5c1.5-.7 2.9-1.1 5.1-1.1 4 0 5.9 2.1 5.9 5.7v8zm.1-5.6c-.8-.3-1.9-.5-3.1-.5-2 0-3.1.8-3.1 2.1s1.1 2 2.6 2c2 0 3.5-1.1 3.5-2.9z"/><path fill="#e6e6e6" d="m219.2 305.5v2.1h-3.1v-18.7h3.1v7.4c1-1.4 2.4-2.5 4.5-2.5 3.2 0 6.3 2.5 6.3 7s-3.1 7-6.3 7c-2.2 0-3.6-1.1-4.5-2.3zm7.7-4.7c0-2.6-1.7-4.3-3.9-4.3s-3.9 1.7-3.9 4.4c0 2.6 1.8 4.3 3.9 4.3s3.9-1.7 3.9-4.4z"/><path fill="#e6e6e6" d="m231.2 305.8 1.4-2.1c1.4 1.1 3 1.7 4.4 1.7s2.1-.5 2.1-1.5-1.3-1.4-2.8-1.8c-.1 0-.2-.1-.2-.1-2-.6-4.2-1.4-4.2-4s2.1-4.1 4.8-4.1c1.7 0 3.5.6 5 1.5l-1.2 2.2c-1.3-.8-2.6-1.3-3.8-1.3s-1.9.5-1.9 1.4 1.3 1.4 2.8 1.8c.1 0 .2.1.2.1 2 .6 4.2 1.5 4.2 4 0 2.9-2.2 4.2-5 4.2-2 0-4.1-.7-5.8-2z"/><path fill="#e6e6e6" d="m360.6 298.6c0-5.1 4.1-9.2 9.3-9.2s9.2 4.2 9.2 9.2-4.1 9.2-9.3 9.2-9.2-4.2-9.2-9.2zm17.4-.1c0-4.5-3.5-8.2-8.2-8.2s-8.2 3.7-8.2 8.3c0 4.5 3.5 8.2 8.2 8.2s8.2-3.7 8.2-8.3zm-13.1-.1c0-2.8 2.1-5.1 5.1-5.1 1.9 0 2.9.6 3.9 1.5l-1.4 1.7c-.8-.7-1.5-1.1-2.5-1.1-1.7 0-2.8 1.4-2.8 3.1s1.1 3 2.8 3c1.1 0 1.7-.5 2.5-1.1l1.4 1.4c-1.1 1.1-2.1 1.7-4 1.7-2.8.1-5-2.2-5-5.1z"/><path fill="#e6e6e6" d="m380.5 289.7h3.4l4.2 13.2 4.4-13.3h2.6l4.4 13.3 4.2-13.2h3.3l-6.2 18h-2.7l-4.4-12.8-4.4 12.8h-2.7z"/><path fill="#e6e6e6" d="m406.7 300.8c0-3.9 3.1-7 7.2-7 4.2 0 7.2 3.2 7.2 7s-3.1 7-7.3 7c-4.1 0-7.1-3.1-7.1-7zm11.3 0c0-2.3-1.7-4.3-4.2-4.3s-4.1 2-4.1 4.3 1.7 4.3 4.1 4.3c2.7.1 4.2-1.9 4.2-4.3z"/><path fill="#e6e6e6" d="m423.3 294h3.1v3c.8-2 2.4-3.4 4.8-3.3v3.2h-.2c-2.7 0-4.6 1.7-4.6 5.4v5.1h-3.1z"/><path fill="#e6e6e6" d="m433 288.9h3.1v11.1l5.6-6h3.8l-5.4 5.5 5.5 8h-3.5l-4.1-5.8-1.9 2v3.9h-3.1z"/><path fill="#e6e6e6" d="m445.6 300.8c0-3.9 3.1-7 7.2-7 4.2 0 7.2 3.2 7.2 7s-3.1 7-7.3 7c-4.1 0-7.1-3.1-7.1-7zm11.3 0c0-2.3-1.7-4.3-4.2-4.3s-4.1 2-4.1 4.3 1.7 4.3 4.1 4.3c2.6.1 4.2-1.9 4.2-4.3z"/><path fill="#e6e6e6" d="m462.1 302.6v-8.6h3.1v7.6c0 2.1 1.1 3.3 2.9 3.3s3-1.3 3-3.3v-7.6h3.1v13.4h-3.1v-2.1c-.8 1.3-2.1 2.3-4.2 2.3-3.1.2-4.8-1.8-4.8-5z"/><path fill="#e6e6e6" d="m477.8 303.8v-7.1h-1.8v-2.7h1.7v-3.7h3.1v3.7h3.6v2.6h-3.6v6.6c0 1.2.6 1.7 1.7 1.7.7 0 1.3-.2 1.9-.5v2.5c-.8.5-1.7.7-2.8.7-2.2.1-3.8-.9-3.8-3.8z"/><path fill="#e6e6e6" d="m487.1 289.7h3.2v15h9.4v2.9h-12.5v-17.9z"/><path fill="#e6e6e6" d="m509.9 307.5v-1.7c-.9 1.1-2.3 2-4.4 2-2.6 0-4.8-1.4-4.8-4.2 0-3 2.3-4.4 5.4-4.4 1.7 0 2.6.2 3.7.5v-.2c0-1.9-1.2-2.9-3.3-2.9-1.5 0-2.6.3-3.9.8l-.8-2.5c1.5-.7 2.9-1.1 5.1-1.1 4 0 5.9 2.1 5.9 5.7v8zm.1-5.6c-.8-.3-1.9-.5-3.1-.5-2 0-3.1.8-3.1 2.1s1.1 2 2.6 2c2 0 3.5-1.1 3.5-2.9z"/><path fill="#e6e6e6" d="m518.8 305.5v2.1h-3.1v-18.7h3.1v7.4c1-1.4 2.4-2.5 4.5-2.5 3.2 0 6.3 2.5 6.3 7s-3.1 7-6.3 7c-2.2 0-3.5-1.1-4.5-2.3zm7.7-4.7c0-2.6-1.7-4.3-3.9-4.3s-3.9 1.7-3.9 4.4c0 2.6 1.8 4.3 3.9 4.3s3.9-1.7 3.9-4.4z"/><path fill="#e6e6e6" d="m530.8 305.8 1.4-2.1c1.4 1.1 3 1.7 4.4 1.7s2.1-.5 2.1-1.5-1.3-1.4-2.8-1.8c-.1 0-.2-.1-.2-.1-2-.6-4.2-1.4-4.2-4s2.1-4.1 4.8-4.1c1.7 0 3.5.6 5 1.5l-1.2 2.2c-1.3-.8-2.6-1.3-3.8-1.3s-1.9.5-1.9 1.4 1.3 1.4 2.8 1.8c.1 0 .2.1.2.1 2 .6 4.2 1.5 4.2 4 0 2.9-2.2 4.2-5 4.2-1.9 0-4.1-.7-5.8-2z"/><path fill="#e6e6e6" d="m659.5 298.6c0-5.1 4.1-9.2 9.3-9.2s9.2 4.2 9.2 9.2-4.1 9.2-9.3 9.2-9.2-4.2-9.2-9.2zm17.3-.1c0-4.5-3.5-8.2-8.2-8.2s-8.2 3.7-8.2 8.3c0 4.5 3.5 8.2 8.2 8.2 4.8 0 8.2-3.7 8.2-8.3zm-13-.1c0-2.8 2.1-5.1 5.1-5.1 1.9 0 2.9.6 3.9 1.5l-1.4 1.7c-.8-.7-1.5-1.1-2.5-1.1-1.7 0-2.8 1.4-2.8 3.1s1.1 3 2.8 3c1.1 0 1.7-.5 2.5-1.1l1.4 1.4c-1.1 1.1-2.1 1.7-4 1.7-2.9.1-5-2.2-5-5.1z"/><path fill="#e6e6e6" d="m679.3 289.7h3.4l4.2 13.2 4.4-13.3h2.6l4.4 13.3 4.2-13.2h3.3l-6.2 18h-2.6l-4.4-12.8-4.4 12.8h-2.7z"/><path fill="#e6e6e6" d="m705.5 300.8c0-3.9 3.1-7 7.2-7 4.2 0 7.2 3.2 7.2 7s-3.1 7-7.3 7c-4 0-7.1-3.1-7.1-7zm11.3 0c0-2.3-1.7-4.3-4.2-4.3s-4.1 2-4.1 4.3 1.7 4.3 4.1 4.3c2.7.1 4.2-1.9 4.2-4.3z"/><path fill="#e6e6e6" d="m722.1 294h3.1v3c.8-2 2.4-3.4 4.8-3.3v3.2h-.2c-2.7 0-4.6 1.7-4.6 5.4v5.1h-3.1z"/><path fill="#e6e6e6" d="m731.8 288.9h3.1v11.1l5.6-6h3.8l-5.4 5.5 5.5 8h-3.5l-4.1-5.8-1.9 2v3.9h-3.1z"/><path fill="#e6e6e6" d="m744.4 300.8c0-3.9 3.1-7 7.2-7 4.2 0 7.2 3.2 7.2 7s-3.1 7-7.3 7c-4.1 0-7.1-3.1-7.1-7zm11.3 0c0-2.3-1.7-4.3-4.2-4.3s-4.1 2-4.1 4.3 1.7 4.3 4.1 4.3c2.6.1 4.2-1.9 4.2-4.3z"/><path fill="#e6e6e6" d="m760.9 302.6v-8.6h3.1v7.6c0 2.1 1.1 3.3 2.9 3.3s3-1.3 3-3.3v-7.6h3.1v13.4h-3.1v-2.1c-.8 1.3-2.1 2.3-4.2 2.3-3.1.2-4.8-1.8-4.8-5z"/><path fill="#e6e6e6" d="m776.6 303.8v-7.1h-1.7v-2.7h1.7v-3.7h3.1v3.7h3.6v2.6h-3.6v6.6c0 1.2.6 1.7 1.7 1.7.7 0 1.3-.2 1.9-.5v2.5c-.8.5-1.7.7-2.8.7-2.3.1-3.9-.9-3.9-3.8z"/><path fill="#e6e6e6" d="m785.9 289.7h3.2v15h9.4v2.9h-12.5v-17.9z"/><path fill="#e6e6e6" d="m808.7 307.5v-1.7c-.9 1.1-2.3 2-4.4 2-2.6 0-4.8-1.4-4.8-4.2 0-3 2.3-4.4 5.4-4.4 1.7 0 2.6.2 3.7.5v-.2c0-1.9-1.2-2.9-3.3-2.9-1.5 0-2.6.3-3.9.8l-.8-2.5c1.5-.7 2.9-1.1 5.1-1.1 4 0 5.9 2.1 5.9 5.7v8zm.1-5.6c-.8-.3-1.9-.5-3.1-.5-2 0-3.1.8-3.1 2.1s1.1 2 2.6 2c2 0 3.5-1.1 3.5-2.9z"/><path fill="#e6e6e6" d="m817.6 305.5v2.1h-3.1v-18.7h3.1v7.4c1-1.4 2.4-2.5 4.5-2.5 3.2 0 6.3 2.5 6.3 7s-3.1 7-6.3 7c-2.1 0-3.5-1.1-4.5-2.3zm7.7-4.7c0-2.6-1.7-4.3-3.9-4.3-2.1 0-3.9 1.7-3.9 4.4 0 2.6 1.8 4.3 3.9 4.3 2.2 0 3.9-1.7 3.9-4.4z"/><path fill="#e6e6e6" d="m829.6 305.8 1.4-2.1c1.4 1.1 3 1.7 4.4 1.7s2.1-.5 2.1-1.5-1.3-1.4-2.8-1.8c-.1 0-.2-.1-.2-.1-2-.6-4.2-1.4-4.2-4s2.1-4.1 4.8-4.1c1.7 0 3.5.6 5 1.5l-1.2 2.2c-1.3-.8-2.6-1.3-3.8-1.3s-1.9.5-1.9 1.4 1.3 1.4 2.8 1.8c.1 0 .2.1.2.1 2 .6 4.2 1.5 4.2 4 0 2.9-2.2 4.2-5 4.2-1.9 0-4-.7-5.8-2z"/><path fill="#e6e6e6" d="m206.3 434.2c0-5.1 4.1-9.2 9.3-9.2s9.2 4.2 9.2 9.2-4.1 9.2-9.3 9.2-9.2-4.1-9.2-9.2zm17.4-.1c0-4.5-3.5-8.2-8.2-8.2s-8.2 3.7-8.2 8.3c0 4.5 3.5 8.2 8.2 8.2s8.2-3.7 8.2-8.3zm-13.1-.1c0-2.8 2.1-5.1 5.1-5.1 1.9 0 2.9.6 3.9 1.5l-1.4 1.7c-.8-.7-1.5-1.1-2.5-1.1-1.7 0-2.8 1.4-2.8 3.1s1.1 3 2.8 3c1.1 0 1.7-.5 2.5-1.1l1.4 1.4c-1.1 1.1-2.1 1.7-4 1.7-2.9.1-5-2.2-5-5.1z"/><path fill="#e6e6e6" d="m226.1 425.3h3.4l4.2 13.2 4.4-13.3h2.6l4.4 13.3 4.2-13.2h3.3l-6.2 18h-2.7l-4.4-12.8-4.4 12.8h-2.7z"/><path fill="#e6e6e6" d="m252.4 436.4c0-3.9 3.1-7 7.2-7 4.2 0 7.2 3.2 7.2 7s-3.1 7-7.3 7c-4.1 0-7.1-3.1-7.1-7zm11.2 0c0-2.3-1.7-4.3-4.2-4.3s-4.1 2-4.1 4.3 1.7 4.3 4.1 4.3c2.7.1 4.2-1.9 4.2-4.3z"/><path fill="#e6e6e6" d="m269 429.7h3.1v3c.8-2 2.4-3.4 4.8-3.3v3.2h-.2c-2.7 0-4.6 1.7-4.6 5.4v5.1h-3.1z"/><path fill="#e6e6e6" d="m278.6 424.5h3.1v11.1l5.6-6h3.8l-5.4 5.5 5.5 8h-3.5l-4.1-5.8-1.9 2v3.9h-3.1z"/><path fill="#e6e6e6" d="m291.3 436.4c0-3.9 3.1-7 7.2-7 4.2 0 7.2 3.2 7.2 7s-3.1 7-7.3 7c-4.1 0-7.1-3.1-7.1-7zm11.2 0c0-2.3-1.7-4.3-4.2-4.3s-4.1 2-4.1 4.3 1.7 4.3 4.1 4.3c2.6.1 4.2-1.9 4.2-4.3z"/><path fill="#e6e6e6" d="m307.7 438.2v-8.6h3.1v7.6c0 2.1 1.1 3.3 2.9 3.3s3-1.3 3-3.3v-7.6h3.1v13.4h-3.1v-2.1c-.8 1.3-2.1 2.3-4.2 2.3-3 .2-4.8-1.8-4.8-5z"/><path fill="#e6e6e6" d="m323.4 439.4v-7.1h-1.7v-2.6h1.7v-3.7h3.1v3.7h3.6v2.6h-3.6v6.6c0 1.2.6 1.7 1.7 1.7.7 0 1.3-.2 1.9-.5v2.5c-.8.5-1.7.7-2.8.7-2.3 0-3.9-.9-3.9-3.9z"/><path fill="#e6e6e6" d="m332.7 425.3h3.2v15h9.4v2.9h-12.5v-17.9z"/><path fill="#e6e6e6" d="m355.5 443.1v-1.7c-.9 1.1-2.3 2-4.4 2-2.6 0-4.8-1.4-4.8-4.2 0-3 2.3-4.4 5.4-4.4 1.7 0 2.6.2 3.7.5v-.2c0-1.9-1.2-2.9-3.3-2.9-1.5 0-2.6.3-3.9.8l-.8-2.5c1.5-.7 2.9-1.1 5.1-1.1 4 0 5.9 2.1 5.9 5.7v8zm.1-5.6c-.8-.3-1.9-.5-3.1-.5-2 0-3.1.8-3.1 2.1s1.1 2 2.6 2c2 0 3.5-1.1 3.5-2.9z"/><path fill="#e6e6e6" d="m364.4 441.1v2.1h-3.1v-18.7h3.1v7.4c1-1.4 2.4-2.5 4.5-2.5 3.2 0 6.3 2.5 6.3 7s-3.1 7-6.3 7c-2.1 0-3.5-1.1-4.5-2.3zm7.7-4.7c0-2.6-1.7-4.3-3.9-4.3-2.1 0-3.9 1.7-3.9 4.4 0 2.6 1.8 4.3 3.9 4.3 2.2 0 3.9-1.7 3.9-4.4z"/><path fill="#e6e6e6" d="m376.5 441.4 1.4-2.1c1.4 1.1 3 1.7 4.4 1.7s2.1-.5 2.1-1.5-1.3-1.4-2.8-1.8c-.1 0-.2-.1-.2-.1-2-.6-4.2-1.4-4.2-4s2.1-4.1 4.8-4.1c1.7 0 3.5.6 5 1.5l-1.2 2.2c-1.3-.8-2.6-1.3-3.8-1.3s-1.9.5-1.9 1.4 1.3 1.4 2.8 1.8c.1 0 .2.1.2.1 2 .6 4.2 1.5 4.2 4 0 2.9-2.2 4.2-5 4.2-2 0-4.1-.7-5.8-2z"/><path fill="#e6e6e6" d="m505.1 434.2c0-5.1 4.1-9.2 9.3-9.2s9.2 4.2 9.2 9.2-4.1 9.2-9.3 9.2-9.2-4.1-9.2-9.2zm17.4-.1c0-4.5-3.5-8.2-8.2-8.2s-8.2 3.7-8.2 8.3c0 4.5 3.5 8.2 8.2 8.2s8.2-3.7 8.2-8.3zm-13.1-.1c0-2.8 2.1-5.1 5.1-5.1 1.9 0 2.9.6 3.9 1.5l-1.4 1.7c-.8-.7-1.5-1.1-2.5-1.1-1.7 0-2.8 1.4-2.8 3.1s1.1 3 2.8 3c1.1 0 1.7-.5 2.5-1.1l1.4 1.4c-1.1 1.1-2.1 1.7-4 1.7-2.9.1-5-2.2-5-5.1z"/><path fill="#e6e6e6" d="m525 425.3h3.4l4.2 13.2 4.4-13.3h2.6l4.4 13.3 4.2-13.2h3.3l-6.2 18h-2.7l-4.4-12.8-4.4 12.8h-2.7z"/><path fill="#e6e6e6" d="m551.2 436.4c0-3.9 3.1-7 7.2-7 4.2 0 7.2 3.2 7.2 7s-3.1 7-7.3 7c-4.1 0-7.1-3.1-7.1-7zm11.2 0c0-2.3-1.7-4.3-4.2-4.3s-4.1 2-4.1 4.3 1.7 4.3 4.1 4.3c2.7.1 4.2-1.9 4.2-4.3z"/><path fill="#e6e6e6" d="m567.8 429.7h3.1v3c.8-2 2.4-3.4 4.8-3.3v3.2h-.2c-2.7 0-4.6 1.7-4.6 5.4v5.1h-3.1z"/><path fill="#e6e6e6" d="m577.5 424.5h3.1v11.1l5.6-6h3.8l-5.4 5.5 5.5 8h-3.5l-4.1-5.8-1.9 2v3.9h-3.1z"/><path fill="#e6e6e6" d="m590.1 436.4c0-3.9 3.1-7 7.2-7 4.2 0 7.2 3.2 7.2 7s-3.1 7-7.3 7c-4.1 0-7.1-3.1-7.1-7zm11.2 0c0-2.3-1.7-4.3-4.2-4.3s-4.1 2-4.1 4.3 1.7 4.3 4.1 4.3c2.6.1 4.2-1.9 4.2-4.3z"/><path fill="#e6e6e6" d="m606.5 438.2v-8.6h3.1v7.6c0 2.1 1.1 3.3 2.9 3.3s3-1.3 3-3.3v-7.6h3.1v13.4h-3.1v-2.1c-.8 1.3-2.1 2.3-4.2 2.3-3 .2-4.8-1.8-4.8-5z"/><path fill="#e6e6e6" d="m622.2 439.4v-7.1h-1.7v-2.6h1.7v-3.7h3.1v3.7h3.6v2.6h-3.6v6.6c0 1.2.6 1.7 1.7 1.7.7 0 1.3-.2 1.9-.5v2.5c-.8.5-1.7.7-2.8.7-2.3 0-3.9-.9-3.9-3.9z"/><path fill="#e6e6e6" d="m631.5 425.3h3.2v15h9.4v2.9h-12.5v-17.9z"/><path fill="#e6e6e6" d="m654.3 443.1v-1.7c-.9 1.1-2.3 2-4.4 2-2.6 0-4.8-1.4-4.8-4.2 0-3 2.3-4.4 5.4-4.4 1.7 0 2.6.2 3.7.5v-.2c0-1.9-1.2-2.9-3.3-2.9-1.5 0-2.6.3-3.9.8l-.8-2.5c1.5-.7 2.9-1.1 5.1-1.1 4 0 5.9 2.1 5.9 5.7v8zm.1-5.6c-.8-.3-1.9-.5-3.1-.5-2 0-3.1.8-3.1 2.1s1.1 2 2.6 2c2 0 3.5-1.1 3.5-2.9z"/><path fill="#e6e6e6" d="m663.3 441.1v2.1h-3.1v-18.7h3.1v7.4c1-1.4 2.4-2.5 4.5-2.5 3.2 0 6.3 2.5 6.3 7s-3.1 7-6.3 7c-2.2 0-3.6-1.1-4.5-2.3zm7.7-4.7c0-2.6-1.7-4.3-3.9-4.3s-3.9 1.7-3.9 4.4c0 2.6 1.8 4.3 3.9 4.3s3.9-1.7 3.9-4.4z"/><path fill="#e6e6e6" d="m675.3 441.4 1.4-2.1c1.4 1.1 3 1.7 4.4 1.7s2.1-.5 2.1-1.5-1.3-1.4-2.8-1.8c-.1 0-.2-.1-.2-.1-2-.6-4.2-1.4-4.2-4s2.1-4.1 4.8-4.1c1.7 0 3.5.6 5 1.5l-1.2 2.2c-1.3-.8-2.6-1.3-3.8-1.3s-1.9.5-1.9 1.4 1.3 1.4 2.8 1.8c.1 0 .2.1.2.1 2 .6 4.2 1.5 4.2 4 0 2.9-2.2 4.2-5 4.2-2 0-4.1-.7-5.8-2z"/></g>
</svg>
