<?xml version="1.0" encoding="utf-8"?>
<!-- Generator: Adobe Illustrator 20.0.0, SVG Export Plug-In . SVG Version: 6.00 Build 0)  -->
<svg version="1.2" baseProfile="tiny" id="Layer_2" xmlns="http://www.w3.org/2000/svg" xmlns:xlink="http://www.w3.org/1999/xlink"
	 x="0px" y="0px" viewBox="0 0 900 600" xml:space="preserve">
<g>
	<path d="M733.9,339.7c1.7,0.2,2.3,1.4,2.7,2.8c1.6,5.9,3.3,11.7,4.2,17.8c0.8,5.9,1.7,11.8,2.6,17.7c0.1,0.9,0.3,1.7,0.6,2.8
		c1.5-0.2,2.9-0.3,4.2-0.4c13.5-0.9,26.9-0.5,40.2,1.6c1.2,0.2,2.5,0.2,3.8,0c7.4-1.4,14.8-2,22.3-2.4c3.1-0.2,6-0.8,8.6-2.6
		c0.7-0.5,1.5-0.9,2.4-1.2c2-0.5,3.3-1.8,4.6-3.2c1.1-1.3,2.1-2.5,3.1-3.8c1.1-1.4,2.6-2.4,4.4-2.9c1.7-0.5,3.4-1.1,5.1-1.5
		c1.6-0.4,3.1-0.9,4.6-1.7c1.8-1,3.1-0.8,4.4,0.8c1.2,1.6,2.5,2.1,4.2,1.4c1.4-0.5,2.8-0.4,4.1,0c1.5,0.4,2.9,0.6,4.5,0.5
		c1.2,0,2.5,0.2,3.7,0.7c1.8,0.7,2.4,2.2,1.6,4c-0.3,0.7-0.7,1.3-1.2,2.2c0.7,0.3,1.2,0.4,1.7,0.7c0.6,0.3,1.4,0.5,1.5,1
		c0.8,1.9,2.3,2.6,4.1,3c0.2,0.1,0.5,0.2,0.7,0.3c1.1,0.6,1.6,1.6,1.3,2.9c-0.4,1.5-1,2.9-1.6,4.5c0.4,0.6,0.9,1.3,1.4,2
		c0.4,0.5,0.9,0.9,1.3,1.4c1.5,1.9,1.5,3.2,0.1,5.1c-0.6,0.8-1.3,1.6-1.9,2.4c-0.5,0.7-1,1.4-1.6,2.2c0.1,0.6,0.1,1.2,0.3,1.8
		c0.5,1.7,0.1,3.3-0.8,4.7c-0.7,1.1-1.2,2.2-1.2,3.5c-0.1,2.7-1.7,4.4-4.1,5.4c-0.1,0-0.2,0.1-0.4,0.1c-7,1.7-13.5,5-20.7,6.5
		c-2.6,0.5-5.1,1.5-7.5,2.3c-1.4,2.3-1.4,2.2-3.4,2.9c-9.1,2.9-18.1,5.8-27.2,8.7c-2.3,0.7-4.2,2.3-6.5,3.1
		c-7.1,2.5-14,5.2-21.1,7.8c-1.5,0.6-3.2,0.8-4.8,1.1c-5.3,1.1-10.8,1.7-16,3.3c-13.9,4.1-28,7.2-42.2,9.7c-0.6,0.1-1.3,0.2-1.8,0.4
		c-0.6,0.2-1.1,0.6-1.6,0.9c-0.6-0.1-1.1-0.2-1.6-0.3c-2.4-0.2-3.8-1.6-4.8-3.8c-1.6-3.5-3.4-6.8-5.1-10.2c-2-3.8-3.5-7.9-5-11.9
		c-2.2-6.1-5.5-11.7-8.3-17.5c-0.4-0.8-1.1-1.4-1.7-2.1c-0.6-0.6-1.3-1.2-1.9-1.8c0.4-0.6,0.7-1.2,1-1.7c-4.1-8.4-6-17.4-8.1-26.4
		c-1.1-4.5-1.3-9-1.4-13.6c-0.1-2.7-0.3-5.3-0.4-8c0-0.5-0.2-1,0-1.5c0.8-3.5-0.3-7.1-0.1-10.6c0-0.5-0.2-0.9-0.3-1.6
		c-2.3,1-4.3,2-6.2,3.2c-2.2,1.4-4.5,2.3-7,2.8c-0.8,0.2-1.8,0.4-2.5,0.9c-2.4,1.8-5.1,2.2-7.9,2.2c-1.4,0-2.8-0.1-4.2-0.3
		c-5.6-0.9-11.2-1.9-16.8-3c-1.4-0.3-2.8-1.2-4.1-1.9c-1.8-1-3.5-2-5.2-3.1c-2.2-1.5-4-3.5-5.5-5.8c-0.5-0.8-0.9-1.5-1.5-2.2
		c-1.2-1.6-2.2-1.8-3.9-0.6c-2.7,2-5.8,3.1-9.2,3.3c-1.1,0.1-2.2,0.5-3.3,0.9c-7.3,2.4-14.7,5-22.4,6.1c-3.3,0.5-6.5,0.8-9.8,1
		c-4.3,0.3-8.5,1.1-12.6,2.6c-9.7,3.6-19.7,5.9-30.1,5.9c-1,0-2,0.3-2.9,0.7c-1.8,0.7-3.6,1.2-5.4,1.7c-3.1,0.7-6.2,1.3-9.3,1.9
		c-1.9,0.4-3.8,0.6-5.7-0.3c-2.8,1.7-5.5,3.5-8.4,5c-4.3,2.4-8.7,4.6-13.2,6.8c-2,1-4.3,1.8-6.5,2.2c-7.1,1.3-13.9,3.9-20.9,5.7
		c-2.2,0.6-4.3,1.6-6.4,2.4c-1.5,0.6-3,1.5-4.6,1.9c-4.8,1.3-8.7,4-12.7,6.8c-4.5,3.1-8.9,6.3-13.4,9.4c-2.3,1.6-4.7,3-7.2,4.3
		c-1.5,0.9-3.1,1.8-4.8,2.2c-5.8,1.4-11.2,4-16.8,6c-9.9,3.5-20.2,6.1-30.5,8.1c-12.5,2.4-25,4.6-37.4,6.8
		c-10.1,1.8-20.4,2.8-30.6,3.2c-3.4,0.1-6.8,0.5-10.2,0.7c-9,0.3-18,0.4-27,1c-6,0.4-11.9,0.5-17.9,0.3c-3.8-0.2-7.5,0.2-11.3,0.8
		c-6.6,1.1-13.4,1.5-20.1,1.6c-2.9,0.1-5.8-0.3-8.7,0.7c-0.9,0.3-1.8,0-2.5-0.5c-0.7-0.5-1.4-1.1-2.2-1.5c-1.5-0.8-3-1.9-4.9-1.6
		c-1.5,0.3-2.4-0.6-3-1.8c-0.4-0.9-0.9-1.8-1.3-2.8c-2.7-5.9-4.8-12-6.9-18.1c-0.4-1.3-1.2-2.5-1.8-3.7c-0.8-1.7-1.7-3.4-2.4-5.2
		c-2.9-7-5.7-14.1-8.6-21.1c-7.4-17.8-14.3-35.8-19.7-54.3c-2.3-8-4.1-16.2-5.3-24.5c-0.2-1.4-0.2-2.8-0.2-4.2
		c0.1-2.2-0.3-4.3-0.9-6.4c-4.4-14-8.3-28.2-13.5-42c-2.5-6.5-5.2-13-7.7-19.5c-0.7-1.8-1.7-3.3-3.2-4.6c-1-0.8-1.8-1.8-2.5-2.6
		c-1.4,0-2.5,0-3.7,0c-1.9-0.1-3.7-0.7-4.6-2.3c-0.7-1.3-1.7-1.8-2.9-2.1c-6-1.5-12.1-3-18.2-3.9c-2.5-0.4-5-1-7.5-1.3
		c-1.2-0.2-2.5-0.3-3.7-0.2c-2.4,0.3-4.7,0.8-7.1,1.2c-0.9,0.1-1.8,0.3-2.6,0.2c-1.7-0.2-3.2,0.3-4.7,1.2c-3.4,2-6.8,3.9-10.2,5.8
		c-1.9,4.5-5.7,5.9-10,6.6c-1.1,0.2-2.3,0.1-3.4-0.1c-2.6-0.5-5.2-1.1-7.8-1.3c-3-0.3-5.8-4-6-7.5c-0.1-1.1,0-2.3,0-3.3
		c-1.6-1.1-3.1-2-4.5-3c-0.8-0.6-1.4-1.4-2.1-2.2c-4.6-4.6-3.3-10.5-0.5-14.2c0.8-1,1.6-1.9,2.6-2.8c1-0.9,1.6-1.9,1.8-3.2
		c0.5-2.7,2-4.9,4-6.8c3-2.9,5.9-5.9,9-8.8c3.7-3.5,7.7-6.6,12.1-9.2c3.1-1.8,6.4-3,9.9-3.8c5.8-1.3,11.6-2.9,17.3-4.4
		c3.8-1,7.6-1.9,11.7-2.9c1.1-1.7,2.9-2.7,4.8-3.8c2.5-1.4,5-3,7.5-4.4c3.1-1.8,6.2-3.5,9.3-5.2c1.1-0.6,2.4-1.1,3.6-1.2
		c7.5-0.8,14.7-2.6,22.2-3.5c4.4-0.5,8.8-1.3,13.2-0.6c3.2,0.5,3.5,0.7,4.1,3.9c0.1,0.4,0.2,0.7,0.2,0.7c2.1,1.7,4,3.3,5.8,4.8
		c1.2,0.9,1.8,2.2,1.8,3.6c0,1.6,0.4,3,1.2,4.3c1.2,1.9,1.6,4,1.3,6.2c-0.4,2.5,0.1,4.8,1,7.1c1.1,2.8,2.2,5.7,3.2,8.6
		c0.5,1.5,0.8,3.2,1.3,4.8c0.3,1.1,0.9,2.1,1.2,3.2c0.2,0.7,0,1.4,0,2.3c-0.6-0.3-1-0.4-1.1-0.7c-1.6-2.6-3.2-5.2-4.8-7.8
		c-0.6-1.1-1.2-2.2-1.6-3.4c-1.4-4.5-3.7-8.6-6-12.7c-1.1-2-2.2-4-2.1-6.4c0.1-1.4-0.6-2.5-1.5-3.4c-1-1-1.8-2.1-1.9-3.6
		c0-0.5-0.2-1-0.4-1.4c-0.8-1.8-1.6-3.7-2.5-5.7c-3.7-0.9-7.5,0.4-11.4,0.9c-0.9-0.5,0.1-1.1-0.2-1.9c-0.5,0-1.1-0.1-1.6,0
		c-2.7,0.7-5.4,1.5-8,2.3c-3.4,1-6.9,1.8-10.4,2.2c-1.6,0.2-3,0.6-4.3,1.5c-2.2,1.4-4.5,2.9-6.7,4.4c-3.4,2.4-6.8,4.9-10.7,6.6
		c-2,0.9-3.9,1.8-6.1,0.5c-0.5-0.3-1.5-0.1-2.2,0c-1.6,0.4-3.2,0.9-4.7,1.5c-6.8,2.5-13.6,4.8-20.7,6.4c-2.6,0.6-4.6,2-6.6,3.5
		c-5.6,4.2-10.9,8.8-15.9,13.6c-2.9,2.8-6,5.5-8.9,8.3c-0.6,0.5-1.1,1.1-1.5,1.7c-1.5,2-3,4.1-4.4,6.2c-0.7,1-1.1,2.3-1.5,3.5
		c-0.6,1.8-0.4,3.5,1.1,4.9c0.2,0.2,0.4,0.4,0.5,0.6c2.3,3.6,5.8,4.5,9.9,4.3c3.8-0.2,7.6-0.7,11.3-1.6c4.2-1,8.4-1.8,12.9-2.1
		c0.1-0.7,0.2-1.4,0.3-2.1c0.1-0.6,0.1-1.3,0.2-1.9c0.2-1.1,0.7-1.9,1.8-2.3c1-0.4,1.7,0.3,2.6,0.9c0.4-0.6,0.8-1.1,1.2-1.7
		c0.8-1.3,1.9-2.4,3.3-3c0.5-0.2,0.8-0.1,2.1,0.7c-0.6,2.8-1.2,5.6-1.9,8.5c1.6,1,3.2,0.8,5,0.8c0.4-1.1,0.8-2.1,1.3-3.2
		c1-2.4,2.3-4.5,4.3-6.2c0.8-0.7,1.7-1.2,2.8-0.8c0.7,0.3,1,1.5,0.5,2.8c-0.6,1.5-1.3,3-1.9,4.5c-0.5,1.1-1.4,2.1-1.1,3.5
		c2.7,0.8,5.3,1.6,8,2.5c0.4-2.5,0.7-4.9,1.1-7.2c0.3-2.1,0.9-4.2,2.2-6c0.6-0.8,1.3-1.6,2.1-2.2c0.5-0.4,1.1-0.7,1.7-0.9
		c0.7-0.2,1.5-0.2,2.1,0.4c0.7,0.6,0.6,1.4,0.2,2.1c-2,4.2-2.5,8.7-3,13.3c-0.1,0.5,0,1,0,1.4c0.3,0.3,0.5,0.5,0.7,0.6
		c1.4,0.3,2.7,0.5,4,0.7c1.1-3.8,2-7.5,3.2-11.1c0.6-1.9,1.6-3.7,2.6-5.5c0.5-0.9,1.3-1.6,2-2.2c0.7-0.6,1.6-0.9,2.5-0.3
		c0.9,0.5,1.2,1.3,1.1,2.3c-0.1,0.7-0.2,1.5-0.4,2.2c-1.2,3.9-2.4,7.7-3.7,11.6c-0.5,1.4-1.1,2.8-1.8,4.3c0.2,0.8,1.1,0.8,1.7,1
		c2.5,0.9,4.9,1.9,7.2,3.4c1.2,0.8,1.3,0.7,4.1,0.5c0.3-1.7,0.6-3.4,0.9-5.2c0.2-1.3,0.7-2.3,1.6-3.3c1.2-1.3,2.2-2.8,3-4.4
		c2-4.1,3.5-8.4,4.3-12.9c0.9-5.1,3.8-9.1,7.8-12.2c2.5-1.9,5.2-2.5,8.2-1c5,2.7,10.2,5.2,15.2,7.9c1.8,1,3.4,2.2,3.6,4.4
		c1.1,0.4,1.5-0.5,2.1-0.9c1.8-1.2,3.6-2.4,5.4-3.5c0.5-0.3,1.2-0.5,1.8-0.6c0.8-0.1,1.6,0.2,1.8,1c0.2,0.5,0.2,1.3-0.1,1.8
		c-0.4,0.6-1,1.1-1.7,1.5c-1.2,0.7-2.4,1.4-3.8,2.1c0.4,1,0.6,1.7,0.9,2.5c0.6-0.2,1.1-0.3,1.7-0.5c0.9,1.8,1.7,3.5,2.5,5.2
		c3.1,6.4,6.7,12.5,11,18.2c1.1,1.4,2.1,2.9,3.4,4.1c4.9,4.5,8.6,10,12.4,15.3c5.7,8.1,12.2,15.6,18.9,22.8c2.8,3,5.5,6,8.3,9
		c3.2,3.5,5.7,7.5,8,11.6c0.1,0.2,0.3,0.4,0.4,0.7c1.7,4.2,3.7,8.3,5.2,12.6c2.5,6.9,3.8,14,3.4,21.3c-0.3,4.4,0.4,8.6,1.2,12.8
		c0.9,4.9,1.6,9.8,2.4,14.6c0.4,2.5,0.5,5-0.3,7.5c-0.6,2-0.3,4,0.1,6.2c1.1,0.2,2.2,0.4,3.3,0.6c-0.1-0.7-0.1-1.2-0.2-1.9
		c0.8-0.4,1.7-0.9,2.6-1.3c4.5-1.8,9-3.4,13.4-5.3c8.6-3.7,17.2-7.5,25.7-11.4c8.4-3.8,16.8-7.8,25.2-11.8c6.9-3.3,14.1-5.8,21.4-8
		c8-2.4,16-5,24-7.6c1.8-0.6,3.7-1.1,5.3-2c2.7-1.4,5.1-3.4,6.1-6.5c0.2-0.6,0.4-1.2,0.6-1.8c3.2-11,10-19.2,19.6-25.3
		c4.2-2.6,8.6-4.8,13-7.2c2.7-1.5,5.7-2.2,8.8-2.4c2.9-0.2,5.8-0.5,8.6-1.5c3.3-1.1,6.7-1.3,10.1-1.5c7.2-0.4,14.5-0.5,21.7,0.5
		c5.2,0.7,10.2,1.9,15.1,3.7c1.1,0.4,2.2,0.8,3.1,1.5c1.9,1.4,3.9,2.2,6.3,2.5c2.4,0.4,4.7,1.2,6.6,2.9c0.9-0.5,1.8-1,2.7-1.4
		c1.7-0.7,3.5-1.6,5.3-2.1c9.1-2.3,18-5.3,26.7-8.7c15.6-6.1,30.9-12.9,46.2-19.8c6.4-2.9,12.5-6.3,18.5-9.8
		c5.2-3,10.4-5.9,16.1-7.8c2.2-0.7,4.4-1.4,6.5-2.1c3.5-1.2,6.9-2.4,10.5-3.5c5.1-1.6,10.3-2.7,15.6-3.3c3.4-0.4,6.8-0.7,10.2-1.1
		c2.4-0.3,4.7-0.6,7.1-1.4c2.1-0.7,4.5-0.9,6.7-1.3c8.3-1.3,16.5-2.6,24.8-3.7c7.7-1.1,15.4-1.8,23.1-1.8c5.1,0,10.1,0.8,15,2.4
		c6.9,2.3,13.9,4,21,5.4c4.1,0.8,8.2,1.7,11.8,4.3c7.8-1.5,15.8-2.4,23.5-4.5c3.8-1,7-2.8,9.3-6.1c0.8-1.1,1.7-2.2,2.5-3.2
		c-0.4-0.7-0.6-1.1-0.9-1.7c4-6.1,7.1-12.8,11.8-18.6c3.1-3.8,6.8-6.8,11.3-8.8c6-2.5,11.8-5.3,18.2-6.8c0.6-0.1,1.2-0.4,1.8-0.6
		c0.2-0.1,0.4-0.3,0.7-0.5c-2.3-6.4-0.3-12.1,3.3-17.4c1.8-2.6,4-4.9,6.4-7c0.6-0.5,1.3-0.9,1.2-1.8c-0.2-1.7,1-2.5,2.2-3.2
		c5.8-3.4,13.3-3,18.6,1.2c1.7,1.3,3.2,2.9,4.6,4.5c3.7,4.4,6.7,9.3,9.2,14.4c2.3,4.6,3.5,9.5,4.1,14.6c0.1,1.3,0.3,2.7-0.3,4
		c-0.9,0-1.1-0.5-1-1c0.3-5.1-1.5-9.5-4.1-13.6c-2.8-4.5-5.6-9.1-8.5-13.5c-1.5-2.3-3.2-4.6-5.5-6.2c-1.5-1.1-3.2-2.2-4.9-2.8
		c-3.9-1.4-7.5-0.7-10.5,2.3c-2,2-4,3.9-5.9,6c-1.7,2-3.4,4.1-4.8,6.4c-1.9,2.9-2.8,6.2-2.8,9.8c0,1,0.3,1.9,0.4,3.2
		c1.1-0.1,1.9-0.2,2.8-0.3c1.5-0.3,3-0.6,4.6,0.1c0.2,1.6,0.2,3.1-0.5,4.7c-1.8,4.3-2.9,8.9-3.8,13.5c-0.6,3.1-1.2,6.2-1.8,9.3
		c-0.2,1.1-0.5,2.2-1,3.2c-0.8-3.1-0.2-6.2,0.3-9.2c0.5-3.1,1.1-6.2,1.7-9.8c-2.1,1.7-2.6,3.7-3.3,5.5c-0.8,2-1.5,4-2.1,6.1
		c-0.5,2-0.9,4-1.2,6c-0.3,2-0.4,4-0.8,6c-0.3-2.6-0.8-5.3-0.9-7.9c-0.1-2.8,0.3-5.5,0.5-8.8c-2.2,2.8-3.3,5.6-4.4,8.4
		c-1,2.9-1.7,5.8-2.6,8.9c-0.3-0.2-0.8-0.4-0.8-0.5c0.9-5.8,1.6-11.6,4.2-16.9c2.2-4.7,5.2-8.7,9.7-11.4c1.3-0.8,2.6-1.6,3.8-2.5
		c0.8-0.6,1.6-1.3,1.5-2.6c-0.5,0-1-0.2-1.4-0.1c-2.5,0.6-4.9,1.3-7.3,2c-0.5,0.1-1,0.4-1.2,0.8c-1.1,1.8-2.9,2.4-4.7,3
		c-4.9,1.8-9.3,4.7-13.8,7.2c-0.2,0.1-0.3,0.4-0.4,0.6l0.1-0.1c-0.8,0.4-1.7,0.6-2.3,1.1c-4.8,3.5-9.2,7.5-13,11.7
		c-0.6,2.8-0.9,5.3-1.6,7.7c-1.8,5.6-5.6,9.7-10.8,12.2c-5.8,2.9-12.1,4.6-18.6,5.4c-1.1,0.1-2.3,0.3-3.4,0.5
		c-3.6,0.6-7,0.3-10.1-1.9c-1.3-0.9-3-1.2-4.6-1.5c-3.7-0.8-7.5-1.3-11.2-2c-4.1-0.8-8.2-1.8-12.5-2.8c-4,0.8-7.3,3.2-10.8,5.9
		c0.6,0.6,1.1,1.1,1.7,1.5c3.8,2.8,7.4,5.8,10.5,9.4c0.7,0.8,1.7,1.5,2.7,2c2.9,1.6,5.9,3,8.8,4.5c2.3,1.3,4.7,2.6,6.9,4
		c3.3,2.2,5.9,5,7.8,8.7c1.4,2.8,3.2,5.4,4.9,8.4c1.1-1.5,0.7-3.2,1-4.8c0.3-1.5,0.5-2.9,0.8-4.4c0.8-0.1,1.2,0.2,1.2,0.8
		c0.2,3.4,0.3,6.8-0.9,10.3c-0.8,0.6-1.7,1.3-2.8,2.1c-0.4-0.5-0.9-0.9-1.2-1.4c-0.5-0.9-0.9-1.8-1.3-2.7
		c-3.1-6.7-7.9-11.7-14.4-15.1c-2.4-1.2-4.7-2.5-7.1-3.6c-4.3-2.1-8-4.9-10.6-8.9c-0.9-1.5-2.3-2.7-3.7-3.8
		c-1.3-1.2-2.9-2.1-4.2-3.3c-1.2-1-2.2-2.1-3.2-3.2c-0.9-1-0.9-2.2,0.1-3c1.9-1.5,3.5-3.3,5.9-4c0.6-0.2,1.2-0.4,1.9-0.7
		c-0.8-1.1-1.8-1.1-2.7-1.2c-3.7-0.1-7.4-0.4-11-0.2c-5.8,0.3-11.6,0.8-17.5,1.2c-1.1,0.1-2.3,0.2-3.4,0.3
		c-4.3,0.1-8.6,0.8-12.8,1.8c-8.9,2.1-17.9,3.6-27,4.6c-6.3,0.6-12.6,1.4-18.7,3.1c-2.4,0.7-4.8,1.6-7.2,2.4
		c-3.5,1.1-7,2.3-10.5,3.4c-0.8,0.3-1.6,0.7-2.3,1c-0.5,12-1.4,23.7,0,35.5c0.5,4.3,1.1,8.5,1.6,12.8c0.1,0.8,0.2,1.5,0.2,2.3
		c-0.2,2.7,0.5,5.3,1.2,7.8c1.4,4.6,2.8,9.2,4.2,13.8c0.8,2.7,1.4,5.4,2.1,8.1c0.2,0.7,0.3,1.5,0.5,2.2c1.4,4.4,2.5,8.8,2,13.4
		c0,0.2,0,0.5,0.1,0.8c0.7,4.3,1.9,8.4,3.7,12.4c1.4,0.2,2.5-0.5,3.7-0.9c1.6-0.5,3.1-1.2,4.7-1.7c1.7-0.5,3.3-0.3,4.6,1
		c1.1,1.2,2.4,2.3,3.3,3.6c2.8,3.9,6.5,6.4,11,7.7c10.5,3,21.2,3.8,32,1.3c2.7-0.6,5.4-1.5,7.8-2.9c1.8-1,3.6-1.9,5.4-3
		c0.6-5.3,1.3-10.5,1.9-15.8c-1.1-1.3-2.6-1.6-4-2.3c-2.9-1.4-5.8-2.7-8.5-4.2c-3.8-2.1-7.1-4.9-9.7-8.5c-5.9-8.2-7.5-17.1-3.6-26.6
		c2.1-5,4.5-9.9,7.2-14.7c5.1-9,12.8-15,22.7-18c9.6-2.9,19.3-4.2,29.3-3.2c4.4,0.5,8.8,1.3,12.9,2.9c2.8,1.1,5.2,2.5,7.2,4.9
		c0.6,0.7,1.3,1.2,1.9,1.8c0.2,1.1,0.2,2.3,0.6,3.3c1.3,2.8,1.6,6,3.1,9.2c1.1-2.3,1-4.4,1.6-6.3c0.3-0.8,0.5-1.7,0.8-2.5
		c0.1-0.3,0.6-0.5,0.9-0.5c0.3,0,0.8,0.3,0.9,0.6c0.2,1.1,0.5,2.2,0.4,3.4c-0.3,3.8-0.8,7.6-2,11.2c-0.9,2.7-1.2,5.4-0.6,8.2
		c1.2,6.4,0.7,12.6-1,18.8c-0.6,2.2-0.9,4.5-1.5,6.7c-1,3.8-2.1,7.6-3.3,11.3c-0.6,1.9-1.1,3.9-1.3,5.9c-0.3,2.9-0.2,5.8-1.3,8.6
		c-1.1,0-1.7-0.6-1.9-1.5c-0.2-0.9-0.2-1.8-0.3-2.6c-0.5-5,0.4-9.9,1.1-14.8c0.4-3.4,1.3-6.7,2.7-9.9c0.4-0.8,0.6-1.7,0.8-2.5
		c0.6-2.6,1.1-5.2,1.8-7.8c1.2-4.1,1.1-8.2,0.3-12.4c-1.5-6.9-3.9-13.3-8.4-18.9c1.1-0.4,1.5,1.5,2.8,0.7c0.5-1.3,1-2.7,1.5-4.1
		c-0.2-0.6-0.3-1-0.4-1.5c-0.7-2.8-2.6-4.6-5.3-5.4c-1.9-0.6-3.9-1.2-5.9-1.6c-6-1.2-12-1.7-18.2-1.7c-4.1,0-8.1,0.5-12,1.8
		c-7.3,2.5-14.1,5.6-19.7,11.2c-2.3,2.3-4.7,4.7-6.9,7.1c-1.1,1.2-2.3,2.5-2.9,4c-1.5,3.5-2.7,7.1-3.9,10.7c-1,3.2-0.9,6.5-0.4,9.8
		c1,6.1,3.9,11.2,7.6,16c2.2,2.8,4.9,4.8,8.2,5.9c1.7,0.6,3.3,1.2,5,1.8c0.6,0.2,1.1,0.3,1.8,0.4c0.6-3.5,0.5-6.8,0.5-10.1
		c-0.1-3.4,0.1-6.8-0.6-9.9c-1.8-1-3.3-1.7-4.6-2.5c-1.8-1.2-2.3-1.8-3.3-3.9c1-0.2,1.7,0.4,2.5,0.7c0.8,0.3,1.6,0.8,2.4,1.2
		c0.7,0.4,1.2,1.3,2.4,1c-0.1-2.5-1.2-4.7-1.7-7.1c-0.5-2.5-1.9-4.7-2.2-7.2c1.3-0.4,1.5-0.5,1.8-0.1c0.6,1.1,1.4,2.2,1.8,3.3
		c1.1,3.4,2.3,6.7,3,10.2c1.5,7.9,2,15.9,2.1,23.9c0,0.5,0,1-0.1,1.5c-1.3,9.9-2.6,19.9-3.1,29.9c-0.2,3.8,0,7.6,1.1,11.3
		c3.2,11,5.9,22,10,32.7c2.3,6.1,4.1,12.3,5.2,18.7c0.7,4.3,1.9,8.4,3.6,12.4c3.7,8.7,8.3,16.8,13.1,24.9c0.4,0.7,1,1.4,1.7,2.2
		c1.2-0.3,2.3-0.7,3.3-1c3.4-1,6.8-2.1,10.3-2.9c8.9-2,17.8-4,26.9-5c0.6-0.1,1.2-0.2,1.9-0.3c6.1-1.2,12-3.2,17.9-5.1
		c6.9-2.2,13.7-4.6,20.5-7c1.4-0.5,2.8-1.2,4.1-2c3.9-2.5,8-4.4,12.3-5.9c5.8-2,11.6-3.7,17.4-5.6c1.2-0.4,2.4-0.8,3.5-1.4
		c2.9-1.8,6.1-3,9.5-3.9c4.5-1.3,9.1-2.5,13.6-3.8c3.3-1,6.5-2,9.8-3.1c1.7-0.6,2.8-1.6,2.8-3.6c0-1.2,0.2-2.3,1.2-3.1
		c1.4-1.1,1.5-2.5,1.4-4.1c-0.1-0.9-0.2-1.9,0.1-2.6c0.8-1.7,1.9-3.2,2.9-4.8c0.4-0.6,0.8-1.2,1.1-1.8c-1.1-1.5-2-2.9-3-4.2
		c-0.8-1.1-0.8-2.3-0.3-3.6c0.4-1,1.2-2,0.9-3.3c-1.1-0.4-2.3-0.7-3.2-1.3c-1-0.7-1.8-1.8-2.6-2.6c-1.6-0.4-3.1,0.1-4.6,0.4
		c-2.2,0.5-4.5,0.8-6.7,1.2c-1.4,0.2-2.4-0.6-3-1.8c-0.2-0.4,0.2-1.1,0.7-1.1c0.5,0,1,0.2,1.5,0.3c0.2,0,0.4-0.1,0.6-0.2
		c0.1-0.6,0.3-1.1,0.4-1.8c1.1,0.6,2,1.4,2.9,1.4c1.6,0,3.3-0.4,4.8-0.9c1.2-0.4,2.1-2.2,1.8-3.5c-0.3-1.2-1.3-1.5-2.3-1.6
		c-0.5-0.1-0.9,0-1.9,0c0.8,0.8,1.3,1.2,1.6,1.7c0.4,0.6,0.7,1.2,1.2,2.1c-0.8,0.2-1.2,0.4-1.7,0.4c-1.5-0.1-2.5-1-3.4-2.2
		c-2.3-3.1-3.5-3.3-7-1.5c-0.2,0.1-0.4,0.3-0.7,0.4c-2.9,1.5-5.6,3.3-9,3.9c-2,0.3-3.3,1.8-4.1,3.6c-0.6,1.3-1.1,2.6-1.9,3.7
		c-3.5,4.8-7,9.6-10.6,14.4c-1,1.3-2.2,2.5-3.7,3.2c-3.2,1.5-6.4,3.2-9.7,4.4c-4,1.5-8.2,2.6-12.3,3.9c-2.9,0.9-5.8,1.7-8.9,2.1
		c-3.6,0.5-7.3,1-10.9,1.5c-4.1,0.6-8.3,1.2-12.5,1.1c-4.6-0.2-9.1,0.3-13.7,0.8c-3.3,0.4-6.6,0.7-9.8,1.1c-0.7,0.1-1.4,0.3-2.4,0.4
		c0,1.7,0,3.2,0,4.7c0,0.3-0.2,0.5-0.6,1.1c-0.5-1.6-0.9-2.8-1.1-4c-0.1-0.6-0.3-1.4,0-1.9c1.1-1.8,0.6-3.7,0.1-5.5
		c-1.4-5.6-2.1-11.2-2.5-16.9c-1-13.2-2.6-26.2-4.8-39.3c-0.5-3.2-1.2-6.5-1.7-9.7C733.4,341,733.7,340.4,733.9,339.7z M685,387.1
		c0-0.6-0.1-1.1-0.2-2C684.4,386.1,684.6,386.6,685,387.1c-0.2,2,0.8,3.9,1.3,5.8c1.3,5.2,2.6,10.3,5,15.1c0.4,0.8,0.5,1.7,0.7,2.5
		c0.3,1.5,0.7,2.9,2.1,4.3c0.2-2.6-0.5-4.5-1.2-6.5c-2.1-6.1-4.2-12.2-6.4-18.3C686.1,389,686,387.8,685,387.1z M223.2,370.9
		c-1-1-1-2-1-3.1c-0.1-6.9-0.9-13.6-2.1-20.4c-1.4-8.5-2.8-17-4.2-25.5c-0.2-1.1-0.5-2.2-0.9-3.3c-1.5-3.8-3.1-7.5-4.5-11.3
		c-1.9-5-4.1-9.8-6.8-14.4c-2.5-4.3-5.4-8.3-8.5-12.2c-1.2-1.5-2.5-3-2.7-4.9c-0.2-1.3-0.9-2-1.7-2.9c-2.6-2.8-5.2-5.6-7.5-8.5
		c-6.4-8.1-12.2-16.5-15.3-26.5c-0.2-0.7-0.8-1.3-1.2-1.9c-0.8-1.1-1.8-2.1-2.4-3.3c-4.6-8.4-8.6-17-11.7-26
		c-1.4-3.9-3.1-7.4-5.8-10.5c-1-1.1-1.9-2-3.2-2.6c-4.2-1.9-8.3-3.9-12.4-5.8c-0.6-0.3-1.2-0.5-1.7-0.8c-2-0.8-3.8-0.5-5.3,0.9
		c-1.2,1.1-2.3,2.4-3.3,3.7c-0.9,1.1-1.5,2.3-2.5,3.4c-1.1,1.2-1.5,2.6-1.8,4.1c-0.7,3.3-1.6,6.7-2.5,9.9c-0.7,2.4-1.8,4.7-3.6,6.6
		c-1.1,1.2-1.6,2.5-1.4,3.8c1.9,2.9,3.7,5.5,5.3,8.2c5.3,8.7,10.2,17.5,13.8,27.1c7.3,19.2,11.8,39,13.2,59.6c0.1,2,0.4,4,0.9,6
		c1.7,6.1,3.5,12.2,5.7,18.1c2.5,6.9,5,13.8,7.1,20.9c1.7,5.6,3.9,11,6.5,16.2c5.1,9.9,10.3,19.8,14.5,30.2c0.5,1.2,1.1,2.4,1.1,3.6
		c0.1,1.1-0.5,2.2-0.7,3.3c1.8,4.1,3.6,8.3,5.5,12.5c0.3,0.6,0.8,1.5,1.3,1.7c1,0.3,1.4,0.9,1.6,1.9c0.2,0.7,0.4,1.5,0.7,2.2
		c0.3,0.7,0.5,1.5,1.3,2.2c0.3-1.4,0.5-2.5,0.7-3.8c0.5,0.4,0.9,0.5,1.1,0.8c1.3,1.6,2.6,3.1,3.8,4.8c1.5,2,3.3,3,5.8,2.9
		c5.5-0.1,10.9-0.1,16.4-0.1c1.4,0,2.7-0.2,5-0.4c-2-0.4-3.1-0.6-4.2-0.8c0.2-1,0.9-1,1.5-1c4-0.3,8.1-0.7,12.1-0.9
		c2.7-0.2,5.3-0.1,8-0.2c9.4-0.4,18.8-0.8,28.1-1.1c5.2-0.2,10.4-0.2,15.6-0.3c2.4-0.1,4.8-0.4,7.2-0.7c4-0.5,8-1.2,12.1-1.6
		c7.3-0.8,14.6-1.4,21.9-2.9c2.9-0.6,5.7-1,8.6-1.5c11.7-1.7,23.3-3.7,34.8-6.2c7.9-1.7,15.8-3.6,23.6-6c0.6-0.2,1.2-0.3,1.4-1.1
		c-0.1-0.2-0.1-0.5-0.3-0.7c-5.6-7.9-9.6-16.7-12.8-25.8c-0.3-0.9-0.9-2-0.8-2.9c0.1-1.4-0.4-2.4-1-3.6c-3.2-6.9-6.5-13.8-9.7-20.7
		c-0.4-0.8-0.8-1.6-1.1-2.3c-0.8-0.2-1.5-0.4-2.4-0.7c0.5-0.8,0.8-1.4,1.2-2.1c0-0.2,0-0.3,0-0.4c-4.1-10.4-7.7-20.9-10-31.9
		c-0.1-0.6-0.5-1-0.9-1.7c-2,1.1-3.7,2.1-5.5,3.1c-1.3,0.7-2.6,1.5-4,2.1c-6.4,2.7-12.9,5.3-19.4,7.8c-9.5,3.7-19.2,6.7-28.1,11.7
		c-1.2,0.7-2.5,1.2-3.8,1.7c-6.1,2.6-12.1,5.2-18.2,7.7c-7.8,3.3-15.8,6.4-23.5,9.9c-4.1,1.9-8.1,3.3-12.5,4.1c-2,0.3-4,0.8-5.9,1.3
		c-0.6,0.1-1.3,0.2-1.8,0.5C227.8,371.4,225.6,371.1,223.2,370.9z M370.8,294.6c1.9-1.3,3.3-2.7,4.6-4.2c3.7-4.1,7.8-7.6,12.8-10
		c3.9-1.8,7.8-3.6,11.8-5.3c1.5-0.7,3.1-1.1,4.8-0.9c1,0.1,2-0.2,2.9-0.5c3-1,6.2-1.6,9.3-1.6c7.9-0.1,15.7-0.1,23.6,0
		c3.4,0.1,6.8,0.6,10.1,1.6c2.3,0.7,4.5,1.7,6.4,3.2c0.5,0.4,0.8,1-0.2,1.6c-0.6-0.2-1.3-0.4-2-0.7c-3.4-1.6-7-2.3-10.7-2.6
		c-2.1-0.2-4.3-0.2-6.5-0.2c-5.8,0-11.7,0.1-17.5,0.2c-3.9,0.1-7.8,0.6-11.7,1.6c-2.9,0.8-5.9,1.5-8.8,2.5c-2.9,1-5.7,2-8.4,3.4
		c-5.8,3-10.7,7.2-14.9,12.2c-3.6,4.4-6.8,9.1-10.5,13.4c-1,1.2-1.9,2.4-2.8,3.6c-0.9,1.3-1.7,2.7-2.8,4.3c-0.4-0.4-0.8-0.6-1-1
		c-0.3-0.6,0.1-1.6-1.1-1.8c-1.1,0.5-2.3,0.9-3,2c1.3,3.9,2.6,7.7,3.8,11.6c3.4,10.9,7.1,21.7,11.6,32.2c4,9.2,7.8,18.5,10.4,28.2
		c0.8,3,2,6,3.4,8.9c2.3,4.8,5.1,9.4,8.2,13.7c0.5,0.7,1.2,1.3,1.9,2.1c1.9-0.8,3.9-1.4,5.6-2.5c7.3-4.3,14.8-8.4,21.7-13.3
		c7.7-5.4,16-9.9,24.5-13.9c0.8-0.4,1.6-0.8,2.5-1c6-1.5,12.1-3,18.1-4.6c4.9-1.3,9.8-2.7,14.4-4.8c0.8-0.4,1.7-0.5,2.5-0.7
		c1.1-0.3,2.3-0.3,3.3-0.8c4.1-2,8.1-4.1,12.2-6.2c0.1,0,0.1-0.2,0.3-0.5c-0.7-2.6-1.5-5.2-2-8c-0.9-4.5-1.6-9-2.5-13.5
		c-0.2-1-0.4-2-0.8-2.9c-1.9-5.4-4-10.7-5.8-16.1c-3.9-11.5-7.2-23.3-10.4-35c-0.9-3.3-1.7-6.6-3.2-9.5c-3.4-1.8-6.8-2.7-10.4-3.1
		c-1.6-0.2-3-0.6-4.2-1.6c-1.2-1-2.6-1.6-4.1-1.9c-3.2-0.7-6.4-1.6-9.7-2.1c-10.9-1.6-21.7-1.7-32.6-0.1c-3.4,0.5-6.8,0.9-10.2,1.2
		c-3.4,0.3-6.4,1.3-9.3,3.2c-3.4,2.2-7,4.1-10.4,6.3c-3,1.9-5.8,4-8.6,6.2C373.6,288.8,372.1,291.2,370.8,294.6z M503.2,362.8
		c0.5,0,0.7,0.1,0.9,0.1c4.9-1.3,9.8-2.7,14.9-2.9c1.2,0,2.2-0.5,3-1.4c1.1-1.2,2.6-1.5,4.1-1.5c1.1,0,2.3,0,3.4-0.1
		c5.8-0.8,11.6-1.3,17.2-3.2c0.8-0.3,1.7-0.4,2.6-0.6c2.1-0.6,4.2-1.1,6.2-1.9c4.5-2,9.2-2.6,14.1-2.9c3-0.2,6.1-0.5,9.1-0.8
		c7.7-1,15.2-2.6,22.7-4.6c0.9-0.2,1.8-0.3,2.1-1.3c0-0.3,0.1-0.6,0-0.8c-2.6-7.6-3.9-15.5-5.8-23.2c-0.7-2.8-0.8-5.8-2.1-8.5
		c0.3-2.9-1.1-5.4-2-8c-2.9-7.9-4.8-16-5.9-24.3c-1-7.2-1.5-14.4-1.5-21.6c0-6.7,0.7-13.4,1.9-20c0.2-0.8,0.6-1.7-0.5-2.5
		c-0.5,0.2-1.1,0.3-1.6,0.6c-2.9,1.6-5.8,3.1-8.7,4.7c-3.4,2-6.8,3.9-10.5,5.4c-2.7,1.1-5.3,2.3-7.9,3.7
		c-11.9,6.2-23.9,12.3-36.3,17.5c-5.7,2.4-11.5,4.6-17.3,6.9c-2.2,0.9-4.5,1.8-6.8,2.5c-6.4,2-12.8,3.9-19.4,5.3
		c-0.2,0-0.4,0.3-0.7,0.4c0.1,0.3,0.1,0.7,0.3,1.1c1.9,3.6,3,7.5,4.2,11.4c3.7,11.9,6.2,24.1,11,35.6c0.8,1.9,1.3,3.8,1.9,5.8
		c2.4,7.5,4.8,15,6,22.8C502.2,358.2,502.7,360.5,503.2,362.8z M848.8,364.7c-3,1.9-6.4,2.5-9.7,3.3c-1.8,0.4-3.4,1.1-4.5,2.6
		c-2.2,2.9-5,5.4-7.7,7.9c-3.2,2.9-6.9,4.6-11.3,4.9c-7.3,0.5-14.7,1.3-22,1.9c-2.8,0.2-5.5,0.7-8.3-0.3c-0.6-0.2-1.2-0.2-1.9-0.2
		c-5.1-0.4-10.1-0.8-15.2-1.1c-7.2-0.3-14.5-0.5-21.7-0.7c-0.8,0-1.7,0.3-2.5,0.4c-0.5,2.4,0.1,4.5,0.2,6.6c0,2.2,0.1,4.3,0.1,6.5
		c0,2.3-0.1,4.6-0.2,6.8c-0.1,2.1-0.9,4.2-0.1,6.5c0.6,0,1.1,0.1,1.6,0.1c2.1-0.3,4.3-0.5,6.4-0.9c6.6-1.1,13.3-1.9,20.1-1.2
		c2,0.2,4-0.2,6-0.4c4-0.6,8-1.4,12-1.8c4.1-0.4,8-1.4,11.9-2.6c6.6-2,13-4.2,19.1-7.4c0.8-0.4,1.6-0.7,2.5-0.9
		c1.4-0.2,2.2-1.1,2.9-2.2c2-3.2,4.1-6.4,6.1-9.7c1.5-2.4,3.2-4.6,4.3-7.1c1.7-3.8,4.5-6,8.6-6.7c1.6-0.3,3.2-0.5,4.7-1.2
		C850.4,366.5,850.1,365.6,848.8,364.7z M230,362.6c-0.9-8.8-1.7-17.4-2.6-26c-0.5-4.9-1.3-9.8-2-14.7c-0.6-4.4-1.4-8.8-1.7-13.2
		c-0.2-2.8-0.6-5.5-1.5-8.2c-1.1-3.2-2.2-6.5-3.4-9.7c-1-2.5-1.9-5-3.4-7.2c-1.2-1.7-3.1-3-4.6-4.5c-0.4-0.3-0.7-0.7-1.1-1.1
		c-5.7-6.1-11.5-12.2-17.1-18.4c-6.6-7.3-12.3-15.2-16.1-24.3c-0.5-1.3-1.3-2.5-2.3-3.5c-4-4.3-7.3-9.1-10.1-14.2
		c-2.1-3.8-4-7.6-6-11.5c-0.3-0.7-0.6-1.7-1.1-1.9c-2.2-0.9-2.5-3-3.5-4.7c-0.3-0.5-0.7-0.9-1.1-1.5c-0.9,1.4-0.3,2.4,0.1,3.5
		c1.5,3.8,3,7.5,4.5,11.3c2.4,5.7,5.1,11.3,8.4,16.6c0.5,0.7,1,1.6,1.7,1.9c1.5,0.6,1.9,1.9,2.6,3.1c1.2,2.4,2.3,4.8,3.8,7
		c5,7,10.2,13.9,15.3,20.8c4.6,6.2,9.5,12.2,14.1,18.4c5.8,7.9,10.5,16.4,13.6,25.8c1.2,3.7,2,7.6,1.9,11.6c0,2.1,0.3,4.3,0.7,6.4
		c1,5.2,2.3,10.4,3.2,15.6c1.4,7.7,3.3,15.4,2.3,23.4c-0.1,0.9-0.2,2,1,2.8c2-0.7,4.4,0.2,6.4-1C231.3,364.4,230.6,363.4,230,362.6z
		 M238.1,364.9c0.9-0.2,1.5-0.2,2.1-0.4c1.5-0.6,3-1.4,4.5-2c14.8-6.2,29.7-12.4,44.5-18.7c2.8-1.2,5.5-2.6,8.3-3.8
		c2.9-1.3,5.7-2.8,8.6-3.9c6-2.3,12.2-4.4,18.2-6.6c5.8-2.1,11.7-4.2,17.4-6.6c3.2-1.3,6.1-3,9.2-4.6c0.6-0.3,1.4-0.7,1.2-1.7
		c-0.6-0.5-1.2-0.2-1.8,0c-9.4,3.1-18.7,6.4-28.1,9.4c-6.1,1.9-11.9,4.3-17.6,7c-10.9,5.1-21.8,10.3-32.6,15.5
		c-8,3.8-16.1,7.4-24.4,10.5c-3.1,1.2-6.1,2.5-9.1,3.7C238.2,363.4,238.2,364,238.1,364.9z M19.2,219.5c0.3,1.5,0.4,2.7,0.7,3.7
		c0.7,2,2,3.1,4.2,3.1c1.2,0,2.5,0.3,3.7,0.5c3.1,0.7,5.9,0.3,8.8-1.2c5.5-2.9,10.6-6.4,15.9-9.5c0.3-0.2,0.6-0.6,1.3-1.4
		c-5.8,0.6-11.2-0.2-16.2,2.3c-0.4,0.2-1,0.3-1.5,0.4c-4.7,1-9.3,2.2-14.2,2C21.3,219.3,20.5,219.4,19.2,219.5z M149.5,166.2
		c0.3-4-0.1-7.2-2-10.1c-0.5-0.8-0.8-1.9-0.8-2.8c-0.1-1.9-1.1-2.9-2.8-3.6c-0.2,2.1-0.3,2.2,0.5,3.2c1.4,1.7,1.8,3.5,1.7,5.6
		c-0.1,1.1-0.1,2.3,0.6,3.3C147.6,163,148.4,164.3,149.5,166.2z M737.4,276.4c0.1-2.8-1.1-6.4-2.3-6.6c-0.4,0.7-0.8,1.6-1.3,2.4
		C735,273.6,736.1,274.9,737.4,276.4z M740.4,280.4c0-1,0-1.6,0-2.2c0-0.1-0.3-0.4-0.5-0.4c-0.2,0-0.5,0.2-0.6,0.4
		C738.9,279,738.9,279.7,740.4,280.4z"/>
	<path d="M884.6,249.9c2.3-2.2,3.5-5,4.2-7.9c1-4.6,1.3-9.3,0.1-13.9c-0.5-1.8-0.8-3.7-1.2-5.6c-1.4-5.8-4.5-10.7-7.6-15.6
		c-2-3.2-4-6.4-6.1-9.6c-3.6-5.6-7.3-11.1-12.7-15.4c-3.9-3.1-8.6-6.3-12.7-7.8c0.2,0.4,0.2,0.8,0.4,1c4.6,3.6,8.3,8.1,11.9,12.7
		c3.1,4,6.2,8,9.3,12c0.7,0.9,1.6,1.7,1.4,3l0.1-0.1c-0.8-0.8-1.6-1.5-2.4-2.4c-5.4-6.2-10.7-12.5-16.2-18.7
		c-2.2-2.4-4.8-4.5-7.2-6.7c-2.6-2.4-5.8-3.6-9.1-4.6c-1.2-0.4-2.5-0.3-4-0.4c-0.8-1.5-1.8-3.1-2.5-4.8c-0.7-1.6-0.6-3.2-0.1-4.9
		c0.3-1,0.7-1.9,1.3-2.8c3.2-4.6,7.5-7.9,13-9.3c2.1-0.6,4.3-0.6,6.3,0.5c0.5,0.3,1.1,0.6,0.8,1.4c-0.1,0.1-0.3,0.3-0.3,0.3
		c-2.6-1.1-4.9-0.3-7.3,0.8c-3.6,1.7-6.9,3.9-9.6,6.8c-1.3,1.4-2.4,2.9-2.3,4.8c0.9,0.6,1.6,0.7,2.3,0.2c0.9-0.6,2-1.2,2.7-2.1
		c3.3-3.8,9.9-2.8,13.3,0.7c2.8,2.9,4.3,6.3,3.1,10.5c1.4,1.6,3,3,5,3.9c0.8,0.4,1.6,0.8,2.4,1.2c6.1,3.2,10.7,8,14.5,13.6
		c3.8,5.7,7.6,11.4,10.1,17.8c1.9,2.7,2.7,6,4.8,8.6c1,1.2,1,2.9,1,4.4c0.1,2.5,0.1,5.1,0.1,7.6c0,3.3,0.1,6.6,0,9.9
		c0,1.5-0.3,3-0.8,4.5c-1.1,3.5-2.4,6.9-3.6,10.4c-1.1,3.1-2.8,5.6-5.4,7.6c-2.8,2.1-5.5,4.5-8.2,6.7c-0.5,7.8,0.2,15.4,1,22.9
		c-0.8,0.3-1-0.2-1.1-0.7c-0.6-3-1.4-5.9-1.8-8.9c-0.4-2.9-0.4-5.8-0.6-8.7c0-0.6-0.1-1.2-0.2-1.9c-2.2,0.4-2.8,0.9-2.6,2.4
		c1,10.7,3.2,21.1,8.3,30.6c0.4,0.8,1.3,1.6,0.9,3c-3.7-5-6.3-10.2-8.1-15.9c-1.8-5.6-2.2-11.4-3-17.1c-1.4-0.3-1.5,0.6-1.5,1.3
		c0.1,3.6,0.1,7.1,0.3,10.6c0.2,3.1,0.1,6.1-0.1,9.1c-0.2,3,0,6,0,9.5c-0.3-0.6-0.5-0.8-0.6-1c-0.4-5.2-0.8-10.4-1.2-15.5
		c-0.2-3.3-0.3-6.6-0.4-9.9c0-0.6-0.1-1.2-0.2-2.1c-1.9,0.7-3.3,1.7-4.5,3c-0.5,0.6-0.8,1.6-0.8,2.4c0,3.3,0.1,6.6,0.2,9.9
		c0.1,2.4,0.3,4.8,0.5,7.2l0.1-0.1c-0.2-0.4-0.6-0.8-0.7-1.2c-0.8-4.9-1.6-9.8-1.6-14.7c0-0.6-0.2-1.2-0.3-1.7
		c-1.2-0.1-1.7,0.6-1.7,1.4c-0.1,2-0.1,4.1,0,6.1c0.3,3.8,0.8,7.6,1.2,11.4c0.1,0.7-0.1,1.5-0.1,2.6c-0.7-0.5-1.2-0.6-1.4-1
		c-1.2-2.5-2.3-5.1-3.4-7.6c-1.3-3.1-1.6-6.4-2-9.7c-0.1-0.7-0.2-1.5-0.3-2.3c-2.1-0.9-4.1-0.1-5.4,1.1c-3,2.5-6.3,4.8-8.7,7.9
		c-1.5,1.9-3.1,3.6-4.7,5.5c-0.8,0.9-1.6,1.9-2.4,2.9c-1.1,1.4-3.1,1.7-4.3,0.4c-1.8-1.8-3.3-3.8-5.3-6.1c-1.2-0.5-2.7-0.1-4.1,1
		c-0.5,0.4-0.9,0.9-1.4,1.2c-1,0.6-2.1,0.8-3.2,0.1c-0.8-0.5-1.7-1-2.7-1.7c-2.6,3.8-5.8,4.8-9.7,2.1c-3.3,2.1-6.6,3.4-10.3,3.9
		c-3.5-1.8-5.8-4.6-7.3-8.1c-0.7-1.5-1.1-3.1-1.7-4.7c-0.6-1.7-1.1-3.4-1.6-5.1c-0.4-1.3-0.7-2.7-1-4c-0.2-0.7-0.4-1.4-0.7-2.1
		c-0.8,0-1.4-0.1-2,0c-3,0.4-6,0.9-9,1.3c-4.8,0.7-9.6,1-14.3-0.5c-0.4-0.1-0.8,0-1.1-0.1c-0.3-0.1-0.7-0.2-1-0.4
		c0-1,0.7-1.1,1.3-1.1c2.8-0.4,5.5-0.7,8.3-1c4.8-0.5,9.6-1,14.4-1.5c3.3-0.4,5.9,1.1,7.2,4.2c0.4,1.1,0.9,2.2,1,3.3
		c0.3,3.7,1.7,7.1,3,10.6c0.2,0.6,0.5,1.2,0.6,1.8c0.4,1.7,1.3,3,2.9,4c2.5-0.2,5.1-0.5,7.3-2.2c1.5-1.1,3.3-1.1,5.1-0.6
		c1.1,0.3,2.2,0.5,3.3,0.6c0.6,0.1,1.3-0.1,1.8-0.3c2.5-0.9,3-2.8,0.9-4.6c-1.1-1-2-2-2.1-3.4c0-0.4,0.2-1,0.5-1.3
		c0.5-0.5,1.2-0.3,1.7,0.1c0.5,0.4,0.8,0.9,1.1,1.5c0.8,1.5,1.4,3,2.2,4.4c0.3,0.5,0.7,1,1.2,1.5c0.9,1,2,1.2,3.1,0.6
		c1.6-0.8,3-1.8,4.6-2.7c-0.1-1.9-0.7-3.9,1.7-5.2c0.2,1.1,0.1,2.1,0.5,2.9c0.4,0.9,1.2,1.6,1.7,2.5c0.4,0.5,0.6,1.1,0.9,1.7
		c0.4,0.7,0.7,1.4,1.1,2c0.5,0.7,1,1.5,1.5,2.2c1.8,2.1,2.3,2,3.7-0.4c3.4-5.8,7.9-10.8,13.2-15c2.7-2.1,6-2.7,9.3-2.9
		c0.8,0,1.7,0.4,2.4,0.6c0.3-0.1,0.6-0.2,0.8-0.3c2.3-2.2,5-3.9,7.8-5.3c4.1-2.1,8-4.4,11.4-7.5c1.7-1.5,3.6-2.8,5.5-4.2
		c-0.2-0.8-0.4-1.5-0.7-2.4c0.5-0.8,1.2-1.8,1.9-2.9c-0.7-0.5-1.4-0.9-2.3-1.4c0.3-0.6,0.3-1.1,0.7-1.4c2.3-2.4,3.3-5.4,4.1-8.5
		c1.9-7.7,2.4-15.5,1-23.4c-0.2-0.9-0.1-1.8-0.1-2.6l-0.1,0.1c0.9,0.1,1.3,0.9,1.5,1.5c0.6,2.2,1.3,4.4,1.7,6.6
		c0.5,3.5,0.5,7,0.2,10.6c-0.1,1.3-0.4,2.7,0.1,4.5c1.7-3,1.7-6.2,3-8.9c0.9,0.4,0.6,1.1,0.6,1.6c-0.3,4.1-1.4,7.9-2.9,11.7
		C885.2,247.5,884.5,248.6,884.6,249.9C884.7,249.9,884.7,249.9,884.6,249.9z M851.3,171.1c0.2-0.2,0.4-0.4,0.5-0.5
		c-0.9-1.2-1.7-2.4-2.6-3.6c-0.6-0.8-1.3-1.5-2.1-2.2c-1.1-1-2.4-1.9-4-1.8c-0.5,0-1,0.2-0.9,0.9c3.7,0.6,4.1,0.9,6.3,4.3
		c0.4,0.6,0.8,1.3,1.3,1.8C850.2,170.5,850.8,170.8,851.3,171.1z M846.3,169.2c0-0.1,0-0.3,0-0.4c0-0.1-0.1-0.2-0.2-0.3
		c-1.3-0.9-2.7-1.8-4.1-2.7c-0.2-0.1-0.4-0.1-0.8-0.1c-0.6,1.8,0.9,2.6,1.4,3.7c1.3,0,2.4,0,3.5,0
		C846.2,169.4,846.3,169.2,846.3,169.2z M850.6,285.6c0.2,0,0.3,0,0.5,0c0.3-1.2,0.6-2.4,0.8-3.6c0-0.2-0.3-0.6-0.4-0.5
		c-0.3,0-0.9,0.2-0.9,0.4C850.6,283.1,850.6,284.3,850.6,285.6z M838.4,165.3c-0.4-0.1-0.8-0.3-1.2-0.3c-0.1,0-0.3,0.4-0.3,0.6
		c0.1,0.6,0.6,0.6,1.1,0.5C838.2,166,838.2,165.7,838.4,165.3z"/>
	<path d="M810,212.6c-0.6-1.3-1.7-1.4-2.8-1.2c-1.7,0.2-3.1,1-4.2,2.4c-0.8,1.1-1.6,2.2-2.3,3.4c-1.7,2.9-3.8,5.3-7.2,6.3
		c-0.5,0.2-1,0.7-1.8,1.3c0.8,0.3,1.1,0.6,1.6,0.7c0.9,0.2,1.8,0.2,2.6,0.4c0.6,0.1,1.3,0.6,1.1,1.3c-0.2,0.5-0.8,1-1.3,1.2
		c-3,0.8-5.1-0.3-6.8-3.4c0.9-2.3,3-3.5,5.1-4.6c0.8-0.4,1.6-0.7,2.1-1.4c1.4-2.1,2.7-4.2,3.9-6.3c-1.6-2-3.4,0.6-5-0.4
		c0.1-1.2,1.1-1.4,1.9-1.7c1.6-0.6,2.7-1.6,3.7-3c1.8-2.6,3.7-5.1,6.4-6.9l-0.1-0.1c0.1,1.3-0.8,2.1-1.5,3c-1.3,1.8-2.8,3.6-4.1,5.5
		c-0.4,0.6-0.3,1.2,0.8,1.6c0.7-0.4,1.5-1,2.2-1.6c1-0.7,2-0.9,3.2-0.7c4,0.8,7.6,2.6,11.3,4.3c0.9,0.4,1.4,1.3,1,2.2
		c-0.6,1.5-0.5,3.2-1.6,4.6c-1.2,1.5-1.4,3.2-0.8,5c0.4,1.2,0.7,2.4,1,3.6c0.1,0.5,0.2,0.9,0.3,1.4c-1.8,0.1-1.8,0.1-4-1.2
		c-0.9-4.8,1.5-8.9,3.1-13.3c-1.9-1.4-3.6-1.7-5.6-1.7l0.2,0.1c-0.6-0.9-1.6-0.8-2.5-0.9L810,212.6z"/>
	<path d="M838,223.1c-0.2,0.3-0.5,0.5-0.8,0.9c-2.2-0.9-3-3.3-4.8-4.8c-0.5,1.8,0.1,2.9,1.2,3.9c1.5,1.2,3.1,2.2,5,2.7
		c0.5,0.1,0.9,0.3,1.3,0.4c0.3,1.5-1.2,1.2-1.5,2c2.1,2.2,2.7,2.5,6.7,3.4c0,0.9-0.8,1-1.3,0.8c-2.7-0.7-5.3-1.7-7.3-3.8
		c-1.6-1.7-3.1-3.4-4.6-5c-0.8-0.9-1.3-1.8-1.4-3c-0.1-1.4-0.5-2.7-0.7-4.1c-0.7-5-1.6-10-2.1-15c-0.3-3.2,0.1-6.3,0.9-9.6
		c1,1.3,0.9,2.6,0.8,4c-0.4,6.5,0.5,12.9,3,19c1.3,3.2,3.1,6,5.7,8.4C838.1,223.2,838,223.1,838,223.1z"/>
	<path d="M812.2,213.3c0.8,1.3,2.6,0.8,3.8,2c-0.1,0.4,0,1-0.3,1.5c-1.4,2.7-2.6,5.5-4.6,7.7c-2.8-0.3-2.8-0.3-4.8-1.6
		c-0.3,0.6-0.5,1.1-0.9,1.6c-1.1,1.7-2.1,1.9-3.8,0.8c-0.5-0.4-1-0.8-1.5-1.1c-0.4-0.2-0.9-0.3-1.6-0.6c0.9-1.1,1.7-2,2.3-3.1
		c0.5-1,0.8-2.1,1.1-3.2c0.6-1.8,1.9-2.9,3.5-3.8c1.4-0.7,2.9-0.8,4.4-0.9l-0.1-0.1c0.6,0.9,1.6,0.8,2.5,0.9L812.2,213.3z
		 M811.7,220.6c-0.2-1.7-2.3-2-2-3.9c1,0.5,2,1,3,1.5c0.2-0.5,0.3-0.8,0.5-1.3c-1.2-1-2.7-1.4-4.1-2c-1.2-0.5-2.2-0.2-3.2,0.5
		c-2,1.5-2.4,3.7-2.7,6.2c1.2-0.6,2.1-1.1,3.1-1.7c1.3,1,2.5,1.8,3.8,2.9C810.8,221.9,811.3,221.1,811.7,220.6z"/>
	<path d="M836.7,267.8c-0.9-1.4-2-2.2-3.1-3c-0.7-0.5-1.3-1.1-1.8-1.8c-0.2-0.3-0.1-0.9-0.1-1.9c0.9,0.7,1.3,1.1,1.8,1.5
		c0.9,0.7,1.7,1.5,2.7,2.1c2.8,1.6,5,3.8,6.5,6.7c0.4,0.9,1,1.7,1.7,2.5c0.5,0.6,1.3,1.1,2.1,1.9c-3,0.7-4.3-1.4-6.1-2.8
		c-2.4,0.3-4.9,0.9-7.2-0.3c-0.6,0.7-1.1,1.2-1.6,1.7c-0.1,0.1-0.2,0-0.5,0c-1-3.1,0.6-5.9,0.6-8.8c2,0.1,1.1,1.6,2,2.4
		C834.4,268.4,835.4,268.2,836.7,267.8z"/>
	<path d="M791.8,235.8c-1.5,0.9-2.9,1.5-4.1,2.4c-5.2,3.9-8,9.1-8.1,15.6c0,1.8,0,3.6-0.1,5.3c0,0.7-0.5,1.3-0.8,2.1
		c-0.5-0.5-0.9-0.8-0.9-1.1c-0.8-5-0.9-9.9,1.1-14.6c2.1-5.1,5.7-8.6,11.1-10.2C790.4,235.2,791.1,234.9,791.8,235.8z"/>
	<path d="M801.6,195.8c-0.2,0.6-0.3,1.2-0.7,1.7c-2.2,2.8-4.3,5.6-6.1,8.7c-1.4,2.4-3.1,4.5-5,7.4c-0.1-1.1-0.3-1.5-0.2-1.9
		c1.1-2.9,2.6-5.5,4.4-7.9c1.7-2.2,3-4.7,4.3-7.1c1.7-3.3,3.5-6.5,5.3-9.6c0.9-1.5,1.8-3,3.4-3.8c0.6,0.5,0.6,0.9,0.3,1.4
		c-1.9,3.1-3.9,6.2-5.8,9.4C801.2,194.5,800.9,195.2,801.6,195.8L801.6,195.8z"/>
	<path d="M838.1,223.2c0.5-0.4,1.1-0.7,1.7-0.3c1,0.6,1.9,1.2,2.9,1.8c0.5,0.3,1,0.6,1.7,0.9c-0.2-4.5-0.5-8.8,0.4-13.1
		c0.3,1.7,0.7,3.4,1,5.1c0,0.2,0,0.5,0.1,0.8c0.6,6,0.9,6.5,5.7,9.9c-0.1,0.7-0.6,0.7-1.1,0.6c-0.8-0.2-1.6-0.5-2.6-0.8
		c0.6,0.7,1,1.2,1.4,1.8c-0.3,0.4-0.6,0.7-1.1,1.2c-1.9-1.6-3.6-3.1-5.3-4.5c-1.6-1.3-2.8-2.9-4.8-3.6L838.1,223.2z"/>
	<path d="M874,241.6c-1.4,0.7-1.3,2.4-2.4,3.2c-0.5,0.3-0.9,0.4-1.3-0.2c1.3-3.1,2.6-6.2,3.9-9.3c1.8,3.4,2.2,7,2.5,10.6
		c0.2,1.5-0.1,3-0.3,4.5c-0.1,0.5-0.4,0.9-0.7,1.3c-0.1,0.2-0.4,0.2-0.9,0.5c-1.1-1.9-2.2-3.8-1.5-6.2
		C873.7,244.5,874.4,243.1,874,241.6c0-0.2,0-0.3,0.1-0.3C874.1,241.4,874,241.5,874,241.6z"/>
	<path d="M863.1,200.4c-5.6-6.4-9.9-13.9-16.8-19.7c0.9-0.3,1.3-0.6,1.5-0.5c0.7,0.3,1.3,0.8,1.9,1.3c2.4,2,4.6,4.4,6.3,7
		c2.2,3.2,4.2,6.6,6.3,9.9C862.7,199,862.9,199.7,863.1,200.4z"/>
	<path d="M845.8,258c1.8,1.6,2.6,2.9,3.5,4.1c0.8,1.1,1.6,2.2,2.3,3.4c0.5,0.7,0.9,1.5,1.1,2.4c0.4,2.1,0.8,4.2,1,6.3
		c0,0.3-0.4,0.8-1,1.7c-0.3-0.7-0.6-1-0.7-1.3c-0.7-3.4-2.1-6.5-3.9-9.4C847,263.3,846.2,261.2,845.8,258z"/>
	<path d="M864.7,239.1c-0.6-3.7-0.3-20,0.4-25.3c0.8,3.1,0.7,5.8,0.9,8.4c0.3,2.8,0.4,5.5,0.3,8.3
		C866.3,233.1,866.7,236,864.7,239.1z"/>
	<path d="M856.2,216c1.3,1.3,0.5,3.1,1.6,4.5c0.4-1.7,0.8-3.3,1.5-5.7c0.4,5.5-0.5,10.1,1.2,15c-1.8-0.9-1.6-3-3.4-3.1
		c-0.3,0-0.6-0.8-0.8-1.2C855.5,222.9,855.4,219.4,856.2,216z"/>
	<path d="M860.3,169.1c-0.5-0.6-1-1.1-1.4-1.8c-3.2-5-7.9-8-13.4-10.1c-0.9-0.3-2-0.3-2.6-1.5c0.3-0.1,0.7-0.4,0.9-0.4
		c6,1.4,11.1,4,14.6,9.2c0.9,1.4,1.8,2.8,1.7,4.5L860.3,169.1z"/>
	<path d="M827.8,231.1c-1.2,0.3-1.7,0.6-2.1,0.5c-1.9-0.2-3.1-1.5-4.4-2.8c-1.5-1.6-2.3-3.6-2.5-5.8c-0.1-0.8-0.5-1.8,0.8-2.5
		C821,224.8,823.5,228.2,827.8,231.1z"/>
	<path d="M822.1,217.9c1.3,1.4,2.2,2.5,3.3,3.5c1.2,1.1,2.5,2.2,3.8,3.1c1.2,0.9,2.5,1.6,3.6,2.3c0.2,1.1-0.4,1.3-1,1.5
		C826.2,226.2,823,222.8,822.1,217.9z"/>
	<path d="M798.5,186c0.3,0.1,0.7,0.2,1.2,0.4c-4.1,6-9.1,11.3-11.1,18.2c-1,0-1-0.6-1-1c0-1.9,0.9-3.4,1.8-4.9
		c2.2-3.7,4.7-7.2,7.6-10.4c0.7-0.7,1.6-1.3,1.6-2.5L798.5,186z"/>
	<path d="M778.9,217.8c1.2-0.8,2.1-1.2,2.7-1.9c0.7-0.7,0.9-1.8,1.5-2.7c1.7-3,4.2-5.4,6.7-8.1c0,0.6,0.2,1,0,1.2
		c-2.3,3.5-4.6,7-6.9,10.5c-0.6,0.9-1.3,1.6-2.4,1.6C780.1,218.5,779.7,218.1,778.9,217.8z"/>
	<path d="M775.1,222.3c-1.3,1.7-3.2,2.3-5,3c-2.6,1.1-4.3,1.2-6.4,0.8c3.2-1.5,9.9-4.1,11.1-4.1
		C774.7,221.9,774.8,222.1,775.1,222.3z"/>
	<path d="M871.5,230.7c0.2,3.5,0.8,6.7-1.5,9.9C869.6,239.1,870.2,235.1,871.5,230.7z"/>
	<path d="M839.6,211.1c1.2,2.7,0.6,5.6,1.5,8.4c-1,0.2-1.2-0.4-1.3-0.9C839.2,216.2,839.2,213.7,839.6,211.1z"/>
	<path d="M851.4,223.5c1.7,1.6,3.5,3.2,5.2,4.8c0.2,0.2,0.4,0.6,0.7,1.1c-0.5,0.1-0.9,0.2-1,0.1C854.1,228,852.2,226.2,851.4,223.5z
		"/>
	<path d="M843.6,182.8c-0.3-0.2-0.7-0.4-0.9-0.6c-1.2-2-2.3-4.1-3.6-6.3c0.5-0.1,0.8-0.2,0.9-0.1C841.8,177.8,843,180.2,843.6,182.8
		L843.6,182.8z"/>
	<path d="M749.7,227.1c1.6-0.9,2.6-1.1,3.8-0.4C752.6,227.9,751.5,227.8,749.7,227.1z"/>
	<path d="M860.2,169.2c1.5,1.4,1.5,3.3,1.2,5.2c-0.4-1.8-0.7-3.5-1.1-5.3C860.3,169.1,860.2,169.2,860.2,169.2z"/>
	<path d="M881.6,218.7c-1-1.1-1.4-2.6-1.9-3.9C881,215.8,881.7,217.1,881.6,218.7L881.6,218.7z"/>
	<path d="M851.1,230.4c0.8,0.6,1.5,1.2,2.4,1.8c-0.5,0.1-0.8,0.3-0.9,0.2c-0.7-0.5-1.3-1-2-1.5C850.7,230.8,850.9,230.6,851.1,230.4
		z"/>
	<path d="M744.3,245.2c-1.3-0.1-1.3-0.8-1.1-1.6c0-0.2,0.3-0.4,0.5-0.4c0.2,0,0.5,0.2,0.5,0.3C744.3,244.1,744.3,244.7,744.3,245.2z
		"/>
	<path d="M858,298.6c0.7,0.9,0.6,1.9,0.3,2.9C858.2,300.5,858.1,299.5,858,298.6L858,298.6z"/>
	<path d="M828.8,166.2c-0.2,0.1-0.3,0.3-0.5,0.4c-0.1-0.2-0.3-0.5-0.4-0.7c0.2-0.1,0.5-0.2,0.6-0.2
		C828.7,165.6,828.7,166,828.8,166.2z"/>
	<path d="M843.5,182.9c0.1,0.2,0.3,0.5,0.2,0.3C843.7,183.4,843.7,183.1,843.5,182.9L843.5,182.9z"/>
	<path d="M791,214.1c0.2-0.1,0.4-0.3,0.2-0.1C791.5,213.9,791.2,214,791,214.1L791,214.1z"/>
	<polygon points="843.9,204.4 843.9,204.1 844,204.2 	"/>
	<path d="M871.6,202.8c0.1,0.1,0.3,0.2,0.4,0.2c-0.1,0-0.2,0-0.2-0.1C871.8,202.9,871.7,202.8,871.6,202.8L871.6,202.8z"/>
	<path d="M790.9,214c0,0.1,0,0.2,0,0.3C790.9,214.2,791,214.2,790.9,214C791,214.1,790.9,214,790.9,214z"/>
	<polygon points="803.1,200.5 803,200.6 803.2,200.6 	"/>
	<polygon points="806.9,200.5 807,200.3 806.9,200.4 	"/>
	<polygon points="803.2,200.6 803.3,200.3 803.1,200.5 	"/>
	<polygon points="802.4,195.1 802.6,194.9 802.4,195 	"/>
	<path d="M802.4,195c-0.3,0.3-0.5,0.5-0.8,0.8c0,0,0.1,0.1,0.1,0.1C801.9,195.6,802.2,195.4,802.4,195
		C802.4,195.1,802.4,195,802.4,195z"/>
	<path d="M140.5,198.5c-0.3,0.1-0.7,0.4-1,0.3c-1.4-0.4-2.9-0.9-4.3-1.5c-2.4-1.1-4.7-2.3-7.1-3.5c-0.7-0.4-1.2-0.9-1.1-1.8
		c0.2-0.8,0.7-1.4,1.5-1.5c1.2-0.1,2.6-0.2,3.7,0.2c3.4,1.4,6.4,3.4,8.2,6.9C140.5,197.9,140.5,198.2,140.5,198.5z"/>
	<path d="M187.8,375.6c-0.7-0.4-1-0.4-1.1-0.6c-1.9-4.9-3-10.1-4.7-15.1c-0.3-0.8-0.2-1.7-0.4-3.3c1.9,2.1,2.5,3.9,3.1,5.8
		C186.1,366.5,187.5,370.7,187.8,375.6z"/>
	<path d="M211.1,428.3c1.9-0.4,3.3,0,4.8,0.4c2.8,0.9,5.9,1.3,8.7,3.2c-0.5,0.3-0.8,0.7-1,0.6c-4-0.5-7.9-1.6-11.6-3.3
		C211.7,429.1,211.6,428.8,211.1,428.3z"/>
	<path d="M139.7,200.9c2,3.1,4.1,5.4,4,8.8c-1.1,0.4-1.4-0.5-1.8-1c-1.3-2-2.8-3.9-2.9-6.4C138.9,202,139.2,201.7,139.7,200.9z"/>
	<path d="M223,382.8c0.8-3.3,0.7-6.6,0.3-10.4c1.6,1.1,1.7,2.3,1.8,3.5C225.3,379.5,225,380.7,223,382.8z"/>
	<path d="M149.8,233.5c-3.2-1.6-3.9-2.6-3.7-5.1C149.1,231.4,149.1,231.4,149.8,233.5z"/>
	<path d="M143.2,217.5c1.2,1.3,2.3,2.5,3.5,3.8C144.5,221.5,143.1,219.9,143.2,217.5z"/>
	<path d="M151.1,236.5c0.3,0.9,0.5,1.7,0.9,2.9C150.4,238.5,150.4,238.5,151.1,236.5z"/>
	<path d="M201.9,425.6c0.7-0.5,1.2-0.5,1.5,0c0.1,0.1-0.1,0.4-0.2,0.6C202.8,426.1,202.4,425.9,201.9,425.6z"/>
	<path d="M172.2,321.3c-0.1,0.2-0.2,0.4-0.3,0.6c-0.2-0.2-0.6-0.3-0.7-0.5c-0.1-0.2-0.1-0.5,0-0.7c0-0.2,0.2-0.3,0.3-0.5
		c0.2,0.1,0.4,0.2,0.5,0.4C172.2,320.8,172.2,321.1,172.2,321.3z"/>
	<path d="M177,347.2c0,0.7,0,1.4,0,2.1c-0.1,0-0.2,0-0.4,0c-0.1-0.7-0.2-1.3-0.3-2C176.6,347.2,176.8,347.2,177,347.2z"/>
	<path d="M172.3,327.3c0,0.6,0,1.3,0,1.9c-0.1,0-0.2,0-0.3,0c0-0.6,0-1.3,0-1.9C172.1,327.3,172.2,327.3,172.3,327.3z"/>
	<path d="M216,396.3c1.2,1.4,1,2,0.2,2.9C216.1,398.3,216,397.6,216,396.3z"/>
	<path d="M195.7,422c0.1-0.1,0.2-0.2,0.2-0.3c0.2,0.2,0.5,0.5,0.7,0.7c-0.2,0-0.5,0.2-0.6,0.1C195.9,422.4,195.8,422.2,195.7,422z"
		/>
	<path d="M154.9,245.1c-0.2-0.2-0.5-0.4-0.5-0.5c0-0.3,0.2-0.6,0.2-0.9c0.1,0.1,0.4,0.2,0.4,0.4C155.1,244.4,155,244.7,154.9,245.1z
		"/>
	<path d="M173.6,338.5c0-0.4,0-0.9,0-1.3c0.1,0,0.2,0,0.3,0c0,0.4,0,0.9,0,1.3C173.7,338.5,173.7,338.5,173.6,338.5z"/>
	<path d="M832.4,394.9c0-0.8-0.3-1.3-0.1-1.6c0.6-0.9,1.3-1.9,2.2-2.5c1.3-1,2.2-2,2.6-3.6c0.1-0.5,0.7-0.9,1.3-1.6
		c0,2.1-0.3,3.7-1.1,4.8C836,392.1,834.7,393.7,832.4,394.9z"/>
	<path d="M864.1,385.1c2.5-1,4.2-1.6,5.9-2.3c0.8,0.4,0.6,1,0.1,1.5C868.6,385.7,866.8,385.9,864.1,385.1z"/>
	<path d="M664.8,289.9c1.3,0.3,2.1,0.9,2.6,2.2C665.4,292.4,664.9,291.9,664.8,289.9z"/>
	<path d="M869,395.1c-1,1.2-2.3,1.6-4.1,1.5C866.1,395,867.6,395.1,869,395.1z"/>
	<path d="M856.3,386.2c-0.9,2.2-0.9,2.2-2.7,1.9C854.6,387.4,855.4,386.8,856.3,386.2z"/>
	<path d="M742.6,428.6c0.8,0.7,0.5,1.3,0.2,2C742,429.9,742.1,429.3,742.6,428.6z"/>
	<path d="M859.8,398.7c0,0.1-0.1,0.2-0.1,0.2c-0.1,0-0.2,0-0.3-0.1c0-0.1,0.1-0.2,0.1-0.2C859.6,398.6,859.7,398.7,859.8,398.7z"/>
	<path d="M668.5,293.9c-0.1-0.1-0.2-0.1-0.3-0.2c0.1,0,0.2-0.1,0.3-0.1c0.1,0,0.2,0.1,0.3,0.2C668.7,293.8,668.6,293.8,668.5,293.9z
		"/>
	<path d="M392.3,358.5c-1,0.8-1.9,1.5-2.8,2c-2.9,1.6-5.8,3-8.7,4.5c-0.3,0.2-0.7,0.3-1.1,0.3c-0.3,0-0.8-0.2-0.9-0.5
		c-0.1-0.3-0.1-0.8,0.1-1c0.3-0.4,0.8-0.6,1.2-0.8c3.7-1.6,7.4-3.1,11.1-4.7C391.5,358.3,391.7,358.4,392.3,358.5z"/>
	<path d="M465.6,332.6c-2.3,1.1-4,0.8-5.5,1.1c-1.6,0.3-3.2,0.5-4.9,0.8c-1.6,0.3-3.1,0.8-5.1,1.3
		C453.6,333,459.6,331.7,465.6,332.6z"/>
	<path d="M411.3,347.9c-2.9,3.1-4.2,3.8-7.2,3.8c0.3-0.5,0.3-1,0.7-1.2C406.7,349.2,408.9,348.2,411.3,347.9z"/>
	<path d="M444.1,352c-2.7-3.3-3.5-7.1-5-11.3c1.5,0.9,1.6,1.9,2,2.6c0.5,0.9,0.8,1.8,1.2,2.7c0.4,0.9,0.9,1.8,1.2,2.7
		C443.8,349.8,444.6,350.5,444.1,352z"/>
	<path d="M432.8,341.2c2,2.9,3,6.2,4.4,9.3C434.8,347.8,433.8,344.5,432.8,341.2z"/>
	<path d="M478,326.9c1.4-1.5,2.9-2.1,4.5-2.2c0.5-0.1,1.1,0.2,1,0.8c0,0.4-0.5,1-0.8,1C481.2,326.6,479.6,326.7,478,326.9z"/>
	<path d="M418.6,345c-0.2-0.1-0.4-0.3-0.5-0.4c0,0,0-0.2,0.1-0.3C418.3,344.6,418.4,344.8,418.6,345
		C418.5,345.1,418.6,345,418.6,345z"/>
	<path d="M425.8,341.7c-0.1,0-0.2,0.1-0.3,0.1c-0.1,0-0.2-0.1-0.3-0.2c0.1,0,0.2-0.1,0.3-0.1C425.6,341.6,425.7,341.7,425.8,341.7z"
		/>
	<polygon points="418.5,345.1 418.7,345.3 418.6,345 	"/>
	<path d="M503,273.5c-0.2,0.3-0.3,0.8-0.6,0.9c-5.7,3.2-11.6,5.7-18,7.1c-1.7,0.4-2.8,0-2.9-0.9c-0.1-0.8,0.7-1.5,2.1-1.8
		c5.7-1.1,11.3-3,16.8-4.9C501.3,273.6,502.2,273.7,503,273.5L503,273.5z"/>
	<path d="M580.5,339.5c-3,3.1-6.8,4.4-10.5,5.8c-4.1,1.6-8.2,2.4-13,1.8c1.1-0.4,1.9-0.9,2.8-1c5.4-1,10.4-3,15.4-5
		c1.4-0.6,2.8-1.1,4.2-1.6C579.8,339.3,580.1,339.5,580.5,339.5z"/>
	<path d="M574.6,285.6c0.7-2.4,1.4-4.8,2.2-7.2c0.3-0.9,0.9-1.8,1.4-2.6c0.1-0.2,0.7-0.3,1-0.3c0.3,0.1,0.6,0.4,0.7,0.7
		c0.1,0.3,0.1,0.8,0,1.1c-0.9,3.1-2.3,5.8-4.8,7.9C575.1,285.5,574.8,285.5,574.6,285.6L574.6,285.6z"/>
	<path d="M556.9,294.1c-0.3-3.1,0.9-5.7,2.9-7.9c0.6-0.7,1.5-1,2.4,0.1C561.1,289.3,559.1,291.8,556.9,294.1z"/>
	<path d="M516.7,269.6c-0.6,0.4-1.1,1-1.8,1.3c-2.6,0.9-5.3,1.7-7.9,2.5c-0.4,0.1-0.8-0.2-1.3-0.3c0.2-0.4,0.3-0.8,0.5-0.8
		C509.6,271.2,513.1,270,516.7,269.6L516.7,269.6z"/>
	<path d="M553.4,347.7c-0.5,1.7-1.9,2.1-3.2,2.6c-1.4,0.6-2.9,1.3-4.9,0.7c0.6-0.4,0.8-0.7,1.2-0.8c2.1-0.9,4.1-1.9,6.2-2.8
		C552.8,347.4,552.9,347.5,553.4,347.7z"/>
	<path d="M570.4,296.8c-0.7-3.1,0.1-5.1,1.6-6.9c0.1-0.1,0.5-0.2,0.7-0.1c0.2,0.1,0.4,0.3,0.5,0.5c0.1,0.4,0.1,0.8,0,1.1
		C572.4,293,571.8,294.6,570.4,296.8z"/>
	<path d="M527.2,265.5c-0.8,0.5-1.3,0.9-2,1.4C525.5,265.5,525.5,265.5,527.2,265.5z"/>
	<path d="M570,302.1c-0.1-0.2-0.4-0.6-0.3-0.9c0.1-0.8,0.8-1.4,1.2-1c0.2,0.1,0.3,0.4,0.3,0.6C571.1,301.7,570.6,302.2,570,302.1z"
		/>
	<path d="M556.7,298.3c-0.5,0.3-0.8,0.5-1.2,0.6c0,0-0.4-0.5-0.3-0.6c0.2-0.4,0.5-0.7,0.8-1C556.2,297.6,556.4,297.9,556.7,298.3z"
		/>
	<path d="M553.9,302.7c-0.1,0.5-0.1,0.9-0.2,1.1c-0.1,0.2-0.4,0.3-0.8,0.6c0.1-0.5,0.1-0.8,0.2-1.1
		C553.2,303.2,553.5,303.1,553.9,302.7z"/>
	<path d="M516.8,269.7c0.2-0.1,0.4-0.3,0.6-0.4C517.2,269.4,516.9,269.5,516.8,269.7C516.7,269.6,516.8,269.7,516.8,269.7z"/>
	<path d="M503.1,273.6c0.2-0.2,0.4-0.3,0.2-0.1C503.6,273.4,503.3,273.4,503.1,273.6L503.1,273.6z"/>
	<path d="M574.5,285.5c0,0.2,0,0.4,0,0.7c0,0.1,0,0.2,0,0.3c-0.1-0.1-0.2-0.2-0.2-0.3C574.4,286,574.5,285.8,574.5,285.5
		L574.5,285.5z"/>
	<path d="M540.7,352c0.1,0.1,0.2,0.2,0.3,0.3c-0.2,0.1-0.4,0.2-0.6,0.3c-0.1,0-0.2-0.2-0.3-0.2C540.2,352.2,540.4,352.1,540.7,352z"
		/>
	<path d="M810.4,395.1c3.4-2.1,8.8-4,10.9-3.9c-0.3,0.5-0.5,0.9-0.9,1.2C818.1,393.9,814.4,394.9,810.4,395.1z"/>
	<path d="M824.9,387.9c-1.6-0.6-2.1-1.4-1.5-2.6c0.1-0.2,0.4-0.4,0.6-0.4c0.2,0,0.5,0,0.7,0.2C825.2,385.9,825.4,386.9,824.9,387.9z
		"/>
	<path d="M807.3,395.4c-0.2,0.1-0.4,0.2-0.7,0.3c-0.1-0.2-0.1-0.4-0.2-0.7c0.2-0.1,0.5-0.2,0.7-0.2
		C807.2,394.9,807.2,395.2,807.3,395.4z"/>
	<polygon points="801.5,396.9 801.4,397.1 801.6,397 	"/>
	<polygon points="801.6,397 801.8,396.8 801.5,396.9 	"/>
<path fill="#e6e6e6" d="m206.8 163.6c0-5.1 4.1-9.2 9.3-9.2s9.2 4.2 9.2 9.2-4.1 9.2-9.3 9.2-9.2-4.1-9.2-9.2zm17.3-.1c0-4.5-3.5-8.2-8.2-8.2s-8.2 3.7-8.2 8.3c0 4.5 3.5 8.2 8.2 8.2s8.2-3.7 8.2-8.3zm-13 0c0-2.8 2.1-5.1 5.1-5.1 1.9 0 2.9.6 3.9 1.5l-1.4 1.7c-.8-.7-1.5-1.1-2.5-1.1-1.7 0-2.8 1.4-2.8 3.1s1.1 3 2.8 3c1.1 0 1.7-.5 2.5-1.1l1.4 1.4c-1.1 1.1-2.1 1.7-4 1.7-2.9 0-5-2.3-5-5.1z"/><path fill="#e6e6e6" d="m226.6 154.7h3.4l4.2 13.2 4.4-13.3h2.6l4.4 13.3 4.2-13.2h3.3l-6.2 18h-2.7l-4.4-12.8-4.4 12.8h-2.7z"/><path fill="#e6e6e6" d="m252.8 165.8c0-3.9 3.1-7 7.2-7 4.2 0 7.2 3.2 7.2 7s-3.1 7-7.3 7c-4 0-7.1-3.1-7.1-7zm11.3 0c0-2.3-1.7-4.3-4.2-4.3s-4.1 2-4.1 4.3 1.7 4.3 4.1 4.3c2.7.1 4.2-1.9 4.2-4.3z"/><path fill="#e6e6e6" d="m269.5 159.1h3.1v3c.8-2 2.4-3.4 4.8-3.3v3.2h-.2c-2.7 0-4.6 1.7-4.6 5.4v5.1h-3.1z"/><path fill="#e6e6e6" d="m279.1 153.9h3.1v11.1l5.6-6h3.8l-5.4 5.5 5.5 8h-3.5l-4.1-5.8-1.9 2v3.9h-3.1z"/><path fill="#e6e6e6" d="m291.7 165.8c0-3.9 3.1-7 7.2-7 4.2 0 7.2 3.2 7.2 7s-3.1 7-7.3 7c-4 0-7.1-3.1-7.1-7zm11.3 0c0-2.3-1.7-4.3-4.2-4.3s-4.1 2-4.1 4.3 1.7 4.3 4.1 4.3c2.6.1 4.2-1.9 4.2-4.3z"/><path fill="#e6e6e6" d="m308.2 167.6v-8.6h3.1v7.6c0 2.1 1.1 3.3 2.9 3.3s3-1.3 3-3.3v-7.6h3.1v13.4h-3.1v-2.1c-.8 1.3-2.1 2.3-4.2 2.3-3.1.2-4.8-1.8-4.8-5z"/><path fill="#e6e6e6" d="m323.9 168.8v-7.1h-1.7v-2.6h1.7v-3.7h3.1v3.7h3.6v2.6h-3.6v6.6c0 1.2.6 1.7 1.7 1.7.7 0 1.3-.2 1.9-.5v2.5c-.8.5-1.7.7-2.8.7-2.3 0-3.9-.9-3.9-3.9z"/><path fill="#e6e6e6" d="m333.2 154.7h3.2v15h9.4v2.9h-12.5v-17.9z"/><path fill="#e6e6e6" d="m356 172.5v-1.7c-.9 1.1-2.3 2-4.4 2-2.6 0-4.8-1.4-4.8-4.2 0-3 2.3-4.4 5.4-4.4 1.7 0 2.6.2 3.7.5v-.2c0-1.9-1.2-2.9-3.3-2.9-1.5 0-2.6.3-3.9.8l-.8-2.5c1.5-.7 2.9-1.1 5.1-1.1 4 0 5.9 2.1 5.9 5.7v8zm.1-5.6c-.8-.3-1.9-.5-3.1-.5-2 0-3.1.8-3.1 2.1s1.1 2 2.6 2c2 0 3.5-1.1 3.5-2.9z"/><path fill="#e6e6e6" d="m364.9 170.5v2.1h-3.1v-18.7h3.1v7.4c1-1.4 2.4-2.5 4.5-2.5 3.2 0 6.3 2.5 6.3 7s-3.1 7-6.3 7c-2.1 0-3.5-1.1-4.5-2.3zm7.7-4.7c0-2.6-1.7-4.3-3.9-4.3s-3.9 1.7-3.9 4.4c0 2.6 1.8 4.3 3.9 4.3s3.9-1.7 3.9-4.4z"/><path fill="#e6e6e6" d="m376.9 170.8 1.4-2.1c1.4 1.1 3 1.7 4.4 1.7s2.1-.5 2.1-1.5-1.3-1.4-2.8-1.8c-.1 0-.2-.1-.2-.1-2-.6-4.2-1.4-4.2-4s2.1-4.1 4.8-4.1c1.7 0 3.5.6 5 1.5l-1.2 2.2c-1.3-.8-2.6-1.3-3.8-1.3s-1.9.5-1.9 1.4 1.3 1.4 2.8 1.8c.1 0 .2.1.2.1 2 .6 4.2 1.5 4.2 4 0 2.9-2.2 4.2-5 4.2-1.9 0-4-.7-5.8-2z"/><path fill="#e6e6e6" d="m505.6 163.6c0-5.1 4.1-9.2 9.3-9.2s9.2 4.2 9.2 9.2-4.1 9.2-9.3 9.2-9.2-4.1-9.2-9.2zm17.4-.1c0-4.5-3.5-8.2-8.2-8.2s-8.2 3.7-8.2 8.3c0 4.5 3.5 8.2 8.2 8.2s8.2-3.7 8.2-8.3zm-13.1 0c0-2.8 2.1-5.1 5.1-5.1 1.9 0 2.9.6 3.9 1.5l-1.4 1.7c-.8-.7-1.5-1.1-2.5-1.1-1.7 0-2.8 1.4-2.8 3.1s1.1 3 2.8 3c1.1 0 1.7-.5 2.5-1.1l1.4 1.4c-1.1 1.1-2.1 1.7-4 1.7-2.9 0-5-2.3-5-5.1z"/><path fill="#e6e6e6" d="m525.4 154.7h3.4l4.2 13.2 4.4-13.3h2.6l4.4 13.3 4.2-13.2h3.3l-6.2 18h-2.7l-4.4-12.8-4.4 12.8h-2.7z"/><path fill="#e6e6e6" d="m551.7 165.8c0-3.9 3.1-7 7.2-7 4.2 0 7.2 3.2 7.2 7s-3.1 7-7.3 7c-4.1 0-7.1-3.1-7.1-7zm11.2 0c0-2.3-1.7-4.3-4.2-4.3s-4.1 2-4.1 4.3 1.7 4.3 4.1 4.3c2.7.1 4.2-1.9 4.2-4.3z"/><path fill="#e6e6e6" d="m568.3 159.1h3.1v3c.8-2 2.4-3.4 4.8-3.3v3.2h-.2c-2.7 0-4.6 1.7-4.6 5.4v5.1h-3.1z"/><path fill="#e6e6e6" d="m577.9 153.9h3.1v11.1l5.6-6h3.8l-5.4 5.5 5.5 8h-3.5l-4.1-5.8-1.9 2v3.9h-3.1z"/><path fill="#e6e6e6" d="m590.6 165.8c0-3.9 3.1-7 7.2-7 4.2 0 7.2 3.2 7.2 7s-3.1 7-7.3 7c-4.1 0-7.1-3.1-7.1-7zm11.2 0c0-2.3-1.7-4.3-4.2-4.3s-4.1 2-4.1 4.3 1.7 4.3 4.1 4.3c2.6.1 4.2-1.9 4.2-4.3z"/><path fill="#e6e6e6" d="m607 167.6v-8.6h3.1v7.6c0 2.1 1.1 3.3 2.9 3.3s3-1.3 3-3.3v-7.6h3.1v13.4h-3.1v-2.1c-.8 1.3-2.1 2.3-4.2 2.3-3 .2-4.8-1.8-4.8-5z"/><path fill="#e6e6e6" d="m622.7 168.8v-7.1h-1.7v-2.6h1.7v-3.7h3.1v3.7h3.6v2.6h-3.6v6.6c0 1.2.6 1.7 1.7 1.7.7 0 1.3-.2 1.9-.5v2.5c-.8.5-1.7.7-2.8.7-2.3 0-3.9-.9-3.9-3.9z"/><path fill="#e6e6e6" d="m632 154.7h3.2v15h9.4v2.9h-12.6z"/><path fill="#e6e6e6" d="m654.8 172.5v-1.7c-.9 1.1-2.3 2-4.4 2-2.6 0-4.8-1.4-4.8-4.2 0-3 2.3-4.4 5.4-4.4 1.7 0 2.6.2 3.7.5v-.2c0-1.9-1.2-2.9-3.3-2.9-1.5 0-2.6.3-3.9.8l-.8-2.5c1.5-.7 2.9-1.1 5.1-1.1 4 0 5.9 2.1 5.9 5.7v8zm.1-5.6c-.8-.3-1.9-.5-3.1-.5-2 0-3.1.8-3.1 2.1s1.1 2 2.6 2c2 0 3.5-1.1 3.5-2.9z"/><path fill="#e6e6e6" d="m663.7 170.5v2.1h-3.1v-18.7h3.1v7.4c1-1.4 2.4-2.5 4.5-2.5 3.2 0 6.3 2.5 6.3 7s-3.1 7-6.3 7c-2.1 0-3.5-1.1-4.5-2.3zm7.8-4.7c0-2.6-1.7-4.3-3.9-4.3-2.1 0-3.9 1.7-3.9 4.4 0 2.6 1.8 4.3 3.9 4.3s3.9-1.7 3.9-4.4z"/><path fill="#e6e6e6" d="m675.8 170.8 1.4-2.1c1.4 1.1 3 1.7 4.4 1.7s2.1-.5 2.1-1.5-1.3-1.4-2.8-1.8c-.1 0-.2-.1-.2-.1-2-.6-4.2-1.4-4.2-4s2.1-4.1 4.8-4.1c1.7 0 3.5.6 5 1.5l-1.2 2.2c-1.3-.8-2.6-1.3-3.8-1.3s-1.9.5-1.9 1.4 1.3 1.4 2.8 1.8c.1 0 .2.1.2.1 2 .6 4.2 1.5 4.2 4 0 2.9-2.2 4.2-5 4.2-2 0-4.1-.7-5.8-2z"/><path fill="#e6e6e6" d="m61 298.6c0-5.1 4.1-9.2 9.3-9.2s9.2 4.2 9.2 9.2-4.1 9.2-9.3 9.2c-5.1 0-9.2-4.2-9.2-9.2zm17.4-.1c0-4.5-3.5-8.2-8.2-8.2s-8.2 3.7-8.2 8.3c0 4.5 3.5 8.2 8.2 8.2s8.2-3.7 8.2-8.3zm-13.1-.1c0-2.8 2.1-5.1 5.1-5.1 1.9 0 2.9.6 3.9 1.5l-1.4 1.7c-.8-.7-1.5-1.1-2.5-1.1-1.7 0-2.8 1.4-2.8 3.1s1.1 3 2.8 3c1.1 0 1.7-.5 2.5-1.1l1.4 1.4c-1.1 1.1-2.1 1.7-4 1.7-2.8.1-5-2.2-5-5.1z"/><path fill="#e6e6e6" d="m80.9 289.7h3.4l4.2 13.2 4.4-13.3h2.6l4.4 13.3 4.2-13.2h3.3l-6.2 18h-2.7l-4.4-12.8-4.4 12.8h-2.7z"/><path fill="#e6e6e6" d="m107.1 300.8c0-3.9 3.1-7 7.2-7s7.2 3.2 7.2 7-3.1 7-7.3 7c-4 0-7.1-3.1-7.1-7zm11.3 0c0-2.3-1.7-4.3-4.2-4.3s-4.1 2-4.1 4.3 1.7 4.3 4.1 4.3c2.6.1 4.2-1.9 4.2-4.3z"/><path fill="#e6e6e6" d="m123.7 294h3.1v3c.8-2 2.4-3.4 4.8-3.3v3.2h-.2c-2.7 0-4.6 1.7-4.6 5.4v5.1h-3.1z"/><path fill="#e6e6e6" d="m133.4 288.9h3.1v11.1l5.6-6h3.8l-5.4 5.5 5.5 8h-3.5l-4.1-5.8-1.9 1.9v3.9h-3.1z"/><path fill="#e6e6e6" d="m146 300.8c0-3.9 3.1-7 7.2-7s7.2 3.2 7.2 7-3.1 7-7.3 7c-4.1 0-7.1-3.1-7.1-7zm11.2 0c0-2.3-1.7-4.3-4.2-4.3s-4.1 2-4.1 4.3 1.7 4.3 4.1 4.3c2.6.1 4.2-1.9 4.2-4.3z"/><path fill="#e6e6e6" d="m162.4 302.6v-8.6h3.1v7.6c0 2.1 1.1 3.3 2.9 3.3s3-1.3 3-3.3v-7.6h3.1v13.4h-3.1v-2.1c-.8 1.3-2.1 2.3-4.2 2.3-3 .2-4.8-1.8-4.8-5z"/><path fill="#e6e6e6" d="m178.1 303.8v-7.1h-1.7v-2.7h1.7v-3.7h3.1v3.7h3.6v2.6h-3.6v6.6c0 1.2.6 1.7 1.7 1.7.7 0 1.3-.2 1.9-.5v2.5c-.8.5-1.7.7-2.8.7-2.3.1-3.9-.9-3.9-3.8z"/><path fill="#e6e6e6" d="m187.4 289.7h3.2v15h9.4v2.9h-12.5v-17.9z"/><path fill="#e6e6e6" d="m210.2 307.5v-1.7c-.9 1.1-2.3 2-4.4 2-2.6 0-4.8-1.4-4.8-4.2 0-3 2.3-4.4 5.4-4.4 1.7 0 2.6.2 3.7.5v-.2c0-1.9-1.2-2.9-3.3-2.9-1.5 0-2.6.3-3.9.8l-.8-2.5c1.5-.7 2.9-1.1 5.1-1.1 4 0 5.9 2.1 5.9 5.7v8zm.1-5.6c-.8-.3-1.9-.5-3.1-.5-2 0-3.1.8-3.1 2.1s1.1 2 2.6 2c2 0 3.5-1.1 3.5-2.9z"/><path fill="#e6e6e6" d="m219.2 305.5v2.1h-3.1v-18.7h3.1v7.4c1-1.4 2.4-2.5 4.5-2.5 3.2 0 6.3 2.5 6.3 7s-3.1 7-6.3 7c-2.2 0-3.6-1.1-4.5-2.3zm7.7-4.7c0-2.6-1.7-4.3-3.9-4.3s-3.9 1.7-3.9 4.4c0 2.6 1.8 4.3 3.9 4.3s3.9-1.7 3.9-4.4z"/><path fill="#e6e6e6" d="m231.2 305.8 1.4-2.1c1.4 1.1 3 1.7 4.4 1.7s2.1-.5 2.1-1.5-1.3-1.4-2.8-1.8c-.1 0-.2-.1-.2-.1-2-.6-4.2-1.4-4.2-4s2.1-4.1 4.8-4.1c1.7 0 3.5.6 5 1.5l-1.2 2.2c-1.3-.8-2.6-1.3-3.8-1.3s-1.9.5-1.9 1.4 1.3 1.4 2.8 1.8c.1 0 .2.1.2.1 2 .6 4.2 1.5 4.2 4 0 2.9-2.2 4.2-5 4.2-2 0-4.1-.7-5.8-2z"/><path fill="#e6e6e6" d="m360.6 298.6c0-5.1 4.1-9.2 9.3-9.2s9.2 4.2 9.2 9.2-4.1 9.2-9.3 9.2-9.2-4.2-9.2-9.2zm17.4-.1c0-4.5-3.5-8.2-8.2-8.2s-8.2 3.7-8.2 8.3c0 4.5 3.5 8.2 8.2 8.2s8.2-3.7 8.2-8.3zm-13.1-.1c0-2.8 2.1-5.1 5.1-5.1 1.9 0 2.9.6 3.9 1.5l-1.4 1.7c-.8-.7-1.5-1.1-2.5-1.1-1.7 0-2.8 1.4-2.8 3.1s1.1 3 2.8 3c1.1 0 1.7-.5 2.5-1.1l1.4 1.4c-1.1 1.1-2.1 1.7-4 1.7-2.8.1-5-2.2-5-5.1z"/><path fill="#e6e6e6" d="m380.5 289.7h3.4l4.2 13.2 4.4-13.3h2.6l4.4 13.3 4.2-13.2h3.3l-6.2 18h-2.7l-4.4-12.8-4.4 12.8h-2.7z"/><path fill="#e6e6e6" d="m406.7 300.8c0-3.9 3.1-7 7.2-7 4.2 0 7.2 3.2 7.2 7s-3.1 7-7.3 7c-4.1 0-7.1-3.1-7.1-7zm11.3 0c0-2.3-1.7-4.3-4.2-4.3s-4.1 2-4.1 4.3 1.7 4.3 4.1 4.3c2.7.1 4.2-1.9 4.2-4.3z"/><path fill="#e6e6e6" d="m423.3 294h3.1v3c.8-2 2.4-3.4 4.8-3.3v3.2h-.2c-2.7 0-4.6 1.7-4.6 5.4v5.1h-3.1z"/><path fill="#e6e6e6" d="m433 288.9h3.1v11.1l5.6-6h3.8l-5.4 5.5 5.5 8h-3.5l-4.1-5.8-1.9 2v3.9h-3.1z"/><path fill="#e6e6e6" d="m445.6 300.8c0-3.9 3.1-7 7.2-7 4.2 0 7.2 3.2 7.2 7s-3.1 7-7.3 7c-4.1 0-7.1-3.1-7.1-7zm11.3 0c0-2.3-1.7-4.3-4.2-4.3s-4.1 2-4.1 4.3 1.7 4.3 4.1 4.3c2.6.1 4.2-1.9 4.2-4.3z"/><path fill="#e6e6e6" d="m462.1 302.6v-8.6h3.1v7.6c0 2.1 1.1 3.3 2.9 3.3s3-1.3 3-3.3v-7.6h3.1v13.4h-3.1v-2.1c-.8 1.3-2.1 2.3-4.2 2.3-3.1.2-4.8-1.8-4.8-5z"/><path fill="#e6e6e6" d="m477.8 303.8v-7.1h-1.8v-2.7h1.7v-3.7h3.1v3.7h3.6v2.6h-3.6v6.6c0 1.2.6 1.7 1.7 1.7.7 0 1.3-.2 1.9-.5v2.5c-.8.5-1.7.7-2.8.7-2.2.1-3.8-.9-3.8-3.8z"/><path fill="#e6e6e6" d="m487.1 289.7h3.2v15h9.4v2.9h-12.5v-17.9z"/><path fill="#e6e6e6" d="m509.9 307.5v-1.7c-.9 1.1-2.3 2-4.4 2-2.6 0-4.8-1.4-4.8-4.2 0-3 2.3-4.4 5.4-4.4 1.7 0 2.6.2 3.7.5v-.2c0-1.9-1.2-2.9-3.3-2.9-1.5 0-2.6.3-3.9.8l-.8-2.5c1.5-.7 2.9-1.1 5.1-1.1 4 0 5.9 2.1 5.9 5.7v8zm.1-5.6c-.8-.3-1.9-.5-3.1-.5-2 0-3.1.8-3.1 2.1s1.1 2 2.6 2c2 0 3.5-1.1 3.5-2.9z"/><path fill="#e6e6e6" d="m518.8 305.5v2.1h-3.1v-18.7h3.1v7.4c1-1.4 2.4-2.5 4.5-2.5 3.2 0 6.3 2.5 6.3 7s-3.1 7-6.3 7c-2.2 0-3.5-1.1-4.5-2.3zm7.7-4.7c0-2.6-1.7-4.3-3.9-4.3s-3.9 1.7-3.9 4.4c0 2.6 1.8 4.3 3.9 4.3s3.9-1.7 3.9-4.4z"/><path fill="#e6e6e6" d="m530.8 305.8 1.4-2.1c1.4 1.1 3 1.7 4.4 1.7s2.1-.5 2.1-1.5-1.3-1.4-2.8-1.8c-.1 0-.2-.1-.2-.1-2-.6-4.2-1.4-4.2-4s2.1-4.1 4.8-4.1c1.7 0 3.5.6 5 1.5l-1.2 2.2c-1.3-.8-2.6-1.3-3.8-1.3s-1.9.5-1.9 1.4 1.3 1.4 2.8 1.8c.1 0 .2.1.2.1 2 .6 4.2 1.5 4.2 4 0 2.9-2.2 4.2-5 4.2-1.9 0-4.1-.7-5.8-2z"/><path fill="#e6e6e6" d="m659.5 298.6c0-5.1 4.1-9.2 9.3-9.2s9.2 4.2 9.2 9.2-4.1 9.2-9.3 9.2-9.2-4.2-9.2-9.2zm17.3-.1c0-4.5-3.5-8.2-8.2-8.2s-8.2 3.7-8.2 8.3c0 4.5 3.5 8.2 8.2 8.2 4.8 0 8.2-3.7 8.2-8.3zm-13-.1c0-2.8 2.1-5.1 5.1-5.1 1.9 0 2.9.6 3.9 1.5l-1.4 1.7c-.8-.7-1.5-1.1-2.5-1.1-1.7 0-2.8 1.4-2.8 3.1s1.1 3 2.8 3c1.1 0 1.7-.5 2.5-1.1l1.4 1.4c-1.1 1.1-2.1 1.7-4 1.7-2.9.1-5-2.2-5-5.1z"/><path fill="#e6e6e6" d="m679.3 289.7h3.4l4.2 13.2 4.4-13.3h2.6l4.4 13.3 4.2-13.2h3.3l-6.2 18h-2.6l-4.4-12.8-4.4 12.8h-2.7z"/><path fill="#e6e6e6" d="m705.5 300.8c0-3.9 3.1-7 7.2-7 4.2 0 7.2 3.2 7.2 7s-3.1 7-7.3 7c-4 0-7.1-3.1-7.1-7zm11.3 0c0-2.3-1.7-4.3-4.2-4.3s-4.1 2-4.1 4.3 1.7 4.3 4.1 4.3c2.7.1 4.2-1.9 4.2-4.3z"/><path fill="#e6e6e6" d="m722.1 294h3.1v3c.8-2 2.4-3.4 4.8-3.3v3.2h-.2c-2.7 0-4.6 1.7-4.6 5.4v5.1h-3.1z"/><path fill="#e6e6e6" d="m731.8 288.9h3.1v11.1l5.6-6h3.8l-5.4 5.5 5.5 8h-3.5l-4.1-5.8-1.9 2v3.9h-3.1z"/><path fill="#e6e6e6" d="m744.4 300.8c0-3.9 3.1-7 7.2-7 4.2 0 7.2 3.2 7.2 7s-3.1 7-7.3 7c-4.1 0-7.1-3.1-7.1-7zm11.3 0c0-2.3-1.7-4.3-4.2-4.3s-4.1 2-4.1 4.3 1.7 4.3 4.1 4.3c2.6.1 4.2-1.9 4.2-4.3z"/><path fill="#e6e6e6" d="m760.9 302.6v-8.6h3.1v7.6c0 2.1 1.1 3.3 2.9 3.3s3-1.3 3-3.3v-7.6h3.1v13.4h-3.1v-2.1c-.8 1.3-2.1 2.3-4.2 2.3-3.1.2-4.8-1.8-4.8-5z"/><path fill="#e6e6e6" d="m776.6 303.8v-7.1h-1.7v-2.7h1.7v-3.7h3.1v3.7h3.6v2.6h-3.6v6.6c0 1.2.6 1.7 1.7 1.7.7 0 1.3-.2 1.9-.5v2.5c-.8.5-1.7.7-2.8.7-2.3.1-3.9-.9-3.9-3.8z"/><path fill="#e6e6e6" d="m785.9 289.7h3.2v15h9.4v2.9h-12.5v-17.9z"/><path fill="#e6e6e6" d="m808.7 307.5v-1.7c-.9 1.1-2.3 2-4.4 2-2.6 0-4.8-1.4-4.8-4.2 0-3 2.3-4.4 5.4-4.4 1.7 0 2.6.2 3.7.5v-.2c0-1.9-1.2-2.9-3.3-2.9-1.5 0-2.6.3-3.9.8l-.8-2.5c1.5-.7 2.9-1.1 5.1-1.1 4 0 5.9 2.1 5.9 5.7v8zm.1-5.6c-.8-.3-1.9-.5-3.1-.5-2 0-3.1.8-3.1 2.1s1.1 2 2.6 2c2 0 3.5-1.1 3.5-2.9z"/><path fill="#e6e6e6" d="m817.6 305.5v2.1h-3.1v-18.7h3.1v7.4c1-1.4 2.4-2.5 4.5-2.5 3.2 0 6.3 2.5 6.3 7s-3.1 7-6.3 7c-2.1 0-3.5-1.1-4.5-2.3zm7.7-4.7c0-2.6-1.7-4.3-3.9-4.3-2.1 0-3.9 1.7-3.9 4.4 0 2.6 1.8 4.3 3.9 4.3 2.2 0 3.9-1.7 3.9-4.4z"/><path fill="#e6e6e6" d="m829.6 305.8 1.4-2.1c1.4 1.1 3 1.7 4.4 1.7s2.1-.5 2.1-1.5-1.3-1.4-2.8-1.8c-.1 0-.2-.1-.2-.1-2-.6-4.2-1.4-4.2-4s2.1-4.1 4.8-4.1c1.7 0 3.5.6 5 1.5l-1.2 2.2c-1.3-.8-2.6-1.3-3.8-1.3s-1.9.5-1.9 1.4 1.3 1.4 2.8 1.8c.1 0 .2.1.2.1 2 .6 4.2 1.5 4.2 4 0 2.9-2.2 4.2-5 4.2-1.9 0-4-.7-5.8-2z"/><path fill="#e6e6e6" d="m206.3 434.2c0-5.1 4.1-9.2 9.3-9.2s9.2 4.2 9.2 9.2-4.1 9.2-9.3 9.2-9.2-4.1-9.2-9.2zm17.4-.1c0-4.5-3.5-8.2-8.2-8.2s-8.2 3.7-8.2 8.3c0 4.5 3.5 8.2 8.2 8.2s8.2-3.7 8.2-8.3zm-13.1-.1c0-2.8 2.1-5.1 5.1-5.1 1.9 0 2.9.6 3.9 1.5l-1.4 1.7c-.8-.7-1.5-1.1-2.5-1.1-1.7 0-2.8 1.4-2.8 3.1s1.1 3 2.8 3c1.1 0 1.7-.5 2.5-1.1l1.4 1.4c-1.1 1.1-2.1 1.7-4 1.7-2.9.1-5-2.2-5-5.1z"/><path fill="#e6e6e6" d="m226.1 425.3h3.4l4.2 13.2 4.4-13.3h2.6l4.4 13.3 4.2-13.2h3.3l-6.2 18h-2.7l-4.4-12.8-4.4 12.8h-2.7z"/><path fill="#e6e6e6" d="m252.4 436.4c0-3.9 3.1-7 7.2-7 4.2 0 7.2 3.2 7.2 7s-3.1 7-7.3 7c-4.1 0-7.1-3.1-7.1-7zm11.2 0c0-2.3-1.7-4.3-4.2-4.3s-4.1 2-4.1 4.3 1.7 4.3 4.1 4.3c2.7.1 4.2-1.9 4.2-4.3z"/><path fill="#e6e6e6" d="m269 429.7h3.1v3c.8-2 2.4-3.4 4.8-3.3v3.2h-.2c-2.7 0-4.6 1.7-4.6 5.4v5.1h-3.1z"/><path fill="#e6e6e6" d="m278.6 424.5h3.1v11.1l5.6-6h3.8l-5.4 5.5 5.5 8h-3.5l-4.1-5.8-1.9 2v3.9h-3.1z"/><path fill="#e6e6e6" d="m291.3 436.4c0-3.9 3.1-7 7.2-7 4.2 0 7.2 3.2 7.2 7s-3.1 7-7.3 7c-4.1 0-7.1-3.1-7.1-7zm11.2 0c0-2.3-1.7-4.3-4.2-4.3s-4.1 2-4.1 4.3 1.7 4.3 4.1 4.3c2.6.1 4.2-1.9 4.2-4.3z"/><path fill="#e6e6e6" d="m307.7 438.2v-8.6h3.1v7.6c0 2.1 1.1 3.3 2.9 3.3s3-1.3 3-3.3v-7.6h3.1v13.4h-3.1v-2.1c-.8 1.3-2.1 2.3-4.2 2.3-3 .2-4.8-1.8-4.8-5z"/><path fill="#e6e6e6" d="m323.4 439.4v-7.1h-1.7v-2.6h1.7v-3.7h3.1v3.7h3.6v2.6h-3.6v6.6c0 1.2.6 1.7 1.7 1.7.7 0 1.3-.2 1.9-.5v2.5c-.8.5-1.7.7-2.8.7-2.3 0-3.9-.9-3.9-3.9z"/><path fill="#e6e6e6" d="m332.7 425.3h3.2v15h9.4v2.9h-12.5v-17.9z"/><path fill="#e6e6e6" d="m355.5 443.1v-1.7c-.9 1.1-2.3 2-4.4 2-2.6 0-4.8-1.4-4.8-4.2 0-3 2.3-4.4 5.4-4.4 1.7 0 2.6.2 3.7.5v-.2c0-1.9-1.2-2.9-3.3-2.9-1.5 0-2.6.3-3.9.8l-.8-2.5c1.5-.7 2.9-1.1 5.1-1.1 4 0 5.9 2.1 5.9 5.7v8zm.1-5.6c-.8-.3-1.9-.5-3.1-.5-2 0-3.1.8-3.1 2.1s1.1 2 2.6 2c2 0 3.5-1.1 3.5-2.9z"/><path fill="#e6e6e6" d="m364.4 441.1v2.1h-3.1v-18.7h3.1v7.4c1-1.4 2.4-2.5 4.5-2.5 3.2 0 6.3 2.5 6.3 7s-3.1 7-6.3 7c-2.1 0-3.5-1.1-4.5-2.3zm7.7-4.7c0-2.6-1.7-4.3-3.9-4.3-2.1 0-3.9 1.7-3.9 4.4 0 2.6 1.8 4.3 3.9 4.3 2.2 0 3.9-1.7 3.9-4.4z"/><path fill="#e6e6e6" d="m376.5 441.4 1.4-2.1c1.4 1.1 3 1.7 4.4 1.7s2.1-.5 2.1-1.5-1.3-1.4-2.8-1.8c-.1 0-.2-.1-.2-.1-2-.6-4.2-1.4-4.2-4s2.1-4.1 4.8-4.1c1.7 0 3.5.6 5 1.5l-1.2 2.2c-1.3-.8-2.6-1.3-3.8-1.3s-1.9.5-1.9 1.4 1.3 1.4 2.8 1.8c.1 0 .2.1.2.1 2 .6 4.2 1.5 4.2 4 0 2.9-2.2 4.2-5 4.2-2 0-4.1-.7-5.8-2z"/><path fill="#e6e6e6" d="m505.1 434.2c0-5.1 4.1-9.2 9.3-9.2s9.2 4.2 9.2 9.2-4.1 9.2-9.3 9.2-9.2-4.1-9.2-9.2zm17.4-.1c0-4.5-3.5-8.2-8.2-8.2s-8.2 3.7-8.2 8.3c0 4.5 3.5 8.2 8.2 8.2s8.2-3.7 8.2-8.3zm-13.1-.1c0-2.8 2.1-5.1 5.1-5.1 1.9 0 2.9.6 3.9 1.5l-1.4 1.7c-.8-.7-1.5-1.1-2.5-1.1-1.7 0-2.8 1.4-2.8 3.1s1.1 3 2.8 3c1.1 0 1.7-.5 2.5-1.1l1.4 1.4c-1.1 1.1-2.1 1.7-4 1.7-2.9.1-5-2.2-5-5.1z"/><path fill="#e6e6e6" d="m525 425.3h3.4l4.2 13.2 4.4-13.3h2.6l4.4 13.3 4.2-13.2h3.3l-6.2 18h-2.7l-4.4-12.8-4.4 12.8h-2.7z"/><path fill="#e6e6e6" d="m551.2 436.4c0-3.9 3.1-7 7.2-7 4.2 0 7.2 3.2 7.2 7s-3.1 7-7.3 7c-4.1 0-7.1-3.1-7.1-7zm11.2 0c0-2.3-1.7-4.3-4.2-4.3s-4.1 2-4.1 4.3 1.7 4.3 4.1 4.3c2.7.1 4.2-1.9 4.2-4.3z"/><path fill="#e6e6e6" d="m567.8 429.7h3.1v3c.8-2 2.4-3.4 4.8-3.3v3.2h-.2c-2.7 0-4.6 1.7-4.6 5.4v5.1h-3.1z"/><path fill="#e6e6e6" d="m577.5 424.5h3.1v11.1l5.6-6h3.8l-5.4 5.5 5.5 8h-3.5l-4.1-5.8-1.9 2v3.9h-3.1z"/><path fill="#e6e6e6" d="m590.1 436.4c0-3.9 3.1-7 7.2-7 4.2 0 7.2 3.2 7.2 7s-3.1 7-7.3 7c-4.1 0-7.1-3.1-7.1-7zm11.2 0c0-2.3-1.7-4.3-4.2-4.3s-4.1 2-4.1 4.3 1.7 4.3 4.1 4.3c2.6.1 4.2-1.9 4.2-4.3z"/><path fill="#e6e6e6" d="m606.5 438.2v-8.6h3.1v7.6c0 2.1 1.1 3.3 2.9 3.3s3-1.3 3-3.3v-7.6h3.1v13.4h-3.1v-2.1c-.8 1.3-2.1 2.3-4.2 2.3-3 .2-4.8-1.8-4.8-5z"/><path fill="#e6e6e6" d="m622.2 439.4v-7.1h-1.7v-2.6h1.7v-3.7h3.1v3.7h3.6v2.6h-3.6v6.6c0 1.2.6 1.7 1.7 1.7.7 0 1.3-.2 1.9-.5v2.5c-.8.5-1.7.7-2.8.7-2.3 0-3.9-.9-3.9-3.9z"/><path fill="#e6e6e6" d="m631.5 425.3h3.2v15h9.4v2.9h-12.5v-17.9z"/><path fill="#e6e6e6" d="m654.3 443.1v-1.7c-.9 1.1-2.3 2-4.4 2-2.6 0-4.8-1.4-4.8-4.2 0-3 2.3-4.4 5.4-4.4 1.7 0 2.6.2 3.7.5v-.2c0-1.9-1.2-2.9-3.3-2.9-1.5 0-2.6.3-3.9.8l-.8-2.5c1.5-.7 2.9-1.1 5.1-1.1 4 0 5.9 2.1 5.9 5.7v8zm.1-5.6c-.8-.3-1.9-.5-3.1-.5-2 0-3.1.8-3.1 2.1s1.1 2 2.6 2c2 0 3.5-1.1 3.5-2.9z"/><path fill="#e6e6e6" d="m663.3 441.1v2.1h-3.1v-18.7h3.1v7.4c1-1.4 2.4-2.5 4.5-2.5 3.2 0 6.3 2.5 6.3 7s-3.1 7-6.3 7c-2.2 0-3.6-1.1-4.5-2.3zm7.7-4.7c0-2.6-1.7-4.3-3.9-4.3s-3.9 1.7-3.9 4.4c0 2.6 1.8 4.3 3.9 4.3s3.9-1.7 3.9-4.4z"/><path fill="#e6e6e6" d="m675.3 441.4 1.4-2.1c1.4 1.1 3 1.7 4.4 1.7s2.1-.5 2.1-1.5-1.3-1.4-2.8-1.8c-.1 0-.2-.1-.2-.1-2-.6-4.2-1.4-4.2-4s2.1-4.1 4.8-4.1c1.7 0 3.5.6 5 1.5l-1.2 2.2c-1.3-.8-2.6-1.3-3.8-1.3s-1.9.5-1.9 1.4 1.3 1.4 2.8 1.8c.1 0 .2.1.2.1 2 .6 4.2 1.5 4.2 4 0 2.9-2.2 4.2-5 4.2-2 0-4.1-.7-5.8-2z"/></g>
</svg>
