<?xml version="1.0" encoding="utf-8"?>
<!-- Generator: Adobe Illustrator 23.0.1, SVG Export Plug-In . SVG Version: 6.00 Build 0)  -->
<svg version="1.2" baseProfile="tiny" id="Layer_1" xmlns="http://www.w3.org/2000/svg" xmlns:xlink="http://www.w3.org/1999/xlink"
	 x="0px" y="0px" viewBox="0 0 900 600" xml:space="preserve">
<g>
	<path d="M555.83,69.11l-0.1-0.1C555.63,69.21,555.67,69.13,555.83,69.11z"/>
	<path d="M522.05,49.36C521.9,49.52,521.94,49.48,522.05,49.36L522.05,49.36z"/>
	<path d="M552.62,192.38l-0.1,0.1C552.66,192.55,552.66,192.55,552.62,192.38z"/>
	<path d="M288,233.48c1.33-1.46,2.6-2.82,3.81-4.08C290.29,230.83,288.99,232.21,288,233.48z"/>
	<path d="M672.29,325.88c-2.2-2.1-4.91-3.21-7.32-3.21c-4.07,0.01-49.57,0.37-53.62-0.3c-0.49-6.43-0.9-3.63-0.9-9.42
		c0-93.6-10.1-72.07,14.43-78.27c7.8-1.97,9.5-0.93,10.72-4.81c0.98-3.93-0.25-8.52,0.6-10.62c0.89-2.21-0.4-5.32-2.71-6.31
		c-2.94-1.27,2.82,2.18-30.17-20.95c-5.8-4.07-8.52-5.74-12.33-5.71c-1.3,0.01-19.93,0-21.15-0.6c-0.03-0.1-2.37-5.25-5.61-16.34
		c-0.62-2.12-5.81-20.53-5.81-21.65c0-8.57-9.98-13-16.24-28.86c-4.86-12.31-7.77-14.6-7.32-18.44c0.5-4.23,0.91-4.37,0.6-7.82
		c-2.17-24.38-11.62-19.11-1.7-21.95c0.49,0.99,2.43,14.7,6.82,18.64c0.1,0.2,0.5,0.1,1.4,0.3c-3.29-3.62-2.49-5.92-3.71-13.13
		c-0.46-2.7-0.4-5.41-0.3-8.22c0.8-0.4,1.1-1.2,2.31-1.1c0.5,0.7,1.2,1.5,1.8,2.31c-0.7,2.41-0.9,9.52-0.4,13.43
		c3.11-2.31,3.21-6.01,4.21-9.32c1.3,0.3,2.41,0.6,3.41,0.8c2.05-0.82,2.81-3.02,5.91-4.11c0.18-0.09,0.28-0.65,0.44-1.06
		c-5.89,1.57-2.36,0.92-7.56,4.17c-1.27-0.9-1.47-0.76-5.31-5.51c-3.16-3.9-4.31-1.47-8.82,0.6c-1.91,0.88-3.51,2.41-5.71,2.91
		c-1.16-2.62-0.42-2.22-2.41-3.71c-1.31,2.62-4.26-2.77-11.63-0.7c-10.83,3.03-19.13,9.26-19.84,20.45
		c-0.43,6.7-0.01,14.08,8.22,16.64c8.23,2.56,5.74,0.14,10.02,9.42c-0.07,0.05-3.75,2.98-3.91,3.21
		c-2.69,3.85-13.22,7.07-18.44,3.71c-0.6-0.5-1.5-0.6-2.41-0.9c-1.2,1-2.41,2-3.71,3.11c-1.7-0.9-2.98-2.32-3.71-4.01
		c-1.35-3.13-3.71-5.51-5.61-8.22c-9.21-11.51-8.05-8.29-17.04-29.26c4.03-4.03,6.84-7.25,16.34-12.43c3.31-1.8,8.62-6.05,8.72-6.11
		c2.21-1.42,13.69-8.12,16.32-7.93c-0.29,1.07-0.49,2.14-0.78,3.22c0.9,1.2,2.21,1.48,3.41,1.7c4.95,0.94,3.66,2.61,8.92,2.91
		c12.85,0.71,12.14,4.89,15.03,5.11c-0.09-1.66-0.11-4.57-1.6-5.31c0.75,6.76-0.56-0.01-7.72-1.2c-8.47-1.41-5.05,0.46-14.13-2.71
		c-0.6-0.21-1.5,0.1-1.8-0.8c0.6-1.7,1.6-3.21,2.71-3.91c3.31-0.7,6.1-1.46,9.02-2.1c5.23-1.15,5.07,0.38,9.82-2.1
		c3.75-3.82,10.76-7.45,7.99-15.26c-0.73,5.02,1.31,7.26-3.18,10.45c-12.88,9.16-5.85,4.16-14.23,6.21
		c-8.28,2.03-13.24,0.33-25.16,8.12C472.01,69,460.25,75.2,453.1,85.04c-10.23,14.08-24.25,27.2-34.18,35.88
		c-1.6,0.1-3.4,0.36-5.11,0.2c-6.84-0.65-17.92,3.31-22.95,8.22c-0.58,0.56-0.64,0.23-2.61,1.7c1.07-0.78,2.31-1.41,3.71-1.7
		c4.29-3.43,15.07-7.94,20.24-7.22c0.93,0.13,5.16-0.75,5.91-0.9c3.03,1.14,6.5,8.19,19.44,21.25c0.77,0.78,3.65,5.24,6.51,9.22
		c-6.11,9.78-14.84,11.08-23.15,23.15c-9.64,14-9.86,14.25-11.22,14.93c-0.1-0.06-4.08-1.31-9.92-7.72
		c-12.76-14-28.11-27.02-21.05-25.26c3.18-11.85,3.5-16.83,10.22-22.45c5.74-4.79,8-4.89,11.22-6.71c7.07-4.01,9.27-2.63,11.22-3.61
		c-7.29-2.19-16.35,5.61-19.44,5.61c-0.5,0.6-0.91,1.39-1.6,1.7c-3.84,1.75-5.97,5.64-6.92,6.11c-0.2,0.2-0.5,0.4-0.7,0.7
		c-0.2,0.89-0.5,1.78-1.37,1.99c0.13-0.85,0.61-1.51,1.37-1.99c0.1-0.4,0.3-0.7,0.8-0.8c0.37-2.1,2.04-4.08,3.75-5.55
		c-3.84,3.16-6.51,7.24-8.36,11.95c-1.02,2.6-0.91,5.41-0.7,8.12c0.34,4.38-2.21,5.82-8.72,11.43
		c-20.43,17.58-31.53,40.23-52.92,48.81c-9.9,3.97-16.06,8.22-24.79,17.29c7.82-7.33,21.37-15.89,27.59-17.78
		c6.31-1.91,12.9-9.13,16.64-11.63c44.95-51.37,59.46-58.95-0.4,0.9c-7.08,9.82-11.04,9.84-16.64,15.43c-0.8,0.8-1.51,1.57-2.81,1.9
		c-6.89,1.78-28.1,17.75-30.95,19.57c0.54-0.48-0.09-1.43,0.98-1.43c0.34-0.87,0.95-1.85,1.76-2.9c-1.82,1.99-3.76,4.18-5.87,6.6
		c-29.81,34.12-27.75,30.94-31.67,28.76c-1.1,0.6-2.31,1-3.21,1.7c-1.9,1.7-4.22,2.79-6.21,4.21c-12.81,9.15-12.81,8.57-11.63,12.13
		c-2.78,3.18-2.38,3.63,3.01,10.22c0.29,0.35,2.92,5.16,8.52,7.92c8.96,4.41,6.92,2.46,10.72,3.41
		c9.72,11.54,9.87,15.36,34.48,12.63c0.58,0,3.63-1.31,5.81-4.41c1.6-2.28,0.8-3.99,0.8-6.11c2.2-3.91,1.8-5.91-2.31-9.62
		c-1.7-0.1-3.61-0.2-5.61-0.4c-3.5-3.11-3.14-2.35-6.92-4.51c-0.3-2.31-2.61-3.41-4.01-5.51c1-2.31,0-4.51-0.6-6.82
		c-1.26-3.37-1.04-2.33-3.11-3.71c25.02-18.07,21.94-10.29,40.09-22.85c20.53-14.21,15.74-14.03,21.75-17.04
		c1.36-0.54,2.73-1.01,3.87-1.99c0.55,0.03,1.01,0.05,1.35-0.61c-0.66-0.19-1.23-0.09-1.63,0.51c-1.06,0.16-2.15,0.33-3.38,0.49
		c0.46-1.85,0.76-2.15-0.14-1.89c1.68-2.19-0.79,0.65-0.97,0.98c-2.87,5.27-7.35,7.46-10.62,10.42c-7.09,6.42-8.65,5.81-13.53,9.72
		c-5.32,4.27-11.07,6.28-23.85,11.73c-2.84,1.21-6.7,3.69-14.73,9.92c-5.44,4.22-5.42,6.08-13.83,7.12
		c-3.95,0.48-8.21-8.32-2.81-13.73c6.88,1.29,20.69-17.73,30.77-29.37c2.54-2.93,15.05-12.14,18.34-14.63
		c1.85-1.4,19.1-9.79,22.85-14.33c0.4-0.4,1-0.71,1.5-1c8.64-5.01,26.29-26.85,43.8-44.2c11.9-11.78,4.59-11.45,17.84,1.8
		c0.48,0.48,0.69,1.33,1.06,2.02c0.5,0.18,1.15,0.19,1.54,0.48c17.65,14.93,1.89,3.43,19.64,17.64
		c-12.26,10.51-37.69,26.69-44.7,29.77c-1.55,0.68-5.91,2-9.32,4.01c11.04,0,35.38-17.54,43.8-23.35
		c25.08-17.32,17.69-24.25,38.99-39.99c2.05-1.31,3.81-4.15,7.52-8.52c2.56-3.01,6.1-3.99,9.22-7.12c0.82-0.82,5.05-1.75,10.42-6.82
		c5.34-5.03,7.51-5.12,9.62-6.71c14.95-11.33,12.84-12.42,14.83-10.92c5.56,3.65,10.02,1.87,16.74,0c4.02-1.12,2.59-3.09,8.12-5.71
		c17.44,29.65,12.17,13.51,16.44,28.96c4.65,16.83,10.27,17.01,18.04,34.28c3.45,7.66,2.93,5.79,0.7,7.52
		c-2.63,2.04-2.43,4.91-1.6,9.62c0.18,1.05-0.49,1.11,17.54,28.96c2.11,3.26,1.7,1.75,1.7,38.99c-0.5,0.2-0.7,0.3-0.9,0.3
		c-10.12-1-20.14,0.2-30.27,0.2c-2.17,0-3.28,0.6-3.51,2.71c-0.73,6.78,0.16,6.62,0.6,8.62c0.5,0.2,0.9,0.5,1.2,0.4
		c3.71-0.9,7.52-0.59,11.33-0.5c39.21,0.9,46.19-1.21,48.01,0c0.31,1.45-0.1,23.65-0.1,23.75c-0.03,4.11,0.66,6.42,1.1,22.65
		c-53.21,0-55.76-3.05-62.44,1.4c-0.3,6.11,0,10.72,1.2,14.43c3.23,0.92,8.6,1.29,10.82,1.3c106.22,0.45,120.73,1.86,127.38,0.2
		C672.74,329.23,670.72,330.59,672.29,325.88z M543,71.21c1.4,1.5,1.4,2.61-0.2,6.51C542.7,75.32,542.5,73.32,543,71.21z
		 M535.59,69.31c1,2.1,1.4,6.11,1,9.02C535.28,75.42,535.28,72.52,535.59,69.31z M499.61,54.07c0.11-0.11,1.12,0.4-0.26,0.4
		C499.4,54.32,499.43,54.16,499.61,54.07z M381.34,140.27c0-0.1,0.56-0.4-1.8,5.81C379.14,143.37,380.04,141.77,381.34,140.27z
		 M232.01,282.98c0.25-0.17,0.48-0.39,0.67-0.58C232.63,282.76,232.43,282.98,232.01,282.98
		C232.18,283.89,230.54,283.97,232.01,282.98z M231.31,283.81c0.03,0.9-0.54,1.28-1.3,1.57
		C229.72,284.31,229.72,284.29,231.31,283.81z M286.73,302.63c0.68-0.45,2.67-0.73,3.51,0.7c2.67,4.57,1.6,4.82,0.9,6.92
		c-0.9-1.9-1.4-3.01-1.9-4.01c-0.7-0.2-1.5-0.6-2.31-0.6c-2.8,0-8.2-2.88-8.72-7.02C279.64,297.19,282.88,304.44,286.73,302.63z
		 M255.06,287.99c10.44-2.57,4.96-2.42,15.43-6.11c0.3,0.3,0.7,0.5,0.7,0.8c0,2.51,1.7,4.81,0.5,7.52c-1.7,0.8-3.21,2.1-4.21,3.91
		c1.27,3.82,4.54-4.89,6.11-0.7c-0.9,0.8-1.8,1.7-2.61,2.61c1.13,2.48,2.62,0.19,4.01-0.8c1,0.3,1,1.2,1.2,2.1
		c-0.6,0.7-1.3,1.4-1.9,2.1c0.7,1.9,1.8,0.5,2.81,0.6c3.65,4.87,2.94,5.22,11.02,7.02c0.8,2,1.8,4.11,2.81,6.51
		c-0.42,3.15-3.59,5.74-5.81,5.91c-6.61,0.53-10.37,1.76-15.53,0.8c-8.73-1.62-6.64-0.47-12.73-6.71c-2.88-2.95-5.4-7.35-5.71-6.71
		c-6.3,0-15.17-5.11-18.84-11.33c-0.71-1.2-1.3-2.51-2.71-3.21c-0.6-0.3-0.8-1.4-1.2-2.31c15.16-16.33,9.56-8.15,19.64-18.24
		c0.7,0.9,0.2,1.5-0.1,2.1C244.95,279.86,247.87,289.77,255.06,287.99z M284.63,238.38c0-0.07,0.05-0.18,0.14-0.22
		C284.72,238.22,284.68,238.29,284.63,238.38z M285.23,237.82c-0.16,0.1-0.27,0.16-0.3,0.16
		C285.06,237.94,285.15,237.88,285.23,237.82z M428.35,114.69c0.02,0.75,0.1,0.62-0.6,0.62
		C427.93,115.13,428.13,114.92,428.35,114.69z M427.65,115.41c0,0.75-0.1,0.2-0.1,0.1C427.55,115.51,427.59,115.47,427.65,115.41z
		 M425.07,117.23c0.08,0.01,0.03,0.04-0.09,0.07C425.01,117.27,425.04,117.24,425.07,117.23z M464.23,136.46
		c-4.19,3.71-9.68,6.59-12.43,9.42c-1.73,1.78-3.91,3.01-6.11,4.51c-8.68-9.13,11.9,11.93-24.96-29.26c0.6-1,0.6-1,1.9,0
		c2-1.4,4.01-2.71,5.11-5.11c0.1,0,0.01-0.13,0.6-0.61c0,0.1,0.93-0.44,0.12-0.83c6.44-6.79,26.92-31.81,27.44-32.33
		c1,0.2,0.99,0.9,1.1,1.4c2.16,9.52,9.31,20.19,11.73,22.65c4.23,4.3,8.03,10.39,13.53,17.34
		C476.57,130.46,470.39,131.01,464.23,136.46z M605.84,195.99c3.01,1.4,7.22,4.71,9.12,7.02c-1-0.3-2-0.3-2.61-0.7
		c-2.34-2.17-6.63-2.02-8.62-4.01C604.24,197.29,604.94,196.49,605.84,195.99z M591.81,187.57c1.45,0.02,2.37,0.45,11.12,6.11
		c-7.18-0.72-7.86-1.92-10.42-2.2c-10.68-1.17-6-2.54-16.14-1.6c-5.12,0.47-3.44,2.47-5.61-2.31
		C574.44,186.35,583.16,187.44,591.81,187.57z M576.28,193.68c5.47,0.32,6.82-0.17,8.42,1.6c-0.1,0.1-0.33-0.22,3.11,1.1
		c-1.1,0.3-1.9,0.8-2.41,0.6c-3.12-1.22-5.41-0.6-10.82-0.6c-1.3-1.2-1.1-2.91-1.8-4.41c8.1-3.24,13.75,0.3,18.84,1
		c1.91,0.26,3.71,0.9,5.61,2.1c-2.1-0.2-3.8-0.57-5.51-0.4c-5.54,0.54-6.4-2.41-10.12-2.41c-1.7,0.1-3.31,0.1-5.01,0.2
		c-0.3,0-0.6,0.3-1.1,0.5C575.77,193.28,576.07,193.68,576.28,193.68z M581.19,198.29c-1.8,0.7-3.71,0.6-5.61,0.3
		C575.16,196.93,576.5,197.71,581.19,198.29z M590.11,196.09c13.91,1.49,7.69,3.15-0.5,1.1C589.4,196.59,589.5,195.99,590.11,196.09
		z M549.42,176.25c-0.29-0.41-0.7-0.8-0.8-1.2c-2.97-9.45-13.89-17.22-17.94-35.78c1.03-0.59,3.02,2.84,4.31,2.1
		c-1.1-2-2-2.91-4.31-4.31c-1.41-0.85-13.47-20.14-13.53-20.24c-6.91-11.08-7.24-15.27-8.82-20.14c-1.49-4.58-0.33-3.81-4.51-3.81
		c0.1,1.3,1.4,1,2,1.6c0.7,2.51,1.3,5.01,2,7.82c-16.83,2.1-18.3-30.87,10.32-34.88c5.1-0.71,12.59,7.34,13.83,13.63
		c2.68,13.57,1.98,14.01,1.8,16.24c-0.31,4.03-0.81,6.53,0.9,8.62c1.5,1.84,1.83,7.89,8.22,19.74c2.66,4.94,10.06,13.32,12.23,17.34
		c3.28,6.09,5.79,32.49,19.64,57.43c0.8-0.1,1.5-0.5,2.1-0.4c6.38,1,10.85-1.92,13.83-0.7c3.9,1.59,14.98,2.23,15.94,2.71
		c2.71,1.6,5.91,1.6,9.12,2.81c-4.67,2.95-6.06-2.2-15.63-2.2c-1.4,0-2.81,0-4.71,0.9c7.58,1.26,9.15,0.15,14.23,3.61
		c-3.41,0.6-6.31,0.1-9.22-0.8c-5.6-1.05-4.43,0.34-5.31-0.1c-4.15-1.08-8.99,2.85-17.94,1.2c-1.8-0.45-7.91,0.71-11.83-5.91
		C550.66,176.68,559.43,190.15,549.42,176.25z M554.03,186.67c-0.1-0.1-0.3-0.2-0.4-0.3C554.13,185.97,553.92,186.57,554.03,186.67
		c2.27,2.17,5.24,7.64,6.41,10.22c-1.8-0.1-2.91-0.9-3.31-2.1C556.23,192.08,554.83,189.48,554.03,186.67z M554.43,193.48
		c0,0.1-0.1,0.2-0.1,0.3C553.94,193.05,554.02,193.07,554.43,193.48z M593.31,273.46c-2.65,0,4.37-0.02-17.14,0.5
		c-16.97,0.41-31.68-0.5-42.9-0.5c-0.4-2-0.2-3.71,0.3-5.41c3.84-1.28-0.03,0.33-0.3-1.7c1.14-0.76,3.65-0.67,4.31-0.6
		c4.76,0.5,10.98-0.9,28.46-0.3c-12.69,1.63-11.55,1.07-11.83,1.9c1.49,0.75,3.74,0.23,14.93-0.7c0.5-1-0.6-0.8-0.9-1.6
		c-0.2-11.43-0.7-23.35-0.8-35.18c2.51,0,0.91,2.18,1.9,5.91c0.46-6.46-0.46-4.79,5.81-2c0.04,1.1,1.03,32.29,1.2,33.37
		c6.79-0.91,4.77-0.38,8.82-0.6c-1.27-1-1.45-0.6-7.62-0.6c0.53-1.59-1.38-1.13,15.53-0.8c-0.9,1.1-2,0.4-2.91,1
		c0.6,1.4,1.9,0.3,2.71,0.6C593.83,267.67,593.45,272.49,593.31,273.46z M592.91,263.34c-15.81,0.99-15.1,0.77-15.13-2.41
		c-0.29-25.15-1.26-24.11-0.5-26.26c3.81-0.3,10.72,0.5,16.24,2C593.81,241.99,593.41,261.03,592.91,263.34z M579.58,231.97
		c-0.3-3.81,0.9-7.42,0.7-11.93c-1.24,2.48-0.59-1.11-1.8,10.22c-0.1,0.3-0.2,0.6-0.3,1c-2.51,0.7-4.69-0.14-6.71-1.4
		c-1.93-1.21-10.58-14.65-12.03-17.14c0.2-2.41,0.5-4.71,0.2-7.52c-2.54,3.82,2.43,12.67-9.92-7.92c-1.44-2.4-1.59-6.54-0.6-8.52
		c0.34-0.69,1.18-0.88,2.41-1.4c1.49,1.69,2.5,3.49,2.41,5.67c-3.66-1.45,1.21,1.03,0.7,6.86c-0.1,0.4,0.1,0.8,0.5,1.2
		c0.1-0.7,0.3-1.5,0.4-2.31c2.61,0,1.25-0.24,2.81-0.5c4.69,1.56,3.91,1.25,6.11,5.21c6.35,11.38,28.5,2.1,37.98,4.91
		c2.6,0.77,8.02,1.06,9.62-0.8c0.2-0.3,0.8-0.4,1.2-0.5c2.91-0.4,2.91-0.4,4.71-2.71c15.29,10.81,11.74,9.91,14.53,11.12
		c1.4,0.61,1.92,1.71,1.8,2.81c-0.27,2.61,0.34,5.23-0.6,7.82c-0.48,1.31-0.5,2.71-0.7,4.01
		C619.69,236.18,592.61,235.23,579.58,231.97z M669.38,338.81c-10.52,0.96-64.52-1.25-77.87-1.3c-62.27-0.26-57,1.14-57.43-5.41
		c-0.82-12.65-2.78-8.93,36.28-8.22c16.95,0.31,24.19-0.71,25.36-0.8c0-5.97-1.04-11.79-0.7-12.63c0.6-1.5,0.32-3.11,0.2-4.61
		c-1.01-12.59,1.1-26.29-0.3-47.81c-0.28-4.28-0.2-6.84-0.2-21.15c1.34-0.4,10.42-0.2,11.83-0.2c0.56,5.08,1.97,83.92,2.41,88.3
		c6.22-2.77-4.68,1.48,54.42-0.4c2.21-0.07,4.21,0.4,6.01,2.31C669.58,330.69,669.28,334.7,669.38,338.81z"/>
	<path d="M387.3,131.81c0.28-0.23,0.55-0.47,0.84-0.68C387.86,131.34,387.58,131.57,387.3,131.81z"/>
	<path d="M530.35,31.93c2.43-4.99,2.09-4.96,2.96-5.29c1.02-2.65,6.2-8.94,6.38-9.15c2.58-2.87,3.04-2.47,4.21-2.71
		c-3.41,4.71-5.21,9.12-2.81,14.53c0.56-9.44,0.36-2.83,2.81-0.9c-1.33-8.01-1.05-7.62-0.4-7.62c0.8,0.6,0.2,2,1.3,2.41
		c-0.65-3.26,1.3-1.23,0.3-6.21c-0.2-1.6,0.2-3.01,1.4-4.31c7.61-1.52,11.51,3.08,13.19,2.65c-0.11-0.22-0.26-0.37-0.42-0.47
		c0.1-0.1,0.08-0.05-0.08-0.05c-0.33-0.9-1.2-0.82-1.86-1.21c-0.95-0.55-1.87-1.04-2.82-1.5c7.71-0.29,25.47,10.51,25.47,17.74
		c0,0.71-0.02,1.02-0.02,1.06c-0.1,0.44-0.13,0.82-0.08,1.19c-1.02-2.25-2.7-5.9-4.05-6.5c2.68,8.45,4,10.35,2.95,12.46
		c-0.95,1.58,2.65,2.36,0.8,5.81c-1.22,2.71-1.98,3.6-6.82,9.92c-4.59,1.22-5.46,6.09-6.51,10.62c-0.09,0.4-0.2,1,0.7,1
		c2.71-8.12,3.02-8.87,5.61-10.12c1.01-0.49,2-1,2.61-1.8c6.56-8.7,11.3-16.64,5.61-26.36c-0.78-1.33-1.22-4.62-4.51-6.61
		c-2.2-1.33-12.87-13.46-26.46-9.52c-0.8-1.3-1.72-2.2-2.2-3.41c-2.27-5.6-8.22-2.53-8.42-4.11c4.44-3.99,10.81-0.23,11.12,4.31
		c0,0.6,0.4,1.3,0.5,1.8c5.44,2.42-1.79-12.91-10.42-8.92c-4.68,2.16-11.37,8.09-8.82,12.13c0.56,0.89-0.65,6.86,0.9,11.53
		C531.21,26.74,530.73,29.34,530.35,31.93c-0.04,0.02-0.2,0.42-0.48,0.99c0,0.62-0.18,0.23,0.17,1.17
		C530.29,32.49,530.41,31.92,530.35,31.93z M579.89,32.1c0.04-0.49,0.06-0.88,0.08-1.2c0,0.04,0.03-0.17,0.12-0.47
		C581.27,35.17,580.89,34.31,579.89,32.1z M543.1,6.07c2.11,0.94,1.79,2.09,2.41,5.81c-4.31-5.23-2.4-3.3-6.92-6.01
		C540.3,5.47,541.6,5.67,543.1,6.07z M532.58,8.67c0.09-0.7,0.8-1.4,1.2-2.1c3.37,1.44,1.8,0.68,3.71,1
		c3.23,0.33,5.51,2.22,5.51,5.71c-1.4,1-3.01,2.2-4.61,3.41c-0.9-1.2,0.3-2,0.2-3.01c-1.07-1.07-1.79,1.96-1.9,3.01
		c-0.2,1.8-1,3.11-2.71,3.81c-0.1,0.5-0.5,0.9-1.1,1.2C530.89,18.72,532.13,12.02,532.58,8.67z"/>
	<path d="M575.77,25.41l-0.1,0.1C575.9,25.65,575.83,25.57,575.77,25.41z"/>
	<path d="M533.28,26.71l0.1-0.1C533.28,26.65,533.32,26.63,533.28,26.71z"/>
	<path d="M387.86,173.04l0.1,0.1C387.92,173.03,387.91,173.06,387.86,173.04z"/>
	<path d="M332.84,236.58l-0.1-0.1C332.73,236.6,332.65,236.53,332.84,236.58z"/>
	<path d="M447.68,482.83c-0.09,0.09-0.19,0.09-0.28,0.09C447.26,483.05,447.21,483.3,447.68,482.83z"/>
	<path d="M655.96,415.47c1.1-0.12,2.22-0.38,3.01-1c2.96-2.34,6-4.62,8.32-7.72c5-6.65,3.29-6.89,4.01-9.22
		c0.75-2.41,0.36-3.89-0.7-9.82c-0.66-3.68-1.52-3.13-4.81-8.12c-5.6-8.48-11.4-11.19-20.65-12.73c-2.29-8.6-2.5-7.27-8.52-9.42
		c3.31-1.7,6.12-1.31,8.22,1.3c2.77,3.45,1.35,4.91,1.7,7.02c0.54,1.08,0.66,0.57,2,0.3c0.36-9.27-7.41-15.25-17.84-8.22
		c-2.86,1.93-4.2,4.92-3.91,5.21c1.04,1.51-2,6.49-1.8,12.53c-3.14,3.36-6.1,11.43-6.11,12.13c-0.09,5.76-5.38,6.44-14.03,9.42
		c-6.03-1.92-10.08-0.08-15.94-2.91c-7.13-3.45-19.1-2.03-32.47-1.1c-3.46,0.24-9.37,3.06-11.53,5.11
		c-2.67,9.72,4.2,6.87-3.11,10.52c-10.99,5.49-24.69,19.41-51.01,31.37c-10.52-2.02-7.5-2.1-10.42-2.1c-6,0-13.14,0.25-18.44,3.01
		c-2.28,1.19-4.44,0.41-8.32,3.91c-3.96,3.57-6.77,3.89-9.42,11.63c-1.2,3.49-0.32,6.18-4.21,8.22
		c-8.83,4.63-13.42,6.01-25.16,14.13c-52.64,36.45-42.85,16.09-69.35,30.87c-13.31,7.42-41.43,28.77-53.12,32.77
		c-3.72-3.72-5.15-0.96-8.72,0c-5.59,1.5-10.69,4.22-16.04,6.01c-1.59,0.53-2.31,1.5-2.1,3.21c0,2.5-4.46,0.53-1.3,7.62
		c1.12,2.52,2.29,5.83,2.81,6.92c2.96,6.16,9.78,11.22,13.13,11.93c1.21,0.48,1.04-0.46,7.02,12.03c2.97,6.21,17.11,9.17,23.95,9.72
		c4.21,0.34,10.15-3.02,9.42-8.12c3.51-3.51,3.61-5.71,0.4-10.12c-1.7-0.6-3.51-1.3-5.01-1.8c-6.73-7.43-4.58-4.53-8.22-12.53
		c1.58-2.11,1.12-7.92,1-8.62c-0.26-1.04-1.16-1.61-1.9-2.2c19.09-9.13,26.7-4.87,46.1-12.63c3.65-1.46,12.98-4.11,19.14-8.52
		c4.07-2.91,9.88-1.8,11.05-3.31c-7.55-0.29-6.53,0.65-4.21-1.91c-1.07-0.18-1.96,0.02-2.84,0.91c-6.1,6.24-34.24,15.23-34.68,15.23
		c-21.21,3.42-21.74,3.36-24.55,4.41c-21.58,8.02-18.05,8.79-25.66,8.22c-3-0.23-4.31-1.9-4.91-5.11c-0.22-1.76,0.48-4.48,0.9-6.31
		c1.1-1,2.1-1.9,2.61-2.31c2.41-0.4,4.11-0.4,5.61-0.9c12.77-4.29,16.89-10.05,21.95-13.03c5.54-3.26,10.94-7.8,13.03-8.72
		c21.81-9.6,20.1-8.22,25.26-9.62c5.41-1.08,14.21-3.36,19.14-6.21c1.94-0.97,5.67-1.08,10.02-4.41c0.42-0.32,4.05-1.9,6.61-3.51
		c40.79-25.49,3.37-1.66,44.7-27.96c0.61-0.39,1.3-0.6,1.4-1.5c-6.55,1.64-32.58,19.88-36.95,21.31c0.28-0.3,0.48-0.77,0.77-0.96
		c28.97-19.57,24.36-16.32,38.29-23.31c0.31,1.11-2.11,1.73-2.11,2.97c1.1-0.5,2.1-0.9,3.21-1.4c0.67,0.34-0.13-0.76,6.51,12.53
		c0.39,0.67,0.31,1.53,0.48,2.32c0.11,0.33,0.06-0.28,1.52,0.69c9.66,13.95,6.93,13.11,14.33,21.75c-0.98,0.45-8.27,4.8-23.95,9.52
		c-24.98,7.53-20.83,7.59-36.68,9.12c3.21,1.1,3.81,1.31,5.71,1c36.14-5.86,59.24-20.06,59.43-20.14
		c8.85-4.01,10.37-12.07,28.96-19.84c8.32-3.48,9.92-7.56,16.84-9.72c2.42-0.75,4.81-2.01,7.32-2.61c4.31-1.02,8.32-2.6,12.23-4.71
		c4.45-2.41,0.95,0.57,17.24-6.41c1.46,2.19,15.63,23.75,15.63,26.36c0,31.05,0.88,34.98-0.3,34.98c-2.46,0.35-11.12-0.85-30.97,0.5
		c-2.29,0.16-3.82,0.48-3.31,7.62c0,6.01,3.02,3.51,5.11,3.51c32.93,0,4.11,0.53,53.42-0.4c5.81-0.11,2.49-2.54,3.61,42.39
		c0.05,1.9,0.4,3.71,0.9,5.71c0.4-0.4,0.9-0.6,0.9-0.8c0-4.04-0.82-8.18-0.6-12.43c0.01-0.1-0.26-71.06-0.7-73.06
		c-0.4,0.4-0.8,0.6-0.8,0.9c-0.55,2.19,0.03,20.03-0.6,25.06c-0.5,0.2-0.7,0.3-0.9,0.3c-14.33,0.36-12.16,0.59-14.23,0
		c-1.12-34.6-1.22-25.52-0.7-29.16c11.51,0.89,10.81,2.2,20.24,2.31c7.75,0.09,7.08-0.07,9.22,0.2c0.04,0.1,1.93,69.54,2.2,86.39
		c0.04,2.51,1.35,0.97,2.61,0.8c1.18-0.16,16.25,0.42,23.15,0.5c31.88,0.4,31.7-1.07,34.88,2.31c0,10.23,0.35,10.47-0.4,12.23
		c-0.1,0-131.12-1.63-134.2-2.51c-1-3.21-0.7-6.31-0.9-9.42c-0.2-1.6,0.3-2.81,1.8-4.01c10.65,0,57.51,3.03,57.93-0.3
		c-0.2-0.1-0.3-0.4-0.5-0.4c-1.3-0.1-2.6-0.19-3.91-0.1c-13.13,0.86-22.36-0.55-50.21-0.8c-4.57-0.04-3.96,0.17-7.32,2.41
		c0,4.81-0.2,9.62,1.2,14.43c6.57,2.09,117.83,2.77,138.11,1.7c0.94-3.12,0.5-0.9,0.5-8.22c0-10.73,5.98-8.81-57.74-8.81
		c-0.9,0-1.8-0.1-2.71-0.2c-1.28-8.96-1.14-12.11-0.9-23.65c0.42-20.48-3.62-51.54-1.5-62.14c1.21-0.11,11.48-0.31,24.96-4.21
		c3.16-4.47,1.02-9.78,2.1-13.83c0.64-2.4-0.59-4.63-2.71-5.71c-3.87-1.98-21.37-16.57-33.47-22.95c-4.5-2.37-1.2-3.11,1.6-6.21
		c14.85-16.44,9.6-12.98,13.73-15.73c0,0.9-0.1,1.5,0,2.1c0.72,9.78,0.88,9.99,2.81,11.22c-1.58-8.66,1.31-15.98,1.8-20.95
		c3.3-1.46,2.14-1.64,3.91,1.9c-0.5,1-1.02,1.7-1.2,2.51c-0.86,3.69-2.2,7.22-2.91,11.43c4.52-4.26,3.32-2.31,6.82-8.92
		c2.64,1.44,3.09,2,3.91,1.6c1.89-0.92,3.51-2.26,5.81-2.31c0.84-0.02,1.24-0.87,1.29-1.71c-1.72,1.5-3.16,0.32-4.6,1.01
		c-1.38,0.66-3.89,3.24-5.31,0.4c-4.18-6.96-2.38-8.86-8.12-7.62c-3.89,1.94,0.82-3.47-5.71-10.62c-7.65-8.39-10.23-8.69-4.03-9.72
		c1.57-2.06,12.68-3.24,11.75-12.63c0-0.4,0-0.7,0-1.1c3.11-4.41,6.81-8.23,11.43-11.02c2.93-1.77-0.05-1.22,5.51-3.61
		c2.55,1.82-6.3,2.95-5.01,13.93c0.6-2,1-3.41,1.5-5.21c0.9,1.5,0.2,3.11,1.5,4.31c0.7-2.61-0.1-5.41,1.7-7.92
		c0.6,15.65,0.58,0.54,1.5-3.51c1.43-6.27,9.75-1.66,12.16,1.8c4.7,0.96-5.98-5.22,0.18-2.92c6.99,3.13,9.18,7.42,12.43,10.72
		c7.5,7.63,5.72,11.39,5.01,14.93c-0.18-1.17-1.18-8.22-2.51-8.22c0.14,0.14,2.16,10.75-0.3,14.03c0.65,4.87,1.93,3.87-9.52,13.03
		c-2,0.2-4.22,1-5.71,3.01c-1.66,2.24-3.68,4.49-3.7,7.57C652.85,416.91,652.9,415.8,655.96,415.47z M279.42,545.36
		c0,0.1,0.03,0.1-0.04,0.2C279.4,545.51,279.42,545.45,279.42,545.36z M278.72,545.77c0.8,0,0.8-0.1,0,0.3c-0.1,0-0.2,0-0.3,0
		C278.51,545.97,278.61,545.77,278.72,545.77z M276.41,546.57c-0.1,0.1-0.2,0.3-0.3,0.3c-0.2,0.1-0.4,0.1-0.5,0.2
		c-0.26,0.61-0.75,0.61-1.21,0.6C276.43,546.73,275.99,546.57,276.41,546.57z M274.13,547.79c-0.18,0.29-0.39,0.61-0.82,0.18
		C273.57,547.97,273.85,547.88,274.13,547.79z M270.4,549.77c-0.9,0.6-1.8,1.1-2.71,1.7C267.89,549.67,269.19,549.98,270.4,549.77z
		 M310.69,576.23c1.42,0.47,1.23,1.17,3.51,4.81c2.71,3.73,6.04-1,7.12,4.61c0.84,3.37,0.36,3.36-1.3,4.71
		c-0.92-3.98-0.29-4.12-2.51-4.81C314.07,584.48,310.04,580.51,310.69,576.23z M285.03,553.18c-0.48,3.15,2.45,7.51,6.61,7.12
		c3.41-0.32,6.93,0.03,10.22-1.3c1.71-0.69,3.81-0.4,5.81-0.6c0.1,0.6,0.4,1.2,0.3,1.7c-0.42,2.2,0.4,4.61-1.5,6.71
		c-1.6,0.2-3.23,0.98-4.51,2.2c-0.2,0.2-0.4,1-0.2,1.2c0.2,0.3,0.9,0.4,1.2,0.3c4.3-1.79,3.02-2.88,4.81-0.2
		c-1.09,0.49-3.71,1.6-3.31,2.41c1.41,2.82,5-3.23,4.51,2.1c-0.7,0.4-1.5,1-2.31,1.5c0.3,2.1,1.6,1,2.61,1.2
		c0.5,1.3,0.78,2.82,1.6,4.11c2.48,3.87,5.05,4.3,7.12,5.41c0.87,1.49,0.15,1.42,1.1,7.12c-1.38,2.99-4.94,4.62-7.22,4.21
		c-10.76-1.95-12.97-1.52-20.95-6.21c-2.01-1.19-1.98-1.5-6.61-10.32c-1.37-2.6,0.28-4.23-4.21-5.41c-1.91-0.38-2.16-1.21-4.91-3.31
		c-8.73-6.68-7.93-13.34-9.72-14.93c-0.9-0.8-0.8-1.9-0.6-3.21c17.14-10.41-2.33,0.46,22.45-11.93c0.3-0.1,0.6-0.1,1.6-0.3
		C285.72,547.36,285.61,549.35,285.03,553.18z M304.57,538.25c-0.2-0.2-0.39,0.05,0.18-0.33
		C304.73,538.02,304.69,538.13,304.57,538.25z M396.88,492.95c-0.34,0.67-14.51,10.39-22.35,12.63c-2.51,0.9-4.31,2.99-7.32,3.21
		c-3.96,0.28-23.84,6.02-33.47,10.62c-6.82,3.26,17.89-15.07,39.29-16.34c8.84-0.52,19.53-8.6,23.85-10.22
		c0.88-1.27,2.04-1.95,3.5-2.08C399.67,492.16,398.47,492.85,396.88,492.95z M624.78,424.2c0.2,0.4,0.6,0.7,0.5,0.9
		c-0.4,1.5-0.4,3.21-2.1,4.11c-0.06,0.17-0.08,0.33-0.07,0.39c-0.08,0.09-0.01-0.14,0.07-0.39
		C624.47,423.64,623.77,425.55,624.78,424.2z M598.32,397.04c6.14,0.1,5.73,0.06,7.12,4.21c-1.3-0.41-5.44-1.98-7.82-2
		c-29.32-0.31-23.98,2.34-35.78,4.31c0-0.67,1.57-0.82,6.71-3.51c2.81-1.05,11.03-2.71,12.83-3.11
		C585.48,396.04,584.2,396.82,598.32,397.04z M546.91,398.64c3.21-2.1,6.72-3.39,10.72-3.61c12.47-0.67,19.96-2.38,27.56-0.4
		c-4.26,0.82-7.81,1.03-37.18,10.82C546.51,403.55,545.71,401.45,546.91,398.64z M560.64,403.65c-1.07,0.61-3.92,2.18-5.11,2.51
		c-2.88,0.79-7.04,4.81-6.61,8.02c3.34,24.92,7.23,20.74-1.3,24.75c1.07,0.86,1.4,0.38,4.81-0.9c1.55,1.55,1.55,5.81,9.62,18.54
		c0.51,0.8,1.5,1.5,1.3,2.71c0,0.1,0.2,0.2,0.4,0.2c-0.4,0.5-0.3,0-0.4-0.2c-6.25-1.79-1.68-4.57-9.12-0.6
		c-1.4-1.5-2.33-3.2-2.61-5.01c-1.44-9.33-9.12-12.68-12.03-41.79C545.21,407.96,551.22,405.55,560.64,403.65z M501.9,437.84
		c-0.29,0.01-0.59,0.04-0.88,0.06C501.26,437.54,501.57,437.65,501.9,437.84z M500.23,438.11c-0.37,0.18-0.75,0.37-1.12,0.52
		C499.31,438.14,499.73,438.09,500.23,438.11z M498.87,438.74c-0.06,0.03-0.09,0.06-0.12,0.08
		C498.74,438.8,498.79,438.77,498.87,438.74z M453.3,447.35c-0.03,0.28-0.2,0.43-0.47,0.47
		C452.99,447.66,453.17,447.49,453.3,447.35z M452.46,448.04c-0.29,0.39-0.36,0.48-0.46,0.58
		C452.01,448.21,452.17,448.02,452.46,448.04z M451.97,448.65c-0.1,0.1-0.23,0.23-0.6,0.62
		C451.3,448.83,451.55,448.66,451.97,448.65z M451.21,449.44c-0.16,0.16-0.35,0.35-0.52,0.52
		C450.67,449.59,450.84,449.42,451.21,449.44z M450.53,450.12c-0.22,0.22-0.4,0.39-0.62,0.54
		C449.93,450.28,450.11,450.05,450.53,450.12z M449.79,450.76c0,0.47-0.1,0.74-0.6,0.7C449.19,450.99,449.29,450.71,449.79,450.76z
		 M449.09,451.54c0.15,1.25-0.72,2.04-1.5,2.93C447.88,452.52,447.99,452.45,449.09,451.54z M502.31,481.22
		c-21,10.83-8.04,0.33-36.38,23.95c-3.7-2.78-6.54-6.81-8.02-10.12c-3.65-8.2-5.36-8.12-15.94-29.26c0.2-1.7,1.3-0.9,2.2-1
		c2.51-5.31,7.35-14.41,12.43-17.34c8.17-4.71,12.29-4.33,14.03-4.81c4.34-1.2,8.62-1.8,13.33-0.6c-2.95-3.54-10.64-1.45-15.53-0.6
		c-11.46,1.97-13.25,5.68-14.85,5.63c5.53-5.74,18.08-7.26,23.87-7.64c7.87-0.52,8.06,1.77,9.72,1.1c1.5-0.4,2.81,0.3,4.11,0.4
		c1.2,1,1.61,2.4,2.2,3.71c13.5,29.35,7.95,13.17,14.93,32.37C506.52,478.62,504.62,480.03,502.31,481.22z M532.18,467.29
		c-6.83,3.81-10.3,3.41-14.83,6.01c-2.1,1.21-4.61,1.8-7.12,2.71c-0.02-0.04-3.58-8.3-13.03-27.36c-4.25-8.57-4.1-7.23-2.61-8.42
		c0.2,0.5,0.4,0.9,0.6,1.4c2.67-0.59,4.94-1.77,6.83-3.72c0.46,0.31,1.51-0.11,1.79-1.19c0.2-0.77,1.06-0.94,1.1-0.8
		c0.38,0.71,0.84,0.36,1.3-0.1c-0.4,0-0.79,0-1.19,0c1.8-1.58,17.44-11.4,29.56-20.65c1.08-0.83,2.1-1.9,3.71-2.31
		c1.86,14.92-3.56,4.4,14.33,46.9C545.26,464.68,537.47,464.35,532.18,467.29z M577.58,525.02c0-0.74,13.06-0.58,15.33-0.2
		c-1.12,1.67-7.07,1.07-0.1,1.7c0.7,2.41,0.7,3.61,0.1,6.71c-6.8-0.76-20.6,1.25-44.3,0c-3.93-0.21-6.83-0.1-15.23-0.1
		c-0.3-2-0.3-3.61,0-5.51c1.8,0,3.51,0,5.31,0c0-0.62,0.77-0.26-5.11-0.6c-0.2,0-0.4-0.5-0.5-0.8c0-1.3,5.57-0.45,11.73-1
		c6.22-0.56,12.53-0.4,18.84,0.1c-3.51,0.4-7.12,0.8-11.43,1.3c4.21,1.13,6.63,0.37,16.84-0.5c0.5-1-0.7-0.7-0.9-1.2
		c-0.3-11.83-0.9-23.65-0.9-35.58c2.18-0.36,1.23,1.76,2,5.61c0.45-5.43-0.51-4.52,5.61-1.8c0.68,3.41,0.49,24.68,1.3,33.67
		c3.42-0.62,3.31-0.34,9.12-0.7C582.39,524.82,579.78,526.52,577.58,525.02z M632.3,475.31c1.6,0.4,1.98,1.61,2.1,2.91
		c0.25,2.61-0.6,8.72-1.5,11.93c-1.95,0-3.08,3.76-29.06,4.21c-6.4,0.11-19.32-0.73-24.25-2.71c0-3.81,0.9-7.42,0.9-11.53
		c-1.47,1.47-0.67,1.25-2.2,11.22c-6.71-0.71-5.53,1.64-18.64-18.84c0.1-2.61,0.6-5.01,0-7.72c-1,1.8-0.2,3.61-1.1,5.11
		c-1.8-1.6-4.21-5.21-5.71-8.52c0.5-1.1,1.8-0.3,2.41-0.9c0.7-0.7,1.3-1.3,2.41-1.2c0.1-0.2,0.2-0.6,0.8-1
		c2.1,1.7,3.81,4.01,6.82,4.11c2.58,5.81,3.72,9.92,9.82,9.92c2.67,0,7.31,1.52,13.13,0.2c4.21-0.95,5.27-0.52,10.72-2
		c10.97,1.29,10.13,1.49,13.73,0.9c7.06-1.15,6.7-1.53,7.32-3.61c-3.39-3.73-1.68-0.62-12.63-5.81c-4.63-2.2-3.98,0.62-10.02-0.7
		c-6.07-1.33-9.2,1.99-16.34,0.8c0.3-0.5,0.4-0.9,0.7-1c6.58-2.26,6.59-5.93,14.33-12.13C616.47,460.63,631.22,475.04,632.3,475.31z
		 M586.5,455.57c-0.91,1.4-2.1,2.2-3.81,2.2c-0.8,0-1.6,0.4-2.71,0.7c-0.8-1.97-5.83-12.78-5.71-17.94
		c0.38-16.86,0.94-5.92,8.22-1.6c6.99,4.15,12.66,3.01,20.14,0.2C597.98,444.25,589.96,450.23,586.5,455.57z M618.57,420.19
		c-1.8,10.79-1.17,7.63-2.1,10.12C616.16,425.7,616.77,422.69,618.57,420.19z M611.05,407.16c2.45,2.09,0.32,1.18,2.91,5.11
		c1.55,2.34,2.02,4.71,0.9,7.42c-0.5,1.2-0.52,2.6-0.9,3.81c-1.12,3.51-5.04,11.12-9.02,12.83c-8.08,2.69-10.59,4.16-16.24,3.01
		c-7.52-1.53-13.15-9.11-11.53-12.63c5.33,2.49,8.58,3.08,17.34,2.41c0.7,0,1.3-0.5,1.9-0.7c-0.27-2.72-10.7,1.11-20.14-3.61
		c-0.69-3.69-0.24-3.89-1.9-7.22c-0.2-0.3-0.6-0.2-1.6,0.5c3.81,9.22-2.23,19.48,2.1,31.47c3.29,9.11,3.08,12.41,5.31,13.83
		c9.59,0.74,12.12-1.69,15.84-0.6c8.84,2.59,7.68-0.72,22.25,5.11c-2.18,3.42-5.57-3.8-21.05-2.61c0.8,0.6,1.1,1,1.5,1.1
		c8.83,1.32,8.62-0.41,13.53,3.01c-0.65,1.3-0.77,0-8.22,0c-6.59,0-4.34-1.5-15.84,0.9c-4.81,1-9.53,0.79-14.23,0.3
		c-5.16-0.54-5.7-7.56-7.22-10.22c-11.78-20.62-9.19-13.44-14.43-34.78c-0.14-0.57-0.57-3.58-0.4-3.41c-1.1-1.2,0.13-2.93-0.8-4.21
		c-0.97-1.33,0-3.01-0.5-4.51c2.41-3.48,5.49-7.07,10.62-7.42c3.51,0,9.55-2.97,16.24-3.91c6.49-0.91,9.61-0.5,12.33-1.2
		C591.33,400.55,602.77,400.07,611.05,407.16z M639.42,367.87c-1.5,1.1-3.41,1.3-5.01,2.2c-1.1-1.4,0.8-1.9,0.6-2.91
		c-1.46-1.83-2.32,4.32-5.81,5.41c-0.5-1.5,0.6-2.71,0.6-4.01c1-0.1,1.3-0.5,1.3-1.3c-0.6,0.1-1.1,0.1-1.7,0.1
		c-1.5,1.8-1,4.11-1.4,6.01c-0.9,0.1-1.1-0.5-1-0.9c0.66-3.75,1.86-10.08,4.81-13.03C636.99,362.05,639.93,362.04,639.42,367.87z
		 M641.72,366.47c-1.35-1.8,0.06-2.05-4.21-6.31c0.8,0.1,1.61,0.09,2.41,0.3C642.13,361.03,643.43,363.8,641.72,366.47z
		 M648.94,368.57c0.1,0.1,0.24,0.11,0.24,0.32C649.1,368.78,649.02,368.65,648.94,368.57z M670.48,393.73c0.4,0,0.3-0.45,0.3,3.01
		C670.38,396.74,670.48,397.18,670.48,393.73z"/>
	<path d="M651.34,372.38l0.1,0.1C651.42,372.45,651.38,372.38,651.34,372.38z"/>
	<path d="M383.25,532.14l-0.1-0.1C383.02,532.16,383.1,532.14,383.25,532.14z"/>
	<path d="M647.23,424.8c0-0.24,0.06-0.37-0.1-0.1L647.23,424.8z"/>
	<path d="M666.58,386.71l-0.1,0.1C666.58,386.89,666.62,386.99,666.58,386.71z"/>
	<path d="M652.75,372.58l0.1-0.1C652.7,372.48,652.66,372.46,652.75,372.58z"/>
	<path d="M609.25,397.44l0.1-0.1C609.31,397.34,609.27,397.41,609.25,397.44z"/>
	<path d="M379.04,530.03c-0.13,0.18-0.24,0.2-0.1,0.2L379.04,530.03z"/>
	<path d="M537.59,36.24l0.1,0.1C537.73,36.21,537.74,36.24,537.59,36.24z"/>
	<path d="M540.43,39.89c0.51,0.95,1.39,1.05,2.38,1.05c1.17-1.75,1.43-1.85,3.11-2.41c0.2-1.3,0.3-2.51,0.5-3.81
		c1.37,5.12,0.96,5.42,2.91,4.61c-0.61-1.37-1.36-3.37-1-2.31c-1.1-1,0-2.71-1.1-3.81c-4.81-0.8-5.21-0.7-7.82,1.5
		c-0.92-1.54-0.49-2.45-1.67,1.5c0.44,0,0.82,0.01,1.27,0.1c0,1.8,0.72,1.37-1.9,6.61c1.7,1.3,1.7,1.3,3.51-0.3
		c-0.9-0.2-1.5-0.3-2.81-0.6C539.21,41.39,539.39,40.19,540.43,39.89z M544.81,35.53c0,0.4-0.2,0.8-0.1,1.1
		c0.33,1.34,2.73,1.26-2.61,1.7C542,35.63,542.1,35.53,544.81,35.53z M542.8,34.63c-0.16,0,0.06,0.1-0.8,0.1
		C542.4,34.34,542.3,34.13,542.8,34.63z M541.78,34.92c-0.07,0.64-0.58,0.61-0.58,0.51C541.42,35.28,541.59,35.1,541.78,34.92z
		 M541.01,35.99c0.07,2.73,0.07,2.43-0.42,3.44C540.54,38.27,540.64,37.11,541.01,35.99z"/>
	<path d="M584.99,584.85c-19.99,0.27-22.48,0.56-24.15,0.8c4.14,1.86,28.75-0.27,32.87,0.1
		C591.85,584.82,592.4,584.75,584.99,584.85z"/>
	<path d="M655.45,586.86c3.21-0.1,6.31-0.5,10.32-0.8c-5.31-1.63-13.11,0.62-27.66-0.2C631.39,585.85,643.54,587.23,655.45,586.86z"
		/>
	<path d="M596.22,518c0.01,0.6-0.1,1.4,0.8,1.7c0.5-1.01,0.5,2.52,0.5-20.35C595.4,498.3,596.1,509.72,596.22,518z"/>
	<path d="M339.05,235.38c-1.46,4.39,5.8-1.97,7.82-2.81c2.82-1.17,4.91-3.21,7.02-5.31c0.3-0.3,0.7-0.6,0.1-1.1
		c-7.22,5.16-8.73,5-11.93,7.52C341.16,234.38,340.35,235.28,339.05,235.38z"/>
	<path d="M596.32,538.45c-0.28,3.06-0.32-1.78,0.4,22.25c0.41,3.71,0.06,1.97,1.4,4.21C597.22,555.89,597.92,547.47,596.32,538.45z"
		/>
	<path d="M383.35,532.14c1.8-0.1,3.72,0.52,5.51-0.5c4.99-2.83,7.14-0.31,14.33-6.01c-4.33,1.08-5.1,1.93-7.42,2.31
		C391.37,528.64,387.36,530.53,383.35,532.14z"/>
	<path d="M559.34,66.9c0.3-0.4,0.9-0.7,1.3-1c2.33,0.97,4.8,2.81,4.61,0.4c-2.61,0.2-3.81-2.31-6.01-3.01
		c-0.2,2.41-0.2,2.41-2.31,4.01c-3.57-2.67-3.26-2.15-4.01-1.9c0.77,2.32,2.61,0.98,2.61,3.61
		C557.09,67.45,558.07,69.23,559.34,66.9z"/>
	<path d="M637.51,424.3c-0.03-0.04-0.05-0.1-0.1-0.1L637.51,424.3z"/>
	<path d="M642.62,423.19c1.95,1.63,4.32,4,4.81,1.8c-1.43,0-2.44-1.29-5.01-4.51c-1.15,0.38,0.28,0.72-1.5,2.51
		c-2.25,1.87-2.73-0.22-4.61-2.1c-0.1-0.1-0.5,0.1-1.1,0.2c0.65,0.98,1.3,1.82,1.9,2.65c0,0.1-0.04,0.25,0.06,0.09
		c0.09,0.13,0.19,0.26,0.28,0.38C640.91,425.38,639.01,425.2,642.62,423.19z"/>
	<path d="M569.36,53.87c-4.26-2.78-4.31-2.81-6.73-2.81c-0.26,1.01-0.22,0.8,0.42,0.8c-0.36,0.73,0,0.3-0.6,0
		c-1,1.1-0.6,2.2,0.3,3.31C564.65,53.97,566.65,53.47,569.36,53.87z"/>
	<path d="M554.43,585.15c-13.07,0-13.03-0.32-15.23,0.3C544.3,585.96,549.42,586.16,554.43,585.15z"/>
	<path d="M538.69,59.19c0.43-0.43,0.43,0.05-0.6-3.41c-1.36-3.58-0.11-5.3,1.6-8.72C536.33,49.16,535.01,53.93,538.69,59.19z"/>
	<path d="M554.03,34.43c0.8,0.9,2.2,1.7,4.11,1.3c-0.5-0.5-0.7-0.9-1-1.1s-1-0.2-1-0.3c-0.1-1.6-1.8-1.6-2.61-2.51
		c-1-1-2.1-1.9-3.11-2.81C550.62,31.42,552.42,32.83,554.03,34.43z M554.43,33.43c0.13,0.25,0.16,0.2-0.1,0.2L554.43,33.43z"/>
	<path d="M597.82,583.95c0.4-5.41,0.2-7.92-0.7-12.63C596.62,575.73,597.92,579.84,597.82,583.95z"/>
	<path d="M535.79,27.32c-1.07,10.71-0.97,8.82-0.7,10.42C538.08,26.74,535.79,26.27,535.79,27.32z"/>
	<path d="M573.47,36.24c1.37-1.37,0.65-0.76,2.31,1.5c0.84,1.15,2.67-0.92-1.9-5.21C573.07,33.93,573.57,35.03,573.47,36.24z"/>
	<path d="M558.54,31.32c0,0.87,1.76,1.17-0.5,2.31c1.77,0.69,3.46,1.66,5.22,0.26c-2.15-0.81-3.64-2.39-4.92-4.17
		C558.44,30.22,558.54,30.72,558.54,31.32z"/>
	<path d="M617.47,586.96c0.4,0,0.8-0.1,1.9-0.3C603.54,586.66,606.54,586.96,617.47,586.96z"/>
	<path d="M396.68,514c2.51-0.5,4.21-1.4,6.71-3.41C399.08,511.89,397.98,512.39,396.68,514z"/>
	<path d="M385.75,511.79c-2.51,0.9-4.01,2-5.11,4.01C383.85,514.1,383.95,514.1,385.75,511.79z"/>
	<path d="M538.89,74.12c0.7-3.11,0.7-3.11-0.3-5.21C538.09,70.81,538.19,72.52,538.89,74.12z"/>
	<path d="M571.87,51.37c-0.6-2.51-2.61-3.31-5.11-4.71C568.26,48.96,569.56,50.07,571.87,51.37z"/>
	<path d="M330.63,221.75c2.31-1.6,2.31-1.6,3.71-5.31C329.85,221.27,330.63,220.76,330.63,221.75z"/>
	<path d="M563.35,28.12l-0.1,0.1C563.39,28.22,563.32,28.2,563.35,28.12z"/>
	<path d="M564.75,31.83c0.3-0.2,0.7-0.3,1.2-0.5c-2-3.99-1.6-3.15-2.62-3.12C563.01,29.75,564.26,30.64,564.75,31.83z"/>
	<path d="M620.07,426.6c1.31-4.71,1.86-5.61,0.7-5.61c-0.36,0.64-0.73,1.27-1.09,1.91C619.84,424.07,619.39,425.24,620.07,426.6z"/>
	<path d="M619.57,423.09c0.13-0.2,0.12-0.24,0.1-0.3L619.57,423.09z"/>
	<path d="M555.03,36.03c-0.8-0.2-1.4-0.4-1.9-0.5c-0.5-0.1-0.9-0.1-1.4-0.2s-1.1-0.3-1.9-0.5
		C552.12,36.74,552.82,36.94,555.03,36.03z"/>
	<path d="M532.88,30.32c-0.3,2-0.7,4.01,0.7,5.71C533.38,34.13,533.08,32.23,532.88,30.32z"/>
	<path d="M291.34,555.19c0.8,0.4,1.5,0.2,1.9-0.6c-0.9-0.5-1.7-1.1-2.61-1.6C290.44,554.28,290.54,554.89,291.34,555.19z"/>
	<path d="M346.06,216.54c0.9-1.2,2.51-1.7,3.11-3.41c-1.6,0.1-2.31,1.3-3.41,2.2C345.46,215.63,345.26,216.13,346.06,216.54z"/>
	<path d="M256.37,282.08c-1.3-0.4-2.2-0.7-3.61-1.1C253.24,284.14,255.11,282.71,256.37,282.08z"/>
	<path d="M553.22,38.54c-1.6-0.6-3.01-1.2-4.31-1.7C550.32,38.94,550.72,39.14,553.22,38.54z"/>
	<path d="M567.56,28.42c0.19,0.31,0.17,0.33,0.1-0.1L567.56,28.42z"/>
	<path d="M569.76,33.23c-0.29-2.04-0.4-2.11-2.05-4.58C568.08,30.96,568.33,31.61,569.76,33.23z"/>
	<path d="M399.38,523.62c-1.3,0.3-2.2,0.5-3.21,0.7C398.28,524.82,398.28,524.82,399.38,523.62z"/>
	<path d="M291.24,550.88c-0.4,0.3-0.4,0.7,0.2,1.1c0.7-0.6,1.6-1,2.1-2C292.55,549.67,291.84,550.28,291.24,550.88z"/>
	<path d="M553.12,14.79c0.19-0.03,0.26-0.02,0.1-0.1L553.12,14.79z"/>
	<path d="M553.32,14.76c1.07,0.86,2.14,1.42,3.51,1.33C555.97,15.04,554.83,14.54,553.32,14.76z"/>
	<path d="M595.92,586.56c0.8-0.5,1.3-1.1,0.7-2C595.52,585.55,595.52,585.55,595.92,586.56z"/>
	<path d="M603.24,587.16c0.9,0.2,1.8,0.8,2.81-0.1C604.94,587.06,604.04,587.16,603.24,587.16z"/>
	<path d="M536.29,23.81c0,1,0,2.1,0,3.11C536.89,25.91,536.99,24.91,536.29,23.81z"/>
	<path d="M257.67,273.76c-0.4,0.4-0.8,0.7-1.2,1C257.47,275.37,257.77,274.76,257.67,273.76z"/>
	<path d="M556.83,16.19c0.38,0.85,1.2,1.08,2.06,1.35C558.61,16.57,558.27,16.29,556.83,16.19z"/>
	<path d="M550.41,28.92c-0.03-0.96-0.43-1.8-1.49-2C549.12,27.82,549.42,28.62,550.41,28.92z"/>
	<path d="M572.37,33.93c0-1.62,0.07-1.4-0.2-1.4C572.17,34.21,572.1,33.93,572.37,33.93z"/>
	<path d="M352.08,526.12c-0.7,0-1.2,0.3-1.4,1C351.28,527.02,351.88,527.02,352.08,526.12z"/>
	<path d="M387.66,509.69c1.2-0.2,1.2-0.2,1.7-1.4C388.66,508.88,388.26,509.18,387.66,509.69z"/>
	<path d="M295.85,548.17c0.8,0.4,1.2,0,1.5-0.7C296.55,547.17,296.05,547.37,295.85,548.17z"/>
	<path d="M407,507.88c0.4-0.3,1-0.6,2.1-1.1C407.7,506.88,407.1,507.08,407,507.88z"/>
	<path d="M532.58,39.74c0.44,0,0.5,0.25,0.5-1.6C532.5,38.14,532.93,37.98,532.58,39.74z"/>
	<path d="M261.08,272.16c1.18-0.59,0.79,0.06,0.5-0.8C260.72,271.36,261.08,271.95,261.08,272.16z"/>
	<path d="M544.71,23.21c0.1,0.5,0.2,1.1,0.2,1.6C545.21,23.91,545.21,23.91,544.71,23.21z"/>
	<path d="M529.55,45.48c-0.44,0.44-0.82,0.82-1.28,1.28C529.39,46.57,529.46,46.46,529.55,45.48z"/>
	<path d="M529.67,45.36l-0.1-0.1C529.54,45.54,529.54,45.49,529.67,45.36z"/>
	<path d="M385.15,529.73c0.5,0.6,0.9,0.5,1.3-0.1C385.95,529.13,385.45,529.13,385.15,529.73z"/>
	<path d="M301.77,545.97c-0.31-0.31-0.23-0.25-1.8,0.1C302,546.58,301.35,546.38,301.77,545.97z"/>
	<path d="M574.67,25.41c-0.1-0.3-0.1-0.6-0.3-0.8c0-0.12-0.83-0.23-0.4,0.2C574.17,25.01,574.47,25.21,574.67,25.41z"/>
	<path d="M548.31,25.31c-0.1-0.4-0.2-0.9-0.3-1.3C547.71,24.51,547.61,25.01,548.31,25.31z"/>
	<path d="M338.35,233.97c0.3,0.5,0.6,0.9,0.8,1.3C339.15,233.89,340.7,233.5,338.35,233.97z"/>
	<path d="M336.64,213.43c-0.78,0.78-0.57,0.74-0.4,0.9C337.44,213.73,336.64,213.89,336.64,213.43z"/>
	<path d="M349.07,225.86c-0.4,0.1-1,0.2-1.8,0.3C348.27,226.66,348.87,226.86,349.07,225.86z"/>
	<path d="M349.17,225.96c0.5-0.1,1-0.1,1.8-0.1C350.07,224.95,349.57,225.25,349.17,225.96z"/>
	<path d="M354.08,207.31c-0.1,0.2-0.3,0.3-0.5,0.4C353.98,208.52,354.08,208.22,354.08,207.31z"/>
	<path d="M561.04,19.1c0.2,0,0.4,0,0.7,0.1C561.44,19.1,561.34,19.1,561.04,19.1z"/>
	<path d="M561.03,16.03c0.07,0.04,0.18,0.1,0.21,0.12C561.24,15.93,561.28,16,561.03,16.03z"/>
	<path d="M562.25,16.77c-0.33-0.21-0.69-0.4-1.01-0.62C561.24,16.88,561.75,16.78,562.25,16.77z"/>
	<path d="M562.44,16.89l0.1-0.1C562.01,16.67,562.35,16.81,562.44,16.89z"/>
	<path d="M564.65,31.73c-0.2,0.2-0.6,0.2-1.2,0.3C564.25,32.43,564.55,32.23,564.65,31.73z"/>
	<path d="M561.14,50.97c0.6,0,0.98,0,1.33,0C562.2,50.61,561.96,50.33,561.14,50.97z"/>
	<path d="M562.47,50.97c0.08,0.12,0.06,0.1,0.15,0.1C562.67,50.94,562.65,50.97,562.47,50.97z"/>
	<path d="M312.19,233.57c0.02-0.02,0.02-0.01,0.03-0.02C312.24,233.43,312.25,233.4,312.19,233.57z"/>
	<path d="M312.22,233.55c-0.01,0.08-0.03,0.2-0.03,0.32C312.28,233.59,312.36,233.42,312.22,233.55z"/>
	<path d="M561.03,16.03c-0.38-0.2-0.83-0.46-1.29-0.64C559.92,16.27,560.48,16.14,561.03,16.03z"/>
	<path d="M559.74,15.39l0.1-0.1C559.63,15.33,559.72,15.34,559.74,15.39z"/>
	<path d="M548.91,26.91l0.1-0.1C548.89,26.77,548.96,26.72,548.91,26.91z"/>
	<path d="M548.21,25.41c0.1,0.48,0.11,1.04,0.72,1.36C549,26.13,548.95,25.6,548.21,25.41z"/>
	<path d="M563.95,17.49l0.1-0.1C563.7,17.33,563.62,17.35,563.95,17.49z"/>
	<path d="M563.72,17.37c-0.36-0.19-0.76-0.41-1.17-0.58C562.71,17.45,563.21,17.36,563.72,17.37z"/>
	<path d="M381.84,522.51c0.1,0,0.2,0.1,0.3,0c0.2-0.1,0.3-0.3,0.5-0.4c-0.1,0.1-0.4,0.1-0.5,0
		C381.94,522.21,381.94,522.41,381.84,522.51z"/>
	<path d="M559.09,17.56c0.3,0.53,0.78,0.72,1.45,0.53C560.08,17.63,559.62,17.44,559.09,17.56z"/>
	<path d="M559.03,17.5l-0.07,0.07c-0.12-0.06-0.05,0.01-0.03,0.13C559.14,17.49,559.07,17.64,559.03,17.5z"/>
	<path d="M566.85,26.91c0.13,0.26,0.26,0.59,0.1-0.1L566.85,26.91z"/>
	<path d="M567.66,28.22c-0.3-0.3-0.49-0.65-0.64-0.98C567.05,27.65,567.14,28.07,567.66,28.22z"/>
	<path d="M533.28,26.81c0.1,0.3,0.2,0.6,0.3,1C534.08,27.22,533.58,27.01,533.28,26.81z"/>
	<path d="M569.66,33.23c0.1,0.3,0.1,0.7,0.2,1.3C570.46,33.83,570.26,33.43,569.66,33.23z"/>
	<path d="M357.69,523.62c0.24-0.24,0.29-0.25,0-0.1C357.57,523.77,357.55,523.76,357.69,523.62z"/>
	<path d="M304.47,543.96c0,0.19-0.2,0.2-0.1,0.2C304.47,544.06,304.47,544.06,304.47,543.96z"/>
	<path d="M304.27,544.26c0.03-0.03,0.06-0.06,0.09-0.1C304.34,544.16,304.27,544.17,304.27,544.26z"/>
	<path d="M304.17,544.16c-0.05,0.05-0.1,0.1-0.15,0.16C304.1,544.27,304.17,544.24,304.17,544.16z"/>
	<path d="M303.87,544.56c0.08-0.16,0.22-0.32,0.1-0.2C303.87,544.36,303.87,544.46,303.87,544.56z"/>
	<path d="M359.8,522.11c-0.09,0.09-0.27,0.37-0.1,0.2C359.69,522.21,359.8,522.21,359.8,522.11z"/>
	<path d="M549.42,14.49c0.1,0.1,0.1,0.2,0.2,0.2C549.52,14.59,549.52,14.59,549.42,14.49z"/>
	<path d="M382.75,522.21l0.1-0.2C382.59,522.14,382.62,522.08,382.75,522.21z"/>
	<path d="M360.7,521.21l-0.2,0.1c0,0.1-0.02,0.18-0.04,0.26c0.12-0.12,0.14-0.15,0.12-0.18
		C360.61,521.42,360.61,521.39,360.7,521.21z"/>
	<path d="M360.46,521.57c-0.19,0.21-0.4,0.4-0.56,0.64C360.14,522.05,360.37,521.88,360.46,521.57z"/>
	<path d="M380.14,528.83c-0.08,0.15-0.15,0.26-0.23,0.38C380.15,529.22,380.45,529.3,380.14,528.83z"/>
	<path d="M379.14,530.13c0.22-0.33,0.59-0.57,0.77-0.92C379.6,529.21,379.28,529.85,379.14,530.13z"/>
	<path d="M564.15,17.69C563.86,17.41,563.91,17.46,564.15,17.69L564.15,17.69z"/>
	<path d="M406.7,508.38c0-0.2,0.1-0.4,0.2-0.6C406.7,507.88,406.2,507.78,406.7,508.38z"/>
	<path d="M350.47,527.22c0.25-0.13,0.23-0.07,0.1-0.2L350.47,527.22z"/>
	<path d="M553.32,14.69c-0.03-0.03-0.06-0.06-0.09-0.09C553.24,14.65,553.26,14.69,553.32,14.69z"/>
	<path d="M553.02,14.39c0.28,0.28,0.2,0.23,0.2,0.1C553.22,14.39,553.12,14.39,553.02,14.39z"/>
	<path d="M561.14,19c-0.2-0.3-0.4-0.6-0.7-0.8C561.14,19.25,561.01,19.13,561.14,19z"/>
	<path d="M387.06,173.14c-0.2,0-0.6-0.1-0.4,0.4C386.86,173.44,386.96,173.24,387.06,173.14z"/>
	<path d="M383.75,177.15c0.26-0.13,0.25-0.07,0-0.2V177.15z"/>
	<path d="M556.13,30.42c0.1,0,0.1,0.1,0.2,0.1C556.33,30.52,556.23,30.42,556.13,30.42z"/>
	<path d="M354.98,206.71c0-0.1,0.1-0.2,0.1-0.3C354.98,206.51,354.88,206.61,354.98,206.71z"/>
	<path d="M354.2,207.31c-0.16,0-0.14-0.02-0.02,0.1C354.18,207.38,354.19,207.35,354.2,207.31z"/>
	<path d="M354.88,206.61c-0.37,0.09-0.64,0.28-0.68,0.7C354.69,207.35,354.88,207.07,354.88,206.61z"/>
	<path d="M350.57,211.62c0.1-0.1,0.3,0.02,0.3-0.3C350.78,211.42,350.67,211.52,350.57,211.62z"/>
	<path d="M350.47,211.62c-0.09,0.26-0.26,0.46-0.5,0.77C350.4,212.33,350.56,212.06,350.47,211.62z"/>
	<path d="M349.17,213.03c0.12,0.12,0.74,0.21,0.71-0.51C350.13,212.19,349.02,212.28,349.17,213.03z"/>
	<path d="M556.03,30.22c0.12,0.24,0.07,0.2,0.2,0.2L556.03,30.22z"/>
	<path d="M333.69,227.96c0.11,0,0.15,0.01,0.15-0.2C333.79,227.81,333.74,227.89,333.69,227.96z"/>
	<path d="M333.54,228.16c0.05-0.05,0.1-0.12,0.15-0.2C333.61,227.97,333.54,228,333.54,228.16z"/>
	<path d="M333.35,228.15c0.05-0.01,0.09-0.03,0.09-0.09C333.41,228.09,333.38,228.12,333.35,228.15z"/>
	<path d="M333.24,228.16c-0.1,0-0.1,0.1-0.1,0.2C333.41,228.08,333.37,228.16,333.24,228.16z"/>
	<path d="M312.09,233.77c-0.2,0.2-0.5,0.5-0.6,0.8C312.3,233.76,312.22,233.91,312.09,233.77z"/>
	<path d="M311.49,234.48l-0.1-0.1C310.43,235.34,310.45,235.52,311.49,234.48z"/>
	<path d="M333.84,234.98c0-0.37,0-0.18-0.13,0.14C333.75,235.07,333.79,235.02,333.84,234.98z"/>
	<path d="M333.71,235.12c-0.04,0.05-0.07,0.11-0.07,0.16C333.67,235.22,333.69,235.17,333.71,235.12z"/>
	<path d="M310.59,235.18c-0.2,0.2-0.5,0.5-0.7,0.7C309.88,236.04,310.37,235.49,310.59,235.18z"/>
	<path d="M333.17,235.58c-0.11,0.08-0.25,0.18-0.43,0.3l0.1,0.1C332.94,235.82,333.06,235.69,333.17,235.58z"/>
	<path d="M333.17,235.58C333.78,235.14,333.52,235.22,333.17,235.58L333.17,235.58z"/>
	<path d="M309.88,235.78c-0.1,0-0.1,0.1-0.2,0.1C309.78,235.98,309.88,235.88,309.88,235.78z"/>
	<path d="M537.39,36.14c-0.1,0-0.1,0.1-0.1,0.2C537.81,35.81,537.53,36.14,537.39,36.14z"/>
	<path d="M548.43,36.67c0.16,0.05,0.34,0.07,0.55,0.07C548.81,36.23,548.6,36.42,548.43,36.67z"/>
	<path d="M548.31,36.64v0.2C548.5,36.6,548.39,36.68,548.31,36.64z"/>
	<path d="M549.01,36.84l0.1-0.1C548.94,36.74,548.98,36.71,549.01,36.84z"/>
	<path d="M532.28,41.15c-0.1,0.1-0.2,0.2-0.2,0.2C532.52,41.35,532.54,41.41,532.28,41.15z"/>
	<path d="M530.07,44.85c-0.1,0.1-0.2,0.3-0.3,0.5C530.07,45.36,530.37,45.46,530.07,44.85z"/>
	<path d="M528.27,46.95c0.04-0.03,0.06-0.06,0.1-0.09C528.25,46.74,528.27,46.7,528.27,46.95z"/>
	<path d="M527.67,47.56c0.34-0.09,0.59-0.26,0.6-0.61C528.03,47.14,527.84,47.39,527.67,47.56z"/>
	<path d="M527.57,47.46c-0.1,0.1-0.1,0.2-0.2,0.3C527.47,47.66,527.57,47.66,527.57,47.46z"/>
	<path d="M521.85,49.56c0,0.41-0.22,0.48,0,0.7C521.85,50.07,521.95,49.77,521.85,49.56z"/>
	<path d="M521.75,50.47c0,0,0.1-0.1,0-0.3C521.75,50.27,521.75,50.37,521.75,50.47z"/>
	<path d="M563.25,33.93c0.13,0.13,0.1,0.13,0.1,0c0-0.13,0.02-0.12-0.09-0.04c0.01,0,0.01,0.01,0.01,0.01L563.25,33.93z"/>
	<path d="M566.85,26.81c0.13,0,0.15,0.03-0.1-0.1L566.85,26.81z"/>
	<path d="M304.97,240.29c0.1-0.2,0.7-0.1,0.1-0.6C305.07,239.89,304.97,240.09,304.97,240.29z"/>
	<path d="M558.14,29.52c0.1,0,0.1,0.1,0.2,0.1C558.29,29.57,558.22,29.55,558.14,29.52z"/>
	<path d="M558.14,29.52c-0.1-0.1-0.1-0.1-0.2-0.1C557.98,29.47,558.07,29.5,558.14,29.52z"/>
	<path d="M304.57,240.59c0.1-0.1,0.2-0.3,0.3-0.4C304.77,240.29,304.37,240.09,304.57,240.59z"/>
	<path d="M263.68,269.05c0.22,0.22,0.08,0.32,0.4,0c-0.1,0-0.1-0.1-0.2-0.2C263.78,268.95,263.78,269.05,263.68,269.05z"/>
	<path d="M255.06,277.37v-0.2C254.94,277.42,254.93,277.37,255.06,277.37z"/>
	<path d="M254.16,277.97c-1.3,0.9-1.3,0.9-0.8,2.1c1.11-1.95,0.34-0.89,1.55-2.64C254.51,277.34,254.25,277.53,254.16,277.97z"/>
	<path d="M254.91,277.44c0.05,0.01,0.09,0.01,0.15,0.03C254.95,277.35,254.98,277.34,254.91,277.44z"/>
	<path d="M563.26,28.06c0.02,0.03,0.04,0.06,0.09,0.06C563.33,28.1,563.29,28.08,563.26,28.06z"/>
	<path d="M563.15,27.92c-0.4,0-0.08,0.05,0.11,0.14C563.23,28.02,563.2,27.97,563.15,27.92z"/>
	<path d="M523.66,74.22c-3.61-2.81-3.91-2.91-6.21-3.01C520.15,74.12,521.75,74.82,523.66,74.22z"/>
	<path d="M548.41,144.48c-0.11-0.03-0.1-0.09-0.1,0H548.41z"/>
	<path d="M545.81,139.77c-0.49-0.41-1.1-0.3-1.7,0.5c1.18,1.57,2.17,3.34,4.21,4.16C548.39,142.45,547.22,140.93,545.81,139.77z"/>
	<path d="M511.83,94.66c-0.9-2.71-1.5-3.91-2.91-5.51C508.53,90.96,509.23,92.36,511.83,94.66z"/>
	<path d="M536.49,142.77c-0.4,1-0.4,1,0.7,1.7C537.59,143.57,537.59,143.57,536.49,142.77z"/>
	<path d="M514.14,71.81c0,0.65,0.28,0.56,0.8,0.3C514.71,71.66,514.63,71.33,514.14,71.81z"/>
	<path d="M527.07,76.73c-0.1,0.2-0.1,0.4-0.1,0.6c0.2,0,0.3,0,0.5,0C527.28,76.94,527.44,76.73,527.07,76.73z"/>
	<path d="M513.64,95.17c0,0.2-0.2,0.5-0.2,0.6c0.1,0.1,0.4,0.1,0.6,0.2C514.31,95.41,514.5,95.6,513.64,95.17z"/>
	<path d="M498.5,92.06c0.38,0.38,0.38,0.1,0.6,0.1C498.86,92.16,499.31,91.66,498.5,92.06z"/>
	<path d="M515.34,97.17c0.38-0.13,0.4-0.07,0-0.2V97.17z"/>
	<path d="M549.92,148.58c0,0.2,0.1,0.4,0.1,0.6c0.1-0.1,0.3-0.2,0.4-0.3c-0.1-0.2-0.2-0.4-0.2-0.5
		C550.12,148.48,549.92,148.48,549.92,148.58z"/>
	<path d="M548.41,145.08c0,0.1,0.1,0.2,0.2,0.3c0.1-0.2,0.2-0.3,0.3-0.5C548.45,144.63,548.41,144.52,548.41,145.08z"/>
	<path d="M548.51,144.48l-0.2,0.1C548.58,144.68,548.39,144.68,548.51,144.48z"/>
	<path d="M518.65,99.28c0.26-0.13,0.25-0.07,0-0.2V99.28z"/>
	<path d="M575.67,325.88c-14.78,0.4-14.54-0.39-15.03,0.6c1.86,1.86,21.41-0.13,32.97,0.1
		C591.76,324.73,581.88,325.71,575.67,325.88z"/>
	<path d="M597.12,260.33c0.54-1.07,0.5-19.94,0.5-20.04c0-0.74-1.29-0.31-1.3,1C596.28,246.81,595.39,259.47,597.12,260.33z"/>
	<path d="M596.42,288.8c0.43,15.81,0.5,15.58,1.4,15.94C598.32,298.71,595.68,261.27,596.42,288.8z"/>
	<path d="M658.46,326.08c-5.48,0.92-19.62,0.35-22.35,0.8c0.1,0,16.93,1.46,28.76-0.9C662.77,325.98,660.57,325.72,658.46,326.08z"
		/>
	<path d="M538.39,326.58c5.61-0.1,10.62,0.2,16.14-0.3C549.01,325.58,541.3,325.58,538.39,326.58z"/>
	<path d="M603.13,327.68c2.31,0.4,9.22,0.3,13.63-0.1C613.66,327.28,605.94,327.28,603.13,327.68z"/>
	<path d="M597.62,323.17c0,4.12,1.2-3.03-0.8-10.62C597.12,316.06,597.32,319.56,597.62,323.17z"/>
	<path d="M595.72,327.08c1-0.3,1.4-0.8,0.9-1.8C595.62,325.58,595.32,326.18,595.72,327.08z"/>
	<path d="M411.81,164.42c-2.61-2.81-4.51-5.11-6.92-7.02c-0.25,0.74-0.18,0.57,5.41,6.51C410.51,164.02,410.81,164.12,411.81,164.42
		z"/>
	<path d="M379.94,158.31c2.31,2.41,3.31,3.01,5.91,3.51C380.39,157.56,381.87,157.92,379.94,158.31z"/>
	<path d="M387.26,159.61c-5.52-2.92-5.91-3.3-5.91-1.51c1.65-0.2,2.32,0.62,6.31,2.21C387.46,160.11,387.36,159.71,387.26,159.61z"
		/>
	<path d="M424.74,145.28c-1.45,0.1-2.44,0.94-3.41,2.09C422.82,147.29,423.88,146.43,424.74,145.28z"/>
	<path d="M421.33,147.37c-0.26,0-0.22-0.01-0.1,0.11C421.26,147.44,421.3,147.4,421.33,147.37z"/>
	<path d="M412.11,155.4c-0.7,0.4-1.4,0.9-2,1.4c-0.1,0.1-0.1,0.4-0.2,0.6c0.8,0.2,1.5-0.4,2.1-0.9
		C412.41,156.3,412.81,155.9,412.11,155.4z"/>
	<path d="M424.84,145.38c0.87-0.19,1.64-0.49,1.96-1.41C425.87,143.91,425.13,144.33,424.84,145.38z"/>
	<path d="M426.84,143.87c-0.01,0.03-0.03,0.06-0.04,0.09C426.97,143.96,426.99,144.02,426.84,143.87z"/>
	<path d="M429.15,142.47l-0.1-0.1C428.95,142.56,428.98,142.47,429.15,142.47z"/>
	<path d="M426.94,143.87c0.96,0,1.63-0.47,2.04-1.38C428.07,142.53,427.32,142.93,426.94,143.87z"/>
	<path d="M389.96,161.31c0-0.24-0.7-0.3-0.8-0.3c0.1,0.1,0.2,0.3,0.3,0.4S389.76,161.31,389.96,161.31z"/>
	<path d="M387.8,160.38c-0.01-0.02-0.03-0.04-0.04-0.07C387.62,160.45,387.62,160.42,387.8,160.38z"/>
	<path d="M387.8,160.38c0.31,0.62,0.88,0.63,1.46,0.53C388.89,160.36,388.35,160.24,387.8,160.38z"/>
	<path d="M419.13,148.79c0.48,0.1,1.04-0.01,1.35-0.62C419.95,148.05,419.49,148.32,419.13,148.79z"/>
	<path d="M420.48,148.16c0.03,0.01,0.06,0,0.08,0.01c-0.05,0,0.13,0.22,0.06,0.01c0,0,0-0.02-0.01-0.02
		C420.51,148.06,420.52,148.05,420.48,148.16z"/>
	<path d="M429.45,141.97c-0.1,0.2-0.2,0.3-0.3,0.5C429.25,142.37,429.85,142.57,429.45,141.97z"/>
	<path d="M420.61,148.16c0.37-0.1,0.7-0.22,0.52-0.78C420.85,147.47,420.52,147.66,420.61,148.16z"/>
	<path d="M419.03,148.68c0,0.04-0.02,0.1-0.04,0.16C419.01,148.82,419.03,148.78,419.03,148.68z"/>
	<path d="M418.93,149.09c0-0.21,0.11-0.2,0-0.2C418.93,148.99,418.93,148.99,418.93,149.09z"/>
	<path d="M404.19,156.6l-0.2-0.1c0.08,0.16,0.09,0.2,0.12,0.18l-0.02,0.02C404.33,156.89,404.22,156.83,404.19,156.6z"/>
	<path d="M405,157.3c-0.33-0.16-0.52-0.33-0.75-0.49C404.34,157.17,404.48,157.38,405,157.3z"/>
	<path d="M409.61,157.91c0-0.2,0.1-0.3,0.2-0.5C409.71,157.5,409.1,157.3,409.61,157.91z"/>
	<path d="M404.39,162.82l0.1,0.1C404.49,162.67,404.53,162.68,404.39,162.82z"/>
	<path d="M493.79,102.78c-1.3,0.6-1.9,1.4-2.81,2.51C492.69,104.79,492.69,104.79,493.79,102.78z"/>
	<path d="M488.38,106.59c-0.2,0.1-0.4,0.3-0.6,0.5C488.1,107.41,488.8,107.43,488.38,106.59z"/>
	<path d="M486.38,116.31c0.69,0.34,0.61,0.39,0.9,0.1C486.38,115.96,486.59,116.1,486.38,116.31z"/>
	<path d="M471.94,128.34c0.2-0.1,0.2-0.4,0.3-0.7c-0.96,0,1.18-1.68-6.01,5.51C468.4,132.07,465.26,135.03,471.94,128.34z"/>
	<path d="M455.11,112.1c0.4-1.1,0.7-2.2,0.2-3.41C453.9,110.4,453.9,110.8,455.11,112.1z"/>
	<path d="M461.12,101.88c-1.2,1-1.2,1,0,2.81C461.12,103.79,461.12,102.88,461.12,101.88z"/>
	<path d="M460.92,110.5c0-0.6,0-1.2,0-1.8C459.82,109.5,459.82,109.6,460.92,110.5z"/>
	<path d="M430.45,112.4c0.74,1.49,1.68-0.21,2.03-0.61c-0.44-0.02-0.89-0.09-1.33-0.09C431.25,112.3,430.95,112.4,430.45,112.4z"/>
	<path d="M432.56,111.7c-0.03,0.03-0.05,0.06-0.07,0.09C432.68,111.79,432.71,111.86,432.56,111.7z"/>
	<path d="M461.52,113.01c-0.22,0.22,0,0.14,0,0.5C461.62,113.31,461.62,113.21,461.52,113.01z"/>
	<path d="M433.36,110.9l0.1,0.1C433.59,110.87,433.62,110.9,433.36,110.9z"/>
	<path d="M432.76,111.8c0.2-0.2,0.4-0.5,0.6-0.9C433.03,111.4,432.54,111.59,432.76,111.8z"/>
	<path d="M465.63,133.45c0.44,0.44,0.32-0.03,0.5-0.4C466.03,133.25,465.83,133.35,465.63,133.45z"/>
	<path d="M462.77,136l-0.05-0.04c-0.11,0.11-0.11,0.09,0,0.09c0.13,0.13,0.1,0.16,0.1-0.1L462.77,136z"/>
	<path d="M462.02,136.76c0.18-0.27,0.36-0.46,0.61-0.71C462.19,136.03,462.02,136.23,462.02,136.76z"/>
	<path d="M461.32,137.26c0.19-0.19,0.43-0.43,0.6-0.6C461.58,136.74,461.33,136.91,461.32,137.26z"/>
	<path d="M461.22,137.36l0.1,0.1C461.27,137.27,461.4,137.18,461.22,137.36z"/>
	<path d="M461.22,137.46c-0.1,0.1-0.1,0.2-0.2,0.3C461.12,137.66,461.22,137.56,461.22,137.46z"/>
	<path d="M631.3,217.04c-3.21,0.2-5.72,1.29-8.32,1.9c-2.51,0.59-5.31,0.3-8.12,1.8C618.95,221.08,628.71,219.63,631.3,217.04z"/>
	<path d="M591.01,220.64c0.1,0.9,0.8,0.91,1.3,0.8c2.42-0.54,4.71-0.35,7.12-0.4C620.21,220.61,598.83,219.26,591.01,220.64z"/>
	<path d="M619.17,222.95c-0.69,0.34-0.5-0.3-0.5,7.12c0,0.4,0,0.9,0.9,1.2C619.57,221.94,619.74,223.52,619.17,222.95z"/>
	<path d="M627.89,227.16c-0.1,0.4,0.2,0.8,0.3,1.2c0.9-2.51,1.9-4.71,1.4-7.22C628.39,222.75,628.09,223.85,627.89,227.16z"/>
	<path d="M556.83,198.8c0.8,2.2,1.9,3.71,4.31,5.51C559.84,202.4,558.94,200.2,556.83,198.8z"/>
	<path d="M550.42,189.38c0.8,1.3,0.9,2.51,2.2,3.01C552.52,191.08,552.02,190.08,550.42,189.38z"/>
	<path d="M583.79,219.04c-1.4,0-2.71-0.1-4.11-0.2C581.09,219.74,582.49,219.34,583.79,219.04z"/>
	<path d="M599.13,229.46c0.1,0,0.2,0,0.4,0.1c0-1.7,0.29-2.15-0.1-3.71C598.72,226.57,598.89,227.55,599.13,229.46z"/>
	<path d="M577.48,218.74c0.7,0,1.5,0,2.31,0C578.98,218.14,578.28,218.14,577.48,218.74z"/>
	<path d="M593.71,222.75c-0.27,0.54-0.27,0.43,0,0.7C594.12,223.05,593.81,222.85,593.71,222.75z"/>
	<path d="M278.21,304.23c-0.27-0.53-0.38-0.46-0.9-0.2C277.53,304.47,277.54,304.57,278.21,304.23z"/>
	<path d="M569.36,256.42c0.14,0,0.1,0.5,0.1-4.51C569.32,251.91,569.36,251.41,569.36,256.42z"/>
	<path d="M544.5,267.05c2.2,0.4,3.81,0.4,6.11-0.1C548.31,266.65,546.81,266.45,544.5,267.05z"/>
	<path d="M534.08,15.69c0-0.2-0.3-0.3-0.4-0.5c-1,2.1-0.9,3.31,0.4,5.21C533.98,18.9,534.08,17.19,534.08,15.69z"/>
	<path d="M535.38,11.08c-0.9,1.6-0.9,1.6-0.2,3.81C535.28,13.38,535.28,12.28,535.38,11.08z"/>
	<path d="M536.04,9.81c-0.71,0.16-0.55,0.81-0.55,1.37C535.67,10.72,535.85,10.27,536.04,9.81z"/>
	<path d="M536.19,9.78l-0.1-0.1C535.98,9.89,536.05,9.78,536.19,9.78z"/>
	<path d="M536.29,9.48c-0.1,0.1-0.1,0.2,0,0.3C536.29,9.68,536.29,9.58,536.29,9.48z"/>
	<path d="M496.5,463.68c-3.81,1.2-7.72,1.9-11.83,4.01C488.68,466.99,494.09,465.19,496.5,463.68z"/>
	<path d="M444.78,467.09c0.6,0.92,3.21,4.64,4.27,4.24C447.73,469.25,446.06,465.63,444.78,467.09z"/>
	<path d="M449.09,471.4c0.15-0.15,0.13-0.1-0.04-0.07C449.06,471.36,449.08,471.38,449.09,471.4z"/>
	<path d="M446.89,465.79c-0.26-0.14-0.8,0.11-0.8-0.2c0,0.23,0.26,0.2,0.1,0.2c0.09,0.46,0.11,0.92,0.18,1.3
		c1.15-0.05,1.84,0.7,2.63,1.3C452.01,470.71,450.19,467.9,446.89,465.79z"/>
	<path d="M446.29,467.09l0.1,0.1C446.35,467.08,446.41,467.09,446.29,467.09z"/>
	<path d="M450.7,469.2c-0.21,0.04-0.13,0.02-0.1,0.1L450.7,469.2z"/>
	<path d="M468.94,473c0.58,1.26,0.89,2.62,2.19,3.34c-0.06-1.31-0.82-2.28-1.59-3.24C469.44,472.9,469.14,473,468.94,473z"/>
	<path d="M473.35,473.61c1.3,0.2,2.61,0,3.91-1.2C475.55,472.1,474.45,472.9,473.35,473.61z"/>
	<path d="M471.84,477.92c0.6,1.8,0.6,1.8,1.6,2.31C473.15,479.22,472.95,478.32,471.84,477.92z"/>
	<path d="M471.94,477.82c-0.03-0.01-0.05-0.02-0.08-0.03C471.81,477.98,471.84,477.92,471.94,477.82z"/>
	<path d="M471.24,476.41c-0.04-0.02-0.07-0.05-0.11-0.07c0,0.69-0.06,1.2,0.73,1.44C472.06,476.02,470.93,476.72,471.24,476.41z"/>
	<path d="M469.04,472.3c0-0.1-0.3-0.2-0.4-0.3c0,0.6,0.13,0.36,0.4,0.9C468.94,472.8,469.04,472.5,469.04,472.3z"/>
	<path d="M450.5,469.3c-0.09,0.46,0.17,0.66,0.69,0.61C451.16,469.48,450.96,469.3,450.5,469.3z"/>
	<path d="M451.3,469.9c-0.04,0.01-0.07,0-0.11,0.01C451.19,470.03,451.2,470,451.3,469.9z"/>
	<path d="M451.9,470.8c0,0.37,0.26,0.56,0.69,0.59C452.55,470.98,452.36,470.8,451.9,470.8z"/>
	<path d="M452.7,471.4c-0.04,0-0.07-0.01-0.11-0.01C452.59,471.54,452.59,471.51,452.7,471.4z"/>
	<path d="M451.2,470c0,0.46,0.26,0.65,0.69,0.61C451.86,470.18,451.66,470,451.2,470z"/>
	<path d="M452,470.6c-0.16,0.04-0.1-0.05-0.1,0.1L452,470.6z"/>
	<path d="M473.25,473.51c0,0.1,0,0.2,0,0.3C473.25,473.71,473.35,473.61,473.25,473.51z"/>
	<path d="M453.27,472.06c0.04,0.29,0,0.27,0.1,0.17l0.03-0.03C453.36,472.15,453.31,472.11,453.27,472.06z"/>
	<path d="M453.51,472.3c-0.03,0-0.05-0.01-0.07-0.02C453.48,472.31,453.53,472.34,453.51,472.3z"/>
	<path d="M453.44,472.28c-0.03-0.02-0.06-0.04-0.07-0.05C453.39,472.25,453.41,472.27,453.44,472.28z"/>
	<path d="M453.7,472.4c-0.07-0.03-0.12-0.05-0.17-0.07C453.59,472.39,453.62,472.4,453.7,472.4z"/>
	<path d="M467.13,477.41l0.1,0.2C467.36,477.36,467.39,477.41,467.13,477.41z"/>
	<path d="M452.6,471.5c0.25,0.16,0.48,0.34,0.67,0.56C453.21,471.71,453.01,471.5,452.6,471.5z"/>
	<path d="M605.94,428.81c-2.81-0.2-5.41-0.3-8.32-0.1C601.33,430.31,603.84,430.31,605.94,428.81z"/>
	<path d="M583.49,406.86c1.9,0.2,4.31-0.3,5.91-1C587.2,404.85,585.2,405.15,583.49,406.86z"/>
	<path d="M558.14,416.98c0.58-4.32,0.24-3.5,2.81-5.21C558.89,409.72,556.11,414.4,558.14,416.98z"/>
	<path d="M599.23,426.2c-1.6-0.8-2.61-1.7-4.61-2.61C596.22,426.4,596.62,426.6,599.23,426.2z"/>
	<path d="M594.92,421.59c-0.72-0.36-0.6-0.46-0.6,0.3C595.04,421.89,594.92,421.97,594.92,421.59z"/>
	<path d="M578.48,409.96c0,0.1,0.2,0.3,0.2,0.3c0.2-0.1,0.4-0.2,0.6-0.3C578.91,409.23,578.87,409.77,578.48,409.96z"/>
	<path d="M552.92,421.69c-0.47-0.19-0.84-0.09-0.97,0.41c0.49,0.16,1.17,0.42,1.17,0.09C553.02,421.99,553.02,421.69,552.92,421.69z
		"/>
	<path d="M551.95,422.1c-0.01,0-0.02-0.01-0.03-0.01C551.92,422.21,551.91,422.23,551.95,422.1z"/>
	<path d="M582.29,408.06c-0.84,0-0.46,0.86,0.2,0.2C582.39,408.26,582.39,408.06,582.29,408.06z"/>
	<path d="M632.8,394.23c1.12-1.35,2.37,0.18,3.21-1.5c0.59-1.18,1-0.35,1-3.41c0.5,0.9,0.4,1.6-0.2,2.31
		c0.38,3.38,0.5,3.23,1.6,3.51c0.1,0,0.3-0.5,0.4-0.8c0-1.56-0.6,0.01-0.6-2.81c0-1.1,0.6-2.2,0-3.61c-6.66-2.08-5.04-1.26-7.92-0.4
		c0-2.34,0.25-1.96-2.07,1.07c0.46,0.26,0.9,0.44,1.18,0.53c0.3,3.01-2.61,4.01-3.41,6.11c1.7,1.6,2,1.6,3.41,0.3
		c-0.6-0.3-1.2-0.5-1.8-0.8c1.2-1.2,2.2-2.31,3.41-3.51c-0.2,0.9-0.3,1.8-0.5,2.61C631.3,394.53,632.1,394.93,632.8,394.23z
		 M635.61,390.52c0,0.1-0.1,0.2-0.2,0.3C635.41,389.97,635.35,390.27,635.61,390.52z M635.41,390.92c0,0.47,0,0.93,0,1.3
		c-0.6,0.7-1.1,0.1-1.6,0c-0.6,0-1.1,0-1.7,0c0.5-2.79,0.9-3.1,3.16-2.12C634.74,390.37,634.86,390.65,635.41,390.92z M634.2,388.52
		c-0.73,0-1.2,0.08-1.66,0.09C632.76,388.04,633.26,388.14,634.2,388.52z M632.29,388.75c-0.16,0.19-0.33,0.41-0.49,0.57
		C631.8,389,632,388.81,632.29,388.75z"/>
	<path d="M638.91,393.73l-0.1-0.1C638.81,393.67,638.88,393.71,638.91,393.73z"/>
	<path d="M630.3,385.81l-0.1-0.1C630.2,386,630.2,385.94,630.3,385.81z"/>
	<path d="M628.09,388.52l0.1,0.1C628.23,388.58,628.2,388.6,628.09,388.52z"/>
	<path d="M647.63,413.57c3.5-0.58,2.26-0.72,6.31-0.1c-2.29-2.52-2.81-3.68-4.31-3.31c-0.86,0.86-0.99,0.89-1.35-0.06
		C647.05,411.11,647.53,412.39,647.63,413.57z"/>
	<path d="M623.98,410.97c-0.67-6.69-0.16-6.74,3.41-10.82C622.68,402.45,621.58,405.96,623.98,410.97z"/>
	<path d="M647.33,393.73l0.1-0.1C647.39,393.63,647.36,393.7,647.33,393.73z"/>
	<path d="M645.39,389.93c-0.7-1.77-1.68-3.44-2.97-4.82c0.2,3.7,1.6,6.7,4.99,8.51c0.27-0.36,0.54-0.72,0.72-0.99
		C646.42,390.91,647.3,390.17,645.39,389.93z M645.33,390.56c-0.13-0.08-0.24-0.16-0.4-0.24
		C645.43,390.07,645.33,389.89,645.33,390.56z M645.46,390.8c0.12,0.07,0.22,0.15,0.37,0.22
		C645.45,391.25,645.47,391.01,645.46,390.8z"/>
	<path d="M648.54,391.22c0.54,0.54,2.5,1.89,2.91,2.1c0.79,0.42,1.4,0,2.1-0.9c-4.15-1.21-3.71-10.09-3.71-1.2
		C648.3,391.72,649.13,391.22,648.54,391.22z"/>
	<path d="M629.69,378.7c-0.1,0.2-0.5,0.2-0.6,0.4c-0.04,0.1-3.19,8.33-3.04,8.79C626.92,387.48,629.58,382.37,629.69,378.7z"/>
	<path d="M665.77,400.64c0.8-2.31-0.6-4.01-1.3-6.01c-1.93,1.61-1.2,0.94-1.2,3.31c0.3-0.1,0.4-0.2,0.6-0.3
		C665.26,396.25,663.35,399.84,665.77,400.64z"/>
	<path d="M653.95,406.86l-0.2,0.2c0.7,2.1,2.41,3.51,3.61,5.91C657.15,409.56,657.15,409.56,653.95,406.86z"/>
	<path d="M656.65,391.52l0.1-0.1C656.63,391.42,656.65,391.36,656.65,391.52z"/>
	<path d="M654.75,387.21c0.01,0.1,0.6,4.61,0.6,4.11c0.37,0,0.83,0.08,1.3,0.09C656.65,388.82,656.62,388.79,654.75,387.21z"/>
	<path d="M659.96,395.63c1.1-3.01-0.6-5.21-0.7-7.62C658.76,390.52,659.66,392.83,659.96,395.63z"/>
	<path d="M642.92,395.43c-4.81-4.12-4.01-4.38-4.01-1.85C640.16,394.13,640.97,395.82,642.92,395.43z"/>
	<path d="M638.91,393.58c-0.03-0.01-0.07-0.04-0.1-0.05C638.94,393.79,638.91,393.78,638.91,393.58z"/>
	<path d="M654.65,377.19c-0.15-0.1-0.03-0.11-0.1,0.1L654.65,377.19z"/>
	<path d="M654.57,377.12c0.12-1.41-2.63-2.81-2.81-4.14c-0.42,0-0.84,0-1.26,0C651.39,374.79,653.11,375.87,654.57,377.12z"/>
	<path d="M650.34,372.98c0.05,0,0.1,0,0.16,0C650.42,372.86,650.47,372.85,650.34,372.98z"/>
	<path d="M651.84,372.98l-0.1-0.1C651.74,373,651.76,372.98,651.84,372.98z"/>
	<path d="M642.52,385.11c-0.4-1.9-0.7-3.71-1-5.61C641.02,381.5,641.12,383.41,642.52,385.11z"/>
	<path d="M640.72,391.22c0,0.94,2.8,2.15,2.91,2.2c0.3,0.2,0.8,0,1.9,0C640.83,390.95,641.05,390.89,640.72,391.22z"/>
	<path d="M653.05,372.98c0.27,0.05,0.18,0.09,0.1-0.1L653.05,372.98z"/>
	<path d="M653.23,373.02c0.82,1.6,2.27,2.49,3.63,3.37c0.2,0.1,0.5,0,0.7,0C654.56,373.94,654.98,373.46,653.23,373.02z"/>
	<path d="M618.11,395.81c-0.93,0.46-1.79,0.85-2.75,1.32C616.42,397.14,617.66,397.31,618.11,395.81z"/>
	<path d="M630.8,376.09c-0.9,0.9-1.2,1.7-1,2.71C630.3,377.99,630.9,377.29,630.8,376.09z"/>
	<path d="M624.28,386.41c0.2-1.2,0.3-2,0.4-2.71C623.58,384.21,623.98,385.11,624.28,386.41z"/>
	<path d="M662.57,393.93c1.06,3.18,0.4,1.84,0.4-0.1C662.87,393.83,662.67,393.93,662.57,393.93z"/>
	<path d="M648.44,371.88c0.7,0.6,1.1,1.2,2,1C650.04,372.18,649.54,371.78,648.44,371.88z"/>
	<path d="M624.78,383.81c0.46-0.65,0.57-1.39,0.43-2.21C624.59,382.27,624.59,383.03,624.78,383.81z"/>
	<path d="M622.58,391.52c0.73-0.55,0.55-1.34,0.51-2.08C622.57,390.02,622.39,390.77,622.58,391.52z"/>
	<path d="M622.48,391.42c-0.3,0.4-0.7,0.7-1.3,1.1C622.48,392.93,622.28,392.02,622.48,391.42z"/>
	<path d="M647.83,388.32c-0.13,0.38-0.16,0.3,0.1,0.3L647.83,388.32z"/>
	<path d="M625.68,388.32c-0.1,0.1,0,0.4,0,0.6c0.1-0.1,0.3-0.2,0.3-0.3c0.06-0.11,0.21-0.81-0.01-0.7
		C626.14,388.08,625.68,388.07,625.68,388.32z"/>
	<path d="M623.98,388.72c0.1-0.2,0.3-0.4,0.4-0.5C624.15,387.98,624.46,387.76,623.98,388.72z"/>
	<path d="M649.74,409.96c-0.21,0-0.13-0.02-0.1,0.1L649.74,409.96z"/>
	<path d="M649.59,409.96c-0.24-0.58-0.88-0.51-1.36-0.6C648.27,410.12,648.09,409.96,649.59,409.96z"/>
	<path d="M648.34,410.06c-0.04-0.12,0.03-0.1-0.1-0.1C648.31,410.16,648.27,410.1,648.34,410.06z"/>
	<path d="M618.27,395.73c-0.13-0.13-0.08-0.15-0.16,0.08c0.15-0.09,0.5-0.18,0.86-0.18C618.64,395.31,619.09,394.91,618.27,395.73z"
		/>
	<path d="M650.44,394.63c-0.38,0.13-0.4,0.07,0,0.2V394.63z"/>
	<path d="M647.33,393.83c0.59,0,0.27,0.3,0.9,0.3C647.87,393.76,648.24,393.83,647.33,393.83z"/>
	<path d="M657.56,376.49c0.15,0.15,0.06,0.15,0.1-0.1L657.56,376.49z"/>
	<path d="M657.65,376.59c-0.01,0.37,0.18,0.6,0.61,0.6C658,377.02,657.82,376.78,657.65,376.59z"/>
	<path d="M654.55,377.29c0.25,0.17,0.48,0.32,0.68,0.43C655.17,377.41,654.97,377.21,654.55,377.29z"/>
	<path d="M655.23,377.72c0.01,0.05,0.02,0.11,0.02,0.17C655.36,377.78,655.39,377.8,655.23,377.72z"/>
	<path d="M658.16,377.19c0.2,0.2,0.5,0.5,0.7,0.7C658.96,377.79,659.15,377.85,658.16,377.19z"/>
	<path d="M655.25,377.99c1.05,1.05,1.06,0.86,0.1-0.1L655.25,377.99z"/>
	<path d="M658.86,377.99c0.82,0.82,0.64,0.67,0.9,0.8C659.23,378.26,659.15,378.09,658.86,377.99z"/>
	<path d="M626.89,379.4C626.79,379.3,626.79,379.4,626.89,379.4L626.89,379.4z"/>
	<path d="M655.95,378.7l0.2,0.1C656.03,378.67,656.08,378.7,655.95,378.7z"/>
	<path d="M626.79,379.3c-0.09,0.09-0.17,0.19-0.19,0.35C626.6,379.63,626.79,379.47,626.79,379.3z"/>
	<path d="M625.32,381.46c-0.02,0.02-0.03,0.03-0.04,0.04l-0.1-0.1C625.23,381.68,625.18,381.61,625.32,381.46z"/>
	<path d="M630.5,385.61c-0.1,0.1-0.2,0.1-0.2,0.2C630.37,385.74,630.43,385.68,630.5,385.61z"/>
	<path d="M623.18,389.42c1.65-1.65-0.1-0.25-0.1-0.1c0,0.16-0.01,0.11,0.05,0.05L623.18,389.42z"/>
	<path d="M627.89,389.02c0.09-0.19,0.19-0.44,0-0.2C627.89,388.82,627.89,388.92,627.89,389.02z"/>
	<path d="M628.09,388.52c-0.04,0.08-0.06,0.14-0.08,0.2C628.06,388.68,628.09,388.63,628.09,388.52z"/>
	<path d="M654.55,391.62c0.11-0.21,0.28-0.2-0.2-0.2C654.45,391.52,654.45,391.52,654.55,391.62z"/>
	<path d="M654.95,392.02c0.08-0.17,0.17-0.33,0.25-0.5C654.54,391.52,654.67,391.42,654.95,392.02z"/>
	<path d="M655.35,391.52l-0.1-0.1C655.17,391.55,655.21,391.52,655.35,391.52z"/>
	<path d="M656.95,391.62c-0.24-0.12-0.17-0.13-0.3,0H656.95z"/>
	<path d="M615.26,397.04c0,0.1,0,0.2,0,0.3C615.26,397.24,615.36,397.24,615.26,397.04z"/>
	<path d="M609.75,398.64c0-0.61-0.1-1.34-0.1-0.1C609.52,398.8,609.49,398.77,609.75,398.64z"/>
	<path d="M647.63,409.06c0.2,0.1,0.4,0.1,0.6,0.2C648.13,409.16,648.13,408.56,647.63,409.06z"/>
	<path d="M540.4,461.48c-2.41,0.5-4.41,2-7.22,3.41C536.79,464.39,538.39,463.58,540.4,461.48z"/>
	<path d="M537.29,432.41c-1.3,1-1.2,2.2-1,3.81C537.19,434.82,537.79,433.82,537.29,432.41z"/>
	<path d="M528.87,441.84c0.6-1.3,1.1-2.31,1.9-4.01C528.67,439.03,528.57,439.23,528.87,441.84z"/>
	<path d="M541.8,460.18c-0.3,0.2-0.7,0.3-0.9,0.5c-0.2,0.2-0.3,0.5-0.5,0.8C542.25,460.74,541.8,460.74,541.8,460.18z"/>
	<path d="M535.08,439.53c-0.5,0.5-0.5,1-0.1,1.5C535.48,440.53,535.59,440.03,535.08,439.53z"/>
	<path d="M507.72,435.12c0.28-0.28,1.14-0.5,0.4-0.5C507.92,434.72,507.82,434.92,507.72,435.12z"/>
	<path d="M506.32,435.92c0.01-0.07,0.02-0.12,0.04-0.18C506.19,435.85,506.19,435.79,506.32,435.92z"/>
	<path d="M507.41,435.14c-0.47,0.01-0.92-0.02-1.05,0.6C506.72,435.53,507.05,435.35,507.41,435.14c0.01,0.01,0.09,0,0.32-0.02
		l-0.1-0.1C507.51,435.09,507.41,435.13,507.41,435.14z"/>
	<path d="M529.67,466.39c-0.36,0.27-0.81,0.46-1.27,0.64C528.94,467.15,529.5,467.26,529.67,466.39z"/>
	<path d="M528.27,467.09c0.15-0.08,0.22-0.05-0.1-0.1L528.27,467.09z"/>
	<path d="M529.77,466.49c0.1-0.1,0.6,0.1,0.3-0.5C529.97,466.19,529.87,466.29,529.77,466.49z"/>
	<path d="M528.17,466.99c0,0.1,0,0.2,0,0.4C528.17,467.29,528.27,467.19,528.17,466.99z"/>
	<path d="M535.08,444.14c0.13-0.25,0.16-0.2-0.1-0.2L535.08,444.14z"/>
	<path d="M591.01,480.52c8.13,0,13.23,0.3,16.54-0.8C601.93,479.52,596.42,479.02,591.01,480.52z"/>
	<path d="M630.7,476.81c-2.61-0.1-5,0.94-7.52,1.5c-2.4,0.54-5.01,0.6-7.32,1.7C621.07,480.32,625.99,479.02,630.7,476.81z"/>
	<path d="M619.67,491.14c-0.2-3.11,0.2-5.91-0.6-8.62C618.17,486.23,618.37,489.24,619.67,491.14z"/>
	<path d="M627.89,486.94c-0.1,0.2,0.3,0.5,0.5,0.8c1.3-3.31,1.4-4.61,1-7.12C628.49,482.22,627.89,484.33,627.89,486.94z"/>
	<path d="M578.28,478.02c0,0.4-0.51,0.3,3.41,0.3C581.69,477.91,581.41,478.02,578.28,478.02z"/>
	<path d="M599.03,485.03c-0.13,0.76-0.27,3.41,0.5,3.41C599.53,484.25,599.7,485.37,599.03,485.03z"/>
	<path d="M557.53,459.37c0.4,1.5,0.8,2,2.1,2.81C559.24,460.68,558.94,460.08,557.53,459.37z"/>
	<path d="M559.64,462.18c0,0.9,0.2,1.6,1.3,1.6C560.94,462.88,560.54,462.28,559.64,462.18z"/>
	<path d="M593.81,482.93c0-0.1-0.1-0.3-0.1-0.5C593.17,482.43,593.81,483.59,593.81,482.93z"/>
	<path d="M562.44,467.89c0.96,0.96,1.15,0.94,0.1-0.1L562.44,467.89z"/>
	<path d="M309.08,581.65c-0.35-0.18-0.57-0.23-0.9,0.1C309.06,582.18,308.64,582.09,309.08,581.65z"/>
	<path d="M545.71,526.72c1.3,0,2.61,0,4.01,0C548.31,525.72,546.91,526.42,545.71,526.72z"/>
	<path d="M569.36,510.99c0,4.79-0.04,4.31,0.1,4.31C569.46,510.75,569.51,510.99,569.36,510.99z"/>
	<path d="M558.74,453.16c-0.26,0-0.2,0.06-0.2,0.7C558.84,453.56,559.15,453.98,558.74,453.16z"/>
	<path d="M550.42,402.45c0.24-0.48,0.79-0.21-0.8-1.8C547.89,400.64,550.15,402.18,550.42,402.45z"/>
	<path d="M631.2,367.37c-0.01-0.08,0-0.15-0.01-0.22C631.08,367.29,631.07,367.24,631.2,367.37z"/>
	<path d="M631.19,367.15c0.99-1.12,1.63-2.5,1.86-4.03C631.97,364.23,631.1,365.45,631.19,367.15z"/>
	<path d="M633.13,362.89l-0.03-0.03c-0.02,0.22-0.14,0.39,0.1,0.1c0.1-0.1,0.3-0.2,0.4-0.4
		C633.17,362.77,633.1,362.84,633.13,362.89z"/>
<path fill="#e6e6e6" d="m206.8 163.6c0-5.1 4.1-9.2 9.3-9.2s9.2 4.2 9.2 9.2-4.1 9.2-9.3 9.2-9.2-4.1-9.2-9.2zm17.3-.1c0-4.5-3.5-8.2-8.2-8.2s-8.2 3.7-8.2 8.3c0 4.5 3.5 8.2 8.2 8.2s8.2-3.7 8.2-8.3zm-13 0c0-2.8 2.1-5.1 5.1-5.1 1.9 0 2.9.6 3.9 1.5l-1.4 1.7c-.8-.7-1.5-1.1-2.5-1.1-1.7 0-2.8 1.4-2.8 3.1s1.1 3 2.8 3c1.1 0 1.7-.5 2.5-1.1l1.4 1.4c-1.1 1.1-2.1 1.7-4 1.7-2.9 0-5-2.3-5-5.1z"/><path fill="#e6e6e6" d="m226.6 154.7h3.4l4.2 13.2 4.4-13.3h2.6l4.4 13.3 4.2-13.2h3.3l-6.2 18h-2.7l-4.4-12.8-4.4 12.8h-2.7z"/><path fill="#e6e6e6" d="m252.8 165.8c0-3.9 3.1-7 7.2-7 4.2 0 7.2 3.2 7.2 7s-3.1 7-7.3 7c-4 0-7.1-3.1-7.1-7zm11.3 0c0-2.3-1.7-4.3-4.2-4.3s-4.1 2-4.1 4.3 1.7 4.3 4.1 4.3c2.7.1 4.2-1.9 4.2-4.3z"/><path fill="#e6e6e6" d="m269.5 159.1h3.1v3c.8-2 2.4-3.4 4.8-3.3v3.2h-.2c-2.7 0-4.6 1.7-4.6 5.4v5.1h-3.1z"/><path fill="#e6e6e6" d="m279.1 153.9h3.1v11.1l5.6-6h3.8l-5.4 5.5 5.5 8h-3.5l-4.1-5.8-1.9 2v3.9h-3.1z"/><path fill="#e6e6e6" d="m291.7 165.8c0-3.9 3.1-7 7.2-7 4.2 0 7.2 3.2 7.2 7s-3.1 7-7.3 7c-4 0-7.1-3.1-7.1-7zm11.3 0c0-2.3-1.7-4.3-4.2-4.3s-4.1 2-4.1 4.3 1.7 4.3 4.1 4.3c2.6.1 4.2-1.9 4.2-4.3z"/><path fill="#e6e6e6" d="m308.2 167.6v-8.6h3.1v7.6c0 2.1 1.1 3.3 2.9 3.3s3-1.3 3-3.3v-7.6h3.1v13.4h-3.1v-2.1c-.8 1.3-2.1 2.3-4.2 2.3-3.1.2-4.8-1.8-4.8-5z"/><path fill="#e6e6e6" d="m323.9 168.8v-7.1h-1.7v-2.6h1.7v-3.7h3.1v3.7h3.6v2.6h-3.6v6.6c0 1.2.6 1.7 1.7 1.7.7 0 1.3-.2 1.9-.5v2.5c-.8.5-1.7.7-2.8.7-2.3 0-3.9-.9-3.9-3.9z"/><path fill="#e6e6e6" d="m333.2 154.7h3.2v15h9.4v2.9h-12.5v-17.9z"/><path fill="#e6e6e6" d="m356 172.5v-1.7c-.9 1.1-2.3 2-4.4 2-2.6 0-4.8-1.4-4.8-4.2 0-3 2.3-4.4 5.4-4.4 1.7 0 2.6.2 3.7.5v-.2c0-1.9-1.2-2.9-3.3-2.9-1.5 0-2.6.3-3.9.8l-.8-2.5c1.5-.7 2.9-1.1 5.1-1.1 4 0 5.9 2.1 5.9 5.7v8zm.1-5.6c-.8-.3-1.9-.5-3.1-.5-2 0-3.1.8-3.1 2.1s1.1 2 2.6 2c2 0 3.5-1.1 3.5-2.9z"/><path fill="#e6e6e6" d="m364.9 170.5v2.1h-3.1v-18.7h3.1v7.4c1-1.4 2.4-2.5 4.5-2.5 3.2 0 6.3 2.5 6.3 7s-3.1 7-6.3 7c-2.1 0-3.5-1.1-4.5-2.3zm7.7-4.7c0-2.6-1.7-4.3-3.9-4.3s-3.9 1.7-3.9 4.4c0 2.6 1.8 4.3 3.9 4.3s3.9-1.7 3.9-4.4z"/><path fill="#e6e6e6" d="m376.9 170.8 1.4-2.1c1.4 1.1 3 1.7 4.4 1.7s2.1-.5 2.1-1.5-1.3-1.4-2.8-1.8c-.1 0-.2-.1-.2-.1-2-.6-4.2-1.4-4.2-4s2.1-4.1 4.8-4.1c1.7 0 3.5.6 5 1.5l-1.2 2.2c-1.3-.8-2.6-1.3-3.8-1.3s-1.9.5-1.9 1.4 1.3 1.4 2.8 1.8c.1 0 .2.1.2.1 2 .6 4.2 1.5 4.2 4 0 2.9-2.2 4.2-5 4.2-1.9 0-4-.7-5.8-2z"/><path fill="#e6e6e6" d="m505.6 163.6c0-5.1 4.1-9.2 9.3-9.2s9.2 4.2 9.2 9.2-4.1 9.2-9.3 9.2-9.2-4.1-9.2-9.2zm17.4-.1c0-4.5-3.5-8.2-8.2-8.2s-8.2 3.7-8.2 8.3c0 4.5 3.5 8.2 8.2 8.2s8.2-3.7 8.2-8.3zm-13.1 0c0-2.8 2.1-5.1 5.1-5.1 1.9 0 2.9.6 3.9 1.5l-1.4 1.7c-.8-.7-1.5-1.1-2.5-1.1-1.7 0-2.8 1.4-2.8 3.1s1.1 3 2.8 3c1.1 0 1.7-.5 2.5-1.1l1.4 1.4c-1.1 1.1-2.1 1.7-4 1.7-2.9 0-5-2.3-5-5.1z"/><path fill="#e6e6e6" d="m525.4 154.7h3.4l4.2 13.2 4.4-13.3h2.6l4.4 13.3 4.2-13.2h3.3l-6.2 18h-2.7l-4.4-12.8-4.4 12.8h-2.7z"/><path fill="#e6e6e6" d="m551.7 165.8c0-3.9 3.1-7 7.2-7 4.2 0 7.2 3.2 7.2 7s-3.1 7-7.3 7c-4.1 0-7.1-3.1-7.1-7zm11.2 0c0-2.3-1.7-4.3-4.2-4.3s-4.1 2-4.1 4.3 1.7 4.3 4.1 4.3c2.7.1 4.2-1.9 4.2-4.3z"/><path fill="#e6e6e6" d="m568.3 159.1h3.1v3c.8-2 2.4-3.4 4.8-3.3v3.2h-.2c-2.7 0-4.6 1.7-4.6 5.4v5.1h-3.1z"/><path fill="#e6e6e6" d="m577.9 153.9h3.1v11.1l5.6-6h3.8l-5.4 5.5 5.5 8h-3.5l-4.1-5.8-1.9 2v3.9h-3.1z"/><path fill="#e6e6e6" d="m590.6 165.8c0-3.9 3.1-7 7.2-7 4.2 0 7.2 3.2 7.2 7s-3.1 7-7.3 7c-4.1 0-7.1-3.1-7.1-7zm11.2 0c0-2.3-1.7-4.3-4.2-4.3s-4.1 2-4.1 4.3 1.7 4.3 4.1 4.3c2.6.1 4.2-1.9 4.2-4.3z"/><path fill="#e6e6e6" d="m607 167.6v-8.6h3.1v7.6c0 2.1 1.1 3.3 2.9 3.3s3-1.3 3-3.3v-7.6h3.1v13.4h-3.1v-2.1c-.8 1.3-2.1 2.3-4.2 2.3-3 .2-4.8-1.8-4.8-5z"/><path fill="#e6e6e6" d="m622.7 168.8v-7.1h-1.7v-2.6h1.7v-3.7h3.1v3.7h3.6v2.6h-3.6v6.6c0 1.2.6 1.7 1.7 1.7.7 0 1.3-.2 1.9-.5v2.5c-.8.5-1.7.7-2.8.7-2.3 0-3.9-.9-3.9-3.9z"/><path fill="#e6e6e6" d="m632 154.7h3.2v15h9.4v2.9h-12.6z"/><path fill="#e6e6e6" d="m654.8 172.5v-1.7c-.9 1.1-2.3 2-4.4 2-2.6 0-4.8-1.4-4.8-4.2 0-3 2.3-4.4 5.4-4.4 1.7 0 2.6.2 3.7.5v-.2c0-1.9-1.2-2.9-3.3-2.9-1.5 0-2.6.3-3.9.8l-.8-2.5c1.5-.7 2.9-1.1 5.1-1.1 4 0 5.9 2.1 5.9 5.7v8zm.1-5.6c-.8-.3-1.9-.5-3.1-.5-2 0-3.1.8-3.1 2.1s1.1 2 2.6 2c2 0 3.5-1.1 3.5-2.9z"/><path fill="#e6e6e6" d="m663.7 170.5v2.1h-3.1v-18.7h3.1v7.4c1-1.4 2.4-2.5 4.5-2.5 3.2 0 6.3 2.5 6.3 7s-3.1 7-6.3 7c-2.1 0-3.5-1.1-4.5-2.3zm7.8-4.7c0-2.6-1.7-4.3-3.9-4.3-2.1 0-3.9 1.7-3.9 4.4 0 2.6 1.8 4.3 3.9 4.3s3.9-1.7 3.9-4.4z"/><path fill="#e6e6e6" d="m675.8 170.8 1.4-2.1c1.4 1.1 3 1.7 4.4 1.7s2.1-.5 2.1-1.5-1.3-1.4-2.8-1.8c-.1 0-.2-.1-.2-.1-2-.6-4.2-1.4-4.2-4s2.1-4.1 4.8-4.1c1.7 0 3.5.6 5 1.5l-1.2 2.2c-1.3-.8-2.6-1.3-3.8-1.3s-1.9.5-1.9 1.4 1.3 1.4 2.8 1.8c.1 0 .2.1.2.1 2 .6 4.2 1.5 4.2 4 0 2.9-2.2 4.2-5 4.2-2 0-4.1-.7-5.8-2z"/><path fill="#e6e6e6" d="m61 298.6c0-5.1 4.1-9.2 9.3-9.2s9.2 4.2 9.2 9.2-4.1 9.2-9.3 9.2c-5.1 0-9.2-4.2-9.2-9.2zm17.4-.1c0-4.5-3.5-8.2-8.2-8.2s-8.2 3.7-8.2 8.3c0 4.5 3.5 8.2 8.2 8.2s8.2-3.7 8.2-8.3zm-13.1-.1c0-2.8 2.1-5.1 5.1-5.1 1.9 0 2.9.6 3.9 1.5l-1.4 1.7c-.8-.7-1.5-1.1-2.5-1.1-1.7 0-2.8 1.4-2.8 3.1s1.1 3 2.8 3c1.1 0 1.7-.5 2.5-1.1l1.4 1.4c-1.1 1.1-2.1 1.7-4 1.7-2.8.1-5-2.2-5-5.1z"/><path fill="#e6e6e6" d="m80.9 289.7h3.4l4.2 13.2 4.4-13.3h2.6l4.4 13.3 4.2-13.2h3.3l-6.2 18h-2.7l-4.4-12.8-4.4 12.8h-2.7z"/><path fill="#e6e6e6" d="m107.1 300.8c0-3.9 3.1-7 7.2-7s7.2 3.2 7.2 7-3.1 7-7.3 7c-4 0-7.1-3.1-7.1-7zm11.3 0c0-2.3-1.7-4.3-4.2-4.3s-4.1 2-4.1 4.3 1.7 4.3 4.1 4.3c2.6.1 4.2-1.9 4.2-4.3z"/><path fill="#e6e6e6" d="m123.7 294h3.1v3c.8-2 2.4-3.4 4.8-3.3v3.2h-.2c-2.7 0-4.6 1.7-4.6 5.4v5.1h-3.1z"/><path fill="#e6e6e6" d="m133.4 288.9h3.1v11.1l5.6-6h3.8l-5.4 5.5 5.5 8h-3.5l-4.1-5.8-1.9 1.9v3.9h-3.1z"/><path fill="#e6e6e6" d="m146 300.8c0-3.9 3.1-7 7.2-7s7.2 3.2 7.2 7-3.1 7-7.3 7c-4.1 0-7.1-3.1-7.1-7zm11.2 0c0-2.3-1.7-4.3-4.2-4.3s-4.1 2-4.1 4.3 1.7 4.3 4.1 4.3c2.6.1 4.2-1.9 4.2-4.3z"/><path fill="#e6e6e6" d="m162.4 302.6v-8.6h3.1v7.6c0 2.1 1.1 3.3 2.9 3.3s3-1.3 3-3.3v-7.6h3.1v13.4h-3.1v-2.1c-.8 1.3-2.1 2.3-4.2 2.3-3 .2-4.8-1.8-4.8-5z"/><path fill="#e6e6e6" d="m178.1 303.8v-7.1h-1.7v-2.7h1.7v-3.7h3.1v3.7h3.6v2.6h-3.6v6.6c0 1.2.6 1.7 1.7 1.7.7 0 1.3-.2 1.9-.5v2.5c-.8.5-1.7.7-2.8.7-2.3.1-3.9-.9-3.9-3.8z"/><path fill="#e6e6e6" d="m187.4 289.7h3.2v15h9.4v2.9h-12.5v-17.9z"/><path fill="#e6e6e6" d="m210.2 307.5v-1.7c-.9 1.1-2.3 2-4.4 2-2.6 0-4.8-1.4-4.8-4.2 0-3 2.3-4.4 5.4-4.4 1.7 0 2.6.2 3.7.5v-.2c0-1.9-1.2-2.9-3.3-2.9-1.5 0-2.6.3-3.9.8l-.8-2.5c1.5-.7 2.9-1.1 5.1-1.1 4 0 5.9 2.1 5.9 5.7v8zm.1-5.6c-.8-.3-1.9-.5-3.1-.5-2 0-3.1.8-3.1 2.1s1.1 2 2.6 2c2 0 3.5-1.1 3.5-2.9z"/><path fill="#e6e6e6" d="m219.2 305.5v2.1h-3.1v-18.7h3.1v7.4c1-1.4 2.4-2.5 4.5-2.5 3.2 0 6.3 2.5 6.3 7s-3.1 7-6.3 7c-2.2 0-3.6-1.1-4.5-2.3zm7.7-4.7c0-2.6-1.7-4.3-3.9-4.3s-3.9 1.7-3.9 4.4c0 2.6 1.8 4.3 3.9 4.3s3.9-1.7 3.9-4.4z"/><path fill="#e6e6e6" d="m231.2 305.8 1.4-2.1c1.4 1.1 3 1.7 4.4 1.7s2.1-.5 2.1-1.5-1.3-1.4-2.8-1.8c-.1 0-.2-.1-.2-.1-2-.6-4.2-1.4-4.2-4s2.1-4.1 4.8-4.1c1.7 0 3.5.6 5 1.5l-1.2 2.2c-1.3-.8-2.6-1.3-3.8-1.3s-1.9.5-1.9 1.4 1.3 1.4 2.8 1.8c.1 0 .2.1.2.1 2 .6 4.2 1.5 4.2 4 0 2.9-2.2 4.2-5 4.2-2 0-4.1-.7-5.8-2z"/><path fill="#e6e6e6" d="m360.6 298.6c0-5.1 4.1-9.2 9.3-9.2s9.2 4.2 9.2 9.2-4.1 9.2-9.3 9.2-9.2-4.2-9.2-9.2zm17.4-.1c0-4.5-3.5-8.2-8.2-8.2s-8.2 3.7-8.2 8.3c0 4.5 3.5 8.2 8.2 8.2s8.2-3.7 8.2-8.3zm-13.1-.1c0-2.8 2.1-5.1 5.1-5.1 1.9 0 2.9.6 3.9 1.5l-1.4 1.7c-.8-.7-1.5-1.1-2.5-1.1-1.7 0-2.8 1.4-2.8 3.1s1.1 3 2.8 3c1.1 0 1.7-.5 2.5-1.1l1.4 1.4c-1.1 1.1-2.1 1.7-4 1.7-2.8.1-5-2.2-5-5.1z"/><path fill="#e6e6e6" d="m380.5 289.7h3.4l4.2 13.2 4.4-13.3h2.6l4.4 13.3 4.2-13.2h3.3l-6.2 18h-2.7l-4.4-12.8-4.4 12.8h-2.7z"/><path fill="#e6e6e6" d="m406.7 300.8c0-3.9 3.1-7 7.2-7 4.2 0 7.2 3.2 7.2 7s-3.1 7-7.3 7c-4.1 0-7.1-3.1-7.1-7zm11.3 0c0-2.3-1.7-4.3-4.2-4.3s-4.1 2-4.1 4.3 1.7 4.3 4.1 4.3c2.7.1 4.2-1.9 4.2-4.3z"/><path fill="#e6e6e6" d="m423.3 294h3.1v3c.8-2 2.4-3.4 4.8-3.3v3.2h-.2c-2.7 0-4.6 1.7-4.6 5.4v5.1h-3.1z"/><path fill="#e6e6e6" d="m433 288.9h3.1v11.1l5.6-6h3.8l-5.4 5.5 5.5 8h-3.5l-4.1-5.8-1.9 2v3.9h-3.1z"/><path fill="#e6e6e6" d="m445.6 300.8c0-3.9 3.1-7 7.2-7 4.2 0 7.2 3.2 7.2 7s-3.1 7-7.3 7c-4.1 0-7.1-3.1-7.1-7zm11.3 0c0-2.3-1.7-4.3-4.2-4.3s-4.1 2-4.1 4.3 1.7 4.3 4.1 4.3c2.6.1 4.2-1.9 4.2-4.3z"/><path fill="#e6e6e6" d="m462.1 302.6v-8.6h3.1v7.6c0 2.1 1.1 3.3 2.9 3.3s3-1.3 3-3.3v-7.6h3.1v13.4h-3.1v-2.1c-.8 1.3-2.1 2.3-4.2 2.3-3.1.2-4.8-1.8-4.8-5z"/><path fill="#e6e6e6" d="m477.8 303.8v-7.1h-1.8v-2.7h1.7v-3.7h3.1v3.7h3.6v2.6h-3.6v6.6c0 1.2.6 1.7 1.7 1.7.7 0 1.3-.2 1.9-.5v2.5c-.8.5-1.7.7-2.8.7-2.2.1-3.8-.9-3.8-3.8z"/><path fill="#e6e6e6" d="m487.1 289.7h3.2v15h9.4v2.9h-12.5v-17.9z"/><path fill="#e6e6e6" d="m509.9 307.5v-1.7c-.9 1.1-2.3 2-4.4 2-2.6 0-4.8-1.4-4.8-4.2 0-3 2.3-4.4 5.4-4.4 1.7 0 2.6.2 3.7.5v-.2c0-1.9-1.2-2.9-3.3-2.9-1.5 0-2.6.3-3.9.8l-.8-2.5c1.5-.7 2.9-1.1 5.1-1.1 4 0 5.9 2.1 5.9 5.7v8zm.1-5.6c-.8-.3-1.9-.5-3.1-.5-2 0-3.1.8-3.1 2.1s1.1 2 2.6 2c2 0 3.5-1.1 3.5-2.9z"/><path fill="#e6e6e6" d="m518.8 305.5v2.1h-3.1v-18.7h3.1v7.4c1-1.4 2.4-2.5 4.5-2.5 3.2 0 6.3 2.5 6.3 7s-3.1 7-6.3 7c-2.2 0-3.5-1.1-4.5-2.3zm7.7-4.7c0-2.6-1.7-4.3-3.9-4.3s-3.9 1.7-3.9 4.4c0 2.6 1.8 4.3 3.9 4.3s3.9-1.7 3.9-4.4z"/><path fill="#e6e6e6" d="m530.8 305.8 1.4-2.1c1.4 1.1 3 1.7 4.4 1.7s2.1-.5 2.1-1.5-1.3-1.4-2.8-1.8c-.1 0-.2-.1-.2-.1-2-.6-4.2-1.4-4.2-4s2.1-4.1 4.8-4.1c1.7 0 3.5.6 5 1.5l-1.2 2.2c-1.3-.8-2.6-1.3-3.8-1.3s-1.9.5-1.9 1.4 1.3 1.4 2.8 1.8c.1 0 .2.1.2.1 2 .6 4.2 1.5 4.2 4 0 2.9-2.2 4.2-5 4.2-1.9 0-4.1-.7-5.8-2z"/><path fill="#e6e6e6" d="m659.5 298.6c0-5.1 4.1-9.2 9.3-9.2s9.2 4.2 9.2 9.2-4.1 9.2-9.3 9.2-9.2-4.2-9.2-9.2zm17.3-.1c0-4.5-3.5-8.2-8.2-8.2s-8.2 3.7-8.2 8.3c0 4.5 3.5 8.2 8.2 8.2 4.8 0 8.2-3.7 8.2-8.3zm-13-.1c0-2.8 2.1-5.1 5.1-5.1 1.9 0 2.9.6 3.9 1.5l-1.4 1.7c-.8-.7-1.5-1.1-2.5-1.1-1.7 0-2.8 1.4-2.8 3.1s1.1 3 2.8 3c1.1 0 1.7-.5 2.5-1.1l1.4 1.4c-1.1 1.1-2.1 1.7-4 1.7-2.9.1-5-2.2-5-5.1z"/><path fill="#e6e6e6" d="m679.3 289.7h3.4l4.2 13.2 4.4-13.3h2.6l4.4 13.3 4.2-13.2h3.3l-6.2 18h-2.6l-4.4-12.8-4.4 12.8h-2.7z"/><path fill="#e6e6e6" d="m705.5 300.8c0-3.9 3.1-7 7.2-7 4.2 0 7.2 3.2 7.2 7s-3.1 7-7.3 7c-4 0-7.1-3.1-7.1-7zm11.3 0c0-2.3-1.7-4.3-4.2-4.3s-4.1 2-4.1 4.3 1.7 4.3 4.1 4.3c2.7.1 4.2-1.9 4.2-4.3z"/><path fill="#e6e6e6" d="m722.1 294h3.1v3c.8-2 2.4-3.4 4.8-3.3v3.2h-.2c-2.7 0-4.6 1.7-4.6 5.4v5.1h-3.1z"/><path fill="#e6e6e6" d="m731.8 288.9h3.1v11.1l5.6-6h3.8l-5.4 5.5 5.5 8h-3.5l-4.1-5.8-1.9 2v3.9h-3.1z"/><path fill="#e6e6e6" d="m744.4 300.8c0-3.9 3.1-7 7.2-7 4.2 0 7.2 3.2 7.2 7s-3.1 7-7.3 7c-4.1 0-7.1-3.1-7.1-7zm11.3 0c0-2.3-1.7-4.3-4.2-4.3s-4.1 2-4.1 4.3 1.7 4.3 4.1 4.3c2.6.1 4.2-1.9 4.2-4.3z"/><path fill="#e6e6e6" d="m760.9 302.6v-8.6h3.1v7.6c0 2.1 1.1 3.3 2.9 3.3s3-1.3 3-3.3v-7.6h3.1v13.4h-3.1v-2.1c-.8 1.3-2.1 2.3-4.2 2.3-3.1.2-4.8-1.8-4.8-5z"/><path fill="#e6e6e6" d="m776.6 303.8v-7.1h-1.7v-2.7h1.7v-3.7h3.1v3.7h3.6v2.6h-3.6v6.6c0 1.2.6 1.7 1.7 1.7.7 0 1.3-.2 1.9-.5v2.5c-.8.5-1.7.7-2.8.7-2.3.1-3.9-.9-3.9-3.8z"/><path fill="#e6e6e6" d="m785.9 289.7h3.2v15h9.4v2.9h-12.5v-17.9z"/><path fill="#e6e6e6" d="m808.7 307.5v-1.7c-.9 1.1-2.3 2-4.4 2-2.6 0-4.8-1.4-4.8-4.2 0-3 2.3-4.4 5.4-4.4 1.7 0 2.6.2 3.7.5v-.2c0-1.9-1.2-2.9-3.3-2.9-1.5 0-2.6.3-3.9.8l-.8-2.5c1.5-.7 2.9-1.1 5.1-1.1 4 0 5.9 2.1 5.9 5.7v8zm.1-5.6c-.8-.3-1.9-.5-3.1-.5-2 0-3.1.8-3.1 2.1s1.1 2 2.6 2c2 0 3.5-1.1 3.5-2.9z"/><path fill="#e6e6e6" d="m817.6 305.5v2.1h-3.1v-18.7h3.1v7.4c1-1.4 2.4-2.5 4.5-2.5 3.2 0 6.3 2.5 6.3 7s-3.1 7-6.3 7c-2.1 0-3.5-1.1-4.5-2.3zm7.7-4.7c0-2.6-1.7-4.3-3.9-4.3-2.1 0-3.9 1.7-3.9 4.4 0 2.6 1.8 4.3 3.9 4.3 2.2 0 3.9-1.7 3.9-4.4z"/><path fill="#e6e6e6" d="m829.6 305.8 1.4-2.1c1.4 1.1 3 1.7 4.4 1.7s2.1-.5 2.1-1.5-1.3-1.4-2.8-1.8c-.1 0-.2-.1-.2-.1-2-.6-4.2-1.4-4.2-4s2.1-4.1 4.8-4.1c1.7 0 3.5.6 5 1.5l-1.2 2.2c-1.3-.8-2.6-1.3-3.8-1.3s-1.9.5-1.9 1.4 1.3 1.4 2.8 1.8c.1 0 .2.1.2.1 2 .6 4.2 1.5 4.2 4 0 2.9-2.2 4.2-5 4.2-1.9 0-4-.7-5.8-2z"/><path fill="#e6e6e6" d="m206.3 434.2c0-5.1 4.1-9.2 9.3-9.2s9.2 4.2 9.2 9.2-4.1 9.2-9.3 9.2-9.2-4.1-9.2-9.2zm17.4-.1c0-4.5-3.5-8.2-8.2-8.2s-8.2 3.7-8.2 8.3c0 4.5 3.5 8.2 8.2 8.2s8.2-3.7 8.2-8.3zm-13.1-.1c0-2.8 2.1-5.1 5.1-5.1 1.9 0 2.9.6 3.9 1.5l-1.4 1.7c-.8-.7-1.5-1.1-2.5-1.1-1.7 0-2.8 1.4-2.8 3.1s1.1 3 2.8 3c1.1 0 1.7-.5 2.5-1.1l1.4 1.4c-1.1 1.1-2.1 1.7-4 1.7-2.9.1-5-2.2-5-5.1z"/><path fill="#e6e6e6" d="m226.1 425.3h3.4l4.2 13.2 4.4-13.3h2.6l4.4 13.3 4.2-13.2h3.3l-6.2 18h-2.7l-4.4-12.8-4.4 12.8h-2.7z"/><path fill="#e6e6e6" d="m252.4 436.4c0-3.9 3.1-7 7.2-7 4.2 0 7.2 3.2 7.2 7s-3.1 7-7.3 7c-4.1 0-7.1-3.1-7.1-7zm11.2 0c0-2.3-1.7-4.3-4.2-4.3s-4.1 2-4.1 4.3 1.7 4.3 4.1 4.3c2.7.1 4.2-1.9 4.2-4.3z"/><path fill="#e6e6e6" d="m269 429.7h3.1v3c.8-2 2.4-3.4 4.8-3.3v3.2h-.2c-2.7 0-4.6 1.7-4.6 5.4v5.1h-3.1z"/><path fill="#e6e6e6" d="m278.6 424.5h3.1v11.1l5.6-6h3.8l-5.4 5.5 5.5 8h-3.5l-4.1-5.8-1.9 2v3.9h-3.1z"/><path fill="#e6e6e6" d="m291.3 436.4c0-3.9 3.1-7 7.2-7 4.2 0 7.2 3.2 7.2 7s-3.1 7-7.3 7c-4.1 0-7.1-3.1-7.1-7zm11.2 0c0-2.3-1.7-4.3-4.2-4.3s-4.1 2-4.1 4.3 1.7 4.3 4.1 4.3c2.6.1 4.2-1.9 4.2-4.3z"/><path fill="#e6e6e6" d="m307.7 438.2v-8.6h3.1v7.6c0 2.1 1.1 3.3 2.9 3.3s3-1.3 3-3.3v-7.6h3.1v13.4h-3.1v-2.1c-.8 1.3-2.1 2.3-4.2 2.3-3 .2-4.8-1.8-4.8-5z"/><path fill="#e6e6e6" d="m323.4 439.4v-7.1h-1.7v-2.6h1.7v-3.7h3.1v3.7h3.6v2.6h-3.6v6.6c0 1.2.6 1.7 1.7 1.7.7 0 1.3-.2 1.9-.5v2.5c-.8.5-1.7.7-2.8.7-2.3 0-3.9-.9-3.9-3.9z"/><path fill="#e6e6e6" d="m332.7 425.3h3.2v15h9.4v2.9h-12.5v-17.9z"/><path fill="#e6e6e6" d="m355.5 443.1v-1.7c-.9 1.1-2.3 2-4.4 2-2.6 0-4.8-1.4-4.8-4.2 0-3 2.3-4.4 5.4-4.4 1.7 0 2.6.2 3.7.5v-.2c0-1.9-1.2-2.9-3.3-2.9-1.5 0-2.6.3-3.9.8l-.8-2.5c1.5-.7 2.9-1.1 5.1-1.1 4 0 5.9 2.1 5.9 5.7v8zm.1-5.6c-.8-.3-1.9-.5-3.1-.5-2 0-3.1.8-3.1 2.1s1.1 2 2.6 2c2 0 3.5-1.1 3.5-2.9z"/><path fill="#e6e6e6" d="m364.4 441.1v2.1h-3.1v-18.7h3.1v7.4c1-1.4 2.4-2.5 4.5-2.5 3.2 0 6.3 2.5 6.3 7s-3.1 7-6.3 7c-2.1 0-3.5-1.1-4.5-2.3zm7.7-4.7c0-2.6-1.7-4.3-3.9-4.3-2.1 0-3.9 1.7-3.9 4.4 0 2.6 1.8 4.3 3.9 4.3 2.2 0 3.9-1.7 3.9-4.4z"/><path fill="#e6e6e6" d="m376.5 441.4 1.4-2.1c1.4 1.1 3 1.7 4.4 1.7s2.1-.5 2.1-1.5-1.3-1.4-2.8-1.8c-.1 0-.2-.1-.2-.1-2-.6-4.2-1.4-4.2-4s2.1-4.1 4.8-4.1c1.7 0 3.5.6 5 1.5l-1.2 2.2c-1.3-.8-2.6-1.3-3.8-1.3s-1.9.5-1.9 1.4 1.3 1.4 2.8 1.8c.1 0 .2.1.2.1 2 .6 4.2 1.5 4.2 4 0 2.9-2.2 4.2-5 4.2-2 0-4.1-.7-5.8-2z"/><path fill="#e6e6e6" d="m505.1 434.2c0-5.1 4.1-9.2 9.3-9.2s9.2 4.2 9.2 9.2-4.1 9.2-9.3 9.2-9.2-4.1-9.2-9.2zm17.4-.1c0-4.5-3.5-8.2-8.2-8.2s-8.2 3.7-8.2 8.3c0 4.5 3.5 8.2 8.2 8.2s8.2-3.7 8.2-8.3zm-13.1-.1c0-2.8 2.1-5.1 5.1-5.1 1.9 0 2.9.6 3.9 1.5l-1.4 1.7c-.8-.7-1.5-1.1-2.5-1.1-1.7 0-2.8 1.4-2.8 3.1s1.1 3 2.8 3c1.1 0 1.7-.5 2.5-1.1l1.4 1.4c-1.1 1.1-2.1 1.7-4 1.7-2.9.1-5-2.2-5-5.1z"/><path fill="#e6e6e6" d="m525 425.3h3.4l4.2 13.2 4.4-13.3h2.6l4.4 13.3 4.2-13.2h3.3l-6.2 18h-2.7l-4.4-12.8-4.4 12.8h-2.7z"/><path fill="#e6e6e6" d="m551.2 436.4c0-3.9 3.1-7 7.2-7 4.2 0 7.2 3.2 7.2 7s-3.1 7-7.3 7c-4.1 0-7.1-3.1-7.1-7zm11.2 0c0-2.3-1.7-4.3-4.2-4.3s-4.1 2-4.1 4.3 1.7 4.3 4.1 4.3c2.7.1 4.2-1.9 4.2-4.3z"/><path fill="#e6e6e6" d="m567.8 429.7h3.1v3c.8-2 2.4-3.4 4.8-3.3v3.2h-.2c-2.7 0-4.6 1.7-4.6 5.4v5.1h-3.1z"/><path fill="#e6e6e6" d="m577.5 424.5h3.1v11.1l5.6-6h3.8l-5.4 5.5 5.5 8h-3.5l-4.1-5.8-1.9 2v3.9h-3.1z"/><path fill="#e6e6e6" d="m590.1 436.4c0-3.9 3.1-7 7.2-7 4.2 0 7.2 3.2 7.2 7s-3.1 7-7.3 7c-4.1 0-7.1-3.1-7.1-7zm11.2 0c0-2.3-1.7-4.3-4.2-4.3s-4.1 2-4.1 4.3 1.7 4.3 4.1 4.3c2.6.1 4.2-1.9 4.2-4.3z"/><path fill="#e6e6e6" d="m606.5 438.2v-8.6h3.1v7.6c0 2.1 1.1 3.3 2.9 3.3s3-1.3 3-3.3v-7.6h3.1v13.4h-3.1v-2.1c-.8 1.3-2.1 2.3-4.2 2.3-3 .2-4.8-1.8-4.8-5z"/><path fill="#e6e6e6" d="m622.2 439.4v-7.1h-1.7v-2.6h1.7v-3.7h3.1v3.7h3.6v2.6h-3.6v6.6c0 1.2.6 1.7 1.7 1.7.7 0 1.3-.2 1.9-.5v2.5c-.8.5-1.7.7-2.8.7-2.3 0-3.9-.9-3.9-3.9z"/><path fill="#e6e6e6" d="m631.5 425.3h3.2v15h9.4v2.9h-12.5v-17.9z"/><path fill="#e6e6e6" d="m654.3 443.1v-1.7c-.9 1.1-2.3 2-4.4 2-2.6 0-4.8-1.4-4.8-4.2 0-3 2.3-4.4 5.4-4.4 1.7 0 2.6.2 3.7.5v-.2c0-1.9-1.2-2.9-3.3-2.9-1.5 0-2.6.3-3.9.8l-.8-2.5c1.5-.7 2.9-1.1 5.1-1.1 4 0 5.9 2.1 5.9 5.7v8zm.1-5.6c-.8-.3-1.9-.5-3.1-.5-2 0-3.1.8-3.1 2.1s1.1 2 2.6 2c2 0 3.5-1.1 3.5-2.9z"/><path fill="#e6e6e6" d="m663.3 441.1v2.1h-3.1v-18.7h3.1v7.4c1-1.4 2.4-2.5 4.5-2.5 3.2 0 6.3 2.5 6.3 7s-3.1 7-6.3 7c-2.2 0-3.6-1.1-4.5-2.3zm7.7-4.7c0-2.6-1.7-4.3-3.9-4.3s-3.9 1.7-3.9 4.4c0 2.6 1.8 4.3 3.9 4.3s3.9-1.7 3.9-4.4z"/><path fill="#e6e6e6" d="m675.3 441.4 1.4-2.1c1.4 1.1 3 1.7 4.4 1.7s2.1-.5 2.1-1.5-1.3-1.4-2.8-1.8c-.1 0-.2-.1-.2-.1-2-.6-4.2-1.4-4.2-4s2.1-4.1 4.8-4.1c1.7 0 3.5.6 5 1.5l-1.2 2.2c-1.3-.8-2.6-1.3-3.8-1.3s-1.9.5-1.9 1.4 1.3 1.4 2.8 1.8c.1 0 .2.1.2.1 2 .6 4.2 1.5 4.2 4 0 2.9-2.2 4.2-5 4.2-2 0-4.1-.7-5.8-2z"/></g>
</svg>
