<?xml version="1.0" encoding="utf-8"?>
<!-- Generator: Adobe Illustrator 23.0.1, SVG Export Plug-In . SVG Version: 6.00 Build 0)  -->
<svg version="1.2" baseProfile="tiny" id="Layer_1" xmlns="http://www.w3.org/2000/svg" xmlns:xlink="http://www.w3.org/1999/xlink"
	 x="0px" y="0px" viewBox="0 0 900 600" xml:space="preserve">
<g>
	<path d="M190.99,54.56l0.1,0.1C191.07,54.6,191.06,54.56,190.99,54.56z"/>
	<path d="M365.96,128.45c-0.03-0.06-0.06-0.14-0.1-0.1L365.96,128.45z"/>
	<path d="M411.46,108.32c-1.52-0.8,0.16-3.98,0.4-6.24c0.97-8.92-1-4.58-5.44-11.27c-1.64-2.48-2.99-1.78-5.94-2.62
		c-0.74,2.48-0.54,2.92-1.21,2.92c-3.35,0.45-0.62,1.8-2.92,5.44c-0.06,0.1-5.64,19.89-7.75,23.05c-1.81,2.71-1.36,4.52-1.71,18.62
		c-0.05,1.95-1.86,4.02-2.92,5.84c-7.9,0.36-64.3-6.03-50.44-6.14c27.97-0.22,25.5,3.53,25.77-14.8c0.04-2.65-1.14-4.44,0.1-8.66
		c4.88-16.54,3.97-7.76,5.73-24.22c1.42,0.99,3.96,2.29,3.63,5.29c-2.5,22.69,1.89,18.8-2.21,21.54c0.81,1.41,1.61-0.3,2.42,0.6
		c0.7,2.23-1.29,3.84-4.03,8.96c0.28,0.47,0.57,1.04,0.94,1.69c1.48-0.7,1.87-2,1.98-3.4c0.27-3.42,2.06-2.72,2.11-5.34
		c0.21-9.8-1.39-9.43,0.3-20.13c0.54-3.39,1.24-6.97-1.11-10.07c-2.78-3.67-1.15-5.77-5.84-4.43c-1.61,2.69-1.58,19.03-2.52,21.24
		c-3.07,7.22-3.18,23.62-3.32,28.19c-2.32,0.7-3.72,0.81-7.85,0.3c-0.77-4.64-0.14-131.13-1.01-132.48
		c-2.98-1.19-0.6,128.8-1.91,132.48c-41.67,1.44-33.15-4.05-51.95-3.42c-23.24,0.78-18.82,2.37-22.25,1.71
		c-2.71-0.52-5.34,0.1-7.65,1.41c-11.05-3.87-16.46-6.14-23.25-6.14c-9.35,0-6.68-6.89-21.85-13.89c-0.65,0-0.66-0.63-0.81-9.46
		c-0.04-2.12,0.42-2.55,2.72-11.17c2.62,0.3,5.23,0.6,7.75,0.91c5.44-2.52,6.64-4.83,5.13-10.17c2-4,2.69-4.19,1.11-7.75
		c4.32-2.16,0.05-3.99,2.62-5.74c3.82-2.6,2.97-2.73-2.42-16.21c5.94-3.82-1-11.76,0.3-17.42c3.02-0.81,5.94-1.61,8.66-2.32
		c0.81-0.81,0.2-1.81,1.11-2.32c0.7-0.3,0.59-0.9,0.4-1.71c-0.24-1,1.96-6.67-2.42-5.94c-0.1,0.02-3.52,0.78-3.62,0.81
		c0.2-1.21,1.51-1.21,1.61-2.42c-1.74-1.04-1.43-0.23-3.02-2.62c-1.81,0.5-2.21,2.42-3.52,3.42c-0.5-2.01-0.8-3.88-2.62-3.42
		c-0.3,0.1-0.7,0.1-0.7,0c-0.81-1.81-2.52-1.21-3.93-1.21c-5.78-0.72-5.1,1.14-3.42-2.21c-1.5-2.75-6.55,2.55-11.98,0.2
		c-6.32-2.73-9.89,2.6-9.26-2.42c-1.27,0-0.53-0.7-3.22,1.61c-4.87,0.75-8.54,0.22-11.48,3.62c-0.73,0.36-0.62,0.54-2.82-1.11
		c-1.99,2.98-1.39,2.68-3.12,1.81c-5.1,4.53-6.65,2.2-2.72,5.64c-5.1,4.08-2.49,4.07-3.62,6.95c-3.83,9.67-1.55,16.62-2.01,20.64
		c-1.12,9.8,2.21,12.72,2.21,25.17c0,1.91,0.1,1.91,1.51,3.83c0,4.13-2.52,8.05-1.11,12.28c-2.72,3.02-4.62,6.45-6.74,9.76
		c-2.72,4.24-19.15,14.28-18.83,43.89c0,0.13-3.14,18.98,5.13,49.33c1.01,0.3,1.72,0.6,2.01,1.71c1.69,6.34,6.45,18.65,6.24,36.74
		c-0.15,12.88,0.55,9-1.61,10.67c-0.61,0.47-2.09,5.68-1.31,8.46c-15.38,23.07-18.43,27.89-16.41,31.71
		c1.23,1.98-0.15,2.63,0.4,43.19c0.04,2.83,1.04-0.54,1.41,6.54c1.2,23.26-7.55,44.33-2.72,53.25c2.13,3.93-2.73,3.72-0.5,11.98
		c0,0.3,0.5,0.5,0.91,0.81c0.7-0.3,1.41-0.7,2.21-1.11c4.86,2.08,7.85-0.25,10.97,1.21c3,12.58-2.88,11.07-2.32,18.93
		c1.05,14.6-9.11,13.99-12.99,30c-0.1,0.09-264.05,2.82-0.91,2.82c2.4,1.71,0.4,3.79,0.4,10.97c0,25.27,2.15-2.67,1.41,38.56
		c-0.17,9.65,1.05,7.24,0.5,11.07c-1.99,14.09-1.72,21.88-2.52,24.26c-1.27,1.27-4.2-0.98-4.53,5.23c-0.5,9.51-5.54,3.22-4.93,14.7
		c0.31,5.89-2.51,7.69-1.71,12.28c0.29,1.66-2.21,4.04-0.2,8.05c0.5,1.01,0.5,2.32,1.11,3.22c0.6,0.91,1.71,1.51,2.42,2.42
		c2.63,3.38,4.07,2.12,8.36,3.52c10.09,3.31,18.01-0.04,21.14-1.01c2.7,1.35,5.24,4.35,9.66,6.64c1.94,0.78,2.7,4.07,9.56,4.43
		c11.74,0.62,12.37-1.48,19.03-2.01c1.23-0.1,8.43,0.86,13.69-4.13c7.02-6.66,12.7-3.4,11.68-16.91
		c-1.04-13.76-4.23-7.17-13.69-10.67c-1.52-0.76-7.47,1.47-15.3-4.53c-13.33-10.21-13.29-8.28-14.7-10.97
		c-7.27-13.91-6.68-13-10.67-13.69c-1.91-3.12-1.41-6.44-1.21-9.66c4.59-2.92,2.33-1.67,5.84-4.13c4.51,1.8,3.12,2.58,7.65,3.42
		c13.18,2.46,21.83,3.9,33.32-3.42c3.28-2.09,3.34-0.62,4.53-2.21c1.81-2.42,2.87-5.14,2.32-8.15c-0.09-0.5-0.6-0.91-1.11-1.71
		c-1.22,4.29-0.86,6.56-4.83,9.36c-10.78,7.6-29.07,6.4-40.87,0.5c-5.57-2.23-12.78,16.7-0.6-34.73c1.41-0.91,3.02-1.41,3.62-3.02
		c1.41,0.4,1.01,1.61,1.51,2.32c0.6,0.7,1.01,1.61,1.51,2.52c-5.94,7.69-6.74,8.52-7.15,10.57c-0.49,2.47,1.37,2.96,2.52,1.81
		c2.44-2.44,4.54-5.17,6.54-7.95c3.45,3.06,2.58,1.3-0.81,6.74c-1.03,1.65-1.58,3.44,0,4.63c1.25,0.83,2.43-1.24,3.22-2.52
		c2.21-3.04,1.39-4.38,3.83-2.92c2.59,0.86-3.72,5.38-0.81,7.05c1.56,0.78,2.49-1.64,3.22-2.92c1.66-3.32,0.71-2.72,3.42-1.81
		c0.57,2.41-2.24,5.25-0.3,5.94c1.95,0.69,2.49-3.03,3.12-4.93c0.81,0.91-0.1,1.31-0.1,1.91c0.16,1.81,1.95,1.88,3.12,0.7
		c3.89-3.89-1.6-0.13,14.8-0.5c1.9,2.53,3.14,7.44,4.33,6.85c2.3,0-1.84-6.92-3.32-8.96c-11.85,1.69-18.77-3.12-25.57-5.13
		c-7.67-2.27-9.12-15.11-12.99-14.9c-0.95,0-2.22,0.84-1.31-1.51c4.56-11.71,3.39-12.81,6.85-24.66
		c8.72-0.58,153.78,0.85,156.74-1.81c-1.71-0.76-6.53-0.5-118.69-0.5c-45.99,0-40.11,1.33-33.93-7.05
		c12.95-17.52,6.4-20.58,13.89-31.81c24.98-2.33,23.25,0.9,23.25-14.3c0-7.42-0.02-2.63,6.34-6.44c2.85-1.71,2-3.44,1.61-6.74
		c-0.87-7.36,1.39-5.52,1.31-10.57c-0.26-15.13,1.1-55.36,1.11-55.47c0.98-13.35-4.55-33.47-3.42-37.25
		c-5.7-7.6-3.94-5.59-5.03-6.14c-0.92,1.84,1.74,15.65,3.12,20.23c0.6,0.3,1.11,0.6,1.61,0.81c2.32,7.85,2.11,15.7,0.7,23.56
		c-0.7-6.85-0.5-13.89-4.43-20.13c-2.26,1.13,2.59-0.26,2.82,22.05c0.09,8.35-2.28,16.03-3.22,20.64c-1.22,5.96,0.25,5.85,0.3,10.37
		c0.17,14.15-3.33,29.66-4.03,34.33c-1.01,6.76,0.33,4.94-0.2,6.54c-3.03,16.14,1.99,15.28-7.05,15.7
		c-32.15,1.5-47.9-7.17-60.5-10.47c-5.39-1.41-10.71,0.34-13.19-1.11c-1.61-3.67,2.22-5.5,0.7-9.76
		c-3.01-8.46,1.81-27.25,1.81-49.33c0-11.13-2.1-11.23-1.11-20.54c4.16-2.15,13.5-2.04,18.32-4.13c-2.89-1.93-8.96-0.26-18.12,1.81
		c-0.56-0.22-0.34,1.07-0.5-28.29c-0.06-11.01,6.52-13.59,16.21-33.52c0.64-0.97,0.88-0.85,2.42-1.11c0.6-0.91,1.21-1.91,0.6-3.42
		c-3.19,4.56-2.31,2.48-1.41-2.32c3.12,0.7,5.64,2.52,8.56,3.83c-1.18,4.73-2.72,3.34-2.72,2.82c0-2.74,0.76-1.39-0.2-3.32
		c-1.01,0.91-1.11,2.11-1.71,3.02c-1.01,0.1-2.01,0.2-3.32,0.4c4.16,5.2,5.19-2.69,0.3,19.33c3.02-5.03,3.32-10.77,4.93-16.41
		c4.27,0,9.2,3.44,6.54-1.21c1.92-3.37-0.14-3.03,8.25,0.4c0.81,1.71-1.01,2.62-0.81,4.23c1.81-0.3,1.81-2.01,2.62-2.92
		c1.71-0.1,1.71-0.1,2.42,1.51c0.7,0.5,0.91-0.3,1.71-0.6c1.41,0.4,3.12,0.4,4.33,1.91c0.2,0.2,0.7,0.3,0.91,0.2
		c1.5-0.72,2.72,0.3,4.03,0.5c1.51,1.51,3.62,1.51,5.44,2.21c1.78,0.44,1.6,0.28,1.31,2.92c-2.52-0.2-4.63-0.5-5.94-2.52
		c-5.53,0.69-6.57-0.92-1.71,1.91c4.82,19.29,10.64,17.04,7.45,11.88c-0.94-1.52-6.71-12-2.62-10.37
		c17.94,5.28,16.88,4.88,17.01,5.13c0.6,1.21,1.61,0.4,2.42,0.5c2.51,3.77,1.26-4.33,4.03-5.34c0,4.67-0.09,6.75,1.81,6.04
		c1.11-2.01-0.1-4.33,0.81-6.54c-3.95-3.95-1.36,0.62,1.41-18.02c2.12-14.32,6.63-17.37,6.44-32.01
		c-0.31-23.79-4.92-27.82-0.6-37.65c5.25-11.96-8.27-8.25,24.46-8.25c1.81-4.52-0.52-0.23,56.27,1.51
		c10.68,0.33,17.38-1.93,26.98-4.33c0.97,0.97,0.6-13.87,0.6,268.38c0,22.93-2.31,10.3,22.05,52.25
		c15.94,27.46,25.48,47.67,30.6,57.18c1.11-3.11-20.39-45.79-24.87-53.76c-11.66-20.74-25.47-39.08-25.47-45.1
		c0-82.37,0-188.65,0-279.66c1.4-0.7,13.57-5.38,15.2-5.23c5.14,0.47,10.17-0.53,15.3-0.91c5.36-0.39,5.55,2.59,9.16-0.2
		c4.36-3.37,5.03,0.21,8.36-2.01c2.6-1.73,6.41-6.02,6.95-8.86c0.37-1.95,2.13-0.5,2.72-6.54c1.18-12.07,0.77-11.51,1.91-14.09
		c3.22-6.29,3.21-13.67,4.63-18.83C413.63,110.72,413.29,109.29,411.46,108.32z M363.24,85.97c1.61-0.3,1.61-0.3,2.42,1.91
		c-2.01,1.01-1.62,1.58-0.55,2.33C362.75,90.62,363.24,91.71,363.24,85.97z M361.93,97.04c0.38,0.76,0.1,0.68,0.1,0.91
		C362.03,97.51,361.44,98.02,361.93,97.04z M177.2,49.53c-0.61,0-0.75-0.91,0-1.51C178.33,48.02,177.89,49.39,177.2,49.53z
		 M232.67,287.51c-0.4-2.01-0.6-3.12-0.91-4.43C233.48,284.09,232.97,285.4,232.67,287.51z M234.28,295.06
		c-0.36-0.8-1.41-5.14-0.91-6.54C234.47,293.63,234.28,290.59,234.28,295.06z M229.05,390.29c7.24-49.74,0.55-27.27,4.93-56.17
		c0.96-4.31,0.23-4.56,1.31-5.64c0.61,8.74,1.74,2.48,0.81,17.11c-2.08,32.61-0.06,31.08-1.71,33.72
		c-4.77,7.62,6.1,12.03-5.44,13.19C228.95,391.7,228.94,391,229.05,390.29z M185.86,555.29c0.34,0.34,0,0.13,0,0.4
		c0-0.1-0.1-0.1-0.2-0.2C185.76,555.39,185.76,555.29,185.86,555.29z M173.18,538.08c2.77,1.66,5.24,8.86,6.14,11.78
		c-5.63,3.38-11.55,7.05-11.98,10.67c0.91,0.7,1.81,1.41,2.32,1.81c12.51-9.22,10.38-9.93,13.49-5.94
		c-3.44,2.67-7.05,5.21-6.34,9.46c0.76,3.02,1.05,0.31,12.38-8.76c4.21,3.37,3.6,1.03-1.41,6.04c-1.5,1.5-2.91,3.63-1.41,5.13
		c2.22,2.22,6.26-5.09,8.76-6.34c5.18,1.29-3.88,6.94-0.4,9.26c1.27,1.02,2.5-0.71,3.32-2.11c1.66-2.83,1.34-3.69,3.52-2.82
		c7.66,2.34,10.73,1.61,12.68,2.42c11.3,4.68,9.03-6.41,10.47,12.38c0.27,3.51-2.65,3.74-4.83,6.24c-2.25,2.58-5.13,4.23-8.25,5.94
		c-3.11-1.55-11.16,3.02-25.27,3.02c-9.6,0-16.66-6.32-23.15-11.38c-1.37,0.17-3.98,0-4.43,0.91c-2.33,3.97-15.15,2.03-20.64-0.2
		c-2.94-1.2-2.95-2.85-4.13-4.03c-5.72-6.67,2.34-10.92,0.1-20.64c-0.39-1.71-0.3-3.62,0.1-5.44c6.47-1.94,5.04-9.6,5.44-11.48
		c0.36-1.72,2.21-1.34,2.21-0.5c0.12,1.05,0.36,2.66,0,3.02c-1.63,1.63-1.69,2.91,0.2,4.33c3.76,2.82,1.33,0.66,0.91,3.22
		c-0.76,1.9,7.12,8.96,17.82,4.63c4.4-1.78,4.55,4,3.62-10.97C164.19,543.97,170.34,541.3,173.18,538.08z M149.72,553.68
		c14.03,0.36,12.58-3.2,12.58,2.21c-4.83,1.51-9.36,2.11-13.99,0.6C147.94,552.42,147.65,553.63,149.72,553.68z M164.82,405.19
		c3.54,0.71-0.57,7,4.23,12.48c0.91-1.81-0.48-3.52,0.1-5.44c1.7-5.59-0.09-5.76,3.83-4.83c9.85,2.33,8.16,0.41,12.28,2.01
		c8.46,3.3,12.69,3.08,15.6,4.33c-6.07,8.34-7.32,6.81-2.21,9.36c0,1.91,0.66-0.37-2.92,12.89c-0.41,2.49-8.3,10.09-10.57,11.88
		c-0.34,4.12-0.1,5-1.11,4.83c-1.11-1.01-0.3-3.02-2.01-3.72c-0.71,4.59,0.75,5.48,2.01,6.95c-1.11,4.33-2.32,8.66-4.53,12.58
		c3.68,2.63-2.36,0.75-10.97,43.69c-0.43,2.17-1.14,20.86,0.81,23.46c1.77,2.95-4.98,5.17-5.54,7.15c-0.89,3.17-1.02,1.07-1.91,7.35
		c-22.03,1.97-17.61-0.77-16.61-21.85c2.42-51.04-7.87-72.66,9.36-90.4c0.6,0.2,1.11,0.4,1.71,0.6c1.35-7,7.67-13.99,5.74-28.19
		C161.14,403.26,159.44,403.73,164.82,405.19z M159.38,415.76c1.71,3.93,1.51,7.05-0.91,10.97
		C157.77,423.31,158.18,419.19,159.38,415.76z M398.98,92.82c0.35,0.35,0.46,0.65,0,1.11C398.98,93.62,398.53,93.72,398.98,92.82z
		 M306.56,135.1c9.49,1.6-1.33,1.5-3.54-0.01C304.24,135.07,305.44,134.91,306.56,135.1z M295.09,135.5
		c-4.17,0.2-14.98,2.59-15.91,3.52c-1.99,2.32-3.18-0.43-8.96-2.52C260.85,133.13,322.98,134.15,295.09,135.5z M236.8,23.56
		c0.3-0.4,0.5-1.11,1.21-0.81c0.1,0,0.2,0.1,0.2,0.2C238.38,24.17,235.8,24.56,236.8,23.56z M243.41,29.73
		c-0.42,3.65-4.35,3.57-7.52,5.2c-1.46,0.76-2.72,0.7-4.15,0.25C235.4,32.8,239.39,34,243.41,29.73z M231.46,25.17
		c0.5-0.1,0.91-0.3,1.71-0.6c-0.96,2.4,0.03,1.97-2.42,3.02C230,23.46,230.07,25.17,231.46,25.17z M230.15,22.85
		c0,0.64,0,1.21,0,1.76c-4.13-2.03-4.41,0.5-5.23-1.16C226.83,23.76,228.34,22.65,230.15,22.85z M221.8,33.12
		c5.08-1.69,4.93-0.3,5.34,0.2C221.19,34.21,221.8,33.44,221.8,33.12z M222.3,35.64c0-0.33-0.3-0.56,1.51-0.2
		C223.81,36.22,223.98,35.64,222.3,35.64z M219.38,20.44c1.57,0-1.01,2.38-1.01,0.5C218.38,20.23,218.98,20.44,219.38,20.44z
		 M216.06,31.91c1.31,1.61,1.31,1.61,0.7,2.32C215.86,32.72,215.96,32.72,216.06,31.91z M218.58,35.64
		c-0.87,0.87-2.45,2.58-3.32,1.71C218.82,34.5,218.84,35.37,218.58,35.64z M214.63,40.01c-0.82,1.78-2.61,2.29-4.21,3.68
		C211.42,41.1,211.53,40.97,214.63,40.01z M211.83,32.31c-1,1.34-0.44,1.4-3.83-1.31C208.81,30.5,208.81,30.5,211.83,32.31z
		 M207.4,46.51c0.53,0.35,0.52,0.18-0.3,1.01C206.97,47.52,206.28,47.26,207.4,46.51z M203.78,42.88c-0.71,1.42-0.66,0.77-1.31,1.21
		C202.81,42.4,203.53,42.38,203.78,42.88z M199.55,30.2c1.04,2.09,1.97,1.54-1.01,2.82C197.94,31.61,197.94,31.61,199.55,30.2z
		 M199.65,48.82c0.2,0.81,0.1,1.31-0.81,1.11C199.15,49.43,199.35,49.13,199.65,48.82z M199.25,44.09c0.49,1.23,0.34,1.07-0.1,1.51
		C198.14,44.6,198.54,45.04,199.25,44.09z M198.24,55.37c0-0.1,0.1-0.2,0.1-0.3C198.71,55.25,198.45,55.57,198.24,55.37z
		 M193.72,19.02c-0.27,0.27-0.54,1.12-1.92,0.82C192.18,18.48,193.04,18.98,193.72,19.02z M194.32,30.1
		c-1.31,0.5-1.31,0.5-3.52-0.91C192.06,28.47,190.82,25.61,194.32,30.1z M194.4,54.53c-0.1-0.1-0.08-0.05-0.08-0.18
		C194.35,54.42,194.37,54.48,194.4,54.53z M190.79,20.64c0.13,0.25,0.16,0.2-0.1,0.2L190.79,20.64z M189.69,50.94
		c1.99,0,1.34,2.55-0.6,0.6C189.28,51.34,189.48,50.94,189.69,50.94z M187.67,24.16c0.88,0,0.18,1.69-0.6,0.91
		C186.87,24.76,187.27,24.16,187.67,24.16z M188.68,43.29c0.62,0-0.43,2.22-1.74-0.27C187.5,43.11,188.13,43.2,188.68,43.29z
		 M185.76,41.07c0.74,0.37,1.13,0.94,1.02,1.73C186.26,42.36,185.48,42.12,185.76,41.07z M185.05,48.72c0-0.5,0-1.01,0-1.61
		C186.26,47.82,186.26,47.82,185.05,48.72z M185.16,28.89c0.4,1.11,0.2,1.61-0.7,1.91C183.85,29.8,184.75,29.6,185.16,28.89z
		 M183.04,55.17c-0.41-0.41,0-0.22,0-0.7C183.31,54.74,183.31,54.63,183.04,55.17z M183.14,68.66c0,0.1-0.1,0.2-0.2,0.3
		C182.94,68.86,182.71,68.23,183.14,68.66z M183.04,27.89c0,0.1,0.33,0.63-0.2,0.1C182.94,27.99,182.94,27.99,183.04,27.89z
		 M182.44,60.4c0.2,0.5,0.4,1.01,0.6,1.41C182.14,61.71,181.83,61.31,182.44,60.4z M181.15,31.08c0.11,0.74-0.26,0.57-0.42,0.73
		C180.73,31.38,180.33,31.72,181.15,31.08z M180.22,42.99c0.5,1.41,0.5,1.41-1.31,2.21C178.61,43.79,178.61,43.79,180.22,42.99z
		 M178.71,56.88c0.81,1.01,0.81,1.01-0.3,2.21C178.61,58.19,178.61,57.68,178.71,56.88z M179.01,70.17c-0.1,0.1-0.1,0.2-0.1,0.3
		c-0.1-0.1-0.1-0.1-0.2-0.1C178.71,69.82,178.7,70.17,179.01,70.17z M179.01,91.71c2.24-9.63,1.38-13.18,6.14-19.23
		c0.33-4.01,0.64-2.78-0.91-6.64c2.01,0.89,2.26,2.52,2.52,2.52c2.15,0.13,2.93,4.5,7.85,5.13c1.31,0.17,1.91-0.6,1.71-2.62
		c-4.57,1.96-5.06-1.17-10.57-6.24c-4.23-3.88,0.08-7.99,3.12-11.68c4,2.64,0.78,1.07,6.44,3.12c-1.23-1.68,0.38-1.14,0.5-0.4
		c0,0.1-0.3,0.4-0.5,0.6c2.77,2.77,1.57,5.5,4.53,8.46c0.4-0.81,0.7-1.51,1.01-2.01c1.41-0.1,2.11,1.61,3.52,0.91
		c-8.04-10.04,14.05-20.12,15.8-25.57c2.52,0.7,4.83,1.31,6.95-0.7c-1.99-1.59-2.9-1.32,4.45-2.1c0.09,1.37,1.61,1.12,1.99,1.7
		c0.03,0.42,0.12,5.94,2.01,10.47c2.18,5.22-4.22,4.14-1.01,10.57c6.98,13.95,3.13,10.02-0.7,10.97c-1.21,0.3-1.61-1.11-2.62-1.11
		c-1.28,1.49-0.5,3.89,3.62,3.12c0.1,1.31,0.2,2.42,0.3,3.42c-2.24,2.98-5.13,1.1-6.14,3.62c-0.1,0.3,0.81,0.7,1.41,0.5
		c1.43-0.48,1.11-0.91,2.52-0.91c0.84,1.12,1.92,1.16,0,3.83c-1.54,2.14-0.36,4.42-0.2,5.64c0.51,3.84-3.14,5.4-6.95,5.13
		c-8.53-0.59-14.64-6.48-7.65,1.21c-0.07,0.3-2.46,12.4-2.62,12.78c-2.57,6.42,5.62,7.03-11.48,5.13
		c-1.49-2.99-15.3-3.62-18.62-3.62c-11.18,0-16.21,5.63-16.21,3.72C179.75,92.1,176.34,103.2,179.01,91.71z M175.19,257.21
		c-2.49-1.24-1.16-0.19-0.2-4.03C177.52,253.39,176.28,255.03,175.19,257.21z M218.88,269.89c-0.66,1.99-7.85-0.64-9.66-1.71
		c0.49-1.96,0.14-1.17,0.7-2.01C219.29,268.36,219.31,268.6,218.88,269.89z M222.4,271.71c-0.63,0.63-1.44-0.11-2.42-0.6
		c0.2-0.81,0.4-1.41,0.6-2.21C225.86,270.09,223.28,269.36,222.4,271.71z M224.11,272.61c-0.54-1.61-0.3-2.72-0.2-2.62
		C225.47,269.61,225.65,271.97,224.11,272.61z M411.26,112.95c-3.97,24.78-4.86,13.27-5.44,19.83
		c-2.61,29.99-6.33,25.47-36.24,28.79c1-5.02-29.84,9.54-50.44,9.66c-1.51,0.01-26.67,0.29-28.49-0.5c-2.26-0.98,0.2-3.02-6.64-1.31
		c-5.69,1.42-20.4-2.15-22.05-2.32c-0.65-0.33-0.71,1.02-1.01,1.91c-4.84,0.39-41.44,1.14-53.25-10.67
		c-2.04-2.04-8.91-0.33-11.27,0.7c-2.66,1.16-0.8,1.36-4.03,3.22c-1.02,0.59-2.11,1.11-2.72,2.11c1.83,0.91,4.51-1.32,6.44-2.72
		c4.13,0,3.69,0.53,9.87-2.32c0,6.38-11.21,18.72-9.06,21.14c6.48-1.3,10.6-16.19,11.27-18.22c6.93,4.38,5.73,4.65,16.51,8.05
		c0.4,2.52-0.5,4.53-1.81,6.34c-14.63,20.15-49.27,8.62-49.93-26.88c-0.24-12.71,4.46-26.61,13.79-35.94
		c1.19-1.79-0.46-1.76-1.41-1.01c-20.85,16.39-21.85,58.41,1.91,72.08c1.69,0.97,1.78,0.6,1.01,2.92c1.61,1.41,2.52-0.7,3.52-0.7
		c19.73,7.4,35.31-5.23,34.53-15.4c0-0.3,0.2-0.6,0.4-1.11c3.02,0.7,6.24,0.6,9.16,1.61c1.65,1.92,0.21,6.41-1.41,6.85
		c-1.82,0.49-1.37,6.77-1.11,8.25c1.33,7.53,1.41,5.2,1.41,29.29c0,5.69-0.96,2.72-1.01,6.04c-0.14,10.61-4.07,24.9-7.85,39.36
		c-0.92,3.54,1.76,2.91,0.5,5.13c-0.82,1.46-1.88,0.83-6.24-0.1c2.73-10.92-2.53-17.56-7.15-18.02c4.43,5.34,5.34,11.27,5.34,17.52
		c-2.92-0.7-5.83-1.02-8.36-2.62c-6.6-4.17,0.09,0.52-41.78-16.11c-1.37-13.27-1.76-14.47-0.7-16.71c0.09-0.19,0.2-14.6-9.56-38.86
		c-2.25-5.6-5.95-33.44-4.43-43.49c2.04-13.51,5.88-21.67,9.16-28.89c3.02-6.65,21.07-14.28,39.16-8.25
		c-3.54,0.81-10.1-1.07-11.27,0.1c0.6,1.01,2.11,0.6,2.52,1.61c-0.6,1.51-2.82,1.41-3.02,3.52c3.12-1.17,5.19-2.66,8.05-2.01
		c0.62,0.1,2.96-1.18,4.23-1.31c18.61-1.94,23.79,8.93,27.28,11.17c9.78,6.28-1.17,3.23,16.41,7.25
		c4.39-2.92,26.02,11.46,34.13,9.26c26.77-7.25,41-0.6,78.82,3.02c20.15,1.93,18.78,2.48,22.25,1.61c2.24-0.75,3.76,1.63,5.64-2.01
		c2.49-4.85,2.77-13.97,2.32-17.42c-0.77-5.84,4.89-15.89,8.25-28.69c0.8,6.55-6.4,19.25-2.72,18.72c0.1-0.5,0.2-1.11,0.4-1.61
		c9.88-31.85,4.91-19.26,6.95-25.37c1.51,0.81,2.72,1.71,3.22,2.72c-7.42,27.83-9.32,24.64-7.35,28.59
		c0.03-0.1,6.59-17.37,7.55-22.85c0.56-3.23,0.95-4.62,3.32-1.81c3.27,3.87,0.4,7,0.4,10.57c0,3.9-2.84,6.22-3.93,8.76
		c-8.79,20.41-1.17,10.49,0.4,3.22c0.74-3.42,1.61-5.23,4.23-8.66C411.06,110.74,411.45,111.74,411.26,112.95z"/>
	<path d="M826.22,113.86l0.1,0.1C826.36,113.82,826.33,113.89,826.22,113.86z"/>
	<path d="M735.31,267.48l-0.1,0.1C735.43,267.5,735.41,267.58,735.31,267.48z"/>
	<path d="M703.9,270.7l0.1,0.1C704.05,270.67,704.05,270.7,703.9,270.7z"/>
	<path d="M860.34,546.53l0.1-0.1C860.29,546.38,860.39,546.31,860.34,546.53z"/>
	<path d="M872.42,94.43c-0.53-2.64,1.79-5.82,1.21-11.38c-7.04-6.69-7.09-8.07-9.76-7.75c-1.72,0.34-1.25-2.28-2.72,2.11
		c-2.69,0.77-1.89,0.52-2.21,3.12c0,0.7-10.31,28.99-10.27,32.21c0.15,10.77,1.11,16.68-8.36,20.94
		c-15.75,7.09,1.1,2.39-21.04,10.17c-1.45,0,4.7-6.41,5.94-7.15c8.44-5.05,11.42-15,9.56-22.85c-1.49-6.32,4.82-8.37-2.42-15.2
		c-1.34,0-1.89,0.38-1.91-0.81c-0.32-14.45,3.44-16.92-1.01-22.85c-2.32-3.49-1.08-5.24-5.64-3.72c-0.84,2.01-2.48,21.64-2.52,21.74
		c-6.72,21.24,3.56,28.89-10.97,35.64c-0.27-2.2-0.86-34.68,0.6-44.9c1.86-1.12,5.1-1.34,3.52-6.44
		c-5.06-16.37,1.31-7.22,1.31-16.31c0-3.19-1.41-7.8,0.1-11.27c3.12-0.6,6.54,0.3,9.87-1.11c0-1.43-0.68-0.55,1.41-2.21
		c-0.28-3.42,2.98-4.85-0.2-7.35c-1.41,0-2.82,0-4.83,0c4.59-3.67,1.36-0.26-0.3-5.23c-1.91,0.2-2.62,1.71-3.83,2.52
		c-1.28-0.57,0.2-3.62-2.32-3.62c-1.15,0,0.61-1.43-5.23-2.11c-0.68-0.83-0.7,0.97-0.7-26.68c0-3.85-0.26-2.8-1.61-3.93
		c-0.44,2.34-0.3,1.09-0.3,26.17c-10.19,3.4-10.82-2.62-17.42-2.11c-3.91,0.3-2.81-1.13-2.42-2.32c-1.61-0.81-2.42,0.81-3.83,1.11
		c-7.23-1.03-7.94-0.83-12.48,1.81c-0.3-0.6-0.7-1.31-0.91-1.61c-2.7-0.28-1.72,3.01-3.93,0.81c-1.11,0.2-1.61,1.43-2.82,1.31
		c-0.81-0.08-1.61,0.5-2.32,0.81c-0.82,2.18,3.43,2.11-0.2,3.93c-3.02,1.51-1.96,2.4-3.42,5.34c-5.92,10.09-4.1,15.46-5.94,20.64
		c-3.12,8.75,0.02,8.68-2.21,23.76c-0.97,6.55,2.85,1.11-1.11,9.56c-1.05,2.24-2.01,4.43-1.61,6.85
		c-5.47,4.04-10.08,11.49-12.89,11.68c-1.33,0-12.3,8.78-17.11,19.33c-4.8,10.53-9.86,32.79-9.26,64.03
		c0.07,3.65,1.39,1.38,1.91,4.53c1.67,15.33,2.6,16.31-2.32,46.41c-2.52,0.81-2.52,0.81-3.32,2.72c-0.81,1.91-1.81,3.83-1.61,6.04
		c-16.81,17.75-23.59,23.51-22.05,27.89c0.52,1.9-8.8,42.35-7.65,44.29c3.61,6.07-10.6,39.97-12.48,50.74
		c-1.2,6.86,1.87,8.02-0.2,9.87c-1.73,1.53-3.56,7.46-1.81,8.96c0.81,0.6,1.51-0.1,2.42-0.4c3.09,1.91,4.26,1.7,10.37,2.92
		c1.7,7.63-0.15,8.43-4.43,15.2c-1.12,1.76-0.42,2.48-2.82,10.97c-0.76,2.69-12.81,10.14-16.41,19.13
		c-1.98,5.93,0.78-0.02-1.81,8.25c-1.29,4.13-0.57,3.93-4.03,3.93c-323.31,0-37.35,1.36-37.25,1.41c3.81,1.49,35.25,0.81,38.76,1.51
		c0.72,1.21,0.15,1.31-0.81,10.57c-0.71,6.88,1.08,1.86-0.4,9.56c-2.02,10.46-4.45,17.87-4.63,25.37
		c-0.07,3.11-1.86,4.85-6.64,24.26c-0.47,1.91-0.54,1.32-2.82,1.61c-3.1,0.4-2.77,3.2-3.52,5.64c-1.97,6.41-4.34,2.47-5.64,6.44
		c-2.13,6.54-1.13,7.19-3.62,11.58c-3.32,5.84-0.56,4.5-2.72,7.65c-1.19,1.73-1.6,3.52-1.01,5.64c0.31,1.11,0.2,2.52,0.6,3.62
		c0.5,1.01,1.51,1.81,2.01,2.82c1.01,2.01,2.51,3.27,4.73,3.72c3.08,0.63,9.28,7.14,23.76,3.93c1.96,1.57,4.52,5.31,8.36,8.46
		c1.75,1.44,2.54,4.57,7.25,5.74c14.51,3.59,13.67,1.11,19.23,1.81c2.99,0.38,9.06,2.9,15.2-1.31c8.09-5.55,14.7,0.02,14.7-20.94
		c-0.19-3.4-3.17-3.56-4.83-4.03c-24.08-6.72-17.18-8.37-31.91-20.84c-3.94-2.87-3.5-18.01-9.56-17.72c-1.11-3.52-0.3-6.74,0.7-9.76
		c10.74-5.73,5.16-1.69,13.29,1.61c11.68,4.74,20.18,8.05,33.62,2.72c2.95-0.98,3.2-0.06,4.33-0.91c2.58-2.36,4.73-5.73,3.62-9.06
		c-0.79-0.26-1.31,0.8-1.31,0.91c-2.04,8.72-15.1,9.91-23.05,8.96c-17.34-2.08-21.56-10.91-26.38-9.26c-2.1,0.72-3.22,1.06-3.22,0.1
		c2.81-14.29,2.85-11.69,12.78-34.23c1.01-0.4,1.91-0.6,2.72-1.01c2.87-1.64,1.52-3.1,2.62,1.31c0.87,3.5,2.46,1.16-6.24,9.06
		c-3.03,2.76-2.31,5.89-0.5,5.03c3.32-1.57,3.8-2.76,7.35-5.84c1.6-1.2,0.73-1.7,3.12,1.71c-0.87,0.79-3.4,2.77-4.93,5.34
		c-1.12,1.87,0.25,3.84,1.51,3.02c3.09-2,3.56-3.75,5.34-5.23c3.12,2.34,2.81,0.86-0.6,5.34c-1.51,1.98,0.78,3.62,2.32,1.91
		c3.13-3.47,2.59-5.1,5.54-2.42c-0.24,0.47-4.12,6.61-0.6,5.44c0.97-0.48,1.74-1.76,2.82-3.02c0-0.58-0.34-0.46,0.2-1.01
		c0.66,0.66-1.03,1.52-0.6,3.22c0.1,0.81,0.91,1.31,1.51,1.01c6.13-3.06-1.17-1.86,15.81,1.71c1.81,2.42,1.11,5.44,3.02,7.85
		c0.42-0.52,1.31-0.91,0.7-3.83c-1.98-9.59-2.75-3.6-14.3-8.86c-4.96-2.26-8.28-5.01-11.88-6.74c-4.31-2.08-4.93-6.25-7.05-11.88
		c-1.83-4.86,0.85-4.44-4.53-5.34c0.2-0.5,0.2-1.11,0.5-1.51c7.19-11.9,6.48-13.85,9.97-20.23c3.98-1.7,111.93,1.48,116.68-2.32
		c-126.61,0-116.63,1.8-114.16-4.13c2.03-4.06,9.06-3.9,18.42-24.06c0-0.1,0-0.2,0.1-0.3c0.81-1.61,0.32-3.7,1.91-5.13
		c6.18-5.56,0.09-3.71,13.99-2.62c19.37,1.52,10.55-0.79,16.51-15.4c2.62,0.6,4.92-0.12,7.25-1.31c1.39-0.71,1.58-1.48,2.01-8.76
		c0.19-3.14,2.16-2.51,3.12-8.05c3.89-22.33,2.14-12.4,11.48-54.36c3.22-14.47,1.49-33.32,3.42-36.54c-4.2-7.76-3.64-6.85-4.03-6.85
		c-1.01,3.93-1.21,16.11-0.3,20.74c3.89,2.59-0.85,21.91-2.2,22.77c0.29-4.98,1.67-15.64-1.22-19.25
		c-0.31,2.16,3.18,15.25-3.83,32.31c-10.16,24.76-1.82,15.92-15,49.83c-2.05,5.27-5.53,18.68-6.34,23.56
		c-25.98,0-40.26-11.07-62.92-21.44c-6.19-2.83-9.56-1.3-13.19-3.93c-0.68-3.63,3.16-4.7,2.62-9.16c-0.82-6.7,2.23-15.02,7.45-32.82
		c6.2-21.15,2.73-21.63,6.14-36.14c6.24-0.7,12.38,0.3,18.52-0.3c0.55-3.05-16.06-1.61-18.02-1.61c0-0.5-0.1-1.01,0-1.41
		c9.06-48.16,1.07-22.22,26.48-55.87c1.88-3.14,2.26,0.91,4.73-4.03c-0.82-1.15-1.43,0.19-2.52,1.71c-0.2-0.5-0.5-0.81-0.4-1.01
		c2.46-6.38,1.11-4.09,9.36,1.31c-1.69,4.4-4.53,4.32-2.21-0.3c-0.5-0.7-0.91-0.51-1.21-0.1c-2.63,3.6-0.39,1.71-4.43,1.71
		c0,0.4-0.2,0.7-0.1,0.81c5.23,6.54,1.98,0.06-3.19,18.02c1.13,0.03,2.93-4.62,5.51-10.07c2.64-5.57,0.16-5.63,7.55-2.62
		c2.97,1.21,1.21-1.74,1.21-2.11c1.74-1.74,0.72-3.65,8.05,2.21c0.2,1.51-1.31,2.11-1.71,3.32c1.41,2.47,3.65-5.61,5.44,0.1
		c0.6,0.4,1.01-0.3,1.51-0.3c3.12,1.51,3.12,1.51,4.33,3.22c1.71-0.6,3.35,0.28,4.43,1.31c1.6,1.53,2.79,1.72,6.24,4.03
		c-1.31,3.05,0.46,2.62-4.03,0.91c-1.1-0.42-1.41-1.31-2.01-2.21c-1.01-0.3-2.01,0.4-3.02-0.4c-0.61-0.41-4.35-2.17,0.91,2.01
		c0.93,9.59,1.06,11,2.21,13.69c0.32,0.96,2,3.2,3.02,2.52c1.76-0.59-1.48-3.32-2.72-14.19c1.01-1.01,19.66,9.29,20.64,10.47
		c2.81-2.81,0.26-1.63,4.03-6.34c0,4.39-1.61,6.04,0,6.85c1.17,0.47,1.52-1.35,1.71-2.52c1.15-4.97,0.96-3.59-0.5-5.94
		c0.82-3.28,1.29-0.89,4.43-9.56c3.38-9.35,3.07-10.59,5.84-15c15.09-24.02,7.87-47.94,12.18-49.73
		c19.88-8.26,15.22-8.02,18.42-8.66c0.27,2.69,0.2-12.22,0.2,181.61c0,90.28-3.17,75.66,8.86,95.43
		c34.43,56.59,60.17,112.81,31.41,49.73c-48.33-105.99-38.05,22.89-38.05-328.48c18.3-12.2,55.98-44.43,57.58-56.07
		c1.67-12.16,0.77-12.6,2.42-16.11c2.96-6.29,3.18-13.19,4.13-17.62C874.97,96.75,875.04,96.74,872.42,94.43z M766.92,290.83
		c0.2,0,0.3-0.1,0.5-0.2C767.67,291.63,767.64,319.72,766.92,290.83z M763.17,329.09c-0.07,0.44-0.08,0.92-0.17,1.61
		C762.63,329.87,762.7,329.4,763.17,329.09z M762.49,332.11c0,1.01,0.23,0.91,0,0.91C762.45,332.88,762.28,332.11,762.49,332.11z
		 M761.89,334.93c0,17.2-4.17,18.98-8.86,47.42c-0.65,3.92-4.43,4.36-3.52,10.97c0.39,1.95,0.13,2.32-0.1,3.72
		c-1.91,0.5-3.62,0.91-5.74,0.4C756.52,355.68,760.17,334.93,761.89,334.93z M671.49,407.31c-0.08,1.94,0.82,7.48-3.62,10.97
		C668.37,413.04,669.47,409.72,671.49,407.31z M670.88,549.25c0.68,0.68,0.26,0.87-0.2,0.4
		C670.68,549.55,670.88,549.35,670.88,549.25z M661.92,530.53c2.5,2.5,3.65,9.61,3.72,12.68c-4.5,1.59-9.34,3.1-12.48,6.24
		c-2.05,2.05-1.21,1.91,1.21,4.63c14.04-7.36,12.28-7.36,14.19-3.52c-3.93,2.4-7.85,3.78-7.85,8.15c-0.44,2.62,1.31,0.85,13.39-6.34
		c4.38,3.65,2.38,2.13-3.32,6.64c-3,2.37-1.41,6.09,2.72,3.22c6.1-4.23,5.04-4.03,6.24-4.03c1.59,3.71,1.63,1.14-1.91,5.44
		c-1.58,1.92-1.22,2.7-0.5,3.62c1.35,1.74,4.3-2.72,5.94-4.73c1.68,1.48,3.85,1.61,5.35,3.05c0,0.1-6.84,1.62-5.75,3.81
		c1.78,2.37,6.82-0.5,5.89-3.18c2.67,0.78,5.43,1.29,7.8,2.48c11.93,5.96,8.92-3.38,8.15,13.49c-0.18,3.92-3.65,3.87-5.84,5.64
		c-2.73,2.2-5.84,3.32-8.96,4.33c-7.57-2.06-5.14,0.58-19.43-1.11c-4.28-0.51-6.75,0.41-12.18-2.52
		c-12.7-6.84-11.67-13.89-17.52-13.89c-2.83,0-1.82,1.94-5.84,1.61c-4.43-0.36-8.76-1.31-12.78-3.32c-4.83-2.42-5.11-2.93-7.35-7.85
		c-1.91-4.19,0.2-6.48,0.91-7.85c5.21-10.12,2.36-12.17,4.83-17.11c3.76,1.25,6.52-4.83,6.85-7.35c0.64-4.89,3.33-4.45,2.42,0.1
		c-3.36,2.52-2.05,3.28,1.11,6.44c-1.78,0.89-2.42,1.2-1.81,2.42c1.52,3.8,7.41,8.47,15.4,7.05c1.61-0.29,3.12-0.7,4.53,0.2
		c2.86-2.08-0.06-10.44,4.63-13.79C654.84,534.33,655.57,533.95,661.92,530.53z M634.24,540.59c9.78,3.56,12.02,1.27,13.89,2.52
		c-0.4,3.22,0.28,3.4-11.17,2.01c-1-0.12-2.11-0.7-2.82-1.81C634.24,542.5,634.34,541.7,634.24,540.59z M674.91,398.15
		c-0.62-3.12,3.64-0.2,4.73,0.81c-0.42,6.27-1.41,8.06,0.4,12.28c1.73-3.46-0.4-2.56,3.42-10.47c0.95,0.53,6.44,3.07,8.15,3.32
		c5.02,0.74,7.62,3.55,14.3,6.34c6.63,2.77,7.23,2.24,4.93,4.13c-4.61,3.79-7.26,5.08-3.42,6.64c2.09,1.05-0.75,4.56-3.22,10.67
		c-1.91,4.73-11.04,10.74-13.69,11.68c-1.9,6.66-5.32,14.55-9.56,19.43c1.72,1.37,1.37,0.73-0.4,4.13
		c-6.79,13.05-10.96,15.12-10.77,18.93c0.09,0.54-6.3,14.6-6.34,14.7c-4.37,9.78-2.25,8.75-3.22,11.68
		c-2.11,10.88-2.8,12.33-1.61,14.7c1.5,2.99-5.85,4.09-6.74,5.94c-0.85,1.75-0.53-0.03-3.32,6.95c-5.74-0.6-11.07-1.31-15.7-4.63
		c0-9.7,6.01-26.14,6.74-31.71c6.97-52.63,7.42-63.91,23.15-75.4c1.26,1.57,0.95,1.82,2.52-1.31
		C669.07,420.56,676.29,412.87,674.91,398.15z M860.95,78.72c0.36,0,0.16,0.48,0,0.81C860.62,78.88,860.75,78.92,860.95,78.72z
		 M825.21,71.88c1.41,0.4,1.41,0.4,2.21,2.21c-2.03,0.68-1.92,0.59-1.23,2.35c-0.36,0.09-0.76,0.18-1.39,0.27
		C825.11,75,824.4,73.39,825.21,71.88z M823.8,83.56c0-0.1,0-0.2-0.1-0.3C823.7,82.76,824.26,83.1,823.8,83.56z M821.08,121.91
		c-0.75-6.36,0.33-10.83-0.5-16.41c-0.19-2.28,1.31-11.1,3.62-14.4c1.08-1.54,1.86-9.77,2.92-13.99c3.43,0.49,2.2,3.38,1.91,24.26
		c-0.2,0.7-1.71,0.7-1.31,1.91c0.64,0.24,5.78-3.09-2.11,9.06c0.38,0.29,0.95,0.77,0.72,1.52c2.83,0.31,1.53-4.8,4.21-7.16
		c0.59-0.59,0.3-7.45,0.3-7.55c4.46,2.73,3.64,4.13,3.02,8.36c-0.56,3.82-0.5-0.08-0.5,15.4c-3.12,3.74-1.73,6.24-4.43,6.24
		c-0.91-0.3-1.12,0.48-0.5,1.02c-1.37,2.28-10.94,9.25-12.99,10.96c-2.09,1.74-2.11,1.71-2.62,4.53
		c-5.24,2.93-19.14,7.41-20.94,5.84c0.81-3.72-1.21-7.25-1.71-11.07C791.42,140.18,810.3,134.57,821.08,121.91z M788.97,137.01
		c-1.31-2.94-2.38-9.29-2.92-12.48c-1.6-9.45,4.03-19.28,4.73-20.94c1.07-2.53-0.15-1.53,6.74,0.3c4.32,1.15,9.54-2.44,8.25-8.46
		c0.6-1.01,1.01-1.81,2.32-1.71c-0.1,11.78,0.1,23.56-0.1,35.33c-5.9,2.36-10,2.99-13.19,6.34
		C794.1,136.15,790.18,136.85,788.97,137.01z M787.46,153.32c-1.95-3.29-2.19-3.78-1.51-11.27c0.91,1.31,1.72,2.11,2.01,3.02
		C790.65,153.49,788.97,152.89,787.46,153.32z M808.8,87.98c0-0.19,0-0.2,0.2-0.2C808.9,87.88,808.9,87.88,808.8,87.98z
		 M825.91,44.09c-0.16,0.08-0.31,0.1-0.47,0.16C825.49,43.94,825.48,43.58,825.91,44.09z M820.48,36.14c0.99-0.5,0.9,0.41,0.6,0.7
		C820.27,37.66,819.37,36.69,820.48,36.14z M814.13,36.64c0.7,0.7,1.41-0.2,1.71,0.7c-0.1,1.31-0.81,2.01-2.21,1.81
		c-1.01-4.53-1.01-3.83-5.64-4.53C814.37,34.29,813.26,34.02,814.13,36.64z M807.89,29.09c-0.36,0.18-0.39,0.32-0.7,0
		C807.73,28.82,807.62,28.82,807.89,29.09z M808.09,43.39c0.2,0.1,0.2,0.4,0.4,0.7C799.59,44.09,805.44,42.12,808.09,43.39z
		 M805.07,45.91c-0.5,0.3-1.01,0.4-1.41-0.3C804.27,45.2,804.67,45.4,805.07,45.91z M803.97,30.7c-1.31,0.65-1.04,0.91-1.41-0.2
		C803.77,30.5,803.97,29.89,803.97,30.7z M798.93,42.99c-1,0.3-1.11,0.3-1.21-2.15C798.63,41.34,798.74,42.21,798.93,42.99z
		 M797.42,40.47c0.28,0.28,0.13,0.2,0,0.2C797.42,40.67,797.42,40.57,797.42,40.47z M800.34,44.39c-1.31,1.31-2.62,2.01-4.33,2.21
		C798.03,45,798.03,45,800.34,44.39z M790.88,38.05c1.51,0.1,1.71,2.01,3.62,2.21c-1.01,0.5-1.41,0.81-2.01,1.11
		C792.16,40.3,789.47,38.05,790.88,38.05z M795.31,48.93c-1.51,0.81-3.02,1.51-4.53,2.21C791.58,48.82,793.4,48.72,795.31,48.93z
		 M786.25,53.86c2.35-1.57,1.01,1.01,0,0.5C786.25,54.26,786.15,53.96,786.25,53.86z M784.44,49.43c-0.7,0.4-1.11,0.6-1.71,0.91
		C782.83,49.33,783.03,48.82,784.44,49.43z M781.42,36.34c0.78-0.78,0.67-0.28,1.71,1.81C780.49,38.95,779.42,38.14,781.42,36.34z
		 M779.5,50.74c-0.96,0.32-0.76,0.64-1.11-0.4C779.41,50,779.16,50.04,779.5,50.74z M778.81,54.76c0.05,0.42-0.14,0.6-0.61,0.6
		C778.2,55,778.38,54.72,778.81,54.76z M778.8,24.26c-0.81,0.2-1.51,0.81-2.32,0C777.29,23.36,777.99,23.86,778.8,24.26z
		 M775.48,25.47c0,0.26,0.05,0.23-0.2,0.1L775.48,25.47z M775.48,31.91c1.89,3.47,1.73,2.62,1.01,3.83
		C773.43,33.3,773.29,34.54,775.48,31.91z M776.18,60.6l0.2-0.1C776.38,60.76,776.44,60.73,776.18,60.6z M773.06,59.09
		c0.2,0.1,0.3,0.3,0.4,0.4c0.7,0.7,0.7,0.7-0.09,1.4c0.01-0.46,0.09-0.94,0.09-1.4C773.26,59.5,772.86,59.7,773.06,59.09z
		 M771.45,27.68c0.76,0.51,0.76,0.2,0.1,1.51C770.69,28.62,770.62,28.93,771.45,27.68z M769.74,55.57c0,0-0.2,0.3-0.3,0.5
		C767.27,56.07,768.22,53.3,769.74,55.57z M769.74,58.79c-0.38,0.03-0.56-0.2-0.59-0.59C769.32,58.37,769.55,58.6,769.74,58.79z
		 M767.73,46.91c0-0.24-0.1-0.79,0.5-0.5C770.29,47.23,768.46,48.75,767.73,46.91z M767.32,33.12c0.93-1.42,1.69-0.11,0.7,0.7
		C767.13,34.27,767.26,33.25,767.32,33.12z M766.92,44.29c0.18,0.64,0.44,1.28,0.64,1.92C766.86,45.81,766.46,45.23,766.92,44.29z
		 M764.71,50.74c0.2-0.2,0.5-0.3,0.7-0.5c0,0.3,0.1,0.6,0.1,0.91C765.51,51.61,764.16,51.83,764.71,50.74z M764,33.02
		c0.79,0.79-0.42,1.27-0.6,1.21C762.94,34.23,763.49,33.71,764,33.02z M761.59,56.98c0.1,0,0.2,0.1,0.3,0.2
		C761.33,57.44,761.59,57.33,761.59,56.98z M760.38,44.9c1.53,0,0.61,2.79-1.51,1.81C759.07,45.7,759.57,45.1,760.38,44.9z
		 M759.87,62.92c0,2.46-0.74,0.34-0.2-0.2C759.77,62.82,759.87,62.82,759.87,62.92z M758.87,70.87c0.35,0.35,0.27,0.23,0.1,0.4
		C758.7,71,758.52,71.22,758.87,70.87z M756.95,49.53c0-0.2,1.35,0.37-0.5,1.61C755.97,51.14,756.74,49.81,756.95,49.53z
		 M757.16,59.39c0,0.95-0.5,0.4-0.7,0.3c0.1-0.2,0.2-0.4,0.3-0.6C756.95,59.19,757.16,59.29,757.16,59.39z M737.43,110.33
		c9.03-10.83,8.47-10.02,8.66-10.07c2.62-1.02,2.77-4.12,3.83-5.94c4.63-8,3.49-13.56,10.47-19.23c1.2-3.99,0.84-2.7,0.5-6.44
		c0-1.48,1.24,1.21,1.71,2.62c2.02,0.63,4.74,9.09,9.32,5.93c-0.95,4.49-0.5,7.74,4.07,10.28c-4.96-9.91-1.31-4.01-3.02-10.27
		c-0.83,0-0.98-0.09-1.01-0.09c0-2.07,0.52-1.96-2.62-0.92c-12.48-12.48-8.06-13.85-2.01-19.43c0.87,0.1,1.45,0.56,1.76,1.31
		c-3.81,0,0.51-0.42-6.9,5.64c0,1.31,0.6,2.42,1.71,3.32c0.99-1.16-1.32-3.03,1.31-3.32c1.51,1.11,0.7,3.02,1.31,4.63
		c1.11-2.11,1.11-3.93,0.1-5.84c0.5-0.7,1.11-1.51,1.81-2.42c1.71,2.84,1.81,2.01,1.31,3.52c-2.85,4-0.76,3.87-2.32,5.94
		c0.94,1.41,4.33,2.15,5.03,0.4c0.65-1.62-1.56-2.2-2.21-3.02c-1.14-1.14,0.12-3.14,1.51-2.62c2.55,1.27-1.62-3.25-1.89-5.43
		c3.7,2.18,3.51,2.22,3.51,2.01c1.94,2.35,0.87,7.83,2.91,8.85c0.81-0.3,0.3-1.71,1.61-1.71c3.64,3.64,2.17,0.85,1.31-2.32
		c4.21-10.94,17.83-12.97,21.54-17.82c0.61-1.23,3.52,2.47,7.25,0.2c-0.3-0.4-0.7-0.7-1.21-1.41c13.44,0,17.68-2.28,18.53-2.31
		c0.05,0.41-0.15,0.6-0.61,0.69c-0.5,0.4-0.91,1.11-1.51,1.21c-6.99,1.64-8.5,1.67-10.67,0.7c3.23,3.23,1.68,1.49,1.61,4.93
		c-0.17,8.5,1.97,10.01-0.91,11.98c-3.42,2.34-1.56,5.14-0.3,10.57c0.76,3.26,1.89,7.5-1.91,6.64c-3.34-0.75-2.9-0.41-4.43-2.32
		c-0.67,1.35-1.34,1.28-0.2,3.12c0.69,1.12,2.01,0.7,3.12,0.81c-0.36,5.05-0.52,4.23-6.14,5.03c-0.5,0.1-1.01,0.5-0.81,1.21
		c1.31,1.21,2.42-0.2,3.62-0.1c1.21,1.81,1.31,2.11,0.3,3.32c-3.37,3.37-1.83,4.25-2.21,6.54c-0.42,4.66-6.83,3.79-9.36,2.82
		c-6.61-2.53-6.85-5.16-8.25-3.52c2.66,4.57,2.98,2.16-0.6,10.87c-6.02,14.63,0.46,3.86-3.83,15
		C761.43,100.53,734.37,113.39,737.43,110.33z M716.99,253.89c-0.69,0.81-1.11,0.81-2.11-0.4c0.7-0.91,1.31-1.81,2.21-2.82
		C717.98,251.56,718.99,251.54,716.99,253.89z M755.95,276.34c-10.02-4.65-8.79-4.23-7.45-6.64
		C758.63,274.92,758.03,273.01,755.95,276.34z M761.59,279.46c-0.61-3.98-0.09-3.23-2.11-1.61c-2.01-0.91-2.01-0.91-0.6-3.42
		C763.5,276.92,763.37,275.89,761.59,279.46z M786.05,202.55c-9.55,55.72-23.94,63.7-21.24,69.86c0.49,1.11-0.91,2.32-2.11,1.91
		c-1.51-0.5-3.02-1.21-4.53-1.81c4.23-5.64,2.72-16.51-2.92-18.72c3.72,10.87,2.32,10.47,1.51,18.02
		c-12.79-6.14-7.37-5.79-17.82-10.77c-6.37-3.04-10.83-6.17-25.37-15.3c-2.85-1.79-2.83,0.56-1.61-10.57
		c6.42-58.37-6.04-24.46,1.71-85.17c1.05-8.22,12.8-34.09,20.84-36.24c5.87-1.57,12.16-4.18,19.13-2.42
		c10.82,2.74,11.45,2.79,13.31,4.27c-3.11,0.26-7.13-3.12-11.29-0.85c-1.1,0.71-0.51-0.35-1.91-0.5
		c-7.09,2.36-18.83,16.1-22.45,29.29c-4.22,15.38-1.56,33.59,10.97,43.09c0.63,0.31,0.01,0.87-0.5,2.42c1.51,1.31,2.52-0.3,3.52-0.2
		c7.94,4.54,9.9,3.66,15.5,8.15c16.51,13.26,12.71,8.56,22.25,5.23C787.75,200.6,786.46,200.88,786.05,202.55z M872.72,98.66
		c-2.5,16.52-3.72,16.91-5.23,17.82c-1.09,13.84-1.21,18.23-3.93,22.25c-3.99,7.98-14.28,11.5-15.1,15
		c-0.16,0.96-5.23,4.56-10.17,8.86c-14.91,12.99-11.65,12.25-14.9,14.19c-29.09,19.91-28.55,18.23-40.87,21.85
		c-13.45,3.95-0.93,9.09-21.85-5.03c-9.45-6.38-18.94-28.99-19.13-37.35c-0.06-2.5-2.82-3.07-2.82-0.2c0,5.13,1.88,19.86,9.84,30.55
		c-1.96,0.79-8.69-6.02-11.65-11.93c-11.55-23.11,4.97-53.48,17.84-59.1c0.53,2.21,13.03-2.3,24.95,12.69
		c-0.2,2.52-0.3,2.51,0.5,3.83c3.19,5.22,0.65,12.86,3.72,19.73c-1.87,3.26-1.85,3.46-3.02,4.03c-4.18,2.04-16.04,7.91-14.8,12.58
		c5.52-1.38,3.46,0.25,11.68-8.66c22.32-7.44,16.69-5.31,24.16-7.85c3.83-1.3,7.33-3.07,11.07-4.33c19.92-6.73,12.65-2,32.92-16.81
		c0.9-0.75,3.41-0.43,4.03-5.44c3.34-26.89-4.82-0.13,8.76-40.87c0.69,6.71-4.88,12.79-2.92,18.12c0.53-0.92,5.6-14.87,7.65-27.18
		c1.81,0.4,2.82,1.61,3.62,2.82c-0.5,0.91-0.91,1.61-1.11,2.32c-3.01,14.28-7.8,20.76-6.64,25.37c1.4-0.31,1.54-3.84,4.83-12.28
		c4.08-10.47,2.23-10.5,3.83-13.49c4.53,2.36,3.82,4.45,3.22,8.96c-1.28,9.66-0.64,2.22-8.66,22.55c-0.72,1.83,0.72,1.95,1.01,1.11
		c6.68-11.78,0.46-4.7,7.65-17.11C872.22,96.44,872.94,97.25,872.72,98.66z"/>
	<path d="M687.9,450.39c0.02-0.01,0.1-0.08,0.1-0.1C687.85,450.24,688.03,450.26,687.9,450.39z"/>
	<path d="M708.84,348.82l-0.1-0.1C708.58,348.87,708.54,348.82,708.84,348.82z"/>
	<path d="M712.36,324.05c1.91-0.1,3.72-1.11,5.74-0.3c-2.21,2.11-4.33,3.22-9.16,4.53c0-2.96,1.94-7.77,1.41-7.25
		c0.15,0.15-0.46,0.47-0.6,1.01c-0.6,2.22-1.21,4.43-1.91,6.85c-5.39,1.95-11.32,3.65-16.11,4.89c3.8-0.81,8.89-1.86,15.51-3.18
		c-0.09,3.14-3.66,18.2-3.83,18.93c-10.06,2.85-26.18,4.65-31.51,5.34c6.2,0.43,10.93,0.01,29.6-3.72
		c3.62-1.21-1.72,7.97-3.62,12.89c-1.49,3.84,1.3,3.16-1.31,9.87c-5.77,14.84-12.87,17.53-9.76,18.42
		c5.13-5.74,8.77-12.45,11.07-19.83c1.7-5.46-0.86-5.49,1.31-9.87c3.31-6.66,3.71-9.44,4.93-11.88c1.29-1.01,9.06-2.28,0.4-1.71
		c0-2.37-0.76,2.61,3.62-18.93c1.74-0.87,6.05-2.57,9.16-4.13C724.03,322.6,712.08,320.19,712.36,324.05z"/>
	<path d="M691.71,333.78C676.69,336.97,681.73,336.37,691.71,333.78L691.71,333.78z"/>
	<path d="M158.28,343.38l0.1,0.1C158.42,343.29,158.44,343.34,158.28,343.38z"/>
	<path d="M152.24,363.72c0.25-0.2,0.16-0.1-0.1-0.1L152.24,363.72z"/>
	<path d="M189.99,327.17c4.08-3.2-2.71-5.61-5.54-1.01c1.82,0.3,4.2-2.4,5.84-1.21c-1.61,2.52-4.73,4.63-8.05,5.74
		c-0.7-3.02-0.1-5.94-0.2-8.86c-2.97,8.92,2.93,8.44-5.94,12.68c-18.58,8.89-17.48,7.95-17.69,8.82
		c13.75-4.39,22.32-11.73,22.32-8.92c0,0.58,0.03,16.39-0.5,18.52c-4.5,2.25-18.71,7.64-27.18,10.17c-1.73,0.52-2.2,2.64,26.38-8.36
		c2.84,1.06-3.22,12.58-1.31,17.52c1.89,4.88-2.67,17.78-5.84,22.75c-1.2,1.89-0.75,2.5-0.5,3.62c10.99-18.54,6.44-28.71,7.05-31.61
		c0.9-4.31,1.91-8.66,2.92-13.29c6.08-3.47,7.5-4.06,0-1.41c-0.28-1.95-0.47-16.75,0.3-19.83
		C183.06,331.89,185.29,330.85,189.99,327.17z"/>
	<path d="M164.72,259.63c-3.34,6.68,1.83,1.15-14.5,35.23c-1.66,3.45-0.91,2.43-0.91,4.53
		C153.53,295.17,166.24,262.88,164.72,259.63z"/>
	<path d="M705.51,255.5c-1.58,0-0.95,3.16-17.92,27.38c-9.74,13.9-4.68,12,16.91-23.96C704.8,258.43,705.86,256.54,705.51,255.5z"/>
	<path d="M372.5,120.6c-1.19,2.93-0.84,5.94-1.01,8.96c-0.61,11.15,1.73,3.78-1.91,11.07c-0.61,1.21,0.95,2.37,1.81,0.91
		c2.25-3.84,2.74-9.45,1.91-13.79c-1.1-5.77,3.83-9.56-1.81-15c-0.14-0.14-0.76-0.5-1.31-0.5
		C369.48,114.36,374.41,115.9,372.5,120.6z"/>
	<path d="M182.34,264.76c-0.3,0.5-0.6,0.91-0.7,1.31c-3.24,18.34-3.59,18.74-2.42,19.13C181.38,285.91,184.78,276.37,182.34,264.76z
		"/>
	<path d="M721.92,263.15c-1.38,1.38,0.22-2.19-7.25,17.72c-0.92,1.84,1,3.14,2.01,1.11C722.1,274.11,721.16,268.87,721.92,263.15z"
		/>
	<path d="M210.83,354.96c6.67,6.53,9.66,11,14.19,18.12C223.66,361.73,197.25,341.67,210.83,354.96z"/>
	<path d="M729.67,351.74c2.54,5.87,4.81,4.19,13.99,26.07C745.39,374.37,734.94,355.25,729.67,351.74z"/>
	<path d="M724.54,264.66c-1.96-1.97-2.29,11.08-7.45,28.19C717.09,300.67,724.83,264.95,724.54,264.66z"/>
	<path d="M185.46,265.56c-1.65,1.93-1.31,3.13-1.31,15.4c0,12.42-0.6,8.02-0.6,14.29C185.39,293.79,185.74,266.69,185.46,265.56z"/>
	<path d="M213.64,274.32c-0.49,0.98,1.06,2.79,1.31,17.11C218.26,284.52,213.64,270.17,213.64,274.32z"/>
	<path d="M749.1,295.77c2.48-3.63,3.06-13.14,2.42-18.02c-1.52,1.85-1.01,6.2-1.41,9.16C749.94,289.4,749.1,292.6,749.1,295.77z"/>
	<path d="M221.7,394.32c-0.08-0.1-12.68-11.41-12.78-11.48C209.86,386.01,219.43,395.83,221.7,394.32z"/>
	<path d="M735.81,398.45c0-1.07,2.01,1.88-9.97-14.09C726.25,388.36,732.92,396.71,735.81,398.45z"/>
	<path d="M223.21,276.94c-0.3,2.21,0.5,5.34,2.32,8.46C225.02,282.58,224.62,279.76,223.21,276.94z"/>
	<path d="M760.38,292.24c0.3-3.42-0.1-6.24-0.81-9.56C758.97,286.3,759.17,288.42,760.38,292.24z"/>
	<path d="M685.28,305.13c1.8,1.8,4.45,0.88,6.04-0.6c-1.21-0.7-2.11,0-3.02,0.2C687.39,304.93,686.49,304.93,685.28,305.13z"/>
	<path d="M154.75,312.38c-0.69,1.38,2.93,1.2,5.54-1.41C159.15,310.21,161.13,310.13,154.75,312.38z"/>
	<path d="M182.24,315.7c-0.1,2.01-0.1,4.03-0.2,6.04C182.94,319.83,182.24,317.71,182.24,315.7z"/>
	<path d="M183.04,306.54c0,4.81-0.05,4.43,0.1,4.43C183.14,306.05,183.19,306.54,183.04,306.54z"/>
	<path d="M365.15,128.15c-0.4,0.1-0.91,0-1.21,0.2C361.16,130.21,363.75,132.35,365.15,128.15z"/>
	<path d="M710.45,320.92c0.78-0.8,0.51-1.84,0.7-2.61C710.3,319.07,710.43,319.99,710.45,320.92z"/>
	<path d="M711.35,316.81c-0.1,0.5-0.2,1.01-0.3,1.41C711.75,317.91,711.55,317.41,711.35,316.81z"/>
	<path d="M713.47,309.86c0.17,0,0.09-0.53,0-0.81C713.57,309.05,713.14,308.87,713.47,309.86z"/>
	<path d="M716.28,299.39c0.17,0,0.1-0.62,0-0.91C716.12,298.48,716.19,299.1,716.28,299.39z"/>
	<path d="M152.04,363.72c-0.2,0-0.43,0.03-0.55,0.04C151.33,363.86,151.59,363.72,152.04,363.72z"/>
	<path d="M151.48,363.76c0.02-0.01,0.02-0.02,0.05-0.04C151.33,363.77,151.36,363.77,151.48,363.76z"/>
	<path d="M712.76,312.68c0.17,0,0.09-0.53,0-0.81C712.87,311.87,712.43,311.69,712.76,312.68z"/>
	<path d="M158.28,343.48c-0.44,0-0.81-0.18-0.81,0.4C158.11,343.89,157.89,343.48,158.28,343.48z"/>
	<path d="M708.94,348.92c0.3,0,0.6,0,1.01-0.1C709.44,348.21,709.14,348.52,708.94,348.92z"/>
	<path d="M860.74,546.23c0.08,0.16,0.03,0.06-0.04-0.13C860.74,546.25,860.74,546.38,860.74,546.23z"/>
	<path d="M714.88,304.42c0.13-0.13,0.14-0.06-0.1-0.3C714.77,304.22,714.88,304.32,714.88,304.42z"/>
	<path d="M714.27,306.84l-0.2,0.1C714.33,307.32,714.27,307.37,714.27,306.84z"/>
	<path d="M711.96,314.59c0.2,0.2-0.01,0.41,0.2,0.2C712.06,314.69,712.06,314.69,711.96,314.59z"/>
	<path d="M704.1,269.89c-0.2,0.1-0.2,0.2-0.2,0.2C703.9,269.99,704,269.99,704.1,269.89z"/>
	<path d="M735.41,266.57c0.1-0.1,0-0.2,0-0.3C735.41,266.37,735.41,266.47,735.41,266.57z"/>
	<path d="M193.21,142.14c-1.34-0.03-1.84,0.81-0.1,1.51c4.55,1.2,12.15-0.64,13.69-3.72C201.87,140.91,199.07,142.29,193.21,142.14z
		"/>
	<path d="M240.72,151.2c-11.77,0.17-10.8,0.38-11.07,1.21c2.21,2.11,5.03,1.63,7.75,1.51C240.64,153.78,241.7,151.19,240.72,151.2z"
		/>
	<path d="M283.21,166.51c-3.83-1.33-4.94-0.34-6.44-2.01c-0.84-0.84-3.78-0.33-3.89-0.31c-0.87-1.73-4.38-2.51-6.79-2.41
		c0.5,1.25-0.27,0.59,4.43,3.12c1.19,0.53,2.45-0.54,2.37-0.7c0.01,0,0.02,0.01,0.03,0.01c0,0.01-0.01,0.01-0.01,0.03
		c0.01,0.02,0.02,0.04,0.03,0.06c0-0.03,0-0.06,0-0.08c0.25,0.22-0.53,2.19,1.41,2.19c3.58,0.21,5.46,2.94,8.56,2.11
		C284.06,168.21,284,166.78,283.21,166.51z"/>
	<path d="M387.4,154.83c-6.17,1.99-8.12,0.61-9.76,1.71c-1.69,1.69,7.42,1.28,11.98-1.01C389.01,155.13,388.33,154.53,387.4,154.83z
		"/>
	<path d="M216.46,177.18c-1.12-4.32-5.44-10.15-5.44-6.74C211.03,172.26,213.66,176.29,216.46,177.18z"/>
	<path d="M291.86,151c-8.36-5.02-7.71-4.77-7.95-4.53C281.82,148.56,295.74,154.88,291.86,151z"/>
	<path d="M222.91,203.65c-3.45,0.52-5.93,7.43-4.93,10.97C219.85,213.28,217.48,213.16,222.91,203.65z"/>
	<path d="M208.41,238.59c1.17,2.65,4.63,10.76,4.63,6.74C212.78,243.43,210.96,237.63,208.41,238.59z"/>
	<path d="M293.48,159.06c-2.82-1.81-8.66-3.93-10.67-3.93C284.31,156.74,288.44,158.25,293.48,159.06z"/>
	<path d="M200.66,210.9c-1.01-2.01-2.6-3.96-4.83-4.43c1.11,2.52,2.82,3.83,4.23,5.44C200.36,211.4,200.76,211,200.66,210.9z"/>
	<path d="M200.46,195.8c-0.1,0.6-0.3,0.91-0.2,1.21C203.98,203.64,205.78,200.5,200.46,195.8z"/>
	<path d="M169.95,234.66c2.66-8.23,1.63-9.98-1.11,0.4C169.65,235.57,169.86,234.96,169.95,234.66z"/>
	<path d="M208.61,204.36c0.02,0,0.05,0,0.07-0.01C208.59,204.21,208.61,204.26,208.61,204.36z"/>
	<path d="M212.03,206.77c1.35-1.16-1.64-2.65-3.35-2.43C209.59,205.6,210.86,206.19,212.03,206.77z"/>
	<path d="M205.59,234.46c0.1,0.01,0.18,0.03,0.28,0.04C205.65,234.31,205.72,234.33,205.59,234.46z"/>
	<path d="M208.31,238.69c0.72-3.6-0.46-3.93-2.44-4.19C207.23,235.51,207.74,237.15,208.31,238.69z"/>
	<path d="M397.16,133.59c1.31-1.11,1.41-1.41,1.11-3.22C396.76,131.27,396.76,131.27,397.16,133.59z"/>
	<path d="M387.7,144.16c1.31,1.51,2.11,2.52,4.33,2.92C390.72,145.27,389.92,144.26,387.7,144.16z"/>
	<path d="M244.75,150.5c1.57,0.29,2.67-0.18,3.46-1.43C245.77,148.8,245.54,148.93,244.75,150.5z"/>
	<path d="M248.21,149.07c0.13,0.02,0.16,0.03,0.15,0l0.02,0.02c0.04-0.07,0.03-0.03-0.1-0.1
		C248.25,149.02,248.23,149.04,248.21,149.07z"/>
	<path d="M185.26,165.3c1.11,1.11,1.71,1.01,2.62-0.5C186.77,164.19,185.96,164.29,185.26,165.3z"/>
	<path d="M172.07,223.08c-1.28-0.73-1.67,2.5-0.91,3.93C171.67,225.6,172.27,224.39,172.07,223.08z"/>
	<path d="M262.87,160.06c-0.5-0.2-1.01,0-1.51,0.1C264.24,163.36,265.31,160.47,262.87,160.06z"/>
	<path d="M311.29,164.59c1.61,0.5,1.61,0.5,3.32,0.2C313.61,163.69,313.61,163.69,311.29,164.59z"/>
	<path d="M321.66,165.1c-0.7,0.22-1.41,0.5-2.11,0.81c0,0.2,0,0.3,0,0.4c2.73,0,2.37,0.27,3.02-0.7
		C322.77,165.3,322.27,164.91,321.66,165.1z"/>
	<path d="M372.3,157.04c1.21,0.5,2.21,0.5,3.32-0.1C374.11,155.84,374.11,155.84,372.3,157.04z"/>
	<path d="M226.03,202.04c-1.71,0.5-1.71,0.5-2.01,2.42C224.54,204.46,223.54,205.35,226.03,202.04z"/>
	<path d="M218.48,179.59c1.02,0,0.16-3.19-1.31-1.51C217.17,178.83,217.63,179.71,218.48,179.59z"/>
	<path d="M223.61,149.9c1.11,0.5,1.11,0.5,2.62,0C224.72,148.99,224.72,148.99,223.61,149.9z"/>
	<path d="M249.89,147.78c-0.68,0.1-1.27,0.49-1.49,1.26C250.94,150.07,251.65,147.53,249.89,147.78z"/>
	<path d="M300.32,161.27c1.71,0.2,3.02,0.6,4.63,0C303.24,160.67,302.03,160.57,300.32,161.27z"/>
	<path d="M210.32,138.92c1.01,0.4,1.71,0,2.21-0.81C211.43,138.02,211.43,138.02,210.32,138.92z"/>
	<path d="M208.43,204.12c-0.63-1.9-0.55-1.49-1.73-2.48C206.7,202.86,206.18,202.49,208.43,204.12z"/>
	<path d="M208.61,204.26c-0.21-0.17-0.21-0.19-0.1,0.1L208.61,204.26z"/>
	<path d="M202.97,215.33c0.2,0.1,0.6-0.1,0.91-0.1C203.19,213.16,200.71,214.2,202.97,215.33z"/>
	<path d="M393.64,133.29c0-0.91,0-1.61,0-3.12C392.94,131.67,392.94,132.38,393.64,133.29z"/>
	<path d="M257.84,159.36c-0.4,0.3-0.1,0.81,0.5,0.81C259.91,160.16,258.91,158.64,257.84,159.36z"/>
	<path d="M205.59,231.94c-0.7,0.91-0.3,1.71,0,2.52C205.59,233.65,205.59,232.75,205.59,231.94z"/>
	<path d="M394.85,141.54c0,0.4,0.62,0.45,0.91-0.4C395.3,140.84,395.23,140.4,394.85,141.54z"/>
	<path d="M295.69,152.01c0,0.33-0.14,0.46,0.91,0.81C296.91,152.82,297.75,152.01,295.69,152.01z"/>
	<path d="M367.77,155.94c0.38,0.76,0.52,0.38,1.01-0.1C368.01,155.45,368.01,155.69,367.77,155.94z"/>
	<path d="M228.44,197.92c-0.4,0.6-0.7,1.01-1.41,2.11C228.74,199.53,229.15,199.02,228.44,197.92z"/>
	<path d="M195.73,181.91c0-0.2-0.2-0.4-0.6-0.81C193.88,182.97,195.95,182.81,195.73,181.91z"/>
	<path d="M393.84,125.63c-0.83,0-0.32,0.48-0.2,0.7c0.1-0.2,0.3-0.3,0.4-0.5C394.04,125.84,393.94,125.53,393.84,125.63z"/>
	<path d="M304.75,152.61c0-0.2-0.58-0.27-0.1,0.2C304.65,152.71,304.75,152.61,304.75,152.61z"/>
	<path d="M252.91,147.98c0,0.53-0.42,0.29,0,0.7C253.24,148.01,253.09,148.17,252.91,147.98z"/>
	<path d="M396.76,137.72c0,0.5,0.3,0.15,0.3,0C396.73,137.39,396.96,137.52,396.76,137.72z"/>
	<path d="M162,444.25c-1.84,1.11-4.23,6.07-4.23,11.38c1.74-0.87,5.2-10.48,5.44-11.27C162.81,444.35,162.3,444.15,162,444.25z"/>
	<path d="M147.1,546.93c3.41,2.73,2.83-10.26,2.32-10.77C148.3,536.16,148.13,539.71,147.1,546.93z"/>
	<path d="M195.93,418.18c-1.72-0.69-0.35-1.31-7.45,5.03C190.19,423.92,191.9,422.71,195.93,418.18z"/>
	<path d="M183.85,434.39c0-0.2-0.5-0.3-1.01-0.6C180.13,445.98,185.17,442.32,183.85,434.39z"/>
	<path d="M170.56,421.9c-0.82-2.06-3.81,0.13-1.01,2.62C170.36,423.61,170.86,422.91,170.56,421.9z"/>
	<path d="M153.44,477.17c1.61-1.61,2.32-2.72,1.31-4.83C153.75,474.05,153.85,475.26,153.44,477.17z"/>
	<path d="M154.45,467.61c-0.21,0.62-0.59,2.11,0.5,2.11C156.65,466.33,154.63,466.69,154.45,467.61z"/>
	<path d="M179.92,443.95c-0.3,1.21-0.3,1.21,1.11,3.12C181.63,444.96,181.63,444.96,179.92,443.95z"/>
	<path d="M150.22,533.95c0.1-0.91,0.3-1.81,0.4-3.02C149.32,532.24,149.32,532.24,150.22,533.95z"/>
	<path d="M153.04,478.78c-0.3,1.19-0.45,0.81-0.1,2.21C154.25,480.49,153.95,479.69,153.04,478.78z"/>
	<path d="M156.46,463.38c1.11-0.7,1.21-1.41,0.6-2.42C155.96,461.47,156.16,462.27,156.46,463.38z"/>
	<path d="M178.91,441.33c0-0.86-0.39-1.07-1.11-1.31c-0.42,1.26-0.11,0.58,0.5,1.81C178.61,441.53,178.91,441.43,178.91,441.33z"/>
	<path d="M153.44,520.66c0,0.31,0.5,2.06,0.5-0.91C153.52,519.75,153.44,520.26,153.44,520.66z"/>
	<path d="M187.07,424.32l-0.2,0.1C187,424.55,186.94,424.57,187.07,424.32z"/>
	<path d="M186.77,424.62c0.07-0.02,0.15-0.05,0.2-0.1C186.87,424.52,186.77,424.62,186.77,424.62z"/>
	<path d="M186.56,424.72c0.1,0,0.1,0,0.2-0.1C186.69,424.65,186.62,424.67,186.56,424.72z"/>
	<path d="M191.09,54.76l-0.2-0.1C190.97,54.74,190.9,54.72,191.09,54.76z"/>
	<path d="M195.12,63.62c-0.3-0.2-0.7-0.1-1.01-0.3c-0.6-0.5-1.11-1.01-1.61-1.41c1.8-4.2,5.16,0.5-1.55-7.18
		c-4.05-0.82,0.9-1.4-6.1,6.37c1.01,2.21,1.01,2.21,2.72,3.02c0.28-1.14-2.17-2.8,0.3-3.62c1.51,0.91,1.21,2.92,2.11,4.33
		c0.6-2.21,0.3-4.03-1.01-5.84c1.71-3.41,0.84-2.98,3.42-0.4c-0.44,1.33-1.54,3.59-1.21,4.93c0.52,2.07-1.02,3.51,3.52,3.02
		C196.12,66.39,196.95,64.54,195.12,63.62z"/>
	<path d="M220.59,50.54c4.24-2.92,8.82,2.82,11.38-1.01c-0.66-2.66-8.81-2.07-10.87-1.71c-1.71,0.4-1.91,0.6-3.83,3.02
		C218.48,51.14,219.58,51.34,220.59,50.54z"/>
	<path d="M221.9,55.37c1.78,1.34,1.99-0.26,4.13,0.81c1.01,0.4,2.01-0.1,3.12-0.81c0-0.91,0-1.71,0-2.52
		C228.04,52.15,224.72,53.15,221.9,55.37z"/>
	<path d="M202.67,81.24c-1.53-1.92-3.52-3.35-3.52-6.04c0-1.54-1.5-4.06-2.01-2.01C196.63,77.11,198.34,79.93,202.67,81.24z"/>
	<path d="M206.09,86.98c0.3,2.32,1.35,7.7,3.02,9.36C209.11,91.71,206.09,82.59,206.09,86.98z"/>
	<path d="M187.67,79.03c5.15-6.69,0.41-4.96-1.01,0.7C187.27,79.33,187.57,79.23,187.67,79.03z"/>
	<path d="M209.72,100.37c-1.76,1.94,0.88,4.08,0.5,2.21C210.12,101.78,209.92,101.07,209.72,100.37z"/>
	<path d="M214.05,87.58c-0.3-1.51-1.61-1.61-2.72-1.91C211.93,86.88,212.84,87.48,214.05,87.58z"/>
	<path d="M206.9,67.85c0.81-0.81,0.88-0.13-0.81-1.81C205.39,67.45,206.7,67.25,206.9,67.85z"/>
	<path d="M210.73,69.56c-0.5-0.4-0.91-0.7-1.61-1.21C209.52,69.76,209.52,69.76,210.73,69.56z"/>
	<path d="M210.42,105.6c0.1,0.2,0.4,0.3,0.5,0.4c0.4-0.81-0.17-0.79-0.4-0.91C210.52,105.3,210.32,105.5,210.42,105.6z"/>
	<path d="M214.15,87.48c0.1,0.2,0.2,0.3,0.3,0.5C214.85,87.48,214.45,87.48,214.15,87.48z"/>
	<path d="M202.17,573.21c4.99,0,6.98-9.22-0.91-2.11C200.86,571.5,200.7,573.21,202.17,573.21z"/>
	<path d="M742.36,131.78c-4.6,2.65-4.97,12.42,0.4,15.2C741.83,138.95,741.48,143.25,742.36,131.78z"/>
	<path d="M852.99,144.66c-5.1,4.02-9.18,4.32-11.38,8.36c2.26-0.75,2.45-1.88,6.14-2.92C854.34,148.25,855.79,142.8,852.99,144.66z"
		/>
	<path d="M768.93,127.55c-0.91-2.92-2.82-5.23-4.93-7.35c-0.7-0.7-1.11-0.7-2.32,0.1C763.39,124.13,768.93,128.74,768.93,127.55z"/>
	<path d="M779.71,181.61c-1.83-0.92-1.34-0.49-11.58-1.51C768.95,183.4,776.65,183.13,779.71,181.61z"/>
	<path d="M770.65,197.61c0.79,1.24,4.09,2.41,5.44,0.1C774.26,194.9,769.27,194.85,770.65,197.61z"/>
	<path d="M762.79,178.89c-0.4-2.82,0.6-4.93,1.01-7.25C761.59,172.62,759.96,176.29,762.79,178.89z"/>
	<path d="M777.89,168.62c-1.53,0-2.28,2.5,3.62,1.11C780.41,168.22,779.1,168.62,777.89,168.62z"/>
	<path d="M853.19,132.68c-1.51-2.32-1.81-2.52-3.42-2.11C851.58,132.68,851.58,132.68,853.19,132.68z"/>
	<path d="M858.73,116.98c-0.55,1.25-0.42,6.34,1.51-0.1C859.54,116.07,859.03,116.47,858.73,116.98z"/>
	<path d="M836.89,157.55c2.32-0.81,2.32-0.81,2.72-2.52C837.79,155.23,837.19,156.14,836.89,157.55z"/>
	<path d="M783.33,169.73c1.31,0.91,2.52,0.4,4.33-0.2C784.94,168.32,784.64,168.32,783.33,169.73z"/>
	<path d="M771.45,131.07c0.2,2.42,0.2,2.42,1.71,4.53C773.46,133.49,772.86,132.48,771.45,131.07z"/>
	<path d="M804.97,169.73c1.81,0.7,2.92-0.5,4.23-0.91C808.32,167.94,809.97,167.94,804.97,169.73z"/>
	<path d="M832.15,160.67c1.21,0.7,1.91,0.1,2.72-1.01C833.36,158.86,833.36,158.86,832.15,160.67z"/>
	<path d="M737.02,148.69c0.36,3.64,3.53,2.13,1.41,0C738.13,148.39,737.93,148.39,737.02,148.69z"/>
	<path d="M749.4,154.12c0.5,1.61,0.5,1.61,2.21,2.11C749.17,153.39,749.88,154.12,749.4,154.12z"/>
	<path d="M772.76,137.31c-0.2,1.61-0.3,2.52,0.91,3.02C774.27,139.23,774.17,138.32,772.76,137.31z"/>
	<path d="M766.22,172.35c1.41-0.4,1.91-1.11,2.72-2.32C767.32,170.23,767.02,171.14,766.22,172.35z"/>
	<path d="M854.91,118.89c0.5-1.21,0.5-1.21-0.6-2.72C854.6,117.28,854.7,117.98,854.91,118.89z"/>
	<path d="M745.08,150.7c-0.6,0.81,0.2,1.11,0.6,1.51C746.28,151.41,745.58,151.1,745.08,150.7z"/>
	<path d="M793.9,175.87c0.72,0.36,0.6,0,1.21-0.6C793.94,174.68,794.74,174.61,793.9,175.87z"/>
	<path d="M816.65,165.2c-0.72,0,0.97,1.32,1.21-0.1C817.86,164.61,817.13,164.96,816.65,165.2z"/>
	<path d="M855.31,112.85c0.4,0,0.3,0.22,0.3-1.21C855.21,111.64,855.31,111.4,855.31,112.85z"/>
	<path d="M857.02,126.84c-0.6,0.2-0.8,0.66-0.1,1.01C857.77,127,857.12,126.74,857.02,126.84z"/>
	<path d="M784.54,178.69c-0.2,0.1-0.2,0.4-0.3,0.5c0.2,0,0.4,0.2,0.5,0.1C785.31,178.72,784.64,178.59,784.54,178.69z"/>
	<path d="M789.87,177.38c0.36-0.36,0.19-0.1-0.1-0.1L789.87,177.38z"/>
	<path d="M799.44,172.95c-0.39,0.78,0,0.62,0,0.81C799.88,172.86,799.44,173.23,799.44,172.95z"/>
	<path d="M858.73,123.52l0.1,0.2C858.96,123.47,858.99,123.52,858.73,123.52z"/>
	<path d="M750.91,238.59c1.63,3.08,1.76,7.73,3.62,12.08c2.29,0.25,0.32-6.42-1.31-8.05C752.22,241.47,753.22,237.82,750.91,238.59z
		"/>
	<path d="M771.55,211c-2.73,1.37-6.97,7.63-5.13,9.46c1.42-0.89-0.36-1.72,6.34-9.26C772.16,211.1,771.75,210.9,771.55,211z"/>
	<path d="M717.19,225.4c-0.05,0.1-2.34,3.9-3.22,6.54C715.58,231.14,716.49,229.63,717.19,225.4z"/>
	<path d="M745.98,208.69c0.4,2.72,1.81,4.23,3.62,6.44C749.33,211.25,747.63,209.43,745.98,208.69z"/>
	<path d="M754.84,204.86c0.4-2.42-1.41-3.72-2.01-5.84C750.77,200.39,753.15,203.46,754.84,204.86z"/>
	<path d="M717.69,224.19c1.21-1.11,1.31-2.42,1.81-3.62C718.36,219.41,717.19,222.78,717.69,224.19z"/>
	<path d="M775.28,209.49c-2.36,2.36-2.71,4.61,1.21,0.2C776.08,209.09,775.58,209.09,775.28,209.49z"/>
	<path d="M759.67,209.39c0.5,1.31,0.5,1.31,2.11,2.32C761.89,210.2,761.89,210.2,759.67,209.39z"/>
	<path d="M751.82,219.16c0.2-0.5,0.5-0.91,0.4-1.01C751.55,216.81,749.13,216.91,751.82,219.16z"/>
	<path d="M777.89,208.38c2.05-1.03,1.81-0.66,1.81-1.81C778.68,206.57,778.98,206.2,777.89,208.38z"/>
	<path d="M757.26,206.37c-0.2,0.91,0.3,1.51,1.21,2.11C758.57,207.28,758.26,206.57,757.26,206.37z"/>
	<path d="M750.41,236.47c0.26,0,0.2,0.19,0.2-1.21C750.04,235.26,750.41,235.14,750.41,236.47z"/>
	<path d="M750.71,238.38l0.1,0.2C750.95,238.59,750.96,238.64,750.71,238.38z"/>
	<path d="M664.94,443.65c4.64-6.56,4.73-6.66,4.53-7.45c-0.47-1.89-6.49,3.73-7.25,9.97C662.45,446.39,662.4,447.24,664.94,443.65z"
		/>
	<path d="M637.86,524.99c-3.39,9.82-3.2,9.24-2.42,9.76c0.27,0.27,1.18-0.46,1.41-0.81C640.94,524.53,638.47,522.58,637.86,524.99z"
		/>
	<path d="M705.82,416.17c-1.77,0-6.42,3.38-7.75,4.53C701.28,420.7,706.74,417.83,705.82,416.17z"/>
	<path d="M690.21,436.5c2.81-4.77,1.12-13.02-1.71,1.61C689.51,437.21,690.01,436.9,690.21,436.5z"/>
	<path d="M686.59,449.99c0.55,0.09,0.94,0.18,1.31,0.28c0-5.24,0.32-5.85-1.01-6.02C686.18,446.06,686.59,447.98,686.59,449.99z"/>
	<path d="M680.95,415.66c0-1.69-3.8-0.63-1.51,2.32C680.55,417.57,681.05,416.77,680.95,415.66z"/>
	<path d="M686.08,441.84c0,1.59,3.41-0.99-0.7-3.52C685.78,440.02,685.88,440.93,686.08,441.84z"/>
	<path d="M654.47,466.2c1.91-1.31,1.91-1.41,1.41-4.03C655.5,462.87,654.15,465.43,654.47,466.2z"/>
	<path d="M656.39,459.76c1.71-1.21,1.71-1.21,1.21-2.72C656.39,458.04,656.39,458.04,656.39,459.76z"/>
	<path d="M639.78,522.07c1.01-1.41,1.01-1.41,1.11-3.12C639.57,520.36,639.57,520.36,639.78,522.07z"/>
	<path d="M652.76,470.53c1.21-0.6,1.31-1.31,0.81-2.32C652.76,468.82,652.36,469.42,652.76,470.53z"/>
	<path d="M659.71,453.61c0.91-0.5,1.21-1.21,0.7-2.21C659.31,452,659.21,452.71,659.71,453.61z"/>
	<path d="M685.18,436.4c0.63-0.31,0.17-0.89,0-1.41C684.04,433.85,684.48,437.1,685.18,436.4z"/>
	<path d="M646.02,510.59c0.7-1.41,0.74-0.61,0.5-2.52C645.34,510.67,645.4,510.59,646.02,510.59z"/>
	<path d="M696.25,420.9c-0.1,0.2-0.2,0.4-0.1,0.2C696.15,421.3,696.15,421.1,696.25,420.9z"/>
	<path d="M696.55,420.8c-0.1,0-0.2,0-0.3,0C696.35,420.9,696.45,420.8,696.55,420.8z"/>
	<path d="M799.03,60.1c4.41-1.96,9.55,4.56,11.17,1.31c0.23-0.68-0.25-1.75-1.31-2.01c-9.95-3.43-11.25-1.29-13.19,0.2
		C796.82,60.3,797.84,60.63,799.03,60.1z"/>
	<path d="M806.69,63.62c-5.39-1.12-8.9,2.11-6.04,2.11c3.78,0,1.34,1.74,5.84,0.7C806.77,65.57,807.55,63.62,806.69,63.62z"/>
	<path d="M779.71,100.67c0-13.8-3.18-8.12-0.7,2.42C780.01,102.38,779.61,101.47,779.71,100.67z"/>
	<path d="M764.71,78.02c-2.52,1.21-3.32,2.11-3.83,4.53C762.49,81.14,763.9,79.83,764.71,78.02z"/>
	<path d="M750.91,99.16c-0.4-0.1-0.91-0.4-1.01-0.3C746.2,102.57,749.26,103.8,750.91,99.16z"/>
	<path d="M778.3,107.01c0.1,0.91,0.1,1.71,0.2,2.62C779.71,108.82,779.71,108.52,778.3,107.01z"/>
	<path d="M754.24,98.35c-1.51-0.5-1.91,0.4-2.52,1.51C753.83,99.86,752.69,99.59,754.24,98.35z"/>
	<path d="M786.25,96.04c-0.6-2.21-0.6-2.21-2.52-2.92C783.83,94.63,785.34,94.83,786.25,96.04z"/>
	<path d="M785.65,76.61c-0.58-0.86-0.7-0.81-1.31-0.4c0.4,0.3,0.6,0.6,1.01,0.81C785.34,77.01,785.75,76.71,785.65,76.61z"/>
	<path d="M782.73,74.19c0-1.28-0.15-0.96-0.91-1.21c0.1,0.3,0,0.6,0.2,0.81C782.12,73.89,782.42,73.99,782.73,74.19z"/>
	<path d="M779,112.25c0.62,0,0.38,0.26,0.2-1.31C779.1,111.74,779.1,112.04,779,112.25z"/>
	<path d="M783.73,93.12c-0.1-0.2-0.1-0.3-0.2-0.5C783.13,93.12,783.43,93.12,783.73,93.12z"/>
	<path d="M776.18,87.68l-0.1-0.2C775.95,87.48,775.93,87.43,776.18,87.68z"/>
	<path d="M826.23,114.1c-0.86,0.3-1.53,0.8-1.82,1.67c-0.1,0.2,0.2,0.6,0.3,0.91C826.5,115.78,826.52,115.77,826.23,114.1z"/>
	<path d="M826.32,114.06h-0.1C826.22,114.13,826.25,114.08,826.32,114.06z"/>
<path fill="#e6e6e6" d="m206.8 163.6c0-5.1 4.1-9.2 9.3-9.2s9.2 4.2 9.2 9.2-4.1 9.2-9.3 9.2-9.2-4.1-9.2-9.2zm17.3-.1c0-4.5-3.5-8.2-8.2-8.2s-8.2 3.7-8.2 8.3c0 4.5 3.5 8.2 8.2 8.2s8.2-3.7 8.2-8.3zm-13 0c0-2.8 2.1-5.1 5.1-5.1 1.9 0 2.9.6 3.9 1.5l-1.4 1.7c-.8-.7-1.5-1.1-2.5-1.1-1.7 0-2.8 1.4-2.8 3.1s1.1 3 2.8 3c1.1 0 1.7-.5 2.5-1.1l1.4 1.4c-1.1 1.1-2.1 1.7-4 1.7-2.9 0-5-2.3-5-5.1z"/><path fill="#e6e6e6" d="m226.6 154.7h3.4l4.2 13.2 4.4-13.3h2.6l4.4 13.3 4.2-13.2h3.3l-6.2 18h-2.7l-4.4-12.8-4.4 12.8h-2.7z"/><path fill="#e6e6e6" d="m252.8 165.8c0-3.9 3.1-7 7.2-7 4.2 0 7.2 3.2 7.2 7s-3.1 7-7.3 7c-4 0-7.1-3.1-7.1-7zm11.3 0c0-2.3-1.7-4.3-4.2-4.3s-4.1 2-4.1 4.3 1.7 4.3 4.1 4.3c2.7.1 4.2-1.9 4.2-4.3z"/><path fill="#e6e6e6" d="m269.5 159.1h3.1v3c.8-2 2.4-3.4 4.8-3.3v3.2h-.2c-2.7 0-4.6 1.7-4.6 5.4v5.1h-3.1z"/><path fill="#e6e6e6" d="m279.1 153.9h3.1v11.1l5.6-6h3.8l-5.4 5.5 5.5 8h-3.5l-4.1-5.8-1.9 2v3.9h-3.1z"/><path fill="#e6e6e6" d="m291.7 165.8c0-3.9 3.1-7 7.2-7 4.2 0 7.2 3.2 7.2 7s-3.1 7-7.3 7c-4 0-7.1-3.1-7.1-7zm11.3 0c0-2.3-1.7-4.3-4.2-4.3s-4.1 2-4.1 4.3 1.7 4.3 4.1 4.3c2.6.1 4.2-1.9 4.2-4.3z"/><path fill="#e6e6e6" d="m308.2 167.6v-8.6h3.1v7.6c0 2.1 1.1 3.3 2.9 3.3s3-1.3 3-3.3v-7.6h3.1v13.4h-3.1v-2.1c-.8 1.3-2.1 2.3-4.2 2.3-3.1.2-4.8-1.8-4.8-5z"/><path fill="#e6e6e6" d="m323.9 168.8v-7.1h-1.7v-2.6h1.7v-3.7h3.1v3.7h3.6v2.6h-3.6v6.6c0 1.2.6 1.7 1.7 1.7.7 0 1.3-.2 1.9-.5v2.5c-.8.5-1.7.7-2.8.7-2.3 0-3.9-.9-3.9-3.9z"/><path fill="#e6e6e6" d="m333.2 154.7h3.2v15h9.4v2.9h-12.5v-17.9z"/><path fill="#e6e6e6" d="m356 172.5v-1.7c-.9 1.1-2.3 2-4.4 2-2.6 0-4.8-1.4-4.8-4.2 0-3 2.3-4.4 5.4-4.4 1.7 0 2.6.2 3.7.5v-.2c0-1.9-1.2-2.9-3.3-2.9-1.5 0-2.6.3-3.9.8l-.8-2.5c1.5-.7 2.9-1.1 5.1-1.1 4 0 5.9 2.1 5.9 5.7v8zm.1-5.6c-.8-.3-1.9-.5-3.1-.5-2 0-3.1.8-3.1 2.1s1.1 2 2.6 2c2 0 3.5-1.1 3.5-2.9z"/><path fill="#e6e6e6" d="m364.9 170.5v2.1h-3.1v-18.7h3.1v7.4c1-1.4 2.4-2.5 4.5-2.5 3.2 0 6.3 2.5 6.3 7s-3.1 7-6.3 7c-2.1 0-3.5-1.1-4.5-2.3zm7.7-4.7c0-2.6-1.7-4.3-3.9-4.3s-3.9 1.7-3.9 4.4c0 2.6 1.8 4.3 3.9 4.3s3.9-1.7 3.9-4.4z"/><path fill="#e6e6e6" d="m376.9 170.8 1.4-2.1c1.4 1.1 3 1.7 4.4 1.7s2.1-.5 2.1-1.5-1.3-1.4-2.8-1.8c-.1 0-.2-.1-.2-.1-2-.6-4.2-1.4-4.2-4s2.1-4.1 4.8-4.1c1.7 0 3.5.6 5 1.5l-1.2 2.2c-1.3-.8-2.6-1.3-3.8-1.3s-1.9.5-1.9 1.4 1.3 1.4 2.8 1.8c.1 0 .2.1.2.1 2 .6 4.2 1.5 4.2 4 0 2.9-2.2 4.2-5 4.2-1.9 0-4-.7-5.8-2z"/><path fill="#e6e6e6" d="m505.6 163.6c0-5.1 4.1-9.2 9.3-9.2s9.2 4.2 9.2 9.2-4.1 9.2-9.3 9.2-9.2-4.1-9.2-9.2zm17.4-.1c0-4.5-3.5-8.2-8.2-8.2s-8.2 3.7-8.2 8.3c0 4.5 3.5 8.2 8.2 8.2s8.2-3.7 8.2-8.3zm-13.1 0c0-2.8 2.1-5.1 5.1-5.1 1.9 0 2.9.6 3.9 1.5l-1.4 1.7c-.8-.7-1.5-1.1-2.5-1.1-1.7 0-2.8 1.4-2.8 3.1s1.1 3 2.8 3c1.1 0 1.7-.5 2.5-1.1l1.4 1.4c-1.1 1.1-2.1 1.7-4 1.7-2.9 0-5-2.3-5-5.1z"/><path fill="#e6e6e6" d="m525.4 154.7h3.4l4.2 13.2 4.4-13.3h2.6l4.4 13.3 4.2-13.2h3.3l-6.2 18h-2.7l-4.4-12.8-4.4 12.8h-2.7z"/><path fill="#e6e6e6" d="m551.7 165.8c0-3.9 3.1-7 7.2-7 4.2 0 7.2 3.2 7.2 7s-3.1 7-7.3 7c-4.1 0-7.1-3.1-7.1-7zm11.2 0c0-2.3-1.7-4.3-4.2-4.3s-4.1 2-4.1 4.3 1.7 4.3 4.1 4.3c2.7.1 4.2-1.9 4.2-4.3z"/><path fill="#e6e6e6" d="m568.3 159.1h3.1v3c.8-2 2.4-3.4 4.8-3.3v3.2h-.2c-2.7 0-4.6 1.7-4.6 5.4v5.1h-3.1z"/><path fill="#e6e6e6" d="m577.9 153.9h3.1v11.1l5.6-6h3.8l-5.4 5.5 5.5 8h-3.5l-4.1-5.8-1.9 2v3.9h-3.1z"/><path fill="#e6e6e6" d="m590.6 165.8c0-3.9 3.1-7 7.2-7 4.2 0 7.2 3.2 7.2 7s-3.1 7-7.3 7c-4.1 0-7.1-3.1-7.1-7zm11.2 0c0-2.3-1.7-4.3-4.2-4.3s-4.1 2-4.1 4.3 1.7 4.3 4.1 4.3c2.6.1 4.2-1.9 4.2-4.3z"/><path fill="#e6e6e6" d="m607 167.6v-8.6h3.1v7.6c0 2.1 1.1 3.3 2.9 3.3s3-1.3 3-3.3v-7.6h3.1v13.4h-3.1v-2.1c-.8 1.3-2.1 2.3-4.2 2.3-3 .2-4.8-1.8-4.8-5z"/><path fill="#e6e6e6" d="m622.7 168.8v-7.1h-1.7v-2.6h1.7v-3.7h3.1v3.7h3.6v2.6h-3.6v6.6c0 1.2.6 1.7 1.7 1.7.7 0 1.3-.2 1.9-.5v2.5c-.8.5-1.7.7-2.8.7-2.3 0-3.9-.9-3.9-3.9z"/><path fill="#e6e6e6" d="m632 154.7h3.2v15h9.4v2.9h-12.6z"/><path fill="#e6e6e6" d="m654.8 172.5v-1.7c-.9 1.1-2.3 2-4.4 2-2.6 0-4.8-1.4-4.8-4.2 0-3 2.3-4.4 5.4-4.4 1.7 0 2.6.2 3.7.5v-.2c0-1.9-1.2-2.9-3.3-2.9-1.5 0-2.6.3-3.9.8l-.8-2.5c1.5-.7 2.9-1.1 5.1-1.1 4 0 5.9 2.1 5.9 5.7v8zm.1-5.6c-.8-.3-1.9-.5-3.1-.5-2 0-3.1.8-3.1 2.1s1.1 2 2.6 2c2 0 3.5-1.1 3.5-2.9z"/><path fill="#e6e6e6" d="m663.7 170.5v2.1h-3.1v-18.7h3.1v7.4c1-1.4 2.4-2.5 4.5-2.5 3.2 0 6.3 2.5 6.3 7s-3.1 7-6.3 7c-2.1 0-3.5-1.1-4.5-2.3zm7.8-4.7c0-2.6-1.7-4.3-3.9-4.3-2.1 0-3.9 1.7-3.9 4.4 0 2.6 1.8 4.3 3.9 4.3s3.9-1.7 3.9-4.4z"/><path fill="#e6e6e6" d="m675.8 170.8 1.4-2.1c1.4 1.1 3 1.7 4.4 1.7s2.1-.5 2.1-1.5-1.3-1.4-2.8-1.8c-.1 0-.2-.1-.2-.1-2-.6-4.2-1.4-4.2-4s2.1-4.1 4.8-4.1c1.7 0 3.5.6 5 1.5l-1.2 2.2c-1.3-.8-2.6-1.3-3.8-1.3s-1.9.5-1.9 1.4 1.3 1.4 2.8 1.8c.1 0 .2.1.2.1 2 .6 4.2 1.5 4.2 4 0 2.9-2.2 4.2-5 4.2-2 0-4.1-.7-5.8-2z"/><path fill="#e6e6e6" d="m61 298.6c0-5.1 4.1-9.2 9.3-9.2s9.2 4.2 9.2 9.2-4.1 9.2-9.3 9.2c-5.1 0-9.2-4.2-9.2-9.2zm17.4-.1c0-4.5-3.5-8.2-8.2-8.2s-8.2 3.7-8.2 8.3c0 4.5 3.5 8.2 8.2 8.2s8.2-3.7 8.2-8.3zm-13.1-.1c0-2.8 2.1-5.1 5.1-5.1 1.9 0 2.9.6 3.9 1.5l-1.4 1.7c-.8-.7-1.5-1.1-2.5-1.1-1.7 0-2.8 1.4-2.8 3.1s1.1 3 2.8 3c1.1 0 1.7-.5 2.5-1.1l1.4 1.4c-1.1 1.1-2.1 1.7-4 1.7-2.8.1-5-2.2-5-5.1z"/><path fill="#e6e6e6" d="m80.9 289.7h3.4l4.2 13.2 4.4-13.3h2.6l4.4 13.3 4.2-13.2h3.3l-6.2 18h-2.7l-4.4-12.8-4.4 12.8h-2.7z"/><path fill="#e6e6e6" d="m107.1 300.8c0-3.9 3.1-7 7.2-7s7.2 3.2 7.2 7-3.1 7-7.3 7c-4 0-7.1-3.1-7.1-7zm11.3 0c0-2.3-1.7-4.3-4.2-4.3s-4.1 2-4.1 4.3 1.7 4.3 4.1 4.3c2.6.1 4.2-1.9 4.2-4.3z"/><path fill="#e6e6e6" d="m123.7 294h3.1v3c.8-2 2.4-3.4 4.8-3.3v3.2h-.2c-2.7 0-4.6 1.7-4.6 5.4v5.1h-3.1z"/><path fill="#e6e6e6" d="m133.4 288.9h3.1v11.1l5.6-6h3.8l-5.4 5.5 5.5 8h-3.5l-4.1-5.8-1.9 1.9v3.9h-3.1z"/><path fill="#e6e6e6" d="m146 300.8c0-3.9 3.1-7 7.2-7s7.2 3.2 7.2 7-3.1 7-7.3 7c-4.1 0-7.1-3.1-7.1-7zm11.2 0c0-2.3-1.7-4.3-4.2-4.3s-4.1 2-4.1 4.3 1.7 4.3 4.1 4.3c2.6.1 4.2-1.9 4.2-4.3z"/><path fill="#e6e6e6" d="m162.4 302.6v-8.6h3.1v7.6c0 2.1 1.1 3.3 2.9 3.3s3-1.3 3-3.3v-7.6h3.1v13.4h-3.1v-2.1c-.8 1.3-2.1 2.3-4.2 2.3-3 .2-4.8-1.8-4.8-5z"/><path fill="#e6e6e6" d="m178.1 303.8v-7.1h-1.7v-2.7h1.7v-3.7h3.1v3.7h3.6v2.6h-3.6v6.6c0 1.2.6 1.7 1.7 1.7.7 0 1.3-.2 1.9-.5v2.5c-.8.5-1.7.7-2.8.7-2.3.1-3.9-.9-3.9-3.8z"/><path fill="#e6e6e6" d="m187.4 289.7h3.2v15h9.4v2.9h-12.5v-17.9z"/><path fill="#e6e6e6" d="m210.2 307.5v-1.7c-.9 1.1-2.3 2-4.4 2-2.6 0-4.8-1.4-4.8-4.2 0-3 2.3-4.4 5.4-4.4 1.7 0 2.6.2 3.7.5v-.2c0-1.9-1.2-2.9-3.3-2.9-1.5 0-2.6.3-3.9.8l-.8-2.5c1.5-.7 2.9-1.1 5.1-1.1 4 0 5.9 2.1 5.9 5.7v8zm.1-5.6c-.8-.3-1.9-.5-3.1-.5-2 0-3.1.8-3.1 2.1s1.1 2 2.6 2c2 0 3.5-1.1 3.5-2.9z"/><path fill="#e6e6e6" d="m219.2 305.5v2.1h-3.1v-18.7h3.1v7.4c1-1.4 2.4-2.5 4.5-2.5 3.2 0 6.3 2.5 6.3 7s-3.1 7-6.3 7c-2.2 0-3.6-1.1-4.5-2.3zm7.7-4.7c0-2.6-1.7-4.3-3.9-4.3s-3.9 1.7-3.9 4.4c0 2.6 1.8 4.3 3.9 4.3s3.9-1.7 3.9-4.4z"/><path fill="#e6e6e6" d="m231.2 305.8 1.4-2.1c1.4 1.1 3 1.7 4.4 1.7s2.1-.5 2.1-1.5-1.3-1.4-2.8-1.8c-.1 0-.2-.1-.2-.1-2-.6-4.2-1.4-4.2-4s2.1-4.1 4.8-4.1c1.7 0 3.5.6 5 1.5l-1.2 2.2c-1.3-.8-2.6-1.3-3.8-1.3s-1.9.5-1.9 1.4 1.3 1.4 2.8 1.8c.1 0 .2.1.2.1 2 .6 4.2 1.5 4.2 4 0 2.9-2.2 4.2-5 4.2-2 0-4.1-.7-5.8-2z"/><path fill="#e6e6e6" d="m360.6 298.6c0-5.1 4.1-9.2 9.3-9.2s9.2 4.2 9.2 9.2-4.1 9.2-9.3 9.2-9.2-4.2-9.2-9.2zm17.4-.1c0-4.5-3.5-8.2-8.2-8.2s-8.2 3.7-8.2 8.3c0 4.5 3.5 8.2 8.2 8.2s8.2-3.7 8.2-8.3zm-13.1-.1c0-2.8 2.1-5.1 5.1-5.1 1.9 0 2.9.6 3.9 1.5l-1.4 1.7c-.8-.7-1.5-1.1-2.5-1.1-1.7 0-2.8 1.4-2.8 3.1s1.1 3 2.8 3c1.1 0 1.7-.5 2.5-1.1l1.4 1.4c-1.1 1.1-2.1 1.7-4 1.7-2.8.1-5-2.2-5-5.1z"/><path fill="#e6e6e6" d="m380.5 289.7h3.4l4.2 13.2 4.4-13.3h2.6l4.4 13.3 4.2-13.2h3.3l-6.2 18h-2.7l-4.4-12.8-4.4 12.8h-2.7z"/><path fill="#e6e6e6" d="m406.7 300.8c0-3.9 3.1-7 7.2-7 4.2 0 7.2 3.2 7.2 7s-3.1 7-7.3 7c-4.1 0-7.1-3.1-7.1-7zm11.3 0c0-2.3-1.7-4.3-4.2-4.3s-4.1 2-4.1 4.3 1.7 4.3 4.1 4.3c2.7.1 4.2-1.9 4.2-4.3z"/><path fill="#e6e6e6" d="m423.3 294h3.1v3c.8-2 2.4-3.4 4.8-3.3v3.2h-.2c-2.7 0-4.6 1.7-4.6 5.4v5.1h-3.1z"/><path fill="#e6e6e6" d="m433 288.9h3.1v11.1l5.6-6h3.8l-5.4 5.5 5.5 8h-3.5l-4.1-5.8-1.9 2v3.9h-3.1z"/><path fill="#e6e6e6" d="m445.6 300.8c0-3.9 3.1-7 7.2-7 4.2 0 7.2 3.2 7.2 7s-3.1 7-7.3 7c-4.1 0-7.1-3.1-7.1-7zm11.3 0c0-2.3-1.7-4.3-4.2-4.3s-4.1 2-4.1 4.3 1.7 4.3 4.1 4.3c2.6.1 4.2-1.9 4.2-4.3z"/><path fill="#e6e6e6" d="m462.1 302.6v-8.6h3.1v7.6c0 2.1 1.1 3.3 2.9 3.3s3-1.3 3-3.3v-7.6h3.1v13.4h-3.1v-2.1c-.8 1.3-2.1 2.3-4.2 2.3-3.1.2-4.8-1.8-4.8-5z"/><path fill="#e6e6e6" d="m477.8 303.8v-7.1h-1.8v-2.7h1.7v-3.7h3.1v3.7h3.6v2.6h-3.6v6.6c0 1.2.6 1.7 1.7 1.7.7 0 1.3-.2 1.9-.5v2.5c-.8.5-1.7.7-2.8.7-2.2.1-3.8-.9-3.8-3.8z"/><path fill="#e6e6e6" d="m487.1 289.7h3.2v15h9.4v2.9h-12.5v-17.9z"/><path fill="#e6e6e6" d="m509.9 307.5v-1.7c-.9 1.1-2.3 2-4.4 2-2.6 0-4.8-1.4-4.8-4.2 0-3 2.3-4.4 5.4-4.4 1.7 0 2.6.2 3.7.5v-.2c0-1.9-1.2-2.9-3.3-2.9-1.5 0-2.6.3-3.9.8l-.8-2.5c1.5-.7 2.9-1.1 5.1-1.1 4 0 5.9 2.1 5.9 5.7v8zm.1-5.6c-.8-.3-1.9-.5-3.1-.5-2 0-3.1.8-3.1 2.1s1.1 2 2.6 2c2 0 3.5-1.1 3.5-2.9z"/><path fill="#e6e6e6" d="m518.8 305.5v2.1h-3.1v-18.7h3.1v7.4c1-1.4 2.4-2.5 4.5-2.5 3.2 0 6.3 2.5 6.3 7s-3.1 7-6.3 7c-2.2 0-3.5-1.1-4.5-2.3zm7.7-4.7c0-2.6-1.7-4.3-3.9-4.3s-3.9 1.7-3.9 4.4c0 2.6 1.8 4.3 3.9 4.3s3.9-1.7 3.9-4.4z"/><path fill="#e6e6e6" d="m530.8 305.8 1.4-2.1c1.4 1.1 3 1.7 4.4 1.7s2.1-.5 2.1-1.5-1.3-1.4-2.8-1.8c-.1 0-.2-.1-.2-.1-2-.6-4.2-1.4-4.2-4s2.1-4.1 4.8-4.1c1.7 0 3.5.6 5 1.5l-1.2 2.2c-1.3-.8-2.6-1.3-3.8-1.3s-1.9.5-1.9 1.4 1.3 1.4 2.8 1.8c.1 0 .2.1.2.1 2 .6 4.2 1.5 4.2 4 0 2.9-2.2 4.2-5 4.2-1.9 0-4.1-.7-5.8-2z"/><path fill="#e6e6e6" d="m659.5 298.6c0-5.1 4.1-9.2 9.3-9.2s9.2 4.2 9.2 9.2-4.1 9.2-9.3 9.2-9.2-4.2-9.2-9.2zm17.3-.1c0-4.5-3.5-8.2-8.2-8.2s-8.2 3.7-8.2 8.3c0 4.5 3.5 8.2 8.2 8.2 4.8 0 8.2-3.7 8.2-8.3zm-13-.1c0-2.8 2.1-5.1 5.1-5.1 1.9 0 2.9.6 3.9 1.5l-1.4 1.7c-.8-.7-1.5-1.1-2.5-1.1-1.7 0-2.8 1.4-2.8 3.1s1.1 3 2.8 3c1.1 0 1.7-.5 2.5-1.1l1.4 1.4c-1.1 1.1-2.1 1.7-4 1.7-2.9.1-5-2.2-5-5.1z"/><path fill="#e6e6e6" d="m679.3 289.7h3.4l4.2 13.2 4.4-13.3h2.6l4.4 13.3 4.2-13.2h3.3l-6.2 18h-2.6l-4.4-12.8-4.4 12.8h-2.7z"/><path fill="#e6e6e6" d="m705.5 300.8c0-3.9 3.1-7 7.2-7 4.2 0 7.2 3.2 7.2 7s-3.1 7-7.3 7c-4 0-7.1-3.1-7.1-7zm11.3 0c0-2.3-1.7-4.3-4.2-4.3s-4.1 2-4.1 4.3 1.7 4.3 4.1 4.3c2.7.1 4.2-1.9 4.2-4.3z"/><path fill="#e6e6e6" d="m722.1 294h3.1v3c.8-2 2.4-3.4 4.8-3.3v3.2h-.2c-2.7 0-4.6 1.7-4.6 5.4v5.1h-3.1z"/><path fill="#e6e6e6" d="m731.8 288.9h3.1v11.1l5.6-6h3.8l-5.4 5.5 5.5 8h-3.5l-4.1-5.8-1.9 2v3.9h-3.1z"/><path fill="#e6e6e6" d="m744.4 300.8c0-3.9 3.1-7 7.2-7 4.2 0 7.2 3.2 7.2 7s-3.1 7-7.3 7c-4.1 0-7.1-3.1-7.1-7zm11.3 0c0-2.3-1.7-4.3-4.2-4.3s-4.1 2-4.1 4.3 1.7 4.3 4.1 4.3c2.6.1 4.2-1.9 4.2-4.3z"/><path fill="#e6e6e6" d="m760.9 302.6v-8.6h3.1v7.6c0 2.1 1.1 3.3 2.9 3.3s3-1.3 3-3.3v-7.6h3.1v13.4h-3.1v-2.1c-.8 1.3-2.1 2.3-4.2 2.3-3.1.2-4.8-1.8-4.8-5z"/><path fill="#e6e6e6" d="m776.6 303.8v-7.1h-1.7v-2.7h1.7v-3.7h3.1v3.7h3.6v2.6h-3.6v6.6c0 1.2.6 1.7 1.7 1.7.7 0 1.3-.2 1.9-.5v2.5c-.8.5-1.7.7-2.8.7-2.3.1-3.9-.9-3.9-3.8z"/><path fill="#e6e6e6" d="m785.9 289.7h3.2v15h9.4v2.9h-12.5v-17.9z"/><path fill="#e6e6e6" d="m808.7 307.5v-1.7c-.9 1.1-2.3 2-4.4 2-2.6 0-4.8-1.4-4.8-4.2 0-3 2.3-4.4 5.4-4.4 1.7 0 2.6.2 3.7.5v-.2c0-1.9-1.2-2.9-3.3-2.9-1.5 0-2.6.3-3.9.8l-.8-2.5c1.5-.7 2.9-1.1 5.1-1.1 4 0 5.9 2.1 5.9 5.7v8zm.1-5.6c-.8-.3-1.9-.5-3.1-.5-2 0-3.1.8-3.1 2.1s1.1 2 2.6 2c2 0 3.5-1.1 3.5-2.9z"/><path fill="#e6e6e6" d="m817.6 305.5v2.1h-3.1v-18.7h3.1v7.4c1-1.4 2.4-2.5 4.5-2.5 3.2 0 6.3 2.5 6.3 7s-3.1 7-6.3 7c-2.1 0-3.5-1.1-4.5-2.3zm7.7-4.7c0-2.6-1.7-4.3-3.9-4.3-2.1 0-3.9 1.7-3.9 4.4 0 2.6 1.8 4.3 3.9 4.3 2.2 0 3.9-1.7 3.9-4.4z"/><path fill="#e6e6e6" d="m829.6 305.8 1.4-2.1c1.4 1.1 3 1.7 4.4 1.7s2.1-.5 2.1-1.5-1.3-1.4-2.8-1.8c-.1 0-.2-.1-.2-.1-2-.6-4.2-1.4-4.2-4s2.1-4.1 4.8-4.1c1.7 0 3.5.6 5 1.5l-1.2 2.2c-1.3-.8-2.6-1.3-3.8-1.3s-1.9.5-1.9 1.4 1.3 1.4 2.8 1.8c.1 0 .2.1.2.1 2 .6 4.2 1.5 4.2 4 0 2.9-2.2 4.2-5 4.2-1.9 0-4-.7-5.8-2z"/><path fill="#e6e6e6" d="m206.3 434.2c0-5.1 4.1-9.2 9.3-9.2s9.2 4.2 9.2 9.2-4.1 9.2-9.3 9.2-9.2-4.1-9.2-9.2zm17.4-.1c0-4.5-3.5-8.2-8.2-8.2s-8.2 3.7-8.2 8.3c0 4.5 3.5 8.2 8.2 8.2s8.2-3.7 8.2-8.3zm-13.1-.1c0-2.8 2.1-5.1 5.1-5.1 1.9 0 2.9.6 3.9 1.5l-1.4 1.7c-.8-.7-1.5-1.1-2.5-1.1-1.7 0-2.8 1.4-2.8 3.1s1.1 3 2.8 3c1.1 0 1.7-.5 2.5-1.1l1.4 1.4c-1.1 1.1-2.1 1.7-4 1.7-2.9.1-5-2.2-5-5.1z"/><path fill="#e6e6e6" d="m226.1 425.3h3.4l4.2 13.2 4.4-13.3h2.6l4.4 13.3 4.2-13.2h3.3l-6.2 18h-2.7l-4.4-12.8-4.4 12.8h-2.7z"/><path fill="#e6e6e6" d="m252.4 436.4c0-3.9 3.1-7 7.2-7 4.2 0 7.2 3.2 7.2 7s-3.1 7-7.3 7c-4.1 0-7.1-3.1-7.1-7zm11.2 0c0-2.3-1.7-4.3-4.2-4.3s-4.1 2-4.1 4.3 1.7 4.3 4.1 4.3c2.7.1 4.2-1.9 4.2-4.3z"/><path fill="#e6e6e6" d="m269 429.7h3.1v3c.8-2 2.4-3.4 4.8-3.3v3.2h-.2c-2.7 0-4.6 1.7-4.6 5.4v5.1h-3.1z"/><path fill="#e6e6e6" d="m278.6 424.5h3.1v11.1l5.6-6h3.8l-5.4 5.5 5.5 8h-3.5l-4.1-5.8-1.9 2v3.9h-3.1z"/><path fill="#e6e6e6" d="m291.3 436.4c0-3.9 3.1-7 7.2-7 4.2 0 7.2 3.2 7.2 7s-3.1 7-7.3 7c-4.1 0-7.1-3.1-7.1-7zm11.2 0c0-2.3-1.7-4.3-4.2-4.3s-4.1 2-4.1 4.3 1.7 4.3 4.1 4.3c2.6.1 4.2-1.9 4.2-4.3z"/><path fill="#e6e6e6" d="m307.7 438.2v-8.6h3.1v7.6c0 2.1 1.1 3.3 2.9 3.3s3-1.3 3-3.3v-7.6h3.1v13.4h-3.1v-2.1c-.8 1.3-2.1 2.3-4.2 2.3-3 .2-4.8-1.8-4.8-5z"/><path fill="#e6e6e6" d="m323.4 439.4v-7.1h-1.7v-2.6h1.7v-3.7h3.1v3.7h3.6v2.6h-3.6v6.6c0 1.2.6 1.7 1.7 1.7.7 0 1.3-.2 1.9-.5v2.5c-.8.5-1.7.7-2.8.7-2.3 0-3.9-.9-3.9-3.9z"/><path fill="#e6e6e6" d="m332.7 425.3h3.2v15h9.4v2.9h-12.5v-17.9z"/><path fill="#e6e6e6" d="m355.5 443.1v-1.7c-.9 1.1-2.3 2-4.4 2-2.6 0-4.8-1.4-4.8-4.2 0-3 2.3-4.4 5.4-4.4 1.7 0 2.6.2 3.7.5v-.2c0-1.9-1.2-2.9-3.3-2.9-1.5 0-2.6.3-3.9.8l-.8-2.5c1.5-.7 2.9-1.1 5.1-1.1 4 0 5.9 2.1 5.9 5.7v8zm.1-5.6c-.8-.3-1.9-.5-3.1-.5-2 0-3.1.8-3.1 2.1s1.1 2 2.6 2c2 0 3.5-1.1 3.5-2.9z"/><path fill="#e6e6e6" d="m364.4 441.1v2.1h-3.1v-18.7h3.1v7.4c1-1.4 2.4-2.5 4.5-2.5 3.2 0 6.3 2.5 6.3 7s-3.1 7-6.3 7c-2.1 0-3.5-1.1-4.5-2.3zm7.7-4.7c0-2.6-1.7-4.3-3.9-4.3-2.1 0-3.9 1.7-3.9 4.4 0 2.6 1.8 4.3 3.9 4.3 2.2 0 3.9-1.7 3.9-4.4z"/><path fill="#e6e6e6" d="m376.5 441.4 1.4-2.1c1.4 1.1 3 1.7 4.4 1.7s2.1-.5 2.1-1.5-1.3-1.4-2.8-1.8c-.1 0-.2-.1-.2-.1-2-.6-4.2-1.4-4.2-4s2.1-4.1 4.8-4.1c1.7 0 3.5.6 5 1.5l-1.2 2.2c-1.3-.8-2.6-1.3-3.8-1.3s-1.9.5-1.9 1.4 1.3 1.4 2.8 1.8c.1 0 .2.1.2.1 2 .6 4.2 1.5 4.2 4 0 2.9-2.2 4.2-5 4.2-2 0-4.1-.7-5.8-2z"/><path fill="#e6e6e6" d="m505.1 434.2c0-5.1 4.1-9.2 9.3-9.2s9.2 4.2 9.2 9.2-4.1 9.2-9.3 9.2-9.2-4.1-9.2-9.2zm17.4-.1c0-4.5-3.5-8.2-8.2-8.2s-8.2 3.7-8.2 8.3c0 4.5 3.5 8.2 8.2 8.2s8.2-3.7 8.2-8.3zm-13.1-.1c0-2.8 2.1-5.1 5.1-5.1 1.9 0 2.9.6 3.9 1.5l-1.4 1.7c-.8-.7-1.5-1.1-2.5-1.1-1.7 0-2.8 1.4-2.8 3.1s1.1 3 2.8 3c1.1 0 1.7-.5 2.5-1.1l1.4 1.4c-1.1 1.1-2.1 1.7-4 1.7-2.9.1-5-2.2-5-5.1z"/><path fill="#e6e6e6" d="m525 425.3h3.4l4.2 13.2 4.4-13.3h2.6l4.4 13.3 4.2-13.2h3.3l-6.2 18h-2.7l-4.4-12.8-4.4 12.8h-2.7z"/><path fill="#e6e6e6" d="m551.2 436.4c0-3.9 3.1-7 7.2-7 4.2 0 7.2 3.2 7.2 7s-3.1 7-7.3 7c-4.1 0-7.1-3.1-7.1-7zm11.2 0c0-2.3-1.7-4.3-4.2-4.3s-4.1 2-4.1 4.3 1.7 4.3 4.1 4.3c2.7.1 4.2-1.9 4.2-4.3z"/><path fill="#e6e6e6" d="m567.8 429.7h3.1v3c.8-2 2.4-3.4 4.8-3.3v3.2h-.2c-2.7 0-4.6 1.7-4.6 5.4v5.1h-3.1z"/><path fill="#e6e6e6" d="m577.5 424.5h3.1v11.1l5.6-6h3.8l-5.4 5.5 5.5 8h-3.5l-4.1-5.8-1.9 2v3.9h-3.1z"/><path fill="#e6e6e6" d="m590.1 436.4c0-3.9 3.1-7 7.2-7 4.2 0 7.2 3.2 7.2 7s-3.1 7-7.3 7c-4.1 0-7.1-3.1-7.1-7zm11.2 0c0-2.3-1.7-4.3-4.2-4.3s-4.1 2-4.1 4.3 1.7 4.3 4.1 4.3c2.6.1 4.2-1.9 4.2-4.3z"/><path fill="#e6e6e6" d="m606.5 438.2v-8.6h3.1v7.6c0 2.1 1.1 3.3 2.9 3.3s3-1.3 3-3.3v-7.6h3.1v13.4h-3.1v-2.1c-.8 1.3-2.1 2.3-4.2 2.3-3 .2-4.8-1.8-4.8-5z"/><path fill="#e6e6e6" d="m622.2 439.4v-7.1h-1.7v-2.6h1.7v-3.7h3.1v3.7h3.6v2.6h-3.6v6.6c0 1.2.6 1.7 1.7 1.7.7 0 1.3-.2 1.9-.5v2.5c-.8.5-1.7.7-2.8.7-2.3 0-3.9-.9-3.9-3.9z"/><path fill="#e6e6e6" d="m631.5 425.3h3.2v15h9.4v2.9h-12.5v-17.9z"/><path fill="#e6e6e6" d="m654.3 443.1v-1.7c-.9 1.1-2.3 2-4.4 2-2.6 0-4.8-1.4-4.8-4.2 0-3 2.3-4.4 5.4-4.4 1.7 0 2.6.2 3.7.5v-.2c0-1.9-1.2-2.9-3.3-2.9-1.5 0-2.6.3-3.9.8l-.8-2.5c1.5-.7 2.9-1.1 5.1-1.1 4 0 5.9 2.1 5.9 5.7v8zm.1-5.6c-.8-.3-1.9-.5-3.1-.5-2 0-3.1.8-3.1 2.1s1.1 2 2.6 2c2 0 3.5-1.1 3.5-2.9z"/><path fill="#e6e6e6" d="m663.3 441.1v2.1h-3.1v-18.7h3.1v7.4c1-1.4 2.4-2.5 4.5-2.5 3.2 0 6.3 2.5 6.3 7s-3.1 7-6.3 7c-2.2 0-3.6-1.1-4.5-2.3zm7.7-4.7c0-2.6-1.7-4.3-3.9-4.3s-3.9 1.7-3.9 4.4c0 2.6 1.8 4.3 3.9 4.3s3.9-1.7 3.9-4.4z"/><path fill="#e6e6e6" d="m675.3 441.4 1.4-2.1c1.4 1.1 3 1.7 4.4 1.7s2.1-.5 2.1-1.5-1.3-1.4-2.8-1.8c-.1 0-.2-.1-.2-.1-2-.6-4.2-1.4-4.2-4s2.1-4.1 4.8-4.1c1.7 0 3.5.6 5 1.5l-1.2 2.2c-1.3-.8-2.6-1.3-3.8-1.3s-1.9.5-1.9 1.4 1.3 1.4 2.8 1.8c.1 0 .2.1.2.1 2 .6 4.2 1.5 4.2 4 0 2.9-2.2 4.2-5 4.2-2 0-4.1-.7-5.8-2z"/></g>
</svg>
