<?xml version="1.0" encoding="utf-8"?>
<!-- Generator: Adobe Illustrator 23.0.1, SVG Export Plug-In . SVG Version: 6.00 Build 0)  -->
<svg version="1.2" baseProfile="tiny" id="Layer_1" xmlns="http://www.w3.org/2000/svg" xmlns:xlink="http://www.w3.org/1999/xlink"
	 x="0px" y="0px" viewBox="0 0 900 600" xml:space="preserve">
<g>
	<path d="M247.56,434.19c4.45-7.12,1.54-16.08,7.43-24.41c9.76-13.8,10.7-13.56,12.55-17.98c4.89,0.26,2.66-6.22,11.65-9.64
		c4.74-1.8,7.25-5.81,11.55-8.74c2.21-1.51,4.01-4.42,3.92-6.73c-0.12-3.01,1.21-5.32,1.91-7.83c1.58-7.37-1.02-11.44,3.11-16.57
		c0.61-0.75,2.92-9.81,7.63-15.57c4.31-5.26,4.07-10.1,10.14-12.66c4.02-1.69,6.53-5.83,11.15-7.33c1.71,1,3.31,0,4.72-1.31
		c1.41,0.1,1.81,1.21,2.61,1.71c0.4-1.21-1.81-2.31-1.21-4.02c1.41-0.8,1.71,1,2.71,0.7c0.9-0.8-0.7-2.01,0.7-2.81
		c2.43,0.43,1.5,2.43,0.9,7.23c1.71-1.31,0.8-4.02,3.11-4.52c2.11,1.41,0.1,3.01,0.4,4.52c4.5,2.38,6.23,0.95,9.44,3.52
		c17.81,14.26,15.26,16.79,19.69,18.88c0.81,0.38,1.91,0.5,2.21,1.61c-0.4,1-1.71-0.1-2.21,0.9c0.58,3.51,3.98,5.13,4.52,9.04
		c2.38,17.39,5.88,13,4.92,15.87c-3.52,2.51-3.52,2.51-6.43,0.6c-0.3,0.4-0.6,1.21-0.9,1.21c-5.28,0.81-2.02,5.95-5.83,9.04
		c-1.25-6.44,6.77-15.17-8.24-5.93c-3.35,2.07-6.74,1.58-8.44,6.33c-0.1,0.5-0.4,1.41-1.31,1c1.79-13.58,1.17-6.55-1.21-6.23
		c-1.81-3.01,0.1-5.12,1.61-7.63c1.65,4.28,0.41,3.51,1.81,0.5c1.21-2.61,0.6-4.72-1-7.13c-3.01,1.21-4.98,3.65-6.93,5.93
		c-0.91,1.06-0.91,2.3,0.6,3.82c0.08,0.59,0.32,8.39,0.5,8.64c0.93,1.29,0.1,2.11-1.31,2.81c-2.61-2.01-1.32-5.02-1.61-7.43
		c-0.31-2.61-1-5.22-0.7-7.93c-5.22,0.9-19.08,9.54-19.59,15.77c3.8,0.6,13.68-4.38,24.31,2.31c1.04,0.65,11.38,7.06,11.95,5.93
		c2.28-3.19,0.75-10.56,10.24-9.04c-1.1,2.21-3.62,1.31-5.32,2.11c0.4,1.1,0.8,1.91,1.1,2.81c-1,0.7-2.01-0.4-2.91,0.4
		c-0.6,1.81-0.8,3.92-2.51,5.42c4.32,4.32,12.48,9.45,14.16,22.7c2.1,16.52,16.3,4.19,38.77,47.01c4.14,7.89,9.87,14.06,6.63,26.01
		c3.17-0.86,0.91-2.66,7.63-6.23c45.29-23.98,46.87-30.22,56.95-23.5c1.76-1.05,8.61-3.43,12.45-1.81
		c8.85,3.73,27.62,5.48,36.66,9.24c48.61,20.22,25.82,15.52,69.56,32.04c5.73,2.16,7.12,5.2,11.45,3.62
		c-7.88-8.95-7.21-6.46,2.91-10.75c4.72,2.51,4.64,2.33,8.84-1c6.66-5.29,11.37-12.24,16.77-18.68c2.52-3.01,3.41-6.83,3.82-10.65
		c-3.58-3.58-15.56,5.27-16.27,11.65c-0.68,6.13-5.52,22.7-9.44,17.58c3.7-1.31,6.08-12.42,6.13-16.37
		c0.04-3.59,1.46-3.52,3.82-8.24c2.36-4.72,11.29-6.35,16.47-6.93c1.41-3.11,2.32-4.41,3.72-5.12c18.86-9.6,32.23,33.55,11.85,56.65
		c-7.64,8.66-0.09,14.92-9.64,27.62c-4.48,5.96-19.16,20.42-21.39,17.07c-0.7-1.21,0.9-1.41,0.2-2.61
		c-1.31-1.31-2.41-3.31-4.52-4.12c-1.71,0.9-2.11,2.71-3.82,3.82c-22.11-3.74-16.01-14.91-23.1-16.27c-2.61-0.5-3.52-2.01-4.72-3.52
		c-12.99-4.63-20.37-1.45-30.63-3.62c-10.58-2.23-22.96-0.78-31.54-6.33c-2.61-1.69-5.83-0.86-11.85-4.02
		c-13.67-7.17-28.79-26.74-36.06,0.5c-1.31-0.7,0-1.71-0.9-2.21c-7.03,7.33-1.77,6.5-4.32,12.35c-1.48,3.39,0.64,7.07-1.61,12.86
		c-2.43,6.24,2.6,14.37-0.8,16.07c-0.3-0.3-0.7-0.5-0.7-0.7c-1.1-7.03-3.41-14.06-0.4-21.19c2.27-4.54,0.8-18.06,0.9-22.4
		c0.02-1.08-7.8-30.53-25.81-42.18c-1.91,1.31-4.22,1.81-5.02,4.22c-1.31,0.3-2.71-0.19-4.02,0.7c-7.7,5.27-17.1,8.01-23.2,15.57
		c-1.21,1.5-2.91,2.41-4.92,0.7c-2.01,1.71-2.81,4.12-4.92,5.32c3.26-9.78,10.06-4.42,7.42-18.43c-0.24,3.79-4.94,5.97-10.34,4.37
		c1.65-1.21,2.32-0.86,7.93-2.11c1.3-0.6,1.01-2.29,2.39-2.31c-0.09-0.5-0.19-1.01-0.28-1.51c-2.3-12.11-5.76-8.03-6.13-13.56
		c-0.18-2.67-1.68-2.01-6.73-8.74c-3.01-4.02-5.22-8.64-8.04-13.06c-0.1,1.1,0.31,1.92-0.4,2.71c-2.18,2.44-4.72,4.72-3.62,8.64
		c-2.71-3.92-2.11-6.33,2.01-10.55c-2.54-4.44,3.06-2.7-3.31-7.03c-12.92-8.78-18.57-10.5-19.99-22.5
		c-0.6-5.05-3.71-10.42-7.53-13.36c-3.23-2.49-5.33-6.22-9.24-7.93c-13.06-5.73-7.49-10.22-32.24-6.93
		c-1.9,0.25-4.04,0.39-5.62,1.81c1.31,1.51-0.1,1.41-1.1,2.11c0.4-1.44,0.26-0.95-0.2-0.8c-9.08,2.96-11.44,14.09-15.97,24.91
		c-3.74,8.93-0.9,23.76,2.11,29.43c9.13,17.18,23.9,20.96,24.11,21.8c1.1,3.21,4.12,2.61,6.33,3.01c5.52,1,10.95,1,16.17-2.01
		c-1.9-11.15,1.02-15.88-4.82-20.89c0.7,1.31,1,2.11,0.3,3.11c-2.21-0.2-2.31,3.01-4.72,3.11c0.6-3.01,0.2-6.43,3.41-8.34
		c-3.72-3.11-6.73-6.53-8.34-11.05c18.3,15.69,5.07,4.3,18.48,10.04c-2.31,0.2-4.12,0.5-6.23,0.7
		c9.89,29.68,15.62,17.73,36.46,38.57c-6.53-0.6-9.64-4.92-12.76-9.34c-2.61-0.1-5.02-1.1-7.63-1.81
		c5.12,8.54,3.92,18.18,5.12,27.32c4.08,0,5.08-4.05,7.43-0.2c1.1,1.81,2.81,2.81,4.72,4.12c1-2.11,3.21-2.51,4.82-3.82
		c2.57-8.02-0.84-10.57-0.5-15.27c3.01,1,3.62,3.82,5.32,5.83c-1.51,4.02,0.9,8.44-1,12.66c-1.09-0.54-1.33-0.62-1.61-1.31
		c-3.72,1.71-5.62,4.72-7.03,8.14c-1.41-1.31-0.1-2.51-1-3.62c-2.51-0.7-3.82-3.31-6.13-4.82c-0.9,0.6-1.71,1.1-3.21,2.01
		c6.43,4.92,12.25,9.74,13.66,17.88c-1.31-0.3-2.01-1.51-3.21-2.01c0.2-0.1,0.3-0.2,0.4-0.3c-0.6-3.21-3.11-0.4-4.52-1.51
		c-1,1.51-1.61,3.31-3.41,4.92c2.41,0.3,4.12-0.2,5.22-0.5c1.98-1.16-0.09-2.92,1.63-2.66c3.96,3.96-3.64,4.96,2.09,5.67
		c-1,1-2.21,1.41-3.31,1c-2.12-0.79-4.22-0.28-6.33-0.2c-3.92,0.14-4.83,0.8-6.13,4.42c-4.09,11.38-0.54,15.55-5.02,18.08
		c0.8-2.31,0.3-4.22-0.3-6.83c-3.82,8.86-11.38,11.45-11.55,13.56c-0.36,4.52-4.22,6.83-6.03,10.45c-0.2,0.5-0.7,0.9-1.31,0.3
		c-0.4-0.8,0.4-1.31,0.6-2.01c2.86-8.07,2.08-4,0.1-4.71c0.6-1.21,2.84-1.48,1.51-2.81c-1.41,1.21-2.81,2.41-4.22,3.52
		c-0.1,1.31,0.9,2.61,0.2,3.92c-1.31-0.3-1.1-1.81-2.21-2.01c-0.6,0.3-1.1,0.7-1.1,1.1c1.52,1.99,5.41,5.65,2.11,4.82
		c-0.6,0.4,0.4,1.41-0.8,1.61c-1.61-0.9-1.91-3.01-3.41-4.62c-1.1,2.71,2.51,4.02,1.41,6.53c-1.91-0.7-2.41-2.61-4.22-4.12
		c-0.7,3.31,3.31,4.62,2.31,7.63c-1.31,0-2.01,1-2.21,2.01c-1.71,0.9-2.91-0.1-4.72-0.2c1.61,1.41-0.4,2.61,0.4,3.82
		c3.1,4.66-0.29,5.74,12.96,21.49c7,8.32,6.78,4,12.35,3.52c-1,1.71-2.81,1.51-4.52,2.71c5.82,0.78,3.4,5.77,43.19,1.91
		c10.49-1.02,11.71-1.45,24.71-10.04c12.27-8.12,8.28-11.54,22.4-20.29c4.75-2.94,12.75-8.29,15.87-12.96
		c0.88-1.32,2.01-2.32,3.52-2.71c2.77-0.71,25.27-5.22,25.51-2.31c-0.86,1.88-23.62,3.46-26.01,6.73
		c-3.9,5.33-8.93,8.09-24.81,18.98c-7.77,5.33-6.66,11.1-26.52,21.8c-13.92,7.5-60.11,5.42-61.97,2.01
		c-0.1-1.81,1.61-1.21,2.71-1.91c-11.85-3.95-18.15-22.83-25.81-33.45c0.4-1.31,2.51-0.5,2.01-2.61
		c-10.35-9.14-22-17.58-28.42-30.73c-14.92,4.97-52.98-23.25-62.27-32.74c-2.69-2.74-0.65-4.03,1.21-14.07
		C235.97,457.66,234.73,454.72,247.56,434.19z M376.12,355.65c0.38-1.51,0.94-0.61-3.01-2.41
		C373.91,354.55,374.41,356.25,376.12,355.65z M371.8,350.43c0.4-0.7,0-0.8-0.4-1.21C371.2,349.93,371.5,350.23,371.8,350.43z
		 M368.58,354.95c-0.6,0.7,0,1.81-0.8,2.61C369.93,357.36,370.42,354.95,368.58,354.95z M353.72,348.92c-0.5,0.6-0.1,0.8,0.6,1.31
		C354.52,349.32,354.22,349.12,353.72,348.92z M361.65,344.5c-1.23-9.81-0.43-6.59-2.41-3.41
		C359.75,342.29,360.25,343.3,361.65,344.5z M359.24,351.73c0.9-0.1,1-0.7,0.8-1.41C359.24,350.53,359.14,351.03,359.24,351.73z
		 M359.34,325.62c-0.2-1.41,1.51-2.91-0.4-4.22C359.14,322.81,359.24,324.21,359.34,325.62z M357.23,320c0-0.8-0.4-1.21-1.21-1
		C356.13,319.69,356.33,320.2,357.23,320z M355.13,362.98c-0.9,0.2-2.01,0.1-2.01,1.71C354.12,364.39,354.72,363.89,355.13,362.98z
		 M352.21,325.92c2.51-2.31,1.1-4.32,0-6.23C352.21,321.6,352.21,323.51,352.21,325.92z M345.38,328.73c0.5-0.8,0.5-1.51-0.5-2.01
		C344.58,327.63,345.08,328.23,345.38,328.73z M349.4,312.97c-1.61-1.41-3.72-1.51-5.62-2.11
		C344.98,313.37,347.49,312.36,349.4,312.97z M341.97,354.45c0.4-0.9,0.4-1.61-0.2-2.51C340.86,352.94,341.16,353.54,341.97,354.45z
		 M338.75,336.27c0.7,0.1,1-0.3,1.31-0.9c-0.4-1-2.21-1.21-1.81-2.81C337.05,334.16,338.45,335.16,338.75,336.27z M336.02,307.46
		c0.07,0.29,0.15,0.59,0.22,0.88C336.47,308.03,336.17,307.78,336.02,307.46z M337.55,311.46c-3.85,0.77-2.71,0.57-2.71,1.41
		C335.84,312.87,336.95,312.76,337.55,311.46z M335.54,315.88c-0.5-1-0.9-0.9-1.41,0C334.64,316.48,335.04,316.28,335.54,315.88z
		 M329.81,356.05c-0.7,0.3-0.9,0.8-0.9,1.41C329.71,357.26,330.12,356.86,329.81,356.05z M324.39,353.74c0.6-0.8,0.8-1.31,0.2-1.91
		C323.89,352.24,323.69,352.74,324.39,353.74z M467.31,450.47c4.82-0.8,9.24-1.61,14.06-2.51
		C475.05,446.75,471.43,447.35,467.31,450.47z M613.25,494.16c5.12,7.13,6.93,14.46,3.11,22.7c5.42-1.1,9.49-4.73,10.85-9.34
		c1.69-5.76-1.84-7.51-8.04-13.36c-0.7,0.2,0.3,1.41,0,1.51C616.67,496.48,615.66,493.65,613.25,494.16z M630.33,535.24
		c3.39,2.01,1.61,5.32,3.41,5.32c8.15-5.86,24.05-20.77,22.8-29.83c-2.05-14.94,17.29-18.53,13.26-42.99
		c-2.15-13.08-6.38-30.05-17.88-23.2c-3.45,2.05-2.03,11.21-8.24,18.08c0.1,0.8,1.1,0.4,1.1,1.21c-1.41,2.21-4.72,2.01-6.03,4.42
		c0.4,0.9,1.71,0.3,1.91,1.41c-0.7,1.21-2.01,1-3.11,1.31c0,1.31,1.61,0.8,2.01,1.91c-0.3,1.41-1.71,1.71-2.61,2.51
		c0.1,0.9,1.61,0.7,1.41,1.91c-2.61,1.81-5.62,1.91-8.74,1.21c1.41,1.21,3.31,1.61,4.22,3.52c-2.81,2.01-5.52,0.1-8.64-0.1
		c2.41,1.41,4.32,2.71,5.42,5.02c-4.62-1.81-9.44-2.71-14.06-4.62c-11.62,4.28-4.24,0.47,3.62,9.44c1.78,2.03,3.12,4.3,5.83,5.62
		c3.23,1.58,4.43,7.03,3.52,10.65c-2.37,9.3-9.31,7.93-17.88,15.07c2.51,1.51,4.91,2.22,7.03,3.62
		C622.68,529.33,626.18,532.77,630.33,535.24z M538.93,510.83c6.43,1.09,12.76,2.66,19.38,2.61c2.11-0.02,4.31,0.34,6.33,0.9
		c8.92,2.48,31.3-0.72,34.05,7.53c9.83,0.66,7.24,9.05,11.15,10.45c4.31,1.53,7.73,5.02,12.86,5.42c0.7-0.9,1.51-1.81,2.21-2.71
		c-4.42-4.72-9.84-8.04-14.76-10.95c-0.7-1.31,0.2-1.91,0-2.81c-9.54-5.57,15.55,0.94-44.39-10.65c-3.86-0.74-6.92,1.35-14.97-0.3
		c-4.32-0.88-8.74,0.7-13.26-0.9C537.82,510.53,538.32,510.73,538.93,510.83z M480.17,504.2c4.77-3.53,5.59-8.15,9.94-10.55
		c1.41-0.6,2.01-1.61,1.91-3.31c1.41-0.1,2.31-0.1,3.52-0.2c-1.13-3.63-7.57,0.75-9.94,3.31
		C478.47,501.16,479.74,494.23,480.17,504.2z M455.36,459c10.04,8.04,16.53,18.53,20.69,30.53c0.87,2.52,3.41,4.12,3.11,7.53
		c6.99-5.16,8.53-11.88,17.38-12.05c2.07,1.63-2.74,2.98,4.52,5.22c9.98,3.08,13.51,11.17,26.62,13.86c1.1,0.23,2.21,0.8,2.71-1.1
		c11.95,5.12,24.51,5.57,37.06,5.62c2.24,0.01,36.86,7.59,45.2,7.13c0.3,0.7-1.41,2.01,0.7,2.41c5.03-5.03-9.2-5.12-15.37-9.44
		c3.11-1.31,5.62,0.52,8.34,1.41c2.81,0.92,5.93,1,8.94,2.61c0.8-4.42,0.4-8.44-1.1-12.55c-3.11-0.2-6.23-0.7-8.84-2.81
		c2.61,0.5,5.22,1,7.83,1.41c-0.2-3.92-1.41-5.22-4.52-6.73c-11.73-5.71-29.21-9.95-38.17-16.27c-8.79-6.2-36.65-18.79-42.69-20.09
		c-37.62-8.08-35.8-9.45-41.18-7.13C486.49,448.6,451.03,456.84,455.36,459z M300.79,355.25c-1.31,1.21-0.9,2.61-0.7,3.82
		C300.99,357.86,301.09,356.66,300.79,355.25z M299.88,364.89c-2.71,2.21-3.52,5.22-5.62,8.34c3.11-1.31,4.82-3.31,6.83-5.22
		C300.69,367,299.68,366.2,299.88,364.89z M307.42,339.38c-0.6,0.5,0,0.6,0.6,1C307.92,339.58,307.72,339.18,307.42,339.38z
		 M308.72,346.71c-0.5,0.5-0.5,0.9-0.2,1.31C309.12,347.82,309.33,347.42,308.72,346.71z M313.44,320.6c0.8,0.3,1.1,0,1-0.8
		C313.85,319.9,313.54,320.1,313.44,320.6z M316.56,329.84c1.81-1.51,1.81-1.51,2.31-3.62
		C317.46,327.23,317.36,328.73,316.56,329.84z M313.14,374.03c2.21,0.05,4.52-1.81,7.23-1.71c0.89-7.11,0.26-3.7-1.21-6.33
		c-1.51,1.51-3.11,2.31-4.62,0.3c-2.41,0.7-4.12,2.71-6.93,2.01c-1.1,1.91-3.62,2.41-4.82,4.12c-1.41-0.1-1.31-1.31-1.71-1.91
		c-4.12,3.31-7.73,6.93-12.35,10.14c0.3-1.91,1.91-2.51,2.21-4.02c-1.31,0.3-2.13,1.19-2.81,2.01c-6.2,7.38-19.11,8.76-18.78,20.29
		C281.2,404.15,298.03,373.69,313.14,374.03z M344.38,541.86c0.5-0.6,0.6-1.21,0.2-1.91C343.57,540.56,343.17,541.06,344.38,541.86z
		 M329.31,558.24c-0.7-0.7-0.9-2.91-2.71-1.41C327.1,558.24,328.51,557.63,329.31,558.24z M325.5,559.64c-0.2-0.5-0.4-0.8-1-0.7
		C324.29,559.94,324.89,559.84,325.5,559.64z M305.01,540.96c8.23,10.06,13.27,9.72,17.48,16.87c6.34-7.84,6.23-6.23,10.04-10.04
		c-0.2-4.62,0.6-9.14,2.91-13.26c-0.6,3.72-1.41,7.53-1.41,11.75c5.62-4.62,10.85-9.04,15.07-14.56c0.8,0.5,1,1.51,0.6,2.91
		c3.41-2.91,7.03-5.22,7.63-9.74c0.4-1.31,1.41,0.1,1.91-0.4c2.11-6.43,1-14.46,10.04-16.47c0.4-3.82,2.91-7.03,3.92-10.75
		c-0.7-1.1-2.41-0.3-2.71-2.11c-3.11,4.32-4.72,9.14-9.04,11.95c1.08-5.28,8.77-11.99,6.43-13.16c-6.39,9.44-9.52,15.37-15.17,19.08
		c18.13-22.75,13.21-20.92,11.95-22.8c-2.41,2.91-3.82,6.53-7.23,8.64c1.41-3.82,3.41-7.23,6.53-10.14
		c-1.51-5.22-0.2-10.85-1.1-16.37c-0.9-5.52-3.01-10.65-4.62-16.67c-1.1-1-2.71-2.51-4.42-4.12c-3.01,2.81-4.25,6.22-5.22,10.24
		c-2.76,11.5-4.02,10.24-4.92,13.86c-0.6,3.41-2.71,7.53-5.83,10.45c1.81-4.52,4.07-8.95,5.12-13.66
		c7.2-32.24-1.61,5.62-37.16-28.73c-17.74-17.14-12.56-43.25,0.3-64.68c-5.87,1.54-10.52,9.6-27.82,21.69
		c-3.13,2.19-7.33,1.41-10.45,3.11c-2.11-1.71-0.9-3.72-1.61-5.62c-12.8,14.48-11.17,17.22-11.75,22.9
		c-1.07,10.47,0.15,33.36,10.45,55.54c5.21,11.21,2.99,10.45,5.22,13.06c10.4,12.16,7.62,18.39,18.18,30.63
		C294.05,527,299.36,534.05,305.01,540.96z M234.3,496.67c8.4,4.59,15.76,12.46,18.28,13.76c9.1,4.7,17.69,10.7,27.72,13.66
		c3.02,0.89,6.13,0.8,9.04,2.21c-0.14-1.81-6.88-4.9-10.65-15.57c-5.06-14.33-8.29-10.69-11.25-18.88
		c-4.2-11.61-13.44-33.75-14.76-53.63c-0.4-3.31,0.7-6.53-0.5-10.55c-0.8,4.72-2.89,8.25-4.82,11.85
		c-14.81,27.55-9.35,36.59-15.47,50.92C230.9,492.76,231.77,495.29,234.3,496.67z"/>
	<path d="M214.61,180.19c-5.13-21.48,9.94-24.37,9.64-42.59c-0.44-26.82,16.8-33.37,19.08-36.36c1.52-2,3.41-3.42,5.62-4.12
		c6.12-1.93,10.26-6.31,14.76-10.45c18.12-16.62,21.61-14.87,21.9-21.69c0.19-4.64,2.76-6.85,0.5-11.55
		c-2.63-5.48,0.83-9.11,1.81-11.55c-2.57,0-1.3-1.37-1-2.11c0.96-1.91-1.84-11.91,9.04-25.51c1-1.41,2.01-2.81,2.21-4.32
		c4.02-5.62,11.05-4.52,15.57-7.13c1-1.21,0.4-2.11,1.1-2.81c1.91,0.5,4.22-0.3,5.52,1.41c1.1,0.3,1.21-0.8,2.01-0.7
		c0.7,0,0.6,1.1,1.21,1.1c1.31-0.2,2.11-1.21,3.11-1.21c1.61,0.4,0.7,1.71,1.21,2.41c1.51-0.6,2.61-2.21,4.32-1
		c0.2,1.61-1.61,2.21-1.31,4.12c11.36,0.18,22.12,8.96,23.5,21.39c1.81,1.51,4.22,0.9,5.32,2.81c-0.7,1.61-2.31,0.9-3.52,1.41
		c1.71,1.61,4.32,1.51,5.62,3.82c-2.11,0.7-3.41,2.01-4.62,3.82c3.11,1.51,1.91,4.32,2.01,6.73c-1.81,0.9-3.21-0.3-5.32-0.5
		c-3.21,10.69-7.57,16.72-1.71,15.27c7-1.73,10.05,1.17,20.19,5.72c19.45,8.74,18.18,25.62,22.9,27.72c3.9,1.74,7.24,4.3,10.95,6.13
		c8.01,3.95,8.08,7.22,19.48,25.41c6.89,11,14.55,16.14,5.83,29.23c4.36,1.74,5.36-3.8,10.24-6.43
		c46.48-25.05,48.1-30.47,57.65-24.11c11.56-4.39,11.67-1.3,19.99,0.7c6.54,1.57,13.26,2.01,19.49,4.52
		c2.27,1.52-0.64-3.36,22.9,8.14c41.92,20.48,18.64,12.38,55.94,26.21c2.76,0.69,1.86-0.39,4.22,1.61c2.07,1.76,4.52,2.91,7.63,2.21
		c-0.8-1.71-2.23-2.29-3.01-3.41c-3.77-5.41-3.15-3.39,6.33-7.63c6.31,5.93,15.37-7.41,25.61-19.79c2.41-2.91,3.31-6.63,3.72-10.35
		c-2.21-0.9-2.21-0.82-4.02-0.4c-12.23,2.86-11.57,12.11-15.87,25.31c-1.08,3.3-3.41,6.5-6.03,4.22c3.95-1.04,6.28-12.11,6.33-15.97
		c0.05-4.6,1.94-4.11,3.62-8.34c2.07-5.2,14.14-8.29,16.97-5.83c0.75-0.25,1.43-0.46,2-0.87c-0.83,2.25-1.67,9.34-5.92,14.23
		c-0.1,0.9,1.31,0.5,0.9,1.51c-1.61,2.11-4.62,2.11-6.03,4.42c0.6,0.9,1.71,0.3,1.91,1.31c-0.6,1.31-2.21,0.9-3.21,1.71
		c0.68,1.53,4.73,0.46-0.7,3.92c-0.1,1.1,1.71,0.6,1.51,2.01c-2.61,1.81-5.52,2.11-9.24,0.8c1.61,1.81,4.02,1.91,4.62,4.22
		c-2.71,1.51-5.22,0.2-8.54-0.3c2.51,1.51,4.22,2.91,5.32,5.02c-4.62-1.91-9.44-2.71-14.06-4.62c-3.1,1.14-8.11,2.62-4.92,3.41
		c6.85,1.26,9.41,9,14.46,11.65c4.75,2.49,7.74,15.3-7.13,20.99c-2.7,1.03-4.82,2.61-7.23,4.72c2.71,1.81,5.5,2.55,7.83,4.22
		c3.58,2.56,6.74,5.61,10.65,7.83c2.11,1.2,2.51,3.31,3.11,5.83c14.11-10.43,17.42-16.22,22.2-24.21c3.71-6.2-2.66-11.4,5.52-19.69
		c3.39-3.44,6.5-7.53,6.93-12.86c0.43-5.34,6.89-5.32-2.21-32.94c-1.46-4.43-3.52-8.04-8.83-8.04c0.28-0.14,0.59-0.23,0.93-0.24
		c-1.96-0.1-5.79,0.9-7.46,4.07c-0.84,0.03-1.68,0.11-2.56,0.11c1.89-4.9,3.55-5.76,10.17-5.76c4.22,0,7.46,1.69,9.34,5.62
		c3.26,6.81,5.02,14.16,5.72,21.39c2.45,25-13.86,27.23-13.86,42.49c0,16.01-23.05,34.45-26.92,32.64c-1.1-1.21,0.6-1.61,0.1-2.81
		c-3.94-4.24-4.22-5.77-6.93-1.71c-2.19,3.75-13.79-3.09-16.17-4.92c-5.18-4.53-1.78-3.11-4.52-7.13c-2.28-3.34-7.03-3.21-9.24-6.73
		c-2.51-5.02-52.15,1.62-79.35-17.78c-17.9-12.77-24.76-13.71-30.23,4.82c-1.66-1.66,1.63-4.98-3.62,0.9c-0.71,0.8-1.19,1.5-1,2.61
		c0.88,5.31-2.12,10.35-0.8,15.67c0.3,1.23-2.65,3.05-1.71,10.55c0.39,3.12,1,6.13,0.7,9.14c0.9,0.5,2.71-0.2,2.51,2.01
		c-37.29,6.78-18.21,3.05-34.45,14.06c-16.26,11.03-17.74,11.64-22.1,16.57c-18.04,20.42-31.43,18.79-38.57,20.09
		c-14.59,2.64-43.94,1.23-44.29-2.31c0.88-2.19,6.76-1.09,12.05-0.3c16.63,2.47,16.21,1.68,36.56-0.5c8.64-0.93,10.1-1.2,23.4-9.94
		c11.98-7.87,8.86-11.62,21.49-19.79c28.54-18.45,7-15.45,41.38-19.69c-0.92-3.48-2.8-18.22-1.51-20.19
		c9.67-14.65-5.58-56.81-24.21-66.69c-1.81,1.41-4.12,1.71-4.72,4.12c-6.7,0.96-23.14,11.37-27.52,16.57
		c-1.19,1.42-2.91,2.21-5.22,0.4c-3.52,5.42-7.03,10.65-13.96,10.75c-0.6,2.11-1,3.72-2.71,4.32c-6.61,2.3-9.73,8.93-17.49,9.12
		c0.36,0.58,0.11,1.61,0.61,1.53c2.11-0.37,1.72,1.01,1.61,2.11c-1.51,14.7-3.61,8.27-4.92,11.25c-3.38,7.67-0.35,2.6-4.62,12.96
		c-0.99,2.41-3.52,4.12-3.62,7.03c4.43,7.75,3.34,21.33,0.3,29.73c-1.3,3.59,1.82,11.24,0.2,19.49c-2.86-22.92,1.13-14.81-9.04-5.73
		c-2.31,2.31-6.89,4.74-10.04,8.44c-2.75,3.23-23.56,6.07-27.72,5.42c-6.53-1.01-12.65-3.44-18.98-5.12
		c-15.13-4.02-17.88-23.93-13.36-16.37c1.46,2.44,3.02,4.72,4.42,7.13c3.51,6.04,22.46,13.71,35.15,11.55
		c1.61-0.27,3.22-0.32,4.82-0.2c4.93,0.35,8.94-2.61,13.56-3.52c0.87,0-1.13,0.65,6.93-6.23c2.82-2.4,5.93-4.42,7.83-7.63
		c6.35-10.74,7.93-22.1,4.32-34.15c-3.62,2.51-3.62,2.51-7.13,0.1c8.95,45.72-45.42,63.07-66.39,27.12
		c-3.62,3.31-7.93,2.41-11.95,2.71c3.21-2.31,7.53-0.91,10.65-3.92c2.71-2.61,7.13-3.11,8.64-7.73c-5.02,2.11-10.04,2.41-14.97,3.01
		c3.82-2.71,8.64-2.11,12.25-3.92c1-1.51,0.3-3.11,1.51-4.32c1.41,1.31,0,2.71,0.5,4.02c2.31-1,3.82-2.91,6.03-3.92
		c-3.41,4.22-5.32,9.44-9.64,13.16c22.02,35.86,72.25,10.03,60.36-26.11c-1.1-0.7-2.21-0.1-3.31-1.1c0.2-0.9-1.31-1.81-0.2-3.31
		c1.31,1,1.91,3.82,4.02,1.41c0.6,0.1,0.4,1.1,1.1,1c3.01-1.31,4.62-3.72,5.83-6.53c-0.9-1-2.61-1.1-2.81-2.91
		c3.73,0.23,4.01,4.65,5.93-1.91c1.07-3.67,1.09-11.99,4.72-9.94c-3.86,4.44-1.58,11.17-5.12,14.36c-2.22,2-3.01,5.12-5.22,7.03
		c0.5,1.31,1.21,1.91,2.51,1.91c1.74-1.68,9.12-12.46,8.74-17.78c-0.36-4.97,7.19-9.12,4.62-16.57c-1.04-3.01,1.09-2.87,2.33-4.62
		c-0.01,0,0,0-0.01,0.01l0.03-0.03l0,0l0,0l0.07-0.07c-0.03,0.04-0.03,0.05-0.03,0.06c3.97-1.02,6.76-4.02,10.26-5.69
		c1.7-0.81,2.71-1.91,2.81-3.72c1.21-0.5,2.21-0.8,3.21-1.21c1.31-5.72,6.93-3.92,10.55-6.13c1.41-1.71,1.61-4.62,3.62-6.13
		c3.21-2.41,4.15-6.28,6.33-9.24c2.39-3.26-2.39-12.28-5.42-15.67c-9.74-10.87-13.93-28.99-27.82-33.65
		c-3.72-1.25-8.1-2.65-11.95-12.96c-4.4-11.78-12.12-14.4-21.9-19.59c-7.31-3.88-18.02-6.76-20.19,0.6
		c-2.16,7.33-7.33,13.25-7.33,15.17c5.01,4.5,10.36,12.82,12.76,14.16c9.63,5.41,12.9,14.51,17.88,16.07
		c1.28-8.06-4.22-12.76,1.31-18.98c-1.27,10.2,3.33,7.99,1.81,26.72c2.12,3.32,14.69,16.01,25.21,19.38
		c7.74-12.89,4.85-14.51,8-15.52c-2.24,11.6-10.88,29.34-12.22,30.08c-1.57,0.87-9.72,6.68-12.35,10.24
		c-9.52,12.91-10.89,8.4-13.76,13.76c-6.19,11.56-2.6,18.25-5.62,25.11c-1.85,4.21,3.29,7.69,4.72,2.31c-1.1-1-3.11-0.4-3.82-2.31
		c1.71-0.5,3.41,0.3,4.72,0.2c2.61-3.41,1.81-7.73,3.82-11.15c1.31,7.23-4.52,13.26-3.52,20.39c4.12,1.24,8.29-4.77,9.04-8.64
		c0.6-3.11,1.52-6.12,2.51-9.04c0.41-1.2,0.8-2.91,3.21-1.61c-5.16,7.99-5.45,22.68-15.47,20.89c-1.71-1.31-0.9-3.21-1.51-4.42
		c-0.92-0.35-6.68,2.16-5.62-8.04c-14.26-10.95-39.77-4.12-46.4,12.35c3.49,1.75,10.69,3.44,7.83,9.34c4.7,1.02,4.67,7.43-2.21,7.43
		c-19.97,0-18.77,2.44-20.19-0.2c12.48-2.43,26.09,0.84,23.6-5.12c-8.38-3.59-23.87-1.04-25.51-4.32c7.83-0.7,15.67,1.81,23.7,0.1
		c-8.1-10.53-23.67-4.65-24.71-8.44c1.1-1,2.51,0,3.52-0.9c1.49-5.06,2.23-5.58,0.9-6.03c-13.38-3.35-13.49,18.88-20.89,17.28
		c-0.3-1,1-1,0.4-2.11c-10.96,1.99-11.77-8.6-33.35-18.28c-5.94-2.66-7.64-8.01-15.57-5.12c-1.61,0.59-3.31,1.31-5.32,0.1
		c1.71-1.31,3.52-1,5.32-1.71c-1.51-0.7-3.01,0.2-4.62-0.6c1.89-0.98,13.03-0.7,21.9,4.02c5.02-4.22,8.61-9.35,10.24-15.67
		c4.66-18.02,5.39-24.36,4.52-31.94c-6.53,3.72-12.35,8.24-19.89,9.24c0.41-2.89,7.64-3.09,11.35-7.03
		c2.35-2.5,9.18-6.36,11.15-3.41c6.07-7.5,6.84,0.69,30.63,11.15c-1.1,0.4-1.61,0.7-1.71,0.6c-2.94-2.86-11.34-0.03-13.56-5.32
		c-4.12-0.2-8.74-2.61-11.75-6.73c-3.01,1.71-3.81,2.91-3.21,6.13c1.1,5.98-0.21,10.73-1,16.57c8.97,3.94,25.18,5.01,29.33-1.91
		c12.87-21.46,3.84-45.36-11.95-62.67c-8.86-9.72-9.81-16.04-16.37-20.89c-6.85,3.42-4.65,6.17-10.45,8.94
		c-2.92,1.4-5.83,2.91-8.94,3.52c-6.43,8.04-18.44,12.18-18.78,34.25c-0.27,17.47-9.15,19.79-10.35,35.35
		c-0.31,3.98,3.15,4.78,2.51,9.24c-1.41,0.2-1.21-1.51-2.11-1.51c-2.21,9.54-2.91,19.28-3.41,28.83c0.67,0.67-0.14,0.3,1.81,0.3
		c0.8,5.62,5.02,3.82,8.84,3.62c-0.3,1.81,0.8,2.21,1.71,3.01c5.24,5.24,0.2,2.86-3.11-1c-2.61,0.8-5.02,0.3-7.33-1.71
		c-0.3,2.91,1.01,5.22,1.31,7.63c1.07,8.67,6.41,6.93,9.64,8.84c13.92,8.25,24.41,15.04,39.97,14.16c4.37-0.25,19.97,2.39,22.7,5.83
		c6.49,8.16,13,1.68,13.86,2.71c-3.69,6.08-11.92,4.21-15.27-0.8c-3.19-4.78-7.69-2.38-11.35-3.62c-8.04-2.71-15.15-0.12-17.28-1.31
		c-3.03-1.68-6.43-2.2-9.74-3.21c-8.05-2.48-14.9-7.16-22.2-11.05c-6.79-3.62-7.93-1.24-9.64-3.82c-5.4-7.08-1.28-4.88-4.82-12.96
		C208.49,202.77,215.72,184.84,214.61,180.19z M483.59,126.55c4.42,0.2,8.54-1.51,13.16-1.71
		C491.72,122.74,487.6,124.34,483.59,126.55z M640.17,175.67c-3.97-1.63-4.88-7.86-5.83-3.11c-2.01-0.1-3.31-1.91-5.72-2.01
		c5.02,7.13,7.13,14.46,3.41,22.7C645.16,190.55,644.84,177.59,640.17,175.67z M614.05,198.16c12.13,2.9,6.63,8.94,11.25,10.65
		c4.9,1.82,6.13,4.4,12.86,5.52c0.8-0.9,1.41-1.71,2.21-2.61c-4.42-4.92-9.84-8.04-14.86-10.95c-0.6-1.31,0.2-1.91,0-2.41
		c-1.7-4.22-5.43-3.91-8.84-4.52c-25.66-4.59-33.03-6.11-34.83-6.55c-0.04,0.01-0.13,0.02-0.32,0.02
		c-9.92,0.55-21.23-1.42-27.92-0.2C589.84,194.17,611.54,190.29,614.05,198.16z M495.64,180.89c5.29-4.09,5.49-8.23,10.14-10.65
		c1.32-0.68,1.71-1.71,1.71-2.91c1.21-0.8,2.51,0,3.62-0.6c-1.27-3.38-7.59,0.82-10.04,3.41
		C494.52,177.05,494.78,171.5,495.64,180.89z M492.32,168.64c1.69-1.13-0.89-8.07,2.41,5.12c6.68-5.09,8.63-12.12,17.48-11.95
		c1.53,1.83-3.24,2.85,4.52,5.32c10.06,3.21,13.58,11.69,28.83,14.26c0.62-0.74-2.31-2.6,3.21-0.5c14.8,5.61,31.17,3.74,37.87,5.22
		c5.32,1.18,35.79,7.07,41.18,6.33c0.8,0.7-1.31,2.11,1.1,2.21c4.95-4.13-10.09-5.3-15.57-9.14c3.11-1.41,5.52,0.52,8.24,1.31
		c2.81,0.82,5.83,1.1,9.04,2.51c0.9-4.32,0.4-8.24-1-12.15c-2.91-0.5-5.93-0.8-9.04-2.61c3.21-0.4,5.62,1.1,8.34,0.9
		c-2.37-9.76-13.01-8.41-35.15-18.58c-2.18-1-34.86-21.17-54.84-25.21c-33.73-6.82-30.12-9.6-42.08-4.62
		c-4.42-0.2-8.42,1.35-12.55,2.61C456.04,138.26,479.64,129.7,492.32,168.64z M272.46,81.96c5.93,5.72,10.65,12.35,16.87,17.68
		c21.68,18.53,29.41,32.44,48.51,12.66c0.39-0.41,0.9-1,0.5-2.01c-2.21,0.9-3.82,2.81-6.13,4.02c1.31-2.41,2.11-3.11,6.13-4.92
		c2.01-7.63-2.01-14.26-3.72-21.8c-5.22,7.3-6.51,16.97-18.68,14.16c-4.23-0.98-4.42-1.1-7.33-4.02c-6.53,1.1-13.06-0.2-19.69-1.41
		c5.93-0.5,11.85,0.7,18.38,0.2c-28.42-29.86-9.82-36.2-18.98-37.87C286.51,73.23,288.2,67.91,272.46,81.96z M290.84,30.33
		c0.9,0.2,1.31,1,1.91,1.91C292.75,30.33,292.75,30.33,290.84,30.33z M302.29,24.11c1-0.7,1.91-1.31,2.91-2.01
		C303.1,21.19,302.9,22.9,302.29,24.11z M303.6,35.76c0.6,0.7,1,0.9,1.71,0.5C305.01,35.25,304.71,34.75,303.6,35.76z M308.82,33.95
		c1.61-0.4,2.61-1,3.31-2.81C310.53,31.64,309.23,31.94,308.82,33.95z M311.74,42.99c0.9-0.5,1.61-0.6,1.81-1.31
		C312.74,41.48,312.24,41.78,311.74,42.99z M314.95,22.8c0.2,1,1.1,0.9,1.51,1.71c0.7-1.1,1.1-1.81,1-2.81
		C316.16,21.49,315.65,22.4,314.95,22.8z M322.38,23.2c1.41,0.4,1.91,0.6,2.41-0.1C324.19,22.2,323.69,22.8,322.38,23.2z
		 M325.3,31.24c0.6,0.1,1.21,0.2,1.31-0.8C326.2,30.73,325.8,31.04,325.3,31.24z M325.4,31.34c-1.21,1.1-1.21,2.61-1.61,4.12
		c1.1,0.5,2.21,0.1,3.52,0.1C325.09,34.65,324.99,33.04,325.4,31.34z M329.61,17.38c0.3,1.71,1.1,2.91,3.11,3.82
		C332.12,19.08,330.82,18.28,329.61,17.38z M333.13,31.84c1.1,0.4,1.41-0.2,1.41-1.1C334.03,31.04,333.23,31.04,333.13,31.84z
		 M337.15,29.13c-1,0.2-1.81,0.9-2.71,1.51c1.1,1.1,2.21,2.01,3.82,2.11C339.26,30.63,339.26,30.63,337.15,29.13z M341.26,32.54
		c0.5,1.1,0.9,0.6,1.41,0.3C342.17,31.84,341.77,32.04,341.26,32.54z M347.29,23c-1.52,0.38-3.99,2.22,0.6,1.71
		C348.2,23.9,347.79,23.5,347.29,23z M342.77,65.79c1.1-0.1,1.31-0.8,1.31-1.81C343.17,64.28,342.57,64.58,342.77,65.79z
		 M342.67,66.79c-3.62,2.41-7.13-1.41-10.65,1.41c-1.14-4.23,3.05-2,9.94-5.52c1-0.51,1.91,0,3.11,0.3
		c1.91-5.32,2.91-10.85,3.31-16.47c-1.71-2.11-4.12-2.72-6.33-3.11c-5.22-0.93-10.04-2.96-15.07-3.92
		c-4.46-0.85,6.43-8.22-26.72,11.85c-0.81,0.49-1.51,0.5-2.21-0.4c-1.31,2.81-1.1,5.72-2.71,8.24c-1.51-2.51-1.41-8.84,0.4-11.55
		c0.8-0.5,0.8-1,0.2-1.91c-0.1,0.8-0.1,1.31-0.2,1.91c-1.1,0.1-1.4-0.71-1.71-1.61c-4.19-12.22-0.7,0.72-0.7,4.22
		c-2.71,0.7-1.81,3.72-3.11,5.62c-2.71-2.11,0.9-5.22-1.51-6.93c1.59-3.17,3.89,4.08,1.61-5.62c-1-0.4-1.81,0.7-2.91,0.1
		c-0.3,2.91-1.12,5.63-0.1,8.64c0.99,2.92,1.71,5.62,5.52,5.72c-3.13,17.9,5.91,27.14,19.79,41.28c7.48,0.94,10.97,3.14,14.26-2.61
		C342.29,69.58,342.29,72.72,342.67,66.79z M381.14,159.4c7.63-3.62,13.46-8.84,14.56-18.38c-9.54-2.91-17.68-8.44-24.31-16.97
		C371.05,140.42,366.33,140.96,381.14,159.4z M361.45,186.11c-2.21,0.74-1.64,2.29-0.4,2.11
		C361.75,187.72,361.45,186.92,361.45,186.11z M309.23,213.63c9.84-18.08,31.04-25.71,50.92-15.17c0.7-2.41,0.7-4.82,0.8-7.43
		c-19.15-8.93-47.29-4.08-59.66,21.39C304.3,214.54,306.91,212.23,309.23,213.63z M263.22,178.98c-1.1,5.22-3.74,9.33-5.62,13.76
		c-1.62,3.81-4.42,6.83-9.04,8.44c29.38,19.28,21.99,17.21,33.75,18.78c2.81-4.22,3.92-9.54,8.34-12.86
		C279.19,199.87,269.05,191.84,263.22,178.98z M274.47,91.4c5.77,8.5,33.42,35.52,27.52,68.7c1.31,0.8,2.71,0.3,4.02,0.7
		c-1.21,1.51-3.11,0.8-4.62,1.61c-7.61,14.28-6.89,14.96-17.98,17.17c-0.1,0-0.1,0.2-0.2,0.3c0,1.61,2.01,2.01,2.41,3.82
		c-2.31-0.7-3.52-2.31-5.02-3.82c-4.62,0.2-9.14-0.6-13.96-2.81c9.2,17.48,9.68,12.29,25.41,28.52c3.31-2.21,6.63-2.91,10.14-1.21
		c3.43-1.47,2.72-5.16,19.38-15.57c4.86-3.04,25.16-5.75,35.45-1.81c2.71-3.52,6.39-5.91,7.63-10.35c0.53-1.9,2.32-3,4.02-4.02
		c4.14-2.48,7.33-5.93,10.14-9.84c-1.81-4.22-4.52-7.83-7.23-11.45c-4.76-6.35-1.98-8.74-4.12-12.86c-1.8-3.47,2.12-7.48,0.6-15.17
		c-0.5-2.51,0.4-5.22,0.6-8.24c-1.21,0-2.01-0.6-2.61-1.31c-3.01-3.11-6.45-5.8-9.24-8.94c-1.42-1.6-2.91-3.11-5.12-3.82
		c-3.64-1.46-9.36-11.44-14.76-16.97c-1,0.5-1,1.51-1.51,2.21c1.51,1.21,2.41,2.51,2.51,4.42c0.17,3.08,4.76,10.63,3.92,18.78
		c-0.5,4.84-2.48,3.52-4.12,6.03c-3.59,5.51-12.54,11.77-20.69,8.04c-4.82-2.21-9.96-4.11-13.66-7.83
		c-7.96-8.01-17.32-14.41-24.71-23.1c-10.04-11.8-6.64-9.06-11.15-6.53C271.66,86.28,272.89,89.07,274.47,91.4z"/>
	<path d="M405.14,123.94l0.1,0.1C405.1,124.07,405.1,124.18,405.14,123.94z"/>
	<path d="M412.98,486.92c3.5,9.97,9.04,12.39,7.53,25.41c-0.5,4.35-2.94,23.31-7.23,22.6c3.12-19.68,7.86-32.12-2.11-43.59
		c-0.7-0.81-1.31-1.71-1-3.52C411.17,488.03,411.57,486.52,412.98,486.92z"/>
	<path d="M427.34,163.41c0.9-0.2,1.21,0.1,1.31,0.5c2.95,8.85,13.23,15.96,2.61,45.5c-1.32,3.66-2.9,1.88-2.61,1.31
		c1.81-7.33,2.78-14.77,3.82-22.2c0.78-5.63,0.29-11.04-2.61-15.97C428.14,169.64,428.85,166.33,427.34,163.41z"/>
	<path d="M462.09,159.09c7.43-0.66,17.32,22.41,20.19,29.33c1.69,4.08-1,4.42-3.62,9.34c-3.93,7.39-4.81,15.18-6.73,23.8
		c-1.12-0.72-1.29-0.57,0.3-8.34c4.56-22.21,10.94-18.41,7.43-26.21C475.19,177.05,470.63,167.13,462.09,159.09z"/>
	<path d="M466.11,516.86c-6.73,7.31-7.86,21.29-9.64,28.02c-1.55-0.9-1.34-1.27,0.4-9.14c5.15-23.23,10.82-17.24,7.73-24
		c-4.23-9.26-7.71-18.35-16.27-27.32c-0.4-0.5-1.51-0.7-1.1-1.71c7.47,0.68,16.7,22.42,19.49,29.33
		C467.4,513.75,467.41,515.44,466.11,516.86z"/>
	<path d="M340.06,219.26c5.45-2.3,11.3,1.49,11.85,4.12c1.41,6.74-0.57,14.96-7.43,15.87C334.17,240.62,328.58,224.09,340.06,219.26
		z M339.16,236.03c4.72,2,8.82,0.8,10.45-3.41c1.09-2.82,0.5-5.93,0.4-8.74c-2.71-2.91-6.13-3.13-9.44-2.81
		C334.84,221.62,333.43,233.6,339.16,236.03z"/>
	<path d="M374.31,512.84c1.31,0.1,1.51,0.9,1.51,2.01c-0.9,0.3-1.09,1.11-1.31,2.01c-6.27,26.56,2.65,29.57,0,31.74
		C367.38,540.56,367.28,518.96,374.31,512.84z"/>
	<path d="M362.06,579.33c2.82-6.2,5.43-9.23,4.82-14.26c-1.05-8.72-6.08-4.36-5.83-10.95c0.66-17.17-2.41-19.89-0.4-19.89
		c2.19,1.32,2.57,17.81,2.51,21.9C371.3,561.85,370.89,573.3,362.06,579.33z"/>
	<path d="M389.48,503.2c3.92,16.47,0.8,31.64-9.34,45.2C391.15,521.05,388.71,533.09,389.48,503.2z"/>
	<path d="M404.74,179.78c4.92,14.97-0.2,35.56-9.74,45.5C406.52,199.95,404.74,205.23,404.74,179.78z"/>
	<path d="M390.08,500.28c-1.1,1.31-1.1,1.31-4.22,2.61c1.71,4.42,1.81,5.72,0.5,9.44c-2.82-0.6-4.67,6.34-10.45,2.41
		c3.21-1.21,6.43-2.91,9.14-5.42c-0.2-1.91-1.02-3.71-2.01-5.52C380.96,499.99,387.35,499.17,390.08,500.28z"/>
	<path d="M454.66,146.94c4.82-2.31,15.67,2.91,18.78,9.44c-2.11-0.8-3.11-2.11-4.32-3.01C460.71,148.27,455.36,150.78,454.66,146.94
		z"/>
	<path d="M439.19,470.55c4.32-2.81,16.27,3.01,18.18,8.94c-1.41-0.7-2.41-1.81-3.62-2.61C444.25,471.5,440.68,474.34,439.19,470.55z
		"/>
	<path d="M343.07,558.64c4.07-6.4,9.94-11.15,15.07-16.57c0.96,3.25-13.86,14.88-13.86,20.39
		C342.17,560.65,341.98,560.35,343.07,558.64z"/>
	<path d="M399.42,268.57c2.91-11.75,7.73-22.6,14.36-32.74C408.26,246.48,403.84,257.52,399.42,268.57z"/>
	<path d="M397.81,560.34c-5.22,10.14-9.44,20.89-13.76,31.44C386.86,580.53,391.38,569.99,397.81,560.34z"/>
	<path d="M328.61,228.8c-0.37-7.69,7.76-12.14,8.68-12c-0.08-0.05-0.17-0.09-0.25-0.16c7.4-2.47,6.75,0.77,11.25-0.4
		c1.21-0.4,2.41,0.9,3.21,2.41c-6.77-2.88-11.9-0.59-14.13-1.8c0.02,0.12-0.25,0.41-0.94,0.89c-7.15,4.97-5.02,11.3-5.02,15.17
		c-0.11,0.18,1.05,2.74,3.11,4.42c0.71,0.58,1.76,1.55,1.21,2.11c-4.31-0.7-5.82-2.7-4.63-6.3
		C329.39,232.23,328.7,230.67,328.61,228.8z"/>
	<path d="M396.81,261.14c3.36-17.91,19.36-64.44,1.51-3.01C398.02,259.13,397.81,260.34,396.81,261.14z"/>
	<path d="M262.82,109.08c-4.32,2.81-8.54,5.62-11.05,10.14C253.35,112.43,259.59,104.89,262.82,109.08z"/>
	<path d="M397.41,175.37c0.1,1.71-1.1,3.01-1.51,4.72c-0.6,0.1-1.41,0.5-2.01-0.6c1.1-5.62,5.62-7.63,10.35-9.44
		c1.21-1.41,1.61-3.52,4.32-4.12C406.65,171.65,400.93,172.15,397.41,175.37z"/>
	<path d="M381.84,582.54c0.3-2.43,6.19-23.28,6.23-23.4C394.42,536.77,383.92,581.39,381.84,582.54z"/>
	<path d="M420.41,187.02c-3.31-5.72-5.83-13.66-4.72-16.07C418.3,176.37,420.11,181.49,420.41,187.02z"/>
	<path d="M391.28,468.95c5.02,0,7.03,4.22,11.05,6.33C399.22,476.78,394.6,473.87,391.28,468.95z"/>
	<path d="M345.58,366.1c0.93-2.15,0.81-4.22-0.43-6.12c-0.51-1.52,2.86-3.77,3.85-6.94c1.21,0.7,2.31,0.2,3.31,0.4
		c0.4,2.81-2.41,1.1-3.01,2.61s-1.81,2.61-2.81,3.92C348.87,365.32,346.98,367.35,345.58,366.1z"/>
	<path d="M424.33,241.96c10.49-35.96,6.55-17.55,3.62-8.84C426.93,236.13,426.24,239.34,424.33,241.96z"/>
	<path d="M412.68,555.83c-7.4,23.08,0.41-9.43,3.41-12.25C415.29,547.99,413.93,551.92,412.68,555.83z"/>
	<path d="M232.19,208.51c-7.73-1.1-11.15-2.81-11.35-6.23C223.63,205.52,227.94,203.65,232.19,208.51z"/>
	<path d="M474.04,517.26c0.1,8.34-1.51,15.47-3.82,16.97C471.23,528.3,473.24,522.88,474.04,517.26z"/>
	<path d="M485.9,210.52c0.9-5.62,2.51-10.95,3.62-16.47C489.71,201.48,488.11,209.01,485.9,210.52z"/>
	<path d="M314.35,379.66c5.68-4.16,6.06-6.03,9.04-5.62C320.78,378.45,317.46,380.66,314.35,379.66z"/>
	<path d="M359.14,401.75c-1.41-4.32-3.01-8.44-4.02-12.86C358.24,392.71,359.34,397.03,359.14,401.75z"/>
	<path d="M416.89,139.71c0.7-5.02,5.12-8.34,9.04-6.43C421.92,134.39,418.9,136.4,416.89,139.71z"/>
	<path d="M239.92,113.29c-1.91,6.43-4.82,12.45-6.73,18.78C234.1,125.35,237.01,119.32,239.92,113.29z"/>
	<path d="M279.19,139.31c-1.1,2.91-3.92,3.92-6.23,5.52C276.28,137.9,277.08,137.1,279.19,139.31z"/>
	<path d="M360.55,69.2c-3.31-1.1-6.13-2.01-9.34-3.11C354.52,64.38,359.54,65.99,360.55,69.2z"/>
	<path d="M348.5,433.19c1.91,4.12,5.32,6.83,8.54,9.64C350.71,440.52,346.79,436,348.5,433.19z"/>
	<path d="M349.2,581.74c0.1-4.32-1.31-8.54-0.6-12.86C349.6,573.1,350.81,577.42,349.2,581.74z"/>
	<path d="M299.88,409.79c1.31,0.4,6.03,6.93,7.13,9.44C304,416.12,300.89,413.81,299.88,409.79z"/>
	<path d="M335.04,437.91c-0.7,3.01-3.82,4.42-4.42,7.43c-0.3-1.41-0.7-2.71-0.1-4.42C332.83,441.33,333.13,438.41,335.04,437.91z"/>
	<path d="M399.62,491.95c0.38,1.16-0.24,1.85-0.38,2.61c1.69,0.21,2.18,1.61,2.59,2.91c3,9.51,4.02,11.14,2.81,13.56
		c-6.67-17.92-5.59-14.5-5.43-16.36c-2.11,0.9-4.41,1.81-6.22,3.3C394.6,495.26,397.01,493.65,399.62,491.95z"/>
	<path d="M369.89,588.67c-0.5-3.82-1.81-7.63-0.8-11.45C370.61,579.97,370.34,585.49,369.89,588.67z"/>
	<path d="M394.2,483.61c-3.92-3.01-5.32-6.43-4.02-9.14C390.48,477.78,392.29,480.3,394.2,483.61z"/>
	<path d="M291.05,224.58c-0.3,1.81-0.5,3.62,0.1,5.42C287.25,228.3,288.66,224.05,291.05,224.58z"/>
	<path d="M232.99,178.48c-0.8-3.11-0.2-5.93,1.41-8.64C235.6,173.06,232.29,175.37,232.99,178.48z"/>
	<path d="M350.71,239.44c2.41-2.51,4.22-5.32,5.12-8.84C355.83,234.62,354.12,237.44,350.71,239.44z"/>
	<path d="M410.27,478.99c-2.21,1-4.52,1.21-7.33-0.1C405.85,478.19,408.06,478.29,410.27,478.99z"/>
	<path d="M334.64,558.94c0.89,0.44,0.64,0.15-5.22,6.93C327.7,565.01,333.3,560.1,334.64,558.94z"/>
	<path d="M311.33,221.37c0.3-1.81-0.9-3.11-1-5.12C313.24,218.15,313.54,219.46,311.33,221.37z"/>
	<path d="M383.25,186.51c0.7-2.11-1.61-4.02-0.2-6.23C382.85,182.4,385.36,184.2,383.25,186.51z"/>
	<path d="M283.61,173.86c-3.72-1.51-4.22-2.01-4.32-4.52C281.2,170.34,282.41,171.85,283.61,173.86z"/>
	<path d="M373.91,103.75c0.4-2.61,0.6-2.71,4.12-2.61C376.62,101.94,376.12,103.85,373.91,103.75z"/>
	<path d="M222.55,185.51c-0.4-2.01-2.91-2.91-3.31-5.62C222.04,181.19,222.85,183,222.55,185.51z"/>
	<path d="M289.64,220.76c-1.81-2.31-1.71-3.52,0.3-5.42C290.34,217.25,289.94,218.85,289.64,220.76z"/>
	<path d="M294.06,242.96c1.1,1.51,1.51,2.91,0.8,4.62C293.96,246.27,292.15,245.17,294.06,242.96z"/>
	<path d="M376.02,260.03c2.31,1.91,0.5,4.32,0.8,6.43C375.49,263.13,375.77,260.28,376.02,260.03z"/>
	<path d="M319.97,431.68c-1.61-2.11-2.81-3.72-2.81-6.03C318.57,427.16,319.67,428.77,319.97,431.68z"/>
	<path d="M360.75,450.97c-2.11-1.1-3.11-2.81-3.52-5.52C359.54,446.95,360.05,449.06,360.75,450.97z"/>
	<path d="M361.45,589.57c-0.9-1.81-1.31-3.62-0.4-5.62C361.96,585.76,361.65,587.66,361.45,589.57z"/>
	<path d="M368.08,70.91c-1.61-0.8-3.21-1.31-4.92-1.61C365.57,67.8,367.18,68.4,368.08,70.91z"/>
	<path d="M381.04,191.94c0.1-2.21,0.9-3.31,2.41-4.72C384.25,189.73,383.05,190.63,381.04,191.94z"/>
	<path d="M228.37,147.85c-1.51-2.61-0.6-4.52-0.1-6.43C228.47,143.33,228.97,145.23,228.37,147.85z"/>
	<path d="M328.21,416.62c1.91,0,3.11,0.5,3.92,2.61C330.12,418.93,328.91,418.43,328.21,416.62z"/>
	<path d="M383.75,490.34c0.1,2.11-0.3,3.52-1.81,4.92C381.84,493.25,382.04,491.85,383.75,490.34z"/>
	<path d="M230.08,151.16c0.4,1.61,0.9,3.21,1.61,5.32C229.28,154.88,229.58,152.97,230.08,151.16z"/>
	<path d="M381.94,99.94c0.4-1.21,1.21-1.51,2.01-1.61c1.1,0.1,1.1,1.61,2.31,1.61c-0.1,0.2,0,0.5,0.1,1.41
		C385.06,99.84,383.45,100.24,381.94,99.94z"/>
	<path d="M375.61,186.71c-0.7-2.71-0.1-3.41,2.51-3.62C377.32,184.3,375.61,185.01,375.61,186.71z"/>
	<path d="M421.41,146.34c1.21-1.21,1.41-3.21,3.82-4.32C424.23,144.33,423.32,145.74,421.41,146.34z"/>
	<path d="M292.35,237.24c-1.91-1.91-1.91-2.01,0-4.02C292.35,234.72,292.35,235.93,292.35,237.24z"/>
	<path d="M342.87,376.54c1.81,0.4,2.81,1.81,3.82,3.21C345.18,379.05,343.78,378.15,342.87,376.54z"/>
	<path d="M368.89,206.8c1.91-0.5,2.91,0.6,4.42,1.51C371.3,208.81,369.89,208.71,368.89,206.8z"/>
	<path d="M227.17,224.78c-1-0.4-2.01-0.8-2.71-2.21c1.41,0.5,2.31,1,3.01,1.81C236.76,229.27,232.31,229.02,227.17,224.78z"/>
	<path d="M238.01,221.16c-1.51,0.4-2.51-0.1-3.41-1.1C235.8,220.26,237.11,219.76,238.01,221.16z"/>
	<path d="M288.64,242.66c0,0.14-2.85-0.49-3.72-2.01C286.01,241.44,288.77,239.39,288.64,242.66z"/>
	<path d="M288.64,242.66C295.76,244.56,290.36,247.09,288.64,242.66L288.64,242.66z"/>
	<path d="M408.76,148.75c0.5-1.81,1.51-2.61,2.71-3.21C411.17,147.04,410.47,148.05,408.76,148.75z"/>
	<path d="M385.56,467.74c1.21,0.4,2.61,0.2,3.62,1.91C386.66,469.55,386.66,469.55,385.56,467.74z"/>
	<path d="M241.43,212.93c-1.71,0.2-2.81,0.4-3.82-0.8C238.92,211.52,239.92,211.52,241.43,212.93z"/>
	<path d="M247.46,132.18c-0.3-1.21-0.5-2.31,0.5-3.31C248.56,130.07,248.26,131.17,247.46,132.18z"/>
	<path d="M367.38,455.39c-1.71-0.4-2.81-0.7-3.72-2.21C365.37,453.38,366.27,453.98,367.38,455.39z"/>
	<path d="M314.25,228.9c-0.1-1.61-0.3-2.61,0.5-4.02C315.85,226.49,315.75,227.49,314.25,228.9z"/>
	<path d="M335.84,239.55c1,0.7,2.41,0.8,3.01,2.41C336.95,242.26,336.04,241.25,335.84,239.55z"/>
	<path d="M377.22,181.49c-0.3-1.21,0.6-2.01,0.7-3.11C378.83,179.88,378.83,179.88,377.22,181.49z"/>
	<path d="M373.61,458c-1.21,0-2.11-0.4-3.11-1.71C372.1,456.39,373,456.99,373.61,458z"/>
	<path d="M401.63,490.34c0.8-0.8,1.81-1.21,3.72-1.41C403.24,490.44,403.24,490.44,401.63,490.34z"/>
	<path d="M267.94,226.09c1.31-0.3,2.31-0.6,3.01,0.8C269.85,227.29,268.95,227.59,267.94,226.09z"/>
	<path d="M392.04,545.43c0.44-1.38,0.3-3,1.46-4.07C393.19,542.75,393.09,544.32,392.04,545.43z"/>
	<path d="M392.04,545.43c-0.06,0.14-0.05,0.23-0.05,0.05C392.01,545.46,392.02,545.44,392.04,545.43z"/>
	<path d="M391.58,548.39c-0.2,1.61-0.4,3.11-1.31,4.42C390.18,551.2,390.38,549.7,391.58,548.39z"/>
	<path d="M273.27,234.82c0.8-0.8,1.51-0.9,2.31,0C274.77,235.83,274.07,235.73,273.27,234.82z"/>
	<path d="M407.61,222.92c0.04-0.19,0.04-0.18,0.04-0.05C407.64,222.89,407.63,222.91,407.61,222.92z"/>
	<path d="M407.61,222.92c-0.36,1.47-0.4,3-1.37,4.27C406.25,225.6,406.64,224.13,407.61,222.92z"/>
	<path d="M231.69,218.05c-1.91,0-2.71-0.6-3.11-1.81C229.88,216.04,230.58,216.85,231.69,218.05z"/>
	<path d="M400.42,122.33c-1.71-0.8-2.21-1.91-2.51-3.01C399.12,119.72,399.72,120.63,400.42,122.33z"/>
	<path d="M386.96,186.21c-0.7-0.8-1-1.51-0.1-2.81C387.37,184.51,388.17,185.21,386.96,186.21z"/>
	<path d="M372.5,71.81c-0.9,0.2-1.71,0.5-2.41-0.7C371.09,70.61,371.9,70.71,372.5,71.81z"/>
	<path d="M232.99,181.69c0.5,1.81,0.7,2.91-0.4,4.02C231.99,184.4,232.29,183.4,232.99,181.69z"/>
	<path d="M388.37,99.33c-0.5,1-1.41,0.5-2.21,0.5C387.17,98.73,387.17,98.73,388.37,99.33z"/>
	<path d="M392.99,442.73c1,1,1.71,1.81,1.51,3.21C393.29,445.24,392.59,444.54,392.99,442.73z"/>
	<path d="M361.65,428.67c-1.31,0.3-2.31,0.5-3.01-1.1C359.95,427.26,360.95,427.16,361.65,428.67z"/>
	<path d="M374.71,73.12c0.8,0.3,1.81,0.1,2.21,1.61C375.92,74.32,375.01,74.22,374.71,73.12z"/>
	<path d="M392.89,111.39c-0.3-0.8-0.5-1.51-0.8-2.11C392.99,109.58,393.39,110.28,392.89,111.39z"/>
	<path d="M236.01,211.72c-1-0.5-2.11-0.3-2.51-2.11C234.6,210.32,235.6,210.22,236.01,211.72z"/>
	<path d="M312.24,241.86c-0.3-1.1-0.6-2.01,0.7-2.41C313.64,240.25,313.54,240.95,312.24,241.86z"/>
	<path d="M369.09,91.5c-0.8-1.1-0.4-1.81,0.8-2.71C370.39,90.09,370.59,91,369.09,91.5z"/>
	<path d="M408.56,566.37c-0.1-1.1,0.4-1.91,1-2.61C409.56,564.66,409.36,565.57,408.56,566.37z"/>
	<path d="M390.08,105.06c-0.8-0.4-1.21-1.1-1.91-2.51C389.37,103.55,389.98,104.15,390.08,105.06z"/>
	<path d="M369.59,183.7c-0.2-1,0.3-1.51,1.51-2.01C370.89,182.9,370.69,183.7,369.59,183.7z"/>
	<path d="M423.32,244.57c-0.1-1.1,0.4-1.81,1-2.51C424.33,242.86,424.33,243.76,423.32,244.57z"/>
	<path d="M278.59,237.74c1.1-0.3,1.61,0.1,2.31,1C279.7,238.94,279.19,238.54,278.59,237.74z"/>
	<path d="M426.34,141.42c-0.3-1,0.2-1.61,1.31-2.11C427.74,140.61,427.34,141.12,426.34,141.42z"/>
	<path d="M414.79,141.22c-0.1,1.51-0.8,2.11-2.31,2.81C412.88,142.52,413.18,141.62,414.79,141.22z"/>
	<path d="M356.03,429.07c-0.8,0.6-1.41,0.6-1.71-0.3C355.02,428.07,355.43,428.17,356.03,429.07z"/>
	<path d="M239.32,161.61c-0.3,0.5-0.7,0.9-1.81,0.8C238.32,161.3,238.32,161.3,239.32,161.61z"/>
	<path d="M415.19,161.4c-0.1,0.8-0.4,1.31-1.61,1.61C413.88,162.21,413.88,161.4,415.19,161.4z"/>
	<path d="M286.53,234.62c0.63-0.84,2.21-0.15,1.61,0.9C287.33,235.73,286.83,235.43,286.53,234.62z"/>
	<path d="M388.47,189.63c-0.7-0.1-0.9-0.5-0.7-1.41C388.67,188.52,388.97,188.92,388.47,189.63z"/>
	<path d="M310.03,421.04c0.8,0.1,1.31,0.3,1.1,1C310.53,422.24,310.13,421.94,310.03,421.04z"/>
	<path d="M239.22,230.1c-0.5,0.3-1,0.3-1.51-0.1C238.22,229.8,238.72,229.8,239.22,230.1z"/>
	<path d="M347.79,240.95c-0.1,0.8-0.5,1.21-1.71,1.21C346.39,241.15,346.69,240.65,347.79,240.95z"/>
	<path d="M405.75,122.13c0.6,1.1-0.5,1.21-0.7,1.81C405.14,123.34,404.44,122.43,405.75,122.13z"/>
	<path d="M407.15,118.52c1.1,0.6,1,1.1,0.2,1.61C406.55,119.72,406.65,119.22,407.15,118.52z"/>
	<path d="M391.99,545.58c0,0.9,0.2,1.91-0.4,2.81C391.38,547.39,391.79,546.48,391.99,545.58z"/>
	<path d="M234.6,228.4c-0.6,0-1.1,0-1.51-0.5C233.49,227.99,234.1,227.69,234.6,228.4z"/>
	<path d="M407.65,222.77c0-0.75-0.16-1.67,0.54-2.36C408.02,221.22,407.84,221.96,407.65,222.77z"/>
	<path d="M408.36,220.26c-0.06,0.05-0.11,0.1-0.16,0.15C408.27,220.09,408.23,220.13,408.36,220.26z"/>
	<path d="M408.26,220.16c0-0.5-0.1-1.1,0.3-1.71C408.96,219.16,408.46,219.66,408.26,220.16z"/>
	<path d="M394.2,539.05c-0.4,1.21-0.5,1.71-0.7,2.21C393.49,540.76,393.29,540.26,394.2,539.05z"/>
	<path d="M342.07,242.26c0.6-0.3,1.21-0.5,1.71,0.1C343.17,242.96,342.57,243.26,342.07,242.26z"/>
	<path d="M222.35,187.92c-0.36,0.73-1.18,0.07-0.6-0.7C222.25,187.22,222.55,187.42,222.35,187.92z"/>
	<path d="M411.57,164.12c0.2,0.99-1.66,0.95-0.9,0.2C410.87,163.92,411.47,163.61,411.57,164.12z"/>
	<path d="M391.28,106.87c-0.8-0.7-1.1-1.1-1.1-1.81C390.88,105.26,390.98,105.86,391.28,106.87z"/>
	<path d="M395.9,116.21c0.4,0.3,0.5,0.7,0.6,1.1C396.2,117.11,395.8,116.81,395.9,116.21z"/>
	<path d="M396.51,117.31l0.1-0.1C396.68,117.51,396.73,117.44,396.51,117.31z"/>
	<path d="M396.67,117.42c0.64,0.46,1.24,0.96,1.14,1.9C397.17,118.86,396.87,118.23,396.67,117.42z"/>
	<path d="M251.17,120.63c0.1-0.6,0.1-1.1,0.7-1.31C251.77,119.72,252.08,120.43,251.17,120.63z"/>
	<path d="M271.06,448.96c-1.64-4.69-6-31.8-1-31.05c-0.7-5.01,0.4-9.43,3.11-11.04C265.49,424.62,275.65,462.08,271.06,448.96z"/>
	<path d="M340.56,516.15c0.7-0.91,1.31-2.11,2.81-2.01c-4.51,4.51-13.58,20.32-14.56,36.76c-1.51,0.1-1.39-1-1.21-2.01
		C328.92,541.85,329.9,530.08,340.56,516.15z"/>
	<path d="M322.88,531.52c-1.1,2.51-2.11,5.12-3.11,7.73C319.27,536.04,320.57,533.53,322.88,531.52z"/>
	<path d="M332.93,493.45c0.9-2.01,1.61-4.32,4.22-5.22C333.51,493.99,333.47,494.53,332.93,493.45z"/>
	<path d="M281.7,487.83c0.5,1.71,1.1,3.31,1.61,5.02C282.21,491.34,281.5,489.64,281.7,487.83z"/>
	<path d="M279.19,482.3c0-0.3,0-0.6,0-0.9C279.6,481.4,279.59,482.01,279.19,482.3z"/>
	<path d="M565.34,497.37c-1.61-0.4-2.21-1.51-3.01-2.21c-1.1-0.7-0.21-2.09-1.31-2.81c-12.72-8.33,2.84-1.49-19.28-13.06
		C533.19,474.82,560.16,481.49,565.34,497.37z"/>
	<path d="M489.71,452.17c-3.92,0.9-7.42-0.88-10.85,0.8c-10.56,5.19-9,5.2-9.64,3.92C479.87,451.27,482.67,448.26,489.71,452.17z"/>
	<path d="M513.92,454.88c-1.31,3.11-2.91,6.03-7.23,7.13C507.59,457.6,511.41,456.89,513.92,454.88z"/>
	<path d="M528.98,468.95c-4.52-1.31-8.64-3.92-12.35,0.6C517.94,464.83,524.06,464.43,528.98,468.95z"/>
	<path d="M505.68,459.2c-2.81,0.8-5.42,0-8.14-0.8C500.36,458,503.17,457.5,505.68,459.2z"/>
	<path d="M537.62,471.76c3.72,0,6.53,2.71,9.94,3.52C543.75,475.68,540.74,473.57,537.62,471.76z"/>
	<path d="M484.19,474.87c-1.41,2.11-4.02,1.71-5.83,2.91C480.17,473.97,481.68,473.26,484.19,474.87z"/>
	<path d="M557.11,479.89c-2.51-1-4.92-1.91-7.23-2.81C552.89,476.68,555.5,477.28,557.11,479.89z"/>
	<path d="M590.05,507.01c-2.21,0.4-2.21,0.4-3.72-1.31C587.94,505.2,588.95,506.21,590.05,507.01z"/>
	<path d="M478.56,479.19c-1.41,2.51-1.41,2.51-3.31,2.81C475.85,480.7,476.76,479.89,478.56,479.19z"/>
	<path d="M583.22,506.11c-1.1,0.3-1.91,0.2-2.71-1C581.81,505,582.82,504.7,583.22,506.11z"/>
	<path d="M595.98,508.62c-1.21,0.5-2.01,0.3-2.91-0.9C594.37,507.41,595.37,507.31,595.98,508.62z"/>
	<path d="M477.66,491.44c-0.2-0.9-0.4-1.61-0.6-2.41C477.86,489.64,478.06,490.34,477.66,491.44z"/>
	<path d="M536.52,476.38c-1,0.3-1.71,0.3-2.01-0.8C535.51,475.17,536.01,475.47,536.52,476.38z"/>
	<path d="M529.99,474.87c-0.8,0.5-1.41,0.5-2.01-0.6C528.98,473.87,529.69,473.77,529.99,474.87z"/>
	<path d="M566.95,501.89c-0.9-0.2-1.31-0.6-0.8-1.51C566.95,500.58,567.15,500.99,566.95,501.89z"/>
	<path d="M642.78,510.03c-5.72-1-7.17-2.3-6.43-5.42C637.38,500.26,646.78,499.09,642.78,510.03z M639.77,507.72
		c0.5-1.1,0.9-2.81,2.81-1.1c0.3-2.11-0.6-2.91-2.11-3.31C637.97,502.88,636.25,506.47,639.77,507.72z"/>
	<path d="M638.16,496.57c0-5.6,8.04-5.35,8.04-0.1C646.2,501.83,638.16,502.13,638.16,496.57z M644.69,496.47
		c-0.38-2.87-4.92-2.93-4.92,0C639.77,499.57,644.88,499.58,644.69,496.47z"/>
	<path d="M640.67,490.94c-1.5-1.91-0.4-3.92,0.2-6.03c6.23,1.1,6.23,1.1,7.43,2.71c-0.6,1-2.01-0.3-2.51,0.8
		c-0.4,1.61,2.61,2.11,1.21,4.22c-0.7-0.5-1.41-1-2.11-1.51C643.38,491.65,641.78,492.35,640.67,490.94z M642.28,487.02
		c-2.14,2.67,1.44,4.51,1.71,1.31C644.1,487.03,643.08,487.13,642.28,487.02z"/>
	<path d="M247.66,482.71c10.71-2.86,10.32-7.19,12.35-4.42c-5.25,5.83-6,3.28-10.45,6.03c-2.11,1.3-4.22,2.91-6.83,3.21
		C243.34,484.82,245.04,483.4,247.66,482.71z"/>
	<path d="M264.33,490.04c-1.18,3.14-4.85,3.79-5.42,3.21C260.51,491.75,262.32,490.84,264.33,490.04z"/>
	<path d="M247.15,471.26c1.71-0.8,3.01-2.71,5.72-3.11C251.47,470.65,249.46,471.16,247.15,471.26z"/>
	<path d="M258.91,493.35c0.27,0.27-1.09,3.37-3.41,4.32C255.99,495.36,256.7,493.75,258.91,493.35z"/>
	<path d="M242.84,487.53c-0.1,1.71-1.31,2.31-3.21,3.01C240.42,488.73,241.23,487.73,242.84,487.53z"/>
	<path d="M239.02,471.26c0-1.11-0.44-0.75,4.72-0.4C242.13,471.96,240.53,471.66,239.02,471.26z"/>
	<path d="M267.84,510.93c-0.3-1.1-0.3-2.21,0-3.82C267.84,508.62,267.84,509.72,267.84,510.93z"/>
	<path d="M278.99,520.17c-0.9-0.5-1.1-1.21-0.8-2.71C279.39,518.46,280,519.06,278.99,520.17z"/>
	<path d="M268.15,516.86c0-0.3,0-0.6,0-0.9C268.35,516.15,268.65,516.55,268.15,516.86z"/>
	<path d="M239.22,491.75c-0.7,0.3-0.8,1-1.61,0.6C237.61,491.65,238.01,491.44,239.22,491.75z"/>
	<path d="M287.03,383.47c-1.71,2.41-2.81,5.32-4.82,7.63C282.91,387.99,284.22,385.28,287.03,383.47z"/>
	<path d="M281.2,392.91c0.4,0.8,0.1,1.21-0.8,1.21C280.3,393.52,280.6,393.12,281.2,392.91z"/>
	<path d="M359.95,175.06c-38.79,11.75-28.32,10.73-31.74,10.04c13.04-9.09,27.17-9.04,41.38-15.17
		C368.22,173.13,365.64,173.34,359.95,175.06z"/>
	<path d="M333.73,123.34c-0.24-0.69,1.13-5.19,6.93,8.74C337.45,129.87,335.01,127.06,333.73,123.34z"/>
	<path d="M348.6,151.86c4.02,1.51,8.34,8.14,8.04,11.75C354.22,159.4,351.81,155.38,348.6,151.86z"/>
	<path d="M373.91,162.21c-2.71,3.72-6.23,6.13-10.65,7.13C366.37,166.43,370.89,165.42,373.91,162.21z"/>
	<path d="M331.62,151.66c2.51-2.31,2.51-5.22,3.82-8.04C337.45,146.84,335.94,150.16,331.62,151.66z"/>
	<path d="M289.54,183.4c2.01,3.62,6.13,3.11,8.94,5.22C294.56,189.33,289.74,186.51,289.54,183.4z"/>
	<path d="M298.28,179.08c2.31-1.61,4.02-0.6,6.43,1.1C301.89,180.89,300.29,179.18,298.28,179.08z"/>
	<path d="M354.52,181.49c1.61-0.7,3.11-1.31,4.62-2.01C357.94,181.09,356.33,181.39,354.52,181.49z"/>
	<path d="M310.23,161.71c1.61-1.1,2.61-1.91,4.82-1.31C313.24,161.3,312.24,162.01,310.23,161.71z"/>
	<path d="M357.84,165.52c1.31,1,2.51,1.31,2.51,3.01C359.54,167.63,357.84,167.73,357.84,165.52z"/>
	<path d="M344.18,134.19c1.41,0,2.21,0.6,2.51,1.91C345.58,135.89,344.38,135.89,344.18,134.19z"/>
	<path d="M322.18,158.59c-1.81,1.1-1.81,1.1-3.82,1.1C319.57,158.49,320.57,158.29,322.18,158.59z"/>
	<path d="M294.86,179.88c-1,0.1-1.81-0.3-2.81-1.21C294.26,178.18,294.26,178.18,294.86,179.88z"/>
	<path d="M328.41,155.68c1.21-1.81,2.41-2.51,4.52-2.71C331.42,154.27,330.42,155.28,328.41,155.68z"/>
	<path d="M302.7,188.82c-0.9,0.6-1.51,0.6-2.01-0.1C301.39,187.92,301.89,187.92,302.7,188.82z"/>
	<path d="M311.74,179.58c-0.3,0.8-0.8,1.1-1.61,0.4C310.43,179.08,311.03,179.08,311.74,179.58z"/>
	<path d="M581.01,173.96c-1.71-0.2-2.31-1.41-3.21-2.01c-1.21-0.7-0.39-2.23-1.51-3.01c-4.46-3.1-7.93-7.45-13.06-9.74
		c-2.71-1.21-5.52-2.31-7.53-4.82c4.12,1.91,8.83,2.42,12.55,5.32C581.92,170.33,574.97,163.99,581.01,173.96z"/>
	<path d="M504.48,129.16c-9.95-2.88-17.49,5.9-18.48,3.92C492.8,129.3,499.79,123.87,504.48,129.16z"/>
	<path d="M529.89,131.07c-1.61,3.62-3.41,6.13-6.63,7.43C522.05,136.19,522.66,135.39,529.89,131.07z"/>
	<path d="M544.15,145.43c-2.71-0.8-4.73-1.36-6.63-1.81c-2.32-0.55-3.41,2.31-5.72,2.21C533.8,141.62,539.43,141.22,544.15,145.43z"
		/>
	<path d="M499.56,151.86c-1.51,1.61-3.92,1.41-5.83,2.51C494.49,151.49,499.09,148.62,499.56,151.86z"/>
	<path d="M562.53,151.86c-3.72,0.3-6.33-1.91-9.34-3.31C556.81,148.35,559.32,151.06,562.53,151.86z"/>
	<path d="M521.15,135.89c-2.81,0.2-5.62,0.5-8.14-1.1C515.73,134.99,518.64,134.09,521.15,135.89z"/>
	<path d="M564.94,152.87c2.91,0.6,6.03,0.6,8.44,3.92C563.29,153.12,564.63,153.8,564.94,152.87z"/>
	<path d="M605.62,183.9c-1.81,0.4-2.91-0.2-3.82-1.41C603.31,181.99,604.51,182.5,605.62,183.9z"/>
	<path d="M493.83,155.98c-0.4,1.91-1.51,2.61-3.62,3.21C491.22,157.29,492.12,156.48,493.83,155.98z"/>
	<path d="M611.74,185.01c-1.41,0.7-2.31,0.4-3.52-0.6C609.74,183.7,610.54,184.3,611.74,185.01z"/>
	<path d="M599.09,182.4c-1.51,0.4-2.31,0.5-3.21-0.5C597.08,181.09,597.78,181.89,599.09,182.4z"/>
	<path d="M552.08,153.17c-1.1,0.2-1.81,0-2.31-0.9C550.78,151.96,551.48,151.96,552.08,153.17z"/>
	<path d="M545.46,151.46c-0.8,0.2-1.61,0.8-1.81-0.5C544.45,150.36,545.05,150.56,545.46,151.46z"/>
	<path d="M582.12,178.48c-0.7-0.4-1-0.8-0.4-1.61C582.22,177.27,582.62,177.68,582.12,178.48z"/>
	<path d="M658.25,185.01c-2.1-0.21-7.48-0.13-6.53-5.32C652.6,174.86,662.99,174.57,658.25,185.01z M655.34,183
		c0.2-2.01,0.9-2.71,2.71-1.41C658.97,175.46,648.99,179.47,655.34,183z"/>
	<path d="M657.34,167.53c5.56-0.35,5.78,7.91,0.5,8.14C652.37,175.9,652.24,167.85,657.34,167.53z M657.75,173.86
		c3.42-0.53,2.95-4.62-0.4-4.62C654.65,169.45,654.12,173.3,657.75,173.86z"/>
	<path d="M663.87,162.01c-0.6,1.81-2.41,0.1-2.61,1.51c-0.1,1.51,2.51,2.11,1.41,3.92c-1.1,0.1-1.41-1.31-2.51-1.31
		c-3.8,1.52-6-0.27-3.62-6.23C659.05,160.6,661.76,160.5,663.87,162.01z M657.54,164.92c2.14,0.46,3-3.1,0.1-2.81
		C656.94,163.11,656.84,164.02,657.54,164.92z"/>
	<path d="M320.37,65.28c-2.32-0.99-5.42,0.2-7.13-3.41c2.61-0.8,4.62,1.31,6.83,0.3c-3.41-2.11-8.14-1.1-10.65-4.82
		c6.33,1.21,12.86,1.91,18.08,6.83C324.89,64.38,322.98,66.4,320.37,65.28z"/>
	<path d="M314.05,88.39c-0.9-0.4-1.51-0.7-1.1-2.61c5.42,2.31,10.75,4.42,16.67,3.92C324.39,91.8,325.09,92.6,314.05,88.39z"/>
	<path d="M324.69,83.77c-2.23-1.97-5.48-2.6-3.01-5.83c1.81,0.5,0.8,2.11,1.51,3.01c2.51,0.6,3.62,4.62,7.13,3.01
		c1.96-6.88,2.7-4.6,1.91,1.1C328.01,86.78,328.05,86.73,324.69,83.77z"/>
	<path d="M316.46,91.6c4.02,0,6.93,1.71,10.55,2.31C323.79,97.02,319.07,96.12,316.46,91.6z"/>
	<path d="M322.08,107.97c4.32,1.81,6.83,5.32,9.84,9.64c-5.52,0.2-10.35,0.8-15.27,1.1c3.92-2.01,8.24-1.31,12.45-2.21
		C328.01,112.49,323.59,111.39,322.08,107.97z"/>
	<path d="M318.87,103.65c1.88-0.12,3.96,1.16,2.81,2.31C320.67,105.26,319.77,104.46,318.87,103.65z"/>
<path fill="#e6e6e6" d="m206.8 163.6c0-5.1 4.1-9.2 9.3-9.2s9.2 4.2 9.2 9.2-4.1 9.2-9.3 9.2-9.2-4.1-9.2-9.2zm17.3-.1c0-4.5-3.5-8.2-8.2-8.2s-8.2 3.7-8.2 8.3c0 4.5 3.5 8.2 8.2 8.2s8.2-3.7 8.2-8.3zm-13 0c0-2.8 2.1-5.1 5.1-5.1 1.9 0 2.9.6 3.9 1.5l-1.4 1.7c-.8-.7-1.5-1.1-2.5-1.1-1.7 0-2.8 1.4-2.8 3.1s1.1 3 2.8 3c1.1 0 1.7-.5 2.5-1.1l1.4 1.4c-1.1 1.1-2.1 1.7-4 1.7-2.9 0-5-2.3-5-5.1z"/><path fill="#e6e6e6" d="m226.6 154.7h3.4l4.2 13.2 4.4-13.3h2.6l4.4 13.3 4.2-13.2h3.3l-6.2 18h-2.7l-4.4-12.8-4.4 12.8h-2.7z"/><path fill="#e6e6e6" d="m252.8 165.8c0-3.9 3.1-7 7.2-7 4.2 0 7.2 3.2 7.2 7s-3.1 7-7.3 7c-4 0-7.1-3.1-7.1-7zm11.3 0c0-2.3-1.7-4.3-4.2-4.3s-4.1 2-4.1 4.3 1.7 4.3 4.1 4.3c2.7.1 4.2-1.9 4.2-4.3z"/><path fill="#e6e6e6" d="m269.5 159.1h3.1v3c.8-2 2.4-3.4 4.8-3.3v3.2h-.2c-2.7 0-4.6 1.7-4.6 5.4v5.1h-3.1z"/><path fill="#e6e6e6" d="m279.1 153.9h3.1v11.1l5.6-6h3.8l-5.4 5.5 5.5 8h-3.5l-4.1-5.8-1.9 2v3.9h-3.1z"/><path fill="#e6e6e6" d="m291.7 165.8c0-3.9 3.1-7 7.2-7 4.2 0 7.2 3.2 7.2 7s-3.1 7-7.3 7c-4 0-7.1-3.1-7.1-7zm11.3 0c0-2.3-1.7-4.3-4.2-4.3s-4.1 2-4.1 4.3 1.7 4.3 4.1 4.3c2.6.1 4.2-1.9 4.2-4.3z"/><path fill="#e6e6e6" d="m308.2 167.6v-8.6h3.1v7.6c0 2.1 1.1 3.3 2.9 3.3s3-1.3 3-3.3v-7.6h3.1v13.4h-3.1v-2.1c-.8 1.3-2.1 2.3-4.2 2.3-3.1.2-4.8-1.8-4.8-5z"/><path fill="#e6e6e6" d="m323.9 168.8v-7.1h-1.7v-2.6h1.7v-3.7h3.1v3.7h3.6v2.6h-3.6v6.6c0 1.2.6 1.7 1.7 1.7.7 0 1.3-.2 1.9-.5v2.5c-.8.5-1.7.7-2.8.7-2.3 0-3.9-.9-3.9-3.9z"/><path fill="#e6e6e6" d="m333.2 154.7h3.2v15h9.4v2.9h-12.5v-17.9z"/><path fill="#e6e6e6" d="m356 172.5v-1.7c-.9 1.1-2.3 2-4.4 2-2.6 0-4.8-1.4-4.8-4.2 0-3 2.3-4.4 5.4-4.4 1.7 0 2.6.2 3.7.5v-.2c0-1.9-1.2-2.9-3.3-2.9-1.5 0-2.6.3-3.9.8l-.8-2.5c1.5-.7 2.9-1.1 5.1-1.1 4 0 5.9 2.1 5.9 5.7v8zm.1-5.6c-.8-.3-1.9-.5-3.1-.5-2 0-3.1.8-3.1 2.1s1.1 2 2.6 2c2 0 3.5-1.1 3.5-2.9z"/><path fill="#e6e6e6" d="m364.9 170.5v2.1h-3.1v-18.7h3.1v7.4c1-1.4 2.4-2.5 4.5-2.5 3.2 0 6.3 2.5 6.3 7s-3.1 7-6.3 7c-2.1 0-3.5-1.1-4.5-2.3zm7.7-4.7c0-2.6-1.7-4.3-3.9-4.3s-3.9 1.7-3.9 4.4c0 2.6 1.8 4.3 3.9 4.3s3.9-1.7 3.9-4.4z"/><path fill="#e6e6e6" d="m376.9 170.8 1.4-2.1c1.4 1.1 3 1.7 4.4 1.7s2.1-.5 2.1-1.5-1.3-1.4-2.8-1.8c-.1 0-.2-.1-.2-.1-2-.6-4.2-1.4-4.2-4s2.1-4.1 4.8-4.1c1.7 0 3.5.6 5 1.5l-1.2 2.2c-1.3-.8-2.6-1.3-3.8-1.3s-1.9.5-1.9 1.4 1.3 1.4 2.8 1.8c.1 0 .2.1.2.1 2 .6 4.2 1.5 4.2 4 0 2.9-2.2 4.2-5 4.2-1.9 0-4-.7-5.8-2z"/><path fill="#e6e6e6" d="m505.6 163.6c0-5.1 4.1-9.2 9.3-9.2s9.2 4.2 9.2 9.2-4.1 9.2-9.3 9.2-9.2-4.1-9.2-9.2zm17.4-.1c0-4.5-3.5-8.2-8.2-8.2s-8.2 3.7-8.2 8.3c0 4.5 3.5 8.2 8.2 8.2s8.2-3.7 8.2-8.3zm-13.1 0c0-2.8 2.1-5.1 5.1-5.1 1.9 0 2.9.6 3.9 1.5l-1.4 1.7c-.8-.7-1.5-1.1-2.5-1.1-1.7 0-2.8 1.4-2.8 3.1s1.1 3 2.8 3c1.1 0 1.7-.5 2.5-1.1l1.4 1.4c-1.1 1.1-2.1 1.7-4 1.7-2.9 0-5-2.3-5-5.1z"/><path fill="#e6e6e6" d="m525.4 154.7h3.4l4.2 13.2 4.4-13.3h2.6l4.4 13.3 4.2-13.2h3.3l-6.2 18h-2.7l-4.4-12.8-4.4 12.8h-2.7z"/><path fill="#e6e6e6" d="m551.7 165.8c0-3.9 3.1-7 7.2-7 4.2 0 7.2 3.2 7.2 7s-3.1 7-7.3 7c-4.1 0-7.1-3.1-7.1-7zm11.2 0c0-2.3-1.7-4.3-4.2-4.3s-4.1 2-4.1 4.3 1.7 4.3 4.1 4.3c2.7.1 4.2-1.9 4.2-4.3z"/><path fill="#e6e6e6" d="m568.3 159.1h3.1v3c.8-2 2.4-3.4 4.8-3.3v3.2h-.2c-2.7 0-4.6 1.7-4.6 5.4v5.1h-3.1z"/><path fill="#e6e6e6" d="m577.9 153.9h3.1v11.1l5.6-6h3.8l-5.4 5.5 5.5 8h-3.5l-4.1-5.8-1.9 2v3.9h-3.1z"/><path fill="#e6e6e6" d="m590.6 165.8c0-3.9 3.1-7 7.2-7 4.2 0 7.2 3.2 7.2 7s-3.1 7-7.3 7c-4.1 0-7.1-3.1-7.1-7zm11.2 0c0-2.3-1.7-4.3-4.2-4.3s-4.1 2-4.1 4.3 1.7 4.3 4.1 4.3c2.6.1 4.2-1.9 4.2-4.3z"/><path fill="#e6e6e6" d="m607 167.6v-8.6h3.1v7.6c0 2.1 1.1 3.3 2.9 3.3s3-1.3 3-3.3v-7.6h3.1v13.4h-3.1v-2.1c-.8 1.3-2.1 2.3-4.2 2.3-3 .2-4.8-1.8-4.8-5z"/><path fill="#e6e6e6" d="m622.7 168.8v-7.1h-1.7v-2.6h1.7v-3.7h3.1v3.7h3.6v2.6h-3.6v6.6c0 1.2.6 1.7 1.7 1.7.7 0 1.3-.2 1.9-.5v2.5c-.8.5-1.7.7-2.8.7-2.3 0-3.9-.9-3.9-3.9z"/><path fill="#e6e6e6" d="m632 154.7h3.2v15h9.4v2.9h-12.6z"/><path fill="#e6e6e6" d="m654.8 172.5v-1.7c-.9 1.1-2.3 2-4.4 2-2.6 0-4.8-1.4-4.8-4.2 0-3 2.3-4.4 5.4-4.4 1.7 0 2.6.2 3.7.5v-.2c0-1.9-1.2-2.9-3.3-2.9-1.5 0-2.6.3-3.9.8l-.8-2.5c1.5-.7 2.9-1.1 5.1-1.1 4 0 5.9 2.1 5.9 5.7v8zm.1-5.6c-.8-.3-1.9-.5-3.1-.5-2 0-3.1.8-3.1 2.1s1.1 2 2.6 2c2 0 3.5-1.1 3.5-2.9z"/><path fill="#e6e6e6" d="m663.7 170.5v2.1h-3.1v-18.7h3.1v7.4c1-1.4 2.4-2.5 4.5-2.5 3.2 0 6.3 2.5 6.3 7s-3.1 7-6.3 7c-2.1 0-3.5-1.1-4.5-2.3zm7.8-4.7c0-2.6-1.7-4.3-3.9-4.3-2.1 0-3.9 1.7-3.9 4.4 0 2.6 1.8 4.3 3.9 4.3s3.9-1.7 3.9-4.4z"/><path fill="#e6e6e6" d="m675.8 170.8 1.4-2.1c1.4 1.1 3 1.7 4.4 1.7s2.1-.5 2.1-1.5-1.3-1.4-2.8-1.8c-.1 0-.2-.1-.2-.1-2-.6-4.2-1.4-4.2-4s2.1-4.1 4.8-4.1c1.7 0 3.5.6 5 1.5l-1.2 2.2c-1.3-.8-2.6-1.3-3.8-1.3s-1.9.5-1.9 1.4 1.3 1.4 2.8 1.8c.1 0 .2.1.2.1 2 .6 4.2 1.5 4.2 4 0 2.9-2.2 4.2-5 4.2-2 0-4.1-.7-5.8-2z"/><path fill="#e6e6e6" d="m61 298.6c0-5.1 4.1-9.2 9.3-9.2s9.2 4.2 9.2 9.2-4.1 9.2-9.3 9.2c-5.1 0-9.2-4.2-9.2-9.2zm17.4-.1c0-4.5-3.5-8.2-8.2-8.2s-8.2 3.7-8.2 8.3c0 4.5 3.5 8.2 8.2 8.2s8.2-3.7 8.2-8.3zm-13.1-.1c0-2.8 2.1-5.1 5.1-5.1 1.9 0 2.9.6 3.9 1.5l-1.4 1.7c-.8-.7-1.5-1.1-2.5-1.1-1.7 0-2.8 1.4-2.8 3.1s1.1 3 2.8 3c1.1 0 1.7-.5 2.5-1.1l1.4 1.4c-1.1 1.1-2.1 1.7-4 1.7-2.8.1-5-2.2-5-5.1z"/><path fill="#e6e6e6" d="m80.9 289.7h3.4l4.2 13.2 4.4-13.3h2.6l4.4 13.3 4.2-13.2h3.3l-6.2 18h-2.7l-4.4-12.8-4.4 12.8h-2.7z"/><path fill="#e6e6e6" d="m107.1 300.8c0-3.9 3.1-7 7.2-7s7.2 3.2 7.2 7-3.1 7-7.3 7c-4 0-7.1-3.1-7.1-7zm11.3 0c0-2.3-1.7-4.3-4.2-4.3s-4.1 2-4.1 4.3 1.7 4.3 4.1 4.3c2.6.1 4.2-1.9 4.2-4.3z"/><path fill="#e6e6e6" d="m123.7 294h3.1v3c.8-2 2.4-3.4 4.8-3.3v3.2h-.2c-2.7 0-4.6 1.7-4.6 5.4v5.1h-3.1z"/><path fill="#e6e6e6" d="m133.4 288.9h3.1v11.1l5.6-6h3.8l-5.4 5.5 5.5 8h-3.5l-4.1-5.8-1.9 1.9v3.9h-3.1z"/><path fill="#e6e6e6" d="m146 300.8c0-3.9 3.1-7 7.2-7s7.2 3.2 7.2 7-3.1 7-7.3 7c-4.1 0-7.1-3.1-7.1-7zm11.2 0c0-2.3-1.7-4.3-4.2-4.3s-4.1 2-4.1 4.3 1.7 4.3 4.1 4.3c2.6.1 4.2-1.9 4.2-4.3z"/><path fill="#e6e6e6" d="m162.4 302.6v-8.6h3.1v7.6c0 2.1 1.1 3.3 2.9 3.3s3-1.3 3-3.3v-7.6h3.1v13.4h-3.1v-2.1c-.8 1.3-2.1 2.3-4.2 2.3-3 .2-4.8-1.8-4.8-5z"/><path fill="#e6e6e6" d="m178.1 303.8v-7.1h-1.7v-2.7h1.7v-3.7h3.1v3.7h3.6v2.6h-3.6v6.6c0 1.2.6 1.7 1.7 1.7.7 0 1.3-.2 1.9-.5v2.5c-.8.5-1.7.7-2.8.7-2.3.1-3.9-.9-3.9-3.8z"/><path fill="#e6e6e6" d="m187.4 289.7h3.2v15h9.4v2.9h-12.5v-17.9z"/><path fill="#e6e6e6" d="m210.2 307.5v-1.7c-.9 1.1-2.3 2-4.4 2-2.6 0-4.8-1.4-4.8-4.2 0-3 2.3-4.4 5.4-4.4 1.7 0 2.6.2 3.7.5v-.2c0-1.9-1.2-2.9-3.3-2.9-1.5 0-2.6.3-3.9.8l-.8-2.5c1.5-.7 2.9-1.1 5.1-1.1 4 0 5.9 2.1 5.9 5.7v8zm.1-5.6c-.8-.3-1.9-.5-3.1-.5-2 0-3.1.8-3.1 2.1s1.1 2 2.6 2c2 0 3.5-1.1 3.5-2.9z"/><path fill="#e6e6e6" d="m219.2 305.5v2.1h-3.1v-18.7h3.1v7.4c1-1.4 2.4-2.5 4.5-2.5 3.2 0 6.3 2.5 6.3 7s-3.1 7-6.3 7c-2.2 0-3.6-1.1-4.5-2.3zm7.7-4.7c0-2.6-1.7-4.3-3.9-4.3s-3.9 1.7-3.9 4.4c0 2.6 1.8 4.3 3.9 4.3s3.9-1.7 3.9-4.4z"/><path fill="#e6e6e6" d="m231.2 305.8 1.4-2.1c1.4 1.1 3 1.7 4.4 1.7s2.1-.5 2.1-1.5-1.3-1.4-2.8-1.8c-.1 0-.2-.1-.2-.1-2-.6-4.2-1.4-4.2-4s2.1-4.1 4.8-4.1c1.7 0 3.5.6 5 1.5l-1.2 2.2c-1.3-.8-2.6-1.3-3.8-1.3s-1.9.5-1.9 1.4 1.3 1.4 2.8 1.8c.1 0 .2.1.2.1 2 .6 4.2 1.5 4.2 4 0 2.9-2.2 4.2-5 4.2-2 0-4.1-.7-5.8-2z"/><path fill="#e6e6e6" d="m360.6 298.6c0-5.1 4.1-9.2 9.3-9.2s9.2 4.2 9.2 9.2-4.1 9.2-9.3 9.2-9.2-4.2-9.2-9.2zm17.4-.1c0-4.5-3.5-8.2-8.2-8.2s-8.2 3.7-8.2 8.3c0 4.5 3.5 8.2 8.2 8.2s8.2-3.7 8.2-8.3zm-13.1-.1c0-2.8 2.1-5.1 5.1-5.1 1.9 0 2.9.6 3.9 1.5l-1.4 1.7c-.8-.7-1.5-1.1-2.5-1.1-1.7 0-2.8 1.4-2.8 3.1s1.1 3 2.8 3c1.1 0 1.7-.5 2.5-1.1l1.4 1.4c-1.1 1.1-2.1 1.7-4 1.7-2.8.1-5-2.2-5-5.1z"/><path fill="#e6e6e6" d="m380.5 289.7h3.4l4.2 13.2 4.4-13.3h2.6l4.4 13.3 4.2-13.2h3.3l-6.2 18h-2.7l-4.4-12.8-4.4 12.8h-2.7z"/><path fill="#e6e6e6" d="m406.7 300.8c0-3.9 3.1-7 7.2-7 4.2 0 7.2 3.2 7.2 7s-3.1 7-7.3 7c-4.1 0-7.1-3.1-7.1-7zm11.3 0c0-2.3-1.7-4.3-4.2-4.3s-4.1 2-4.1 4.3 1.7 4.3 4.1 4.3c2.7.1 4.2-1.9 4.2-4.3z"/><path fill="#e6e6e6" d="m423.3 294h3.1v3c.8-2 2.4-3.4 4.8-3.3v3.2h-.2c-2.7 0-4.6 1.7-4.6 5.4v5.1h-3.1z"/><path fill="#e6e6e6" d="m433 288.9h3.1v11.1l5.6-6h3.8l-5.4 5.5 5.5 8h-3.5l-4.1-5.8-1.9 2v3.9h-3.1z"/><path fill="#e6e6e6" d="m445.6 300.8c0-3.9 3.1-7 7.2-7 4.2 0 7.2 3.2 7.2 7s-3.1 7-7.3 7c-4.1 0-7.1-3.1-7.1-7zm11.3 0c0-2.3-1.7-4.3-4.2-4.3s-4.1 2-4.1 4.3 1.7 4.3 4.1 4.3c2.6.1 4.2-1.9 4.2-4.3z"/><path fill="#e6e6e6" d="m462.1 302.6v-8.6h3.1v7.6c0 2.1 1.1 3.3 2.9 3.3s3-1.3 3-3.3v-7.6h3.1v13.4h-3.1v-2.1c-.8 1.3-2.1 2.3-4.2 2.3-3.1.2-4.8-1.8-4.8-5z"/><path fill="#e6e6e6" d="m477.8 303.8v-7.1h-1.8v-2.7h1.7v-3.7h3.1v3.7h3.6v2.6h-3.6v6.6c0 1.2.6 1.7 1.7 1.7.7 0 1.3-.2 1.9-.5v2.5c-.8.5-1.7.7-2.8.7-2.2.1-3.8-.9-3.8-3.8z"/><path fill="#e6e6e6" d="m487.1 289.7h3.2v15h9.4v2.9h-12.5v-17.9z"/><path fill="#e6e6e6" d="m509.9 307.5v-1.7c-.9 1.1-2.3 2-4.4 2-2.6 0-4.8-1.4-4.8-4.2 0-3 2.3-4.4 5.4-4.4 1.7 0 2.6.2 3.7.5v-.2c0-1.9-1.2-2.9-3.3-2.9-1.5 0-2.6.3-3.9.8l-.8-2.5c1.5-.7 2.9-1.1 5.1-1.1 4 0 5.9 2.1 5.9 5.7v8zm.1-5.6c-.8-.3-1.9-.5-3.1-.5-2 0-3.1.8-3.1 2.1s1.1 2 2.6 2c2 0 3.5-1.1 3.5-2.9z"/><path fill="#e6e6e6" d="m518.8 305.5v2.1h-3.1v-18.7h3.1v7.4c1-1.4 2.4-2.5 4.5-2.5 3.2 0 6.3 2.5 6.3 7s-3.1 7-6.3 7c-2.2 0-3.5-1.1-4.5-2.3zm7.7-4.7c0-2.6-1.7-4.3-3.9-4.3s-3.9 1.7-3.9 4.4c0 2.6 1.8 4.3 3.9 4.3s3.9-1.7 3.9-4.4z"/><path fill="#e6e6e6" d="m530.8 305.8 1.4-2.1c1.4 1.1 3 1.7 4.4 1.7s2.1-.5 2.1-1.5-1.3-1.4-2.8-1.8c-.1 0-.2-.1-.2-.1-2-.6-4.2-1.4-4.2-4s2.1-4.1 4.8-4.1c1.7 0 3.5.6 5 1.5l-1.2 2.2c-1.3-.8-2.6-1.3-3.8-1.3s-1.9.5-1.9 1.4 1.3 1.4 2.8 1.8c.1 0 .2.1.2.1 2 .6 4.2 1.5 4.2 4 0 2.9-2.2 4.2-5 4.2-1.9 0-4.1-.7-5.8-2z"/><path fill="#e6e6e6" d="m659.5 298.6c0-5.1 4.1-9.2 9.3-9.2s9.2 4.2 9.2 9.2-4.1 9.2-9.3 9.2-9.2-4.2-9.2-9.2zm17.3-.1c0-4.5-3.5-8.2-8.2-8.2s-8.2 3.7-8.2 8.3c0 4.5 3.5 8.2 8.2 8.2 4.8 0 8.2-3.7 8.2-8.3zm-13-.1c0-2.8 2.1-5.1 5.1-5.1 1.9 0 2.9.6 3.9 1.5l-1.4 1.7c-.8-.7-1.5-1.1-2.5-1.1-1.7 0-2.8 1.4-2.8 3.1s1.1 3 2.8 3c1.1 0 1.7-.5 2.5-1.1l1.4 1.4c-1.1 1.1-2.1 1.7-4 1.7-2.9.1-5-2.2-5-5.1z"/><path fill="#e6e6e6" d="m679.3 289.7h3.4l4.2 13.2 4.4-13.3h2.6l4.4 13.3 4.2-13.2h3.3l-6.2 18h-2.6l-4.4-12.8-4.4 12.8h-2.7z"/><path fill="#e6e6e6" d="m705.5 300.8c0-3.9 3.1-7 7.2-7 4.2 0 7.2 3.2 7.2 7s-3.1 7-7.3 7c-4 0-7.1-3.1-7.1-7zm11.3 0c0-2.3-1.7-4.3-4.2-4.3s-4.1 2-4.1 4.3 1.7 4.3 4.1 4.3c2.7.1 4.2-1.9 4.2-4.3z"/><path fill="#e6e6e6" d="m722.1 294h3.1v3c.8-2 2.4-3.4 4.8-3.3v3.2h-.2c-2.7 0-4.6 1.7-4.6 5.4v5.1h-3.1z"/><path fill="#e6e6e6" d="m731.8 288.9h3.1v11.1l5.6-6h3.8l-5.4 5.5 5.5 8h-3.5l-4.1-5.8-1.9 2v3.9h-3.1z"/><path fill="#e6e6e6" d="m744.4 300.8c0-3.9 3.1-7 7.2-7 4.2 0 7.2 3.2 7.2 7s-3.1 7-7.3 7c-4.1 0-7.1-3.1-7.1-7zm11.3 0c0-2.3-1.7-4.3-4.2-4.3s-4.1 2-4.1 4.3 1.7 4.3 4.1 4.3c2.6.1 4.2-1.9 4.2-4.3z"/><path fill="#e6e6e6" d="m760.9 302.6v-8.6h3.1v7.6c0 2.1 1.1 3.3 2.9 3.3s3-1.3 3-3.3v-7.6h3.1v13.4h-3.1v-2.1c-.8 1.3-2.1 2.3-4.2 2.3-3.1.2-4.8-1.8-4.8-5z"/><path fill="#e6e6e6" d="m776.6 303.8v-7.1h-1.7v-2.7h1.7v-3.7h3.1v3.7h3.6v2.6h-3.6v6.6c0 1.2.6 1.7 1.7 1.7.7 0 1.3-.2 1.9-.5v2.5c-.8.5-1.7.7-2.8.7-2.3.1-3.9-.9-3.9-3.8z"/><path fill="#e6e6e6" d="m785.9 289.7h3.2v15h9.4v2.9h-12.5v-17.9z"/><path fill="#e6e6e6" d="m808.7 307.5v-1.7c-.9 1.1-2.3 2-4.4 2-2.6 0-4.8-1.4-4.8-4.2 0-3 2.3-4.4 5.4-4.4 1.7 0 2.6.2 3.7.5v-.2c0-1.9-1.2-2.9-3.3-2.9-1.5 0-2.6.3-3.9.8l-.8-2.5c1.5-.7 2.9-1.1 5.1-1.1 4 0 5.9 2.1 5.9 5.7v8zm.1-5.6c-.8-.3-1.9-.5-3.1-.5-2 0-3.1.8-3.1 2.1s1.1 2 2.6 2c2 0 3.5-1.1 3.5-2.9z"/><path fill="#e6e6e6" d="m817.6 305.5v2.1h-3.1v-18.7h3.1v7.4c1-1.4 2.4-2.5 4.5-2.5 3.2 0 6.3 2.5 6.3 7s-3.1 7-6.3 7c-2.1 0-3.5-1.1-4.5-2.3zm7.7-4.7c0-2.6-1.7-4.3-3.9-4.3-2.1 0-3.9 1.7-3.9 4.4 0 2.6 1.8 4.3 3.9 4.3 2.2 0 3.9-1.7 3.9-4.4z"/><path fill="#e6e6e6" d="m829.6 305.8 1.4-2.1c1.4 1.1 3 1.7 4.4 1.7s2.1-.5 2.1-1.5-1.3-1.4-2.8-1.8c-.1 0-.2-.1-.2-.1-2-.6-4.2-1.4-4.2-4s2.1-4.1 4.8-4.1c1.7 0 3.5.6 5 1.5l-1.2 2.2c-1.3-.8-2.6-1.3-3.8-1.3s-1.9.5-1.9 1.4 1.3 1.4 2.8 1.8c.1 0 .2.1.2.1 2 .6 4.2 1.5 4.2 4 0 2.9-2.2 4.2-5 4.2-1.9 0-4-.7-5.8-2z"/><path fill="#e6e6e6" d="m206.3 434.2c0-5.1 4.1-9.2 9.3-9.2s9.2 4.2 9.2 9.2-4.1 9.2-9.3 9.2-9.2-4.1-9.2-9.2zm17.4-.1c0-4.5-3.5-8.2-8.2-8.2s-8.2 3.7-8.2 8.3c0 4.5 3.5 8.2 8.2 8.2s8.2-3.7 8.2-8.3zm-13.1-.1c0-2.8 2.1-5.1 5.1-5.1 1.9 0 2.9.6 3.9 1.5l-1.4 1.7c-.8-.7-1.5-1.1-2.5-1.1-1.7 0-2.8 1.4-2.8 3.1s1.1 3 2.8 3c1.1 0 1.7-.5 2.5-1.1l1.4 1.4c-1.1 1.1-2.1 1.7-4 1.7-2.9.1-5-2.2-5-5.1z"/><path fill="#e6e6e6" d="m226.1 425.3h3.4l4.2 13.2 4.4-13.3h2.6l4.4 13.3 4.2-13.2h3.3l-6.2 18h-2.7l-4.4-12.8-4.4 12.8h-2.7z"/><path fill="#e6e6e6" d="m252.4 436.4c0-3.9 3.1-7 7.2-7 4.2 0 7.2 3.2 7.2 7s-3.1 7-7.3 7c-4.1 0-7.1-3.1-7.1-7zm11.2 0c0-2.3-1.7-4.3-4.2-4.3s-4.1 2-4.1 4.3 1.7 4.3 4.1 4.3c2.7.1 4.2-1.9 4.2-4.3z"/><path fill="#e6e6e6" d="m269 429.7h3.1v3c.8-2 2.4-3.4 4.8-3.3v3.2h-.2c-2.7 0-4.6 1.7-4.6 5.4v5.1h-3.1z"/><path fill="#e6e6e6" d="m278.6 424.5h3.1v11.1l5.6-6h3.8l-5.4 5.5 5.5 8h-3.5l-4.1-5.8-1.9 2v3.9h-3.1z"/><path fill="#e6e6e6" d="m291.3 436.4c0-3.9 3.1-7 7.2-7 4.2 0 7.2 3.2 7.2 7s-3.1 7-7.3 7c-4.1 0-7.1-3.1-7.1-7zm11.2 0c0-2.3-1.7-4.3-4.2-4.3s-4.1 2-4.1 4.3 1.7 4.3 4.1 4.3c2.6.1 4.2-1.9 4.2-4.3z"/><path fill="#e6e6e6" d="m307.7 438.2v-8.6h3.1v7.6c0 2.1 1.1 3.3 2.9 3.3s3-1.3 3-3.3v-7.6h3.1v13.4h-3.1v-2.1c-.8 1.3-2.1 2.3-4.2 2.3-3 .2-4.8-1.8-4.8-5z"/><path fill="#e6e6e6" d="m323.4 439.4v-7.1h-1.7v-2.6h1.7v-3.7h3.1v3.7h3.6v2.6h-3.6v6.6c0 1.2.6 1.7 1.7 1.7.7 0 1.3-.2 1.9-.5v2.5c-.8.5-1.7.7-2.8.7-2.3 0-3.9-.9-3.9-3.9z"/><path fill="#e6e6e6" d="m332.7 425.3h3.2v15h9.4v2.9h-12.5v-17.9z"/><path fill="#e6e6e6" d="m355.5 443.1v-1.7c-.9 1.1-2.3 2-4.4 2-2.6 0-4.8-1.4-4.8-4.2 0-3 2.3-4.4 5.4-4.4 1.7 0 2.6.2 3.7.5v-.2c0-1.9-1.2-2.9-3.3-2.9-1.5 0-2.6.3-3.9.8l-.8-2.5c1.5-.7 2.9-1.1 5.1-1.1 4 0 5.9 2.1 5.9 5.7v8zm.1-5.6c-.8-.3-1.9-.5-3.1-.5-2 0-3.1.8-3.1 2.1s1.1 2 2.6 2c2 0 3.5-1.1 3.5-2.9z"/><path fill="#e6e6e6" d="m364.4 441.1v2.1h-3.1v-18.7h3.1v7.4c1-1.4 2.4-2.5 4.5-2.5 3.2 0 6.3 2.5 6.3 7s-3.1 7-6.3 7c-2.1 0-3.5-1.1-4.5-2.3zm7.7-4.7c0-2.6-1.7-4.3-3.9-4.3-2.1 0-3.9 1.7-3.9 4.4 0 2.6 1.8 4.3 3.9 4.3 2.2 0 3.9-1.7 3.9-4.4z"/><path fill="#e6e6e6" d="m376.5 441.4 1.4-2.1c1.4 1.1 3 1.7 4.4 1.7s2.1-.5 2.1-1.5-1.3-1.4-2.8-1.8c-.1 0-.2-.1-.2-.1-2-.6-4.2-1.4-4.2-4s2.1-4.1 4.8-4.1c1.7 0 3.5.6 5 1.5l-1.2 2.2c-1.3-.8-2.6-1.3-3.8-1.3s-1.9.5-1.9 1.4 1.3 1.4 2.8 1.8c.1 0 .2.1.2.1 2 .6 4.2 1.5 4.2 4 0 2.9-2.2 4.2-5 4.2-2 0-4.1-.7-5.8-2z"/><path fill="#e6e6e6" d="m505.1 434.2c0-5.1 4.1-9.2 9.3-9.2s9.2 4.2 9.2 9.2-4.1 9.2-9.3 9.2-9.2-4.1-9.2-9.2zm17.4-.1c0-4.5-3.5-8.2-8.2-8.2s-8.2 3.7-8.2 8.3c0 4.5 3.5 8.2 8.2 8.2s8.2-3.7 8.2-8.3zm-13.1-.1c0-2.8 2.1-5.1 5.1-5.1 1.9 0 2.9.6 3.9 1.5l-1.4 1.7c-.8-.7-1.5-1.1-2.5-1.1-1.7 0-2.8 1.4-2.8 3.1s1.1 3 2.8 3c1.1 0 1.7-.5 2.5-1.1l1.4 1.4c-1.1 1.1-2.1 1.7-4 1.7-2.9.1-5-2.2-5-5.1z"/><path fill="#e6e6e6" d="m525 425.3h3.4l4.2 13.2 4.4-13.3h2.6l4.4 13.3 4.2-13.2h3.3l-6.2 18h-2.7l-4.4-12.8-4.4 12.8h-2.7z"/><path fill="#e6e6e6" d="m551.2 436.4c0-3.9 3.1-7 7.2-7 4.2 0 7.2 3.2 7.2 7s-3.1 7-7.3 7c-4.1 0-7.1-3.1-7.1-7zm11.2 0c0-2.3-1.7-4.3-4.2-4.3s-4.1 2-4.1 4.3 1.7 4.3 4.1 4.3c2.7.1 4.2-1.9 4.2-4.3z"/><path fill="#e6e6e6" d="m567.8 429.7h3.1v3c.8-2 2.4-3.4 4.8-3.3v3.2h-.2c-2.7 0-4.6 1.7-4.6 5.4v5.1h-3.1z"/><path fill="#e6e6e6" d="m577.5 424.5h3.1v11.1l5.6-6h3.8l-5.4 5.5 5.5 8h-3.5l-4.1-5.8-1.9 2v3.9h-3.1z"/><path fill="#e6e6e6" d="m590.1 436.4c0-3.9 3.1-7 7.2-7 4.2 0 7.2 3.2 7.2 7s-3.1 7-7.3 7c-4.1 0-7.1-3.1-7.1-7zm11.2 0c0-2.3-1.7-4.3-4.2-4.3s-4.1 2-4.1 4.3 1.7 4.3 4.1 4.3c2.6.1 4.2-1.9 4.2-4.3z"/><path fill="#e6e6e6" d="m606.5 438.2v-8.6h3.1v7.6c0 2.1 1.1 3.3 2.9 3.3s3-1.3 3-3.3v-7.6h3.1v13.4h-3.1v-2.1c-.8 1.3-2.1 2.3-4.2 2.3-3 .2-4.8-1.8-4.8-5z"/><path fill="#e6e6e6" d="m622.2 439.4v-7.1h-1.7v-2.6h1.7v-3.7h3.1v3.7h3.6v2.6h-3.6v6.6c0 1.2.6 1.7 1.7 1.7.7 0 1.3-.2 1.9-.5v2.5c-.8.5-1.7.7-2.8.7-2.3 0-3.9-.9-3.9-3.9z"/><path fill="#e6e6e6" d="m631.5 425.3h3.2v15h9.4v2.9h-12.5v-17.9z"/><path fill="#e6e6e6" d="m654.3 443.1v-1.7c-.9 1.1-2.3 2-4.4 2-2.6 0-4.8-1.4-4.8-4.2 0-3 2.3-4.4 5.4-4.4 1.7 0 2.6.2 3.7.5v-.2c0-1.9-1.2-2.9-3.3-2.9-1.5 0-2.6.3-3.9.8l-.8-2.5c1.5-.7 2.9-1.1 5.1-1.1 4 0 5.9 2.1 5.9 5.7v8zm.1-5.6c-.8-.3-1.9-.5-3.1-.5-2 0-3.1.8-3.1 2.1s1.1 2 2.6 2c2 0 3.5-1.1 3.5-2.9z"/><path fill="#e6e6e6" d="m663.3 441.1v2.1h-3.1v-18.7h3.1v7.4c1-1.4 2.4-2.5 4.5-2.5 3.2 0 6.3 2.5 6.3 7s-3.1 7-6.3 7c-2.2 0-3.6-1.1-4.5-2.3zm7.7-4.7c0-2.6-1.7-4.3-3.9-4.3s-3.9 1.7-3.9 4.4c0 2.6 1.8 4.3 3.9 4.3s3.9-1.7 3.9-4.4z"/><path fill="#e6e6e6" d="m675.3 441.4 1.4-2.1c1.4 1.1 3 1.7 4.4 1.7s2.1-.5 2.1-1.5-1.3-1.4-2.8-1.8c-.1 0-.2-.1-.2-.1-2-.6-4.2-1.4-4.2-4s2.1-4.1 4.8-4.1c1.7 0 3.5.6 5 1.5l-1.2 2.2c-1.3-.8-2.6-1.3-3.8-1.3s-1.9.5-1.9 1.4 1.3 1.4 2.8 1.8c.1 0 .2.1.2.1 2 .6 4.2 1.5 4.2 4 0 2.9-2.2 4.2-5 4.2-2 0-4.1-.7-5.8-2z"/></g>
</svg>
