<?xml version="1.0" encoding="utf-8"?>
<!-- Generator: Adobe Illustrator 23.0.1, SVG Export Plug-In . SVG Version: 6.00 Build 0)  -->
<svg version="1.2" baseProfile="tiny" id="Layer_1" xmlns="http://www.w3.org/2000/svg" xmlns:xlink="http://www.w3.org/1999/xlink"
	 x="0px" y="0px" viewBox="0 0 900 600" xml:space="preserve">
<g>
	<path d="M660.51,275.81C660.51,275.81,660.51,275.8,660.51,275.81C660.51,275.81,660.51,275.81,660.51,275.81z"/>
	<path d="M660.5,275.8c0,0-0.01-0.01-0.03-0.01C660.48,275.8,660.49,275.8,660.5,275.8z"/>
	<path d="M194.49,229.34c-1.37,41.83,28.04,32.21,41.23,33.58c2.02,0.21,5.6,0.32,6.74-1.35c1.41-2.08,0.11-0.69,7.55-2.03
		c5.06-0.91,7.45-6.44,6.7-8.9c-0.57-1.87-2.1-2.42-2.36-3.75c-1.26-6.39-7.28-3.58-8.68-10.56c-0.89-4.45,3.87-12.48,7.79-15.8
		c6.29-5.34,15.93-9.5,8.44-15.25c0.1,0,5.85-2.82,9.62-2.8c11.7,0.08,23.62,1.39,37.3-0.94c15.87-2.71,11.1-2.39,12.97-2.25
		c22.28,29.52-5.78,21.9,50.04,2.83c4.06,9.45,15.14,14.33,16.18,15.34c4.31,4.22,2.9-2.38,33.46-15.52
		c48.19-20.71-2.36,2.93,50.65-21.69c8.39-3.9,8.78-6.46,13.75-7.43c4.06-0.79,8.04-1.96,10.44-5.48c2.95-0.5,5.71-0.75,8.35-1.45
		c10.62-2.84,6.26-3.98,8.69-1.52c1.31,1.32,1.9,0.06,1.07,4.42c-0.26,1.39-8.57,11-3.82,21.95c1.88,4.33-5.3,23.98,0.5,49.57
		c2.26,9.99,6.03,11.55,5.39,14.5c-0.54,2.48,0.74,2.71,2.47,11.65c1.61,8.34,3.51,9.04,4.53,13.56c1.42,6.3-2.15,6.05-2.05,10.95
		c0.09,4.46-3.38,5.31-2.55,7.88c0.63,1.95,4.24,2.73,6.4,0.71c3.67-3.46,5.59-2.55,10.57-3.29c4.41,2.51,4.97,4.02,10.48,5.3
		c1.79-0.63,1.63-2.98,3.36-3.73c8.16,3.52,7.64,3.93,12.72,1.41c9.37,0.71,8.45,0.2,9.24-4.95c3.56-0.31,9.67-1.7,7.32-4.02
		c-1.45-1.43-2.83-1.28-5.86-5.19c-1.71-2.2-0.44-1.41-4.56-1.32c-0.91,0.02-1.9,0.16-2.72-0.13c-4.08-1.45-13.85,0.65-19.82-7.07
		c-5.67-7.33-3.83-35.1-3.57-42.49c0.25-7.12,7.99-17.08,5.89-42.14c-0.16-1.88-0.75-11.27-0.26-13.77
		c8.14-4.65,10.47-36.32,10.5-36.44c6.03-1.61,11.77,2.69,18.64,0.24c1.99-0.71,4.55,0.08,9.47-2.75c1.8-1.04,2.52-0.04,6.48-3.02
		c28.24-21.31,4.84-11.63,25.05,25.19c1.08,1.97-0.12,13.23,0.58,15.92c0.2,0.78,0.59,0.94,0.85,2.17c0.46,2.21-0.73,9.17,0.7,16.16
		c0.66,3.23-2.85-1.4,2.5,20.48c0.47,1.94,0.77,3.11,0.94,3.78c0.44,2.15,1.78,8.36,5.21,23.88c2.43,10.97,1.65-0.81,3.21,15.47
		c1.14,11.86,1.1,2.59,4.03,17.27c-2.52,2.1-1.96,5.5-3.64,7.79c0.74,2.01,3.9,0.53,3.9-5.24c1.07-2.05,3.66-2.93,3.27-5.7
		c-4.82-1.63-3.15-12.42-7.07-27.79c-11.01-43.19-10.93-42.44-10.55-43.26c1.65-3.5-0.45-0.36-0.32-26.94
		c0-0.63,0.04-1.43-0.31-1.99c-1.59-2.54-0.6-5.36-0.86-8.01c2.72-4.05-4.82-13.04-8.05-26.29c-2.64-10.79-1.36-11.06-1.92-14.99
		c11.8-11.8,1.98-6.39,1.98-7.2c2.37-7.48,1.95-9.12,4.96-10.47c2.2-8.87,3.03-9.08,3.14-12.04c0.08-2.07,1.46-2.61,2.51-0.45
		c8.96,18.38,6.33,15.19,13.63,17.28c7.29,2.08,9.42-6.89,12.82-3.5c-6.46,16.14-3.9,8.55-3.12,18.79
		c1.63,21.48-1.08,25.03-1.05,34.92c0.05,14.8-3.22,6.37,1.66,21.78c4.43,14.02,2.61,2.58,3.7,17.57c0.49,6.72,1.44,5.67,0.96,9.09
		c-3.22,23.07,2.42,21.21-0.85,55.69c-4.27,0-4.14-0.29-4.14,1.35c10.69,1.8,4.72,0.23,10.32,4.88c0.97,0.8,4.1,2.61,4.2,2.61
		c-0.77,1.25-0.83,1.43-0.85,1.44c9.11,3.48,9.25,3.35,10.32,4.45c4.34,4.46,9.63,4.84,9.41,6.39c-0.19,1.34-2.69,0.77-3.97,0.36
		c-6.72-2.15-10.77-1.22-15.24-3.72c-3.47-1.94-5.38-1.1-8.99-1.37c-3.69-0.28-2.48-2.32-6.8-0.94c-5.14,1.64-4.48-2.36-6.27,3.47
		c-0.78,2.51-2.94,1.63-6.35,1.81c-0.23,0.01-1.41,0.9-1.41,0.94c6.55,3.46,11.1,0.06,10.55-3.3c18.16-3.1,37.12,10.06,40.53,4.58
		c1.29-2.08-0.68-1.51,8.04-0.22c7.57,1.12,11.42-5.91,7.44-6.8c-6.31-1.42-6.51-2.46-7.45-2.49c-1.36-0.04-2.75,0.14-4.08-0.05
		c-1.35-0.19-2.18-1.68-3.67-1.74c-0.1,0-6.73-1.66-8.87-2.62c-7.72-3.45-12.2,1.93-20.52-9.93c1.26,0-0.22-43.54,0.66-50.46
		c3.45-27.16-4.83-32.97-5.78-35.27c-3.55-8.64,6.29-32.65,0.93-50.19l-0.01-0.03c-3.54-11.79,3.46-13.25,4.29-22.98
		c4.64-1.66,2.8-0.68,6.72-3.49c5.57,2.17,4.16,2.18,13.53-15.24c7.91-0.78,4.87-4.56,10.92-12.2c6.48-8.18-0.95-5.42,8-3.15
		c0.77-2.59-0.52-1.4,5.81-0.11c2.06,0.42,4.24,0.48,5.42,0.33c-0.06-0.82-0.13-1.63-0.19-2.38c-0.97-0.48-1.12-0.61-1.86-1.48
		c2.31,0.24,2.13,0.62,0.11-2.24c-0.02,0-0.36-0.05-0.36-0.05c-0.98-0.44,0.24-0.93,0.24-0.03c0.02-0.01,0.04-0.01,0.06-0.02
		l0.07,0.09c3.7,0.46,5.28,1.01,5.28-0.82c-2.14-2.36-6.43-2.67-7.62-7.64c-0.66-2.76-1.99-3.64-1.74-6.89
		c0.9-11.74-13.71-30.61-22.13-36.76c-1.27-0.93-1.08-0.95-1.66-3.65c-9.59-2.94-11.3-3.07-11.56-3c0.26-1.65,2.16-2.28,2-3.95
		c-1.48-2.27-4.03,4.17-4.45,0.88c-0.23-1.81-0.86-3.06-3.04-2.82c-1.08,0.12-3.38-4-4.22,3.02c-5.4-1.05-4.33,0.02-2.17,3.94
		c0.1,0-1.25,0.54-1.35,0.58c-17.24,5.95-12.86,4.33-12.86,7.81c-2.03,0.81-2.93-0.24-4.67,2.03
		c-13.59,17.77-4.88,11.11-19.25,20.27c-5.27-4.41-16.07-6.62-23.7-4.14c-1.42,0.46-1.12,2.16-0.89,2.16
		c-0.04,0.03-0.05,0.05-0.08,0.08c-2-1.97-23.89-13.8-30.82-10.45c-1.39,0.67-8.95,1.36-10.49,1.45c-5.68,0.35-7.9-0.98-12.16,0.84
		c-4.38,1.87-8.67,3.71-9.47,5.25c-1.16,2.26-3.67,3.58-8.35,8.55c-7.85,8.35-3.02-1.82-25.87,27.58
		c-10.65,13.7-3.91,12.49-31.36,25.95c0,0-0.01,0.01-0.01,0.01c-0.03-0.04-0.08-0.09-0.12-0.14c0.01,0.03,0.05,0.17,0.07,0.21
		c-2.79,3.71-9.3,5.18-10.94,6.82c0.67,1.57-0.13,1.59,4.18-0.61c0.74,0.43,0.66,1.08,0.14,1.37c-10.73,5.99-4.32,0.93-4.32-0.79
		c-0.09-0.22,0.68-0.82,0.79-0.82c0-1.21,3.22-5.15-2.12-0.08c-5.75-4.9-4.77-4.34-4.57-3.02c1.44,9.21,5.81-1.3,0.04,13.52
		c-7.01-5.78-6.61-5.69-7.06-5.12c5.61,9.73,7.76,8.16,9.27,13.76c2.32-0.6,4.95-2.72,4.95-3.15c0-0.38-2.47,0.87-2.56-0.16
		c-0.03-0.42,0.51-0.91,0.44-1.52c-2.31-1.01-1.61-0.42-3.42-2.86c2.99-1.28,2.31-1.56,3.23,0.82c1.65-1.1-0.16-3.49,3.78-4.34
		c-0.07,1.03,0.06,6.53-1.48,8.06c0.82,0.25,0.79,0.89,0.76,1.65c-0.39,8.71-0.05,10.75-2.69,11.92c0,0.61-0.78,0.61-0.86,1.01
		c-0.25,1.34-1.45,2.12-2.53,2.96c0-1.24,0-2.15,0-2.63c2.13-0.41,2.41-0.22,3.27-1.08c0-2.31,0.3-2.51-1.3-2.94
		c0.05,0.1-0.97,1.57-0.97,1.47c-0.53-1.58,0.98-1.23,0.98-1.51c-0.61-1.22,0.32-2.85-0.63-3.97c1.7-1.25,2.59-1.67,2.62-1.92
		c0.11,0.03,0.2,0.15,0.06-0.05c-0.02,0.01-0.03,0.03-0.05,0.04l-0.01,0.01c0.02-0.24-0.84-0.31-2.66-0.84
		c-4.11,2.47-2.25,2.8-1.05,3.67c0.2,0-0.93,1.83-0.69,2.75c0.4,1.52-0.08,6.47-0.96,8.69c-0.88,2.2-1.22,0.92,0.07,3.6
		c0,0.89-18.52,4.7-19.8,5.98c-1.27,1.27,18.29-4.76,19.39-3.66c-1.88,3.76,2.18,11.41,4.13,15.52c0,0.1-2.16,4.29-4.18,5.18
		c-0.08,2.12-0.05,2.15,0.73,3.39c1.03-2.67,3.03-4.53,4.8-6.8c1.03,1.36,4.49,5.77,4.49,8.23c-4.56,1.2-6.58,5.21-10.18,8.21
		c-0.1,0.1,1.56,0.12,1.69,0.07c2.67-1.16,4.35-2.21,10.71-4.6c2.69-1.01,11.62,3.74,11.9,3.74c-4.3,4.36-4.49,2.54-4.49,3.64
		c4.13-0.44,4.23-0.51,5.92-3.32c1.34,0.17,2.85-0.2,4.29,0.97c0.4,0-26.17,11.93-26.27,11.95c-3.74,0.9-32.63,11.3-55.69,26.46
		c-7.65-5.53-16.53-13.85-16.53-13.95c0-0.57,23.91-6.52,45.95-9.67c3.23-0.46,18.66-2.91,17.69-6.02
		c-25.63,7.81-48.52,3.78-93.5,24.41c-2.75,1.26-1.31-0.38-7.06,3.38c-4.08,2.67-0.09-0.56-15.42-20.47
		c-6.8-8.84-5.6-7.5-3.79-15.02c5.2-21.63,4.92-18.71,5.26-27.3c9.37-12.09,2.91-7.69,16.56-15.02c2.28-1.22-1.59,6.32-1.06,8.87
		c0.44,2.13,1.87-2.46,2.35-4.59c1.37-6.01-2.61-5.65,12.67-11.7c6.27-2.49,12.74-4.44,18.87-7.29c1.36-0.64,2.78-0.67,4.45-0.42
		c-0.64,5.4-0.31,7.56-0.31,8.09c3.23-10.25,0.21-12.61,8.15-15.24c2.93-0.97,4.86-1.09,6.26-3.69c2.66-4.93,6.99-3.35,10.49-5.81
		c1.51-1.06,1.46,1.1,3.33-0.64c10.25-9.5,15.21-9.21,19.17-11.68c5.63-3.52,3.86,1.96,33.4-9.06c0.1,0.04,15.73,7.19,15.73,5.27
		c-0.38-1.04-0.01-1.55-2.6-2.64c-10.8-4.52-12.82-5.88-16.46-4.73c-7.88,2.48-12.35,5.3-17.4,6.05
		c-2.53,0.38-18.64,0.21-29.36,11.24c-6.01,6.18-14.25,3.04-18.71,10.4c-1.6,2.64-3.2,0.93-4.86,3.53
		c-1.83,2.86-3.41,0.14-5.81,3.04c-5.78,6.99-26.53,8.47-40.33,18.81c-0.98,0.74-9.02,5.3-10.12,5.61c-1.67,0.46-2.14,4.59-4.5,8.3
		c-1.01,1.59-2.15,3.14-2.4,5.03c-10.45,3.1-28.57-5.7-49.74,5.4c-1.12,0.59-12.38,9.45-25.88,16.7c-2.94,1.58-0.96,0.07-5.07-1.07
		c-4.99-1.39-9.52-2.67-13.97-4.66c-3.85-1.72-11.39-0.5-12.44,4.27c-3.43-1.59-4.21-2.24-6.95-1.85c-1.55,2.01-5.02,0.15-7.6,4
		c-6.39,9.54-7.98,23.99-1.92,37.42C199.26,218.63,194.75,221.51,194.49,229.34z M696.86,283.61l0.07,0.12
		C696.74,283.68,696.75,283.72,696.86,283.61z M666.07,274.84c12.46,1.52,17.84,5.7,17.94,5.74c11.85,4.8,8.33,3.17,10.62,4.31
		c-0.62,2.13-2.06,1.35-11.38,0.27c-3.51-2.48-5.05-0.56-10.54-5.94c-2.42-2.38-3.76-2.16-7.95-3.5
		C664.93,274.87,665.49,274.77,666.07,274.84z M696.48,57.2c0.27,0.69,0.24,0.52,0,0.77C696.25,57.7,696.21,57.92,696.48,57.2z
		 M693.73,50.1c0.61,1.04,1.11,2,0.96,3.21C695.39,54.36,691.32,50.27,693.73,50.1z M692.18,53.13l-0.22,0.04h-0.01
		C691.96,52.99,691.9,53.01,692.18,53.13z M688.72,64.34c0.04,0.33,0,0.16,0.13,0.38C688.45,64.19,688.33,64.29,688.72,64.34z
		 M687.28,54.8c0.09,0.19,0.11,0.18-0.06,0.06C687.07,54.65,687.05,54.67,687.28,54.8z M683.8,48.92c0.75,0.61,0.56,0.57,0.31,0.9
		C684.04,49.72,683.19,48.92,683.8,48.92z M682.72,55.72c-0.37,0.06-0.98-0.39-0.88-1.55c-0.13-0.19-0.46-0.17,0.01-0.15
		c0,0.23,0.22,0.44,0.22,0.44C682.69,55.32,681.95,55.53,682.72,55.72z M681.5,44.07c0.82,1.9,0.71,1.41,0.3,2
		c-0.63-0.42-0.52,0.11-0.68-1.92C681.25,44.13,681.38,44.1,681.5,44.07z M679.9,23.4c-0.17-0.26-0.25-0.69-0.25-0.86
		C679.75,22.95,680.37,23,679.9,23.4z M678.22,19.96c0.75,0,1.69,1.45,1.41,2.49c0,0,0,0.01,0,0.01
		C678.72,22.23,677.3,20.42,678.22,19.96z M677.27,28.64c0.16,0.43-1.21,2.21-1.49-1.06C676.7,28.1,677.17,28.37,677.27,28.64z
		 M673.72,23.27c1.78,0.39,0.34,2.97-1.5,1.67C672.75,24.37,673.25,23.82,673.72,23.27z M668.46,55.12
		c-0.13,0.18-0.08,0.18-0.17-0.02L668.46,55.12z M667.22,25.34c0.2,0.16,0.06,0.11,0.4,0.19C667.16,25.61,667.11,25,667.22,25.34z
		 M665.16,42.68c0.18,0.25,0.24,0.15-0.07,0.34C664.81,42.92,664.8,43,665.16,42.68z M664.3,52.92c1.56,0,1.88,1.28-0.81,0.96
		C663.84,53.44,664.03,53.01,664.3,52.92z M664.56,59.2c-0.4,0.36-0.2,0.36-0.82,0.09C664.42,59.02,664.2,59.08,664.56,59.2z
		 M661.69,9.32c2.22,1.17,1.9,0.98,1.82,1.11C661.12,13.02,659.41,10.68,661.69,9.32z M661.67,16.99c0.26-0.08,0.23-0.1,0.08,0.07
		c-0.58,0.29,1.62-0.07-3.17,3.36c-0.1,0.1-0.53-0.23-0.64-0.29C656.8,19.38,661.67,17.48,661.67,16.99z M657.63,49.65
		c0.62-0.15,0.67,1.23-0.34,1.54C656.77,50.51,657.14,49.74,657.63,49.65z M656.67,54.63c-0.92,0.8-0.49,0.7-0.86,0.33
		C656.5,54.2,656.38,54.4,656.67,54.63z M653.7,56.18c-0.18,0.05-2.99,0.87-3.14,0.91C652.03,55.64,652.03,55.64,653.7,56.18z
		 M651.62,39.9c0.57,2.13-1.36,4.19-1.48,4.25c-1.14,1.12-1.98,0.74-2.07,1.02C647.42,45.66,649.63,42.2,651.62,39.9z M648.55,11.58
		c2.82,0.51-2.43,1.86-2.54,1.93C644.15,12.39,648.45,11.55,648.55,11.58z M647.34,22.42c0.1,0,0.77,0.52,0.62,1.36
		c0,0.11,0.67,0.3-0.01,0.16c0.05-0.24-0.19-0.14-0.42-0.58c-0.17-0.31-0.13-0.88-0.14-0.89c-0.21-0.42-0.51,1.04-2.74-3.33
		C645.9,17.29,646.59,20.31,647.34,22.42z M647.1,59.74c-1.57,1.15-1.5-0.87-1.13-0.6C646.33,59.31,646.67,59.51,647.1,59.74z
		 M643.48,55.86c0,0.21,0.04,0.15-0.1,0.24c-0.08,0.24-0.05,0.19-0.21,0.16c-1.66,1.86-0.74,0.01-0.51,0.01
		C643.09,56.14,643.23,56.45,643.48,55.86z M642.16,32.32c0.09,0.22,0.12,0.18-0.1,0.15L642.16,32.32z M641.41,26.78
		c0.1-0.05,0.54,0.43-0.2,0.2C641.27,26.9,641.33,26.82,641.41,26.78z M642.56,46.76c-2.07,3.05-1.51,3.16-3.18,0.86
		C640.41,47,641.23,46.66,642.56,46.76z M636.44,23.09c0.03-0.2,0.17-0.42,0.48-0.45C636.5,23.04,635.8,23.72,636.44,23.09z
		 M631.44,28.26c0.01-0.47,0.2-0.82,0.73-0.89c0.34-1.03-0.05-1.08,1.64-2.5c1.29,0.56-0.29,1.43-1.54,2.36
		c0,0.14,0.01,0.1-0.1,0.13C631.36,28.94,631.43,29.04,631.44,28.26z M629.75,54.02c-0.81-0.59-0.81-1.3-0.4-1.78
		c0.59-0.7,4.04-4.46,4.09-4.29C633.82,54.41,634.45,52.34,629.75,54.02z M627.65,32.4c0.44,0.33,0.54,0.2-0.45,1.18
		c-0.01,0.01-0.22-0.17-0.21-0.18C627.19,33.07,627.43,32.74,627.65,32.4z M623.23,36.19c0.99,2.26,1.39,1.88-1.35,1.88
		C622.33,37.44,622.64,37.01,623.23,36.19z M620.88,41.92c3.17,0.03,2.11,1.75,0.6,1.73C619.3,43.62,619.56,41.91,620.88,41.92z
		 M588.66,36.71c5.54-1.95,10.15-1.36,14.96,1.48c-5.78,0.46-5.91,0.49-6.29,0.31C593.71,36.83,587.95,36.71,588.66,36.71z
		 M566.21,30.08c14.25,3.04,23.26,56.52,16.44,61.08c-0.5,0.34,0.72,5.83-1.16,6.68c-0.74,0.33-1.01,0.86-1.04,1.6
		c-0.22,5.38-1,14.04,0.41,16.86c5.95,21.24,36.87-15.85,34.88-23.47c-0.87-3.31-1.66,2.19-7.34,10.06
		c-13.09,18.16-22.97,18.76-23.81,16.4c-0.59-1.65,3.31-9.98,1.31-12.23c-2.12,6.73-1.63,5.43-2.4,6.25c0-1.31-0.59-4.79-0.4-7.69
		c0.06-0.96,1.03-6.96,1.81-7.39c0.81-0.44,0.68-0.08,0.32-0.8c-0.97-1.95,4.5-15.9,1.49-32.9c-2.55-14.4-1.31-3.14-8.4-27.08
		c-1.61-5.44,4.96,3.46,9.21-0.52c-0.95,1.89,22.7,5.12,30.24,8.34c2.86,1.22,4.2,2.58,6.64,1.78c1.19-2.28,3.6-4.48,4.82-3.7
		c-2.2,2.61-4.61,2.04-6.61,12.91c-0.67,3.67,5.05,0.98-4.86,18.8c-1.91,3.44-3.82,3.44-3.99,6.36c0,1.53,6.12-5.15,10.75-15.53
		c0.57,8.09-2.63,7.17-0.91,10.47c1.25-1.53,2.4-2.62,3.04-4.31c2.09-5.56,4.73-5.31,4.15-10.18c-2.74-0.18-5.59,3.08-5.51,1.14
		c0.19-4.31-2.13-12.75,5.72-17.95c0.2,2.64-1.81,3.35-3.34,4.45c0.99,9.39-0.35,11.21,4.8,9.57c0.24-0.08,1.06-0.79,1.06-0.89
		c-0.04-0.11-0.96-2.44-1-2.55c0.87-0.84,1.75-0.98,2.87-0.66c2.67,0.76,0.22-2.99,0.23-7.43c0-0.97-0.68-1.83-1.16-2.98
		c4.41-1.19,1.34,5.38,3.92,7.96c3.61,3.61-6.72,9.86-6.72,15.44c3.38,0.93-1.71-4.73,23.7-8.26c3.64-0.51,9.13,1.87,14.44-0.44
		c7.01,3.18,7.05,3.19,7.23,3.39c2.92,3.18,7.64,4.88,8.76,6.23c-1.09,1.73-1.67,3.8-3.54,5.17c-0.77,0.56-1.15,1.68-1.64,2.59
		c-4.71,8.9-2.21,7.09-9.23,8.39c-0.32,1.27-0.39,2.31-1.63,4.4c-9.09,15.39-2.31,13.34-12.87,7.37c0.43-0.66,0.78-1.18,1.14-1.72
		c-0.87-1.36-4.17,1.29-1.53,3.94c0.3,0.43,1.57,1.42,1.61,1.42c-5.75,3.14-3.11,3.46-11.83-2.28c-2.83,2.42,0.64,2.61,4.74,5.95
		c0.1,0-1.09,0.64-1.35,0.57c-4.01-1.19-1.36-2.33-6.22,2.32c-3.39,3.25-10.19,1.49-10.72-1.66c-0.83-4.95-3.77-3.33-9.57-16.81
		c-0.67,0.39-1.25,1.05-1.75,0.99c-1.8-0.22-3.64-0.51-5.33-1.1c-4.27-1.49-0.73-0.24-18.12,2.07c-0.29,0.04-1.54,0.95-1.54,0.97
		c15.87,2.35,15.11-2.31,21.58,0.4c-1.08,13.04-7.5,20.83-7.62,22.08c-0.51,5.13-10.82,14.22-15.02,17.28
		c-11.42,8.28-25.42,7.82-25.42,7.39c0.14-1.67,2.52-1.44,2.33-3.33c-2.78-0.52-6.89,0.16-8.8,2.22c-0.48,0.52-5.42,1.1-5.42,0.85
		c-0.73-2.95,0.63-0.19-0.18-14.45c-0.51-8.91-1.69-0.91,8.54-11.21c0.96-0.97,0.3-1.71,1.74-2.35c5.56-2.52,5.04-6.91,6.65-10.18
		c11.55-23.6,6.22-34.1,4.53-44.54c-0.94-5.79-8.34-20.93-14.94-23.25c-1.14-0.4-5.65-2.63-5.96-3.24
		C558.57,28.59,558.32,28.4,566.21,30.08z M517.7,46.77c-0.13-1.6-0.03-1.33,9.35-9.65c11.08-9.84,6.13-4.88,27.53-7.48
		c18.97,10.34,6.27,2.22,20.29,24.63c10.75,17.2,0.37,34.09-2.92,47.71c-0.85,3.52-3.61,5.77-6.56,8.1
		c-1.74,1.38-1.17,2.01-2.29,2.3c-2.21,0.57-2.49,1.24-7.62,3.7c-1.66,8.92,2.57,17.99-0.84,20.05c2.14,8.35-3.82,23.17-5.66,35.13
		c-0.15,0.99-0.29,2.02-1.27,2.71c-0.41,0.29,0.64,2.28-0.8,1.92c-0.48-0.12-0.54-0.97-1.48-2.57c-2.33-3.98-0.51,6.3-1.55,36.22
		c-0.82,23.76-6.27,18.73-5.68,31.16c0.44,9.29,0.57,38.63,9.24,40.62c0.36,0.08,1.24-0.19,2.8,0.39c1.73,0.64,2.74,1.67,4.62,2.71
		c4.5-0.49,3.95,0.07,16.12,1.57c4.91,5.63,4.97,3.01,6.05,5.09c-3.21,2.43-4.49,0.65-12.64-2.15c-4.45-1.53-2.77-2.25-5.95-3.8
		c-0.33-0.2-1.49-0.19-1.57,0.02c-0.72,2.02-6.6,0.1,3.09,4.25c4.28,1.84,3.72,3.88,6.95,5.19c0.93,0.38,1.4,0.33,1.76,0.51
		c0.1,0.1,0.84,0.66,0.94,0.73c-0.08,1.72-1.69,1.67-3.74,1.35c-5.13-0.8-3.3-0.76-5.3-2.49c-8.26-7.13-7.35-5.74-10.47-6.83
		c-2.36-0.83-3.49-2.03-3.85-0.4c1.09,1.44,2.79,2.23,4.54,2.72c2.82,0.78,2.15,1.25,9.11,6.84c-0.7,6.22-18.98-6.39-19.09-6.43
		c-5.75-1.77,7.83,7.73,4.87,7.77c-4.64,0.06-3.49-0.68-7.13-2.56c-3.45-1.78-2.11-0.21-5.03-3.71c-1.2,0.5,0.72,1.65-1.16,2.42
		c-0.84,0.35-3.33-0.82-9.01,3.52c-0.95,0.72-1.77,0.5-2.51-0.35c0.49-2.01,3.1-4.28,2.83-6.78c-0.43-3.91,2.63-2.31,1.85-10.59
		c-1.41-14.97-2.84-10.7-4.78-19.85c-7.37-34.78-4.39-2.39-8.54-38.22c-2.36-20.35,0.89-10.67,0.71-27.18
		c-0.3-28.08,5.86-19.16,3.68-34.11c-1.24-8.49-1.72-4.14-1.88-9.32c-0.86-27.38-2.75-2.02-2.07-32.63
		c0.48-21.93,2.74-24.09,7.63-38.72c1.59-4.77-0.55-3.59,2.37-11.32c0.48-1.27,1.52-2.67,0.74-3.09c-3.37-1.82-4.23,8.28-6.19,11.67
		c-6.87,11.84-7.34,13.78-7.34,14c-4.29-4.14-3.38-8.29-1.9-15.13c2.04-9.43,2.8-15.13,6.37-24.2
		C516.34,47.08,517.79,47.9,517.7,46.77z M568.45,292.65c-0.25-0.17-0.71-0.41-0.33-0.21C568.38,292.52,568.3,292.47,568.45,292.65z
		 M445.05,110.32c0.09-1.49,0.09-1.49,2.45-1.71C446.95,110.56,446.95,110.56,445.05,110.32z M449.87,109.11
		c-2.17,0-0.86-3.04,1.69-3.1C451.96,106,451.95,108.76,449.87,109.11z M449.34,131.87c0.25,4.58,0.37,3.85-0.4,4.26
		c-1.43,0.76-2.82,1.39-4.45,1.56C444.57,137.58,449.34,131.54,449.34,131.87z M448.88,137.43c1.66-0.81-1.69,2.88-5.22,4.84
		C441.98,139.97,444.97,139.35,448.88,137.43z M445.27,152.7c-0.85-2.01-0.91-2.17-0.87-2.39c0.09-0.67,1.24-0.63,1.15-1.57
		c-0.09-0.96,4.11-3.64,4.52-5.52c-3.53,1.37-6.14,5.77-6.93,4.05c-1.11-2.41,7.18-3.79,2.13-3.79c0.1,0-0.13,0.1-0.23,0.17
		c1.43-2.14,2.64-3.2,3.61-3.93c1.77-1.62,1.13-2.96,4.65,11.56c-7.31,3.27-1.6,1.39,0.22,1.94c2.05,2-0.94,1.88-0.43,4.45
		C450.92,159.37,449.63,163.06,445.27,152.7z M451.23,162.27c-0.06-1.25,2.74-3.91,4.1-5.01c1.5,3.23,1.89,2.27-2.96,6.15
		C451.55,162.8,451.24,162.57,451.23,162.27z M455.07,168.2c-0.8,0.23-1.48-0.35-2.04-1.25c0.13-0.82,0.28-1.8,0.41-2.67
		c4.22-3.74,2.53-3.82,6.4,0.57C458.44,166.57,455.44,168.06,455.07,168.2z M460.61,166.22c2.05,1.68-2.27,2.71-2.13,2.67
		C460.63,166.74,455.96,171.47,460.61,166.22z M458.7,170.75c2.07-0.97,3.53-2.47,5.76-1.57c-0.34,1.18-1.35,0.86-1.97,1.24
		C459.98,172,461.6,172.6,458.7,170.75z M467.05,174.16c-8.38-1.8-1.97-1.76,0.31-2.52C467.33,171.89,467.21,172.84,467.05,174.16z
		 M467.04,167.43c-8.47-6.91-7.6-6.04-8.1-7.23c-2.97-7.06-0.4-8.82-1.49-9.37c0.2,0,5.26,1.32,11.24-0.42
		c0.12,0-0.83-0.08-6.02-0.71c-8.63-1.04-5.83,0.19-7.73-5.59c-2.09-6.37-2.33-2.31,5.47-12.51c-3.58,1.2-7.58,7.16-7.57,4.02
		c0.09-27.85,0.44-31.09,5.89-35.6c6.94-5.74,19.83-6.35,33.11-25.71c0.73-1.06,13.45-18.23,16.96-21.54
		c0.73,1.58-1.81,3.3-3.92,12.74c-1.64,7.31-2.15,24.86,4.15,28.88c-0.31,2.85-0.61,5.55-0.91,8.39c-1.68,0.47-8.56,0.24-8.25,0.24
		c7.9,6.33,9.5-7.18,9.92,26.69c-1.66,4.08,1.41,0.65,1.41,29.88c-2.66,2.18-6.07,3.08-9.55,3.75c-12.69,2.42-11.47,1.17-10.62,4.05
		c0.09,0.31-0.21,0.64-0.32,0.68C469,174.38,468.4,167.44,467.04,167.43z M470.41,172.48c2.46-0.47,4.18-0.07,6.36,0.69
		C472.65,175.55,472.46,173.46,470.41,172.48z M251.43,246.37c0.39,3.56,3.56,3.68,1.44,6.63c-1.38,1.92-3.04,3.39-7.47,3.54
		c0.54-1.4,0.45-2.91,1.35-4.14c3.68-5.01-5.31-11.31-11.49-11.52c-1.96-0.07-0.37-1.09-4.51-2.92c1.34-0.92,1.02-0.99,1.97-0.26
		c1.09,0.83,1.83,0.93,2.36-0.32c3-7.01,1.66-5.99,5.52-4.19c-1.71,1.14-3.14,1.62-1.69,2.99c2.23,2.1,3.99,0.23,4.2,2.46
		c-0.73,0.28-1.49,0.58-2.5,0.97C244.23,241.39,242.48,238.47,251.43,246.37z M232.45,230.43c1.09-0.51,1.08-0.08,1.23,1.09
		C233.01,230.92,232.77,230.71,232.45,230.43z M238.17,228.38c0.18-0.51,0.32-0.89,0.57-1.55
		C241.22,228.78,241.54,228.38,238.17,228.38z M245.97,224.46c-1.01-0.18-4.87-0.85-5.72-0.99c0.56-1.52,1.44-2.44,2.59-3.35
		C249.04,221.83,248.45,220.76,245.97,224.46z M262.25,207.53c-0.39,2.82-2.34,3.99-6.15,6.8c-5.54,4.07-3.77,3.65-8.75,2.17
		c-1.45-1.77,0.42-3.06,0.47-4.51c-3.77-8.9-2.74-4.5-5.77-7.08c1.21-0.38,2.15-0.68,3.02-0.96
		C251.87,212,259.77,206.8,262.25,207.53z M255.29,202.26c0.18,1.3,0.7,3.12-0.29,3.12c-2.47,0.02-4.49-0.19-6.56-1.89
		c4.59-0.82,6.18-1.12,6.66-1.21C255.1,202.28,255.14,202.28,255.29,202.26z M264.02,165.9c21.23-15.41,44.54-8.73,55.86-9.37
		c0.02,2.87,0.28,2.57-3.58,4.96c1.69,0.87,2.32,0.91,1.78,2.5c-2.84,8.23-4,16.38-4.14,16.89c-1.52,4.57-1.24,3.74,5.52,15.11
		c-3.48,5.25-73.72-0.03-81.8,8.89c-1.9,0.37-3.84,0.97-5.29-0.96c-0.1,0.07-10.16-4.43-10.85-8.51c-0.58-3.43,1.32-8.03,4.55-10.63
		c0,9.35-0.51,8.68,5.74,18.28c1.42,0.5-0.67,1.42,1.79,0.19c0.1,0-0.06-0.02,0.42-0.16c1.54-0.45,3.95,1.72-1.34-2.66
		c-2.6-2.15-2.86-7.27-2.31-10.67c2.14-0.66,4.43-1.15,6.43-2.88c-2.26,0.24-4.28,0.46-6.45,0.7c-0.54-1.68,0.07-3.02,0.88-4.57
		C233.09,179.46,241.1,182.55,264.02,165.9z M230.74,173.85c12.45,4.63,10.42,1.55,1.61,5.34c-3.03-2.29-1.85-2.09-5.38-1.22
		c-1.52-1.53-2.54-1.32-8.93-3.08C218.5,174.24,223.64,171.2,230.74,173.85z M196.31,195.03c4.59-15.07-0.4-16.56,12-20.51
		c3.11,0.62,10.22,7.22,12.39,4.63c1.07-1.28,2.67-0.64,3.35,0.11c2.75,3-16.73,12.11,4.4,24.74c2.7,1.62,2.77,3.82,7.49,3.78
		c7.99-0.07,5.82-2.3,9.15,2.88c1.21,1.88-1.87,3.49-4.46,5.22c-3.19,2.14-4.64,1.24-8.37-0.83c-13.83-7.66-8.3,4.68,4.04,6.83
		c-0.94,4.8-4.04,1.07-10.59,1.14c-2.76,0.03-2.22,0.38-2.06,0.91c1.93,6.42,10.32,5.59,4,6.08c-1.32,0.1-2.53,0.27-3.55,0.97
		c5.37,5.69,8.28,1.05,8.53,3.77c0.06,0.62-7.69-0.9-9.27,0.38c0.55,1.16-0.09,1.13,2.23,1.96c3.22,1.15,3.01,0.93,2.59,1.35
		c-1.04,1.03-2.38,0.95-3.54,1.68c-0.24,0.12,2.26,1.68,4.79,2.1c2.2,0.37,7.01-0.59,12.59,3.4c5.92,4.23,0.82,10.31-1.85,14.86
		c-4.32,0.86-10.36-0.81-19-0.81c-8.23-0.73-7.66,1.15-16.22-4.85c-9.85-6.9-8.62-26.34-5.2-37.28c2.2-7.04-1.05-4.79-2.42-11.82
		C196.19,199.82,195.31,198.32,196.31,195.03z"/>
	<path d="M703.66,72.01c0.07,0.07,0.09,0.04,0.06-0.06C703.67,71.95,703.62,71.94,703.66,72.01z"/>
	<path d="M422.79,146.93l0.01,0.01c0.2-0.15,0.08-0.09-0.09-0.09C422.35,147.03,422.36,147.03,422.79,146.93z"/>
	<path d="M707.26,375.65c-5.71-4.84-6.19-3.06-8.08-8.99c-3.46-10.87,1.19-7.12-6.41-22.21c-5.04-10.02-9.24-11.86-10.09-13.28
		c-4.1-6.81-7.6-5.39-8.78-10.85c-3.85-1.39-7.58-2.75-11.74-3.23c1.76-2.52,2.31-3.05,2.23-3.6c-0.09-0.67-0.99-0.75-1.31-0.5
		c-3.42,2.7-2.49,3.29-3.37,0.21c-0.38-1.31-1.07-2.07-2.45-1.79c-1,0.21-3.77-2.82-4.4,0.82c-0.54,3.1,0.75,2.02-2.63,1.62
		c-1.37-0.16-1.79,1.26-1.32,1.73c1.7,3.41,2.53,2.48-0.99,3.69c-7.93,2.72-8.89,2.9-11.24,4.18c-2.06,1.13,1.02,3.96-1.75,3.65
		c-5.03-0.56-8.37,12.06-14.1,16.38c-2.73,2.06-5.75,3.63-8.51,5.49c-8.21-6.03-21.79-6.06-24.45-3.68
		c-0.54,0.48-0.73,0.92-0.66,1.32c-0.02-0.01-0.05-0.01-0.07-0.03c-0.58,0,1.29,0-5.37-2.96c-24.64-10.97-14.62-7.66-37.26-5.27
		c-2.38,0.25-5.25-1.63-10.43,0.61c-8.74,3.78-5.73,1.5-18.95,15.08c-5.06,5.2-1.99-0.79-12.65,11.49
		c-26.8,30.87-13.5,25.37-38,38.02c-0.42,0.22-1.22,0.27-1.27,0.32c-0.9,1.39-2.97,1.81-3.91,2.13c-0.75,0.26-1.53,2.31-4.7,3.96
		c-6.37,3.32-7.34,3.32-6.01,4.08c0.89,0-0.61,0.74,3.75-1.53c1.5,1.28-0.38,1.72-5.86,4.57c0.2-2.26,1.61-3.79,1.71-3.83
		c3.5-6.99-0.09-1.59-1.49-1.11c-0.08-0.06-4.58-3.71-4.68-3.74c0.77,3.66-0.22,2.26,3.42,6.32c-4.26,9.88-1.31,9.56-9.86,2.56
		c-1.54-1.54,1.5,4.45,6.9,10.1c1.3,1.36,1.26,1.4,1.94,3.98c2.1-0.26,3.47-2.04,5.27-2.81c0.52,0.81,0.46,10.61-0.86,12.12
		c-4.66,5.33-4.26,4.58-4.89,4.58c0.23-3.06-0.18-1.42,2.19-2.71c1.45-0.79,1.38-2.18,0.61-3.64c-0.54,0-2.13,2.53-1.64,0.97
		c0.33-1.05,1.29-0.84,1.58-1.03c-2.22-1.83-0.02-0.62-1.29-3.7c3.15-2.54,3.22-1.88,0.07-2.91c-2.55,1.66-3.52,1.93-1.22,3.72
		c-0.82,3.78-0.37,10.74-2.24,12.62c-0.31,1.36,1.08,1.73,0.48,2.67c-0.62,0.41-17.42,4.51-17.94,5.04
		c-2.45,2.45,15.34-3.9,17.89-3.27c-0.39,0.79-0.74,1.5-1.04,2.09c0.97,4.85,2.63,9.33,5.07,13.58c-1.39,2.1-1.97,4.22-4.18,5.32
		c-0.75,6.13,1.07,2.06,5.54-3.5c0.97,1.42,5.28,7.08,4.04,8.32c-1.16,1.16,0.79-2.24-9.02,7.45c-0.42,0.41-0.27,0.79,0.29,1.19
		c11.41-5.38,12.62-5.82,14.48-4.77c4.07,2.29,6.45,2.32,8.36,3.57c-0.86,2.13-2.94,2.43-4.98,4.13c5.69-1.39,5.27-1.07,6.78-4.01
		c1.33,0.6,2.92,0.25,4.78,0.95c-29.75,15.19-53.98,19.41-82.28,38.61c-4.92-3.28-15.28-12.12-16.62-14.18
		c10.94-5.47,63.85-10.82,63.94-14.84c-1.46-1.29-5.15,1.86-14.5,3.01c-122.2,15.02-68.85,46.9-102.27,3.09
		c-6.27-8.22-5.31-6.21-3.32-14.47c4.94-20.6,4.93-18.88,5.27-27.3c6.99-9.1-0.61,0.94,6.37-8.92c1.35-1.91,10.18-6.01,10.87-6.12
		c0.05,3.32-2.21,6.09-1.83,9.49c1.86-1.67,2.74-4.93,2.97-10.82c5.44-3.33,29.1-13.79,35.47-13.92c-0.64,4.26-0.36,7.21-0.36,7.98
		c3.35-9.33,0.54-10.49,4.53-13.29c4.19-2.94,7.81-1.41,10.06-5.59c0.88-1.63,2.36-2.95,5.12-3.75c7.61-2.19,5.32-2.33,7.95-1.61
		c5.27-7.16,18.15-11.54,19.13-12.19c6.03-4,3.46,1.59,32.88-8.88c2.42-0.86,14.7,6.16,16.31,4.83c1.25-1.04-0.56-2.15-1.92-2.72
		c-11.72-4.88-12.9-5.71-15.8-4.91c-16.91,4.67-7.01,5.13-24.55,6.8c-6.83,0.65-16.9,4.61-22.62,10.39
		c-4.32,4.36-12.32,5.3-14.67,6.49c-3.24,1.64-3.81,3.86-5.16,5.1c-1.97,1.81-1.13-0.62-5.33,3.91c-2.05,0.34-2.23-0.12-3.57,0.79
		c-0.98,0.67-2.76,3.38-4.67,4.18c-12.81,5.36-14.68,5.29-20.98,7.56c-12.63,4.55-15.45,8.53-18.73,9.91
		c-8.88,3.74-8.4,4.98-9.58,7.89c-2.5,6.18-2.48,3.98-4.64,9.24c-6.23,1.9-12.06-0.4-20.22-0.84c-9.37-0.5-23.99,2.02-32.67,8.63
		c-8.57,6.52-23.89,14.87-24,14.93c-0.76,0.46-1.28-1.38-2.76-1.6c-10.03-1.5-19.72-9.54-25.64-3.39c-2.08,2.16-1.01,3.27-2.98,2.2
		c-1.92-1.04-5.17-1.82-5.79-1.01c-1.14,1.49-4.8-0.08-7.73,4.39c-12.44,19.01,0.35,36.5-0.78,41.13c-0.38,1.58-2.34,7.84-2.34,7.87
		c-2.4,15.11,0.43,28.78,13.82,35.92c5.4,2.88,31.45,1.62,32.55,1.4c0.79-0.9,1.52-1.75,2.24-2.59c2.22,0.71,4.14-0.23,6.16-0.53
		c3.26-0.48,5.06-2.54,6.45-5.51c1.89-4.05-1.68-5.45-1.98-7.05c-1.29-6.97-11.62-4.86-8.43-14.27
		c5.39-15.86,17.5-16.21,18.61-22.85c0.67-4.01-2.67-3.21-2.21-4.93c14.22-4.82,2.24-1.38,28.23-1.96
		c30.56-0.68,30.02-6.18,32.32-2.25c7.63,13.01,7.23,12.99,8.8,13.56c0.45,1.98,0.09,4.23,2.52,4.94
		c0.1-0.02,23.31-13.56,37.86-16.99c1.1,7.17,14.77,13.43,17.05,16.87c4.05-0.09,9.3-7.71,34.75-18.13
		c46.34-18.98,4.51-0.21,48.44-20.76c8.75-4.1,8.14-6.29,14.44-7.57c3.89-0.79,7.37-2.06,9.62-5.33c7.01-0.85,5.11-1.39,6.46,3.96
		c7.55,1.29,10.89,2.55,17.69,0.78c7.42-1.93,17.79-2.35,31.18-7.92c3.1-1.29,21.41-4.8,27.87-11.69c1.35-1.45,2.63-1.89,3.86-1.89
		c2.17,0.01,13.47-7.86,27.21-6.79c2.41,13.83,2.28,7.45,8,18.63c0.07,0.13-0.07,6.87-0.02,13c0.03,4.16,1.35,1.89,1.14,6.95
		c-0.55,13.48,1.17,12.91,0.48,15c-1.42,4.36,0.19,9.11,2.58,18.81c4.47,18.21,5.88,29.55,8.3,33.95
		c0.99,1.81,0.01,10.56,3.54,18.91c0.23,0.55,0.27,0.9,1.49,7c-0.78,1.58-1.56,2.75-1.93,4.03c-0.42,1.43-0.81,2.84-1.51,4.16
		c-0.76,1.45,3.8,2.49,3.8-5.13c1.12-2,3.64-2.92,3.37-5.55c-2.07-1.33-2.45-1.62-2.7-3.17c-5.2-33.23-13.33-58.72-14.97-66.53
		c-0.51-2.42,1.34-0.99,0.15-8.09c-1.95-11.68,0.44-20.02-0.92-22.5c-1.42-2.59-0.64-5.33-0.63-8.01c1.35-1.96,0.61-3.75-3.74-13.45
		c-1.06-2.37-2.92-1.03-3.78-4.99c-1.03-4.76-0.67-3.15,10.02-6.41c4.44-1.35,15.58,0.96,16.16-3.73c0.65-5.29-8.94-1.72-14.83-4.17
		c1.57-0.61,19.23-8.81,21.75-8.39c3.32,30.28-6.44,46.43,2.8,64.94c2.28,4.57,1.47,8.21,1.75,12.07c0.48,6.61,1.47,5.12,0.92,9.1
		c-2.59,18.9,0.7,13.05-0.04,47.18c-0.09,4.24-1.62,8.74,1.02,8.08c-0.97,1.01-4.89-0.46-5.7,0.31c-1.75,1.69,3.53,1.88,6.79,2.29
		c5.91,8.59,10.94,5.03,6.74,7.38c0.66,1.32,7.65,2.64,10.48,5.04c4,3.39,7.63,4.79,8.68,5.39c0.23,0.13,0.73,1.1,0.7,1.1
		c-2.39,1.2-2.29,0.22-12.84-1.69c-7.49-1.36-8.08-3.67-12.73-3.32c-0.5,0.04-4.4,0.07-4.74-0.28c-2.34-2.44-4.72-0.14-7.42-0.07
		c-3.18,0.08-1.63-2.36-4.26,4.03c-3.43,1.49-2.31,0.3-5.63,0.57c-3.7,0.3,4.01,5.96,8.61-0.15c0.36-0.65,0.79-1.9,0.15-2.37
		c0.1,0.01,0.21,0,0.21,0.06c0.47,0.93,5.16-0.65,6.21-1.1c2.66,1.04,5.24,1.39,7.88,1.37c3.57-0.03,3.37,1.33,6.4,2.1
		c24.15,6.15,16.99,3.48,21.4,1.09c6.75,1.14,10.14,2.52,14.11-0.95c1.41-1.23,2.26-3.05,0.89-4.26c-0.1-0.09-8.07-3.07-9.87-2.88
		c-3.76,0.41-3.59-1.15-6.03-1.86c-9.3-2.7-9.01-2.37-9.52-2.73c-4.83-3.41-8.75,1.77-16.9-6.01c-4.99-4.76-2.87-2.84-2.69-10.22
		c0.06-2.49,0.49-27.29-0.51-31.85c-0.67-3.07,3.81-29.3-1.08-41.02c-1.63-3.9-2.83-3.99-3.93-6.2c-3.53-9.53,2.91-18.6,2.61-39.09
		c-0.2-13.27-4.67-16.75-1.41-23.21c1.79-3.56,3.67-7.12,3.91-11.33c2.66-0.56,5.02-1.56,6.8-3.47c5.41,2.54,4.14,2.38,13.56-15.23
		c2.55-0.12,4.04,0.19,5.38-2.27c8.32-15.35,6.98-10.95,8.6-15.03c1.79,0.56,3.1,1.78,4.77,2c0.93-1.51-0.89-1.2,10.87,0.65
		c2.08,0.33-0.87-4.15-1.55-3.98c-0.18-0.2-0.41,0.06,1.98-0.26C696.61,371.57,704.53,378.42,707.26,375.65z M239.15,486.52
		c2.23,0.56-5.64,2.4-6.73,2.73c-3.42-2.15-2.06-1.69-5.47-1.13c-2.57-2.41-5.61-1.27-9.11-3.59
		C232.66,480.58,221.34,483.2,239.15,486.52z M251.37,556.4c0.39,0.78-0.09,1.91,0.93,2.69c2.74,2.1,0.25,5.89-3.29,6.99
		c-3.03,0.94-4.08,2.02-2.9-2.06c0.25-0.87,4.26-5.64-2.36-9.81c-4.93-3.1-6.43-2.99-9.7-3.46c-1.03-2.1-0.95-1.91-1.07-1.88
		c-0.5-1-5.11-0.13-8.67,1.73c8.44,4.13,6.62-0.05,15.87,4.24c8.59,3.98,3.06,10.84,0.1,15.73c-3.09,0.79-27.2-1.12-27.31-1.13
		c-1.98-0.2-4.43-2.29-6.61-3.49c-12.3-6.73-9.65-30.73-6.2-39.13c1.76-4.3-1.59-5.14-2.73-10.52c-1.15-5.45-2.09-7.91-1.12-11.1
		c3.31-10.95,0.94-17.03,8.2-19.34c6.31-2,4.7,0.03,13.04,3.73c1.74,0.77,2.2,0.55,3.91-1.09c1.03,0.06,2,0.29,2.71,1.11
		c2.28,2.64-10.25,7.64-3.69,17.67c1.74,2.67,3.87,4.73,6.68,6.22c5.75,3.06,2.53,5.56,15.46,3.88c3.42,4.18,4.55,4.95-3.94,9.87
		c-4.29,0.24-6.96-2.58-10.06-3.91c-8.69-3.72-3.49,6.8,6.67,8.42c1.5,0.24,1.15,0.4-0.04,2.92c-3.52-0.3-10.59-2.42-11.88-0.92
		c0.74,2.9,2.63,4.79,5.65,5.58c-0.21,1.87-8.09,0.29-3.4,3.48c4.14,2.82,7.19-0.11,6.93,2.63c-11.82-3.32-11.53,3.04-2.59,2.77
		c2.93-0.09,1.74-2.2,2.97,0.51c1.49,0.37,2.11-1.24,2.21-1.24c2.6-6.71,1.96-5.72,4.95-4.39c0.21,0.72,0.58,0.23-1.76,1.87
		c0.95,3.83,5.76,1.44,4.62,3.83c-0.25,0.52-3.65,1.02-1.25,1.38C245.58,550.76,247.82,553.34,251.37,556.4z M239.71,538.49
		c-2.19,0.34-1.37-1.66-0.33-1.06C239.71,537.62,240.82,538.49,239.71,538.49z M233.51,540.82c-0.67,0.38-0.22-0.13-0.53-0.2
		C232.47,540.11,232.94,540.6,233.51,540.82z M245.91,534.5c-1.92-0.06-3.72-0.54-5.88-1.09c3.27-3.93,1.68-3.4,7.49-1.82
		C247.89,532.32,247.56,532.45,245.91,534.5z M251.88,528.15c-10.3-3.5-1.57-0.78-5.43-8.91c0-2.71-3.11-3.42-4.14-3.82
		c0.67-0.98,1.68-1.07,2.93-1.1c6.61,7.59,13.85,3.01,16.91,3.23C261.16,523.65,253.58,524.45,251.88,528.15z M248.43,513.8
		c2.33-0.63,4.68-1.05,6.96-1.36c0.02,0.12,0.4,2.92,0.41,3.01C253.1,515.8,251.54,515.49,248.43,513.8z M317.35,507.04
		c-14.78,3.85-46.91,1.28-63.1,3.37c-22.04,2.85-14.11,9.17-27.53,0.64c-4.22-2.68-5.01-3.62-5.25-5.89
		c-0.42-3.88,2.01-8.34,4.6-10.29c0.09,2.63-1.43,11.83,6.83,18.91c6-2.05-4.35-0.69-2.76-13.82c8.61-2.69,6.88-3.33,0.43-2.1
		c-1.18-1.75,0.58-4.78,1.16-5.41c0.63-0.67,1.86-1.04,3.04-1.36c25.28-7.02,27.93-19.8,50.35-24c22.56-4.22,24.31,1.79,34.05-0.47
		c1.08-0.25,1.25,2-0.1,3.29c-2.58,2.47-4.71,0.57-0.75,2.99c-0.72,2.69-5.99,21.27-4.56,23.62
		C320.93,508.31,320.06,506.33,317.35,507.04z M697.1,593.74c-0.02,0.07-0.06,0.13-0.09,0.21
		C696.78,593.62,696.72,593.61,697.1,593.74z M688.92,592.74c3.13,1.25,9.18,3.04,3.66,3.71c-0.75,0.09-1.47-0.01-2.13-0.21
		c-1.8-0.55-3.59-0.57-5.4-0.62c-3.5-0.09-2.93-1.6-4.99-1.87c-5.94-0.79-5.09-4.91-13.92-7.33c-0.65-0.18-1.29-0.47-1.91-1.02
		C671.93,583.86,684,590.78,688.92,592.74z M684.29,359.91c0.02,0.06-0.15,0.14-0.23,0.2C683.65,359.14,684.22,359.18,684.29,359.91
		z M683.04,366.01c-0.02-0.05-1.05,0.11-1.42-1.44c0.1,0.1,0.14,0.13,0.14,0.23C682.53,364.9,683.44,366.38,683.04,366.01z
		 M681.54,354.39c0.71,0.56,0.59,1.87,0.12,1.74C680.77,355.8,680.92,353.9,681.54,354.39z M679.78,333.48
		c-0.09-0.12-1.86-2.52-1.95-2.64C678.42,329.12,680.04,331.47,679.78,333.48z M676.3,338.07c0.72-0.03,1.54,0.96,0.28,1.85
		C675.36,337.85,675.27,338.12,676.3,338.07z M674.01,333.24c0.22,0.33,0.56,0.62,0.52,0.84c-0.25,1.39-0.45,1.5-2.36,1.24
		C673.03,334.13,672.59,334.6,674.01,333.24z M667.8,335.5c-0.08,0.05-0.16,0.15-0.22,0.15C667.32,335.6,667.49,335.13,667.8,335.5z
		 M665.1,353.27l-0.22,0.1C664.89,353.1,664.83,353.12,665.1,353.27z M663.76,363.89c0.38,0.13-0.04-1.83,1.82-0.32
		c-0.92,1.15-1.75,0.13-1.75,0.39C663.72,364.13,663.71,364.24,663.76,363.89z M663.55,320.25c-0.63,1.27-1.4,1.87-3.16,1.47
		C661.38,318.89,660.65,319.14,663.55,320.25z M661.59,327.16c0.61,0.73,0.11,1.23-0.36,1.64c-2.85,2.42-2.41,2-4.08,1.26
		C658.79,328.99,660.18,328.08,661.59,327.16z M658.02,360.6c-0.16,0.34-0.43,0.64-0.67,0.95c-0.12-0.05-0.23-0.1-0.34-0.16
		C657.47,359.1,658.13,360.28,658.02,360.6z M656,365.21c-0.03,0.01-0.12-0.14-0.18-0.21C656.71,364.55,656.55,365.04,656,365.21z
		 M654.07,366.42c-1.5,0.32-2.54,0.56-4.03,0.88C652.59,365.4,652.59,365.4,654.07,366.42z M651.19,350.6
		c1.5-1.91,0.7,3.12-1.85,4.11C647.97,355.25,646.71,356.31,651.19,350.6z M649.21,322.23c0.14,0.94-2.02,1.23-3.24,1.14
		C644.41,323.26,649,320.82,649.21,322.23z M645.71,328.31c0.04,0.1,2.31,5.31,2.3,5.24c-0.12-0.01-0.53-0.06-0.71-0.28
		C643.76,328.71,644.29,329.49,645.71,328.31z M646.66,370.17c-0.09-0.03-0.38,0.17-0.99-0.36
		C646.67,369.18,646.42,369.67,646.66,370.17z M642.87,366.2c0.05-0.05,0.33,0.19,0.45,0.25c-0.08,0.08-0.16,0.19-0.24,0.2
		c-0.4,0-0.63,0.09-0.75,0.16c0.04-0.04,0.08-0.1,0.13-0.19C642.72,366.63,642.63,366.35,642.87,366.2z M641.42,336.84
		c0.37,0.52,0.43,0.33-0.03,0.75C641.15,336.91,641.16,337.1,641.42,336.84z M641.86,356.68c0.65,0.61,0.73,0.04-0.97,2.79
		C638.92,357.4,638.47,357.9,641.86,356.68z M636.37,332.92c0.37-0.28,0.41-0.34,0.35-0.04
		C636.72,333.16,635.91,332.77,636.37,332.92z M632.91,336.02c0.13-0.12,0.82-0.75,1.04-0.95c0.06,0.38,0.25,0.72,0.13,0.88
		C628.55,342.04,632.8,336.13,632.91,336.02z M633.71,362.93c-1.37,0.45-2.62,0.87-4.02,1.34c-1.55-1.23,0.18-2.56,1.69-4.15
		C634.07,357.28,633.37,356.77,633.71,362.93z M627.47,342.74c0.48,0.54,0.49,0.32-0.31,0.95
		C626.98,343.39,626.84,343.63,627.47,342.74z M623.75,347.9c-0.55,0.73-1.48,0.39-1.41-0.14
		C622.46,346.74,623.75,346.59,623.75,347.9z M623.33,352.5c-0.67,1.34-1.74,1.26-2.83,1.32c-0.56,0.03-0.41,0.31-0.86-1.35
		C620.9,352.04,622.07,352.18,623.33,352.5z M603.67,348.76c-6.69,0-6.01,0.05-6.28-0.07c-3.3-1.5-5.74-1.03-7.42-2.2
		C596.91,344.92,600.09,345.96,603.67,348.76z M567.01,340.59c8.22,1.99,17.38,31.6,17.74,40.08c0.18,4.16,0.35,18.12-2.54,21.18
		c0.82,1.58,0.58,3.25,0.04,4.93c-0.81,2.52-1.7,0.35-1.86,3.73c-1.26,26.98,5.77,15.92-2.71,24.82c-5.71,6-2.35,4.07-15.14,6.27
		c-5.84,1.01-5.86,3.03-11.13,0.65c-0.61-1.02,3.17-4.57,7.12-21.6c1.05-4.52-2.33-2.44,6.74-5.72c3.22-1.17,8-4.23,9.99-7.98
		c1.14-2.15,2.43-3.57,2.46-3.62c10.83-22.38-1.67-56.68-13.44-60.76c-0.68-0.24-5.89-2.64-5.68-3.1
		C558.99,338.68,566.91,340.56,567.01,340.59z M584.73,432.55c2.9,0.84,0.1,1.81,0.19,2.28c-0.03-0.03-0.05-0.05-0.08-0.07
		c-2.09,3.71-0.8,2.72-6.15,4.21c2.2-2.94,1.62-2.05,4.29-5.92C585.49,435.38,584.95,435.35,584.73,432.55z M451.5,416.27
		c-0.16,2.58-0.16,2.58-2.54,3.09C447.92,418.47,449.42,416.47,451.5,416.27z M447.77,418.61c-0.9,2.25-0.9,2.25-2.94,1.96
		C444.8,418.63,446.29,418.84,447.77,418.61z M446.75,428.58c1.32-4.07,0.02-0.64-2.02-3.5c-1.52-1.74-0.14-1.69,1.74-2.4
		c1.33,4.94,1.11-0.4,2.18-1.33c3.1-2.72,2.28,1.74,1.42,6.05C449.14,428.1,448.13,428.43,446.75,428.58z M448.82,442.64
		c0.83,0.31,0.69,0.85,0.69,3.32C442.39,449.73,444.08,448.04,448.82,442.64z M444.03,449.99c5.81-3.12,5.07-2.66,5.39-1.55
		c-0.52,0.09-0.62,0.35-0.67,0.69c-1.56,0-3.22,2.87-5.17,3.21C442.99,451.39,443.04,450.52,444.03,449.99z M444.39,460.65
		c1.2-2.81,3.81-4.44,5.94-6.92c-2.67,0.83-1.71,0.37-6.77,4.49c-1.1-2.27-1.72-1.3,3.51-4.33c-0.54-1.36-4.6,2.95,1.71-4.65
		c1.34-0.13,0.6-3.96,4.52,11.96c-0.64,0.89-8.74,3.51-0.04,1.99c0.82,0.39,1.31,1.25,0.8,2.02
		C452.62,467.37,450.6,476.88,444.39,460.65z M455.21,467.57c1.49,2.54,2.46,2.11-2.92,6.05
		C449.6,472.5,452.87,469.33,455.21,467.57z M453.06,477.12c0.07-0.76,0.14-1.53,0.24-2.57c5.01-4.47,2.46-2.95,6.76,0.56
		C454.56,479,455.07,479.16,453.06,477.12z M458.45,478.63c-1.24,1.24,1.19-1.2,2.34-2.37C461.78,478.19,459.61,478.9,458.45,478.63
		z M459.03,481.32c0.07-0.27,0.06-0.58,0.17-0.63c3.73-1.69,4.85-2.44,5.3-1C459.69,482.39,460.69,482.17,459.03,481.32z
		 M462.91,483.23c1.71-1.24,2.97-1.08,4.43-0.97C466.88,485.09,467.57,484.13,462.91,483.23z M475.67,484.12
		c-5.47,0.95-2.41-1.27-2.83-1.27c-0.01-0.01-0.03-0.03-0.04-0.04c-4.75,1.58-2.64-0.55-1.11-0.55c1.49,0-0.86,0.58,4.71,0.58
		C476.57,483.54,476.44,483.99,475.67,484.12z M499.82,463.16c-1.22,9.67,2.89,10.13-0.44,10.72c-3.43,0.61-7.63,1.14-8.44,1.59
		c-2.74,1.53,6.5,2.15-7.88,4.59c-7.9,1.34-7.49,0.74-13.91-0.39c-1.65-2.13-9.6-7.63-10.09-9c-3-8.33-0.7-6.66-1.88-9.7
		c-1.62-0.4,5.83,1.49,10.44,0.09c0.93-0.28,3.49-0.46,3.6-0.46c-18.51-1.56-14.18-0.05-16.2-6.11c-1.91-5.74-1.57-4.47,0.8-6.92
		c1.61-1.66,5.44-6.58,3.25-5.18c-0.1,0.06-5.12,4.05-5.9,4.7c-1.05-4.29,0.31-24.51,1.07-28.86c2.46-14.08,15.67-8.25,31.43-26.35
		c6.79-7.8,2.01-2.68,21.21-26.97c6.86-8.68-7.56,11.98-1.45,33.57c1.52,5.36-0.74,13.12-1.45,14.79c-7.05-0.39-6.97-1.03-0.38,1.98
		c-0.27,3.85-1.24,7.32-1.33,13.45C501.81,458.7,502.24,443.94,499.82,463.16z M635.62,430.42c-2.05,2.28-6.29,2.66-10.09,5.98
		c0.04,2.15,1.37,0.79,8.08-2.7c11.69-6.08,10.27-4.16,11.12-1.91c-0.87,1.08-1.98,1.37-3.07,1.68c-5.86,1.65-11.27,4.42-16.85,6.75
		c-1.49,0.62-1.94,1.79-2.35,3.33c6.58,4.2,15.06,0.44,13.64,3.15c-0.33,0.63-6.31,1.02-7.01,1.01c-7.83-0.05-8.51,2.06-15.05,2.81
		c-10.75,1.24-11.14-0.31-17.48,2.74c-0.93,0.45-1.85,0.65-2.91,0.79c-3.07,0.39-5.94,1.61-8.74,2.93
		c-4.33,2.03-3.95,0.35-6.18,2.59c-5.95,5.98-17.8,10.15-18.53,9.82c-4.58-2.06-8.37,5.5-52.97,10.1c-2.13,0.22-1.91,0.47-3.69-3.92
		c-3.09-7.61,0.75-19.37,0.97-27.5c0.73-26.95-0.88-38.98,14.56-63.85c4.75-7.66-0.85-15.3,0.36-4.16c-6.01,6.22-6.13,7.9-7.07,8.4
		c-0.97,0.52-1.35,1.45-1.73,2.46c-8.2,22.04-1.64-14.28,3.29-27.48c2.49-6.68,3.59-5.19,3.61-6.12c0.06-3.66,8.99-8.6,11.19-11.64
		c2.07-2.85,8.17-5.89,12.52-4.91c2.36,0.53,2.49,0.28,13.28-0.9c15.66,8.43,8.12,1.91,20.98,25.83c8.33,15.5,1.69,29.81-1.35,38.28
		c-1.46,4.07-1.93,0.51-6.38,3.06c-16.62,9.55-8.28,3.54-12.61,16.02c-8.85,25.51-2.52,16.11-20.36,16.61
		c-4.56,0.13-5.76,2.2,4.44,3.24c21.96,2.26,7.81,4.4,28.67,0.77c12.86-2.24,5.34-0.6,17.78-4.16c0-1.92,0.91-2.27,4.35-7.58
		c0-0.1,2.72-5.97,9.11-9.44c3.75-2.03,6.01-4.98,9.48-6.67c2.57-1.25,5.08-2.63,6.84-4.95c4.44,0.04,1.48,4.8-1.36,7.62
		c-1.42,1.4-3.46,3.08-5.03,4.47c0.37,5,7.58,1.09,11.81,0.86c3.56-0.19,4.62-0.82,12.19-3.27c7.85,1.58,6.11,1.77,11.25-0.6
		c0.45,1.81,0.75,2.38,0.11,2.32c-7.06-0.61-9.68,4.01-17.86,7.1c-5.42,2.05-4.97,3.86-3.24,3.71c0.36-0.03,10.17-4.6,14.53-7.63
		c2.02-1.4,4.17-1.67,6.6-1.55c0.38,0.84,0.69,1.67,0.96,2.38C644.41,427.76,636.08,429.91,635.62,430.42z M621.64,402.28
		c1.44,1.34,7.74,13.06,8.68,16.75c-5.85,2.11-11.27,4.15-18.74,4.15C625.9,410.62,616.22,415.3,621.64,402.28z M646.39,424.19
		c-0.64-2.16,1.12-2.82-0.3-5.93c0.89-1.69,2.03-1.24,3.39-0.69C649.34,419.87,647.84,422.13,646.39,424.19z M679.67,388.86
		c-3.53,6.67-1.38,5.35-8.03,6.38c-2.95,7.35-5.24,9.59-6.93,15.05c-1,3.24-5.74-1.94-7.79-3.27c0.41-0.58,0.74-1.02,1.07-1.49
		c-0.56-1.07-5.08,0.14-0.04,5.18c-5.49,3.22-2.81,3.57-11.77-2.37c-0.39,0.58-1.65,1.79-0.17,2.72c4.78,3.01,4.77,2.66,4.55,3.39
		c-0.31,1.02-1.98-0.02-2.59-0.2c-1.27-0.39-0.75-0.54-4.98,3.39c-2.16,2.01-4.26,1.35-7.45,0.7c-3.92-0.81-1.38-3.21-5.69-7.94
		c-3.62-3.97-5.11-8.02-6.55-11.34c-0.41,0.13-2.67,1.51-6.96-0.23c-4.42-1.8-3.5,0.22-16.44,1.66c-4.39,0.49-2.74,1.62-2.08,1.64
		c19.88,0.47,14.15-2.56,20.24,0.12c-0.69,4.33-0.46,7.71-4.02,7.71c1.94-6.1,1.94-6.11,1.15-7.57c-1.91,0.91-0.71,1.77-5.11,8.36
		c-3.96,5.93-12.2,9.21-16.28,12.05c-2.64,1.84-3.03,2.89-5.18,6.64c-1.18,2.05-4.29,1.1-4.11-0.56c0.24-2.17,3.2-9.38,1.51-11.79
		c-0.65,2.01-1.31,4.05-2.2,6.82c-0.98-5.26-1.02-10.13,0.85-15.15c1.51-0.34,0.42,0.27,0.42-2.12c-0.18-1.59,3.96-19.21,2.68-26.15
		c-4.4-23.84-1.49-5.85-9.34-32.49c-1.58-5.36,5.26,3.08,9-0.94c2.08,2.75,17.96,3.86,25.82,7.84c-0.1-0.01,2.99-0.3,5.37,1.11
		c1.39,0.83,5.24,2.3,6.12,1.71c0-2.62,2.02-3.41,4.51-4.46c0.1-0.04,0.69,0.32,0.13,0.36c-0.76,0.06-0.65,0.04-0.65,0.38
		c-0.05,0.43-4.05,3.6-4.05,3.84c-1.27,6.76-3.18,9.18-1.29,11.41c0.45,0.53,0.25,3.51,0.24,3.66c-0.09,4.03-2.83,5.23-6.38,14.35
		c2.85-1.37,4.13-4.62,7.34-10.64c0,8.64-2.58,7.45-1.01,9.92c1.28-0.75,1.77-2.1,2.71-3c1.14-5.07,5.28-6.14,4.56-11.41
		c0-0.35-1.35,0.13-5.3,2.15c-0.45-3.57,0.27-3.91-0.5-6.34c-0.18-0.57-0.15-1.38,0-2.01c1.79-7.43,2.23-8.03,6.07-10.5
		c0,5.07-5.44,1.41-2.73,10.27c0.32,1.03-0.88,4.58,1.89,4.08c1.19-0.21,0.08-0.21,2.82-0.52c0.3-3.22-0.56-2.71-0.56-3.43
		c1.5-1.5,4.58,0.33,4.2-1.39c-2.62-12.07,0.26-3.83-2.21-9.49c0.1,0,1.73-0.97,2.21,0.29c0.5,1.31,0.41,3.37,0.65,5.07
		c0.6,4.35,5.34,1.62-1.77,10.46c-2.39,2.97-5.78,9.36-2.85,7.37c4.27-2.9-2.72-0.87,13.8-7.08c0.08-0.51,0.13-0.74,0.13-0.84
		c0.24,0.41,0.86,0.8,2.84,0.57c5.74-0.68,8.65-1.39,10.85-0.31c1.52,0.74,2.78-1.04,4.46-0.07c1.41,0.82,3.08-0.21,4.72-0.88
		c2.85,0.87,7.5,3.3,7.64,3.46c2.96,3.35,7.48,4.69,8.61,6.23C681.31,387.32,683.82,381.02,679.67,388.86z M686.4,363.95l-0.05-0.1
		C686.89,364.19,686.46,364.09,686.4,363.95z M688.39,375.08c0.1-0.1-0.11-0.4,0.09-0.06C688.67,375.07,688.72,375.05,688.39,375.08
		z M692.87,361.04c-0.29-0.5,1.55-2.43,1.87,3.09C694.11,363.1,693.47,362.08,692.87,361.04z M696.49,367.55
		c0.06,0.07,0.11,0.14,0.17,0.22C696.26,367.73,696.21,367.79,696.49,367.55z"/>
	<path d="M424.09,456.73c0.04,0.05-0.41,0.08,0.07,0.08C424.26,456.71,424.21,456.73,424.09,456.73z"/>
	<path d="M463.3,403.77l-0.11,0.02C463.19,403.89,463.17,403.94,463.3,403.77z"/>
	<path d="M449.83,403.53c-0.19,2.9,2.11,5.51,4.71,5.79c1.31,0.14,1.09,0.18,1.32-2.29c-3.57-4.35-2.51-5.23-1.76-6.73
		C453.2,399.48,450.02,400.76,449.83,403.53z"/>
	<path d="M453.19,98.73c1.07,0.42,2.46,0.05,2.46-0.08c0.7-3.16-2.17-3.14-2.38-7.02c0.76-1.13,0.54-0.69,0.68-1.72
		C447.55,90.61,449.66,97.36,453.19,98.73z"/>
	<path d="M370.7,145.86c2.07,4.46,0.72-7.37,0.88-13.81C368.26,132.59,369.83,143.99,370.7,145.86z"/>
	<path d="M371.48,456.47c0.5-0.83,0.41,1.34,0.08-14.3c-2.04,0.77-1.92,1.38-1.57,11.17c0.03,0.89,0.4,1.76,0.7,2.62
		C370.77,456.2,371.2,456.31,371.48,456.47z"/>
	<path d="M329.7,490.9c4-2.67,8.06-5.17,12.67-6.65c5.12-1.65,6.49-6.86-21.57,10.45C318.12,496.35,321.39,496.45,329.7,490.9z"/>
	<path d="M319.8,495.76c-0.22,0.07-0.21,0.02-0.11,0.12C319.73,495.85,319.76,495.81,319.8,495.76z"/>
	<path d="M385.69,128.08c0.79-0.29,1.23-0.84,1.31-1.67c0.64-6.46,0.73-7.57-0.52-7.96C383.15,117.4,384,128.7,385.69,128.08z"/>
	<path d="M386.93,436.87c0.84-7.8,0.6-7.47-0.17-8.03c-2.86-2.08-3.16,6.11-1.57,9.37C386.38,438.11,386.85,437.55,386.93,436.87z"
		/>
	<path d="M435.13,439.83c6.11,3.3,6.26,0.92,4.62-0.63c-1.17-1.09-2.54-1.48-8.41-3.03c-0.27-0.07-0.63,0.14-1.65,0.39
		C431.9,437.91,433.48,438.93,435.13,439.83z"/>
	<path d="M373.72,476.84c14.13-5.4,21.55-8.47,20.83-8.41c0.16-0.12-0.2-0.02-0.09,0.01c-1.18,0.24-9.42,3.18-25.89,9.45
		C370.83,478.15,372.27,477.39,373.72,476.84z"/>
	<path d="M437.23,127.69c-7-2.2-5.77-1.74-7.64-1.33C445.58,135.95,440.68,128.78,437.23,127.69z"/>
	<path d="M393.02,113.54c-1.6-0.44-1.27,3.51,7.27,11.6C400.74,124.64,393.7,113.72,393.02,113.54z"/>
	<path d="M390.89,159.43c-2.18,0-21.69,8.11-22.01,8.36C371.86,167.57,396.43,158.4,390.89,159.43z"/>
	<path d="M399.38,433.2c-5.49-8.73-5.9-9.44-6.59-9.44C391.37,428.17,402.32,437.87,399.38,433.2z"/>
	<path d="M334.76,472.1c2.3-8.34,3.31-12.58-2.58,1.94C331.93,474.66,333.4,477,334.76,472.1z"/>
	<path d="M618.76,126.44c-0.6,0.12-0.89,0.19-1.05,0.31c-0.61,0.48-0.65,6.21,0.34,7.7C619.72,136.68,619.46,129.11,618.76,126.44z"
		/>
	<path d="M333.74,164.6c0.4-1,4.27-11.29,2.46-9.53c-0.35,0.34-3.97,8.5-4.02,8.7C331.92,164.78,333.3,165.7,333.74,164.6z"/>
	<path d="M336.79,154.64C336.79,154.64,336.79,154.64,336.79,154.64C336.79,154.63,336.79,154.63,336.79,154.64z"/>
	<path d="M336.79,154.63c0,0,0.02-0.01,0.12-0.08c-0.01-0.01-0.02-0.02-0.03-0.02c0.03,0.02,0.02,0,0-0.14
		c-0.01,0.03-0.03,0.06-0.06,0.08c0.01,0.01,0.02,0.02,0.03,0.03C336.82,154.47,336.81,154.49,336.79,154.63z"/>
	<path d="M461.78,93.95c3.04-1.21,1.17-5.3-1.1-5.17C460.43,90.97,459.48,94.86,461.78,93.95z"/>
	<path d="M449.81,184.42c-7.09-0.35-12.57,1.81-10.35,2.94C449.61,184.14,448.25,185.74,449.81,184.42z"/>
	<path d="M439.3,497.76c3.36-1.58,6.64-2.24,10.21-2.96C446.31,494.46,438.27,494.67,439.3,497.76z"/>
	<path d="M460.58,403.67c0.36,0.81,0.27,0.68,2.62,0.11c0.03-2.75,0.3-4.63-2.67-4.63C460.78,400.64,459.92,402.15,460.58,403.67z"
		/>
	<path d="M319.7,185.96c0.81-0.4,7.66-3.68,8.38-4.16c2.5-1.32,4.19-2.97,2.32-2.41c-0.13,0-0.12-0.25-9.86,5.3
		C320.03,184.97,319.51,185.08,319.7,185.96z"/>
	<path d="M328.34,461.67c0-0.18-0.46-0.37-0.87-0.67C325.86,479.16,328.43,468.42,328.34,461.67z"/>
	<path d="M326.54,161.76c2.12-3.37,1.9-10.06,1.76-10.24C327.08,150.22,327.42,151.63,326.54,161.76z"/>
	<path d="M326.53,161.76c-0.02,0.04-0.1,0.23-0.13,0.3C326.52,161.93,326.53,161.96,326.53,161.76z"/>
	<path d="M643.02,163.2c-4.98,16.72,1.83,1.93,0.47,0.57C643.36,163.61,643.2,163.44,643.02,163.2z"/>
	<path d="M643.02,473.66c-1.84,4.52-1.91,4.83-1.76,7.81C642.33,479.57,645.18,473.48,643.02,473.66z"/>
	<path d="M356.46,483.6c6.29,6.42,5.45,5.43,6.14,5.35C357.67,482.33,354.88,481.98,356.46,483.6z"/>
	<path d="M356.22,172.63c0.78,2.34,12.55,11.83,0.66-0.1C356.8,172.45,356.51,172.58,356.22,172.63z"/>
	<path d="M620.78,112.94c-2.6,0.78-4.97,2.32-2.64,3.65C620.77,114.23,621.89,113.64,620.78,112.94z"/>
	<path d="M636.22,505.91c0.55-2.54,0.51-2.72-0.73-4.11C635.01,504.54,635.11,504.48,636.22,505.91z"/>
	<path d="M646.51,277.5c2.25,1.41-0.2-2.28-1.35-2.37c-0.38-0.03-0.83,0.14-1.55,0.43C644.83,276.38,645.66,276.97,646.51,277.5z"/>
	<path d="M636.35,195.88c0.56-1.82,0.06-3.16-0.73-4.88C635.06,194.48,635.06,194.48,636.35,195.88z"/>
	<path d="M647.73,587.7c-1.07-1.24-1.65-2.8-3.73-2.28C645.61,587.35,645.61,587.35,647.73,587.7z"/>
	<path d="M391.87,159.18c1.63,0,3.24-0.66,4.47-1.43C398.49,156.38,393.53,157.82,391.87,159.18z"/>
	<path d="M391.78,159.25c0.11-0.11,0.16-0.06-0.06-0.06C391.71,159.25,391.64,159.29,391.78,159.25z"/>
	<path d="M620.59,144.18c-0.89-0.06-1.21,1.73,0.37,3.07C621.97,146.13,621.25,144.23,620.59,144.18z"/>
	<path d="M620.57,141.13c-0.89-3.38-0.59-2.43-1.13-2.98C618.5,139.35,618.57,139.67,620.57,141.13z"/>
	<path d="M640.34,271.82c0.11-0.4,0.41-1.18,0.52-1.76C641.11,268.66,638.01,270.43,640.34,271.82z"/>
	<path d="M640.15,581.74c1.47-2.32-0.56-2.28-0.56-0.84C639.59,581.16,639.78,581.36,640.15,581.74z"/>
	<path d="M394.64,468.37c1.25,0.08,2.25-0.47,3.14-1.29C396.02,467.03,394.46,468.37,394.64,468.37z"/>
	<path d="M397.79,467.08c0.06,0,0.12,0,0.18,0.01C397.97,466.89,397.89,467.03,397.79,467.08z"/>
	<path d="M640.59,173.72c0.13-3.64-1.65-0.37-0.5,1.73C640.41,174.87,640.57,174.31,640.59,173.72z"/>
	<path d="M640.55,483.51c0.05-2.86-1.57,0.28-0.2,2.17C640.44,484.69,640.54,484.08,640.55,483.51z"/>
	<path d="M644.6,266.09c-0.04-0.04-0.38,0.09-0.43,0.13c-0.19,0.12-0.02,0.54,0.06,0.9C644.84,266.91,645.28,266.97,644.6,266.09z"
		/>
	<path d="M645.12,576.95c-0.17-0.27-0.33-0.6-0.39-0.59c-1.1,0.3-0.53,0.93-0.42,0.92C644.57,577.24,644.83,577.07,645.12,576.95z"
		/>
	<path d="M333.39,177.81c0-0.05,0.01-0.04-0.03-0.04C333.36,177.82,333.29,177.81,333.39,177.81z"/>
	<path d="M331.28,179.14c-0.01,0.02-0.02,0.04-0.03,0.06C331.35,179.2,331.38,179.14,331.28,179.14z"/>
	<path d="M331.35,179.12c0.1,0.1,1.49,0.12,1.98-1.31C332.1,177.7,331.35,178.62,331.35,179.12z"/>
	<path d="M633.72,187.82c0.16,0.23,0.31,0.46,0.47,0.69c0.12-0.16,0.69-0.63,0.01-0.93C634.09,187.54,633.88,187.73,633.72,187.82z"
		/>
	<path d="M623.16,110.31c-0.34,0.52-0.25,1.32,1.45-0.09C624,109.63,623.55,109.82,623.16,110.31z"/>
	<path d="M422.35,457.51c2.95-1.33,0.55-0.71,0.23-0.29C422.49,457.3,422.43,457.42,422.35,457.51z"/>
	<path d="M337.71,462.56c0.14-0.21,0.35-0.47,0.22-0.8C337.35,460.02,337.5,462.98,337.71,462.56z"/>
	<path d="M337.46,462.99c0.03-0.01,0.05-0.03,0.1-0.04C337.56,462.61,337.46,462.87,337.46,462.99z"/>
	<path d="M633.75,497.97c-0.1,0.86,0.72,0.48,0.72,0.38C634.36,496.95,633.76,497.86,633.75,497.97z"/>
	<path d="M409.08,461.53c0.47-0.04,0.96-0.07,1.64-0.13C409.88,460.82,409.38,460.78,409.08,461.53z"/>
	<path d="M408.97,461.55c-0.08,0.08-0.08,0.07-0.08,0.07c-0.69-0.05-1.36-0.03-1.87,0.53c0.72,0,1.35,0.03,1.88-0.52
		c0.11,0,0.15,0.02,0.13,0l0.01,0.01C409.08,461.5,409.14,461.55,408.97,461.55z"/>
	<path d="M342.59,173.65c1.44,0,2.08-0.65,1.23-0.65C343.02,173.01,341.92,173.5,342.59,173.65z"/>
	<path d="M342.28,173.65c0.04-0.08,0.07-0.03-0.04-0.07c0.09-0.45-4.76,1.24-6.79,2.5c-2.59,1.61-2.33,2.05-1.43,1.66
		c5.68-2.52,7.86-3.7,8.19-4.09c-0.01,0.03,0.03,0,0.08,0l-0.04-0.06c0,0,0-0.01,0-0.01L342.28,173.65z"/>
	<path d="M344.34,172.98c-0.07,0.11-0.11,0.05,0.09,0.09C344.4,172.94,344.49,172.93,344.34,172.98z"/>
	<path d="M407.02,462.16c-0.06-0.01-0.12-0.01-0.18-0.01c0.01,0.01,0.01,0.01,0.01,0.02c-0.02-0.01-0.02,0.02-0.07,0.15
		c0.05-0.02,0.1-0.04,0.15-0.06c-0.01-0.01-0.01-0.01-0.02-0.02C406.94,462.25,406.95,462.23,407.02,462.16z"/>
	<path d="M408.44,151.72c0.5-0.08,0.99-0.15,1.49-0.23C409.33,151.21,408.59,150.56,408.44,151.72z"/>
	<path d="M408.44,151.72c-0.03,0.01-0.17,0.06-0.21,0.08C408.44,151.83,408.44,151.83,408.44,151.72z"/>
	<path d="M337.98,151.2c-0.32-0.95-0.25-0.43-0.4,0.63C337.48,152.52,338.24,151.85,337.98,151.2z"/>
	<path d="M337.41,152.26c0,0.23,0.02,0.13,0.09,0.08C337.54,152.15,337.53,152.2,337.41,152.26z"/>
	<path d="M408.22,151.79c-0.7-0.07-1.35,0-1.92,0.45C406.3,152.35,407.18,152.31,408.22,151.79z"/>
	<path d="M406.3,152.24c-0.07,0-0.14,0-0.21-0.01c0.01,0.01,0.01,0.01,0.02,0.02c-0.05-0.01-0.13,0.14-0.65,0.8
		c-0.49,0.25-0.05,0.28,0.73-0.73c-0.01-0.01-0.01-0.01-0.02-0.02C406.21,152.33,406.23,152.32,406.3,152.24z"/>
	<path d="M336.85,153.86c0,1.12,0.56-0.12,0.58-0.9C337.46,151.23,336.85,154.01,336.85,153.86z"/>
	<path d="M422.45,147h-0.02C422.37,147.02,422.44,147,422.45,147z"/>
	<path d="M404.33,153.7c0.29-0.17,0.6-0.34,0.89-0.52C404.85,153.22,404.5,153.27,404.33,153.7z"/>
	<path d="M404.17,153.8C404.07,153.8,404,153.88,404.17,153.8L404.17,153.8z"/>
	<path d="M404.25,153.82l-0.04-0.04c-0.02,0.01-0.02,0.01-0.04,0.02C404.2,153.8,404.23,153.8,404.25,153.82z"/>
	<path d="M404,153.87c-0.41,0.01-0.82,0.06-1.04,0.48C403.74,154,404.1,153.87,404,153.87z"/>
	<path d="M402.96,154.36c-0.06,0.03-0.1,0.05-0.15,0.07C399.74,155.89,402.77,154.73,402.96,154.36z"/>
	<path d="M400.61,155.69c0.35-0.04,0.59-0.21,0.71-0.41C400.04,155.87,400.25,155.73,400.61,155.69z"/>
	<path d="M400.07,155.83c0.08-0.03,0.16-0.07,0.25-0.11C399.89,155.72,399.88,155.88,400.07,155.83z"/>
	<path d="M401.3,155.26c0.06-0.02,0.12-0.05,0.17-0.08C401.36,155.05,401.43,155.05,401.3,155.26z"/>
	<path d="M399.94,155.85C397.64,156.1,399.58,156.99,399.94,155.85L399.94,155.85z"/>
	<path d="M397.7,157.12c0.11,0,0.66-0.03,0.91-0.57C397.26,156.53,397.09,157.17,397.7,157.12z"/>
	<path d="M398.73,156.56c0.04-0.15,0.1-0.09-0.07-0.09C398.63,156.55,398.56,156.56,398.73,156.56z"/>
	<path d="M397.32,157.13c-0.08,0-0.07-0.03-0.26,0.12C397.35,157.22,397.28,157.25,397.32,157.13z"/>
	<path d="M345.31,172.13c-0.3,0.04-0.38,0.02-0.35,0.06l-0.02-0.02c0.04,0.18-0.05,0.14,0.1,0.09
		C345.15,172.21,345.25,172.16,345.31,172.13z"/>
	<path d="M641.08,116.23c-0.08-0.18-0.17-0.37-0.25-0.57c-0.07,0.08-0.21,0.17-0.2,0.23C640.77,116.67,640.91,116.4,641.08,116.23z"
		/>
	<path d="M406.36,462.73c0.2-0.06,1.12-0.76-0.59,0.05C405.94,462.78,406.13,462.8,406.36,462.73z"/>
	<path d="M337.39,463.53c0.18-0.95-0.45-0.58-0.55,0.69C337.03,464.22,337.31,463.93,337.39,463.53z"/>
	<path d="M336.73,464.48c0.14-0.18,0.08-0.15,0.11-0.26C336.76,464.24,336.73,464.22,336.73,464.48z"/>
	<path d="M404.83,463.72c0.1,0,0.07,0-0.03-0.1C404.48,463.77,404.52,463.8,404.83,463.72z"/>
	<path d="M403.64,464.22c0.3-0.15,0.6-0.3,0.9-0.46C404.17,463.77,403.81,463.8,403.64,464.22z"/>
	<path d="M402.11,464.99c-0.28,0.14-0.39,0.13,0.08,0.08C402.25,464.88,402.37,464.85,402.11,464.99z"/>
	<path d="M402.27,464.9c0.33-0.17,0.67-0.33,0.99-0.5C402.87,464.44,402.49,464.51,402.27,464.9z"/>
	<path d="M403.27,464.4c0.1,0,0.2-0.01,0.3-0.02c0.03-0.18,0.16-0.21-0.08-0.09l0.02,0.03C403.48,464.28,403.45,464.3,403.27,464.4z
		"/>
	<path d="M401.87,465.09c-0.45,0.02-0.51,0.09-0.57,0.09C401.17,465.22,400.18,465.85,401.87,465.09z"/>
	<path d="M400.69,465.62c-0.04,0.14-0.13,0.09,0.09,0.09C400.86,465.52,400.96,465.49,400.69,465.62z"/>
	<path d="M400.64,465.71c-0.46,0.05-0.94,0.1-1.17,0.6C399.72,466.25,400.36,466.33,400.64,465.71z"/>
	<path d="M399.41,466.42c0.02-0.1,0.12-0.14-0.08-0.09C399.3,466.44,399.24,466.42,399.41,466.42z"/>
	<path d="M398,466.99c0.06,0,0.05,0,0.05,0C400.43,466.99,398.51,465.64,398,466.99z"/>
	<path d="M362.69,178.77c-0.51-0.27-0.45-0.28-0.45-0.02C362.23,179.08,362.58,178.82,362.69,178.77z"/>
	<path d="M362.26,178.43c-0.22,0,0.02-0.01-0.06,0.06C362.3,178.54,362.24,178.54,362.26,178.43z"/>
	<path d="M405.76,462.78c-0.39,0-0.24-0.14-0.96,0.84C405.06,463.89,404.98,463.23,405.76,462.78z"/>
	<path d="M344.94,172.31c-0.5,0.19-0.6,0.64-0.5,0.64C344.97,172.78,345.05,172.31,344.94,172.31z"/>
	<path d="M319.49,496c0.23-0.13,0.22-0.08,0.12-0.18L319.49,496z"/>
	<path d="M448.12,122.88l0.06,0.08C448.21,122.72,448.23,122.74,448.12,122.88z"/>
	<path d="M704,72.26c-0.22-0.17-0.35-0.28-0.24-0.06C703.76,72.28,703.92,72.25,704,72.26z"/>
	<path d="M400.07,435.13c0.02,0.03,0.05,0.04,0.11,0.03C400.98,435.16,399.45,434.51,400.07,435.13z"/>
	<path d="M400.06,434.69c-0.13-0.1-0.15-0.14-0.07,0.06C400.07,434.8,400.06,434.84,400.06,434.69z"/>
	<path d="M585.64,97.96c-0.03,0.03-0.12,0.07-0.09,0.09C585.63,98.16,585.64,98.28,585.64,97.96z"/>
	<path d="M613.74,81.66l0.01,0.01C613.75,81.44,613.48,81.73,613.74,81.66z"/>
	<path d="M585.56,408.6c-0.16,0.04-0.1,0.01-0.1,0.08C585.58,408.74,585.56,408.79,585.56,408.6z"/>
	<path d="M617.09,387.31c-0.01-0.01,0.01,0.02,0.01,0.08c0.02-0.01,0.03-0.02,0.05-0.02C617.12,387.34,617.1,387.32,617.09,387.31
		C617.22,387.42,617.25,387.19,617.09,387.31z"/>
	<path d="M235.19,513c-0.07,0.02-0.14,0.04-0.08,0.07C235.21,513.17,235.14,513.18,235.19,513z"/>
	<path d="M446.75,438.91c0.04,0,0.03,0,0.02-0.01C446.73,438.86,446.71,438.82,446.75,438.91z"/>
	<path d="M446.71,438.83l-0.01,0.01C446.74,438.87,446.74,438.86,446.71,438.83z"/>
	<path d="M525.89,141.31c3.17,3.47,4.31,3.85,2.08-0.31c-3.23-3.22-8.75-22.32-7-26.52c-0.61-0.76-1.16-1.47-1.9-2.38
		c-5.03,18.67,6.11,24.8,6.11,25.98C525.07,139.02,525.1,140.78,525.89,141.31z"/>
	<path d="M529.15,144.12l0.16,0.18c-0.06-0.19-0.07-0.25-0.09-0.24l0.01-0.01C529.08,143.99,529.18,143.96,529.15,144.12z"/>
	<path d="M533.2,100.34c-3.02-7.31-4.18-9.51-4.7-12.73c-2.31-14.37-0.56-14.76-2.52-13.08C524.73,75.78,523.23,91.43,533.2,100.34z
		"/>
	<path d="M530.52,191.13c-1.44-1.44-1.45-2.91-2.87-10.09c-0.61-3.11-3.26-2.73-3.27,0.43c-0.02,5.07,1.33,4,6.12,16.8
		C531.91,195.51,531.25,191.86,530.52,191.13z"/>
	<path d="M567.58,77.96c1.57,7.21,0.44,7.56,0.72,8.11c0.3,0.41,0.95-0.05,1.06-0.18C574.45,80.06,566.09,71.12,567.58,77.96z"/>
	<path d="M566.92,65.39c-0.29-6.14-5.02-1.63,0.08,7.1C570.08,77.76,567.15,70.27,566.92,65.39z"/>
	<path d="M521.24,197.36c-2.44,3.19-0.82,10.14-0.1,14.06C521.84,207.5,521.44,202.02,521.24,197.36z"/>
	<path d="M537.31,108.65c0-0.1-3.83-5.78-4.88-6.04C530.32,105.97,537.22,109.84,537.31,108.65z"/>
	<path d="M522.87,220.85c-0.1-2.42-0.09-4.51-1.44-6.59c-0.32,0.39-0.72,0.66-0.72,0.91c0,2.64,0.18,5.02,1.35,7.18
		C522.41,221.75,522.89,221.29,522.87,220.85z"/>
	<path d="M561.26,61.59c2.3-1.54-1.29-3.6-4.45-4.07C558.6,59.1,559.36,61,561.26,61.59z"/>
	<path d="M524.87,59.1c-0.3-3.11-0.33-2.8-1.82,1.59C521.73,64.61,525.22,62.65,524.87,59.1z"/>
	<path d="M541.76,121.34c-0.63,2.87,1.01,4.52,2.2,6.31C543.94,125.43,543.68,123.3,541.76,121.34z"/>
	<path d="M540.2,275.76c-2.08-0.26-3.94-0.11-5.58,1.23C537.68,277.22,538.37,277.06,540.2,275.76z"/>
	<path d="M521.93,225.5c-0.47,1.81,0.25,2.96,1.44,4.23C523.48,228,523.5,226.6,521.93,225.5z"/>
	<path d="M545.17,139.68c0.58-1.18,0.69-2.32-0.01-3.9C543.9,137.89,543.93,138.44,545.17,139.68z"/>
	<path d="M527.82,175.55c1.03-0.97,2.03-1.93,2.66-3.22C529.03,172.26,526.27,173.41,527.82,175.55z"/>
	<path d="M525.62,49.55c0.23,0,1.47-0.9,1.01-3.3C525.34,47.98,524.26,50.55,525.62,49.55z"/>
	<path d="M525.01,49.94l0.01,0.01c-0.03-0.02-0.03,0.02-0.05,0.24c0.03-0.06,0.07-0.12,0.11-0.19
		C525.08,49.85,525.1,49.92,525.01,49.94z"/>
	<path d="M542.53,166.64c-0.47,2.75,1.28,3.94,1.28,1.42C543.49,166.13,542.53,166.54,542.53,166.64z"/>
	<path d="M530.92,208.86c0.88-1.62,0.88-1.62,0.37-2.66C530.38,207.28,530.46,207.35,530.92,208.86z"/>
	<path d="M520.85,194.55c0.17-1.57,0.21-3.17-0.21-4.7C519.95,191.9,519.95,191.91,520.85,194.55z"/>
	<path d="M530.27,202.69c-0.41,0.94-0.33,1.6,0.52,2.05C531.14,203.93,531.34,203.2,530.27,202.69z"/>
	<path d="M536.27,35c-0.8,0.78-1.51,1.47-2.34,2.29C536.03,37.35,536.6,36.8,536.27,35z"/>
	<path d="M531.78,40.12c-1.42,1.05-1.42,1.05-1.72,2.29C531.04,41.9,531.73,41.4,531.78,40.12z"/>
	<path d="M531.23,146.84c0.56,0.45,0.38,0.38,0.86,0.16C530.87,144.58,530.37,146.15,531.23,146.84z"/>
	<path d="M544.76,116.55c-0.47-1.12-1.13-1.38-2.15-1C543.06,116.5,543.66,116.88,544.76,116.55z"/>
	<path d="M525.81,237.09c-0.37-0.92-0.64-1.57-1-2.48C524.34,236.22,524.34,236.22,525.81,237.09z"/>
	<path d="M516.28,228.43c0.03,1.97,1.47,0.63,0.35-1.23C516.45,227.84,516.28,228.13,516.28,228.43z"/>
	<path d="M534.82,151.4c-0.09,1.22,0.65,1.65,1.87,2.18C535.86,151.91,535.68,151.88,534.82,151.4z"/>
	<path d="M527.75,243.83c-0.37-0.76-0.65-1.3-1.01-2.06C526.52,243.18,526.52,243.18,527.75,243.83z"/>
	<path d="M540.07,112.88c-0.44-0.89-0.92-1.39-1.83-0.8C538.65,113.08,539.2,113.27,540.07,112.88z"/>
	<path d="M531.83,278.52l0.27-0.04v-0.01C531.78,278.36,531.85,278.33,531.83,278.52z"/>
	<path d="M530.84,171.99c-0.21,0.28-0.22,0.29-0.05,0.2C530.83,172.17,530.83,172.06,530.84,171.99z"/>
	<path d="M530.58,172.35c0.03-0.04,0.05-0.08,0.08-0.11c-0.09,0.02-0.13,0.02-0.15,0.03l-0.01-0.01c-0.02,0.06-0.08,0.07,0.05,0.07
		C530.57,172.34,530.57,172.34,530.58,172.35z"/>
	<path d="M657.32,81.09c0,0.58,0.7,1.32,1.16,1.55c8.11,4.07,2.15,0.73,9.73,2.48c1.59-0.17,1.91-0.84,1.79-1.32
		c-0.48-1.9-1.31-0.13-6.84-4.03c-1.04-0.74-3.68-0.77-5.13-3.08c-0.39-0.62-2.17-0.62-1.82,0.61
		C656.57,78.54,657.73,79.5,657.32,81.09z"/>
	<path d="M598.47,71.13c1.64-0.53,7.92-8.62,4.47-6.97C602.59,64.32,594.71,72.34,598.47,71.13z"/>
	<path d="M604.13,63.82c0.01-0.09,0.02-0.18,0.04-0.27c-0.09,0.15-0.12,0.18-0.11,0.21l-0.01-0.01
		C604.02,63.86,603.98,63.87,604.13,63.82z"/>
	<path d="M595.78,102.22c0.52-0.24,0.41-0.16-0.07-0.08C595.64,102.21,595.59,102.18,595.78,102.22z"/>
	<path d="M591.37,103.99c3.13-0.63,3.19-1.08,4.25-1.79C589.17,101.01,586.36,105,591.37,103.99z"/>
	<path d="M599.68,92.72c-1.03,0.85-1.97,1.81-3.34,3.13c3.01,0.16,3.77-0.38,4.78-2.86C601.25,92.73,599.91,92.53,599.68,92.72z"/>
	<path d="M586.31,103.34c2.45-1.06,0.57-3.26-0.69-5.18C585.57,99.73,585.31,102.34,586.31,103.34z"/>
	<path d="M611.77,81.79c-0.05,0-0.42,0.07-0.7,0.17c-1.87,0.68-1.16,3.12-1.13,3.38C611.8,82.72,615.86,81.17,611.77,81.79z"/>
	<path d="M608.73,85.26c-1.42,0.35-2.55,0.09-3.34,1.22C606.79,87.25,606.79,87.25,608.73,85.26z"/>
	<path d="M577.03,131.3c-1.01,0.83,1.35,2.07,2.17,0.14C578.48,130.79,577.8,130.67,577.03,131.3z"/>
	<path d="M613.75,52.8c-1.54,0.29-1.7,1.27-1.15,1.98C613.6,54.25,613.62,54.3,613.75,52.8z"/>
	<path d="M560.59,119.65c-0.14-0.03-0.44,0.27-0.44,0.34c-0.1,0.1,0.27,0.75,0.42,0.79C561.73,121.09,563.1,120.24,560.59,119.65z"
		/>
	<path d="M562.08,120.08c0.12,0.04,0.07,0.06,0.15-0.06C562.12,120.05,562.08,120.02,562.08,120.08z"/>
	<path d="M602.23,100.11c-1.34-0.21-0.4,1.8,1.2,0.31C603.08,100.57,602.64,100.17,602.23,100.11z"/>
	<path d="M609.34,57.99c-0.13-0.42-0.13-1.08-0.97-0.11c-0.09,0.1,0.01,0.37,0.02,0.57C608.71,58.28,609.04,58.13,609.34,57.99z"/>
	<path d="M562.56,119.69c-0.34,0.18-0.5,0.53,0.44,0.15C562.84,119.79,562.65,119.64,562.56,119.69z"/>
	<path d="M574.11,133.46c0.13,0.09,0.26,0.25,0.4,0.26C575.05,133.79,574.73,132.92,574.11,133.46z"/>
	<path d="M491.83,101.23c1.41,0.87,2.88,1.58,4.5,1.6C498.21,102.84,498.39,99.62,491.83,101.23z"/>
	<path d="M485.73,99.82c1.16,0.34,2.04,0.27,3.07-0.37c-1.25-1.21-1.8-1.61-2.98-0.33C485.19,99.78,485.23,99.67,485.73,99.82z"/>
	<path d="M463.22,127.63c0.63-1.01,1.28-1.58,1.31-2.29C464.6,123.77,462.47,125.09,463.22,127.63z"/>
	<path d="M475.12,147.94c0.49,0.86-0.04,0.89,2.61-0.69C477.22,146.87,477.64,146.78,475.12,147.94z"/>
	<path d="M465.66,123.02c0.95-0.2,1.16-0.86,1.13-2.01C465.7,121.45,465.21,121.94,465.66,123.02z"/>
	<path d="M484.48,146.33c-1.14,0.06-1.72,0.09-2.52,0.14C482.65,147.49,483.21,147.66,484.48,146.33z"/>
	<path d="M480.74,97.84c0.65-0.27,0.5-0.26,0.06-0.76c-0.08,0.17-0.18,0.33-0.22,0.51C480.56,97.65,480.72,97.85,480.74,97.84z"/>
	<path d="M306.2,175.88c-4.61,0-5.02,1.82-11.76,1.56c-1.21-0.05-5.48-0.07-5.54,1.16C296.54,179.02,301.79,180.66,306.2,175.88z"/>
	<path d="M286.57,179.9c0.84,0,1.23-0.42,1.63-0.72C290.95,176.42,270.65,179.98,286.57,179.9z"/>
	<path d="M288.8,178.58c-0.03,0.03-0.08,0.05,0.07,0.09C288.87,178.57,288.92,178.58,288.8,178.58z"/>
	<path d="M265.64,180.92c-1.32-1.04-1.32-1.04-3.23,0.03C263.58,181.27,264.56,181.42,265.64,180.92z"/>
	<path d="M271.82,179.45c-1.15-0.33-1.59-0.46-1.96-0.17C268.06,180.68,270.7,180.83,271.82,179.45z"/>
	<path d="M241.22,186.91c0.32-0.02,0.78-0.22,1.67-0.64C240.53,185.29,239.85,187,241.22,186.91z"/>
	<path d="M308.6,162.09c1.57,1.57,2.49-2.12-0.29-0.48C308.4,161.93,308.28,161.82,308.6,162.09z"/>
	<path d="M313.48,161.88c1.54-0.38,1.24-0.32,0.89-1.17c-1.39,0.85-1.04,0.58-1.15,0.96C313.31,161.74,313.41,161.89,313.48,161.88z
		"/>
	<path d="M276.8,179.21c-0.92-0.39-0.42-0.51-1.81,0.5C276.95,179.71,276.39,179.82,276.8,179.21z"/>
	<path d="M245.96,185.21c-0.52,0.26-0.55,0.11-0.22,0.76C246.52,185.54,246.51,185.73,245.96,185.21z"/>
	<path d="M525.93,461.67c1.28,0,2.54-0.28,3.74-0.69C518.87,455.97,520.11,461.67,525.93,461.67z"/>
	<path d="M571.96,373.98c1.76,1.32,2.09-3.34,0.09-5.73C569.33,365.01,571,373.26,571.96,373.98z"/>
	<path d="M516.81,457.12c5.19,1.51,5.48,0.66,7.29-0.45C515.88,453.77,515.97,456.88,516.81,457.12z"/>
	<path d="M527.13,378.89c1.27-1.59,2.7-6.08,1.31-7.34C526.5,373.73,525.58,378.22,527.13,378.89z"/>
	<path d="M546.95,406.7c0.32,2.81,0.5,5.17,1.9,7.38C550.65,412.98,549.51,407.22,546.95,406.7z"/>
	<path d="M509.65,411.82c-1.03,1.96-1.2,4.06-0.3,6.17C511.13,421.38,511.07,409.12,509.65,411.82z"/>
	<path d="M586.16,452.76c-5.61,2.05-1,3.56,3.99-0.46C588.56,451.34,587.21,452.38,586.16,452.76z"/>
	<path d="M509.15,470.13c0,0.76,1.13,2.54,3.11,3.14c0.32,0.1,0.63-0.16,1.32-0.33C511.88,470.79,509.15,467.67,509.15,470.13z"/>
	<path d="M561.51,354.44c-1.31-1.51-3.41-2.26-5.29-0.37C558.08,355.08,559.63,355.12,561.51,354.44z"/>
	<path d="M610.41,435.36c2.61,0.07,4.36,0.37,5.81-2.04c-0.15-0.08-0.42-0.33-0.53-0.27C615.59,433.1,609.35,435.33,610.41,435.36z"
		/>
	<path d="M610.2,435.35c-0.11,0.19-0.15,0.16,0.09,0.08l0,0c0.02,0,0.04-0.02,0.09-0.06C610.32,435.36,610.26,435.36,610.2,435.35z"
		/>
	<path d="M577.16,455.64c-0.05,0-0.11,0.35-0.17,0.54c2.58,0.04,2.6,0.05,4.1-1.89C580.17,453.36,578.5,455.71,577.16,455.64z"/>
	<path d="M611.2,441.23c2.35,0.66,2.73,0.81,4.34-0.21C617.05,440.06,612.58,440.88,611.2,441.23z"/>
	<path d="M528.61,441.21c-1.63-0.27-2.66-0.16-3.55,0.71C526.29,443.01,526.55,442.98,528.61,441.21z"/>
	<path d="M554.98,354.29c-1.25-2.19-3.41,0.48-2.45,1.21C553.06,355.9,552.93,355.84,554.98,354.29z"/>
	<path d="M535.34,461.11c-0.1-0.05-2.05-0.86-2.05-0.96C529.98,458.75,532.38,462.57,535.34,461.11z"/>
	<path d="M543.03,401.75c-0.54,0.62-0.71,0.46,0.54,2.3C544.88,404.71,543.9,400.75,543.03,401.75z"/>
	<path d="M527.5,383.55c-1.36,1.09-1.28,1.95,0.05,2.88C527.86,385.81,528.07,384.48,527.5,383.55z"/>
	<path d="M604.78,426.73c0.23-0.04,0.44-0.07,0.65-0.11C609.5,425.82,608.91,422.63,604.78,426.73z"/>
	<path d="M570.99,399.82c-0.36,0.61-0.43,1.32-0.41,2.03C573.5,399.58,572.42,397.4,570.99,399.82z"/>
	<path d="M527.56,391.99c0.89-1.37,0.89-1.37-0.08-2.27C526.57,391.03,526.57,391.03,527.56,391.99z"/>
	<path d="M568.11,364.7c0.32-0.84,0.07-1.45-0.89-1.81C566.57,364.12,566.61,364.23,568.11,364.7z"/>
	<path d="M513.72,427.02c0.51-0.91,0.47-1.75-0.52-2.74C512.53,425.57,512.45,426.45,513.72,427.02z"/>
	<path d="M525.72,455.83c2.14,0,2.3,0.18,1.4-0.75C526.65,454.58,526.34,454.83,525.72,455.83z"/>
	<path d="M512.38,421.56c0.12-2.46-1.05-1.82-1.05-0.9C511.36,421.15,511.61,421.52,512.38,421.56z"/>
	<path d="M546.48,460.2c-0.24,0-0.5,0.28-0.74,0.43C547.19,462.37,548.57,460.05,546.48,460.2z"/>
	<path d="M537.96,461.43c1.27,0.24,2.32,0.51,3.43-0.24C539.48,460.47,539.52,460.42,537.96,461.43z"/>
	<path d="M530.7,452.8c-0.68-0.15-1.19-0.04-1.39,0.64c-0.09,0.3-0.33,0.51,1.45,0.32C531.05,453.76,531.2,452.91,530.7,452.8z"/>
	<path d="M520.55,369.04c-0.62-0.41-1.55,1.17-0.01,1.38C520.95,369.96,521.09,369.45,520.55,369.04z"/>
	<path d="M608.5,442.8c1.25,0,1.2,0.08,1.16-0.26C608.28,442.54,608.5,442.45,608.5,442.8z"/>
	<path d="M605.47,443.05c-0.31,0.01-0.57,0.74,0.85,0.33c0.02-0.01,0-0.13,0-0.3C606.05,443.08,605.76,443.05,605.47,443.05z"/>
	<path d="M605.01,437.24c-0.03,0.09-0.06,0.17-0.1,0.26C605.45,437.55,605.31,437.28,605.01,437.24z"/>
	<path d="M524.24,443.3c-0.07-0.09-0.14-0.25-0.2-0.25c-0.79,0.04-0.52,0.23-0.33,0.54C523.88,443.49,524.05,443.4,524.24,443.3z"/>
	<path d="M610.1,435.5c-0.03,0.01-0.07,0.02-0.1,0.04C609.93,435.59,609.85,435.85,610.1,435.5z"/>
	<path d="M669.15,392.9c-3.4-0.63-5.91-3.35-8.23-3.89c-2.85-0.67-1.8-3.06-4.69-2.29c0.09,2.14,1.39,2.44,1.13,3.87
		c-0.38,2.14,5.05,4.59,5.93,4.28c2-0.7,4.65,0.71,5.68,0.43C670.65,394.85,670.09,393.07,669.15,392.9z"/>
	<path d="M603.13,374.24c-1.3,1.01-7.43,7.31-5.05,7.08C600.55,381.09,606.31,371.78,603.13,374.24z"/>
	<path d="M613.58,391.4c-2.87,0.89-4.12,0.74-3.47,3.36c2.64-1.85,7.56-4.46,6.98-7.37C615.23,388.02,614.21,389.55,613.58,391.4z"
		/>
	<path d="M589.33,413.09c-0.24,0.11-0.38,1.09-0.13,1.29c0.57,0.46,0.37,0.36,7.19-1.85c-0.03-0.14-0.07-0.27-0.1-0.41
		C592.89,412.12,592.13,411.83,589.33,413.09z"/>
	<path d="M601.1,403.65c0.09-0.29-0.3-0.74-0.59-1.35C592.91,408.11,600.17,406.68,601.1,403.65z"/>
	<path d="M585.6,408.75c-0.07-0.07-0.14,3.19,0.26,4.56C588.81,412.62,587.02,409.46,585.6,408.75z"/>
	<path d="M605.3,396.73c0.1,0.06,0.75,0.43,0.85,0.54c0.89,0,1.92-0.5,2.27-1.43C606.93,395.7,606.74,395.63,605.3,396.73z"/>
	<path d="M613.56,364.4c0.62-0.54,0.33-1.45,0.09-1.45C612.13,362.61,611.61,366.09,613.56,364.4z"/>
	<path d="M601.74,411.08c0.61,0.29,1.2,0.4,1.55-0.37c-0.47-0.18-0.94-0.37-1.41-0.51C601.59,410.12,601.2,410.82,601.74,411.08z"/>
	<path d="M603.3,410.67c-0.04,0.04,0,0.05,0.07,0.07C603.48,410.58,603.51,410.6,603.3,410.67z"/>
	<path d="M608.93,368.05c0.13-0.02,0.49-0.05,0.35-0.18C609.05,367.4,609.03,367.74,608.93,368.05z"/>
	<path d="M608.88,368.11c-0.08-0.1-0.09,0.06,0.03,0.03C608.95,368.04,608.81,368.01,608.88,368.11z"/>
	<path d="M608.38,368.24c0.07,0.11,0.15,0.23,0.24,0.34C608.86,368.02,608.94,368.16,608.38,368.24z"/>
	<path d="M496.47,411.04c-1.81,0,0.47-0.66-5.17,0.64c2.81,0.89,5.14,1.98,6.08,0.52C497.63,411.81,497.09,411.16,496.47,411.04z"/>
	<path d="M485.02,409.97c3.29,0.14,2.23,0.2,3.77-0.31C487.16,408.15,486.62,408.28,485.02,409.97z"/>
	<path d="M464.1,434.76c-1.02,1.21-2.15,2.69-0.3,2.39C464.83,434.81,464.82,435.32,464.1,434.76z"/>
	<path d="M466.08,431.63c-0.18,0-0.61,0.5-0.61,0.94C465.5,434.53,468.02,431.2,466.08,431.63z"/>
	<path d="M475.31,458.3c0.11,0.69,0.17,0.5,2.19-0.74C476.73,457.6,475.19,457.5,475.31,458.3z"/>
	<path d="M477.62,457.48c-0.04,0.03-0.08,0.05-0.12,0.08C477.54,457.56,477.58,457.52,477.62,457.48z"/>
	<path d="M477.65,457.47c0.01-0.02,0.02-0.03,0.03-0.05c-0.02,0.02-0.04,0.04-0.06,0.06C477.63,457.48,477.64,457.47,477.65,457.47z
		"/>
	<path d="M477.68,457.42C477.75,457.34,477.79,457.28,477.68,457.42L477.68,457.42z"/>
	<path d="M482.14,457.22c2.18,0.11,1.91,0.27,1.91-0.35C481.8,456.75,482.19,456.58,482.14,457.22z"/>
	<path d="M480.69,407.36c-0.26,0-0.14,0.54,0,0.47C481.71,407.57,480.79,407.47,480.69,407.36z"/>
	<path d="M289.51,487.73c-6.6,0.12,12.82,4.2,16.43-1.43C301.54,484.54,310.13,487.34,289.51,487.73z"/>
	<path d="M287.96,488.29c0.01,0.02,0.01,0.04,0.02,0.07C288.08,488.37,288.12,488.34,287.96,488.29z"/>
	<path d="M279.93,489.33c3.17,1.49,5.74,1.11,8.4,0.12C287.54,486.99,284.35,488.92,279.93,489.33z"/>
	<path d="M268.84,490.32c1.34,0.2,2.33,0.32,3.11-0.96C270.64,488.85,269.81,489.26,268.84,490.32z"/>
	<path d="M240.2,496.9c1.26,0.66,2.01,0.03,3.04-0.91C242.02,496.17,241.01,495.75,240.2,496.9z"/>
	<path d="M308.43,471.91c-0.14,0.31-0.39,0.52,1.43,0.54C311.19,472.46,309.15,470.26,308.43,471.91z"/>
	<path d="M262.74,490.67c1.73,0.8,1.73,0.8,2.85-0.04C264.69,490.18,263.83,490.24,262.74,490.67z"/>
	<path d="M313.76,472.21c2.45-0.97-0.27-2.51-0.6-0.03C313.22,472.18,313.73,472.24,313.76,472.21z"/>
	<path d="M275.45,489.76c0.91,0.29,0.55,0.44,1.58-0.46C275.74,489.05,276.12,488.99,275.45,489.76z"/>
	<path d="M245.75,496.18c0.1,0.07,0.34-0.06,0.53-0.1c-0.07-0.24-0.13-0.5-0.2-0.77C245.95,495.37,245.03,495.61,245.75,496.18z"/>
	<path d="M235.17,513.15c0,0.22,0,0.16,0.23,0.25C235.21,513.19,235.17,513.05,235.17,513.15z"/>
	<path d="M447.44,426.55l-0.02-0.02c-0.03,0.05-0.04,0.05,0.08,0.08c0-0.09,0.01-0.18,0.01-0.27
		C447.43,426.5,447.41,426.52,447.44,426.55z"/>
<path fill="#e6e6e6" d="m206.8 163.6c0-5.1 4.1-9.2 9.3-9.2s9.2 4.2 9.2 9.2-4.1 9.2-9.3 9.2-9.2-4.1-9.2-9.2zm17.3-.1c0-4.5-3.5-8.2-8.2-8.2s-8.2 3.7-8.2 8.3c0 4.5 3.5 8.2 8.2 8.2s8.2-3.7 8.2-8.3zm-13 0c0-2.8 2.1-5.1 5.1-5.1 1.9 0 2.9.6 3.9 1.5l-1.4 1.7c-.8-.7-1.5-1.1-2.5-1.1-1.7 0-2.8 1.4-2.8 3.1s1.1 3 2.8 3c1.1 0 1.7-.5 2.5-1.1l1.4 1.4c-1.1 1.1-2.1 1.7-4 1.7-2.9 0-5-2.3-5-5.1z"/><path fill="#e6e6e6" d="m226.6 154.7h3.4l4.2 13.2 4.4-13.3h2.6l4.4 13.3 4.2-13.2h3.3l-6.2 18h-2.7l-4.4-12.8-4.4 12.8h-2.7z"/><path fill="#e6e6e6" d="m252.8 165.8c0-3.9 3.1-7 7.2-7 4.2 0 7.2 3.2 7.2 7s-3.1 7-7.3 7c-4 0-7.1-3.1-7.1-7zm11.3 0c0-2.3-1.7-4.3-4.2-4.3s-4.1 2-4.1 4.3 1.7 4.3 4.1 4.3c2.7.1 4.2-1.9 4.2-4.3z"/><path fill="#e6e6e6" d="m269.5 159.1h3.1v3c.8-2 2.4-3.4 4.8-3.3v3.2h-.2c-2.7 0-4.6 1.7-4.6 5.4v5.1h-3.1z"/><path fill="#e6e6e6" d="m279.1 153.9h3.1v11.1l5.6-6h3.8l-5.4 5.5 5.5 8h-3.5l-4.1-5.8-1.9 2v3.9h-3.1z"/><path fill="#e6e6e6" d="m291.7 165.8c0-3.9 3.1-7 7.2-7 4.2 0 7.2 3.2 7.2 7s-3.1 7-7.3 7c-4 0-7.1-3.1-7.1-7zm11.3 0c0-2.3-1.7-4.3-4.2-4.3s-4.1 2-4.1 4.3 1.7 4.3 4.1 4.3c2.6.1 4.2-1.9 4.2-4.3z"/><path fill="#e6e6e6" d="m308.2 167.6v-8.6h3.1v7.6c0 2.1 1.1 3.3 2.9 3.3s3-1.3 3-3.3v-7.6h3.1v13.4h-3.1v-2.1c-.8 1.3-2.1 2.3-4.2 2.3-3.1.2-4.8-1.8-4.8-5z"/><path fill="#e6e6e6" d="m323.9 168.8v-7.1h-1.7v-2.6h1.7v-3.7h3.1v3.7h3.6v2.6h-3.6v6.6c0 1.2.6 1.7 1.7 1.7.7 0 1.3-.2 1.9-.5v2.5c-.8.5-1.7.7-2.8.7-2.3 0-3.9-.9-3.9-3.9z"/><path fill="#e6e6e6" d="m333.2 154.7h3.2v15h9.4v2.9h-12.5v-17.9z"/><path fill="#e6e6e6" d="m356 172.5v-1.7c-.9 1.1-2.3 2-4.4 2-2.6 0-4.8-1.4-4.8-4.2 0-3 2.3-4.4 5.4-4.4 1.7 0 2.6.2 3.7.5v-.2c0-1.9-1.2-2.9-3.3-2.9-1.5 0-2.6.3-3.9.8l-.8-2.5c1.5-.7 2.9-1.1 5.1-1.1 4 0 5.9 2.1 5.9 5.7v8zm.1-5.6c-.8-.3-1.9-.5-3.1-.5-2 0-3.1.8-3.1 2.1s1.1 2 2.6 2c2 0 3.5-1.1 3.5-2.9z"/><path fill="#e6e6e6" d="m364.9 170.5v2.1h-3.1v-18.7h3.1v7.4c1-1.4 2.4-2.5 4.5-2.5 3.2 0 6.3 2.5 6.3 7s-3.1 7-6.3 7c-2.1 0-3.5-1.1-4.5-2.3zm7.7-4.7c0-2.6-1.7-4.3-3.9-4.3s-3.9 1.7-3.9 4.4c0 2.6 1.8 4.3 3.9 4.3s3.9-1.7 3.9-4.4z"/><path fill="#e6e6e6" d="m376.9 170.8 1.4-2.1c1.4 1.1 3 1.7 4.4 1.7s2.1-.5 2.1-1.5-1.3-1.4-2.8-1.8c-.1 0-.2-.1-.2-.1-2-.6-4.2-1.4-4.2-4s2.1-4.1 4.8-4.1c1.7 0 3.5.6 5 1.5l-1.2 2.2c-1.3-.8-2.6-1.3-3.8-1.3s-1.9.5-1.9 1.4 1.3 1.4 2.8 1.8c.1 0 .2.1.2.1 2 .6 4.2 1.5 4.2 4 0 2.9-2.2 4.2-5 4.2-1.9 0-4-.7-5.8-2z"/><path fill="#e6e6e6" d="m505.6 163.6c0-5.1 4.1-9.2 9.3-9.2s9.2 4.2 9.2 9.2-4.1 9.2-9.3 9.2-9.2-4.1-9.2-9.2zm17.4-.1c0-4.5-3.5-8.2-8.2-8.2s-8.2 3.7-8.2 8.3c0 4.5 3.5 8.2 8.2 8.2s8.2-3.7 8.2-8.3zm-13.1 0c0-2.8 2.1-5.1 5.1-5.1 1.9 0 2.9.6 3.9 1.5l-1.4 1.7c-.8-.7-1.5-1.1-2.5-1.1-1.7 0-2.8 1.4-2.8 3.1s1.1 3 2.8 3c1.1 0 1.7-.5 2.5-1.1l1.4 1.4c-1.1 1.1-2.1 1.7-4 1.7-2.9 0-5-2.3-5-5.1z"/><path fill="#e6e6e6" d="m525.4 154.7h3.4l4.2 13.2 4.4-13.3h2.6l4.4 13.3 4.2-13.2h3.3l-6.2 18h-2.7l-4.4-12.8-4.4 12.8h-2.7z"/><path fill="#e6e6e6" d="m551.7 165.8c0-3.9 3.1-7 7.2-7 4.2 0 7.2 3.2 7.2 7s-3.1 7-7.3 7c-4.1 0-7.1-3.1-7.1-7zm11.2 0c0-2.3-1.7-4.3-4.2-4.3s-4.1 2-4.1 4.3 1.7 4.3 4.1 4.3c2.7.1 4.2-1.9 4.2-4.3z"/><path fill="#e6e6e6" d="m568.3 159.1h3.1v3c.8-2 2.4-3.4 4.8-3.3v3.2h-.2c-2.7 0-4.6 1.7-4.6 5.4v5.1h-3.1z"/><path fill="#e6e6e6" d="m577.9 153.9h3.1v11.1l5.6-6h3.8l-5.4 5.5 5.5 8h-3.5l-4.1-5.8-1.9 2v3.9h-3.1z"/><path fill="#e6e6e6" d="m590.6 165.8c0-3.9 3.1-7 7.2-7 4.2 0 7.2 3.2 7.2 7s-3.1 7-7.3 7c-4.1 0-7.1-3.1-7.1-7zm11.2 0c0-2.3-1.7-4.3-4.2-4.3s-4.1 2-4.1 4.3 1.7 4.3 4.1 4.3c2.6.1 4.2-1.9 4.2-4.3z"/><path fill="#e6e6e6" d="m607 167.6v-8.6h3.1v7.6c0 2.1 1.1 3.3 2.9 3.3s3-1.3 3-3.3v-7.6h3.1v13.4h-3.1v-2.1c-.8 1.3-2.1 2.3-4.2 2.3-3 .2-4.8-1.8-4.8-5z"/><path fill="#e6e6e6" d="m622.7 168.8v-7.1h-1.7v-2.6h1.7v-3.7h3.1v3.7h3.6v2.6h-3.6v6.6c0 1.2.6 1.7 1.7 1.7.7 0 1.3-.2 1.9-.5v2.5c-.8.5-1.7.7-2.8.7-2.3 0-3.9-.9-3.9-3.9z"/><path fill="#e6e6e6" d="m632 154.7h3.2v15h9.4v2.9h-12.6z"/><path fill="#e6e6e6" d="m654.8 172.5v-1.7c-.9 1.1-2.3 2-4.4 2-2.6 0-4.8-1.4-4.8-4.2 0-3 2.3-4.4 5.4-4.4 1.7 0 2.6.2 3.7.5v-.2c0-1.9-1.2-2.9-3.3-2.9-1.5 0-2.6.3-3.9.8l-.8-2.5c1.5-.7 2.9-1.1 5.1-1.1 4 0 5.9 2.1 5.9 5.7v8zm.1-5.6c-.8-.3-1.9-.5-3.1-.5-2 0-3.1.8-3.1 2.1s1.1 2 2.6 2c2 0 3.5-1.1 3.5-2.9z"/><path fill="#e6e6e6" d="m663.7 170.5v2.1h-3.1v-18.7h3.1v7.4c1-1.4 2.4-2.5 4.5-2.5 3.2 0 6.3 2.5 6.3 7s-3.1 7-6.3 7c-2.1 0-3.5-1.1-4.5-2.3zm7.8-4.7c0-2.6-1.7-4.3-3.9-4.3-2.1 0-3.9 1.7-3.9 4.4 0 2.6 1.8 4.3 3.9 4.3s3.9-1.7 3.9-4.4z"/><path fill="#e6e6e6" d="m675.8 170.8 1.4-2.1c1.4 1.1 3 1.7 4.4 1.7s2.1-.5 2.1-1.5-1.3-1.4-2.8-1.8c-.1 0-.2-.1-.2-.1-2-.6-4.2-1.4-4.2-4s2.1-4.1 4.8-4.1c1.7 0 3.5.6 5 1.5l-1.2 2.2c-1.3-.8-2.6-1.3-3.8-1.3s-1.9.5-1.9 1.4 1.3 1.4 2.8 1.8c.1 0 .2.1.2.1 2 .6 4.2 1.5 4.2 4 0 2.9-2.2 4.2-5 4.2-2 0-4.1-.7-5.8-2z"/><path fill="#e6e6e6" d="m61 298.6c0-5.1 4.1-9.2 9.3-9.2s9.2 4.2 9.2 9.2-4.1 9.2-9.3 9.2c-5.1 0-9.2-4.2-9.2-9.2zm17.4-.1c0-4.5-3.5-8.2-8.2-8.2s-8.2 3.7-8.2 8.3c0 4.5 3.5 8.2 8.2 8.2s8.2-3.7 8.2-8.3zm-13.1-.1c0-2.8 2.1-5.1 5.1-5.1 1.9 0 2.9.6 3.9 1.5l-1.4 1.7c-.8-.7-1.5-1.1-2.5-1.1-1.7 0-2.8 1.4-2.8 3.1s1.1 3 2.8 3c1.1 0 1.7-.5 2.5-1.1l1.4 1.4c-1.1 1.1-2.1 1.7-4 1.7-2.8.1-5-2.2-5-5.1z"/><path fill="#e6e6e6" d="m80.9 289.7h3.4l4.2 13.2 4.4-13.3h2.6l4.4 13.3 4.2-13.2h3.3l-6.2 18h-2.7l-4.4-12.8-4.4 12.8h-2.7z"/><path fill="#e6e6e6" d="m107.1 300.8c0-3.9 3.1-7 7.2-7s7.2 3.2 7.2 7-3.1 7-7.3 7c-4 0-7.1-3.1-7.1-7zm11.3 0c0-2.3-1.7-4.3-4.2-4.3s-4.1 2-4.1 4.3 1.7 4.3 4.1 4.3c2.6.1 4.2-1.9 4.2-4.3z"/><path fill="#e6e6e6" d="m123.7 294h3.1v3c.8-2 2.4-3.4 4.8-3.3v3.2h-.2c-2.7 0-4.6 1.7-4.6 5.4v5.1h-3.1z"/><path fill="#e6e6e6" d="m133.4 288.9h3.1v11.1l5.6-6h3.8l-5.4 5.5 5.5 8h-3.5l-4.1-5.8-1.9 1.9v3.9h-3.1z"/><path fill="#e6e6e6" d="m146 300.8c0-3.9 3.1-7 7.2-7s7.2 3.2 7.2 7-3.1 7-7.3 7c-4.1 0-7.1-3.1-7.1-7zm11.2 0c0-2.3-1.7-4.3-4.2-4.3s-4.1 2-4.1 4.3 1.7 4.3 4.1 4.3c2.6.1 4.2-1.9 4.2-4.3z"/><path fill="#e6e6e6" d="m162.4 302.6v-8.6h3.1v7.6c0 2.1 1.1 3.3 2.9 3.3s3-1.3 3-3.3v-7.6h3.1v13.4h-3.1v-2.1c-.8 1.3-2.1 2.3-4.2 2.3-3 .2-4.8-1.8-4.8-5z"/><path fill="#e6e6e6" d="m178.1 303.8v-7.1h-1.7v-2.7h1.7v-3.7h3.1v3.7h3.6v2.6h-3.6v6.6c0 1.2.6 1.7 1.7 1.7.7 0 1.3-.2 1.9-.5v2.5c-.8.5-1.7.7-2.8.7-2.3.1-3.9-.9-3.9-3.8z"/><path fill="#e6e6e6" d="m187.4 289.7h3.2v15h9.4v2.9h-12.5v-17.9z"/><path fill="#e6e6e6" d="m210.2 307.5v-1.7c-.9 1.1-2.3 2-4.4 2-2.6 0-4.8-1.4-4.8-4.2 0-3 2.3-4.4 5.4-4.4 1.7 0 2.6.2 3.7.5v-.2c0-1.9-1.2-2.9-3.3-2.9-1.5 0-2.6.3-3.9.8l-.8-2.5c1.5-.7 2.9-1.1 5.1-1.1 4 0 5.9 2.1 5.9 5.7v8zm.1-5.6c-.8-.3-1.9-.5-3.1-.5-2 0-3.1.8-3.1 2.1s1.1 2 2.6 2c2 0 3.5-1.1 3.5-2.9z"/><path fill="#e6e6e6" d="m219.2 305.5v2.1h-3.1v-18.7h3.1v7.4c1-1.4 2.4-2.5 4.5-2.5 3.2 0 6.3 2.5 6.3 7s-3.1 7-6.3 7c-2.2 0-3.6-1.1-4.5-2.3zm7.7-4.7c0-2.6-1.7-4.3-3.9-4.3s-3.9 1.7-3.9 4.4c0 2.6 1.8 4.3 3.9 4.3s3.9-1.7 3.9-4.4z"/><path fill="#e6e6e6" d="m231.2 305.8 1.4-2.1c1.4 1.1 3 1.7 4.4 1.7s2.1-.5 2.1-1.5-1.3-1.4-2.8-1.8c-.1 0-.2-.1-.2-.1-2-.6-4.2-1.4-4.2-4s2.1-4.1 4.8-4.1c1.7 0 3.5.6 5 1.5l-1.2 2.2c-1.3-.8-2.6-1.3-3.8-1.3s-1.9.5-1.9 1.4 1.3 1.4 2.8 1.8c.1 0 .2.1.2.1 2 .6 4.2 1.5 4.2 4 0 2.9-2.2 4.2-5 4.2-2 0-4.1-.7-5.8-2z"/><path fill="#e6e6e6" d="m360.6 298.6c0-5.1 4.1-9.2 9.3-9.2s9.2 4.2 9.2 9.2-4.1 9.2-9.3 9.2-9.2-4.2-9.2-9.2zm17.4-.1c0-4.5-3.5-8.2-8.2-8.2s-8.2 3.7-8.2 8.3c0 4.5 3.5 8.2 8.2 8.2s8.2-3.7 8.2-8.3zm-13.1-.1c0-2.8 2.1-5.1 5.1-5.1 1.9 0 2.9.6 3.9 1.5l-1.4 1.7c-.8-.7-1.5-1.1-2.5-1.1-1.7 0-2.8 1.4-2.8 3.1s1.1 3 2.8 3c1.1 0 1.7-.5 2.5-1.1l1.4 1.4c-1.1 1.1-2.1 1.7-4 1.7-2.8.1-5-2.2-5-5.1z"/><path fill="#e6e6e6" d="m380.5 289.7h3.4l4.2 13.2 4.4-13.3h2.6l4.4 13.3 4.2-13.2h3.3l-6.2 18h-2.7l-4.4-12.8-4.4 12.8h-2.7z"/><path fill="#e6e6e6" d="m406.7 300.8c0-3.9 3.1-7 7.2-7 4.2 0 7.2 3.2 7.2 7s-3.1 7-7.3 7c-4.1 0-7.1-3.1-7.1-7zm11.3 0c0-2.3-1.7-4.3-4.2-4.3s-4.1 2-4.1 4.3 1.7 4.3 4.1 4.3c2.7.1 4.2-1.9 4.2-4.3z"/><path fill="#e6e6e6" d="m423.3 294h3.1v3c.8-2 2.4-3.4 4.8-3.3v3.2h-.2c-2.7 0-4.6 1.7-4.6 5.4v5.1h-3.1z"/><path fill="#e6e6e6" d="m433 288.9h3.1v11.1l5.6-6h3.8l-5.4 5.5 5.5 8h-3.5l-4.1-5.8-1.9 2v3.9h-3.1z"/><path fill="#e6e6e6" d="m445.6 300.8c0-3.9 3.1-7 7.2-7 4.2 0 7.2 3.2 7.2 7s-3.1 7-7.3 7c-4.1 0-7.1-3.1-7.1-7zm11.3 0c0-2.3-1.7-4.3-4.2-4.3s-4.1 2-4.1 4.3 1.7 4.3 4.1 4.3c2.6.1 4.2-1.9 4.2-4.3z"/><path fill="#e6e6e6" d="m462.1 302.6v-8.6h3.1v7.6c0 2.1 1.1 3.3 2.9 3.3s3-1.3 3-3.3v-7.6h3.1v13.4h-3.1v-2.1c-.8 1.3-2.1 2.3-4.2 2.3-3.1.2-4.8-1.8-4.8-5z"/><path fill="#e6e6e6" d="m477.8 303.8v-7.1h-1.8v-2.7h1.7v-3.7h3.1v3.7h3.6v2.6h-3.6v6.6c0 1.2.6 1.7 1.7 1.7.7 0 1.3-.2 1.9-.5v2.5c-.8.5-1.7.7-2.8.7-2.2.1-3.8-.9-3.8-3.8z"/><path fill="#e6e6e6" d="m487.1 289.7h3.2v15h9.4v2.9h-12.5v-17.9z"/><path fill="#e6e6e6" d="m509.9 307.5v-1.7c-.9 1.1-2.3 2-4.4 2-2.6 0-4.8-1.4-4.8-4.2 0-3 2.3-4.4 5.4-4.4 1.7 0 2.6.2 3.7.5v-.2c0-1.9-1.2-2.9-3.3-2.9-1.5 0-2.6.3-3.9.8l-.8-2.5c1.5-.7 2.9-1.1 5.1-1.1 4 0 5.9 2.1 5.9 5.7v8zm.1-5.6c-.8-.3-1.9-.5-3.1-.5-2 0-3.1.8-3.1 2.1s1.1 2 2.6 2c2 0 3.5-1.1 3.5-2.9z"/><path fill="#e6e6e6" d="m518.8 305.5v2.1h-3.1v-18.7h3.1v7.4c1-1.4 2.4-2.5 4.5-2.5 3.2 0 6.3 2.5 6.3 7s-3.1 7-6.3 7c-2.2 0-3.5-1.1-4.5-2.3zm7.7-4.7c0-2.6-1.7-4.3-3.9-4.3s-3.9 1.7-3.9 4.4c0 2.6 1.8 4.3 3.9 4.3s3.9-1.7 3.9-4.4z"/><path fill="#e6e6e6" d="m530.8 305.8 1.4-2.1c1.4 1.1 3 1.7 4.4 1.7s2.1-.5 2.1-1.5-1.3-1.4-2.8-1.8c-.1 0-.2-.1-.2-.1-2-.6-4.2-1.4-4.2-4s2.1-4.1 4.8-4.1c1.7 0 3.5.6 5 1.5l-1.2 2.2c-1.3-.8-2.6-1.3-3.8-1.3s-1.9.5-1.9 1.4 1.3 1.4 2.8 1.8c.1 0 .2.1.2.1 2 .6 4.2 1.5 4.2 4 0 2.9-2.2 4.2-5 4.2-1.9 0-4.1-.7-5.8-2z"/><path fill="#e6e6e6" d="m659.5 298.6c0-5.1 4.1-9.2 9.3-9.2s9.2 4.2 9.2 9.2-4.1 9.2-9.3 9.2-9.2-4.2-9.2-9.2zm17.3-.1c0-4.5-3.5-8.2-8.2-8.2s-8.2 3.7-8.2 8.3c0 4.5 3.5 8.2 8.2 8.2 4.8 0 8.2-3.7 8.2-8.3zm-13-.1c0-2.8 2.1-5.1 5.1-5.1 1.9 0 2.9.6 3.9 1.5l-1.4 1.7c-.8-.7-1.5-1.1-2.5-1.1-1.7 0-2.8 1.4-2.8 3.1s1.1 3 2.8 3c1.1 0 1.7-.5 2.5-1.1l1.4 1.4c-1.1 1.1-2.1 1.7-4 1.7-2.9.1-5-2.2-5-5.1z"/><path fill="#e6e6e6" d="m679.3 289.7h3.4l4.2 13.2 4.4-13.3h2.6l4.4 13.3 4.2-13.2h3.3l-6.2 18h-2.6l-4.4-12.8-4.4 12.8h-2.7z"/><path fill="#e6e6e6" d="m705.5 300.8c0-3.9 3.1-7 7.2-7 4.2 0 7.2 3.2 7.2 7s-3.1 7-7.3 7c-4 0-7.1-3.1-7.1-7zm11.3 0c0-2.3-1.7-4.3-4.2-4.3s-4.1 2-4.1 4.3 1.7 4.3 4.1 4.3c2.7.1 4.2-1.9 4.2-4.3z"/><path fill="#e6e6e6" d="m722.1 294h3.1v3c.8-2 2.4-3.4 4.8-3.3v3.2h-.2c-2.7 0-4.6 1.7-4.6 5.4v5.1h-3.1z"/><path fill="#e6e6e6" d="m731.8 288.9h3.1v11.1l5.6-6h3.8l-5.4 5.5 5.5 8h-3.5l-4.1-5.8-1.9 2v3.9h-3.1z"/><path fill="#e6e6e6" d="m744.4 300.8c0-3.9 3.1-7 7.2-7 4.2 0 7.2 3.2 7.2 7s-3.1 7-7.3 7c-4.1 0-7.1-3.1-7.1-7zm11.3 0c0-2.3-1.7-4.3-4.2-4.3s-4.1 2-4.1 4.3 1.7 4.3 4.1 4.3c2.6.1 4.2-1.9 4.2-4.3z"/><path fill="#e6e6e6" d="m760.9 302.6v-8.6h3.1v7.6c0 2.1 1.1 3.3 2.9 3.3s3-1.3 3-3.3v-7.6h3.1v13.4h-3.1v-2.1c-.8 1.3-2.1 2.3-4.2 2.3-3.1.2-4.8-1.8-4.8-5z"/><path fill="#e6e6e6" d="m776.6 303.8v-7.1h-1.7v-2.7h1.7v-3.7h3.1v3.7h3.6v2.6h-3.6v6.6c0 1.2.6 1.7 1.7 1.7.7 0 1.3-.2 1.9-.5v2.5c-.8.5-1.7.7-2.8.7-2.3.1-3.9-.9-3.9-3.8z"/><path fill="#e6e6e6" d="m785.9 289.7h3.2v15h9.4v2.9h-12.5v-17.9z"/><path fill="#e6e6e6" d="m808.7 307.5v-1.7c-.9 1.1-2.3 2-4.4 2-2.6 0-4.8-1.4-4.8-4.2 0-3 2.3-4.4 5.4-4.4 1.7 0 2.6.2 3.7.5v-.2c0-1.9-1.2-2.9-3.3-2.9-1.5 0-2.6.3-3.9.8l-.8-2.5c1.5-.7 2.9-1.1 5.1-1.1 4 0 5.9 2.1 5.9 5.7v8zm.1-5.6c-.8-.3-1.9-.5-3.1-.5-2 0-3.1.8-3.1 2.1s1.1 2 2.6 2c2 0 3.5-1.1 3.5-2.9z"/><path fill="#e6e6e6" d="m817.6 305.5v2.1h-3.1v-18.7h3.1v7.4c1-1.4 2.4-2.5 4.5-2.5 3.2 0 6.3 2.5 6.3 7s-3.1 7-6.3 7c-2.1 0-3.5-1.1-4.5-2.3zm7.7-4.7c0-2.6-1.7-4.3-3.9-4.3-2.1 0-3.9 1.7-3.9 4.4 0 2.6 1.8 4.3 3.9 4.3 2.2 0 3.9-1.7 3.9-4.4z"/><path fill="#e6e6e6" d="m829.6 305.8 1.4-2.1c1.4 1.1 3 1.7 4.4 1.7s2.1-.5 2.1-1.5-1.3-1.4-2.8-1.8c-.1 0-.2-.1-.2-.1-2-.6-4.2-1.4-4.2-4s2.1-4.1 4.8-4.1c1.7 0 3.5.6 5 1.5l-1.2 2.2c-1.3-.8-2.6-1.3-3.8-1.3s-1.9.5-1.9 1.4 1.3 1.4 2.8 1.8c.1 0 .2.1.2.1 2 .6 4.2 1.5 4.2 4 0 2.9-2.2 4.2-5 4.2-1.9 0-4-.7-5.8-2z"/><path fill="#e6e6e6" d="m206.3 434.2c0-5.1 4.1-9.2 9.3-9.2s9.2 4.2 9.2 9.2-4.1 9.2-9.3 9.2-9.2-4.1-9.2-9.2zm17.4-.1c0-4.5-3.5-8.2-8.2-8.2s-8.2 3.7-8.2 8.3c0 4.5 3.5 8.2 8.2 8.2s8.2-3.7 8.2-8.3zm-13.1-.1c0-2.8 2.1-5.1 5.1-5.1 1.9 0 2.9.6 3.9 1.5l-1.4 1.7c-.8-.7-1.5-1.1-2.5-1.1-1.7 0-2.8 1.4-2.8 3.1s1.1 3 2.8 3c1.1 0 1.7-.5 2.5-1.1l1.4 1.4c-1.1 1.1-2.1 1.7-4 1.7-2.9.1-5-2.2-5-5.1z"/><path fill="#e6e6e6" d="m226.1 425.3h3.4l4.2 13.2 4.4-13.3h2.6l4.4 13.3 4.2-13.2h3.3l-6.2 18h-2.7l-4.4-12.8-4.4 12.8h-2.7z"/><path fill="#e6e6e6" d="m252.4 436.4c0-3.9 3.1-7 7.2-7 4.2 0 7.2 3.2 7.2 7s-3.1 7-7.3 7c-4.1 0-7.1-3.1-7.1-7zm11.2 0c0-2.3-1.7-4.3-4.2-4.3s-4.1 2-4.1 4.3 1.7 4.3 4.1 4.3c2.7.1 4.2-1.9 4.2-4.3z"/><path fill="#e6e6e6" d="m269 429.7h3.1v3c.8-2 2.4-3.4 4.8-3.3v3.2h-.2c-2.7 0-4.6 1.7-4.6 5.4v5.1h-3.1z"/><path fill="#e6e6e6" d="m278.6 424.5h3.1v11.1l5.6-6h3.8l-5.4 5.5 5.5 8h-3.5l-4.1-5.8-1.9 2v3.9h-3.1z"/><path fill="#e6e6e6" d="m291.3 436.4c0-3.9 3.1-7 7.2-7 4.2 0 7.2 3.2 7.2 7s-3.1 7-7.3 7c-4.1 0-7.1-3.1-7.1-7zm11.2 0c0-2.3-1.7-4.3-4.2-4.3s-4.1 2-4.1 4.3 1.7 4.3 4.1 4.3c2.6.1 4.2-1.9 4.2-4.3z"/><path fill="#e6e6e6" d="m307.7 438.2v-8.6h3.1v7.6c0 2.1 1.1 3.3 2.9 3.3s3-1.3 3-3.3v-7.6h3.1v13.4h-3.1v-2.1c-.8 1.3-2.1 2.3-4.2 2.3-3 .2-4.8-1.8-4.8-5z"/><path fill="#e6e6e6" d="m323.4 439.4v-7.1h-1.7v-2.6h1.7v-3.7h3.1v3.7h3.6v2.6h-3.6v6.6c0 1.2.6 1.7 1.7 1.7.7 0 1.3-.2 1.9-.5v2.5c-.8.5-1.7.7-2.8.7-2.3 0-3.9-.9-3.9-3.9z"/><path fill="#e6e6e6" d="m332.7 425.3h3.2v15h9.4v2.9h-12.5v-17.9z"/><path fill="#e6e6e6" d="m355.5 443.1v-1.7c-.9 1.1-2.3 2-4.4 2-2.6 0-4.8-1.4-4.8-4.2 0-3 2.3-4.4 5.4-4.4 1.7 0 2.6.2 3.7.5v-.2c0-1.9-1.2-2.9-3.3-2.9-1.5 0-2.6.3-3.9.8l-.8-2.5c1.5-.7 2.9-1.1 5.1-1.1 4 0 5.9 2.1 5.9 5.7v8zm.1-5.6c-.8-.3-1.9-.5-3.1-.5-2 0-3.1.8-3.1 2.1s1.1 2 2.6 2c2 0 3.5-1.1 3.5-2.9z"/><path fill="#e6e6e6" d="m364.4 441.1v2.1h-3.1v-18.7h3.1v7.4c1-1.4 2.4-2.5 4.5-2.5 3.2 0 6.3 2.5 6.3 7s-3.1 7-6.3 7c-2.1 0-3.5-1.1-4.5-2.3zm7.7-4.7c0-2.6-1.7-4.3-3.9-4.3-2.1 0-3.9 1.7-3.9 4.4 0 2.6 1.8 4.3 3.9 4.3 2.2 0 3.9-1.7 3.9-4.4z"/><path fill="#e6e6e6" d="m376.5 441.4 1.4-2.1c1.4 1.1 3 1.7 4.4 1.7s2.1-.5 2.1-1.5-1.3-1.4-2.8-1.8c-.1 0-.2-.1-.2-.1-2-.6-4.2-1.4-4.2-4s2.1-4.1 4.8-4.1c1.7 0 3.5.6 5 1.5l-1.2 2.2c-1.3-.8-2.6-1.3-3.8-1.3s-1.9.5-1.9 1.4 1.3 1.4 2.8 1.8c.1 0 .2.1.2.1 2 .6 4.2 1.5 4.2 4 0 2.9-2.2 4.2-5 4.2-2 0-4.1-.7-5.8-2z"/><path fill="#e6e6e6" d="m505.1 434.2c0-5.1 4.1-9.2 9.3-9.2s9.2 4.2 9.2 9.2-4.1 9.2-9.3 9.2-9.2-4.1-9.2-9.2zm17.4-.1c0-4.5-3.5-8.2-8.2-8.2s-8.2 3.7-8.2 8.3c0 4.5 3.5 8.2 8.2 8.2s8.2-3.7 8.2-8.3zm-13.1-.1c0-2.8 2.1-5.1 5.1-5.1 1.9 0 2.9.6 3.9 1.5l-1.4 1.7c-.8-.7-1.5-1.1-2.5-1.1-1.7 0-2.8 1.4-2.8 3.1s1.1 3 2.8 3c1.1 0 1.7-.5 2.5-1.1l1.4 1.4c-1.1 1.1-2.1 1.7-4 1.7-2.9.1-5-2.2-5-5.1z"/><path fill="#e6e6e6" d="m525 425.3h3.4l4.2 13.2 4.4-13.3h2.6l4.4 13.3 4.2-13.2h3.3l-6.2 18h-2.7l-4.4-12.8-4.4 12.8h-2.7z"/><path fill="#e6e6e6" d="m551.2 436.4c0-3.9 3.1-7 7.2-7 4.2 0 7.2 3.2 7.2 7s-3.1 7-7.3 7c-4.1 0-7.1-3.1-7.1-7zm11.2 0c0-2.3-1.7-4.3-4.2-4.3s-4.1 2-4.1 4.3 1.7 4.3 4.1 4.3c2.7.1 4.2-1.9 4.2-4.3z"/><path fill="#e6e6e6" d="m567.8 429.7h3.1v3c.8-2 2.4-3.4 4.8-3.3v3.2h-.2c-2.7 0-4.6 1.7-4.6 5.4v5.1h-3.1z"/><path fill="#e6e6e6" d="m577.5 424.5h3.1v11.1l5.6-6h3.8l-5.4 5.5 5.5 8h-3.5l-4.1-5.8-1.9 2v3.9h-3.1z"/><path fill="#e6e6e6" d="m590.1 436.4c0-3.9 3.1-7 7.2-7 4.2 0 7.2 3.2 7.2 7s-3.1 7-7.3 7c-4.1 0-7.1-3.1-7.1-7zm11.2 0c0-2.3-1.7-4.3-4.2-4.3s-4.1 2-4.1 4.3 1.7 4.3 4.1 4.3c2.6.1 4.2-1.9 4.2-4.3z"/><path fill="#e6e6e6" d="m606.5 438.2v-8.6h3.1v7.6c0 2.1 1.1 3.3 2.9 3.3s3-1.3 3-3.3v-7.6h3.1v13.4h-3.1v-2.1c-.8 1.3-2.1 2.3-4.2 2.3-3 .2-4.8-1.8-4.8-5z"/><path fill="#e6e6e6" d="m622.2 439.4v-7.1h-1.7v-2.6h1.7v-3.7h3.1v3.7h3.6v2.6h-3.6v6.6c0 1.2.6 1.7 1.7 1.7.7 0 1.3-.2 1.9-.5v2.5c-.8.5-1.7.7-2.8.7-2.3 0-3.9-.9-3.9-3.9z"/><path fill="#e6e6e6" d="m631.5 425.3h3.2v15h9.4v2.9h-12.5v-17.9z"/><path fill="#e6e6e6" d="m654.3 443.1v-1.7c-.9 1.1-2.3 2-4.4 2-2.6 0-4.8-1.4-4.8-4.2 0-3 2.3-4.4 5.4-4.4 1.7 0 2.6.2 3.7.5v-.2c0-1.9-1.2-2.9-3.3-2.9-1.5 0-2.6.3-3.9.8l-.8-2.5c1.5-.7 2.9-1.1 5.1-1.1 4 0 5.9 2.1 5.9 5.7v8zm.1-5.6c-.8-.3-1.9-.5-3.1-.5-2 0-3.1.8-3.1 2.1s1.1 2 2.6 2c2 0 3.5-1.1 3.5-2.9z"/><path fill="#e6e6e6" d="m663.3 441.1v2.1h-3.1v-18.7h3.1v7.4c1-1.4 2.4-2.5 4.5-2.5 3.2 0 6.3 2.5 6.3 7s-3.1 7-6.3 7c-2.2 0-3.6-1.1-4.5-2.3zm7.7-4.7c0-2.6-1.7-4.3-3.9-4.3s-3.9 1.7-3.9 4.4c0 2.6 1.8 4.3 3.9 4.3s3.9-1.7 3.9-4.4z"/><path fill="#e6e6e6" d="m675.3 441.4 1.4-2.1c1.4 1.1 3 1.7 4.4 1.7s2.1-.5 2.1-1.5-1.3-1.4-2.8-1.8c-.1 0-.2-.1-.2-.1-2-.6-4.2-1.4-4.2-4s2.1-4.1 4.8-4.1c1.7 0 3.5.6 5 1.5l-1.2 2.2c-1.3-.8-2.6-1.3-3.8-1.3s-1.9.5-1.9 1.4 1.3 1.4 2.8 1.8c.1 0 .2.1.2.1 2 .6 4.2 1.5 4.2 4 0 2.9-2.2 4.2-5 4.2-2 0-4.1-.7-5.8-2z"/></g>
</svg>
