<?xml version="1.0" encoding="utf-8"?>
<!-- Generator: Adobe Illustrator 23.0.1, SVG Export Plug-In . SVG Version: 6.00 Build 0)  -->
<svg version="1.2" baseProfile="tiny" id="Layer_1" xmlns="http://www.w3.org/2000/svg" xmlns:xlink="http://www.w3.org/1999/xlink"
	 x="0px" y="0px" viewBox="0 0 900 600" xml:space="preserve">
<g>
	<path d="M738.06,228c0-1.69-1.31-1.76-1.79-0.8c-0.76,1.52,2.06,13.68-2.09,26.81c-9.64,30.46-35.05,29.59-40.37,42.36
		c-4.58,10.99-1.59,11.85-11.56,38.97c-5.98-2.59-10.76-5.98-14.95-10.37c3.39-3.09,5.89-6.78,6.08-10.66
		c0.65-12.91,13.9-18.65,11.66-22.92c-2.99,0.6-4.29,3.49-6.08,4.78c-3.19-3.69,0.9-8.27-2.19-12.26
		c1.59,10.17-4.68,18.64-5.38,28.21c-4.78,2.19-2.19,8.37-6.48,11.16c-9.36-13.1-16.76-7.34-15.65-60.9c1.2,0.1,2.1-0.01,2.79,0.3
		c8.55,3.86,18.41-14.38,29.3-11.66c0,2.99-1.99,5.48-1.3,8.67c2.88-4.8,3.68-12.35,10.66-15.95c1.6-0.83-0.36-2.65,0.2-2.09
		c6.18,1.99,11.46,6.08,17.64,8.67c-9.47-9.27-22.72-11.56-33.79-18.04c0.4,0.6,0.9,1.2,1.49,1.99c-4.78-0.1-8.77-3.19-14.45-1.79
		c14.55,5.93,19.26,2.59,28.97,9.09c-9.01,7.29-22.13,7.58-25.39,11.74c-2.32,2.97-5.68,4.48-8.27,7.18
		c-4.98-2.79-10.17-2.69-15.85-2.39c0.3-3.39-1.4-6.58-0.4-9.67c1.49-1,2.39,0.7,3.69-0.3c7.49-15.75-0.71-18.4,1.3-26.41
		c0.7-0.5,1.2,1.1,1.99,0c-2.69-3.19-1.79-7.48-4.19-11.56c1.69,0.5,2.39,0.61,3.09,0.9c0.79,0.32,1.59,0.7,2.29,1
		c0.7,1.1-0.9,2.59,0.8,3.39c1.4-0.3,0.2-2.19,1.69-2.69c31.59,6.91,45.49-10.48,85.22,12.56c0.8-2.19-0.69-2.5-1.59-3.19
		c-20.19-15.55-47.46-11.07-58.6-10.37c-7.33,0.46-29.06,1.15-33.19-5.48c-4.31-6.92-14.5-18.4-22.62-15.25
		c-3.09,0.4-4.19-8.07-8.77-1.99c-1.2-1.59-1.79-4.58-5.48-4.09c0.5,1.4,1,2.59,1.49,4.09c-2.49-0.5-3.99-2.49-6.48-2.39
		c-1.7,6.79-5.48,0.51-1.89,8.27c-1.89,3.19-6.42,4.01-7.67,7.97c-0.1,0.3-0.9,0.3-1.3,0.6c-16.36,9.77-41.42-5.61-90.3,13.85
		c-15.63,6.23-1.44,24.68,1.2,32.59c10.76,32.28,32.1,24.29,49.53,38.57c1.1,0.9,1.88,1.89,1.89,3.39
		c0.15,17.64,9.43,32.6,15.15,48.54c2.41,6.73,11.05,30.65,7.97,37.28c-5.44,11.71,8.27,13.19-14.95,21.23
		c-18.53,6.42-31.38,23.77-37.18,36.98c-6.2,14.13-6.08,9.09-4.39,30c0.85,10.53,3.99,24.63,11.76,32.69
		c8.12,8.42,14.48,18.32,22.23,27.01c3.1,3.48,4.58,7.87,5.58,12.66c-2.09,0-3.82-1.13-5.28,0.1c-2.65,2.23-0.79,5.89-2.09,8.27
		c-12.84,23.45-17.93,8.16-21.03,36.08c-0.4,3.59,1.2,5.38,4.68,6.18c15.75,3.6,38.85,2.14,38.47-15.45
		c7.67-3.69,18.74-1.2,22.72-12.26c-3.29-2.49-4.37-6.97-3.79-9.97c1.32-6.77-2.49-12.06-2.59-17.84c-2.49-1.89-6.21-0.39-7.28-3.69
		c-3.18-9.84-6.92-19.53-6.28-30.4c1.26-21.52-6.84-22.33-9.57-27.11c1.4,0.3,2.68,0.22,3.49,0.8c7.17,5.14,15.05,1.1,22.62,1.3
		c1.2,0.1,2.99-0.6,3.59-1.49c5.09-7.67,13.95-10.86,20.03-17.24c21.46,3.13,6.22-7.59,38.97,16.05c4.4,3.17,7.18,8.57,13.46,9.87
		c-7.1,20.26,7.23,39.75,1.59,53.22c-1.5,1-3.39,0.1-4.78,1.59c-0.6,2.79-2.1,5.88-1.69,8.67c2.32,15.78-7.52,21.39-3.69,25.02
		c2.41,2.28,4.29,5.48,8.37,5.48c-0.3,3.09-0.41,5.88-0.9,8.57c-0.71,3.89,2.69,9.89,6.48,10.17c4.58,0.33,9.08,1.75,13.75,0.5
		c2.5-0.67,5.08-0.41,7.67-0.1c10.89,1.29,14.96-12.87,9.37-21.83c-3.3-5.28-7.23-10.27-7.18-17.14c0.02-2.09-0.5-4.58-2.09-6.48
		c-1.1,0.7-13.46,0.3-17.54-0.4c-1.81-6.51,0.55-5.34,12.46-7.38c1.3,2.29-0.1,5.08,1.69,7.08c7.62-5.08-4.85-6.67,4.19-21.13
		c1.05-1.68,21.41-28.2,16.74-45.35c-7.75-28.47,5.8-30.73-1.89-48.44c-0.69-1.6-2.51-1.99-2.89-3.99
		c-3.39-17.56-15.87-18.67-18.84-28.8c-0.7-2.39-2.79-4.29-5.68-4.88c-3.78,2.27-2.39,2.3-5.88-0.8
		c-13.06,4.58-26.11,8.67-38.67,14.05c12.76-2.29,24.82-6.28,35.58-11.96c4.71,1.63,0.56,6.78,10.17,1.49
		c5.36,5,3.06,8.89,6.68,10.37c7.78,3.18,9.27,10.96,13.85,17.94c-2.89-0.9-4.59-1.37-6.28-1.99c-16.43-6.03-18.99,3-29.8,7.67
		c-3.6,1.56-5.98,4.49-7.08,8.07c-2.69,8.77-8.17,16.45-8.77,26.31c-8.57-5.18-16.54-10.07-24.32-14.75
		c-4.98,3.09-9.57-1.4-14.45,0.5c-0.82,1.65-4,3.41-3.79,3.19c0.2,0,1.97-4.09-15.85-9.47c5.22,3.25,10.45,6.41,15.58,9.66
		c-25.91,18.14-0.82,4.54-15.38-7.86c0.9,4.09,4.19,7.67-0.3,11.36c1.33-11.54-9.23-21.29-18.24-30.3
		c-16.27-16.27-22.26-11.32-38.67-10.27c8.07-14.25,22.23-16.15,35.68-19.83c-19.83,1.98-1.28-0.49,2.09-4.58
		c1.49,1.4-0.3,1.69,0.4,2.59c6.99,3.81,1.24,1.35,2.19,3.89c12.56,0.5,22.92,8.17,36.18,11.26c-5.68-6.08-13.06-6.68-18.74-10.66
		c20.04,4.69,21.83,8.19,25.71,14.25c-0.3-3.79-2.29-5.38-3.19-7.38c6.78-1.4,13.45,0.08,19.93-1.2
		c9.29-1.83,31.86-12.39,36.08-15.55c-13.73,2.75-54.35,24.85-70.27,6.58c-1,0.5,0.5,1.79-0.1,2.19c-4.19,1-6.28-5.48-10.76-2.19
		c-14.84-8.32-14.82-9.47-16.45-6.48c-0.3-3.29,0.4-5.78,1.69-8.07c2.09-1.1,4.58,0.2,6.58-1.79c-2.69,0-5.08,0-7.67,0
		c0.4-1.69,0.7-3.39,1.1-5.08c2.19,0,4.09,1.3,6.38,0.5c-2.29-2.09-6.38-1.2-6.78-5.48c-1.1-11.76-1.49-23.82-8.67-34.19
		c2.89-1.99,5.48-3.69,7.87-5.28c1.1,0.1,1.3,1.59,2.59,1.3c-3.02-8.29,0.89,0.16,4.58-0.1c-1.4-1.99-2.69-3.69-3.89-5.28
		c17.45-16.56,7.36-46.5,13.95-60.9c1.57,2.61-7.3,28.21,15.45,45.25c4.67,3.5,9.38,6.71,15.15,3.69
		c21.77-11.4,16.87-30.8,19.83-54.52c3.44,2.92-2.01,41.11,8.47,52.72c5.48,6.08,10.27,12.76,16.54,17.44
		c0.3,3.59-4.49,3.39-4.29,6.98c2.79-1.2,4.19-3.79,6.38-5.28c19.04,8.06-1.35-4.13,1.79,39.57c-4.39,1-8.57,2.09-12.26,4.68
		c3.49-0.9,6.88-1.79,10.66-2.69c1.79,5.98,3.39,11.96,4.29,18.34c1.2-0.3,2.19,0.7,3.99,1.2c-1.5-2.79-1.89-5.28-3.39-6.88
		c0.1-4.58,0.7-8.77-1.89-11.36c1.89-7.87,0.6-15.05,0.2-23.32c2.99-5.08,5.09-11.96,8.27-18.24c11.84-23.35,5.63-38.12,19.24-44.35
		c20.46-9.37,26.88-20.05,33.89-36.18C741.38,246.05,739.16,236.87,738.06,228z M645.57,234.88c1,1.3,0.6,2.59,0.3,3.99
		C644.77,237.77,643.78,236.67,645.57,234.88z M643.98,242.45c0.7,1.3-0.1,2.09-0.7,3.39C642.18,244.14,641.48,242.95,643.98,242.45
		z M696.4,556.8c-2.99,0.9-4.88-0.5-6.88-0.4C691.52,556.3,693.61,555.31,696.4,556.8z M694.31,553.01c-4.19,1.1-6.98-0.2-9.77,0
		c-13.16,0.92-9.86,1.49-5.08,2.79c0,1.59-2.09,0.3-1.99,2.09c5.88,1.3,11.96,1.3,18.14,1.99c5.22,14.78,15.14,14.73,5.88,30.3
		c-0.82,1.38-2.49,1.89-3.89,1.69c-9.66-1.38-21.34,6.01-26.51-3.89c-2.35-4.49,2.37-9.47-1.1-16.15c-2.59,1.1-2.59,1.1-7.77-3.69
		c4.74-12.02,5.84-14.88,4.88-19.04c-0.69-2.99-0.5-5.78,1.4-8.67c3.9,3.9,2.29-0.4,5.88,0.2c1.1,0.5,1.68,1.89,1.69,3.99
		C676.15,555.64,680.79,549.49,694.31,553.01z M661.92,452.55c2.78-4.17-3.49-9.91,21.23-25.12c7-4.3,24.12,0.49,24.12,3.49
		c0.5,6.68,4.2,12.76,2.79,19.83c-2.17,10.87-0.59,21.73,0.9,32.59c3.34,24.36-18.63,36.77-20.23,53.12
		c-4.88,3.49-9.77,3.69-15.05,3.79c0-1.59,0-2.79,0-4.09c-1.89,0.3-0.8,3.39-3.49,2.79c0.8-3.19,2-6.18,2.29-9.37
		c1.27-13.81-9.41-34.66-1.89-50.03c0.58-1.46,0.47-0.81,0.9-4.68c-4.98-4.09-9.57-8.27-15.75-9.97
		C658.53,460.22,658.93,455.94,661.92,452.55z M671.58,475.27c0.2,1.59-0.6,2.59-2.09,3.79c-4.39-3.69-9.77-6.18-13.46-11.86
		C662.81,468,666.3,472.98,671.58,475.27z M520.79,464.51c1.69,3.49,3.49,6.08,3.29,10.56
		C522.58,471.19,519.59,468.99,520.79,464.51z M550.74,558.7c-0.69,0-1.78,0-3.14,0C548.87,557.1,550.03,558.38,550.74,558.7z
		 M583.48,536.77c1.2,0.3,0.7,2.19,2.19,2.19c1.4-1.2-0.2-2.69,0.2-4.09c1.59-0.5,2.49-0.1,2.59,1.79
		c0.29,5.18,2.54,10.06,1.4,15.55c-0.73,3.48,2.19,6.88,3.49,10.17c-3.39,8.47-12.76,4.58-18.34,8.97c-0.1-0.5-0.2-1-0.4-1.69
		c-2.29,1.2-4.27,2.29-3.39,5.48c3.15,11.46-19.18,16.06-37.87,10.56c0-20,6.92-18.52,11.46-25.02c5.98,1.4,11.56,3.29,17.44,2.09
		c1.1-1.59-0.3-2.09-0.6-2.99c1.69-0.5,3.79,0.6,5.08-1.1c0.1-1.59-1.4-1.4-1.99-2.49c2.89,0.8,2.69-2.39,4.58-2.89
		c-4.38-8.76-14.9-2.6-14.35-11.36c4.78-0.1,9.37,1.99,13.95,1.5c1.49,1.3,0.2,3.19,1.49,4.39c2.49-1.59,0.7-4.39,1.79-6.38
		C576.3,540.95,580.09,539.26,583.48,536.77z M585.17,472.88c-5.07,3.12-9.67,2.09-16.35-3.79c1.59-1.4,3.29-2.98,5.48-2.29
		c5.77,1.81,10.86,0.7,15.45-3.29C590.85,467.7,589.67,470.11,585.17,472.88z M594.74,470.89c-0.6,0.2-1.1,0.4-2.39,0.9
		C593.14,469.79,593.64,468.8,594.74,470.89z M579.09,435.21c7.76,10.17,7.6,3.21,12.36,23.32c-6.08,4.49-12.26,6.98-20.23,6.18
		c-3.19,2.59-7.57,4.68-13.06,4.49c3.49,1.69,5.68,4.08,8.07,6.78c11.59,13.07,0.53,21.29,15.15,58.11c-0.3,1.1-1,1.89-2.29,2.09
		c-5.05-10.09-2.66-3.67-1.49,1c-3.99,3.09-8.96,1.53-13.26,2.79c-4.41,1.3,3.68-3.65-25.81-35.88
		c-5.65-6.17-13.81-21.24-14.25-23.92c1.79-0.4,1.79,1.99,2.79,1.69c-0.18-16.35-14.46-28.78-4.19-36.78
		c-0.8,2.49-1.4,4.78-2.09,7.08c1.5-3.29,4.78-6.08,3.39-10.27c-0.38-1.51,2.36-5.32,3.89-8.67
		C534.74,418.57,561.69,412.42,579.09,435.21z M593.24,401.52c-4.19-1.4-8.47-2.79-12.66-4.29
		C585.67,395.94,589.46,398.83,593.24,401.52z M597.93,216.64c0.1-2.29,3.09-3.29,2.39-5.78c1.1-0.3,1.89,1.2,2.39,0.2
		c4.67-6.6,10.44,2.13,16.25-1.49c3.57-2.23,8.27-1.4,9.97,1.59c0.5-0.4,1-0.8,1.79-1.49c0.1,3.49,2.8,5.38,4.09,8.07
		c10.41,21.86,2.63,26.47,1.99,35.38c-0.58,8.11-9.83,19.76-16.25,18.64c-2.99-0.52-5.77-0.75-8.77-0.1
		c-2.98,0.65-8.79-5.18-10.07-9.67c-1.42-4.98-3.11-9.75-6.38-13.95C590.87,242.3,597.73,221.17,597.93,216.64z M588.06,307.13
		c-0.46,5.98-2.49,11.46-7.18,16.25c-7.18-11.06-12.16-23.02-15.95-35.48c1.69,13.65,5.08,26.81,13.55,38.27
		c-2.89,2.49-4.49,7.28-9.57,8.17c-2.79-1.59-0.4-4.59-1.59-6.88c-12.8-24.48-11.32-28.61-12.16-37.48c2.39,1,2.19,3.79,4.68,5.08
		c-1.3-8.87-10.27-10.47-13.95-16.35c-1.79-0.5-0.7,1.3-1.59,1.59c-33.73-8.59-39.83-27.25-47.74-48.44
		c-2.38-6.38-0.01-9.9,6.28-12.56c41.1-17.37,71.7-4.05,88.5-12.46c-1.69,6.88-3.39,13.06-1.3,19.44c-0.8,1.79-2.99,2.69-3.49,4.88
		c-4.61-2.75-6.1-1.72-23.42,0.2c-2.29,1.79-5.08,0.5-7.77,1.1c-9.97,2.99-19.34,7.57-28.9,11.56c2.59-0.3,5.29,0.02,7.57-1.4
		c7.01-4.34,13.13-1.26,19.14,2.29c4.68,2.77,4.53,21.99,9.87,38.47c-0.5-11.66-1.3-23.22-4.49-34.48c2.89-1.4,4.88-0.89,6.98,0.5
		c5.47,3.61,11.3,6.35,15.55,11.66c1.51,1.88,4.39,2.89,7.28,2.89C594.8,263.98,591.46,263.22,588.06,307.13z M590.95,242.45
		c-1.3-1.99-3.59-2.89-2.49-6.58C589.26,238.56,591.95,239.36,590.95,242.45z M596.33,264.28c-6.35-5.72-12.96-2.47-15.15-5.78
		c-5.52-8.35-13.46-12.06-23.72-12.76c-2.39-3.89-6.28-5.68-10.86-6.68c5.89-1.54,34.59-11.88,39.17-4.78
		c-1.51,6.54,4.24,7.02,3.39,10.86c-1.16,5.22,6.09-0.37,6.98,10.56C596.35,258.3,597.63,260.89,596.33,264.28z M641.98,278.13
		c-2.58,15.03-0.55,20.95-11.16,31.2c-2.89,2.79-6.28,4.49-10.37,4.98c-1.99-3.29,1.3-7.67-2.69-11.06c-1.4,3.69-0.3,6.78,0.1,9.77
		c-6.13-0.65-25.04-13.7-19.73-38.97c2.69,0.9,2.89,3.29,5.18,4.78c-1.89-4.58-4.98-8.17-2.89-13.36c2.89,3.49,5.58,6.78,8.37,10.17
		c1.2-0.6-0.2-1.59,0.3-2.09c27.18,0,14.81-0.48,18.24,3.69c2.59-6.08,5.08-11.86,10.66-15.95c0.4,3.29,1.69,6.18,0.5,9.27
		c1.79-0.2,1.2-2.29,2.89-2.39C642.38,271.45,642.56,274.74,641.98,278.13z"/>
	<path d="M284.47,259.99c-0.03-1.01-0.1-1.99-0.23-2.96C284.12,257.95,284.16,258.92,284.47,259.99z"/>
	<path d="M412.95,38.93c-0.78,3.88,1.61,18.02-7.18,34.68c-23.09,43.8-36.4,34.68-42.86,49.14c-8.01,17.91-8.45,34.03-11.56,40.76
		c-7.06-2.32-13.15-5.99-18.26-10.49l-0.08-0.08c0,0-0.02-0.02,0.08,0.08c-15.35-13.51-21.86-34.52-19.01-48.91
		c0.91-4.58,0-9.47,1.1-14.35c3.99,0.3,7.38,1.89,10.47,3.59c1.1,3.59-3.99,1.99-3.79,5.18c13.45-6.09,6.06-13.66,27.51-20.13
		c-2.19,4.68-2.79,9.37-2.89,14.15c2.49-9.67,6.49-18.53,12.96-26.11c13-15.25,19.74-6.14,21.63-8.97
		c-2.19-2.69-5.38-2.41-8.27-2.59c-9.2-0.58-45.89-6.72-54.42,0.8c1-9.27-4.88-17.04-1.2-25.51c20.69,10.05,52.73-7.81,95.18,8.17
		c-1.89-4.72-14.09-5.18-21.73-7.08c-34.66-8.62-57.18,7.42-75.65-4.09c-1.4-11.66-13.85-22.72-23.82-21.23
		c-2.99,0.1-4.19-7.97-8.67-1.89c-1.2-1.69-1.89-4.49-5.58-3.99c3.49,8.15,0.48,1.82-4.68,1.59c-3.42,7.7-5.42,0.82-1.79,8.97
		c-7.67,2.69-7.97,10.17-9.77,16.35c-2.39,1.4-5.08,1.1-7.08,2.79c2.09,1.1,4.09-0.2,5.98,0.4c0.3,3.69-0.4,7.48,1.2,11.36
		c-3.99,2.29-4.29,6.48-4.78,9.57c-20.23-2.89-39.37,1.1-58.5,4.98c32.85-0.68,24.57,22.48,32.19,31.1
		c-1.99-4.88-1.89-9.17-1.69-13.75c11.66,4.19,23.32,7.38,27.51,21.53c1-2.59,2.09-3.69,4.49-2.39c-2.89,10.07-0.3,20.33-1,30.2
		c-2.03,1.24-9.3,2.09-0.4,2.09c0.4,10.27-5.88,18.04-9.57,27.21c-21.83-28.82-11.3-35.26-20.53-44.25
		c2.79,17.24,6.58,33.29,19.44,45.75c-1.59,1.99-2.59,4.19-4.49,5.28c-3.49-1.69-1.3-6.78-5.78-8.07c-1.59,4.78,3.49,6.18,4.29,9.87
		c-12.87,8.82-8.09,24.13-22.62-39.77c-1.95-8.59-17.55-19.11-22.03-21.93c-32.31-20.38-36.64-59.39-34.88-61.49
		c29.5-10.37,59.2-11.26,89.3-6.98c-1.3-2.92-43.99-10.08-87.51,3.59c-2.59,0.81-4.08,2.69-3.89,5.58
		c4.14,63.02,53.35,59.16,57.91,87.01c2.06,12.56,2.98,25.42,7.48,37.47c16.89,45.29,8.86,95.28,8.87,95.38
		c3.65-3.81,6.42-13.27,10.86-8.37c0.9-0.4,1.2-1.79,2.59-1.69c0.8,0.7-0.4,1.99,1.1,2.59c0.6-0.8,1.2-1.69,1.99-2.89
		c2.17,4.92,3.59-4.38,3.59,2.09c7.67,1.49,15.35,0.3,22.92,0.7c-3.49-2.99-8.47,0-11.66-4.19c5.38,0.4,10.76,0.8,15.75,1.1
		c1.41,2.8,2.2,5.44,2.56,8.2c0.44-3.08,2.87-5.45,3.72-8.3c1.79,0.3,0.9,2.79,2.89,2.69c0.1-0.9,0.3-1.89,0.3-2.29
		c2.89-2.39,2.99,1.2,4.29,1.59c1.1-0.7-0.1-1.89,1.2-2.49c3.49-0.1,7.18-1.3,11.66-0.3c-2.39,1.89-4.98,0.2-6.98,2.29
		c10.37,0.9,20.13-1.2,30-1.69c0.3-1-1.69-1.4-1.4-2.89c1-0.3,2.09-0.5,3.19-0.8c17.48,24.47-0.69-31.15,27.71,134.25
		c0.39,2.29,0.32,4.61-1.59,6.18c-29.87,24.56-60.06,5.78-63.59,11.96c3.09,1.99,6.48,1.79,9.57,2.59
		c14.45,1.2,29.1,5.08,42.26-3.89c3.25,7.59-0.81,6.69,1.2,31.59c1.1,13.65,12.05,20.04,10.56,42.26
		c-0.72,10.71-2.05,56.12-6.28,70.37c-4.39,0.2-8.57,3.69-13.65,2.29c-1.3-5.08-1.42-10.26-2.09-15.25
		c-3.2-23.77-11.75-37.71-12.46-40.37c-5.68-21.19,2.18-40.17-4.58-40.17c-0.3,4.39,0.81,8.67,0.2,13.06
		c-4.84,34.82,21.52,52.92,14.95,88.21c-10.75-0.55-1.83,12.91-10.27,26.91c4.39,0.1,5.38,4.19,8.37,5.88
		c-0.5,2.99-2.19,6.18,1.3,10.07c1.5-6.98-0.1-12.76-0.1-18.64c-1.89,0.9-1.2,2.79-2.79,4.29c-3.79-9.27,2.19-17.84,0-27.21
		c7.38,5.38,8.57,4.98,12.96-3.19c13.82-2.3,13.88-4.43,14.25,7.38c-5.68-0.2-11.16-2.99-17.44-1.1c2.39,1.69,4.58,1.69,6.88,2.39
		c-1.79,1.3-4.39,0.2-5.48,3.09c5.88,0.4,11.36,1.99,16.84,1.3c0.6-1.79-1.59-1.89-1.1-3.39c0.7-0.6,1.49-1.3,2.79-2.39
		c-0.3,2.99,0.18,5.28-0.1,7.77c-1.28,11.36,2.89,8.35,6.38,16.25c2.33,5.27,1.4,10.86,1.5,16.35c0.08,4.31-4.9,4.54-9.17,3.69
		c-7.46-1.49-15.45,0.7-22.82-2.79c-0.4,3.29,1.99,3.87,4.09,4.09c11.82,1.2,26.86,3.51,30.1-3.59c4.19-9.17,1.62-16.77-4.98-23.42
		c-5.06-5.1-1.5-13.4-3.49-23.02c-1.44-6.97-1-7.87-8.27-9.47c0.2-1.69-0.5-3.59,0.8-5.38c0.8,1.3-0.2,2.89,1.3,3.99
		c2.19-2.49,0.62-5.28,0.7-7.77c1.12-38.27,10.79-65.33-3.99-93.59c-4.9-9.38-0.46-12.6-1.79-42.06
		c15.43-12.46,12.27-5.26,8.47-34.98c-10.71-83.69-12.75-76.01-15.05-100.86c-1.3-13.99-13-7.33-9.47-20.93
		c3.49-13.43,2.63-27.51,10.47-47.64c15.89-40.82,7.06-31.4,17.04-63.49c2.9-9.32,16.09-11.21,24.72-21.13
		c24.21-27.82,26.71-42.57,26.61-63.99C414.54,40.42,414.84,38.93,412.95,38.93z M339.19,551.02c-0.6-2.39-0.1-4.09,1.5-5.38
		C342.88,547.63,342.78,548.13,339.19,551.02z M316.47,49.79c1.1,1.3,1,2.59,0.4,4.58C315.67,52.58,314.67,51.49,316.47,49.79z
		 M315.27,57.17c-0.26,2.31-0.18,1.35-1.1,3.49C313.08,59.16,312.38,57.97,315.27,57.17z M311.28,62.75c1.59-0.8,1.99,1.4,3.79,0.9
		c-0.2,0.1,0.1,0.1,0.2-0.1c6.23-12.97,17.73-11.07,51.93-6.58c-8.87,3.59-12.86,11.36-16.64,19.14
		c-10.07,1.3-17.24,7.08-22.62,15.15c-5.28-3.89-11.36-4.29-17.24-5.38C311.98,78.1,310.19,70.32,311.28,62.75z M269.03,31.25
		c0.11-2.19,2.79-3.09,2.29-5.48c1-0.5,1.69,0.7,3.19-0.5c4.88-5.44,9.91,2.85,15.35-0.5c3.81-2.35,8.47-1.79,10.47,1.2
		c0.4-0.4,0.8-0.8,1.2-1.2c1.69,3.19,3.48,6.29,5.08,9.47c9.06,17.93,1.47,43.19-8.77,50.33c-4.56,3.18-11.38,2.19-16.84,1.2
		c-9.28-1.7-7.16-13.93-14.35-22.43C261.7,57.52,268.77,36.27,269.03,31.25z M290.78,137.8c-10.58,1.97-24.56-26.57-22.36-46.15
		c1.1,0.9-0.4,2.49,0.8,3.29c0.9-4.68,1.59-9.37,1.79-15.05c3.39,3.89,6.38,6.88,9.17,11.46c0-4.25-2.71-3.19,17.84-3.19
		c-2.64,14.07,0.75-4.26,9.87-11.26c3.26,8.47-7.43,49.29-11.76,56.51c-1.53,2.56-3.29,3.93-5.15,4.34
		c0.43-2.69-0.07-5.03-1.13-7.83C288.7,133.89,288.86,135.7,290.78,137.8z M258.96,50.99c1.49,2.09,3.49,3.19,2.99,6.58
		C260.55,55.27,258.36,54.28,258.96,50.99z M257.07,91.45c-7.28-13.36-15.75-16.54-29.4-20.93c-0.1-8.67-8.47-10.17-13.85-14.95
		c14.34-4.7,27.8-1.43,37.08-3.49c4.08-0.91,8.88,3.89,9.27,8.37c0.1,1.2,0.4,2.47,1.59,2.59c4.74,0.48,3.36,4.9,6.68,15.95
		c0.83,2.78-1.3,5.18-0.4,7.97C264.24,88.36,259.76,87.27,257.07,91.45z M309.09,247.93c3.39-1.4,6.68-0.9,9.97-0.3
		C315.77,247.93,312.48,250.12,309.09,247.93z M334.01,242.05c-3.49,1-6.58,1.2-10.27,0.7c1.59-8.87,3.99-17.64,6.38-26.31
		c-4.39,8.37-6.58,17.34-8.47,26.81c-22.85,1.75-59.76,0.35-71.06,1.79c-3.69-8.87-4.09-18.14-6.38-26.91
		c0.9,8.97,2.19,17.94,5.18,26.91c-2.89,0.2-5.38,0.5-8.17,0.7c-3.49-24.52-1.49-49.63-8.27-74.35c6.08-0.3,7.69-6.82,13.16-8.57
		c1.2-0.39,2.81-4.57,4.49-6.88c18.36-25.3,10.99-41.87,12.36-63.79c0.13-2.09,1.5-1.89,2.99-1.69c0.71,27.46,3.7,32.51,14.85,44.15
		c3.52,3.67,9.42,9.78,13.55,5.88c9.76-9.21,14.55-41.44,16.54-51.63c8.46-1.99-8.46,20.26,6.58,47.04
		c10.15,18.08,13.41,20.29,27.11,29.3c1.62,1.06,4.09,0.9,7.48,1.59C338.29,190.42,336.6,216.54,334.01,242.05z"/>
	<path d="M279.29,392.15c-37.66,3.26-22.72,12.23-61,1.3c0-18.46-1.64,0.54,5.98-50.83c2.14-14.44,3.17-29.11,7.18-43.36
		c3.47-12.36,0.2-25.12,2.69-38.37c-7.4,4.64-2.61,20.43-5.58,33.69c-2.49,11.14-13.62,93.31-13.75,99.37
		c8.66,7.79,12.19-3.65,14.45,23.42c2.18,26.11-11.99,32.6-8.97,57.91c5.4,45.3,3.82,40.85,6.48,53.32c0.7,4.52-0.05,3.96-3.99,4.29
		c-4.74,7.3,0.48,8.18-4.39,11.86c-7.65,5.8-0.41,13.65-9.67,20.33c-6.4,4.62-7.78,10.78-11.26,11.36
		c-2.66,19.31-1.99,13.34,27.81,16.25c4.19,0.41,7.91-1.37,10.66-5.28c2.02-2.87,2.29-5.98,2.99-9.37
		c6.18-0.9,11.32-4.09,16.84-6.48c4.48-1.94,2.67-2.76-5.18-26.01c-1.3,7.97,3.39,14.95,3.79,22.82c-3.79,2.19-7.38,4.88-11.86,6.18
		c-11.58,3.35-3.24,13.19-13.65,14.75c-8.46,1.27-16.85-0.7-25.22-1.1c-1.4-0.07-3.19,0.1-4.68-1.3
		c-0.1-10.37,6.48-16.74,13.85-22.43c8.47,2.79,11.56,2.89,14.05-0.2c-14.99-2.14-12.85-0.99-10.56-4.19
		c4.78,1.2,9.47,2.49,15.15-0.4c-5.48-2.19-10.37-1.1-14.85-2.49c-0.73-7.31,3.59,1.29,17.54-0.7c-1.69-2.39,0.6-2.99,1.3-4.09
		c-2.47-4.95,1.51,0.34,3.59-3.69c-5.38-3.29-11.56-1.89-18.84-2.69c6.48-2.49,1.4-7.48,4.58-10.76c3.99,0.3,7.87,1.59,11.66,2.49
		c0.9,2.09,0.8,4.39,3.79,4.88c-0.6-1.59-1-2.79-1.49-3.99c2.49,1.69,3.89-2.79,6.38-0.7c-0.8,2.39,0.1,5.28-3.39,7.18
		c6.51,1.68,9.48-0.26,7.67-6.58c-2.42-6.92,2.96-26.02,4.98-33.09c3.02-10.55,13.83-23.63,11.16-58.5
		c-1.61-21.01,8.42-18.86,7.57-43.46c-0.26-7.49-3.29-7.71,9.07-8.97c5.36-0.55,4.31-2.52,5.58-32.29
		c-5.38,9.07-2.39,19.34-4.98,29.2C281.88,391.65,280.59,392.04,279.29,392.15z M217,552.52c2.59-2.69,4.98-0.3,7.48,0.5
		C221.98,552.82,219.49,552.72,217,552.52z M223.28,548.73c-2.19,0.3-3.49,0.4-4.88,0.6C219.49,546.44,220.99,547.03,223.28,548.73z
		 M265.74,425.24c-6.74,17.14-0.77,31.56-3.99,47.74c-4.52,22.7-11.68,27.28-16.05,61.2c-1.1,0.5-2.19,0.4-3.19,0
		c-2.43-8.68-2.1-11.37-2.99,0.2c-3.59,0.7-6.58-0.8-9.67-1.49c-3.47-16.85-6.67-67.57-6.68-67.67c-0.75-23.11,8.6-19.56,7.97-36.18
		c3.39,0.7,6.28,4.09,10.17,0.7c-3.49-0.8-5.68-3.49-9.07-3.69c0.2-8.67,0.9-17.24-2.59-26.51c14.45,6.48,27.11-1.59,40.96-3.59
		C269.52,406,269.45,415.78,265.74,425.24z"/>
	<path d="M306.2,412.38c0.8,9.46,7.63,16.59,10.47,25.32c0.74,2.28,2.19,4.39,3.29,6.48c-6.31-32.36-7.75-15.53-11.96-37.28
		c-0.48-2.49-0.9-5.08-2.79-7.08C304.11,404.11,305.85,408.19,306.2,412.38z"/>
	<path d="M686.13,403.61c-13.26-6.88-44.05,9.47-45.25,24.62c1.79-3.49,5.4-3.98,6.98-7.18c3.63-7.36,10.46-10.77,17.44-14.35
		c12.83-6.59,20.51,1.5,22.33,0.9c-1.5-2.29-4.58-2.19-6.38-3.99C682.95,402.22,684.44,404.71,686.13,403.61z"/>
	<path d="M299.03,395.24c1.5-0.4,1.71-1.6,1.59-2.89c-2.02-22.7-6.56-13.77-11.96-37.18C287.76,361.15,296.63,393.75,299.03,395.24z
		"/>
	<path d="M333.61,153.05c5.78-1.89,12.1-10.85,11.66-16.84c-0.43-5.81,4.44-9.67,4.29-17.54
		C337.92,132.71,350.58,130.53,333.61,153.05z"/>
	<path d="M311.48,415.97c4.36,7.33,13.1,11.03,15.85,9.27c5.4-3.47,6.98-9.47,8.57-15.25c-2.59,4.68-6.78,8.47-8.07,13.95
		C316.35,422.03,315.42,410.66,311.48,415.97z"/>
	<path d="M632.51,451.55c4.44-3.8,17.1-17.39,18.44-21.03C643.48,436.3,635.9,442.08,632.51,451.55z"/>
	<path d="M359.72,562.48c-4.88-0.7-9.77-1.5-14.95-0.1c0.4,1,0.8,1.89,1.2,2.99c5.08,0.6,9.87,1.2,14.65,0.7
		C360.72,564.48,360.82,563.38,359.72,562.48z"/>
	<path d="M211.72,93.45c-9.87-6.48-14.25-15.55-13.46-27.31C195.27,77.4,201.15,90.66,211.72,93.45z"/>
	<path d="M296.63,317.1c6.48-8.97,15.75-15.85,20.13-26.41C310.89,300.06,301.82,307.13,296.63,317.1z"/>
	<path d="M609.79,418.96c-9.47-9.67-22.33-12.76-34.29-17.44C586.67,407.8,599.52,410.89,609.79,418.96z"/>
	<path d="M346.27,568.96c5.54,1.66,4.78,1.01,2.99,3.09c3.29,0.4,6.28,0.8,9.57,0c-0.6-1.89,1.69-2.59,1.69-4.68
		C355.94,567.86,351.35,566.57,346.27,568.96z"/>
	<path d="M345.27,430.02c2.89,9.47-3.09,17.64-3.99,27.51C346.47,452.65,348.96,434.11,345.27,430.02z"/>
	<path d="M381.65,93.35c-4.49,7.18-14.95,5.48-19.83,13.06C366,106.6,380.65,97.04,381.65,93.35z"/>
	<path d="M631.52,431.22c5.38-5.18,11.36-9.67,13.95-17.04C639.49,418.76,635.6,425.04,631.52,431.22z"/>
	<path d="M723.01,240.36c-6.98,1.5-13.95,1.2-21.03-0.5C705.37,244.14,717.33,244.24,723.01,240.36z"/>
	<path d="M666.3,389.16c-11.46,4.58-22.52,8.27-33.89,11.46C639.39,400.62,661.82,393.15,666.3,389.16z"/>
	<path d="M661.22,233.18c-11.04-6.74-10.94,5.45-12.86,9.07C653.05,239.86,652.55,231.69,661.22,233.18z"/>
	<path d="M603.01,313.31c2.49,9.47,6.78,18.24,10.86,27.11C610.59,331.25,607.6,321.99,603.01,313.31z"/>
	<path d="M676.37,279.73c1.58-7.9,5.29-13.1,3.39-17.44C677.26,267.77,676.07,273.65,676.37,279.73z"/>
	<path d="M228.16,120.66c0.6-6.18-5.28-12.96-14.55-16.54C220.39,108.9,226.27,113.08,228.16,120.66z"/>
	<path d="M659.12,415.07c6.18-3.29,12.06-6.38,18.44-8.37C672.48,406.2,662.51,410.79,659.12,415.07z"/>
	<path d="M289.26,328.76c-0.36-28.13-1.3-30.1-1.3,1.1C288.96,329.56,289.26,329.16,289.26,328.76z"/>
	<path d="M710.25,280.02c-3.99-0.9-13.75,2.49-16.25,5.88C699.79,283.81,704.67,282.02,710.25,280.02z"/>
	<path d="M248.2,253.71c-2.29,4.09-4.09,7.48-6.38,11.56C247.3,261.69,249.19,258.5,248.2,253.71z"/>
	<path d="M332.31,457.13c-1.89-5.88-6.28-9.77-10.47-14.55C322.55,446.07,328.53,454.14,332.31,457.13z"/>
	<path d="M343.28,364.84c1.3,7.57,2.49,15.15,3.79,22.72C347.46,379.69,345.27,372.32,343.28,364.84z"/>
	<path d="M282.38,336.54c-5.68-3.29-11.66-5.68-17.94-7.48C270.22,332.05,276,335.04,282.38,336.54z"/>
	<path d="M582.28,335.34c-0.5,4.29,2.89,7.38,8.17,8.37C589.16,339.63,584.47,339.33,582.28,335.34z"/>
	<path d="M702.08,273.45c-3.39,1.89-4.58,5.48-7.87,8.27C698.69,281.42,701.58,278.13,702.08,273.45z"/>
	<path d="M651.35,450.95c-3.69,1.89-7.38,3.79-9.37,7.87C646.47,457.83,647.96,453.15,651.35,450.95z"/>
	<path d="M574.41,339.13c1.89,3.89,2.79,8.27,6.48,11.26C574.87,337.02,575.77,338.45,574.41,339.13z"/>
	<path d="M351.75,121.35c3.09-2.39,1.49-5.88,2.29-8.87C351.45,114.98,351.15,118.07,351.75,121.35z"/>
	<path d="M384.74,35.64c4.09,0.7,6.98,3.39,9.87,6.08C392.81,37.43,389.32,35.64,384.74,35.64z"/>
	<path d="M338.59,510.16c0,4.29,0,8.07,0,11.96C339.89,518.23,339.69,514.54,338.59,510.16z"/>
	<path d="M604.51,442.58c3.99,3.69,6.98,6.38,9.97,9.07C612.58,447.57,609.79,444.68,604.51,442.58z"/>
	<path d="M615.47,403.61c-0.2-4.49-1.59-6.58-4.98-7.57C612.38,398.53,612.18,401.82,615.47,403.61z"/>
	<path d="M682.55,283.21c3.29,1.49,5.68,1.3,8.07-0.4C688.13,283.02,685.54,280.32,682.55,283.21z"/>
	<path d="M676.67,320.29c-3.19,2.29-1.79,5.48-2.29,8.07C676.67,326.27,678.06,323.88,676.67,320.29z"/>
	<path d="M329.92,292.88c3.99-0.4,8.07-1.2,12.16-1.69C337.8,289.79,333.81,291.29,329.92,292.88z"/>
	<path d="M351.65,574.34c2.29-0.2,4.19,2.79,7.28,0.5C356.33,571.75,354.04,572.65,351.65,574.34z"/>
	<path d="M629.42,421.35c3.69-2.89,7.67-5.58,11.56-8.17C636.4,414.88,632.41,417.47,629.42,421.35z"/>
	<path d="M649.96,384.88c5.58,0.05,5.88,0.1,8.67-1.59C651.76,384.74,628.7,384.69,649.96,384.88z"/>
	<path d="M640.59,316.7c1-4.09,1.99-8.27,2.99-12.36C641.88,308.13,640.09,312.22,640.59,316.7z"/>
	<path d="M328.73,279.43c2.39-2.19,4.88-4.29,7.97-5.58C332.41,273.55,330.22,275.94,328.73,279.43z"/>
	<path d="M642.78,444.68c-2.59,2.49-4.19,5.38-3.59,9.17C640.39,450.76,641.58,447.77,642.78,444.68z"/>
	<path d="M226.27,357.87c-1.3,3.19-2.09,6.28-2.39,9.87C226.47,364.64,227.36,361.05,226.27,357.87z"/>
	<path d="M609.29,438.2c1.5,2.99,3.09,5.98,4.68,8.97C613.68,443.38,612.28,440.29,609.29,438.2z"/>
	<path d="M337.1,431.12c3.79-1.59,5.78-2.89,5.78-5.78C341.45,424.27,342.2,423.98,337.1,431.12z"/>
	<path d="M272.31,256.2c-0.7,3.99-1.69,7.97-0.9,12.16C272.02,264.28,273.01,260.29,272.31,256.2z"/>
	<path d="M237.13,573.75c2.99-2.39,1.89-4.78,1.89-6.98C236.93,568.46,236.83,570.56,237.13,573.75z"/>
	<path d="M407.17,46.4c-1.89,2.09-3.79,4.09-5.68,6.28C404.08,51.29,406.57,49.99,407.17,46.4z"/>
	<path d="M287.56,351.09c1.59-2.79,1.3-5.48,0-8.97C287.56,345.61,287.56,348.4,287.56,351.09z"/>
	<path d="M248.3,321.39c-1.1-2.69-2.29-5.28-3.39-7.97C245.11,316.5,245.6,319.39,248.3,321.39z"/>
	<path d="M269.92,359.36c4.09-1.99,7.08-3.29,9.37-5.68C276.3,354.97,273.21,355.97,269.92,359.36z"/>
	<path d="M330.32,435.01c1.1,3.19,3.29,3.29,6.28,3.79C334.61,436.7,333.21,435.51,330.32,435.01z"/>
	<path d="M333.41,251.82c-0.3,2.89,1,4.98,3.19,7.77C336,256.01,335.21,253.61,333.41,251.82z"/>
	<path d="M222.08,388.56c-0.7-3.19-1.3-6.38-0.9-9.67C219.49,382.28,220.29,385.47,222.08,388.56z"/>
	<path d="M327.93,426.54c2.19,2.79,4.39,2.59,7.08,2.79C333.11,427.03,330.92,427.03,327.93,426.54z"/>
	<path d="M190.29,54.98c-1.79-1.3-3.89-1.99-7.18-1.99C186,54.58,187.9,55.77,190.29,54.98z"/>
	<path d="M262.55,260.49c1-2.49,1.89-4.68,2.79-6.98C262.65,255.11,262.55,257.6,262.55,260.49z"/>
	<path d="M343.48,157.73c2.89-1.79,2.89-1.79,2.19-4.68C343.78,154.34,343.48,155.94,343.48,157.73z"/>
	<path d="M684.94,290.89c2.89-3.19,2.89-3.19,1.89-5.78C685.64,286.6,685.34,288.3,684.94,290.89z"/>
	<path d="M266.93,308.33c4.68,7.02,3.81,6.4,4.88,5.68C266.45,306.85,268.09,307.75,266.93,308.33z"/>
	<path d="M355.94,110.99c2.59-1.89,4.58-2.49,5.28-5.58C358.63,106.8,357.43,108.1,355.94,110.99z"/>
	<path d="M361.32,116.17c1.59-2.19,2.19-3.99,2.69-6.68C361.72,111.49,361.22,113.38,361.32,116.17z"/>
	<path d="M189.69,64.24c1.79-1.99,3.39-2.89,3.79-5.88C190.79,59.76,190.39,61.45,189.69,64.24z"/>
	<path d="M702.38,272.25c1.3-1.99,1.99-4.09,1.59-6.88C702.28,267.77,702.68,270.16,702.38,272.25z"/>
	<path d="M624.14,411.49c-0.9,2.29,0.4,4.09,0.5,5.98C625.34,415.47,625.74,413.48,624.14,411.49z"/>
	<path d="M220.29,567.57c-1.79-0.8-3.19,0-5.38,0.6C217.3,569.26,218.89,570.06,220.29,567.57z"/>
	<path d="M651.35,217.63c-1.2,2.99-0.6,4.68,1.1,6.38C652.15,222.22,651.85,220.42,651.35,217.63z"/>
	<path d="M644.37,411.29c1.99-1,4.09-1.99,6.08-3.09C647.96,408.4,645.97,409.39,644.37,411.29z"/>
	<path d="M581.38,351.39c1,2.79,2.59,4.09,4.19,5.38C584.57,355.07,584.08,352.88,581.38,351.39z"/>
	<path d="M615.87,418.76c4.19,3.87,4.03,3.8,4.39,3.09C615.61,417.57,616.7,417.93,615.87,418.76z"/>
	<path d="M734.87,232.38c0.5-1.89,0.5-3.19-1.1-4.88C733.18,229.59,733.48,230.99,734.87,232.38z"/>
	<path d="M668.99,347.5c2.49-1.49,3.99-2.29,4.09-4.58C671.08,343.81,670.39,345.11,668.99,347.5z"/>
	<path d="M603.01,313.31c0-2.19-1-3.99-2.19-5.78C601.52,309.53,601.52,311.72,603.01,313.31z"/>
	<path d="M322.35,261.59c0-2.39,0-3.69,0-5.68C321.15,257.9,321.85,259.09,322.35,261.59z"/>
	<path d="M398.99,72.72c-1.5,0.3-2.99,0.5-4.29,2.29C397,74.91,398,73.81,398.99,72.72z"/>
	<path d="M383.15,92.35c1.89-1.3,2.59-2.49,2.69-4.09C384.54,88.96,383.54,89.96,383.15,92.35z"/>
	<path d="M594.24,390.46c5.55,0,4.88,0.1,4.88-0.3C593.03,390.16,594.24,390.03,594.24,390.46z"/>
	<path d="M320.85,39.43c0.9-1.3,1.4-2.59,1.3-4.78C320.65,36.44,320.16,37.63,320.85,39.43z"/>
	<path d="M665.7,381.19c1.2-0.4,2.39-0.7,4.58-1.49C667.7,379.49,666.5,380.09,665.7,381.19z"/>
	<path d="M662.02,342.82c1.5-0.8,2.69-1.4,2.09-3.49C662.41,340.12,661.82,341.02,662.02,342.82z"/>
	<path d="M588.46,336.34c1.1,1.89,2.49,2.19,4.29,2.69C591.75,337.03,590.45,336.64,588.46,336.34z"/>
	<path d="M659.03,332.75c1.79-1,3.19-1.3,4.09-3.69C661.12,330.16,660.02,330.86,659.03,332.75z"/>
	<path d="M340.19,443.78c-1.1,0.1-2.49-0.6-3.39,1C338.49,445.97,339.39,444.97,340.19,443.78z"/>
	<path d="M685.47,234.65c0.15-0.03,0.3-0.07,0.47-0.17C685.78,234.55,685.62,234.6,685.47,234.65z"/>
	<path d="M681.75,233.18c1.09,1.18,2.18,1.93,3.72,1.47C684.05,234.89,683.55,232.27,681.75,233.18z"/>
	<path d="M232.95,105.41c0,3.5-0.07,3.49,0.2,3.49C233.15,105.02,233.21,105.41,232.95,105.41z"/>
	<path d="M332.91,43.41c-1.3-0.4-2.29-0.4-3.49,0.9C330.92,45.01,332.02,44.81,332.91,43.41z"/>
	<path d="M322.55,41.82c-0.1,0-0.2,0-0.3-0.2c0,3.77-0.1,3.29,0.3,3.29c0-1.75,2.56,0.62,6.18-2.19
		C322.51,41.37,322.55,47.15,322.55,41.82z"/>
	<path d="M350.85,446.77c1.4-1.2,2.19-2.09,2.69-3.79C351.65,443.68,351.15,444.78,350.85,446.77z"/>
	<path d="M283.88,266.17c0.02-0.13,0.23-2.09,0-2.09C283.88,264.78,283.88,265.47,283.88,266.17z"/>
	<path d="M307.4,361.45c0,0.27-0.33,0.2,2.69,0.2C310.09,361.38,310.42,361.45,307.4,361.45z"/>
	<path d="M268.63,369.43c-1,2.09-1.59,3.29-2.09,4.39C267.83,373.11,268.93,372.12,268.63,369.43z"/>
	<path d="M319.06,260.79c-1.1,0.5-1,1.49-1.2,2.39c0.2,0,0.5,0.1,0.6,0.1C319.83,260.89,319.63,261.08,319.06,260.79z"/>
	<path d="M653.34,427.53c-0.8,1-1.49,1.99-2.29,2.99C652.35,430.32,653.24,429.43,653.34,427.53z"/>
	<path d="M338.69,130.03c1.2,0.2,1.99,0.4,2.79,0.7C340.79,129.53,339.99,129.43,338.69,130.03z"/>
	<path d="M623.84,450.26c0.7-1.1,0.6-2.09-0.8-3.59C623.44,448.46,623.64,449.36,623.84,450.26z"/>
	<path d="M345.17,108.2c-0.7,1.4-0.6,2.59,0,3.89C345.57,110.79,345.87,109.59,345.17,108.2z"/>
	<path d="M212.51,95.04c0.6,1.3,1.4,1.69,2.49,1.4C214.71,95.24,213.81,95.14,212.51,95.04z"/>
	<path d="M528.36,253.02c-2.19,6.48,4.58,16.64,10.76,16.45C533.74,265.07,531.05,259.59,528.36,253.02z"/>
	<path d="M520.39,236.87c-5.98-0.4-11.36,0.4-17.74-1.3C505.64,239.76,516.3,240.06,520.39,236.87z"/>
	<path d="M557.76,217.33c0.2,4.09-3.29,6.48-4.49,9.87C556.47,224.71,558.16,221.52,557.76,217.33z"/>
	<path d="M498.66,226.6c2.19-0.3,3.69-0.6,3.89-3.19C499.86,223.02,499.36,224.51,498.66,226.6z"/>
	<path d="M568.53,227.9c-3.29,0.5-5.08,1.3-6.88,3.09C563.84,231.26,562.17,231.97,568.53,227.9z"/>
	<path d="M563.05,299.26c0.1-1.99-0.5-3.19-1.79-5.18C561.25,296.57,561.75,297.77,563.05,299.26z"/>
	<path d="M525.87,252.42c1.69-0.6,2.79-1.2,1-3.19C525.47,250.03,525.17,251.02,525.87,252.42z"/>
	<path d="M574.61,226.5c-1.59-0.7-2.79-0.4-4.29,1.1C572.31,228,573.61,227.9,574.61,226.5z"/>
	<path d="M547.9,231.19c-1.49,1.1-2.59,1.69-3.19,3.39C546.4,233.98,547.2,233.08,547.9,231.19z"/>
	<path d="M559.36,462.52c7.93-8.52,10.96-7.63,10.96-11.36c-1.5,2.59-4.88,2.79-6.38,4.88c-1.79,2.5-4.69,2.99-6.78,4.78
		c-6.49,5.57-9.17,5.58-16.74-0.4C545.11,467.7,554.07,468.2,559.36,462.52z"/>
	<path d="M555.57,497.7c-2.29-5.38-2.89-10.66-3.69-16.35C548.29,485.14,550.79,496,555.57,497.7z"/>
	<path d="M548.89,468.3c-1.2,2.69-2.39,5.38-3.89,8.67C550.39,473.48,551.68,470.39,548.89,468.3z"/>
	<path d="M554.17,468.6c-1.3,3.29-2.49,6.18-3.69,9.07C554.97,473.68,555.67,471.89,554.17,468.6z"/>
	<path d="M536.43,436.6c-2.19,1.79-2.39,3.69-1.3,6.88C536.33,440.79,537.43,439.19,536.43,436.6z"/>
	<path d="M539.32,458.83c-0.9-3.59-1.99-5.68-5.18-5.88C536.43,454.04,536.73,456.84,539.32,458.83z"/>
	<path d="M555.87,498.3c-0.8,1.89,0.2,2.79,1.69,4.29C557.96,500.19,558.06,498.9,555.87,498.3z"/>
	<path d="M529.66,483.45c1,2.49,2.49,3.09,4.68,2.99C533.05,484.94,532.15,483.75,529.66,483.45z"/>
	<path d="M542.71,482.35c1.4-1.2,3.59-1.79,2.79-5.38C544.41,479.36,542.71,480.36,542.71,482.35z"/>
	<path d="M535.14,489.73c1,2.19,2.39,2.29,4.29,1.89C538.13,490.62,537.13,489.73,535.14,489.73z"/>
	<path d="M530.75,440.99c-1.89,0.5-2.59,1.5-2.69,3.39C529.26,443.38,530.45,442.88,530.75,440.99z"/>
	<path d="M560.95,506.07c0.4-1.59-0.4-2.29-1.99-2.89C558.76,505.07,559.56,505.67,560.95,506.07z"/>
	<path d="M540.42,485.04c1.49-0.5,1.79-1.69,2.19-2.79C540.72,482.15,540.32,483.25,540.42,485.04z"/>
	<path d="M539.13,435.11c1.3-2.19,1.99-3.29,2.69-4.29C540.32,431.32,539.52,432.32,539.13,435.11z"/>
	<path d="M538.13,494.61c0.5,1.4,1.2,2.29,3.59,3.59C540.12,496.4,540.22,494.91,538.13,494.61z"/>
	<path d="M534.24,452.85c0.4-1.4-0.5-2.49-1.2-4.19C532.25,450.76,533.15,451.85,534.24,452.85z"/>
	<path d="M681.55,468.9c-7.67-1.79-14.45-3.99-15.75-12.86C663.51,464.01,669.49,471.29,681.55,468.9z"/>
	<path d="M676.47,472.08c1.2,6.18,8.77,15.35,12.76,15.25c-2.69-2.39-5.72-3.87-6.98-7.38
		C681.22,477.08,680.65,473.38,676.47,472.08z"/>
	<path d="M681.65,488.23c2.59,6.08,3.29,11.66,1.79,17.54C686.63,500.99,685.94,490.12,681.65,488.23z"/>
	<path d="M687.13,528.8c2.49-0.7,3.29-2.29,3.59-4.68C688.63,525.31,686.93,526.1,687.13,528.8z"/>
	<path d="M708.96,479.76c-1.69,1.69-1.99,3.49-1.99,5.38C708.46,483.85,709.56,482.35,708.96,479.76z"/>
	<path d="M705.47,455.24c0.2,1.79,0.3,3.59,0.4,5.78C706.47,458.83,706.77,457.03,705.47,455.24z"/>
	<path d="M706.47,474.28c1.4-1.4,1.99-2.49,1.79-4.78C706.17,470.79,706.17,472.18,706.47,474.28z"/>
	<path d="M702.78,490.92c1.59-1.1,2.49-1.89,2.09-3.69C703.18,487.93,702.68,488.93,702.78,490.92z"/>
	<path d="M692.41,496c0.6,1.59,1.1,2.89,3.09,3.59C694.91,497.6,694.21,496.5,692.41,496z"/>
	<path d="M693.91,521.12c-1.49-0.4-2.29,0-2.69,1.89C693.01,523.31,693.71,522.62,693.91,521.12z"/>
	<path d="M691.92,440.29c1,2.39,1.69,3.79,2.59,5.88C694.81,443.58,694.21,442.28,691.92,440.29z"/>
	<path d="M704.37,450.76c-0.9-1.89-1.1-3.19-2.69-4.29C701.68,448.36,702.48,449.46,704.37,450.76z"/>
	<path d="M679.46,515.34c1-1,1.99-1.3,1.49-2.69C679.76,512.75,679.16,513.35,679.46,515.34z"/>
	<path d="M682.05,510.76c1.1-0.7,1.59-1.4,0.6-2.79C681.25,508.76,681.15,509.66,682.05,510.76z"/>
	<path d="M689.42,440.69c-0.26-2.18-1.78-2.51-2.69-1.59C687.23,439.99,687.83,440.59,689.42,440.69z"/>
	<path d="M607.1,228.8c-3.09,0.9-5.78,1.59-8.47,2.29c24.56,5.02,10.51-12.8-1.59-2.29C600.32,226.6,603.51,228.1,607.1,228.8z"/>
	<path d="M633.81,230.59c-2.79-0.6-5.58-1.2-9.07-1.99c3.99-0.9,7.08-2.39,10.47-0.2c-5.18-4.78-13.65-4.29-15.05,0.5
		C624.24,232.68,628.83,232.68,633.81,230.59z"/>
	<path d="M613.08,257.8c-1.6-0.18-2.59,1.2-2.29,3.29c3.79,0.6,7.28-0.4,11.46-0.4C619.96,255.01,615.97,258.13,613.08,257.8z"/>
	<path d="M606.5,256.2c6.68-0.2,12.76-1.1,18.94-0.9C621.95,252.92,608.69,253.51,606.5,256.2z"/>
	<path d="M619.26,247.53c-0.6-2.69-2.29-2.39-3.89-2.19c-1.2,0.3-2.49,0.8-1.89,3.39C615.27,247.03,617.16,247.93,619.26,247.53z"/>
	<path d="M542.51,563.68c2.89,1.3,1.88,5.35,4.39,4.19c4.35-2.02,10.96,1.75,10.96-3.09C553.18,564.28,548.69,562.88,542.51,563.68z
		"/>
	<path d="M618.36,302.65c-0.2-3.09,3.19-5.88,0.1-10.07C615.97,296.47,617.46,299.56,618.36,302.65z"/>
	<path d="M619.16,279.83c-2.69-2.59-2.69-2.59-4.88-1.2C615.67,280.22,617.26,280.22,619.16,279.83z"/>
	<path d="M684.74,566.67c0,1.58-8.09,1.81,10.17,4.78c-0.4-2.99-2.89-2.89-3.99-4.19c1.59-0.9,4.09,0.2,5.28-2.89
		C692.46,564.51,671.14,561.81,684.74,566.67z"/>
	<path d="M694.31,561.79c-5.08-1.89-10.27-1.4-15.55-0.2C683.84,563.38,689.12,563.18,694.31,561.79z"/>
	<path d="M251.68,154.84c3.59,3.39,6.88,2.69,10.37,1.79C258.96,155.84,256.17,153.25,251.68,154.84z"/>
	<path d="M291.65,238.66c0.9-4.29-0.1-8.27-1.4-12.36C289.96,230.49,290.26,234.68,291.65,238.66z"/>
	<path d="M333.11,181.65c5.08-2.09,6.98-4.49,6.48-8.87C339.39,177.07,333.51,177.17,333.11,181.65z"/>
	<path d="M321.95,157.53c3.19,0.1,6.38,0.4,7.38-3.69C326.24,153.55,324.44,156.24,321.95,157.53z"/>
	<path d="M290.45,208.86c-0.5,2.59-1.3,5.28,0,8.07C290.45,213.95,290.45,211.45,290.45,208.86z"/>
	<path d="M289.76,198.7c0,2.39,0,4.68,0,7.08C290.95,203.48,291.05,201.09,289.76,198.7z"/>
	<path d="M239.23,172.88c0.3,1.89,1.69,2.69,3.39,4.29C242.41,174.58,241.92,172.98,239.23,172.88z"/>
	<path d="M265.24,158.03c1.59,1.89,3.29,1.59,5.08,1C268.73,158.63,267.53,156.94,265.24,158.03z"/>
	<path d="M317.17,176.57c2.19-0.7,3.79-0.8,4.78-3.69C319.46,173.58,318.36,174.48,317.17,176.57z"/>
	<path d="M290.26,177.07c-0.5,1.89-0.5,3.69,0.4,5.88C291.55,180.66,291.25,178.86,290.26,177.07z"/>
	<path d="M244.81,182.05c0.3,1.89,1.59,1.89,3.69,1.99C247.4,182.45,246.7,181.25,244.81,182.05z"/>
	<path d="M254.18,171.29c1,1.79,2.29,1.99,4.29,1.4C257.17,171.29,256.17,170.29,254.18,171.29z"/>
	<path d="M246.5,164.11c0.8,2.09,1.89,2.49,3.89,2.59C249.39,164.91,248.49,164.31,246.5,164.11z"/>
	<path d="M325.94,174.18c1.49-1,2.49-1.2,2.89-2.69C327.63,171.89,326.63,171.99,325.94,174.18z"/>
	<path d="M338.2,163.61c-1.79-0.2-2.69,0.6-3.69,2.09C336.3,165.81,337.5,165.51,338.2,163.61z"/>
	<path d="M311.19,239.76c0.1,0.2,1.1-0.8,0-1.89C311.19,238.79,311.19,239.63,311.19,239.76z"/>
	<path d="M244.91,199c0.6-1.2,0.2-2.19,0-3.39C244.41,196.8,244.51,197.8,244.91,199z"/>
	<path d="M324.04,187.23c1.2-1.2,2.29-1.49,1.69-3.29C324.84,184.84,324.14,185.24,324.04,187.23z"/>
	<path d="M329.62,169.69c1.5-0.6,2.09-1.3,2.09-2.69C330.12,167.3,329.82,168.2,329.62,169.69z"/>
	<path d="M278.29,43.51c-2.19,0.6-3.59,1-4.98,1.59c-1.2,0.4-2.99-0.6-3.69,1.4c6.58,1.49,9.47,0.9,13.55-2.49
		c-1.89-4.78-10.47-5.08-15.25-0.2C271.12,41.02,274.31,43.21,278.29,43.51z"/>
	<path d="M305.5,46.01c-3.39-1.79-6.28-1.59-9.67-2.59c3.89-1.3,7.08-2.09,10.47-0.2c-4.24-4.68-16.02-3.58-15.35,0.1
		C295.24,47.7,299.92,47.2,305.5,46.01z"/>
	<path d="M289.06,72.02c-2.59,0.81-6.48-1.2-7.77,3.49c3.99,1.3,7.67,0.2,11.56-0.3C292.25,72.72,290.95,71.43,289.06,72.02z"/>
	<path d="M277.8,70.22c6.18,0.6,12.36-0.4,18.64-0.3C290.16,67.73,283.98,68.93,277.8,70.22z"/>
	<path d="M290.16,62.25c-0.5-2.59-2.3-2.42-3.69-2.09c-1.2,0.28-2.69,0.7-2.09,2.69C286.27,62.65,288.06,62.45,290.16,62.25z"/>
	<path d="M289.96,112.68c-0.3,0.6-0.5,1.3-0.8,1.99c-2.49-3.09-3.89-6.58-9.07-7.57c3.59,3.39,5.28,6.98,8.47,9.07
		c0.2,3.49-0.4,6.88,0.5,10.86C291.15,123.85,291.75,114.48,289.96,112.68z"/>
	<path d="M293.54,113.28c3.59-1.99,6.18-3.49,7.67-6.38C297.83,107.3,294.84,108.2,293.54,113.28z"/>
	<path d="M292.45,94.74c-2.89-0.2-4.19-3.19-7.57-1.69C286.77,95.94,288.66,97.13,292.45,94.74z"/>
	<path d="M293.34,105.71c1.89-1.99,2.69-4.39,3.09-6.98C294.24,100.62,293.54,103.02,293.34,105.71z"/>
	<path d="M287.07,100.42c1.1,2.39,2.29,2.09,3.79,0.7C289.76,100.52,288.76,99.73,287.07,100.42z"/>
	<path d="M247.5,421.75c1.99,7.18-1.69,13.26-3.99,19.63C249.39,437.2,251.68,426.74,247.5,421.75z"/>
	<path d="M262.45,409.99c-3.19,2.69-3.29,7.48-6.98,9.57c-1.99-0.6-3.89-1-5.78-1.49C256.42,427.48,264.25,415.39,262.45,409.99z"/>
	<path d="M248.99,447.47c-3.09,5.18-4.78,10.76-5.18,18.04C251.4,446.24,251.11,447.82,248.99,447.47z"/>
	<path d="M242.22,478.46c1.2-3.49,2.69-7.08,1.3-10.86C242.12,471.19,241.12,474.68,242.22,478.46z"/>
	<path d="M234.04,451.55c-0.8-3.69-1.2-7.57-3.79-10.66C230.16,444.97,232.25,448.16,234.04,451.55z"/>
	<path d="M233.15,436.6c0.7,3.99,2.89,3.69,5.88,3.19C237.73,437.1,236.24,435.91,233.15,436.6z"/>
	<path d="M243.61,405.51c-0.7,2.79-1.1,4.58,0.6,6.58C245.4,409.89,245.5,408.1,243.61,405.51z"/>
	<path d="M242.51,454.94c1.3-2.29,2.49-4.68,2.59-8.47C243.21,449.76,242.41,452.15,242.51,454.94z"/>
	<path d="M237.63,418.96c2.29-0.9,4.19-1,4.29-3.79C239.82,415.47,238.83,416.77,237.63,418.96z"/>
	<path d="M243.61,487.83c-0.1-1.79,0.7-3.19-0.7-5.08C242.02,484.74,241.82,486.24,243.61,487.83z"/>
	<path d="M249.69,417.96c-1.1-1.3-2.09-2.59-3.09-3.89C246.9,415.97,247.1,418.06,249.69,417.96z"/>
	<path d="M242.71,496.8c1.2-0.9,1.1-1.79,0.6-2.69C242.02,494.61,242.12,495.51,242.71,496.8z"/>
<path fill="#e6e6e6" d="m206.8 163.6c0-5.1 4.1-9.2 9.3-9.2s9.2 4.2 9.2 9.2-4.1 9.2-9.3 9.2-9.2-4.1-9.2-9.2zm17.3-.1c0-4.5-3.5-8.2-8.2-8.2s-8.2 3.7-8.2 8.3c0 4.5 3.5 8.2 8.2 8.2s8.2-3.7 8.2-8.3zm-13 0c0-2.8 2.1-5.1 5.1-5.1 1.9 0 2.9.6 3.9 1.5l-1.4 1.7c-.8-.7-1.5-1.1-2.5-1.1-1.7 0-2.8 1.4-2.8 3.1s1.1 3 2.8 3c1.1 0 1.7-.5 2.5-1.1l1.4 1.4c-1.1 1.1-2.1 1.7-4 1.7-2.9 0-5-2.3-5-5.1z"/><path fill="#e6e6e6" d="m226.6 154.7h3.4l4.2 13.2 4.4-13.3h2.6l4.4 13.3 4.2-13.2h3.3l-6.2 18h-2.7l-4.4-12.8-4.4 12.8h-2.7z"/><path fill="#e6e6e6" d="m252.8 165.8c0-3.9 3.1-7 7.2-7 4.2 0 7.2 3.2 7.2 7s-3.1 7-7.3 7c-4 0-7.1-3.1-7.1-7zm11.3 0c0-2.3-1.7-4.3-4.2-4.3s-4.1 2-4.1 4.3 1.7 4.3 4.1 4.3c2.7.1 4.2-1.9 4.2-4.3z"/><path fill="#e6e6e6" d="m269.5 159.1h3.1v3c.8-2 2.4-3.4 4.8-3.3v3.2h-.2c-2.7 0-4.6 1.7-4.6 5.4v5.1h-3.1z"/><path fill="#e6e6e6" d="m279.1 153.9h3.1v11.1l5.6-6h3.8l-5.4 5.5 5.5 8h-3.5l-4.1-5.8-1.9 2v3.9h-3.1z"/><path fill="#e6e6e6" d="m291.7 165.8c0-3.9 3.1-7 7.2-7 4.2 0 7.2 3.2 7.2 7s-3.1 7-7.3 7c-4 0-7.1-3.1-7.1-7zm11.3 0c0-2.3-1.7-4.3-4.2-4.3s-4.1 2-4.1 4.3 1.7 4.3 4.1 4.3c2.6.1 4.2-1.9 4.2-4.3z"/><path fill="#e6e6e6" d="m308.2 167.6v-8.6h3.1v7.6c0 2.1 1.1 3.3 2.9 3.3s3-1.3 3-3.3v-7.6h3.1v13.4h-3.1v-2.1c-.8 1.3-2.1 2.3-4.2 2.3-3.1.2-4.8-1.8-4.8-5z"/><path fill="#e6e6e6" d="m323.9 168.8v-7.1h-1.7v-2.6h1.7v-3.7h3.1v3.7h3.6v2.6h-3.6v6.6c0 1.2.6 1.7 1.7 1.7.7 0 1.3-.2 1.9-.5v2.5c-.8.5-1.7.7-2.8.7-2.3 0-3.9-.9-3.9-3.9z"/><path fill="#e6e6e6" d="m333.2 154.7h3.2v15h9.4v2.9h-12.5v-17.9z"/><path fill="#e6e6e6" d="m356 172.5v-1.7c-.9 1.1-2.3 2-4.4 2-2.6 0-4.8-1.4-4.8-4.2 0-3 2.3-4.4 5.4-4.4 1.7 0 2.6.2 3.7.5v-.2c0-1.9-1.2-2.9-3.3-2.9-1.5 0-2.6.3-3.9.8l-.8-2.5c1.5-.7 2.9-1.1 5.1-1.1 4 0 5.9 2.1 5.9 5.7v8zm.1-5.6c-.8-.3-1.9-.5-3.1-.5-2 0-3.1.8-3.1 2.1s1.1 2 2.6 2c2 0 3.5-1.1 3.5-2.9z"/><path fill="#e6e6e6" d="m364.9 170.5v2.1h-3.1v-18.7h3.1v7.4c1-1.4 2.4-2.5 4.5-2.5 3.2 0 6.3 2.5 6.3 7s-3.1 7-6.3 7c-2.1 0-3.5-1.1-4.5-2.3zm7.7-4.7c0-2.6-1.7-4.3-3.9-4.3s-3.9 1.7-3.9 4.4c0 2.6 1.8 4.3 3.9 4.3s3.9-1.7 3.9-4.4z"/><path fill="#e6e6e6" d="m376.9 170.8 1.4-2.1c1.4 1.1 3 1.7 4.4 1.7s2.1-.5 2.1-1.5-1.3-1.4-2.8-1.8c-.1 0-.2-.1-.2-.1-2-.6-4.2-1.4-4.2-4s2.1-4.1 4.8-4.1c1.7 0 3.5.6 5 1.5l-1.2 2.2c-1.3-.8-2.6-1.3-3.8-1.3s-1.9.5-1.9 1.4 1.3 1.4 2.8 1.8c.1 0 .2.1.2.1 2 .6 4.2 1.5 4.2 4 0 2.9-2.2 4.2-5 4.2-1.9 0-4-.7-5.8-2z"/><path fill="#e6e6e6" d="m505.6 163.6c0-5.1 4.1-9.2 9.3-9.2s9.2 4.2 9.2 9.2-4.1 9.2-9.3 9.2-9.2-4.1-9.2-9.2zm17.4-.1c0-4.5-3.5-8.2-8.2-8.2s-8.2 3.7-8.2 8.3c0 4.5 3.5 8.2 8.2 8.2s8.2-3.7 8.2-8.3zm-13.1 0c0-2.8 2.1-5.1 5.1-5.1 1.9 0 2.9.6 3.9 1.5l-1.4 1.7c-.8-.7-1.5-1.1-2.5-1.1-1.7 0-2.8 1.4-2.8 3.1s1.1 3 2.8 3c1.1 0 1.7-.5 2.5-1.1l1.4 1.4c-1.1 1.1-2.1 1.7-4 1.7-2.9 0-5-2.3-5-5.1z"/><path fill="#e6e6e6" d="m525.4 154.7h3.4l4.2 13.2 4.4-13.3h2.6l4.4 13.3 4.2-13.2h3.3l-6.2 18h-2.7l-4.4-12.8-4.4 12.8h-2.7z"/><path fill="#e6e6e6" d="m551.7 165.8c0-3.9 3.1-7 7.2-7 4.2 0 7.2 3.2 7.2 7s-3.1 7-7.3 7c-4.1 0-7.1-3.1-7.1-7zm11.2 0c0-2.3-1.7-4.3-4.2-4.3s-4.1 2-4.1 4.3 1.7 4.3 4.1 4.3c2.7.1 4.2-1.9 4.2-4.3z"/><path fill="#e6e6e6" d="m568.3 159.1h3.1v3c.8-2 2.4-3.4 4.8-3.3v3.2h-.2c-2.7 0-4.6 1.7-4.6 5.4v5.1h-3.1z"/><path fill="#e6e6e6" d="m577.9 153.9h3.1v11.1l5.6-6h3.8l-5.4 5.5 5.5 8h-3.5l-4.1-5.8-1.9 2v3.9h-3.1z"/><path fill="#e6e6e6" d="m590.6 165.8c0-3.9 3.1-7 7.2-7 4.2 0 7.2 3.2 7.2 7s-3.1 7-7.3 7c-4.1 0-7.1-3.1-7.1-7zm11.2 0c0-2.3-1.7-4.3-4.2-4.3s-4.1 2-4.1 4.3 1.7 4.3 4.1 4.3c2.6.1 4.2-1.9 4.2-4.3z"/><path fill="#e6e6e6" d="m607 167.6v-8.6h3.1v7.6c0 2.1 1.1 3.3 2.9 3.3s3-1.3 3-3.3v-7.6h3.1v13.4h-3.1v-2.1c-.8 1.3-2.1 2.3-4.2 2.3-3 .2-4.8-1.8-4.8-5z"/><path fill="#e6e6e6" d="m622.7 168.8v-7.1h-1.7v-2.6h1.7v-3.7h3.1v3.7h3.6v2.6h-3.6v6.6c0 1.2.6 1.7 1.7 1.7.7 0 1.3-.2 1.9-.5v2.5c-.8.5-1.7.7-2.8.7-2.3 0-3.9-.9-3.9-3.9z"/><path fill="#e6e6e6" d="m632 154.7h3.2v15h9.4v2.9h-12.6z"/><path fill="#e6e6e6" d="m654.8 172.5v-1.7c-.9 1.1-2.3 2-4.4 2-2.6 0-4.8-1.4-4.8-4.2 0-3 2.3-4.4 5.4-4.4 1.7 0 2.6.2 3.7.5v-.2c0-1.9-1.2-2.9-3.3-2.9-1.5 0-2.6.3-3.9.8l-.8-2.5c1.5-.7 2.9-1.1 5.1-1.1 4 0 5.9 2.1 5.9 5.7v8zm.1-5.6c-.8-.3-1.9-.5-3.1-.5-2 0-3.1.8-3.1 2.1s1.1 2 2.6 2c2 0 3.5-1.1 3.5-2.9z"/><path fill="#e6e6e6" d="m663.7 170.5v2.1h-3.1v-18.7h3.1v7.4c1-1.4 2.4-2.5 4.5-2.5 3.2 0 6.3 2.5 6.3 7s-3.1 7-6.3 7c-2.1 0-3.5-1.1-4.5-2.3zm7.8-4.7c0-2.6-1.7-4.3-3.9-4.3-2.1 0-3.9 1.7-3.9 4.4 0 2.6 1.8 4.3 3.9 4.3s3.9-1.7 3.9-4.4z"/><path fill="#e6e6e6" d="m675.8 170.8 1.4-2.1c1.4 1.1 3 1.7 4.4 1.7s2.1-.5 2.1-1.5-1.3-1.4-2.8-1.8c-.1 0-.2-.1-.2-.1-2-.6-4.2-1.4-4.2-4s2.1-4.1 4.8-4.1c1.7 0 3.5.6 5 1.5l-1.2 2.2c-1.3-.8-2.6-1.3-3.8-1.3s-1.9.5-1.9 1.4 1.3 1.4 2.8 1.8c.1 0 .2.1.2.1 2 .6 4.2 1.5 4.2 4 0 2.9-2.2 4.2-5 4.2-2 0-4.1-.7-5.8-2z"/><path fill="#e6e6e6" d="m61 298.6c0-5.1 4.1-9.2 9.3-9.2s9.2 4.2 9.2 9.2-4.1 9.2-9.3 9.2c-5.1 0-9.2-4.2-9.2-9.2zm17.4-.1c0-4.5-3.5-8.2-8.2-8.2s-8.2 3.7-8.2 8.3c0 4.5 3.5 8.2 8.2 8.2s8.2-3.7 8.2-8.3zm-13.1-.1c0-2.8 2.1-5.1 5.1-5.1 1.9 0 2.9.6 3.9 1.5l-1.4 1.7c-.8-.7-1.5-1.1-2.5-1.1-1.7 0-2.8 1.4-2.8 3.1s1.1 3 2.8 3c1.1 0 1.7-.5 2.5-1.1l1.4 1.4c-1.1 1.1-2.1 1.7-4 1.7-2.8.1-5-2.2-5-5.1z"/><path fill="#e6e6e6" d="m80.9 289.7h3.4l4.2 13.2 4.4-13.3h2.6l4.4 13.3 4.2-13.2h3.3l-6.2 18h-2.7l-4.4-12.8-4.4 12.8h-2.7z"/><path fill="#e6e6e6" d="m107.1 300.8c0-3.9 3.1-7 7.2-7s7.2 3.2 7.2 7-3.1 7-7.3 7c-4 0-7.1-3.1-7.1-7zm11.3 0c0-2.3-1.7-4.3-4.2-4.3s-4.1 2-4.1 4.3 1.7 4.3 4.1 4.3c2.6.1 4.2-1.9 4.2-4.3z"/><path fill="#e6e6e6" d="m123.7 294h3.1v3c.8-2 2.4-3.4 4.8-3.3v3.2h-.2c-2.7 0-4.6 1.7-4.6 5.4v5.1h-3.1z"/><path fill="#e6e6e6" d="m133.4 288.9h3.1v11.1l5.6-6h3.8l-5.4 5.5 5.5 8h-3.5l-4.1-5.8-1.9 1.9v3.9h-3.1z"/><path fill="#e6e6e6" d="m146 300.8c0-3.9 3.1-7 7.2-7s7.2 3.2 7.2 7-3.1 7-7.3 7c-4.1 0-7.1-3.1-7.1-7zm11.2 0c0-2.3-1.7-4.3-4.2-4.3s-4.1 2-4.1 4.3 1.7 4.3 4.1 4.3c2.6.1 4.2-1.9 4.2-4.3z"/><path fill="#e6e6e6" d="m162.4 302.6v-8.6h3.1v7.6c0 2.1 1.1 3.3 2.9 3.3s3-1.3 3-3.3v-7.6h3.1v13.4h-3.1v-2.1c-.8 1.3-2.1 2.3-4.2 2.3-3 .2-4.8-1.8-4.8-5z"/><path fill="#e6e6e6" d="m178.1 303.8v-7.1h-1.7v-2.7h1.7v-3.7h3.1v3.7h3.6v2.6h-3.6v6.6c0 1.2.6 1.7 1.7 1.7.7 0 1.3-.2 1.9-.5v2.5c-.8.5-1.7.7-2.8.7-2.3.1-3.9-.9-3.9-3.8z"/><path fill="#e6e6e6" d="m187.4 289.7h3.2v15h9.4v2.9h-12.5v-17.9z"/><path fill="#e6e6e6" d="m210.2 307.5v-1.7c-.9 1.1-2.3 2-4.4 2-2.6 0-4.8-1.4-4.8-4.2 0-3 2.3-4.4 5.4-4.4 1.7 0 2.6.2 3.7.5v-.2c0-1.9-1.2-2.9-3.3-2.9-1.5 0-2.6.3-3.9.8l-.8-2.5c1.5-.7 2.9-1.1 5.1-1.1 4 0 5.9 2.1 5.9 5.7v8zm.1-5.6c-.8-.3-1.9-.5-3.1-.5-2 0-3.1.8-3.1 2.1s1.1 2 2.6 2c2 0 3.5-1.1 3.5-2.9z"/><path fill="#e6e6e6" d="m219.2 305.5v2.1h-3.1v-18.7h3.1v7.4c1-1.4 2.4-2.5 4.5-2.5 3.2 0 6.3 2.5 6.3 7s-3.1 7-6.3 7c-2.2 0-3.6-1.1-4.5-2.3zm7.7-4.7c0-2.6-1.7-4.3-3.9-4.3s-3.9 1.7-3.9 4.4c0 2.6 1.8 4.3 3.9 4.3s3.9-1.7 3.9-4.4z"/><path fill="#e6e6e6" d="m231.2 305.8 1.4-2.1c1.4 1.1 3 1.7 4.4 1.7s2.1-.5 2.1-1.5-1.3-1.4-2.8-1.8c-.1 0-.2-.1-.2-.1-2-.6-4.2-1.4-4.2-4s2.1-4.1 4.8-4.1c1.7 0 3.5.6 5 1.5l-1.2 2.2c-1.3-.8-2.6-1.3-3.8-1.3s-1.9.5-1.9 1.4 1.3 1.4 2.8 1.8c.1 0 .2.1.2.1 2 .6 4.2 1.5 4.2 4 0 2.9-2.2 4.2-5 4.2-2 0-4.1-.7-5.8-2z"/><path fill="#e6e6e6" d="m360.6 298.6c0-5.1 4.1-9.2 9.3-9.2s9.2 4.2 9.2 9.2-4.1 9.2-9.3 9.2-9.2-4.2-9.2-9.2zm17.4-.1c0-4.5-3.5-8.2-8.2-8.2s-8.2 3.7-8.2 8.3c0 4.5 3.5 8.2 8.2 8.2s8.2-3.7 8.2-8.3zm-13.1-.1c0-2.8 2.1-5.1 5.1-5.1 1.9 0 2.9.6 3.9 1.5l-1.4 1.7c-.8-.7-1.5-1.1-2.5-1.1-1.7 0-2.8 1.4-2.8 3.1s1.1 3 2.8 3c1.1 0 1.7-.5 2.5-1.1l1.4 1.4c-1.1 1.1-2.1 1.7-4 1.7-2.8.1-5-2.2-5-5.1z"/><path fill="#e6e6e6" d="m380.5 289.7h3.4l4.2 13.2 4.4-13.3h2.6l4.4 13.3 4.2-13.2h3.3l-6.2 18h-2.7l-4.4-12.8-4.4 12.8h-2.7z"/><path fill="#e6e6e6" d="m406.7 300.8c0-3.9 3.1-7 7.2-7 4.2 0 7.2 3.2 7.2 7s-3.1 7-7.3 7c-4.1 0-7.1-3.1-7.1-7zm11.3 0c0-2.3-1.7-4.3-4.2-4.3s-4.1 2-4.1 4.3 1.7 4.3 4.1 4.3c2.7.1 4.2-1.9 4.2-4.3z"/><path fill="#e6e6e6" d="m423.3 294h3.1v3c.8-2 2.4-3.4 4.8-3.3v3.2h-.2c-2.7 0-4.6 1.7-4.6 5.4v5.1h-3.1z"/><path fill="#e6e6e6" d="m433 288.9h3.1v11.1l5.6-6h3.8l-5.4 5.5 5.5 8h-3.5l-4.1-5.8-1.9 2v3.9h-3.1z"/><path fill="#e6e6e6" d="m445.6 300.8c0-3.9 3.1-7 7.2-7 4.2 0 7.2 3.2 7.2 7s-3.1 7-7.3 7c-4.1 0-7.1-3.1-7.1-7zm11.3 0c0-2.3-1.7-4.3-4.2-4.3s-4.1 2-4.1 4.3 1.7 4.3 4.1 4.3c2.6.1 4.2-1.9 4.2-4.3z"/><path fill="#e6e6e6" d="m462.1 302.6v-8.6h3.1v7.6c0 2.1 1.1 3.3 2.9 3.3s3-1.3 3-3.3v-7.6h3.1v13.4h-3.1v-2.1c-.8 1.3-2.1 2.3-4.2 2.3-3.1.2-4.8-1.8-4.8-5z"/><path fill="#e6e6e6" d="m477.8 303.8v-7.1h-1.8v-2.7h1.7v-3.7h3.1v3.7h3.6v2.6h-3.6v6.6c0 1.2.6 1.7 1.7 1.7.7 0 1.3-.2 1.9-.5v2.5c-.8.5-1.7.7-2.8.7-2.2.1-3.8-.9-3.8-3.8z"/><path fill="#e6e6e6" d="m487.1 289.7h3.2v15h9.4v2.9h-12.5v-17.9z"/><path fill="#e6e6e6" d="m509.9 307.5v-1.7c-.9 1.1-2.3 2-4.4 2-2.6 0-4.8-1.4-4.8-4.2 0-3 2.3-4.4 5.4-4.4 1.7 0 2.6.2 3.7.5v-.2c0-1.9-1.2-2.9-3.3-2.9-1.5 0-2.6.3-3.9.8l-.8-2.5c1.5-.7 2.9-1.1 5.1-1.1 4 0 5.9 2.1 5.9 5.7v8zm.1-5.6c-.8-.3-1.9-.5-3.1-.5-2 0-3.1.8-3.1 2.1s1.1 2 2.6 2c2 0 3.5-1.1 3.5-2.9z"/><path fill="#e6e6e6" d="m518.8 305.5v2.1h-3.1v-18.7h3.1v7.4c1-1.4 2.4-2.5 4.5-2.5 3.2 0 6.3 2.5 6.3 7s-3.1 7-6.3 7c-2.2 0-3.5-1.1-4.5-2.3zm7.7-4.7c0-2.6-1.7-4.3-3.9-4.3s-3.9 1.7-3.9 4.4c0 2.6 1.8 4.3 3.9 4.3s3.9-1.7 3.9-4.4z"/><path fill="#e6e6e6" d="m530.8 305.8 1.4-2.1c1.4 1.1 3 1.7 4.4 1.7s2.1-.5 2.1-1.5-1.3-1.4-2.8-1.8c-.1 0-.2-.1-.2-.1-2-.6-4.2-1.4-4.2-4s2.1-4.1 4.8-4.1c1.7 0 3.5.6 5 1.5l-1.2 2.2c-1.3-.8-2.6-1.3-3.8-1.3s-1.9.5-1.9 1.4 1.3 1.4 2.8 1.8c.1 0 .2.1.2.1 2 .6 4.2 1.5 4.2 4 0 2.9-2.2 4.2-5 4.2-1.9 0-4.1-.7-5.8-2z"/><path fill="#e6e6e6" d="m659.5 298.6c0-5.1 4.1-9.2 9.3-9.2s9.2 4.2 9.2 9.2-4.1 9.2-9.3 9.2-9.2-4.2-9.2-9.2zm17.3-.1c0-4.5-3.5-8.2-8.2-8.2s-8.2 3.7-8.2 8.3c0 4.5 3.5 8.2 8.2 8.2 4.8 0 8.2-3.7 8.2-8.3zm-13-.1c0-2.8 2.1-5.1 5.1-5.1 1.9 0 2.9.6 3.9 1.5l-1.4 1.7c-.8-.7-1.5-1.1-2.5-1.1-1.7 0-2.8 1.4-2.8 3.1s1.1 3 2.8 3c1.1 0 1.7-.5 2.5-1.1l1.4 1.4c-1.1 1.1-2.1 1.7-4 1.7-2.9.1-5-2.2-5-5.1z"/><path fill="#e6e6e6" d="m679.3 289.7h3.4l4.2 13.2 4.4-13.3h2.6l4.4 13.3 4.2-13.2h3.3l-6.2 18h-2.6l-4.4-12.8-4.4 12.8h-2.7z"/><path fill="#e6e6e6" d="m705.5 300.8c0-3.9 3.1-7 7.2-7 4.2 0 7.2 3.2 7.2 7s-3.1 7-7.3 7c-4 0-7.1-3.1-7.1-7zm11.3 0c0-2.3-1.7-4.3-4.2-4.3s-4.1 2-4.1 4.3 1.7 4.3 4.1 4.3c2.7.1 4.2-1.9 4.2-4.3z"/><path fill="#e6e6e6" d="m722.1 294h3.1v3c.8-2 2.4-3.4 4.8-3.3v3.2h-.2c-2.7 0-4.6 1.7-4.6 5.4v5.1h-3.1z"/><path fill="#e6e6e6" d="m731.8 288.9h3.1v11.1l5.6-6h3.8l-5.4 5.5 5.5 8h-3.5l-4.1-5.8-1.9 2v3.9h-3.1z"/><path fill="#e6e6e6" d="m744.4 300.8c0-3.9 3.1-7 7.2-7 4.2 0 7.2 3.2 7.2 7s-3.1 7-7.3 7c-4.1 0-7.1-3.1-7.1-7zm11.3 0c0-2.3-1.7-4.3-4.2-4.3s-4.1 2-4.1 4.3 1.7 4.3 4.1 4.3c2.6.1 4.2-1.9 4.2-4.3z"/><path fill="#e6e6e6" d="m760.9 302.6v-8.6h3.1v7.6c0 2.1 1.1 3.3 2.9 3.3s3-1.3 3-3.3v-7.6h3.1v13.4h-3.1v-2.1c-.8 1.3-2.1 2.3-4.2 2.3-3.1.2-4.8-1.8-4.8-5z"/><path fill="#e6e6e6" d="m776.6 303.8v-7.1h-1.7v-2.7h1.7v-3.7h3.1v3.7h3.6v2.6h-3.6v6.6c0 1.2.6 1.7 1.7 1.7.7 0 1.3-.2 1.9-.5v2.5c-.8.5-1.7.7-2.8.7-2.3.1-3.9-.9-3.9-3.8z"/><path fill="#e6e6e6" d="m785.9 289.7h3.2v15h9.4v2.9h-12.5v-17.9z"/><path fill="#e6e6e6" d="m808.7 307.5v-1.7c-.9 1.1-2.3 2-4.4 2-2.6 0-4.8-1.4-4.8-4.2 0-3 2.3-4.4 5.4-4.4 1.7 0 2.6.2 3.7.5v-.2c0-1.9-1.2-2.9-3.3-2.9-1.5 0-2.6.3-3.9.8l-.8-2.5c1.5-.7 2.9-1.1 5.1-1.1 4 0 5.9 2.1 5.9 5.7v8zm.1-5.6c-.8-.3-1.9-.5-3.1-.5-2 0-3.1.8-3.1 2.1s1.1 2 2.6 2c2 0 3.5-1.1 3.5-2.9z"/><path fill="#e6e6e6" d="m817.6 305.5v2.1h-3.1v-18.7h3.1v7.4c1-1.4 2.4-2.5 4.5-2.5 3.2 0 6.3 2.5 6.3 7s-3.1 7-6.3 7c-2.1 0-3.5-1.1-4.5-2.3zm7.7-4.7c0-2.6-1.7-4.3-3.9-4.3-2.1 0-3.9 1.7-3.9 4.4 0 2.6 1.8 4.3 3.9 4.3 2.2 0 3.9-1.7 3.9-4.4z"/><path fill="#e6e6e6" d="m829.6 305.8 1.4-2.1c1.4 1.1 3 1.7 4.4 1.7s2.1-.5 2.1-1.5-1.3-1.4-2.8-1.8c-.1 0-.2-.1-.2-.1-2-.6-4.2-1.4-4.2-4s2.1-4.1 4.8-4.1c1.7 0 3.5.6 5 1.5l-1.2 2.2c-1.3-.8-2.6-1.3-3.8-1.3s-1.9.5-1.9 1.4 1.3 1.4 2.8 1.8c.1 0 .2.1.2.1 2 .6 4.2 1.5 4.2 4 0 2.9-2.2 4.2-5 4.2-1.9 0-4-.7-5.8-2z"/><path fill="#e6e6e6" d="m206.3 434.2c0-5.1 4.1-9.2 9.3-9.2s9.2 4.2 9.2 9.2-4.1 9.2-9.3 9.2-9.2-4.1-9.2-9.2zm17.4-.1c0-4.5-3.5-8.2-8.2-8.2s-8.2 3.7-8.2 8.3c0 4.5 3.5 8.2 8.2 8.2s8.2-3.7 8.2-8.3zm-13.1-.1c0-2.8 2.1-5.1 5.1-5.1 1.9 0 2.9.6 3.9 1.5l-1.4 1.7c-.8-.7-1.5-1.1-2.5-1.1-1.7 0-2.8 1.4-2.8 3.1s1.1 3 2.8 3c1.1 0 1.7-.5 2.5-1.1l1.4 1.4c-1.1 1.1-2.1 1.7-4 1.7-2.9.1-5-2.2-5-5.1z"/><path fill="#e6e6e6" d="m226.1 425.3h3.4l4.2 13.2 4.4-13.3h2.6l4.4 13.3 4.2-13.2h3.3l-6.2 18h-2.7l-4.4-12.8-4.4 12.8h-2.7z"/><path fill="#e6e6e6" d="m252.4 436.4c0-3.9 3.1-7 7.2-7 4.2 0 7.2 3.2 7.2 7s-3.1 7-7.3 7c-4.1 0-7.1-3.1-7.1-7zm11.2 0c0-2.3-1.7-4.3-4.2-4.3s-4.1 2-4.1 4.3 1.7 4.3 4.1 4.3c2.7.1 4.2-1.9 4.2-4.3z"/><path fill="#e6e6e6" d="m269 429.7h3.1v3c.8-2 2.4-3.4 4.8-3.3v3.2h-.2c-2.7 0-4.6 1.7-4.6 5.4v5.1h-3.1z"/><path fill="#e6e6e6" d="m278.6 424.5h3.1v11.1l5.6-6h3.8l-5.4 5.5 5.5 8h-3.5l-4.1-5.8-1.9 2v3.9h-3.1z"/><path fill="#e6e6e6" d="m291.3 436.4c0-3.9 3.1-7 7.2-7 4.2 0 7.2 3.2 7.2 7s-3.1 7-7.3 7c-4.1 0-7.1-3.1-7.1-7zm11.2 0c0-2.3-1.7-4.3-4.2-4.3s-4.1 2-4.1 4.3 1.7 4.3 4.1 4.3c2.6.1 4.2-1.9 4.2-4.3z"/><path fill="#e6e6e6" d="m307.7 438.2v-8.6h3.1v7.6c0 2.1 1.1 3.3 2.9 3.3s3-1.3 3-3.3v-7.6h3.1v13.4h-3.1v-2.1c-.8 1.3-2.1 2.3-4.2 2.3-3 .2-4.8-1.8-4.8-5z"/><path fill="#e6e6e6" d="m323.4 439.4v-7.1h-1.7v-2.6h1.7v-3.7h3.1v3.7h3.6v2.6h-3.6v6.6c0 1.2.6 1.7 1.7 1.7.7 0 1.3-.2 1.9-.5v2.5c-.8.5-1.7.7-2.8.7-2.3 0-3.9-.9-3.9-3.9z"/><path fill="#e6e6e6" d="m332.7 425.3h3.2v15h9.4v2.9h-12.5v-17.9z"/><path fill="#e6e6e6" d="m355.5 443.1v-1.7c-.9 1.1-2.3 2-4.4 2-2.6 0-4.8-1.4-4.8-4.2 0-3 2.3-4.4 5.4-4.4 1.7 0 2.6.2 3.7.5v-.2c0-1.9-1.2-2.9-3.3-2.9-1.5 0-2.6.3-3.9.8l-.8-2.5c1.5-.7 2.9-1.1 5.1-1.1 4 0 5.9 2.1 5.9 5.7v8zm.1-5.6c-.8-.3-1.9-.5-3.1-.5-2 0-3.1.8-3.1 2.1s1.1 2 2.6 2c2 0 3.5-1.1 3.5-2.9z"/><path fill="#e6e6e6" d="m364.4 441.1v2.1h-3.1v-18.7h3.1v7.4c1-1.4 2.4-2.5 4.5-2.5 3.2 0 6.3 2.5 6.3 7s-3.1 7-6.3 7c-2.1 0-3.5-1.1-4.5-2.3zm7.7-4.7c0-2.6-1.7-4.3-3.9-4.3-2.1 0-3.9 1.7-3.9 4.4 0 2.6 1.8 4.3 3.9 4.3 2.2 0 3.9-1.7 3.9-4.4z"/><path fill="#e6e6e6" d="m376.5 441.4 1.4-2.1c1.4 1.1 3 1.7 4.4 1.7s2.1-.5 2.1-1.5-1.3-1.4-2.8-1.8c-.1 0-.2-.1-.2-.1-2-.6-4.2-1.4-4.2-4s2.1-4.1 4.8-4.1c1.7 0 3.5.6 5 1.5l-1.2 2.2c-1.3-.8-2.6-1.3-3.8-1.3s-1.9.5-1.9 1.4 1.3 1.4 2.8 1.8c.1 0 .2.1.2.1 2 .6 4.2 1.5 4.2 4 0 2.9-2.2 4.2-5 4.2-2 0-4.1-.7-5.8-2z"/><path fill="#e6e6e6" d="m505.1 434.2c0-5.1 4.1-9.2 9.3-9.2s9.2 4.2 9.2 9.2-4.1 9.2-9.3 9.2-9.2-4.1-9.2-9.2zm17.4-.1c0-4.5-3.5-8.2-8.2-8.2s-8.2 3.7-8.2 8.3c0 4.5 3.5 8.2 8.2 8.2s8.2-3.7 8.2-8.3zm-13.1-.1c0-2.8 2.1-5.1 5.1-5.1 1.9 0 2.9.6 3.9 1.5l-1.4 1.7c-.8-.7-1.5-1.1-2.5-1.1-1.7 0-2.8 1.4-2.8 3.1s1.1 3 2.8 3c1.1 0 1.7-.5 2.5-1.1l1.4 1.4c-1.1 1.1-2.1 1.7-4 1.7-2.9.1-5-2.2-5-5.1z"/><path fill="#e6e6e6" d="m525 425.3h3.4l4.2 13.2 4.4-13.3h2.6l4.4 13.3 4.2-13.2h3.3l-6.2 18h-2.7l-4.4-12.8-4.4 12.8h-2.7z"/><path fill="#e6e6e6" d="m551.2 436.4c0-3.9 3.1-7 7.2-7 4.2 0 7.2 3.2 7.2 7s-3.1 7-7.3 7c-4.1 0-7.1-3.1-7.1-7zm11.2 0c0-2.3-1.7-4.3-4.2-4.3s-4.1 2-4.1 4.3 1.7 4.3 4.1 4.3c2.7.1 4.2-1.9 4.2-4.3z"/><path fill="#e6e6e6" d="m567.8 429.7h3.1v3c.8-2 2.4-3.4 4.8-3.3v3.2h-.2c-2.7 0-4.6 1.7-4.6 5.4v5.1h-3.1z"/><path fill="#e6e6e6" d="m577.5 424.5h3.1v11.1l5.6-6h3.8l-5.4 5.5 5.5 8h-3.5l-4.1-5.8-1.9 2v3.9h-3.1z"/><path fill="#e6e6e6" d="m590.1 436.4c0-3.9 3.1-7 7.2-7 4.2 0 7.2 3.2 7.2 7s-3.1 7-7.3 7c-4.1 0-7.1-3.1-7.1-7zm11.2 0c0-2.3-1.7-4.3-4.2-4.3s-4.1 2-4.1 4.3 1.7 4.3 4.1 4.3c2.6.1 4.2-1.9 4.2-4.3z"/><path fill="#e6e6e6" d="m606.5 438.2v-8.6h3.1v7.6c0 2.1 1.1 3.3 2.9 3.3s3-1.3 3-3.3v-7.6h3.1v13.4h-3.1v-2.1c-.8 1.3-2.1 2.3-4.2 2.3-3 .2-4.8-1.8-4.8-5z"/><path fill="#e6e6e6" d="m622.2 439.4v-7.1h-1.7v-2.6h1.7v-3.7h3.1v3.7h3.6v2.6h-3.6v6.6c0 1.2.6 1.7 1.7 1.7.7 0 1.3-.2 1.9-.5v2.5c-.8.5-1.7.7-2.8.7-2.3 0-3.9-.9-3.9-3.9z"/><path fill="#e6e6e6" d="m631.5 425.3h3.2v15h9.4v2.9h-12.5v-17.9z"/><path fill="#e6e6e6" d="m654.3 443.1v-1.7c-.9 1.1-2.3 2-4.4 2-2.6 0-4.8-1.4-4.8-4.2 0-3 2.3-4.4 5.4-4.4 1.7 0 2.6.2 3.7.5v-.2c0-1.9-1.2-2.9-3.3-2.9-1.5 0-2.6.3-3.9.8l-.8-2.5c1.5-.7 2.9-1.1 5.1-1.1 4 0 5.9 2.1 5.9 5.7v8zm.1-5.6c-.8-.3-1.9-.5-3.1-.5-2 0-3.1.8-3.1 2.1s1.1 2 2.6 2c2 0 3.5-1.1 3.5-2.9z"/><path fill="#e6e6e6" d="m663.3 441.1v2.1h-3.1v-18.7h3.1v7.4c1-1.4 2.4-2.5 4.5-2.5 3.2 0 6.3 2.5 6.3 7s-3.1 7-6.3 7c-2.2 0-3.6-1.1-4.5-2.3zm7.7-4.7c0-2.6-1.7-4.3-3.9-4.3s-3.9 1.7-3.9 4.4c0 2.6 1.8 4.3 3.9 4.3s3.9-1.7 3.9-4.4z"/><path fill="#e6e6e6" d="m675.3 441.4 1.4-2.1c1.4 1.1 3 1.7 4.4 1.7s2.1-.5 2.1-1.5-1.3-1.4-2.8-1.8c-.1 0-.2-.1-.2-.1-2-.6-4.2-1.4-4.2-4s2.1-4.1 4.8-4.1c1.7 0 3.5.6 5 1.5l-1.2 2.2c-1.3-.8-2.6-1.3-3.8-1.3s-1.9.5-1.9 1.4 1.3 1.4 2.8 1.8c.1 0 .2.1.2.1 2 .6 4.2 1.5 4.2 4 0 2.9-2.2 4.2-5 4.2-2 0-4.1-.7-5.8-2z"/></g>
</svg>
