<?xml version="1.0" encoding="utf-8"?>
<!-- Generator: Adobe Illustrator 23.0.1, SVG Export Plug-In . SVG Version: 6.00 Build 0)  -->
<svg version="1.2" baseProfile="tiny" id="Layer_1" xmlns="http://www.w3.org/2000/svg" xmlns:xlink="http://www.w3.org/1999/xlink"
	 x="0px" y="0px" viewBox="0 0 900 600" xml:space="preserve">
<g>
	<path d="M246.27,454.06l0.1,0.1C246.37,453.96,246.46,453.87,246.27,454.06z"/>
	<path d="M212.21,151.66l0.1,0.1C212.37,151.64,212.38,151.69,212.21,151.66z"/>
	<path d="M244.76,287.49c-0.03,0.02-0.06,0.02-0.09,0.03C244.66,287.62,244.62,287.63,244.76,287.49z"/>
	<path d="M424.53,573.07c-2.62,0.05-5.14-0.28-7.76-0.2c-14.32,0.45-21.57,2.35-35.27,0c-5.62-0.96-5.34,1.93-5.34-4.94
		c0-3.43-0.04-6.85-0.5-10.28c-0.23-1.7,1.16-19.34,1.41-20.36c1.12-0.71,1.07-1.38,22.87-0.4c1.71,0.08,3.22-0.6,4.94-1.11
		c0.6-4.13,0.3-8.36,0.91-12.7c-3.52-7.62,1.86-2.22-28.72-6.25c-0.66-4.67-1.42-34.07-1.41-34.87c7.61-1.09,28.45,0.72,30.03,0.5
		c1.61-0.22,2.34-1.22,2.32-2.62c-0.1-5.95,1.51-11.69,0.6-17.63c0-1.71,1.08-3.3-2.32-5.74c-3.04-2.19-6.15-4.33-10.28-5.44
		c2.12-1.11,3.42-2.43,5.54-2.72c3.73-0.52,6.95-2.02,9.17-5.34c0.1-3.93-1.51-7.36-3.63-10.58c-1.41-0.4-2.82-0.42-4.23-0.2
		c-6.71,1.04-10.04-2.79-20.46-7.56c-2.83-1.3-5.84-2.42-8.46-4.23c-1.75-0.87-5.45,5.01-6.75,6.95c-0.2,0.3-0.6,0.81,0.1,1.11
		c2.47-0.62,3.56-3.09,5.84-5.95c0.64-0.64,1.78,0.16,3.53,1.21c-2.74,5.14-2.87,5.51-1.81,6.15c2.29-1.14,2.17-3.16,4.13-4.64
		c0.71,0.71,2.12,0.6,2.42,2.02c-1.77,4.6-1.57,3.94-1.11,5.34c2.42-1.11,2.42-3.43,3.53-5.04c1.81,0.2,3.02,1.11,3.83,2.42
		c0.4,1.21-0.91,2.22-0.4,3.43c2.02,0.6,2.22-1.61,3.53-2.02c2.42,0.2,4.23,2.12,6.65,2.22c2.42,0.1,4.84,0.2,7.66,0.4
		c0.5,1.11,1.31,2.42,1.91,3.83s1.11,2.82,1.71,4.23c-7.26,8.01-25.88,8.97-26.3,8.57c-1.53-1.46-12.8,0.02-18.74-2.62
		c-1.81-0.81-4.03-0.8-5.74,0.6c-1.11,0.91-2.32,1.02-3.63,1.21c-8.76,1.26-1.98,2.61-18.24-0.1c-2.94-0.49-0.83-0.3,0.1-6.35
		c0.31-2.01,0.1-4.03,0.1-5.95c4.73-6.31,1.71-8.26,3.33-11.49c0.3-0.5,0.81-0.81,1.11-1.31c0.2-0.4-0.1-1.21,0.81-1.31
		c3.5,4.38,5.02,6.67,8.57,6.45c6.44-0.41,7.86-2.14,12.5-5.54c0-1.71,0.31-3.43-0.1-4.94c-0.6-2.22,0.1-4.13,1.01-6.05
		c0.2-0.5,1.01-0.71,1.71-1.21c5.03,5.74,1.32,1.93,7.56,8.16c-0.1-1.41-0.8-2.52-1.61-3.53c-5.84-7.25-4.49-6.87-7.36-6.05
		c-0.12-0.48-2.82-10.98-2.82-11.79c-0.11-15.16-0.23-46.86-0.2-46.96c1.49-4.63-1.33-15.42-0.91-20.76
		c0.16-0.8-0.71-1.93-0.71-2.62c0.3-3.12-0.6-6.15-0.4-9.17c0.14-2.15-2.82-10.33-6.85-11.59c-21.98-6.85-13.91-3.36-55.93,1.81
		c-13.39,1.65-27.31,10.37-27.31,8.36c2.56-19.44,1.05-11.18,5.64-28.01c1.19-4.35,4.4-7.52,3.73-19.55c-0.1-0.6,0-1.21,0.1-1.81
		c0.71-0.5,1.31-1.01,2.02-1.41c9.94-6.48,5.08-24.44-2.82-30.23c-33.89-24.84-15.33-10.34-27.31-26.8
		c0.57-5.17-0.01-7.46,4.13-11.99c2.16-2.37,10.48,1.04,14.31-3.02c0-1.51,0-3.12,0-4.74c1.11-1.31,2.02-2.72,0.91-4.43
		c0.1-1.11,1.51-1.51,1.31-2.82c-0.2-0.91-0.5-1.81,0.2-2.82c1.29-1.06,4.97-0.51,3.73-3.63c-7.88-15.77-2.34-7.9-3.43-18.04
		c-0.45-4.19-3.66-14.11-4.74-15.01c-2.68-2.25-5.03-5.07-8.46-6.25c-2.41-0.83-4.64-2.02-7.05-2.32
		c-2.21-0.28-10.6,0.44-17.03,2.22c-3.89,1.08-8.73,4.64-10.58,6.35c-4.04,3.74-2.59,4.79-5.24,3.93
		c-3.78-1.23-12.09-5.01-14.61,3.93c-1.6,5.68-4.1,39.18-0.81,42.73c0-0.05,0-0.1,0-0.15c1,23.7,1.03,12.77,2.22-10.03
		c1.22,2.8,0.2,13.7,0.58,20.3c-0.21-17.93,1-4.28-0.38-26.85c-0.54-8.75,0.74-8.65-0.3-11.19c-0.24-0.84,0.42-5.37,0.6-6.25
		c2.48-11.68,1.43-12.85,11.29-10.58c-0.6,0.1-1.21,0.1-1.51,0.3s-0.4,0.81-0.71,1.01c-0.8,0.51-1.7,0.14-2.08,0.93
		c1.76,0.29,3.54,0.49,5.4,0.79c3.5-7.21,12.54-7.13,15.48-9.86c-4.77,0.52-5.33,2.02-9.6,2.66c4.91-5.37,12.45-6.44,22.94-8.02
		c3.39-0.51,6.89,0.09,10,1.87c-0.62,0.22-0.99-0.04,0.18,0.75c0-0.42-0.18-0.92,0.64,0.98c-2.49-0.41-6.17-3.01-10.72-1.68
		c13.1,1.87,14.91,8.16,16.32,8.16c4.02-0.31,5.34,9.48,5.34,13.5c0.9,0.79,0.88,1.75,0.4,2.73c-2,4.1,0.52,7.69,4.43,14.21
		c-2.22,1.21-4.53,1.01-6.85,1.71c1.51,1.11,2.62,2.22,2.22,4.33c-2.76,2.07-2.98,0.06-4.94,2.02c1.31,1.21,2.42-0.3,3.63,0.2
		c0.81,0.91,0.52,1.93-0.1,2.82c-3.03,4.35,3.28,8.43-8.57,6.75c-7.2-1.02-10.25,5.51-10.58,8.16c-0.2,0.91-0.62,1.71-0.91,2.62
		c-1.4,4.43,0.01,2,2.12,8.67c0.29,0.91,1.21,1.71,0.71,3.02c-12.25-7.8-13.34-6.68-16.83-4.94c0.4,0.6,1.01,0.4,1.61,0.4
		c5.61,0.31,8.58,6.48,9.77,5.04c-1.05-2.11-1.29-1.94-0.81-2.42c3.22,1.71,5.96,4.21,9.37,5.54c2.02,0.79,3.73,2.42,5.54,3.73
		c2.79,2.33,1.02,2.82,4.43,4.84c13.69,8.1,14.26,8.41,15.82,10.98c4.48,7.41,5.54,19.16,2.92,20.76c-2.13,1.3-3.02,3.63-4.84,5.14
		c-1.31,1.1-1.37,3.82-1.51,5.54c-4.58,1.19-9.97,0.34-19.65,2.42c-8.63,1.85-0.56-0.35-10.98,1.01c-0.71,0.09-1.41,0.4-2.02-0.2
		c-0.6-4.23-0.3-15.52,0.5-19.05c3.74-1.25,8.8-1.67,13.81-14.51c1.73-4.43,0.48-10.55-3.22-13.6c-1.93-1.59-3.63-3.43-5.04-5.44
		c-0.1-0.2-0.6-0.1-0.91-0.2c0.1,0.4,0,0.71,0.1,0.81c1.51,2.02,2.12,4.64,3.93,6.55c3.14,3.92,2.76,10.24,2.72,13.6
		c-0.03,2.03-5.37,9.55-11.19,10.58c-0.59-8.61,2.77-11.79,2.05-14.27c0,0,0,0,0,0c0,0,0.01-0.02,0.07-0.04l-0.1-0.1
		c0.04,0.1,0.03,0.14,0.03,0.14c-3.4,1.56-4.31,8.88-5.07,36.84c-0.34,12.65-1.52,11.42-2.32,15.62c-1.71,9.05-3.59,8.52-2.42,11.59
		c0.9,2.36,0.55,4.63,1.21,7.26c3.75,21.54-2.1-1.71-0.5,38.8c0.26,2.59,1.13,6.69,1.81,10.38c2.66,1.27,5.8,5.96,6.55,7.26
		c3.65,6.3,3.84,3.62,0.91,8.36c-2.16,3.49-1.64,4.99-0.1,12.7c0.1,0.2,0.6,0.2,1.01,0.4c0.3-1.01,0.5-1.91,0.81-2.72
		c3.21-0.49,0.77,7.05,5.54,17.43c0.41,0.9,1.11,1.51,2.12,1.71c6.28,1.24,6.95-1.26,9.47-2.52c-0.35,3.89-3.9,11.55-5.34,19.95
		c-1.98,11.48-4.22,20.32-9.67,27.71c-1.93,0-2.93,1.04-3.1,2.81c2.62-2.25,1.63,0.37,4.72-2.41c-0.4,7.15-4.53,11.99-8.26,16.73
		c0.38,1.72,0.73,1.23-0.3,6.75c-0.75,4.02-0.7,8.26-1.41,12.29c-1.1,6.25-3.21,12.32-4.84,18.44c-0.86,3.25-1.74,1.12-2.32,5.04
		c-1.95,13.31-1.17,11.12-0.91,29.32c0.07,5.1-0.46,3.96,1.41,4.33c0.2,0.91,0.2,1.71,0.4,2.52c0.3,0.81,0.71,1.61,1.11,2.52
		c-4.31,4.31-4.47,4.77-6.85,7.15c-7.7-1.62-6-0.63-11.39-7.36c0.2-0.5,0.7-1.01,0.71-1.51c0.87-57.53-11.42-47.16,5.74-94.72
		c2.64-7.32,0.58,0.01,2.62,4.84c0.51-3.17,1.75-8.24-0.81-9.17c2.22-2.02,2.32-2.82,0.5-3.93c0-8.95-4.97-43.11-1.41-53.41
		c1.71,0.2,3.33,0.3,4.94,0.5c2.2,0.55,1.16,1.17,4.53,0.2c1.33,1.33,1.19,3.12,6.85,0.6c2.52,1.01,3.53,0.71,5.14-1.31
		c-1.41-1.11-2.62,0.91-4.03,0.1c-0.79-2.52-1.65-6.72-3.12-5.24c0.5,1.51,0.91,3.02,1.41,4.64c-1.31,1.21-2.82,0.91-4.23,1.41
		c-0.49-1.14-0.16-1.07-3.33-6.35c-0.4-0.5-0.91-0.71-1.51,0.1c2.55,5.52,2.78,4.45-0.2,5.44c-3.62-1.49-4.2-7.5-5.44-5.84
		c-0.1,1.51,1.51,2.62,0.81,4.13c-0.3-0.1-0.6-0.1-0.71-0.2c-1.41-1.81-2.72-3.73-2.12-6.35c1.01-4.36-1.99-5.81,0.71-18.94
		c1.33-6.49,1.8-3.3,2.82-5.34c-1.29-4.53-1.28-5-1.81-5.95c-1.71-3.03,1.77-0.14-1.51-10.38c-1.49-0.93-1.35-2.38-1.4-3.78
		c0.13,0.1,0.77,0.67,0.9,0.76c0.24-0.73,0.67-0.74-0.4-1.81c-2.77,4.06-4.35-37.06-3.02-39.7c2,0.67,0.45,0.27,0.5-2.52
		c0.22-10.97-0.99-15.43-0.6-15.82c1.32-1.65-1.35-6.98-3.53-15.12c-1.5-5.61-1.26-15-3.63-23.98c-0.42-2.12,0.39-11.73,4.33-19.35
		c6.32-2.63,2.59-1.8,9.17-4.43c3.13-1.04,2.62-0.96,2.62-2.02c0.66,0,0.37,0.03,0.71-0.3c-0.1,0-0.2-0.1-0.3-0.1
		c-0.13,0.06-0.22,0.17-0.34,0.26c-0.1-0.1-0.06-0.08-0.06,0.04c-0.38,0.38-0.17-0.59-6.25,2.02c-2.86,1.23-2.64,2.28-3.73,1.41
		c1.98-3.95,2.38-3.69,4.13-5.95c3.83-0.91,7.56-0.91,11.69-1.11c-0.5-0.6-0.71-1.21-1.01-1.21c-4.78-0.4-4.8,0.24-9.07,0
		c1.7-11.31,2.01-5.75,1.71-24.59c-0.09-5.93,4.25,0.52-4.84-8.57c-2.79-2.79-2.53-5.66-3.73-13c-0.58-3.58-1.18-5.3,0-8.26
		c2.23,1.2-0.15,7.88,9.07,12.39c1.33,0.65-0.42-0.85-1.91-2.52c-2.92-3.69,1.65,0.16,3.53-0.5c-14.65-11.21,4.39,0.37-10.38-10.18
		c-0.2-0.2-0.6-0.1-1.01-0.1c-1.47,1.79-0.38,6.56-2.22,10.58c-3.91,8.57-3.46,17.31-3.83,23.98c-3.1-5.76-1.36-7.26-0.62-17.34
		c-1.51,2.23-3.33,11.68-1.09,20.37c0.37,1.42,0.51,2.72,0.1,4.13c-0.3,1.01-0.22,2.11-0.4,3.12c-0.23,1.23-0.88,2.19-0.5,1.81
		c-2.37,3.56-0.4,5.42-2.72,9.88c1.41-9.77,1.61-19.35,1.81-29.02c-1.62,3.04-1.59,29.48-2.82,37.49c1.21-0.4,0.6-1.51,1.01-2.22
		s0.6-1.61,0.91-2.32c1.52-3.05,0.86-2.32,2.32-2.32c0.65-1.96-0.75-2.35,1.51-8.67c4.85-13.53,1.15-25.5,5.44-35.27
		c1.21,1.82,0.22,5.3,6.95,11.59c3.09,2.89,1.48,3.61,2.02,7.76c0.63,4.83,0.86,15.39-3.12,21.26c-4.97,7.32-5.25,11.87-6.35,13
		c-6.49,6.69-3.2,25.8-2.82,26.3c1.42,1.91,1.31,4.23,1.21,6.45c-0.69,15.34,6.95,18.27,5.24,29.83c-0.55,3.73,1.03,7.14-0.2,9.67
		c-1.85,3.81-0.41,23.56,0.5,31.34c0.39,3.31-0.87,1.51-2.92,5.64c-4.06,8.2-5.25,17.28-5.84,19.35c-3.32,1.11-4.53,0.83-5.24,3.02
		c-4.85,15.01-2.6,39.16,1.41,50.08c1.53,4.16,5.78,3.91,9.98,2.52c2.64-0.88,2.32-2.73,4.43-11.99c1.15,5.74-1.11,0.78,1.81,27.61
		c1.2,11.02,0.37,11.65,1.51,13.3c0.52,0.86,0.33,9.17,0.3,9.77c-0.21,5.65-2.61,6.07-3.73,8.46c-1.06,2.27-5.24,11.69-5.24,14.21
		c0.71,7.47-5.83,11.85-0.6,42.42c2.29,13.41-0.49,13.43,1.01,26.4c0.3,2.62-0.41,7.14-0.5,8.36c-4.48,2.05-6.52,10.74-7.15,15.62
		c-0.49,3.73-1.04,1.43-2.72,8.97c-0.47,2.12-1.11,4.13-3.02,5.74c0.71,0.5,1.01,1.01,1.51,1.21c0.1,0.04,7.97,3.12,8.26,3.12
		c3.22-0.5,6.25,0.91,9.47,0.5c4.47-0.56,2.72,2.93,15.32-4.94c1.61,0.6,3.32,1.12,4.94,1.81c14.34,6.19,26.97,2.21,33.86-3.93
		c5.9-5.26,3.54-8.57,0.3-14.71c-0.5,0-1.11-0.21-1.61-0.1c-5.1,1.06-9.21-2.04-13.1-0.6c-7.58-3.52-9.97-3.81-10.58-5.64
		c-0.97-2.89-5.05-6.53-7.46-8.36c-7.07-5.4,0.75-4.64-8.46-4.64c-1.23-4.92-1.34-24.41,0.91-30.13
		c9.45-24.09,4.88-22.19,9.07-41.72c5.2-3.52,5.54-8.26,7.46-15.01c0.43-1.51,0.5-3.02-0.1-4.64c0.81-1.31,1.71-2.72,2.52-4.13
		c0.05-0.1,12-36.47,13.81-47.46c2.05-12.44,0.91-12.49,0.91-19.05c1.51-7.56-9.42,2.97,36.07-21.36
		c2.19-1.17,14.24-10.63,25.7-15.22c0,3.47-1.72,4.28-1.01,10.18c0.38,3.16-0.79,9.85-0.2,14.01c0.48,3.42,2.04,9.59,4.23,11.79
		c0.35-4.36-3.21-7.97-3.02-16.93c0.18-8.26,1.61-16.43,2.72-24.49c0.71-0.5,1.31-1.01,1.91-1.61c0.32-0.63,0.03-1.21-0.91-1.21
		c-0.72,0-5.54,3.11-10.18,4.33c1.39,1.11,0.05,0.77,6.15-0.3c0.2,0,0.4,0.1,0.81,0.2c0,4.04,0.87,1.28-8.97,5.74
		c-10.43,4.73-14.36,9.37-16.32,10.48c-12.47,7.06-13.86,6.35-27.11,14.41c-3.16,1.92-9.49,5.1-13.2,5.84
		c-0.92-2.3-1.47-22.22-7.46-23.28c-0.51-0.09-0.91-0.2-1.31-0.3c0-3.19,6.65-17.12,6.65-23.08c-0.1,0,1.47-4.03,1.51-4.13
		c13.92-6.96,68.26-25.39,86.96-11.08c2.33,7,1.75,2.68,2.42,8.26c1.92,16.05,2.78,4.14,1.41,17.84c-0.5-0.6-1.01-1.01-1.51-1.61
		c-1.01,4.02,4.37,6.27,2.22,10.48c-0.21,0.42,0.18,3.57,0.2,4.94c0.81,45.99-2.66,37.84,2.72,59.35c0.81,3.23-1.74,3.13-0.81,9.67
		c0.31,2.19,0.18,3.77-1.51,4.74c-2.75,1.56-5.64,2.92-8.77,2.92c-3.28-2.13-2.02-3.64-2.02-10.48c0-0.4-0.3-0.81-0.6-1.71
		c-0.91,3.73,0.5,7.26-2.12,9.98c-1.61-0.91-1.9-2.21-1.51-3.93c1.54-6.88-0.56-8.31-1.11-11.99c-4.3-28.66-4.42-29.57-5.54-31.54
		c-0.96-0.48-0.73-1.06,0.71,4.94c0.44,1.84,1.82,21.86,5.14,32.04c1.51,4.64,0.09,3.48-2.42,6.05c-4.8,4.91-1.37,6.42-4.64,14.11
		c-1.9,4.47,1.02,5.02-1.61,10.28c-2.78,5.56,1.25,3.07-6.95,7.96c-1.32,0.79-2.72,1.31-3.43,2.92c-0.3,0.81-1.42,1.19-2.12,1.81
		c-3.64,3.26-1.76,4.4-2.22,8.06c-0.3,6.33-0.99,3.39,0.4,12.19c3.47,2.78,3.71,0.31,14.61,1.01c4.54,0.29,9.18,0.71,13.7,1.11
		c5.01,0.45,5.48-0.55,5.54,2.62c0.05,2.35,1.36,32.69,0.81,34.76c-6.15,0.88-23.77-0.84-24.59,0.2c-0.98,1.23-2.31,2.22-2.62,4.03
		c-1.81,10.47,0.45,10.6,1.11,13.4c8.87,0,17.53,0,26.4,0c1.06,7.42-1.34,34.23-1.81,37.08c-48.96,0-48.26-1.79-50.28,0.5
		c-3.77,4.27-1.89-0.83-2.52,11.39c-0.54,10.53-0.46,8.34,1.11,8.87c1.83-20.14-1.19-13.11,3.73-14.01
		c4.66-0.85,3.29-0.73,6.85-1.91c-6.05-0.47-6.45,0.84-9.48-0.43c1.01-2.1,2.2-2.99,4.24-2.89c47.52,2.38,46.15-1.09,46.15,2.72
		c-6.13,2.7-13.06,0.16-12.8,2.02c5.84,1.41,9.37,1.21,13.5-0.71c3.27-9.8,0.61-14.32,3.12-21.36c2.24-8.96-1.53-74.03-1.31-75.58
		c6.77,0.48,11.96,0.5,16.43,0.5c1.27,20.29-0.4,21.21,0.5,28.32c0.2-0.4,0.4-0.91,0.4-1.31c1.86-23.29-0.93-22.35,0.3-26.8
		c2.86-0.2,1.16-0.86,1.81,17.94c1.83,53.16-0.68,52.89-0.4,69.93c0.08,5.08,0.08,2.91-0.5,5.54c-1.02-1.02-1.54-0.55-1.01-8.16
		c0.49-7,0.53-5.77-0.22-7.39c-0.3,6.24-1.09,4.15-1.09,15.15c-0.71,1.71-0.1,3.22,0.81,4.74c3.33-0.6,6.85,1.01,10.68-0.81
		c-3.73-0.71-7.05-0.2-10.28-1.11c0.2-0.3,0.2-0.4,0.3-0.4c0.71,0,1.41-0.21,2.02,0c2.02,0.69,3.93,0.42,5.95,0.2
		c18.06-1.97,16.87,2.38,24.39,1.21c1.35-0.21,18-1.24,18.84-1.11c1.21-0.3,1.11-1.91,2.52-1.51c0,4.52,1.94,14.02,0.71,18.94
		c-6.96,4.64,3.59,0.15-31.24,1.31c-4.86,0.49-1.12-0.71-8.36-0.71c-57.27,0-29.15-2.02-82.93-2.02c-1.21,0-2.52-0.1-3.83-0.2
		c0.4,1.41,1.21,2.23,2.72,2.32c30.46,1.78,32.64,0.97,43.53,2.22c12.6,1.44,23.8,0.14,29.32,0.81c8.17,0.99,15.31,0.6,31.04,0.4
		c2.34-0.03,5.85,0.53,8.36,0.4c6.57-0.33,8.17,1.76,11.99-1.11c2.65-2,1.14-3.27,1.71-6.45c1.03-5.73,0.43-13.38-0.71-17.94
		C427.55,573.27,426.14,573.04,424.53,573.07z M202.63,193.97c0.01-0.2-0.03-16.38,1.01-24.68
		C204.05,171.14,204.86,189.89,202.63,193.97z M223.39,145.61c-0.1,0.1-0.32,0.22,0-0.1C223.39,145.54,223.39,145.58,223.39,145.61z
		 M256.75,139.46c0-0.09,0-0.2,0-0.3C257.8,139.16,259.19,139.46,256.75,139.46z M258.4,139.5c1.32,0.34,2.1,1.31,2.68,2.48
		C260.3,141.11,258.68,140.96,258.4,139.5z M222.59,159.01c0.08,0.16,0.16,0.27,0.25,0.41
		C222.58,159.46,222.33,159.52,222.59,159.01z M222.94,338.53c-0.05,0.16-0.03,0.03-0.05-0.05L222.94,338.53z M209.99,406.4
		c-7.58-4.55-9.07-59.82,1.31-52.9c-4.44,12.22-3.38,40.97,2.22,52.9C211.1,406.8,210.8,406.8,209.99,406.4z M219.56,390.37
		c-4.48,46.22-14.91-25.29-5.64-36.88c1.51,0.5,1.91,1.71,2.22,2.82c1.76,5.29,4.85,13.51,2.02,18.24c-2.85,0-4.03-0.08-4.03,0.3
		c-1.11,3.33-1.31,6.65-0.3,9.98C215.26,389.61,220.12,384.64,219.56,390.37z M220.87,387.96c0.13-0.26,0.07-0.25,0.2,0H220.87z
		 M220.87,385.64c-1.24-0.14-3.05-0.55-5.64-0.81c-1.31-2.12-0.91-4.33-0.91-6.55c0-3.69,1.99-2.2,7.46-0.71
		c1.01,2.12,0.47,4.34,0.71,6.55C222.57,384.93,221.68,385.64,220.87,385.64z M221.88,373.85c0,0.3-0.4,0.6-0.91,1.31
		c-1.06-5.3,1.25-6.9-3.53-19.65c-1.64-4.37-3.96-3.56-5.04-4.64c1.31-7.15,3.33-14.01,7.36-20.36c-0.81,3.33,0.33,6.34,1.11,9.37
		C225.46,357.79,224.02,361.03,221.88,373.85z M244.05,548.68c-0.2,1.01-0.33,2.11-0.6,3.12c-0.35,1.27-1.98,3.86-0.6,4.13
		c2.11,0.26,2.16-4.1,3.73-5.14c0.6,0.6,1.21,1.31,1.81,1.91c-0.3,2.12-2.72,3.53-1.91,5.95c1.94,0.49,1.24,0.98,4.43-3.02
		c1.21,0.6,2.42,0.91,3.33,1.71c0.1,1.51-1.31,2.82,0,4.23c1.61,0,2.12-1.71,3.33-2.52c3.63,1.98,3.33,1.23,3.33,3.73
		c10.67-1.94-2.64-2.43,13.5-1.81c1.21,2.52,2.42,4.94,3.63,7.36c-0.91,2.62-2.95,4.08-5.24,5.44c-4.21,2.5-7.36,4.42-12.5,4.13
		c-2.71-0.34-3.79,1.61-10.48-0.2c-12.43-3.37-8.71-5.2-16.43-3.02c-1.01,0.29-1.51,1.11-1.61,2.12c0,0.79-4.35,2.32-6.05,2.22
		c-3.72-0.24-12.75-0.08-20.05-3.33c8.75-26.26,4.59-23.9,9.47-27.81c0.1-0.1,0.4,0.1,0.71,0.2c-0.3,0.4-0.71,0.91-1.11,1.41
		c6.48,4.86,4.6,6.77,8.57,8.06c2.51,0.82,4.94,0.6,6.55,0c11.94-11.45,7.54-6.36,6.35-13.2c-0.1-0.91-0.3-1.81-0.5-2.72
		C238.57,540.18,239.42,542.51,244.05,548.68z M248.08,384.63c-1.71-0.5-2.12-0.7-2.32-1.41c-0.78-2.76-0.41-7.33,2.12-5.64
		C248.23,378.73,248.26,383,248.08,384.63z M248.48,370.22c-1.48-0.25-0.55-1.66-0.2-1.31
		C248.89,369.31,248.89,369.72,248.48,370.22z M251.71,354.2c0.94-2.51,1.91-3.12,5.14-2.82c-7.95,28.62,1.91,53.13,1.91,53.61
		C248.31,409.74,248.07,363.88,251.71,354.2z M267.13,390.37c-0.5-1.51-0.71-2.92,0.3-4.13
		C267.33,387.65,267.23,388.96,267.13,390.37z M266.82,384.03c-0.2-3.6-0.37-4.13,0.1-4.84
		C268.68,380.07,268.23,380.62,266.82,384.03z M266.62,375.76c0.1-0.3,0.5-0.6,1.11-1.21c0.2,0.71,0.4,1.21,0.3,1.51
		C267.65,377.23,266.11,376.79,266.62,375.76z M266.22,392.69c0.1,0,0.1,0,0.2,0C266.14,394.37,266.22,396.01,266.22,392.69z
		 M259.17,351.88c0,0.62,0.55,0.39-1.01,0.91C258.66,352.28,258.96,352.08,259.17,351.88z M260.78,353.59
		c6.18,13.12,4.74,52.11,0,50.08c0.6-0.5,1.11-1.11,0.91-1.91c-0.5-0.3-1.31-0.3-1.61-1.01c-4.32-15.13-4.03-35.08-2.32-43.03
		C258.27,355.31,258.36,355.31,260.78,353.59z M264.75,326.28c-2.75-0.44-1.67,2.62-2.56,5.55c-4.63,15.29-5.25,15.25-6.05,17.23
		c-9.33,1.87-3,4.01-8.16,17.13c-1.53,3.89-4.12-4.42-8.46-8.16c-3.04-20.05-0.81-20.15-0.81-24.29c1-18.56-1.37-12.02,15.12-13
		c5.96-0.36,6.79-0.22,7.05,0.71c-0.8,1.61-1.54-0.49-11.29,1.81c-1.56,0.37-3.09,0.68-4.65,0.97c0.37-0.41,0.75-0.8,1.12-1.17
		c-1.11,0.3-1.11,0.3-2.32,1.21c0.23,0.08,0.48,0.15,0.77,0.23c-3.12,2.99-3.63,2.06,6.49-0.23c2.72-0.62,5.34-1.51,8.36-1.51
		C260.04,327.15,265.91,319.85,264.75,326.28z M265.01,320.34c-10.72-2.38-5.58-0.1-16.43-1.01c-3.76-0.31-8.86,0-8.97,0
		c-0.45-0.67-2.51-15.41-2.52-15.52c-0.21-1.61,1.26-6.32,2.62-11.99c2.33-9.69,2.04-3.02,4.95-4.3c0.16-0.8-0.11-1.13-3.03-4.06
		c0.1-1.51,0.3-3.02,0.4-4.43c1.31-0.71,2.52-1.09,3.83-1.21c12.22-1.08,10.58-2.28,29.42-3.33c0.3,3.02-0.2,5.64-1.21,8.16
		c-0.5,1.24-7.26,19.67-6.85,23.68C267.67,310.64,265.77,318.92,265.01,320.34z M350.66,519.76c0.86-0.12,3.19-0.85,2.42,1.21
		C349.95,520.19,350.66,520.62,350.66,519.76z M341.39,519.76c-2.72,0.5-5.44,0.3-8.26-0.1
		C335.95,518.95,338.67,519.36,341.39,519.76z M353.28,533.77c-3.83,0.4-22.77,0.2-25.49-0.2c-0.6-3.22-0.5-9.27,0.3-12.8
		c17.54,3.51,18.45,0.62,25.09,2.52C353.41,529.7,353.69,530.91,353.28,533.77z M375.85,518.35c1.31,0.4,2.02,0.89,2.82,0.91
		c3.33,0.05,6.55,1,9.88,0.81c3.53-0.21,7.05,0.05,10.58,0.1c0.91,0.01,1.51,0.5,1.71,1.71c-8.36-0.81-16.63-0.2-24.99-1.51
		C375.85,519.86,375.85,519.26,375.85,518.35z M375.85,522.48c15.74,0,2.13,1.01,24.29,1.01c0.6,0,1.31,0.2,1.91,0.3
		c0.6,4.03,0.2,6.85-1.51,10.48c-8.26,0-16.53,0-24.79,0c0-0.81-0.1-1.31-0.1-1.91c-0.2-2.82,0.36-5.63-0.4-8.46
		C375.14,523.49,375.65,522.88,375.85,522.48z M321.04,477.34c-0.71-1.31-0.81-2.42-0.6-3.63c0.76-4.45,0.13-4.46,0.71-13.6
		c5.81-4.26,4.78-4.4,7.15-5.34c2.69-1.06,4.55-3.06,6.55-3.33c2.84-0.38,6.51,2.34,14.01,1.11c4.33-0.71,8.57-1.71,12.8-2.72
		c5.54,1.71,21.16,2.72,28.22,1.71c5.04,2.52,10.08,5.04,15.01,7.46c0.71,7.15-0.4,14.11-1.31,20.86
		C394.14,479.36,321.14,477.36,321.04,477.34z M375.25,575.49c-0.47-2.1,3.53-0.76,5.44,0.2
		C378.88,576.09,377.06,576.19,375.25,575.49z M413.44,577c-3.56-0.47-7.62,0.23-8.77,0.3c-15.47,0.94,3.98-2.39,12.8-1.11
		C416.16,577.1,414.95,577.2,413.44,577z"/>
	<path d="M205.46,206.37c0,0.13,0.09,0.26,0.17,0.36C205.34,203.5,205.46,203.62,205.46,206.37z"/>
	<path d="M210.9,170.2c-0.06,0.32-0.12,0.73-0.12,1.6C211.09,171.34,211.43,171.24,210.9,170.2z"/>
	<path d="M335.85,376.47c-0.44,0.58-0.18,0.91,0.3,1.2C336.05,377.27,335.94,376.87,335.85,376.47z"/>
	<path d="M372.33,559.56c0.07,0.2,0.1,0.23,0.1-0.1L372.33,559.56z"/>
	<path d="M227.93,167.88c-0.24,0-0.17,0.03-0.1,0.1L227.93,167.88z"/>
	<path d="M606.01,307.44l0.1-0.1C606.11,307.34,606.14,307.31,606.01,307.44z"/>
	<path d="M632.51,6.65c0.55,0,0.93-0.1,1.81-0.1C633.52,5.95,633.01,6.05,632.51,6.65z"/>
	<path d="M602.68,84.14l0.1,0.1C602.78,83.76,602.81,83.92,602.68,84.14z"/>
	<path d="M614.88,19.95c0.09-0.03,0.1-0.06,0.1-0.1L614.88,19.95z"/>
	<path d="M698.41,574.88c-0.06-2.75-2.75-3.26-5.24-3.12c-3.28,0.17-6.31-0.63-16.63,0.2c-8.36,0.67-16.6,1.14-24.99-0.3
		c-2.01-0.34-3.93-0.5-6.05,0c-1.6-7.6,0.05-31.62,0.1-33.66c0.05-2.13,0.19-2.65,3.43-2.62c20.98,0.17,21.3,0.77,24.69-1.01
		c1.06-13.05,1.38-12.45-1.01-16.63c-19.53-2.3-1.27,0.9-26.8-2.02c0-4.71-0.07,13.6-1.41-33.25c-0.08-0.48,0.05-1.91,0.5-1.91
		c27.06,0,31.54,2.78,31.54-1.41c1.65-25.31,2.58-21.19-8.36-28.11c-2.99-1.89-3.06,0.24,2.12-3.53c4.67-3.4,9.14-6.55,6.35-12.39
		c-2.13-4.46-2.57-5.56-3.53-5.24c-5.08,1.69-9.3-1.87-13.7-0.4c-18.39-7.49-4.31-3.23-18.94-14.61c-5.23-4.79,0.41-4.13-6.95-4.13
		c-1.13-3.16,1.51-11.14,2.72-31.64c0.26-4.48,1.28-5.23,4.64-30.73c0.72-5.51-0.18-10.8,1.91-16.22c5.23-3.14,5.75-8.78,7.76-16.22
		c0.1-0.5,0.1-0.91,0.2-1.91c-3.62,4.23-1.22,6.17-7.15,14.41c-0.8,1.11-1.51,2.32-2.32,3.53c0.81,1.61-0.81,1.91-1.61,3.02
		c-1.88,15.01,1.56,3.43-3.02,30.94c-1.12,6.7-0.99-4.65-3.63,26.1c-1.69,1.13-2.52,1.59-2.52,27.41c1.11-0.4,0.2-1.81,1.51-2.82
		c0.91,0.2,0.71,1.11,1.01,1.71c1.08,3.23,2.86-0.19-5.84,9.27c-3.78-1.03-6.64-0.55-8.67-3.83c-2.89-4.68-2.11,0.49-3.02-9.98
		c0-25.97-5.14-44.15-5.14-60.06c0-9.61,1.62-10.22,7.56-24.79c0.51-1.25-0.63,2.88,3.83-13.91c0.46-1.72,0.5-0.71,0.5-15.82
		c0-4.31-0.86-4.73-2.72-15.92c-0.41-3.71-3.04-7.2-1.61-16.22c1.81-11.45,0.5-11.99,2.02-11.99c2.62,0.5,5.34,0.71,7.86,1.51
		c4.45,1.41,3.65-1.38,5.04,0.71c1.05,2.11,3.07,1.08,6.05,0c0.71,0.1,1.51,0.61,2.22,0.5c4.46-0.69,2.24-3.43,4.74-2.32
		c1.02,7.13,2.33,18.54,7.26,19.25c5.46,0.78,6.2-1.39,8.26-2.42c-0.2,1.21-8.95,33.23-9.67,35.17c-4.11,0-4.9,2.67-7.76,5.84
		c0.81,0,1.21,0.1,1.61,0c8.13-3.7,5.77,1.53,13.2-22.87c6.65-21.82,13.79-33.05,6.25-98.95c-0.94-8.23,1.38-9.24,2.02-19.65
		c0.62-10.16,10.02-28.42,7.96-35.87c-1.11-4.02,5.11-2.99,7.05-10.18c1.44-5.36,0.09-13.78-4.13-20.15
		c-2.08-3.13-6.76-5.82-22.98-17.63c-4.28-3.12-2.23-4.22-8.16-12.7c0.36-6.06-0.08-7.29,3.93-11.89
		c2.46-2.83,14.51,1.09,14.51-4.13c0-3.33-0.11-3.98,0.6-4.84c0.92-1.1,0.91-2.42,0.2-3.43c0.5-1.01,1.11-1.81,1.31-2.62
		c0.2-0.81-0.81-1.71,0-2.72c1.21-1.11,3.53-0.6,4.43-2.82c-10.05-18.84-0.11-6.95-5.44-25.8c-0.27-0.96-2.42-7.07-3.12-7.76
		c-6.34-6.22-4.47-5.2-16.22-9.27c-23.62,2.36-19.9,4.4-25.49,7.76c-3.79,1.98-3.73,4.31-5.24,5.44
		c-3.47-0.87-15.97-9.18-17.33,10.58c-0.22,3.11-2.49,34.42,0.71,34.94c1.03,33.73,1.73-12.06,2.72-12.06
		c0.86,12.88-0.78,21.73,1.11,23.28c-0.68-9.46,0.12-25.92-0.6-28.22c-1.17-3.7,1.01-8.59-0.4-11.49c-0.15-0.3,0.62-8.07,2.22-13.91
		c0.69-2.53,1.48-3.63,6.45-3.02c1.01,0.12,1.41,0.71,1.11,1.81c-3.39,1.7-3.47,0.93,3.43,2.02c2.87-6.89,14.09-8.4,17.02-10.45
		c-3.78,0.37-12,4.12-10.17,2.29c7.75-5.69,10.22-4.27,16.32-6.05c4.62-1.35,9.27-1.71,14.01-0.1c0.48,0.69,0.98,1.64,2.11,1.79
		c1.06,1.92,0.72,1.03-2.31,0.12c-6.05-1.81-5.26-1.15-6.45-0.71c14.46,4.34,12.89,8.06,14.51,8.06c4.62-0.99,4.72,9.68,6.25,15.22
		c-2.02,3.02-1.1,6.14,0.5,9.17c4.15,7.83,5.92,5.5-3.53,7.86c2.52,1.11,2.72,2.62,2.12,4.33c-1.51,1.21-3.43,0.5-4.84,1.61
		c1.21,1.71,2.52-0.2,3.63,0.4c2.26,1.76-1.67,2.68-0.91,6.75c0.68,7.49-11.04-1.53-16.12,6.45c-2.86,4.49-1.75,5.75-3.33,8.06
		c-1.65,2.06,1.85,2.99,3.1,10.28c-1.61,0.04-6.62-5.05-14.2-6.34c-0.4-1.46-0.62-1.12-4.93-1.12c-11.04,0.61-1.01,0.93-3.53-24.39
		c-0.12-1.21,0.6-2.12,0.81-3.33c-4.37-4.37-7.01-5.24-8.26-10.58c-0.11-0.48,0.71-1.52,0.3-1.11c-2.05-3.36-1-7.23-1.81-9.57
		c-0.49-1.42-0.4-2.72-0.2-4.13c0.1-0.4,0.4-0.71,0.91-1.41c1.15,4.62,2.3,9.29,6.82,11.43c0.42,0.89,1.19,1.17,2.05,1.27
		c-0.33-0.68-0.83-1.18-1.55-1.4c-1.8-3.71-1.98-2.23,3.57-1.12c-5.63-4.5-6.42-4.46-6.16-5.51c3.43,0.99,4.67,2.26,4.77,2.16
		c1.43,0.46,0.43-0.5-0.34-0.5c-11.09-7.97-10.97-10.16-11.47-0.78c-0.24,4.45-2.06,5.96-3.02,10.48
		c-3.08,14.44-0.45,13.99-2.12,17.33c-2.91-5.83-0.2-11.04-0.2-17.43c-2.15,5.38-2.9,13.41-1.31,20.66c0.64,2.92-0.21,7.47-0.61,7.7
		c-0.18,0.8,0,1.78-0.49,2.28c-1.67,2.04-0.31,4.64-2.12,8.77c0.2-4.74,0.71-9.37,1.01-14.01c0.87-13.52-0.36-15.2-0.4-13.5
		c-1.09,44.99-3.73,37.62,0,30.63c0.4-0.91,1.11-0.6,1.91-0.81c-0.55-6.36,4.8-17.78,4.13-30.43c-0.28-5.4,1.5-12.28,2.52-13.81
		c0.92,2.76,0.43,5.57,6.35,11.59c1.26,1.28,2.73,1.95,2.52,4.03c-0.47,4.77,0.75,6.57,0.3,11.99c-1.27,15.28-3.74,11.51-7.86,22.17
		c-0.9,2.33-8.11,13.33-5.34,24.99c0.41,1.71,0.11,3.73,0.81,5.24c2.79,6.04-0.7,10.57,3.53,21.77c3.13,5.21,3.4,11.88,3.33,12.09
		c-1.49,4.39,1.07,10.87-1.01,13.1c-0.96,15.41-0.94,13.64-0.6,17.63c1.6,19.17,2.55,8.63-4.84,19.65
		c-2.58,3.84-4.92,5.51-4.74,7.66c0,0.81-0.4,1.61-0.71,2.32c-7.34,16.82-6.24,52.07-1.01,65.9c0.9,2.38,0.9,2.93,2.22,21.77
		c0,2.36,1.08,5.87-2.22,10.28c-0.93,1.24-2.78,5.51-7.05,9.67c-0.68,0.67-3.44,4.13-3.43,4.84c0.08,3.66-3.13,5.4-5.04,12.7
		c-2.34,8.96-2.17,4.57-2.72,8.67c-4.55,33.96,2.21,18.53-6.65,56.93c-1.31,0.1-2.42,0.2-3.53,0.3c-1.01,1.01-1.91,1.91-2.72,2.92
		c-3.41,4.26-7.81,3.99-11.29,5.24c-4.53,1.63-0.69,3.04-9.57,6.85c0.74,4.1,2.67,7.59,2.42,8.87c-0.78,5.43,8.31,12.02,12.7,15.32
		c0.1,4.03,1.61,7.96,2.52,11.69c7.2,7.2,5.83,7.65,18.34,13.91c-0.51,10.62-1.75,15.86,4.53,15.42c9.02-0.63,25.71,0.58,29.73,1.31
		c0.34,20.84,1.18,26.35,1.01,36.48c-2.43,1.21-7.12,0.3-20.15,0.3c-2.86,0-3.52-0.92-4.43,0.1c-0.9,1.01-2.21,1.81-2.52,3.22
		c-2.07,9.54-0.42,11.06,0.71,14.21c8.87,0,17.43,0,25.8,0c2.44,2.03-0.99,37.08-1.01,37.18c-59.92,0-51.63-6.31-53.21,17.13
		c-0.32,4.82,1.51,4.34,1.81,1.81c1.27-10.41,0.2-11.18,0.2-14.51c1.41,2.22,3.13,2.37,5.04,1.91c13.32-3.15,1.69-1.39-1.71-1.61
		c-0.71,0-1.41-0.71-2.22-1.11c1.31-3.28,1.83-2.17,25.29-1.11c7.44,0.34,11.77-1.1,19.75-0.1c4.83,0.34,4.23-0.91,5.04,1.51
		c-4.64,2.32-9.47,1.21-14.01,1.91c4.84,1.11,9.67,2.02,14.31-0.4c2.99-8.26,1.01-17.09,3.12-20.96c1.71-3.12,0.17-53.04,0-57.64
		c-0.7-19.48-2.2-15.66-1.31-18.34c5.34,0.1,10.68,0.3,16.22,0.4c1.61,9.57,0.71,19.15,0.5,28.72c1.84-3.67,1.1-21.12,1.01-24.99
		c-0.05-2.13-0.18-3.63,0.91-3.63c1,0,0.8,1.7,0.81,2.32c0.03,4.84,0.71,38.05,0.71,50.99c0,23.97-0.91,9.69-0.91,39.7
		c-3.58,1.99-0.18-10.36-1.71-15.72c-0.01,0.1-1.86,16.64-0.5,20.15c9.66,1.24,18.22-1.11,0.91-1.11c0.3-0.6,0.5-1.11,0.6-1.11
		c6.89,1.47,10.49-0.44,18.34,0.1c0.49,0.03,6.01,0.37,6.55,0.81c3.42,2.28,7.46,0.2,16.73,0.2c8.66-0.51,2.31,0.58,9.67-0.81
		c2.64-2.12,1.59-4.6,2.52,6.25c0.59,6.95,0.82,6,0.4,10.98c-3.71,5.19-9.37,0.52-29.63,1.61c-8.44,0.46-4.21-0.71-8.26-0.71
		c-0.1,0-25.75,0.71-49.07-1.21c-7.1-0.59-37.94-1.56-39.3-0.2c2.65,3.54,10.99,0.7,44.44,3.63c21.94,1.92,21.55,0.04,27.91,0.6
		c17.65,1.57,43.46,0.37,47.97,1.21c2.12,0.39,4.23,0,6.05-1.41c2.53-2.28,1.16-3.01,1.81-7.56
		C699.42,584.76,698.51,579.82,698.41,574.88z M646.52,517.44c2.02,1.21,3.27,0.97,7.46,1.41c1.21,0.13,2.42,0.41,3.53,0.3
		c3.83-0.38,7.56,0.3,11.29,0.1c1.48-0.3,1.82,0.72,2.22,1.31c-3.66,0.24-21.27-0.83-24.99-1.11
		C645.81,518.65,645.51,517.95,646.52,517.44z M655.49,522.18c0.12,0.03,7.16,0.6,10.58,0.3c4.62-0.4,5.36,0.28,6.25,0.5
		c-0.1,3.63,0.5,7.15-1.71,10.18c-8.01,0-24.41,0.06-24.89,0c-0.3-3.93,0.2-7.66-0.5-11.69
		C649.04,521.78,652.26,521.07,655.49,522.18z M600.26,56.33c0,0.77,0.08,1.53-0.6,2.13C599.59,26.32,602.13,24.64,600.26,56.33z
		 M614.37,14.41c-1.22-0.3-1.11,0.2-1.11-0.4C614.54,14.01,614.37,14.11,614.37,14.41z M622.18,9.59c-0.27,0.65-0.74,0.61-1.23,0.52
		C621.32,9.95,621.74,9.76,622.18,9.59z M654.58,3.63c0-0.4-0.02-0.11,0.06,0.04C654.62,3.66,654.6,3.65,654.58,3.63z M654.89,3.91
		c0.54-0.09,1.07-0.12,1.36,0.52C654.76,4.43,654.89,4.57,654.89,3.91z M656.33,4.55c1.76,0.79,1.78,0.81,2.58,2.5
		C658.13,6.08,656.69,5.84,656.33,4.55z M622.63,29.02c-0.12,0-0.29,0.03-0.29-0.2C622.46,28.89,622.55,28.95,622.63,29.02z
		 M620.68,24.25c0.17,0.19,0.35,0.43,0.52,0.61C620.78,24.84,620.6,24.62,620.68,24.25z M613.36,518.65
		c10.57,0.33,10.17-0.79,9.67,1.21c-7.11-2.21-14.38,0.92-20.25-2.02C606.81,518.15,610.14,518.55,613.36,518.65z M623.14,532.76
		c-27.24,0-24.17,0-25.7-0.5c0-19.28-1.45-9.81,17.74-10.78c2.52-0.13,5.14-0.1,7.96,0.81
		C623.64,526.01,623.64,529.94,623.14,532.76z M618.2,427.05c1.87,2.85,8.36,3.43,10.78,1.01c4.14-4.14,8.24-7.54,5.64-9.27
		c-0.79-0.79-0.73-2.29-1.41-5.95c3.13-1.1,3.73,1.01,8.57,7.36c-0.61,3.05-0.59,3.39-1.81,6.45c1.98,2.97,2.85-3.71,4.43-4.23
		c2.44,2.44,2.02,1.39,0.4,4.64c-0.65,0.98-1.24,2.29-0.4,3.12c1.13,1.13,2.57-0.75,4.33-3.22c1.31,0.71,2.62,0.81,3.43,1.91
		c-0.3,1.31-1.11,2.42-0.3,3.73c2.02,0.3,2.22-2.02,3.73-2.32c3.08,1.85,2.87,0.85,3.43,3.63c2.32,0.2,3.73-1.21,4.74-2.02
		c3.02,0,5.64,0,8.26,0c1.31,2.62,2.62,5.14,3.93,7.86c-0.5,0.81-1.01,1.71-1.71,2.52c-1.51,1.72-8.27,5.52-10.58,6.15
		c-3.64,0.98-7.46,0.6-11.19,1.31c-1.27,0.36-6.3-1.07-7.56-1.51c-6.29-2.21-8.14-4.14-13.2-2.52c-1.31,0.5-2.32,1.11-2.22,2.92
		c-1.51,0.71-2.72,1.21-3.93,1.61c-2.54,1.27-18.43-1.71-18.54-1.71c-1.21,0-2.42-0.6-3.22-1.51c0.81-3.12,1.44-6.13,2.52-8.97
		c4.56-12.01,2.18-15.74,6.25-18.14C612.56,423.34,614,420.66,618.2,427.05z M610.64,380.7c0.82,12.35-0.17,20.36,2.62,32.65
		c0.3,1.31,0.2,2.62-0.2,3.83c-5.76,1.52-6.63,16.27-8.06,18.74c-2.26,3.92-0.9,7.16-3.83,10.48c-0.78,1.16-0.53,1.08,0.71,2.62
		c-1.31,0.71-2.52,1.41-3.73,2.02c-1.61-1.91-1.59-1.92-1.71-4.23c-0.61-11.32-2.07-11.77-0.3-16.02c2.37-5.71,2.33-8.39,2.42-11.99
		c0.05-2.16-1.65-2.61-3.02-3.53c0-14.73-0.26-14.78,0.81-18.34c1.82-6.1,1.89-9.88,3.73-14.31c9.31-22.48,7.64-19.29,8.46-14.41
		C608.59,368.56,610.34,376.22,610.64,380.7z M612.46,253.53c-1.41-3.22-1.51-5.84-0.3-8.77c1.49-0.5,1.07,0.16,7.46,1.01
		c1.21,2.32,0.71,5.34,1.51,8.06C617.9,254.84,615.28,253.33,612.46,253.53z M612.86,255.75c1.31,0.2,2.72,0.3,4.13,0.5
		c0.91,5.85-1.84,16.55-3.63,18.34c-5.04-2.52-9.1-38.76-3.33-50.99c1.54-3.27,3.13,0.28,4.03,3.53c1.42,5.14,3.12,10.28,1.91,15.82
		c-1.51,0.81-3.33-0.3-4.94,0.71C610.33,247.12,609.57,253.83,612.86,255.75z M645.11,253.23c-1.96-4.07-3.02-12-0.5-11.29
		C645.41,245.47,645.61,250.81,645.11,253.23z M650.35,270.06c-2.88-8-3.5-16.37-3.63-25.09c-0.05-3.42,1.08-2.08,0.4-6.95
		c-0.63-4.58-0.82-2.94,1.01-12.6c0.23-1.19,1.02-4.53,2.62-5.14c5.03-1.92,2.75,0.27,1.71,5.84c-2.17,11.63-1.7,36.67,3.93,47.26
		C652.36,273.58,651.48,273.21,650.35,270.06z M658.61,272.58c-0.52-0.24-0.06-0.2,0.04-0.2
		C658.63,272.44,658.61,272.5,658.61,272.58z M658.98,271.98c0.4-2.43,0.98-2.03-1.18-2.03c-2.87-7.42-4.73-26.03-2.62-43.43
		c0.24-2.01,1.11-3.53,2.82-4.74C663.84,231.52,663.37,270.47,658.98,271.98z M655.95,221.17c0.14-0.37,0.09-0.53,0.44-0.18
		C656.3,221.07,656.13,221.09,655.95,221.17z M663.45,264.52c-0.05-0.14-0.22-0.91,0-0.91
		C663.45,264.65,663.88,264.52,663.45,264.52z M663.85,260.28c0-4.3-0.27-3.06,0.71-4.03C665.26,257.86,664.35,258.97,663.85,260.28
		z M666.37,234.89c0.22,6.99-0.95,17.85-1.21,18.64c-0.1,0.5-0.4,0.81-1.11,0.6c-1.01-3.36,0.62-19.78-5.04-33.56
		c-0.98-2.39-3.79-2.41-7.26-2.22c-2.42,0.14-4.33,1.91-4.33,4.33c0.05,0.94-1.39,11.99-1.41,12.09c-1.31-2.32-3.09-3.95-4.53-5.84
		c-1.48-1.94-2.52-4.23-4.64-5.74c-0.3-1.41-0.71-2.92,0.6-4.43c11.5,2.03,1.87,0.06,0.1-1.71c0.4-0.71,0.71-1.41,1.01-2.12
		c4.07,0.58,4.03,1.12,4.03,0.4c-4.47-2.41-3.73-1.48-3.73-4.33c-0.1-0.5-0.2-0.91-0.91-0.91c-1.61,1.81-1.01,4.23-1.51,6.55
		c-0.91-1.51-1.19-2.92-1.11-4.33c0.24-4.03-0.35-7.97,0.6-11.99c0.82-3.44-0.57-7.12,1.31-8.06c5.8,1.27,22.44,5.41,26,6.65
		C664.68,220.47,665.79,216.24,666.37,234.89z M672.41,144.9c-10.64,30.28-6.35,21.42-8.36,34.36c-2.08,13.38-0.81,12.03-0.81,17.03
		c-0.87,0.22-0.23,0.64-3.12-0.4c-30.13-10.86-21.75-0.86-23.48-13.7c-1.19-8.89-2.52-13.46-1.71-16.43
		c1.73-6.39,3.01-12.57,4.03-14.61c1.37,0.1,2.09,1.62,3.52,1.51c-0.04-1.15-0.83-1.83-1.6-2.52c-1.97-2.36-2.18,0.8-1.11-6.15
		c1.16-0.88,22.23-4.53,33.15-4.53C673.02,141.48,673.02,143.19,672.41,144.9z M647.83,82.73c-0.08-0.16-0.11-0.27-0.16-0.4
		C647.93,82.31,648.17,82.3,647.83,82.73z M612.56,111.65c-0.49-2.12-0.1-4.23-1.11-6.25c-0.29-0.59,1.01-19.38,6.95-20.15
		c1.27,0-2.56,0.08,7.86-3.93c1.01-0.3,0.91-0.4,1.81-2.22c-3.53,1.21-6.85,2.52-10.08,4.23c-0.05-2.05,2.2-5,3.83-6.25
		c3.65-1.06,7.39-0.84,11.03-0.81c0.49,1.56-1.76-0.06-1.76,1.71c5.39,0,2.21-1.03,10.18,5.14c0.18,0.18,1.69,0.12-0.71-2.12
		c2.73-0.05,4.98,3.1,10.08,5.14c1.63,0.65,6.26,3.75,7.15,5.54c0.71,1.71,0.92,2.09,15.32,10.58c1.33,0.88,3.43,2.1,5.44,7.66
		c7.94,21.97-4.59,15.73-5.14,25.6c0,0.6,0,1.11-0.1,1.81c-9.68,1.21-14.85,0.57-23.28,3.33c-3.22-1.21-6.35,0.2-9.37,0.2
		c-0.71-4.53-0.3-15.62,0.71-19.45c7.72-1.58,10.48-7.37,13.7-14.41c2.22-4.84-0.02-11.46-3.53-14.11c-3.71-2.8-3.26-3.98-5.74-5.84
		c0.2,1.01,0.2,1.51,0.4,1.81c1.61,2.02,2.41,4.54,4.03,6.55c1.59,1.96,3.44,7.47,2.52,13.3c-0.42,2.65-5.76,9.16-11.69,10.78
		c0.2-4.03,0.59-7.77,1.91-11.29c2.99-7.91-2.35-1.88-2.92,2.92c-0.9,7.62-0.92,38.2-3.93,45.55c-2.18,13.52-3.78,4.84-1.61,16.02
		c3.7,19.09,0.93,11.6,0.3,18.24c-1.21,12.84-0.4,17.65-0.4,26.3c1.61,2.32,1.31,5.14,1.91,7.66c2.6,2.13,1.93,0.36,8.87,10.58
		c0.9,1.32,1.31,2.72,1.01,4.33c-0.47,0.94-0.83,0.61-2.32,1.11c-2.3,3.57-1.21,8.56,0,14.31c-2.22,0.74-2.45,1.08-3.02,0.6
		c-1.21-1.81-0.6-4.43-3.02-5.84c-0.2,2.12,1.11,3.63,1.11,5.44c-1.41,0.71-2.82,1.21-4.43,0.81c-0.94-2.58-3.48-8.2-4.43-5.64
		c0.3,1.61,1.91,2.72,1.81,4.53c-4.14,3.1-5.08-4.15-7.46-5.34c-0.6,1.61,1.31,2.82,0.81,4.33c-0.2,0.1-0.5,0.3-0.6,0.2
		c-1.51-1.51-2.62-3.22-2.42-5.54c0.41-4.87,0.18-3.96-0.4-9.77c-0.46-2.98,0.1-2.75,1.21-10.48c0.29-2.02,1.01-3.73,2.72-4.84
		c-0.2-3.33-2.62-6.15-1.61-9.57c0-0.1-0.91-4.73-1.11-5.54c-0.63-2.6-1.82-0.54-1.51-4.23c0.23,0.23,0.02,0.05-0.27-0.4
		c0.16-0.06,0.31-0.12,0.47-0.2c0-0.71-0.1-1.21-1.01-1.41c0,5.19-4.41-33.59-1.91-38.59c1.61-0.54,0.57,0.16,0.6-3.33
		c0.15-13.09-0.78-9.16-0.3-17.74C610.25,114.64,615.97,126.4,612.56,111.65z M608.43,207.98c2.03-4.33,4.83-8.3,6.55-12.9
		c1.05-2.82,2.59-0.69,2.42,2.22c-0.33,5.53,1.29,7.18,2.32,13.5c1.92,11.87,1.95,12.81,1.81,13.6c-1.53,8.68-2.85,12.54-1.91,16.63
		c0.18,0.81,0,1.61-0.1,2.62c-0.4-0.4-0.81-0.5-0.91-0.81c-1.01-3.25-0.87-21.36-9.47-23.08c0-1.51,0-2.72,0-4.13
		c-1.91,1.11-1.91,3.12-2.72,4.74c-0.71,0.2-1.61,0.5-2.92,0.81C603.49,219,608.01,208.88,608.43,207.98z M605.5,273.18
		c-3.75-8.38-6.15-28.4-2.42-47.26c0.79-3.98,2.09-4.42,5.33-3.95c-1.04,5.83-4.58,16.82-1.2,40.53c0.4,2.82,1.24,6.8,3.43,12.5
		C607.72,275.6,606.41,275.2,605.5,273.18z M580.51,402.47c2.1-2.63,3.42-12.49,3.63-14.91c0.64-7.54,2.57-12.45,1.31-16.02
		c-1.08-3.05,1.87-10.06,2.22-31.74c0.07-4.2,11.08-20.99,11.08-21.97c0.68-4.11,6.65-10.17,7.03-10.17c0-0.12,2.01-1.53,2.25-5.35
		c2.13-34.19-4.33-22.5,7.96-27.31c0.95,1.9,2.54,10.63,2.82,12.39c4.86,29.94,2.37,22.44-9.37,57.14
		c-2.86,8.44-0.27,8.63-2.12,13.5c-6.97,18.36-4.13,14.56-7.36,20.66c-4.6,8.7-2.69,13.1-5.14,15.72c-1.33,2-0.85,18.7-1.61,19.65
		c-0.9,1.11-0.1,2.22-0.4,3.22c-4.13,2.12-7.66,0.91-10.98-1.91C583.92,412.82,577.1,406.74,580.51,402.47z M588.27,460.31
		c-2.68,0-7.97-3.64-10.18-5.14c-1.09-0.74-2.68-3.58-3.43-4.43c-5.95-7.74-2.42-12.18-9.88-18.34c-2.21-1.82-4.03-3.93-6.05-5.95
		c-2.16-2.42-0.75-1.47-2.72-8.97c-0.3-0.91-0.3-1.81-0.5-2.62c6.82-2.98,3.48-5.79,9.77-7.05c11.8-2.37,11.02-9.44,13.5-6.55
		c-1.11,2.52-1.51,5.14-0.6,7.86c0.36,1.44-2.3,4.82,2.22,8.06c12.41,8.92,19.62-8.07,15.92,7.66c-0.51,3.55-5.16,1.58-9.27,5.14
		c1.59,2.28,4.55-0.15,6.75,0.4c-0.3,0.81-0.5,1.51-0.71,2.12c-1.71,0.91-3.93,0.6-4.84,2.62c1.31,2.02,3.33,1.01,5.14,1.51
		c0.5,1.31,0.81,2.72,0.4,4.23c-1.01,0.81-1.81,1.51-3.02,2.52c4.5,1.5,3.53,0.59,3.53,5.95c-0.71,0.5-1.31,0.81-1.81,1.11
		c-0.1,1.71,1.61,1.31,2.62,2.02c-1.11,1.31-1.81,2.62-3.02,3.53C590.49,457.18,589.08,458.59,588.27,460.31z M630.39,477.74
		c-12.68-0.74-25.68-0.88-26.8-1.11c-8.45-0.89-9.95,0.36-12.7-0.1c-1.11-4.03,0.31-8.06-0.1-11.99c-0.2-1.91,0.1-3.73,0.6-5.64
		c4.43-3.12,8.97-6.15,13.5-8.87c1.41,0.4,2.81,0.62,3.83,1.31c1.39,0.93,2.72,0,4.13,0.3c3.42,0.73,8.07,0.34,8.77,0.6
		c5.72,2.16,10.87-5.96,15.62-4.23c1.4,0.51,6,2.39,7.96,3.02c9.69,3.11,13.99-0.81,18.44,1.41c3.83,1.91,7.66,3.83,11.39,5.64
		c0.5,7.15-0.3,13.91-1.51,20.96c-2.66,0-5.5-0.27-10.68-0.71C647.73,477.06,640.09,478.31,630.39,477.74z M645.31,574.28
		c0.7-2.11,4.89,0.07,6.35,0.6C649.54,574.98,647.32,575.49,645.31,574.28z M673.93,576.39c-1.41,0.13-2.82,0-4.23,0
		c-0.2,0-0.3-0.2-0.4-0.3c0.2-0.2,0.3-0.5,0.5-0.5c7.21-0.41,10.97-1.58,17.94-0.71C685.92,577.15,687.14,575.17,673.93,576.39z"/>
	<path d="M606.92,64.59c0.03-0.03,0.06-0.04,0.09-0.06C607.01,64.43,607.03,64.47,606.92,64.59z"/>
	<path d="M643.8,104.19l-0.1-0.1C643.74,104.32,643.72,104.24,643.8,104.19z"/>
	<path d="M642.59,152.66c-0.16,0.04-0.1-0.08-0.1,0.1L642.59,152.66z"/>
	<path d="M640.57,518.05c0.88,17.24,0.68,5.05,0.2,23.78C642.28,533.87,641.98,525.91,640.57,518.05z"/>
	<path d="M630.29,337.77c0-0.3-0.5-0.71-0.71-0.71c-1.98,0.49-1.21,2.32-0.2,11.08C630.87,342.22,630.83,344.44,630.29,337.77z"/>
	<path d="M621.02,416.37c-0.4,0.71-0.91,1.11-1.01,1.61c-0.93,4.64-1.61,5.85,1.21,7.26C621.12,422.02,621.63,419.4,621.02,416.37z"
		/>
	<path d="M604.3,578.61c-0.3-0.91-0.91-1.11-1.41-1.11c-1.53-0.11-8.36-0.32-8.36,1.01C594.73,578.51,592.78,578.61,604.3,578.61z"
		/>
	<path d="M638.36,322.05c-1.01,0-1.02,0.77-0.71,6.35C639.06,325.98,639.16,324.17,638.36,322.05z"/>
	<path d="M628.78,351.48c-0.71,0.91-0.4,1.91-0.1,2.92C630.19,353.49,630.19,352.59,628.78,351.48z"/>
	<path d="M620.32,404.18c0-0.91,0-1.71,0-2.92C619.41,402.67,619.41,402.67,620.32,404.18z"/>
	<path d="M640.57,317.32c1.37-2.75,1.51-2.02,0.5-2.52C640.56,315.83,639.83,316.58,640.57,317.32z"/>
	<path d="M627.27,369.52c0.81-0.6,1.31-1.21,0.71-2.32C626.87,367.7,626.87,368.51,627.27,369.52z"/>
	<path d="M601.88,73.86c0-3.01,0.04-2.62-0.1-2.62C601.78,74.26,601.74,73.86,601.88,73.86z"/>
	<path d="M636.34,576.29c-0.31-0.16-0.81-0.8-1.21,0.4C635.92,576.69,635.71,577.55,636.34,576.29z"/>
	<path d="M630.5,419.4c-0.2,0.5-0.4,0.91-0.81,1.81C630.7,420.5,630.29,419.9,630.5,419.4z"/>
	<path d="M620.02,410.53c0.38-0.58,0.84-0.2,0.1-1.31C619.75,409.58,619.84,409.81,620.02,410.53z"/>
	<path d="M629.39,332.94c0,0.2,0,0.3,0.1,0.5C629.49,333.18,629.76,332.94,629.39,332.94z"/>
	<path d="M628.78,576.09c-0.86-0.43-0.63-0.08-0.91,0.2C628.63,576.67,628.41,576.46,628.78,576.09z"/>
	<path d="M628.08,359.04c-0.1,0-0.1,0.1-0.2,0.2c0.1,0.2,0.2,0.3,0.2,0.5C628.49,359.33,628.08,359.57,628.08,359.04z"/>
	<path d="M601.88,84.85c0-0.01,0.25-0.85,0.3-0.91C601.52,84.27,601.64,84.37,601.88,84.85z"/>
	<path d="M637.85,336.46l0.2-0.2C637.79,336.13,637.85,336.08,637.85,336.46z"/>
	<path d="M233.97,175.44l-0.1-0.1C233.91,175.44,233.86,175.44,233.97,175.44z"/>
	<path d="M229.14,173.12l-0.1,0.1C229.21,173.18,229.14,173.19,229.14,173.12z"/>
	<path d="M277.61,260.38c-1.55,2.17-6.77,6.75-9.37,7.15c-0.3,0-0.5,0.4-0.81,0.6c2.52,0.5,3.72,0.29,6.25-1.21
		c2.91-1.73,5.64-3.83,6.45-7.46C279.22,259.38,278.32,259.38,277.61,260.38z"/>
	<path d="M260.37,169.69c5.02,4.39,1.76-1.72,6.15-3.73c-3.12-0.5-4.43-0.1-7.05,2.12c0.71,0,1.31,0,2.02,0
		C261.89,169.09,260.88,168.99,260.37,169.69z"/>
	<path d="M239.52,155.18c1.41,0.6,2.82,1.21,4.23,1.81c-0.2,0.4-0.3,0.81-0.5,1.21c1.69-0.4,3.49-0.81,4.21-2.67
		c-0.49-0.22-1.11-0.63-1.39-0.45C243.08,156.39,241.58,154.49,239.52,155.18z"/>
	<path d="M247.58,155.59c0.44-0.65,0.57-0.89,0.55-0.91c0.06,0,0.05,0,0.15-0.1l-0.2,0.1c0.02,0,0.03,0,0.04,0
		c-0.07,0.03-0.52,0.61-0.65,0.81C247.45,155.55,247.43,155.51,247.58,155.59z"/>
	<path d="M228.33,177.25c-3.2-4.65-4.67-7.28-7.75-9.16c0.14-0.84-0.34-1.24-1.02-1.82c-0.2,1.11,0.2,1.61,1.01,1.91
		c-0.05,1.12,7.12,9.36,7.86,10.48C229.14,177.96,228.53,177.65,228.33,177.25z"/>
	<path d="M230.55,159.62c0,0.69,5.3,2.36,9.17,2.12l-0.1,0.1c0.47-0.28,0.96-0.48,1.43-0.77c0.19-0.64,0.75-0.67,1.28-0.72
		c-0.36-0.23-0.73-0.63-1-0.63C236.52,161.22,233.18,159.62,230.55,159.62z"/>
	<path d="M241.03,161.13l0.1-0.1C241.07,161.07,241.03,161.06,241.03,161.13z"/>
	<path d="M242.54,160.32c-0.2,0.03-0.27,0.01-0.1,0.1L242.54,160.32z"/>
	<path d="M235.89,477.54c-0.71,2.72-1.21,5.44-0.81,8.36c1.11-2.82,1.81-5.64,1.71-8.97C236.29,477.24,235.89,477.34,235.89,477.54z
		"/>
	<path d="M222.08,297.37c-0.3,2.32,0.2,4.23,2.12,7.15c-0.23-3.66-0.28-4.31-0.91-7.76C222.49,296.56,222.18,296.86,222.08,297.37z"
		/>
	<path d="M208.78,172.51c5.81-15.29,0.33-6.95-1.71,2.82C207.94,174.22,208.28,173.84,208.78,172.51z"/>
	<path d="M209.29,158.91c1.91-1.91,4.43-2.92,6.95-4.33c-0.4-0.4-0.6-0.71-0.91-1.01C213.53,154.38,209.01,156.97,209.29,158.91z"/>
	<path d="M241.03,188.03c0.25-0.74-1.38-4.04-2.52-7.26C236.6,182.36,238.73,186.77,241.03,188.03z"/>
	<path d="M221.78,552.11c0,0.6,0.71,1.11,1.01,1.61c0.7-0.7,0.77,0.61,0.4-6.65c-0.2,0-0.4,0-0.71,0
		C221.88,548.68,221.68,550.39,221.78,552.11z"/>
	<path d="M256.65,146.82c2.24,1.28,3.42,1.89,4.64,0.81c-1.91-2.02-4.23-2.12-6.75-2.12C254.88,147.1,256.45,146.91,256.65,146.82z"
		/>
	<path d="M268.13,161.13c-4.91-0.98-3.83-0.59-8.67,0.3c1.44,0.82-0.32,0.96,7.66,0.2C267.53,161.63,267.83,161.23,268.13,161.13z"
		/>
	<path d="M243.65,190.35c-0.71-1.11-1.41-2.02-2.52-2.42c-0.3,2.32,0.1,4.53,1.41,6.55C242.2,190.4,241.52,190.71,243.65,190.35z"/>
	<path d="M230.95,169.49c-0.89,1.02-0.91,2.12-0.5,3.43c-1.73,0.34-1.38-0.29-0.4,3.22c0.3-0.5,0.5-0.91,0.71-1.31
		c4.04,3.03,1.92,4.54,4.13,6.75c1.25-0.5,2.79-1.18,2.32-2.82c-1.31-0.6-1.11,1.11-2.12,0.91c-0.37-0.18-0.26-0.17-1.19-4.24
		c-0.45-0.03-0.73-0.32-0.73-0.8c-2.07-2.07-1.47-4.04-0.4-4.14c0,4.86-0.51,2.93,3.12,5.96c1.71-1.31,1.71-1.31,1.11-2.92
		c1.6-2.79,1.69-1.88-0.1-3.22c0,1.63,0.62,0.69-1.91,3.73c-1.8-0.6-1.81-2.1-1.61-3.69c1.96-0.65,1.81-0.85,1.51,0.67
		c0.91-0.4,1.41-0.5,2.02-0.71c0-2.36,0.03-1.04,2.72,0.1c0.91,0.39,1.51,0,1.81-1.01c-0.81-1.11-2.52,0-3.12-1.31
		c-0.71-0.71-2.85-1.9-3.43-2.22C233.27,166.87,232.08,168.2,230.95,169.49z M236.78,168.79c-0.3-0.01-0.49-0.19-0.55-0.48
		C236.42,168.46,236.59,168.63,236.78,168.79z M235.99,168.08c-0.62,0-1.29,0-1.9,0C235.3,166.95,234.94,167.03,235.99,168.08z"/>
	<path d="M241.93,166.37c-1.07,0.16-4.08,0.92-4.19,0.95c0.35,0.09,0.56,0.35,0.56,0.77c4.35,0,4.23-0.69,5.64-1.81
		C243.04,165.36,242.54,166.28,241.93,166.37z"/>
	<path d="M237.5,167.27v0.1C237.65,167.34,237.96,167.27,237.5,167.27z"/>
	<path d="M225.51,147.62c0.03-0.03,0.07-0.07,0.1-0.1C225.36,147.52,225.38,147.49,225.51,147.62z"/>
	<path d="M225.61,147.52c1.04,0,0.49,0.26,8.26-2.22C237.43,144.17,228.39,144.53,225.61,147.52z"/>
	<path d="M253.12,150.24c0.5-0.71-0.1-0.91-0.4-1.01c-2.12-1.11-4.23-1.91-6.45-2.52C246.56,147.6,245.68,147.2,253.12,150.24z"/>
	<path d="M216.04,240.84c0.4-2.92,0.3-3.63-1.01-5.74C214.73,237.21,214.63,239.02,216.04,240.84z"/>
	<path d="M245.16,159.72c-1.29-0.75-2.47,0.44-2.61,0.66c-0.71,0.41-1.68,0.8-2.71,1.4c0.21,0.47,0.59,0.67,1.09,0.56
		C248.71,159.13,245.66,160.05,245.16,159.72z"/>
	<path d="M239.82,161.73l-0.1,0.1c0.09-0.05,0.12-0.06,0.12-0.06C239.84,161.77,239.82,161.77,239.82,161.73z"/>
	<path d="M243.34,150.45c0.29,0.58,0.15,0.45,3.02,1.41c0.6-0.3,1.21-0.6,2.02-1.01C243.79,149.79,245.39,149.42,243.34,150.45z"/>
	<path d="M243.45,162.84c-2.02,0.6-2.42,0.81-4.43,2.42C241.03,165.56,242.24,164.45,243.45,162.84z"/>
	<path d="M222.79,537.9c-0.6,1.71-0.6,1.71,0.4,3.02c0-3.08,0.3-2.82-0.1-3.22C222.99,537.7,222.89,537.8,222.79,537.9z"/>
	<path d="M239.31,463.43c-1.01,1.91,0.3,3.63,0.1,5.24C239.41,466.96,240.32,465.25,239.31,463.43z"/>
	<path d="M241.83,242.95c-1.41,1.41-1.41,1.41-1.91,4.13C241.03,245.57,242.14,244.66,241.83,242.95z"/>
	<path d="M234.07,489.83c-1.01,1.01-1.01,1.01-0.91,2.72C234.07,491.65,234.07,491.65,234.07,489.83z"/>
	<path d="M227.63,161.83c-0.81-1.31-2.02-2.02-3.43-2.22C224.02,159.79,225.15,161.5,227.63,161.83z"/>
	<path d="M226.72,465.14c0.91-0.71,0.81-1.31,0.2-1.91C226.21,463.73,226.42,464.34,226.72,465.14z"/>
	<path d="M228.73,377.17c0.6-1.01,0.2-1.51-0.71-1.81C227.52,376.37,227.83,376.87,228.73,377.17z"/>
	<path d="M263.6,266.63c0-1.25-1.21-0.42-2.22,0.3C262.29,267.44,262.99,267.54,263.6,266.63z"/>
	<path d="M234.48,252.02c-0.91,0.3-1.21,0.91-1.11,1.71C234.42,253.38,235.36,252.9,234.48,252.02z"/>
	<path d="M238.1,385.74c-1.11-0.5-1.61,0-2.22,0.81C236.9,386.95,237.6,386.95,238.1,385.74z"/>
	<path d="M230.85,384.73c-1.11-0.6-1.71-0.91-2.72-1.41C228.63,384.83,229.34,384.83,230.85,384.73z"/>
	<path d="M230.45,159.62c-0.5-0.91-1.41-1.01-2.32-1.21C228.63,159.62,229.54,159.72,230.45,159.62z"/>
	<path d="M223.09,545.25c0.53-0.26,0.22-1.13,0.1-1.71C222.87,543.97,221.62,545.25,223.09,545.25z"/>
	<path d="M229.14,169.69c-0.2-1.31-0.81-1.51-1.41-1.61C228.13,168.48,228.53,168.99,229.14,169.69z"/>
	<path d="M228.94,182.19c0-1.21-0.4-1.81-1.21-2.02C227.63,181.08,228.13,181.58,228.94,182.19z"/>
	<path d="M208.48,199.52c-0.4,0.6-0.5,1.31,0,2.02C208.48,200.83,208.48,200.12,208.48,199.52z"/>
	<path d="M242.54,457.39c-0.91,0.4-0.91,0.4-0.91,1.21C241.93,458.19,242.14,457.89,242.54,457.39z"/>
	<path d="M221.85,174.36c0.01,0.06,0.02,0.11,0.03,0.17c0.2,0.12,0.14,0.11,0.1-0.1l-0.03,0.03
		C221.98,174.42,221.97,174.41,221.85,174.36z"/>
	<path d="M220.57,172.41c0.19,0.86,0.48,1.6,1.28,1.94C221.73,173.52,221.42,172.79,220.57,172.41z"/>
	<path d="M223.29,176.75c0.19-1.05-0.43-1.64-1.27-2.14C222.16,175.52,222.64,176.18,223.29,176.75z"/>
	<path d="M225.21,178.16c-0.1-0.81-0.6-0.81-1.01-0.81C224.2,178.06,224.6,178.26,225.21,178.16z"/>
	<path d="M227.93,434.41c0,0.2,0.1,0.4,0.1,0.6c0.1,0,0.2-0.1,0.2-0.1C228.03,434.51,228.26,434.08,227.93,434.41z"/>
	<path d="M237.2,141.68c-0.91-0.4-1.31-0.2-1.71,0.2C235.99,141.78,236.49,141.78,237.2,141.68z"/>
	<path d="M235.59,141.97c-0.93,0-1.45-0.27-2.36,0.63C234.01,142.61,234.91,142.86,235.59,141.97z"/>
	<path d="M244.45,146.72c0.71,0,1.21,0,1.71,0.1C245.66,146.62,245.26,146.01,244.45,146.72z"/>
	<path d="M224.2,150.04c-0.56,0-1.44,0.1,0,0.1V150.04z"/>
	<path d="M231.35,496.68c0.4,0,0.3,0.2,0.3-1.11C231.26,495.58,231.35,495.37,231.35,496.68z"/>
	<path d="M223.7,533.47c0,0.2-0.1,0.4-0.3,0.6C223.87,533.59,223.82,533.72,223.7,533.47z"/>
	<path d="M228.53,379.29c0.38,0,0.3,0.06,0.3-0.3c-0.1,0-0.2,0-0.2,0C228.63,379.09,228.63,379.19,228.53,379.29z"/>
	<path d="M257.05,264.72c0.1,0,0.2,0.1,0.2,0.1c0.1-0.1,0.1-0.2,0.2-0.3c-0.1,0-0.2-0.1-0.3,0
		C257.15,264.62,257.15,264.72,257.05,264.72z"/>
	<path d="M227.64,180.12c0.05-0.6-0.14-1-0.51-1.46C227.12,179.24,227.04,179.8,227.64,180.12z"/>
	<path d="M227.64,180.12c-0.01,0.05,0,0.09-0.01,0.15C227.76,180.14,227.74,180.2,227.64,180.12z"/>
	<path d="M243.24,150.32c0-0.86,0.18-0.54-0.91-0.27C242.7,150.13,242.97,150.22,243.24,150.32z"/>
	<path d="M243.24,150.45l0.1-0.1C243.22,150.3,243.24,150.3,243.24,150.45z"/>
	<path d="M229.04,173.12c-0.03-0.01-0.05-0.03-0.07-0.04C228.93,173.26,228.9,173.25,229.04,173.12z"/>
	<path d="M228.13,171.2c-0.29,0.49,0.08,0.4,0.29,0.5c-0.08,0.54-0.05,1.08,0.54,1.37C229.24,171.86,228.46,171.84,228.13,171.2z"/>
	<path d="M220.39,172.2c0.02,0.08,0.04,0.19,0.08,0.31C220.47,172.38,220.43,172.27,220.39,172.2z"/>
	<path d="M220.37,172.16c0.01,0.01,0.01,0.02,0.02,0.04C220.38,172.1,220.37,172.07,220.37,172.16z"/>
	<path d="M220.37,172.21c0-0.03,0-0.03,0-0.05C220.34,172.12,220.33,172.13,220.37,172.21z"/>
	<path d="M247.58,152.66c-0.4,0-0.71,0-1.41,0C246.97,153.27,247.27,152.86,247.58,152.66z"/>
	<path d="M259.57,168.18c-0.3,0.1-0.6,0.2-1.11,0.3C259.17,168.79,259.57,168.99,259.57,168.18z"/>
	<path d="M239.11,157.1c-0.54,0-0.2,0.04-0.2,0.2C239.01,157.2,239.01,157.1,239.11,157.1z"/>
	<path d="M246.92,158.65c0.03-0.08,0.01-0.11-0.05,0.06c0.02-0.02,0.03-0.03,0.04-0.04c0,0.01,0,0.02-0.01,0.03
		C246.93,158.65,246.94,158.64,246.92,158.65z"/>
	<path d="M239.01,165.36c-0.95,0-0.75,0.1-0.91,0.1C238.88,165.85,238.54,165.6,239.01,165.36z"/>
	<path d="M206.87,163.34v-0.3C206.6,163.04,206.61,162.96,206.87,163.34z"/>
	<path d="M212.01,162.44c-0.18,0.45-0.36,0.9-0.53,1.35C212.07,163.53,211.92,162.9,212.01,162.44z"/>
	<path d="M211.47,163.79c-0.06,0.02-0.11,0.04-0.17,0.06C211.46,164.01,211.37,163.96,211.47,163.79z"/>
	<path d="M229.04,162.44l0.1-0.1C228.81,162.38,228.9,162.37,229.04,162.44z"/>
	<path d="M228.9,162.38c-0.38-0.18-0.83-0.37-1.28-0.64C227.89,162.44,228.38,162.45,228.9,162.38z"/>
	<path d="M252.51,146.42c0.2,0.2,0.4,0.4,0.5,0.6C253.02,146.62,253.02,146.31,252.51,146.42z"/>
	<path d="M254.53,147.62c-0.27-0.74-0.81-0.72-1.44-0.55C253.57,147.44,254.05,147.73,254.53,147.62z"/>
	<path d="M253.09,147.07c-0.1-0.1-0.07-0.05-0.17,0.05C252.98,147.1,253.04,147.09,253.09,147.07z"/>
	<path d="M245.66,239.53c-0.41,0.41-0.06,0.32-0.3,0.81C245.63,240.06,246.17,239.53,245.66,239.53z"/>
	<path d="M234.58,144.7c0.1,0,0.21,0,0.3,0C235.18,144.5,234.98,144.6,234.58,144.7z"/>
	<path d="M257.35,148.03c-0.3-0.1-0.5-0.2-0.6-0.5C257.13,148.66,256.69,148.36,257.35,148.03z"/>
	<path d="M217.35,244.26c0,0.2-0.2,0.4-0.1,0.6c0.1,0.1,0.3,0.2,0.4,0.5C217.65,244.94,217.87,244.79,217.35,244.26z"/>
	<path d="M243.34,149.64c0.5,0,0.96,0.01,1.31,0.1C244.19,149.18,243.8,149.17,243.34,149.64z"/>
	<path d="M243.24,149.64c-0.13,0-0.13-0.03,0,0.1C243.37,149.62,243.39,149.64,243.24,149.64z"/>
	<path d="M246.27,454.16l-0.1-0.1C244.51,455.71,246.17,454.23,246.27,454.16z"/>
	<path d="M223.29,534.27l0.2-0.1C223.36,534.04,223.42,534.02,223.29,534.27z"/>
	<path d="M226.98,178.72c0.01,0.01,0.02,0.02,0.04,0.04C227.06,178.8,227.02,178.76,226.98,178.72z"/>
	<path d="M224.01,177.26c0,0.06,0,0.12-0.01,0.19C224.12,177.33,224.12,177.37,224.01,177.26z"/>
	<path d="M223.39,176.65c0.17,0.17,0.42,0.42,0.61,0.61C224.03,176.8,223.84,176.56,223.39,176.65z"/>
	<path d="M217.75,245.27l-0.1,0.1C218.03,245.5,218.02,245.54,217.75,245.27z"/>
	<path d="M233.47,253.83l-0.1-0.1C233.24,254,233.21,253.97,233.47,253.83z"/>
	<path d="M281.03,258.57c-0.1,0-0.2,0.1-0.3,0.1C280.93,258.77,280.93,258.67,281.03,258.57z"/>
	<path d="M280.02,259.38c0.04,0.04,0.07,0.07,0.1,0.1C280.13,259.3,280.18,259.42,280.02,259.38z"/>
	<path d="M280.14,259.38c0.41,0.03,0.6-0.23,0.7-0.6C280.37,258.77,280.17,258.95,280.14,259.38z"/>
	<path d="M243.24,158.31c-0.07,0.05-0.14,0.1-0.2,0.1C243.14,158.41,243.14,158.41,243.24,158.31z"/>
	<path d="M243.34,158.21c-0.19,0-0.2,0.09-0.11,0.1C243.27,158.28,243.3,158.25,243.34,158.21z"/>
	<path d="M227.63,372.03c0.1,0.1,0.2,0.3,0.3,0.4C228.23,371.93,227.83,372.03,227.63,372.03z"/>
	<path d="M212.11,151.76c-0.23,0.35-0.31,0.41,0,0.1V151.76z"/>
	<path d="M247.48,152.56c0.06,0,0.08-0.05,0.09-0.12C247.54,152.48,247.51,152.53,247.48,152.56z"/>
	<path d="M247.78,152.16c-0.1,0-0.2,0.1-0.2,0.1C247.58,152.59,247.51,152.43,247.78,152.16z"/>
	<path d="M225.61,147.62c-0.2,0.1-0.3,0.2-0.5,0.3C225.61,148.23,225.51,147.83,225.61,147.62z"/>
	<path d="M254.63,147.52c0,0.2,0.1,0.4,0.1,0.5C255.34,147.62,254.63,147.73,254.63,147.52z"/>
	<path d="M256.04,146.92c-0.1,0.5,0.1,0.71,0.6,0.71C256.65,146.78,256.8,146.92,256.04,146.92z"/>
	<path d="M256.65,146.92c0.03,0,0.06,0,0.1,0C256.62,146.79,256.65,146.79,256.65,146.92z"/>
	<path d="M211.91,162.44c0.13,0,0.06,0.02,0.3-0.1L211.91,162.44z"/>
	<path d="M208.58,159.72l-0.1-0.1C208.35,159.88,208.32,159.85,208.58,159.72z"/>
	<path d="M208.48,159.62c0.4-0.1,0.6-0.4,0.91-0.6C209.15,158.78,209.04,159.24,208.48,159.62z"/>
	<path d="M246.77,158.91c-0.07,0.1-1.56,1.76,0.1,0.1L246.77,158.91z"/>
	<path d="M345.62,350.47c0.75,2.4,0,5.04,1.31,7.66c0.71-4.64,0.5-6.55-0.81-9.07C345.83,349.87,345.53,350.17,345.62,350.47z"/>
	<path d="M351.27,329.21c0.91,1.41,1.51,2.32,2.02,3.02C355.48,332.01,353.7,329.75,351.27,329.21z"/>
	<path d="M344.11,309.86c-0.2,1.91,1.41,2.12,2.42,2.72C345.77,309.29,344.11,309.45,344.11,309.86z"/>
	<path d="M344.82,344.42c0.6-1.21,0-2.22-0.5-3.33C343,342.61,344.82,343.32,344.82,344.42z"/>
	<path d="M346.83,413.45c-0.1-0.91-0.3-1.81-0.4-3.22C345.32,411.74,345.62,412.64,346.83,413.45z"/>
	<path d="M336.56,323.46c1.21,0.3,1.21,0.3,1.81-0.5C337.56,322.56,337.06,323.16,336.56,323.46z"/>
	<path d="M316.8,339.79c-0.91-0.71-1.51,0.2-2.12,0.6C315.7,340.7,315.7,340.7,316.8,339.79z"/>
	<path d="M347.14,371.33c0-2.08,0.15-1.51-0.5-1.51C346.96,371.48,346.56,371.33,347.14,371.33z"/>
	<path d="M325.17,327.09c0.1,0,0.2-0.1,0.3-0.1C325.23,326.99,325.3,326.97,325.17,327.09z"/>
	<path d="M321.04,338.18c-0.2,0.2-0.4,0.4-0.6,0.5C320.54,338.68,321.7,338.51,321.04,338.18z"/>
	<path d="M346.93,362.46c-0.4,0.4-0.08,0.44,0.1,0.81C347.15,363.03,347.23,362.46,346.93,362.46z"/>
	<path d="M345.52,406.3c0.32-0.64,0.2-0.61,0-0.81C345.36,405.81,345.16,406.3,345.52,406.3z"/>
	<path d="M346.63,312.58c0.17,0.17,0.41,0.41,0.6,0.6C347.24,312.75,346.98,312.58,346.63,312.58z"/>
	<path d="M347.34,313.29c-0.19-0.19-0.06-0.05-0.1,0.1C347.26,313.36,347.31,313.31,347.34,313.29z"/>
	<path d="M320.23,338.88c0.1-0.1,0.2-0.1,0.3-0.1C320.33,338.78,320.23,338.78,320.23,338.88z"/>
	<path d="M371.12,532.66c-0.35,3.03-0.4,6.05,0,9.17c0.57-4.6,1.34-17.38-0.5-21.06C371.4,532.1,371.6,528.52,371.12,532.66z"/>
	<path d="M324.46,578.91c2.62,0.81,7.15,0.81,9.88,0.1C331.01,578,327.99,578.71,324.46,578.91z"/>
	<path d="M370.61,520.77c0-1.11,0-2.32,0-3.43C370.21,518.55,369.91,519.66,370.61,520.77z"/>
	<path d="M358.82,577c0-0.27-1.31-0.54-1.31,0.4c0.1,0.1,0.3,0.4,0.4,0.4C358.32,577.9,358.93,577.3,358.82,577z"/>
	<path d="M366.18,577.3c-0.67-0.66-0.48-0.32-1.11,0.3C365.79,577.96,365.33,578.15,366.18,577.3z"/>
	<path d="M371.32,559.77c0-0.17-0.03-0.3-0.04-0.35C371.15,559.24,371.23,559.49,371.32,559.77z"/>
	<path d="M371.28,559.41c0.01,0.02,0.02,0.02,0.04,0.05C371.28,559.37,371.27,559.37,371.28,559.41z"/>
	<path d="M370.41,461.42c0.19-1.14-1.79-1.07-2.92-0.91c-7.92,1.11-14.16,0.11-18.14,1.11c2.82,1.21,4.33,1.21,17.74,0.81
		c6.74,12.22,6.92,11.59,1.51,0C369.3,462.02,369.81,461.72,370.41,461.42z"/>
	<path d="M375.45,462.22c3.97,1.23,13.73,2.35,15.82-0.2c-0.41-0.31-0.47-0.5-0.81-0.5C385.53,462.42,380.49,461.82,375.45,462.22z"
		/>
	<path d="M392.99,462.83c-1.65,0.33-1.39-1.65-1.01,12.39C393.69,470.99,392.88,466.96,392.99,462.83z"/>
	<path d="M339.98,462.42c5.2,0.37,3.6-0.62,8.77,6.95c-0.2-2.92-2.52-4.64-2.82-7.46C344.11,461.72,342.1,461.62,339.98,462.42z"/>
	<path d="M325.67,460.81c2.16,1.18,3.94,1.39,5.8,0.37C328.71,460.87,329.63,460.07,325.67,460.81z"/>
	<path d="M331.83,461.09c-0.09,0-0.26,0.02-0.35,0.09C331.74,461.22,331.71,461.25,331.83,461.09z"/>
	<path d="M399.84,461.62c0.33,0.65-0.03,0.71,1.91,0.71c0-0.2,0-0.6-0.1-0.6C399.89,461.37,400.08,461.38,399.84,461.62z"/>
	<path d="M380.29,465.75c-0.5,0.71,0,1.21,0.6,2.02C380.99,466.86,381.09,466.15,380.29,465.75z"/>
	<path d="M396.81,462.22c-0.76,0,0.73,1.48,1.31,0.71C398.47,462.58,397.92,461.75,396.81,462.22z"/>
	<path d="M334.74,463.13c0.34,0.34,0.29,0.72,1.11-0.1C335.12,462.3,335.84,462.4,334.74,463.13z"/>
	<path d="M331.83,461.09c0.36-0.02,0.78-0.08,1.2-0.08C332.4,460.39,332.1,460.79,331.83,461.09z"/>
	<path d="M351.07,473.21c-0.1-0.2-0.1-0.4-0.2-0.6C350.86,472.8,350.96,473,351.07,473.21z"/>
	<path d="M350.76,472.7c0.22-0.22-0.29-0.71-0.6-1.51C350.36,471.69,350.56,472.2,350.76,472.7z"/>
	<path d="M350.16,471.29c0-0.13,0.02-0.06-0.1-0.3L350.16,471.29z"/>
	<path d="M271.36,284.77c-1.68-0.48-1.81,3.81-4.84,6.35c-0.49,0.42-0.4,1.51-0.71,2.22C270.37,289.88,272.2,285.62,271.36,284.77z"
		/>
	<path d="M263.5,313.69c0.4-2.42-0.2-3.93-1.51-5.95C261.79,310.57,261.79,310.57,263.5,313.69z"/>
	<path d="M241.83,294.04c0,1.66-0.22,0.46,2.02,2.32C243.95,294.95,242.94,294.75,241.83,294.04z"/>
	<path d="M262.09,304.62c-0.13,0-0.12-0.06,0,0.3V304.62z"/>
	<path d="M262.79,301.3l-0.1-0.3C262.69,301.36,262.66,301.3,262.79,301.3z"/>
	<path d="M263.6,299.28c0-0.4-0.4-0.7-0.4-0.3C263.47,299.52,263.26,299.62,263.6,299.28z"/>
	<path d="M243.85,296.36c0.26,0.13,0.2,0.1,0.1-0.09L243.85,296.36z"/>
	<path d="M245.36,296.96c-0.44-0.17-0.89-0.35-1.32-0.53C244.36,297,244.9,296.78,245.36,296.96z"/>
	<path d="M265.21,294.85l0.1,0.1C266.35,292.36,265.67,293.69,265.21,294.85z"/>
	<path d="M245.36,296.96l0.1,0.1C245.46,296.81,245.49,296.83,245.36,296.96z"/>
	<path d="M244.75,287.79c-0.03-0.03-0.06-0.06-0.09-0.1C244.65,287.78,244.73,287.79,244.75,287.79z"/>
	<path d="M244.86,287.99c0-0.1,0-0.1-0.1-0.2C244.65,287.79,244.86,287.82,244.86,287.99z"/>
	<path d="M250,291.22c0.32-0.32,0.22-0.18,0-0.4C249.6,291.21,250,290.98,250,291.22z"/>
	<path d="M265.01,295.05c0.1-0.1,0.2-0.1,0.3-0.1C265.21,294.85,265.11,294.95,265.01,295.05z"/>
	<path d="M261.48,372.74c-0.45-1.55-2.21-1.83-2.82,0.3c-0.99,3.45-0.25,11.25,0.91,12.8C262.99,389.27,263.04,378.07,261.48,372.74
		z M260.27,383.72c0.25-1.5-0.12-1.31,0.4-1.31C260.68,383.55,261.1,383.18,260.27,383.72z M260.27,374.55c0.2,0.1,0.3,0.3,0.4,0.4
		c-0.1,0.2-0.3,0.3-0.4,0.3C260.02,374.76,259.99,374.7,260.27,374.55z"/>
	<path d="M262.19,401.36c0-0.1-0.5-0.98-0.5,0.4C261.89,401.66,262.09,401.56,262.19,401.36z"/>
	<path d="M677.15,124.25c-2.6-0.65-0.07,1.67-11.79,8.36C664.73,135.15,678.85,129.34,677.15,124.25z"/>
	<path d="M620.82,161.53c0-0.1-0.4-0.2-0.71-0.3c-0.91,2.82-0.1,5.24,1.51,7.46C621.53,166.27,621.63,163.85,620.82,161.53z"/>
	<path d="M612.36,100.87c0.1,1.61,0.1,3.22,1.31,4.64c0.5-2.12,0.5-2.12-0.6-5.95C612.76,100.16,612.36,100.47,612.36,100.87z"/>
	<path d="M639.77,107.62c-0.5,0.1-0.81,0-0.91,0.1c-0.81,1.21-1.51,2.32-1.21,3.83C638.66,110.44,639.36,109.23,639.77,107.62z"/>
	<path d="M661.33,131.3c-1.01-0.81-1.01-0.81-2.22,0.3C660.32,131.91,660.32,131.91,661.33,131.3z"/>
	<path d="M632.31,116.89c-0.69-0.34-0.47-0.52-1.51,1.21C630.97,118.1,631.82,118.84,632.31,116.89z"/>
	<path d="M635.33,250.31c-1.2-0.3-1.98,0.54-1.61,0.91C634.52,252.02,636.28,250.31,635.33,250.31z"/>
	<path d="M628.18,249.2c-0.81-0.4-1.31-0.71-2.12-1.11C626.67,249.4,626.67,249.4,628.18,249.2z"/>
	<path d="M626.16,241.64c0.35-1.05,0.59-0.49-0.4-1.81C625.54,240.94,625.22,240.7,626.16,241.64z"/>
	<path d="M678.46,123.24c-0.81,0.1-1.01,0.6-1.31,0.91C678,123.86,678.15,124.17,678.46,123.24z"/>
	<path d="M625.05,236.1c0,0.4-0.35,0.3,0.3,0.3C625.36,236.02,625.17,236.1,625.05,236.1z"/>
	<path d="M614.98,109.43c0.1,0.1,0.2,0.2,0.3,0.2c0-0.56,0.3-0.41-0.1-0.81C615.18,109.03,615.08,109.23,614.98,109.43z"/>
	<path d="M635.13,114.07l-0.1-0.2C635.03,114.11,635,114.07,635.13,114.07z"/>
	<path d="M637.45,111.65l0.3-0.1C637.62,111.55,637.69,111.53,637.45,111.65z"/>
	<path d="M643.28,104.3c-0.07,0.02-0.14,0.05-0.19,0.09C643.21,104.4,643.26,104.36,643.28,104.3z"/>
	<path d="M643.29,104.19c0,0.04,0,0.07-0.01,0.11C643.62,104.18,643.49,104.19,643.29,104.19z"/>
	<path d="M634.53,34.87l0.1-0.1C634.56,34.76,634.56,34.81,634.53,34.87z"/>
	<path d="M630.29,35.57c-0.04-0.16,0.03-0.14-0.1-0.1L630.29,35.57z"/>
	<path d="M626.86,37.84c-0.11-0.85-0.39-1.68-1.35-1.92C626.11,37.8,626.69,37.85,626.86,37.84z"/>
	<path d="M626.86,37.84c0,0.02,0.01,0.03,0.01,0.05C626.93,37.82,626.92,37.83,626.86,37.84z"/>
	<path d="M657.48,33.64c0.9,1.06,1.98,1.74,3.35,2.04c0.4-1.21,1.01-2.22,1.11-3.22c0.2-1.21,1.91-1.11,1.81-2.32
		c-2.87,0.61-5.18,0.54-5.62,2.06c0.36,0.16,0.73,0.28,1.09,0.46C658.94,33.76,658.16,33.59,657.48,33.64z"/>
	<path d="M657.33,33.71C657.3,33.75,657.31,33.76,657.33,33.71L657.33,33.71z"/>
	<path d="M657.48,33.64c-0.17-0.26,0.52-1.25,0.62-1.39c0.02,0.01,0.02,0,0.02-0.05c-0.04-0.02-0.08-0.04-0.12-0.06
		c0.05,0.05,0.08,0.09,0.1,0.1c-3.44,1.47-2.93,0.98-0.78,1.39l-0.02,0.02c0.01,0,0.03,0,0.05,0c-0.01,0.03-0.01,0.04-0.02,0.06
		C657.35,33.68,657.39,33.64,657.48,33.64z"/>
	<path d="M636.64,26.6c1.21,0.3,2.33,0.22,3.33-0.3c1.1-0.57,2.46-0.61,3.08-1.85c-0.47-0.11-1.03-0.28-1.67-0.46
		c-1.34,0.8-1.97,1.47-1.61,1.11c-0.46,0.34-0.41-1.51-2.11,0c0.71,0,1.35,0.01,1.99,0.1c-0.96,0.78-1.04,0.77-2.04-0.05
		c0.1,0.1,0.05,0.05-0.06,0.05c0.02-0.02,0.04-0.03,0.06-0.05c0.24-0.24-2.22,0.51-10.64-1.46
		C627.56,25.15,629.23,24.79,636.64,26.6z"/>
	<path d="M643.19,24.49l-0.1-0.1C643.07,24.44,642.99,24.44,643.19,24.49z"/>
	<path d="M634.73,34.97l-0.1,0.1C634.72,35.11,634.67,35.08,634.73,34.97z"/>
	<path d="M634.83,38.39c0-1.05,1.94-2.79-0.14-3.31c-0.4,1.17,0.15,1.01-2.08,3.61c-1.36-0.39-1.6-1.71-2.16-2.8
		c-0.67,0.31-0.67,0.9-0.67,1.39c-0.1-0.1-0.34-0.44-0.1-0.2c-0.68-1.34-0.69-1.42,0.44-2.64c0.18,1.25-0.18,1.13,1.57,0.42
		c0.02-0.02,0.04-0.04,0.05-0.06c0.97,0.82,1.84,0.09,2.81-0.03c0.17-0.3,0.25-0.76,0.25-1.22c-0.31,0-0.56-0.19-0.6-0.51
		c0.59,0.59,3.53,2.08,3.63,2.13c0.4-0.4,0.81-0.6,1.11-0.91c-0.2-0.3-0.2-0.5-0.4-0.6c-0.58-0.29-1.33-0.04-1.66-0.71
		c-0.58,0-1.33,0.07-1.55-0.76c-3.28-1.96-2.57-2.71-6.07,0.96c-3.24,3.4-0.26,3.59-2.32,4.68c0.37,3.22-0.31,2.72,1.41,1.57
		c3.86,2.94,1.91,5.24,3.93,6.45c1.58,0.32,2.72-1.7,2.22-2.72c-1.01-0.5-1.01,0.81-1.81,0.81c-0.58-1.56-1.08-3.12-1.66-4.68
		c-0.03-0.02-0.11-0.12,2.27,1.66C634.73,40.21,634.73,40.21,634.83,38.39z M632.81,31.84c0.43,0.24,0.07,0.1-0.2,0.1
		C632.71,31.94,632.81,31.74,632.81,31.84z M632.61,33.96c0.27,0,0.34,0-0.15,0.09C632.5,34,632.55,33.96,632.61,33.96z
		 M632.41,34.16c0-0.11,0.32,0.72-0.62,0.6C631.97,34.57,632.15,34.33,632.41,34.16z"/>
	<path d="M631.03,39.25C631.03,39.25,631.03,39.25,631.03,39.25C631.03,39.26,631.04,39.26,631.03,39.25z"/>
	<path d="M630.5,35.87l-0.1-0.1C630.49,35.96,630.43,35.87,630.5,35.87z"/>
	<path d="M621.33,35.37c-0.8-0.91-1.91-1.61-2.82-2.52c-0.2,0.81,0.41,1.31,0.81,1.81C630.94,49.37,625.85,40.54,621.33,35.37z"/>
	<path d="M641.78,22.27c1.91-0.95,4.09-1.03,2.52-3.12c-2.05,0.88-1.32,1.19-7.26,0.2C638.76,20.86,640.87,20.76,641.78,22.27z"/>
	<path d="M638.96,52.7c-1.46-4.37-2.32-5.04-2.32-7.76C634.07,45.97,635.83,51.26,638.96,52.7z"/>
	<path d="M606.41,37.28c3.43-10.1,2.46-7.83,2.82-9.27c-2.42,3.63-3.83,7.66-3.93,11.19C605.81,38.39,606.21,37.89,606.41,37.28z"/>
	<path d="M633.32,9.27c-3.63,0.2-7.15,0.71-10.08,3.02C626.57,11.29,629.89,10.28,633.32,9.27z"/>
	<path d="M612.96,18.04c-1.71,0.81-3.22,1.51-4.53,2.72c-1.95,3.25,0.49,0.18,5.69-1.37C613.75,18.99,613.45,18.51,612.96,18.04z"/>
	<path d="M614.17,19.45l0.1-0.1C614.14,19.4,614.08,19.36,614.17,19.45z"/>
	<path d="M641.08,54.82c-0.39-1-1.09-1.69-2.08-2.1c-0.19,0.38-0.44,0.82-0.44,1.09c0.3,1.91,0.4,3.93,1.41,5.74
		c1.11-1.51-0.6-2.92,0-4.53C640.27,55.02,640.77,54.92,641.08,54.82z"/>
	<path d="M639.06,52.6l-0.1,0.1C639.01,52.75,639.01,52.7,639.06,52.6z"/>
	<path d="M654.98,12.9c-0.17-0.34-0.4-1.03-0.54-1.18c-0.1-0.05-0.09-0.06,0.01,0.04c-0.19-0.05-0.4-0.07-0.57-0.07
		C653.87,12.39,653.97,13,654.98,12.9z"/>
	<path d="M657.6,26.3c1.13,0.7,0.92,0.3,7.76,0.3C664.06,25.74,663.13,23.93,657.6,26.3z"/>
	<path d="M644.67,16.52c0.68-1.19,1.9-1.17-3.5-2.71c-0.01,0.01-0.01,0.02-0.02,0.02c0.04-0.04,0-0.04-0.18-0.13l0.1,0.2
		c0.03-0.03,0.05-0.04,0.06-0.06C639.14,15.9,642.98,15.69,644.67,16.52z"/>
	<path d="M644.6,16.63l0.1-0.1C644.67,16.49,644.62,16.59,644.6,16.63z"/>
	<path d="M650.75,14.41c-2.52-1.81-3.73-2.32-6.75-2.82C646.21,13.1,648.03,13.91,650.75,14.41z"/>
	<path d="M635.33,32.14c0,0.05,0.06,0.07,0.1,0.1C635.59,32.17,635.84,32.14,635.33,32.14z"/>
	<path d="M635.63,32.16c0.5,0.03,0.91,0.19,1.23,0.69c1.7-0.39,3.51-0.3,4.62-2.12C640.62,30.73,636.96,31.64,635.63,32.16z"/>
	<path d="M636.84,32.85c0.01,0.06,0.04,0.1,0.1,0.1C636.93,32.92,636.88,32.85,636.84,32.85z"/>
	<path d="M640.57,27.21c-1.51,0.81-2.92,1.61-4.84,2.72C636.06,29.93,639.54,30.71,640.57,27.21z"/>
	<path d="M626.67,46.15c-0.91-1.11-1.71-2.22-2.42-3.43c0.71,2.42,0.71,2.42,2.32,4.03C626.57,46.55,626.77,46.25,626.67,46.15z"/>
	<path d="M621.83,14.81c-2.43,0-1.81-0.1-1.81,0.3c0.6,0,1.21-0.1,1.81-0.1C621.83,14.91,621.83,14.91,621.83,14.81z"/>
	<path d="M651.58,10.89c-0.01,0-0.02,0-0.03-0.01v0.1c0.02-0.02,0.03-0.03,0.04-0.04c0.02,0.03,0.07,0.05,0.17,0.05l-0.04-0.05
		c2.14,0.88,2.19,0.61,1.95,0.85c0.61-0.61,0.66-0.12,0.83-0.04c0,0.1,4.01,2.07,4.01,0.25C655.23,9.24,651.74,10.5,651.58,10.89z"
		/>
	<path d="M652.46,12.39c-1-1.65-0.3-1.55-1.91-1.01C651.15,11.89,651.56,12.5,652.46,12.39z"/>
	<path d="M621.13,41.37c0.11-1.01-0.54-1.59-1.22-2.17c-0.1,0.31,0.07-0.56-0.7-0.5c0.03,0.34,0.23,0.6,0.69,0.6
		C619.76,40.31,620.31,40.89,621.13,41.37z"/>
	<path d="M621.12,41.52l0.1-0.1C621.08,41.32,621.15,41.39,621.12,41.52z"/>
	<path d="M617.5,30.94c-0.2,1.21-0.2,1.21,0.91,2.02C618.1,32.35,617.9,31.74,617.5,30.94z"/>
	<path d="M625.46,35.77l-0.1,0.1C625.53,35.91,625.54,35.98,625.46,35.77z"/>
	<path d="M625.56,32.85c0.2,0.71,0.71,1.01,2.12,1.11C626.57,33.45,625.96,33.25,625.56,32.85z"/>
	<path d="M606.31,64.19c0-0.5-0.1-1.01-0.1-1.51C605.73,62.68,606.05,62.9,606.31,64.19z"/>
	<path d="M636.84,22.07c0.95,0,0.81,0.05,0.81-0.2c-0.3,0-0.6,0-0.91,0C636.74,21.97,636.74,22.07,636.84,22.07z"/>
	<path d="M622.94,42.62c2.32,0.58,0.68-0.47-0.87-0.49C622.21,42.54,622.56,42.72,622.94,42.62z"/>
	<path d="M609.03,34.36c0-0.75,0.05-1.17,0.08-1.33c-0.04,0.16-0.16,0.58-0.49,1.23C608.73,34.26,608.83,34.36,609.03,34.36z"/>
	<path d="M609.11,33.03C609.14,32.94,609.13,32.93,609.11,33.03L609.11,33.03z"/>
	<path d="M641.88,10.88l-0.1,0.1C642.2,11.08,642.04,11.05,641.88,10.88z"/>
	<path d="M642.05,11.03c0.56,0.54,1.21,0.65,1.84,0.65C643.45,10.89,642.71,11.1,642.05,11.03z"/>
	<path d="M625.68,23c0.14,0.86,0.72,0.69,1.29,0.69C626.78,23.03,626.24,23.07,625.68,23z"/>
	<path d="M625.66,22.87l-0.1,0.1C625.74,23.02,625.66,23,625.66,22.87z"/>
	<path d="M619.01,38.69l0.1-0.1c-0.07-0.04-0.09-0.08-0.09-0.08c0.06-0.52-0.06-0.98-0.51-1.43c-0.09,0.56,0,1.05,0.51,1.43
		C619.02,38.51,619.03,38.56,619.01,38.69z"/>
	<path d="M625.32,35.5c0.01,0.01,0.01,0.03,0.04,0.07C625.31,35.42,625.31,35.42,625.32,35.5z"/>
	<path d="M625.35,35.69c-0.01-0.08-0.03-0.14-0.03-0.19C625.3,35.48,625.33,35.56,625.35,35.69z"/>
	<path d="M641.28,10.58c0.1,0.1,0.2,0.1,0.3,0.2C642.03,11.23,641.69,10.79,641.28,10.58z"/>
	<path d="M645.71,16.93c-1.21-0.24-1.01-0.36-1.01,0.4C645.01,17.23,645.21,17.13,645.71,16.93z"/>
	<path d="M644.7,16.63l-0.1,0.1C644.72,16.73,644.7,16.79,644.7,16.63z"/>
	<path d="M643.8,17.84c0.61,0,0.36-0.13,0.91-0.4C644.03,17.43,643.8,17.33,643.8,17.84z"/>
	<path d="M635.94,5.74c0.32-0.11,0.42-0.1,0.1-0.1L635.94,5.74z"/>
	<path d="M640.42,22.9c0.62,0.14,1.09,0.02,1.46-0.53C641.31,22.27,640.74,22.37,640.42,22.9z"/>
	<path d="M625.56,22.97c-0.1-0.1-0.4-0.2-0.6-0.3C625.15,22.77,625.36,22.87,625.56,22.97z"/>
	<path d="M619.21,38.59l-0.1,0.1C619.27,38.66,619.21,38.77,619.21,38.59z"/>
	<path d="M618.3,37.09c-0.35-0.3-0.37-0.18-0.2-0.01C618.19,37.08,618.25,37.08,618.3,37.09z"/>
	<path d="M621.22,41.42c0,0.46,0.18,0.67,0.61,0.7C621.89,41.61,621.69,41.42,621.22,41.42z"/>
	<path d="M621.93,42.12c0.21,0,0.13,0.06,0.1-0.1c-0.15,0.15-0.07,0.09-0.19,0.09C621.84,42.25,621.79,42.26,621.93,42.12z"/>
	<path d="M626.25,42.85c-0.02-0.03-0.03-0.05-0.05-0.09c-0.01,0.03-0.01,0.06-0.04,0.06l0.01,0.01c-0.01,0.03-0.01,0.06-0.01,0.09
		C626.19,42.9,626.22,42.87,626.25,42.85z"/>
	<path d="M626.25,42.85C626.76,43.78,626.82,42.41,626.25,42.85L626.25,42.85z"/>
	<path d="M641.18,55.02v-0.3C641.05,54.84,641.06,54.78,641.18,55.02z"/>
	<path d="M605.71,25.09c-0.13,0.26-0.16,0.23,0.1,0.1C605.81,24.94,605.84,24.96,605.71,25.09z"/>
	<path d="M643.9,23.78c-0.14-0.14,0-0.21-0.81,0.6C643.49,24.28,643.7,23.98,643.9,23.78z"/>
	<path d="M607.12,23.08c-0.08,0-0.11,0.07-0.16,0.15C607.02,23.18,607.07,23.13,607.12,23.08z"/>
	<path d="M606.92,23.28c0.11-0.11,0,0-0.2,0.1C606.81,23.38,606.92,23.38,606.92,23.28z"/>
	<path d="M640.37,22.87l-0.01,0.02c-0.11-0.04-0.12-0.05-0.02,0.05C640.24,23.13,640.37,23.06,640.37,22.87z"/>
	<path d="M644,23.78c0.2-0.3,0.5-0.5,0.71-0.71C644.44,23.21,643.81,23.59,644,23.78z"/>
	<path d="M607.02,22.97c0.46,0,0.67-0.18,0.7-0.6C607.3,22.34,607.11,22.6,607.02,22.97z"/>
	<path d="M607.71,22.37c0.15,0,0.13,0.02,0.01-0.1C607.72,22.31,607.71,22.33,607.71,22.37z"/>
	<path d="M644.7,22.87l-0.1,0.2C644.74,23.08,644.7,23.12,644.7,22.87z"/>
	<path d="M609.13,32.95c0.27-0.13,0.27-0.1,0-0.1V32.95z"/>
	<path d="M664.05,29.83c-0.33,0-0.12-0.01-0.26,0.13C663.89,29.92,663.99,29.89,664.05,29.83z"/>
	<path d="M604.3,27.91l-0.1,0.2C604.45,27.99,604.43,28.04,604.3,27.91z"/>
	<path d="M609.13,27.91c0.2,0,0.2,0,0.3-0.1C609.33,27.81,609.23,27.91,609.13,27.91z"/>
	<path d="M627.07,27.31l-0.1-0.2C626.84,27.24,626.82,27.18,627.07,27.31z"/>
	<path d="M583.03,402.06c-1.81,1.31-2.32,3.02-2.72,4.94c1.22,0.82,1.01,0.48,1.71,0.3C581.92,405.59,583.23,404.18,583.03,402.06z"
		/>
	<path d="M602.08,354.8c-0.93-2.32-3.55,1.23-4.13,3.83C599.76,357.73,600.97,356.21,602.08,354.8z"/>
	<path d="M604.6,317.22c0-0.1-0.2-0.1-0.2-0.2c-0.85,0.43-0.13-0.48-2.22,5.44c0.2-0.1,0.5-0.1,0.6-0.2
		C603.79,320.74,604.5,319.03,604.6,317.22z"/>
	<path d="M605.81,312.08c1.41-1.71,1.41-1.71,0.91-4.33c-0.28,0-0.63-0.08-0.93-0.09C605.41,309.13,605.51,310.61,605.81,312.08z"/>
	<path d="M584.95,398.34c-0.91,0.2-1.21,0.71-1.01,1.71C585.07,399.2,584.65,399.53,584.95,398.34z"/>
	<path d="M590.79,362.76c-0.67-0.67-0.44-0.36-1.11,0.3C590.04,363.42,590,363.3,590.79,362.76z"/>
	<path d="M601.47,350.77l-0.1-0.1C601.27,351.19,601.39,350.89,601.47,350.77z"/>
	<path d="M601.35,350.97c-0.24,0.4-0.43,0.77-0.69,1.11C601.51,352,601.36,351.49,601.35,350.97z"/>
	<path d="M602.18,322.46c-0.27,0.27-0.3,0.24,0.1,0.1L602.18,322.46z"/>
	<path d="M601.46,350.58c-0.07,0.02-0.14,0.05-0.19,0.09C601.39,350.67,601.44,350.63,601.46,350.58z"/>
	<path d="M601.47,350.47c0,0.04,0,0.07-0.01,0.11C601.81,350.45,601.67,350.47,601.47,350.47z"/>
	<path d="M600.68,352.28c-0.3,0.35-0.18,0.37-0.01,0.2C600.67,352.4,600.67,352.33,600.68,352.28z"/>
	<path d="M660.42,461.72c0.3-0.1,0.5-0.4,0.81-0.6c-3.38-1.35-1.74,0.67-15.72-0.4c2.32,1.61,5.04,1.29,7.66,1.71
		C655.59,462.81,658.11,462.22,660.42,461.72z"/>
	<path d="M616.39,460.61c-2.02,0-3.93,0-5.95,0c0,0.81,0.5,0.91,1.01,0.91c3.26,0.36,1.78-1.34,7.56,6.75
		C618.83,464.71,615.71,463.99,616.39,460.61z"/>
	<path d="M662.84,460.91c-1.46,2.69-1.59,0-0.4,13.1C663.24,469.88,663.24,465.75,662.84,460.91z"/>
	<path d="M595.53,460.21c1.91,0.2,3.63,1.21,5.44-0.1C599.16,459.5,597.44,459.2,595.53,460.21z"/>
	<path d="M604.8,462.02c0.62,1.25,0.35,0.74,1.31,0.1c-0.3-0.2-0.5-0.4-0.81-0.5C605.2,461.62,604.8,461.92,604.8,462.02z"/>
	<path d="M672.21,460.61c-0.91-0.1-1.61-0.1-2.22-0.2C670.6,461.32,671.31,461.52,672.21,460.61z"/>
	<path d="M650.45,466.35c0.1-0.1,0.2-0.1,0.4-0.1c0-0.5,0-1.01,0-1.51C650.65,464.74,650.45,464.42,650.45,466.35z"/>
	<path d="M602.48,459.7c0.66,0.33,0.42,0.39,0.71,0.1c0-0.2-0.1-0.3-0.3-0.5C602.78,459.4,602.68,459.6,602.48,459.7z"/>
	<path d="M668.69,461.32c-0.71,0-1.31,0-2.12,0C667.38,462.02,667.88,462.22,668.69,461.32z"/>
	<path d="M640.47,466.05c-0.21,0.21-0.77-2.39-1.61-4.64c4.28-2.57-1.2-1.58-7.86-1.31c-7.24,0.29-8.92-0.31-11.39,0.71
		c1.59,1.24,9.46,0.93,11.49,0.71c7.46,0,5.09-1.33,8.26,3.83c0.3,0.3,0.71,0.5,1.01,0.81C640.5,466.19,640.43,466.21,640.47,466.05
		z"/>
	<path d="M640.45,466.18c-0.08,0.64-0.04,1.19,0.62,1.38C641.08,466.99,641.07,466.41,640.45,466.18z"/>
	<path d="M641.78,468.97c0.01-0.54,0.04-1.08-0.62-1.37c-0.08,0.64-0.04,1.19,0.62,1.47c0,0.79-0.05,0.46,0.3,0.81
		c0-0.2,0.1-0.4,0-0.6C642.18,469.28,641.88,469.18,641.78,468.97z"/>
	<path d="M641.18,467.46l-0.1,0.1C641.2,467.6,641.14,467.66,641.18,467.46z"/>
	<path d="M619.11,468.27h-0.1C619.36,468.5,619.42,468.58,619.11,468.27z"/>
	<path d="M667.17,150.85c-0.83,1.7-1.51,3.43-3.02,4.64c-0.3,0.4-0.2,1.31-0.5,1.91C670.07,153.96,670,145.02,667.17,150.85z"/>
	<path d="M659.72,173.12c-1.04,0.52-0.56,0.09,0.71,4.53c1.11-0.3,0.91-0.91,0.81-1.41C660.93,175.13,660.93,173.72,659.72,173.12z"
		/>
	<path d="M639.36,158.81c0.71,1.41,0.71,1.51,2.32,2.32C641.58,159.72,640.67,159.21,639.36,158.81z"/>
	<path d="M661.13,163.34c-1.11,0.6-0.6,1.31-0.6,1.91C660.73,164.76,660.93,164.15,661.13,163.34z"/>
	<path d="M647.22,155.79c0.64,0.32,0.61,0.2,0.81,0C647.72,155.63,647.22,155.43,647.22,155.79z"/>
	<path d="M663.04,158.91l0.1,0.1C664.18,156.43,663.5,157.76,663.04,158.91z"/>
	<path d="M642.94,161.6c-0.44-0.16-0.85-0.33-1.16-0.57C642.02,161.59,642.47,161.57,642.94,161.6z"/>
	<path d="M642.94,161.6c0.42,0.16,0.12,0,0.35,0.23C643.21,161.66,643.5,161.6,642.94,161.6z"/>
	<path d="M642.69,152.66c-0.1-0.1-0.1-0.1-0.1-0.2C642.49,152.56,642.59,152.66,642.69,152.66z"/>
	<path d="M662.84,159.11c0.1,0,0.2-0.1,0.3-0.1C662.94,158.91,662.94,159.01,662.84,159.11z"/>
	<path d="M638.36,206.57c0.62,0,0.08,0.1,0.4-1.21C638.18,205.36,638.66,205.36,638.36,206.57z"/>
	<path d="M610.54,212.72c0.39-1.17-0.35-0.11-0.4,0c0,0,0.1,0.1,0.2,0.2C610.44,212.82,610.54,212.82,610.54,212.72z"/>
	<path d="M612.46,208.89c0.45-0.89,0-0.53,0-0.81C612.01,208.98,612.46,208.7,612.46,208.89z"/>
	<path d="M610.69,211.97c0.08-0.08,0.17-0.17,0.26-0.26C610.76,211.72,610.75,211.71,610.69,211.97z"/>
	<path d="M655.99,241.74c-0.46,3.79-0.35,7.41,0.5,11.49c0.25,1.99,2.57,2.73,3.02-0.3c0.61-4.04,0.15-9.97-0.6-11.49
		C658.3,239.31,656.23,239.78,655.99,241.74z M657.8,252.12c-0.36-1.07-0.12-0.68,0.1-0.91C657.9,251.69,658.2,251.73,657.8,252.12z
		 M657.8,244.06c-0.4,0-0.3,0.2-0.3-1.11C657.9,242.95,657.8,242.75,657.8,244.06z"/>
<path fill="#e6e6e6" d="m206.8 163.6c0-5.1 4.1-9.2 9.3-9.2s9.2 4.2 9.2 9.2-4.1 9.2-9.3 9.2-9.2-4.1-9.2-9.2zm17.3-.1c0-4.5-3.5-8.2-8.2-8.2s-8.2 3.7-8.2 8.3c0 4.5 3.5 8.2 8.2 8.2s8.2-3.7 8.2-8.3zm-13 0c0-2.8 2.1-5.1 5.1-5.1 1.9 0 2.9.6 3.9 1.5l-1.4 1.7c-.8-.7-1.5-1.1-2.5-1.1-1.7 0-2.8 1.4-2.8 3.1s1.1 3 2.8 3c1.1 0 1.7-.5 2.5-1.1l1.4 1.4c-1.1 1.1-2.1 1.7-4 1.7-2.9 0-5-2.3-5-5.1z"/><path fill="#e6e6e6" d="m226.6 154.7h3.4l4.2 13.2 4.4-13.3h2.6l4.4 13.3 4.2-13.2h3.3l-6.2 18h-2.7l-4.4-12.8-4.4 12.8h-2.7z"/><path fill="#e6e6e6" d="m252.8 165.8c0-3.9 3.1-7 7.2-7 4.2 0 7.2 3.2 7.2 7s-3.1 7-7.3 7c-4 0-7.1-3.1-7.1-7zm11.3 0c0-2.3-1.7-4.3-4.2-4.3s-4.1 2-4.1 4.3 1.7 4.3 4.1 4.3c2.7.1 4.2-1.9 4.2-4.3z"/><path fill="#e6e6e6" d="m269.5 159.1h3.1v3c.8-2 2.4-3.4 4.8-3.3v3.2h-.2c-2.7 0-4.6 1.7-4.6 5.4v5.1h-3.1z"/><path fill="#e6e6e6" d="m279.1 153.9h3.1v11.1l5.6-6h3.8l-5.4 5.5 5.5 8h-3.5l-4.1-5.8-1.9 2v3.9h-3.1z"/><path fill="#e6e6e6" d="m291.7 165.8c0-3.9 3.1-7 7.2-7 4.2 0 7.2 3.2 7.2 7s-3.1 7-7.3 7c-4 0-7.1-3.1-7.1-7zm11.3 0c0-2.3-1.7-4.3-4.2-4.3s-4.1 2-4.1 4.3 1.7 4.3 4.1 4.3c2.6.1 4.2-1.9 4.2-4.3z"/><path fill="#e6e6e6" d="m308.2 167.6v-8.6h3.1v7.6c0 2.1 1.1 3.3 2.9 3.3s3-1.3 3-3.3v-7.6h3.1v13.4h-3.1v-2.1c-.8 1.3-2.1 2.3-4.2 2.3-3.1.2-4.8-1.8-4.8-5z"/><path fill="#e6e6e6" d="m323.9 168.8v-7.1h-1.7v-2.6h1.7v-3.7h3.1v3.7h3.6v2.6h-3.6v6.6c0 1.2.6 1.7 1.7 1.7.7 0 1.3-.2 1.9-.5v2.5c-.8.5-1.7.7-2.8.7-2.3 0-3.9-.9-3.9-3.9z"/><path fill="#e6e6e6" d="m333.2 154.7h3.2v15h9.4v2.9h-12.5v-17.9z"/><path fill="#e6e6e6" d="m356 172.5v-1.7c-.9 1.1-2.3 2-4.4 2-2.6 0-4.8-1.4-4.8-4.2 0-3 2.3-4.4 5.4-4.4 1.7 0 2.6.2 3.7.5v-.2c0-1.9-1.2-2.9-3.3-2.9-1.5 0-2.6.3-3.9.8l-.8-2.5c1.5-.7 2.9-1.1 5.1-1.1 4 0 5.9 2.1 5.9 5.7v8zm.1-5.6c-.8-.3-1.9-.5-3.1-.5-2 0-3.1.8-3.1 2.1s1.1 2 2.6 2c2 0 3.5-1.1 3.5-2.9z"/><path fill="#e6e6e6" d="m364.9 170.5v2.1h-3.1v-18.7h3.1v7.4c1-1.4 2.4-2.5 4.5-2.5 3.2 0 6.3 2.5 6.3 7s-3.1 7-6.3 7c-2.1 0-3.5-1.1-4.5-2.3zm7.7-4.7c0-2.6-1.7-4.3-3.9-4.3s-3.9 1.7-3.9 4.4c0 2.6 1.8 4.3 3.9 4.3s3.9-1.7 3.9-4.4z"/><path fill="#e6e6e6" d="m376.9 170.8 1.4-2.1c1.4 1.1 3 1.7 4.4 1.7s2.1-.5 2.1-1.5-1.3-1.4-2.8-1.8c-.1 0-.2-.1-.2-.1-2-.6-4.2-1.4-4.2-4s2.1-4.1 4.8-4.1c1.7 0 3.5.6 5 1.5l-1.2 2.2c-1.3-.8-2.6-1.3-3.8-1.3s-1.9.5-1.9 1.4 1.3 1.4 2.8 1.8c.1 0 .2.1.2.1 2 .6 4.2 1.5 4.2 4 0 2.9-2.2 4.2-5 4.2-1.9 0-4-.7-5.8-2z"/><path fill="#e6e6e6" d="m505.6 163.6c0-5.1 4.1-9.2 9.3-9.2s9.2 4.2 9.2 9.2-4.1 9.2-9.3 9.2-9.2-4.1-9.2-9.2zm17.4-.1c0-4.5-3.5-8.2-8.2-8.2s-8.2 3.7-8.2 8.3c0 4.5 3.5 8.2 8.2 8.2s8.2-3.7 8.2-8.3zm-13.1 0c0-2.8 2.1-5.1 5.1-5.1 1.9 0 2.9.6 3.9 1.5l-1.4 1.7c-.8-.7-1.5-1.1-2.5-1.1-1.7 0-2.8 1.4-2.8 3.1s1.1 3 2.8 3c1.1 0 1.7-.5 2.5-1.1l1.4 1.4c-1.1 1.1-2.1 1.7-4 1.7-2.9 0-5-2.3-5-5.1z"/><path fill="#e6e6e6" d="m525.4 154.7h3.4l4.2 13.2 4.4-13.3h2.6l4.4 13.3 4.2-13.2h3.3l-6.2 18h-2.7l-4.4-12.8-4.4 12.8h-2.7z"/><path fill="#e6e6e6" d="m551.7 165.8c0-3.9 3.1-7 7.2-7 4.2 0 7.2 3.2 7.2 7s-3.1 7-7.3 7c-4.1 0-7.1-3.1-7.1-7zm11.2 0c0-2.3-1.7-4.3-4.2-4.3s-4.1 2-4.1 4.3 1.7 4.3 4.1 4.3c2.7.1 4.2-1.9 4.2-4.3z"/><path fill="#e6e6e6" d="m568.3 159.1h3.1v3c.8-2 2.4-3.4 4.8-3.3v3.2h-.2c-2.7 0-4.6 1.7-4.6 5.4v5.1h-3.1z"/><path fill="#e6e6e6" d="m577.9 153.9h3.1v11.1l5.6-6h3.8l-5.4 5.5 5.5 8h-3.5l-4.1-5.8-1.9 2v3.9h-3.1z"/><path fill="#e6e6e6" d="m590.6 165.8c0-3.9 3.1-7 7.2-7 4.2 0 7.2 3.2 7.2 7s-3.1 7-7.3 7c-4.1 0-7.1-3.1-7.1-7zm11.2 0c0-2.3-1.7-4.3-4.2-4.3s-4.1 2-4.1 4.3 1.7 4.3 4.1 4.3c2.6.1 4.2-1.9 4.2-4.3z"/><path fill="#e6e6e6" d="m607 167.6v-8.6h3.1v7.6c0 2.1 1.1 3.3 2.9 3.3s3-1.3 3-3.3v-7.6h3.1v13.4h-3.1v-2.1c-.8 1.3-2.1 2.3-4.2 2.3-3 .2-4.8-1.8-4.8-5z"/><path fill="#e6e6e6" d="m622.7 168.8v-7.1h-1.7v-2.6h1.7v-3.7h3.1v3.7h3.6v2.6h-3.6v6.6c0 1.2.6 1.7 1.7 1.7.7 0 1.3-.2 1.9-.5v2.5c-.8.5-1.7.7-2.8.7-2.3 0-3.9-.9-3.9-3.9z"/><path fill="#e6e6e6" d="m632 154.7h3.2v15h9.4v2.9h-12.6z"/><path fill="#e6e6e6" d="m654.8 172.5v-1.7c-.9 1.1-2.3 2-4.4 2-2.6 0-4.8-1.4-4.8-4.2 0-3 2.3-4.4 5.4-4.4 1.7 0 2.6.2 3.7.5v-.2c0-1.9-1.2-2.9-3.3-2.9-1.5 0-2.6.3-3.9.8l-.8-2.5c1.5-.7 2.9-1.1 5.1-1.1 4 0 5.9 2.1 5.9 5.7v8zm.1-5.6c-.8-.3-1.9-.5-3.1-.5-2 0-3.1.8-3.1 2.1s1.1 2 2.6 2c2 0 3.5-1.1 3.5-2.9z"/><path fill="#e6e6e6" d="m663.7 170.5v2.1h-3.1v-18.7h3.1v7.4c1-1.4 2.4-2.5 4.5-2.5 3.2 0 6.3 2.5 6.3 7s-3.1 7-6.3 7c-2.1 0-3.5-1.1-4.5-2.3zm7.8-4.7c0-2.6-1.7-4.3-3.9-4.3-2.1 0-3.9 1.7-3.9 4.4 0 2.6 1.8 4.3 3.9 4.3s3.9-1.7 3.9-4.4z"/><path fill="#e6e6e6" d="m675.8 170.8 1.4-2.1c1.4 1.1 3 1.7 4.4 1.7s2.1-.5 2.1-1.5-1.3-1.4-2.8-1.8c-.1 0-.2-.1-.2-.1-2-.6-4.2-1.4-4.2-4s2.1-4.1 4.8-4.1c1.7 0 3.5.6 5 1.5l-1.2 2.2c-1.3-.8-2.6-1.3-3.8-1.3s-1.9.5-1.9 1.4 1.3 1.4 2.8 1.8c.1 0 .2.1.2.1 2 .6 4.2 1.5 4.2 4 0 2.9-2.2 4.2-5 4.2-2 0-4.1-.7-5.8-2z"/><path fill="#e6e6e6" d="m61 298.6c0-5.1 4.1-9.2 9.3-9.2s9.2 4.2 9.2 9.2-4.1 9.2-9.3 9.2c-5.1 0-9.2-4.2-9.2-9.2zm17.4-.1c0-4.5-3.5-8.2-8.2-8.2s-8.2 3.7-8.2 8.3c0 4.5 3.5 8.2 8.2 8.2s8.2-3.7 8.2-8.3zm-13.1-.1c0-2.8 2.1-5.1 5.1-5.1 1.9 0 2.9.6 3.9 1.5l-1.4 1.7c-.8-.7-1.5-1.1-2.5-1.1-1.7 0-2.8 1.4-2.8 3.1s1.1 3 2.8 3c1.1 0 1.7-.5 2.5-1.1l1.4 1.4c-1.1 1.1-2.1 1.7-4 1.7-2.8.1-5-2.2-5-5.1z"/><path fill="#e6e6e6" d="m80.9 289.7h3.4l4.2 13.2 4.4-13.3h2.6l4.4 13.3 4.2-13.2h3.3l-6.2 18h-2.7l-4.4-12.8-4.4 12.8h-2.7z"/><path fill="#e6e6e6" d="m107.1 300.8c0-3.9 3.1-7 7.2-7s7.2 3.2 7.2 7-3.1 7-7.3 7c-4 0-7.1-3.1-7.1-7zm11.3 0c0-2.3-1.7-4.3-4.2-4.3s-4.1 2-4.1 4.3 1.7 4.3 4.1 4.3c2.6.1 4.2-1.9 4.2-4.3z"/><path fill="#e6e6e6" d="m123.7 294h3.1v3c.8-2 2.4-3.4 4.8-3.3v3.2h-.2c-2.7 0-4.6 1.7-4.6 5.4v5.1h-3.1z"/><path fill="#e6e6e6" d="m133.4 288.9h3.1v11.1l5.6-6h3.8l-5.4 5.5 5.5 8h-3.5l-4.1-5.8-1.9 1.9v3.9h-3.1z"/><path fill="#e6e6e6" d="m146 300.8c0-3.9 3.1-7 7.2-7s7.2 3.2 7.2 7-3.1 7-7.3 7c-4.1 0-7.1-3.1-7.1-7zm11.2 0c0-2.3-1.7-4.3-4.2-4.3s-4.1 2-4.1 4.3 1.7 4.3 4.1 4.3c2.6.1 4.2-1.9 4.2-4.3z"/><path fill="#e6e6e6" d="m162.4 302.6v-8.6h3.1v7.6c0 2.1 1.1 3.3 2.9 3.3s3-1.3 3-3.3v-7.6h3.1v13.4h-3.1v-2.1c-.8 1.3-2.1 2.3-4.2 2.3-3 .2-4.8-1.8-4.8-5z"/><path fill="#e6e6e6" d="m178.1 303.8v-7.1h-1.7v-2.7h1.7v-3.7h3.1v3.7h3.6v2.6h-3.6v6.6c0 1.2.6 1.7 1.7 1.7.7 0 1.3-.2 1.9-.5v2.5c-.8.5-1.7.7-2.8.7-2.3.1-3.9-.9-3.9-3.8z"/><path fill="#e6e6e6" d="m187.4 289.7h3.2v15h9.4v2.9h-12.5v-17.9z"/><path fill="#e6e6e6" d="m210.2 307.5v-1.7c-.9 1.1-2.3 2-4.4 2-2.6 0-4.8-1.4-4.8-4.2 0-3 2.3-4.4 5.4-4.4 1.7 0 2.6.2 3.7.5v-.2c0-1.9-1.2-2.9-3.3-2.9-1.5 0-2.6.3-3.9.8l-.8-2.5c1.5-.7 2.9-1.1 5.1-1.1 4 0 5.9 2.1 5.9 5.7v8zm.1-5.6c-.8-.3-1.9-.5-3.1-.5-2 0-3.1.8-3.1 2.1s1.1 2 2.6 2c2 0 3.5-1.1 3.5-2.9z"/><path fill="#e6e6e6" d="m219.2 305.5v2.1h-3.1v-18.7h3.1v7.4c1-1.4 2.4-2.5 4.5-2.5 3.2 0 6.3 2.5 6.3 7s-3.1 7-6.3 7c-2.2 0-3.6-1.1-4.5-2.3zm7.7-4.7c0-2.6-1.7-4.3-3.9-4.3s-3.9 1.7-3.9 4.4c0 2.6 1.8 4.3 3.9 4.3s3.9-1.7 3.9-4.4z"/><path fill="#e6e6e6" d="m231.2 305.8 1.4-2.1c1.4 1.1 3 1.7 4.4 1.7s2.1-.5 2.1-1.5-1.3-1.4-2.8-1.8c-.1 0-.2-.1-.2-.1-2-.6-4.2-1.4-4.2-4s2.1-4.1 4.8-4.1c1.7 0 3.5.6 5 1.5l-1.2 2.2c-1.3-.8-2.6-1.3-3.8-1.3s-1.9.5-1.9 1.4 1.3 1.4 2.8 1.8c.1 0 .2.1.2.1 2 .6 4.2 1.5 4.2 4 0 2.9-2.2 4.2-5 4.2-2 0-4.1-.7-5.8-2z"/><path fill="#e6e6e6" d="m360.6 298.6c0-5.1 4.1-9.2 9.3-9.2s9.2 4.2 9.2 9.2-4.1 9.2-9.3 9.2-9.2-4.2-9.2-9.2zm17.4-.1c0-4.5-3.5-8.2-8.2-8.2s-8.2 3.7-8.2 8.3c0 4.5 3.5 8.2 8.2 8.2s8.2-3.7 8.2-8.3zm-13.1-.1c0-2.8 2.1-5.1 5.1-5.1 1.9 0 2.9.6 3.9 1.5l-1.4 1.7c-.8-.7-1.5-1.1-2.5-1.1-1.7 0-2.8 1.4-2.8 3.1s1.1 3 2.8 3c1.1 0 1.7-.5 2.5-1.1l1.4 1.4c-1.1 1.1-2.1 1.7-4 1.7-2.8.1-5-2.2-5-5.1z"/><path fill="#e6e6e6" d="m380.5 289.7h3.4l4.2 13.2 4.4-13.3h2.6l4.4 13.3 4.2-13.2h3.3l-6.2 18h-2.7l-4.4-12.8-4.4 12.8h-2.7z"/><path fill="#e6e6e6" d="m406.7 300.8c0-3.9 3.1-7 7.2-7 4.2 0 7.2 3.2 7.2 7s-3.1 7-7.3 7c-4.1 0-7.1-3.1-7.1-7zm11.3 0c0-2.3-1.7-4.3-4.2-4.3s-4.1 2-4.1 4.3 1.7 4.3 4.1 4.3c2.7.1 4.2-1.9 4.2-4.3z"/><path fill="#e6e6e6" d="m423.3 294h3.1v3c.8-2 2.4-3.4 4.8-3.3v3.2h-.2c-2.7 0-4.6 1.7-4.6 5.4v5.1h-3.1z"/><path fill="#e6e6e6" d="m433 288.9h3.1v11.1l5.6-6h3.8l-5.4 5.5 5.5 8h-3.5l-4.1-5.8-1.9 2v3.9h-3.1z"/><path fill="#e6e6e6" d="m445.6 300.8c0-3.9 3.1-7 7.2-7 4.2 0 7.2 3.2 7.2 7s-3.1 7-7.3 7c-4.1 0-7.1-3.1-7.1-7zm11.3 0c0-2.3-1.7-4.3-4.2-4.3s-4.1 2-4.1 4.3 1.7 4.3 4.1 4.3c2.6.1 4.2-1.9 4.2-4.3z"/><path fill="#e6e6e6" d="m462.1 302.6v-8.6h3.1v7.6c0 2.1 1.1 3.3 2.9 3.3s3-1.3 3-3.3v-7.6h3.1v13.4h-3.1v-2.1c-.8 1.3-2.1 2.3-4.2 2.3-3.1.2-4.8-1.8-4.8-5z"/><path fill="#e6e6e6" d="m477.8 303.8v-7.1h-1.8v-2.7h1.7v-3.7h3.1v3.7h3.6v2.6h-3.6v6.6c0 1.2.6 1.7 1.7 1.7.7 0 1.3-.2 1.9-.5v2.5c-.8.5-1.7.7-2.8.7-2.2.1-3.8-.9-3.8-3.8z"/><path fill="#e6e6e6" d="m487.1 289.7h3.2v15h9.4v2.9h-12.5v-17.9z"/><path fill="#e6e6e6" d="m509.9 307.5v-1.7c-.9 1.1-2.3 2-4.4 2-2.6 0-4.8-1.4-4.8-4.2 0-3 2.3-4.4 5.4-4.4 1.7 0 2.6.2 3.7.5v-.2c0-1.9-1.2-2.9-3.3-2.9-1.5 0-2.6.3-3.9.8l-.8-2.5c1.5-.7 2.9-1.1 5.1-1.1 4 0 5.9 2.1 5.9 5.7v8zm.1-5.6c-.8-.3-1.9-.5-3.1-.5-2 0-3.1.8-3.1 2.1s1.1 2 2.6 2c2 0 3.5-1.1 3.5-2.9z"/><path fill="#e6e6e6" d="m518.8 305.5v2.1h-3.1v-18.7h3.1v7.4c1-1.4 2.4-2.5 4.5-2.5 3.2 0 6.3 2.5 6.3 7s-3.1 7-6.3 7c-2.2 0-3.5-1.1-4.5-2.3zm7.7-4.7c0-2.6-1.7-4.3-3.9-4.3s-3.9 1.7-3.9 4.4c0 2.6 1.8 4.3 3.9 4.3s3.9-1.7 3.9-4.4z"/><path fill="#e6e6e6" d="m530.8 305.8 1.4-2.1c1.4 1.1 3 1.7 4.4 1.7s2.1-.5 2.1-1.5-1.3-1.4-2.8-1.8c-.1 0-.2-.1-.2-.1-2-.6-4.2-1.4-4.2-4s2.1-4.1 4.8-4.1c1.7 0 3.5.6 5 1.5l-1.2 2.2c-1.3-.8-2.6-1.3-3.8-1.3s-1.9.5-1.9 1.4 1.3 1.4 2.8 1.8c.1 0 .2.1.2.1 2 .6 4.2 1.5 4.2 4 0 2.9-2.2 4.2-5 4.2-1.9 0-4.1-.7-5.8-2z"/><path fill="#e6e6e6" d="m659.5 298.6c0-5.1 4.1-9.2 9.3-9.2s9.2 4.2 9.2 9.2-4.1 9.2-9.3 9.2-9.2-4.2-9.2-9.2zm17.3-.1c0-4.5-3.5-8.2-8.2-8.2s-8.2 3.7-8.2 8.3c0 4.5 3.5 8.2 8.2 8.2 4.8 0 8.2-3.7 8.2-8.3zm-13-.1c0-2.8 2.1-5.1 5.1-5.1 1.9 0 2.9.6 3.9 1.5l-1.4 1.7c-.8-.7-1.5-1.1-2.5-1.1-1.7 0-2.8 1.4-2.8 3.1s1.1 3 2.8 3c1.1 0 1.7-.5 2.5-1.1l1.4 1.4c-1.1 1.1-2.1 1.7-4 1.7-2.9.1-5-2.2-5-5.1z"/><path fill="#e6e6e6" d="m679.3 289.7h3.4l4.2 13.2 4.4-13.3h2.6l4.4 13.3 4.2-13.2h3.3l-6.2 18h-2.6l-4.4-12.8-4.4 12.8h-2.7z"/><path fill="#e6e6e6" d="m705.5 300.8c0-3.9 3.1-7 7.2-7 4.2 0 7.2 3.2 7.2 7s-3.1 7-7.3 7c-4 0-7.1-3.1-7.1-7zm11.3 0c0-2.3-1.7-4.3-4.2-4.3s-4.1 2-4.1 4.3 1.7 4.3 4.1 4.3c2.7.1 4.2-1.9 4.2-4.3z"/><path fill="#e6e6e6" d="m722.1 294h3.1v3c.8-2 2.4-3.4 4.8-3.3v3.2h-.2c-2.7 0-4.6 1.7-4.6 5.4v5.1h-3.1z"/><path fill="#e6e6e6" d="m731.8 288.9h3.1v11.1l5.6-6h3.8l-5.4 5.5 5.5 8h-3.5l-4.1-5.8-1.9 2v3.9h-3.1z"/><path fill="#e6e6e6" d="m744.4 300.8c0-3.9 3.1-7 7.2-7 4.2 0 7.2 3.2 7.2 7s-3.1 7-7.3 7c-4.1 0-7.1-3.1-7.1-7zm11.3 0c0-2.3-1.7-4.3-4.2-4.3s-4.1 2-4.1 4.3 1.7 4.3 4.1 4.3c2.6.1 4.2-1.9 4.2-4.3z"/><path fill="#e6e6e6" d="m760.9 302.6v-8.6h3.1v7.6c0 2.1 1.1 3.3 2.9 3.3s3-1.3 3-3.3v-7.6h3.1v13.4h-3.1v-2.1c-.8 1.3-2.1 2.3-4.2 2.3-3.1.2-4.8-1.8-4.8-5z"/><path fill="#e6e6e6" d="m776.6 303.8v-7.1h-1.7v-2.7h1.7v-3.7h3.1v3.7h3.6v2.6h-3.6v6.6c0 1.2.6 1.7 1.7 1.7.7 0 1.3-.2 1.9-.5v2.5c-.8.5-1.7.7-2.8.7-2.3.1-3.9-.9-3.9-3.8z"/><path fill="#e6e6e6" d="m785.9 289.7h3.2v15h9.4v2.9h-12.5v-17.9z"/><path fill="#e6e6e6" d="m808.7 307.5v-1.7c-.9 1.1-2.3 2-4.4 2-2.6 0-4.8-1.4-4.8-4.2 0-3 2.3-4.4 5.4-4.4 1.7 0 2.6.2 3.7.5v-.2c0-1.9-1.2-2.9-3.3-2.9-1.5 0-2.6.3-3.9.8l-.8-2.5c1.5-.7 2.9-1.1 5.1-1.1 4 0 5.9 2.1 5.9 5.7v8zm.1-5.6c-.8-.3-1.9-.5-3.1-.5-2 0-3.1.8-3.1 2.1s1.1 2 2.6 2c2 0 3.5-1.1 3.5-2.9z"/><path fill="#e6e6e6" d="m817.6 305.5v2.1h-3.1v-18.7h3.1v7.4c1-1.4 2.4-2.5 4.5-2.5 3.2 0 6.3 2.5 6.3 7s-3.1 7-6.3 7c-2.1 0-3.5-1.1-4.5-2.3zm7.7-4.7c0-2.6-1.7-4.3-3.9-4.3-2.1 0-3.9 1.7-3.9 4.4 0 2.6 1.8 4.3 3.9 4.3 2.2 0 3.9-1.7 3.9-4.4z"/><path fill="#e6e6e6" d="m829.6 305.8 1.4-2.1c1.4 1.1 3 1.7 4.4 1.7s2.1-.5 2.1-1.5-1.3-1.4-2.8-1.8c-.1 0-.2-.1-.2-.1-2-.6-4.2-1.4-4.2-4s2.1-4.1 4.8-4.1c1.7 0 3.5.6 5 1.5l-1.2 2.2c-1.3-.8-2.6-1.3-3.8-1.3s-1.9.5-1.9 1.4 1.3 1.4 2.8 1.8c.1 0 .2.1.2.1 2 .6 4.2 1.5 4.2 4 0 2.9-2.2 4.2-5 4.2-1.9 0-4-.7-5.8-2z"/><path fill="#e6e6e6" d="m206.3 434.2c0-5.1 4.1-9.2 9.3-9.2s9.2 4.2 9.2 9.2-4.1 9.2-9.3 9.2-9.2-4.1-9.2-9.2zm17.4-.1c0-4.5-3.5-8.2-8.2-8.2s-8.2 3.7-8.2 8.3c0 4.5 3.5 8.2 8.2 8.2s8.2-3.7 8.2-8.3zm-13.1-.1c0-2.8 2.1-5.1 5.1-5.1 1.9 0 2.9.6 3.9 1.5l-1.4 1.7c-.8-.7-1.5-1.1-2.5-1.1-1.7 0-2.8 1.4-2.8 3.1s1.1 3 2.8 3c1.1 0 1.7-.5 2.5-1.1l1.4 1.4c-1.1 1.1-2.1 1.7-4 1.7-2.9.1-5-2.2-5-5.1z"/><path fill="#e6e6e6" d="m226.1 425.3h3.4l4.2 13.2 4.4-13.3h2.6l4.4 13.3 4.2-13.2h3.3l-6.2 18h-2.7l-4.4-12.8-4.4 12.8h-2.7z"/><path fill="#e6e6e6" d="m252.4 436.4c0-3.9 3.1-7 7.2-7 4.2 0 7.2 3.2 7.2 7s-3.1 7-7.3 7c-4.1 0-7.1-3.1-7.1-7zm11.2 0c0-2.3-1.7-4.3-4.2-4.3s-4.1 2-4.1 4.3 1.7 4.3 4.1 4.3c2.7.1 4.2-1.9 4.2-4.3z"/><path fill="#e6e6e6" d="m269 429.7h3.1v3c.8-2 2.4-3.4 4.8-3.3v3.2h-.2c-2.7 0-4.6 1.7-4.6 5.4v5.1h-3.1z"/><path fill="#e6e6e6" d="m278.6 424.5h3.1v11.1l5.6-6h3.8l-5.4 5.5 5.5 8h-3.5l-4.1-5.8-1.9 2v3.9h-3.1z"/><path fill="#e6e6e6" d="m291.3 436.4c0-3.9 3.1-7 7.2-7 4.2 0 7.2 3.2 7.2 7s-3.1 7-7.3 7c-4.1 0-7.1-3.1-7.1-7zm11.2 0c0-2.3-1.7-4.3-4.2-4.3s-4.1 2-4.1 4.3 1.7 4.3 4.1 4.3c2.6.1 4.2-1.9 4.2-4.3z"/><path fill="#e6e6e6" d="m307.7 438.2v-8.6h3.1v7.6c0 2.1 1.1 3.3 2.9 3.3s3-1.3 3-3.3v-7.6h3.1v13.4h-3.1v-2.1c-.8 1.3-2.1 2.3-4.2 2.3-3 .2-4.8-1.8-4.8-5z"/><path fill="#e6e6e6" d="m323.4 439.4v-7.1h-1.7v-2.6h1.7v-3.7h3.1v3.7h3.6v2.6h-3.6v6.6c0 1.2.6 1.7 1.7 1.7.7 0 1.3-.2 1.9-.5v2.5c-.8.5-1.7.7-2.8.7-2.3 0-3.9-.9-3.9-3.9z"/><path fill="#e6e6e6" d="m332.7 425.3h3.2v15h9.4v2.9h-12.5v-17.9z"/><path fill="#e6e6e6" d="m355.5 443.1v-1.7c-.9 1.1-2.3 2-4.4 2-2.6 0-4.8-1.4-4.8-4.2 0-3 2.3-4.4 5.4-4.4 1.7 0 2.6.2 3.7.5v-.2c0-1.9-1.2-2.9-3.3-2.9-1.5 0-2.6.3-3.9.8l-.8-2.5c1.5-.7 2.9-1.1 5.1-1.1 4 0 5.9 2.1 5.9 5.7v8zm.1-5.6c-.8-.3-1.9-.5-3.1-.5-2 0-3.1.8-3.1 2.1s1.1 2 2.6 2c2 0 3.5-1.1 3.5-2.9z"/><path fill="#e6e6e6" d="m364.4 441.1v2.1h-3.1v-18.7h3.1v7.4c1-1.4 2.4-2.5 4.5-2.5 3.2 0 6.3 2.5 6.3 7s-3.1 7-6.3 7c-2.1 0-3.5-1.1-4.5-2.3zm7.7-4.7c0-2.6-1.7-4.3-3.9-4.3-2.1 0-3.9 1.7-3.9 4.4 0 2.6 1.8 4.3 3.9 4.3 2.2 0 3.9-1.7 3.9-4.4z"/><path fill="#e6e6e6" d="m376.5 441.4 1.4-2.1c1.4 1.1 3 1.7 4.4 1.7s2.1-.5 2.1-1.5-1.3-1.4-2.8-1.8c-.1 0-.2-.1-.2-.1-2-.6-4.2-1.4-4.2-4s2.1-4.1 4.8-4.1c1.7 0 3.5.6 5 1.5l-1.2 2.2c-1.3-.8-2.6-1.3-3.8-1.3s-1.9.5-1.9 1.4 1.3 1.4 2.8 1.8c.1 0 .2.1.2.1 2 .6 4.2 1.5 4.2 4 0 2.9-2.2 4.2-5 4.2-2 0-4.1-.7-5.8-2z"/><path fill="#e6e6e6" d="m505.1 434.2c0-5.1 4.1-9.2 9.3-9.2s9.2 4.2 9.2 9.2-4.1 9.2-9.3 9.2-9.2-4.1-9.2-9.2zm17.4-.1c0-4.5-3.5-8.2-8.2-8.2s-8.2 3.7-8.2 8.3c0 4.5 3.5 8.2 8.2 8.2s8.2-3.7 8.2-8.3zm-13.1-.1c0-2.8 2.1-5.1 5.1-5.1 1.9 0 2.9.6 3.9 1.5l-1.4 1.7c-.8-.7-1.5-1.1-2.5-1.1-1.7 0-2.8 1.4-2.8 3.1s1.1 3 2.8 3c1.1 0 1.7-.5 2.5-1.1l1.4 1.4c-1.1 1.1-2.1 1.7-4 1.7-2.9.1-5-2.2-5-5.1z"/><path fill="#e6e6e6" d="m525 425.3h3.4l4.2 13.2 4.4-13.3h2.6l4.4 13.3 4.2-13.2h3.3l-6.2 18h-2.7l-4.4-12.8-4.4 12.8h-2.7z"/><path fill="#e6e6e6" d="m551.2 436.4c0-3.9 3.1-7 7.2-7 4.2 0 7.2 3.2 7.2 7s-3.1 7-7.3 7c-4.1 0-7.1-3.1-7.1-7zm11.2 0c0-2.3-1.7-4.3-4.2-4.3s-4.1 2-4.1 4.3 1.7 4.3 4.1 4.3c2.7.1 4.2-1.9 4.2-4.3z"/><path fill="#e6e6e6" d="m567.8 429.7h3.1v3c.8-2 2.4-3.4 4.8-3.3v3.2h-.2c-2.7 0-4.6 1.7-4.6 5.4v5.1h-3.1z"/><path fill="#e6e6e6" d="m577.5 424.5h3.1v11.1l5.6-6h3.8l-5.4 5.5 5.5 8h-3.5l-4.1-5.8-1.9 2v3.9h-3.1z"/><path fill="#e6e6e6" d="m590.1 436.4c0-3.9 3.1-7 7.2-7 4.2 0 7.2 3.2 7.2 7s-3.1 7-7.3 7c-4.1 0-7.1-3.1-7.1-7zm11.2 0c0-2.3-1.7-4.3-4.2-4.3s-4.1 2-4.1 4.3 1.7 4.3 4.1 4.3c2.6.1 4.2-1.9 4.2-4.3z"/><path fill="#e6e6e6" d="m606.5 438.2v-8.6h3.1v7.6c0 2.1 1.1 3.3 2.9 3.3s3-1.3 3-3.3v-7.6h3.1v13.4h-3.1v-2.1c-.8 1.3-2.1 2.3-4.2 2.3-3 .2-4.8-1.8-4.8-5z"/><path fill="#e6e6e6" d="m622.2 439.4v-7.1h-1.7v-2.6h1.7v-3.7h3.1v3.7h3.6v2.6h-3.6v6.6c0 1.2.6 1.7 1.7 1.7.7 0 1.3-.2 1.9-.5v2.5c-.8.5-1.7.7-2.8.7-2.3 0-3.9-.9-3.9-3.9z"/><path fill="#e6e6e6" d="m631.5 425.3h3.2v15h9.4v2.9h-12.5v-17.9z"/><path fill="#e6e6e6" d="m654.3 443.1v-1.7c-.9 1.1-2.3 2-4.4 2-2.6 0-4.8-1.4-4.8-4.2 0-3 2.3-4.4 5.4-4.4 1.7 0 2.6.2 3.7.5v-.2c0-1.9-1.2-2.9-3.3-2.9-1.5 0-2.6.3-3.9.8l-.8-2.5c1.5-.7 2.9-1.1 5.1-1.1 4 0 5.9 2.1 5.9 5.7v8zm.1-5.6c-.8-.3-1.9-.5-3.1-.5-2 0-3.1.8-3.1 2.1s1.1 2 2.6 2c2 0 3.5-1.1 3.5-2.9z"/><path fill="#e6e6e6" d="m663.3 441.1v2.1h-3.1v-18.7h3.1v7.4c1-1.4 2.4-2.5 4.5-2.5 3.2 0 6.3 2.5 6.3 7s-3.1 7-6.3 7c-2.2 0-3.6-1.1-4.5-2.3zm7.7-4.7c0-2.6-1.7-4.3-3.9-4.3s-3.9 1.7-3.9 4.4c0 2.6 1.8 4.3 3.9 4.3s3.9-1.7 3.9-4.4z"/><path fill="#e6e6e6" d="m675.3 441.4 1.4-2.1c1.4 1.1 3 1.7 4.4 1.7s2.1-.5 2.1-1.5-1.3-1.4-2.8-1.8c-.1 0-.2-.1-.2-.1-2-.6-4.2-1.4-4.2-4s2.1-4.1 4.8-4.1c1.7 0 3.5.6 5 1.5l-1.2 2.2c-1.3-.8-2.6-1.3-3.8-1.3s-1.9.5-1.9 1.4 1.3 1.4 2.8 1.8c.1 0 .2.1.2.1 2 .6 4.2 1.5 4.2 4 0 2.9-2.2 4.2-5 4.2-2 0-4.1-.7-5.8-2z"/></g>
</svg>
