<?xml version="1.0" encoding="utf-8"?>
<!-- Generator: Adobe Illustrator 23.0.1, SVG Export Plug-In . SVG Version: 6.00 Build 0)  -->
<svg version="1.2" baseProfile="tiny" id="Layer_1" xmlns="http://www.w3.org/2000/svg" xmlns:xlink="http://www.w3.org/1999/xlink"
	 x="0px" y="0px" viewBox="0 0 900 600" xml:space="preserve">
<g>
	<path d="M504.31,222.17l0.1-0.1C504.41,222.19,504.41,222.14,504.31,222.17z"/>
	<path d="M883.85,271.89c-0.25,1.82,1.25,3.26,1.35,4.89c-3.95,2.18-4.78,2.08-7.59-0.94c0.83-0.97,3.41,0.47,3.95-1.14
		c-2.39-2.6-18.1-12.27-21.64-13.11c5.62,3.69,14.76,11.55,16.85,16.12c-0.82,3.27-10.76,5.4-17.16-2.08
		c-5.74-6.69-16.74-5.78-19.97-7.07c-1.35,1.35,0.31,2.91-0.73,4.37c-8.84,5.72-16.02,0-23.72-3.64c-0.52,0.21-1.15,0.51-1.87,0.62
		c-22.71,3.51-8.99-9.68-25.9-15.29c-79.91-26.48-19.27,4.87-140.42-33.39c-3.85,5.41-2.81,12.07-5.72,18.51
		c-1.04-4.58-2.08-8.01-0.42-12.17c-4.68,5.41-6.03,11.34-7.18,17.47c2.39-1.87,1.77-5.1,3.22-7.18c3.75,0.31,0.69,8.21-1.04,11.55
		c2.08,4.99,4.78,9.57,5.93,15.29c-3.74-1.35-4.06-4.58-5.93-6.55c-0.79,0.7-1.5,1.3-2.28,1.99c0.72,1.04,0.72,1.86-0.63,2.59
		c-3.22-0.31-3.54-4.06-5.82-5.51c-3.74,2.91-3.12,7.7-4.99,11.23c-2.81-0.83-1.35-3.43-2.5-4.89c-0.83,0.62-0.73,1.98-2.29,1.87
		c-3.95-3.54-4.26-9.05-6.14-14.77c-0.52,5.2,1.77,9.67-1.46,14.15c-3.64-3.95-4.26-8.22-4.37-13.52c-7.8,5.12-15.1,2.67-23.61-2.29
		c-2.37-1.38-3.85-6.14-2.7-9.88c1.35,4.16,4.79,5.93,7.28,8.63c4.79,5.2,10.09,4.58,16.12,2.5c-0.62-2.18-1.14-4.06-1.77-6.14
		c-4.06-0.42-4.78-4.26-6.66-7.07c-3.22,0.31-6.03-0.1-6.24-3.74c-6.03-2.08-11.34-4.68-16.33-6.97c-0.62-2.29,1.04-3.54,1.04-6.14
		c-8.74,2.39-12.69-4.78-18.93-8.43c2.7-1.98,5.61-1.17,8.11-1.77c4.56-1.1,9.42-4.48,5.51-6.97c-2.39,2.08-4.47,5.11-7.07,5.62
		c-2.18,0.43-5.51,2.39-8.01-0.52c2.7-3.54,4.26-7.7,7.91-9.67c2.29-0.31,3.54,1.87,5.51,1.35c-5.61-5.61-6.05-3.75-17.06,3.95
		c0,2.29,0.62,4.16,1.25,6.14c-4.8,2.74-2.85-3.31-4.68-6.97c4.99-3.54,9.57-7.28,14.87-9.57c-3.43-6.34-10.82-8.63-14.87-13.73
		c0.42-1.87,1.98-1.35,2.29-2.08c-1.25-4.06-6.24-3.54-7.91-7.18c2.6-2.7,7.39-0.31,9.15-5.1c0-0.83-1.98-2.39-0.21-4.37
		c3.74-1.14,8.22,2.18,11.96-1.56c-6.96-6.96-1.04-7.79-11.44-10.71c-10.18-2.86-27.26,9.51-23.2,13.52
		c5.52,5.44,11.82,41.91,3.33,50.03c-4.36,4.17-5.17,10.13-8.84,14.56c-0.42,0.51-0.31,1.46,0.62,2.18
		c3.33-1.04,6.86-0.05,10.51-0.1c3.54-0.05,6.97-2.39,11.55-0.52c-4.89,3.54-9.57,4.99-14.35,4.37c-4.78-0.62-8.84,1.46-14.25,1.87
		c5.62,4.63,17.41,18.99,15.81,26.21c3.95,4.37,8.83,7.29,13.21,10.61c31.62,23.94,33.74,17.16,46.7,24.76
		c30.55,17.9,31.93,19.28,36.51,19.97c21.27,3.19,21.5,2.57,24.55,4.89c0.1,0.08,22.28,16.89,23.2,17.06
		c6.34,1.15,7.28,2.39,6.66,8.95c2.7,3.02,4.06,7.28,8.01,9.36c-0.1,3.02-1.04,4.99-4.58,4.58c-0.31-1.66,1.77-2.29,1.25-4.37
		c-5.93-6.55-10.81-14.88-18.72-20.49c-4.26-3.02-8.63-6.14-12.38-9.78c-8.36-8.12-28.22-3.34-41.19-12.17
		c-0.69-0.47-3.52,1.17-13.52-4.58c2.5-0.94,4.16,0.94,6.03-0.21c-1.98-1.04-4.06-1.66-5.72-2.91
		c-19.82-14.94-26.03-5.48-58.04-32.04c-22.31-18.5-31.89-15.08-30.48-18.62c4.58-0.42,8.95,0.1,13.31,2.39
		c-0.86-10.95-27.47-31.26-36.2-38.9c8.39,1.2,15.11,10.13,15.7,2.89c0.43-0.08,1.06-0.1,1.15-0.4c14.03-26.16-6.19-32.34-5.3-38.07
		c7.08,1.23,15.19,10.13,15.19,23.82c15.41-28.9-27.71-32.28-39.21-37.55c-22.94-10.51-41.63-2.9-45.87-3.85
		c-5.96-1.33-14.22,2.2-16.95,7.49c-3.61,6.96-8.67,8.92-7.28,17.68c0.52,1.25,2.5,0.62,2.81,2.39
		c-6.04,1.58,2.72,17.44,26.94,28.08c-1.14-9.47-1.87-18.62-5.82-27.25c6.81,5.62,8.9,13.39,10.4,27.88
		c1.13,10.92,6.71,20.47,10.09,30.68c2.32,7.03,27.3,27.66,31.41,26.63c19.06,33.83,54.65,34.81,100.27,49.93
		c-1.46-2.18-4.47-3.22-4.99-6.45c4.06,2.08,7.91,4.06,11.55,5.93c-0.33,1.73-1.31,1.96-2.23,2.13c0.96,1.45,2.95,2.76,5.03,1.82
		c0-1.66-2.18-3.85,1.04-4.99c1.46,0.42,2.39,2.08,3.74,1.77c5.49,12.73,17.41,19.83,22.57,20.18c5.72,0.39,13.11,5.5,18.31,9.05
		c4.69,3.21,9.88,2.5,16.12,2.18c-5.1-4.58-11.55-5.51-14.87-10.51c-3.33-4.99-10.51-5.3-14.15-10.51c0.94-0.31,1.35-0.52,1.46-0.42
		c4.06,3.54,9.88,4.26,13.52,8.43c0.31,0.31,0.63,0.72,1.04,0.83c6.58,1.77,19.78,18.43,29.64,13.73
		c-4.89-5.93-10.82-10.61-16.02-16.02c-5.3-5.51-13.11-7.59-18.83-13.31c6.86-0.1,34.01,21.74,39.01,30.68
		c-5.72,2.7-11.44,3.74-16.33-0.62c-22.02,3.71-27.62-8.31-41.4-11.34c-16.09-3.54-20.38-21.49-23.61-16.64
		c-0.1,1.56,1.98,1.56,1.56,3.33c-7.13,0.32-2.81-5.61-46.6-14.67c-31.09-6.43-37.68-15.13-45.45-17.99
		c-16.29-6.01-17.69-20.84-33.7-29.96c-23.54-13.39-30.77-40.65-30.27-41.4c2.18-3.74-0.42-6.66-1.14-9.78
		c-22.21-4.44-43.5-31.87-31.1-47.22c7.31-9.06,4.06-10.94,12.79-14.15c8.98-3.29,41.01-7.85,62.1,3.64
		c6.4,3.49,8.93,0.56,27.25,10.3c1.97,1.05,4.35,0.02,5.82,1.77c4.69,5.55,8.81,11.4,9.14,19.06c4.65-0.08-2.33,12.39-4.5,16.23
		c4.05,0,3.82-4.53,6.39-6.37c1.69-0.42,0.96,3.49,4.16-2.91c0.83-2.07,3.82-19.04-4.58-36.41c-1.76-3.64-3.43-7.39-2.7-11.55
		c-2.81-2.08-5.93-3.64-7.59-6.86c3.12,1.66,5.82,3.85,9.57,3.85c8.65-8.96,14.63-3.24,14.35-11.03c3.22,3.12,6.34-1.04,9.57,0.21
		c-3.22-2.39-6.45-4.47-6.97-8.74c0.83-0.21,1.55-0.1,1.77,0.42c1.92,4.54,4.75,4.31,15.67,11.24c-0.9-5.64-5.35-10.48-3.3-16.55
		c-10.61-5.3-21.32-8.76-32.97-9.47c-38.92-2.35-18.86-3.19-52.42-8.11c-24.13-3.54-35.39,5.65-57.31,0.73
		c-5.4-1.21-31.68-0.46-40.15,6.14c-6.26,4.87-12.79,9.36-19.14,14.04c7.8-1.04,15.19,0.83,22.57,1.35
		c-17.56,0.89-23.01-1.04-26.94,2.7c-15.36,14.65-17.05,38.18-14.46,40.77c25.78,5.49,25.48,5.47,0.42,1.77
		c-0.46,4.14-1.1,2.75,38.28,22.78c1.45,0.74,3.02,1.04,3.85,2.7c-14.04-5.1-26.42-13.63-40.46-19.66
		c2.21,9.96,10.63,15.25,20.18,18.83c22.37,8.37,24.42,15.23,55.75,20.8c18.41,3.28,23.89,1.27,26.32,5.72
		c-2.48,1.52-29.3-1.08-44.1-6.03c-34.45-11.53-27.08-13.45-31.93-14.77c-8.84-2.4-17.27-5.62-24.13-12.07
		c-10.92,6.34-21.95,8.43-33.8,4.99c-2.05-0.82-10.16,1.42-30.37-5.82c-18.11-6.49-19.01-2.33-35.99-8.11
		c-3.95-1.35-7.91-2.7-12.07-3.64c-5.43-1.23-30.5-11.24-33.91-11.55c-3.75-0.34-27.83-3.72-28.6-7.39c0.42-2.29,2.5-3.01,3.85-4.26
		c6.83-6.34-3.22-2.98,5.62-24.44c2.92-7.08,2.12-18.71,17.47-26.73c-1.98-2.91-5.48,0.07-8.01-2.39c-2.05-2-5.3-2.82-7.7-4.58
		c-2.28-1.67-6.14-0.62-8.01-4.89c24.76,10,11.57,4.24,9.47,1.14c-16.57-24.43-71.13-15.59-97.67-37.45
		c8.63-0.52,15.71,4.78,23.92,6.14c2.72-9.52,2.97-14.81,12.07-21.32c8.45-6.05,15.94-10.14,12.9-18.31
		c-2.29-6.14,8.4-19.15,9.78-21.01C142.95,1.03,150.87,0,159.29,0c0.62,0.94,1.34,1.57,1.66,2.39c5,12.66,9.67,8.29,10.92,13.73
		c2.32,10.1,11.81,14.15,6.34,18.62c0.83,3.02,3.01,4.18,5.51,4.99c8.51,2.77,17.05,5.87,25.9,7.7c9.81,2.02,3.36,3.07,12.9,4.58
		c33.01,5.23,49.53,5.48,66.36,35.88c9,1.73,8.01-7.03,36.51-1.56c1.14,0.22,2.39,0.52,2.29,2.39c-1.66,1.46-3.74,0-5.62,0.73
		c-0.83,0.94-1.67,1.96-2.91,2.6c-43.86,22.66-41.55,24.96-75.51,29.85c14.04-4.78,29.23-6.24,42.54-14.04
		c-1.04-0.73-1.77-0.5-2.5-0.42c-29.74,3.61-38.99-6.7-55.54-0.62c-2.93,1.08-1.91,0.43-21.32-0.83
		c-6.32,9.05-17.76,9.78-19.97,12.38c-7.17,8.44-10.71,18.4-10.71,25.38c-0.62,1.35-1.87,0.31-2.6,1.46
		c-4.19,16.29,4.83,9.16-4.68,21.53c15.7,4.74,32.56,4.7,49.61,12.79c9.05,4.3,34.82,8.64,39.53,7.7
		c-8.63-5.93-16.85-10.92-26.21-15.5c4.56-0.7,16.47,6.5,20.39,8.95c23.15,14.47,28.03,14.06,53.57,19.76
		c6.28,1.4,22.52-0.29,30.16-5.2c-1.98-3.12-2.07-7-5.93-8.32c-2.95-1.01-3.06-30.03,10.71-47.74c-1.14-1.66-3.33-1.35-4.68-3.12
		c2.6-0.94,4.89,0.62,7.39,0.31c11.15-12.92,23.79-14.92,33.28-23.4c-2.6-1.66-4.99-3.12-7.39-4.68c4.06,0.21,8.53-0.73,10.61,4.06
		c5.62-1.04,11.34-0.73,16.85-3.33c-2.39-2.81-4.58-5.41-7.91-7.07c3.95,0.21,6.34,1.56,12.48,6.45c6.45-1.25,12.79,1.14,20.28,1.46
		c-21-17.07-26.61-24.42-66.15-29.64c-5.41-0.71-10.4,0.94-15.08,3.74c1.04,1.14,3.02,0.42,3.64,2.5c-5.1-1.87-9.88-0.94-14.98,1.25
		c1.66-1.56-0.31-2.29-0.21-3.54c10.86,0,11.69-16.33,46.18-4.16c6.17,2.18,14.99-2.15,29.85,10.82
		c7.61,6.64,15.71,12.59,22.78,19.76c50.07-8.76,45.22,3.42,87.48,5.82c36.44,2.07,35.99,12.1,47.12,9.78
		c9.44-1.97,57.49,16.53,69.17,32.14c5.3,7.08,12.38,10.5,21.01,11.65c16.72,2.22,15,1.59,40.98,15.5
		c13.37,7.16,17.19-2.32,32.76,7.07c11.52,6.95,14.03,8.98,28.71,12.27c16.81,3.78,42.92,21.96,47.95,24.24
		c15.66,7.09,5.86,9.33,21.43,13.83c8.93,2.58,21.37,1.44,23.4,3.85c2.9,3.45,6.97,4.58,10.92,5.93c8.32,2.83,15.4,7.88,23.2,11.75
		C890.54,268.76,883.85,271.79,883.85,271.89z M560.27,201.48c-0.31,1.66,0.52,3.02-0.1,4.58
		C562.64,203.85,565.14,202.97,560.27,201.48z M551.01,169.44c1.56,0.1,2.5,0.21,3.74,0.21
		C553.82,167.46,552.78,167.46,551.01,169.44z M555.06,183.17c-0.94-1.25-2.18-1.66-4.16-1.66
		C552.26,183.27,553.82,182.75,555.06,183.17c0.52,1.35,1.46,2.39,2.39,3.54C558.6,184.21,558.6,184.21,555.06,183.17z
		 M678.63,343.56c0.1-1.56-0.31-2.18-1.46-2.18C676.76,342.62,677.7,343.04,678.63,343.56z M509.4,223.84
		c-1.46,1.25-2.5,2.18-3.64,3.12c2.81,2.81,7.49,3.43,12.79,1.77c-0.28-1.93-2.41,1.25-1.77-2.6c-1.77,0.52-3.12,1.98-4.99,1.77
		c-0.31-1.77,1.66-1.87,1.66-3.12C512,224.98,510.55,224.57,509.4,223.84z M516.06,223.11c-1.35,0.21-2.18,0.52-2.6,1.56
		C514.5,224.88,515.12,224.25,516.06,223.11z M522.51,198.46c-3.39,3.39,3.05-3.86-9.57,21.74c2.39-1.56,4.16-2.29,4.37-4.47
		C516.52,212.89,522.51,208.67,522.51,198.46z M517.52,221.65c1.46,0.52,1.87-0.1,2.29-1.56
		C518.35,220.2,518.04,220.93,517.52,221.65z M167.4,17.47c-1.2-3.67-5.6-0.54-10.51-13.63c-13.43,1.84-16.01,3.55-24.76,17.68
		c-1.47,2.38-2.98,4.98-1.98,8.01c1.93,5.8-0.31,10.3-4.58,14.04c-15.99,14.05-15.27,10.91-19.87,27.36
		c10.4,3.85,20.8,5.72,31.2,7.07c1.63-2.36-1.93-2.97-2.08-5.1c0.52-1.77,2.6-2.39,3.33-3.64c2.72-0.87,4.11,1.44,4.78,0.97
		c0.47,3.72,3.48,0.91,0.18-0.11c0.84-0.56-3.46-3.04-1.42-6.16c3.54-0.62,4.47,3.12,7.18,4.16c0.62-1.77-1.77-4.06,0.94-5.62
		c2.7,0.62,3.43,3.85,6.97,5.3c-10.04-11.13-0.6-23.26,0.31-25.48c1.66-0.73,3.12,0.52,4.47,0.42c5.3-3.54,10.92-6.24,14.56-12.17
		C172.29,27.56,169.2,22.98,167.4,17.47z M161.58,46.49c-0.52-1.14-1.56-1.25-2.6-1.35c-5.51,9.78-4.37,16.02,3.54,19.14
		C159.6,53.88,159.5,52.22,161.58,46.49z M165.22,48.26c1.66-2.18,2.81-3.74,4.58-6.14C166.05,43.06,163.97,44.1,165.22,48.26z
		 M170.94,40.88c1.46-0.83,2.91-1.66,4.37-2.5C173.02,37.76,171.98,39.32,170.94,40.88z M267.78,104.64c30,0,18.03-2.62,50.34-15.19
		c-6.24-1.25-12.49-1.47-18.51,0.52c-16.98,5.61-20.46-2.76-38.38,13.94C263.72,104.85,265.8,104.64,267.78,104.64z M242.5,101.93
		c-1.56-2.08-3.95-3.33-5.1-6.14c7.8,2.08,13.52,8.84,22.47,8.11c8.21-16.87,11.02-5.56,4.68-15.71c0.68-3.06,4.85,3.28,9.99,1.77
		c2.91-0.86,5.82-1.46,9.05-1.77c-0.42-2.29-1.99-3.73-3.43-5.1c-18.16-17.16-18.55-20.03-38.07-23.4
		c-70.37-12.16-57.71-25.25-73.54-12.59c1.46,1.25,3.12,1.98,4.26,3.64c-2.29,0.21-4.16-0.52-6.03-1.66
		c-5.58,2.45-5.69,13.38,1.77,16.33c8.27,3.27,8.97-1.13,17.27,1.98c28.33,10.59,19.24,12.28,52.63,34.01
		C239.7,102.23,240.84,102.56,242.5,101.93z M171.04,72.6c-2.91-1.14-5.72-2.08-8.11-3.95c-0.21,1.87,1.77,1.87,2.18,3.12
		C163.5,76.6,165.95,78.96,171.04,72.6z M195.38,110.15c3.22-2.18,7.8-2.08,8.11-7.07c10.4-1.87,20.8,3.85,31.41-0.52
		c-4.87-5.07-12.91-6.31-17.99-12.48c-5.94-7.21-32.81-23.44-40.05-20.18c-5.54,18.24-18.32,3.5-20.49,2.29
		c-5.3,0.52-8.84,5.51-14.35,5.51c-1.58,3.15,25.07,0.79,36.61,21.53C182.28,105.77,192.83,106.81,195.38,110.15z M629.64,191.18
		c0.42-0.52,0.31-1.04,0-1.66C629.02,190.14,629.23,190.66,629.64,191.18z M627.98,199.71c-0.83-0.52-1.35-0.42-1.56,0.94
		C627.35,200.64,627.87,200.44,627.98,199.71z M627.87,183.9c1.35,0.42,2.08-0.94,3.33-0.31c-0.1-2.18-0.42-3.85-1.25-5.72
		c-1.35,0.73-2.81,0.62-3.74,1.77C627.15,181.19,627.67,182.44,627.87,183.9z M622.88,228c1.77-3.33,3.02-5.82,1.87-8.74
		C623.4,221.76,622.78,224.36,622.88,228z M623.82,198.77c4.95-4.95,0.5-0.83-1.87-3.02C621.74,197.42,622.78,197.84,623.82,198.77z
		 M624.34,190.87c-0.62,1.35-0.73,2.29-0.21,3.33C625.69,193.47,625.48,192.43,624.34,190.87z M620.39,168.19
		c-1.04-1.04-1.46-0.21-2.29-0.1C619.45,169.86,619.87,169.13,620.39,168.19z M616.95,197.63c-1.66,0.52-3.12,1.04-4.78,0.73
		C613.56,202.06,616.31,202.76,616.95,197.63z M614.87,171.31c-1.25-1.04-1.56,0-2.29,0.42
		C613.73,172.46,614.46,172.46,614.87,171.31z M612.58,229.98c0.34-7.92,0.88-7.4-0.42-6.97
		C612.58,225.29,610.5,227.58,612.58,229.98z M606.76,243.08c1.14-0.1,2.29,0,3.43-1.04c-1.35-1.77-0.52-5.51-4.99-5.1
		C605.62,239.13,605.82,241.21,606.76,243.08z M605.3,203.76c1.46-2.5,3.85-4.58,2.6-7.59c-1.46-0.62-2.18,0.52-3.43,1.04
		C604.78,199.81,605.1,201.79,605.3,203.76z M604.16,192.43c-1.56-0.31-1.46,0.62-2.5,1.35
		C603.85,193.99,603.95,193.26,604.16,192.43z M601.46,178.9c-0.31,1.35-0.62,2.7-0.94,4.16
		C603.22,180.67,603.22,180.67,601.46,178.9z M596.67,220.41c0.62,3.64,4.26,1.56,4.99,3.85
		C601.25,221.55,598.96,221.55,596.67,220.41z M602.5,236.01c1.56-3.12-1.14-2.5-2.08-3.33
		C600.42,234.03,601.46,234.76,602.5,236.01z M598.85,227.9c-0.42,0.62-0.73,1.14-1.56,2.29
		C599.06,229.56,599.48,229.04,598.85,227.9z M596.98,236.84c0.52-0.94,0.83-1.77-0.62-2.29
		C595.32,235.8,596.15,236.32,596.98,236.84z M593.45,192.01c2.5-0.52,4.58-0.83,6.55-2.91c-1.98-0.42-3.43-0.73-4.89-1.04
		C593.86,188.99,593.03,189.93,593.45,192.01z M597.61,153.73c-2.39,0.73-4.58,1.46-6.76,2.91
		C597.05,158.37,596.1,157.96,597.61,153.73z M591.47,181.92c2.15,1.72,3.46,0.78,3.02-0.1
		C593.65,180.57,592.72,179.84,591.47,181.92z M593.03,233.3c-0.73-1.87-1.98-1.56-3.33-1.04
		C590.53,233.62,591.57,234.14,593.03,233.3z M589.49,205.43c0.83-1.14,0.94-1.87,0.52-2.81c-0.52,0-1.14-0.2-1.35,0
		C587.33,203.89,587.62,204.8,589.49,205.43z M589.91,194.82c-0.42-0.83-0.94-1.56-1.87-0.52
		C588.45,195.03,589.08,195.13,589.91,194.82z M589.91,187.75c-1.14-1.77-2.6-1.77-4.78-1.87
		C586.89,187.33,588.14,188.16,589.91,187.75z M580.03,223.73c-0.62-1.14-1.14-0.73-1.66,0.1
		C578.99,224.77,579.51,224.36,580.03,223.73z M583.56,214.27c-1.98-0.52-3.43-1.56-5.51,0.31
		C580.13,214.79,581.48,215.1,583.56,214.27z M579.2,205.84c0.4-1-1.58-1.26-1.35,0.1C578.11,206.74,578.9,206.44,579.2,205.84z
		 M575.76,197.52c-0.83-0.94-1.66-1.35-2.81-1.25C573.58,197.21,574.31,197.73,575.76,197.52z M571.81,205.43
		c0.62-1.35-0.21-1.87-1.04-2.6C570.35,204.08,570.98,204.8,571.81,205.43z M565.36,196.07c0.73-0.21,0.1-0.52,0-0.73
		c-0.1-0.1-0.52,0-0.94,0C564.84,195.65,565.15,196.17,565.36,196.07z M571.92,186.19c-2.6-1.35-5.51-1.87-7.91-3.64
		C566.09,185.67,566.09,185.67,571.92,186.19z M557.77,146.87c0.1,5.1,4.78,10.4,11.13,11.75
		C564.12,155.08,561.41,150.64,557.77,146.87z M567.13,130.95c-2.29-0.53-4.68-0.31-7.07-0.73c-8.6-1.51,1.03,20.89,12.9,27.04
		c7.92,4.11,15.25-6.99,31.52-6.66c7.58,0.15,13.25,6.61,15.91,4.47c3.33,5.1,7.7,7.59,11.96,10.19
		C617.76,147.05,586.72,135.49,567.13,130.95z M633.54,259.99c0.28-0.95-0.41-1.56-1.3-2.35
		C631.95,259.6,634.09,260.27,633.54,259.99z M839.44,264.2c-0.62-0.94-1.56-1.14-2.39-1.66C836.94,264.3,837.98,264.4,839.44,264.2
		z M836.25,259.85c0.06-0.12,0.15-0.2-0.03-0.02c0.23,0.23-2.19,2.27,0.73,2.81C836.84,261.71,837.34,260.58,836.25,259.85z
		 M643.06,191.91c0.52-0.83,0.31-1.25-0.62-1.56C641.92,191.18,642.23,191.59,643.06,191.91z M636.61,187.12
		c0.94-0.83,0.52-1.46-0.62-1.98C635.57,186.29,636.09,186.71,636.61,187.12z M636.2,176.41c0,1.66,1.46,1.87,2.6,3.33
		C639.6,176.69,638.43,173.73,636.2,176.41z M640.25,216.97c2.91-5.51,2.18-10.61,1.46-15.71
		C640.56,206.16,639.42,211.15,640.25,216.97z M841.31,248.39c-8.25-1.72-19.24,0.64-32.35-10.92c-2.4-2.12-44.51-28.01-52.32-28.81
		c-12.58-1.29-22.99-7.28-33.28-13.83c-15.46-9.84-18.66,3.49-41.09-10.61c-20.2-12.7-30.75-9.39-41.29-14.67
		c1.64,18.07,13.2,30.24,7.07,47.64c7.18,3.74,15.08,4.68,22.68,7.39c6.84-8.08,4.09,9.82,71.77,14.15
		c6.66,0.43,13.51,0.65,19.45,3.33c7.68,3.47,15.97,5,23.72,8.22c3.74,1.56,0.79-1.94-1.66-3.85c-2.28-1.78-5.05-2.92-5.41-6.66
		c-0.18-1.87-2.7-2.6-4.26-3.85c4.47-0.94,6.24,0.42,7.39,5.1c8.05,5.63,18.16,18.93,20.59,24.44c1.15,2.6,7.39,2.39,9.47,0.1
		c10.72,0.87,14.34,11.17,25.07,4.78c-1.26-6.79-4.89-7.16-12.17-7.59c-7.33-0.92-5.6-8.13-12.9-8.32
		c-0.31-2.39,2.08-1.87,1.46-3.95c3.22,1.98,6.17,3.32,7.39,6.45c1.3,3.35,9.52,2.91,11.03,3.23c1.14-1.14-0.94-2.6,0.52-3.64
		c2.26,0,1.59,3.53,3.95,3.33c0-0.24,0-0.88,0-1.14c6.66,3.22,12.7,7.35,19.45,10.09c1.77,0.72,2.89,2.2,3.95,3.54
		c2.62,3.31,10.83,7.87,13.63,4.68C864.09,266.07,851.4,259.2,841.31,248.39z M881.57,267.32c-3.55-2.36-21.65-12.4-33.08-15.71
		c0.11,0.07,35.19,20.1,35.29,20.15C883.96,271.84,884.33,268.78,881.57,267.32z"/>
	<path d="M38.74,351.88c1.98-1.21,13-8.24,14.25-12.07c2.27-6.97,11.39-17.62,17.68-20.07c14.25-5.55,14.66-6.01,26.42-4.68
		c-1.14,5.62,3.12,9.88,1.98,15.5c7.38,5.51,8.11,14.56,10.19,23.09c8.28-5.21,1-8.66,3.95-12.79s4.89-9.36,8.95-12.27
		c3.9-2.8,24.77-17.48,28.71-14.67c-0.73,4.78-0.22,6.46,3.02,10.19c16.37,18.86,8.05,7.97,16.75,27.56c1.78,4-4.9,2.77,3.02,8.01
		c18.44,12.2,42.47,11.9,70.21,26.52c10.66,5.62,6.87,6.35,19.55,19.03c6.66,6.66,10.82,15.08,15.39,23.4
		c19.03,4.26,36.72,11.65,53.46,21.22c21.52-6.77,44.64,2.27,64.59,13.21c17.82,9.77,15.7,17.82,18.31,18.62
		c11.13-4.99,23.39-7,34.95-11.34c5.3-1.99,11.33-2.12,16.95-1.46c9.07,1.07,9.75-4.74,21.22-5.2c11.51-0.47,13.97-3.31,23.51-5.93
		c9.43-2.59,35.5-4.63,38.42,3.25c7.21-6.66,10.35-4.77,20.14-12.19c3.13-2.38,6.87-4.19,10.92-3.12c3.86,1.02,8.11,0.73,11.34,2.91
		c1.77-0.31,1.66-2.6,3.54-2.18c1.87,0.62,1.35,3.02,2.5,4.37c4.78-5.72,4.99-5.82,8.01-2.08c1.66-0.52,3.54-2.7,4.47,0.52
		c-0.21,2.29-2.91,2.7-3.22,4.78c10.82,4.58,10.82,4.58,13.11,8.11c3.95-1.46,8.12-1.65,12.17-2.81c27.18-7.73,33.6,6.03,53.78-4.06
		c15.75-7.88,28.55,0.46,30.89,0c4.26-0.84,8.42,0.2,12.59,0c21.22-1,41.9,3.71,62.72,6.03c17.53,1.96,1.59-1.5,21.84,3.95
		c15.45,4.16,29.49-1.87,34.32,0.83c7.14,3.99,12.27,0.57,21.11,3.02c5.08,1.4,7.15,1.04,21.84,1.04c-0.1,3.64,3.04,7.24-1.66,9.36
		c-2.38,1.07-4.58-0.31-7.28,0c0.83-1.56,1.35-2.6,1.98-3.95c3.45,4.03,6.03,2.62,6.03-1.04c-2.91-0.42-5.69-2.14-8.01,0.94
		c-1.48,1.97-18.84-1.37-30.68-2.18c-1.17-0.08-2.39-0.31-3.05-1.36c1.68,0.33,3.4,1.14,5.54,0.22c-6.07-4.6-5.32,0.72-5.9-1.02
		c-2.22,0.55-2.14-2.31-4.2-2.61c-2.18,0.31-5.3-0.73-6.66,2.81c-8.22-2.29-16.45-1.28-24.44-2.81c-3.65-0.7-6.65-3.31-10.71-2.7
		c-6.3,0.93-30.92-4.19-48.26-6.03c-15.84-1.68-35.92-0.81-43.48-2.7c-13.99-3.5-18.62,0.27-30.48,4.16c-6.3,2.07-5.34,1.79-27.88,0
		c-0.73,0.62-0.62,1.98-2.39,1.77c-9.26-3.95-18.31,0.62-27.77,1.77c6.45,15.08,13.31,29.54,11.86,46.39
		c9.01,2.77,52.58-9.43,53.88-10.71c7.34-7.24,22.34-0.88,32.66-2.29c41.38-5.66,42.58-10.64,69.27-11.65
		c20.38-0.77,16.18,17.45,35.26,7.91c9.75-4.87,11.47,3.47,19.14-0.52c0.99-0.51,1.89-0.97,2.91-1.02c0-3.28-1.06-2.79-8.11-4.08
		c-1.04,0.21-1.04,1.98-2.39,1.66c-0.52-1.14,0.52-2.39-0.73-3.95c-7.39-0.1-14.87-1.35-21.32-6.14c7.94,0.42,13.24,4.9,26.63,3.54
		c13-1.33,26.21,0.1,39.73-0.94c-3.96,5.65-31.28,1.06-37.13,3.85c5.63,1.38,6.94,3.52,4.3,6.67c-2.29,3.84-5.9,4.05-9.7,3.42
		c-19.2-3.17-17.46,7.99-28.29,1.87c-9.53-5.38-8.34-10.09-21.01-9.05c-20.2,1.65-40.34,6.33-49.2,8.84
		c-29.5,8.36-27.11,0.59-44.93,1.87c-1.35,0.1-2.9-0.2-3.85,0.94c-2.88,3.46-7.18,3.43-11.03,4.58c-0.1,0.02-24.66,11.45-47.33,8.43
		c-0.2,0.81-4.48,15.07-2.91,18.72c2.06,4.79,3.85,9.67,4.16,15.39c12.9,2.08,23.51,7.91,30.68,19.66
		c-6.34,3.02-12.59,7.28-19.97,3.02c-6.14,2.91-6.45,3.02-13.31,2.29c-13.11,9.63-20.69,1.67-31,6.14
		c-7.18,3.11-16.28,0.57-21.53-5.62c-2.55-3,1.44,1.69-44,8.32c-9.26,1.35-18.51-0.31-27.77-3.02c-2.64,4.84-24.13,3.9-35.78,11.44
		c-13.11,8.48-31.44,5.69-44.31,8.74c-14.66,3.47-46.95-10.34-59.08-12.79c-11.34-2.3-22.68-4.89-31.83-11.65
		c-2.5-0.63-32.2,8.55-35.47,6.97c-7.96-3.85-16.31-6.99-22.36-13.94c-3.23-3.71-19.24-8.96-24.13-9.88
		c-27.86-5.24-27.48-18.93-48.37-21.43c-7.49-0.9-12.34-4.8-14.56-11.96c-1.84-5.94-3.22-11.86-2.39-17.89
		c-15.2-12.72-12.73-16.25-14.98-20.59c-1.06-2.05-15.46-21.7-34.53-37.13c-5.11-4.14-10.63-7.79-13.73-13.63
		c-5.02-9.45-12.21-17.56-16.75-27.25c-3.99-8.51-10.82-14.15-17.68-20.18c-3.43,1.46-6.66-0.21-10.4-0.94
		c2.29,2.91,6.03,1.66,8.22,3.74c-1.04,2.18-2.7,1.87-4.37,1.66c-7.14-0.49-12.7-11.97-24.76-3.12
		c-10.02,7.36-8.19,11.68-22.05,8.22C38.57,397.55,12.59,367.81,38.74,351.88z M867.32,471.6c-1.35-0.42-2.81-0.83-4.47-0.21
		C864.51,472.02,865.86,471.6,867.32,471.6z M157.83,335.45c-4.67-4.48-9.05-9.99-11.13-16.75c-6.03,1.77-10.3,6.45-15.81,9.05
		c-6.86,3.23-10.19,9.36-14.25,15.19c1.35,8.74,0.1,10.61-8.22,15.71c9.95,8.14,21.02,21.14,24.44,18.72
		c1.87,1.04,0.94,3.43,2.91,4.26c1.14-1.56-1.14-4.47,1.87-5.1c4.36,1.21-1.01,9.15,10.09,12.79c8.11,2.66,3.1,4.88,12.07-2.81
		c-3.87-1.82-10.96,5.17-16.43-6.24c-3.29-6.85-2.08-18.76,5.51-19.55c3.95-0.41,7.88-0.43,10.71-4.26c1.55-2.09,4.89-1.98,7.8-3.33
		C163.87,347.41,163.25,340.64,157.83,335.45z M153.47,364.05c-6.14,0.1-7.5,0.41-8.43,6.66c-0.94,6.34,0.31,7.91,8.11,10.61
		C151.07,370.08,151.07,370.08,153.47,364.05z M259.56,407.74c-9.24-8.08-8.3-14.66-36.3-25.38c-18.01-6.89-41.88-10.5-55.34-21.64
		c-1.46,1.77-3.85,0.83-5.62,1.98c-0.3,2.35,3.1,2.6,2.91,4.97c-2.56-0.33-4.71-1.47-6.45-3.41c-6.34,6.76-4.46,15.77,3.95,17.99
		c16.98,4.49,26.5,16.38,32.19,17.01c-0.35-1.61-2.35-2.77-1.4-5.04c3.39,3.22,7.72,7.07,2.91,7.07
		c6.76,8.01,12.71,16.82,21.53,22.88c6.78,4.66,12.44,10.21,16.02,17.79c1.13,2.4,3.43,4.16,4.16,6.66
		c-1.73,1.87-2.37,1.07-6.76-5.51c-11.41-17.12-10.56-7.49-30.06-28.81c-16.31-17.84-18.29-17.97-36.51-27.98
		c-2.91,2.91-5.62,4.99-9.78,6.03c10.61,4.89,18.31,12.37,27.36,17.99c15.47,9.62,10.4,30.41,34.43,36.3c2.6,0.64,4.99,0.42,7.7-0.1
		c3.77,8.3,17.54,0.62,31.1,7.8c0.94-1.87-1.98-1.46-0.94-3.22c0.52-0.42,1.46,0.42,2.5,0c-0.62-5.72,4.16-8.11,7.59-11.44
		c-0.62-2.81-3.95-4.26-3.74-8.01c2.5,2.29,4.16,4.99,8.01,4.99c2.29-1.35,5.72-1.87,7.8-4.68
		C271.21,423.65,267.16,414.38,259.56,407.74z M545.08,507.28c3.81-2.54,1.14-4.42-3.02-4.16c-1.25,0.62-0.83,1.98-2.29,3.02
		C542.06,506.34,543.83,506.24,545.08,507.28z M540.81,509.67c1.66,0.1,2.39,0.21,3.22,0.21
		C543.52,508.11,542.69,508.32,540.81,509.67z M546.43,500c-0.73-1.56-1.87-1.56-3.64-0.73C544.04,500.31,545.29,500,546.43,500z
		 M549.97,501.45c-0.83-2.39-2.5-1.14-3.54-1.56C547.26,500.93,548.51,501.04,549.97,501.45z M554.02,468.58
		c0.83,0.73,1.14,0.1,1.87-0.1C554.86,467.54,554.65,468.38,554.02,468.58z M553.19,510.92c1.33-0.71,2.54-4.59,0.83-3.22
		C553.82,508.53,553.5,509.57,553.19,510.92z M554.75,518.51c0.52,0.31,1.04,0.31,1.77,0C555.9,517.99,555.27,517.99,554.75,518.51z
		 M561.83,461.72c2.29,0.31,3.85-0.21,5.1-1.66C565.05,459.85,563.59,460.47,561.83,461.72z M568.38,513.93
		c0.52,0.52,1.04,0.31,1.87,0C569.42,513.52,568.9,513.62,568.38,513.93z M569.21,501.77c-0.83,1.14-1.66,2.29-2.7,3.64
		C569.94,505.93,569.21,503.53,569.21,501.77z M569,510.4c-1.66-0.83-2.81,0.1-4.37,1.14C566.71,511.75,567.86,511.33,569,510.4z
		 M566.82,484.71c-1.56,0.42-1.56,1.25-0.73,2.5C567.75,486.79,568.38,486.16,566.82,484.71z M568.59,478.57
		c0.42,0.94,1.14,1.25,1.98,1.56C573.08,478.66,572.72,473.98,568.59,478.57z M574,466.82c1.46-0.21,2.18-0.31,2.29-1.14
		C575.35,465.26,575.14,466.09,574,466.82z M580.76,513.21c-3.43,1.56-2.81,3.54-2.18,6.03
		C581.28,517.78,581.17,515.91,580.76,513.21z M584.19,480.23c-5.18,0.45-4.16,0.86-4.16,7.91
		C582.73,485.95,582.21,482.94,584.19,480.23z M579.2,471.5c-2.29,2.6-3.43,4.68-3.95,7.07C577.12,476.91,578.47,474.93,579.2,471.5
		z M576.18,465.57c4.37-1.35,6.86-5.41,11.03-6.97C581.48,457.77,579.72,462.97,576.18,465.57z M586.17,451.73
		c-0.62,1.56,0.83,2.39,0.73,3.43C590.98,456.33,592.79,452.78,586.17,451.73z M591.47,468.17c-1.77,2.81-3.43,5.72-5.2,8.53
		C589.81,475.14,592.41,472.75,591.47,468.17z M588.35,526.62c1.77-1.98,0.83-3.22,0.21-4.58
		C586.27,523.5,587.73,524.86,588.35,526.62z M591.89,479.3c1.46-0.62,1.56-1.66,1.66-3.12C592.2,477.11,591.57,477.95,591.89,479.3
		z M593.76,528.5c-1.6-1.42-2.91-0.94-3.95,1.25C593.29,534.18,597.14,531.5,593.76,528.5z M586.48,532.45
		c-6.86-1.09-14.23-0.96-20.39-5.1c-2.49-1.67-5.19,0.17-7.7-0.62c-16.89-5.35-10.62,2.8-17.89-4.47c1.35-5.3,7.59-2.7,10.3-6.34
		c-4.16-3.64,1.56-6.86,0.21-10.82c-3.95,2.91-4.78,7.49-6.76,11.44c-2.81-2.6-6.86-0.21-9.47-3.54c-0.1-0.62,1.46-0.42,1.56-1.66
		c-2.29-1.77,0-3.95,0.21-5.93c-4.16,2.39-5.82,6.14-6.14,10.71c1.87,1.35,4.89,0.1,5.82,3.12c-1.56,1.87-3.64,0.33-5.41,0.42
		c-5.29,0.27-2.19-5.84-3.64-9.57c4.16-4.37,6.97-9.57,11.96-13.63c-7.7,2.7-14.46,2.81-17.89-7.18c-0.1-0.62,1.98-0.21,2.29-1.56
		c-0.21-0.94-2.08-0.73-1.66-2.29c0.73-1.87,2.7-2.7,4.26-4.16c-3.54-1.77-7.28-2.91-11.65-3.22c-8.18,15.71-8.31,16.17-6.34,21.11
		c1.94,4.9,2.35,10.28,4.06,15.19c1.3,3.73-3.1,3.52,8.01,4.78c22.65,2.58,6.31,9.73,52.74,25.69c1.87,0.64,1.87,0.62,4.26-0.83
		c7.07,3.95,14.67,5.41,23.3,7.7C588.67,532.74,594.86,533.78,586.48,532.45z M537.69,503.53c-1.14,0.21-1.46,0.94-1.25,1.87
		C537.28,505.09,537.9,504.57,537.69,503.53z M609.36,540.67c-0.32-0.96-1.42,0.88,1.14,4.47
		C612.38,542.85,610.19,541.91,609.36,540.67z M611.34,534.74c-0.73-1.66-0.62-2.7-2.29-3.95
		C609.15,532.55,609.67,533.49,611.34,534.74z M609.46,477.32c0.1-1.46-0.52-1.66-1.35-2.08
		C607.59,476.49,608.74,476.59,609.46,477.32z M604.26,522.57c1.14,1.77,1.46,4.06,4.26,5.2
		C606.35,519.98,607.08,518.94,604.26,522.57z M607.07,483.98c-1.77,1.87-3.43,3.74-3.64,6.34
		C604.66,490.32,603.57,492.15,607.07,483.98z M606.14,507.49c1.04-0.42,1.46-0.94,1.35-2.08
		C606.34,505.51,605.62,505.72,606.14,507.49z M607.7,472.54c-1.04-2.39-2.29-3.12-4.26-3.95
		C604.06,470.87,605.62,471.39,607.7,472.54z M597.5,538.69c0.43,1.06,2.88,16.43,8.32,9.36
		C603.64,544.51,600.52,541.6,597.5,538.69z M596.57,526.73c0.1,1.25,0.42,1.98,1.87,1.98
		C598.44,527.35,597.61,527.04,596.57,526.73z M598.33,521.84c-1.35,1.56-1.77,2.5,0,3.64C598.96,524.44,598.96,523.4,598.33,521.84
		z M598.65,519.45c1.77-5.62,2.18-11.34,2.5-17.06C599.37,507.9,599.06,513.73,598.65,519.45z M601.87,463.7
		c0.83,0.83,2.66-0.98,0.42-1.98C601.46,462.24,601.04,462.86,601.87,463.7z M602.81,458.29c1.35,1.66,2.39,2.39,4.06,1.25
		C605.72,459.22,604.58,458.81,602.81,458.29z M606.34,463.28c1.87,1.66,2.29,4.16,5.2,2.29
		C610.4,463.9,609.57,462.55,606.34,463.28z M614.66,464.53c1.46,1.56,0.1,4.78,3.33,5.82C618.1,467.54,616.75,465.78,614.66,464.53
		z M616.85,530.37c-0.31-2.08,0.42-4.68-1.66-6.03C614.25,527.04,616.33,528.39,616.85,530.37z M616.95,473.16
		c1.04,1.98,1.25,4.16,4.16,3.85C620.07,474.51,620.07,474.51,616.95,473.16z M619.55,495.21c-1.35,1.14-0.83,2.08-0.94,3.22
		C620.07,497.29,619.35,496.36,619.55,495.21z M618.83,501.24c-1.46,1.77-1.25,3.64-1.56,5.72
		C619.66,505.09,619.66,505.09,618.83,501.24z M620.39,478.99c0.42,3.02,2.39,4.78-0.31,6.76
		C625.25,486.07,622.85,481.58,620.39,478.99z M629.54,498.02c-1.77,6.97-0.52,14.46-3.22,21.53
		C629.33,512.69,631.52,505.61,629.54,498.02z M627.46,526.42c0-0.94,0-1.35,0-1.77C626.21,524.86,626.42,525.38,627.46,526.42z
		 M628.08,544.31c0.52-1.04-0.31-1.35-0.83-1.87C626.83,543.27,626.73,543.99,628.08,544.31z M332.47,557.93
		c12.27,3.6,26.33,9.05,8.11,3.85c-0.32,0.96-3.3-0.82,24.55,15.19c-11.03-4.06-20.8-10.61-31.41-16.33
		c-0.1,4.89,2.2,11.31,4.78,12.48c32.78,14.84,13.88,2.72,41.61,12.69c5.6,2.01,37.52,13.03,42.96,10.61
		c12.47-5.55,12.73,5.62,67.92-16.94c-7.53,0.38-10.9,4.9-16.23,4.05c24.99-12.17,9.46-0.19,27.25-5.93
		c-5.2-1.98-8.72-5.84-12.27-9.67c-1.55-1.67-3.64-3.64-1.14-6.14c3.66,0.52,1.21,11.62,32.66,18.2
		c12.15,2.54,40.91-5.33,53.05-8.22c-1.25-2.18-0.21-4.26-1.14-6.24c-1.56-0.73-3.22-1.46-4.78-2.08c-5.41,3.85-8.32-1.87-12.48-2.7
		c7.8,1.46,16.02,0.62,23.72,2.6c-0.52,3.22-3.12,1.66-4.16,3.43c0.52,1.46-0.83,3.54,1.14,5.41c0.1-2.39,0.31-2.91,1.66-4.37
		c4.68,9.26,16.75,13.73,24.13,8.84c0.21-1.04-1.46-1.56-0.31-3.12c5.7,2.78,9.61,3.98,24.44,1.35c2.49-0.44,3.54-1.98,2.5-4.58
		c-2.91-1.04-21.61-1.53-25.9-6.14c8.95,0.83,16.54,3.54,24.55,3.64c1.35,0.1,2.31,1.12,3.33,2.08c3.71,3.47,9.67,2.6,12.79-2.08
		c-11.44-0.42-21.53-5.41-32.45-7.39c3.3-3.3,18.42,3.22,23.2,4.26c3.75,0.82,7.83,0.05,11.34,1.98c1.47,0.81,0.21,2.7,1.46,3.64
		c5.62,1.87,8.32,1.35,10.92-2.18c-5.3-3.54-11.55-4.89-17.06-7.91c-5.51-3.02-12.17-2.5-17.68-5.3
		c13.21-0.52,24.24,6.14,35.68,11.23c1.22,4.47,1.64,2.8,3.02,1.98c-0.69-2.24-2.66-1.54-2.29-2.91
		c-5.69-11.38-34.86-21-40.15-11.55c-1.56,0-3.02-0.21-4.26-0.83c0.21-1.35,1.56-0.42,1.87-1.46c-2.7-0.1-4.89,0.31-6.14,2.6
		c-26.34-0.48-55.9-9.9-76.87-26.73c-7.6-6.1-27.86-7.3-36.2-5.93c-11.03-6.34-21.22-11.44-33.08-11.86
		c8.01-3.74,14.98,0,22.26,2.81c1.56-4.16,1.25-8.11,0.52-11.86c-4.89-3.85-10.08-6.35-16.12-6.97c-4.82-0.49-12.82-9.79-27.15-8.95
		c-3.58,0,3.79-4.34,9.15-2.39c29.53,10.72,30.54,6.86,38.07,22.47c1.64,3.41-0.99,7.45-0.31,9.15c5.2,6.14,11.55,3.43,17.68,2.81
		c1.71-5.57-10.87-21.27-1.98-32.76c2.09-2.7,2.6-6.14,4.68-8.95c-3.84,0.68-7.74,8.22-12.17,8.22c0.62-1.46,1.56-2.29,2.5-3.22
		c6.24-6.24,5.47-9.84,13.21-7.49c15.25,4.62,14.68,8.5,24.96-1.14c3.29-3.09,6.11-6.67,9.37-9.77c-28.52-4.3-31.91,0.65-44.94,2.28
		c5.2,1.35,10.4,0.73,16.43,0.62c-6.49,6.49-29.92-3.59-43.79,5.82c4.16,0.42,8.43,0.1,12.07,2.39
		c-13.21-1.66-26.21-0.94-40.05,0.83c-1.56,1.56-4.26,2.61-7.18,3.64c-24.11,8.48-26.55,10.82-34.22,11.34
		c-2.81,0.19-5.5,0.75-7.8,2.08c-13.26,7.7-27.67,13.31-41.71,20.49c2.5-5.5,5.86-5.22,32.45-18.51
		c-7.28,1.35-14.35,2.91-21.11,5.72c0,1.04,1.46,1.35,0.83,2.6c-5.51,1.66-10.1,5.39-15.39,7.91c-10.42,4.95-15.5,14.04-19.14,24.55
		c8.32,1.25,16.33-0.73,24.34-0.21c-8.43,1.35-16.85,2.39-25.28,2.7C331.23,542.95,332.79,550.44,332.47,557.93z M197.05,527.98
		c2.37,8.84,14.62,0.46,27.88,11.65c20.06,16.94,35.4,16.9,46.91,19.87c15.08,3.89,4.96,9.95,32.45,19.87
		c4.76,1.72,4.53-3.44,27.25-6.24c-2.7-1.14-3.25-3.53-3.85-5.82c-0.33-1.24,1.25-1.04,1.66-1.98c-2.39-4.37-5.82-8.32-5.3-13.73
		c-6.14-1.46-12.38-4.26-33.7,12.07c11.73-12.33,16.34-17.49,31.72-16.43c2.6,0.18,3.02,2.91,4.78,4.78
		c2.29-17.99,6.24-34.84,24.34-45.25c-5.2-1.04-8.95-1.56-12.79-0.73c4.99-1.87,10.09-3.02,15.5-1.98c2.6-1.56,5.3-3.12,8.22-4.89
		c-3.43-4.78-8.43-7.7-11.86-12.17c5.2,3.12,10.51,5.93,15.08,10.61c6.24-4.68,13.73-5.72,21.53-8.11
		c-2.91-5.1-3.02-11.13-6.66-15.81c4.78,3.85,6.34,9.67,8.95,15.29c3.33,0.52,6.86-1.35,9.99-0.21c1.56-1.66-0.31-2.81,0.52-3.95
		c3.95,3.33,4.26,3.33,9.88-0.94c-2.39-4.26-5.2-8-9.26-10.71c-24.13-16.12-39.09-23.88-61.06-22.05c-2.27,0.19-4.22,1.13-5.98,2.66
		c5.25-1.61,10.51-1.41,15.97-1.62c-0.31,1.98-2.08,1.04-2.39,2.18c9.57,2.08,14.46,5.62,14.35,11.34c-9.05-13-25.69-12.59-31-5.51
		c2.91,1.46,6.45,0,9.57,2.18c-14.66,3.55-30.16-1.66-50.65,5.62c-8.88,3.15-15.95,23.3-18.83,32.24
		c1.29-15.79,6.8-20.77,10.09-28.92c-4.78,2.18-9.36,4.68-13.83,7.49c4.47-5.51,9.78-9.88,15.91-13c0.1-1.87-2.5-2.81-1.25-4.68
		c2.18-0.83,2.6,1.66,4.68,2.08c2.5-2.5,5.2-1.25,7.7,0.73c1.77-0.83,3.43-1.46,5.3-2.29c3.93,4.64,13.88-2.54,20.91-0.62
		c1.04-2.91,2.18-5.3,5.41-6.14c-0.1,2.5-2.5,3.43-2.5,5.51c1.14,0.73,2.29,0.52,3.85,0c-0.42-3.22,3.02-3.85,4.26-6.14
		c-2.7,0.73-2.28-2.3-3.74-3.02c-14.8-7.22-30.06-13.31-46.6-17.27c-5.2,5.1-12.48,7.8-18.1,13.21c0.52,3.22-1.66,5.62-3.74,9.26
		c17.12,2.14,29.71,8.45,15.19,5.1c-8.73-2.01-17.77-2.43-26-6.24c-3.28-1.52-16.08,0.99-25.9-4.26
		c-5.85-3.13-14.54,3.35-15.81,12.69C204.63,474.53,188.4,495.7,197.05,527.98z M90.85,384.12c20.46,16.17,18.35,21.03,25.38,31.52
		c12.88,19.22,10.47,20.62,24.76,31.62c5.93,4.57,10.67,10.57,17.06,14.67c4.67,2.99,11.43,15.88,16.85,20.39
		c3.24,2.69,5.82,6.66,4.26,11.65c3.33,3.12,6.66,6.14,10.19,9.36c4.16-12.27,6.14-24.86,11.75-35.78c-0.83-2.39-3.02-3.22-3.43-5.3
		c1.56-1.35,2.29,1.04,3.95,0.73c0.94-3.22,1.77-6.86,4.26-9.99c-13.07-14.64-0.3,4.67-21.63-19.03c4.98,1.61,6.48,6.37,17.37,11.44
		c2.65,1.24,8.29,6.55,9.36,3.33c-8.28-5.52-15.58-9.46-19.87-21.53c-4.96-13.98-13.81-13.21-27.67-26
		c-6.53-6.03-19.32-4.53-42.13-25.38c-4.89-4.47-9.47-9.26-14.77-13.31c-3.33,2.08-6.66,0.73-9.99,0.21
		c1.46,4.16,5.72,5.82,7.39,9.78c-5.2-0.94-5.93-1.46-7.39-5.51c-1.87-0.94-4.06-1.66-5.62-3.54c-2.5,1.98-3.74,4.58-5.3,7.07
		c3.22,2.5,6.03,5.3,8.53,9.67c-3.43-1.98-5.1-5.2-8.43-6.24C85.96,378.09,87.31,381.32,90.85,384.12z M85.75,385.69
		c0.56-8.66-8.38-9.71-2.39-18.31c1.37-1.96,2.91-3.85,4.37-5.72c-9.18-5.82-11.65,7.78-10.09,18.51
		C80.66,381.63,82.11,385.06,85.75,385.69z M41.34,395.67c4.73,3.4,10.41-3.23,13.94-6.55c0.21-1.66-2.5-2.6-1.04-4.47
		c2.29-0.62,2.08,1.87,3.85,3.33c-0.21-4.58-5.41-7.49-2.18-11.86c4.78,0.83,2.5,7.91,7.7,8.95c-0.21-3.95-4.16-7.07-0.94-11.13
		c7.35,12.03,0.49,0.81,4.37-3.22c5.71,16.58,13.43,15.23,11.55,14.25c-7.21-3.74-5.15-13.44-2.91-21.32
		c1.39-4.91,4.47-7.7,9.67-7.8c5.3,4.47,13.73,3.85,16.23-1.25c1.04,0.42,2.18,0.94,3.33,1.35c1.05-3.16-2.3-6.37-1.35-11.34
		c0.32-1.66-0.91-4.4-2.29-5.72c-6.61-6.33-4.92-12.79-8.43-20.39c-10.41-1.16-10.08,1.22-14.35,2.08
		c-9.26,1.25-14.11,8.57-19.66,14.77c-1.09,1.21-0.93,11.1-10.71,14.46C36.09,353.92,17.54,378.58,41.34,395.67z"/>
	<path d="M6.81,88.41C8.82,69.06,17.99,65.64,19.6,59.29c5.25-20.66,3.88-24.21,11.34-28.71c6.35-3.83,13.59-5.47,20.18-8.84
		c3.81-1.95,13.35-4.58,14.15,1.98c0.35,2.88,4.5,10.18,5.93,14.46c4.94,14.8,5.39,4.21,10.3,19.35c-2.6,5.62-8.74,0.1-12.07,4.16
		c2.29,0.21,4.47-1.66,6.55,0.83c-2.81,3.12-7.8,2.6-9.99,6.24c2.29,1.04,2.29,1.04,4.16,3.22c-2.29-0.42-4.37-0.83-6.45-1.25
		c-10.72,19.05,20.73,18.45,33.08,33.28c3.33,4.01,19.7,20.68,41.19,30.37c1.66,0.75,3.85,1.35,3.02,4.37
		c-30.07-7.61-41.14-32.52-55.44-38.38c-16.8-6.89-11.94-8.99-15.29-4.26c-4.03,5.69-8.47,5.06-13.73,1.98
		c-6.49-3.8-5.95,1.58-10.19,5.82c-2.39,2.39-5.2,4.68-4.58,8.53c-2.29,1.87-4.89,0.62-7.18,1.87c-5.51,3.01-9.98,2.49-14.25-1.87
		C14.52,106.49,5.95,96.66,6.81,88.41z M15.75,101.21c9.93,15.23,18.51,14.01,24.96,3.33c-4.58-0.42-8.74-1.56-10.82-5.93
		c0.94-1.98,2.08,0,3.02-0.83c-1.77-2.6-4.78-4.68-3.54-8.95c4.47,4.47,9.26,7.8,15.91,8.63c-9.47-7.28-10.61-9.15-9.26-15.29
		c2.18,3.54,4.78,6.34,8.53,8.53c-1.35-2.7-3.33-4.58-2.81-7.7c1.35,3.64,6.76,4.26,6.66,9.78c2.7,2.91,9.67-2.5,11.44,4.37
		c4.58-0.1,5.82-0.94,8.22-5.41c-3.02-3.43-8.11-3.85-10.71-7.7c-0.62-1.46,1.56-1.66,1.25-3.12c-1.87-6.86,0.94-11.96,7.07-16.85
		c-3.22,0.21-4.58-2.18-6.76-1.98c-10.92,6.45-9.05,15.5-5.1,25.28c2.91,1.04,6.34,2.18,9.88,3.43c-8.88,1.27-19.03-1.81-14.35-9.47
		c-7.44-14.88,7.31-25.48,15.5-20.07c4.26-1.77,7.39-6.55,13.52-2.7c-1.77-8.01-8.71-11.24-9.26-18.31
		c-0.5-6.45-7.28-10.61-7.39-17.79c-5.97,0.77-15.16,4.46-20.8,7.18c-12.53,6.03-13.23,7.29-14.77,21.11
		C24.16,68.66,1.6,79.51,15.75,101.21z"/>
	<path d="M441.48,487.1c1.36-0.62,3.22-1.77,4.78-0.31c1.04,5.2-20.44,4.51-46.29,33.7c-18.13,20.48-5.44,53,18.2,55.02
		c13.35,1.14,27.59-0.16,38.17-8.53c-3.33-1.56-6.62-2.23-9.36-4.16c-2.88-2.03-5.5-2.06-8.63,0.21c-9.42,6.83-23.2,7.92-23.2,4.99
		c8.53-0.73,14.98-5.93,22.26-10.61c-4.68-5.51-10.4-10.3-9.67-18.31c-2.6-1.77-4.58-4.47-8.01-4.89c0.31-1.98,1.14-3.12,3.43-2.39
		c14.27,7.27,7.87,15.54,15.81,21.84c21.74,17.26,40.48,3.7,51.07,17.89c-9.47-3.95-19.35-4.89-30.06-3.33
		c-17.43,14.57-38,14.97-54.19,5.41c-20.5-12.1-15.76-19.92-17.47-27.56c-2.11-9.42-0.3-18.4,5.72-26
		C412.51,496.77,427.18,493.59,441.48,487.1z"/>
	<path d="M526.36,220.3c1.56-4.34,5.91-2.91,11.96-1.25c6.64,1.83,6.96,2.19,7.91,9.05c0.52,3.75,1.14,7.81,4.68,9.78
		c17.52,9.72,21.47,5.34,23.4,11.55c3.13,10.03,11.93,2.94,14.35,3.85c-7.91,6.55-14.46,5.3-17.06-4.58
		c-2.91-2.18-6.79-0.59-9.78-2.81c-9.13-6.79-13.36,0.81-19.24-21.43c-5.62-1.98-11.03,0.73-16.33,0c-0.31-2.39,2.6-1.14,2.39-2.91
		C527.92,220.93,526.67,221.55,526.36,220.3z"/>
	<path d="M410.69,123.46c-1.68,0.72-3.06-1.6-0.31-2.6c4.67-1.7,9.47-3.45,14.46-2.18c9.37,2.37,18.91,2.7,28.4,4.26
		c8.96,1.48,4.85-2.64,21.53,3.33c7.64,2.73,15.23,0.3,21.43,6.34c-18.28-2.48-24.99-8.02-35.05-7.49
		C443.26,126.07,427.89,117.57,410.69,123.46z"/>
	<path d="M475.91,477.63c4.66,2.61,12.69,14.12,17.37,16.02c3.18-2.44,4.63-10.05,8.32-7.59c-2.5,3.33-4.99,6.76-7.8,10.51
		c-6.86-1.66-12.07-6.55-18.62-8.74c-6.55-2.18-13.31-3.33-19.55-6.14c9.05,0.94,17.89,2.81,26.84,6.97
		C480.49,483.98,477.37,481.38,475.91,477.63z"/>
	<path d="M282.13,172.46c18.71-5.48,15.7-8.91,23.72-8.84c4.53,0.04,21.95,0.89,21.95,5.41c-2.33,1.55-4.82-2.83-22.36-2.29
		c-8.71,0.27-1.05,4.35-28.08,8.11C279.01,172.77,280.68,172.88,282.13,172.46z"/>
	<path d="M676.97,356.46c-10.54-9.29-10.15-13.99-21.43-19.55c-14.28-7.05-11.05-10.11-8.53-8.43
		c20.06,11.76,18.97,10.97,20.18,13.21c4.01,7.44,11.18,12.45,14.77,17.58c2.84,4.06-3.1,6.36-5.82,5.72
		C677.1,363.06,683.38,362.11,676.97,356.46z"/>
	<path d="M247.49,160.7c4.1,5.79,17.44,14.56,33.7,17.06c-5.76,5.76-31.54-8.26-35.26-14.35c-4.12-6.74-8.43-3.97-9.26-5.62
		C242.71,155.5,244.01,155.78,247.49,160.7z"/>
	<path d="M188.93,149.78c12.98-10.07,17.17,7.23,41.81,5.82c0.83-0.1,2.18-0.52,2.39,1.46C209.5,162.38,205.27,145.92,188.93,149.78
		z"/>
	<path d="M422.45,207.92c-5.59-0.22-3.78-5.23-8.43-9.57c-1.67-1.56-3.64-3.12-2.6-6.03c2.18,1.14,19.76,22.57,21.01,25.69
		C426.61,216.87,424.94,212.19,422.45,207.92z"/>
	<path d="M259.87,110.78c-13.83,2.6-27.04,4.68-39.73,10.19C221.02,117.46,254.28,105,259.87,110.78z"/>
	<path d="M163.35,156.75c-5.23-1.34-18.62-12.38-20.59-17.06c8.01,5.1,15.91,10.09,23.51,14.87
		C165.64,156.85,164.69,157.09,163.35,156.75z"/>
	<path d="M419.74,493.44c5.54-2.34,10.3-6.45,16.33-7.8c-9.99,7.91-21.32,12.79-33.6,15.39
		C407.68,497.29,413.94,495.89,419.74,493.44z"/>
	<path d="M382.61,111.61c-11.86-13.63-25.38-22.57-43.17-23.3C351.09,84.67,377.82,98.61,382.61,111.61z"/>
	<path d="M355.15,85.6c2.32-3.57,12.15,0.79,21.01,2.08c10.55,1.53,20.43,12.89,20.8,13.63c-2.12-0.78-4.06-2.7-3.77-3
		c-2.38-0.79-3.7-2.46-5.7-3.66C379.27,89.7,386.37,91.11,355.15,85.6z"/>
	<path d="M514.08,535.67c-1.03,2.41-0.67-0.47-17.79,3.22c-1.35,0.21-2.39-0.42-2.6-1.87C496.61,532.97,508.36,532.14,514.08,535.67
		z"/>
	<path d="M452.51,536.09c6.55,4.16,4.99,12.38,9.26,17.47c0.62,0.94,0.52,2.08-0.94,2.81c-3.12-0.94-3.54-4.37-5.51-6.24
		C459.44,540.27,448.86,541.46,452.51,536.09z"/>
	<path d="M493.59,142.5c-12.17-5.51-24.86-6.45-38.07-7.49C464.05,132.2,489.74,137.19,493.59,142.5z"/>
	<path d="M789.93,482.21c-3.12,0.64-5.93-0.62-8.53-2.18c6.45-2.7,12.07,1.04,17.99,2.5c1.66,0.31,2.08,1.98,0.42,3.33
		C796.53,486.01,792.53,481.68,789.93,482.21z"/>
	<path d="M330.71,121.18c7.91,1.35,15.08,2.5,22.26,3.74C346.93,127.42,336.22,125.44,330.71,121.18z"/>
	<path d="M519.7,138.23c1.46,0,3.02,1.14,3.33,3.64c-6.86-2.7-13.83-3.74-20.49-7.07C505.59,130.73,512.82,138.23,519.7,138.23z"/>
	<path d="M573.27,322.03c-10.93-5.14-14.32,1.11-17.27-4.78c2.6-0.73,4.78,0.92,6.97,0.21c4.98-1.61,8.43,1.66,12.48,3.64
		C574.52,322.34,573.89,322.24,573.27,322.03z"/>
	<path d="M619.76,319.74c7.8,0.31,15.39,1.14,21.53,6.76C634.64,322.34,626.31,323.8,619.76,319.74z"/>
	<path d="M467.69,523.19c-0.94,0.42-0.52,2.08-2.08,2.08c-0.94-0.1-1.77-0.62-2.18-2.18c2.5-0.52,3.22-4.04,6.55-3.33
		c2.49,0.53,5.72-0.52,7.49,3.22C473.93,524.65,470.81,522.88,467.69,523.19z"/>
	<path d="M208.28,172.66c7.18,2.39,14.35,4.78,21.53,7.28C221.7,180.26,214.94,176.82,208.28,172.66z"/>
	<path d="M124.03,119.62c4.99,0.52,9.99,1.04,13.63,4.68c-0.31,0.52-0.52,1.14-0.83,1.77C131.93,125.34,127.88,122.74,124.03,119.62
		z"/>
	<path d="M717.12,479.09c-4.17,2.2-7.65-1.78-8.18-2.12C709.22,473.75,715.62,477.42,717.12,479.09z"/>
	<path d="M708.94,476.97c0,0.05-0.02,0.09-0.02,0.15C708.85,476.96,708.85,476.92,708.94,476.97z"/>
	<path d="M708.9,477.11l0.01,0.01l0,0c0.02,0.06,0.05,0.11,0.09,0.2C708.84,477.28,708.9,477.32,708.9,477.11z"/>
	<path d="M708.89,477.29c-0.23,3.12-11.45-0.24-13.93-1.22c-0.94-0.31-2.08-0.62-1.56-2.7
		C698.67,473.89,703.73,475.94,708.89,477.29z"/>
	<path d="M698.08,483.56c-9.59-5.64-9.47-4.54-10.82-6.66C691.74,474.1,697.36,477.63,698.08,483.56z"/>
	<path d="M521.99,272.62c-4.58-0.1-7.39-3.12-11.55-5.62C517.2,265.86,520.95,267.73,521.99,272.62z"/>
	<path d="M398.11,115.46c4.47,0.73,9.36-0.31,14.04,2.7C408.2,120.03,402.79,118.89,398.11,115.46z"/>
	<path d="M492.86,242.87c-3.12-0.42-12.9-5.41-14.98-7.49C483.5,235.8,491.62,239.75,492.86,242.87z"/>
	<path d="M670,467.75c-5.41,0.83-9.47-2.7-14.25-4.47C660.64,464.11,665.94,463.7,670,467.75z"/>
	<path d="M516.89,173.6c3.33,4.06,7.07,7.91,7.49,13.63c-2.08-5.3-6.03-8.84-10.3-11.96C515.02,173.91,515.75,173.6,516.89,173.6z"
		/>
	<path d="M449.39,489.91c-2.29,3.64-4.89,7.07-4.78,11.65C442.52,494.07,444.6,489.28,449.39,489.91z"/>
	<path d="M121.22,116.5c-5.1,0.31-9.88-3.33-11.55-8.32C114.88,109.01,116.23,115.14,121.22,116.5z"/>
	<path d="M538.32,275.01c-4.16-0.21-7.7-2.6-11.75-3.12C531.45,270.23,536.34,271.37,538.32,275.01z"/>
	<path d="M500.25,282.61c-2.81,3.54-5.62,0.31-8.95,0.52C495.15,278.55,497.86,278.55,500.25,282.61z"/>
	<path d="M501.6,222.9c-0.21-3.33-0.42-6.97-0.62-11.44C507.3,220.55,504.2,223.96,501.6,222.9z"/>
	<path d="M504.51,221.97c0.02-0.1,0-0.17,0.1-0.21L504.51,221.97z"/>
	<path d="M492.86,546.49c-2.08,3.64-4.16,7.18-3.74,11.34C486.42,550.76,487.87,546.28,492.86,546.49z"/>
	<path d="M493.9,523.3c-3.95,2.39-7.7,0.62-11.55-0.42C486.21,523.4,490.16,520.7,493.9,523.3z"/>
	<path d="M719.93,475.97c3.12,3.85,8.01,0,10.92,4.06C725.75,477.94,720.91,483.61,719.93,475.97z"/>
	<path d="M614.66,324.21c4.16-0.21,8.53-0.73,12.27,2.08C622.67,326.71,618.62,325.15,614.66,324.21z"/>
	<path d="M349.95,121.18c3.22-0.31,6.34-1.56,9.67,0.1C356.4,123.78,353.17,122.32,349.95,121.18z"/>
	<path d="M494.94,512.89c0.73-3.43,0.73-7.07,3.02-10.09C498.69,506.65,497.44,509.98,494.94,512.89z"/>
	<path d="M109.57,108.17c-3.74-1.25-4.47-2.29-3.85-6.45C108.12,103.39,109.99,105.05,109.57,108.17z"/>
	<path d="M524.48,535.57c3.54,0.21,6.55,1.87,9.26,3.95C530.41,538.69,526.88,538.38,524.48,535.57z"/>
	<path d="M524.69,150.92c-1.51,1,0.62,2.03-6.76-4.58C520.95,146.97,523.65,148.01,524.69,150.92z"/>
	<path d="M494.74,475.87c2.7-0.62,5.2-0.62,8.11,0.83C498.48,477.63,498.17,477.63,494.74,475.87z"/>
	<path d="M502.23,149.68c-3.33-1.25-6.76-2.6-10.09-3.85C496.09,145.62,499.73,146.24,502.23,149.68z"/>
	<path d="M517.52,545.56c-3.54,0.1-7.18,0.1-10.71-0.94C510.44,543.68,513.98,544.93,517.52,545.56z"/>
	<path d="M366.07,127c3.85-0.62,7.49-1.56,11.44-1.04C364.82,128.02,366.07,128.39,366.07,127z"/>
	<path d="M475.08,130.23c3.22,0.52,6.55,0.42,9.47,2.08C481.32,131.89,477.99,131.99,475.08,130.23z"/>
	<path d="M411.94,566.57c-2.91,1.66-4.47-1.46-6.66-1.35C407.88,563.45,409.76,564.59,411.94,566.57z"/>
	<path d="M679.26,498.64c1.46-1.87,1.87-4.78,5.51-5.72C683.94,496.67,681.55,497.6,679.26,498.64z"/>
	<path d="M432.12,193.05c-2.91-0.73-4.47-2.29-4.89-4.99C429.1,189.2,431.91,189.51,432.12,193.05z"/>
	<path d="M443.98,515.81c2.08-1.98,3.33-4.06,6.03-1.87C448.45,516.22,446.68,516.43,443.98,515.81z"/>
	<path d="M523.13,138.96c-2.18-2.18-4.37-4.47-6.55-6.76C519.7,133.45,522.4,135.22,523.13,138.96z"/>
	<path d="M515.54,534.74c3.02-0.94,4.47,0.42,5.62,2.91C518.45,538.07,516.68,537.23,515.54,534.74z"/>
	<path d="M805.53,479.4c2.18,2.6-0.21,3.85-1.77,5.3C803.87,482.94,802.51,480.55,805.53,479.4z"/>
	<path d="M475.6,234.34c-2.39-1.98-5.51-2.91-7.8-5.1C470.29,231.12,474.25,230.7,475.6,234.34z"/>
	<path d="M534.78,548.99c-2.81-0.42-4.68,0.31-6.86-0.83C531.35,546.7,531.35,546.7,534.78,548.99z"/>
	<path d="M551.11,560.22c-2.81,0.62-4.78,0.62-7.07,0C546.33,558.14,548.3,557.83,551.11,560.22z"/>
	<path d="M420.05,537.23c-2.18-0.83-3.43-2.5-4.68-4.78C417.75,532.56,422.56,535.36,420.05,537.23z"/>
	<path d="M456.25,512.69c1.87-3.33,3.64-3.74,6.45-1.25C460.72,512.58,458.12,511.23,456.25,512.69z"/>
	<path d="M438.26,516.74c1.56-2.18,3.12-2.91,5.72-1.77C442.31,516.95,440.65,517.26,438.26,516.74z"/>
	<path d="M781.3,480.13c-1.77,0.31-3.54,0.31-6.24-0.94C778.07,478.47,780.05,476.7,781.3,480.13z"/>
	<path d="M510.13,256.4c-2.81,0.52-4.58-0.1-6.76-1.25C507.22,254.42,507.22,254.42,510.13,256.4z"/>
	<path d="M542.17,542.43c3.02-0.42,5.1,0.31,6.97,1.66C546.85,544.62,544.77,544.1,542.17,542.43z"/>
	<path d="M501.6,248.18c-2.29-0.73-3.22-2.5-4.26-4.06C499.52,244.54,501.6,245.06,501.6,248.18z"/>
	<path d="M448.03,509.88c-1.87-2.81-1.87-2.81,0.73-4.26C448.76,507.17,449.18,508.53,448.03,509.88z"/>
	<path d="M461.45,523.4c-2.29,1.35-2.29,1.35-4.37-0.1C459.48,521.94,459.48,521.94,461.45,523.4z"/>
	<path d="M164.8,96.84c-1.66-0.52-2.91-1.35-4.06-2.81C163.66,94.65,163.66,94.65,164.8,96.84z"/>
	<path d="M509.19,267.94c-2.39,0.1-3.43-0.52-4.16-2.29C507.43,264.72,508.36,265.65,509.19,267.94z"/>
	<path d="M591.57,307.47c1.87,0.1,3.64-0.21,5.62,1.66C593.55,309.65,593.55,309.65,591.57,307.47z"/>
	<path d="M412.05,183.17c1.35,0.94,1.87,2.18,1.66,4.37C411.94,186.19,411.63,184.73,412.05,183.17z"/>
	<path d="M450.74,515.29c1.46-1.77,3.33-2.7,5.62-2.5C454.8,514.35,453.13,515.7,450.74,515.29z"/>
	<path d="M679.47,478.47c1.46,0.62,2.91,1.14,3.33,3.33C680.71,481.17,679.88,480.13,679.47,478.47z"/>
	<path d="M474.04,213.96c-2.08-0.52-3.43-1.25-4.89-2.7C471.23,211.46,472.89,211.46,474.04,213.96z"/>
	<path d="M541.44,311.52c2.18,0.21,3.85,0.31,5.1,2.7C544.35,314.12,542.79,313.71,541.44,311.52z"/>
	<path d="M737.3,479.82c-1.56,0.31-2.91,0.1-4.16-1.14C735.74,478.36,735.74,478.36,737.3,479.82z"/>
	<path d="M482.36,217.6c-1.77,0-2.6-1.35-4.16-3.02C481.63,215.52,481.63,215.52,482.36,217.6z"/>
	<path d="M607.38,559.49c-2.08,0.21-3.54,0.52-4.58-1.25C604.47,557.72,605.82,557.41,607.38,559.49z"/>
	<path d="M541.75,305.39c1.98-0.42,3.12,0,4.37,1.25C544.35,307.26,543.21,306.53,541.75,305.39z"/>
	<path d="M501.5,265.96c-1.04,0.21-1.87,0.21-2.91-0.94C500.46,264.72,500.46,264.72,501.5,265.96z"/>
	<path d="M585.85,305.91c-1.25-0.42-2.6-0.1-2.7-2.08C584.5,303.93,585.75,303.83,585.85,305.91z"/>
	<path d="M540.19,548.99c1.46-0.62,2.5-0.62,3.95,0.83C542.27,550.55,541.13,550.65,540.19,548.99z"/>
	<path d="M531.04,303.1c-1.87,0.52-2.81-0.31-3.95-1.56C528.96,301.23,530,301.64,531.04,303.1z"/>
	<path d="M536.97,310.59c-1.14,0-1.87-0.52-2.39-1.98C536.24,308.82,537.38,308.82,536.97,310.59z"/>
	<path d="M564.63,548.36c-1.35,0.21-2.29-0.1-3.64-1.46C562.76,547.01,563.91,546.7,564.63,548.36z"/>
	<path d="M104.89,99.75c-1.46-0.62-1.98-1.46-1.35-3.22C105.2,97.46,105.93,98.29,104.89,99.75z"/>
	<path d="M703.08,488.45c-1.56,0.21-2.6,0.21-2.39-1.77C701.83,486.68,702.77,486.58,703.08,488.45z"/>
	<path d="M362.64,117.43c0.72,0.42,1.25,0.94,0.52,1.77C360.54,119.2,360.47,116.16,362.64,117.43z"/>
	<path d="M75.87,73.33c1.35-0.62,2.08,0,2.7,1.25C77.22,74.89,76.18,75.1,75.87,73.33z"/>
	<path d="M494.22,265.96c-1.87-0.21-2.91-0.1-3.85-1.87C491.82,264.3,492.86,263.99,494.22,265.96z"/>
	<path d="M424.42,181.71c1.46-0.62,2.18-0.42,2.5,1.04C425.46,183.59,424.94,182.96,424.42,181.71z"/>
	<path d="M592.51,556.37c-1.04,0.62-1.66,0.73-2.29-0.21C591.05,555.44,591.68,555.33,592.51,556.37z"/>
	<path d="M541.23,560.22c-1.14,0.52-1.87,0.31-1.35-1.14C540.71,558.97,541.13,559.28,541.23,560.22z"/>
	<path d="M814.27,471.29c1.14-0.62,2.08-0.62,3.33,0.62C816.04,472.54,815.1,472.43,814.27,471.29z"/>
	<path d="M496.3,132.62c0.73,0,1.56-0.31,2.08,0.73C497.44,133.76,496.82,133.35,496.3,132.62z"/>
	<path d="M102.19,92.88c-1.04-0.73-1.66-1.14-0.94-2.18C102.39,90.91,102.71,91.53,102.19,92.88z"/>
	<path d="M550.7,315.48c1.3-0.65,1.75,0.94,0.73,0.94C551.01,316.41,550.8,316.1,550.7,315.48z"/>
	<path d="M692.99,219.26c1.14-3.74,2.39-6.97,4.16-9.99c-1.14-2.91-4.78-4.68-4.06-8.43c3.85,2.6,5.51,5.1,7.28,10.3
		C698,213.19,698.95,219.9,692.99,219.26z"/>
	<path d="M698.5,199.92c9.72,12.83,14.14,9.54,16.43,14.67C707.55,214.37,697.36,205.74,698.5,199.92z"/>
	<path d="M668.02,182.96c6.34,0,12.17,0.94,16.43,5.72c-0.21,0.52-0.52,1.04-0.94,1.56C679.05,186.39,673.33,185.15,668.02,182.96z"
		/>
	<path d="M652.11,179.84c-3.33-0.42-5.62-1.56-8.11-3.74C647.64,175.78,650.13,176.51,652.11,179.84z"/>
	<path d="M715.77,213.85c3.54,0,5.41,0.83,7.07,3.12C720.03,217.29,717.95,216.66,715.77,213.85z"/>
	<path d="M661.58,183.07c-3.54-0.1-5.82-0.83-7.7-2.81C656.27,180.46,658.87,180.26,661.58,183.07z"/>
	<path d="M757.06,223.94c3.22,1.14,4.89,2.6,5.41,5.3C760.08,228.42,758.31,226.86,757.06,223.94z"/>
	<path d="M681.96,224.98c1.35-1.66,3.22-1.14,5.62-1.35C684.46,226.86,684.46,226.86,681.96,224.98z"/>
	<path d="M821.86,255.56c2.08-0.31,3.54,0.73,4.89,2.08C825.68,260.88,821.75,257.57,821.86,255.56z"/>
	<path d="M800.64,240.27c1.25,1.77,3.85,2.6,3.43,6.55C799.93,240.61,799.34,240.92,800.64,240.27z"/>
	<path d="M766.84,231.95c2.91-0.42,4.06,0.31,4.68,2.39C769.54,234.55,768.71,233.3,766.84,231.95z"/>
	<path d="M724.82,215.83c1.66-1.35,2.7-0.83,4.37,0.52C727.42,216.87,726.27,216.87,724.82,215.83z"/>
	<path d="M735.95,218.64c1.46-0.52,2.39-0.52,3.43,0.52C738.03,219.68,737.09,219.68,735.95,218.64z"/>
	<path d="M224.61,59.39c4.97,2.8,14.61-2.25,15.5,3.74c-4.37,2.39-8.54-1.54-12.69-1.04c-4.38,0.53-8.74,0.31-13.21,1.87
		C216.08,59.91,221.28,57.52,224.61,59.39z"/>
	<path d="M188.1,57.52c-4.68-0.21-8.53-2.7-12.48-4.78C180.3,52.94,184.36,54.92,188.1,57.52z"/>
	<path d="M234.7,94.55c-2.39,0.31-2.39,0.31-4.06-1.46C232.31,92.78,233.45,93.2,234.7,94.55z"/>
	<path d="M266.01,84.88c1.56,1.56,1.33,1.47-0.21,2.5C266.22,86.64,265.18,85.71,266.01,84.88z"/>
	<path d="M266.43,468.17c6.58-2.52,11.33-2.1,7.18-0.52C221.95,487.34,212.37,488.86,266.43,468.17z"/>
	<path d="M282.76,549.4c1.35,0.42,2.91,0.73,3.12,3.22C253.44,542.34,235.9,534.99,282.76,549.4z"/>
	<path d="M248.64,540.15c-7.91-4.99-17.37-5.1-26-7.91C231.79,533.39,241.77,531.41,248.64,540.15z"/>
	<path d="M375.95,488.66c-1.41-7.9,1.32-2.64-6.24-15.6C376.37,479.09,378.45,484.6,375.95,488.66z"/>
	<path d="M302,468.9c-2.18,3.12-3.95,6.34-6.24,9.26C297.53,474.83,297.32,470.25,302,468.9z"/>
	<path d="M302.31,493.86c-1.98,1.87-1.46,5.1-4.06,6.55C299.5,498.23,298.05,494.48,302.31,493.86z"/>
	<path d="M225.65,485.23c1.25-1.25,2.7-2.39,4.58-2.39C229.08,484.29,227.52,485.02,225.65,485.23z"/>
	<path d="M317.29,455.17c-1.14,1.56-1.46,2.81-3.02,3.22C314.06,456.62,314.9,455.89,317.29,455.17z"/>
	<path d="M151.18,399.1c-4.16,1.98-6.66-0.83-9.67-3.43C156.01,393.94,179.06,416.26,151.18,399.1z"/>
	<path d="M117.79,413.66c-2.08-2.6-2.6-4.99-2.81-7.59C116.02,408.26,118.52,409.92,117.79,413.66z"/>
	<path d="M132.35,393.8c-1.98,1.14-3.43-0.1-5.41-1.14C129.75,390.78,131.21,391.61,132.35,393.8z"/>
	<path d="M139.63,395.46c-2.29,1.04-3.54,0.1-4.89-0.73C137.24,393.38,137.24,393.38,139.63,395.46z"/>
	<path d="M115.29,384.75c-0.62-1.77-1.66-2.5-1.46-4.37C115.6,381.21,116.44,382.04,115.29,384.75z"/>
	<path d="M110.51,376.01c-2.18-0.73-3.43-1.35-3.64-3.54C108.95,372.79,109.68,373.83,110.51,376.01z"/>
	<path d="M210.88,416.58c-2.08-4.37-6.14-6.66-6.03-12.07C208.07,406.9,210.78,412.1,210.88,416.58z"/>
	<path d="M169.59,372.89c3.74,0.21,3.74,0.21,5.2,3.43C172.92,375.08,170.73,374.97,169.59,372.89z"/>
	<path d="M165.12,368c1.87,0.21,3.64,0.52,4.58,2.7C166.36,370.5,166.36,370.5,165.12,368z"/>
	<path d="M186.44,390.05c1.66-0.1,2.5,0.31,3.43,2.29C188,391.93,186.96,391.61,186.44,390.05z"/>
	<path d="M233.04,391.72c-1.02,4.61-5.33-1.66-15.39-1.66c-11.92,0-8.53,3.36-13.73,0.42c3.95-2.39,8.52-1.89,12.59-3.54
		c1.04-0.42,2.5-0.21,3.54,0.31c4.77,2.38,10,1,12.5,3.96c0.49-2.77,2.46-0.49,2.06,0.61C234.08,392.34,233.56,391.82,233.04,391.72
		z"/>
	<path d="M73.89,342.73c1.23,2.06,5.81,3.34,4.37,7.91C75.36,359.8,59.46,351.75,73.89,342.73z M71.4,351.67
		c2.31,2.13,6.69-0.41,3.85-4.47c-1.35,0.73-2.7,2.39-3.85-0.1C69.84,348.97,69.93,350.33,71.4,351.67z"/>
	<path d="M56,364.05c1.04-1.25-1.35-3.33,1.25-5.1c0.83,1.77,1.25,3.33,3.74,3.74c4.53,1.03,0.96,7.13-2.91,8.63
		c-1.98-2.5-5.1-4.16-6.34-7.28C53.61,362.7,54.44,365.4,56,364.05z M58.92,368.11c3.91-1.78-0.18-5.86-1.87-1.46
		C57.46,367.48,57.98,368.42,58.92,368.11z"/>
	<path d="M60.06,358.02c-0.26-6.81,10.53-7.64,10.4-0.62C70.34,364.23,60.32,364.89,60.06,358.02z M65.37,360.62
		c3.88-0.23,3.78-6.14-0.31-5.93C61.18,354.69,61.35,360.85,65.37,360.62z"/>
	<path d="M30,66.47c1.38-2.06,3.64-2.08,6.14-2.18c-2.5-4.58,0-7.39,2.91-9.99c2.91,1.56,7.02,2.19,6.45,6.76
		c-0.48,3.85-3.74,4.58-6.86,4.99C42.19,79.97,24.4,74.82,30,66.47z M41.44,58.04c-0.94,2.5-2.5,1.25-3.85,0.73
		C35.39,66.02,48.23,63.37,41.44,58.04z M34.47,72.5c3.84,0.25,3.68-5.62-0.83-5.62C30.13,66.66,30.23,72.22,34.47,72.5z"/>
	<path d="M26.67,72.91c1.04,1.46,1.98,2.6,4.16,2.7c5.04,0.23,2.02,6.92-0.73,8.63c-14.88-7.72-4.26-5.64-4.16-5.72
		C27.3,76.35,24.38,74.68,26.67,72.91z M31.25,77.8c-2.39-0.62-2.6,1.04-3.64,2.6C31.25,81.65,31.25,79.99,31.25,77.8z"/>
<path fill="#e6e6e6" d="m206.8 163.6c0-5.1 4.1-9.2 9.3-9.2s9.2 4.2 9.2 9.2-4.1 9.2-9.3 9.2-9.2-4.1-9.2-9.2zm17.3-.1c0-4.5-3.5-8.2-8.2-8.2s-8.2 3.7-8.2 8.3c0 4.5 3.5 8.2 8.2 8.2s8.2-3.7 8.2-8.3zm-13 0c0-2.8 2.1-5.1 5.1-5.1 1.9 0 2.9.6 3.9 1.5l-1.4 1.7c-.8-.7-1.5-1.1-2.5-1.1-1.7 0-2.8 1.4-2.8 3.1s1.1 3 2.8 3c1.1 0 1.7-.5 2.5-1.1l1.4 1.4c-1.1 1.1-2.1 1.7-4 1.7-2.9 0-5-2.3-5-5.1z"/><path fill="#e6e6e6" d="m226.6 154.7h3.4l4.2 13.2 4.4-13.3h2.6l4.4 13.3 4.2-13.2h3.3l-6.2 18h-2.7l-4.4-12.8-4.4 12.8h-2.7z"/><path fill="#e6e6e6" d="m252.8 165.8c0-3.9 3.1-7 7.2-7 4.2 0 7.2 3.2 7.2 7s-3.1 7-7.3 7c-4 0-7.1-3.1-7.1-7zm11.3 0c0-2.3-1.7-4.3-4.2-4.3s-4.1 2-4.1 4.3 1.7 4.3 4.1 4.3c2.7.1 4.2-1.9 4.2-4.3z"/><path fill="#e6e6e6" d="m269.5 159.1h3.1v3c.8-2 2.4-3.4 4.8-3.3v3.2h-.2c-2.7 0-4.6 1.7-4.6 5.4v5.1h-3.1z"/><path fill="#e6e6e6" d="m279.1 153.9h3.1v11.1l5.6-6h3.8l-5.4 5.5 5.5 8h-3.5l-4.1-5.8-1.9 2v3.9h-3.1z"/><path fill="#e6e6e6" d="m291.7 165.8c0-3.9 3.1-7 7.2-7 4.2 0 7.2 3.2 7.2 7s-3.1 7-7.3 7c-4 0-7.1-3.1-7.1-7zm11.3 0c0-2.3-1.7-4.3-4.2-4.3s-4.1 2-4.1 4.3 1.7 4.3 4.1 4.3c2.6.1 4.2-1.9 4.2-4.3z"/><path fill="#e6e6e6" d="m308.2 167.6v-8.6h3.1v7.6c0 2.1 1.1 3.3 2.9 3.3s3-1.3 3-3.3v-7.6h3.1v13.4h-3.1v-2.1c-.8 1.3-2.1 2.3-4.2 2.3-3.1.2-4.8-1.8-4.8-5z"/><path fill="#e6e6e6" d="m323.9 168.8v-7.1h-1.7v-2.6h1.7v-3.7h3.1v3.7h3.6v2.6h-3.6v6.6c0 1.2.6 1.7 1.7 1.7.7 0 1.3-.2 1.9-.5v2.5c-.8.5-1.7.7-2.8.7-2.3 0-3.9-.9-3.9-3.9z"/><path fill="#e6e6e6" d="m333.2 154.7h3.2v15h9.4v2.9h-12.5v-17.9z"/><path fill="#e6e6e6" d="m356 172.5v-1.7c-.9 1.1-2.3 2-4.4 2-2.6 0-4.8-1.4-4.8-4.2 0-3 2.3-4.4 5.4-4.4 1.7 0 2.6.2 3.7.5v-.2c0-1.9-1.2-2.9-3.3-2.9-1.5 0-2.6.3-3.9.8l-.8-2.5c1.5-.7 2.9-1.1 5.1-1.1 4 0 5.9 2.1 5.9 5.7v8zm.1-5.6c-.8-.3-1.9-.5-3.1-.5-2 0-3.1.8-3.1 2.1s1.1 2 2.6 2c2 0 3.5-1.1 3.5-2.9z"/><path fill="#e6e6e6" d="m364.9 170.5v2.1h-3.1v-18.7h3.1v7.4c1-1.4 2.4-2.5 4.5-2.5 3.2 0 6.3 2.5 6.3 7s-3.1 7-6.3 7c-2.1 0-3.5-1.1-4.5-2.3zm7.7-4.7c0-2.6-1.7-4.3-3.9-4.3s-3.9 1.7-3.9 4.4c0 2.6 1.8 4.3 3.9 4.3s3.9-1.7 3.9-4.4z"/><path fill="#e6e6e6" d="m376.9 170.8 1.4-2.1c1.4 1.1 3 1.7 4.4 1.7s2.1-.5 2.1-1.5-1.3-1.4-2.8-1.8c-.1 0-.2-.1-.2-.1-2-.6-4.2-1.4-4.2-4s2.1-4.1 4.8-4.1c1.7 0 3.5.6 5 1.5l-1.2 2.2c-1.3-.8-2.6-1.3-3.8-1.3s-1.9.5-1.9 1.4 1.3 1.4 2.8 1.8c.1 0 .2.1.2.1 2 .6 4.2 1.5 4.2 4 0 2.9-2.2 4.2-5 4.2-1.9 0-4-.7-5.8-2z"/><path fill="#e6e6e6" d="m505.6 163.6c0-5.1 4.1-9.2 9.3-9.2s9.2 4.2 9.2 9.2-4.1 9.2-9.3 9.2-9.2-4.1-9.2-9.2zm17.4-.1c0-4.5-3.5-8.2-8.2-8.2s-8.2 3.7-8.2 8.3c0 4.5 3.5 8.2 8.2 8.2s8.2-3.7 8.2-8.3zm-13.1 0c0-2.8 2.1-5.1 5.1-5.1 1.9 0 2.9.6 3.9 1.5l-1.4 1.7c-.8-.7-1.5-1.1-2.5-1.1-1.7 0-2.8 1.4-2.8 3.1s1.1 3 2.8 3c1.1 0 1.7-.5 2.5-1.1l1.4 1.4c-1.1 1.1-2.1 1.7-4 1.7-2.9 0-5-2.3-5-5.1z"/><path fill="#e6e6e6" d="m525.4 154.7h3.4l4.2 13.2 4.4-13.3h2.6l4.4 13.3 4.2-13.2h3.3l-6.2 18h-2.7l-4.4-12.8-4.4 12.8h-2.7z"/><path fill="#e6e6e6" d="m551.7 165.8c0-3.9 3.1-7 7.2-7 4.2 0 7.2 3.2 7.2 7s-3.1 7-7.3 7c-4.1 0-7.1-3.1-7.1-7zm11.2 0c0-2.3-1.7-4.3-4.2-4.3s-4.1 2-4.1 4.3 1.7 4.3 4.1 4.3c2.7.1 4.2-1.9 4.2-4.3z"/><path fill="#e6e6e6" d="m568.3 159.1h3.1v3c.8-2 2.4-3.4 4.8-3.3v3.2h-.2c-2.7 0-4.6 1.7-4.6 5.4v5.1h-3.1z"/><path fill="#e6e6e6" d="m577.9 153.9h3.1v11.1l5.6-6h3.8l-5.4 5.5 5.5 8h-3.5l-4.1-5.8-1.9 2v3.9h-3.1z"/><path fill="#e6e6e6" d="m590.6 165.8c0-3.9 3.1-7 7.2-7 4.2 0 7.2 3.2 7.2 7s-3.1 7-7.3 7c-4.1 0-7.1-3.1-7.1-7zm11.2 0c0-2.3-1.7-4.3-4.2-4.3s-4.1 2-4.1 4.3 1.7 4.3 4.1 4.3c2.6.1 4.2-1.9 4.2-4.3z"/><path fill="#e6e6e6" d="m607 167.6v-8.6h3.1v7.6c0 2.1 1.1 3.3 2.9 3.3s3-1.3 3-3.3v-7.6h3.1v13.4h-3.1v-2.1c-.8 1.3-2.1 2.3-4.2 2.3-3 .2-4.8-1.8-4.8-5z"/><path fill="#e6e6e6" d="m622.7 168.8v-7.1h-1.7v-2.6h1.7v-3.7h3.1v3.7h3.6v2.6h-3.6v6.6c0 1.2.6 1.7 1.7 1.7.7 0 1.3-.2 1.9-.5v2.5c-.8.5-1.7.7-2.8.7-2.3 0-3.9-.9-3.9-3.9z"/><path fill="#e6e6e6" d="m632 154.7h3.2v15h9.4v2.9h-12.6z"/><path fill="#e6e6e6" d="m654.8 172.5v-1.7c-.9 1.1-2.3 2-4.4 2-2.6 0-4.8-1.4-4.8-4.2 0-3 2.3-4.4 5.4-4.4 1.7 0 2.6.2 3.7.5v-.2c0-1.9-1.2-2.9-3.3-2.9-1.5 0-2.6.3-3.9.8l-.8-2.5c1.5-.7 2.9-1.1 5.1-1.1 4 0 5.9 2.1 5.9 5.7v8zm.1-5.6c-.8-.3-1.9-.5-3.1-.5-2 0-3.1.8-3.1 2.1s1.1 2 2.6 2c2 0 3.5-1.1 3.5-2.9z"/><path fill="#e6e6e6" d="m663.7 170.5v2.1h-3.1v-18.7h3.1v7.4c1-1.4 2.4-2.5 4.5-2.5 3.2 0 6.3 2.5 6.3 7s-3.1 7-6.3 7c-2.1 0-3.5-1.1-4.5-2.3zm7.8-4.7c0-2.6-1.7-4.3-3.9-4.3-2.1 0-3.9 1.7-3.9 4.4 0 2.6 1.8 4.3 3.9 4.3s3.9-1.7 3.9-4.4z"/><path fill="#e6e6e6" d="m675.8 170.8 1.4-2.1c1.4 1.1 3 1.7 4.4 1.7s2.1-.5 2.1-1.5-1.3-1.4-2.8-1.8c-.1 0-.2-.1-.2-.1-2-.6-4.2-1.4-4.2-4s2.1-4.1 4.8-4.1c1.7 0 3.5.6 5 1.5l-1.2 2.2c-1.3-.8-2.6-1.3-3.8-1.3s-1.9.5-1.9 1.4 1.3 1.4 2.8 1.8c.1 0 .2.1.2.1 2 .6 4.2 1.5 4.2 4 0 2.9-2.2 4.2-5 4.2-2 0-4.1-.7-5.8-2z"/><path fill="#e6e6e6" d="m61 298.6c0-5.1 4.1-9.2 9.3-9.2s9.2 4.2 9.2 9.2-4.1 9.2-9.3 9.2c-5.1 0-9.2-4.2-9.2-9.2zm17.4-.1c0-4.5-3.5-8.2-8.2-8.2s-8.2 3.7-8.2 8.3c0 4.5 3.5 8.2 8.2 8.2s8.2-3.7 8.2-8.3zm-13.1-.1c0-2.8 2.1-5.1 5.1-5.1 1.9 0 2.9.6 3.9 1.5l-1.4 1.7c-.8-.7-1.5-1.1-2.5-1.1-1.7 0-2.8 1.4-2.8 3.1s1.1 3 2.8 3c1.1 0 1.7-.5 2.5-1.1l1.4 1.4c-1.1 1.1-2.1 1.7-4 1.7-2.8.1-5-2.2-5-5.1z"/><path fill="#e6e6e6" d="m80.9 289.7h3.4l4.2 13.2 4.4-13.3h2.6l4.4 13.3 4.2-13.2h3.3l-6.2 18h-2.7l-4.4-12.8-4.4 12.8h-2.7z"/><path fill="#e6e6e6" d="m107.1 300.8c0-3.9 3.1-7 7.2-7s7.2 3.2 7.2 7-3.1 7-7.3 7c-4 0-7.1-3.1-7.1-7zm11.3 0c0-2.3-1.7-4.3-4.2-4.3s-4.1 2-4.1 4.3 1.7 4.3 4.1 4.3c2.6.1 4.2-1.9 4.2-4.3z"/><path fill="#e6e6e6" d="m123.7 294h3.1v3c.8-2 2.4-3.4 4.8-3.3v3.2h-.2c-2.7 0-4.6 1.7-4.6 5.4v5.1h-3.1z"/><path fill="#e6e6e6" d="m133.4 288.9h3.1v11.1l5.6-6h3.8l-5.4 5.5 5.5 8h-3.5l-4.1-5.8-1.9 1.9v3.9h-3.1z"/><path fill="#e6e6e6" d="m146 300.8c0-3.9 3.1-7 7.2-7s7.2 3.2 7.2 7-3.1 7-7.3 7c-4.1 0-7.1-3.1-7.1-7zm11.2 0c0-2.3-1.7-4.3-4.2-4.3s-4.1 2-4.1 4.3 1.7 4.3 4.1 4.3c2.6.1 4.2-1.9 4.2-4.3z"/><path fill="#e6e6e6" d="m162.4 302.6v-8.6h3.1v7.6c0 2.1 1.1 3.3 2.9 3.3s3-1.3 3-3.3v-7.6h3.1v13.4h-3.1v-2.1c-.8 1.3-2.1 2.3-4.2 2.3-3 .2-4.8-1.8-4.8-5z"/><path fill="#e6e6e6" d="m178.1 303.8v-7.1h-1.7v-2.7h1.7v-3.7h3.1v3.7h3.6v2.6h-3.6v6.6c0 1.2.6 1.7 1.7 1.7.7 0 1.3-.2 1.9-.5v2.5c-.8.5-1.7.7-2.8.7-2.3.1-3.9-.9-3.9-3.8z"/><path fill="#e6e6e6" d="m187.4 289.7h3.2v15h9.4v2.9h-12.5v-17.9z"/><path fill="#e6e6e6" d="m210.2 307.5v-1.7c-.9 1.1-2.3 2-4.4 2-2.6 0-4.8-1.4-4.8-4.2 0-3 2.3-4.4 5.4-4.4 1.7 0 2.6.2 3.7.5v-.2c0-1.9-1.2-2.9-3.3-2.9-1.5 0-2.6.3-3.9.8l-.8-2.5c1.5-.7 2.9-1.1 5.1-1.1 4 0 5.9 2.1 5.9 5.7v8zm.1-5.6c-.8-.3-1.9-.5-3.1-.5-2 0-3.1.8-3.1 2.1s1.1 2 2.6 2c2 0 3.5-1.1 3.5-2.9z"/><path fill="#e6e6e6" d="m219.2 305.5v2.1h-3.1v-18.7h3.1v7.4c1-1.4 2.4-2.5 4.5-2.5 3.2 0 6.3 2.5 6.3 7s-3.1 7-6.3 7c-2.2 0-3.6-1.1-4.5-2.3zm7.7-4.7c0-2.6-1.7-4.3-3.9-4.3s-3.9 1.7-3.9 4.4c0 2.6 1.8 4.3 3.9 4.3s3.9-1.7 3.9-4.4z"/><path fill="#e6e6e6" d="m231.2 305.8 1.4-2.1c1.4 1.1 3 1.7 4.4 1.7s2.1-.5 2.1-1.5-1.3-1.4-2.8-1.8c-.1 0-.2-.1-.2-.1-2-.6-4.2-1.4-4.2-4s2.1-4.1 4.8-4.1c1.7 0 3.5.6 5 1.5l-1.2 2.2c-1.3-.8-2.6-1.3-3.8-1.3s-1.9.5-1.9 1.4 1.3 1.4 2.8 1.8c.1 0 .2.1.2.1 2 .6 4.2 1.5 4.2 4 0 2.9-2.2 4.2-5 4.2-2 0-4.1-.7-5.8-2z"/><path fill="#e6e6e6" d="m360.6 298.6c0-5.1 4.1-9.2 9.3-9.2s9.2 4.2 9.2 9.2-4.1 9.2-9.3 9.2-9.2-4.2-9.2-9.2zm17.4-.1c0-4.5-3.5-8.2-8.2-8.2s-8.2 3.7-8.2 8.3c0 4.5 3.5 8.2 8.2 8.2s8.2-3.7 8.2-8.3zm-13.1-.1c0-2.8 2.1-5.1 5.1-5.1 1.9 0 2.9.6 3.9 1.5l-1.4 1.7c-.8-.7-1.5-1.1-2.5-1.1-1.7 0-2.8 1.4-2.8 3.1s1.1 3 2.8 3c1.1 0 1.7-.5 2.5-1.1l1.4 1.4c-1.1 1.1-2.1 1.7-4 1.7-2.8.1-5-2.2-5-5.1z"/><path fill="#e6e6e6" d="m380.5 289.7h3.4l4.2 13.2 4.4-13.3h2.6l4.4 13.3 4.2-13.2h3.3l-6.2 18h-2.7l-4.4-12.8-4.4 12.8h-2.7z"/><path fill="#e6e6e6" d="m406.7 300.8c0-3.9 3.1-7 7.2-7 4.2 0 7.2 3.2 7.2 7s-3.1 7-7.3 7c-4.1 0-7.1-3.1-7.1-7zm11.3 0c0-2.3-1.7-4.3-4.2-4.3s-4.1 2-4.1 4.3 1.7 4.3 4.1 4.3c2.7.1 4.2-1.9 4.2-4.3z"/><path fill="#e6e6e6" d="m423.3 294h3.1v3c.8-2 2.4-3.4 4.8-3.3v3.2h-.2c-2.7 0-4.6 1.7-4.6 5.4v5.1h-3.1z"/><path fill="#e6e6e6" d="m433 288.9h3.1v11.1l5.6-6h3.8l-5.4 5.5 5.5 8h-3.5l-4.1-5.8-1.9 2v3.9h-3.1z"/><path fill="#e6e6e6" d="m445.6 300.8c0-3.9 3.1-7 7.2-7 4.2 0 7.2 3.2 7.2 7s-3.1 7-7.3 7c-4.1 0-7.1-3.1-7.1-7zm11.3 0c0-2.3-1.7-4.3-4.2-4.3s-4.1 2-4.1 4.3 1.7 4.3 4.1 4.3c2.6.1 4.2-1.9 4.2-4.3z"/><path fill="#e6e6e6" d="m462.1 302.6v-8.6h3.1v7.6c0 2.1 1.1 3.3 2.9 3.3s3-1.3 3-3.3v-7.6h3.1v13.4h-3.1v-2.1c-.8 1.3-2.1 2.3-4.2 2.3-3.1.2-4.8-1.8-4.8-5z"/><path fill="#e6e6e6" d="m477.8 303.8v-7.1h-1.8v-2.7h1.7v-3.7h3.1v3.7h3.6v2.6h-3.6v6.6c0 1.2.6 1.7 1.7 1.7.7 0 1.3-.2 1.9-.5v2.5c-.8.5-1.7.7-2.8.7-2.2.1-3.8-.9-3.8-3.8z"/><path fill="#e6e6e6" d="m487.1 289.7h3.2v15h9.4v2.9h-12.5v-17.9z"/><path fill="#e6e6e6" d="m509.9 307.5v-1.7c-.9 1.1-2.3 2-4.4 2-2.6 0-4.8-1.4-4.8-4.2 0-3 2.3-4.4 5.4-4.4 1.7 0 2.6.2 3.7.5v-.2c0-1.9-1.2-2.9-3.3-2.9-1.5 0-2.6.3-3.9.8l-.8-2.5c1.5-.7 2.9-1.1 5.1-1.1 4 0 5.9 2.1 5.9 5.7v8zm.1-5.6c-.8-.3-1.9-.5-3.1-.5-2 0-3.1.8-3.1 2.1s1.1 2 2.6 2c2 0 3.5-1.1 3.5-2.9z"/><path fill="#e6e6e6" d="m518.8 305.5v2.1h-3.1v-18.7h3.1v7.4c1-1.4 2.4-2.5 4.5-2.5 3.2 0 6.3 2.5 6.3 7s-3.1 7-6.3 7c-2.2 0-3.5-1.1-4.5-2.3zm7.7-4.7c0-2.6-1.7-4.3-3.9-4.3s-3.9 1.7-3.9 4.4c0 2.6 1.8 4.3 3.9 4.3s3.9-1.7 3.9-4.4z"/><path fill="#e6e6e6" d="m530.8 305.8 1.4-2.1c1.4 1.1 3 1.7 4.4 1.7s2.1-.5 2.1-1.5-1.3-1.4-2.8-1.8c-.1 0-.2-.1-.2-.1-2-.6-4.2-1.4-4.2-4s2.1-4.1 4.8-4.1c1.7 0 3.5.6 5 1.5l-1.2 2.2c-1.3-.8-2.6-1.3-3.8-1.3s-1.9.5-1.9 1.4 1.3 1.4 2.8 1.8c.1 0 .2.1.2.1 2 .6 4.2 1.5 4.2 4 0 2.9-2.2 4.2-5 4.2-1.9 0-4.1-.7-5.8-2z"/><path fill="#e6e6e6" d="m659.5 298.6c0-5.1 4.1-9.2 9.3-9.2s9.2 4.2 9.2 9.2-4.1 9.2-9.3 9.2-9.2-4.2-9.2-9.2zm17.3-.1c0-4.5-3.5-8.2-8.2-8.2s-8.2 3.7-8.2 8.3c0 4.5 3.5 8.2 8.2 8.2 4.8 0 8.2-3.7 8.2-8.3zm-13-.1c0-2.8 2.1-5.1 5.1-5.1 1.9 0 2.9.6 3.9 1.5l-1.4 1.7c-.8-.7-1.5-1.1-2.5-1.1-1.7 0-2.8 1.4-2.8 3.1s1.1 3 2.8 3c1.1 0 1.7-.5 2.5-1.1l1.4 1.4c-1.1 1.1-2.1 1.7-4 1.7-2.9.1-5-2.2-5-5.1z"/><path fill="#e6e6e6" d="m679.3 289.7h3.4l4.2 13.2 4.4-13.3h2.6l4.4 13.3 4.2-13.2h3.3l-6.2 18h-2.6l-4.4-12.8-4.4 12.8h-2.7z"/><path fill="#e6e6e6" d="m705.5 300.8c0-3.9 3.1-7 7.2-7 4.2 0 7.2 3.2 7.2 7s-3.1 7-7.3 7c-4 0-7.1-3.1-7.1-7zm11.3 0c0-2.3-1.7-4.3-4.2-4.3s-4.1 2-4.1 4.3 1.7 4.3 4.1 4.3c2.7.1 4.2-1.9 4.2-4.3z"/><path fill="#e6e6e6" d="m722.1 294h3.1v3c.8-2 2.4-3.4 4.8-3.3v3.2h-.2c-2.7 0-4.6 1.7-4.6 5.4v5.1h-3.1z"/><path fill="#e6e6e6" d="m731.8 288.9h3.1v11.1l5.6-6h3.8l-5.4 5.5 5.5 8h-3.5l-4.1-5.8-1.9 2v3.9h-3.1z"/><path fill="#e6e6e6" d="m744.4 300.8c0-3.9 3.1-7 7.2-7 4.2 0 7.2 3.2 7.2 7s-3.1 7-7.3 7c-4.1 0-7.1-3.1-7.1-7zm11.3 0c0-2.3-1.7-4.3-4.2-4.3s-4.1 2-4.1 4.3 1.7 4.3 4.1 4.3c2.6.1 4.2-1.9 4.2-4.3z"/><path fill="#e6e6e6" d="m760.9 302.6v-8.6h3.1v7.6c0 2.1 1.1 3.3 2.9 3.3s3-1.3 3-3.3v-7.6h3.1v13.4h-3.1v-2.1c-.8 1.3-2.1 2.3-4.2 2.3-3.1.2-4.8-1.8-4.8-5z"/><path fill="#e6e6e6" d="m776.6 303.8v-7.1h-1.7v-2.7h1.7v-3.7h3.1v3.7h3.6v2.6h-3.6v6.6c0 1.2.6 1.7 1.7 1.7.7 0 1.3-.2 1.9-.5v2.5c-.8.5-1.7.7-2.8.7-2.3.1-3.9-.9-3.9-3.8z"/><path fill="#e6e6e6" d="m785.9 289.7h3.2v15h9.4v2.9h-12.5v-17.9z"/><path fill="#e6e6e6" d="m808.7 307.5v-1.7c-.9 1.1-2.3 2-4.4 2-2.6 0-4.8-1.4-4.8-4.2 0-3 2.3-4.4 5.4-4.4 1.7 0 2.6.2 3.7.5v-.2c0-1.9-1.2-2.9-3.3-2.9-1.5 0-2.6.3-3.9.8l-.8-2.5c1.5-.7 2.9-1.1 5.1-1.1 4 0 5.9 2.1 5.9 5.7v8zm.1-5.6c-.8-.3-1.9-.5-3.1-.5-2 0-3.1.8-3.1 2.1s1.1 2 2.6 2c2 0 3.5-1.1 3.5-2.9z"/><path fill="#e6e6e6" d="m817.6 305.5v2.1h-3.1v-18.7h3.1v7.4c1-1.4 2.4-2.5 4.5-2.5 3.2 0 6.3 2.5 6.3 7s-3.1 7-6.3 7c-2.1 0-3.5-1.1-4.5-2.3zm7.7-4.7c0-2.6-1.7-4.3-3.9-4.3-2.1 0-3.9 1.7-3.9 4.4 0 2.6 1.8 4.3 3.9 4.3 2.2 0 3.9-1.7 3.9-4.4z"/><path fill="#e6e6e6" d="m829.6 305.8 1.4-2.1c1.4 1.1 3 1.7 4.4 1.7s2.1-.5 2.1-1.5-1.3-1.4-2.8-1.8c-.1 0-.2-.1-.2-.1-2-.6-4.2-1.4-4.2-4s2.1-4.1 4.8-4.1c1.7 0 3.5.6 5 1.5l-1.2 2.2c-1.3-.8-2.6-1.3-3.8-1.3s-1.9.5-1.9 1.4 1.3 1.4 2.8 1.8c.1 0 .2.1.2.1 2 .6 4.2 1.5 4.2 4 0 2.9-2.2 4.2-5 4.2-1.9 0-4-.7-5.8-2z"/><path fill="#e6e6e6" d="m206.3 434.2c0-5.1 4.1-9.2 9.3-9.2s9.2 4.2 9.2 9.2-4.1 9.2-9.3 9.2-9.2-4.1-9.2-9.2zm17.4-.1c0-4.5-3.5-8.2-8.2-8.2s-8.2 3.7-8.2 8.3c0 4.5 3.5 8.2 8.2 8.2s8.2-3.7 8.2-8.3zm-13.1-.1c0-2.8 2.1-5.1 5.1-5.1 1.9 0 2.9.6 3.9 1.5l-1.4 1.7c-.8-.7-1.5-1.1-2.5-1.1-1.7 0-2.8 1.4-2.8 3.1s1.1 3 2.8 3c1.1 0 1.7-.5 2.5-1.1l1.4 1.4c-1.1 1.1-2.1 1.7-4 1.7-2.9.1-5-2.2-5-5.1z"/><path fill="#e6e6e6" d="m226.1 425.3h3.4l4.2 13.2 4.4-13.3h2.6l4.4 13.3 4.2-13.2h3.3l-6.2 18h-2.7l-4.4-12.8-4.4 12.8h-2.7z"/><path fill="#e6e6e6" d="m252.4 436.4c0-3.9 3.1-7 7.2-7 4.2 0 7.2 3.2 7.2 7s-3.1 7-7.3 7c-4.1 0-7.1-3.1-7.1-7zm11.2 0c0-2.3-1.7-4.3-4.2-4.3s-4.1 2-4.1 4.3 1.7 4.3 4.1 4.3c2.7.1 4.2-1.9 4.2-4.3z"/><path fill="#e6e6e6" d="m269 429.7h3.1v3c.8-2 2.4-3.4 4.8-3.3v3.2h-.2c-2.7 0-4.6 1.7-4.6 5.4v5.1h-3.1z"/><path fill="#e6e6e6" d="m278.6 424.5h3.1v11.1l5.6-6h3.8l-5.4 5.5 5.5 8h-3.5l-4.1-5.8-1.9 2v3.9h-3.1z"/><path fill="#e6e6e6" d="m291.3 436.4c0-3.9 3.1-7 7.2-7 4.2 0 7.2 3.2 7.2 7s-3.1 7-7.3 7c-4.1 0-7.1-3.1-7.1-7zm11.2 0c0-2.3-1.7-4.3-4.2-4.3s-4.1 2-4.1 4.3 1.7 4.3 4.1 4.3c2.6.1 4.2-1.9 4.2-4.3z"/><path fill="#e6e6e6" d="m307.7 438.2v-8.6h3.1v7.6c0 2.1 1.1 3.3 2.9 3.3s3-1.3 3-3.3v-7.6h3.1v13.4h-3.1v-2.1c-.8 1.3-2.1 2.3-4.2 2.3-3 .2-4.8-1.8-4.8-5z"/><path fill="#e6e6e6" d="m323.4 439.4v-7.1h-1.7v-2.6h1.7v-3.7h3.1v3.7h3.6v2.6h-3.6v6.6c0 1.2.6 1.7 1.7 1.7.7 0 1.3-.2 1.9-.5v2.5c-.8.5-1.7.7-2.8.7-2.3 0-3.9-.9-3.9-3.9z"/><path fill="#e6e6e6" d="m332.7 425.3h3.2v15h9.4v2.9h-12.5v-17.9z"/><path fill="#e6e6e6" d="m355.5 443.1v-1.7c-.9 1.1-2.3 2-4.4 2-2.6 0-4.8-1.4-4.8-4.2 0-3 2.3-4.4 5.4-4.4 1.7 0 2.6.2 3.7.5v-.2c0-1.9-1.2-2.9-3.3-2.9-1.5 0-2.6.3-3.9.8l-.8-2.5c1.5-.7 2.9-1.1 5.1-1.1 4 0 5.9 2.1 5.9 5.7v8zm.1-5.6c-.8-.3-1.9-.5-3.1-.5-2 0-3.1.8-3.1 2.1s1.1 2 2.6 2c2 0 3.5-1.1 3.5-2.9z"/><path fill="#e6e6e6" d="m364.4 441.1v2.1h-3.1v-18.7h3.1v7.4c1-1.4 2.4-2.5 4.5-2.5 3.2 0 6.3 2.5 6.3 7s-3.1 7-6.3 7c-2.1 0-3.5-1.1-4.5-2.3zm7.7-4.7c0-2.6-1.7-4.3-3.9-4.3-2.1 0-3.9 1.7-3.9 4.4 0 2.6 1.8 4.3 3.9 4.3 2.2 0 3.9-1.7 3.9-4.4z"/><path fill="#e6e6e6" d="m376.5 441.4 1.4-2.1c1.4 1.1 3 1.7 4.4 1.7s2.1-.5 2.1-1.5-1.3-1.4-2.8-1.8c-.1 0-.2-.1-.2-.1-2-.6-4.2-1.4-4.2-4s2.1-4.1 4.8-4.1c1.7 0 3.5.6 5 1.5l-1.2 2.2c-1.3-.8-2.6-1.3-3.8-1.3s-1.9.5-1.9 1.4 1.3 1.4 2.8 1.8c.1 0 .2.1.2.1 2 .6 4.2 1.5 4.2 4 0 2.9-2.2 4.2-5 4.2-2 0-4.1-.7-5.8-2z"/><path fill="#e6e6e6" d="m505.1 434.2c0-5.1 4.1-9.2 9.3-9.2s9.2 4.2 9.2 9.2-4.1 9.2-9.3 9.2-9.2-4.1-9.2-9.2zm17.4-.1c0-4.5-3.5-8.2-8.2-8.2s-8.2 3.7-8.2 8.3c0 4.5 3.5 8.2 8.2 8.2s8.2-3.7 8.2-8.3zm-13.1-.1c0-2.8 2.1-5.1 5.1-5.1 1.9 0 2.9.6 3.9 1.5l-1.4 1.7c-.8-.7-1.5-1.1-2.5-1.1-1.7 0-2.8 1.4-2.8 3.1s1.1 3 2.8 3c1.1 0 1.7-.5 2.5-1.1l1.4 1.4c-1.1 1.1-2.1 1.7-4 1.7-2.9.1-5-2.2-5-5.1z"/><path fill="#e6e6e6" d="m525 425.3h3.4l4.2 13.2 4.4-13.3h2.6l4.4 13.3 4.2-13.2h3.3l-6.2 18h-2.7l-4.4-12.8-4.4 12.8h-2.7z"/><path fill="#e6e6e6" d="m551.2 436.4c0-3.9 3.1-7 7.2-7 4.2 0 7.2 3.2 7.2 7s-3.1 7-7.3 7c-4.1 0-7.1-3.1-7.1-7zm11.2 0c0-2.3-1.7-4.3-4.2-4.3s-4.1 2-4.1 4.3 1.7 4.3 4.1 4.3c2.7.1 4.2-1.9 4.2-4.3z"/><path fill="#e6e6e6" d="m567.8 429.7h3.1v3c.8-2 2.4-3.4 4.8-3.3v3.2h-.2c-2.7 0-4.6 1.7-4.6 5.4v5.1h-3.1z"/><path fill="#e6e6e6" d="m577.5 424.5h3.1v11.1l5.6-6h3.8l-5.4 5.5 5.5 8h-3.5l-4.1-5.8-1.9 2v3.9h-3.1z"/><path fill="#e6e6e6" d="m590.1 436.4c0-3.9 3.1-7 7.2-7 4.2 0 7.2 3.2 7.2 7s-3.1 7-7.3 7c-4.1 0-7.1-3.1-7.1-7zm11.2 0c0-2.3-1.7-4.3-4.2-4.3s-4.1 2-4.1 4.3 1.7 4.3 4.1 4.3c2.6.1 4.2-1.9 4.2-4.3z"/><path fill="#e6e6e6" d="m606.5 438.2v-8.6h3.1v7.6c0 2.1 1.1 3.3 2.9 3.3s3-1.3 3-3.3v-7.6h3.1v13.4h-3.1v-2.1c-.8 1.3-2.1 2.3-4.2 2.3-3 .2-4.8-1.8-4.8-5z"/><path fill="#e6e6e6" d="m622.2 439.4v-7.1h-1.7v-2.6h1.7v-3.7h3.1v3.7h3.6v2.6h-3.6v6.6c0 1.2.6 1.7 1.7 1.7.7 0 1.3-.2 1.9-.5v2.5c-.8.5-1.7.7-2.8.7-2.3 0-3.9-.9-3.9-3.9z"/><path fill="#e6e6e6" d="m631.5 425.3h3.2v15h9.4v2.9h-12.5v-17.9z"/><path fill="#e6e6e6" d="m654.3 443.1v-1.7c-.9 1.1-2.3 2-4.4 2-2.6 0-4.8-1.4-4.8-4.2 0-3 2.3-4.4 5.4-4.4 1.7 0 2.6.2 3.7.5v-.2c0-1.9-1.2-2.9-3.3-2.9-1.5 0-2.6.3-3.9.8l-.8-2.5c1.5-.7 2.9-1.1 5.1-1.1 4 0 5.9 2.1 5.9 5.7v8zm.1-5.6c-.8-.3-1.9-.5-3.1-.5-2 0-3.1.8-3.1 2.1s1.1 2 2.6 2c2 0 3.5-1.1 3.5-2.9z"/><path fill="#e6e6e6" d="m663.3 441.1v2.1h-3.1v-18.7h3.1v7.4c1-1.4 2.4-2.5 4.5-2.5 3.2 0 6.3 2.5 6.3 7s-3.1 7-6.3 7c-2.2 0-3.6-1.1-4.5-2.3zm7.7-4.7c0-2.6-1.7-4.3-3.9-4.3s-3.9 1.7-3.9 4.4c0 2.6 1.8 4.3 3.9 4.3s3.9-1.7 3.9-4.4z"/><path fill="#e6e6e6" d="m675.3 441.4 1.4-2.1c1.4 1.1 3 1.7 4.4 1.7s2.1-.5 2.1-1.5-1.3-1.4-2.8-1.8c-.1 0-.2-.1-.2-.1-2-.6-4.2-1.4-4.2-4s2.1-4.1 4.8-4.1c1.7 0 3.5.6 5 1.5l-1.2 2.2c-1.3-.8-2.6-1.3-3.8-1.3s-1.9.5-1.9 1.4 1.3 1.4 2.8 1.8c.1 0 .2.1.2.1 2 .6 4.2 1.5 4.2 4 0 2.9-2.2 4.2-5 4.2-2 0-4.1-.7-5.8-2z"/></g>
</svg>
